<svg xmlns="http://www.w3.org/2000/svg" width="256" height="256" viewBox="0 0 256 256"><defs><linearGradient id="01base" x1="0" y1="0" x2="1" y2="1"><stop stop-color="#438f92"/><stop offset=".5" stop-color="#27303b"/><stop offset="1" stop-color="#10151e"/></linearGradient><linearGradient id="01light" x1="0" y1="0" x2="1" y2="1"><stop stop-color="#b9eee1" stop-opacity=".75"/><stop offset=".65" stop-color="#438f92" stop-opacity=".2"/><stop offset="1" stop-color="#b9eee1" stop-opacity=".5"/></linearGradient><clipPath id="01clip"><path d="M128 12 244 128 128 244 12 128Z"/></clipPath></defs><path d="M128 12 244 128 128 244 12 128Z" fill="url(#01base)"/><g clip-path="url(#01clip)"><path d="M-20 126 126-20H175L-20 175Z" fill="#b9eee1" opacity=".17"/><path d="M-20 190 190-20H207L-20 207Z" fill="#b9eee1" opacity=".08"/><path d="m66 199 133-133 6 6L72 205Z" fill="#438f92" opacity=".18"/><path d="m72 94 56-56 56 56M72 162l56 56 56-56" fill="none" stroke="url(#01light)" stroke-width="2"/><path d="m83 91 45-45 45 45" fill="none" stroke="#b9eee1" stroke-width="1" opacity=".35"/></g><path d="M128 18 238 128 128 238 18 128Z" fill="none" stroke="url(#01light)" stroke-width="2"/><path d="M119 28h18M119 228h18" stroke="#b9eee1" stroke-width="2" opacity=".45"/></svg>