# Blade Tetra inventory durability model.
# Compatible with SlashBlade: Resharped's durability.png UV layout.
# The two final faces in "base" fill the otherwise hollow central diamond.

v 0.000000 70.710701 0.000000
v 70.710701 0.000000 0.000000
v -70.710701 0.000000 0.000000
v 0.000000 -70.710602 0.000000
v 0.000000 55.656200 4.000000
v 55.656200 0.000000 4.000000
v -55.656101 0.000000 4.000000
v 0.000000 -55.656101 4.000000
v 0.000000 -59.570202 4.960000
v 0.000000 -66.796501 3.040000
v -66.796501 0.000000 2.540000
v -59.570301 0.000000 4.460000
v 59.570301 0.000000 3.460000
v 66.796600 0.000000 1.540000
v 0.000000 -66.796501 1.040000
v 0.000000 -59.570202 2.960000
v 0.000000 59.570301 3.960000
v 0.000000 66.796600 2.040000
v 0.000000 -59.570202 4.960000
v 0.000000 -66.796501 3.040000
v -66.796501 0.000000 2.540000
v -59.570301 0.000000 4.460000
v 59.570301 0.000000 3.460000
v 66.796600 0.000000 1.540000
v 0.000000 -66.796501 1.040000
v 0.000000 -59.570202 2.960000
v 0.000000 59.570301 3.960000
v 0.000000 66.796600 2.040000

vt 0.68750 0.81250
vt 0.56250 0.93750
vt 0.93750 0.93750
vt 0.81250 0.81250
vt 0.93750 0.56250
vt 0.81250 0.68750
vt 0.56250 0.56250
vt 0.68750 0.68750
vt 0.39583 0.60417
vt 0.10417 0.60417
vt 0.14583 0.64583
vt 0.35417 0.64583
vt 0.39583 0.89583
vt 0.35417 0.85417
vt 0.10417 0.89583
vt 0.14583 0.85417
vt 0.39583 0.10417
vt 0.10417 0.10417
vt 0.14583 0.14583
vt 0.35417 0.14583
vt 0.39583 0.39583
vt 0.35417 0.35417
vt 0.10417 0.39583
vt 0.14583 0.35417

vn 0.00000 0.00000 1.00000

g base
f 2/3/1 1/2/1 5/1/1
f 6/4/1 2/3/1 5/1/1
f 4/5/1 2/3/1 6/4/1
f 8/6/1 4/5/1 6/4/1
f 3/7/1 4/5/1 8/6/1
f 7/8/1 3/7/1 8/6/1
f 1/2/1 3/7/1 7/8/1
f 5/1/1 1/2/1 7/8/1
f 6/4/1 5/1/1 8/6/1
f 5/1/1 7/8/1 8/6/1

g color
f 12/11/1 11/10/1 10/9/1
f 9/12/1 12/11/1 10/9/1
f 16/12/1 15/9/1 14/13/1
f 13/14/1 16/12/1 14/13/1
f 13/14/1 14/13/1 18/15/1
f 17/16/1 13/14/1 18/15/1
f 17/16/1 18/15/1 11/10/1
f 12/11/1 17/16/1 11/10/1

g color_r
f 22/19/1 21/18/1 20/17/1
f 19/20/1 22/19/1 20/17/1
f 26/20/1 25/17/1 24/21/1
f 23/22/1 26/20/1 24/21/1
f 23/22/1 24/21/1 28/23/1
f 27/24/1 23/22/1 28/23/1
f 27/24/1 28/23/1 21/18/1
f 22/19/1 27/24/1 21/18/1
