g crescent
# Made in Blockbench 5.1.6


v -0.5550380 -0.4030568 -0.0390625
v -0.5573603 -0.4051479 -0.0390625
v -0.5573603 -0.4051479 0.0390625
v -0.5550380 -0.4030568 0.0390625
v -0.4494291 -0.4991415 -0.0390625
v -0.4706255 -0.5226826 -0.0390625
v -0.4706255 -0.5226826 0.0390625
v -0.4494291 -0.4991415 0.0390625
v -0.3288146 -0.5695236 -0.0390625
v -0.3586854 -0.6212614 -0.0390625
v -0.3586854 -0.6212614 0.0390625
v -0.3288146 -0.5695236 0.0390625
v -0.1990321 -0.6125579 -0.0390625
v -0.2258662 -0.6951448 -0.0390625
v -0.2258662 -0.6951448 0.0390625
v -0.1990321 -0.6125579 0.0390625
v -0.0659836 -0.6277919 -0.0390625
v -0.0777430 -0.7396757 -0.0390625
v -0.0777430 -0.7396757 0.0390625
v -0.0659836 -0.6277919 0.0390625
v 0.0647401 -0.6159613 -0.0390625
v 0.0789865 -0.7515063 -0.0390625
v 0.0789865 -0.7515063 0.0390625
v 0.0647401 -0.6159613 0.0390625
v 0.1880670 -0.5788108 -0.0390625
v 0.2368313 -0.7288919 -0.0390625
v 0.2368313 -0.7288919 0.0390625
v 0.1880670 -0.5788108 0.0390625
v 0.2995822 -0.5188917 -0.0390625
v 0.3879178 -0.6718933 -0.0390625
v 0.3879178 -0.6718933 0.0390625
v 0.2995822 -0.5188917 0.0390625
v 0.3956007 -0.4393591 -0.0390625
v 0.5244539 -0.5824650 -0.0390625
v 0.5244539 -0.5824650 0.0390625
v 0.3956007 -0.4393591 0.0390625
v 0.4731845 -0.3437886 -0.0390625
v 0.6392139 -0.4644161 -0.0390625
v 0.6392139 -0.4644161 0.0390625
v 0.4731845 -0.3437886 0.0390625
v 0.5301207 -0.2360249 -0.0390625
v 0.7260043 -0.3232379 -0.0390625
v 0.7260043 -0.3232379 0.0390625
v 0.5301207 -0.2360249 0.0390625
v 0.5648785 -0.1200686 -0.0390625
v 0.7800745 -0.1658099 -0.0390625
v 0.7800745 -0.1658099 0.0390625
v 0.5648785 -0.1200686 0.0390625
v 0.5765625 0.0000000 -0.0390625
v 0.7984375 0.0000000 -0.0390625
v 0.7984375 0.0000000 0.0390625
v 0.5765625 0.0000000 0.0390625
v 0.5648785 0.1200686 -0.0390625
v 0.7800745 0.1658099 -0.0390625
v 0.7800745 0.1658099 0.0390625
v 0.5648785 0.1200686 0.0390625
v 0.5301207 0.2360249 -0.0390625
v 0.7260043 0.3232379 -0.0390625
v 0.7260043 0.3232379 0.0390625
v 0.5301207 0.2360249 0.0390625
v 0.4731845 0.3437886 -0.0390625
v 0.6392139 0.4644161 -0.0390625
v 0.6392139 0.4644161 0.0390625
v 0.4731845 0.3437886 0.0390625
v 0.3956007 0.4393591 -0.0390625
v 0.5244539 0.5824650 -0.0390625
v 0.5244539 0.5824650 0.0390625
v 0.3956007 0.4393591 0.0390625
v 0.2995822 0.5188917 -0.0390625
v 0.3879178 0.6718933 -0.0390625
v 0.3879178 0.6718933 0.0390625
v 0.2995822 0.5188917 0.0390625
v 0.1880670 0.5788108 -0.0390625
v 0.2368313 0.7288919 -0.0390625
v 0.2368313 0.7288919 0.0390625
v 0.1880670 0.5788108 0.0390625
v 0.0647401 0.6159613 -0.0390625
v 0.0789865 0.7515063 -0.0390625
v 0.0789865 0.7515063 0.0390625
v 0.0647401 0.6159613 0.0390625
v -0.0659836 0.6277919 -0.0390625
v -0.0777430 0.7396757 -0.0390625
v -0.0777430 0.7396757 0.0390625
v -0.0659836 0.6277919 0.0390625
v -0.1990321 0.6125579 -0.0390625
v -0.2258662 0.6951448 -0.0390625
v -0.2258662 0.6951448 0.0390625
v -0.1990321 0.6125579 0.0390625
v -0.3288146 0.5695236 -0.0390625
v -0.3586854 0.6212614 -0.0390625
v -0.3586854 0.6212614 0.0390625
v -0.3288146 0.5695236 0.0390625
v -0.4494291 0.4991415 -0.0390625
v -0.4706255 0.5226826 -0.0390625
v -0.4706255 0.5226826 0.0390625
v -0.4494291 0.4991415 0.0390625
v -0.5550380 0.4030568 -0.0390625
v -0.5573603 0.4051479 -0.0390625
v -0.5573603 0.4051479 0.0390625
v -0.5550380 0.4030568 0.0390625
vt 0.0312500 0.6250000
vt 0.0625000 0.6250000
vt 0.0312500 0.5937500
vt 0.0625000 0.5937500
vt 0.2812500 0.6250000
vt 0.3125000 0.6250000
vt 0.2812500 0.5937500
vt 0.3125000 0.5937500
vt 0.0312500 0.6250000
vt 0.0625000 0.6250000
vt 0.0312500 0.5937500
vt 0.0625000 0.5937500
vt 0.2812500 0.6250000
vt 0.3125000 0.6250000
vt 0.2812500 0.5937500
vt 0.3125000 0.5937500
vt 0.0312500 0.6250000
vt 0.0625000 0.6250000
vt 0.0312500 0.5937500
vt 0.0625000 0.5937500
vt 0.2812500 0.6250000
vt 0.3125000 0.6250000
vt 0.2812500 0.5937500
vt 0.3125000 0.5937500
vt 0.0312500 0.6250000
vt 0.0625000 0.6250000
vt 0.0312500 0.5937500
vt 0.0625000 0.5937500
vt 0.2812500 0.6250000
vt 0.3125000 0.6250000
vt 0.2812500 0.5937500
vt 0.3125000 0.5937500
vt 0.0312500 0.6250000
vt 0.0625000 0.6250000
vt 0.0312500 0.5937500
vt 0.0625000 0.5937500
vt 0.2812500 0.6250000
vt 0.3125000 0.6250000
vt 0.2812500 0.5937500
vt 0.3125000 0.5937500
vt 0.0312500 0.6250000
vt 0.0625000 0.6250000
vt 0.0312500 0.5937500
vt 0.0625000 0.5937500
vt 0.2812500 0.6250000
vt 0.3125000 0.6250000
vt 0.2812500 0.5937500
vt 0.3125000 0.5937500
vt 0.0312500 0.6250000
vt 0.0625000 0.6250000
vt 0.0312500 0.5937500
vt 0.0625000 0.5937500
vt 0.2812500 0.6250000
vt 0.3125000 0.6250000
vt 0.2812500 0.5937500
vt 0.3125000 0.5937500
vt 0.0312500 0.6250000
vt 0.0625000 0.6250000
vt 0.0312500 0.5937500
vt 0.0625000 0.5937500
vt 0.2812500 0.6250000
vt 0.3125000 0.6250000
vt 0.2812500 0.5937500
vt 0.3125000 0.5937500
vt 0.0312500 0.6250000
vt 0.0625000 0.6250000
vt 0.0312500 0.5937500
vt 0.0625000 0.5937500
vt 0.2812500 0.6250000
vt 0.3125000 0.6250000
vt 0.2812500 0.5937500
vt 0.3125000 0.5937500
vt 0.0312500 0.6250000
vt 0.0625000 0.6250000
vt 0.0312500 0.5937500
vt 0.0625000 0.5937500
vt 0.2812500 0.6250000
vt 0.3125000 0.6250000
vt 0.2812500 0.5937500
vt 0.3125000 0.5937500
vt 0.0312500 0.6250000
vt 0.0625000 0.6250000
vt 0.0312500 0.5937500
vt 0.0625000 0.5937500
vt 0.2812500 0.6250000
vt 0.3125000 0.6250000
vt 0.2812500 0.5937500
vt 0.3125000 0.5937500
vt 0.0312500 0.6250000
vt 0.0625000 0.6250000
vt 0.0312500 0.5937500
vt 0.0625000 0.5937500
vt 0.2812500 0.6250000
vt 0.3125000 0.6250000
vt 0.2812500 0.5937500
vt 0.3125000 0.5937500
vt 0.0312500 0.6250000
vt 0.0625000 0.6250000
vt 0.0312500 0.5937500
vt 0.0625000 0.5937500
vt 0.2812500 0.6250000
vt 0.3125000 0.6250000
vt 0.2812500 0.5937500
vt 0.3125000 0.5937500
vt 0.0312500 0.6250000
vt 0.0625000 0.6250000
vt 0.0312500 0.5937500
vt 0.0625000 0.5937500
vt 0.2812500 0.6250000
vt 0.3125000 0.6250000
vt 0.2812500 0.5937500
vt 0.3125000 0.5937500
vt 0.0312500 0.6250000
vt 0.0625000 0.6250000
vt 0.0312500 0.5937500
vt 0.0625000 0.5937500
vt 0.2812500 0.6250000
vt 0.3125000 0.6250000
vt 0.2812500 0.5937500
vt 0.3125000 0.5937500
vt 0.0312500 0.6250000
vt 0.0625000 0.6250000
vt 0.0312500 0.5937500
vt 0.0625000 0.5937500
vt 0.2812500 0.6250000
vt 0.3125000 0.6250000
vt 0.2812500 0.5937500
vt 0.3125000 0.5937500
vt 0.0312500 0.6250000
vt 0.0625000 0.6250000
vt 0.0312500 0.5937500
vt 0.0625000 0.5937500
vt 0.2812500 0.6250000
vt 0.3125000 0.6250000
vt 0.2812500 0.5937500
vt 0.3125000 0.5937500
vt 0.0312500 0.6250000
vt 0.0625000 0.6250000
vt 0.0312500 0.5937500
vt 0.0625000 0.5937500
vt 0.2812500 0.6250000
vt 0.3125000 0.6250000
vt 0.2812500 0.5937500
vt 0.3125000 0.5937500
vt 0.0312500 0.6250000
vt 0.0625000 0.6250000
vt 0.0312500 0.5937500
vt 0.0625000 0.5937500
vt 0.2812500 0.6250000
vt 0.3125000 0.6250000
vt 0.2812500 0.5937500
vt 0.3125000 0.5937500
vt 0.0312500 0.6250000
vt 0.0625000 0.6250000
vt 0.0312500 0.5937500
vt 0.0625000 0.5937500
vt 0.2812500 0.6250000
vt 0.3125000 0.6250000
vt 0.2812500 0.5937500
vt 0.3125000 0.5937500
vt 0.0312500 0.6250000
vt 0.0625000 0.6250000
vt 0.0312500 0.5937500
vt 0.0625000 0.5937500
vt 0.2812500 0.6250000
vt 0.3125000 0.6250000
vt 0.2812500 0.5937500
vt 0.3125000 0.5937500
vt 0.0312500 0.6250000
vt 0.0625000 0.6250000
vt 0.0312500 0.5937500
vt 0.0625000 0.5937500
vt 0.2812500 0.6250000
vt 0.3125000 0.6250000
vt 0.2812500 0.5937500
vt 0.3125000 0.5937500
vt 0.0312500 0.6250000
vt 0.0625000 0.6250000
vt 0.0312500 0.5937500
vt 0.0625000 0.5937500
vt 0.2812500 0.6250000
vt 0.3125000 0.6250000
vt 0.2812500 0.5937500
vt 0.3125000 0.5937500
vt 0.0312500 0.6250000
vt 0.0625000 0.6250000
vt 0.0312500 0.5937500
vt 0.0625000 0.5937500
vt 0.2812500 0.6250000
vt 0.3125000 0.6250000
vt 0.2812500 0.5937500
vt 0.3125000 0.5937500
vt 0.0312500 0.6250000
vt 0.0625000 0.6250000
vt 0.0312500 0.5937500
vt 0.0625000 0.5937500
vt 0.2812500 0.6250000
vt 0.3125000 0.6250000
vt 0.2812500 0.5937500
vt 0.3125000 0.5937500
vt 0.0312500 0.6250000
vt 0.0625000 0.6250000
vt 0.0312500 0.5937500
vt 0.0625000 0.5937500
vt 0.2812500 0.6250000
vt 0.3125000 0.6250000
vt 0.2812500 0.5937500
vt 0.3125000 0.5937500
vt 0.0312500 0.6250000
vt 0.0625000 0.6250000
vt 0.0312500 0.5937500
vt 0.0625000 0.5937500
vt 0.2812500 0.6250000
vt 0.3125000 0.6250000
vt 0.2812500 0.5937500
vt 0.3125000 0.5937500
vt 0.0312500 0.6250000
vt 0.0625000 0.6250000
vt 0.0312500 0.5937500
vt 0.0625000 0.5937500
vt 0.2812500 0.6250000
vt 0.3125000 0.6250000
vt 0.2812500 0.5937500
vt 0.3125000 0.5937500
vt 0.0312500 0.6250000
vt 0.0625000 0.6250000
vt 0.0312500 0.5937500
vt 0.0625000 0.5937500
vt 0.2812500 0.6250000
vt 0.3125000 0.6250000
vt 0.2812500 0.5937500
vt 0.3125000 0.5937500
vt 0.0312500 0.6250000
vt 0.0625000 0.6250000
vt 0.0312500 0.5937500
vt 0.0625000 0.5937500
vt 0.2812500 0.6250000
vt 0.3125000 0.6250000
vt 0.2812500 0.5937500
vt 0.3125000 0.5937500
vt 0.0312500 0.6250000
vt 0.0625000 0.6250000
vt 0.0312500 0.5937500
vt 0.0625000 0.5937500
vt 0.2812500 0.6250000
vt 0.3125000 0.6250000
vt 0.2812500 0.5937500
vt 0.3125000 0.5937500
vt 0.0312500 0.6250000
vt 0.0625000 0.6250000
vt 0.0312500 0.5937500
vt 0.0625000 0.5937500
vt 0.2812500 0.6250000
vt 0.3125000 0.6250000
vt 0.2812500 0.5937500
vt 0.3125000 0.5937500
vt 0.0312500 0.6250000
vt 0.0625000 0.6250000
vt 0.0312500 0.5937500
vt 0.0625000 0.5937500
vt 0.2812500 0.6250000
vt 0.3125000 0.6250000
vt 0.2812500 0.5937500
vt 0.3125000 0.5937500
vt 0.0312500 0.6250000
vt 0.0625000 0.6250000
vt 0.0312500 0.5937500
vt 0.0625000 0.5937500
vt 0.2812500 0.6250000
vt 0.3125000 0.6250000
vt 0.2812500 0.5937500
vt 0.3125000 0.5937500
vt 0.0312500 0.6250000
vt 0.0625000 0.6250000
vt 0.0312500 0.5937500
vt 0.0625000 0.5937500
vt 0.2812500 0.6250000
vt 0.3125000 0.6250000
vt 0.2812500 0.5937500
vt 0.3125000 0.5937500
vt 0.0312500 0.6250000
vt 0.0625000 0.6250000
vt 0.0312500 0.5937500
vt 0.0625000 0.5937500
vt 0.2812500 0.6250000
vt 0.3125000 0.6250000
vt 0.2812500 0.5937500
vt 0.3125000 0.5937500
vt 0.0312500 0.6250000
vt 0.0625000 0.6250000
vt 0.0312500 0.5937500
vt 0.0625000 0.5937500
vt 0.2812500 0.6250000
vt 0.3125000 0.6250000
vt 0.2812500 0.5937500
vt 0.3125000 0.5937500
vt 0.0312500 0.6250000
vt 0.0625000 0.6250000
vt 0.0312500 0.5937500
vt 0.0625000 0.5937500
vt 0.2812500 0.6250000
vt 0.3125000 0.6250000
vt 0.2812500 0.5937500
vt 0.3125000 0.5937500
vt 0.0312500 0.6250000
vt 0.0625000 0.6250000
vt 0.0312500 0.5937500
vt 0.0625000 0.5937500
vt 0.2812500 0.6250000
vt 0.3125000 0.6250000
vt 0.2812500 0.5937500
vt 0.3125000 0.5937500
vt 0.0312500 0.6250000
vt 0.0625000 0.6250000
vt 0.0312500 0.5937500
vt 0.0625000 0.5937500
vt 0.2812500 0.6250000
vt 0.3125000 0.6250000
vt 0.2812500 0.5937500
vt 0.3125000 0.5937500
vt 0.0312500 0.6250000
vt 0.0625000 0.6250000
vt 0.0312500 0.5937500
vt 0.0625000 0.5937500
vt 0.2812500 0.6250000
vt 0.3125000 0.6250000
vt 0.2812500 0.5937500
vt 0.3125000 0.5937500
vt 0.0312500 0.6250000
vt 0.0625000 0.6250000
vt 0.0312500 0.5937500
vt 0.0625000 0.5937500
vt 0.2812500 0.6250000
vt 0.3125000 0.6250000
vt 0.2812500 0.5937500
vt 0.3125000 0.5937500
vt 0.0312500 0.6250000
vt 0.0625000 0.6250000
vt 0.0312500 0.5937500
vt 0.0625000 0.5937500
vt 0.2812500 0.6250000
vt 0.3125000 0.6250000
vt 0.2812500 0.5937500
vt 0.3125000 0.5937500
vt 0.0312500 0.6250000
vt 0.0625000 0.6250000
vt 0.0312500 0.5937500
vt 0.0625000 0.5937500
vt 0.2812500 0.6250000
vt 0.3125000 0.6250000
vt 0.2812500 0.5937500
vt 0.3125000 0.5937500
vt 0.0312500 0.6250000
vt 0.0625000 0.6250000
vt 0.0312500 0.5937500
vt 0.0625000 0.5937500
vt 0.2812500 0.6250000
vt 0.3125000 0.6250000
vt 0.2812500 0.5937500
vt 0.3125000 0.5937500
vt 0.0312500 0.6250000
vt 0.0625000 0.6250000
vt 0.0312500 0.5937500
vt 0.0625000 0.5937500
vt 0.2812500 0.6250000
vt 0.3125000 0.6250000
vt 0.2812500 0.5937500
vt 0.3125000 0.5937500
vt 0.0312500 0.6250000
vt 0.0625000 0.6250000
vt 0.0312500 0.5937500
vt 0.0625000 0.5937500
vt 0.2812500 0.6250000
vt 0.3125000 0.6250000
vt 0.2812500 0.5937500
vt 0.3125000 0.5937500
vt 0.0312500 0.6250000
vt 0.0625000 0.6250000
vt 0.0312500 0.5937500
vt 0.0625000 0.5937500
vt 0.2812500 0.6250000
vt 0.3125000 0.6250000
vt 0.2812500 0.5937500
vt 0.3125000 0.5937500
vt 0.0312500 0.6250000
vt 0.0625000 0.6250000
vt 0.0312500 0.5937500
vt 0.0625000 0.5937500
vt 0.0312500 0.6250000
vt 0.0625000 0.6250000
vt 0.0312500 0.5937500
vt 0.0625000 0.5937500
vn 0.0000000 0.0000000 1.0000000
vn 0.8046296 0.5937770 0.0000000
vn 0.0000000 0.0000000 -1.0000000
vn -0.6729663 -0.7396731 0.0000000
vn 0.0000000 0.0000000 1.0000000
vn 0.6608979 0.7504758 0.0000000
vn 0.0000000 0.0000000 -1.0000000
vn -0.5039970 -0.8637054 0.0000000
vn 0.0000000 0.0000000 1.0000000
vn 0.4861205 0.8738918 0.0000000
vn 0.0000000 0.0000000 -1.0000000
vn -0.3147367 -0.9491790 0.0000000
vn 0.0000000 0.0000000 1.0000000
vn 0.2879048 0.9576590 0.0000000
vn 0.0000000 0.0000000 -1.0000000
vn -0.1137566 -0.9935086 0.0000000
vn 0.0000000 0.0000000 1.0000000
vn 0.0752701 0.9971632 0.0000000
vn 0.0000000 0.0000000 -1.0000000
vn 0.0901325 -0.9959298 0.0000000
vn 0.0000000 0.0000000 1.0000000
vn -0.1418215 0.9898923 0.0000000
vn 0.0000000 0.0000000 -1.0000000
vn 0.2884337 -0.9574999 0.0000000
vn 0.0000000 0.0000000 1.0000000
vn -0.3529753 0.9356326 0.0000000
vn 0.0000000 0.0000000 -1.0000000
vn 0.4733188 -0.8808912 0.0000000
vn 0.0000000 0.0000000 1.0000000
vn -0.5479128 0.8365355 0.0000000
vn 0.0000000 0.0000000 -1.0000000
vn 0.6378962 -0.7701224 0.0000000
vn 0.0000000 0.0000000 1.0000000
vn -0.7170247 0.6970477 0.0000000
vn 0.0000000 0.0000000 -1.0000000
vn 0.7763812 -0.6302637 0.0000000
vn 0.0000000 0.0000000 1.0000000
vn -0.8518965 0.5237102 0.0000000
vn 0.0000000 0.0000000 -1.0000000
vn 0.8841782 -0.4671497 0.0000000
vn 0.0000000 0.0000000 1.0000000
vn -0.9457710 0.3248342 0.0000000
vn 0.0000000 0.0000000 -1.0000000
vn 0.9578924 -0.2871273 0.0000000
vn 0.0000000 0.0000000 1.0000000
vn -0.9939233 0.1100746 0.0000000
vn 0.0000000 0.0000000 -1.0000000
vn 0.9952986 -0.0968535 0.0000000
vn 0.0000000 0.0000000 1.0000000
vn -0.9939233 -0.1100746 0.0000000
vn 0.0000000 0.0000000 -1.0000000
vn 0.9952986 0.0968535 0.0000000
vn 0.0000000 0.0000000 1.0000000
vn -0.9457710 -0.3248342 0.0000000
vn 0.0000000 0.0000000 -1.0000000
vn 0.9578924 0.2871273 0.0000000
vn 0.0000000 0.0000000 1.0000000
vn -0.8518965 -0.5237102 0.0000000
vn 0.0000000 0.0000000 -1.0000000
vn 0.8841782 0.4671497 0.0000000
vn 0.0000000 0.0000000 1.0000000
vn -0.7170247 -0.6970477 0.0000000
vn 0.0000000 0.0000000 -1.0000000
vn 0.7763812 0.6302637 0.0000000
vn 0.0000000 0.0000000 1.0000000
vn -0.5479128 -0.8365355 0.0000000
vn 0.0000000 0.0000000 -1.0000000
vn 0.6378962 0.7701224 0.0000000
vn 0.0000000 0.0000000 1.0000000
vn -0.3529753 -0.9356326 0.0000000
vn 0.0000000 0.0000000 -1.0000000
vn 0.4733188 0.8808912 0.0000000
vn 0.0000000 0.0000000 1.0000000
vn -0.1418215 -0.9898923 0.0000000
vn 0.0000000 0.0000000 -1.0000000
vn 0.2884337 0.9574999 0.0000000
vn 0.0000000 0.0000000 1.0000000
vn 0.0752701 -0.9971632 0.0000000
vn 0.0000000 0.0000000 -1.0000000
vn 0.0901325 0.9959298 0.0000000
vn 0.0000000 0.0000000 1.0000000
vn 0.2879048 -0.9576590 0.0000000
vn 0.0000000 0.0000000 -1.0000000
vn -0.1137566 0.9935086 0.0000000
vn 0.0000000 0.0000000 1.0000000
vn 0.4861205 -0.8738918 0.0000000
vn 0.0000000 0.0000000 -1.0000000
vn -0.3147367 0.9491790 0.0000000
vn 0.0000000 0.0000000 1.0000000
vn 0.6608979 -0.7504758 0.0000000
vn 0.0000000 0.0000000 -1.0000000
vn -0.5039970 0.8637054 0.0000000
vn 0.0000000 0.0000000 1.0000000
vn 0.8046296 -0.5937770 0.0000000
vn 0.0000000 0.0000000 -1.0000000
vn -0.6729663 0.7396731 0.0000000
vn 0.6691306 -0.7431448 0.0000000
vn 0.6691306 0.7431448 0.0000000
f 1/1/1 2/2/1 6/3/1
f 1/1/1 6/3/1 5/4/1
f 2/5/2 3/6/2 7/7/2
f 2/5/2 7/7/2 6/8/2
f 3/9/3 4/10/3 8/11/3
f 3/9/3 8/11/3 7/12/3
f 4/13/4 1/14/4 5/15/4
f 4/13/4 5/15/4 8/16/4
f 5/17/5 6/18/5 10/19/5
f 5/17/5 10/19/5 9/20/5
f 6/21/6 7/22/6 11/23/6
f 6/21/6 11/23/6 10/24/6
f 7/25/7 8/26/7 12/27/7
f 7/25/7 12/27/7 11/28/7
f 8/29/8 5/30/8 9/31/8
f 8/29/8 9/31/8 12/32/8
f 9/33/9 10/34/9 14/35/9
f 9/33/9 14/35/9 13/36/9
f 10/37/10 11/38/10 15/39/10
f 10/37/10 15/39/10 14/40/10
f 11/41/11 12/42/11 16/43/11
f 11/41/11 16/43/11 15/44/11
f 12/45/12 9/46/12 13/47/12
f 12/45/12 13/47/12 16/48/12
f 13/49/13 14/50/13 18/51/13
f 13/49/13 18/51/13 17/52/13
f 14/53/14 15/54/14 19/55/14
f 14/53/14 19/55/14 18/56/14
f 15/57/15 16/58/15 20/59/15
f 15/57/15 20/59/15 19/60/15
f 16/61/16 13/62/16 17/63/16
f 16/61/16 17/63/16 20/64/16
f 17/65/17 18/66/17 22/67/17
f 17/65/17 22/67/17 21/68/17
f 18/69/18 19/70/18 23/71/18
f 18/69/18 23/71/18 22/72/18
f 19/73/19 20/74/19 24/75/19
f 19/73/19 24/75/19 23/76/19
f 20/77/20 17/78/20 21/79/20
f 20/77/20 21/79/20 24/80/20
f 21/81/21 22/82/21 26/83/21
f 21/81/21 26/83/21 25/84/21
f 22/85/22 23/86/22 27/87/22
f 22/85/22 27/87/22 26/88/22
f 23/89/23 24/90/23 28/91/23
f 23/89/23 28/91/23 27/92/23
f 24/93/24 21/94/24 25/95/24
f 24/93/24 25/95/24 28/96/24
f 25/97/25 26/98/25 30/99/25
f 25/97/25 30/99/25 29/100/25
f 26/101/26 27/102/26 31/103/26
f 26/101/26 31/103/26 30/104/26
f 27/105/27 28/106/27 32/107/27
f 27/105/27 32/107/27 31/108/27
f 28/109/28 25/110/28 29/111/28
f 28/109/28 29/111/28 32/112/28
f 29/113/29 30/114/29 34/115/29
f 29/113/29 34/115/29 33/116/29
f 30/117/30 31/118/30 35/119/30
f 30/117/30 35/119/30 34/120/30
f 31/121/31 32/122/31 36/123/31
f 31/121/31 36/123/31 35/124/31
f 32/125/32 29/126/32 33/127/32
f 32/125/32 33/127/32 36/128/32
f 33/129/33 34/130/33 38/131/33
f 33/129/33 38/131/33 37/132/33
f 34/133/34 35/134/34 39/135/34
f 34/133/34 39/135/34 38/136/34
f 35/137/35 36/138/35 40/139/35
f 35/137/35 40/139/35 39/140/35
f 36/141/36 33/142/36 37/143/36
f 36/141/36 37/143/36 40/144/36
f 37/145/37 38/146/37 42/147/37
f 37/145/37 42/147/37 41/148/37
f 38/149/38 39/150/38 43/151/38
f 38/149/38 43/151/38 42/152/38
f 39/153/39 40/154/39 44/155/39
f 39/153/39 44/155/39 43/156/39
f 40/157/40 37/158/40 41/159/40
f 40/157/40 41/159/40 44/160/40
f 41/161/41 42/162/41 46/163/41
f 41/161/41 46/163/41 45/164/41
f 42/165/42 43/166/42 47/167/42
f 42/165/42 47/167/42 46/168/42
f 43/169/43 44/170/43 48/171/43
f 43/169/43 48/171/43 47/172/43
f 44/173/44 41/174/44 45/175/44
f 44/173/44 45/175/44 48/176/44
f 45/177/45 46/178/45 50/179/45
f 45/177/45 50/179/45 49/180/45
f 46/181/46 47/182/46 51/183/46
f 46/181/46 51/183/46 50/184/46
f 47/185/47 48/186/47 52/187/47
f 47/185/47 52/187/47 51/188/47
f 48/189/48 45/190/48 49/191/48
f 48/189/48 49/191/48 52/192/48
f 49/193/49 50/194/49 54/195/49
f 49/193/49 54/195/49 53/196/49
f 50/197/50 51/198/50 55/199/50
f 50/197/50 55/199/50 54/200/50
f 51/201/51 52/202/51 56/203/51
f 51/201/51 56/203/51 55/204/51
f 52/205/52 49/206/52 53/207/52
f 52/205/52 53/207/52 56/208/52
f 53/209/53 54/210/53 58/211/53
f 53/209/53 58/211/53 57/212/53
f 54/213/54 55/214/54 59/215/54
f 54/213/54 59/215/54 58/216/54
f 55/217/55 56/218/55 60/219/55
f 55/217/55 60/219/55 59/220/55
f 56/221/56 53/222/56 57/223/56
f 56/221/56 57/223/56 60/224/56
f 57/225/57 58/226/57 62/227/57
f 57/225/57 62/227/57 61/228/57
f 58/229/58 59/230/58 63/231/58
f 58/229/58 63/231/58 62/232/58
f 59/233/59 60/234/59 64/235/59
f 59/233/59 64/235/59 63/236/59
f 60/237/60 57/238/60 61/239/60
f 60/237/60 61/239/60 64/240/60
f 61/241/61 62/242/61 66/243/61
f 61/241/61 66/243/61 65/244/61
f 62/245/62 63/246/62 67/247/62
f 62/245/62 67/247/62 66/248/62
f 63/249/63 64/250/63 68/251/63
f 63/249/63 68/251/63 67/252/63
f 64/253/64 61/254/64 65/255/64
f 64/253/64 65/255/64 68/256/64
f 65/257/65 66/258/65 70/259/65
f 65/257/65 70/259/65 69/260/65
f 66/261/66 67/262/66 71/263/66
f 66/261/66 71/263/66 70/264/66
f 67/265/67 68/266/67 72/267/67
f 67/265/67 72/267/67 71/268/67
f 68/269/68 65/270/68 69/271/68
f 68/269/68 69/271/68 72/272/68
f 69/273/69 70/274/69 74/275/69
f 69/273/69 74/275/69 73/276/69
f 70/277/70 71/278/70 75/279/70
f 70/277/70 75/279/70 74/280/70
f 71/281/71 72/282/71 76/283/71
f 71/281/71 76/283/71 75/284/71
f 72/285/72 69/286/72 73/287/72
f 72/285/72 73/287/72 76/288/72
f 73/289/73 74/290/73 78/291/73
f 73/289/73 78/291/73 77/292/73
f 74/293/74 75/294/74 79/295/74
f 74/293/74 79/295/74 78/296/74
f 75/297/75 76/298/75 80/299/75
f 75/297/75 80/299/75 79/300/75
f 76/301/76 73/302/76 77/303/76
f 76/301/76 77/303/76 80/304/76
f 77/305/77 78/306/77 82/307/77
f 77/305/77 82/307/77 81/308/77
f 78/309/78 79/310/78 83/311/78
f 78/309/78 83/311/78 82/312/78
f 79/313/79 80/314/79 84/315/79
f 79/313/79 84/315/79 83/316/79
f 80/317/80 77/318/80 81/319/80
f 80/317/80 81/319/80 84/320/80
f 81/321/81 82/322/81 86/323/81
f 81/321/81 86/323/81 85/324/81
f 82/325/82 83/326/82 87/327/82
f 82/325/82 87/327/82 86/328/82
f 83/329/83 84/330/83 88/331/83
f 83/329/83 88/331/83 87/332/83
f 84/333/84 81/334/84 85/335/84
f 84/333/84 85/335/84 88/336/84
f 85/337/85 86/338/85 90/339/85
f 85/337/85 90/339/85 89/340/85
f 86/341/86 87/342/86 91/343/86
f 86/341/86 91/343/86 90/344/86
f 87/345/87 88/346/87 92/347/87
f 87/345/87 92/347/87 91/348/87
f 88/349/88 85/350/88 89/351/88
f 88/349/88 89/351/88 92/352/88
f 89/353/89 90/354/89 94/355/89
f 89/353/89 94/355/89 93/356/89
f 90/357/90 91/358/90 95/359/90
f 90/357/90 95/359/90 94/360/90
f 91/361/91 92/362/91 96/363/91
f 91/361/91 96/363/91 95/364/91
f 92/365/92 89/366/92 93/367/92
f 92/365/92 93/367/92 96/368/92
f 93/369/93 94/370/93 98/371/93
f 93/369/93 98/371/93 97/372/93
f 94/373/94 95/374/94 99/375/94
f 94/373/94 99/375/94 98/376/94
f 95/377/95 96/378/95 100/379/95
f 95/377/95 100/379/95 99/380/95
f 96/381/96 93/382/96 97/383/96
f 96/381/96 97/383/96 100/384/96
f 4/385/97 3/386/97 2/387/97
f 4/385/97 2/387/97 1/388/97
f 97/389/98 98/390/98 99/391/98
f 97/389/98 99/391/98 100/392/98

v -0.5866044 -0.4261607 -0.0487500
v -0.5869759 -0.4264953 -0.0487500
v -0.5869759 -0.4264953 -0.0425000
v -0.5866044 -0.4261607 -0.0425000
v -0.4836331 -0.5371289 -0.0487500
v -0.4870245 -0.5408955 -0.0487500
v -0.4870245 -0.5408955 -0.0425000
v -0.4836331 -0.5371289 -0.0425000
v -0.3602666 -0.6240000 -0.0487500
v -0.3650459 -0.6322781 -0.0487500
v -0.3650459 -0.6322781 -0.0425000
v -0.3602666 -0.6240000 -0.0425000
v -0.2219872 -0.6832062 -0.0487500
v -0.2262806 -0.6964201 -0.0487500
v -0.2262806 -0.6964201 -0.0425000
v -0.2219872 -0.6832062 -0.0425000
v -0.0748750 -0.7123885 -0.0487500
v -0.0767566 -0.7302899 -0.0487500
v -0.0767566 -0.7302899 -0.0425000
v -0.0748750 -0.7123885 -0.0425000
v 0.0746761 -0.7104956 -0.0487500
v 0.0769555 -0.7321828 -0.0487500
v 0.0769555 -0.7321828 -0.0425000
v 0.0746761 -0.7104956 -0.0425000
v 0.2202327 -0.6778067 -0.0487500
v 0.2280350 -0.7018197 -0.0487500
v 0.2280350 -0.7018197 -0.0425000
v 0.2202327 -0.6778067 -0.0425000
v 0.3555894 -0.6158989 -0.0487500
v 0.3697231 -0.6403792 -0.0487500
v 0.3697231 -0.6403792 -0.0425000
v 0.3555894 -0.6158989 -0.0425000
v 0.4750205 -0.5275638 -0.0487500
v 0.4956370 -0.5504607 -0.0487500
v 0.4956370 -0.5504607 -0.0425000
v 0.4750205 -0.5275638 -0.0425000
v 0.5735078 -0.4166778 -0.0487500
v 0.6000725 -0.4359782 -0.0487500
v 0.6000725 -0.4359782 -0.0425000
v 0.5735078 -0.4166778 -0.0425000
v 0.6469353 -0.2880341 -0.0487500
v 0.6782766 -0.3019882 -0.0487500
v 0.6782766 -0.3019882 -0.0425000
v 0.6469353 -0.2880341 -0.0425000
v 0.6922470 -0.1471416 -0.0487500
v 0.7266784 -0.1544603 -0.0487500
v 0.7266784 -0.1544603 -0.0425000
v 0.6922470 -0.1471416 -0.0425000
v 0.7075625 0.0000000 -0.0487500
v 0.7430625 0.0000000 -0.0487500
v 0.7430625 0.0000000 -0.0425000
v 0.7075625 0.0000000 -0.0425000
v 0.6922470 0.1471416 -0.0487500
v 0.7266784 0.1544603 -0.0487500
v 0.7266784 0.1544603 -0.0425000
v 0.6922470 0.1471416 -0.0425000
v 0.6469353 0.2880341 -0.0487500
v 0.6782766 0.3019882 -0.0487500
v 0.6782766 0.3019882 -0.0425000
v 0.6469353 0.2880341 -0.0425000
v 0.5735078 0.4166778 -0.0487500
v 0.6000725 0.4359782 -0.0487500
v 0.6000725 0.4359782 -0.0425000
v 0.5735078 0.4166778 -0.0425000
v 0.4750205 0.5275638 -0.0487500
v 0.4956370 0.5504607 -0.0487500
v 0.4956370 0.5504607 -0.0425000
v 0.4750205 0.5275638 -0.0425000
v 0.3555894 0.6158989 -0.0487500
v 0.3697231 0.6403792 -0.0487500
v 0.3697231 0.6403792 -0.0425000
v 0.3555894 0.6158989 -0.0425000
v 0.2202327 0.6778067 -0.0487500
v 0.2280350 0.7018197 -0.0487500
v 0.2280350 0.7018197 -0.0425000
v 0.2202327 0.6778067 -0.0425000
v 0.0746761 0.7104956 -0.0487500
v 0.0769555 0.7321828 -0.0487500
v 0.0769555 0.7321828 -0.0425000
v 0.0746761 0.7104956 -0.0425000
v -0.0748750 0.7123885 -0.0487500
v -0.0767566 0.7302899 -0.0487500
v -0.0767566 0.7302899 -0.0425000
v -0.0748750 0.7123885 -0.0425000
v -0.2219872 0.6832062 -0.0487500
v -0.2262806 0.6964201 -0.0487500
v -0.2262806 0.6964201 -0.0425000
v -0.2219872 0.6832062 -0.0425000
v -0.3602666 0.6240000 -0.0487500
v -0.3650459 0.6322781 -0.0487500
v -0.3650459 0.6322781 -0.0425000
v -0.3602666 0.6240000 -0.0425000
v -0.4836331 0.5371289 -0.0487500
v -0.4870245 0.5408955 -0.0487500
v -0.4870245 0.5408955 -0.0425000
v -0.4836331 0.5371289 -0.0425000
v -0.5866044 0.4261607 -0.0487500
v -0.5869759 0.4264953 -0.0487500
v -0.5869759 0.4264953 -0.0425000
v -0.5866044 0.4261607 -0.0425000
vt 0.1562500 0.6250000
vt 0.1875000 0.6250000
vt 0.1562500 0.5937500
vt 0.1875000 0.5937500
vt 0.2812500 0.6250000
vt 0.3125000 0.6250000
vt 0.2812500 0.5937500
vt 0.3125000 0.5937500
vt 0.1562500 0.6250000
vt 0.1875000 0.6250000
vt 0.1562500 0.5937500
vt 0.1875000 0.5937500
vt 0.2812500 0.6250000
vt 0.3125000 0.6250000
vt 0.2812500 0.5937500
vt 0.3125000 0.5937500
vt 0.1562500 0.6250000
vt 0.1875000 0.6250000
vt 0.1562500 0.5937500
vt 0.1875000 0.5937500
vt 0.2812500 0.6250000
vt 0.3125000 0.6250000
vt 0.2812500 0.5937500
vt 0.3125000 0.5937500
vt 0.1562500 0.6250000
vt 0.1875000 0.6250000
vt 0.1562500 0.5937500
vt 0.1875000 0.5937500
vt 0.2812500 0.6250000
vt 0.3125000 0.6250000
vt 0.2812500 0.5937500
vt 0.3125000 0.5937500
vt 0.1562500 0.6250000
vt 0.1875000 0.6250000
vt 0.1562500 0.5937500
vt 0.1875000 0.5937500
vt 0.2812500 0.6250000
vt 0.3125000 0.6250000
vt 0.2812500 0.5937500
vt 0.3125000 0.5937500
vt 0.1562500 0.6250000
vt 0.1875000 0.6250000
vt 0.1562500 0.5937500
vt 0.1875000 0.5937500
vt 0.2812500 0.6250000
vt 0.3125000 0.6250000
vt 0.2812500 0.5937500
vt 0.3125000 0.5937500
vt 0.1562500 0.6250000
vt 0.1875000 0.6250000
vt 0.1562500 0.5937500
vt 0.1875000 0.5937500
vt 0.2812500 0.6250000
vt 0.3125000 0.6250000
vt 0.2812500 0.5937500
vt 0.3125000 0.5937500
vt 0.1562500 0.6250000
vt 0.1875000 0.6250000
vt 0.1562500 0.5937500
vt 0.1875000 0.5937500
vt 0.2812500 0.6250000
vt 0.3125000 0.6250000
vt 0.2812500 0.5937500
vt 0.3125000 0.5937500
vt 0.1562500 0.6250000
vt 0.1875000 0.6250000
vt 0.1562500 0.5937500
vt 0.1875000 0.5937500
vt 0.2812500 0.6250000
vt 0.3125000 0.6250000
vt 0.2812500 0.5937500
vt 0.3125000 0.5937500
vt 0.1562500 0.6250000
vt 0.1875000 0.6250000
vt 0.1562500 0.5937500
vt 0.1875000 0.5937500
vt 0.2812500 0.6250000
vt 0.3125000 0.6250000
vt 0.2812500 0.5937500
vt 0.3125000 0.5937500
vt 0.1562500 0.6250000
vt 0.1875000 0.6250000
vt 0.1562500 0.5937500
vt 0.1875000 0.5937500
vt 0.2812500 0.6250000
vt 0.3125000 0.6250000
vt 0.2812500 0.5937500
vt 0.3125000 0.5937500
vt 0.1562500 0.6250000
vt 0.1875000 0.6250000
vt 0.1562500 0.5937500
vt 0.1875000 0.5937500
vt 0.2812500 0.6250000
vt 0.3125000 0.6250000
vt 0.2812500 0.5937500
vt 0.3125000 0.5937500
vt 0.1562500 0.6250000
vt 0.1875000 0.6250000
vt 0.1562500 0.5937500
vt 0.1875000 0.5937500
vt 0.2812500 0.6250000
vt 0.3125000 0.6250000
vt 0.2812500 0.5937500
vt 0.3125000 0.5937500
vt 0.1562500 0.6250000
vt 0.1875000 0.6250000
vt 0.1562500 0.5937500
vt 0.1875000 0.5937500
vt 0.2812500 0.6250000
vt 0.3125000 0.6250000
vt 0.2812500 0.5937500
vt 0.3125000 0.5937500
vt 0.1562500 0.6250000
vt 0.1875000 0.6250000
vt 0.1562500 0.5937500
vt 0.1875000 0.5937500
vt 0.2812500 0.6250000
vt 0.3125000 0.6250000
vt 0.2812500 0.5937500
vt 0.3125000 0.5937500
vt 0.1562500 0.6250000
vt 0.1875000 0.6250000
vt 0.1562500 0.5937500
vt 0.1875000 0.5937500
vt 0.2812500 0.6250000
vt 0.3125000 0.6250000
vt 0.2812500 0.5937500
vt 0.3125000 0.5937500
vt 0.1562500 0.6250000
vt 0.1875000 0.6250000
vt 0.1562500 0.5937500
vt 0.1875000 0.5937500
vt 0.2812500 0.6250000
vt 0.3125000 0.6250000
vt 0.2812500 0.5937500
vt 0.3125000 0.5937500
vt 0.1562500 0.6250000
vt 0.1875000 0.6250000
vt 0.1562500 0.5937500
vt 0.1875000 0.5937500
vt 0.2812500 0.6250000
vt 0.3125000 0.6250000
vt 0.2812500 0.5937500
vt 0.3125000 0.5937500
vt 0.1562500 0.6250000
vt 0.1875000 0.6250000
vt 0.1562500 0.5937500
vt 0.1875000 0.5937500
vt 0.2812500 0.6250000
vt 0.3125000 0.6250000
vt 0.2812500 0.5937500
vt 0.3125000 0.5937500
vt 0.1562500 0.6250000
vt 0.1875000 0.6250000
vt 0.1562500 0.5937500
vt 0.1875000 0.5937500
vt 0.2812500 0.6250000
vt 0.3125000 0.6250000
vt 0.2812500 0.5937500
vt 0.3125000 0.5937500
vt 0.1562500 0.6250000
vt 0.1875000 0.6250000
vt 0.1562500 0.5937500
vt 0.1875000 0.5937500
vt 0.2812500 0.6250000
vt 0.3125000 0.6250000
vt 0.2812500 0.5937500
vt 0.3125000 0.5937500
vt 0.1562500 0.6250000
vt 0.1875000 0.6250000
vt 0.1562500 0.5937500
vt 0.1875000 0.5937500
vt 0.2812500 0.6250000
vt 0.3125000 0.6250000
vt 0.2812500 0.5937500
vt 0.3125000 0.5937500
vt 0.1562500 0.6250000
vt 0.1875000 0.6250000
vt 0.1562500 0.5937500
vt 0.1875000 0.5937500
vt 0.2812500 0.6250000
vt 0.3125000 0.6250000
vt 0.2812500 0.5937500
vt 0.3125000 0.5937500
vt 0.1562500 0.6250000
vt 0.1875000 0.6250000
vt 0.1562500 0.5937500
vt 0.1875000 0.5937500
vt 0.2812500 0.6250000
vt 0.3125000 0.6250000
vt 0.2812500 0.5937500
vt 0.3125000 0.5937500
vt 0.1562500 0.6250000
vt 0.1875000 0.6250000
vt 0.1562500 0.5937500
vt 0.1875000 0.5937500
vt 0.2812500 0.6250000
vt 0.3125000 0.6250000
vt 0.2812500 0.5937500
vt 0.3125000 0.5937500
vt 0.1562500 0.6250000
vt 0.1875000 0.6250000
vt 0.1562500 0.5937500
vt 0.1875000 0.5937500
vt 0.2812500 0.6250000
vt 0.3125000 0.6250000
vt 0.2812500 0.5937500
vt 0.3125000 0.5937500
vt 0.1562500 0.6250000
vt 0.1875000 0.6250000
vt 0.1562500 0.5937500
vt 0.1875000 0.5937500
vt 0.2812500 0.6250000
vt 0.3125000 0.6250000
vt 0.2812500 0.5937500
vt 0.3125000 0.5937500
vt 0.1562500 0.6250000
vt 0.1875000 0.6250000
vt 0.1562500 0.5937500
vt 0.1875000 0.5937500
vt 0.2812500 0.6250000
vt 0.3125000 0.6250000
vt 0.2812500 0.5937500
vt 0.3125000 0.5937500
vt 0.1562500 0.6250000
vt 0.1875000 0.6250000
vt 0.1562500 0.5937500
vt 0.1875000 0.5937500
vt 0.2812500 0.6250000
vt 0.3125000 0.6250000
vt 0.2812500 0.5937500
vt 0.3125000 0.5937500
vt 0.1562500 0.6250000
vt 0.1875000 0.6250000
vt 0.1562500 0.5937500
vt 0.1875000 0.5937500
vt 0.2812500 0.6250000
vt 0.3125000 0.6250000
vt 0.2812500 0.5937500
vt 0.3125000 0.5937500
vt 0.1562500 0.6250000
vt 0.1875000 0.6250000
vt 0.1562500 0.5937500
vt 0.1875000 0.5937500
vt 0.2812500 0.6250000
vt 0.3125000 0.6250000
vt 0.2812500 0.5937500
vt 0.3125000 0.5937500
vt 0.1562500 0.6250000
vt 0.1875000 0.6250000
vt 0.1562500 0.5937500
vt 0.1875000 0.5937500
vt 0.2812500 0.6250000
vt 0.3125000 0.6250000
vt 0.2812500 0.5937500
vt 0.3125000 0.5937500
vt 0.1562500 0.6250000
vt 0.1875000 0.6250000
vt 0.1562500 0.5937500
vt 0.1875000 0.5937500
vt 0.2812500 0.6250000
vt 0.3125000 0.6250000
vt 0.2812500 0.5937500
vt 0.3125000 0.5937500
vt 0.1562500 0.6250000
vt 0.1875000 0.6250000
vt 0.1562500 0.5937500
vt 0.1875000 0.5937500
vt 0.2812500 0.6250000
vt 0.3125000 0.6250000
vt 0.2812500 0.5937500
vt 0.3125000 0.5937500
vt 0.1562500 0.6250000
vt 0.1875000 0.6250000
vt 0.1562500 0.5937500
vt 0.1875000 0.5937500
vt 0.2812500 0.6250000
vt 0.3125000 0.6250000
vt 0.2812500 0.5937500
vt 0.3125000 0.5937500
vt 0.1562500 0.6250000
vt 0.1875000 0.6250000
vt 0.1562500 0.5937500
vt 0.1875000 0.5937500
vt 0.2812500 0.6250000
vt 0.3125000 0.6250000
vt 0.2812500 0.5937500
vt 0.3125000 0.5937500
vt 0.1562500 0.6250000
vt 0.1875000 0.6250000
vt 0.1562500 0.5937500
vt 0.1875000 0.5937500
vt 0.2812500 0.6250000
vt 0.3125000 0.6250000
vt 0.2812500 0.5937500
vt 0.3125000 0.5937500
vt 0.1562500 0.6250000
vt 0.1875000 0.6250000
vt 0.1562500 0.5937500
vt 0.1875000 0.5937500
vt 0.2812500 0.6250000
vt 0.3125000 0.6250000
vt 0.2812500 0.5937500
vt 0.3125000 0.5937500
vt 0.1562500 0.6250000
vt 0.1875000 0.6250000
vt 0.1562500 0.5937500
vt 0.1875000 0.5937500
vt 0.2812500 0.6250000
vt 0.3125000 0.6250000
vt 0.2812500 0.5937500
vt 0.3125000 0.5937500
vt 0.1562500 0.6250000
vt 0.1875000 0.6250000
vt 0.1562500 0.5937500
vt 0.1875000 0.5937500
vt 0.2812500 0.6250000
vt 0.3125000 0.6250000
vt 0.2812500 0.5937500
vt 0.3125000 0.5937500
vt 0.1562500 0.6250000
vt 0.1875000 0.6250000
vt 0.1562500 0.5937500
vt 0.1875000 0.5937500
vt 0.2812500 0.6250000
vt 0.3125000 0.6250000
vt 0.2812500 0.5937500
vt 0.3125000 0.5937500
vt 0.1562500 0.6250000
vt 0.1875000 0.6250000
vt 0.1562500 0.5937500
vt 0.1875000 0.5937500
vt 0.2812500 0.6250000
vt 0.3125000 0.6250000
vt 0.2812500 0.5937500
vt 0.3125000 0.5937500
vt 0.1562500 0.6250000
vt 0.1875000 0.6250000
vt 0.1562500 0.5937500
vt 0.1875000 0.5937500
vt 0.2812500 0.6250000
vt 0.3125000 0.6250000
vt 0.2812500 0.5937500
vt 0.3125000 0.5937500
vt 0.1562500 0.6250000
vt 0.1875000 0.6250000
vt 0.1562500 0.5937500
vt 0.1875000 0.5937500
vt 0.2812500 0.6250000
vt 0.3125000 0.6250000
vt 0.2812500 0.5937500
vt 0.3125000 0.5937500
vt 0.1562500 0.6250000
vt 0.1875000 0.6250000
vt 0.1562500 0.5937500
vt 0.1875000 0.5937500
vt 0.2812500 0.6250000
vt 0.3125000 0.6250000
vt 0.2812500 0.5937500
vt 0.3125000 0.5937500
vt 0.1562500 0.6250000
vt 0.1875000 0.6250000
vt 0.1562500 0.5937500
vt 0.1875000 0.5937500
vt 0.2812500 0.6250000
vt 0.3125000 0.6250000
vt 0.2812500 0.5937500
vt 0.3125000 0.5937500
vt 0.1562500 0.6250000
vt 0.1875000 0.6250000
vt 0.1562500 0.5937500
vt 0.1875000 0.5937500
vt 0.2812500 0.6250000
vt 0.3125000 0.6250000
vt 0.2812500 0.5937500
vt 0.3125000 0.5937500
vt 0.1562500 0.6250000
vt 0.1875000 0.6250000
vt 0.1562500 0.5937500
vt 0.1875000 0.5937500
vt 0.2812500 0.6250000
vt 0.3125000 0.6250000
vt 0.2812500 0.5937500
vt 0.3125000 0.5937500
vt 0.1562500 0.6250000
vt 0.1875000 0.6250000
vt 0.1562500 0.5937500
vt 0.1875000 0.5937500
vt 0.1562500 0.6250000
vt 0.1875000 0.6250000
vt 0.1562500 0.5937500
vt 0.1875000 0.5937500
vn 0.0000000 0.0000000 1.0000000
vn 0.7530619 0.6579497 0.0000000
vn 0.0000000 0.0000000 -1.0000000
vn -0.7330262 -0.6802004 0.0000000
vn 0.0000000 0.0000000 1.0000000
vn 0.5995742 0.8003192 0.0000000
vn 0.0000000 0.0000000 -1.0000000
vn -0.5757488 -0.8176266 0.0000000
vn 0.0000000 0.0000000 1.0000000
vn 0.4195787 0.9077190 0.0000000
vn 0.0000000 0.0000000 -1.0000000
vn -0.3936025 -0.9192808 0.0000000
vn 0.0000000 0.0000000 1.0000000
vn 0.2209201 0.9752919 0.0000000
vn 0.0000000 0.0000000 -1.0000000
vn -0.1945760 -0.9808874 0.0000000
vn 0.0000000 0.0000000 1.0000000
vn 0.0123136 0.9999242 0.0000000
vn 0.0000000 0.0000000 -1.0000000
vn 0.0126562 -0.9999199 0.0000000
vn 0.0000000 0.0000000 1.0000000
vn -0.1970344 0.9803966 0.0000000
vn 0.0000000 0.0000000 -1.0000000
vn 0.2191206 -0.9756978 0.0000000
vn 0.0000000 0.0000000 1.0000000
vn -0.3978382 0.9174556 0.0000000
vn 0.0000000 0.0000000 -1.0000000
vn 0.4159289 -0.9093971 0.0000000
vn 0.0000000 0.0000000 1.0000000
vn -0.5811523 0.8137948 0.0000000
vn 0.0000000 0.0000000 -1.0000000
vn 0.5946522 -0.8039831 0.0000000
vn 0.0000000 0.0000000 1.0000000
vn -0.7387813 0.6739453 0.0000000
vn 0.0000000 0.0000000 -1.0000000
vn 0.7476706 -0.6640698 0.0000000
vn 0.0000000 0.0000000 1.0000000
vn -0.8636574 0.5040793 0.0000000
vn 0.0000000 0.0000000 -1.0000000
vn 0.8684850 -0.4957155 0.0000000
vn 0.0000000 0.0000000 1.0000000
vn -0.9501687 0.3117362 0.0000000
vn 0.0000000 0.0000000 -1.0000000
vn 0.9519796 -0.3061615 0.0000000
vn 0.0000000 0.0000000 1.0000000
vn -0.9944212 0.1054818 0.0000000
vn 0.0000000 0.0000000 -1.0000000
vn 0.9946266 -0.1035274 0.0000000
vn 0.0000000 0.0000000 1.0000000
vn -0.9944212 -0.1054818 0.0000000
vn 0.0000000 0.0000000 -1.0000000
vn 0.9946266 0.1035274 0.0000000
vn 0.0000000 0.0000000 1.0000000
vn -0.9501687 -0.3117362 0.0000000
vn 0.0000000 0.0000000 -1.0000000
vn 0.9519796 0.3061615 0.0000000
vn 0.0000000 0.0000000 1.0000000
vn -0.8636574 -0.5040793 0.0000000
vn 0.0000000 0.0000000 -1.0000000
vn 0.8684850 0.4957155 0.0000000
vn 0.0000000 0.0000000 1.0000000
vn -0.7387813 -0.6739453 0.0000000
vn 0.0000000 0.0000000 -1.0000000
vn 0.7476706 0.6640698 0.0000000
vn 0.0000000 0.0000000 1.0000000
vn -0.5811523 -0.8137948 0.0000000
vn 0.0000000 0.0000000 -1.0000000
vn 0.5946522 0.8039831 0.0000000
vn 0.0000000 0.0000000 1.0000000
vn -0.3978382 -0.9174556 0.0000000
vn 0.0000000 0.0000000 -1.0000000
vn 0.4159289 0.9093971 0.0000000
vn 0.0000000 0.0000000 1.0000000
vn -0.1970344 -0.9803966 0.0000000
vn 0.0000000 0.0000000 -1.0000000
vn 0.2191206 0.9756978 0.0000000
vn 0.0000000 0.0000000 1.0000000
vn 0.0123136 -0.9999242 0.0000000
vn 0.0000000 0.0000000 -1.0000000
vn 0.0126562 0.9999199 0.0000000
vn 0.0000000 0.0000000 1.0000000
vn 0.2209201 -0.9752919 0.0000000
vn 0.0000000 0.0000000 -1.0000000
vn -0.1945760 0.9808874 0.0000000
vn 0.0000000 0.0000000 1.0000000
vn 0.4195787 -0.9077190 0.0000000
vn 0.0000000 0.0000000 -1.0000000
vn -0.3936025 0.9192808 0.0000000
vn 0.0000000 0.0000000 1.0000000
vn 0.5995742 -0.8003192 0.0000000
vn 0.0000000 0.0000000 -1.0000000
vn -0.5757488 0.8176266 0.0000000
vn 0.0000000 0.0000000 1.0000000
vn 0.7530619 -0.6579497 0.0000000
vn 0.0000000 0.0000000 -1.0000000
vn -0.7330262 0.6802004 0.0000000
vn 0.6691306 -0.7431448 0.0000000
vn 0.6691306 0.7431448 0.0000000
f 101/393/99 102/394/99 106/395/99
f 101/393/99 106/395/99 105/396/99
f 102/397/100 103/398/100 107/399/100
f 102/397/100 107/399/100 106/400/100
f 103/401/101 104/402/101 108/403/101
f 103/401/101 108/403/101 107/404/101
f 104/405/102 101/406/102 105/407/102
f 104/405/102 105/407/102 108/408/102
f 105/409/103 106/410/103 110/411/103
f 105/409/103 110/411/103 109/412/103
f 106/413/104 107/414/104 111/415/104
f 106/413/104 111/415/104 110/416/104
f 107/417/105 108/418/105 112/419/105
f 107/417/105 112/419/105 111/420/105
f 108/421/106 105/422/106 109/423/106
f 108/421/106 109/423/106 112/424/106
f 109/425/107 110/426/107 114/427/107
f 109/425/107 114/427/107 113/428/107
f 110/429/108 111/430/108 115/431/108
f 110/429/108 115/431/108 114/432/108
f 111/433/109 112/434/109 116/435/109
f 111/433/109 116/435/109 115/436/109
f 112/437/110 109/438/110 113/439/110
f 112/437/110 113/439/110 116/440/110
f 113/441/111 114/442/111 118/443/111
f 113/441/111 118/443/111 117/444/111
f 114/445/112 115/446/112 119/447/112
f 114/445/112 119/447/112 118/448/112
f 115/449/113 116/450/113 120/451/113
f 115/449/113 120/451/113 119/452/113
f 116/453/114 113/454/114 117/455/114
f 116/453/114 117/455/114 120/456/114
f 117/457/115 118/458/115 122/459/115
f 117/457/115 122/459/115 121/460/115
f 118/461/116 119/462/116 123/463/116
f 118/461/116 123/463/116 122/464/116
f 119/465/117 120/466/117 124/467/117
f 119/465/117 124/467/117 123/468/117
f 120/469/118 117/470/118 121/471/118
f 120/469/118 121/471/118 124/472/118
f 121/473/119 122/474/119 126/475/119
f 121/473/119 126/475/119 125/476/119
f 122/477/120 123/478/120 127/479/120
f 122/477/120 127/479/120 126/480/120
f 123/481/121 124/482/121 128/483/121
f 123/481/121 128/483/121 127/484/121
f 124/485/122 121/486/122 125/487/122
f 124/485/122 125/487/122 128/488/122
f 125/489/123 126/490/123 130/491/123
f 125/489/123 130/491/123 129/492/123
f 126/493/124 127/494/124 131/495/124
f 126/493/124 131/495/124 130/496/124
f 127/497/125 128/498/125 132/499/125
f 127/497/125 132/499/125 131/500/125
f 128/501/126 125/502/126 129/503/126
f 128/501/126 129/503/126 132/504/126
f 129/505/127 130/506/127 134/507/127
f 129/505/127 134/507/127 133/508/127
f 130/509/128 131/510/128 135/511/128
f 130/509/128 135/511/128 134/512/128
f 131/513/129 132/514/129 136/515/129
f 131/513/129 136/515/129 135/516/129
f 132/517/130 129/518/130 133/519/130
f 132/517/130 133/519/130 136/520/130
f 133/521/131 134/522/131 138/523/131
f 133/521/131 138/523/131 137/524/131
f 134/525/132 135/526/132 139/527/132
f 134/525/132 139/527/132 138/528/132
f 135/529/133 136/530/133 140/531/133
f 135/529/133 140/531/133 139/532/133
f 136/533/134 133/534/134 137/535/134
f 136/533/134 137/535/134 140/536/134
f 137/537/135 138/538/135 142/539/135
f 137/537/135 142/539/135 141/540/135
f 138/541/136 139/542/136 143/543/136
f 138/541/136 143/543/136 142/544/136
f 139/545/137 140/546/137 144/547/137
f 139/545/137 144/547/137 143/548/137
f 140/549/138 137/550/138 141/551/138
f 140/549/138 141/551/138 144/552/138
f 141/553/139 142/554/139 146/555/139
f 141/553/139 146/555/139 145/556/139
f 142/557/140 143/558/140 147/559/140
f 142/557/140 147/559/140 146/560/140
f 143/561/141 144/562/141 148/563/141
f 143/561/141 148/563/141 147/564/141
f 144/565/142 141/566/142 145/567/142
f 144/565/142 145/567/142 148/568/142
f 145/569/143 146/570/143 150/571/143
f 145/569/143 150/571/143 149/572/143
f 146/573/144 147/574/144 151/575/144
f 146/573/144 151/575/144 150/576/144
f 147/577/145 148/578/145 152/579/145
f 147/577/145 152/579/145 151/580/145
f 148/581/146 145/582/146 149/583/146
f 148/581/146 149/583/146 152/584/146
f 149/585/147 150/586/147 154/587/147
f 149/585/147 154/587/147 153/588/147
f 150/589/148 151/590/148 155/591/148
f 150/589/148 155/591/148 154/592/148
f 151/593/149 152/594/149 156/595/149
f 151/593/149 156/595/149 155/596/149
f 152/597/150 149/598/150 153/599/150
f 152/597/150 153/599/150 156/600/150
f 153/601/151 154/602/151 158/603/151
f 153/601/151 158/603/151 157/604/151
f 154/605/152 155/606/152 159/607/152
f 154/605/152 159/607/152 158/608/152
f 155/609/153 156/610/153 160/611/153
f 155/609/153 160/611/153 159/612/153
f 156/613/154 153/614/154 157/615/154
f 156/613/154 157/615/154 160/616/154
f 157/617/155 158/618/155 162/619/155
f 157/617/155 162/619/155 161/620/155
f 158/621/156 159/622/156 163/623/156
f 158/621/156 163/623/156 162/624/156
f 159/625/157 160/626/157 164/627/157
f 159/625/157 164/627/157 163/628/157
f 160/629/158 157/630/158 161/631/158
f 160/629/158 161/631/158 164/632/158
f 161/633/159 162/634/159 166/635/159
f 161/633/159 166/635/159 165/636/159
f 162/637/160 163/638/160 167/639/160
f 162/637/160 167/639/160 166/640/160
f 163/641/161 164/642/161 168/643/161
f 163/641/161 168/643/161 167/644/161
f 164/645/162 161/646/162 165/647/162
f 164/645/162 165/647/162 168/648/162
f 165/649/163 166/650/163 170/651/163
f 165/649/163 170/651/163 169/652/163
f 166/653/164 167/654/164 171/655/164
f 166/653/164 171/655/164 170/656/164
f 167/657/165 168/658/165 172/659/165
f 167/657/165 172/659/165 171/660/165
f 168/661/166 165/662/166 169/663/166
f 168/661/166 169/663/166 172/664/166
f 169/665/167 170/666/167 174/667/167
f 169/665/167 174/667/167 173/668/167
f 170/669/168 171/670/168 175/671/168
f 170/669/168 175/671/168 174/672/168
f 171/673/169 172/674/169 176/675/169
f 171/673/169 176/675/169 175/676/169
f 172/677/170 169/678/170 173/679/170
f 172/677/170 173/679/170 176/680/170
f 173/681/171 174/682/171 178/683/171
f 173/681/171 178/683/171 177/684/171
f 174/685/172 175/686/172 179/687/172
f 174/685/172 179/687/172 178/688/172
f 175/689/173 176/690/173 180/691/173
f 175/689/173 180/691/173 179/692/173
f 176/693/174 173/694/174 177/695/174
f 176/693/174 177/695/174 180/696/174
f 177/697/175 178/698/175 182/699/175
f 177/697/175 182/699/175 181/700/175
f 178/701/176 179/702/176 183/703/176
f 178/701/176 183/703/176 182/704/176
f 179/705/177 180/706/177 184/707/177
f 179/705/177 184/707/177 183/708/177
f 180/709/178 177/710/178 181/711/178
f 180/709/178 181/711/178 184/712/178
f 181/713/179 182/714/179 186/715/179
f 181/713/179 186/715/179 185/716/179
f 182/717/180 183/718/180 187/719/180
f 182/717/180 187/719/180 186/720/180
f 183/721/181 184/722/181 188/723/181
f 183/721/181 188/723/181 187/724/181
f 184/725/182 181/726/182 185/727/182
f 184/725/182 185/727/182 188/728/182
f 185/729/183 186/730/183 190/731/183
f 185/729/183 190/731/183 189/732/183
f 186/733/184 187/734/184 191/735/184
f 186/733/184 191/735/184 190/736/184
f 187/737/185 188/738/185 192/739/185
f 187/737/185 192/739/185 191/740/185
f 188/741/186 185/742/186 189/743/186
f 188/741/186 189/743/186 192/744/186
f 189/745/187 190/746/187 194/747/187
f 189/745/187 194/747/187 193/748/187
f 190/749/188 191/750/188 195/751/188
f 190/749/188 195/751/188 194/752/188
f 191/753/189 192/754/189 196/755/189
f 191/753/189 196/755/189 195/756/189
f 192/757/190 189/758/190 193/759/190
f 192/757/190 193/759/190 196/760/190
f 193/761/191 194/762/191 198/763/191
f 193/761/191 198/763/191 197/764/191
f 194/765/192 195/766/192 199/767/192
f 194/765/192 199/767/192 198/768/192
f 195/769/193 196/770/193 200/771/193
f 195/769/193 200/771/193 199/772/193
f 196/773/194 193/774/194 197/775/194
f 196/773/194 197/775/194 200/776/194
f 104/777/195 103/778/195 102/779/195
f 104/777/195 102/779/195 101/780/195
f 197/781/196 198/782/196 199/783/196
f 197/781/196 199/783/196 200/784/196

v -0.0718633 -0.6769838 -0.0493750
v -0.0718633 -0.6904838 -0.0493750
v -0.0718633 -0.6904838 -0.0443750
v -0.0718633 -0.6769838 -0.0443750
v 0.0710085 -0.6756011 -0.0493750
v 0.0727181 -0.6918665 -0.0493750
v 0.0727181 -0.6918665 -0.0443750
v 0.0710085 -0.6756011 -0.0443750
v 0.2095233 -0.6448465 -0.0493750
v 0.2153750 -0.6628562 -0.0493750
v 0.2153750 -0.6628562 -0.0443750
v 0.2095233 -0.6448465 -0.0443750
v 0.3384499 -0.5862124 -0.0493750
v 0.3490501 -0.6045726 -0.0493750
v 0.3490501 -0.6045726 -0.0443750
v 0.3384499 -0.5862124 -0.0443750
v 0.4522961 -0.5023257 -0.0493750
v 0.4677585 -0.5194984 -0.0493750
v 0.4677585 -0.5194984 -0.0443750
v 0.4522961 -0.5023257 -0.0443750
v 0.5462374 -0.3968647 -0.0493750
v 0.5661609 -0.4113400 -0.0493750
v 0.5661609 -0.4113400 -0.0443750
v 0.5462374 -0.3968647 -0.0443750
v 0.6163095 -0.2743987 -0.0493750
v 0.6398155 -0.2848642 -0.0493750
v 0.6398155 -0.2848642 -0.0443750
v 0.6163095 -0.2743987 -0.0443750
v 0.6595647 -0.1401948 -0.0493750
v 0.6853882 -0.1456838 -0.0493750
v 0.6853882 -0.1456838 -0.0443750
v 0.6595647 -0.1401948 -0.0443750
v 0.6741875 0.0000000 -0.0493750
v 0.7008125 0.0000000 -0.0493750
v 0.7008125 0.0000000 -0.0443750
v 0.6741875 0.0000000 -0.0443750
v 0.6595647 0.1401948 -0.0493750
v 0.6853882 0.1456838 -0.0493750
v 0.6853882 0.1456838 -0.0443750
v 0.6595647 0.1401948 -0.0443750
v 0.6163095 0.2743987 -0.0493750
v 0.6398155 0.2848642 -0.0493750
v 0.6398155 0.2848642 -0.0443750
v 0.6163095 0.2743987 -0.0443750
v 0.5462374 0.3968647 -0.0493750
v 0.5661609 0.4113400 -0.0493750
v 0.5661609 0.4113400 -0.0443750
v 0.5462374 0.3968647 -0.0443750
v 0.4522961 0.5023257 -0.0493750
v 0.4677585 0.5194984 -0.0493750
v 0.4677585 0.5194984 -0.0443750
v 0.4522961 0.5023257 -0.0443750
v 0.3384499 0.5862124 -0.0493750
v 0.3490501 0.6045726 -0.0493750
v 0.3490501 0.6045726 -0.0443750
v 0.3384499 0.5862124 -0.0443750
v 0.2095233 0.6448465 -0.0493750
v 0.2153750 0.6628562 -0.0493750
v 0.2153750 0.6628562 -0.0443750
v 0.2095233 0.6448465 -0.0443750
v 0.0710085 0.6756011 -0.0493750
v 0.0727181 0.6918665 -0.0493750
v 0.0727181 0.6918665 -0.0443750
v 0.0710085 0.6756011 -0.0443750
v -0.0718633 0.6769838 -0.0493750
v -0.0718633 0.6904838 -0.0493750
v -0.0718633 0.6904838 -0.0443750
v -0.0718633 0.6769838 -0.0443750
vt 0.5312500 0.6250000
vt 0.5625000 0.6250000
vt 0.5312500 0.5937500
vt 0.5625000 0.5937500
vt 0.2812500 0.6250000
vt 0.3125000 0.6250000
vt 0.2812500 0.5937500
vt 0.3125000 0.5937500
vt 0.5312500 0.6250000
vt 0.5625000 0.6250000
vt 0.5312500 0.5937500
vt 0.5625000 0.5937500
vt 0.2812500 0.6250000
vt 0.3125000 0.6250000
vt 0.2812500 0.5937500
vt 0.3125000 0.5937500
vt 0.5312500 0.6250000
vt 0.5625000 0.6250000
vt 0.5312500 0.5937500
vt 0.5625000 0.5937500
vt 0.2812500 0.6250000
vt 0.3125000 0.6250000
vt 0.2812500 0.5937500
vt 0.3125000 0.5937500
vt 0.5312500 0.6250000
vt 0.5625000 0.6250000
vt 0.5312500 0.5937500
vt 0.5625000 0.5937500
vt 0.2812500 0.6250000
vt 0.3125000 0.6250000
vt 0.2812500 0.5937500
vt 0.3125000 0.5937500
vt 0.5312500 0.6250000
vt 0.5625000 0.6250000
vt 0.5312500 0.5937500
vt 0.5625000 0.5937500
vt 0.2812500 0.6250000
vt 0.3125000 0.6250000
vt 0.2812500 0.5937500
vt 0.3125000 0.5937500
vt 0.5312500 0.6250000
vt 0.5625000 0.6250000
vt 0.5312500 0.5937500
vt 0.5625000 0.5937500
vt 0.2812500 0.6250000
vt 0.3125000 0.6250000
vt 0.2812500 0.5937500
vt 0.3125000 0.5937500
vt 0.5312500 0.6250000
vt 0.5625000 0.6250000
vt 0.5312500 0.5937500
vt 0.5625000 0.5937500
vt 0.2812500 0.6250000
vt 0.3125000 0.6250000
vt 0.2812500 0.5937500
vt 0.3125000 0.5937500
vt 0.5312500 0.6250000
vt 0.5625000 0.6250000
vt 0.5312500 0.5937500
vt 0.5625000 0.5937500
vt 0.2812500 0.6250000
vt 0.3125000 0.6250000
vt 0.2812500 0.5937500
vt 0.3125000 0.5937500
vt 0.5312500 0.6250000
vt 0.5625000 0.6250000
vt 0.5312500 0.5937500
vt 0.5625000 0.5937500
vt 0.2812500 0.6250000
vt 0.3125000 0.6250000
vt 0.2812500 0.5937500
vt 0.3125000 0.5937500
vt 0.5312500 0.6250000
vt 0.5625000 0.6250000
vt 0.5312500 0.5937500
vt 0.5625000 0.5937500
vt 0.2812500 0.6250000
vt 0.3125000 0.6250000
vt 0.2812500 0.5937500
vt 0.3125000 0.5937500
vt 0.5312500 0.6250000
vt 0.5625000 0.6250000
vt 0.5312500 0.5937500
vt 0.5625000 0.5937500
vt 0.2812500 0.6250000
vt 0.3125000 0.6250000
vt 0.2812500 0.5937500
vt 0.3125000 0.5937500
vt 0.5312500 0.6250000
vt 0.5625000 0.6250000
vt 0.5312500 0.5937500
vt 0.5625000 0.5937500
vt 0.2812500 0.6250000
vt 0.3125000 0.6250000
vt 0.2812500 0.5937500
vt 0.3125000 0.5937500
vt 0.5312500 0.6250000
vt 0.5625000 0.6250000
vt 0.5312500 0.5937500
vt 0.5625000 0.5937500
vt 0.2812500 0.6250000
vt 0.3125000 0.6250000
vt 0.2812500 0.5937500
vt 0.3125000 0.5937500
vt 0.5312500 0.6250000
vt 0.5625000 0.6250000
vt 0.5312500 0.5937500
vt 0.5625000 0.5937500
vt 0.2812500 0.6250000
vt 0.3125000 0.6250000
vt 0.2812500 0.5937500
vt 0.3125000 0.5937500
vt 0.5312500 0.6250000
vt 0.5625000 0.6250000
vt 0.5312500 0.5937500
vt 0.5625000 0.5937500
vt 0.2812500 0.6250000
vt 0.3125000 0.6250000
vt 0.2812500 0.5937500
vt 0.3125000 0.5937500
vt 0.5312500 0.6250000
vt 0.5625000 0.6250000
vt 0.5312500 0.5937500
vt 0.5625000 0.5937500
vt 0.2812500 0.6250000
vt 0.3125000 0.6250000
vt 0.2812500 0.5937500
vt 0.3125000 0.5937500
vt 0.5312500 0.6250000
vt 0.5625000 0.6250000
vt 0.5312500 0.5937500
vt 0.5625000 0.5937500
vt 0.2812500 0.6250000
vt 0.3125000 0.6250000
vt 0.2812500 0.5937500
vt 0.3125000 0.5937500
vt 0.5312500 0.6250000
vt 0.5625000 0.6250000
vt 0.5312500 0.5937500
vt 0.5625000 0.5937500
vt 0.2812500 0.6250000
vt 0.3125000 0.6250000
vt 0.2812500 0.5937500
vt 0.3125000 0.5937500
vt 0.5312500 0.6250000
vt 0.5625000 0.6250000
vt 0.5312500 0.5937500
vt 0.5625000 0.5937500
vt 0.2812500 0.6250000
vt 0.3125000 0.6250000
vt 0.2812500 0.5937500
vt 0.3125000 0.5937500
vt 0.5312500 0.6250000
vt 0.5625000 0.6250000
vt 0.5312500 0.5937500
vt 0.5625000 0.5937500
vt 0.2812500 0.6250000
vt 0.3125000 0.6250000
vt 0.2812500 0.5937500
vt 0.3125000 0.5937500
vt 0.5312500 0.6250000
vt 0.5625000 0.6250000
vt 0.5312500 0.5937500
vt 0.5625000 0.5937500
vt 0.2812500 0.6250000
vt 0.3125000 0.6250000
vt 0.2812500 0.5937500
vt 0.3125000 0.5937500
vt 0.5312500 0.6250000
vt 0.5625000 0.6250000
vt 0.5312500 0.5937500
vt 0.5625000 0.5937500
vt 0.2812500 0.6250000
vt 0.3125000 0.6250000
vt 0.2812500 0.5937500
vt 0.3125000 0.5937500
vt 0.5312500 0.6250000
vt 0.5625000 0.6250000
vt 0.5312500 0.5937500
vt 0.5625000 0.5937500
vt 0.2812500 0.6250000
vt 0.3125000 0.6250000
vt 0.2812500 0.5937500
vt 0.3125000 0.5937500
vt 0.5312500 0.6250000
vt 0.5625000 0.6250000
vt 0.5312500 0.5937500
vt 0.5625000 0.5937500
vt 0.2812500 0.6250000
vt 0.3125000 0.6250000
vt 0.2812500 0.5937500
vt 0.3125000 0.5937500
vt 0.5312500 0.6250000
vt 0.5625000 0.6250000
vt 0.5312500 0.5937500
vt 0.5625000 0.5937500
vt 0.2812500 0.6250000
vt 0.3125000 0.6250000
vt 0.2812500 0.5937500
vt 0.3125000 0.5937500
vt 0.5312500 0.6250000
vt 0.5625000 0.6250000
vt 0.5312500 0.5937500
vt 0.5625000 0.5937500
vt 0.2812500 0.6250000
vt 0.3125000 0.6250000
vt 0.2812500 0.5937500
vt 0.3125000 0.5937500
vt 0.5312500 0.6250000
vt 0.5625000 0.6250000
vt 0.5312500 0.5937500
vt 0.5625000 0.5937500
vt 0.2812500 0.6250000
vt 0.3125000 0.6250000
vt 0.2812500 0.5937500
vt 0.3125000 0.5937500
vt 0.5312500 0.6250000
vt 0.5625000 0.6250000
vt 0.5312500 0.5937500
vt 0.5625000 0.5937500
vt 0.2812500 0.6250000
vt 0.3125000 0.6250000
vt 0.2812500 0.5937500
vt 0.3125000 0.5937500
vt 0.5312500 0.6250000
vt 0.5625000 0.6250000
vt 0.5312500 0.5937500
vt 0.5625000 0.5937500
vt 0.2812500 0.6250000
vt 0.3125000 0.6250000
vt 0.2812500 0.5937500
vt 0.3125000 0.5937500
vt 0.5312500 0.6250000
vt 0.5625000 0.6250000
vt 0.5312500 0.5937500
vt 0.5625000 0.5937500
vt 0.2812500 0.6250000
vt 0.3125000 0.6250000
vt 0.2812500 0.5937500
vt 0.3125000 0.5937500
vt 0.5312500 0.6250000
vt 0.5625000 0.6250000
vt 0.5312500 0.5937500
vt 0.5625000 0.5937500
vt 0.2812500 0.6250000
vt 0.3125000 0.6250000
vt 0.2812500 0.5937500
vt 0.3125000 0.5937500
vt 0.5312500 0.6250000
vt 0.5625000 0.6250000
vt 0.5312500 0.5937500
vt 0.5625000 0.5937500
vt 0.2812500 0.6250000
vt 0.3125000 0.6250000
vt 0.2812500 0.5937500
vt 0.3125000 0.5937500
vt 0.5312500 0.6250000
vt 0.5625000 0.6250000
vt 0.5312500 0.5937500
vt 0.5625000 0.5937500
vt 0.5312500 0.6250000
vt 0.5625000 0.6250000
vt 0.5312500 0.5937500
vt 0.5625000 0.5937500
vn 0.0000000 0.0000000 1.0000000
vn 0.0095630 0.9999543 0.0000000
vn 0.0000000 0.0000000 -1.0000000
vn 0.0096774 -0.9999532 0.0000000
vn 0.0000000 0.0000000 1.0000000
vn -0.1992782 0.9799430 0.0000000
vn 0.0000000 0.0000000 -1.0000000
vn 0.2167528 -0.9762265 0.0000000
vn 0.0000000 0.0000000 1.0000000
vn -0.3996720 0.9166582 0.0000000
vn 0.0000000 0.0000000 -1.0000000
vn 0.4139852 -0.9102836 0.0000000
vn 0.0000000 0.0000000 1.0000000
vn -0.5825181 0.8128177 0.0000000
vn 0.0000000 0.0000000 -1.0000000
vn 0.5931989 -0.8050560 0.0000000
vn 0.0000000 0.0000000 1.0000000
vn -0.7396792 0.6729597 0.0000000
vn 0.0000000 0.0000000 -1.0000000
vn 0.7467120 -0.6651475 0.0000000
vn 0.0000000 0.0000000 1.0000000
vn -0.8641444 0.5032440 0.0000000
vn 0.0000000 0.0000000 -1.0000000
vn 0.8679638 -0.4966276 0.0000000
vn 0.0000000 0.0000000 1.0000000
vn -0.9503512 0.3111794 0.0000000
vn 0.0000000 0.0000000 -1.0000000
vn 0.9517839 -0.3067694 0.0000000
vn 0.0000000 0.0000000 1.0000000
vn -0.9944419 0.1052865 0.0000000
vn 0.0000000 0.0000000 -1.0000000
vn 0.9946044 -0.1037405 0.0000000
vn 0.0000000 0.0000000 1.0000000
vn -0.9944419 -0.1052865 0.0000000
vn 0.0000000 0.0000000 -1.0000000
vn 0.9946044 0.1037405 0.0000000
vn 0.0000000 0.0000000 1.0000000
vn -0.9503512 -0.3111794 0.0000000
vn 0.0000000 0.0000000 -1.0000000
vn 0.9517839 0.3067694 0.0000000
vn 0.0000000 0.0000000 1.0000000
vn -0.8641444 -0.5032440 0.0000000
vn 0.0000000 0.0000000 -1.0000000
vn 0.8679638 0.4966276 0.0000000
vn 0.0000000 0.0000000 1.0000000
vn -0.7396792 -0.6729597 0.0000000
vn 0.0000000 0.0000000 -1.0000000
vn 0.7467120 0.6651475 0.0000000
vn 0.0000000 0.0000000 1.0000000
vn -0.5825181 -0.8128177 0.0000000
vn 0.0000000 0.0000000 -1.0000000
vn 0.5931989 0.8050560 0.0000000
vn 0.0000000 0.0000000 1.0000000
vn -0.3996720 -0.9166582 0.0000000
vn 0.0000000 0.0000000 -1.0000000
vn 0.4139852 0.9102836 0.0000000
vn 0.0000000 0.0000000 1.0000000
vn -0.1992782 -0.9799430 0.0000000
vn 0.0000000 0.0000000 -1.0000000
vn 0.2167528 0.9762265 0.0000000
vn 0.0000000 0.0000000 1.0000000
vn 0.0095630 -0.9999543 0.0000000
vn 0.0000000 0.0000000 -1.0000000
vn 0.0096774 0.9999532 0.0000000
vn 1.0000000 0.0000000 0.0000000
vn 1.0000000 0.0000000 0.0000000
f 201/785/197 202/786/197 206/787/197
f 201/785/197 206/787/197 205/788/197
f 202/789/198 203/790/198 207/791/198
f 202/789/198 207/791/198 206/792/198
f 203/793/199 204/794/199 208/795/199
f 203/793/199 208/795/199 207/796/199
f 204/797/200 201/798/200 205/799/200
f 204/797/200 205/799/200 208/800/200
f 205/801/201 206/802/201 210/803/201
f 205/801/201 210/803/201 209/804/201
f 206/805/202 207/806/202 211/807/202
f 206/805/202 211/807/202 210/808/202
f 207/809/203 208/810/203 212/811/203
f 207/809/203 212/811/203 211/812/203
f 208/813/204 205/814/204 209/815/204
f 208/813/204 209/815/204 212/816/204
f 209/817/205 210/818/205 214/819/205
f 209/817/205 214/819/205 213/820/205
f 210/821/206 211/822/206 215/823/206
f 210/821/206 215/823/206 214/824/206
f 211/825/207 212/826/207 216/827/207
f 211/825/207 216/827/207 215/828/207
f 212/829/208 209/830/208 213/831/208
f 212/829/208 213/831/208 216/832/208
f 213/833/209 214/834/209 218/835/209
f 213/833/209 218/835/209 217/836/209
f 214/837/210 215/838/210 219/839/210
f 214/837/210 219/839/210 218/840/210
f 215/841/211 216/842/211 220/843/211
f 215/841/211 220/843/211 219/844/211
f 216/845/212 213/846/212 217/847/212
f 216/845/212 217/847/212 220/848/212
f 217/849/213 218/850/213 222/851/213
f 217/849/213 222/851/213 221/852/213
f 218/853/214 219/854/214 223/855/214
f 218/853/214 223/855/214 222/856/214
f 219/857/215 220/858/215 224/859/215
f 219/857/215 224/859/215 223/860/215
f 220/861/216 217/862/216 221/863/216
f 220/861/216 221/863/216 224/864/216
f 221/865/217 222/866/217 226/867/217
f 221/865/217 226/867/217 225/868/217
f 222/869/218 223/870/218 227/871/218
f 222/869/218 227/871/218 226/872/218
f 223/873/219 224/874/219 228/875/219
f 223/873/219 228/875/219 227/876/219
f 224/877/220 221/878/220 225/879/220
f 224/877/220 225/879/220 228/880/220
f 225/881/221 226/882/221 230/883/221
f 225/881/221 230/883/221 229/884/221
f 226/885/222 227/886/222 231/887/222
f 226/885/222 231/887/222 230/888/222
f 227/889/223 228/890/223 232/891/223
f 227/889/223 232/891/223 231/892/223
f 228/893/224 225/894/224 229/895/224
f 228/893/224 229/895/224 232/896/224
f 229/897/225 230/898/225 234/899/225
f 229/897/225 234/899/225 233/900/225
f 230/901/226 231/902/226 235/903/226
f 230/901/226 235/903/226 234/904/226
f 231/905/227 232/906/227 236/907/227
f 231/905/227 236/907/227 235/908/227
f 232/909/228 229/910/228 233/911/228
f 232/909/228 233/911/228 236/912/228
f 233/913/229 234/914/229 238/915/229
f 233/913/229 238/915/229 237/916/229
f 234/917/230 235/918/230 239/919/230
f 234/917/230 239/919/230 238/920/230
f 235/921/231 236/922/231 240/923/231
f 235/921/231 240/923/231 239/924/231
f 236/925/232 233/926/232 237/927/232
f 236/925/232 237/927/232 240/928/232
f 237/929/233 238/930/233 242/931/233
f 237/929/233 242/931/233 241/932/233
f 238/933/234 239/934/234 243/935/234
f 238/933/234 243/935/234 242/936/234
f 239/937/235 240/938/235 244/939/235
f 239/937/235 244/939/235 243/940/235
f 240/941/236 237/942/236 241/943/236
f 240/941/236 241/943/236 244/944/236
f 241/945/237 242/946/237 246/947/237
f 241/945/237 246/947/237 245/948/237
f 242/949/238 243/950/238 247/951/238
f 242/949/238 247/951/238 246/952/238
f 243/953/239 244/954/239 248/955/239
f 243/953/239 248/955/239 247/956/239
f 244/957/240 241/958/240 245/959/240
f 244/957/240 245/959/240 248/960/240
f 245/961/241 246/962/241 250/963/241
f 245/961/241 250/963/241 249/964/241
f 246/965/242 247/966/242 251/967/242
f 246/965/242 251/967/242 250/968/242
f 247/969/243 248/970/243 252/971/243
f 247/969/243 252/971/243 251/972/243
f 248/973/244 245/974/244 249/975/244
f 248/973/244 249/975/244 252/976/244
f 249/977/245 250/978/245 254/979/245
f 249/977/245 254/979/245 253/980/245
f 250/981/246 251/982/246 255/983/246
f 250/981/246 255/983/246 254/984/246
f 251/985/247 252/986/247 256/987/247
f 251/985/247 256/987/247 255/988/247
f 252/989/248 249/990/248 253/991/248
f 252/989/248 253/991/248 256/992/248
f 253/993/249 254/994/249 258/995/249
f 253/993/249 258/995/249 257/996/249
f 254/997/250 255/998/250 259/999/250
f 254/997/250 259/999/250 258/1000/250
f 255/1001/251 256/1002/251 260/1003/251
f 255/1001/251 260/1003/251 259/1004/251
f 256/1005/252 253/1006/252 257/1007/252
f 256/1005/252 257/1007/252 260/1008/252
f 257/1009/253 258/1010/253 262/1011/253
f 257/1009/253 262/1011/253 261/1012/253
f 258/1013/254 259/1014/254 263/1015/254
f 258/1013/254 263/1015/254 262/1016/254
f 259/1017/255 260/1018/255 264/1019/255
f 259/1017/255 264/1019/255 263/1020/255
f 260/1021/256 257/1022/256 261/1023/256
f 260/1021/256 261/1023/256 264/1024/256
f 261/1025/257 262/1026/257 266/1027/257
f 261/1025/257 266/1027/257 265/1028/257
f 262/1029/258 263/1030/258 267/1031/258
f 262/1029/258 267/1031/258 266/1032/258
f 263/1033/259 264/1034/259 268/1035/259
f 263/1033/259 268/1035/259 267/1036/259
f 264/1037/260 261/1038/260 265/1039/260
f 264/1037/260 265/1039/260 268/1040/260
f 204/1041/261 203/1042/261 202/1043/261
f 204/1041/261 202/1043/261 201/1044/261
f 265/1045/262 266/1046/262 267/1047/262
f 265/1045/262 267/1047/262 268/1048/262

v 0.5750000 0.1375000 -0.0234375
v 0.8937500 0.4125000 -0.0234375
v 0.7500000 -0.0875000 -0.0234375
v 0.5750000 0.1375000 0.0234375
v 0.8937500 0.4125000 0.0234375
v 0.7500000 -0.0875000 0.0234375
vt 0.0312500 0.6250000
vt 0.0625000 0.6250000
vt 0.0312500 0.5937500
vt 0.0312500 0.6250000
vt 0.0625000 0.6250000
vt 0.0312500 0.5937500
vt 0.2812500 0.6250000
vt 0.3125000 0.6250000
vt 0.2812500 0.5937500
vt 0.3125000 0.5937500
vt 0.2812500 0.6250000
vt 0.3125000 0.6250000
vt 0.2812500 0.5937500
vt 0.3125000 0.5937500
vt 0.2812500 0.6250000
vt 0.3125000 0.6250000
vt 0.2812500 0.5937500
vt 0.3125000 0.5937500
vn 0.0000000 0.0000000 1.0000000
vn 0.0000000 0.0000000 -1.0000000
vn 0.6532333 -0.7571567 0.0000000
vn -0.9610693 0.2763074 0.0000000
vn 0.7893522 0.6139406 0.0000000
f 269/1049/263 271/1050/263 270/1051/263
f 272/1052/264 273/1053/264 274/1054/264
f 269/1055/265 270/1056/265 273/1057/265
f 269/1055/265 273/1057/265 272/1058/265
f 270/1059/266 271/1060/266 274/1061/266
f 270/1059/266 274/1061/266 273/1062/266
f 271/1063/267 269/1064/267 272/1065/267
f 271/1063/267 272/1065/267 274/1066/267