g spirit
# Made in Blockbench 5.1.6


v 0.0000000 0.4375000 -0.0625000
v -0.2875000 0.3125000 -0.0312500
v -0.3125000 0.0625000 0.0000000
v -0.1875000 -0.1875000 -0.0312500
v 0.0000000 -0.3125000 -0.1250000
v 0.1875000 -0.1875000 -0.0312500
v 0.3125000 0.0625000 0.0000000
v 0.2875000 0.3125000 -0.0312500
v 0.0000000 0.1250000 -0.2187500
v -0.1250000 -0.0312500 -0.1875000
v 0.0000000 -0.1750000 -0.2562500
v 0.1250000 -0.0312500 -0.1875000
v -0.2375000 0.2500000 0.1375000
v -0.2187500 -0.0625000 0.1375000
v 0.0000000 -0.1875000 0.0937500
v 0.2187500 -0.0625000 0.1375000
v 0.2375000 0.2500000 0.1375000
v 0.0000000 0.3125000 0.1375000
vt 0.0312500 0.6250000
vt 0.0625000 0.6250000
vt 0.0312500 0.5937500
vt 0.0312500 0.6250000
vt 0.0625000 0.6250000
vt 0.0312500 0.5937500
vt 0.0625000 0.5937500
vt 0.2812500 0.6250000
vt 0.3125000 0.6250000
vt 0.2812500 0.5937500
vt 0.0312500 0.6250000
vt 0.0625000 0.6250000
vt 0.0312500 0.5937500
vt 0.0625000 0.5937500
vt 0.0312500 0.6250000
vt 0.0625000 0.6250000
vt 0.0312500 0.5937500
vt 0.0625000 0.5937500
vt 0.2812500 0.6250000
vt 0.3125000 0.6250000
vt 0.2812500 0.5937500
vt 0.0312500 0.6250000
vt 0.0625000 0.6250000
vt 0.0312500 0.5937500
vt 0.0625000 0.5937500
vt 0.1562500 0.6250000
vt 0.1875000 0.6250000
vt 0.1562500 0.5937500
vt 0.1562500 0.6250000
vt 0.1875000 0.6250000
vt 0.1562500 0.5937500
vt 0.0312500 0.6250000
vt 0.0625000 0.6250000
vt 0.0312500 0.5937500
vt 0.2812500 0.6250000
vt 0.3125000 0.6250000
vt 0.2812500 0.5937500
vt 0.3125000 0.5937500
vt 0.2812500 0.6250000
vt 0.3125000 0.6250000
vt 0.2812500 0.5937500
vt 0.3125000 0.5937500
vt 0.2812500 0.6250000
vt 0.3125000 0.6250000
vt 0.2812500 0.5937500
vt 0.2812500 0.6250000
vt 0.3125000 0.6250000
vt 0.2812500 0.5937500
vt 0.3125000 0.5937500
vt 0.2812500 0.6250000
vt 0.3125000 0.6250000
vt 0.2812500 0.5937500
vt 0.3125000 0.5937500
vt 0.2812500 0.6250000
vt 0.3125000 0.6250000
vt 0.2812500 0.5937500
vt 0.2812500 0.6250000
vt 0.3125000 0.6250000
vt 0.2812500 0.5937500
vt 0.3125000 0.5937500
vt 0.2812500 0.6250000
vt 0.3125000 0.6250000
vt 0.2812500 0.5937500
vt 0.3125000 0.5937500
vt 0.4062500 0.6250000
vt 0.4375000 0.6250000
vt 0.4062500 0.5937500
vt 0.4375000 0.5937500
vt 0.4062500 0.6250000
vt 0.4375000 0.6250000
vt 0.4062500 0.5937500
vt 0.4375000 0.5937500
vn 0.2799950 -0.4293257 0.8586514
vn 0.7111788 0.0167336 0.7028120
vn 0.7453560 0.2981424 0.5962848
vn 0.6350006 0.5334005 0.5588006
vn -0.6144134 0.4213121 0.6670774
vn -0.7453560 0.2981424 0.5962848
vn -0.5666370 0.0461704 0.8226730
vn -0.2799950 -0.4293257 0.8586514
vn 0.3738783 -0.1150395 0.9203157
vn -0.3738783 -0.1150395 0.9203157
vn 0.9628227 0.0577694 -0.2638847
vn 0.5162904 0.7788863 0.3560623
vn 0.3140275 0.8243221 -0.4710412
vn -0.3689144 0.8070002 -0.4611430
vn -0.9884976 0.0593099 0.1391219
vn -0.9354348 -0.1344120 -0.3269481
vn -0.2334906 -0.8872644 -0.3977989
vn 0.2178002 -0.8276407 -0.5172755
vn 0.0000000 0.0000000 -1.0000000
vn 0.1070596 0.1563070 -0.9818892
f 1/1/1 2/2/1 9/3/1
f 2/4/2 3/5/2 10/6/2
f 2/4/2 10/6/2 9/7/2
f 3/8/3 4/9/3 10/10/3
f 4/11/4 5/12/4 11/13/4
f 4/11/4 11/13/4 10/14/4
f 5/15/5 6/16/5 12/17/5
f 5/15/5 12/17/5 11/18/5
f 6/19/6 7/20/6 12/21/6
f 7/22/7 8/23/7 9/24/7
f 7/22/7 9/24/7 12/25/7
f 8/26/8 1/27/8 9/28/8
f 9/29/9 10/30/9 11/31/9
f 9/32/10 11/33/10 12/34/10
f 2/35/11 13/36/11 14/37/11
f 2/35/11 14/37/11 3/38/11
f 3/39/12 14/40/12 15/41/12
f 3/39/12 15/41/12 4/42/12
f 4/43/13 15/44/13 5/45/13
f 5/46/14 15/47/14 16/48/14
f 5/46/14 16/48/14 6/49/14
f 6/50/15 16/51/15 17/52/15
f 6/50/15 17/52/15 7/53/15
f 7/54/16 17/55/16 8/56/16
f 8/57/17 17/58/17 18/59/17
f 8/57/17 18/59/17 1/60/17
f 1/61/18 18/62/18 13/63/18
f 1/61/18 13/63/18 2/64/18
f 13/65/19 18/66/19 17/67/19
f 13/65/19 17/67/19 16/68/19
f 13/69/20 16/70/20 15/71/20
f 13/69/20 15/71/20 14/72/20

v -0.1250000 0.2500000 -0.0593750
v -0.2937500 0.2812500 -0.0593750
v -0.3437500 0.7500000 -0.0593750
v -0.1000000 0.4375000 -0.0593750
v -0.1250000 0.2500000 0.0593750
v -0.2937500 0.2812500 0.0593750
v -0.3437500 0.7500000 0.0593750
v -0.1000000 0.4375000 0.0593750
vt 0.0312500 0.6250000
vt 0.0625000 0.6250000
vt 0.0312500 0.5937500
vt 0.0312500 0.6250000
vt 0.0625000 0.6250000
vt 0.0312500 0.5937500
vt 0.0312500 0.6250000
vt 0.0625000 0.6250000
vt 0.0312500 0.5937500
vt 0.0312500 0.6250000
vt 0.0625000 0.6250000
vt 0.0312500 0.5937500
vt 0.2812500 0.6250000
vt 0.3125000 0.6250000
vt 0.2812500 0.5937500
vt 0.3125000 0.5937500
vt 0.2812500 0.6250000
vt 0.3125000 0.6250000
vt 0.2812500 0.5937500
vt 0.3125000 0.5937500
vt 0.2812500 0.6250000
vt 0.3125000 0.6250000
vt 0.2812500 0.5937500
vt 0.3125000 0.5937500
vt 0.2812500 0.6250000
vt 0.3125000 0.6250000
vt 0.2812500 0.5937500
vt 0.3125000 0.5937500
vn 0.0000000 0.0000000 1.0000000
vn 0.0000000 0.0000000 -1.0000000
vn 0.0000000 0.0000000 1.0000000
vn 0.0000000 0.0000000 -1.0000000
vn 0.1820893 0.9832820 0.0000000
vn 0.9943592 0.1060650 0.0000000
vn -0.7885023 -0.6150318 0.0000000
vn -0.9912279 0.1321637 0.0000000
f 19/73/21 21/74/21 20/75/21
f 23/76/22 24/77/22 25/78/22
f 19/79/23 22/80/23 21/81/23
f 23/82/24 25/83/24 26/84/24
f 19/85/25 20/86/25 24/87/25
f 19/85/25 24/87/25 23/88/25
f 20/89/26 21/90/26 25/91/26
f 20/89/26 25/91/26 24/92/26
f 21/93/27 22/94/27 26/95/27
f 21/93/27 26/95/27 25/96/27
f 22/97/28 19/98/28 23/99/28
f 22/97/28 23/99/28 26/100/28

v -0.1562500 0.3750000 -0.0693750
v -0.2625000 0.3750000 -0.0693750
v -0.2937500 0.6562500 -0.0693750
v -0.1562500 0.3750000 -0.0618750
v -0.2625000 0.3750000 -0.0618750
v -0.2937500 0.6562500 -0.0618750
vt 0.5312500 0.6250000
vt 0.5625000 0.6250000
vt 0.5312500 0.5937500
vt 0.5312500 0.6250000
vt 0.5625000 0.6250000
vt 0.5312500 0.5937500
vt 0.2812500 0.6250000
vt 0.3125000 0.6250000
vt 0.2812500 0.5937500
vt 0.3125000 0.5937500
vt 0.2812500 0.6250000
vt 0.3125000 0.6250000
vt 0.2812500 0.5937500
vt 0.3125000 0.5937500
vt 0.2812500 0.6250000
vt 0.3125000 0.6250000
vt 0.2812500 0.5937500
vt 0.3125000 0.5937500
vn 0.0000000 0.0000000 1.0000000
vn 0.0000000 0.0000000 -1.0000000
vn 0.0000000 1.0000000 0.0000000
vn 0.9938837 0.1104315 0.0000000
vn -0.8983844 -0.4392101 0.0000000
f 27/101/29 29/102/29 28/103/29
f 30/104/30 31/105/30 32/106/30
f 27/107/31 28/108/31 31/109/31
f 27/107/31 31/109/31 30/110/31
f 28/111/32 29/112/32 32/113/32
f 28/111/32 32/113/32 31/114/32
f 29/115/33 27/116/33 30/117/33
f 29/115/33 30/117/33 32/118/33

v -0.0562500 0.1031250 -0.1837500
v -0.2312500 0.1531250 -0.1837500
v -0.1937500 0.0468750 -0.1837500
v -0.0781250 0.0531250 -0.1837500
v -0.0562500 0.1031250 -0.1725000
v -0.2312500 0.1531250 -0.1725000
v -0.1937500 0.0468750 -0.1725000
v -0.0781250 0.0531250 -0.1725000
vt 0.5312500 0.6250000
vt 0.5625000 0.6250000
vt 0.5312500 0.5937500
vt 0.5312500 0.6250000
vt 0.5625000 0.6250000
vt 0.5312500 0.5937500
vt 0.5312500 0.6250000
vt 0.5625000 0.6250000
vt 0.5312500 0.5937500
vt 0.5312500 0.6250000
vt 0.5625000 0.6250000
vt 0.5312500 0.5937500
vt 0.2812500 0.6250000
vt 0.3125000 0.6250000
vt 0.2812500 0.5937500
vt 0.3125000 0.5937500
vt 0.2812500 0.6250000
vt 0.3125000 0.6250000
vt 0.2812500 0.5937500
vt 0.3125000 0.5937500
vt 0.2812500 0.6250000
vt 0.3125000 0.6250000
vt 0.2812500 0.5937500
vt 0.3125000 0.5937500
vt 0.2812500 0.6250000
vt 0.3125000 0.6250000
vt 0.2812500 0.5937500
vt 0.3125000 0.5937500
vn 0.0000000 0.0000000 -1.0000000
vn 0.0000000 0.0000000 1.0000000
vn 0.0000000 0.0000000 -1.0000000
vn 0.0000000 0.0000000 1.0000000
vn 0.2747211 0.9615239 0.0000000
vn -0.9429903 -0.3328201 0.0000000
vn 0.0539753 -0.9985423 0.0000000
vn 0.9161573 -0.4008188 0.0000000
f 33/119/34 35/120/34 34/121/34
f 37/122/35 38/123/35 39/124/35
f 33/125/36 36/126/36 35/127/36
f 37/128/37 39/129/37 40/130/37
f 33/131/38 34/132/38 38/133/38
f 33/131/38 38/133/38 37/134/38
f 34/135/39 35/136/39 39/137/39
f 34/135/39 39/137/39 38/138/39
f 35/139/40 36/140/40 40/141/40
f 35/139/40 40/141/40 39/142/40
f 36/143/41 33/144/41 37/145/41
f 36/143/41 37/145/41 40/146/41

v -0.0906250 0.0875000 -0.1906250
v -0.1968750 0.1225000 -0.1906250
v -0.1718750 0.0812500 -0.1906250
v -0.0906250 0.0875000 -0.1843750
v -0.1968750 0.1225000 -0.1843750
v -0.1718750 0.0812500 -0.1843750
vt 0.6562500 0.6250000
vt 0.6875000 0.6250000
vt 0.6562500 0.5937500
vt 0.6562500 0.6250000
vt 0.6875000 0.6250000
vt 0.6562500 0.5937500
vt 0.2812500 0.6250000
vt 0.3125000 0.6250000
vt 0.2812500 0.5937500
vt 0.3125000 0.5937500
vt 0.2812500 0.6250000
vt 0.3125000 0.6250000
vt 0.2812500 0.5937500
vt 0.3125000 0.5937500
vt 0.2812500 0.6250000
vt 0.3125000 0.6250000
vt 0.2812500 0.5937500
vt 0.3125000 0.5937500
vn 0.0000000 0.0000000 -1.0000000
vn 0.0000000 0.0000000 1.0000000
vn 0.3128736 0.9497948 0.0000000
vn -0.8551978 -0.5183017 0.0000000
vn 0.0766965 -0.9970545 0.0000000
f 41/147/42 43/148/42 42/149/42
f 44/150/43 45/151/43 46/152/43
f 41/153/44 42/154/44 45/155/44
f 41/153/44 45/155/44 44/156/44
f 42/157/45 43/158/45 46/159/45
f 42/157/45 46/159/45 45/160/45
f 43/161/46 41/162/46 44/163/46
f 43/161/46 44/163/46 46/164/46

v -0.2250000 -0.0125000 -0.1250000
v -0.2562500 0.0156250 -0.1250000
v -0.2312500 -0.1000000 -0.1250000
v -0.1562500 -0.1375000 -0.1250000
v -0.2250000 -0.0125000 -0.1187500
v -0.2562500 0.0156250 -0.1187500
v -0.2312500 -0.1000000 -0.1187500
v -0.1562500 -0.1375000 -0.1187500
vt 0.5312500 0.6250000
vt 0.5625000 0.6250000
vt 0.5312500 0.5937500
vt 0.5312500 0.6250000
vt 0.5625000 0.6250000
vt 0.5312500 0.5937500
vt 0.5312500 0.6250000
vt 0.5625000 0.6250000
vt 0.5312500 0.5937500
vt 0.5312500 0.6250000
vt 0.5625000 0.6250000
vt 0.5312500 0.5937500
vt 0.2812500 0.6250000
vt 0.3125000 0.6250000
vt 0.2812500 0.5937500
vt 0.3125000 0.5937500
vt 0.2812500 0.6250000
vt 0.3125000 0.6250000
vt 0.2812500 0.5937500
vt 0.3125000 0.5937500
vt 0.2812500 0.6250000
vt 0.3125000 0.6250000
vt 0.2812500 0.5937500
vt 0.3125000 0.5937500
vt 0.2812500 0.6250000
vt 0.3125000 0.6250000
vt 0.2812500 0.5937500
vt 0.3125000 0.5937500
vn 0.0000000 0.0000000 -1.0000000
vn 0.0000000 0.0000000 1.0000000
vn 0.0000000 0.0000000 -1.0000000
vn 0.0000000 0.0000000 1.0000000
vn 0.6689647 0.7432941 0.0000000
vn -0.9774142 -0.2113328 0.0000000
vn -0.4472136 -0.8944272 0.0000000
vn 0.8762159 0.4819187 0.0000000
f 47/165/47 49/166/47 48/167/47
f 51/168/48 52/169/48 53/170/48
f 47/171/49 50/172/49 49/173/49
f 51/174/50 53/175/50 54/176/50
f 47/177/51 48/178/51 52/179/51
f 47/177/51 52/179/51 51/180/51
f 48/181/52 49/182/52 53/183/52
f 48/181/52 53/183/52 52/184/52
f 49/185/53 50/186/53 54/187/53
f 49/185/53 54/187/53 53/188/53
f 50/189/54 47/190/54 51/191/54
f 50/189/54 51/191/54 54/192/54

v -0.1595492 -0.1809017 0.0375000
v -0.2154508 -0.0690983 0.0375000
v -0.2154508 -0.0690983 0.0875000
v -0.1595492 -0.1809017 0.0875000
v -0.4544536 -0.3517219 0.1000000
v -0.4205464 -0.1482781 0.1000000
v -0.4205464 -0.1482781 0.1500000
v -0.4544536 -0.3517219 0.1500000
v -0.6741313 -0.0764539 0.1000000
v -0.4508687 -0.0485461 0.1000000
v -0.4508687 -0.0485461 0.1500000
v -0.6741313 -0.0764539 0.1500000
v -0.5869648 0.2403372 0.1000000
v -0.4130352 0.2596628 0.1000000
v -0.4130352 0.2596628 0.1500000
v -0.5869648 0.2403372 0.1500000
v -0.6594679 0.4852280 0.0375000
v -0.5905321 0.5147720 0.0375000
v -0.5905321 0.5147720 0.0875000
v -0.6594679 0.4852280 0.0875000
v -0.6886859 0.6871047 -0.0250000
v -0.6863141 0.6878953 -0.0250000
v -0.6863141 0.6878953 0.0250000
v -0.6886859 0.6871047 0.0250000
vt 0.0312500 0.6250000
vt 0.0625000 0.6250000
vt 0.0312500 0.5937500
vt 0.0625000 0.5937500
vt 0.2812500 0.6250000
vt 0.3125000 0.6250000
vt 0.2812500 0.5937500
vt 0.3125000 0.5937500
vt 0.0312500 0.6250000
vt 0.0625000 0.6250000
vt 0.0312500 0.5937500
vt 0.0625000 0.5937500
vt 0.2812500 0.6250000
vt 0.3125000 0.6250000
vt 0.2812500 0.5937500
vt 0.3125000 0.5937500
vt 0.0312500 0.6250000
vt 0.0625000 0.6250000
vt 0.0312500 0.5937500
vt 0.0625000 0.5937500
vt 0.2812500 0.6250000
vt 0.3125000 0.6250000
vt 0.2812500 0.5937500
vt 0.3125000 0.5937500
vt 0.0312500 0.6250000
vt 0.0625000 0.6250000
vt 0.0312500 0.5937500
vt 0.0625000 0.5937500
vt 0.2812500 0.6250000
vt 0.3125000 0.6250000
vt 0.2812500 0.5937500
vt 0.3125000 0.5937500
vt 0.0312500 0.6250000
vt 0.0625000 0.6250000
vt 0.0312500 0.5937500
vt 0.0625000 0.5937500
vt 0.2812500 0.6250000
vt 0.3125000 0.6250000
vt 0.2812500 0.5937500
vt 0.3125000 0.5937500
vt 0.0312500 0.6250000
vt 0.0625000 0.6250000
vt 0.0312500 0.5937500
vt 0.0625000 0.5937500
vt 0.2812500 0.6250000
vt 0.3125000 0.6250000
vt 0.2812500 0.5937500
vt 0.3125000 0.5937500
vt 0.0312500 0.6250000
vt 0.0625000 0.6250000
vt 0.0312500 0.5937500
vt 0.0625000 0.5937500
vt 0.2812500 0.6250000
vt 0.3125000 0.6250000
vt 0.2812500 0.5937500
vt 0.3125000 0.5937500
vt 0.0312500 0.6250000
vt 0.0625000 0.6250000
vt 0.0312500 0.5937500
vt 0.0625000 0.5937500
vt 0.2812500 0.6250000
vt 0.3125000 0.6250000
vt 0.2812500 0.5937500
vt 0.3125000 0.5937500
vt 0.0312500 0.6250000
vt 0.0625000 0.6250000
vt 0.0312500 0.5937500
vt 0.0625000 0.5937500
vt 0.2812500 0.6250000
vt 0.3125000 0.6250000
vt 0.2812500 0.5937500
vt 0.3125000 0.5937500
vt 0.0312500 0.6250000
vt 0.0625000 0.6250000
vt 0.0312500 0.5937500
vt 0.0625000 0.5937500
vt 0.2812500 0.6250000
vt 0.3125000 0.6250000
vt 0.2812500 0.5937500
vt 0.3125000 0.5937500
vt 0.0312500 0.6250000
vt 0.0625000 0.6250000
vt 0.0312500 0.5937500
vt 0.0625000 0.5937500
vt 0.0312500 0.6250000
vt 0.0625000 0.6250000
vt 0.0312500 0.5937500
vt 0.0625000 0.5937500
vn 0.2456108 0.1228054 0.9615582
vn 0.3601554 -0.9328923 0.0000000
vn -0.1616320 -0.0808160 -0.9835364
vn -0.5012252 0.8653169 0.0000000
vn 0.0000000 0.0000000 1.0000000
vn -0.9567563 -0.2908908 0.0000000
vn 0.0000000 0.0000000 -1.0000000
vn 0.7816117 0.6237653 0.0000000
vn 0.0000000 0.0000000 1.0000000
vn -0.9925499 0.1218385 0.0000000
vn 0.0000000 0.0000000 -1.0000000
vn 0.9641674 -0.2652948 0.0000000
vn -0.0246315 0.2216833 0.9748076
vn -0.8208605 -0.5711287 0.0000000
vn 0.0266432 -0.2397885 -0.9704595
vn 0.9588590 0.2838827 0.0000000
vn -0.1192023 0.2781387 0.9531158
vn -0.8750089 -0.4841068 0.0000000
vn 0.1190882 -0.2778725 -0.9532077
vn 0.9896881 0.1432390 0.0000000
vn -0.8944272 -0.4472136 0.0000000
vn 0.3162278 -0.9486833 0.0000000
f 55/193/55 56/194/55 60/195/55
f 55/193/55 60/195/55 59/196/55
f 56/197/56 57/198/56 61/199/56
f 56/197/56 61/199/56 60/200/56
f 57/201/57 58/202/57 62/203/57
f 57/201/57 62/203/57 61/204/57
f 58/205/58 55/206/58 59/207/58
f 58/205/58 59/207/58 62/208/58
f 59/209/59 60/210/59 64/211/59
f 59/209/59 64/211/59 63/212/59
f 60/213/60 61/214/60 65/215/60
f 60/213/60 65/215/60 64/216/60
f 61/217/61 62/218/61 66/219/61
f 61/217/61 66/219/61 65/220/61
f 62/221/62 59/222/62 63/223/62
f 62/221/62 63/223/62 66/224/62
f 63/225/63 64/226/63 68/227/63
f 63/225/63 68/227/63 67/228/63
f 64/229/64 65/230/64 69/231/64
f 64/229/64 69/231/64 68/232/64
f 65/233/65 66/234/65 70/235/65
f 65/233/65 70/235/65 69/236/65
f 66/237/66 63/238/66 67/239/66
f 66/237/66 67/239/66 70/240/66
f 67/241/67 68/242/67 72/243/67
f 67/241/67 72/243/67 71/244/67
f 68/245/68 69/246/68 73/247/68
f 68/245/68 73/247/68 72/248/68
f 69/249/69 70/250/69 74/251/69
f 69/249/69 74/251/69 73/252/69
f 70/253/70 67/254/70 71/255/70
f 70/253/70 71/255/70 74/256/70
f 71/257/71 72/258/71 76/259/71
f 71/257/71 76/259/71 75/260/71
f 72/261/72 73/262/72 77/263/72
f 72/261/72 77/263/72 76/264/72
f 73/265/73 74/266/73 78/267/73
f 73/265/73 78/267/73 77/268/73
f 74/269/74 71/270/74 75/271/74
f 74/269/74 75/271/74 78/272/74
f 58/273/75 57/274/75 56/275/75
f 58/273/75 56/275/75 55/276/75
f 75/277/76 76/278/76 77/279/76
f 75/277/76 77/279/76 78/280/76

v -0.4676133 -0.2052082 0.0843750
v -0.4448867 -0.1947918 0.0843750
v -0.4448867 -0.1947918 0.0906250
v -0.4676133 -0.2052082 0.0906250
v -0.5449908 -0.0506058 0.0843750
v -0.5050092 -0.0493942 0.0843750
v -0.5050092 -0.0493942 0.0906250
v -0.5449908 -0.0506058 0.0906250
v -0.4824236 0.2110522 0.0843750
v -0.4550764 0.2139478 0.0843750
v -0.4550764 0.2139478 0.0906250
v -0.4824236 0.2110522 0.0906250
v -0.5818265 0.4810087 0.0218750
v -0.5806735 0.4814913 0.0218750
v -0.5806735 0.4814913 0.0281250
v -0.5818265 0.4810087 0.0281250
vt 0.5312500 0.6250000
vt 0.5625000 0.6250000
vt 0.5312500 0.5937500
vt 0.5625000 0.5937500
vt 0.2812500 0.6250000
vt 0.3125000 0.6250000
vt 0.2812500 0.5937500
vt 0.3125000 0.5937500
vt 0.5312500 0.6250000
vt 0.5625000 0.6250000
vt 0.5312500 0.5937500
vt 0.5625000 0.5937500
vt 0.2812500 0.6250000
vt 0.3125000 0.6250000
vt 0.2812500 0.5937500
vt 0.3125000 0.5937500
vt 0.5312500 0.6250000
vt 0.5625000 0.6250000
vt 0.5312500 0.5937500
vt 0.5625000 0.5937500
vt 0.2812500 0.6250000
vt 0.3125000 0.6250000
vt 0.2812500 0.5937500
vt 0.3125000 0.5937500
vt 0.5312500 0.6250000
vt 0.5625000 0.6250000
vt 0.5312500 0.5937500
vt 0.5625000 0.5937500
vt 0.2812500 0.6250000
vt 0.3125000 0.6250000
vt 0.2812500 0.5937500
vt 0.3125000 0.5937500
vt 0.5312500 0.6250000
vt 0.5625000 0.6250000
vt 0.5312500 0.5937500
vt 0.5625000 0.5937500
vt 0.2812500 0.6250000
vt 0.3125000 0.6250000
vt 0.2812500 0.5937500
vt 0.3125000 0.5937500
vt 0.5312500 0.6250000
vt 0.5625000 0.6250000
vt 0.5312500 0.5937500
vt 0.5625000 0.5937500
vt 0.2812500 0.6250000
vt 0.3125000 0.6250000
vt 0.2812500 0.5937500
vt 0.3125000 0.5937500
vt 0.5312500 0.6250000
vt 0.5625000 0.6250000
vt 0.5312500 0.5937500
vt 0.5625000 0.5937500
vt 0.5312500 0.6250000
vt 0.5625000 0.6250000
vt 0.5312500 0.5937500
vt 0.5625000 0.5937500
vn 0.0000000 0.0000000 1.0000000
vn -0.9241112 -0.3821237 0.0000000
vn 0.0000000 0.0000000 -1.0000000
vn 0.8942506 0.4475667 0.0000000
vn 0.0000000 0.0000000 1.0000000
vn -0.9824943 0.1862925 0.0000000
vn 0.0000000 0.0000000 -1.0000000
vn 0.9725815 -0.2325622 0.0000000
vn -0.0229948 0.2171733 0.9758622
vn -0.9052169 -0.4249498 0.0000000
vn 0.0230230 -0.2174391 -0.9758023
vn 0.9384048 0.3455380 0.0000000
vn -0.4166547 0.9090648 0.0000000
vn 0.3861381 -0.9224410 0.0000000
f 79/281/77 80/282/77 84/283/77
f 79/281/77 84/283/77 83/284/77
f 80/285/78 81/286/78 85/287/78
f 80/285/78 85/287/78 84/288/78
f 81/289/79 82/290/79 86/291/79
f 81/289/79 86/291/79 85/292/79
f 82/293/80 79/294/80 83/295/80
f 82/293/80 83/295/80 86/296/80
f 83/297/81 84/298/81 88/299/81
f 83/297/81 88/299/81 87/300/81
f 84/301/82 85/302/82 89/303/82
f 84/301/82 89/303/82 88/304/82
f 85/305/83 86/306/83 90/307/83
f 85/305/83 90/307/83 89/308/83
f 86/309/84 83/310/84 87/311/84
f 86/309/84 87/311/84 90/312/84
f 87/313/85 88/314/85 92/315/85
f 87/313/85 92/315/85 91/316/85
f 88/317/86 89/318/86 93/319/86
f 88/317/86 93/319/86 92/320/86
f 89/321/87 90/322/87 94/323/87
f 89/321/87 94/323/87 93/324/87
f 90/325/88 87/326/88 91/327/88
f 90/325/88 91/327/88 94/328/88
f 82/329/89 81/330/89 80/331/89
f 82/329/89 80/331/89 79/332/89
f 91/333/90 92/334/90 93/335/90
f 91/333/90 93/335/90 94/336/90

v 0.1250000 0.2500000 -0.0593750
v 0.2937500 0.2812500 -0.0593750
v 0.3437500 0.7500000 -0.0593750
v 0.1000000 0.4375000 -0.0593750
v 0.1250000 0.2500000 0.0593750
v 0.2937500 0.2812500 0.0593750
v 0.3437500 0.7500000 0.0593750
v 0.1000000 0.4375000 0.0593750
vt 0.0312500 0.6250000
vt 0.0625000 0.6250000
vt 0.0312500 0.5937500
vt 0.0312500 0.6250000
vt 0.0625000 0.6250000
vt 0.0312500 0.5937500
vt 0.0312500 0.6250000
vt 0.0625000 0.6250000
vt 0.0312500 0.5937500
vt 0.0312500 0.6250000
vt 0.0625000 0.6250000
vt 0.0312500 0.5937500
vt 0.2812500 0.6250000
vt 0.3125000 0.6250000
vt 0.2812500 0.5937500
vt 0.3125000 0.5937500
vt 0.2812500 0.6250000
vt 0.3125000 0.6250000
vt 0.2812500 0.5937500
vt 0.3125000 0.5937500
vt 0.2812500 0.6250000
vt 0.3125000 0.6250000
vt 0.2812500 0.5937500
vt 0.3125000 0.5937500
vt 0.2812500 0.6250000
vt 0.3125000 0.6250000
vt 0.2812500 0.5937500
vt 0.3125000 0.5937500
vn 0.0000000 0.0000000 -1.0000000
vn 0.0000000 0.0000000 1.0000000
vn 0.0000000 0.0000000 -1.0000000
vn 0.0000000 0.0000000 1.0000000
vn 0.1820893 -0.9832820 0.0000000
vn 0.9943592 -0.1060650 0.0000000
vn -0.7885023 0.6150318 0.0000000
vn -0.9912279 -0.1321637 0.0000000
f 95/337/91 97/338/91 96/339/91
f 99/340/92 100/341/92 101/342/92
f 95/343/93 98/344/93 97/345/93
f 99/346/94 101/347/94 102/348/94
f 95/349/95 96/350/95 100/351/95
f 95/349/95 100/351/95 99/352/95
f 96/353/96 97/354/96 101/355/96
f 96/353/96 101/355/96 100/356/96
f 97/357/97 98/358/97 102/359/97
f 97/357/97 102/359/97 101/360/97
f 98/361/98 95/362/98 99/363/98
f 98/361/98 99/363/98 102/364/98

v 0.1562500 0.3750000 -0.0693750
v 0.2625000 0.3750000 -0.0693750
v 0.2937500 0.6562500 -0.0693750
v 0.1562500 0.3750000 -0.0618750
v 0.2625000 0.3750000 -0.0618750
v 0.2937500 0.6562500 -0.0618750
vt 0.5312500 0.6250000
vt 0.5625000 0.6250000
vt 0.5312500 0.5937500
vt 0.5312500 0.6250000
vt 0.5625000 0.6250000
vt 0.5312500 0.5937500
vt 0.2812500 0.6250000
vt 0.3125000 0.6250000
vt 0.2812500 0.5937500
vt 0.3125000 0.5937500
vt 0.2812500 0.6250000
vt 0.3125000 0.6250000
vt 0.2812500 0.5937500
vt 0.3125000 0.5937500
vt 0.2812500 0.6250000
vt 0.3125000 0.6250000
vt 0.2812500 0.5937500
vt 0.3125000 0.5937500
vn 0.0000000 0.0000000 -1.0000000
vn 0.0000000 0.0000000 1.0000000
vn 0.0000000 -1.0000000 0.0000000
vn 0.9938837 -0.1104315 0.0000000
vn -0.8983844 0.4392101 0.0000000
f 103/365/99 105/366/99 104/367/99
f 106/368/100 107/369/100 108/370/100
f 103/371/101 104/372/101 107/373/101
f 103/371/101 107/373/101 106/374/101
f 104/375/102 105/376/102 108/377/102
f 104/375/102 108/377/102 107/378/102
f 105/379/103 103/380/103 106/381/103
f 105/379/103 106/381/103 108/382/103

v 0.0562500 0.1031250 -0.1837500
v 0.2312500 0.1531250 -0.1837500
v 0.1937500 0.0468750 -0.1837500
v 0.0781250 0.0531250 -0.1837500
v 0.0562500 0.1031250 -0.1725000
v 0.2312500 0.1531250 -0.1725000
v 0.1937500 0.0468750 -0.1725000
v 0.0781250 0.0531250 -0.1725000
vt 0.5312500 0.6250000
vt 0.5625000 0.6250000
vt 0.5312500 0.5937500
vt 0.5312500 0.6250000
vt 0.5625000 0.6250000
vt 0.5312500 0.5937500
vt 0.5312500 0.6250000
vt 0.5625000 0.6250000
vt 0.5312500 0.5937500
vt 0.5312500 0.6250000
vt 0.5625000 0.6250000
vt 0.5312500 0.5937500
vt 0.2812500 0.6250000
vt 0.3125000 0.6250000
vt 0.2812500 0.5937500
vt 0.3125000 0.5937500
vt 0.2812500 0.6250000
vt 0.3125000 0.6250000
vt 0.2812500 0.5937500
vt 0.3125000 0.5937500
vt 0.2812500 0.6250000
vt 0.3125000 0.6250000
vt 0.2812500 0.5937500
vt 0.3125000 0.5937500
vt 0.2812500 0.6250000
vt 0.3125000 0.6250000
vt 0.2812500 0.5937500
vt 0.3125000 0.5937500
vn 0.0000000 0.0000000 1.0000000
vn 0.0000000 0.0000000 -1.0000000
vn 0.0000000 0.0000000 1.0000000
vn 0.0000000 0.0000000 -1.0000000
vn 0.2747211 -0.9615239 0.0000000
vn -0.9429903 0.3328201 0.0000000
vn 0.0539753 0.9985423 0.0000000
vn 0.9161573 0.4008188 0.0000000
f 109/383/104 111/384/104 110/385/104
f 113/386/105 114/387/105 115/388/105
f 109/389/106 112/390/106 111/391/106
f 113/392/107 115/393/107 116/394/107
f 109/395/108 110/396/108 114/397/108
f 109/395/108 114/397/108 113/398/108
f 110/399/109 111/400/109 115/401/109
f 110/399/109 115/401/109 114/402/109
f 111/403/110 112/404/110 116/405/110
f 111/403/110 116/405/110 115/406/110
f 112/407/111 109/408/111 113/409/111
f 112/407/111 113/409/111 116/410/111

v 0.0906250 0.0875000 -0.1906250
v 0.1968750 0.1225000 -0.1906250
v 0.1718750 0.0812500 -0.1906250
v 0.0906250 0.0875000 -0.1843750
v 0.1968750 0.1225000 -0.1843750
v 0.1718750 0.0812500 -0.1843750
vt 0.6562500 0.6250000
vt 0.6875000 0.6250000
vt 0.6562500 0.5937500
vt 0.6562500 0.6250000
vt 0.6875000 0.6250000
vt 0.6562500 0.5937500
vt 0.2812500 0.6250000
vt 0.3125000 0.6250000
vt 0.2812500 0.5937500
vt 0.3125000 0.5937500
vt 0.2812500 0.6250000
vt 0.3125000 0.6250000
vt 0.2812500 0.5937500
vt 0.3125000 0.5937500
vt 0.2812500 0.6250000
vt 0.3125000 0.6250000
vt 0.2812500 0.5937500
vt 0.3125000 0.5937500
vn 0.0000000 0.0000000 1.0000000
vn 0.0000000 0.0000000 -1.0000000
vn 0.3128736 -0.9497948 0.0000000
vn -0.8551978 0.5183017 0.0000000
vn 0.0766965 0.9970545 0.0000000
f 117/411/112 119/412/112 118/413/112
f 120/414/113 121/415/113 122/416/113
f 117/417/114 118/418/114 121/419/114
f 117/417/114 121/419/114 120/420/114
f 118/421/115 119/422/115 122/423/115
f 118/421/115 122/423/115 121/424/115
f 119/425/116 117/426/116 120/427/116
f 119/425/116 120/427/116 122/428/116

v 0.2250000 -0.0125000 -0.1250000
v 0.2562500 0.0156250 -0.1250000
v 0.2312500 -0.1000000 -0.1250000
v 0.1562500 -0.1375000 -0.1250000
v 0.2250000 -0.0125000 -0.1187500
v 0.2562500 0.0156250 -0.1187500
v 0.2312500 -0.1000000 -0.1187500
v 0.1562500 -0.1375000 -0.1187500
vt 0.5312500 0.6250000
vt 0.5625000 0.6250000
vt 0.5312500 0.5937500
vt 0.5312500 0.6250000
vt 0.5625000 0.6250000
vt 0.5312500 0.5937500
vt 0.5312500 0.6250000
vt 0.5625000 0.6250000
vt 0.5312500 0.5937500
vt 0.5312500 0.6250000
vt 0.5625000 0.6250000
vt 0.5312500 0.5937500
vt 0.2812500 0.6250000
vt 0.3125000 0.6250000
vt 0.2812500 0.5937500
vt 0.3125000 0.5937500
vt 0.2812500 0.6250000
vt 0.3125000 0.6250000
vt 0.2812500 0.5937500
vt 0.3125000 0.5937500
vt 0.2812500 0.6250000
vt 0.3125000 0.6250000
vt 0.2812500 0.5937500
vt 0.3125000 0.5937500
vt 0.2812500 0.6250000
vt 0.3125000 0.6250000
vt 0.2812500 0.5937500
vt 0.3125000 0.5937500
vn 0.0000000 0.0000000 1.0000000
vn 0.0000000 0.0000000 -1.0000000
vn 0.0000000 0.0000000 1.0000000
vn 0.0000000 0.0000000 -1.0000000
vn 0.6689647 -0.7432941 0.0000000
vn -0.9774142 0.2113328 0.0000000
vn -0.4472136 0.8944272 0.0000000
vn 0.8762159 -0.4819187 0.0000000
f 123/429/117 125/430/117 124/431/117
f 127/432/118 128/433/118 129/434/118
f 123/435/119 126/436/119 125/437/119
f 127/438/120 129/439/120 130/440/120
f 123/441/121 124/442/121 128/443/121
f 123/441/121 128/443/121 127/444/121
f 124/445/122 125/446/122 129/447/122
f 124/445/122 129/447/122 128/448/122
f 125/449/123 126/450/123 130/451/123
f 125/449/123 130/451/123 129/452/123
f 126/453/124 123/454/124 127/455/124
f 126/453/124 127/455/124 130/456/124

v 0.2154508 -0.0690983 0.0375000
v 0.1595492 -0.1809017 0.0375000
v 0.1595492 -0.1809017 0.0875000
v 0.2154508 -0.0690983 0.0875000
v 0.4205464 -0.1482781 0.1000000
v 0.4544536 -0.3517219 0.1000000
v 0.4544536 -0.3517219 0.1500000
v 0.4205464 -0.1482781 0.1500000
v 0.4508687 -0.0485461 0.1000000
v 0.6741313 -0.0764539 0.1000000
v 0.6741313 -0.0764539 0.1500000
v 0.4508687 -0.0485461 0.1500000
v 0.4130352 0.2596628 0.1000000
v 0.5869648 0.2403372 0.1000000
v 0.5869648 0.2403372 0.1500000
v 0.4130352 0.2596628 0.1500000
v 0.5905321 0.5147720 0.0375000
v 0.6594679 0.4852280 0.0375000
v 0.6594679 0.4852280 0.0875000
v 0.5905321 0.5147720 0.0875000
v 0.6863141 0.6878953 -0.0250000
v 0.6886859 0.6871047 -0.0250000
v 0.6886859 0.6871047 0.0250000
v 0.6863141 0.6878953 0.0250000
vt 0.0312500 0.6250000
vt 0.0625000 0.6250000
vt 0.0312500 0.5937500
vt 0.0625000 0.5937500
vt 0.2812500 0.6250000
vt 0.3125000 0.6250000
vt 0.2812500 0.5937500
vt 0.3125000 0.5937500
vt 0.0312500 0.6250000
vt 0.0625000 0.6250000
vt 0.0312500 0.5937500
vt 0.0625000 0.5937500
vt 0.2812500 0.6250000
vt 0.3125000 0.6250000
vt 0.2812500 0.5937500
vt 0.3125000 0.5937500
vt 0.0312500 0.6250000
vt 0.0625000 0.6250000
vt 0.0312500 0.5937500
vt 0.0625000 0.5937500
vt 0.2812500 0.6250000
vt 0.3125000 0.6250000
vt 0.2812500 0.5937500
vt 0.3125000 0.5937500
vt 0.0312500 0.6250000
vt 0.0625000 0.6250000
vt 0.0312500 0.5937500
vt 0.0625000 0.5937500
vt 0.2812500 0.6250000
vt 0.3125000 0.6250000
vt 0.2812500 0.5937500
vt 0.3125000 0.5937500
vt 0.0312500 0.6250000
vt 0.0625000 0.6250000
vt 0.0312500 0.5937500
vt 0.0625000 0.5937500
vt 0.2812500 0.6250000
vt 0.3125000 0.6250000
vt 0.2812500 0.5937500
vt 0.3125000 0.5937500
vt 0.0312500 0.6250000
vt 0.0625000 0.6250000
vt 0.0312500 0.5937500
vt 0.0625000 0.5937500
vt 0.2812500 0.6250000
vt 0.3125000 0.6250000
vt 0.2812500 0.5937500
vt 0.3125000 0.5937500
vt 0.0312500 0.6250000
vt 0.0625000 0.6250000
vt 0.0312500 0.5937500
vt 0.0625000 0.5937500
vt 0.2812500 0.6250000
vt 0.3125000 0.6250000
vt 0.2812500 0.5937500
vt 0.3125000 0.5937500
vt 0.0312500 0.6250000
vt 0.0625000 0.6250000
vt 0.0312500 0.5937500
vt 0.0625000 0.5937500
vt 0.2812500 0.6250000
vt 0.3125000 0.6250000
vt 0.2812500 0.5937500
vt 0.3125000 0.5937500
vt 0.0312500 0.6250000
vt 0.0625000 0.6250000
vt 0.0312500 0.5937500
vt 0.0625000 0.5937500
vt 0.2812500 0.6250000
vt 0.3125000 0.6250000
vt 0.2812500 0.5937500
vt 0.3125000 0.5937500
vt 0.0312500 0.6250000
vt 0.0625000 0.6250000
vt 0.0312500 0.5937500
vt 0.0625000 0.5937500
vt 0.2812500 0.6250000
vt 0.3125000 0.6250000
vt 0.2812500 0.5937500
vt 0.3125000 0.5937500
vt 0.0312500 0.6250000
vt 0.0625000 0.6250000
vt 0.0312500 0.5937500
vt 0.0625000 0.5937500
vt 0.0312500 0.6250000
vt 0.0625000 0.6250000
vt 0.0312500 0.5937500
vt 0.0625000 0.5937500
vn -0.1616320 0.0808160 0.9835364
vn 0.5012252 0.8653169 0.0000000
vn 0.2456108 -0.1228054 -0.9615582
vn -0.3601554 -0.9328923 0.0000000
vn 0.0000000 0.0000000 1.0000000
vn -0.7816117 0.6237653 0.0000000
vn 0.0000000 0.0000000 -1.0000000
vn 0.9567563 -0.2908908 0.0000000
vn 0.0000000 0.0000000 1.0000000
vn -0.9641674 -0.2652948 0.0000000
vn 0.0000000 0.0000000 -1.0000000
vn 0.9925499 0.1218385 0.0000000
vn 0.0266432 0.2397885 0.9704595
vn -0.9588590 0.2838827 0.0000000
vn -0.0246315 -0.2216833 -0.9748076
vn 0.8208605 -0.5711287 0.0000000
vn 0.1190882 0.2778725 0.9532077
vn -0.9896881 0.1432390 0.0000000
vn -0.1192023 -0.2781387 -0.9531158
vn 0.8750089 -0.4841068 0.0000000
vn 0.8944272 -0.4472136 0.0000000
vn -0.3162278 -0.9486833 0.0000000
f 131/457/125 132/458/125 136/459/125
f 131/457/125 136/459/125 135/460/125
f 132/461/126 133/462/126 137/463/126
f 132/461/126 137/463/126 136/464/126
f 133/465/127 134/466/127 138/467/127
f 133/465/127 138/467/127 137/468/127
f 134/469/128 131/470/128 135/471/128
f 134/469/128 135/471/128 138/472/128
f 135/473/129 136/474/129 140/475/129
f 135/473/129 140/475/129 139/476/129
f 136/477/130 137/478/130 141/479/130
f 136/477/130 141/479/130 140/480/130
f 137/481/131 138/482/131 142/483/131
f 137/481/131 142/483/131 141/484/131
f 138/485/132 135/486/132 139/487/132
f 138/485/132 139/487/132 142/488/132
f 139/489/133 140/490/133 144/491/133
f 139/489/133 144/491/133 143/492/133
f 140/493/134 141/494/134 145/495/134
f 140/493/134 145/495/134 144/496/134
f 141/497/135 142/498/135 146/499/135
f 141/497/135 146/499/135 145/500/135
f 142/501/136 139/502/136 143/503/136
f 142/501/136 143/503/136 146/504/136
f 143/505/137 144/506/137 148/507/137
f 143/505/137 148/507/137 147/508/137
f 144/509/138 145/510/138 149/511/138
f 144/509/138 149/511/138 148/512/138
f 145/513/139 146/514/139 150/515/139
f 145/513/139 150/515/139 149/516/139
f 146/517/140 143/518/140 147/519/140
f 146/517/140 147/519/140 150/520/140
f 147/521/141 148/522/141 152/523/141
f 147/521/141 152/523/141 151/524/141
f 148/525/142 149/526/142 153/527/142
f 148/525/142 153/527/142 152/528/142
f 149/529/143 150/530/143 154/531/143
f 149/529/143 154/531/143 153/532/143
f 150/533/144 147/534/144 151/535/144
f 150/533/144 151/535/144 154/536/144
f 134/537/145 133/538/145 132/539/145
f 134/537/145 132/539/145 131/540/145
f 151/541/146 152/542/146 153/543/146
f 151/541/146 153/543/146 154/544/146

v 0.4448867 -0.1947918 0.0843750
v 0.4676133 -0.2052082 0.0843750
v 0.4676133 -0.2052082 0.0906250
v 0.4448867 -0.1947918 0.0906250
v 0.5050092 -0.0493942 0.0843750
v 0.5449908 -0.0506058 0.0843750
v 0.5449908 -0.0506058 0.0906250
v 0.5050092 -0.0493942 0.0906250
v 0.4550764 0.2139478 0.0843750
v 0.4824236 0.2110522 0.0843750
v 0.4824236 0.2110522 0.0906250
v 0.4550764 0.2139478 0.0906250
v 0.5806735 0.4814913 0.0218750
v 0.5818265 0.4810087 0.0218750
v 0.5818265 0.4810087 0.0281250
v 0.5806735 0.4814913 0.0281250
vt 0.5312500 0.6250000
vt 0.5625000 0.6250000
vt 0.5312500 0.5937500
vt 0.5625000 0.5937500
vt 0.2812500 0.6250000
vt 0.3125000 0.6250000
vt 0.2812500 0.5937500
vt 0.3125000 0.5937500
vt 0.5312500 0.6250000
vt 0.5625000 0.6250000
vt 0.5312500 0.5937500
vt 0.5625000 0.5937500
vt 0.2812500 0.6250000
vt 0.3125000 0.6250000
vt 0.2812500 0.5937500
vt 0.3125000 0.5937500
vt 0.5312500 0.6250000
vt 0.5625000 0.6250000
vt 0.5312500 0.5937500
vt 0.5625000 0.5937500
vt 0.2812500 0.6250000
vt 0.3125000 0.6250000
vt 0.2812500 0.5937500
vt 0.3125000 0.5937500
vt 0.5312500 0.6250000
vt 0.5625000 0.6250000
vt 0.5312500 0.5937500
vt 0.5625000 0.5937500
vt 0.2812500 0.6250000
vt 0.3125000 0.6250000
vt 0.2812500 0.5937500
vt 0.3125000 0.5937500
vt 0.5312500 0.6250000
vt 0.5625000 0.6250000
vt 0.5312500 0.5937500
vt 0.5625000 0.5937500
vt 0.2812500 0.6250000
vt 0.3125000 0.6250000
vt 0.2812500 0.5937500
vt 0.3125000 0.5937500
vt 0.5312500 0.6250000
vt 0.5625000 0.6250000
vt 0.5312500 0.5937500
vt 0.5625000 0.5937500
vt 0.2812500 0.6250000
vt 0.3125000 0.6250000
vt 0.2812500 0.5937500
vt 0.3125000 0.5937500
vt 0.5312500 0.6250000
vt 0.5625000 0.6250000
vt 0.5312500 0.5937500
vt 0.5625000 0.5937500
vt 0.5312500 0.6250000
vt 0.5625000 0.6250000
vt 0.5312500 0.5937500
vt 0.5625000 0.5937500
vn 0.0000000 0.0000000 1.0000000
vn -0.8942506 0.4475667 0.0000000
vn 0.0000000 0.0000000 -1.0000000
vn 0.9241112 -0.3821237 0.0000000
vn 0.0000000 0.0000000 1.0000000
vn -0.9725815 -0.2325622 0.0000000
vn 0.0000000 0.0000000 -1.0000000
vn 0.9824943 0.1862925 0.0000000
vn 0.0230230 0.2174391 0.9758023
vn -0.9384048 0.3455380 0.0000000
vn -0.0229948 -0.2171733 -0.9758622
vn 0.9052169 -0.4249498 0.0000000
vn 0.4166547 0.9090648 0.0000000
vn -0.3861381 -0.9224410 0.0000000
f 155/545/147 156/546/147 160/547/147
f 155/545/147 160/547/147 159/548/147
f 156/549/148 157/550/148 161/551/148
f 156/549/148 161/551/148 160/552/148
f 157/553/149 158/554/149 162/555/149
f 157/553/149 162/555/149 161/556/149
f 158/557/150 155/558/150 159/559/150
f 158/557/150 159/559/150 162/560/150
f 159/561/151 160/562/151 164/563/151
f 159/561/151 164/563/151 163/564/151
f 160/565/152 161/566/152 165/567/152
f 160/565/152 165/567/152 164/568/152
f 161/569/153 162/570/153 166/571/153
f 161/569/153 166/571/153 165/572/153
f 162/573/154 159/574/154 163/575/154
f 162/573/154 163/575/154 166/576/154
f 163/577/155 164/578/155 168/579/155
f 163/577/155 168/579/155 167/580/155
f 164/581/156 165/582/156 169/583/156
f 164/581/156 169/583/156 168/584/156
f 165/585/157 166/586/157 170/587/157
f 165/585/157 170/587/157 169/588/157
f 166/589/158 163/590/158 167/591/158
f 166/589/158 167/591/158 170/592/158
f 158/593/159 157/594/159 156/595/159
f 158/593/159 156/595/159 155/596/159
f 167/597/160 168/598/160 169/599/160
f 167/597/160 169/599/160 170/600/160

v -0.0500000 -0.1562500 -0.2687500
v 0.0000000 -0.2000000 -0.2687500
v 0.0500000 -0.1562500 -0.2687500
v 0.0000000 -0.1375000 -0.2687500
v -0.0500000 -0.1562500 -0.2562500
v 0.0000000 -0.2000000 -0.2562500
v 0.0500000 -0.1562500 -0.2562500
v 0.0000000 -0.1375000 -0.2562500
vt 0.4062500 0.6250000
vt 0.4375000 0.6250000
vt 0.4062500 0.5937500
vt 0.4062500 0.6250000
vt 0.4375000 0.6250000
vt 0.4062500 0.5937500
vt 0.4062500 0.6250000
vt 0.4375000 0.6250000
vt 0.4062500 0.5937500
vt 0.4062500 0.6250000
vt 0.4375000 0.6250000
vt 0.4062500 0.5937500
vt 0.2812500 0.6250000
vt 0.3125000 0.6250000
vt 0.2812500 0.5937500
vt 0.3125000 0.5937500
vt 0.2812500 0.6250000
vt 0.3125000 0.6250000
vt 0.2812500 0.5937500
vt 0.3125000 0.5937500
vt 0.2812500 0.6250000
vt 0.3125000 0.6250000
vt 0.2812500 0.5937500
vt 0.3125000 0.5937500
vt 0.2812500 0.6250000
vt 0.3125000 0.6250000
vt 0.2812500 0.5937500
vt 0.3125000 0.5937500
vn 0.0000000 0.0000000 -1.0000000
vn 0.0000000 0.0000000 1.0000000
vn 0.0000000 0.0000000 -1.0000000
vn 0.0000000 0.0000000 1.0000000
vn -0.6585046 -0.7525767 0.0000000
vn 0.6585046 -0.7525767 0.0000000
vn 0.3511234 0.9363292 0.0000000
vn -0.3511234 0.9363292 0.0000000
f 171/601/161 173/602/161 172/603/161
f 175/604/162 176/605/162 177/606/162
f 171/607/163 174/608/163 173/609/163
f 175/610/164 177/611/164 178/612/164
f 171/613/165 172/614/165 176/615/165
f 171/613/165 176/615/165 175/616/165
f 172/617/166 173/618/166 177/619/166
f 172/617/166 177/619/166 176/620/166
f 173/621/167 174/622/167 178/623/167
f 173/621/167 178/623/167 177/624/167
f 174/625/168 171/626/168 175/627/168
f 174/625/168 175/627/168 178/628/168

v 0.0000000 0.3625000 -0.1468750
v -0.0406250 0.2812500 -0.1468750
v 0.0000000 0.2125000 -0.1468750
v 0.0406250 0.2812500 -0.1468750
v 0.0000000 0.3625000 -0.1406250
v -0.0406250 0.2812500 -0.1406250
v 0.0000000 0.2125000 -0.1406250
v 0.0406250 0.2812500 -0.1406250
vt 0.5312500 0.6250000
vt 0.5625000 0.6250000
vt 0.5312500 0.5937500
vt 0.5312500 0.6250000
vt 0.5625000 0.6250000
vt 0.5312500 0.5937500
vt 0.5312500 0.6250000
vt 0.5625000 0.6250000
vt 0.5312500 0.5937500
vt 0.5312500 0.6250000
vt 0.5625000 0.6250000
vt 0.5312500 0.5937500
vt 0.2812500 0.6250000
vt 0.3125000 0.6250000
vt 0.2812500 0.5937500
vt 0.3125000 0.5937500
vt 0.2812500 0.6250000
vt 0.3125000 0.6250000
vt 0.2812500 0.5937500
vt 0.3125000 0.5937500
vt 0.2812500 0.6250000
vt 0.3125000 0.6250000
vt 0.2812500 0.5937500
vt 0.3125000 0.5937500
vt 0.2812500 0.6250000
vt 0.3125000 0.6250000
vt 0.2812500 0.5937500
vt 0.3125000 0.5937500
vn 0.0000000 0.0000000 -1.0000000
vn 0.0000000 0.0000000 1.0000000
vn 0.0000000 0.0000000 -1.0000000
vn 0.0000000 0.0000000 1.0000000
vn -0.8944272 0.4472136 0.0000000
vn -0.8609265 -0.5087293 0.0000000
vn 0.8609265 -0.5087293 0.0000000
vn 0.8944272 0.4472136 0.0000000
f 179/629/169 181/630/169 180/631/169
f 183/632/170 184/633/170 185/634/170
f 179/635/171 182/636/171 181/637/171
f 183/638/172 185/639/172 186/640/172
f 179/641/173 180/642/173 184/643/173
f 179/641/173 184/643/173 183/644/173
f 180/645/174 181/646/174 185/647/174
f 180/645/174 185/647/174 184/648/174
f 181/649/175 182/650/175 186/651/175
f 181/649/175 186/651/175 185/652/175
f 182/653/176 179/654/176 183/655/176
f 182/653/176 183/655/176 186/656/176