# Blockbench divine support VFX; block units
v -1.000000 -0.018000 0.012500
v 1.000000 -0.018000 0.012500
v 1.000000 0.018000 0.012500
v -1.000000 0.018000 0.012500
v -1.000000 -0.018000 -0.012500
v 1.000000 -0.018000 -0.012500
v 1.000000 0.018000 -0.012500
v -1.000000 0.018000 -0.012500
vt 0.062500 0.726563
vt 0.089844 0.648438
vt 0.117188 0.570313
vt 0.062500 0.726563
vt 0.089844 0.648438
vt 0.117188 0.570313
vt 0.062500 0.726563
vt 0.089844 0.648438
vt 0.117188 0.570313
vt 0.062500 0.726563
vt 0.089844 0.648438
vt 0.117188 0.570313
vt 0.062500 0.726563
vt 0.089844 0.648438
vt 0.117188 0.570313
vt 0.062500 0.726563
vt 0.089844 0.648438
vt 0.117188 0.570313
vt 0.062500 0.726563
vt 0.089844 0.648438
vt 0.117188 0.570313
vt 0.062500 0.726563
vt 0.089844 0.648438
vt 0.117188 0.570313
vt 0.062500 0.726563
vt 0.089844 0.648438
vt 0.117188 0.570313
vt 0.062500 0.726563
vt 0.089844 0.648438
vt 0.117188 0.570313
vt 0.062500 0.726563
vt 0.089844 0.648438
vt 0.117188 0.570313
vt 0.062500 0.726563
vt 0.089844 0.648438
vt 0.117188 0.570313
v -1.000000 -0.035000 0.015000
v 1.000000 -0.035000 0.015000
v 1.000000 -0.020000 0.015000
v -1.000000 -0.020000 0.015000
v -1.000000 -0.035000 -0.015000
v 1.000000 -0.035000 -0.015000
v 1.000000 -0.020000 -0.015000
v -1.000000 -0.020000 -0.015000
vt 0.312500 0.726563
vt 0.339844 0.648438
vt 0.367188 0.570313
vt 0.312500 0.726563
vt 0.339844 0.648438
vt 0.367188 0.570313
vt 0.312500 0.726563
vt 0.339844 0.648438
vt 0.367188 0.570313
vt 0.312500 0.726563
vt 0.339844 0.648438
vt 0.367188 0.570313
vt 0.312500 0.726563
vt 0.339844 0.648438
vt 0.367188 0.570313
vt 0.312500 0.726563
vt 0.339844 0.648438
vt 0.367188 0.570313
vt 0.312500 0.726563
vt 0.339844 0.648438
vt 0.367188 0.570313
vt 0.312500 0.726563
vt 0.339844 0.648438
vt 0.367188 0.570313
vt 0.312500 0.726563
vt 0.339844 0.648438
vt 0.367188 0.570313
vt 0.312500 0.726563
vt 0.339844 0.648438
vt 0.367188 0.570313
vt 0.312500 0.726563
vt 0.339844 0.648438
vt 0.367188 0.570313
vt 0.312500 0.726563
vt 0.339844 0.648438
vt 0.367188 0.570313
v -0.006000 -1.000000 0.015000
v -0.006000 1.000000 0.015000
v 0.006000 1.000000 0.015000
v 0.006000 -1.000000 0.015000
v -0.006000 -1.000000 -0.015000
v -0.006000 1.000000 -0.015000
v 0.006000 1.000000 -0.015000
v 0.006000 -1.000000 -0.015000
vt 0.562500 0.726563
vt 0.589844 0.648438
vt 0.617188 0.570313
vt 0.562500 0.726563
vt 0.589844 0.648438
vt 0.617188 0.570313
vt 0.562500 0.726563
vt 0.589844 0.648438
vt 0.617188 0.570313
vt 0.562500 0.726563
vt 0.589844 0.648438
vt 0.617188 0.570313
vt 0.562500 0.726563
vt 0.589844 0.648438
vt 0.617188 0.570313
vt 0.562500 0.726563
vt 0.589844 0.648438
vt 0.617188 0.570313
vt 0.562500 0.726563
vt 0.589844 0.648438
vt 0.617188 0.570313
vt 0.562500 0.726563
vt 0.589844 0.648438
vt 0.617188 0.570313
vt 0.562500 0.726563
vt 0.589844 0.648438
vt 0.617188 0.570313
vt 0.562500 0.726563
vt 0.589844 0.648438
vt 0.617188 0.570313
vt 0.562500 0.726563
vt 0.589844 0.648438
vt 0.617188 0.570313
vt 0.562500 0.726563
vt 0.589844 0.648438
vt 0.617188 0.570313
v -0.803000 -0.750000 0.015000
v -0.803000 0.750000 0.015000
v -0.797000 0.750000 0.015000
v -0.797000 -0.750000 0.015000
v -0.803000 -0.750000 -0.015000
v -0.803000 0.750000 -0.015000
v -0.797000 0.750000 -0.015000
v -0.797000 -0.750000 -0.015000
vt 0.562500 0.726563
vt 0.589844 0.648438
vt 0.617188 0.570313
vt 0.562500 0.726563
vt 0.589844 0.648438
vt 0.617188 0.570313
vt 0.562500 0.726563
vt 0.589844 0.648438
vt 0.617188 0.570313
vt 0.562500 0.726563
vt 0.589844 0.648438
vt 0.617188 0.570313
vt 0.562500 0.726563
vt 0.589844 0.648438
vt 0.617188 0.570313
vt 0.562500 0.726563
vt 0.589844 0.648438
vt 0.617188 0.570313
vt 0.562500 0.726563
vt 0.589844 0.648438
vt 0.617188 0.570313
vt 0.562500 0.726563
vt 0.589844 0.648438
vt 0.617188 0.570313
vt 0.562500 0.726563
vt 0.589844 0.648438
vt 0.617188 0.570313
vt 0.562500 0.726563
vt 0.589844 0.648438
vt 0.617188 0.570313
vt 0.562500 0.726563
vt 0.589844 0.648438
vt 0.617188 0.570313
vt 0.562500 0.726563
vt 0.589844 0.648438
vt 0.617188 0.570313
v -0.603000 -0.750000 0.015000
v -0.603000 0.750000 0.015000
v -0.597000 0.750000 0.015000
v -0.597000 -0.750000 0.015000
v -0.603000 -0.750000 -0.015000
v -0.603000 0.750000 -0.015000
v -0.597000 0.750000 -0.015000
v -0.597000 -0.750000 -0.015000
vt 0.562500 0.726563
vt 0.589844 0.648438
vt 0.617188 0.570313
vt 0.562500 0.726563
vt 0.589844 0.648438
vt 0.617188 0.570313
vt 0.562500 0.726563
vt 0.589844 0.648438
vt 0.617188 0.570313
vt 0.562500 0.726563
vt 0.589844 0.648438
vt 0.617188 0.570313
vt 0.562500 0.726563
vt 0.589844 0.648438
vt 0.617188 0.570313
vt 0.562500 0.726563
vt 0.589844 0.648438
vt 0.617188 0.570313
vt 0.562500 0.726563
vt 0.589844 0.648438
vt 0.617188 0.570313
vt 0.562500 0.726563
vt 0.589844 0.648438
vt 0.617188 0.570313
vt 0.562500 0.726563
vt 0.589844 0.648438
vt 0.617188 0.570313
vt 0.562500 0.726563
vt 0.589844 0.648438
vt 0.617188 0.570313
vt 0.562500 0.726563
vt 0.589844 0.648438
vt 0.617188 0.570313
vt 0.562500 0.726563
vt 0.589844 0.648438
vt 0.617188 0.570313
v -0.403000 -0.750000 0.015000
v -0.403000 0.750000 0.015000
v -0.397000 0.750000 0.015000
v -0.397000 -0.750000 0.015000
v -0.403000 -0.750000 -0.015000
v -0.403000 0.750000 -0.015000
v -0.397000 0.750000 -0.015000
v -0.397000 -0.750000 -0.015000
vt 0.562500 0.726563
vt 0.589844 0.648438
vt 0.617188 0.570313
vt 0.562500 0.726563
vt 0.589844 0.648438
vt 0.617188 0.570313
vt 0.562500 0.726563
vt 0.589844 0.648438
vt 0.617188 0.570313
vt 0.562500 0.726563
vt 0.589844 0.648438
vt 0.617188 0.570313
vt 0.562500 0.726563
vt 0.589844 0.648438
vt 0.617188 0.570313
vt 0.562500 0.726563
vt 0.589844 0.648438
vt 0.617188 0.570313
vt 0.562500 0.726563
vt 0.589844 0.648438
vt 0.617188 0.570313
vt 0.562500 0.726563
vt 0.589844 0.648438
vt 0.617188 0.570313
vt 0.562500 0.726563
vt 0.589844 0.648438
vt 0.617188 0.570313
vt 0.562500 0.726563
vt 0.589844 0.648438
vt 0.617188 0.570313
vt 0.562500 0.726563
vt 0.589844 0.648438
vt 0.617188 0.570313
vt 0.562500 0.726563
vt 0.589844 0.648438
vt 0.617188 0.570313
v -0.203000 -0.750000 0.015000
v -0.203000 0.750000 0.015000
v -0.197000 0.750000 0.015000
v -0.197000 -0.750000 0.015000
v -0.203000 -0.750000 -0.015000
v -0.203000 0.750000 -0.015000
v -0.197000 0.750000 -0.015000
v -0.197000 -0.750000 -0.015000
vt 0.562500 0.726563
vt 0.589844 0.648438
vt 0.617188 0.570313
vt 0.562500 0.726563
vt 0.589844 0.648438
vt 0.617188 0.570313
vt 0.562500 0.726563
vt 0.589844 0.648438
vt 0.617188 0.570313
vt 0.562500 0.726563
vt 0.589844 0.648438
vt 0.617188 0.570313
vt 0.562500 0.726563
vt 0.589844 0.648438
vt 0.617188 0.570313
vt 0.562500 0.726563
vt 0.589844 0.648438
vt 0.617188 0.570313
vt 0.562500 0.726563
vt 0.589844 0.648438
vt 0.617188 0.570313
vt 0.562500 0.726563
vt 0.589844 0.648438
vt 0.617188 0.570313
vt 0.562500 0.726563
vt 0.589844 0.648438
vt 0.617188 0.570313
vt 0.562500 0.726563
vt 0.589844 0.648438
vt 0.617188 0.570313
vt 0.562500 0.726563
vt 0.589844 0.648438
vt 0.617188 0.570313
vt 0.562500 0.726563
vt 0.589844 0.648438
vt 0.617188 0.570313
v -0.003000 -0.750000 0.015000
v -0.003000 0.750000 0.015000
v 0.003000 0.750000 0.015000
v 0.003000 -0.750000 0.015000
v -0.003000 -0.750000 -0.015000
v -0.003000 0.750000 -0.015000
v 0.003000 0.750000 -0.015000
v 0.003000 -0.750000 -0.015000
vt 0.562500 0.726563
vt 0.589844 0.648438
vt 0.617188 0.570313
vt 0.562500 0.726563
vt 0.589844 0.648438
vt 0.617188 0.570313
vt 0.562500 0.726563
vt 0.589844 0.648438
vt 0.617188 0.570313
vt 0.562500 0.726563
vt 0.589844 0.648438
vt 0.617188 0.570313
vt 0.562500 0.726563
vt 0.589844 0.648438
vt 0.617188 0.570313
vt 0.562500 0.726563
vt 0.589844 0.648438
vt 0.617188 0.570313
vt 0.562500 0.726563
vt 0.589844 0.648438
vt 0.617188 0.570313
vt 0.562500 0.726563
vt 0.589844 0.648438
vt 0.617188 0.570313
vt 0.562500 0.726563
vt 0.589844 0.648438
vt 0.617188 0.570313
vt 0.562500 0.726563
vt 0.589844 0.648438
vt 0.617188 0.570313
vt 0.562500 0.726563
vt 0.589844 0.648438
vt 0.617188 0.570313
vt 0.562500 0.726563
vt 0.589844 0.648438
vt 0.617188 0.570313
v 0.197000 -0.750000 0.015000
v 0.197000 0.750000 0.015000
v 0.203000 0.750000 0.015000
v 0.203000 -0.750000 0.015000
v 0.197000 -0.750000 -0.015000
v 0.197000 0.750000 -0.015000
v 0.203000 0.750000 -0.015000
v 0.203000 -0.750000 -0.015000
vt 0.562500 0.726563
vt 0.589844 0.648438
vt 0.617188 0.570313
vt 0.562500 0.726563
vt 0.589844 0.648438
vt 0.617188 0.570313
vt 0.562500 0.726563
vt 0.589844 0.648438
vt 0.617188 0.570313
vt 0.562500 0.726563
vt 0.589844 0.648438
vt 0.617188 0.570313
vt 0.562500 0.726563
vt 0.589844 0.648438
vt 0.617188 0.570313
vt 0.562500 0.726563
vt 0.589844 0.648438
vt 0.617188 0.570313
vt 0.562500 0.726563
vt 0.589844 0.648438
vt 0.617188 0.570313
vt 0.562500 0.726563
vt 0.589844 0.648438
vt 0.617188 0.570313
vt 0.562500 0.726563
vt 0.589844 0.648438
vt 0.617188 0.570313
vt 0.562500 0.726563
vt 0.589844 0.648438
vt 0.617188 0.570313
vt 0.562500 0.726563
vt 0.589844 0.648438
vt 0.617188 0.570313
vt 0.562500 0.726563
vt 0.589844 0.648438
vt 0.617188 0.570313
v 0.397000 -0.750000 0.015000
v 0.397000 0.750000 0.015000
v 0.403000 0.750000 0.015000
v 0.403000 -0.750000 0.015000
v 0.397000 -0.750000 -0.015000
v 0.397000 0.750000 -0.015000
v 0.403000 0.750000 -0.015000
v 0.403000 -0.750000 -0.015000
vt 0.562500 0.726563
vt 0.589844 0.648438
vt 0.617188 0.570313
vt 0.562500 0.726563
vt 0.589844 0.648438
vt 0.617188 0.570313
vt 0.562500 0.726563
vt 0.589844 0.648438
vt 0.617188 0.570313
vt 0.562500 0.726563
vt 0.589844 0.648438
vt 0.617188 0.570313
vt 0.562500 0.726563
vt 0.589844 0.648438
vt 0.617188 0.570313
vt 0.562500 0.726563
vt 0.589844 0.648438
vt 0.617188 0.570313
vt 0.562500 0.726563
vt 0.589844 0.648438
vt 0.617188 0.570313
vt 0.562500 0.726563
vt 0.589844 0.648438
vt 0.617188 0.570313
vt 0.562500 0.726563
vt 0.589844 0.648438
vt 0.617188 0.570313
vt 0.562500 0.726563
vt 0.589844 0.648438
vt 0.617188 0.570313
vt 0.562500 0.726563
vt 0.589844 0.648438
vt 0.617188 0.570313
vt 0.562500 0.726563
vt 0.589844 0.648438
vt 0.617188 0.570313
v 0.597000 -0.750000 0.015000
v 0.597000 0.750000 0.015000
v 0.603000 0.750000 0.015000
v 0.603000 -0.750000 0.015000
v 0.597000 -0.750000 -0.015000
v 0.597000 0.750000 -0.015000
v 0.603000 0.750000 -0.015000
v 0.603000 -0.750000 -0.015000
vt 0.562500 0.726563
vt 0.589844 0.648438
vt 0.617188 0.570313
vt 0.562500 0.726563
vt 0.589844 0.648438
vt 0.617188 0.570313
vt 0.562500 0.726563
vt 0.589844 0.648438
vt 0.617188 0.570313
vt 0.562500 0.726563
vt 0.589844 0.648438
vt 0.617188 0.570313
vt 0.562500 0.726563
vt 0.589844 0.648438
vt 0.617188 0.570313
vt 0.562500 0.726563
vt 0.589844 0.648438
vt 0.617188 0.570313
vt 0.562500 0.726563
vt 0.589844 0.648438
vt 0.617188 0.570313
vt 0.562500 0.726563
vt 0.589844 0.648438
vt 0.617188 0.570313
vt 0.562500 0.726563
vt 0.589844 0.648438
vt 0.617188 0.570313
vt 0.562500 0.726563
vt 0.589844 0.648438
vt 0.617188 0.570313
vt 0.562500 0.726563
vt 0.589844 0.648438
vt 0.617188 0.570313
vt 0.562500 0.726563
vt 0.589844 0.648438
vt 0.617188 0.570313
v 0.797000 -0.750000 0.015000
v 0.797000 0.750000 0.015000
v 0.803000 0.750000 0.015000
v 0.803000 -0.750000 0.015000
v 0.797000 -0.750000 -0.015000
v 0.797000 0.750000 -0.015000
v 0.803000 0.750000 -0.015000
v 0.803000 -0.750000 -0.015000
vt 0.562500 0.726563
vt 0.589844 0.648438
vt 0.617188 0.570313
vt 0.562500 0.726563
vt 0.589844 0.648438
vt 0.617188 0.570313
vt 0.562500 0.726563
vt 0.589844 0.648438
vt 0.617188 0.570313
vt 0.562500 0.726563
vt 0.589844 0.648438
vt 0.617188 0.570313
vt 0.562500 0.726563
vt 0.589844 0.648438
vt 0.617188 0.570313
vt 0.562500 0.726563
vt 0.589844 0.648438
vt 0.617188 0.570313
vt 0.562500 0.726563
vt 0.589844 0.648438
vt 0.617188 0.570313
vt 0.562500 0.726563
vt 0.589844 0.648438
vt 0.617188 0.570313
vt 0.562500 0.726563
vt 0.589844 0.648438
vt 0.617188 0.570313
vt 0.562500 0.726563
vt 0.589844 0.648438
vt 0.617188 0.570313
vt 0.562500 0.726563
vt 0.589844 0.648438
vt 0.617188 0.570313
vt 0.562500 0.726563
vt 0.589844 0.648438
vt 0.617188 0.570313
g body
f 3/1 4/2 1/3
f 5/4 8/5 7/6
f 1/7 2/8 3/9
f 7/10 6/11 5/12
f 1/13 5/14 6/15
f 1/16 6/17 2/18
f 2/19 6/20 7/21
f 2/22 7/23 3/24
f 3/25 7/26 8/27
f 3/28 8/29 4/30
f 4/31 8/32 5/33
f 4/34 5/35 1/36
g red
f 11/37 12/38 9/39
f 13/40 16/41 15/42
f 9/43 10/44 11/45
f 15/46 14/47 13/48
f 9/49 13/50 14/51
f 9/52 14/53 10/54
f 10/55 14/56 15/57
f 10/58 15/59 11/60
f 11/61 15/62 16/63
f 11/64 16/65 12/66
f 12/67 16/68 13/69
f 12/70 13/71 9/72
g gold
f 18/73 17/74 20/75
f 24/76 21/77 22/78
f 20/79 19/80 18/81
f 22/82 23/83 24/84
f 17/85 21/86 22/87
f 17/88 22/89 18/90
f 18/91 22/92 23/93
f 18/94 23/95 19/96
f 19/97 23/98 24/99
f 19/100 24/101 20/102
f 20/103 24/104 21/105
f 20/106 21/107 17/108
f 26/109 25/110 28/111
f 32/112 29/113 30/114
f 28/115 27/116 26/117
f 30/118 31/119 32/120
f 25/121 29/122 30/123
f 25/124 30/125 26/126
f 26/127 30/128 31/129
f 26/130 31/131 27/132
f 27/133 31/134 32/135
f 27/136 32/137 28/138
f 28/139 32/140 29/141
f 28/142 29/143 25/144
f 34/145 33/146 36/147
f 40/148 37/149 38/150
f 36/151 35/152 34/153
f 38/154 39/155 40/156
f 33/157 37/158 38/159
f 33/160 38/161 34/162
f 34/163 38/164 39/165
f 34/166 39/167 35/168
f 35/169 39/170 40/171
f 35/172 40/173 36/174
f 36/175 40/176 37/177
f 36/178 37/179 33/180
f 42/181 41/182 44/183
f 48/184 45/185 46/186
f 44/187 43/188 42/189
f 46/190 47/191 48/192
f 41/193 45/194 46/195
f 41/196 46/197 42/198
f 42/199 46/200 47/201
f 42/202 47/203 43/204
f 43/205 47/206 48/207
f 43/208 48/209 44/210
f 44/211 48/212 45/213
f 44/214 45/215 41/216
f 50/217 49/218 52/219
f 56/220 53/221 54/222
f 52/223 51/224 50/225
f 54/226 55/227 56/228
f 49/229 53/230 54/231
f 49/232 54/233 50/234
f 50/235 54/236 55/237
f 50/238 55/239 51/240
f 51/241 55/242 56/243
f 51/244 56/245 52/246
f 52/247 56/248 53/249
f 52/250 53/251 49/252
f 58/253 57/254 60/255
f 64/256 61/257 62/258
f 60/259 59/260 58/261
f 62/262 63/263 64/264
f 57/265 61/266 62/267
f 57/268 62/269 58/270
f 58/271 62/272 63/273
f 58/274 63/275 59/276
f 59/277 63/278 64/279
f 59/280 64/281 60/282
f 60/283 64/284 61/285
f 60/286 61/287 57/288
f 66/289 65/290 68/291
f 72/292 69/293 70/294
f 68/295 67/296 66/297
f 70/298 71/299 72/300
f 65/301 69/302 70/303
f 65/304 70/305 66/306
f 66/307 70/308 71/309
f 66/310 71/311 67/312
f 67/313 71/314 72/315
f 67/316 72/317 68/318
f 68/319 72/320 69/321
f 68/322 69/323 65/324
f 74/325 73/326 76/327
f 80/328 77/329 78/330
f 76/331 75/332 74/333
f 78/334 79/335 80/336
f 73/337 77/338 78/339
f 73/340 78/341 74/342
f 74/343 78/344 79/345
f 74/346 79/347 75/348
f 75/349 79/350 80/351
f 75/352 80/353 76/354
f 76/355 80/356 77/357
f 76/358 77/359 73/360
f 82/361 81/362 84/363
f 88/364 85/365 86/366
f 84/367 83/368 82/369
f 86/370 87/371 88/372
f 81/373 85/374 86/375
f 81/376 86/377 82/378
f 82/379 86/380 87/381
f 82/382 87/383 83/384
f 83/385 87/386 88/387
f 83/388 88/389 84/390
f 84/391 88/392 85/393
f 84/394 85/395 81/396
f 90/397 89/398 92/399
f 96/400 93/401 94/402
f 92/403 91/404 90/405
f 94/406 95/407 96/408
f 89/409 93/410 94/411
f 89/412 94/413 90/414
f 90/415 94/416 95/417
f 90/418 95/419 91/420
f 91/421 95/422 96/423
f 91/424 96/425 92/426
f 92/427 96/428 93/429
f 92/430 93/431 89/432
