# Blockbench divine support VFX; block units
v 0.978148 0.207912 0.017500
v 0.913545 0.406737 0.017500
v 0.881571 0.392501 0.017500
v 0.943912 0.200635 0.017500
v 0.978148 0.207912 -0.017500
v 0.913545 0.406737 -0.017500
v 0.881571 0.392501 -0.017500
v 0.943912 0.200635 -0.017500
vt 0.062500 0.726563
vt 0.089844 0.648438
vt 0.117188 0.570313
vt 0.062500 0.726563
vt 0.089844 0.648438
vt 0.117188 0.570313
vt 0.062500 0.726563
vt 0.089844 0.648438
vt 0.117188 0.570313
vt 0.062500 0.726563
vt 0.089844 0.648438
vt 0.117188 0.570313
vt 0.062500 0.726563
vt 0.089844 0.648438
vt 0.117188 0.570313
vt 0.062500 0.726563
vt 0.089844 0.648438
vt 0.117188 0.570313
vt 0.062500 0.726563
vt 0.089844 0.648438
vt 0.117188 0.570313
vt 0.062500 0.726563
vt 0.089844 0.648438
vt 0.117188 0.570313
vt 0.062500 0.726563
vt 0.089844 0.648438
vt 0.117188 0.570313
vt 0.062500 0.726563
vt 0.089844 0.648438
vt 0.117188 0.570313
vt 0.062500 0.726563
vt 0.089844 0.648438
vt 0.117188 0.570313
vt 0.062500 0.726563
vt 0.089844 0.648438
vt 0.117188 0.570313
v 0.913545 0.406737 0.017500
v 0.809017 0.587785 0.017500
v 0.780701 0.567213 0.017500
v 0.881571 0.392501 0.017500
v 0.913545 0.406737 -0.017500
v 0.809017 0.587785 -0.017500
v 0.780701 0.567213 -0.017500
v 0.881571 0.392501 -0.017500
vt 0.062500 0.726563
vt 0.089844 0.648438
vt 0.117188 0.570313
vt 0.062500 0.726563
vt 0.089844 0.648438
vt 0.117188 0.570313
vt 0.062500 0.726563
vt 0.089844 0.648438
vt 0.117188 0.570313
vt 0.062500 0.726563
vt 0.089844 0.648438
vt 0.117188 0.570313
vt 0.062500 0.726563
vt 0.089844 0.648438
vt 0.117188 0.570313
vt 0.062500 0.726563
vt 0.089844 0.648438
vt 0.117188 0.570313
vt 0.062500 0.726563
vt 0.089844 0.648438
vt 0.117188 0.570313
vt 0.062500 0.726563
vt 0.089844 0.648438
vt 0.117188 0.570313
vt 0.062500 0.726563
vt 0.089844 0.648438
vt 0.117188 0.570313
vt 0.062500 0.726563
vt 0.089844 0.648438
vt 0.117188 0.570313
vt 0.062500 0.726563
vt 0.089844 0.648438
vt 0.117188 0.570313
vt 0.062500 0.726563
vt 0.089844 0.648438
vt 0.117188 0.570313
v 0.809017 0.587785 0.017500
v 0.669131 0.743145 0.017500
v 0.645711 0.717135 0.017500
v 0.780701 0.567213 0.017500
v 0.809017 0.587785 -0.017500
v 0.669131 0.743145 -0.017500
v 0.645711 0.717135 -0.017500
v 0.780701 0.567213 -0.017500
vt 0.062500 0.726563
vt 0.089844 0.648438
vt 0.117188 0.570313
vt 0.062500 0.726563
vt 0.089844 0.648438
vt 0.117188 0.570313
vt 0.062500 0.726563
vt 0.089844 0.648438
vt 0.117188 0.570313
vt 0.062500 0.726563
vt 0.089844 0.648438
vt 0.117188 0.570313
vt 0.062500 0.726563
vt 0.089844 0.648438
vt 0.117188 0.570313
vt 0.062500 0.726563
vt 0.089844 0.648438
vt 0.117188 0.570313
vt 0.062500 0.726563
vt 0.089844 0.648438
vt 0.117188 0.570313
vt 0.062500 0.726563
vt 0.089844 0.648438
vt 0.117188 0.570313
vt 0.062500 0.726563
vt 0.089844 0.648438
vt 0.117188 0.570313
vt 0.062500 0.726563
vt 0.089844 0.648438
vt 0.117188 0.570313
vt 0.062500 0.726563
vt 0.089844 0.648438
vt 0.117188 0.570313
vt 0.062500 0.726563
vt 0.089844 0.648438
vt 0.117188 0.570313
v 0.669131 0.743145 0.017500
v 0.500000 0.866025 0.017500
v 0.482500 0.835715 0.017500
v 0.645711 0.717135 0.017500
v 0.669131 0.743145 -0.017500
v 0.500000 0.866025 -0.017500
v 0.482500 0.835715 -0.017500
v 0.645711 0.717135 -0.017500
vt 0.062500 0.726563
vt 0.089844 0.648438
vt 0.117188 0.570313
vt 0.062500 0.726563
vt 0.089844 0.648438
vt 0.117188 0.570313
vt 0.062500 0.726563
vt 0.089844 0.648438
vt 0.117188 0.570313
vt 0.062500 0.726563
vt 0.089844 0.648438
vt 0.117188 0.570313
vt 0.062500 0.726563
vt 0.089844 0.648438
vt 0.117188 0.570313
vt 0.062500 0.726563
vt 0.089844 0.648438
vt 0.117188 0.570313
vt 0.062500 0.726563
vt 0.089844 0.648438
vt 0.117188 0.570313
vt 0.062500 0.726563
vt 0.089844 0.648438
vt 0.117188 0.570313
vt 0.062500 0.726563
vt 0.089844 0.648438
vt 0.117188 0.570313
vt 0.062500 0.726563
vt 0.089844 0.648438
vt 0.117188 0.570313
vt 0.062500 0.726563
vt 0.089844 0.648438
vt 0.117188 0.570313
vt 0.062500 0.726563
vt 0.089844 0.648438
vt 0.117188 0.570313
v 0.500000 0.866025 0.017500
v 0.309017 0.951057 0.017500
v 0.298201 0.917770 0.017500
v 0.482500 0.835715 0.017500
v 0.500000 0.866025 -0.017500
v 0.309017 0.951057 -0.017500
v 0.298201 0.917770 -0.017500
v 0.482500 0.835715 -0.017500
vt 0.062500 0.726563
vt 0.089844 0.648438
vt 0.117188 0.570313
vt 0.062500 0.726563
vt 0.089844 0.648438
vt 0.117188 0.570313
vt 0.062500 0.726563
vt 0.089844 0.648438
vt 0.117188 0.570313
vt 0.062500 0.726563
vt 0.089844 0.648438
vt 0.117188 0.570313
vt 0.062500 0.726563
vt 0.089844 0.648438
vt 0.117188 0.570313
vt 0.062500 0.726563
vt 0.089844 0.648438
vt 0.117188 0.570313
vt 0.062500 0.726563
vt 0.089844 0.648438
vt 0.117188 0.570313
vt 0.062500 0.726563
vt 0.089844 0.648438
vt 0.117188 0.570313
vt 0.062500 0.726563
vt 0.089844 0.648438
vt 0.117188 0.570313
vt 0.062500 0.726563
vt 0.089844 0.648438
vt 0.117188 0.570313
vt 0.062500 0.726563
vt 0.089844 0.648438
vt 0.117188 0.570313
vt 0.062500 0.726563
vt 0.089844 0.648438
vt 0.117188 0.570313
v 0.309017 0.951057 0.017500
v 0.104528 0.994522 0.017500
v 0.100870 0.959714 0.017500
v 0.298201 0.917770 0.017500
v 0.309017 0.951057 -0.017500
v 0.104528 0.994522 -0.017500
v 0.100870 0.959714 -0.017500
v 0.298201 0.917770 -0.017500
vt 0.062500 0.726563
vt 0.089844 0.648438
vt 0.117188 0.570313
vt 0.062500 0.726563
vt 0.089844 0.648438
vt 0.117188 0.570313
vt 0.062500 0.726563
vt 0.089844 0.648438
vt 0.117188 0.570313
vt 0.062500 0.726563
vt 0.089844 0.648438
vt 0.117188 0.570313
vt 0.062500 0.726563
vt 0.089844 0.648438
vt 0.117188 0.570313
vt 0.062500 0.726563
vt 0.089844 0.648438
vt 0.117188 0.570313
vt 0.062500 0.726563
vt 0.089844 0.648438
vt 0.117188 0.570313
vt 0.062500 0.726563
vt 0.089844 0.648438
vt 0.117188 0.570313
vt 0.062500 0.726563
vt 0.089844 0.648438
vt 0.117188 0.570313
vt 0.062500 0.726563
vt 0.089844 0.648438
vt 0.117188 0.570313
vt 0.062500 0.726563
vt 0.089844 0.648438
vt 0.117188 0.570313
vt 0.062500 0.726563
vt 0.089844 0.648438
vt 0.117188 0.570313
v 0.104528 0.994522 0.017500
v -0.104528 0.994522 0.017500
v -0.100870 0.959714 0.017500
v 0.100870 0.959714 0.017500
v 0.104528 0.994522 -0.017500
v -0.104528 0.994522 -0.017500
v -0.100870 0.959714 -0.017500
v 0.100870 0.959714 -0.017500
vt 0.062500 0.726563
vt 0.089844 0.648438
vt 0.117188 0.570313
vt 0.062500 0.726563
vt 0.089844 0.648438
vt 0.117188 0.570313
vt 0.062500 0.726563
vt 0.089844 0.648438
vt 0.117188 0.570313
vt 0.062500 0.726563
vt 0.089844 0.648438
vt 0.117188 0.570313
vt 0.062500 0.726563
vt 0.089844 0.648438
vt 0.117188 0.570313
vt 0.062500 0.726563
vt 0.089844 0.648438
vt 0.117188 0.570313
vt 0.062500 0.726563
vt 0.089844 0.648438
vt 0.117188 0.570313
vt 0.062500 0.726563
vt 0.089844 0.648438
vt 0.117188 0.570313
vt 0.062500 0.726563
vt 0.089844 0.648438
vt 0.117188 0.570313
vt 0.062500 0.726563
vt 0.089844 0.648438
vt 0.117188 0.570313
vt 0.062500 0.726563
vt 0.089844 0.648438
vt 0.117188 0.570313
vt 0.062500 0.726563
vt 0.089844 0.648438
vt 0.117188 0.570313
v -0.104528 0.994522 0.017500
v -0.309017 0.951057 0.017500
v -0.298201 0.917770 0.017500
v -0.100870 0.959714 0.017500
v -0.104528 0.994522 -0.017500
v -0.309017 0.951057 -0.017500
v -0.298201 0.917770 -0.017500
v -0.100870 0.959714 -0.017500
vt 0.062500 0.726563
vt 0.089844 0.648438
vt 0.117188 0.570313
vt 0.062500 0.726563
vt 0.089844 0.648438
vt 0.117188 0.570313
vt 0.062500 0.726563
vt 0.089844 0.648438
vt 0.117188 0.570313
vt 0.062500 0.726563
vt 0.089844 0.648438
vt 0.117188 0.570313
vt 0.062500 0.726563
vt 0.089844 0.648438
vt 0.117188 0.570313
vt 0.062500 0.726563
vt 0.089844 0.648438
vt 0.117188 0.570313
vt 0.062500 0.726563
vt 0.089844 0.648438
vt 0.117188 0.570313
vt 0.062500 0.726563
vt 0.089844 0.648438
vt 0.117188 0.570313
vt 0.062500 0.726563
vt 0.089844 0.648438
vt 0.117188 0.570313
vt 0.062500 0.726563
vt 0.089844 0.648438
vt 0.117188 0.570313
vt 0.062500 0.726563
vt 0.089844 0.648438
vt 0.117188 0.570313
vt 0.062500 0.726563
vt 0.089844 0.648438
vt 0.117188 0.570313
v -0.309017 0.951057 0.017500
v -0.500000 0.866025 0.017500
v -0.482500 0.835715 0.017500
v -0.298201 0.917770 0.017500
v -0.309017 0.951057 -0.017500
v -0.500000 0.866025 -0.017500
v -0.482500 0.835715 -0.017500
v -0.298201 0.917770 -0.017500
vt 0.062500 0.726563
vt 0.089844 0.648438
vt 0.117188 0.570313
vt 0.062500 0.726563
vt 0.089844 0.648438
vt 0.117188 0.570313
vt 0.062500 0.726563
vt 0.089844 0.648438
vt 0.117188 0.570313
vt 0.062500 0.726563
vt 0.089844 0.648438
vt 0.117188 0.570313
vt 0.062500 0.726563
vt 0.089844 0.648438
vt 0.117188 0.570313
vt 0.062500 0.726563
vt 0.089844 0.648438
vt 0.117188 0.570313
vt 0.062500 0.726563
vt 0.089844 0.648438
vt 0.117188 0.570313
vt 0.062500 0.726563
vt 0.089844 0.648438
vt 0.117188 0.570313
vt 0.062500 0.726563
vt 0.089844 0.648438
vt 0.117188 0.570313
vt 0.062500 0.726563
vt 0.089844 0.648438
vt 0.117188 0.570313
vt 0.062500 0.726563
vt 0.089844 0.648438
vt 0.117188 0.570313
vt 0.062500 0.726563
vt 0.089844 0.648438
vt 0.117188 0.570313
v -0.669131 0.743145 0.017500
v -0.809017 0.587785 0.017500
v -0.780701 0.567213 0.017500
v -0.645711 0.717135 0.017500
v -0.669131 0.743145 -0.017500
v -0.809017 0.587785 -0.017500
v -0.780701 0.567213 -0.017500
v -0.645711 0.717135 -0.017500
vt 0.062500 0.726563
vt 0.089844 0.648438
vt 0.117188 0.570313
vt 0.062500 0.726563
vt 0.089844 0.648438
vt 0.117188 0.570313
vt 0.062500 0.726563
vt 0.089844 0.648438
vt 0.117188 0.570313
vt 0.062500 0.726563
vt 0.089844 0.648438
vt 0.117188 0.570313
vt 0.062500 0.726563
vt 0.089844 0.648438
vt 0.117188 0.570313
vt 0.062500 0.726563
vt 0.089844 0.648438
vt 0.117188 0.570313
vt 0.062500 0.726563
vt 0.089844 0.648438
vt 0.117188 0.570313
vt 0.062500 0.726563
vt 0.089844 0.648438
vt 0.117188 0.570313
vt 0.062500 0.726563
vt 0.089844 0.648438
vt 0.117188 0.570313
vt 0.062500 0.726563
vt 0.089844 0.648438
vt 0.117188 0.570313
vt 0.062500 0.726563
vt 0.089844 0.648438
vt 0.117188 0.570313
vt 0.062500 0.726563
vt 0.089844 0.648438
vt 0.117188 0.570313
v -0.809017 0.587785 0.017500
v -0.913545 0.406737 0.017500
v -0.881571 0.392501 0.017500
v -0.780701 0.567213 0.017500
v -0.809017 0.587785 -0.017500
v -0.913545 0.406737 -0.017500
v -0.881571 0.392501 -0.017500
v -0.780701 0.567213 -0.017500
vt 0.062500 0.726563
vt 0.089844 0.648438
vt 0.117188 0.570313
vt 0.062500 0.726563
vt 0.089844 0.648438
vt 0.117188 0.570313
vt 0.062500 0.726563
vt 0.089844 0.648438
vt 0.117188 0.570313
vt 0.062500 0.726563
vt 0.089844 0.648438
vt 0.117188 0.570313
vt 0.062500 0.726563
vt 0.089844 0.648438
vt 0.117188 0.570313
vt 0.062500 0.726563
vt 0.089844 0.648438
vt 0.117188 0.570313
vt 0.062500 0.726563
vt 0.089844 0.648438
vt 0.117188 0.570313
vt 0.062500 0.726563
vt 0.089844 0.648438
vt 0.117188 0.570313
vt 0.062500 0.726563
vt 0.089844 0.648438
vt 0.117188 0.570313
vt 0.062500 0.726563
vt 0.089844 0.648438
vt 0.117188 0.570313
vt 0.062500 0.726563
vt 0.089844 0.648438
vt 0.117188 0.570313
vt 0.062500 0.726563
vt 0.089844 0.648438
vt 0.117188 0.570313
v -0.913545 0.406737 0.017500
v -0.978148 0.207912 0.017500
v -0.943912 0.200635 0.017500
v -0.881571 0.392501 0.017500
v -0.913545 0.406737 -0.017500
v -0.978148 0.207912 -0.017500
v -0.943912 0.200635 -0.017500
v -0.881571 0.392501 -0.017500
vt 0.062500 0.726563
vt 0.089844 0.648438
vt 0.117188 0.570313
vt 0.062500 0.726563
vt 0.089844 0.648438
vt 0.117188 0.570313
vt 0.062500 0.726563
vt 0.089844 0.648438
vt 0.117188 0.570313
vt 0.062500 0.726563
vt 0.089844 0.648438
vt 0.117188 0.570313
vt 0.062500 0.726563
vt 0.089844 0.648438
vt 0.117188 0.570313
vt 0.062500 0.726563
vt 0.089844 0.648438
vt 0.117188 0.570313
vt 0.062500 0.726563
vt 0.089844 0.648438
vt 0.117188 0.570313
vt 0.062500 0.726563
vt 0.089844 0.648438
vt 0.117188 0.570313
vt 0.062500 0.726563
vt 0.089844 0.648438
vt 0.117188 0.570313
vt 0.062500 0.726563
vt 0.089844 0.648438
vt 0.117188 0.570313
vt 0.062500 0.726563
vt 0.089844 0.648438
vt 0.117188 0.570313
vt 0.062500 0.726563
vt 0.089844 0.648438
vt 0.117188 0.570313
v -0.978148 0.207912 0.017500
v -1.000000 0.000000 0.017500
v -0.965000 0.000000 0.017500
v -0.943912 0.200635 0.017500
v -0.978148 0.207912 -0.017500
v -1.000000 0.000000 -0.017500
v -0.965000 0.000000 -0.017500
v -0.943912 0.200635 -0.017500
vt 0.062500 0.726563
vt 0.089844 0.648438
vt 0.117188 0.570313
vt 0.062500 0.726563
vt 0.089844 0.648438
vt 0.117188 0.570313
vt 0.062500 0.726563
vt 0.089844 0.648438
vt 0.117188 0.570313
vt 0.062500 0.726563
vt 0.089844 0.648438
vt 0.117188 0.570313
vt 0.062500 0.726563
vt 0.089844 0.648438
vt 0.117188 0.570313
vt 0.062500 0.726563
vt 0.089844 0.648438
vt 0.117188 0.570313
vt 0.062500 0.726563
vt 0.089844 0.648438
vt 0.117188 0.570313
vt 0.062500 0.726563
vt 0.089844 0.648438
vt 0.117188 0.570313
vt 0.062500 0.726563
vt 0.089844 0.648438
vt 0.117188 0.570313
vt 0.062500 0.726563
vt 0.089844 0.648438
vt 0.117188 0.570313
vt 0.062500 0.726563
vt 0.089844 0.648438
vt 0.117188 0.570313
vt 0.062500 0.726563
vt 0.089844 0.648438
vt 0.117188 0.570313
v -1.000000 0.000000 0.017500
v -0.978148 -0.207912 0.017500
v -0.943912 -0.200635 0.017500
v -0.965000 0.000000 0.017500
v -1.000000 0.000000 -0.017500
v -0.978148 -0.207912 -0.017500
v -0.943912 -0.200635 -0.017500
v -0.965000 0.000000 -0.017500
vt 0.062500 0.726563
vt 0.089844 0.648438
vt 0.117188 0.570313
vt 0.062500 0.726563
vt 0.089844 0.648438
vt 0.117188 0.570313
vt 0.062500 0.726563
vt 0.089844 0.648438
vt 0.117188 0.570313
vt 0.062500 0.726563
vt 0.089844 0.648438
vt 0.117188 0.570313
vt 0.062500 0.726563
vt 0.089844 0.648438
vt 0.117188 0.570313
vt 0.062500 0.726563
vt 0.089844 0.648438
vt 0.117188 0.570313
vt 0.062500 0.726563
vt 0.089844 0.648438
vt 0.117188 0.570313
vt 0.062500 0.726563
vt 0.089844 0.648438
vt 0.117188 0.570313
vt 0.062500 0.726563
vt 0.089844 0.648438
vt 0.117188 0.570313
vt 0.062500 0.726563
vt 0.089844 0.648438
vt 0.117188 0.570313
vt 0.062500 0.726563
vt 0.089844 0.648438
vt 0.117188 0.570313
vt 0.062500 0.726563
vt 0.089844 0.648438
vt 0.117188 0.570313
v -0.978148 -0.207912 0.017500
v -0.913545 -0.406737 0.017500
v -0.881571 -0.392501 0.017500
v -0.943912 -0.200635 0.017500
v -0.978148 -0.207912 -0.017500
v -0.913545 -0.406737 -0.017500
v -0.881571 -0.392501 -0.017500
v -0.943912 -0.200635 -0.017500
vt 0.062500 0.726563
vt 0.089844 0.648438
vt 0.117188 0.570313
vt 0.062500 0.726563
vt 0.089844 0.648438
vt 0.117188 0.570313
vt 0.062500 0.726563
vt 0.089844 0.648438
vt 0.117188 0.570313
vt 0.062500 0.726563
vt 0.089844 0.648438
vt 0.117188 0.570313
vt 0.062500 0.726563
vt 0.089844 0.648438
vt 0.117188 0.570313
vt 0.062500 0.726563
vt 0.089844 0.648438
vt 0.117188 0.570313
vt 0.062500 0.726563
vt 0.089844 0.648438
vt 0.117188 0.570313
vt 0.062500 0.726563
vt 0.089844 0.648438
vt 0.117188 0.570313
vt 0.062500 0.726563
vt 0.089844 0.648438
vt 0.117188 0.570313
vt 0.062500 0.726563
vt 0.089844 0.648438
vt 0.117188 0.570313
vt 0.062500 0.726563
vt 0.089844 0.648438
vt 0.117188 0.570313
vt 0.062500 0.726563
vt 0.089844 0.648438
vt 0.117188 0.570313
v -0.913545 -0.406737 0.017500
v -0.809017 -0.587785 0.017500
v -0.780701 -0.567213 0.017500
v -0.881571 -0.392501 0.017500
v -0.913545 -0.406737 -0.017500
v -0.809017 -0.587785 -0.017500
v -0.780701 -0.567213 -0.017500
v -0.881571 -0.392501 -0.017500
vt 0.062500 0.726563
vt 0.089844 0.648438
vt 0.117188 0.570313
vt 0.062500 0.726563
vt 0.089844 0.648438
vt 0.117188 0.570313
vt 0.062500 0.726563
vt 0.089844 0.648438
vt 0.117188 0.570313
vt 0.062500 0.726563
vt 0.089844 0.648438
vt 0.117188 0.570313
vt 0.062500 0.726563
vt 0.089844 0.648438
vt 0.117188 0.570313
vt 0.062500 0.726563
vt 0.089844 0.648438
vt 0.117188 0.570313
vt 0.062500 0.726563
vt 0.089844 0.648438
vt 0.117188 0.570313
vt 0.062500 0.726563
vt 0.089844 0.648438
vt 0.117188 0.570313
vt 0.062500 0.726563
vt 0.089844 0.648438
vt 0.117188 0.570313
vt 0.062500 0.726563
vt 0.089844 0.648438
vt 0.117188 0.570313
vt 0.062500 0.726563
vt 0.089844 0.648438
vt 0.117188 0.570313
vt 0.062500 0.726563
vt 0.089844 0.648438
vt 0.117188 0.570313
v -0.809017 -0.587785 0.017500
v -0.669131 -0.743145 0.017500
v -0.645711 -0.717135 0.017500
v -0.780701 -0.567213 0.017500
v -0.809017 -0.587785 -0.017500
v -0.669131 -0.743145 -0.017500
v -0.645711 -0.717135 -0.017500
v -0.780701 -0.567213 -0.017500
vt 0.062500 0.726563
vt 0.089844 0.648438
vt 0.117188 0.570313
vt 0.062500 0.726563
vt 0.089844 0.648438
vt 0.117188 0.570313
vt 0.062500 0.726563
vt 0.089844 0.648438
vt 0.117188 0.570313
vt 0.062500 0.726563
vt 0.089844 0.648438
vt 0.117188 0.570313
vt 0.062500 0.726563
vt 0.089844 0.648438
vt 0.117188 0.570313
vt 0.062500 0.726563
vt 0.089844 0.648438
vt 0.117188 0.570313
vt 0.062500 0.726563
vt 0.089844 0.648438
vt 0.117188 0.570313
vt 0.062500 0.726563
vt 0.089844 0.648438
vt 0.117188 0.570313
vt 0.062500 0.726563
vt 0.089844 0.648438
vt 0.117188 0.570313
vt 0.062500 0.726563
vt 0.089844 0.648438
vt 0.117188 0.570313
vt 0.062500 0.726563
vt 0.089844 0.648438
vt 0.117188 0.570313
vt 0.062500 0.726563
vt 0.089844 0.648438
vt 0.117188 0.570313
v -0.669131 -0.743145 0.017500
v -0.500000 -0.866025 0.017500
v -0.482500 -0.835715 0.017500
v -0.645711 -0.717135 0.017500
v -0.669131 -0.743145 -0.017500
v -0.500000 -0.866025 -0.017500
v -0.482500 -0.835715 -0.017500
v -0.645711 -0.717135 -0.017500
vt 0.062500 0.726563
vt 0.089844 0.648438
vt 0.117188 0.570313
vt 0.062500 0.726563
vt 0.089844 0.648438
vt 0.117188 0.570313
vt 0.062500 0.726563
vt 0.089844 0.648438
vt 0.117188 0.570313
vt 0.062500 0.726563
vt 0.089844 0.648438
vt 0.117188 0.570313
vt 0.062500 0.726563
vt 0.089844 0.648438
vt 0.117188 0.570313
vt 0.062500 0.726563
vt 0.089844 0.648438
vt 0.117188 0.570313
vt 0.062500 0.726563
vt 0.089844 0.648438
vt 0.117188 0.570313
vt 0.062500 0.726563
vt 0.089844 0.648438
vt 0.117188 0.570313
vt 0.062500 0.726563
vt 0.089844 0.648438
vt 0.117188 0.570313
vt 0.062500 0.726563
vt 0.089844 0.648438
vt 0.117188 0.570313
vt 0.062500 0.726563
vt 0.089844 0.648438
vt 0.117188 0.570313
vt 0.062500 0.726563
vt 0.089844 0.648438
vt 0.117188 0.570313
v -0.309017 -0.951057 0.017500
v -0.104528 -0.994522 0.017500
v -0.100870 -0.959714 0.017500
v -0.298201 -0.917770 0.017500
v -0.309017 -0.951057 -0.017500
v -0.104528 -0.994522 -0.017500
v -0.100870 -0.959714 -0.017500
v -0.298201 -0.917770 -0.017500
vt 0.062500 0.726563
vt 0.089844 0.648438
vt 0.117188 0.570313
vt 0.062500 0.726563
vt 0.089844 0.648438
vt 0.117188 0.570313
vt 0.062500 0.726563
vt 0.089844 0.648438
vt 0.117188 0.570313
vt 0.062500 0.726563
vt 0.089844 0.648438
vt 0.117188 0.570313
vt 0.062500 0.726563
vt 0.089844 0.648438
vt 0.117188 0.570313
vt 0.062500 0.726563
vt 0.089844 0.648438
vt 0.117188 0.570313
vt 0.062500 0.726563
vt 0.089844 0.648438
vt 0.117188 0.570313
vt 0.062500 0.726563
vt 0.089844 0.648438
vt 0.117188 0.570313
vt 0.062500 0.726563
vt 0.089844 0.648438
vt 0.117188 0.570313
vt 0.062500 0.726563
vt 0.089844 0.648438
vt 0.117188 0.570313
vt 0.062500 0.726563
vt 0.089844 0.648438
vt 0.117188 0.570313
vt 0.062500 0.726563
vt 0.089844 0.648438
vt 0.117188 0.570313
v -0.104528 -0.994522 0.017500
v 0.104528 -0.994522 0.017500
v 0.100870 -0.959714 0.017500
v -0.100870 -0.959714 0.017500
v -0.104528 -0.994522 -0.017500
v 0.104528 -0.994522 -0.017500
v 0.100870 -0.959714 -0.017500
v -0.100870 -0.959714 -0.017500
vt 0.062500 0.726563
vt 0.089844 0.648438
vt 0.117188 0.570313
vt 0.062500 0.726563
vt 0.089844 0.648438
vt 0.117188 0.570313
vt 0.062500 0.726563
vt 0.089844 0.648438
vt 0.117188 0.570313
vt 0.062500 0.726563
vt 0.089844 0.648438
vt 0.117188 0.570313
vt 0.062500 0.726563
vt 0.089844 0.648438
vt 0.117188 0.570313
vt 0.062500 0.726563
vt 0.089844 0.648438
vt 0.117188 0.570313
vt 0.062500 0.726563
vt 0.089844 0.648438
vt 0.117188 0.570313
vt 0.062500 0.726563
vt 0.089844 0.648438
vt 0.117188 0.570313
vt 0.062500 0.726563
vt 0.089844 0.648438
vt 0.117188 0.570313
vt 0.062500 0.726563
vt 0.089844 0.648438
vt 0.117188 0.570313
vt 0.062500 0.726563
vt 0.089844 0.648438
vt 0.117188 0.570313
vt 0.062500 0.726563
vt 0.089844 0.648438
vt 0.117188 0.570313
v 0.104528 -0.994522 0.017500
v 0.309017 -0.951057 0.017500
v 0.298201 -0.917770 0.017500
v 0.100870 -0.959714 0.017500
v 0.104528 -0.994522 -0.017500
v 0.309017 -0.951057 -0.017500
v 0.298201 -0.917770 -0.017500
v 0.100870 -0.959714 -0.017500
vt 0.062500 0.726563
vt 0.089844 0.648438
vt 0.117188 0.570313
vt 0.062500 0.726563
vt 0.089844 0.648438
vt 0.117188 0.570313
vt 0.062500 0.726563
vt 0.089844 0.648438
vt 0.117188 0.570313
vt 0.062500 0.726563
vt 0.089844 0.648438
vt 0.117188 0.570313
vt 0.062500 0.726563
vt 0.089844 0.648438
vt 0.117188 0.570313
vt 0.062500 0.726563
vt 0.089844 0.648438
vt 0.117188 0.570313
vt 0.062500 0.726563
vt 0.089844 0.648438
vt 0.117188 0.570313
vt 0.062500 0.726563
vt 0.089844 0.648438
vt 0.117188 0.570313
vt 0.062500 0.726563
vt 0.089844 0.648438
vt 0.117188 0.570313
vt 0.062500 0.726563
vt 0.089844 0.648438
vt 0.117188 0.570313
vt 0.062500 0.726563
vt 0.089844 0.648438
vt 0.117188 0.570313
vt 0.062500 0.726563
vt 0.089844 0.648438
vt 0.117188 0.570313
v 0.309017 -0.951057 0.017500
v 0.500000 -0.866025 0.017500
v 0.482500 -0.835715 0.017500
v 0.298201 -0.917770 0.017500
v 0.309017 -0.951057 -0.017500
v 0.500000 -0.866025 -0.017500
v 0.482500 -0.835715 -0.017500
v 0.298201 -0.917770 -0.017500
vt 0.062500 0.726563
vt 0.089844 0.648438
vt 0.117188 0.570313
vt 0.062500 0.726563
vt 0.089844 0.648438
vt 0.117188 0.570313
vt 0.062500 0.726563
vt 0.089844 0.648438
vt 0.117188 0.570313
vt 0.062500 0.726563
vt 0.089844 0.648438
vt 0.117188 0.570313
vt 0.062500 0.726563
vt 0.089844 0.648438
vt 0.117188 0.570313
vt 0.062500 0.726563
vt 0.089844 0.648438
vt 0.117188 0.570313
vt 0.062500 0.726563
vt 0.089844 0.648438
vt 0.117188 0.570313
vt 0.062500 0.726563
vt 0.089844 0.648438
vt 0.117188 0.570313
vt 0.062500 0.726563
vt 0.089844 0.648438
vt 0.117188 0.570313
vt 0.062500 0.726563
vt 0.089844 0.648438
vt 0.117188 0.570313
vt 0.062500 0.726563
vt 0.089844 0.648438
vt 0.117188 0.570313
vt 0.062500 0.726563
vt 0.089844 0.648438
vt 0.117188 0.570313
v 0.500000 -0.866025 0.017500
v 0.669131 -0.743145 0.017500
v 0.645711 -0.717135 0.017500
v 0.482500 -0.835715 0.017500
v 0.500000 -0.866025 -0.017500
v 0.669131 -0.743145 -0.017500
v 0.645711 -0.717135 -0.017500
v 0.482500 -0.835715 -0.017500
vt 0.062500 0.726563
vt 0.089844 0.648438
vt 0.117188 0.570313
vt 0.062500 0.726563
vt 0.089844 0.648438
vt 0.117188 0.570313
vt 0.062500 0.726563
vt 0.089844 0.648438
vt 0.117188 0.570313
vt 0.062500 0.726563
vt 0.089844 0.648438
vt 0.117188 0.570313
vt 0.062500 0.726563
vt 0.089844 0.648438
vt 0.117188 0.570313
vt 0.062500 0.726563
vt 0.089844 0.648438
vt 0.117188 0.570313
vt 0.062500 0.726563
vt 0.089844 0.648438
vt 0.117188 0.570313
vt 0.062500 0.726563
vt 0.089844 0.648438
vt 0.117188 0.570313
vt 0.062500 0.726563
vt 0.089844 0.648438
vt 0.117188 0.570313
vt 0.062500 0.726563
vt 0.089844 0.648438
vt 0.117188 0.570313
vt 0.062500 0.726563
vt 0.089844 0.648438
vt 0.117188 0.570313
vt 0.062500 0.726563
vt 0.089844 0.648438
vt 0.117188 0.570313
v 0.669131 -0.743145 0.017500
v 0.809017 -0.587785 0.017500
v 0.780701 -0.567213 0.017500
v 0.645711 -0.717135 0.017500
v 0.669131 -0.743145 -0.017500
v 0.809017 -0.587785 -0.017500
v 0.780701 -0.567213 -0.017500
v 0.645711 -0.717135 -0.017500
vt 0.062500 0.726563
vt 0.089844 0.648438
vt 0.117188 0.570313
vt 0.062500 0.726563
vt 0.089844 0.648438
vt 0.117188 0.570313
vt 0.062500 0.726563
vt 0.089844 0.648438
vt 0.117188 0.570313
vt 0.062500 0.726563
vt 0.089844 0.648438
vt 0.117188 0.570313
vt 0.062500 0.726563
vt 0.089844 0.648438
vt 0.117188 0.570313
vt 0.062500 0.726563
vt 0.089844 0.648438
vt 0.117188 0.570313
vt 0.062500 0.726563
vt 0.089844 0.648438
vt 0.117188 0.570313
vt 0.062500 0.726563
vt 0.089844 0.648438
vt 0.117188 0.570313
vt 0.062500 0.726563
vt 0.089844 0.648438
vt 0.117188 0.570313
vt 0.062500 0.726563
vt 0.089844 0.648438
vt 0.117188 0.570313
vt 0.062500 0.726563
vt 0.089844 0.648438
vt 0.117188 0.570313
vt 0.062500 0.726563
vt 0.089844 0.648438
vt 0.117188 0.570313
v 0.809017 -0.587785 0.017500
v 0.913545 -0.406737 0.017500
v 0.881571 -0.392501 0.017500
v 0.780701 -0.567213 0.017500
v 0.809017 -0.587785 -0.017500
v 0.913545 -0.406737 -0.017500
v 0.881571 -0.392501 -0.017500
v 0.780701 -0.567213 -0.017500
vt 0.062500 0.726563
vt 0.089844 0.648438
vt 0.117188 0.570313
vt 0.062500 0.726563
vt 0.089844 0.648438
vt 0.117188 0.570313
vt 0.062500 0.726563
vt 0.089844 0.648438
vt 0.117188 0.570313
vt 0.062500 0.726563
vt 0.089844 0.648438
vt 0.117188 0.570313
vt 0.062500 0.726563
vt 0.089844 0.648438
vt 0.117188 0.570313
vt 0.062500 0.726563
vt 0.089844 0.648438
vt 0.117188 0.570313
vt 0.062500 0.726563
vt 0.089844 0.648438
vt 0.117188 0.570313
vt 0.062500 0.726563
vt 0.089844 0.648438
vt 0.117188 0.570313
vt 0.062500 0.726563
vt 0.089844 0.648438
vt 0.117188 0.570313
vt 0.062500 0.726563
vt 0.089844 0.648438
vt 0.117188 0.570313
vt 0.062500 0.726563
vt 0.089844 0.648438
vt 0.117188 0.570313
vt 0.062500 0.726563
vt 0.089844 0.648438
vt 0.117188 0.570313
v 0.913545 -0.406737 0.017500
v 0.978148 -0.207912 0.017500
v 0.943912 -0.200635 0.017500
v 0.881571 -0.392501 0.017500
v 0.913545 -0.406737 -0.017500
v 0.978148 -0.207912 -0.017500
v 0.943912 -0.200635 -0.017500
v 0.881571 -0.392501 -0.017500
vt 0.062500 0.726563
vt 0.089844 0.648438
vt 0.117188 0.570313
vt 0.062500 0.726563
vt 0.089844 0.648438
vt 0.117188 0.570313
vt 0.062500 0.726563
vt 0.089844 0.648438
vt 0.117188 0.570313
vt 0.062500 0.726563
vt 0.089844 0.648438
vt 0.117188 0.570313
vt 0.062500 0.726563
vt 0.089844 0.648438
vt 0.117188 0.570313
vt 0.062500 0.726563
vt 0.089844 0.648438
vt 0.117188 0.570313
vt 0.062500 0.726563
vt 0.089844 0.648438
vt 0.117188 0.570313
vt 0.062500 0.726563
vt 0.089844 0.648438
vt 0.117188 0.570313
vt 0.062500 0.726563
vt 0.089844 0.648438
vt 0.117188 0.570313
vt 0.062500 0.726563
vt 0.089844 0.648438
vt 0.117188 0.570313
vt 0.062500 0.726563
vt 0.089844 0.648438
vt 0.117188 0.570313
vt 0.062500 0.726563
vt 0.089844 0.648438
vt 0.117188 0.570313
v 0.978148 -0.207912 0.017500
v 1.000000 -0.000000 0.017500
v 0.965000 -0.000000 0.017500
v 0.943912 -0.200635 0.017500
v 0.978148 -0.207912 -0.017500
v 1.000000 -0.000000 -0.017500
v 0.965000 -0.000000 -0.017500
v 0.943912 -0.200635 -0.017500
vt 0.062500 0.726563
vt 0.089844 0.648438
vt 0.117188 0.570313
vt 0.062500 0.726563
vt 0.089844 0.648438
vt 0.117188 0.570313
vt 0.062500 0.726563
vt 0.089844 0.648438
vt 0.117188 0.570313
vt 0.062500 0.726563
vt 0.089844 0.648438
vt 0.117188 0.570313
vt 0.062500 0.726563
vt 0.089844 0.648438
vt 0.117188 0.570313
vt 0.062500 0.726563
vt 0.089844 0.648438
vt 0.117188 0.570313
vt 0.062500 0.726563
vt 0.089844 0.648438
vt 0.117188 0.570313
vt 0.062500 0.726563
vt 0.089844 0.648438
vt 0.117188 0.570313
vt 0.062500 0.726563
vt 0.089844 0.648438
vt 0.117188 0.570313
vt 0.062500 0.726563
vt 0.089844 0.648438
vt 0.117188 0.570313
vt 0.062500 0.726563
vt 0.089844 0.648438
vt 0.117188 0.570313
vt 0.062500 0.726563
vt 0.089844 0.648438
vt 0.117188 0.570313
v 0.860770 0.182962 0.017500
v 0.803920 0.357928 0.017500
v 0.792957 0.353047 0.017500
v 0.849032 0.180467 0.017500
v 0.860770 0.182962 -0.017500
v 0.803920 0.357928 -0.017500
v 0.792957 0.353047 -0.017500
v 0.849032 0.180467 -0.017500
vt 0.562500 0.726563
vt 0.589844 0.648438
vt 0.617188 0.570313
vt 0.562500 0.726563
vt 0.589844 0.648438
vt 0.617188 0.570313
vt 0.562500 0.726563
vt 0.589844 0.648438
vt 0.617188 0.570313
vt 0.562500 0.726563
vt 0.589844 0.648438
vt 0.617188 0.570313
vt 0.562500 0.726563
vt 0.589844 0.648438
vt 0.617188 0.570313
vt 0.562500 0.726563
vt 0.589844 0.648438
vt 0.617188 0.570313
vt 0.562500 0.726563
vt 0.589844 0.648438
vt 0.617188 0.570313
vt 0.562500 0.726563
vt 0.589844 0.648438
vt 0.617188 0.570313
vt 0.562500 0.726563
vt 0.589844 0.648438
vt 0.617188 0.570313
vt 0.562500 0.726563
vt 0.589844 0.648438
vt 0.617188 0.570313
vt 0.562500 0.726563
vt 0.589844 0.648438
vt 0.617188 0.570313
vt 0.562500 0.726563
vt 0.589844 0.648438
vt 0.617188 0.570313
v 0.803920 0.357928 0.017500
v 0.711935 0.517251 0.017500
v 0.702227 0.510198 0.017500
v 0.792957 0.353047 0.017500
v 0.803920 0.357928 -0.017500
v 0.711935 0.517251 -0.017500
v 0.702227 0.510198 -0.017500
v 0.792957 0.353047 -0.017500
vt 0.562500 0.726563
vt 0.589844 0.648438
vt 0.617188 0.570313
vt 0.562500 0.726563
vt 0.589844 0.648438
vt 0.617188 0.570313
vt 0.562500 0.726563
vt 0.589844 0.648438
vt 0.617188 0.570313
vt 0.562500 0.726563
vt 0.589844 0.648438
vt 0.617188 0.570313
vt 0.562500 0.726563
vt 0.589844 0.648438
vt 0.617188 0.570313
vt 0.562500 0.726563
vt 0.589844 0.648438
vt 0.617188 0.570313
vt 0.562500 0.726563
vt 0.589844 0.648438
vt 0.617188 0.570313
vt 0.562500 0.726563
vt 0.589844 0.648438
vt 0.617188 0.570313
vt 0.562500 0.726563
vt 0.589844 0.648438
vt 0.617188 0.570313
vt 0.562500 0.726563
vt 0.589844 0.648438
vt 0.617188 0.570313
vt 0.562500 0.726563
vt 0.589844 0.648438
vt 0.617188 0.570313
vt 0.562500 0.726563
vt 0.589844 0.648438
vt 0.617188 0.570313
v 0.711935 0.517251 0.017500
v 0.588835 0.653967 0.017500
v 0.580805 0.645050 0.017500
v 0.702227 0.510198 0.017500
v 0.711935 0.517251 -0.017500
v 0.588835 0.653967 -0.017500
v 0.580805 0.645050 -0.017500
v 0.702227 0.510198 -0.017500
vt 0.562500 0.726563
vt 0.589844 0.648438
vt 0.617188 0.570313
vt 0.562500 0.726563
vt 0.589844 0.648438
vt 0.617188 0.570313
vt 0.562500 0.726563
vt 0.589844 0.648438
vt 0.617188 0.570313
vt 0.562500 0.726563
vt 0.589844 0.648438
vt 0.617188 0.570313
vt 0.562500 0.726563
vt 0.589844 0.648438
vt 0.617188 0.570313
vt 0.562500 0.726563
vt 0.589844 0.648438
vt 0.617188 0.570313
vt 0.562500 0.726563
vt 0.589844 0.648438
vt 0.617188 0.570313
vt 0.562500 0.726563
vt 0.589844 0.648438
vt 0.617188 0.570313
vt 0.562500 0.726563
vt 0.589844 0.648438
vt 0.617188 0.570313
vt 0.562500 0.726563
vt 0.589844 0.648438
vt 0.617188 0.570313
vt 0.562500 0.726563
vt 0.589844 0.648438
vt 0.617188 0.570313
vt 0.562500 0.726563
vt 0.589844 0.648438
vt 0.617188 0.570313
v 0.588835 0.653967 0.017500
v 0.440000 0.762102 0.017500
v 0.434000 0.751710 0.017500
v 0.580805 0.645050 0.017500
v 0.588835 0.653967 -0.017500
v 0.440000 0.762102 -0.017500
v 0.434000 0.751710 -0.017500
v 0.580805 0.645050 -0.017500
vt 0.562500 0.726563
vt 0.589844 0.648438
vt 0.617188 0.570313
vt 0.562500 0.726563
vt 0.589844 0.648438
vt 0.617188 0.570313
vt 0.562500 0.726563
vt 0.589844 0.648438
vt 0.617188 0.570313
vt 0.562500 0.726563
vt 0.589844 0.648438
vt 0.617188 0.570313
vt 0.562500 0.726563
vt 0.589844 0.648438
vt 0.617188 0.570313
vt 0.562500 0.726563
vt 0.589844 0.648438
vt 0.617188 0.570313
vt 0.562500 0.726563
vt 0.589844 0.648438
vt 0.617188 0.570313
vt 0.562500 0.726563
vt 0.589844 0.648438
vt 0.617188 0.570313
vt 0.562500 0.726563
vt 0.589844 0.648438
vt 0.617188 0.570313
vt 0.562500 0.726563
vt 0.589844 0.648438
vt 0.617188 0.570313
vt 0.562500 0.726563
vt 0.589844 0.648438
vt 0.617188 0.570313
vt 0.562500 0.726563
vt 0.589844 0.648438
vt 0.617188 0.570313
v 0.440000 0.762102 0.017500
v 0.271935 0.836930 0.017500
v 0.268227 0.825517 0.017500
v 0.434000 0.751710 0.017500
v 0.440000 0.762102 -0.017500
v 0.271935 0.836930 -0.017500
v 0.268227 0.825517 -0.017500
v 0.434000 0.751710 -0.017500
vt 0.562500 0.726563
vt 0.589844 0.648438
vt 0.617188 0.570313
vt 0.562500 0.726563
vt 0.589844 0.648438
vt 0.617188 0.570313
vt 0.562500 0.726563
vt 0.589844 0.648438
vt 0.617188 0.570313
vt 0.562500 0.726563
vt 0.589844 0.648438
vt 0.617188 0.570313
vt 0.562500 0.726563
vt 0.589844 0.648438
vt 0.617188 0.570313
vt 0.562500 0.726563
vt 0.589844 0.648438
vt 0.617188 0.570313
vt 0.562500 0.726563
vt 0.589844 0.648438
vt 0.617188 0.570313
vt 0.562500 0.726563
vt 0.589844 0.648438
vt 0.617188 0.570313
vt 0.562500 0.726563
vt 0.589844 0.648438
vt 0.617188 0.570313
vt 0.562500 0.726563
vt 0.589844 0.648438
vt 0.617188 0.570313
vt 0.562500 0.726563
vt 0.589844 0.648438
vt 0.617188 0.570313
vt 0.562500 0.726563
vt 0.589844 0.648438
vt 0.617188 0.570313
v 0.271935 0.836930 0.017500
v 0.091985 0.875179 0.017500
v 0.090731 0.863245 0.017500
v 0.268227 0.825517 0.017500
v 0.271935 0.836930 -0.017500
v 0.091985 0.875179 -0.017500
v 0.090731 0.863245 -0.017500
v 0.268227 0.825517 -0.017500
vt 0.562500 0.726563
vt 0.589844 0.648438
vt 0.617188 0.570313
vt 0.562500 0.726563
vt 0.589844 0.648438
vt 0.617188 0.570313
vt 0.562500 0.726563
vt 0.589844 0.648438
vt 0.617188 0.570313
vt 0.562500 0.726563
vt 0.589844 0.648438
vt 0.617188 0.570313
vt 0.562500 0.726563
vt 0.589844 0.648438
vt 0.617188 0.570313
vt 0.562500 0.726563
vt 0.589844 0.648438
vt 0.617188 0.570313
vt 0.562500 0.726563
vt 0.589844 0.648438
vt 0.617188 0.570313
vt 0.562500 0.726563
vt 0.589844 0.648438
vt 0.617188 0.570313
vt 0.562500 0.726563
vt 0.589844 0.648438
vt 0.617188 0.570313
vt 0.562500 0.726563
vt 0.589844 0.648438
vt 0.617188 0.570313
vt 0.562500 0.726563
vt 0.589844 0.648438
vt 0.617188 0.570313
vt 0.562500 0.726563
vt 0.589844 0.648438
vt 0.617188 0.570313
v 0.091985 0.875179 0.017500
v -0.091985 0.875179 0.017500
v -0.090731 0.863245 0.017500
v 0.090731 0.863245 0.017500
v 0.091985 0.875179 -0.017500
v -0.091985 0.875179 -0.017500
v -0.090731 0.863245 -0.017500
v 0.090731 0.863245 -0.017500
vt 0.562500 0.726563
vt 0.589844 0.648438
vt 0.617188 0.570313
vt 0.562500 0.726563
vt 0.589844 0.648438
vt 0.617188 0.570313
vt 0.562500 0.726563
vt 0.589844 0.648438
vt 0.617188 0.570313
vt 0.562500 0.726563
vt 0.589844 0.648438
vt 0.617188 0.570313
vt 0.562500 0.726563
vt 0.589844 0.648438
vt 0.617188 0.570313
vt 0.562500 0.726563
vt 0.589844 0.648438
vt 0.617188 0.570313
vt 0.562500 0.726563
vt 0.589844 0.648438
vt 0.617188 0.570313
vt 0.562500 0.726563
vt 0.589844 0.648438
vt 0.617188 0.570313
vt 0.562500 0.726563
vt 0.589844 0.648438
vt 0.617188 0.570313
vt 0.562500 0.726563
vt 0.589844 0.648438
vt 0.617188 0.570313
vt 0.562500 0.726563
vt 0.589844 0.648438
vt 0.617188 0.570313
vt 0.562500 0.726563
vt 0.589844 0.648438
vt 0.617188 0.570313
v -0.091985 0.875179 0.017500
v -0.271935 0.836930 0.017500
v -0.268227 0.825517 0.017500
v -0.090731 0.863245 0.017500
v -0.091985 0.875179 -0.017500
v -0.271935 0.836930 -0.017500
v -0.268227 0.825517 -0.017500
v -0.090731 0.863245 -0.017500
vt 0.562500 0.726563
vt 0.589844 0.648438
vt 0.617188 0.570313
vt 0.562500 0.726563
vt 0.589844 0.648438
vt 0.617188 0.570313
vt 0.562500 0.726563
vt 0.589844 0.648438
vt 0.617188 0.570313
vt 0.562500 0.726563
vt 0.589844 0.648438
vt 0.617188 0.570313
vt 0.562500 0.726563
vt 0.589844 0.648438
vt 0.617188 0.570313
vt 0.562500 0.726563
vt 0.589844 0.648438
vt 0.617188 0.570313
vt 0.562500 0.726563
vt 0.589844 0.648438
vt 0.617188 0.570313
vt 0.562500 0.726563
vt 0.589844 0.648438
vt 0.617188 0.570313
vt 0.562500 0.726563
vt 0.589844 0.648438
vt 0.617188 0.570313
vt 0.562500 0.726563
vt 0.589844 0.648438
vt 0.617188 0.570313
vt 0.562500 0.726563
vt 0.589844 0.648438
vt 0.617188 0.570313
vt 0.562500 0.726563
vt 0.589844 0.648438
vt 0.617188 0.570313
v -0.271935 0.836930 0.017500
v -0.440000 0.762102 0.017500
v -0.434000 0.751710 0.017500
v -0.268227 0.825517 0.017500
v -0.271935 0.836930 -0.017500
v -0.440000 0.762102 -0.017500
v -0.434000 0.751710 -0.017500
v -0.268227 0.825517 -0.017500
vt 0.562500 0.726563
vt 0.589844 0.648438
vt 0.617188 0.570313
vt 0.562500 0.726563
vt 0.589844 0.648438
vt 0.617188 0.570313
vt 0.562500 0.726563
vt 0.589844 0.648438
vt 0.617188 0.570313
vt 0.562500 0.726563
vt 0.589844 0.648438
vt 0.617188 0.570313
vt 0.562500 0.726563
vt 0.589844 0.648438
vt 0.617188 0.570313
vt 0.562500 0.726563
vt 0.589844 0.648438
vt 0.617188 0.570313
vt 0.562500 0.726563
vt 0.589844 0.648438
vt 0.617188 0.570313
vt 0.562500 0.726563
vt 0.589844 0.648438
vt 0.617188 0.570313
vt 0.562500 0.726563
vt 0.589844 0.648438
vt 0.617188 0.570313
vt 0.562500 0.726563
vt 0.589844 0.648438
vt 0.617188 0.570313
vt 0.562500 0.726563
vt 0.589844 0.648438
vt 0.617188 0.570313
vt 0.562500 0.726563
vt 0.589844 0.648438
vt 0.617188 0.570313
v -0.588835 0.653967 0.017500
v -0.711935 0.517251 0.017500
v -0.702227 0.510198 0.017500
v -0.580805 0.645050 0.017500
v -0.588835 0.653967 -0.017500
v -0.711935 0.517251 -0.017500
v -0.702227 0.510198 -0.017500
v -0.580805 0.645050 -0.017500
vt 0.562500 0.726563
vt 0.589844 0.648438
vt 0.617188 0.570313
vt 0.562500 0.726563
vt 0.589844 0.648438
vt 0.617188 0.570313
vt 0.562500 0.726563
vt 0.589844 0.648438
vt 0.617188 0.570313
vt 0.562500 0.726563
vt 0.589844 0.648438
vt 0.617188 0.570313
vt 0.562500 0.726563
vt 0.589844 0.648438
vt 0.617188 0.570313
vt 0.562500 0.726563
vt 0.589844 0.648438
vt 0.617188 0.570313
vt 0.562500 0.726563
vt 0.589844 0.648438
vt 0.617188 0.570313
vt 0.562500 0.726563
vt 0.589844 0.648438
vt 0.617188 0.570313
vt 0.562500 0.726563
vt 0.589844 0.648438
vt 0.617188 0.570313
vt 0.562500 0.726563
vt 0.589844 0.648438
vt 0.617188 0.570313
vt 0.562500 0.726563
vt 0.589844 0.648438
vt 0.617188 0.570313
vt 0.562500 0.726563
vt 0.589844 0.648438
vt 0.617188 0.570313
v -0.711935 0.517251 0.017500
v -0.803920 0.357928 0.017500
v -0.792957 0.353047 0.017500
v -0.702227 0.510198 0.017500
v -0.711935 0.517251 -0.017500
v -0.803920 0.357928 -0.017500
v -0.792957 0.353047 -0.017500
v -0.702227 0.510198 -0.017500
vt 0.562500 0.726563
vt 0.589844 0.648438
vt 0.617188 0.570313
vt 0.562500 0.726563
vt 0.589844 0.648438
vt 0.617188 0.570313
vt 0.562500 0.726563
vt 0.589844 0.648438
vt 0.617188 0.570313
vt 0.562500 0.726563
vt 0.589844 0.648438
vt 0.617188 0.570313
vt 0.562500 0.726563
vt 0.589844 0.648438
vt 0.617188 0.570313
vt 0.562500 0.726563
vt 0.589844 0.648438
vt 0.617188 0.570313
vt 0.562500 0.726563
vt 0.589844 0.648438
vt 0.617188 0.570313
vt 0.562500 0.726563
vt 0.589844 0.648438
vt 0.617188 0.570313
vt 0.562500 0.726563
vt 0.589844 0.648438
vt 0.617188 0.570313
vt 0.562500 0.726563
vt 0.589844 0.648438
vt 0.617188 0.570313
vt 0.562500 0.726563
vt 0.589844 0.648438
vt 0.617188 0.570313
vt 0.562500 0.726563
vt 0.589844 0.648438
vt 0.617188 0.570313
v -0.803920 0.357928 0.017500
v -0.860770 0.182962 0.017500
v -0.849032 0.180467 0.017500
v -0.792957 0.353047 0.017500
v -0.803920 0.357928 -0.017500
v -0.860770 0.182962 -0.017500
v -0.849032 0.180467 -0.017500
v -0.792957 0.353047 -0.017500
vt 0.562500 0.726563
vt 0.589844 0.648438
vt 0.617188 0.570313
vt 0.562500 0.726563
vt 0.589844 0.648438
vt 0.617188 0.570313
vt 0.562500 0.726563
vt 0.589844 0.648438
vt 0.617188 0.570313
vt 0.562500 0.726563
vt 0.589844 0.648438
vt 0.617188 0.570313
vt 0.562500 0.726563
vt 0.589844 0.648438
vt 0.617188 0.570313
vt 0.562500 0.726563
vt 0.589844 0.648438
vt 0.617188 0.570313
vt 0.562500 0.726563
vt 0.589844 0.648438
vt 0.617188 0.570313
vt 0.562500 0.726563
vt 0.589844 0.648438
vt 0.617188 0.570313
vt 0.562500 0.726563
vt 0.589844 0.648438
vt 0.617188 0.570313
vt 0.562500 0.726563
vt 0.589844 0.648438
vt 0.617188 0.570313
vt 0.562500 0.726563
vt 0.589844 0.648438
vt 0.617188 0.570313
vt 0.562500 0.726563
vt 0.589844 0.648438
vt 0.617188 0.570313
v -0.860770 0.182962 0.017500
v -0.880000 0.000000 0.017500
v -0.868000 0.000000 0.017500
v -0.849032 0.180467 0.017500
v -0.860770 0.182962 -0.017500
v -0.880000 0.000000 -0.017500
v -0.868000 0.000000 -0.017500
v -0.849032 0.180467 -0.017500
vt 0.562500 0.726563
vt 0.589844 0.648438
vt 0.617188 0.570313
vt 0.562500 0.726563
vt 0.589844 0.648438
vt 0.617188 0.570313
vt 0.562500 0.726563
vt 0.589844 0.648438
vt 0.617188 0.570313
vt 0.562500 0.726563
vt 0.589844 0.648438
vt 0.617188 0.570313
vt 0.562500 0.726563
vt 0.589844 0.648438
vt 0.617188 0.570313
vt 0.562500 0.726563
vt 0.589844 0.648438
vt 0.617188 0.570313
vt 0.562500 0.726563
vt 0.589844 0.648438
vt 0.617188 0.570313
vt 0.562500 0.726563
vt 0.589844 0.648438
vt 0.617188 0.570313
vt 0.562500 0.726563
vt 0.589844 0.648438
vt 0.617188 0.570313
vt 0.562500 0.726563
vt 0.589844 0.648438
vt 0.617188 0.570313
vt 0.562500 0.726563
vt 0.589844 0.648438
vt 0.617188 0.570313
vt 0.562500 0.726563
vt 0.589844 0.648438
vt 0.617188 0.570313
v -0.880000 0.000000 0.017500
v -0.860770 -0.182962 0.017500
v -0.849032 -0.180467 0.017500
v -0.868000 0.000000 0.017500
v -0.880000 0.000000 -0.017500
v -0.860770 -0.182962 -0.017500
v -0.849032 -0.180467 -0.017500
v -0.868000 0.000000 -0.017500
vt 0.562500 0.726563
vt 0.589844 0.648438
vt 0.617188 0.570313
vt 0.562500 0.726563
vt 0.589844 0.648438
vt 0.617188 0.570313
vt 0.562500 0.726563
vt 0.589844 0.648438
vt 0.617188 0.570313
vt 0.562500 0.726563
vt 0.589844 0.648438
vt 0.617188 0.570313
vt 0.562500 0.726563
vt 0.589844 0.648438
vt 0.617188 0.570313
vt 0.562500 0.726563
vt 0.589844 0.648438
vt 0.617188 0.570313
vt 0.562500 0.726563
vt 0.589844 0.648438
vt 0.617188 0.570313
vt 0.562500 0.726563
vt 0.589844 0.648438
vt 0.617188 0.570313
vt 0.562500 0.726563
vt 0.589844 0.648438
vt 0.617188 0.570313
vt 0.562500 0.726563
vt 0.589844 0.648438
vt 0.617188 0.570313
vt 0.562500 0.726563
vt 0.589844 0.648438
vt 0.617188 0.570313
vt 0.562500 0.726563
vt 0.589844 0.648438
vt 0.617188 0.570313
v -0.860770 -0.182962 0.017500
v -0.803920 -0.357928 0.017500
v -0.792957 -0.353047 0.017500
v -0.849032 -0.180467 0.017500
v -0.860770 -0.182962 -0.017500
v -0.803920 -0.357928 -0.017500
v -0.792957 -0.353047 -0.017500
v -0.849032 -0.180467 -0.017500
vt 0.562500 0.726563
vt 0.589844 0.648438
vt 0.617188 0.570313
vt 0.562500 0.726563
vt 0.589844 0.648438
vt 0.617188 0.570313
vt 0.562500 0.726563
vt 0.589844 0.648438
vt 0.617188 0.570313
vt 0.562500 0.726563
vt 0.589844 0.648438
vt 0.617188 0.570313
vt 0.562500 0.726563
vt 0.589844 0.648438
vt 0.617188 0.570313
vt 0.562500 0.726563
vt 0.589844 0.648438
vt 0.617188 0.570313
vt 0.562500 0.726563
vt 0.589844 0.648438
vt 0.617188 0.570313
vt 0.562500 0.726563
vt 0.589844 0.648438
vt 0.617188 0.570313
vt 0.562500 0.726563
vt 0.589844 0.648438
vt 0.617188 0.570313
vt 0.562500 0.726563
vt 0.589844 0.648438
vt 0.617188 0.570313
vt 0.562500 0.726563
vt 0.589844 0.648438
vt 0.617188 0.570313
vt 0.562500 0.726563
vt 0.589844 0.648438
vt 0.617188 0.570313
v -0.803920 -0.357928 0.017500
v -0.711935 -0.517251 0.017500
v -0.702227 -0.510198 0.017500
v -0.792957 -0.353047 0.017500
v -0.803920 -0.357928 -0.017500
v -0.711935 -0.517251 -0.017500
v -0.702227 -0.510198 -0.017500
v -0.792957 -0.353047 -0.017500
vt 0.562500 0.726563
vt 0.589844 0.648438
vt 0.617188 0.570313
vt 0.562500 0.726563
vt 0.589844 0.648438
vt 0.617188 0.570313
vt 0.562500 0.726563
vt 0.589844 0.648438
vt 0.617188 0.570313
vt 0.562500 0.726563
vt 0.589844 0.648438
vt 0.617188 0.570313
vt 0.562500 0.726563
vt 0.589844 0.648438
vt 0.617188 0.570313
vt 0.562500 0.726563
vt 0.589844 0.648438
vt 0.617188 0.570313
vt 0.562500 0.726563
vt 0.589844 0.648438
vt 0.617188 0.570313
vt 0.562500 0.726563
vt 0.589844 0.648438
vt 0.617188 0.570313
vt 0.562500 0.726563
vt 0.589844 0.648438
vt 0.617188 0.570313
vt 0.562500 0.726563
vt 0.589844 0.648438
vt 0.617188 0.570313
vt 0.562500 0.726563
vt 0.589844 0.648438
vt 0.617188 0.570313
vt 0.562500 0.726563
vt 0.589844 0.648438
vt 0.617188 0.570313
v -0.711935 -0.517251 0.017500
v -0.588835 -0.653967 0.017500
v -0.580805 -0.645050 0.017500
v -0.702227 -0.510198 0.017500
v -0.711935 -0.517251 -0.017500
v -0.588835 -0.653967 -0.017500
v -0.580805 -0.645050 -0.017500
v -0.702227 -0.510198 -0.017500
vt 0.562500 0.726563
vt 0.589844 0.648438
vt 0.617188 0.570313
vt 0.562500 0.726563
vt 0.589844 0.648438
vt 0.617188 0.570313
vt 0.562500 0.726563
vt 0.589844 0.648438
vt 0.617188 0.570313
vt 0.562500 0.726563
vt 0.589844 0.648438
vt 0.617188 0.570313
vt 0.562500 0.726563
vt 0.589844 0.648438
vt 0.617188 0.570313
vt 0.562500 0.726563
vt 0.589844 0.648438
vt 0.617188 0.570313
vt 0.562500 0.726563
vt 0.589844 0.648438
vt 0.617188 0.570313
vt 0.562500 0.726563
vt 0.589844 0.648438
vt 0.617188 0.570313
vt 0.562500 0.726563
vt 0.589844 0.648438
vt 0.617188 0.570313
vt 0.562500 0.726563
vt 0.589844 0.648438
vt 0.617188 0.570313
vt 0.562500 0.726563
vt 0.589844 0.648438
vt 0.617188 0.570313
vt 0.562500 0.726563
vt 0.589844 0.648438
vt 0.617188 0.570313
v -0.588835 -0.653967 0.017500
v -0.440000 -0.762102 0.017500
v -0.434000 -0.751710 0.017500
v -0.580805 -0.645050 0.017500
v -0.588835 -0.653967 -0.017500
v -0.440000 -0.762102 -0.017500
v -0.434000 -0.751710 -0.017500
v -0.580805 -0.645050 -0.017500
vt 0.562500 0.726563
vt 0.589844 0.648438
vt 0.617188 0.570313
vt 0.562500 0.726563
vt 0.589844 0.648438
vt 0.617188 0.570313
vt 0.562500 0.726563
vt 0.589844 0.648438
vt 0.617188 0.570313
vt 0.562500 0.726563
vt 0.589844 0.648438
vt 0.617188 0.570313
vt 0.562500 0.726563
vt 0.589844 0.648438
vt 0.617188 0.570313
vt 0.562500 0.726563
vt 0.589844 0.648438
vt 0.617188 0.570313
vt 0.562500 0.726563
vt 0.589844 0.648438
vt 0.617188 0.570313
vt 0.562500 0.726563
vt 0.589844 0.648438
vt 0.617188 0.570313
vt 0.562500 0.726563
vt 0.589844 0.648438
vt 0.617188 0.570313
vt 0.562500 0.726563
vt 0.589844 0.648438
vt 0.617188 0.570313
vt 0.562500 0.726563
vt 0.589844 0.648438
vt 0.617188 0.570313
vt 0.562500 0.726563
vt 0.589844 0.648438
vt 0.617188 0.570313
v -0.271935 -0.836930 0.017500
v -0.091985 -0.875179 0.017500
v -0.090731 -0.863245 0.017500
v -0.268227 -0.825517 0.017500
v -0.271935 -0.836930 -0.017500
v -0.091985 -0.875179 -0.017500
v -0.090731 -0.863245 -0.017500
v -0.268227 -0.825517 -0.017500
vt 0.562500 0.726563
vt 0.589844 0.648438
vt 0.617188 0.570313
vt 0.562500 0.726563
vt 0.589844 0.648438
vt 0.617188 0.570313
vt 0.562500 0.726563
vt 0.589844 0.648438
vt 0.617188 0.570313
vt 0.562500 0.726563
vt 0.589844 0.648438
vt 0.617188 0.570313
vt 0.562500 0.726563
vt 0.589844 0.648438
vt 0.617188 0.570313
vt 0.562500 0.726563
vt 0.589844 0.648438
vt 0.617188 0.570313
vt 0.562500 0.726563
vt 0.589844 0.648438
vt 0.617188 0.570313
vt 0.562500 0.726563
vt 0.589844 0.648438
vt 0.617188 0.570313
vt 0.562500 0.726563
vt 0.589844 0.648438
vt 0.617188 0.570313
vt 0.562500 0.726563
vt 0.589844 0.648438
vt 0.617188 0.570313
vt 0.562500 0.726563
vt 0.589844 0.648438
vt 0.617188 0.570313
vt 0.562500 0.726563
vt 0.589844 0.648438
vt 0.617188 0.570313
v -0.091985 -0.875179 0.017500
v 0.091985 -0.875179 0.017500
v 0.090731 -0.863245 0.017500
v -0.090731 -0.863245 0.017500
v -0.091985 -0.875179 -0.017500
v 0.091985 -0.875179 -0.017500
v 0.090731 -0.863245 -0.017500
v -0.090731 -0.863245 -0.017500
vt 0.562500 0.726563
vt 0.589844 0.648438
vt 0.617188 0.570313
vt 0.562500 0.726563
vt 0.589844 0.648438
vt 0.617188 0.570313
vt 0.562500 0.726563
vt 0.589844 0.648438
vt 0.617188 0.570313
vt 0.562500 0.726563
vt 0.589844 0.648438
vt 0.617188 0.570313
vt 0.562500 0.726563
vt 0.589844 0.648438
vt 0.617188 0.570313
vt 0.562500 0.726563
vt 0.589844 0.648438
vt 0.617188 0.570313
vt 0.562500 0.726563
vt 0.589844 0.648438
vt 0.617188 0.570313
vt 0.562500 0.726563
vt 0.589844 0.648438
vt 0.617188 0.570313
vt 0.562500 0.726563
vt 0.589844 0.648438
vt 0.617188 0.570313
vt 0.562500 0.726563
vt 0.589844 0.648438
vt 0.617188 0.570313
vt 0.562500 0.726563
vt 0.589844 0.648438
vt 0.617188 0.570313
vt 0.562500 0.726563
vt 0.589844 0.648438
vt 0.617188 0.570313
v 0.091985 -0.875179 0.017500
v 0.271935 -0.836930 0.017500
v 0.268227 -0.825517 0.017500
v 0.090731 -0.863245 0.017500
v 0.091985 -0.875179 -0.017500
v 0.271935 -0.836930 -0.017500
v 0.268227 -0.825517 -0.017500
v 0.090731 -0.863245 -0.017500
vt 0.562500 0.726563
vt 0.589844 0.648438
vt 0.617188 0.570313
vt 0.562500 0.726563
vt 0.589844 0.648438
vt 0.617188 0.570313
vt 0.562500 0.726563
vt 0.589844 0.648438
vt 0.617188 0.570313
vt 0.562500 0.726563
vt 0.589844 0.648438
vt 0.617188 0.570313
vt 0.562500 0.726563
vt 0.589844 0.648438
vt 0.617188 0.570313
vt 0.562500 0.726563
vt 0.589844 0.648438
vt 0.617188 0.570313
vt 0.562500 0.726563
vt 0.589844 0.648438
vt 0.617188 0.570313
vt 0.562500 0.726563
vt 0.589844 0.648438
vt 0.617188 0.570313
vt 0.562500 0.726563
vt 0.589844 0.648438
vt 0.617188 0.570313
vt 0.562500 0.726563
vt 0.589844 0.648438
vt 0.617188 0.570313
vt 0.562500 0.726563
vt 0.589844 0.648438
vt 0.617188 0.570313
vt 0.562500 0.726563
vt 0.589844 0.648438
vt 0.617188 0.570313
v 0.271935 -0.836930 0.017500
v 0.440000 -0.762102 0.017500
v 0.434000 -0.751710 0.017500
v 0.268227 -0.825517 0.017500
v 0.271935 -0.836930 -0.017500
v 0.440000 -0.762102 -0.017500
v 0.434000 -0.751710 -0.017500
v 0.268227 -0.825517 -0.017500
vt 0.562500 0.726563
vt 0.589844 0.648438
vt 0.617188 0.570313
vt 0.562500 0.726563
vt 0.589844 0.648438
vt 0.617188 0.570313
vt 0.562500 0.726563
vt 0.589844 0.648438
vt 0.617188 0.570313
vt 0.562500 0.726563
vt 0.589844 0.648438
vt 0.617188 0.570313
vt 0.562500 0.726563
vt 0.589844 0.648438
vt 0.617188 0.570313
vt 0.562500 0.726563
vt 0.589844 0.648438
vt 0.617188 0.570313
vt 0.562500 0.726563
vt 0.589844 0.648438
vt 0.617188 0.570313
vt 0.562500 0.726563
vt 0.589844 0.648438
vt 0.617188 0.570313
vt 0.562500 0.726563
vt 0.589844 0.648438
vt 0.617188 0.570313
vt 0.562500 0.726563
vt 0.589844 0.648438
vt 0.617188 0.570313
vt 0.562500 0.726563
vt 0.589844 0.648438
vt 0.617188 0.570313
vt 0.562500 0.726563
vt 0.589844 0.648438
vt 0.617188 0.570313
v 0.440000 -0.762102 0.017500
v 0.588835 -0.653967 0.017500
v 0.580805 -0.645050 0.017500
v 0.434000 -0.751710 0.017500
v 0.440000 -0.762102 -0.017500
v 0.588835 -0.653967 -0.017500
v 0.580805 -0.645050 -0.017500
v 0.434000 -0.751710 -0.017500
vt 0.562500 0.726563
vt 0.589844 0.648438
vt 0.617188 0.570313
vt 0.562500 0.726563
vt 0.589844 0.648438
vt 0.617188 0.570313
vt 0.562500 0.726563
vt 0.589844 0.648438
vt 0.617188 0.570313
vt 0.562500 0.726563
vt 0.589844 0.648438
vt 0.617188 0.570313
vt 0.562500 0.726563
vt 0.589844 0.648438
vt 0.617188 0.570313
vt 0.562500 0.726563
vt 0.589844 0.648438
vt 0.617188 0.570313
vt 0.562500 0.726563
vt 0.589844 0.648438
vt 0.617188 0.570313
vt 0.562500 0.726563
vt 0.589844 0.648438
vt 0.617188 0.570313
vt 0.562500 0.726563
vt 0.589844 0.648438
vt 0.617188 0.570313
vt 0.562500 0.726563
vt 0.589844 0.648438
vt 0.617188 0.570313
vt 0.562500 0.726563
vt 0.589844 0.648438
vt 0.617188 0.570313
vt 0.562500 0.726563
vt 0.589844 0.648438
vt 0.617188 0.570313
v 0.588835 -0.653967 0.017500
v 0.711935 -0.517251 0.017500
v 0.702227 -0.510198 0.017500
v 0.580805 -0.645050 0.017500
v 0.588835 -0.653967 -0.017500
v 0.711935 -0.517251 -0.017500
v 0.702227 -0.510198 -0.017500
v 0.580805 -0.645050 -0.017500
vt 0.562500 0.726563
vt 0.589844 0.648438
vt 0.617188 0.570313
vt 0.562500 0.726563
vt 0.589844 0.648438
vt 0.617188 0.570313
vt 0.562500 0.726563
vt 0.589844 0.648438
vt 0.617188 0.570313
vt 0.562500 0.726563
vt 0.589844 0.648438
vt 0.617188 0.570313
vt 0.562500 0.726563
vt 0.589844 0.648438
vt 0.617188 0.570313
vt 0.562500 0.726563
vt 0.589844 0.648438
vt 0.617188 0.570313
vt 0.562500 0.726563
vt 0.589844 0.648438
vt 0.617188 0.570313
vt 0.562500 0.726563
vt 0.589844 0.648438
vt 0.617188 0.570313
vt 0.562500 0.726563
vt 0.589844 0.648438
vt 0.617188 0.570313
vt 0.562500 0.726563
vt 0.589844 0.648438
vt 0.617188 0.570313
vt 0.562500 0.726563
vt 0.589844 0.648438
vt 0.617188 0.570313
vt 0.562500 0.726563
vt 0.589844 0.648438
vt 0.617188 0.570313
v 0.711935 -0.517251 0.017500
v 0.803920 -0.357928 0.017500
v 0.792957 -0.353047 0.017500
v 0.702227 -0.510198 0.017500
v 0.711935 -0.517251 -0.017500
v 0.803920 -0.357928 -0.017500
v 0.792957 -0.353047 -0.017500
v 0.702227 -0.510198 -0.017500
vt 0.562500 0.726563
vt 0.589844 0.648438
vt 0.617188 0.570313
vt 0.562500 0.726563
vt 0.589844 0.648438
vt 0.617188 0.570313
vt 0.562500 0.726563
vt 0.589844 0.648438
vt 0.617188 0.570313
vt 0.562500 0.726563
vt 0.589844 0.648438
vt 0.617188 0.570313
vt 0.562500 0.726563
vt 0.589844 0.648438
vt 0.617188 0.570313
vt 0.562500 0.726563
vt 0.589844 0.648438
vt 0.617188 0.570313
vt 0.562500 0.726563
vt 0.589844 0.648438
vt 0.617188 0.570313
vt 0.562500 0.726563
vt 0.589844 0.648438
vt 0.617188 0.570313
vt 0.562500 0.726563
vt 0.589844 0.648438
vt 0.617188 0.570313
vt 0.562500 0.726563
vt 0.589844 0.648438
vt 0.617188 0.570313
vt 0.562500 0.726563
vt 0.589844 0.648438
vt 0.617188 0.570313
vt 0.562500 0.726563
vt 0.589844 0.648438
vt 0.617188 0.570313
v 0.803920 -0.357928 0.017500
v 0.860770 -0.182962 0.017500
v 0.849032 -0.180467 0.017500
v 0.792957 -0.353047 0.017500
v 0.803920 -0.357928 -0.017500
v 0.860770 -0.182962 -0.017500
v 0.849032 -0.180467 -0.017500
v 0.792957 -0.353047 -0.017500
vt 0.562500 0.726563
vt 0.589844 0.648438
vt 0.617188 0.570313
vt 0.562500 0.726563
vt 0.589844 0.648438
vt 0.617188 0.570313
vt 0.562500 0.726563
vt 0.589844 0.648438
vt 0.617188 0.570313
vt 0.562500 0.726563
vt 0.589844 0.648438
vt 0.617188 0.570313
vt 0.562500 0.726563
vt 0.589844 0.648438
vt 0.617188 0.570313
vt 0.562500 0.726563
vt 0.589844 0.648438
vt 0.617188 0.570313
vt 0.562500 0.726563
vt 0.589844 0.648438
vt 0.617188 0.570313
vt 0.562500 0.726563
vt 0.589844 0.648438
vt 0.617188 0.570313
vt 0.562500 0.726563
vt 0.589844 0.648438
vt 0.617188 0.570313
vt 0.562500 0.726563
vt 0.589844 0.648438
vt 0.617188 0.570313
vt 0.562500 0.726563
vt 0.589844 0.648438
vt 0.617188 0.570313
vt 0.562500 0.726563
vt 0.589844 0.648438
vt 0.617188 0.570313
v 0.860770 -0.182962 0.017500
v 0.880000 -0.000000 0.017500
v 0.868000 -0.000000 0.017500
v 0.849032 -0.180467 0.017500
v 0.860770 -0.182962 -0.017500
v 0.880000 -0.000000 -0.017500
v 0.868000 -0.000000 -0.017500
v 0.849032 -0.180467 -0.017500
vt 0.562500 0.726563
vt 0.589844 0.648438
vt 0.617188 0.570313
vt 0.562500 0.726563
vt 0.589844 0.648438
vt 0.617188 0.570313
vt 0.562500 0.726563
vt 0.589844 0.648438
vt 0.617188 0.570313
vt 0.562500 0.726563
vt 0.589844 0.648438
vt 0.617188 0.570313
vt 0.562500 0.726563
vt 0.589844 0.648438
vt 0.617188 0.570313
vt 0.562500 0.726563
vt 0.589844 0.648438
vt 0.617188 0.570313
vt 0.562500 0.726563
vt 0.589844 0.648438
vt 0.617188 0.570313
vt 0.562500 0.726563
vt 0.589844 0.648438
vt 0.617188 0.570313
vt 0.562500 0.726563
vt 0.589844 0.648438
vt 0.617188 0.570313
vt 0.562500 0.726563
vt 0.589844 0.648438
vt 0.617188 0.570313
vt 0.562500 0.726563
vt 0.589844 0.648438
vt 0.617188 0.570313
vt 0.562500 0.726563
vt 0.589844 0.648438
vt 0.617188 0.570313
v 0.015156 0.991250 0.015000
v -0.850844 -0.508750 0.015000
v -0.881156 -0.491250 0.015000
v -0.015156 1.008750 0.015000
v 0.015156 0.991250 -0.015000
v -0.850844 -0.508750 -0.015000
v -0.881156 -0.491250 -0.015000
v -0.015156 1.008750 -0.015000
vt 0.312500 0.726563
vt 0.339844 0.648438
vt 0.367188 0.570313
vt 0.312500 0.726563
vt 0.339844 0.648438
vt 0.367188 0.570313
vt 0.312500 0.726563
vt 0.339844 0.648438
vt 0.367188 0.570313
vt 0.312500 0.726563
vt 0.339844 0.648438
vt 0.367188 0.570313
vt 0.312500 0.726563
vt 0.339844 0.648438
vt 0.367188 0.570313
vt 0.312500 0.726563
vt 0.339844 0.648438
vt 0.367188 0.570313
vt 0.312500 0.726563
vt 0.339844 0.648438
vt 0.367188 0.570313
vt 0.312500 0.726563
vt 0.339844 0.648438
vt 0.367188 0.570313
vt 0.312500 0.726563
vt 0.339844 0.648438
vt 0.367188 0.570313
vt 0.312500 0.726563
vt 0.339844 0.648438
vt 0.367188 0.570313
vt 0.312500 0.726563
vt 0.339844 0.648438
vt 0.367188 0.570313
vt 0.312500 0.726563
vt 0.339844 0.648438
vt 0.367188 0.570313
v -0.866000 -0.482500 0.015000
v 0.866000 -0.482500 0.015000
v 0.866000 -0.517500 0.015000
v -0.866000 -0.517500 0.015000
v -0.866000 -0.482500 -0.015000
v 0.866000 -0.482500 -0.015000
v 0.866000 -0.517500 -0.015000
v -0.866000 -0.517500 -0.015000
vt 0.312500 0.726563
vt 0.339844 0.648438
vt 0.367188 0.570313
vt 0.312500 0.726563
vt 0.339844 0.648438
vt 0.367188 0.570313
vt 0.312500 0.726563
vt 0.339844 0.648438
vt 0.367188 0.570313
vt 0.312500 0.726563
vt 0.339844 0.648438
vt 0.367188 0.570313
vt 0.312500 0.726563
vt 0.339844 0.648438
vt 0.367188 0.570313
vt 0.312500 0.726563
vt 0.339844 0.648438
vt 0.367188 0.570313
vt 0.312500 0.726563
vt 0.339844 0.648438
vt 0.367188 0.570313
vt 0.312500 0.726563
vt 0.339844 0.648438
vt 0.367188 0.570313
vt 0.312500 0.726563
vt 0.339844 0.648438
vt 0.367188 0.570313
vt 0.312500 0.726563
vt 0.339844 0.648438
vt 0.367188 0.570313
vt 0.312500 0.726563
vt 0.339844 0.648438
vt 0.367188 0.570313
vt 0.312500 0.726563
vt 0.339844 0.648438
vt 0.367188 0.570313
v 0.850844 -0.508750 0.015000
v -0.015156 0.991250 0.015000
v 0.015156 1.008750 0.015000
v 0.881156 -0.491250 0.015000
v 0.850844 -0.508750 -0.015000
v -0.015156 0.991250 -0.015000
v 0.015156 1.008750 -0.015000
v 0.881156 -0.491250 -0.015000
vt 0.312500 0.726563
vt 0.339844 0.648438
vt 0.367188 0.570313
vt 0.312500 0.726563
vt 0.339844 0.648438
vt 0.367188 0.570313
vt 0.312500 0.726563
vt 0.339844 0.648438
vt 0.367188 0.570313
vt 0.312500 0.726563
vt 0.339844 0.648438
vt 0.367188 0.570313
vt 0.312500 0.726563
vt 0.339844 0.648438
vt 0.367188 0.570313
vt 0.312500 0.726563
vt 0.339844 0.648438
vt 0.367188 0.570313
vt 0.312500 0.726563
vt 0.339844 0.648438
vt 0.367188 0.570313
vt 0.312500 0.726563
vt 0.339844 0.648438
vt 0.367188 0.570313
vt 0.312500 0.726563
vt 0.339844 0.648438
vt 0.367188 0.570313
vt 0.312500 0.726563
vt 0.339844 0.648438
vt 0.367188 0.570313
vt 0.312500 0.726563
vt 0.339844 0.648438
vt 0.367188 0.570313
vt 0.312500 0.726563
vt 0.339844 0.648438
vt 0.367188 0.570313
v 0.920000 0.000000 0.022500
v 1.090000 -0.040000 0.022500
v 1.140000 0.000000 0.022500
v 1.040000 0.055000 0.022500
v 0.920000 0.000000 -0.022500
v 1.090000 -0.040000 -0.022500
v 1.140000 0.000000 -0.022500
v 1.040000 0.055000 -0.022500
vt 0.562500 0.726563
vt 0.589844 0.648438
vt 0.617188 0.570313
vt 0.562500 0.726563
vt 0.589844 0.648438
vt 0.617188 0.570313
vt 0.562500 0.726563
vt 0.589844 0.648438
vt 0.617188 0.570313
vt 0.562500 0.726563
vt 0.589844 0.648438
vt 0.617188 0.570313
vt 0.562500 0.726563
vt 0.589844 0.648438
vt 0.617188 0.570313
vt 0.562500 0.726563
vt 0.589844 0.648438
vt 0.617188 0.570313
vt 0.562500 0.726563
vt 0.589844 0.648438
vt 0.617188 0.570313
vt 0.562500 0.726563
vt 0.589844 0.648438
vt 0.617188 0.570313
vt 0.562500 0.726563
vt 0.589844 0.648438
vt 0.617188 0.570313
vt 0.562500 0.726563
vt 0.589844 0.648438
vt 0.617188 0.570313
vt 0.562500 0.726563
vt 0.589844 0.648438
vt 0.617188 0.570313
vt 0.562500 0.726563
vt 0.589844 0.648438
vt 0.617188 0.570313
v 0.460000 0.796743 0.022500
v 0.579641 0.923968 0.022500
v 0.570000 0.987269 0.022500
v 0.472369 0.928166 0.022500
v 0.460000 0.796743 -0.022500
v 0.579641 0.923968 -0.022500
v 0.570000 0.987269 -0.022500
v 0.472369 0.928166 -0.022500
vt 0.562500 0.726563
vt 0.589844 0.648438
vt 0.617188 0.570313
vt 0.562500 0.726563
vt 0.589844 0.648438
vt 0.617188 0.570313
vt 0.562500 0.726563
vt 0.589844 0.648438
vt 0.617188 0.570313
vt 0.562500 0.726563
vt 0.589844 0.648438
vt 0.617188 0.570313
vt 0.562500 0.726563
vt 0.589844 0.648438
vt 0.617188 0.570313
vt 0.562500 0.726563
vt 0.589844 0.648438
vt 0.617188 0.570313
vt 0.562500 0.726563
vt 0.589844 0.648438
vt 0.617188 0.570313
vt 0.562500 0.726563
vt 0.589844 0.648438
vt 0.617188 0.570313
vt 0.562500 0.726563
vt 0.589844 0.648438
vt 0.617188 0.570313
vt 0.562500 0.726563
vt 0.589844 0.648438
vt 0.617188 0.570313
vt 0.562500 0.726563
vt 0.589844 0.648438
vt 0.617188 0.570313
vt 0.562500 0.726563
vt 0.589844 0.648438
vt 0.617188 0.570313
v -0.460000 0.796743 0.022500
v -0.510359 0.963968 0.022500
v -0.570000 0.987269 0.022500
v -0.567631 0.873166 0.022500
v -0.460000 0.796743 -0.022500
v -0.510359 0.963968 -0.022500
v -0.570000 0.987269 -0.022500
v -0.567631 0.873166 -0.022500
vt 0.562500 0.726563
vt 0.589844 0.648438
vt 0.617188 0.570313
vt 0.562500 0.726563
vt 0.589844 0.648438
vt 0.617188 0.570313
vt 0.562500 0.726563
vt 0.589844 0.648438
vt 0.617188 0.570313
vt 0.562500 0.726563
vt 0.589844 0.648438
vt 0.617188 0.570313
vt 0.562500 0.726563
vt 0.589844 0.648438
vt 0.617188 0.570313
vt 0.562500 0.726563
vt 0.589844 0.648438
vt 0.617188 0.570313
vt 0.562500 0.726563
vt 0.589844 0.648438
vt 0.617188 0.570313
vt 0.562500 0.726563
vt 0.589844 0.648438
vt 0.617188 0.570313
vt 0.562500 0.726563
vt 0.589844 0.648438
vt 0.617188 0.570313
vt 0.562500 0.726563
vt 0.589844 0.648438
vt 0.617188 0.570313
vt 0.562500 0.726563
vt 0.589844 0.648438
vt 0.617188 0.570313
vt 0.562500 0.726563
vt 0.589844 0.648438
vt 0.617188 0.570313
v -0.920000 0.000000 0.022500
v -1.090000 0.040000 0.022500
v -1.140000 0.000000 0.022500
v -1.040000 -0.055000 0.022500
v -0.920000 0.000000 -0.022500
v -1.090000 0.040000 -0.022500
v -1.140000 0.000000 -0.022500
v -1.040000 -0.055000 -0.022500
vt 0.562500 0.726563
vt 0.589844 0.648438
vt 0.617188 0.570313
vt 0.562500 0.726563
vt 0.589844 0.648438
vt 0.617188 0.570313
vt 0.562500 0.726563
vt 0.589844 0.648438
vt 0.617188 0.570313
vt 0.562500 0.726563
vt 0.589844 0.648438
vt 0.617188 0.570313
vt 0.562500 0.726563
vt 0.589844 0.648438
vt 0.617188 0.570313
vt 0.562500 0.726563
vt 0.589844 0.648438
vt 0.617188 0.570313
vt 0.562500 0.726563
vt 0.589844 0.648438
vt 0.617188 0.570313
vt 0.562500 0.726563
vt 0.589844 0.648438
vt 0.617188 0.570313
vt 0.562500 0.726563
vt 0.589844 0.648438
vt 0.617188 0.570313
vt 0.562500 0.726563
vt 0.589844 0.648438
vt 0.617188 0.570313
vt 0.562500 0.726563
vt 0.589844 0.648438
vt 0.617188 0.570313
vt 0.562500 0.726563
vt 0.589844 0.648438
vt 0.617188 0.570313
v -0.460000 -0.796743 0.022500
v -0.579641 -0.923968 0.022500
v -0.570000 -0.987269 0.022500
v -0.472369 -0.928166 0.022500
v -0.460000 -0.796743 -0.022500
v -0.579641 -0.923968 -0.022500
v -0.570000 -0.987269 -0.022500
v -0.472369 -0.928166 -0.022500
vt 0.562500 0.726563
vt 0.589844 0.648438
vt 0.617188 0.570313
vt 0.562500 0.726563
vt 0.589844 0.648438
vt 0.617188 0.570313
vt 0.562500 0.726563
vt 0.589844 0.648438
vt 0.617188 0.570313
vt 0.562500 0.726563
vt 0.589844 0.648438
vt 0.617188 0.570313
vt 0.562500 0.726563
vt 0.589844 0.648438
vt 0.617188 0.570313
vt 0.562500 0.726563
vt 0.589844 0.648438
vt 0.617188 0.570313
vt 0.562500 0.726563
vt 0.589844 0.648438
vt 0.617188 0.570313
vt 0.562500 0.726563
vt 0.589844 0.648438
vt 0.617188 0.570313
vt 0.562500 0.726563
vt 0.589844 0.648438
vt 0.617188 0.570313
vt 0.562500 0.726563
vt 0.589844 0.648438
vt 0.617188 0.570313
vt 0.562500 0.726563
vt 0.589844 0.648438
vt 0.617188 0.570313
vt 0.562500 0.726563
vt 0.589844 0.648438
vt 0.617188 0.570313
v 0.460000 -0.796743 0.022500
v 0.510359 -0.963968 0.022500
v 0.570000 -0.987269 0.022500
v 0.567631 -0.873166 0.022500
v 0.460000 -0.796743 -0.022500
v 0.510359 -0.963968 -0.022500
v 0.570000 -0.987269 -0.022500
v 0.567631 -0.873166 -0.022500
vt 0.562500 0.726563
vt 0.589844 0.648438
vt 0.617188 0.570313
vt 0.562500 0.726563
vt 0.589844 0.648438
vt 0.617188 0.570313
vt 0.562500 0.726563
vt 0.589844 0.648438
vt 0.617188 0.570313
vt 0.562500 0.726563
vt 0.589844 0.648438
vt 0.617188 0.570313
vt 0.562500 0.726563
vt 0.589844 0.648438
vt 0.617188 0.570313
vt 0.562500 0.726563
vt 0.589844 0.648438
vt 0.617188 0.570313
vt 0.562500 0.726563
vt 0.589844 0.648438
vt 0.617188 0.570313
vt 0.562500 0.726563
vt 0.589844 0.648438
vt 0.617188 0.570313
vt 0.562500 0.726563
vt 0.589844 0.648438
vt 0.617188 0.570313
vt 0.562500 0.726563
vt 0.589844 0.648438
vt 0.617188 0.570313
vt 0.562500 0.726563
vt 0.589844 0.648438
vt 0.617188 0.570313
vt 0.562500 0.726563
vt 0.589844 0.648438
vt 0.617188 0.570313
g body
f 3/1 4/2 1/3
f 5/4 8/5 7/6
f 1/7 2/8 3/9
f 7/10 6/11 5/12
f 1/13 5/14 6/15
f 1/16 6/17 2/18
f 2/19 6/20 7/21
f 2/22 7/23 3/24
f 3/25 7/26 8/27
f 3/28 8/29 4/30
f 4/31 8/32 5/33
f 4/34 5/35 1/36
f 11/37 12/38 9/39
f 13/40 16/41 15/42
f 9/43 10/44 11/45
f 15/46 14/47 13/48
f 9/49 13/50 14/51
f 9/52 14/53 10/54
f 10/55 14/56 15/57
f 10/58 15/59 11/60
f 11/61 15/62 16/63
f 11/64 16/65 12/66
f 12/67 16/68 13/69
f 12/70 13/71 9/72
f 19/73 20/74 17/75
f 21/76 24/77 23/78
f 17/79 18/80 19/81
f 23/82 22/83 21/84
f 17/85 21/86 22/87
f 17/88 22/89 18/90
f 18/91 22/92 23/93
f 18/94 23/95 19/96
f 19/97 23/98 24/99
f 19/100 24/101 20/102
f 20/103 24/104 21/105
f 20/106 21/107 17/108
f 27/109 28/110 25/111
f 29/112 32/113 31/114
f 25/115 26/116 27/117
f 31/118 30/119 29/120
f 25/121 29/122 30/123
f 25/124 30/125 26/126
f 26/127 30/128 31/129
f 26/130 31/131 27/132
f 27/133 31/134 32/135
f 27/136 32/137 28/138
f 28/139 32/140 29/141
f 28/142 29/143 25/144
f 35/145 36/146 33/147
f 37/148 40/149 39/150
f 33/151 34/152 35/153
f 39/154 38/155 37/156
f 33/157 37/158 38/159
f 33/160 38/161 34/162
f 34/163 38/164 39/165
f 34/166 39/167 35/168
f 35/169 39/170 40/171
f 35/172 40/173 36/174
f 36/175 40/176 37/177
f 36/178 37/179 33/180
f 43/181 44/182 41/183
f 45/184 48/185 47/186
f 41/187 42/188 43/189
f 47/190 46/191 45/192
f 41/193 45/194 46/195
f 41/196 46/197 42/198
f 42/199 46/200 47/201
f 42/202 47/203 43/204
f 43/205 47/206 48/207
f 43/208 48/209 44/210
f 44/211 48/212 45/213
f 44/214 45/215 41/216
f 51/217 52/218 49/219
f 53/220 56/221 55/222
f 49/223 50/224 51/225
f 55/226 54/227 53/228
f 49/229 53/230 54/231
f 49/232 54/233 50/234
f 50/235 54/236 55/237
f 50/238 55/239 51/240
f 51/241 55/242 56/243
f 51/244 56/245 52/246
f 52/247 56/248 53/249
f 52/250 53/251 49/252
f 59/253 60/254 57/255
f 61/256 64/257 63/258
f 57/259 58/260 59/261
f 63/262 62/263 61/264
f 57/265 61/266 62/267
f 57/268 62/269 58/270
f 58/271 62/272 63/273
f 58/274 63/275 59/276
f 59/277 63/278 64/279
f 59/280 64/281 60/282
f 60/283 64/284 61/285
f 60/286 61/287 57/288
f 67/289 68/290 65/291
f 69/292 72/293 71/294
f 65/295 66/296 67/297
f 71/298 70/299 69/300
f 65/301 69/302 70/303
f 65/304 70/305 66/306
f 66/307 70/308 71/309
f 66/310 71/311 67/312
f 67/313 71/314 72/315
f 67/316 72/317 68/318
f 68/319 72/320 69/321
f 68/322 69/323 65/324
f 75/325 76/326 73/327
f 77/328 80/329 79/330
f 73/331 74/332 75/333
f 79/334 78/335 77/336
f 73/337 77/338 78/339
f 73/340 78/341 74/342
f 74/343 78/344 79/345
f 74/346 79/347 75/348
f 75/349 79/350 80/351
f 75/352 80/353 76/354
f 76/355 80/356 77/357
f 76/358 77/359 73/360
f 83/361 84/362 81/363
f 85/364 88/365 87/366
f 81/367 82/368 83/369
f 87/370 86/371 85/372
f 81/373 85/374 86/375
f 81/376 86/377 82/378
f 82/379 86/380 87/381
f 82/382 87/383 83/384
f 83/385 87/386 88/387
f 83/388 88/389 84/390
f 84/391 88/392 85/393
f 84/394 85/395 81/396
f 91/397 92/398 89/399
f 93/400 96/401 95/402
f 89/403 90/404 91/405
f 95/406 94/407 93/408
f 89/409 93/410 94/411
f 89/412 94/413 90/414
f 90/415 94/416 95/417
f 90/418 95/419 91/420
f 91/421 95/422 96/423
f 91/424 96/425 92/426
f 92/427 96/428 93/429
f 92/430 93/431 89/432
f 99/433 100/434 97/435
f 101/436 104/437 103/438
f 97/439 98/440 99/441
f 103/442 102/443 101/444
f 97/445 101/446 102/447
f 97/448 102/449 98/450
f 98/451 102/452 103/453
f 98/454 103/455 99/456
f 99/457 103/458 104/459
f 99/460 104/461 100/462
f 100/463 104/464 101/465
f 100/466 101/467 97/468
f 107/469 108/470 105/471
f 109/472 112/473 111/474
f 105/475 106/476 107/477
f 111/478 110/479 109/480
f 105/481 109/482 110/483
f 105/484 110/485 106/486
f 106/487 110/488 111/489
f 106/490 111/491 107/492
f 107/493 111/494 112/495
f 107/496 112/497 108/498
f 108/499 112/500 109/501
f 108/502 109/503 105/504
f 115/505 116/506 113/507
f 117/508 120/509 119/510
f 113/511 114/512 115/513
f 119/514 118/515 117/516
f 113/517 117/518 118/519
f 113/520 118/521 114/522
f 114/523 118/524 119/525
f 114/526 119/527 115/528
f 115/529 119/530 120/531
f 115/532 120/533 116/534
f 116/535 120/536 117/537
f 116/538 117/539 113/540
f 123/541 124/542 121/543
f 125/544 128/545 127/546
f 121/547 122/548 123/549
f 127/550 126/551 125/552
f 121/553 125/554 126/555
f 121/556 126/557 122/558
f 122/559 126/560 127/561
f 122/562 127/563 123/564
f 123/565 127/566 128/567
f 123/568 128/569 124/570
f 124/571 128/572 125/573
f 124/574 125/575 121/576
f 131/577 132/578 129/579
f 133/580 136/581 135/582
f 129/583 130/584 131/585
f 135/586 134/587 133/588
f 129/589 133/590 134/591
f 129/592 134/593 130/594
f 130/595 134/596 135/597
f 130/598 135/599 131/600
f 131/601 135/602 136/603
f 131/604 136/605 132/606
f 132/607 136/608 133/609
f 132/610 133/611 129/612
f 139/613 140/614 137/615
f 141/616 144/617 143/618
f 137/619 138/620 139/621
f 143/622 142/623 141/624
f 137/625 141/626 142/627
f 137/628 142/629 138/630
f 138/631 142/632 143/633
f 138/634 143/635 139/636
f 139/637 143/638 144/639
f 139/640 144/641 140/642
f 140/643 144/644 141/645
f 140/646 141/647 137/648
f 147/649 148/650 145/651
f 149/652 152/653 151/654
f 145/655 146/656 147/657
f 151/658 150/659 149/660
f 145/661 149/662 150/663
f 145/664 150/665 146/666
f 146/667 150/668 151/669
f 146/670 151/671 147/672
f 147/673 151/674 152/675
f 147/676 152/677 148/678
f 148/679 152/680 149/681
f 148/682 149/683 145/684
f 155/685 156/686 153/687
f 157/688 160/689 159/690
f 153/691 154/692 155/693
f 159/694 158/695 157/696
f 153/697 157/698 158/699
f 153/700 158/701 154/702
f 154/703 158/704 159/705
f 154/706 159/707 155/708
f 155/709 159/710 160/711
f 155/712 160/713 156/714
f 156/715 160/716 157/717
f 156/718 157/719 153/720
f 163/721 164/722 161/723
f 165/724 168/725 167/726
f 161/727 162/728 163/729
f 167/730 166/731 165/732
f 161/733 165/734 166/735
f 161/736 166/737 162/738
f 162/739 166/740 167/741
f 162/742 167/743 163/744
f 163/745 167/746 168/747
f 163/748 168/749 164/750
f 164/751 168/752 165/753
f 164/754 165/755 161/756
f 171/757 172/758 169/759
f 173/760 176/761 175/762
f 169/763 170/764 171/765
f 175/766 174/767 173/768
f 169/769 173/770 174/771
f 169/772 174/773 170/774
f 170/775 174/776 175/777
f 170/778 175/779 171/780
f 171/781 175/782 176/783
f 171/784 176/785 172/786
f 172/787 176/788 173/789
f 172/790 173/791 169/792
f 179/793 180/794 177/795
f 181/796 184/797 183/798
f 177/799 178/800 179/801
f 183/802 182/803 181/804
f 177/805 181/806 182/807
f 177/808 182/809 178/810
f 178/811 182/812 183/813
f 178/814 183/815 179/816
f 179/817 183/818 184/819
f 179/820 184/821 180/822
f 180/823 184/824 181/825
f 180/826 181/827 177/828
f 187/829 188/830 185/831
f 189/832 192/833 191/834
f 185/835 186/836 187/837
f 191/838 190/839 189/840
f 185/841 189/842 190/843
f 185/844 190/845 186/846
f 186/847 190/848 191/849
f 186/850 191/851 187/852
f 187/853 191/854 192/855
f 187/856 192/857 188/858
f 188/859 192/860 189/861
f 188/862 189/863 185/864
f 195/865 196/866 193/867
f 197/868 200/869 199/870
f 193/871 194/872 195/873
f 199/874 198/875 197/876
f 193/877 197/878 198/879
f 193/880 198/881 194/882
f 194/883 198/884 199/885
f 194/886 199/887 195/888
f 195/889 199/890 200/891
f 195/892 200/893 196/894
f 196/895 200/896 197/897
f 196/898 197/899 193/900
f 203/901 204/902 201/903
f 205/904 208/905 207/906
f 201/907 202/908 203/909
f 207/910 206/911 205/912
f 201/913 205/914 206/915
f 201/916 206/917 202/918
f 202/919 206/920 207/921
f 202/922 207/923 203/924
f 203/925 207/926 208/927
f 203/928 208/929 204/930
f 204/931 208/932 205/933
f 204/934 205/935 201/936
f 211/937 212/938 209/939
f 213/940 216/941 215/942
f 209/943 210/944 211/945
f 215/946 214/947 213/948
f 209/949 213/950 214/951
f 209/952 214/953 210/954
f 210/955 214/956 215/957
f 210/958 215/959 211/960
f 211/961 215/962 216/963
f 211/964 216/965 212/966
f 212/967 216/968 213/969
f 212/970 213/971 209/972
g gold
f 219/973 220/974 217/975
f 221/976 224/977 223/978
f 217/979 218/980 219/981
f 223/982 222/983 221/984
f 217/985 221/986 222/987
f 217/988 222/989 218/990
f 218/991 222/992 223/993
f 218/994 223/995 219/996
f 219/997 223/998 224/999
f 219/1000 224/1001 220/1002
f 220/1003 224/1004 221/1005
f 220/1006 221/1007 217/1008
f 227/1009 228/1010 225/1011
f 229/1012 232/1013 231/1014
f 225/1015 226/1016 227/1017
f 231/1018 230/1019 229/1020
f 225/1021 229/1022 230/1023
f 225/1024 230/1025 226/1026
f 226/1027 230/1028 231/1029
f 226/1030 231/1031 227/1032
f 227/1033 231/1034 232/1035
f 227/1036 232/1037 228/1038
f 228/1039 232/1040 229/1041
f 228/1042 229/1043 225/1044
f 235/1045 236/1046 233/1047
f 237/1048 240/1049 239/1050
f 233/1051 234/1052 235/1053
f 239/1054 238/1055 237/1056
f 233/1057 237/1058 238/1059
f 233/1060 238/1061 234/1062
f 234/1063 238/1064 239/1065
f 234/1066 239/1067 235/1068
f 235/1069 239/1070 240/1071
f 235/1072 240/1073 236/1074
f 236/1075 240/1076 237/1077
f 236/1078 237/1079 233/1080
f 243/1081 244/1082 241/1083
f 245/1084 248/1085 247/1086
f 241/1087 242/1088 243/1089
f 247/1090 246/1091 245/1092
f 241/1093 245/1094 246/1095
f 241/1096 246/1097 242/1098
f 242/1099 246/1100 247/1101
f 242/1102 247/1103 243/1104
f 243/1105 247/1106 248/1107
f 243/1108 248/1109 244/1110
f 244/1111 248/1112 245/1113
f 244/1114 245/1115 241/1116
f 251/1117 252/1118 249/1119
f 253/1120 256/1121 255/1122
f 249/1123 250/1124 251/1125
f 255/1126 254/1127 253/1128
f 249/1129 253/1130 254/1131
f 249/1132 254/1133 250/1134
f 250/1135 254/1136 255/1137
f 250/1138 255/1139 251/1140
f 251/1141 255/1142 256/1143
f 251/1144 256/1145 252/1146
f 252/1147 256/1148 253/1149
f 252/1150 253/1151 249/1152
f 259/1153 260/1154 257/1155
f 261/1156 264/1157 263/1158
f 257/1159 258/1160 259/1161
f 263/1162 262/1163 261/1164
f 257/1165 261/1166 262/1167
f 257/1168 262/1169 258/1170
f 258/1171 262/1172 263/1173
f 258/1174 263/1175 259/1176
f 259/1177 263/1178 264/1179
f 259/1180 264/1181 260/1182
f 260/1183 264/1184 261/1185
f 260/1186 261/1187 257/1188
f 267/1189 268/1190 265/1191
f 269/1192 272/1193 271/1194
f 265/1195 266/1196 267/1197
f 271/1198 270/1199 269/1200
f 265/1201 269/1202 270/1203
f 265/1204 270/1205 266/1206
f 266/1207 270/1208 271/1209
f 266/1210 271/1211 267/1212
f 267/1213 271/1214 272/1215
f 267/1216 272/1217 268/1218
f 268/1219 272/1220 269/1221
f 268/1222 269/1223 265/1224
f 275/1225 276/1226 273/1227
f 277/1228 280/1229 279/1230
f 273/1231 274/1232 275/1233
f 279/1234 278/1235 277/1236
f 273/1237 277/1238 278/1239
f 273/1240 278/1241 274/1242
f 274/1243 278/1244 279/1245
f 274/1246 279/1247 275/1248
f 275/1249 279/1250 280/1251
f 275/1252 280/1253 276/1254
f 276/1255 280/1256 277/1257
f 276/1258 277/1259 273/1260
f 283/1261 284/1262 281/1263
f 285/1264 288/1265 287/1266
f 281/1267 282/1268 283/1269
f 287/1270 286/1271 285/1272
f 281/1273 285/1274 286/1275
f 281/1276 286/1277 282/1278
f 282/1279 286/1280 287/1281
f 282/1282 287/1283 283/1284
f 283/1285 287/1286 288/1287
f 283/1288 288/1289 284/1290
f 284/1291 288/1292 285/1293
f 284/1294 285/1295 281/1296
f 291/1297 292/1298 289/1299
f 293/1300 296/1301 295/1302
f 289/1303 290/1304 291/1305
f 295/1306 294/1307 293/1308
f 289/1309 293/1310 294/1311
f 289/1312 294/1313 290/1314
f 290/1315 294/1316 295/1317
f 290/1318 295/1319 291/1320
f 291/1321 295/1322 296/1323
f 291/1324 296/1325 292/1326
f 292/1327 296/1328 293/1329
f 292/1330 293/1331 289/1332
f 299/1333 300/1334 297/1335
f 301/1336 304/1337 303/1338
f 297/1339 298/1340 299/1341
f 303/1342 302/1343 301/1344
f 297/1345 301/1346 302/1347
f 297/1348 302/1349 298/1350
f 298/1351 302/1352 303/1353
f 298/1354 303/1355 299/1356
f 299/1357 303/1358 304/1359
f 299/1360 304/1361 300/1362
f 300/1363 304/1364 301/1365
f 300/1366 301/1367 297/1368
f 307/1369 308/1370 305/1371
f 309/1372 312/1373 311/1374
f 305/1375 306/1376 307/1377
f 311/1378 310/1379 309/1380
f 305/1381 309/1382 310/1383
f 305/1384 310/1385 306/1386
f 306/1387 310/1388 311/1389
f 306/1390 311/1391 307/1392
f 307/1393 311/1394 312/1395
f 307/1396 312/1397 308/1398
f 308/1399 312/1400 309/1401
f 308/1402 309/1403 305/1404
f 315/1405 316/1406 313/1407
f 317/1408 320/1409 319/1410
f 313/1411 314/1412 315/1413
f 319/1414 318/1415 317/1416
f 313/1417 317/1418 318/1419
f 313/1420 318/1421 314/1422
f 314/1423 318/1424 319/1425
f 314/1426 319/1427 315/1428
f 315/1429 319/1430 320/1431
f 315/1432 320/1433 316/1434
f 316/1435 320/1436 317/1437
f 316/1438 317/1439 313/1440
f 323/1441 324/1442 321/1443
f 325/1444 328/1445 327/1446
f 321/1447 322/1448 323/1449
f 327/1450 326/1451 325/1452
f 321/1453 325/1454 326/1455
f 321/1456 326/1457 322/1458
f 322/1459 326/1460 327/1461
f 322/1462 327/1463 323/1464
f 323/1465 327/1466 328/1467
f 323/1468 328/1469 324/1470
f 324/1471 328/1472 325/1473
f 324/1474 325/1475 321/1476
f 331/1477 332/1478 329/1479
f 333/1480 336/1481 335/1482
f 329/1483 330/1484 331/1485
f 335/1486 334/1487 333/1488
f 329/1489 333/1490 334/1491
f 329/1492 334/1493 330/1494
f 330/1495 334/1496 335/1497
f 330/1498 335/1499 331/1500
f 331/1501 335/1502 336/1503
f 331/1504 336/1505 332/1506
f 332/1507 336/1508 333/1509
f 332/1510 333/1511 329/1512
f 339/1513 340/1514 337/1515
f 341/1516 344/1517 343/1518
f 337/1519 338/1520 339/1521
f 343/1522 342/1523 341/1524
f 337/1525 341/1526 342/1527
f 337/1528 342/1529 338/1530
f 338/1531 342/1532 343/1533
f 338/1534 343/1535 339/1536
f 339/1537 343/1538 344/1539
f 339/1540 344/1541 340/1542
f 340/1543 344/1544 341/1545
f 340/1546 341/1547 337/1548
f 347/1549 348/1550 345/1551
f 349/1552 352/1553 351/1554
f 345/1555 346/1556 347/1557
f 351/1558 350/1559 349/1560
f 345/1561 349/1562 350/1563
f 345/1564 350/1565 346/1566
f 346/1567 350/1568 351/1569
f 346/1570 351/1571 347/1572
f 347/1573 351/1574 352/1575
f 347/1576 352/1577 348/1578
f 348/1579 352/1580 349/1581
f 348/1582 349/1583 345/1584
f 355/1585 356/1586 353/1587
f 357/1588 360/1589 359/1590
f 353/1591 354/1592 355/1593
f 359/1594 358/1595 357/1596
f 353/1597 357/1598 358/1599
f 353/1600 358/1601 354/1602
f 354/1603 358/1604 359/1605
f 354/1606 359/1607 355/1608
f 355/1609 359/1610 360/1611
f 355/1612 360/1613 356/1614
f 356/1615 360/1616 357/1617
f 356/1618 357/1619 353/1620
f 363/1621 364/1622 361/1623
f 365/1624 368/1625 367/1626
f 361/1627 362/1628 363/1629
f 367/1630 366/1631 365/1632
f 361/1633 365/1634 366/1635
f 361/1636 366/1637 362/1638
f 362/1639 366/1640 367/1641
f 362/1642 367/1643 363/1644
f 363/1645 367/1646 368/1647
f 363/1648 368/1649 364/1650
f 364/1651 368/1652 365/1653
f 364/1654 365/1655 361/1656
f 371/1657 372/1658 369/1659
f 373/1660 376/1661 375/1662
f 369/1663 370/1664 371/1665
f 375/1666 374/1667 373/1668
f 369/1669 373/1670 374/1671
f 369/1672 374/1673 370/1674
f 370/1675 374/1676 375/1677
f 370/1678 375/1679 371/1680
f 371/1681 375/1682 376/1683
f 371/1684 376/1685 372/1686
f 372/1687 376/1688 373/1689
f 372/1690 373/1691 369/1692
f 379/1693 380/1694 377/1695
f 381/1696 384/1697 383/1698
f 377/1699 378/1700 379/1701
f 383/1702 382/1703 381/1704
f 377/1705 381/1706 382/1707
f 377/1708 382/1709 378/1710
f 378/1711 382/1712 383/1713
f 378/1714 383/1715 379/1716
f 379/1717 383/1718 384/1719
f 379/1720 384/1721 380/1722
f 380/1723 384/1724 381/1725
f 380/1726 381/1727 377/1728
f 387/1729 388/1730 385/1731
f 389/1732 392/1733 391/1734
f 385/1735 386/1736 387/1737
f 391/1738 390/1739 389/1740
f 385/1741 389/1742 390/1743
f 385/1744 390/1745 386/1746
f 386/1747 390/1748 391/1749
f 386/1750 391/1751 387/1752
f 387/1753 391/1754 392/1755
f 387/1756 392/1757 388/1758
f 388/1759 392/1760 389/1761
f 388/1762 389/1763 385/1764
f 395/1765 396/1766 393/1767
f 397/1768 400/1769 399/1770
f 393/1771 394/1772 395/1773
f 399/1774 398/1775 397/1776
f 393/1777 397/1778 398/1779
f 393/1780 398/1781 394/1782
f 394/1783 398/1784 399/1785
f 394/1786 399/1787 395/1788
f 395/1789 399/1790 400/1791
f 395/1792 400/1793 396/1794
f 396/1795 400/1796 397/1797
f 396/1798 397/1799 393/1800
f 403/1801 404/1802 401/1803
f 405/1804 408/1805 407/1806
f 401/1807 402/1808 403/1809
f 407/1810 406/1811 405/1812
f 401/1813 405/1814 406/1815
f 401/1816 406/1817 402/1818
f 402/1819 406/1820 407/1821
f 402/1822 407/1823 403/1824
f 403/1825 407/1826 408/1827
f 403/1828 408/1829 404/1830
f 404/1831 408/1832 405/1833
f 404/1834 405/1835 401/1836
f 411/1837 412/1838 409/1839
f 413/1840 416/1841 415/1842
f 409/1843 410/1844 411/1845
f 415/1846 414/1847 413/1848
f 409/1849 413/1850 414/1851
f 409/1852 414/1853 410/1854
f 410/1855 414/1856 415/1857
f 410/1858 415/1859 411/1860
f 411/1861 415/1862 416/1863
f 411/1864 416/1865 412/1866
f 412/1867 416/1868 413/1869
f 412/1870 413/1871 409/1872
f 419/1873 420/1874 417/1875
f 421/1876 424/1877 423/1878
f 417/1879 418/1880 419/1881
f 423/1882 422/1883 421/1884
f 417/1885 421/1886 422/1887
f 417/1888 422/1889 418/1890
f 418/1891 422/1892 423/1893
f 418/1894 423/1895 419/1896
f 419/1897 423/1898 424/1899
f 419/1900 424/1901 420/1902
f 420/1903 424/1904 421/1905
f 420/1906 421/1907 417/1908
f 427/1909 428/1910 425/1911
f 429/1912 432/1913 431/1914
f 425/1915 426/1916 427/1917
f 431/1918 430/1919 429/1920
f 425/1921 429/1922 430/1923
f 425/1924 430/1925 426/1926
f 426/1927 430/1928 431/1929
f 426/1930 431/1931 427/1932
f 427/1933 431/1934 432/1935
f 427/1936 432/1937 428/1938
f 428/1939 432/1940 429/1941
f 428/1942 429/1943 425/1944
f 459/2053 460/2054 457/2055
f 461/2056 464/2057 463/2058
f 457/2059 458/2060 459/2061
f 463/2062 462/2063 461/2064
f 457/2065 461/2066 462/2067
f 457/2068 462/2069 458/2070
f 458/2071 462/2072 463/2073
f 458/2074 463/2075 459/2076
f 459/2077 463/2078 464/2079
f 459/2080 464/2081 460/2082
f 460/2083 464/2084 461/2085
f 460/2086 461/2087 457/2088
f 467/2089 468/2090 465/2091
f 469/2092 472/2093 471/2094
f 465/2095 466/2096 467/2097
f 471/2098 470/2099 469/2100
f 465/2101 469/2102 470/2103
f 465/2104 470/2105 466/2106
f 466/2107 470/2108 471/2109
f 466/2110 471/2111 467/2112
f 467/2113 471/2114 472/2115
f 467/2116 472/2117 468/2118
f 468/2119 472/2120 469/2121
f 468/2122 469/2123 465/2124
f 475/2125 476/2126 473/2127
f 477/2128 480/2129 479/2130
f 473/2131 474/2132 475/2133
f 479/2134 478/2135 477/2136
f 473/2137 477/2138 478/2139
f 473/2140 478/2141 474/2142
f 474/2143 478/2144 479/2145
f 474/2146 479/2147 475/2148
f 475/2149 479/2150 480/2151
f 475/2152 480/2153 476/2154
f 476/2155 480/2156 477/2157
f 476/2158 477/2159 473/2160
f 483/2161 484/2162 481/2163
f 485/2164 488/2165 487/2166
f 481/2167 482/2168 483/2169
f 487/2170 486/2171 485/2172
f 481/2173 485/2174 486/2175
f 481/2176 486/2177 482/2178
f 482/2179 486/2180 487/2181
f 482/2182 487/2183 483/2184
f 483/2185 487/2186 488/2187
f 483/2188 488/2189 484/2190
f 484/2191 488/2192 485/2193
f 484/2194 485/2195 481/2196
f 491/2197 492/2198 489/2199
f 493/2200 496/2201 495/2202
f 489/2203 490/2204 491/2205
f 495/2206 494/2207 493/2208
f 489/2209 493/2210 494/2211
f 489/2212 494/2213 490/2214
f 490/2215 494/2216 495/2217
f 490/2218 495/2219 491/2220
f 491/2221 495/2222 496/2223
f 491/2224 496/2225 492/2226
f 492/2227 496/2228 493/2229
f 492/2230 493/2231 489/2232
f 499/2233 500/2234 497/2235
f 501/2236 504/2237 503/2238
f 497/2239 498/2240 499/2241
f 503/2242 502/2243 501/2244
f 497/2245 501/2246 502/2247
f 497/2248 502/2249 498/2250
f 498/2251 502/2252 503/2253
f 498/2254 503/2255 499/2256
f 499/2257 503/2258 504/2259
f 499/2260 504/2261 500/2262
f 500/2263 504/2264 501/2265
f 500/2266 501/2267 497/2268
g red
f 434/1945 433/1946 436/1947
f 440/1948 437/1949 438/1950
f 436/1951 435/1952 434/1953
f 438/1954 439/1955 440/1956
f 433/1957 437/1958 438/1959
f 433/1960 438/1961 434/1962
f 434/1963 438/1964 439/1965
f 434/1966 439/1967 435/1968
f 435/1969 439/1970 440/1971
f 435/1972 440/1973 436/1974
f 436/1975 440/1976 437/1977
f 436/1978 437/1979 433/1980
f 442/1981 441/1982 444/1983
f 448/1984 445/1985 446/1986
f 444/1987 443/1988 442/1989
f 446/1990 447/1991 448/1992
f 441/1993 445/1994 446/1995
f 441/1996 446/1997 442/1998
f 442/1999 446/2000 447/2001
f 442/2002 447/2003 443/2004
f 443/2005 447/2006 448/2007
f 443/2008 448/2009 444/2010
f 444/2011 448/2012 445/2013
f 444/2014 445/2015 441/2016
f 450/2017 449/2018 452/2019
f 456/2020 453/2021 454/2022
f 452/2023 451/2024 450/2025
f 454/2026 455/2027 456/2028
f 449/2029 453/2030 454/2031
f 449/2032 454/2033 450/2034
f 450/2035 454/2036 455/2037
f 450/2038 455/2039 451/2040
f 451/2041 455/2042 456/2043
f 451/2044 456/2045 452/2046
f 452/2047 456/2048 453/2049
f 452/2050 453/2051 449/2052
