# Blockbench divine support VFX; block units
v -0.060000 0.000000 0.037500
v 0.060000 0.000000 0.037500
v 0.070000 1.450000 0.037500
v 0.000000 1.850000 0.037500
v -0.070000 1.450000 0.037500
v -0.060000 0.000000 -0.037500
v 0.060000 0.000000 -0.037500
v 0.070000 1.450000 -0.037500
v 0.000000 1.850000 -0.037500
v -0.070000 1.450000 -0.037500
vt 0.062500 0.726563
vt 0.089844 0.648438
vt 0.117188 0.570313
vt 0.062500 0.726563
vt 0.089844 0.648438
vt 0.117188 0.570313
vt 0.062500 0.726563
vt 0.089844 0.648438
vt 0.117188 0.570313
vt 0.062500 0.726563
vt 0.089844 0.648438
vt 0.117188 0.570313
vt 0.062500 0.726563
vt 0.089844 0.648438
vt 0.117188 0.570313
vt 0.062500 0.726563
vt 0.089844 0.648438
vt 0.117188 0.570313
vt 0.062500 0.726563
vt 0.089844 0.648438
vt 0.117188 0.570313
vt 0.062500 0.726563
vt 0.089844 0.648438
vt 0.117188 0.570313
vt 0.062500 0.726563
vt 0.089844 0.648438
vt 0.117188 0.570313
vt 0.062500 0.726563
vt 0.089844 0.648438
vt 0.117188 0.570313
vt 0.062500 0.726563
vt 0.089844 0.648438
vt 0.117188 0.570313
vt 0.062500 0.726563
vt 0.089844 0.648438
vt 0.117188 0.570313
vt 0.062500 0.726563
vt 0.089844 0.648438
vt 0.117188 0.570313
vt 0.062500 0.726563
vt 0.089844 0.648438
vt 0.117188 0.570313
vt 0.062500 0.726563
vt 0.089844 0.648438
vt 0.117188 0.570313
vt 0.062500 0.726563
vt 0.089844 0.648438
vt 0.117188 0.570313
v -0.017000 0.150000 0.040500
v 0.017000 0.150000 0.040500
v 0.017000 1.450000 0.040500
v 0.000000 1.670000 0.040500
v -0.017000 1.450000 0.040500
v -0.017000 0.150000 -0.040500
v 0.017000 0.150000 -0.040500
v 0.017000 1.450000 -0.040500
v 0.000000 1.670000 -0.040500
v -0.017000 1.450000 -0.040500
vt 0.312500 0.726563
vt 0.339844 0.648438
vt 0.367188 0.570313
vt 0.312500 0.726563
vt 0.339844 0.648438
vt 0.367188 0.570313
vt 0.312500 0.726563
vt 0.339844 0.648438
vt 0.367188 0.570313
vt 0.312500 0.726563
vt 0.339844 0.648438
vt 0.367188 0.570313
vt 0.312500 0.726563
vt 0.339844 0.648438
vt 0.367188 0.570313
vt 0.312500 0.726563
vt 0.339844 0.648438
vt 0.367188 0.570313
vt 0.312500 0.726563
vt 0.339844 0.648438
vt 0.367188 0.570313
vt 0.312500 0.726563
vt 0.339844 0.648438
vt 0.367188 0.570313
vt 0.312500 0.726563
vt 0.339844 0.648438
vt 0.367188 0.570313
vt 0.312500 0.726563
vt 0.339844 0.648438
vt 0.367188 0.570313
vt 0.312500 0.726563
vt 0.339844 0.648438
vt 0.367188 0.570313
vt 0.312500 0.726563
vt 0.339844 0.648438
vt 0.367188 0.570313
vt 0.312500 0.726563
vt 0.339844 0.648438
vt 0.367188 0.570313
vt 0.312500 0.726563
vt 0.339844 0.648438
vt 0.367188 0.570313
vt 0.312500 0.726563
vt 0.339844 0.648438
vt 0.367188 0.570313
vt 0.312500 0.726563
vt 0.339844 0.648438
vt 0.367188 0.570313
v -0.120000 0.280000 0.047500
v 0.120000 0.280000 0.047500
v 0.120000 0.360000 0.047500
v -0.120000 0.360000 0.047500
v -0.120000 0.280000 -0.047500
v 0.120000 0.280000 -0.047500
v 0.120000 0.360000 -0.047500
v -0.120000 0.360000 -0.047500
vt 0.562500 0.726563
vt 0.589844 0.648438
vt 0.617188 0.570313
vt 0.562500 0.726563
vt 0.589844 0.648438
vt 0.617188 0.570313
vt 0.562500 0.726563
vt 0.589844 0.648438
vt 0.617188 0.570313
vt 0.562500 0.726563
vt 0.589844 0.648438
vt 0.617188 0.570313
vt 0.562500 0.726563
vt 0.589844 0.648438
vt 0.617188 0.570313
vt 0.562500 0.726563
vt 0.589844 0.648438
vt 0.617188 0.570313
vt 0.562500 0.726563
vt 0.589844 0.648438
vt 0.617188 0.570313
vt 0.562500 0.726563
vt 0.589844 0.648438
vt 0.617188 0.570313
vt 0.562500 0.726563
vt 0.589844 0.648438
vt 0.617188 0.570313
vt 0.562500 0.726563
vt 0.589844 0.648438
vt 0.617188 0.570313
vt 0.562500 0.726563
vt 0.589844 0.648438
vt 0.617188 0.570313
vt 0.562500 0.726563
vt 0.589844 0.648438
vt 0.617188 0.570313
v -0.035000 -0.280000 0.040000
v 0.035000 -0.280000 0.040000
v 0.035000 0.000000 0.040000
v -0.035000 0.000000 0.040000
v -0.035000 -0.280000 -0.040000
v 0.035000 -0.280000 -0.040000
v 0.035000 0.000000 -0.040000
v -0.035000 0.000000 -0.040000
vt 0.562500 0.726563
vt 0.589844 0.648438
vt 0.617188 0.570313
vt 0.562500 0.726563
vt 0.589844 0.648438
vt 0.617188 0.570313
vt 0.562500 0.726563
vt 0.589844 0.648438
vt 0.617188 0.570313
vt 0.562500 0.726563
vt 0.589844 0.648438
vt 0.617188 0.570313
vt 0.562500 0.726563
vt 0.589844 0.648438
vt 0.617188 0.570313
vt 0.562500 0.726563
vt 0.589844 0.648438
vt 0.617188 0.570313
vt 0.562500 0.726563
vt 0.589844 0.648438
vt 0.617188 0.570313
vt 0.562500 0.726563
vt 0.589844 0.648438
vt 0.617188 0.570313
vt 0.562500 0.726563
vt 0.589844 0.648438
vt 0.617188 0.570313
vt 0.562500 0.726563
vt 0.589844 0.648438
vt 0.617188 0.570313
vt 0.562500 0.726563
vt 0.589844 0.648438
vt 0.617188 0.570313
vt 0.562500 0.726563
vt 0.589844 0.648438
vt 0.617188 0.570313
g body
f 4/1 5/2 1/3
f 6/4 10/5 9/6
f 1/7 2/8 3/9
f 8/10 7/11 6/12
f 3/13 4/14 1/15
f 6/16 9/17 8/18
f 1/19 6/20 7/21
f 1/22 7/23 2/24
f 2/25 7/26 8/27
f 2/28 8/29 3/30
f 3/31 8/32 9/33
f 3/34 9/35 4/36
f 4/37 9/38 10/39
f 4/40 10/41 5/42
f 5/43 10/44 6/45
f 5/46 6/47 1/48
g red
f 14/49 15/50 11/51
f 16/52 20/53 19/54
f 11/55 12/56 13/57
f 18/58 17/59 16/60
f 13/61 14/62 11/63
f 16/64 19/65 18/66
f 11/67 16/68 17/69
f 11/70 17/71 12/72
f 12/73 17/74 18/75
f 12/76 18/77 13/78
f 13/79 18/80 19/81
f 13/82 19/83 14/84
f 14/85 19/86 20/87
f 14/88 20/89 15/90
f 15/91 20/92 16/93
f 15/94 16/95 11/96
g gold
f 23/97 24/98 21/99
f 25/100 28/101 27/102
f 21/103 22/104 23/105
f 27/106 26/107 25/108
f 21/109 25/110 26/111
f 21/112 26/113 22/114
f 22/115 26/116 27/117
f 22/118 27/119 23/120
f 23/121 27/122 28/123
f 23/124 28/125 24/126
f 24/127 28/128 25/129
f 24/130 25/131 21/132
f 31/133 32/134 29/135
f 33/136 36/137 35/138
f 29/139 30/140 31/141
f 35/142 34/143 33/144
f 29/145 33/146 34/147
f 29/148 34/149 30/150
f 30/151 34/152 35/153
f 30/154 35/155 31/156
f 31/157 35/158 36/159
f 31/160 36/161 32/162
f 32/163 36/164 33/165
f 32/166 33/167 29/168
