# Blockbench divine support VFX; block units
v -0.007794 -1.004500 0.015000
v -0.873794 0.495500 0.015000
v -0.858206 0.504500 0.015000
v 0.007794 -0.995500 0.015000
v -0.007794 -1.004500 -0.015000
v -0.873794 0.495500 -0.015000
v -0.858206 0.504500 -0.015000
v 0.007794 -0.995500 -0.015000
vt 0.062500 0.726563
vt 0.089844 0.648438
vt 0.117188 0.570313
vt 0.062500 0.726563
vt 0.089844 0.648438
vt 0.117188 0.570313
vt 0.062500 0.726563
vt 0.089844 0.648438
vt 0.117188 0.570313
vt 0.062500 0.726563
vt 0.089844 0.648438
vt 0.117188 0.570313
vt 0.062500 0.726563
vt 0.089844 0.648438
vt 0.117188 0.570313
vt 0.062500 0.726563
vt 0.089844 0.648438
vt 0.117188 0.570313
vt 0.062500 0.726563
vt 0.089844 0.648438
vt 0.117188 0.570313
vt 0.062500 0.726563
vt 0.089844 0.648438
vt 0.117188 0.570313
vt 0.062500 0.726563
vt 0.089844 0.648438
vt 0.117188 0.570313
vt 0.062500 0.726563
vt 0.089844 0.648438
vt 0.117188 0.570313
vt 0.062500 0.726563
vt 0.089844 0.648438
vt 0.117188 0.570313
vt 0.062500 0.726563
vt 0.089844 0.648438
vt 0.117188 0.570313
v -0.003897 -0.912250 0.015000
v -0.791957 0.452750 0.015000
v -0.784163 0.457250 0.015000
v 0.003897 -0.907750 0.015000
v -0.003897 -0.912250 -0.015000
v -0.791957 0.452750 -0.015000
v -0.784163 0.457250 -0.015000
v 0.003897 -0.907750 -0.015000
vt 0.312500 0.726563
vt 0.339844 0.648438
vt 0.367188 0.570313
vt 0.312500 0.726563
vt 0.339844 0.648438
vt 0.367188 0.570313
vt 0.312500 0.726563
vt 0.339844 0.648438
vt 0.367188 0.570313
vt 0.312500 0.726563
vt 0.339844 0.648438
vt 0.367188 0.570313
vt 0.312500 0.726563
vt 0.339844 0.648438
vt 0.367188 0.570313
vt 0.312500 0.726563
vt 0.339844 0.648438
vt 0.367188 0.570313
vt 0.312500 0.726563
vt 0.339844 0.648438
vt 0.367188 0.570313
vt 0.312500 0.726563
vt 0.339844 0.648438
vt 0.367188 0.570313
vt 0.312500 0.726563
vt 0.339844 0.648438
vt 0.367188 0.570313
vt 0.312500 0.726563
vt 0.339844 0.648438
vt 0.367188 0.570313
vt 0.312500 0.726563
vt 0.339844 0.648438
vt 0.367188 0.570313
vt 0.312500 0.726563
vt 0.339844 0.648438
vt 0.367188 0.570313
v -0.866000 0.509000 0.015000
v 0.866000 0.509000 0.015000
v 0.866000 0.491000 0.015000
v -0.866000 0.491000 0.015000
v -0.866000 0.509000 -0.015000
v 0.866000 0.509000 -0.015000
v 0.866000 0.491000 -0.015000
v -0.866000 0.491000 -0.015000
vt 0.062500 0.726563
vt 0.089844 0.648438
vt 0.117188 0.570313
vt 0.062500 0.726563
vt 0.089844 0.648438
vt 0.117188 0.570313
vt 0.062500 0.726563
vt 0.089844 0.648438
vt 0.117188 0.570313
vt 0.062500 0.726563
vt 0.089844 0.648438
vt 0.117188 0.570313
vt 0.062500 0.726563
vt 0.089844 0.648438
vt 0.117188 0.570313
vt 0.062500 0.726563
vt 0.089844 0.648438
vt 0.117188 0.570313
vt 0.062500 0.726563
vt 0.089844 0.648438
vt 0.117188 0.570313
vt 0.062500 0.726563
vt 0.089844 0.648438
vt 0.117188 0.570313
vt 0.062500 0.726563
vt 0.089844 0.648438
vt 0.117188 0.570313
vt 0.062500 0.726563
vt 0.089844 0.648438
vt 0.117188 0.570313
vt 0.062500 0.726563
vt 0.089844 0.648438
vt 0.117188 0.570313
vt 0.062500 0.726563
vt 0.089844 0.648438
vt 0.117188 0.570313
v -0.788060 0.459500 0.015000
v 0.788060 0.459500 0.015000
v 0.788060 0.450500 0.015000
v -0.788060 0.450500 0.015000
v -0.788060 0.459500 -0.015000
v 0.788060 0.459500 -0.015000
v 0.788060 0.450500 -0.015000
v -0.788060 0.450500 -0.015000
vt 0.312500 0.726563
vt 0.339844 0.648438
vt 0.367188 0.570313
vt 0.312500 0.726563
vt 0.339844 0.648438
vt 0.367188 0.570313
vt 0.312500 0.726563
vt 0.339844 0.648438
vt 0.367188 0.570313
vt 0.312500 0.726563
vt 0.339844 0.648438
vt 0.367188 0.570313
vt 0.312500 0.726563
vt 0.339844 0.648438
vt 0.367188 0.570313
vt 0.312500 0.726563
vt 0.339844 0.648438
vt 0.367188 0.570313
vt 0.312500 0.726563
vt 0.339844 0.648438
vt 0.367188 0.570313
vt 0.312500 0.726563
vt 0.339844 0.648438
vt 0.367188 0.570313
vt 0.312500 0.726563
vt 0.339844 0.648438
vt 0.367188 0.570313
vt 0.312500 0.726563
vt 0.339844 0.648438
vt 0.367188 0.570313
vt 0.312500 0.726563
vt 0.339844 0.648438
vt 0.367188 0.570313
vt 0.312500 0.726563
vt 0.339844 0.648438
vt 0.367188 0.570313
v 0.873794 0.495500 0.015000
v 0.007794 -1.004500 0.015000
v -0.007794 -0.995500 0.015000
v 0.858206 0.504500 0.015000
v 0.873794 0.495500 -0.015000
v 0.007794 -1.004500 -0.015000
v -0.007794 -0.995500 -0.015000
v 0.858206 0.504500 -0.015000
vt 0.062500 0.726563
vt 0.089844 0.648438
vt 0.117188 0.570313
vt 0.062500 0.726563
vt 0.089844 0.648438
vt 0.117188 0.570313
vt 0.062500 0.726563
vt 0.089844 0.648438
vt 0.117188 0.570313
vt 0.062500 0.726563
vt 0.089844 0.648438
vt 0.117188 0.570313
vt 0.062500 0.726563
vt 0.089844 0.648438
vt 0.117188 0.570313
vt 0.062500 0.726563
vt 0.089844 0.648438
vt 0.117188 0.570313
vt 0.062500 0.726563
vt 0.089844 0.648438
vt 0.117188 0.570313
vt 0.062500 0.726563
vt 0.089844 0.648438
vt 0.117188 0.570313
vt 0.062500 0.726563
vt 0.089844 0.648438
vt 0.117188 0.570313
vt 0.062500 0.726563
vt 0.089844 0.648438
vt 0.117188 0.570313
vt 0.062500 0.726563
vt 0.089844 0.648438
vt 0.117188 0.570313
vt 0.062500 0.726563
vt 0.089844 0.648438
vt 0.117188 0.570313
v 0.791957 0.452750 0.015000
v 0.003897 -0.912250 0.015000
v -0.003897 -0.907750 0.015000
v 0.784163 0.457250 0.015000
v 0.791957 0.452750 -0.015000
v 0.003897 -0.912250 -0.015000
v -0.003897 -0.907750 -0.015000
v 0.784163 0.457250 -0.015000
vt 0.312500 0.726563
vt 0.339844 0.648438
vt 0.367188 0.570313
vt 0.312500 0.726563
vt 0.339844 0.648438
vt 0.367188 0.570313
vt 0.312500 0.726563
vt 0.339844 0.648438
vt 0.367188 0.570313
vt 0.312500 0.726563
vt 0.339844 0.648438
vt 0.367188 0.570313
vt 0.312500 0.726563
vt 0.339844 0.648438
vt 0.367188 0.570313
vt 0.312500 0.726563
vt 0.339844 0.648438
vt 0.367188 0.570313
vt 0.312500 0.726563
vt 0.339844 0.648438
vt 0.367188 0.570313
vt 0.312500 0.726563
vt 0.339844 0.648438
vt 0.367188 0.570313
vt 0.312500 0.726563
vt 0.339844 0.648438
vt 0.367188 0.570313
vt 0.312500 0.726563
vt 0.339844 0.648438
vt 0.367188 0.570313
vt 0.312500 0.726563
vt 0.339844 0.648438
vt 0.367188 0.570313
vt 0.312500 0.726563
vt 0.339844 0.648438
vt 0.367188 0.570313
v 0.169145 0.061564 0.017500
v 0.137888 0.115702 0.017500
v 0.118737 0.099632 0.017500
v 0.145652 0.053013 0.017500
v 0.169145 0.061564 -0.017500
v 0.137888 0.115702 -0.017500
v 0.118737 0.099632 -0.017500
v 0.145652 0.053013 -0.017500
vt 0.562500 0.726563
vt 0.589844 0.648438
vt 0.617188 0.570313
vt 0.562500 0.726563
vt 0.589844 0.648438
vt 0.617188 0.570313
vt 0.562500 0.726563
vt 0.589844 0.648438
vt 0.617188 0.570313
vt 0.562500 0.726563
vt 0.589844 0.648438
vt 0.617188 0.570313
vt 0.562500 0.726563
vt 0.589844 0.648438
vt 0.617188 0.570313
vt 0.562500 0.726563
vt 0.589844 0.648438
vt 0.617188 0.570313
vt 0.562500 0.726563
vt 0.589844 0.648438
vt 0.617188 0.570313
vt 0.562500 0.726563
vt 0.589844 0.648438
vt 0.617188 0.570313
vt 0.562500 0.726563
vt 0.589844 0.648438
vt 0.617188 0.570313
vt 0.562500 0.726563
vt 0.589844 0.648438
vt 0.617188 0.570313
vt 0.562500 0.726563
vt 0.589844 0.648438
vt 0.617188 0.570313
vt 0.562500 0.726563
vt 0.589844 0.648438
vt 0.617188 0.570313
v 0.137888 0.115702 0.017500
v 0.090000 0.155885 0.017500
v 0.077500 0.134234 0.017500
v 0.118737 0.099632 0.017500
v 0.137888 0.115702 -0.017500
v 0.090000 0.155885 -0.017500
v 0.077500 0.134234 -0.017500
v 0.118737 0.099632 -0.017500
vt 0.562500 0.726563
vt 0.589844 0.648438
vt 0.617188 0.570313
vt 0.562500 0.726563
vt 0.589844 0.648438
vt 0.617188 0.570313
vt 0.562500 0.726563
vt 0.589844 0.648438
vt 0.617188 0.570313
vt 0.562500 0.726563
vt 0.589844 0.648438
vt 0.617188 0.570313
vt 0.562500 0.726563
vt 0.589844 0.648438
vt 0.617188 0.570313
vt 0.562500 0.726563
vt 0.589844 0.648438
vt 0.617188 0.570313
vt 0.562500 0.726563
vt 0.589844 0.648438
vt 0.617188 0.570313
vt 0.562500 0.726563
vt 0.589844 0.648438
vt 0.617188 0.570313
vt 0.562500 0.726563
vt 0.589844 0.648438
vt 0.617188 0.570313
vt 0.562500 0.726563
vt 0.589844 0.648438
vt 0.617188 0.570313
vt 0.562500 0.726563
vt 0.589844 0.648438
vt 0.617188 0.570313
vt 0.562500 0.726563
vt 0.589844 0.648438
vt 0.617188 0.570313
v 0.090000 0.155885 0.017500
v 0.031257 0.177265 0.017500
v 0.026915 0.152645 0.017500
v 0.077500 0.134234 0.017500
v 0.090000 0.155885 -0.017500
v 0.031257 0.177265 -0.017500
v 0.026915 0.152645 -0.017500
v 0.077500 0.134234 -0.017500
vt 0.562500 0.726563
vt 0.589844 0.648438
vt 0.617188 0.570313
vt 0.562500 0.726563
vt 0.589844 0.648438
vt 0.617188 0.570313
vt 0.562500 0.726563
vt 0.589844 0.648438
vt 0.617188 0.570313
vt 0.562500 0.726563
vt 0.589844 0.648438
vt 0.617188 0.570313
vt 0.562500 0.726563
vt 0.589844 0.648438
vt 0.617188 0.570313
vt 0.562500 0.726563
vt 0.589844 0.648438
vt 0.617188 0.570313
vt 0.562500 0.726563
vt 0.589844 0.648438
vt 0.617188 0.570313
vt 0.562500 0.726563
vt 0.589844 0.648438
vt 0.617188 0.570313
vt 0.562500 0.726563
vt 0.589844 0.648438
vt 0.617188 0.570313
vt 0.562500 0.726563
vt 0.589844 0.648438
vt 0.617188 0.570313
vt 0.562500 0.726563
vt 0.589844 0.648438
vt 0.617188 0.570313
vt 0.562500 0.726563
vt 0.589844 0.648438
vt 0.617188 0.570313
v 0.031257 0.177265 0.017500
v -0.031257 0.177265 0.017500
v -0.026915 0.152645 0.017500
v 0.026915 0.152645 0.017500
v 0.031257 0.177265 -0.017500
v -0.031257 0.177265 -0.017500
v -0.026915 0.152645 -0.017500
v 0.026915 0.152645 -0.017500
vt 0.562500 0.726563
vt 0.589844 0.648438
vt 0.617188 0.570313
vt 0.562500 0.726563
vt 0.589844 0.648438
vt 0.617188 0.570313
vt 0.562500 0.726563
vt 0.589844 0.648438
vt 0.617188 0.570313
vt 0.562500 0.726563
vt 0.589844 0.648438
vt 0.617188 0.570313
vt 0.562500 0.726563
vt 0.589844 0.648438
vt 0.617188 0.570313
vt 0.562500 0.726563
vt 0.589844 0.648438
vt 0.617188 0.570313
vt 0.562500 0.726563
vt 0.589844 0.648438
vt 0.617188 0.570313
vt 0.562500 0.726563
vt 0.589844 0.648438
vt 0.617188 0.570313
vt 0.562500 0.726563
vt 0.589844 0.648438
vt 0.617188 0.570313
vt 0.562500 0.726563
vt 0.589844 0.648438
vt 0.617188 0.570313
vt 0.562500 0.726563
vt 0.589844 0.648438
vt 0.617188 0.570313
vt 0.562500 0.726563
vt 0.589844 0.648438
vt 0.617188 0.570313
v -0.031257 0.177265 0.017500
v -0.090000 0.155885 0.017500
v -0.077500 0.134234 0.017500
v -0.026915 0.152645 0.017500
v -0.031257 0.177265 -0.017500
v -0.090000 0.155885 -0.017500
v -0.077500 0.134234 -0.017500
v -0.026915 0.152645 -0.017500
vt 0.562500 0.726563
vt 0.589844 0.648438
vt 0.617188 0.570313
vt 0.562500 0.726563
vt 0.589844 0.648438
vt 0.617188 0.570313
vt 0.562500 0.726563
vt 0.589844 0.648438
vt 0.617188 0.570313
vt 0.562500 0.726563
vt 0.589844 0.648438
vt 0.617188 0.570313
vt 0.562500 0.726563
vt 0.589844 0.648438
vt 0.617188 0.570313
vt 0.562500 0.726563
vt 0.589844 0.648438
vt 0.617188 0.570313
vt 0.562500 0.726563
vt 0.589844 0.648438
vt 0.617188 0.570313
vt 0.562500 0.726563
vt 0.589844 0.648438
vt 0.617188 0.570313
vt 0.562500 0.726563
vt 0.589844 0.648438
vt 0.617188 0.570313
vt 0.562500 0.726563
vt 0.589844 0.648438
vt 0.617188 0.570313
vt 0.562500 0.726563
vt 0.589844 0.648438
vt 0.617188 0.570313
vt 0.562500 0.726563
vt 0.589844 0.648438
vt 0.617188 0.570313
v -0.090000 0.155885 0.017500
v -0.137888 0.115702 0.017500
v -0.118737 0.099632 0.017500
v -0.077500 0.134234 0.017500
v -0.090000 0.155885 -0.017500
v -0.137888 0.115702 -0.017500
v -0.118737 0.099632 -0.017500
v -0.077500 0.134234 -0.017500
vt 0.562500 0.726563
vt 0.589844 0.648438
vt 0.617188 0.570313
vt 0.562500 0.726563
vt 0.589844 0.648438
vt 0.617188 0.570313
vt 0.562500 0.726563
vt 0.589844 0.648438
vt 0.617188 0.570313
vt 0.562500 0.726563
vt 0.589844 0.648438
vt 0.617188 0.570313
vt 0.562500 0.726563
vt 0.589844 0.648438
vt 0.617188 0.570313
vt 0.562500 0.726563
vt 0.589844 0.648438
vt 0.617188 0.570313
vt 0.562500 0.726563
vt 0.589844 0.648438
vt 0.617188 0.570313
vt 0.562500 0.726563
vt 0.589844 0.648438
vt 0.617188 0.570313
vt 0.562500 0.726563
vt 0.589844 0.648438
vt 0.617188 0.570313
vt 0.562500 0.726563
vt 0.589844 0.648438
vt 0.617188 0.570313
vt 0.562500 0.726563
vt 0.589844 0.648438
vt 0.617188 0.570313
vt 0.562500 0.726563
vt 0.589844 0.648438
vt 0.617188 0.570313
v -0.137888 0.115702 0.017500
v -0.169145 0.061564 0.017500
v -0.145652 0.053013 0.017500
v -0.118737 0.099632 0.017500
v -0.137888 0.115702 -0.017500
v -0.169145 0.061564 -0.017500
v -0.145652 0.053013 -0.017500
v -0.118737 0.099632 -0.017500
vt 0.562500 0.726563
vt 0.589844 0.648438
vt 0.617188 0.570313
vt 0.562500 0.726563
vt 0.589844 0.648438
vt 0.617188 0.570313
vt 0.562500 0.726563
vt 0.589844 0.648438
vt 0.617188 0.570313
vt 0.562500 0.726563
vt 0.589844 0.648438
vt 0.617188 0.570313
vt 0.562500 0.726563
vt 0.589844 0.648438
vt 0.617188 0.570313
vt 0.562500 0.726563
vt 0.589844 0.648438
vt 0.617188 0.570313
vt 0.562500 0.726563
vt 0.589844 0.648438
vt 0.617188 0.570313
vt 0.562500 0.726563
vt 0.589844 0.648438
vt 0.617188 0.570313
vt 0.562500 0.726563
vt 0.589844 0.648438
vt 0.617188 0.570313
vt 0.562500 0.726563
vt 0.589844 0.648438
vt 0.617188 0.570313
vt 0.562500 0.726563
vt 0.589844 0.648438
vt 0.617188 0.570313
vt 0.562500 0.726563
vt 0.589844 0.648438
vt 0.617188 0.570313
v -0.169145 0.061564 0.017500
v -0.180000 0.000000 0.017500
v -0.155000 0.000000 0.017500
v -0.145652 0.053013 0.017500
v -0.169145 0.061564 -0.017500
v -0.180000 0.000000 -0.017500
v -0.155000 0.000000 -0.017500
v -0.145652 0.053013 -0.017500
vt 0.562500 0.726563
vt 0.589844 0.648438
vt 0.617188 0.570313
vt 0.562500 0.726563
vt 0.589844 0.648438
vt 0.617188 0.570313
vt 0.562500 0.726563
vt 0.589844 0.648438
vt 0.617188 0.570313
vt 0.562500 0.726563
vt 0.589844 0.648438
vt 0.617188 0.570313
vt 0.562500 0.726563
vt 0.589844 0.648438
vt 0.617188 0.570313
vt 0.562500 0.726563
vt 0.589844 0.648438
vt 0.617188 0.570313
vt 0.562500 0.726563
vt 0.589844 0.648438
vt 0.617188 0.570313
vt 0.562500 0.726563
vt 0.589844 0.648438
vt 0.617188 0.570313
vt 0.562500 0.726563
vt 0.589844 0.648438
vt 0.617188 0.570313
vt 0.562500 0.726563
vt 0.589844 0.648438
vt 0.617188 0.570313
vt 0.562500 0.726563
vt 0.589844 0.648438
vt 0.617188 0.570313
vt 0.562500 0.726563
vt 0.589844 0.648438
vt 0.617188 0.570313
v -0.180000 0.000000 0.017500
v -0.169145 -0.061564 0.017500
v -0.145652 -0.053013 0.017500
v -0.155000 0.000000 0.017500
v -0.180000 0.000000 -0.017500
v -0.169145 -0.061564 -0.017500
v -0.145652 -0.053013 -0.017500
v -0.155000 0.000000 -0.017500
vt 0.562500 0.726563
vt 0.589844 0.648438
vt 0.617188 0.570313
vt 0.562500 0.726563
vt 0.589844 0.648438
vt 0.617188 0.570313
vt 0.562500 0.726563
vt 0.589844 0.648438
vt 0.617188 0.570313
vt 0.562500 0.726563
vt 0.589844 0.648438
vt 0.617188 0.570313
vt 0.562500 0.726563
vt 0.589844 0.648438
vt 0.617188 0.570313
vt 0.562500 0.726563
vt 0.589844 0.648438
vt 0.617188 0.570313
vt 0.562500 0.726563
vt 0.589844 0.648438
vt 0.617188 0.570313
vt 0.562500 0.726563
vt 0.589844 0.648438
vt 0.617188 0.570313
vt 0.562500 0.726563
vt 0.589844 0.648438
vt 0.617188 0.570313
vt 0.562500 0.726563
vt 0.589844 0.648438
vt 0.617188 0.570313
vt 0.562500 0.726563
vt 0.589844 0.648438
vt 0.617188 0.570313
vt 0.562500 0.726563
vt 0.589844 0.648438
vt 0.617188 0.570313
v -0.137888 -0.115702 0.017500
v -0.090000 -0.155885 0.017500
v -0.077500 -0.134234 0.017500
v -0.118737 -0.099632 0.017500
v -0.137888 -0.115702 -0.017500
v -0.090000 -0.155885 -0.017500
v -0.077500 -0.134234 -0.017500
v -0.118737 -0.099632 -0.017500
vt 0.562500 0.726563
vt 0.589844 0.648438
vt 0.617188 0.570313
vt 0.562500 0.726563
vt 0.589844 0.648438
vt 0.617188 0.570313
vt 0.562500 0.726563
vt 0.589844 0.648438
vt 0.617188 0.570313
vt 0.562500 0.726563
vt 0.589844 0.648438
vt 0.617188 0.570313
vt 0.562500 0.726563
vt 0.589844 0.648438
vt 0.617188 0.570313
vt 0.562500 0.726563
vt 0.589844 0.648438
vt 0.617188 0.570313
vt 0.562500 0.726563
vt 0.589844 0.648438
vt 0.617188 0.570313
vt 0.562500 0.726563
vt 0.589844 0.648438
vt 0.617188 0.570313
vt 0.562500 0.726563
vt 0.589844 0.648438
vt 0.617188 0.570313
vt 0.562500 0.726563
vt 0.589844 0.648438
vt 0.617188 0.570313
vt 0.562500 0.726563
vt 0.589844 0.648438
vt 0.617188 0.570313
vt 0.562500 0.726563
vt 0.589844 0.648438
vt 0.617188 0.570313
v -0.090000 -0.155885 0.017500
v -0.031257 -0.177265 0.017500
v -0.026915 -0.152645 0.017500
v -0.077500 -0.134234 0.017500
v -0.090000 -0.155885 -0.017500
v -0.031257 -0.177265 -0.017500
v -0.026915 -0.152645 -0.017500
v -0.077500 -0.134234 -0.017500
vt 0.562500 0.726563
vt 0.589844 0.648438
vt 0.617188 0.570313
vt 0.562500 0.726563
vt 0.589844 0.648438
vt 0.617188 0.570313
vt 0.562500 0.726563
vt 0.589844 0.648438
vt 0.617188 0.570313
vt 0.562500 0.726563
vt 0.589844 0.648438
vt 0.617188 0.570313
vt 0.562500 0.726563
vt 0.589844 0.648438
vt 0.617188 0.570313
vt 0.562500 0.726563
vt 0.589844 0.648438
vt 0.617188 0.570313
vt 0.562500 0.726563
vt 0.589844 0.648438
vt 0.617188 0.570313
vt 0.562500 0.726563
vt 0.589844 0.648438
vt 0.617188 0.570313
vt 0.562500 0.726563
vt 0.589844 0.648438
vt 0.617188 0.570313
vt 0.562500 0.726563
vt 0.589844 0.648438
vt 0.617188 0.570313
vt 0.562500 0.726563
vt 0.589844 0.648438
vt 0.617188 0.570313
vt 0.562500 0.726563
vt 0.589844 0.648438
vt 0.617188 0.570313
v -0.031257 -0.177265 0.017500
v 0.031257 -0.177265 0.017500
v 0.026915 -0.152645 0.017500
v -0.026915 -0.152645 0.017500
v -0.031257 -0.177265 -0.017500
v 0.031257 -0.177265 -0.017500
v 0.026915 -0.152645 -0.017500
v -0.026915 -0.152645 -0.017500
vt 0.562500 0.726563
vt 0.589844 0.648438
vt 0.617188 0.570313
vt 0.562500 0.726563
vt 0.589844 0.648438
vt 0.617188 0.570313
vt 0.562500 0.726563
vt 0.589844 0.648438
vt 0.617188 0.570313
vt 0.562500 0.726563
vt 0.589844 0.648438
vt 0.617188 0.570313
vt 0.562500 0.726563
vt 0.589844 0.648438
vt 0.617188 0.570313
vt 0.562500 0.726563
vt 0.589844 0.648438
vt 0.617188 0.570313
vt 0.562500 0.726563
vt 0.589844 0.648438
vt 0.617188 0.570313
vt 0.562500 0.726563
vt 0.589844 0.648438
vt 0.617188 0.570313
vt 0.562500 0.726563
vt 0.589844 0.648438
vt 0.617188 0.570313
vt 0.562500 0.726563
vt 0.589844 0.648438
vt 0.617188 0.570313
vt 0.562500 0.726563
vt 0.589844 0.648438
vt 0.617188 0.570313
vt 0.562500 0.726563
vt 0.589844 0.648438
vt 0.617188 0.570313
v 0.031257 -0.177265 0.017500
v 0.090000 -0.155885 0.017500
v 0.077500 -0.134234 0.017500
v 0.026915 -0.152645 0.017500
v 0.031257 -0.177265 -0.017500
v 0.090000 -0.155885 -0.017500
v 0.077500 -0.134234 -0.017500
v 0.026915 -0.152645 -0.017500
vt 0.562500 0.726563
vt 0.589844 0.648438
vt 0.617188 0.570313
vt 0.562500 0.726563
vt 0.589844 0.648438
vt 0.617188 0.570313
vt 0.562500 0.726563
vt 0.589844 0.648438
vt 0.617188 0.570313
vt 0.562500 0.726563
vt 0.589844 0.648438
vt 0.617188 0.570313
vt 0.562500 0.726563
vt 0.589844 0.648438
vt 0.617188 0.570313
vt 0.562500 0.726563
vt 0.589844 0.648438
vt 0.617188 0.570313
vt 0.562500 0.726563
vt 0.589844 0.648438
vt 0.617188 0.570313
vt 0.562500 0.726563
vt 0.589844 0.648438
vt 0.617188 0.570313
vt 0.562500 0.726563
vt 0.589844 0.648438
vt 0.617188 0.570313
vt 0.562500 0.726563
vt 0.589844 0.648438
vt 0.617188 0.570313
vt 0.562500 0.726563
vt 0.589844 0.648438
vt 0.617188 0.570313
vt 0.562500 0.726563
vt 0.589844 0.648438
vt 0.617188 0.570313
v 0.090000 -0.155885 0.017500
v 0.137888 -0.115702 0.017500
v 0.118737 -0.099632 0.017500
v 0.077500 -0.134234 0.017500
v 0.090000 -0.155885 -0.017500
v 0.137888 -0.115702 -0.017500
v 0.118737 -0.099632 -0.017500
v 0.077500 -0.134234 -0.017500
vt 0.562500 0.726563
vt 0.589844 0.648438
vt 0.617188 0.570313
vt 0.562500 0.726563
vt 0.589844 0.648438
vt 0.617188 0.570313
vt 0.562500 0.726563
vt 0.589844 0.648438
vt 0.617188 0.570313
vt 0.562500 0.726563
vt 0.589844 0.648438
vt 0.617188 0.570313
vt 0.562500 0.726563
vt 0.589844 0.648438
vt 0.617188 0.570313
vt 0.562500 0.726563
vt 0.589844 0.648438
vt 0.617188 0.570313
vt 0.562500 0.726563
vt 0.589844 0.648438
vt 0.617188 0.570313
vt 0.562500 0.726563
vt 0.589844 0.648438
vt 0.617188 0.570313
vt 0.562500 0.726563
vt 0.589844 0.648438
vt 0.617188 0.570313
vt 0.562500 0.726563
vt 0.589844 0.648438
vt 0.617188 0.570313
vt 0.562500 0.726563
vt 0.589844 0.648438
vt 0.617188 0.570313
vt 0.562500 0.726563
vt 0.589844 0.648438
vt 0.617188 0.570313
v 0.137888 -0.115702 0.017500
v 0.169145 -0.061564 0.017500
v 0.145652 -0.053013 0.017500
v 0.118737 -0.099632 0.017500
v 0.137888 -0.115702 -0.017500
v 0.169145 -0.061564 -0.017500
v 0.145652 -0.053013 -0.017500
v 0.118737 -0.099632 -0.017500
vt 0.562500 0.726563
vt 0.589844 0.648438
vt 0.617188 0.570313
vt 0.562500 0.726563
vt 0.589844 0.648438
vt 0.617188 0.570313
vt 0.562500 0.726563
vt 0.589844 0.648438
vt 0.617188 0.570313
vt 0.562500 0.726563
vt 0.589844 0.648438
vt 0.617188 0.570313
vt 0.562500 0.726563
vt 0.589844 0.648438
vt 0.617188 0.570313
vt 0.562500 0.726563
vt 0.589844 0.648438
vt 0.617188 0.570313
vt 0.562500 0.726563
vt 0.589844 0.648438
vt 0.617188 0.570313
vt 0.562500 0.726563
vt 0.589844 0.648438
vt 0.617188 0.570313
vt 0.562500 0.726563
vt 0.589844 0.648438
vt 0.617188 0.570313
vt 0.562500 0.726563
vt 0.589844 0.648438
vt 0.617188 0.570313
vt 0.562500 0.726563
vt 0.589844 0.648438
vt 0.617188 0.570313
vt 0.562500 0.726563
vt 0.589844 0.648438
vt 0.617188 0.570313
v 0.169145 -0.061564 0.017500
v 0.180000 -0.000000 0.017500
v 0.155000 -0.000000 0.017500
v 0.145652 -0.053013 0.017500
v 0.169145 -0.061564 -0.017500
v 0.180000 -0.000000 -0.017500
v 0.155000 -0.000000 -0.017500
v 0.145652 -0.053013 -0.017500
vt 0.562500 0.726563
vt 0.589844 0.648438
vt 0.617188 0.570313
vt 0.562500 0.726563
vt 0.589844 0.648438
vt 0.617188 0.570313
vt 0.562500 0.726563
vt 0.589844 0.648438
vt 0.617188 0.570313
vt 0.562500 0.726563
vt 0.589844 0.648438
vt 0.617188 0.570313
vt 0.562500 0.726563
vt 0.589844 0.648438
vt 0.617188 0.570313
vt 0.562500 0.726563
vt 0.589844 0.648438
vt 0.617188 0.570313
vt 0.562500 0.726563
vt 0.589844 0.648438
vt 0.617188 0.570313
vt 0.562500 0.726563
vt 0.589844 0.648438
vt 0.617188 0.570313
vt 0.562500 0.726563
vt 0.589844 0.648438
vt 0.617188 0.570313
vt 0.562500 0.726563
vt 0.589844 0.648438
vt 0.617188 0.570313
vt 0.562500 0.726563
vt 0.589844 0.648438
vt 0.617188 0.570313
vt 0.562500 0.726563
vt 0.589844 0.648438
vt 0.617188 0.570313
g body
f 2/1 1/2 4/3
f 8/4 5/5 6/6
f 4/7 3/8 2/9
f 6/10 7/11 8/12
f 1/13 5/14 6/15
f 1/16 6/17 2/18
f 2/19 6/20 7/21
f 2/22 7/23 3/24
f 3/25 7/26 8/27
f 3/28 8/29 4/30
f 4/31 8/32 5/33
f 4/34 5/35 1/36
f 18/73 17/74 20/75
f 24/76 21/77 22/78
f 20/79 19/80 18/81
f 22/82 23/83 24/84
f 17/85 21/86 22/87
f 17/88 22/89 18/90
f 18/91 22/92 23/93
f 18/94 23/95 19/96
f 19/97 23/98 24/99
f 19/100 24/101 20/102
f 20/103 24/104 21/105
f 20/106 21/107 17/108
f 34/145 33/146 36/147
f 40/148 37/149 38/150
f 36/151 35/152 34/153
f 38/154 39/155 40/156
f 33/157 37/158 38/159
f 33/160 38/161 34/162
f 34/163 38/164 39/165
f 34/166 39/167 35/168
f 35/169 39/170 40/171
f 35/172 40/173 36/174
f 36/175 40/176 37/177
f 36/178 37/179 33/180
g red
f 10/37 9/38 12/39
f 16/40 13/41 14/42
f 12/43 11/44 10/45
f 14/46 15/47 16/48
f 9/49 13/50 14/51
f 9/52 14/53 10/54
f 10/55 14/56 15/57
f 10/58 15/59 11/60
f 11/61 15/62 16/63
f 11/64 16/65 12/66
f 12/67 16/68 13/69
f 12/70 13/71 9/72
f 26/109 25/110 28/111
f 32/112 29/113 30/114
f 28/115 27/116 26/117
f 30/118 31/119 32/120
f 25/121 29/122 30/123
f 25/124 30/125 26/126
f 26/127 30/128 31/129
f 26/130 31/131 27/132
f 27/133 31/134 32/135
f 27/136 32/137 28/138
f 28/139 32/140 29/141
f 28/142 29/143 25/144
f 42/181 41/182 44/183
f 48/184 45/185 46/186
f 44/187 43/188 42/189
f 46/190 47/191 48/192
f 41/193 45/194 46/195
f 41/196 46/197 42/198
f 42/199 46/200 47/201
f 42/202 47/203 43/204
f 43/205 47/206 48/207
f 43/208 48/209 44/210
f 44/211 48/212 45/213
f 44/214 45/215 41/216
g gold
f 51/217 52/218 49/219
f 53/220 56/221 55/222
f 49/223 50/224 51/225
f 55/226 54/227 53/228
f 49/229 53/230 54/231
f 49/232 54/233 50/234
f 50/235 54/236 55/237
f 50/238 55/239 51/240
f 51/241 55/242 56/243
f 51/244 56/245 52/246
f 52/247 56/248 53/249
f 52/250 53/251 49/252
f 59/253 60/254 57/255
f 61/256 64/257 63/258
f 57/259 58/260 59/261
f 63/262 62/263 61/264
f 57/265 61/266 62/267
f 57/268 62/269 58/270
f 58/271 62/272 63/273
f 58/274 63/275 59/276
f 59/277 63/278 64/279
f 59/280 64/281 60/282
f 60/283 64/284 61/285
f 60/286 61/287 57/288
f 67/289 68/290 65/291
f 69/292 72/293 71/294
f 65/295 66/296 67/297
f 71/298 70/299 69/300
f 65/301 69/302 70/303
f 65/304 70/305 66/306
f 66/307 70/308 71/309
f 66/310 71/311 67/312
f 67/313 71/314 72/315
f 67/316 72/317 68/318
f 68/319 72/320 69/321
f 68/322 69/323 65/324
f 75/325 76/326 73/327
f 77/328 80/329 79/330
f 73/331 74/332 75/333
f 79/334 78/335 77/336
f 73/337 77/338 78/339
f 73/340 78/341 74/342
f 74/343 78/344 79/345
f 74/346 79/347 75/348
f 75/349 79/350 80/351
f 75/352 80/353 76/354
f 76/355 80/356 77/357
f 76/358 77/359 73/360
f 83/361 84/362 81/363
f 85/364 88/365 87/366
f 81/367 82/368 83/369
f 87/370 86/371 85/372
f 81/373 85/374 86/375
f 81/376 86/377 82/378
f 82/379 86/380 87/381
f 82/382 87/383 83/384
f 83/385 87/386 88/387
f 83/388 88/389 84/390
f 84/391 88/392 85/393
f 84/394 85/395 81/396
f 91/397 92/398 89/399
f 93/400 96/401 95/402
f 89/403 90/404 91/405
f 95/406 94/407 93/408
f 89/409 93/410 94/411
f 89/412 94/413 90/414
f 90/415 94/416 95/417
f 90/418 95/419 91/420
f 91/421 95/422 96/423
f 91/424 96/425 92/426
f 92/427 96/428 93/429
f 92/430 93/431 89/432
f 99/433 100/434 97/435
f 101/436 104/437 103/438
f 97/439 98/440 99/441
f 103/442 102/443 101/444
f 97/445 101/446 102/447
f 97/448 102/449 98/450
f 98/451 102/452 103/453
f 98/454 103/455 99/456
f 99/457 103/458 104/459
f 99/460 104/461 100/462
f 100/463 104/464 101/465
f 100/466 101/467 97/468
f 107/469 108/470 105/471
f 109/472 112/473 111/474
f 105/475 106/476 107/477
f 111/478 110/479 109/480
f 105/481 109/482 110/483
f 105/484 110/485 106/486
f 106/487 110/488 111/489
f 106/490 111/491 107/492
f 107/493 111/494 112/495
f 107/496 112/497 108/498
f 108/499 112/500 109/501
f 108/502 109/503 105/504
f 115/505 116/506 113/507
f 117/508 120/509 119/510
f 113/511 114/512 115/513
f 119/514 118/515 117/516
f 113/517 117/518 118/519
f 113/520 118/521 114/522
f 114/523 118/524 119/525
f 114/526 119/527 115/528
f 115/529 119/530 120/531
f 115/532 120/533 116/534
f 116/535 120/536 117/537
f 116/538 117/539 113/540
f 123/541 124/542 121/543
f 125/544 128/545 127/546
f 121/547 122/548 123/549
f 127/550 126/551 125/552
f 121/553 125/554 126/555
f 121/556 126/557 122/558
f 122/559 126/560 127/561
f 122/562 127/563 123/564
f 123/565 127/566 128/567
f 123/568 128/569 124/570
f 124/571 128/572 125/573
f 124/574 125/575 121/576
f 131/577 132/578 129/579
f 133/580 136/581 135/582
f 129/583 130/584 131/585
f 135/586 134/587 133/588
f 129/589 133/590 134/591
f 129/592 134/593 130/594
f 130/595 134/596 135/597
f 130/598 135/599 131/600
f 131/601 135/602 136/603
f 131/604 136/605 132/606
f 132/607 136/608 133/609
f 132/610 133/611 129/612
f 139/613 140/614 137/615
f 141/616 144/617 143/618
f 137/619 138/620 139/621
f 143/622 142/623 141/624
f 137/625 141/626 142/627
f 137/628 142/629 138/630
f 138/631 142/632 143/633
f 138/634 143/635 139/636
f 139/637 143/638 144/639
f 139/640 144/641 140/642
f 140/643 144/644 141/645
f 140/646 141/647 137/648
f 147/649 148/650 145/651
f 149/652 152/653 151/654
f 145/655 146/656 147/657
f 151/658 150/659 149/660
f 145/661 149/662 150/663
f 145/664 150/665 146/666
f 146/667 150/668 151/669
f 146/670 151/671 147/672
f 147/673 151/674 152/675
f 147/676 152/677 148/678
f 148/679 152/680 149/681
f 148/682 149/683 145/684
f 155/685 156/686 153/687
f 157/688 160/689 159/690
f 153/691 154/692 155/693
f 159/694 158/695 157/696
f 153/697 157/698 158/699
f 153/700 158/701 154/702
f 154/703 158/704 159/705
f 154/706 159/707 155/708
f 155/709 159/710 160/711
f 155/712 160/713 156/714
f 156/715 160/716 157/717
f 156/718 157/719 153/720
f 163/721 164/722 161/723
f 165/724 168/725 167/726
f 161/727 162/728 163/729
f 167/730 166/731 165/732
f 161/733 165/734 166/735
f 161/736 166/737 162/738
f 162/739 166/740 167/741
f 162/742 167/743 163/744
f 163/745 167/746 168/747
f 163/748 168/749 164/750
f 164/751 168/752 165/753
f 164/754 165/755 161/756
f 171/757 172/758 169/759
f 173/760 176/761 175/762
f 169/763 170/764 171/765
f 175/766 174/767 173/768
f 169/769 173/770 174/771
f 169/772 174/773 170/774
f 170/775 174/776 175/777
f 170/778 175/779 171/780
f 171/781 175/782 176/783
f 171/784 176/785 172/786
f 172/787 176/788 173/789
f 172/790 173/791 169/792
