# Blender 5.2.0 LTS
# www.blender.org
o blade
v -32.792900 -3.202399 -2.265600
v 41.740307 -1.959199 2.265600
v 41.740307 -1.959200 -2.265600
v -32.792900 -3.202399 2.265600
v -35.379101 -3.202399 2.265600
v -35.379101 -3.202400 -2.265600
v -32.792900 3.631000 -3.566900
v -35.379101 3.631000 -3.566900
v -32.792900 9.427600 -2.265601
v 41.740303 9.180600 -2.265601
v 41.740295 3.610699 -3.566900
v 41.740303 9.180600 2.265599
v 41.740295 3.610700 3.566900
v -32.792900 3.631000 3.566900
v -32.792900 9.427600 2.265599
v -35.379101 9.427600 -2.265601
v -35.379101 9.427600 2.265599
v -35.379101 3.631000 3.566900
v -38.564400 -1.345900 -0.480300
v -110.010300 1.677401 -0.566300
v -38.564400 3.406400 -0.566300
v -109.795502 -3.068701 -0.480300
v -38.564400 -1.345900 0.480300
v -109.795502 -3.068701 0.480300
v -38.564400 3.406400 0.566300
v -110.010300 1.677401 0.566300
v -38.564400 8.158600 -0.000001
v -110.225197 6.423399 -0.000000
v -170.362198 -3.336300 -0.566300
v -170.769089 1.393900 -0.000000
v -227.097397 -6.114899 0.000000
v -226.511795 -10.821398 -0.566299
v -170.362198 -3.336300 0.566300
v -226.511795 -10.821398 0.566301
v -169.955414 -8.066401 0.480301
v -225.926285 -15.527601 0.480301
v -169.955414 -8.066401 -0.480299
v -225.926285 -15.527601 -0.480299
v -285.119110 -26.426998 -0.480298
v -285.119110 -26.426998 0.480302
v -281.382904 -20.574398 -0.566298
v -283.795776 -16.482498 0.000001
v -288.616180 -21.934000 0.000002
v -281.382904 -20.574398 0.566302
v -290.956207 -27.484400 0.000002
v -34.015800 -2.157500 -1.099300
v -42.484100 -2.225600 1.099300
v -34.015800 -2.157500 1.099300
v -42.484100 -2.225600 -1.099300
v -34.015800 3.610700 -1.295900
v -42.484100 3.542600 -1.295900
v -34.015800 8.765900 -0.723001
v -34.015800 8.765900 0.722999
v -42.484100 8.697800 -0.723001
v -42.484100 8.697800 0.722999
v -34.015800 3.610700 1.295900
v -42.484100 3.542600 1.295900
v -35.188805 3.601435 0.000002
v -35.188805 3.601434 12.755768
v -35.185284 -3.155957 11.046864
v -35.182705 -8.102701 6.377952
v -35.181763 -9.913346 0.000005
v -35.182705 -8.102701 -6.377943
v -35.185284 -3.155955 -11.046858
v -35.188805 3.601436 -12.755766
v -35.192333 10.357965 -11.045453
v -35.194908 15.304867 -6.377564
v -35.195847 17.116213 -0.000002
v -35.194908 15.304921 6.377465
v -35.192333 10.357957 11.045443
v -37.100796 15.306503 6.377820
v -37.098217 10.359756 11.046862
v -37.094696 3.602365 0.000002
v -37.094696 3.602364 12.755768
v -37.091167 -3.154156 11.045443
v -37.088593 -8.101061 6.377564
v -37.087654 -9.912416 0.000005
v -37.088593 -8.101075 -6.377563
v -37.091167 -3.154166 -11.045456
v -37.094696 3.602365 -12.755766
v -37.098217 10.359756 -11.046861
v -37.100796 15.306500 -6.377948
v -37.101738 17.117147 -0.000002
vn 0.0083 -1.0000 -0.0000
vn 0.0167 -0.9999 -0.0000
vn 0.0016 -0.1871 -0.9823
vn 0.0006 -0.0180 -0.9998
vn 0.0015 -0.2073 -0.9783
vn -0.0000 -1.0000 -0.0000
vn -0.0000 -0.1871 -0.9823
vn -0.0000 0.0852 -0.9964
vn 0.0004 0.2190 -0.9757
vn 0.0004 0.2233 -0.9747
vn -0.0000 -0.0000 -1.0000
vn 1.0000 -0.0000 -0.0000
vn 0.0005 0.0095 1.0000
vn 0.0003 0.0747 0.9972
vn 0.0003 0.2218 0.9751
vn 0.0015 -0.2073 0.9783
vn 0.0008 0.2275 0.9738
vn 0.0017 1.0000 -0.0000
vn -0.0000 1.0000 -0.0000
vn 0.0033 1.0000 -0.0000
vn -0.0000 0.2190 0.9757
vn -0.0000 -0.0527 0.9986
vn 0.0016 -0.1871 0.9823
vn -0.0000 -0.1871 0.9823
vn -0.0000 0.2190 -0.9757
vn 0.0010 -0.0181 -0.9998
vn -0.0015 0.0274 -0.9996
vn 0.0004 -0.0181 -0.9998
vn -0.0018 0.0730 -0.9973
vn 0.0535 -0.9986 -0.0000
vn 0.0242 -0.9997 -0.0000
vn 0.0536 -0.9986 -0.0000
vn 0.0010 -0.0181 0.9998
vn 0.0004 -0.0181 0.9998
vn -0.0007 0.0274 0.9996
vn -0.0039 0.0729 0.9973
vn -0.0029 0.1183 0.9930
vn -0.0063 0.1182 0.9930
vn -0.0029 0.1184 0.9930
vn -0.0063 0.1182 -0.9930
vn -0.0029 0.1183 -0.9930
vn -0.0049 0.0501 -0.9987
vn -0.0136 0.1177 -0.9930
vn -0.0118 0.1179 0.9930
vn -0.0095 0.0634 -0.9979
vn -0.0196 0.1194 -0.9927
vn -0.0187 0.1189 0.9927
vn -0.0059 0.0502 0.9987
vn -0.0057 0.0362 0.9993
vn 0.0020 -0.0180 0.9998
vn 0.0992 -0.9951 -0.0000
vn 0.1485 -0.9889 -0.0000
vn 0.1157 -0.9933 -0.0000
vn 0.0028 -0.0179 0.9998
vn 0.1648 -0.9863 -0.0000
vn 0.0020 -0.0180 -0.9998
vn 0.0028 -0.0179 -0.9998
vn -0.0360 0.0548 -0.9978
vn 0.1797 -0.9837 -0.0000
vn -0.0571 0.0202 -0.9982
vn -0.0891 0.0532 -0.9946
vn -0.0582 0.1031 -0.9930
vn -0.0887 0.0374 -0.9954
vn -0.0361 0.0549 0.9978
vn -0.0582 0.1031 0.9930
vn -0.0891 0.0532 0.9946
vn -0.0887 0.0374 0.9954
vn -0.0571 0.0202 0.9982
vn 0.1783 -0.9840 -0.0000
vn 0.0080 -1.0000 -0.0000
vn -0.0003 0.0141 -0.9999
vn 0.0003 -0.0341 -0.9994
vn -0.0003 0.0624 -0.9981
vn -0.0009 0.1105 -0.9939
vn -0.0080 1.0000 -0.0000
vn -1.0000 -0.0000 -0.0000
vn -0.0003 0.0624 0.9981
vn -0.0009 0.1105 0.9939
vn -0.0003 0.0141 0.9999
vn 0.0003 -0.0341 0.9994
vn 1.0000 0.0005 -0.0000
vn 0.0011 0.5439 0.8392
vn 0.0011 0.4163 0.9092
vn -0.0000 0.0638 0.9980
vn 0.0008 0.9026 0.4304
vn 0.0009 0.7985 0.6020
vn -1.0000 -0.0005 -0.0000
vn -0.0000 -0.0638 0.9980
vn -0.0011 -0.4163 0.9092
vn -0.0011 -0.5439 0.8392
vn -0.0009 -0.7985 0.6020
vn -0.0008 -0.9026 0.4304
vn -0.0006 -0.9925 -0.1223
vn -0.0006 -0.9925 0.1224
vn -0.0009 -0.7984 -0.6022
vn -0.0008 -0.9027 -0.4302
vn -0.0011 -0.4159 -0.9094
vn -0.0010 -0.5440 -0.8391
vn -0.0000 -0.0641 -0.9979
vn -0.0000 0.0641 -0.9979
vn 0.0011 0.4159 -0.9094
vn 0.0010 0.5440 -0.8391
vn 0.0009 0.7984 -0.6022
vn 0.0008 0.9027 -0.4302
vn 0.0006 0.9925 -0.1223
vn 0.0006 0.9925 0.1224
vt 0.023508 0.535156
vt 0.363281 0.519007
vt 0.023508 0.446391
vt 0.011719 0.535156
vt 0.011719 0.446391
vt 0.023508 0.371094
vt 0.363281 0.374302
vt 0.363281 0.446655
vt 0.011719 0.371094
vt 0.353784 0.833084
vt 0.353378 0.802916
vt 0.488281 0.822133
vt 0.488281 0.791926
vt 0.488281 0.761719
vt 0.352972 0.772748
vt 0.239423 0.834785
vt 0.238654 0.804718
vt 0.133402 0.882364
vt 0.132296 0.852447
vt 0.240191 0.864852
vt 0.134507 0.912279
vt 0.029795 0.944358
vt 0.022740 0.981560
vt 0.016137 0.953000
vt 0.025239 0.918348
vt 0.011719 0.988281
vt 0.628906 0.542969
vt 0.629632 0.363281
vt 0.691131 0.363281
vt 0.690405 0.542969
vt 0.746094 0.363281
vt 0.745368 0.542969
vt 0.544922 0.375318
vt 0.500000 0.363281
vt 0.500000 0.453125
vt 0.455078 0.375318
vt 0.422193 0.408203
vt 0.410156 0.453125
vt 0.422193 0.498047
vt 0.455078 0.530932
vt 0.500000 0.542969
vt 0.544922 0.530932
vt 0.577807 0.498047
vt 0.589844 0.453125
vt 0.577807 0.408204
s 1
f 4/1/1 1/1/1 2/2/2
f 1/1/1 3/2/2 2/2/2
f 1/1/3 7/3/4 3/2/5
f 1/1/1 4/1/1 5/4/6
f 6/4/6 1/1/1 5/4/6
f 7/3/4 1/1/3 6/4/7
f 8/5/8 7/3/4 6/4/7
f 9/6/9 7/3/4 8/5/8
f 7/3/4 9/6/9 10/7/10
f 7/3/4 11/8/11 3/2/5
f 11/8/11 7/3/4 10/7/10
f 3/2/12 11/8/12 13/8/12
f 11/8/12 10/7/12 12/7/12
f 13/8/12 11/8/12 12/7/12
f 14/3/13 13/8/14 15/6/15
f 2/2/16 13/8/14 14/3/13
f 2/2/12 3/2/12 13/8/12
f 13/8/14 12/7/17 15/6/15
f 15/6/18 9/6/18 16/9/19
f 9/6/18 15/6/18 10/7/20
f 15/6/18 12/7/20 10/7/20
f 17/9/19 15/6/18 16/9/19
f 14/3/13 15/6/15 17/9/21
f 18/5/22 14/3/13 17/9/21
f 4/1/23 14/3/13 18/5/22
f 5/4/24 4/1/23 18/5/22
f 16/9/25 9/6/9 8/5/8
f 4/1/23 2/2/16 14/3/13
f 22/10/26 20/11/27 19/12/28
f 20/11/27 21/13/29 19/12/28
f 22/10/30 19/12/31 23/12/31
f 24/10/30 22/10/32 23/12/31
f 24/10/33 23/12/34 25/13/35
f 26/11/36 24/10/33 25/13/35
f 26/11/36 25/13/35 27/14/37
f 28/15/38 26/11/36 27/14/39
f 28/15/40 27/14/41 21/13/29
f 20/11/27 29/16/42 28/15/40
f 29/16/42 30/17/43 28/15/40
f 28/15/38 30/17/44 26/11/36
f 20/11/27 28/15/40 21/13/29
f 32/18/45 31/19/46 30/17/43
f 30/17/44 31/19/47 33/16/48
f 29/16/42 32/18/45 30/17/43
f 30/17/44 33/16/48 26/11/36
f 31/19/47 34/18/49 33/16/48
f 26/11/36 33/16/48 24/10/33
f 33/16/48 35/20/50 24/10/33
f 33/16/48 34/18/49 35/20/50
f 35/20/51 36/21/52 37/20/53
f 34/18/49 36/21/54 35/20/50
f 35/20/51 37/20/53 22/10/32
f 24/10/30 35/20/51 22/10/32
f 36/21/52 38/21/55 37/20/53
f 37/20/56 38/21/57 29/16/42
f 37/20/56 29/16/42 20/11/27
f 22/10/26 37/20/56 20/11/27
f 38/21/57 32/18/45 29/16/42
f 41/22/58 32/18/45 38/21/57
f 36/21/52 40/23/59 38/21/55
f 40/23/59 39/23/59 38/21/55
f 39/23/60 41/22/58 38/21/57
f 41/22/58 39/23/60 43/24/61
f 41/22/58 42/25/62 31/19/46
f 42/25/62 41/22/58 43/24/61
f 32/18/45 41/22/58 31/19/46
f 39/23/60 45/26/63 43/24/61
f 44/22/64 42/25/65 43/24/66
f 45/26/67 40/23/68 43/24/66
f 40/23/68 44/22/64 43/24/66
f 39/23/59 40/23/59 45/26/69
f 42/25/65 44/22/64 31/19/47
f 44/22/64 40/23/68 36/21/54
f 34/18/49 44/22/64 36/21/54
f 44/22/64 34/18/49 31/19/47
f 49/27/70 46/28/70 47/27/70
f 46/28/70 48/28/70 47/27/70
f 50/29/71 46/28/72 49/27/72
f 51/30/73 50/29/71 49/27/72
f 52/31/74 50/29/71 51/30/73
f 53/31/75 52/31/75 54/32/75
f 54/32/74 52/31/74 51/30/73
f 55/32/75 53/31/75 54/32/75
f 55/32/76 54/32/76 51/30/76
f 56/29/77 53/31/78 55/32/78
f 57/30/76 55/32/76 49/27/76
f 49/27/76 55/32/76 51/30/76
f 57/30/79 56/29/77 55/32/78
f 47/27/76 57/30/76 49/27/76
f 47/27/80 48/28/80 57/30/79
f 48/28/80 56/29/77 57/30/79
f 70/33/81 59/34/81 58/35/81
f 59/34/81 60/36/81 58/35/81
f 60/36/81 61/37/81 58/35/81
f 61/37/81 62/38/81 58/35/81
f 62/38/81 63/39/81 58/35/81
f 63/39/81 64/40/81 58/35/81
f 64/40/81 65/41/81 58/35/81
f 65/41/81 66/42/81 58/35/81
f 66/42/81 67/43/81 58/35/81
f 67/43/81 68/44/81 58/35/81
f 68/44/81 69/45/81 58/35/81
f 69/45/81 70/33/81 58/35/81
f 70/33/82 72/33/83 59/34/84
f 69/45/85 71/45/86 70/33/82
f 71/45/86 72/33/83 70/33/82
f 72/33/87 71/45/87 73/35/87
f 74/34/87 72/33/87 73/35/87
f 72/33/83 74/34/88 59/34/84
f 59/34/84 74/34/88 60/36/89
f 74/34/88 75/36/90 60/36/89
f 75/36/87 74/34/87 73/35/87
f 60/36/89 75/36/90 61/37/91
f 75/36/90 76/37/92 61/37/91
f 76/37/87 75/36/87 73/35/87
f 77/38/87 76/37/87 73/35/87
f 76/37/92 77/38/93 62/38/94
f 61/37/91 76/37/92 62/38/94
f 78/39/87 77/38/87 73/35/87
f 77/38/93 78/39/95 63/39/96
f 62/38/94 77/38/93 63/39/96
f 79/40/87 78/39/87 73/35/87
f 78/39/95 79/40/97 64/40/98
f 63/39/96 78/39/95 64/40/98
f 64/40/98 79/40/97 65/41/99
f 79/40/97 80/41/100 65/41/99
f 80/41/87 79/40/87 73/35/87
f 65/41/99 80/41/100 66/42/101
f 80/41/100 81/42/102 66/42/101
f 81/42/87 80/41/87 73/35/87
f 66/42/101 81/42/102 67/43/103
f 81/42/102 82/43/104 67/43/103
f 82/43/87 81/42/87 73/35/87
f 67/43/103 82/43/104 68/44/105
f 82/43/104 83/44/106 68/44/105
f 83/44/87 82/43/87 73/35/87
f 68/44/105 83/44/106 69/45/85
f 83/44/106 71/45/86 69/45/85
f 71/45/87 83/44/87 73/35/87
o blade_damaged
v -38.564400 -1.345900 -0.480300
v -110.010300 1.677400 -0.566300
v -38.564400 3.406400 -0.566300
v -109.795502 -3.068700 -0.480300
v -38.564400 -1.345900 0.480300
v -109.795502 -3.068700 0.480300
v -38.564400 3.406400 0.566300
v -38.564400 8.158600 -0.000001
v -110.010300 1.677400 0.566300
v -110.225204 6.423400 -0.000000
v -32.792900 -2.955400 -2.265600
v 41.740303 -1.959200 2.265600
v 41.740303 -1.959200 -2.265600
v -32.792900 -2.955400 2.265600
v -35.379101 -2.955400 2.265600
v -35.379101 -2.955400 -2.265600
v -32.792900 3.610700 -3.566900
v 41.740292 3.610700 -3.566900
v -35.379101 3.610700 -3.566900
v -32.792900 9.180600 -2.265601
v 41.740299 9.180600 -2.265601
v -32.792900 9.180600 2.265599
v 41.740299 9.180600 2.265599
v 41.740292 3.610700 3.566900
v -32.792900 3.610700 3.566900
v -35.379101 3.610700 3.566900
v -35.379101 9.180600 2.265599
v -35.379101 9.180600 -2.265601
v -35.188805 3.601425 0.000002
v -35.188805 3.601424 12.755841
v -35.185207 -3.155941 11.046927
v -35.182571 -8.102668 6.377988
v -35.181606 -9.913305 0.000005
v -35.182571 -8.102669 -6.377979
v -35.185207 -3.155940 -11.046922
v -35.188805 3.601426 -12.755838
v -35.192410 10.357912 -11.045486
v -35.195042 15.304801 -6.377594
v -35.196003 17.116154 -0.000002
v -35.195042 15.304854 6.377494
v -35.192410 10.357903 11.045476
v -37.100929 15.306468 6.377856
v -37.098293 10.359740 11.046925
v -37.094696 3.602374 12.755841
v -37.094696 3.602375 0.000002
v -37.088459 -8.101007 -6.377591
v -37.091091 -3.154112 -11.045488
v -37.094696 3.602376 -12.755838
v -37.098293 10.359741 -11.046924
v -37.100929 15.306468 -6.377985
v -37.091091 -3.154102 11.045476
v -37.101894 17.117105 -0.000002
v -37.088459 -8.100992 6.377594
v -37.087498 -9.912356 0.000005
v -34.015800 -2.157500 -1.099300
v -42.484100 -2.225600 1.099300
v -34.015800 -2.157500 1.099300
v -42.484100 -2.225600 -1.099300
v -34.015800 3.610700 -1.295900
v -42.484100 3.542600 -1.295900
v -34.015800 8.765900 -0.723001
v -34.015800 8.765900 0.722999
v -42.484100 8.697800 -0.723001
v -42.484100 8.697800 0.722999
v -34.015800 3.610700 1.295900
v -42.484100 3.542600 1.295900
vn 0.0004 -0.0181 -0.9998
vn -0.0007 0.0274 -0.9996
vn -0.0007 0.0275 -0.9996
vn -0.0018 0.0730 -0.9973
vn 0.0242 -0.9997 -0.0000
vn 0.0004 -0.0181 0.9998
vn -0.0007 0.0274 0.9996
vn -0.0018 0.0730 0.9973
vn -0.0029 0.1183 0.9930
vn -0.0029 0.1184 0.9930
vn -0.0029 0.1183 -0.9930
vn -0.0029 0.1184 -0.9930
vn 0.0067 -1.0000 -0.0000
vn 0.0134 -0.9999 -0.0000
vn 0.0013 -0.1944 -0.9809
vn 0.0004 -0.0187 -0.9998
vn 0.0013 -0.2110 -0.9775
vn -0.0000 -1.0000 -0.0000
vn -0.0000 -0.1944 -0.9809
vn -0.0000 -0.0000 -1.0000
vn -0.0000 0.2275 -0.9738
vn -0.0000 0.0886 -0.9961
vn -0.0000 1.0000 -0.0000
vn 1.0000 -0.0000 -0.0000
vn -0.0000 0.0776 0.9970
vn -0.0000 0.2275 0.9738
vn 0.0004 0.0114 0.9999
vn 0.0013 -0.2110 0.9775
vn 0.0013 -0.1944 0.9809
vn -0.0000 -0.0549 0.9985
vn -0.0000 -0.1944 0.9809
vn 1.0000 0.0005 -0.0000
vn 0.0011 0.5439 0.8392
vn 0.0011 0.4163 0.9092
vn -0.0000 0.0638 0.9980
vn 0.0008 0.9026 0.4304
vn 0.0009 0.7985 0.6020
vn -0.0000 -0.0638 0.9980
vn -1.0000 -0.0005 -0.0000
vn -0.0006 -0.9925 0.1224
vn -0.0006 -0.9925 -0.1223
vn -0.0008 -0.9027 -0.4302
vn -0.0008 -0.9026 0.4304
vn -0.0010 -0.7984 -0.6022
vn -0.0010 -0.7985 0.6020
vn -0.0011 -0.5439 0.8392
vn 0.0006 0.9925 -0.1223
vn 0.0006 0.9925 0.1224
vn 0.0008 0.9027 -0.4302
vn -0.0011 -0.4163 0.9092
vn 0.0010 0.7984 -0.6022
vn 0.0011 0.5440 -0.8391
vn 0.0011 0.4159 -0.9094
vn -0.0000 0.0641 -0.9979
vn -0.0011 -0.4159 -0.9094
vn -0.0000 -0.0641 -0.9979
vn -0.0011 -0.5440 -0.8391
vn 0.0080 -1.0000 -0.0000
vn -0.0003 0.0141 -0.9999
vn 0.0003 -0.0341 -0.9994
vn -0.0003 0.0624 -0.9981
vn -0.0009 0.1105 -0.9939
vn -0.0080 1.0000 -0.0000
vn -1.0000 -0.0000 -0.0000
vn -0.0003 0.0141 0.9999
vn -0.0003 0.0624 0.9981
vn -0.0009 0.1105 0.9939
vn 0.0003 -0.0341 0.9994
vt 0.014576 0.988281
vt 0.013148 0.892507
vt 0.488281 0.953516
vt 0.488281 0.857616
vt 0.488281 0.761719
vt 0.011719 0.796734
vt 0.023508 0.535156
vt 0.363281 0.521689
vt 0.023508 0.446391
vt 0.011719 0.535156
vt 0.363281 0.446391
vt 0.363281 0.371094
vt 0.011719 0.446391
vt 0.023508 0.371094
vt 0.011719 0.371094
vt 0.544922 0.375318
vt 0.500000 0.363281
vt 0.500000 0.453125
vt 0.455078 0.375318
vt 0.422193 0.408203
vt 0.410156 0.453125
vt 0.422193 0.498047
vt 0.455078 0.530932
vt 0.500000 0.542969
vt 0.544922 0.530932
vt 0.577807 0.498047
vt 0.589844 0.453125
vt 0.577807 0.408204
vt 0.628906 0.542969
vt 0.629632 0.363281
vt 0.691131 0.363281
vt 0.690405 0.542969
vt 0.746094 0.363281
vt 0.745368 0.542969
s 1
f 87/46/107 85/47/108 84/48/107
f 85/47/109 86/49/110 84/48/107
f 87/46/111 84/48/111 88/48/111
f 89/46/111 87/46/111 88/48/111
f 89/46/112 88/48/112 90/49/113
f 92/47/114 90/49/113 91/50/115
f 92/47/114 89/46/112 90/49/113
f 93/51/116 92/47/114 91/50/116
f 93/51/117 91/50/117 86/49/110
f 85/47/109 93/51/118 86/49/110
f 97/52/119 94/52/119 95/53/120
f 94/52/119 96/53/120 95/53/120
f 94/52/121 100/54/122 96/53/123
f 94/52/119 97/52/119 98/55/124
f 99/55/124 94/52/119 98/55/124
f 100/54/122 94/52/121 99/55/125
f 101/56/126 100/54/122 104/57/127
f 100/54/122 101/56/126 96/53/123
f 102/58/128 100/54/122 99/55/125
f 103/59/127 100/54/122 102/58/128
f 100/54/122 103/59/127 104/57/127
f 103/59/129 105/59/129 104/57/129
f 105/59/129 106/57/129 104/57/129
f 101/56/130 104/57/130 106/57/130
f 107/56/131 106/57/132 105/59/132
f 107/56/130 101/56/130 106/57/130
f 96/53/130 101/56/130 107/56/130
f 108/54/133 107/56/131 105/59/132
f 95/53/134 107/56/131 108/54/133
f 95/53/130 96/53/130 107/56/130
f 97/52/135 108/54/133 109/58/136
f 97/52/135 95/53/134 108/54/133
f 108/54/133 105/59/132 110/60/132
f 109/58/136 108/54/133 110/60/132
f 110/60/129 105/59/129 111/60/129
f 105/59/129 103/59/129 111/60/129
f 111/60/127 103/59/127 102/58/128
f 98/55/137 97/52/135 109/58/136
f 124/61/138 113/62/138 112/63/138
f 113/62/138 114/64/138 112/63/138
f 114/64/138 115/65/138 112/63/138
f 115/65/138 116/66/138 112/63/138
f 116/66/138 117/67/138 112/63/138
f 117/67/138 118/68/138 112/63/138
f 118/68/138 119/69/138 112/63/138
f 119/69/138 120/70/138 112/63/138
f 120/70/138 121/71/138 112/63/138
f 121/71/138 122/72/138 112/63/138
f 122/72/138 123/73/138 112/63/138
f 123/73/138 124/61/138 112/63/138
f 124/61/139 126/61/140 113/62/141
f 123/73/142 125/73/143 124/61/139
f 125/73/143 126/61/140 124/61/139
f 126/61/140 127/62/144 113/62/141
f 127/62/145 126/61/145 128/63/145
f 126/61/145 125/73/145 128/63/145
f 130/68/145 129/67/145 128/63/145
f 129/67/145 137/66/145 128/63/145
f 131/69/145 130/68/145 128/63/145
f 132/70/145 131/69/145 128/63/145
f 133/71/145 132/70/145 128/63/145
f 134/64/145 127/62/145 128/63/145
f 135/72/145 133/71/145 128/63/145
f 136/65/145 134/64/145 128/63/145
f 125/73/145 135/72/145 128/63/145
f 137/66/145 136/65/145 128/63/145
f 116/66/146 137/66/147 117/67/148
f 136/65/149 137/66/147 116/66/146
f 137/66/147 129/67/150 117/67/148
f 115/65/151 136/65/149 116/66/146
f 134/64/152 136/65/149 115/65/151
f 122/72/153 135/72/154 123/73/142
f 133/71/155 135/72/154 122/72/153
f 135/72/154 125/73/143 123/73/142
f 114/64/156 134/64/152 115/65/151
f 127/62/144 134/64/152 114/64/156
f 121/71/157 133/71/155 122/72/153
f 132/70/158 133/71/155 121/71/157
f 120/70/159 132/70/158 121/71/157
f 131/69/160 132/70/158 120/70/159
f 130/68/161 131/69/160 119/69/162
f 119/69/162 131/69/160 120/70/159
f 129/67/150 130/68/161 118/68/163
f 118/68/163 130/68/161 119/69/162
f 117/67/148 129/67/150 118/68/163
f 113/62/141 127/62/144 114/64/156
f 141/74/164 138/75/164 139/74/164
f 138/75/164 140/75/164 139/74/164
f 142/76/165 138/75/166 141/74/166
f 143/77/167 142/76/165 141/74/166
f 144/78/168 142/76/165 143/77/167
f 145/78/169 144/78/169 146/79/169
f 146/79/168 144/78/168 143/77/167
f 147/79/169 145/78/169 146/79/169
f 147/79/170 146/79/170 143/77/170
f 149/77/171 148/76/172 147/79/173
f 148/76/172 145/78/173 147/79/173
f 149/77/170 147/79/170 141/74/170
f 141/74/170 147/79/170 143/77/170
f 140/75/174 148/76/172 149/77/171
f 139/74/174 140/75/174 149/77/171
f 139/74/170 149/77/170 141/74/170
o blade_fragment
v -285.119080 -26.426998 -0.480298
v -290.956177 -27.484396 0.000002
v -285.119080 -26.426998 0.480302
v -288.616180 -21.933998 0.000002
v -281.382874 -20.574398 -0.566298
v -225.926285 -15.527596 -0.480299
v -226.511765 -10.821397 -0.566299
v -225.926285 -15.527596 0.480301
v -170.362167 -3.336299 -0.566300
v -169.955399 -8.066399 -0.480299
v -169.955399 -8.066399 0.480301
v -110.010292 1.677401 -0.566300
v -109.795486 -3.068699 -0.480300
v -109.795486 -3.068699 0.480300
v -110.010292 1.677401 0.566300
v -170.362167 -3.336299 0.566300
v -226.511765 -10.821397 0.566301
v -170.769089 1.393899 -0.000000
v -227.097382 -6.114900 0.000000
v -281.382874 -20.574398 0.566302
v -283.795776 -16.482498 0.000001
v -110.225189 6.423399 -0.000000
vn -0.0571 0.0202 -0.9982
vn -0.0887 0.0374 -0.9954
vn -0.0891 0.0532 -0.9946
vn 0.1797 -0.9837 -0.0000
vn 0.1783 -0.9840 -0.0000
vn 0.1648 -0.9863 -0.0000
vn -0.0360 0.0548 -0.9978
vn 0.0028 -0.0179 -0.9998
vn -0.0093 0.0634 -0.9979
vn -0.0049 0.0501 -0.9987
vn 0.1485 -0.9889 -0.0000
vn 0.1157 -0.9933 -0.0000
vn 0.0020 -0.0180 -0.9998
vn -0.0023 0.0274 -0.9996
vn 0.0992 -0.9951 -0.0000
vn 0.0828 -0.9966 -0.0000
vn 0.0015 -0.0180 -0.9998
vn -0.0060 0.0728 0.9973
vn -0.0059 0.0502 0.9987
vn 0.0015 -0.0180 0.9998
vn 0.0020 -0.0180 0.9998
vn -0.0187 0.1189 0.9927
vn -0.0057 0.0362 0.9993
vn -0.0118 0.1179 0.9930
vn -0.0196 0.1194 -0.9927
vn -0.0582 0.1031 -0.9930
vn -0.0582 0.1031 0.9930
vn -0.0361 0.0549 0.9978
vn -0.0136 0.1177 -0.9930
vn -0.0891 0.0532 0.9946
vn -0.0571 0.0202 0.9982
vn 0.0028 -0.0179 0.9998
vn -0.0098 0.1180 -0.9930
vn -0.0098 0.1180 0.9930
vn -0.0887 0.0374 0.9954
vt 0.027074 0.981216
vt 0.011719 0.988281
vt 0.017874 0.951195
vt 0.182787 0.908389
vt 0.036902 0.942111
vt 0.181247 0.876944
vt 0.328954 0.826930
vt 0.330024 0.858536
vt 0.487716 0.793430
vt 0.488281 0.825142
vt 0.179706 0.845496
vt 0.327884 0.795324
vt 0.030555 0.914770
vt 0.487151 0.761719
s 1
f 150/80/175 151/81/176 153/82/177
f 150/80/178 152/80/178 151/81/179
f 152/80/178 150/80/178 155/83/180
f 154/84/181 150/80/175 153/82/177
f 150/80/175 154/84/181 155/83/182
f 154/84/181 156/85/183 155/83/182
f 155/83/182 156/85/183 158/86/184
f 157/83/185 155/83/180 159/87/186
f 157/83/185 152/80/178 155/83/180
f 159/87/187 155/83/182 158/86/184
f 159/87/187 158/86/184 161/88/188
f 160/87/189 159/87/186 162/89/190
f 160/87/189 157/83/185 159/87/186
f 162/89/191 159/87/187 161/88/188
f 163/89/190 160/87/189 162/89/190
f 164/88/192 165/86/193 163/89/194
f 165/86/193 160/87/195 163/89/194
f 168/90/196 166/85/197 165/86/193
f 165/86/193 166/85/197 160/87/195
f 167/91/198 165/86/193 164/88/192
f 167/91/198 168/90/196 165/86/193
f 156/85/183 154/84/181 168/90/199
f 154/84/181 170/92/200 168/90/199
f 170/92/201 169/84/202 168/90/196
f 169/84/202 166/85/197 168/90/196
f 156/85/183 168/90/199 167/91/203
f 169/84/202 170/92/201 153/82/204
f 170/92/200 154/84/181 153/82/177
f 152/80/205 169/84/202 153/82/204
f 166/85/197 169/84/202 157/83/206
f 169/84/202 152/80/205 157/83/206
f 158/86/184 167/91/203 171/93/207
f 158/86/184 156/85/183 167/91/203
f 171/93/208 167/91/198 164/88/192
f 161/88/188 158/86/184 171/93/207
f 166/85/197 157/83/206 160/87/195
f 151/81/209 152/80/205 153/82/204
o sheath
v -35.537594 -2.408487 -2.462378
v -109.624603 -5.284317 2.726911
v -35.537594 -2.408486 2.462378
v -109.624603 -5.284317 -2.726910
v -109.955109 0.926713 -4.570762
v -35.134823 3.499482 -3.777248
v -35.134823 3.499483 3.777248
v -109.955109 0.926714 4.570762
v -35.389313 9.398791 2.462377
v -35.389313 9.398791 -2.462379
v -110.285698 7.137743 2.726910
v -171.035248 2.195664 2.726910
v -110.285698 7.137743 -2.726911
v -171.035248 2.195664 -2.726910
v -227.594101 -4.733328 -2.726910
v -226.508377 -10.868086 -4.570761
v -170.314575 -3.983876 -4.570762
v -169.594147 -10.163337 -2.726909
v -225.422852 -17.002768 -2.726909
v -294.118378 -28.617380 -2.640480
v -294.118378 -28.617380 2.640484
v -225.422852 -17.002768 2.726911
v -226.508377 -10.868086 4.570763
v -169.594147 -10.163337 2.726911
v -170.314575 -3.983875 4.570763
v -227.594101 -4.733328 2.726910
v -297.122711 -16.274298 -2.640481
v -297.122711 -16.274298 2.640483
v -295.966003 -22.511379 4.050474
v -295.966003 -22.511379 -4.050470
v -35.480892 -2.068468 -1.933396
v -35.305309 8.241507 -1.933397
v -35.480892 -2.068467 1.933396
v -35.305309 8.241507 1.933395
v -35.385521 3.531470 -2.983816
v -35.385521 3.531470 2.983816
v -293.705200 -27.661724 -1.933394
v -296.226044 -17.417904 -1.933395
v -293.705200 -27.661724 1.933398
v -296.226044 -17.417904 1.933397
v -294.965576 -22.539816 -2.983814
v -294.965576 -22.539816 2.983818
v -225.587036 -16.207220 -1.933395
v -227.404739 -5.846018 -1.933396
v -225.587036 -16.207220 1.933397
v -227.404739 -5.846018 1.933396
v -226.495804 -11.026701 -2.983815
v -226.495804 -11.026701 2.983817
v -169.698975 -9.313675 -1.933395
v -170.906876 1.122642 -1.933396
v -169.698975 -9.313675 1.933397
v -170.906876 1.122642 1.933396
v -170.302872 -4.095555 -2.983816
v -170.302872 -4.095555 2.983816
v -109.670334 -4.380011 -1.933396
v -110.223404 6.110211 -1.933396
v -109.670334 -4.380011 1.933396
v -110.223404 6.110211 1.933396
v -109.946823 0.865101 -2.983816
v -109.946823 0.865101 2.983816
v -293.705200 -27.661724 -1.933394
v -294.965576 -22.539816 -2.983814
v -293.705200 -27.661724 1.933398
v -294.965576 -22.539816 2.983818
v -296.226044 -17.417904 1.933397
v -296.226044 -17.417904 -1.933395
v -93.235199 -4.707600 -2.215558
v -93.235199 -4.707600 2.215640
v -93.160118 0.905345 -3.548222
v -89.582527 1.066607 -3.548222
v -89.757965 -4.550916 -2.215558
v -89.757965 -4.550916 2.215640
v -93.160118 0.905346 3.548222
v -89.582527 1.066607 3.548222
v -89.407104 6.684130 -2.215640
v -89.407104 6.684130 2.215558
v -93.084930 6.518376 2.215558
v -93.084930 6.518376 -2.215640
vn 0.0685 -0.9977 -0.0000
vn 0.0388 -0.9992 -0.0000
vn 0.0514 -0.9987 -0.0000
vn 0.9996 -0.0278 -0.0000
vn 0.9977 -0.0680 -0.0000
vn 0.0153 -0.2505 -0.9680
vn 0.0188 -0.2836 -0.9588
vn 0.0095 -0.0427 -0.9990
vn 0.0104 0.0032 -0.9999
vn 1.0000 0.0028 -0.0000
vn 0.0104 0.0032 0.9999
vn -0.0015 0.2504 0.9682
vn 0.0010 0.0409 0.9992
vn 0.0153 -0.2505 0.9680
vn 0.9991 0.0431 -0.0000
vn -0.0302 0.9995 -0.0000
vn -0.0557 0.9984 -0.0000
vn -0.0141 0.2839 0.9588
vn -0.0266 0.2830 0.9588
vn -0.0932 0.9956 -0.0000
vn -0.1095 0.9940 -0.0000
vn -0.1342 0.9910 -0.0000
vn -0.0085 0.0401 -0.9992
vn -0.0412 0.2809 -0.9589
vn -0.0312 0.2825 -0.9588
vn 0.0026 -0.0006 -1.0000
vn -0.0176 0.2837 -0.9588
vn 0.0264 -0.2830 -0.9588
vn 0.0380 -0.2814 -0.9588
vn 0.1667 -0.9860 -0.0000
vn 0.1534 -0.9882 -0.0000
vn 0.0385 -0.2475 -0.9681
vn 0.1350 -0.9908 -0.0000
vn 0.1096 -0.9940 -0.0000
vn 0.0041 -0.0430 0.9991
vn 0.0402 -0.2811 0.9588
vn 0.0310 -0.2825 0.9588
vn 0.0385 -0.2475 0.9681
vn 0.0931 -0.9957 -0.0000
vn -0.0023 -0.0010 1.0000
vn 0.0205 -0.2835 0.9588
vn -0.0386 0.2813 0.9588
vn -0.1512 0.9885 -0.0000
vn -0.1637 0.9865 -0.0000
vn -0.0450 0.2457 0.9683
vn -0.9752 -0.2215 -0.0000
vn -0.9832 -0.1823 -0.0000
vn -0.0081 0.0051 1.0000
vn -0.9679 -0.2512 -0.0000
vn -0.9571 -0.2896 -0.0000
vn -0.0082 0.0051 -1.0000
vn -0.0450 0.2457 -0.9683
vn -0.0015 0.2504 -0.9682
vn 0.0325 -0.1931 -0.9806
vn -0.0150 0.0709 -0.9974
vn 0.0018 -0.0003 -1.0000
vn 0.0265 -0.1941 -0.9806
vn 0.0133 -0.0590 0.9982
vn 0.0325 -0.1931 0.9806
vn 0.0299 -0.1936 0.9806
vn -0.0016 -0.0008 1.0000
vn 0.1658 -0.9862 -0.0000
vn 0.1530 -0.9882 -0.0000
vn 0.1353 -0.9908 -0.0000
vn -0.0325 0.1931 -0.9806
vn -0.0301 0.1936 -0.9806
vn -0.1658 0.9862 -0.0000
vn -0.1529 0.9882 -0.0000
vn -0.1354 0.9908 -0.0000
vn -0.0325 0.1931 0.9806
vn -0.0267 0.1941 0.9806
vn 0.0017 -0.0004 -1.0000
vn 0.0185 -0.1952 -0.9806
vn 0.0216 -0.1949 0.9806
vn -0.0016 -0.0007 1.0000
vn 0.1104 -0.9939 -0.0000
vn 0.0939 -0.9956 -0.0000
vn -0.0217 0.1949 -0.9806
vn -0.1104 0.9939 -0.0000
vn -0.0940 0.9956 -0.0000
vn -0.0185 0.1952 0.9806
vn 0.0019 0.0031 -1.0000
vn 0.0093 -0.1921 -0.9813
vn 0.0132 -0.1957 0.9806
vn -0.0024 0.0326 0.9995
vn 0.0669 -0.9978 -0.0000
vn 0.0462 -0.9989 -0.0000
vn -0.0128 0.1957 -0.9806
vn -0.0552 0.9985 -0.0000
vn -0.0108 0.1958 0.9806
vn 0.0062 -0.1902 0.9817
vn -0.0008 0.0204 0.9998
vn 0.0311 -0.9995 -0.0000
vn -0.0068 0.2071 0.9783
vn -0.0284 0.9996 -0.0000
vn -0.0068 0.2071 -0.9783
vn -0.0004 -0.0518 -0.9987
vn 0.0057 -0.1845 -0.9828
vn 0.9999 -0.0170 -0.0000
vn -0.9710 -0.2389 -0.0000
vn -0.9710 -0.2390 -0.0000
vn 0.0450 -0.9990 -0.0000
vn -0.9999 0.0134 -0.0000
vn 0.0104 -0.2311 -0.9729
vn 0.0015 0.0725 -0.9974
vn -0.0007 -0.0720 -0.9974
vn -0.0003 0.0860 0.9963
vn -0.0006 -0.0855 0.9963
vn 0.0104 -0.2311 0.9729
vn 0.9995 -0.0312 -0.0000
vn -0.0104 0.2311 0.9729
vn -0.0450 0.9990 -0.0000
vn -0.0104 0.2311 -0.9729
vt 0.352875 0.633003
vt 0.487720 0.624855
vt 0.488281 0.599537
vt 0.352092 0.606343
vt 0.487645 0.574219
vt 0.351308 0.579684
vt 0.240814 0.597448
vt 0.138009 0.623971
vt 0.140166 0.650346
vt 0.242306 0.623994
vt 0.243799 0.650540
vt 0.142322 0.676721
vt 0.017551 0.722656
vt 0.011719 0.669544
vt 0.014008 0.696362
vt 0.016650 0.722656
vt 0.014184 0.699027
vt 0.139093 0.650501
vt 0.140917 0.674377
vt 0.011719 0.675397
vt 0.137269 0.626624
vt 0.241684 0.622251
vt 0.242951 0.646281
vt 0.240416 0.598221
vt 0.351952 0.603328
vt 0.352622 0.627461
vt 0.351283 0.579196
vt 0.488281 0.621609
vt 0.488281 0.595868
vt 0.488281 0.574219
vt 0.628906 0.511340
vt 0.628906 0.394910
vt 0.687500 0.542969
vt 0.687500 0.363281
vt 0.746094 0.394910
vt 0.746094 0.511340
vt 0.629684 0.397023
vt 0.628906 0.397023
vt 0.628906 0.509225
vt 0.687088 0.542969
vt 0.687889 0.542969
vt 0.629684 0.509225
vt 0.687889 0.363281
vt 0.687088 0.363281
vt 0.745271 0.397025
vt 0.746094 0.509227
vt 0.746094 0.397025
vt 0.745271 0.509227
s 1
f 175/94/210 172/95/211 173/94/212
f 172/95/211 174/95/211 173/94/212
f 178/96/213 174/95/214 172/95/214
f 172/95/215 175/94/216 176/97/217
f 177/96/218 172/95/215 176/97/217
f 177/96/219 178/96/213 172/95/214
f 178/96/220 180/98/221 179/97/222
f 174/95/223 178/96/220 179/97/222
f 180/98/224 178/96/213 177/96/219
f 181/98/224 180/98/224 177/96/219
f 180/98/225 181/98/225 182/99/226
f 180/98/221 182/99/227 179/97/222
f 182/99/227 183/100/228 179/97/222
f 185/100/229 183/100/230 182/99/226
f 181/98/225 184/99/226 182/99/226
f 184/99/226 185/100/229 182/99/226
f 185/100/229 186/101/231 183/100/230
f 187/102/232 186/101/233 185/100/234
f 188/103/235 187/102/232 185/100/234
f 188/103/235 185/100/234 184/99/236
f 176/97/217 188/103/235 184/99/236
f 189/104/237 188/103/235 176/97/217
f 190/105/238 187/102/232 188/103/235
f 189/104/237 190/105/238 188/103/235
f 192/106/239 191/106/239 190/105/240
f 190/105/238 191/106/241 187/102/232
f 193/105/242 192/106/239 190/105/240
f 193/105/242 190/105/240 189/104/243
f 194/102/244 193/105/245 195/104/246
f 192/106/247 193/105/245 194/102/244
f 195/104/248 193/105/242 189/104/243
f 196/103/249 194/102/244 195/104/246
f 195/104/248 189/104/243 175/94/210
f 196/103/249 195/104/246 173/94/250
f 173/94/212 195/104/248 175/94/210
f 183/100/228 196/103/249 179/97/222
f 183/100/228 197/101/251 196/103/249
f 197/101/251 194/102/244 196/103/249
f 179/97/222 196/103/249 173/94/250
f 186/101/231 197/101/252 183/100/230
f 186/101/231 198/107/253 197/101/252
f 198/107/253 199/107/253 197/101/252
f 197/101/251 199/107/254 194/102/244
f 200/108/255 199/107/256 198/107/256
f 199/107/254 200/108/257 194/102/244
f 201/108/258 200/108/255 198/107/256
f 192/106/259 200/108/255 201/108/258
f 200/108/257 192/106/247 194/102/244
f 191/106/259 192/106/259 201/108/258
f 191/106/241 201/108/260 187/102/232
f 201/108/260 198/107/261 187/102/232
f 198/107/261 186/101/233 187/102/232
f 175/94/216 189/104/237 176/97/217
f 184/99/236 181/98/262 176/97/217
f 181/98/262 177/96/218 176/97/217
f 173/94/250 174/95/223 179/97/222
f 208/109/263 212/110/264 218/111/265
f 214/112/266 208/109/263 218/111/265
f 213/110/267 210/109/268 216/112/269
f 219/111/270 213/110/267 216/112/269
f 210/109/271 208/109/271 214/112/272
f 216/112/273 210/109/271 214/112/272
f 212/110/264 209/113/274 215/114/275
f 218/111/265 212/110/264 215/114/275
f 209/113/276 211/113/276 217/114/277
f 215/114/278 209/113/276 217/114/277
f 211/113/279 213/110/267 219/111/270
f 217/114/280 211/113/279 219/111/270
f 214/112/266 218/111/265 224/115/281
f 220/116/282 214/112/266 224/115/281
f 219/111/270 216/112/269 222/116/283
f 225/115/284 219/111/270 222/116/283
f 216/112/273 214/112/272 220/116/285
f 222/116/286 216/112/273 220/116/285
f 218/111/265 215/114/275 221/117/287
f 224/115/281 218/111/265 221/117/287
f 215/114/278 217/114/277 223/117/288
f 221/117/289 215/114/278 223/117/288
f 217/114/280 219/111/270 225/115/284
f 223/117/290 217/114/280 225/115/284
f 220/116/282 224/115/281 230/118/291
f 226/119/292 220/116/282 230/118/291
f 225/115/284 222/116/283 228/119/293
f 231/118/294 225/115/284 228/119/293
f 222/116/286 220/116/285 226/119/295
f 228/119/296 222/116/286 226/119/295
f 224/115/281 221/117/287 227/120/297
f 230/118/291 224/115/281 227/120/297
f 221/117/289 223/117/288 229/120/298
f 227/120/298 221/117/289 229/120/298
f 223/117/290 225/115/284 231/118/294
f 229/120/299 223/117/290 231/118/294
f 204/121/300 207/122/301 231/118/294
f 228/119/293 204/121/300 231/118/294
f 202/121/302 204/121/302 228/119/296
f 226/119/295 202/121/302 228/119/296
f 205/123/303 229/120/299 231/118/294
f 207/122/301 205/123/303 231/118/294
f 203/123/304 227/120/298 229/120/298
f 205/123/304 203/123/304 229/120/298
f 203/123/305 206/122/306 230/118/291
f 227/120/297 203/123/305 230/118/291
f 206/122/306 202/121/307 226/119/292
f 230/118/291 206/122/306 226/119/292
f 205/123/308 207/122/308 206/122/308
f 203/123/308 205/123/308 206/122/308
f 207/122/308 204/121/308 202/121/308
f 206/122/308 207/122/308 202/121/308
f 232/124/309 234/125/309 233/126/310
f 234/125/309 235/127/310 233/126/310
f 235/127/310 236/128/310 237/129/310
f 233/126/310 235/127/310 237/129/310
f 243/130/311 239/131/311 238/132/311
f 239/131/312 240/133/312 238/132/312
f 238/132/313 240/133/314 241/134/315
f 242/135/313 238/132/313 241/134/315
f 242/135/311 243/130/311 238/132/311
f 245/136/316 244/137/317 243/130/318
f 244/137/317 239/131/318 243/130/318
f 242/135/319 241/134/319 243/130/319
f 245/136/319 243/130/319 241/134/319
f 248/138/320 244/137/317 245/136/316
f 246/139/319 245/136/319 241/134/319
f 246/139/319 247/140/319 245/136/319
f 247/140/320 248/138/320 245/136/316
f 249/141/321 248/138/321 247/140/321
f 249/141/312 240/133/312 248/138/312
f 248/138/312 240/133/312 244/137/312
f 240/133/314 249/141/322 246/139/322
f 246/139/321 249/141/321 247/140/321
f 241/134/315 240/133/314 246/139/322
f 240/133/312 239/131/312 244/137/312
o item_blade
v 26.590300 22.520599 11.862098
v 26.590300 22.520599 5.647598
v 33.175800 18.257101 13.730999
v 34.370899 19.927902 13.730998
v 27.751900 24.144600 11.862098
v 27.751900 24.144600 5.647598
v 34.370899 19.927900 3.778699
v 33.175800 18.257099 3.778699
v 39.761299 13.993600 5.647699
v 39.761299 13.993601 11.862199
v 40.990002 15.711200 5.647699
v 40.990002 15.711201 11.862199
v 0.000000 70.710701 -0.000005
v 70.710701 0.000000 0.000000
v 0.000000 55.656200 3.999996
v -55.656101 0.000000 4.000000
v -70.710701 0.000000 0.000000
v 0.000000 -55.656101 4.000004
v 0.000000 -70.710602 0.000005
v 55.656200 0.000000 4.000000
v 0.000000 70.710701 -0.000005
v 0.000000 55.656200 -4.000004
v 70.710701 0.000000 0.000000
v -55.656101 -0.000000 -4.000000
v -70.710701 0.000000 0.000000
v 0.000000 -55.656101 -3.999996
v 0.000000 -70.710602 0.000005
v 55.656200 -0.000000 -4.000000
v 0.000000 70.710701 -0.000005
v 70.710701 0.000000 0.000000
v 0.000000 55.656200 3.999996
v -55.656101 0.000000 4.000000
v -70.710701 0.000000 0.000000
v 0.000000 -55.656101 4.000004
v 0.000000 -70.710602 0.000005
v 55.656200 0.000000 4.000000
v 0.000000 70.710701 -0.000005
v 0.000000 55.656200 -4.000004
v 70.710701 0.000000 0.000000
v -55.656101 -0.000000 -4.000000
v -70.710701 0.000000 0.000000
v 0.000000 -55.656101 -3.999996
v 0.000000 -70.710602 0.000005
v 55.656200 -0.000000 -4.000000
v 0.000000 70.710701 -0.000005
v 70.710701 0.000000 0.000000
v 0.000000 55.656200 3.999996
v -55.656101 0.000000 4.000000
v -70.710701 0.000000 0.000000
v 0.000000 -55.656101 4.000004
v 0.000000 -70.710602 0.000005
v 55.656200 0.000000 4.000000
v 0.000000 70.710701 -0.000005
v 0.000000 55.656200 -4.000004
v 70.710701 0.000000 0.000000
v -55.656101 -0.000000 -4.000000
v -70.710701 0.000000 0.000000
v 0.000000 -55.656101 -3.999996
v 0.000000 -70.710602 0.000005
v 55.656200 -0.000000 -4.000000
v -47.864700 45.118301 12.412096
v -73.866402 80.239502 18.773893
v -73.866402 80.239502 12.412094
v -47.864601 45.118301 18.773895
v -47.002399 43.872002 18.773895
v -47.002300 43.872002 12.412097
v -55.445702 39.872898 10.585097
v -80.297302 75.789894 10.585094
v -54.583401 38.626598 10.585097
v -61.876499 35.423302 12.412097
v -86.728096 71.340302 12.412094
v -61.876499 35.423302 18.773897
v -86.728096 71.340302 18.773893
v -80.297203 75.789894 20.600895
v -55.445702 39.872799 20.600897
v -54.583401 38.626598 20.600897
v -61.014198 34.176998 18.773897
v -61.014198 34.176998 12.412097
v -47.798500 41.051300 14.918697
v -27.466995 4.206796 14.797900
v -53.285400 37.254799 14.797897
v -22.058901 8.101798 14.918699
v -47.798500 41.051300 16.267296
v -22.058901 8.101798 16.267300
v -53.285400 37.254799 16.388098
v -27.466995 4.206797 16.388100
v -58.772202 33.458500 15.592998
v -32.874901 0.311898 15.593000
v -1.555196 -20.871008 14.797902
v -6.880899 -24.846003 15.593002
v 20.570107 -45.991600 15.593004
v 25.808802 -41.949608 14.797903
v -1.555194 -20.871107 16.388102
v 3.770404 -16.896307 16.267302
v 25.808802 -41.949608 16.388103
v 31.047199 -37.907799 16.267303
v 55.364910 -60.600220 16.388103
v 51.445110 -65.031906 15.593005
v 63.368004 -57.725311 16.267303
v 59.346508 -62.999809 15.593005
v 63.367912 -57.725304 14.918705
v 55.364910 -60.600220 14.797905
v 66.535027 -59.693413 15.593005
v 31.047199 -37.907799 14.918703
v 3.770404 -16.896307 14.918701
v -54.550121 38.596401 15.979269
v -47.691227 28.277649 28.908428
v -40.785458 35.024879 27.307016
v -37.567951 42.729218 22.670311
v -38.900909 49.326103 16.240637
v -44.427040 53.048027 9.740952
v -52.665653 52.897697 4.912987
v -61.409191 48.915138 3.050184
v -68.313042 42.167427 4.653041
v -71.531303 34.463902 9.288722
v -70.199417 27.866686 15.717939
v -64.672806 24.145720 22.217075
v -56.434402 24.297087 27.044138
v -64.210846 23.484308 21.444830
v -55.972130 23.634569 26.273039
v -47.228691 27.617044 28.135820
v -54.087673 37.935787 15.206699
v -52.203384 52.235126 4.141809
v -60.946651 48.254528 2.277581
v -67.852417 41.507298 3.878992
v -71.069832 33.803051 8.515711
v -40.324776 34.364769 26.532904
v -69.736885 27.206079 14.945332
v -37.106541 42.068352 21.897276
v -38.438377 48.665497 15.468027
v -43.965145 52.386524 8.968751
v -48.378101 43.891602 14.049597
v -45.475899 39.865200 17.136396
v -48.378201 43.891602 17.136396
v -45.475899 39.865200 14.049597
v -55.037899 39.283600 13.773597
v -52.135700 35.257099 13.773597
v -60.990002 35.165298 14.577897
v -60.990002 35.165298 16.608099
v -58.087700 31.138903 14.577898
v -58.087799 31.138903 16.608099
v -55.037899 39.283501 17.412395
v -52.135700 35.257099 17.412397
v 46.061726 47.385616 12.209182
v 21.420914 19.193798 7.762323
v 46.061726 47.385616 7.762321
v 21.420914 19.193798 12.209184
v 52.251614 44.160767 13.417124
v 52.251614 44.160767 6.554380
v 27.487284 15.828928 6.554382
v 58.441509 40.936001 7.762322
v 58.441509 40.936001 12.209183
v 33.553455 12.464139 7.762324
v 9.876830 -9.066715 7.762325
v 33.553455 12.464139 12.209185
v 9.876830 -9.066715 12.209187
v -14.891866 -27.670597 12.209188
v -20.696850 -24.088995 13.417129
v 3.938339 -5.585667 13.417127
v -26.501530 -20.507671 12.209188
v 27.487284 15.828928 13.417126
v -2.000047 -2.104700 12.209186
v -26.501530 -20.507671 7.762326
v -2.000047 -2.104701 7.762325
v 3.938339 -5.585667 6.554384
v -20.696850 -24.088997 6.554385
v -14.891866 -27.670597 7.762327
v -48.676796 -48.420403 7.762329
v -54.309544 -44.732624 6.554387
v -59.942295 -41.044922 7.762328
v -59.942295 -41.044922 12.209188
v -54.309544 -44.732624 13.417130
v -48.676796 -48.420403 12.209189
v -59.530998 -58.415699 11.466405
v -53.878399 -62.941700 12.939505
v -59.530998 -58.415699 6.043404
v -53.878399 -62.941700 4.570305
v -48.225800 -67.467796 11.466405
v -48.225800 -67.467796 6.043405
vn -0.8134 0.5818 -0.0000
vn -0.5435 -0.8394 -0.0000
vn -0.1887 0.1350 0.9727
vn 0.0644 -0.0461 0.9969
vn -0.0644 0.0461 0.9969
vn 0.0644 -0.0461 -0.9969
vn -0.0644 0.0461 -0.9969
vn -0.1887 0.1350 -0.9727
vn 0.5373 0.8434 -0.0000
vn 0.1887 -0.1350 -0.9727
vn 0.8133 -0.5818 -0.0000
vn 0.1887 -0.1350 0.9727
vn 0.2559 0.0853 0.9629
vn -0.0853 0.2559 0.9629
vn 0.0639 0.1919 0.9793
vn -0.1532 0.0510 0.9869
vn -0.2558 -0.0853 0.9629
vn -0.0639 -0.1919 0.9793
vn 0.0853 -0.2559 0.9629
vn 0.1531 -0.0510 0.9869
vn 0.0639 0.1919 -0.9793
vn -0.1531 0.0510 -0.9869
vn -0.0853 0.2559 -0.9629
vn 0.2559 0.0853 -0.9629
vn -0.2558 -0.0853 -0.9629
vn -0.0639 -0.1919 -0.9793
vn 0.0853 -0.2559 -0.9629
vn 0.1532 -0.0510 -0.9869
vn 0.8131 0.5821 -0.0000
vn 0.8037 0.5950 -0.0000
vn 0.1581 0.1131 -0.9809
vn 0.0149 0.0114 -0.9998
vn 0.1717 0.1226 -0.9775
vn 0.8224 0.5690 -0.0000
vn 0.8223 0.5690 -0.0000
vn 0.1599 0.1106 -0.9809
vn -0.0000 -0.0000 -1.0000
vn -0.1871 -0.1294 -0.9738
vn -0.0729 -0.0504 -0.9961
vn -0.8223 -0.5690 -0.0000
vn -0.5690 0.8223 -0.0000
vn -0.0638 -0.0442 0.9970
vn -0.1871 -0.1294 0.9738
vn -0.0099 -0.0056 0.9999
vn 0.1717 0.1226 0.9775
vn 0.0451 0.0312 0.9985
vn 0.1586 0.1124 0.9809
vn -0.8224 -0.5690 -0.0000
vn 0.1599 0.1106 0.9809
vn 0.0135 0.0123 -0.9998
vn -0.0205 -0.0185 -0.9996
vn 0.0143 0.0112 -0.9998
vn -0.0576 -0.0450 -0.9973
vn 0.7435 0.6687 -0.0000
vn 0.7880 0.6156 -0.0000
vn 0.7434 0.6689 -0.0000
vn 0.0135 0.0123 0.9998
vn 0.0143 0.0112 0.9998
vn -0.0217 -0.0169 0.9996
vn -0.0546 -0.0492 0.9973
vn -0.0934 -0.0730 0.9930
vn -0.0889 -0.0792 0.9929
vn -0.0934 -0.0730 0.9929
vn -0.0886 -0.0796 -0.9929
vn -0.0934 -0.0730 -0.9930
vn -0.0346 -0.0381 -0.9987
vn -0.0780 -0.0940 -0.9925
vn -0.0808 -0.0904 0.9926
vn -0.0394 -0.0544 -0.9977
vn -0.0713 -0.1067 -0.9917
vn -0.0723 -0.1045 0.9919
vn -0.0329 -0.0402 0.9987
vn 0.0121 0.0142 0.9998
vn -0.0220 -0.0318 0.9993
vn 0.0036 -0.1013 0.9949
vn 0.0105 0.0156 0.9998
vn -0.0065 -0.1710 0.9852
vn 0.0763 -0.2020 0.9764
vn 0.0604 -0.1222 0.9907
vn 0.0036 -0.1013 -0.9949
vn 0.0604 -0.1222 -0.9907
vn 0.0763 -0.2020 -0.9764
vn 0.0885 -0.1924 -0.9773
vn -0.0065 -0.1710 -0.9852
vn 0.0885 -0.1924 0.9773
vn 0.5251 0.8510 -0.0000
vn 0.5246 0.8513 -0.0000
vn 0.5278 0.8494 -0.0000
vn 0.0107 0.0155 -0.9998
vn 0.5818 0.8133 -0.0000
vn 0.5526 0.8335 -0.0000
vn 0.6395 0.7688 -0.0000
vn 0.0121 0.0142 -0.9998
vn 0.6680 0.7442 -0.0000
vn -0.4162 0.5901 0.6918
vn -0.5806 -0.7567 0.3006
vn -0.4293 -0.7965 0.4258
vn -0.1283 -0.7890 0.6008
vn 0.0034 -0.7574 0.6530
vn 0.3298 -0.6110 0.7197
vn 0.4347 -0.5391 0.7213
vn 0.4162 -0.5901 -0.6918
vn 0.5810 0.7565 -0.3004
vn 0.4290 0.7965 -0.4261
vn 0.1288 0.7891 -0.6006
vn 0.7728 0.6301 -0.0763
vn -0.0042 0.7571 -0.6532
vn 0.8664 0.4892 0.1002
vn 0.9106 0.2603 0.3211
vn 0.8905 0.1027 0.4433
vn 0.7712 -0.1782 0.6111
vn -0.8664 -0.4893 -0.1001
vn -0.7727 -0.6301 0.0764
vn -0.9106 -0.2606 -0.3209
vn 0.6930 -0.2904 0.6598
vn -0.8904 -0.1024 -0.4436
vn -0.7715 0.1778 -0.6109
vn -0.4353 0.5387 -0.7213
vn -0.6925 0.2910 -0.6601
vn -0.3291 0.6113 -0.7197
vn 0.8112 0.5847 -0.0000
vn -0.0115 -0.0083 -0.9999
vn 0.0276 0.0199 -0.9994
vn -0.0506 -0.0365 -0.9980
vn -0.0896 -0.0646 -0.9939
vn -0.8112 -0.5847 -0.0000
vn 0.5690 -0.8223 -0.0000
vn 0.5690 -0.8223 0.0001
vn -0.0506 -0.0365 0.9981
vn -0.0896 -0.0646 0.9939
vn -0.0115 -0.0083 0.9999
vn 0.0276 0.0199 0.9994
vn -0.7007 0.7134 -0.0000
vn -0.7529 0.6581 -0.0000
vn -0.7271 0.6865 -0.0000
vn 0.4620 0.8869 -0.0000
vn -0.0426 0.0194 0.9989
vn -0.1320 0.1154 0.9845
vn -0.1287 0.1228 0.9840
vn 0.0144 -0.0142 -0.9998
vn 0.1320 -0.1154 -0.9845
vn 0.0184 -0.0220 -0.9996
vn -0.1320 0.1154 -0.9845
vn 0.7529 -0.6581 -0.0000
vn 0.7140 -0.7001 -0.0000
vn 0.1275 -0.1232 -0.9841
vn 0.1194 -0.1383 -0.9832
vn 0.6497 -0.7602 -0.0000
vn 0.6249 -0.7807 -0.0000
vn 0.5762 -0.8173 -0.0000
vn -0.0000 0.0019 1.0000
vn 0.1051 -0.1590 0.9817
vn 0.1152 -0.1430 0.9830
vn 0.0014 0.0019 1.0000
vn 0.1250 -0.1263 0.9841
vn -0.1187 0.1401 0.9830
vn -0.1090 0.1561 0.9817
vn 0.0015 0.0021 1.0000
vn -0.5762 0.8173 -0.0000
vn -0.5487 0.8360 -0.0000
vn -0.6249 0.7807 -0.0000
vn -0.6497 0.7602 -0.0000
vn -0.0034 -0.0041 -1.0000
vn -0.1144 0.1450 -0.9828
vn -0.1240 0.1285 -0.9839
vn -0.0031 -0.0030 -1.0000
vn -0.1045 0.1610 -0.9814
vn -0.0529 0.0734 -0.9959
vn 0.1097 -0.1540 -0.9820
vn 0.1018 -0.1658 -0.9809
vn -0.1018 0.1658 -0.9809
vn -0.5233 0.8521 -0.0000
vn -0.1018 0.1658 0.9809
vn 0.0404 -0.0292 0.9988
vn 0.1018 -0.1658 0.9809
vn 0.5233 -0.8521 -0.0000
vn 0.5488 -0.8360 -0.0000
vn 0.1320 -0.1154 0.9845
vn -0.6250 -0.7806 -0.0000
vt 0.638360 0.363281
vt 0.628906 0.392028
vt 0.682500 0.467499
vt 0.692226 0.437923
vt 0.736094 0.542969
vt 0.746094 0.512565
vt 0.976562 0.023438
vt 0.095226 0.374655
vt 0.095226 0.374655
vt 0.363281 0.482039
vt 0.055192 0.405964
vt 0.085714 0.371094
vt 0.085714 0.371094
vt 0.329321 0.508598
vt 0.295360 0.535156
vt 0.045679 0.402403
vt 0.021231 0.432522
vt 0.329321 0.508597
vt 0.055191 0.405964
vt 0.011719 0.428961
vt 0.151345 0.832089
vt 0.130777 0.840408
vt 0.053453 0.761719
vt 0.032586 0.769827
vt 0.011719 0.777935
vt 0.110210 0.848726
vt 0.229324 0.893967
vt 0.209069 0.902456
vt 0.333393 0.938984
vt 0.313470 0.947617
vt 0.229324 0.893967
vt 0.249578 0.885478
vt 0.445800 0.978816
vt 0.353316 0.930352
vt 0.430892 0.988281
vt 0.460942 0.983941
vt 0.476237 0.972677
vt 0.476236 0.972677
vt 0.488281 0.976880
vt 0.454238 0.375317
vt 0.498319 0.363281
vt 0.498320 0.453125
vt 0.542401 0.375317
vt 0.574672 0.408202
vt 0.586483 0.453125
vt 0.574672 0.498048
vt 0.542401 0.530933
vt 0.498319 0.542969
vt 0.454238 0.530933
vt 0.421968 0.498048
vt 0.410156 0.453125
vt 0.421968 0.408204
vt 0.425328 0.408204
vt 0.457599 0.375317
vt 0.501680 0.363281
vt 0.501680 0.453125
vt 0.501680 0.542969
vt 0.545762 0.530933
vt 0.578032 0.498048
vt 0.457598 0.530933
vt 0.425328 0.498048
vt 0.545762 0.375317
vt 0.413517 0.453125
vt 0.578032 0.408202
vt 0.589844 0.453125
vt 0.746094 0.420014
vt 0.724172 0.363281
vt 0.724171 0.363281
vt 0.673866 0.428209
vt 0.695788 0.484943
vt 0.628906 0.486236
vt 0.650829 0.542969
vt 0.650828 0.542969
vt 0.673866 0.428210
vt 0.339170 0.617919
vt 0.438130 0.574219
vt 0.463206 0.579277
vt 0.488281 0.584336
vt 0.363750 0.623195
vt 0.388328 0.628470
vt 0.293124 0.661814
vt 0.193447 0.690595
vt 0.169919 0.684984
vt 0.269059 0.656358
vt 0.244994 0.650903
vt 0.146392 0.679374
vt 0.034553 0.716881
vt 0.057387 0.722656
vt 0.011719 0.711106
vt 0.628906 0.363281
vt 0.687500 0.453124
vt 0.746094 0.542969
s 1
f 255/142/323 251/143/323 250/143/323
f 251/143/324 252/144/324 250/143/324
f 250/143/325 252/144/326 253/145/327
f 254/142/325 250/143/325 253/145/327
f 254/142/323 255/142/323 250/143/323
f 256/145/328 257/144/329 255/142/330
f 256/145/331 255/142/331 253/145/331
f 254/142/331 253/145/331 255/142/331
f 257/144/329 251/143/330 255/142/330
f 252/144/324 251/143/324 257/144/324
f 258/146/332 257/144/329 256/145/328
f 258/146/324 252/144/324 257/144/324
f 259/146/333 258/146/333 260/147/333
f 259/146/324 252/144/324 258/146/324
f 260/147/332 258/146/332 256/145/328
f 261/147/331 260/147/331 256/145/331
f 261/147/333 259/146/333 260/147/333
f 252/144/326 259/146/334 261/147/334
f 253/145/327 252/144/326 261/147/334
f 261/147/331 256/145/331 253/145/331
f 263/148/335 262/148/336 264/148/337
f 264/148/337 262/148/336 265/148/338
f 262/148/336 266/148/339 265/148/338
f 265/148/338 266/148/339 267/148/340
f 266/148/339 268/148/341 267/148/340
f 268/148/341 263/148/335 269/148/342
f 267/148/340 268/148/341 269/148/342
f 269/148/342 263/148/335 264/148/337
f 264/148/337 265/148/338 269/148/342
f 265/148/338 267/148/340 269/148/342
f 271/148/343 273/148/344 270/148/345
f 271/148/343 270/148/345 272/148/346
f 273/148/344 274/148/347 270/148/345
f 273/148/344 275/148/348 274/148/347
f 275/148/348 276/148/349 274/148/347
f 277/148/350 272/148/346 276/148/349
f 275/148/348 277/148/350 276/148/349
f 271/148/343 277/148/350 273/148/344
f 277/148/350 271/148/343 272/148/346
f 277/148/350 275/148/348 273/148/344
f 279/148/335 278/148/336 280/148/337
f 280/148/337 278/148/336 281/148/338
f 278/148/336 282/148/339 281/148/338
f 281/148/338 282/148/339 283/148/340
f 282/148/339 284/148/341 283/148/340
f 284/148/341 279/148/335 285/148/342
f 283/148/340 284/148/341 285/148/342
f 280/148/337 281/148/338 285/148/342
f 285/148/342 279/148/335 280/148/337
f 281/148/338 283/148/340 285/148/342
f 287/148/343 289/148/344 286/148/345
f 287/148/343 286/148/345 288/148/346
f 289/148/344 290/148/347 286/148/345
f 289/148/344 291/148/348 290/148/347
f 291/148/348 292/148/349 290/148/347
f 293/148/350 288/148/346 292/148/349
f 291/148/348 293/148/350 292/148/349
f 293/148/350 287/148/343 288/148/346
f 287/148/343 293/148/350 289/148/344
f 293/148/350 291/148/348 289/148/344
f 295/148/335 294/148/336 296/148/337
f 296/148/337 294/148/336 297/148/338
f 294/148/336 298/148/339 297/148/338
f 297/148/338 298/148/339 299/148/340
f 298/148/339 300/148/341 299/148/340
f 300/148/341 295/148/335 301/148/342
f 299/148/340 300/148/341 301/148/342
f 301/148/342 295/148/335 296/148/337
f 296/148/337 297/148/338 301/148/342
f 297/148/338 299/148/340 301/148/342
f 303/148/343 305/148/344 302/148/345
f 303/148/343 302/148/345 304/148/346
f 305/148/344 306/148/347 302/148/345
f 305/148/344 307/148/348 306/148/347
f 307/148/348 308/148/349 306/148/347
f 309/148/350 304/148/346 308/148/349
f 307/148/348 309/148/350 308/148/349
f 303/148/343 309/148/350 305/148/344
f 309/148/350 303/148/343 304/148/346
f 309/148/350 307/148/348 305/148/344
f 313/149/351 310/150/351 311/151/352
f 310/150/351 312/151/352 311/151/352
f 310/150/353 316/152/354 312/151/355
f 310/150/351 313/149/351 314/153/356
f 315/154/357 310/150/351 314/153/356
f 316/152/354 310/150/353 315/154/358
f 317/155/359 316/152/354 320/156/360
f 316/152/354 317/155/359 312/151/355
f 318/157/361 316/152/354 315/154/358
f 319/158/360 316/152/354 318/157/361
f 316/152/354 319/158/360 320/156/360
f 319/158/362 321/158/362 320/156/362
f 321/158/362 322/156/362 320/156/362
f 317/155/363 320/156/363 322/156/363
f 323/159/364 322/156/365 321/158/365
f 323/159/363 317/155/363 322/156/363
f 312/151/363 317/155/363 323/159/363
f 324/160/366 323/159/364 321/158/365
f 311/151/367 323/159/364 324/160/366
f 311/151/363 312/151/363 323/159/363
f 324/160/366 321/158/365 326/161/365
f 325/157/368 324/160/366 326/161/365
f 313/149/369 324/160/366 325/157/368
f 313/149/369 311/151/367 324/160/366
f 326/161/370 321/158/362 327/161/370
f 321/158/362 319/158/362 327/161/370
f 327/161/360 319/158/360 318/157/361
f 314/153/371 313/149/369 325/157/368
f 331/162/372 329/163/373 328/164/374
f 329/163/373 330/165/375 328/164/374
f 331/162/376 328/164/377 332/164/377
f 333/162/376 331/162/378 332/164/377
f 333/162/379 332/164/380 334/165/381
f 335/163/382 333/162/379 334/165/381
f 335/163/382 334/165/381 336/166/383
f 337/167/384 335/163/382 336/166/385
f 337/167/386 336/166/387 330/165/375
f 329/163/373 337/167/386 330/165/375
f 329/163/373 338/168/388 337/167/386
f 338/168/388 339/169/389 337/167/386
f 337/167/384 339/169/390 335/163/382
f 341/170/391 340/171/392 339/169/389
f 339/169/390 340/171/393 342/172/394
f 338/168/388 341/170/391 339/169/389
f 339/169/390 342/172/394 335/163/382
f 342/172/394 343/173/395 333/162/379
f 342/172/394 344/170/396 343/173/395
f 340/171/393 344/170/396 342/172/394
f 335/163/382 342/172/394 333/162/379
f 346/174/397 344/170/396 340/171/393
f 344/170/396 345/175/398 343/173/395
f 344/170/396 346/174/397 345/175/398
f 347/176/399 346/174/397 340/171/393
f 346/174/397 347/176/399 349/177/400
f 346/174/397 348/178/401 345/175/398
f 348/178/401 346/174/397 349/177/400
f 351/174/402 350/179/403 349/177/404
f 350/179/403 352/180/405 349/177/404
f 347/176/406 351/174/402 349/177/404
f 352/180/407 348/178/401 349/177/400
f 350/179/408 348/178/409 352/180/410
f 350/179/403 351/174/402 353/175/411
f 351/174/402 347/176/406 340/171/392
f 351/174/402 341/170/391 353/175/411
f 341/170/391 351/174/402 340/171/392
f 353/175/411 341/170/391 338/168/388
f 345/175/412 353/175/413 354/173/414
f 345/175/412 348/178/409 353/175/413
f 354/173/415 353/175/411 338/168/388
f 348/178/409 350/179/408 353/175/413
f 343/173/416 345/175/412 354/173/414
f 354/173/415 338/168/388 329/163/373
f 343/173/416 354/173/414 331/162/378
f 331/162/372 354/173/415 329/163/373
f 333/162/376 343/173/416 331/162/378
f 367/181/417 356/182/417 355/183/417
f 356/182/417 357/184/417 355/183/417
f 357/184/417 358/185/417 355/183/417
f 358/185/417 359/186/417 355/183/417
f 359/186/417 360/187/417 355/183/417
f 360/187/417 361/188/417 355/183/417
f 361/188/417 362/189/417 355/183/417
f 362/189/417 363/190/417 355/183/417
f 363/190/417 364/191/417 355/183/417
f 364/191/417 365/192/417 355/183/417
f 365/192/417 366/193/417 355/183/417
f 366/193/417 367/181/417 355/183/417
f 366/193/418 368/194/419 367/181/420
f 368/194/419 369/195/421 367/181/420
f 367/181/420 369/195/421 356/182/422
f 369/195/421 370/196/423 356/182/422
f 370/196/424 369/195/424 371/197/424
f 369/195/424 368/194/424 371/197/424
f 373/198/424 372/199/424 371/197/424
f 372/199/424 380/200/424 371/197/424
f 374/201/424 373/198/424 371/197/424
f 375/202/424 374/201/424 371/197/424
f 376/203/424 370/196/424 371/197/424
f 377/204/424 375/202/424 371/197/424
f 378/205/424 376/203/424 371/197/424
f 368/194/424 377/204/424 371/197/424
f 379/206/424 378/205/424 371/197/424
f 380/200/424 379/206/424 371/197/424
f 360/187/425 380/200/426 361/188/427
f 379/206/428 380/200/426 360/187/425
f 380/200/426 372/199/429 361/188/427
f 359/186/430 379/206/428 360/187/425
f 378/205/431 379/206/428 359/186/430
f 358/185/432 378/205/431 359/186/430
f 376/203/433 378/205/431 358/185/432
f 365/192/434 377/204/435 366/193/418
f 375/202/436 377/204/435 365/192/434
f 377/204/435 368/194/419 366/193/418
f 357/184/437 376/203/433 358/185/432
f 370/196/423 376/203/433 357/184/437
f 364/191/438 375/202/436 365/192/434
f 374/201/439 375/202/436 364/191/438
f 373/198/440 374/201/439 363/190/441
f 363/190/441 374/201/439 364/191/438
f 372/199/429 373/198/440 362/189/442
f 362/189/442 373/198/440 363/190/441
f 361/188/427 372/199/429 362/189/442
f 356/182/422 370/196/423 357/184/437
f 384/207/443 381/208/443 382/207/443
f 381/208/443 383/209/443 382/207/443
f 385/210/444 381/208/445 384/207/445
f 386/211/446 385/210/444 384/207/445
f 387/212/447 385/210/444 386/211/446
f 388/212/448 387/212/448 389/213/448
f 389/213/447 387/212/447 386/211/446
f 390/214/448 388/212/448 389/213/448
f 390/214/449 389/213/449 386/211/450
f 391/215/451 388/212/452 390/214/452
f 392/211/449 390/214/449 384/207/449
f 384/207/449 390/214/449 386/211/450
f 392/211/453 391/215/451 390/214/452
f 383/209/454 391/215/451 392/211/453
f 382/207/454 383/209/454 392/211/453
f 382/207/449 392/211/449 384/207/449
f 396/216/455 393/217/456 394/216/457
f 393/217/456 395/217/456 394/216/457
f 398/218/458 395/217/458 393/217/458
f 397/218/459 393/217/460 396/216/461
f 397/218/458 398/218/458 393/217/458
f 400/219/458 398/218/458 397/218/458
f 398/218/462 400/219/463 399/220/464
f 395/217/465 398/218/462 399/220/464
f 401/219/458 400/219/458 397/218/458
f 400/219/466 401/219/466 402/221/467
f 400/219/463 402/221/468 399/220/464
f 402/221/468 403/222/469 399/220/464
f 405/222/470 403/222/471 402/221/467
f 401/219/466 404/221/467 402/221/467
f 404/221/467 405/222/470 402/221/467
f 405/222/470 406/223/472 403/222/471
f 407/224/473 406/223/474 405/222/475
f 408/225/476 407/224/473 405/222/475
f 408/225/476 405/222/475 404/221/477
f 411/226/478 409/227/479 408/225/476
f 409/227/479 407/224/473 408/225/476
f 410/220/480 408/225/476 404/221/477
f 411/226/478 408/225/476 410/220/480
f 412/227/481 409/227/482 411/226/483
f 413/226/484 412/227/481 411/226/483
f 413/226/484 411/226/483 396/216/455
f 396/216/461 411/226/478 410/220/480
f 414/225/485 413/226/486 394/216/487
f 414/225/485 415/224/488 413/226/486
f 394/216/457 413/226/484 396/216/455
f 415/224/488 412/227/489 413/226/486
f 415/224/488 418/228/490 412/227/489
f 416/223/491 415/224/488 414/225/485
f 416/223/491 417/229/492 415/224/488
f 417/229/492 418/228/490 415/224/488
f 418/228/490 419/230/493 412/227/489
f 419/230/494 420/230/494 409/227/482
f 412/227/481 419/230/494 409/227/482
f 409/227/479 420/230/495 407/224/473
f 420/230/495 421/228/496 407/224/473
f 421/228/496 422/229/497 406/223/474
f 407/224/473 421/228/496 406/223/474
f 406/223/472 422/229/498 416/223/499
f 422/229/498 417/229/498 416/223/499
f 406/223/472 416/223/499 403/222/471
f 403/222/469 416/223/491 414/225/485
f 403/222/469 414/225/485 399/220/464
f 399/220/464 414/225/485 394/216/487
f 410/220/480 397/218/459 396/216/461
f 401/219/500 397/218/459 410/220/480
f 404/221/477 401/219/500 410/220/480
f 394/216/487 395/217/465 399/220/464
f 423/231/501 425/231/501 424/232/501
f 425/231/501 426/232/501 424/232/501
f 424/232/501 426/232/501 427/233/501
f 426/232/501 428/233/501 427/233/501
o item_damaged
v -29.153999 3.117801 15.308600
v -24.850100 -8.020700 15.206201
v -22.281900 0.038201 15.206200
v -32.607300 -7.718799 15.308601
v -29.153999 3.117701 16.452700
v -22.282000 0.038101 16.555099
v -32.607300 -7.718799 16.452700
v -24.850201 -8.020799 16.555099
v -17.092899 -8.322799 15.880601
v -15.409900 -3.041299 15.880600
v -11.276399 -28.765299 13.182502
v -57.942894 -69.502899 18.578806
v -57.942894 -69.502899 13.182506
v -11.276399 -28.765299 18.578802
v -9.622099 -27.394100 18.578802
v -9.622099 -27.394100 13.182502
v -4.612299 -36.805599 11.632703
v -52.289795 -76.323296 11.632706
v -2.957900 -35.434299 11.632703
v 1.040800 -43.625900 13.182503
v -46.636696 -83.143593 13.182507
v 1.040900 -43.625900 18.578804
v -46.636696 -83.143593 18.578806
v -52.289795 -76.323189 20.128605
v -4.612199 -36.805599 20.128601
v -2.957900 -35.434399 20.128601
v 2.695199 -42.254700 18.578804
v 2.695199 -42.254700 13.182503
v -5.951000 -27.676098 15.308602
v 42.820202 6.502701 15.206199
v -1.127600 -33.495300 15.206203
v 37.865799 12.200401 15.308599
v -5.950900 -27.676098 16.452702
v 37.865799 12.200401 16.452700
v -1.127700 -33.495300 16.555101
v 3.695500 -39.314400 15.880603
v 42.820202 6.502602 16.555099
v 47.774502 0.805101 15.880600
v -2.918277 -35.385124 16.428396
v 6.891103 -27.497980 29.562595
v -0.557678 -21.121767 27.921247
v -8.638982 -18.567478 23.200388
v -15.187535 -20.519522 16.664885
v -18.448439 -26.454689 10.066080
v -17.548061 -34.782730 5.172097
v -12.727499 -43.272205 3.294255
v -5.278484 -49.646469 4.937085
v 2.802233 -52.201576 9.656823
v 9.351036 -50.250629 16.191813
v 12.611023 -44.314930 22.790215
v 11.709635 -35.987270 27.683237
v 13.490475 -43.583759 21.695087
v 12.590099 -35.255642 26.589231
v -2.039765 -34.653320 15.332825
v 7.769621 -26.766256 28.467066
v 0.320515 -20.391951 26.824209
v -7.760180 -17.836845 22.104486
v -14.309017 -19.787798 15.569355
v -17.568962 -25.723532 8.970960
v -16.667624 -34.051098 4.078072
v -11.849062 -42.540398 2.198739
v -4.400284 -48.916607 3.840083
v 3.681097 -51.470901 8.560888
v 10.229569 -49.518925 15.096283
v -9.684300 -29.093998 14.571502
v -4.336400 -24.520699 17.189802
v -9.684300 -29.093998 17.189802
v -4.336400 -24.520597 14.571502
v -3.830000 -36.157200 14.337303
v 1.518000 -31.583899 14.337303
v 1.402200 -42.469700 15.019603
v 1.402200 -42.469700 16.741703
v 6.750000 -37.896400 15.019603
v 6.750100 -37.896400 16.741703
v -3.830000 -36.157200 17.424002
v 1.518000 -31.583899 17.424002
v -47.485100 74.001503 15.308595
v -51.311600 77.422798 15.880594
v -47.485100 74.001404 16.452694
v -42.651699 80.013397 15.880594
v -37.841202 75.811600 15.206194
v -8.435800 39.442101 15.308598
v -2.130400 43.504501 15.206197
v -8.435800 39.442101 16.452696
v 20.230400 19.849901 15.206198
v 12.789900 16.988201 15.308599
v 12.789900 16.988201 16.452698
v -2.130500 43.504601 16.555096
v 20.230400 19.849901 16.555098
v 27.671101 22.711702 15.880598
v 4.175200 47.567299 15.880596
v -37.841202 75.811600 16.555094
v -33.127602 80.726303 15.880594
v -55.002800 -4.131499 15.308600
v -48.492500 -0.307299 15.206200
v -62.818199 5.832301 15.308600
v -62.818199 5.832302 16.452700
v -55.002899 -4.131399 16.452700
v -56.299702 9.645901 16.555099
v -48.492401 -0.307499 16.555099
v -41.982101 3.516601 15.880600
v -49.781101 13.459501 15.880599
v -56.299599 9.645901 15.206199
v 19.032801 52.480801 15.308597
v 25.285299 48.283699 15.206196
v 25.472500 68.316498 15.308596
v 25.472401 68.316498 16.452694
v 19.032801 52.480801 16.452696
v 31.160200 62.730900 16.555096
v 25.285299 48.283699 16.555096
v 31.537800 44.086800 15.880597
v 36.848099 57.145100 15.880595
v 31.160200 62.730900 15.206195
v -39.834801 34.469398 15.308598
v -30.776600 22.921202 15.308599
v -32.939098 37.802299 15.206197
v -30.776600 22.921103 16.452698
v -39.834801 34.469398 16.452698
v -24.258101 26.734701 16.555098
v -32.939201 37.802299 16.555098
v -26.043501 41.135201 15.880597
v -17.739500 30.548302 15.880598
v -24.257999 26.734802 15.206198
v 65.920898 20.866402 16.452698
v 53.761101 30.418102 16.555098
v 61.289398 31.826202 16.452698
v 59.833099 16.049501 16.555098
v 65.920799 20.866402 15.308599
v 59.833000 16.049501 15.206199
v 61.289299 31.826302 15.308598
v 53.761101 30.418102 15.206198
v 53.745098 11.232301 15.880599
v 46.232800 29.010101 15.880598
v 0.000000 70.710701 -0.000005
v 70.710701 0.000000 0.000000
v 0.000000 55.656200 3.999996
v -55.656101 0.000000 4.000000
v -70.710701 0.000000 0.000000
v 0.000000 -55.656101 4.000004
v 0.000000 -70.710602 0.000005
v 55.656200 0.000000 4.000000
v 0.000000 70.710701 -0.000005
v 0.000000 55.656200 -4.000004
v 70.710701 0.000000 0.000000
v -55.656101 -0.000000 -4.000000
v -70.710701 0.000000 0.000000
v 0.000000 -55.656101 -3.999996
v 0.000000 -70.710602 0.000005
v 55.656200 -0.000000 -4.000000
v 0.000000 70.710701 -0.000005
v 70.710701 0.000000 0.000000
v 0.000000 55.656200 3.999996
v -55.656101 0.000000 4.000000
v -70.710701 0.000000 0.000000
v 0.000000 -55.656101 4.000004
v 0.000000 -70.710602 0.000005
v 55.656200 0.000000 4.000000
v 0.000000 70.710701 -0.000005
v 0.000000 55.656200 -4.000004
v 70.710701 0.000000 0.000000
v -55.656101 -0.000000 -4.000000
v -70.710701 0.000000 0.000000
v 0.000000 -55.656101 -3.999996
v 0.000000 -70.710602 0.000005
v 55.656200 -0.000000 -4.000000
v 0.000000 70.710701 -0.000005
v 70.710701 0.000000 0.000000
v 0.000000 55.656200 3.999996
v -55.656101 0.000000 4.000000
v -70.710701 0.000000 0.000000
v 0.000000 -55.656101 4.000004
v 0.000000 -70.710602 0.000005
v 55.656200 0.000000 4.000000
v 0.000000 70.710701 -0.000005
v 0.000000 55.656200 -4.000004
v 70.710701 0.000000 0.000000
v -55.656101 -0.000000 -4.000000
v -70.710701 0.000000 0.000000
v 0.000000 -55.656101 -3.999996
v 0.000000 -70.710602 0.000005
v 55.656200 -0.000000 -4.000000
vn -0.0130 0.0042 -0.9999
vn 0.0198 -0.0063 -0.9998
vn 0.0527 -0.0168 -0.9985
vn -0.9528 0.3036 -0.0000
vn 0.0199 -0.0063 0.9998
vn -0.0130 0.0042 0.9999
vn 0.0527 -0.0168 0.9985
vn 0.0855 -0.0273 0.9960
vn 0.0855 -0.0273 -0.9960
vn -0.6479 0.7617 -0.0000
vn -0.6576 0.7533 -0.0000
vn -0.0951 0.1118 -0.9892
vn -0.0092 0.0103 -0.9999
vn -0.1033 0.1217 -0.9872
vn -0.6382 0.7699 -0.0000
vn -0.0937 0.1130 -0.9892
vn -0.0000 -0.0000 -1.0000
vn 0.1100 -0.1327 -0.9850
vn 0.0425 -0.0513 -0.9978
vn 0.6381 -0.7699 -0.0000
vn -0.7699 -0.6381 -0.0000
vn -0.7699 -0.6382 -0.0000
vn 0.0371 -0.0448 0.9983
vn 0.1100 -0.1327 0.9850
vn -0.1033 0.1217 0.9872
vn 0.0050 -0.0071 1.0000
vn -0.0949 0.1120 0.9892
vn -0.0261 0.0315 0.9992
vn 0.6382 -0.7699 -0.0000
vn -0.0937 0.1130 0.9892
vn -0.0091 0.0100 -0.9999
vn 0.0139 -0.0153 -0.9998
vn 0.0369 -0.0406 -0.9985
vn -0.6731 0.7396 0.0001
vn -0.6731 0.7396 -0.0000
vn -0.0091 0.0100 0.9999
vn 0.0139 -0.0152 0.9998
vn 0.0369 -0.0406 0.9985
vn 0.0139 -0.0153 0.9998
vn 0.0599 -0.0658 0.9960
vn 0.0599 -0.0658 -0.9960
vn -0.5515 -0.4662 0.6918
vn 0.7930 -0.0452 0.6076
vn 0.7578 0.0590 0.6498
vn 0.5692 0.3959 0.7206
vn 0.8031 -0.5140 0.3015
vn 0.8300 -0.3550 0.4302
vn 0.5515 0.4662 -0.6918
vn 0.5080 0.4702 0.7217
vn 0.2164 0.7243 0.6547
vn 0.1201 0.7793 0.6150
vn -0.1783 0.8790 0.4423
vn -0.3416 0.8850 0.3163
vn -0.5417 0.8318 0.1208
vn -0.7096 0.6968 -0.1040
vn -0.8300 0.3542 -0.4308
vn -0.8029 0.5147 -0.3009
vn -0.7573 -0.0605 -0.6503
vn -0.7933 0.0464 -0.6070
vn -0.5070 -0.4714 -0.7217
vn -0.5701 -0.3947 -0.7205
vn -0.2177 -0.7234 -0.6552
vn -0.1190 -0.7799 -0.6145
vn 0.1775 -0.8788 -0.4429
vn 0.3423 -0.8849 -0.3157
vn 0.5418 -0.8318 -0.1207
vn 0.7097 -0.6968 0.1041
vn -0.6499 0.7600 -0.0000
vn 0.0069 -0.0081 -0.9999
vn -0.0166 0.0194 -0.9997
vn 0.0305 -0.0356 -0.9989
vn 0.0539 -0.0630 -0.9966
vn 0.6499 -0.7600 -0.0000
vn 0.7699 0.6381 -0.0000
vn 0.0069 -0.0081 0.9999
vn 0.0304 -0.0356 0.9989
vn 0.0539 -0.0630 0.9966
vn -0.0166 0.0194 0.9997
vn -0.0264 0.0786 -0.9966
vn -0.0372 0.1242 -0.9916
vn -0.0271 0.1305 -0.9911
vn -0.6646 -0.7472 -0.0001
vn -0.6642 -0.7475 -0.0000
vn -0.6665 -0.7455 -0.0001
vn -0.6847 -0.7288 -0.0000
vn 0.0109 0.0651 -0.9978
vn -0.0097 -0.0100 -0.9999
vn -0.7060 -0.7082 -0.0000
vn 0.0350 0.0348 -0.9988
vn 0.0154 0.0145 -0.9998
vn -0.7267 -0.6870 -0.0000
vn -0.0101 -0.0095 -0.9999
vn 0.0408 0.0386 0.9984
vn 0.0198 0.0204 0.9996
vn -0.0101 -0.0095 0.9999
vn -0.0097 -0.0100 0.9999
vn 0.0650 0.0668 0.9956
vn 0.0662 0.0626 0.9958
vn 0.0646 0.0683 -0.9956
vn 0.0273 0.1101 -0.9935
vn 0.0274 0.1101 0.9935
vn 0.0109 0.0651 0.9978
vn 0.0662 0.0626 -0.9958
vn -0.0272 0.1305 0.9911
vn -0.0264 0.0787 0.9966
vn -0.0372 0.1242 0.9916
vn 0.0164 0.0129 -0.9998
vn -0.0108 -0.0084 -0.9999
vn -0.7868 -0.6172 -0.0000
vn -0.0108 -0.0084 0.9999
vn 0.0164 0.0128 0.9998
vn 0.0436 0.0342 0.9985
vn 0.0706 0.0554 0.9960
vn 0.0706 0.0554 -0.9960
vn 0.0435 0.0341 -0.9985
vn 0.0196 -0.0080 -0.9998
vn -0.0129 0.0052 -0.9999
vn -0.9263 0.3767 -0.0001
vn -0.9263 0.3767 -0.0000
vn -0.0129 0.0052 0.9999
vn 0.0197 -0.0080 0.9998
vn 0.0520 -0.0212 0.9984
vn 0.0844 -0.0343 0.9958
vn 0.0844 -0.0343 -0.9958
vn 0.0520 -0.0212 -0.9984
vn -0.7868 -0.6172 -0.0001
vn 0.0164 0.0129 0.9998
vn 0.0435 0.0342 -0.9985
vn -0.0125 -0.0472 0.9988
vn 0.0126 0.0053 0.9999
vn -0.0572 0.0262 0.9980
vn -0.0351 -0.0148 0.9993
vn 0.9211 0.3893 -0.0001
vn 0.0126 0.0053 -0.9999
vn -0.0192 -0.0081 -0.9998
vn 0.9211 0.3893 -0.0000
vn -0.0510 -0.0215 -0.9985
vn -0.9211 -0.3892 -0.0001
vn -0.9211 -0.3892 -0.0000
vn 0.2559 0.0853 0.9629
vn -0.0853 0.2559 0.9629
vn 0.0639 0.1919 0.9793
vn -0.1532 0.0510 0.9869
vn -0.2558 -0.0853 0.9629
vn -0.0639 -0.1919 0.9793
vn 0.0853 -0.2559 0.9629
vn 0.1531 -0.0510 0.9869
vn 0.0639 0.1919 -0.9793
vn -0.1531 0.0510 -0.9869
vn -0.0853 0.2559 -0.9629
vn 0.2559 0.0853 -0.9629
vn -0.2558 -0.0853 -0.9629
vn -0.0639 -0.1919 -0.9793
vn 0.0853 -0.2559 -0.9629
vn 0.1532 -0.0510 -0.9869
vt 0.011719 0.976320
vt 0.107414 0.761719
vt 0.226681 0.982299
vt 0.297849 0.822705
vt 0.107414 0.761721
vt 0.297846 0.822707
vt 0.226678 0.982301
vt 0.441643 0.988281
vt 0.488281 0.883690
vt 0.282278 0.375129
vt 0.011719 0.495014
vt 0.320914 0.398790
vt 0.291869 0.371094
vt 0.044494 0.515085
vt 0.077269 0.535156
vt 0.330506 0.394755
vt 0.353690 0.418862
vt 0.353690 0.418862
vt 0.044494 0.515085
vt 0.320915 0.398790
vt 0.330506 0.394755
vt 0.363281 0.414826
vt 0.400388 0.761719
vt 0.444335 0.786777
vt 0.011719 0.937096
vt 0.054504 0.962689
vt 0.011720 0.937096
vt 0.054503 0.962689
vt 0.444335 0.786778
vt 0.097286 0.988281
vt 0.488281 0.811835
vt 0.453830 0.413585
vt 0.497504 0.456713
vt 0.541178 0.499841
vt 0.573150 0.531413
vt 0.584852 0.542969
vt 0.497504 0.456713
vt 0.421859 0.382013
vt 0.410156 0.370457
vt 0.458822 0.406410
vt 0.426850 0.374837
vt 0.502496 0.449537
vt 0.502496 0.449537
vt 0.546170 0.492665
vt 0.578141 0.524238
vt 0.589844 0.535793
vt 0.578141 0.524237
vt 0.415148 0.363281
vt 0.746094 0.484497
vt 0.716235 0.542969
vt 0.746093 0.484497
vt 0.670120 0.478960
vt 0.699978 0.420487
vt 0.628906 0.421753
vt 0.658765 0.363282
vt 0.658765 0.363281
vt 0.034807 0.785623
vt 0.011719 0.773461
vt 0.063970 0.764253
vt 0.034807 0.785623
vt 0.270421 0.908467
vt 0.092996 0.779188
vt 0.308466 0.894027
vt 0.443386 0.978109
vt 0.398492 0.988281
vt 0.308466 0.894026
vt 0.346513 0.879585
vt 0.488281 0.967937
vt 0.121437 0.761719
vt 0.339376 0.939028
vt 0.190472 0.988281
vt 0.011719 0.859953
vt 0.190470 0.988280
vt 0.160810 0.810836
vt 0.339378 0.939030
vt 0.488281 0.889778
vt 0.309903 0.761719
vt 0.160812 0.810836
vt 0.094266 0.908766
vt 0.176816 0.988281
vt 0.488281 0.906386
vt 0.488281 0.906387
vt 0.378421 0.834053
vt 0.011719 0.829251
vt 0.268556 0.761719
vt 0.011719 0.844634
vt 0.207091 0.988280
vt 0.207091 0.988281
vt 0.160449 0.803176
vt 0.347685 0.940844
vt 0.160446 0.803176
vt 0.488281 0.893408
vt 0.309176 0.761719
vt 0.347687 0.940843
vt 0.123193 0.831775
vt 0.234660 0.761719
vt 0.455694 0.901649
vt 0.488279 0.815016
vt 0.234660 0.761720
vt 0.123193 0.831776
vt 0.488281 0.815017
vt 0.011719 0.901833
vt 0.423112 0.988281
vt 0.976562 0.023438
s 1
f 432/234/502 429/235/502 430/236/503
f 429/235/502 431/237/504 430/236/503
f 433/238/505 429/235/505 432/234/505
f 434/239/506 433/238/507 435/234/507
f 435/234/505 433/238/505 432/234/505
f 436/240/508 434/239/506 435/234/507
f 437/241/509 438/242/509 436/240/508
f 438/242/509 434/239/506 436/240/508
f 431/237/504 438/242/510 437/241/510
f 430/236/503 431/237/504 437/241/510
f 442/243/511 439/243/511 440/244/512
f 439/243/511 441/244/512 440/244/512
f 439/243/513 445/245/514 441/244/515
f 439/243/511 442/243/511 443/246/516
f 444/246/516 439/243/511 443/246/516
f 445/245/514 439/243/513 444/246/517
f 446/247/518 445/245/514 449/248/519
f 445/245/514 446/247/518 441/244/515
f 447/249/520 445/245/514 444/246/517
f 448/250/519 445/245/514 447/249/520
f 445/245/514 448/250/519 449/248/519
f 448/250/521 450/251/521 449/248/521
f 450/251/521 451/248/521 449/248/521
f 446/247/522 449/248/523 451/248/522
f 452/252/524 451/248/525 450/251/525
f 452/252/522 446/247/522 451/248/522
f 440/244/526 452/252/524 453/253/527
f 440/244/523 441/244/522 452/252/522
f 441/244/522 446/247/522 452/252/522
f 453/253/527 452/252/524 450/251/525
f 442/243/528 440/244/526 453/253/527
f 442/243/528 453/253/527 454/254/529
f 453/253/527 450/251/525 455/255/525
f 454/254/529 453/253/527 455/255/525
f 455/255/530 450/251/521 456/255/521
f 450/251/521 448/250/521 456/255/521
f 456/255/519 448/250/519 447/249/520
f 443/246/531 442/243/528 454/254/529
f 460/256/532 458/257/533 457/258/532
f 458/257/533 459/259/534 457/258/532
f 460/256/535 457/258/535 461/260/535
f 462/256/536 460/256/536 461/260/536
f 462/256/537 461/260/537 463/261/538
f 465/262/539 463/261/540 464/263/541
f 465/262/539 462/256/537 463/261/540
f 466/264/541 465/262/539 464/263/541
f 466/264/542 464/263/542 459/259/534
f 458/257/533 466/264/542 459/259/534
f 479/265/543 468/266/543 467/266/543
f 468/266/543 469/267/543 467/266/543
f 469/267/543 470/268/543 467/266/543
f 470/268/543 471/269/543 467/266/543
f 471/269/543 472/268/543 467/266/543
f 472/268/543 473/267/543 467/266/543
f 473/267/543 474/270/543 467/266/543
f 474/270/543 475/265/543 467/266/543
f 475/265/543 476/271/543 467/266/543
f 476/271/543 477/272/543 467/266/543
f 477/272/543 478/271/543 467/266/543
f 478/271/543 479/265/543 467/266/543
f 479/265/544 481/273/545 468/266/546
f 478/271/547 480/274/548 479/265/544
f 480/274/548 481/273/545 479/265/544
f 483/275/549 481/273/549 482/276/549
f 481/273/549 480/274/549 482/276/549
f 481/273/545 483/275/550 468/266/546
f 468/266/546 483/275/550 469/267/551
f 483/275/550 484/277/552 469/267/551
f 484/277/549 483/275/549 482/276/549
f 469/267/551 484/277/552 470/268/553
f 484/277/552 485/278/554 470/268/553
f 485/278/549 484/277/549 482/276/549
f 470/268/553 485/278/554 471/269/555
f 485/278/554 486/279/556 471/269/555
f 486/279/549 485/278/549 482/276/549
f 487/280/549 486/279/549 482/276/549
f 486/279/556 487/280/557 472/268/558
f 471/269/555 486/279/556 472/268/558
f 488/277/549 487/280/549 482/276/549
f 487/280/557 488/277/559 473/267/560
f 472/268/558 487/280/557 473/267/560
f 489/276/549 488/277/549 482/276/549
f 488/277/559 489/276/561 474/270/562
f 473/267/560 488/277/559 474/270/562
f 474/270/562 489/276/561 475/265/563
f 489/276/561 490/273/564 475/265/563
f 490/273/549 489/276/549 482/276/549
f 475/265/563 490/273/564 476/271/565
f 490/273/564 491/274/566 476/271/565
f 491/274/549 490/273/549 482/276/549
f 476/271/565 491/274/566 477/272/567
f 491/274/566 492/281/568 477/272/567
f 492/281/549 491/274/549 482/276/549
f 477/272/567 492/281/568 478/271/547
f 492/281/568 480/274/548 478/271/547
f 480/274/549 492/281/549 482/276/549
f 496/282/569 493/283/569 494/284/569
f 493/283/569 495/283/569 494/284/569
f 497/285/570 493/283/571 496/282/571
f 498/286/572 497/285/570 496/282/571
f 499/287/573 497/285/570 498/286/572
f 500/287/574 499/287/574 501/288/574
f 501/288/573 499/287/573 498/286/572
f 502/289/574 500/287/574 501/288/574
f 502/289/575 501/288/575 498/286/575
f 504/286/576 503/285/577 502/289/578
f 503/285/577 500/287/578 502/289/578
f 504/286/575 502/289/575 496/282/575
f 496/282/575 502/289/575 498/286/575
f 494/284/575 504/286/575 496/282/575
f 494/284/579 495/283/579 504/286/576
f 495/283/579 503/285/577 504/286/576
f 505/290/580 506/291/581 508/292/582
f 505/290/583 507/293/584 506/291/585
f 507/293/584 505/290/583 510/294/586
f 509/295/587 505/290/580 508/292/582
f 505/290/580 509/295/587 510/294/588
f 512/294/589 507/293/584 510/294/586
f 509/295/587 511/296/590 510/294/588
f 510/294/588 511/296/590 513/297/591
f 512/294/589 510/294/586 514/298/592
f 514/298/593 510/294/588 513/297/591
f 515/298/592 512/294/589 514/298/592
f 517/297/594 516/299/595 515/298/596
f 516/299/595 512/294/597 515/298/596
f 519/300/598 516/299/595 517/297/594
f 518/301/599 519/300/598 517/297/594
f 511/296/590 509/295/587 519/300/600
f 509/295/587 521/302/601 519/300/600
f 521/302/602 520/295/603 519/300/598
f 520/295/603 516/299/595 519/300/598
f 511/296/590 519/300/600 518/301/604
f 520/295/603 521/302/602 508/292/605
f 521/302/601 509/295/587 508/292/582
f 520/295/603 507/293/606 512/294/597
f 507/293/606 520/295/603 508/292/605
f 516/299/595 520/295/603 512/294/597
f 513/297/591 511/296/590 518/301/604
f 506/291/607 507/293/606 508/292/605
f 523/303/608 522/304/609 524/305/609
f 524/305/610 522/304/610 525/305/610
f 522/304/610 526/306/610 525/305/610
f 525/305/611 526/306/611 527/307/612
f 526/306/611 528/308/613 527/307/612
f 528/308/613 529/309/614 530/310/614
f 527/307/612 528/308/613 530/310/614
f 530/310/615 529/309/615 531/311/616
f 529/309/615 523/303/608 531/311/616
f 531/311/616 523/303/608 524/305/609
f 533/312/617 532/313/618 534/314/618
f 534/314/619 532/313/620 535/315/619
f 532/313/620 536/313/620 535/315/619
f 535/315/621 536/313/621 537/316/622
f 536/313/621 538/312/623 537/316/622
f 538/312/623 539/317/624 540/318/624
f 537/316/622 538/312/623 540/318/624
f 540/318/625 539/317/625 541/316/626
f 539/317/625 533/312/617 541/316/626
f 541/316/626 533/312/617 534/314/618
f 542/319/627 543/320/627 545/321/627
f 543/320/609 542/319/609 544/322/608
f 546/319/610 542/319/610 545/321/610
f 545/321/611 547/323/628 546/319/611
f 547/323/628 548/324/613 546/319/611
f 550/325/614 549/326/614 548/324/613
f 547/323/628 550/325/614 548/324/613
f 550/325/615 551/327/629 549/326/615
f 551/327/616 543/320/609 544/322/608
f 551/327/616 544/322/608 549/326/615
f 555/328/630 552/329/631 553/330/632
f 552/329/631 554/331/631 553/330/633
f 554/331/634 552/329/634 556/332/634
f 556/332/635 557/333/636 558/334/635
f 558/334/637 554/331/637 556/332/637
f 557/333/636 559/330/638 558/334/635
f 557/333/636 560/335/639 559/330/638
f 560/335/639 561/336/640 559/330/638
f 560/335/639 555/328/630 561/336/640
f 555/328/630 553/330/632 561/336/640
f 563/337/641 562/337/642 564/337/643
f 564/337/643 562/337/642 565/337/644
f 562/337/642 566/337/645 565/337/644
f 565/337/644 566/337/645 567/337/646
f 566/337/645 568/337/647 567/337/646
f 568/337/647 563/337/641 569/337/648
f 567/337/646 568/337/647 569/337/648
f 569/337/648 563/337/641 564/337/643
f 564/337/643 565/337/644 569/337/648
f 565/337/644 567/337/646 569/337/648
f 571/337/649 573/337/650 570/337/651
f 571/337/649 570/337/651 572/337/652
f 573/337/650 574/337/653 570/337/651
f 573/337/650 575/337/654 574/337/653
f 575/337/654 576/337/655 574/337/653
f 577/337/656 572/337/652 576/337/655
f 575/337/654 577/337/656 576/337/655
f 571/337/649 577/337/656 573/337/650
f 577/337/656 571/337/649 572/337/652
f 577/337/656 575/337/654 573/337/650
f 579/337/641 578/337/642 580/337/643
f 580/337/643 578/337/642 581/337/644
f 578/337/642 582/337/645 581/337/644
f 581/337/644 582/337/645 583/337/646
f 582/337/645 584/337/647 583/337/646
f 584/337/647 579/337/641 585/337/648
f 583/337/646 584/337/647 585/337/648
f 580/337/643 581/337/644 585/337/648
f 585/337/648 579/337/641 580/337/643
f 581/337/644 583/337/646 585/337/648
f 587/337/649 589/337/650 586/337/651
f 587/337/649 586/337/651 588/337/652
f 589/337/650 590/337/653 586/337/651
f 589/337/650 591/337/654 590/337/653
f 591/337/654 592/337/655 590/337/653
f 593/337/656 588/337/652 592/337/655
f 591/337/654 593/337/656 592/337/655
f 593/337/656 587/337/649 588/337/652
f 587/337/649 593/337/656 589/337/650
f 593/337/656 591/337/654 589/337/650
f 595/337/641 594/337/642 596/337/643
f 596/337/643 594/337/642 597/337/644
f 594/337/642 598/337/645 597/337/644
f 597/337/644 598/337/645 599/337/646
f 598/337/645 600/337/647 599/337/646
f 600/337/647 595/337/641 601/337/648
f 599/337/646 600/337/647 601/337/648
f 601/337/648 595/337/641 596/337/643
f 596/337/643 597/337/644 601/337/648
f 597/337/644 599/337/646 601/337/648
f 603/337/649 605/337/650 602/337/651
f 603/337/649 602/337/651 604/337/652
f 605/337/650 606/337/653 602/337/651
f 605/337/650 607/337/654 606/337/653
f 607/337/654 608/337/655 606/337/653
f 609/337/656 604/337/652 608/337/655
f 607/337/654 609/337/656 608/337/655
f 603/337/649 609/337/656 605/337/650
f 609/337/656 603/337/649 604/337/652
f 609/337/656 607/337/654 605/337/650
o effect
v -35.537594 -2.408487 -2.462378
v -109.624603 -5.284317 2.726911
v -35.537594 -2.408486 2.462378
v -109.624603 -5.284317 -2.726910
v -109.955109 0.926713 -4.570762
v -35.134823 3.499482 -3.777248
v -35.134823 3.499483 3.777248
v -109.955109 0.926714 4.570762
v -35.389313 9.398791 2.462377
v -35.389313 9.398791 -2.462379
v -110.285698 7.137743 2.726910
v -171.035248 2.195664 2.726910
v -110.285698 7.137743 -2.726911
v -171.035248 2.195664 -2.726910
v -227.594101 -4.733328 -2.726910
v -226.508377 -10.868086 -4.570761
v -170.314575 -3.983876 -4.570762
v -169.594147 -10.163337 -2.726909
v -225.422852 -17.002768 -2.726909
v -294.118378 -28.617380 -2.640480
v -294.118378 -28.617380 2.640484
v -225.422852 -17.002768 2.726911
v -226.508377 -10.868086 4.570763
v -169.594147 -10.163337 2.726911
v -170.314575 -3.983875 4.570763
v -227.594101 -4.733328 2.726910
v -297.122711 -16.274298 -2.640481
v -297.122711 -16.274298 2.640483
v -295.966003 -22.511379 4.050474
v -295.966003 -22.511379 -4.050470
v -35.480892 -2.068468 -1.933396
v -35.305309 8.241507 -1.933397
v -35.480892 -2.068467 1.933396
v -35.305309 8.241507 1.933395
v -35.385521 3.531470 -2.983816
v -35.385521 3.531470 2.983816
v -293.705200 -27.661724 -1.933394
v -296.226044 -17.417904 -1.933395
v -293.705200 -27.661724 1.933398
v -296.226044 -17.417904 1.933397
v -294.965576 -22.539816 -2.983814
v -294.965576 -22.539816 2.983818
v -225.587036 -16.207220 -1.933395
v -227.404739 -5.846018 -1.933396
v -225.587036 -16.207220 1.933397
v -227.404739 -5.846018 1.933396
v -226.495804 -11.026701 -2.983815
v -226.495804 -11.026701 2.983817
v -169.698975 -9.313675 -1.933395
v -170.906876 1.122642 -1.933396
v -169.698975 -9.313675 1.933397
v -170.906876 1.122642 1.933396
v -170.302872 -4.095555 -2.983816
v -170.302872 -4.095555 2.983816
v -109.670334 -4.380011 -1.933396
v -110.223404 6.110211 -1.933396
v -109.670334 -4.380011 1.933396
v -110.223404 6.110211 1.933396
v -109.946823 0.865101 -2.983816
v -109.946823 0.865101 2.983816
v -293.705200 -27.661724 -1.933394
v -294.965576 -22.539816 -2.983814
v -293.705200 -27.661724 1.933398
v -294.965576 -22.539816 2.983818
v -296.226044 -17.417904 1.933397
v -296.226044 -17.417904 -1.933395
v -93.235199 -4.707600 -2.215558
v -93.235199 -4.707600 2.215640
v -93.160118 0.905345 -3.548222
v -89.582527 1.066607 -3.548222
v -89.757965 -4.550916 -2.215558
v -89.757965 -4.550916 2.215640
v -93.160118 0.905346 3.548222
v -89.582527 1.066607 3.548222
v -89.407104 6.684130 -2.215640
v -89.407104 6.684130 2.215558
v -93.084930 6.518376 2.215558
v -93.084930 6.518376 -2.215640
vn 0.0685 -0.9977 -0.0000
vn 0.0388 -0.9992 -0.0000
vn 0.0514 -0.9987 -0.0000
vn 0.9996 -0.0278 -0.0000
vn 0.9977 -0.0680 -0.0000
vn 0.0153 -0.2505 -0.9680
vn 0.0188 -0.2836 -0.9588
vn 0.0095 -0.0427 -0.9990
vn 0.0104 0.0032 -0.9999
vn 1.0000 0.0028 -0.0000
vn 0.0104 0.0032 0.9999
vn -0.0015 0.2504 0.9682
vn 0.0010 0.0409 0.9992
vn 0.0153 -0.2505 0.9680
vn 0.9991 0.0431 -0.0000
vn -0.0302 0.9995 -0.0000
vn -0.0557 0.9984 -0.0000
vn -0.0141 0.2839 0.9588
vn -0.0266 0.2830 0.9588
vn -0.0932 0.9956 -0.0000
vn -0.1095 0.9940 -0.0000
vn -0.1342 0.9910 -0.0000
vn -0.0085 0.0401 -0.9992
vn -0.0412 0.2809 -0.9589
vn -0.0312 0.2825 -0.9588
vn 0.0026 -0.0006 -1.0000
vn -0.0176 0.2837 -0.9588
vn 0.0264 -0.2830 -0.9588
vn 0.0380 -0.2814 -0.9588
vn 0.1667 -0.9860 -0.0000
vn 0.1534 -0.9882 -0.0000
vn 0.0385 -0.2475 -0.9681
vn 0.1350 -0.9908 -0.0000
vn 0.1096 -0.9940 -0.0000
vn 0.0041 -0.0430 0.9991
vn 0.0402 -0.2811 0.9588
vn 0.0310 -0.2825 0.9588
vn 0.0385 -0.2475 0.9681
vn 0.0931 -0.9957 -0.0000
vn -0.0023 -0.0010 1.0000
vn 0.0205 -0.2835 0.9588
vn -0.0386 0.2813 0.9588
vn -0.1512 0.9885 -0.0000
vn -0.1637 0.9865 -0.0000
vn -0.0450 0.2457 0.9683
vn -0.9752 -0.2215 -0.0000
vn -0.9832 -0.1823 -0.0000
vn -0.0081 0.0051 1.0000
vn -0.9679 -0.2512 -0.0000
vn -0.9571 -0.2896 -0.0000
vn -0.0082 0.0051 -1.0000
vn -0.0450 0.2457 -0.9683
vn -0.0015 0.2504 -0.9682
vn 0.0325 -0.1931 -0.9806
vn -0.0150 0.0709 -0.9974
vn 0.0018 -0.0003 -1.0000
vn 0.0265 -0.1941 -0.9806
vn 0.0133 -0.0590 0.9982
vn 0.0325 -0.1931 0.9806
vn 0.0299 -0.1936 0.9806
vn -0.0016 -0.0008 1.0000
vn 0.1658 -0.9862 -0.0000
vn 0.1530 -0.9882 -0.0000
vn 0.1353 -0.9908 -0.0000
vn -0.0325 0.1931 -0.9806
vn -0.0301 0.1936 -0.9806
vn -0.1658 0.9862 -0.0000
vn -0.1529 0.9882 -0.0000
vn -0.1354 0.9908 -0.0000
vn -0.0325 0.1931 0.9806
vn -0.0267 0.1941 0.9806
vn 0.0017 -0.0004 -1.0000
vn 0.0185 -0.1952 -0.9806
vn 0.0216 -0.1949 0.9806
vn -0.0016 -0.0007 1.0000
vn 0.1104 -0.9939 -0.0000
vn 0.0939 -0.9956 -0.0000
vn -0.0217 0.1949 -0.9806
vn -0.1104 0.9939 -0.0000
vn -0.0940 0.9956 -0.0000
vn -0.0185 0.1952 0.9806
vn 0.0019 0.0031 -1.0000
vn 0.0093 -0.1921 -0.9813
vn 0.0132 -0.1957 0.9806
vn -0.0024 0.0326 0.9995
vn 0.0669 -0.9978 -0.0000
vn 0.0462 -0.9989 -0.0000
vn -0.0128 0.1957 -0.9806
vn -0.0552 0.9985 -0.0000
vn -0.0108 0.1958 0.9806
vn 0.0062 -0.1902 0.9817
vn -0.0008 0.0204 0.9998
vn 0.0311 -0.9995 -0.0000
vn -0.0068 0.2071 0.9783
vn -0.0284 0.9996 -0.0000
vn -0.0068 0.2071 -0.9783
vn -0.0004 -0.0518 -0.9987
vn 0.0057 -0.1845 -0.9828
vn 0.9999 -0.0170 -0.0000
vn -0.9710 -0.2389 -0.0000
vn -0.9710 -0.2390 -0.0000
vn 0.0450 -0.9990 -0.0000
vn -0.9999 0.0134 -0.0000
vn 0.0104 -0.2311 -0.9729
vn 0.0015 0.0725 -0.9974
vn -0.0007 -0.0720 -0.9974
vn -0.0003 0.0860 0.9963
vn -0.0006 -0.0855 0.9963
vn 0.0104 -0.2311 0.9729
vn 0.9995 -0.0312 -0.0000
vn -0.0104 0.2311 0.9729
vn -0.0450 0.9990 -0.0000
vn -0.0104 0.2311 -0.9729
vt 0.352875 0.633003
vt 0.487720 0.624855
vt 0.488281 0.599537
vt 0.352092 0.606343
vt 0.487645 0.574219
vt 0.351308 0.579684
vt 0.240814 0.597448
vt 0.138009 0.623971
vt 0.140166 0.650346
vt 0.242306 0.623994
vt 0.243799 0.650540
vt 0.142322 0.676721
vt 0.017551 0.722656
vt 0.011719 0.669544
vt 0.014008 0.696362
vt 0.016650 0.722656
vt 0.014184 0.699027
vt 0.139093 0.650501
vt 0.140917 0.674377
vt 0.011719 0.675397
vt 0.137269 0.626624
vt 0.241684 0.622251
vt 0.242951 0.646281
vt 0.240416 0.598221
vt 0.351952 0.603328
vt 0.352622 0.627461
vt 0.351283 0.579196
vt 0.488281 0.621609
vt 0.488281 0.595868
vt 0.488281 0.574219
vt 0.628906 0.511340
vt 0.628906 0.394910
vt 0.687500 0.542969
vt 0.687500 0.363281
vt 0.746094 0.394910
vt 0.746094 0.511340
vt 0.629684 0.397023
vt 0.628906 0.397023
vt 0.628906 0.509225
vt 0.687088 0.542969
vt 0.687889 0.542969
vt 0.629684 0.509225
vt 0.687889 0.363281
vt 0.687088 0.363281
vt 0.745271 0.397025
vt 0.746094 0.509227
vt 0.746094 0.397025
vt 0.745271 0.509227
s 1
f 613/338/657 610/339/658 611/338/659
f 610/339/658 612/339/658 611/338/659
f 616/340/660 612/339/661 610/339/661
f 610/339/662 613/338/663 614/341/664
f 615/340/665 610/339/662 614/341/664
f 615/340/666 616/340/660 610/339/661
f 616/340/667 618/342/668 617/341/669
f 612/339/670 616/340/667 617/341/669
f 618/342/671 616/340/660 615/340/666
f 619/342/671 618/342/671 615/340/666
f 618/342/672 619/342/672 620/343/673
f 618/342/668 620/343/674 617/341/669
f 620/343/674 621/344/675 617/341/669
f 623/344/676 621/344/677 620/343/673
f 619/342/672 622/343/673 620/343/673
f 622/343/673 623/344/676 620/343/673
f 623/344/676 624/345/678 621/344/677
f 625/346/679 624/345/680 623/344/681
f 626/347/682 625/346/679 623/344/681
f 626/347/682 623/344/681 622/343/683
f 614/341/664 626/347/682 622/343/683
f 627/348/684 626/347/682 614/341/664
f 628/349/685 625/346/679 626/347/682
f 627/348/684 628/349/685 626/347/682
f 630/350/686 629/350/686 628/349/687
f 628/349/685 629/350/688 625/346/679
f 631/349/689 630/350/686 628/349/687
f 631/349/689 628/349/687 627/348/690
f 632/346/691 631/349/692 633/348/693
f 630/350/694 631/349/692 632/346/691
f 633/348/695 631/349/689 627/348/690
f 634/347/696 632/346/691 633/348/693
f 633/348/695 627/348/690 613/338/657
f 634/347/696 633/348/693 611/338/697
f 611/338/659 633/348/695 613/338/657
f 621/344/675 634/347/696 617/341/669
f 621/344/675 635/345/698 634/347/696
f 635/345/698 632/346/691 634/347/696
f 617/341/669 634/347/696 611/338/697
f 624/345/678 635/345/699 621/344/677
f 624/345/678 636/351/700 635/345/699
f 636/351/700 637/351/700 635/345/699
f 635/345/698 637/351/701 632/346/691
f 638/352/702 637/351/703 636/351/703
f 637/351/701 638/352/704 632/346/691
f 639/352/705 638/352/702 636/351/703
f 630/350/706 638/352/702 639/352/705
f 638/352/704 630/350/694 632/346/691
f 629/350/706 630/350/706 639/352/705
f 629/350/688 639/352/707 625/346/679
f 639/352/707 636/351/708 625/346/679
f 636/351/708 624/345/680 625/346/679
f 613/338/663 627/348/684 614/341/664
f 622/343/683 619/342/709 614/341/664
f 619/342/709 615/340/665 614/341/664
f 611/338/697 612/339/670 617/341/669
f 646/353/710 650/354/711 656/355/712
f 652/356/713 646/353/710 656/355/712
f 651/354/714 648/353/715 654/356/716
f 657/355/717 651/354/714 654/356/716
f 648/353/718 646/353/718 652/356/719
f 654/356/720 648/353/718 652/356/719
f 650/354/711 647/357/721 653/358/722
f 656/355/712 650/354/711 653/358/722
f 647/357/723 649/357/723 655/358/724
f 653/358/725 647/357/723 655/358/724
f 649/357/726 651/354/714 657/355/717
f 655/358/727 649/357/726 657/355/717
f 652/356/713 656/355/712 662/359/728
f 658/360/729 652/356/713 662/359/728
f 657/355/717 654/356/716 660/360/730
f 663/359/731 657/355/717 660/360/730
f 654/356/720 652/356/719 658/360/732
f 660/360/733 654/356/720 658/360/732
f 656/355/712 653/358/722 659/361/734
f 662/359/728 656/355/712 659/361/734
f 653/358/725 655/358/724 661/361/735
f 659/361/736 653/358/725 661/361/735
f 655/358/727 657/355/717 663/359/731
f 661/361/737 655/358/727 663/359/731
f 658/360/729 662/359/728 668/362/738
f 664/363/739 658/360/729 668/362/738
f 663/359/731 660/360/730 666/363/740
f 669/362/741 663/359/731 666/363/740
f 660/360/733 658/360/732 664/363/742
f 666/363/743 660/360/733 664/363/742
f 662/359/728 659/361/734 665/364/744
f 668/362/738 662/359/728 665/364/744
f 659/361/736 661/361/735 667/364/745
f 665/364/745 659/361/736 667/364/745
f 661/361/737 663/359/731 669/362/741
f 667/364/746 661/361/737 669/362/741
f 642/365/747 645/366/748 669/362/741
f 666/363/740 642/365/747 669/362/741
f 640/365/749 642/365/749 666/363/743
f 664/363/742 640/365/749 666/363/743
f 643/367/750 667/364/746 669/362/741
f 645/366/748 643/367/750 669/362/741
f 641/367/751 665/364/745 667/364/745
f 643/367/751 641/367/751 667/364/745
f 641/367/752 644/366/753 668/362/738
f 665/364/744 641/367/752 668/362/738
f 644/366/753 640/365/754 664/363/739
f 668/362/738 644/366/753 664/363/739
f 643/367/755 645/366/755 644/366/755
f 641/367/755 643/367/755 644/366/755
f 645/366/755 642/365/755 640/365/755
f 644/366/755 645/366/755 640/365/755
f 670/368/756 672/369/756 671/370/757
f 672/369/756 673/371/757 671/370/757
f 673/371/757 674/372/757 675/373/757
f 671/370/757 673/371/757 675/373/757
f 681/374/758 677/375/758 676/376/758
f 677/375/759 678/377/759 676/376/759
f 676/376/760 678/377/761 679/378/762
f 680/379/760 676/376/760 679/378/762
f 680/379/758 681/374/758 676/376/758
f 683/380/763 682/381/764 681/374/765
f 682/381/764 677/375/765 681/374/765
f 680/379/766 679/378/766 681/374/766
f 683/380/766 681/374/766 679/378/766
f 686/382/767 682/381/764 683/380/763
f 684/383/766 683/380/766 679/378/766
f 684/383/766 685/384/766 683/380/766
f 685/384/767 686/382/767 683/380/763
f 687/385/768 686/382/768 685/384/768
f 687/385/759 678/377/759 686/382/759
f 686/382/759 678/377/759 682/381/759
f 678/377/761 687/385/769 684/383/769
f 684/383/768 687/385/768 685/384/768
f 679/378/762 678/377/761 684/383/769
f 678/377/759 677/375/759 682/381/759
