# Blender 5.2.0 LTS
# www.blender.org
o blade
v -33.167946 -1.961311 -1.857793
v 33.888584 -0.516454 1.857791
v 33.888584 -0.516455 -1.857793
v -33.167946 -1.961311 1.857791
v -35.494469 -1.976055 1.857791
v -35.494469 -1.976056 -1.857793
v -33.128986 3.644867 -2.924859
v -35.455513 3.630122 -2.924859
v -33.095940 8.400446 -1.857794
v 33.952091 8.622731 -1.857794
v 33.920330 4.053138 -2.924859
v 33.952091 8.622731 1.857790
v 33.920330 4.053138 2.924857
v -33.128986 3.644867 2.924857
v -33.095940 8.400446 1.857790
v -35.422466 8.385702 -1.857794
v -35.422466 8.385702 1.857790
v -35.455513 3.630123 2.924857
v -38.564400 -1.345900 -0.480300
v -110.010300 1.677400 -0.566300
v -38.564400 3.406400 -0.566300
v -109.795502 -3.068701 -0.480300
v -38.564400 -1.345900 0.480300
v -109.795502 -3.068701 0.480300
v -38.564400 3.406400 0.566300
v -110.010300 1.677400 0.566300
v -38.564400 8.158600 -0.000001
v -110.225197 6.423399 -0.000000
v -170.362213 -3.336300 -0.566300
v -170.769104 1.393903 -0.000000
v -227.097397 -6.114900 0.000000
v -226.511795 -10.821399 -0.566299
v -170.362213 -3.336300 0.566300
v -226.511795 -10.821399 0.566301
v -169.955414 -8.066400 0.480301
v -225.926300 -15.527599 0.480301
v -169.955414 -8.066400 -0.480299
v -225.926300 -15.527599 -0.480299
v -285.119110 -26.426998 -0.480298
v -285.119110 -26.426998 0.480302
v -281.382904 -20.574400 -0.566298
v -283.795776 -16.482498 0.000001
v -288.616211 -21.934000 0.000002
v -281.382904 -20.574400 0.566302
v -290.956207 -27.484400 0.000002
v -34.015800 -2.157500 -1.099300
v -42.484100 -2.225600 1.099300
v -34.015800 -2.157500 1.099300
v -42.484100 -2.225600 -1.099300
v -34.015800 3.610700 -1.295900
v -42.484100 3.542600 -1.295900
v -34.015800 8.765900 -0.723001
v -34.015800 8.765900 0.722999
v -42.484100 8.697800 -0.723001
v -42.484100 8.697800 0.722999
v -34.015800 3.610700 1.295900
v -42.484100 3.542600 1.295900
v -35.455627 3.601850 -0.000000
v -35.455627 3.601849 10.302732
v -35.447041 -0.468596 7.051582
v -35.440712 -3.442688 4.068436
v -35.454872 -6.696026 0.000003
v -35.440712 -3.442698 -4.068443
v -35.447041 -0.468591 -7.051576
v -35.455627 3.601851 -10.302733
v -35.464252 7.667428 -7.046916
v -35.470547 10.645968 -4.069454
v -35.456379 13.899723 -0.000003
v -35.470547 10.646037 4.069406
v -35.464252 7.667424 7.046903
v -36.842789 10.646529 4.068377
v -36.836460 7.672391 7.051575
v -36.827873 3.601949 -0.000000
v -36.827873 3.601948 10.302732
v -36.819248 -0.463628 7.046909
v -36.812954 -3.442160 4.069445
v -36.827122 -6.695927 0.000003
v -36.812954 -3.442179 -4.069455
v -36.819248 -0.463630 -7.046915
v -36.827873 3.601950 -10.302733
v -36.836460 7.672392 -7.051581
v -36.842789 10.646494 -4.068443
v -36.828629 13.899825 -0.000003
vn 0.0139 -0.9999 -0.0000
vn 0.0215 -0.9998 -0.0000
vn 0.0026 -0.1870 -0.9824
vn 0.0008 -0.0179 -0.9998
vn 0.0030 -0.2075 -0.9782
vn 0.0063 -1.0000 -0.0000
vn 0.0012 -0.1870 -0.9824
vn 0.0004 0.0835 -0.9965
vn -0.0011 0.2189 -0.9757
vn -0.0011 0.2232 -0.9748
vn -0.0000 0.0019 -1.0000
vn 1.0000 -0.0069 -0.0000
vn 0.0004 0.0095 1.0000
vn 0.0008 0.0766 0.9971
vn -0.0011 0.2217 0.9751
vn 0.0030 -0.2075 0.9782
vn -0.0008 0.2274 0.9738
vn -0.0048 1.0000 -0.0000
vn -0.0063 1.0000 -0.0000
vn -0.0033 1.0000 -0.0000
vn -0.0014 0.2189 0.9757
vn -0.0006 -0.0543 0.9985
vn 0.0026 -0.1870 0.9824
vn 0.0012 -0.1870 0.9824
vn -0.0014 0.2189 -0.9757
vn 0.0010 -0.0181 -0.9998
vn -0.0015 0.0274 -0.9996
vn 0.0004 -0.0181 -0.9998
vn -0.0018 0.0730 -0.9973
vn 0.0535 -0.9986 -0.0000
vn 0.0242 -0.9997 -0.0000
vn 0.0536 -0.9986 -0.0000
vn 0.0010 -0.0181 0.9998
vn 0.0004 -0.0181 0.9998
vn -0.0007 0.0274 0.9996
vn -0.0039 0.0729 0.9973
vn -0.0029 0.1183 0.9930
vn -0.0063 0.1182 0.9930
vn -0.0029 0.1184 0.9930
vn -0.0063 0.1182 -0.9930
vn -0.0029 0.1183 -0.9930
vn -0.0049 0.0501 -0.9987
vn -0.0136 0.1177 -0.9930
vn -0.0118 0.1179 0.9930
vn -0.0095 0.0634 -0.9979
vn -0.0196 0.1194 -0.9927
vn -0.0187 0.1189 0.9927
vn -0.0059 0.0502 0.9987
vn -0.0057 0.0362 0.9993
vn 0.0020 -0.0180 0.9998
vn 0.0992 -0.9951 -0.0000
vn 0.1485 -0.9889 -0.0000
vn 0.1157 -0.9933 -0.0000
vn 0.0028 -0.0179 0.9998
vn 0.1648 -0.9863 -0.0000
vn 0.0020 -0.0180 -0.9998
vn 0.0028 -0.0179 -0.9998
vn -0.0360 0.0548 -0.9978
vn 0.1797 -0.9837 -0.0000
vn -0.0571 0.0202 -0.9982
vn -0.0891 0.0532 -0.9946
vn -0.0582 0.1031 -0.9930
vn -0.0887 0.0374 -0.9954
vn -0.0361 0.0549 0.9978
vn -0.0582 0.1031 0.9930
vn -0.0891 0.0532 0.9946
vn -0.0887 0.0374 0.9954
vn -0.0571 0.0202 0.9982
vn 0.1783 -0.9840 -0.0000
vn 0.0080 -1.0000 -0.0000
vn -0.0003 0.0141 -0.9999
vn 0.0003 -0.0341 -0.9994
vn -0.0003 0.0624 -0.9981
vn -0.0009 0.1105 -0.9939
vn -0.0080 1.0000 -0.0000
vn -1.0000 -0.0000 -0.0000
vn -0.0003 0.0624 0.9981
vn -0.0009 0.1105 0.9939
vn -0.0003 0.0141 0.9999
vn 0.0003 -0.0341 0.9994
vn 1.0000 0.0021 -0.0000
vn 1.0000 0.0014 -0.0000
vn 1.0000 0.0010 -0.0020
vn 1.0000 0.0001 -0.0000
vn 1.0000 0.0010 0.0020
vn 0.0043 0.7158 0.6983
vn 0.0047 0.6164 0.7874
vn 0.0004 0.0747 0.9972
vn -0.0000 0.8031 0.5959
vn 0.0004 0.6811 0.7322
vn -1.0000 -0.0021 -0.0000
vn -1.0000 -0.0010 -0.0020
vn -1.0000 -0.0014 -0.0000
vn -0.0004 -0.0747 0.9972
vn -0.0047 -0.6164 0.7874
vn -0.0043 -0.7158 0.6983
vn -0.0005 -0.6811 0.7322
vn -0.0001 -0.8031 0.5959
vn -1.0000 -0.0010 0.0020
vn -1.0000 -0.0001 -0.0000
vn 0.0004 -0.9898 -0.1425
vn 0.0004 -0.9898 0.1425
vn -0.0005 -0.6815 -0.7318
vn -0.0001 -0.8036 -0.5952
vn -0.0047 -0.6153 -0.7883
vn -0.0043 -0.7151 -0.6990
vn -0.0004 -0.0762 -0.9971
vn 0.0004 0.0762 -0.9971
vn 0.0047 0.6153 -0.7883
vn 0.0043 0.7151 -0.6990
vn 0.0005 0.6815 -0.7318
vn 0.0001 0.8036 -0.5952
vn -0.0004 0.9898 -0.1425
vn -0.0004 0.9898 0.1425
vt 0.023508 0.535156
vt 0.363281 0.519007
vt 0.023508 0.446391
vt 0.011719 0.535156
vt 0.011719 0.446391
vt 0.023508 0.371094
vt 0.363281 0.374302
vt 0.363281 0.446655
vt 0.011719 0.371094
vt 0.353784 0.833084
vt 0.353378 0.802916
vt 0.488281 0.822133
vt 0.488281 0.791926
vt 0.488281 0.761719
vt 0.352972 0.772748
vt 0.239423 0.834785
vt 0.238654 0.804718
vt 0.133402 0.882364
vt 0.132296 0.852447
vt 0.240191 0.864852
vt 0.134507 0.912279
vt 0.029795 0.944358
vt 0.022740 0.981560
vt 0.016137 0.953000
vt 0.025239 0.918348
vt 0.011719 0.988281
vt 0.628906 0.542969
vt 0.629632 0.363281
vt 0.691131 0.363281
vt 0.690405 0.542969
vt 0.746094 0.363281
vt 0.745368 0.542969
vt 0.544922 0.375318
vt 0.500000 0.363281
vt 0.500000 0.453125
vt 0.455078 0.375318
vt 0.422193 0.408203
vt 0.410156 0.453125
vt 0.422193 0.498047
vt 0.455078 0.530932
vt 0.500000 0.542969
vt 0.544922 0.530932
vt 0.577807 0.498047
vt 0.589844 0.453125
vt 0.577807 0.408204
s 1
f 4/1/1 1/1/1 2/2/2
f 1/1/1 3/2/2 2/2/2
f 1/1/3 7/3/4 3/2/5
f 1/1/1 4/1/1 5/4/6
f 6/4/6 1/1/1 5/4/6
f 7/3/4 1/1/3 6/4/7
f 8/5/8 7/3/4 6/4/7
f 9/6/9 7/3/4 8/5/8
f 7/3/4 9/6/9 10/7/10
f 7/3/4 11/8/11 3/2/5
f 11/8/11 7/3/4 10/7/10
f 3/2/12 11/8/12 13/8/12
f 11/8/12 10/7/12 12/7/12
f 13/8/12 11/8/12 12/7/12
f 14/3/13 13/8/14 15/6/15
f 2/2/16 13/8/14 14/3/13
f 2/2/12 3/2/12 13/8/12
f 13/8/14 12/7/17 15/6/15
f 15/6/18 9/6/18 16/9/19
f 9/6/18 15/6/18 10/7/20
f 15/6/18 12/7/20 10/7/20
f 17/9/19 15/6/18 16/9/19
f 14/3/13 15/6/15 17/9/21
f 18/5/22 14/3/13 17/9/21
f 4/1/23 14/3/13 18/5/22
f 5/4/24 4/1/23 18/5/22
f 16/9/25 9/6/9 8/5/8
f 4/1/23 2/2/16 14/3/13
f 22/10/26 20/11/27 19/12/28
f 20/11/27 21/13/29 19/12/28
f 22/10/30 19/12/31 23/12/31
f 24/10/30 22/10/32 23/12/31
f 24/10/33 23/12/34 25/13/35
f 26/11/36 24/10/33 25/13/35
f 26/11/36 25/13/35 27/14/37
f 28/15/38 26/11/36 27/14/39
f 28/15/40 27/14/41 21/13/29
f 20/11/27 29/16/42 28/15/40
f 29/16/42 30/17/43 28/15/40
f 28/15/38 30/17/44 26/11/36
f 20/11/27 28/15/40 21/13/29
f 32/18/45 31/19/46 30/17/43
f 30/17/44 31/19/47 33/16/48
f 29/16/42 32/18/45 30/17/43
f 30/17/44 33/16/48 26/11/36
f 31/19/47 34/18/49 33/16/48
f 26/11/36 33/16/48 24/10/33
f 33/16/48 35/20/50 24/10/33
f 33/16/48 34/18/49 35/20/50
f 35/20/51 36/21/52 37/20/53
f 34/18/49 36/21/54 35/20/50
f 35/20/51 37/20/53 22/10/32
f 24/10/30 35/20/51 22/10/32
f 36/21/52 38/21/55 37/20/53
f 37/20/56 38/21/57 29/16/42
f 37/20/56 29/16/42 20/11/27
f 22/10/26 37/20/56 20/11/27
f 38/21/57 32/18/45 29/16/42
f 41/22/58 32/18/45 38/21/57
f 36/21/52 40/23/59 38/21/55
f 40/23/59 39/23/59 38/21/55
f 39/23/60 41/22/58 38/21/57
f 41/22/58 39/23/60 43/24/61
f 41/22/58 42/25/62 31/19/46
f 42/25/62 41/22/58 43/24/61
f 32/18/45 41/22/58 31/19/46
f 39/23/60 45/26/63 43/24/61
f 44/22/64 42/25/65 43/24/66
f 45/26/67 40/23/68 43/24/66
f 40/23/68 44/22/64 43/24/66
f 39/23/59 40/23/59 45/26/69
f 42/25/65 44/22/64 31/19/47
f 44/22/64 40/23/68 36/21/54
f 34/18/49 44/22/64 36/21/54
f 44/22/64 34/18/49 31/19/47
f 49/27/70 46/28/70 47/27/70
f 46/28/70 48/28/70 47/27/70
f 50/29/71 46/28/72 49/27/72
f 51/30/73 50/29/71 49/27/72
f 52/31/74 50/29/71 51/30/73
f 53/31/75 52/31/75 54/32/75
f 54/32/74 52/31/74 51/30/73
f 55/32/75 53/31/75 54/32/75
f 55/32/76 54/32/76 51/30/76
f 56/29/77 53/31/78 55/32/78
f 57/30/76 55/32/76 49/27/76
f 49/27/76 55/32/76 51/30/76
f 57/30/79 56/29/77 55/32/78
f 47/27/76 57/30/76 49/27/76
f 47/27/80 48/28/80 57/30/79
f 48/28/80 56/29/77 57/30/79
f 70/33/81 59/34/81 58/35/82
f 59/34/81 60/36/81 58/35/82
f 60/36/81 61/37/83 58/35/82
f 61/37/83 62/38/84 58/35/82
f 62/38/84 63/39/85 58/35/82
f 63/39/85 64/40/81 58/35/82
f 64/40/81 65/41/81 58/35/82
f 65/41/81 66/42/81 58/35/82
f 66/42/81 67/43/83 58/35/82
f 67/43/83 68/44/84 58/35/82
f 68/44/84 69/45/85 58/35/82
f 69/45/85 70/33/81 58/35/82
f 70/33/86 72/33/87 59/34/88
f 69/45/89 71/45/90 70/33/86
f 71/45/90 72/33/87 70/33/86
f 72/33/91 71/45/92 73/35/93
f 74/34/91 72/33/91 73/35/93
f 72/33/87 74/34/94 59/34/88
f 59/34/88 74/34/94 60/36/95
f 74/34/94 75/36/96 60/36/95
f 75/36/91 74/34/91 73/35/93
f 60/36/95 75/36/96 61/37/97
f 75/36/96 76/37/98 61/37/97
f 76/37/99 75/36/91 73/35/93
f 77/38/100 76/37/99 73/35/93
f 76/37/98 77/38/101 62/38/102
f 61/37/97 76/37/98 62/38/102
f 78/39/92 77/38/100 73/35/93
f 77/38/101 78/39/103 63/39/104
f 62/38/102 77/38/101 63/39/104
f 79/40/91 78/39/92 73/35/93
f 78/39/103 79/40/105 64/40/106
f 63/39/104 78/39/103 64/40/106
f 64/40/106 79/40/105 65/41/107
f 79/40/105 80/41/108 65/41/107
f 80/41/91 79/40/91 73/35/93
f 65/41/107 80/41/108 66/42/109
f 80/41/108 81/42/110 66/42/109
f 81/42/91 80/41/91 73/35/93
f 66/42/109 81/42/110 67/43/111
f 81/42/110 82/43/112 67/43/111
f 82/43/99 81/42/91 73/35/93
f 67/43/111 82/43/112 68/44/113
f 82/43/112 83/44/114 68/44/113
f 83/44/100 82/43/99 73/35/93
f 68/44/113 83/44/114 69/45/89
f 83/44/114 71/45/90 69/45/89
f 71/45/92 83/44/100 73/35/93
o blade_damaged
v -38.564400 -1.345900 -0.480300
v -110.010307 1.677400 -0.566300
v -38.564400 3.406400 -0.566300
v -109.795509 -3.068700 -0.480300
v -38.564400 -1.345900 0.480300
v -109.795509 -3.068700 0.480300
v -38.564400 3.406400 0.566300
v -38.564400 8.158600 -0.000001
v -110.010307 1.677400 0.566300
v -110.225197 6.423400 -0.000000
v -33.166538 -1.758671 -1.857793
v 33.888588 -0.516455 1.857791
v 33.888588 -0.516455 -1.857793
v -33.166538 -1.758671 1.857791
v -35.493061 -1.773415 1.857791
v -35.493061 -1.773415 -1.857793
v -33.129105 3.628212 -2.924859
v 33.920338 4.053138 -2.924859
v -35.455627 3.613468 -2.924859
v -33.097347 8.197805 -1.857794
v 33.952095 8.622731 -1.857794
v -33.097347 8.197805 1.857790
v 33.952095 8.622731 1.857790
v 33.920338 4.053138 2.924857
v -33.129105 3.628213 2.924857
v -35.455627 3.613469 2.924857
v -35.423874 8.183062 1.857790
v -35.423874 8.183062 -1.857794
v -35.455631 3.601849 -0.000000
v -35.455631 3.601848 10.302791
v -35.446857 -0.468642 7.051683
v -35.440392 -3.442646 4.068434
v -35.454861 -6.695987 0.000003
v -35.440392 -3.442656 -4.068441
v -35.446857 -0.468638 -7.051677
v -35.455631 3.601850 -10.302792
v -35.464443 7.667369 -7.046918
v -35.470875 10.645917 -4.069474
v -35.456402 13.899683 -0.000003
v -35.470875 10.645985 4.069426
v -35.464443 7.667364 7.046905
v -36.843117 10.646487 4.068375
v -36.836651 7.672438 7.051676
v -36.827877 3.601950 10.302791
v -36.827877 3.601951 -0.000000
v -36.812634 -3.442124 -4.069475
v -36.819065 -0.463568 -7.046915
v -36.827877 3.601952 -10.302792
v -36.836651 7.672439 -7.051682
v -36.843117 10.646452 -4.068441
v -36.819065 -0.463566 7.046910
v -36.828648 13.899787 -0.000003
v -36.812634 -3.442107 4.069465
v -36.827106 -6.695885 0.000003
v -34.015800 -2.157500 -1.099300
v -42.484100 -2.225600 1.099300
v -34.015800 -2.157500 1.099300
v -42.484100 -2.225600 -1.099300
v -34.015800 3.610700 -1.295900
v -42.484100 3.542600 -1.295900
v -34.015800 8.765900 -0.723001
v -34.015800 8.765900 0.722999
v -42.484100 8.697800 -0.723001
v -42.484100 8.697800 0.722999
v -34.015800 3.610700 1.295900
v -42.484100 3.542600 1.295900
vn 0.0004 -0.0181 -0.9998
vn -0.0007 0.0274 -0.9996
vn -0.0007 0.0275 -0.9996
vn -0.0018 0.0730 -0.9973
vn 0.0242 -0.9997 -0.0000
vn 0.0004 -0.0181 0.9998
vn -0.0007 0.0274 0.9996
vn -0.0018 0.0730 0.9973
vn -0.0029 0.1183 0.9930
vn -0.0029 0.1184 0.9930
vn -0.0029 0.1183 -0.9930
vn -0.0029 0.1184 -0.9930
vn 0.0124 -0.9999 -0.0000
vn 0.0185 -0.9998 -0.0000
vn 0.0024 -0.1943 -0.9809
vn 0.0007 -0.0187 -0.9998
vn 0.0028 -0.2111 -0.9775
vn 0.0063 -1.0000 -0.0000
vn 0.0012 -0.1943 -0.9809
vn -0.0000 0.0019 -1.0000
vn -0.0014 0.2274 -0.9738
vn 0.0004 0.0868 -0.9962
vn -0.0063 1.0000 -0.0000
vn 1.0000 -0.0069 -0.0000
vn 0.0005 0.0795 0.9968
vn -0.0014 0.2274 0.9738
vn 0.0003 0.0114 0.9999
vn 0.0028 -0.2111 0.9775
vn 0.0024 -0.1943 0.9809
vn -0.0006 -0.0566 0.9984
vn 0.0012 -0.1943 0.9809
vn 1.0000 0.0022 -0.0000
vn 1.0000 0.0015 -0.0000
vn 1.0000 0.0010 -0.0021
vn 1.0000 0.0001 -0.0000
vn 1.0000 0.0010 0.0021
vn 0.0044 0.7158 0.6983
vn 0.0048 0.6164 0.7874
vn 0.0004 0.0746 0.9972
vn -0.0000 0.8031 0.5959
vn 0.0004 0.6811 0.7322
vn -0.0004 -0.0746 0.9972
vn -1.0000 -0.0022 -0.0000
vn -1.0000 -0.0015 -0.0000
vn -1.0000 -0.0010 -0.0021
vn -1.0000 -0.0001 -0.0000
vn -1.0000 -0.0010 0.0021
vn 0.0005 -0.9898 0.1425
vn 0.0005 -0.9898 -0.1425
vn -0.0001 -0.8036 -0.5952
vn -0.0001 -0.8031 0.5959
vn -0.0005 -0.6815 -0.7318
vn -0.0005 -0.6811 0.7322
vn -0.0044 -0.7158 0.6983
vn -0.0004 0.9898 -0.1425
vn -0.0005 0.9898 0.1425
vn 0.0001 0.8036 -0.5952
vn -0.0048 -0.6164 0.7874
vn 0.0005 0.6815 -0.7318
vn 0.0044 0.7151 -0.6990
vn 0.0048 0.6153 -0.7883
vn 0.0004 0.0762 -0.9971
vn -0.0048 -0.6153 -0.7883
vn -0.0004 -0.0762 -0.9971
vn -0.0044 -0.7151 -0.6990
vn 0.0080 -1.0000 -0.0000
vn -0.0003 0.0141 -0.9999
vn 0.0003 -0.0341 -0.9994
vn -0.0003 0.0624 -0.9981
vn -0.0009 0.1105 -0.9939
vn -0.0080 1.0000 -0.0000
vn -1.0000 -0.0000 -0.0000
vn -0.0003 0.0141 0.9999
vn -0.0003 0.0624 0.9981
vn -0.0009 0.1105 0.9939
vn 0.0003 -0.0341 0.9994
vt 0.014576 0.988281
vt 0.013148 0.892507
vt 0.488281 0.953516
vt 0.488281 0.857616
vt 0.488281 0.761719
vt 0.011719 0.796734
vt 0.023508 0.535156
vt 0.363281 0.521689
vt 0.023508 0.446391
vt 0.011719 0.535156
vt 0.363281 0.446391
vt 0.363281 0.371094
vt 0.011719 0.446391
vt 0.023508 0.371094
vt 0.011719 0.371094
vt 0.544922 0.375318
vt 0.500000 0.363281
vt 0.500000 0.453125
vt 0.455078 0.375318
vt 0.422193 0.408203
vt 0.410156 0.453125
vt 0.422193 0.498047
vt 0.455078 0.530932
vt 0.500000 0.542969
vt 0.544922 0.530932
vt 0.577807 0.498047
vt 0.589844 0.453125
vt 0.577807 0.408204
vt 0.628906 0.542969
vt 0.629632 0.363281
vt 0.691131 0.363281
vt 0.690405 0.542969
vt 0.746094 0.363281
vt 0.745368 0.542969
s 1
f 87/46/115 85/47/116 84/48/115
f 85/47/117 86/49/118 84/48/115
f 87/46/119 84/48/119 88/48/119
f 89/46/119 87/46/119 88/48/119
f 89/46/120 88/48/120 90/49/121
f 92/47/122 90/49/121 91/50/123
f 92/47/122 89/46/120 90/49/121
f 93/51/124 92/47/122 91/50/124
f 93/51/125 91/50/125 86/49/118
f 85/47/117 93/51/126 86/49/118
f 97/52/127 94/52/127 95/53/128
f 94/52/127 96/53/128 95/53/128
f 94/52/129 100/54/130 96/53/131
f 94/52/127 97/52/127 98/55/132
f 99/55/132 94/52/127 98/55/132
f 100/54/130 94/52/129 99/55/133
f 101/56/134 100/54/130 104/57/135
f 100/54/130 101/56/134 96/53/131
f 102/58/136 100/54/130 99/55/133
f 103/59/135 100/54/130 102/58/136
f 100/54/130 103/59/135 104/57/135
f 103/59/137 105/59/137 104/57/137
f 105/59/137 106/57/137 104/57/137
f 101/56/138 104/57/138 106/57/138
f 107/56/139 106/57/140 105/59/140
f 107/56/138 101/56/138 106/57/138
f 96/53/138 101/56/138 107/56/138
f 108/54/141 107/56/139 105/59/140
f 95/53/142 107/56/139 108/54/141
f 95/53/138 96/53/138 107/56/138
f 97/52/143 108/54/141 109/58/144
f 97/52/143 95/53/142 108/54/141
f 108/54/141 105/59/140 110/60/140
f 109/58/144 108/54/141 110/60/140
f 110/60/137 105/59/137 111/60/137
f 105/59/137 103/59/137 111/60/137
f 111/60/135 103/59/135 102/58/136
f 98/55/145 97/52/143 109/58/144
f 124/61/146 113/62/146 112/63/147
f 113/62/146 114/64/146 112/63/147
f 114/64/146 115/65/148 112/63/147
f 115/65/148 116/66/149 112/63/147
f 116/66/149 117/67/150 112/63/147
f 117/67/150 118/68/146 112/63/147
f 118/68/146 119/69/146 112/63/147
f 119/69/146 120/70/146 112/63/147
f 120/70/146 121/71/148 112/63/147
f 121/71/148 122/72/149 112/63/147
f 122/72/149 123/73/150 112/63/147
f 123/73/150 124/61/146 112/63/147
f 124/61/151 126/61/152 113/62/153
f 123/73/154 125/73/155 124/61/151
f 125/73/155 126/61/152 124/61/151
f 126/61/152 127/62/156 113/62/153
f 127/62/157 126/61/157 128/63/158
f 126/61/157 125/73/159 128/63/158
f 130/68/157 129/67/159 128/63/158
f 129/67/159 137/66/160 128/63/158
f 131/69/157 130/68/157 128/63/158
f 132/70/157 131/69/157 128/63/158
f 133/71/161 132/70/157 128/63/158
f 134/64/157 127/62/157 128/63/158
f 135/72/160 133/71/161 128/63/158
f 136/65/161 134/64/157 128/63/158
f 125/73/159 135/72/160 128/63/158
f 137/66/160 136/65/161 128/63/158
f 116/66/162 137/66/163 117/67/164
f 136/65/165 137/66/163 116/66/162
f 137/66/163 129/67/166 117/67/164
f 115/65/167 136/65/165 116/66/162
f 134/64/168 136/65/165 115/65/167
f 122/72/169 135/72/170 123/73/154
f 133/71/171 135/72/170 122/72/169
f 135/72/170 125/73/155 123/73/154
f 114/64/172 134/64/168 115/65/167
f 127/62/156 134/64/168 114/64/172
f 121/71/173 133/71/171 122/72/169
f 132/70/174 133/71/171 121/71/173
f 120/70/175 132/70/174 121/71/173
f 131/69/176 132/70/174 120/70/175
f 130/68/177 131/69/176 119/69/178
f 119/69/178 131/69/176 120/70/175
f 129/67/166 130/68/177 118/68/179
f 118/68/179 130/68/177 119/69/178
f 117/67/164 129/67/166 118/68/179
f 113/62/153 127/62/156 114/64/172
f 141/74/180 138/75/180 139/74/180
f 138/75/180 140/75/180 139/74/180
f 142/76/181 138/75/182 141/74/182
f 143/77/183 142/76/181 141/74/182
f 144/78/184 142/76/181 143/77/183
f 145/78/185 144/78/185 146/79/185
f 146/79/184 144/78/184 143/77/183
f 147/79/185 145/78/185 146/79/185
f 147/79/186 146/79/186 143/77/186
f 149/77/187 148/76/188 147/79/189
f 148/76/188 145/78/189 147/79/189
f 149/77/186 147/79/186 141/74/186
f 141/74/186 147/79/186 143/77/186
f 140/75/190 148/76/188 149/77/187
f 139/74/190 140/75/190 149/77/187
f 139/74/186 149/77/186 141/74/186
o blade_fragment
v -285.119080 -26.426998 -0.480298
v -290.956177 -27.484396 0.000002
v -285.119080 -26.426998 0.480302
v -288.616180 -21.933998 0.000002
v -281.382874 -20.574398 -0.566298
v -225.926285 -15.527596 -0.480299
v -226.511765 -10.821397 -0.566299
v -225.926285 -15.527596 0.480301
v -170.362167 -3.336299 -0.566300
v -169.955399 -8.066399 -0.480299
v -169.955399 -8.066399 0.480301
v -110.010292 1.677401 -0.566300
v -109.795486 -3.068699 -0.480300
v -109.795486 -3.068699 0.480300
v -110.010292 1.677401 0.566300
v -170.362167 -3.336299 0.566300
v -226.511765 -10.821397 0.566301
v -170.769089 1.393899 -0.000000
v -227.097382 -6.114900 0.000000
v -281.382874 -20.574398 0.566302
v -283.795776 -16.482498 0.000001
v -110.225189 6.423399 -0.000000
vn -0.0571 0.0202 -0.9982
vn -0.0887 0.0374 -0.9954
vn -0.0891 0.0532 -0.9946
vn 0.1797 -0.9837 -0.0000
vn 0.1783 -0.9840 -0.0000
vn 0.1648 -0.9863 -0.0000
vn -0.0360 0.0548 -0.9978
vn 0.0028 -0.0179 -0.9998
vn -0.0093 0.0634 -0.9979
vn -0.0049 0.0501 -0.9987
vn 0.1485 -0.9889 -0.0000
vn 0.1157 -0.9933 -0.0000
vn 0.0020 -0.0180 -0.9998
vn -0.0023 0.0274 -0.9996
vn 0.0992 -0.9951 -0.0000
vn 0.0828 -0.9966 -0.0000
vn 0.0015 -0.0180 -0.9998
vn -0.0060 0.0728 0.9973
vn -0.0059 0.0502 0.9987
vn 0.0015 -0.0180 0.9998
vn 0.0020 -0.0180 0.9998
vn -0.0187 0.1189 0.9927
vn -0.0057 0.0362 0.9993
vn -0.0118 0.1179 0.9930
vn -0.0196 0.1194 -0.9927
vn -0.0582 0.1031 -0.9930
vn -0.0582 0.1031 0.9930
vn -0.0361 0.0549 0.9978
vn -0.0136 0.1177 -0.9930
vn -0.0891 0.0532 0.9946
vn -0.0571 0.0202 0.9982
vn 0.0028 -0.0179 0.9998
vn -0.0098 0.1180 -0.9930
vn -0.0098 0.1180 0.9930
vn -0.0887 0.0374 0.9954
vt 0.027074 0.981216
vt 0.011719 0.988281
vt 0.017874 0.951195
vt 0.182787 0.908389
vt 0.036902 0.942111
vt 0.181247 0.876944
vt 0.328954 0.826930
vt 0.330024 0.858536
vt 0.487716 0.793430
vt 0.488281 0.825142
vt 0.179706 0.845496
vt 0.327884 0.795324
vt 0.030555 0.914770
vt 0.487151 0.761719
s 1
f 150/80/191 151/81/192 153/82/193
f 150/80/194 152/80/194 151/81/195
f 152/80/194 150/80/194 155/83/196
f 154/84/197 150/80/191 153/82/193
f 150/80/191 154/84/197 155/83/198
f 154/84/197 156/85/199 155/83/198
f 155/83/198 156/85/199 158/86/200
f 157/83/201 155/83/196 159/87/202
f 157/83/201 152/80/194 155/83/196
f 159/87/203 155/83/198 158/86/200
f 159/87/203 158/86/200 161/88/204
f 160/87/205 159/87/202 162/89/206
f 160/87/205 157/83/201 159/87/202
f 162/89/207 159/87/203 161/88/204
f 163/89/206 160/87/205 162/89/206
f 164/88/208 165/86/209 163/89/210
f 165/86/209 160/87/211 163/89/210
f 168/90/212 166/85/213 165/86/209
f 165/86/209 166/85/213 160/87/211
f 167/91/214 165/86/209 164/88/208
f 167/91/214 168/90/212 165/86/209
f 156/85/199 154/84/197 168/90/215
f 154/84/197 170/92/216 168/90/215
f 170/92/217 169/84/218 168/90/212
f 169/84/218 166/85/213 168/90/212
f 156/85/199 168/90/215 167/91/219
f 169/84/218 170/92/217 153/82/220
f 170/92/216 154/84/197 153/82/193
f 152/80/221 169/84/218 153/82/220
f 166/85/213 169/84/218 157/83/222
f 169/84/218 152/80/221 157/83/222
f 158/86/200 167/91/219 171/93/223
f 158/86/200 156/85/199 167/91/219
f 171/93/224 167/91/214 164/88/208
f 161/88/204 158/86/200 171/93/223
f 166/85/213 157/83/222 160/87/211
f 151/81/225 152/80/221 153/82/220
o sheath
v -35.374783 -4.622668 -3.483364
v -109.539787 -6.437832 3.857580
v -35.374783 -4.622667 3.483364
v -109.539787 -6.437833 -3.857579
v -110.059372 2.344676 -6.465956
v -35.150272 3.709559 -5.343424
v -35.150272 3.709560 5.343423
v -110.059372 2.344676 6.465956
v -35.584221 12.049485 3.483363
v -35.584221 12.049485 -3.483365
v -110.579048 11.127186 3.857579
v -171.314194 5.989187 3.857579
v -110.579048 11.127186 -3.857581
v -171.314194 5.989186 -3.857580
v -227.789032 -2.082219 -3.857580
v -226.514862 -10.779902 -6.465955
v -170.404526 -2.760676 -6.465956
v -169.495087 -11.510421 -3.857579
v -225.240891 -19.477468 -3.857579
v -293.737366 -33.798824 -3.735313
v -293.737366 -33.798824 3.735318
v -225.240891 -19.477468 3.857581
v -226.514862 -10.779901 6.465957
v -169.495087 -11.510421 3.857581
v -170.404526 -2.760675 6.465956
v -227.789032 -2.082219 3.857580
v -297.122711 -16.274298 -3.735315
v -297.122711 -16.274298 3.735317
v -295.774292 -25.118654 5.729938
v -295.774292 -25.118654 -5.729934
v -35.318840 -4.141776 -2.735048
v -35.474915 10.411451 -2.735049
v -35.318840 -4.141776 2.735048
v -35.474915 10.411451 2.735047
v -35.403614 3.762916 -4.221008
v -35.403614 3.762916 4.221007
v -293.368896 -31.964571 -2.735046
v -296.226044 -17.417904 -2.735047
v -293.368896 -31.964571 2.735050
v -296.226044 -17.417904 2.735049
v -294.797394 -24.691242 -4.221006
v -294.797394 -24.691242 4.221010
v -225.448196 -17.983685 -2.735047
v -227.604218 -3.293911 -2.735048
v -225.448196 -17.983685 2.735049
v -227.604218 -3.293910 2.735048
v -226.526108 -10.638916 -4.221007
v -226.526108 -10.638916 4.221009
v -169.641464 -10.049451 -2.735047
v -171.188583 4.726753 -2.735048
v -169.641464 -10.049451 2.735049
v -171.188583 4.726753 2.735048
v -170.414963 -2.661406 -4.221008
v -170.414963 -2.661405 4.221008
v -109.620605 -5.016171 -2.735048
v -110.512978 9.815059 -2.735049
v -109.620605 -5.016171 2.735049
v -110.512978 9.815059 2.735047
v -110.066750 2.399443 -4.221008
v -110.066750 2.399444 4.221008
v -293.368896 -31.964571 -2.735046
v -294.797394 -24.691242 -4.221006
v -293.368896 -31.964571 2.735050
v -294.797394 -24.691242 4.221010
v -296.226044 -17.417904 2.735049
v -296.226044 -17.417904 -2.735047
v -93.235199 -4.707600 -3.134204
v -93.235199 -4.707600 3.134320
v -93.462303 3.188548 -5.019436
v -89.867874 3.222572 -5.019436
v -89.741592 -4.674607 -3.134204
v -89.741592 -4.674607 3.134320
v -93.462303 3.188549 5.019435
v -89.867874 3.222573 5.019435
v -89.994171 11.119751 -3.134321
v -89.994171 11.119751 3.134203
v -93.689316 11.084810 3.134203
v -93.689316 11.084810 -3.134321
vn 0.0629 -0.9980 -0.0000
vn 0.0245 -0.9997 -0.0000
vn 0.0459 -0.9989 -0.0000
vn 1.0000 -0.0027 -0.0000
vn 0.9996 -0.0269 -0.0000
vn 0.0158 -0.2520 -0.9676
vn 0.0179 -0.2837 -0.9588
vn 0.0084 -0.0413 -0.9991
vn 0.0151 -0.0024 -0.9999
vn 0.9996 0.0277 -0.0000
vn 0.0151 -0.0024 0.9999
vn 0.0063 0.2524 0.9676
vn 0.0027 0.0429 0.9991
vn 0.0158 -0.2520 0.9676
vn 0.9986 0.0520 -0.0000
vn -0.0123 0.9999 -0.0000
vn -0.0484 0.9988 -0.0000
vn -0.0114 0.2841 0.9587
vn -0.0298 0.2827 0.9587
vn -0.1047 0.9945 -0.0000
vn -0.1211 0.9926 -0.0000
vn -0.1625 0.9867 -0.0000
vn -0.0085 0.0419 -0.9991
vn -0.0494 0.2803 -0.9587
vn -0.0344 0.2822 -0.9587
vn 0.0023 0.0010 -1.0000
vn -0.0149 0.2839 -0.9587
vn 0.0298 -0.2827 -0.9587
vn 0.0463 -0.2808 -0.9587
vn 0.2047 -0.9788 -0.0000
vn 0.1822 -0.9833 -0.0000
vn 0.0449 -0.2486 -0.9676
vn 0.1641 -0.9864 -0.0000
vn 0.1211 -0.9926 -0.0000
vn 0.0017 -0.0418 0.9991
vn 0.0486 -0.2804 0.9587
vn 0.0344 -0.2822 0.9587
vn 0.0449 -0.2486 0.9676
vn 0.1048 -0.9945 -0.0000
vn -0.0026 0.0004 1.0000
vn 0.0196 -0.2836 0.9587
vn -0.0467 0.2807 0.9587
vn -0.1796 0.9837 -0.0000
vn -0.2005 0.9797 -0.0000
vn -0.0568 0.2461 0.9676
vn -0.9846 -0.1748 -0.0000
vn -0.9886 -0.1507 -0.0000
vn -0.0093 -0.0073 0.9999
vn -0.9788 -0.2046 -0.0000
vn -0.9736 -0.2285 -0.0000
vn -0.0093 -0.0073 -0.9999
vn -0.0568 0.2461 -0.9676
vn 0.0063 0.2524 -0.9676
vn 0.0396 -0.1925 -0.9805
vn -0.0103 0.0613 -0.9981
vn 0.0016 0.0009 -1.0000
vn 0.0321 -0.1937 -0.9805
vn 0.0119 -0.0700 0.9975
vn 0.0396 -0.1925 0.9805
vn 0.0355 -0.1931 0.9805
vn -0.0019 0.0002 1.0000
vn 0.2016 -0.9795 -0.0000
vn 0.1800 -0.9837 -0.0000
vn 0.1625 -0.9867 -0.0000
vn -0.0396 0.1925 -0.9805
vn -0.0353 0.1931 -0.9805
vn -0.2016 0.9795 -0.0000
vn -0.1800 0.9837 -0.0000
vn -0.0396 0.1925 0.9805
vn -0.0319 0.1937 0.9805
vn 0.0016 0.0007 -1.0000
vn 0.0205 -0.1951 -0.9806
vn 0.0237 -0.1947 0.9806
vn -0.0017 0.0003 1.0000
vn 0.1204 -0.9927 -0.0000
vn 0.1040 -0.9946 -0.0000
vn -0.0236 0.1947 -0.9806
vn -0.1204 0.9927 -0.0000
vn -0.1040 0.9946 -0.0000
vn -0.0204 0.1951 0.9806
vn 0.0021 0.0045 -1.0000
vn 0.0077 -0.1921 -0.9813
vn 0.0114 -0.1958 0.9806
vn -0.0024 0.0340 0.9994
vn 0.0580 -0.9983 -0.0000
vn 0.0374 -0.9993 -0.0000
vn -0.0111 0.1958 -0.9806
vn -0.0458 0.9990 -0.0000
vn -0.0090 0.1959 0.9806
vn 0.0029 -0.1906 0.9817
vn -0.0002 0.0146 0.9999
vn 0.0118 -0.9999 -0.0000
vn -0.0027 0.2071 0.9783
vn -0.0079 1.0000 -0.0000
vn -0.0027 0.2071 -0.9783
vn 0.0021 -0.0578 -0.9983
vn 0.0022 -0.1847 -0.9828
vn 0.9999 0.0107 -0.0000
vn -0.9813 -0.1927 -0.0000
vn -0.9812 -0.1927 -0.0000
vn 0.0094 -1.0000 -0.0000
vn -0.9996 -0.0287 -0.0000
vn 0.0022 -0.2322 -0.9727
vn -0.0024 0.0840 -0.9965
vn 0.0037 -0.0843 -0.9964
vn -0.0033 0.0740 0.9972
vn 0.0022 -0.0743 0.9972
vn 0.0022 -0.2322 0.9727
vn 0.9999 0.0160 -0.0000
vn -0.0022 0.2322 0.9727
vn -0.0095 1.0000 -0.0000
vn -0.0022 0.2321 -0.9727
vt 0.352875 0.633003
vt 0.487720 0.624855
vt 0.488281 0.599537
vt 0.352092 0.606343
vt 0.487645 0.574219
vt 0.351308 0.579684
vt 0.240814 0.597448
vt 0.138009 0.623971
vt 0.140166 0.650346
vt 0.242306 0.623994
vt 0.243799 0.650540
vt 0.142322 0.676721
vt 0.017551 0.722656
vt 0.011719 0.669544
vt 0.014008 0.696362
vt 0.016650 0.722656
vt 0.014184 0.699027
vt 0.139093 0.650501
vt 0.140917 0.674377
vt 0.011719 0.675397
vt 0.137269 0.626624
vt 0.241684 0.622251
vt 0.242951 0.646281
vt 0.240416 0.598221
vt 0.351952 0.603328
vt 0.352622 0.627461
vt 0.351283 0.579196
vt 0.488281 0.621609
vt 0.488281 0.595868
vt 0.488281 0.574219
vt 0.628906 0.511340
vt 0.628906 0.394910
vt 0.687500 0.542969
vt 0.687500 0.363281
vt 0.746094 0.394910
vt 0.746094 0.511340
vt 0.629684 0.397023
vt 0.628906 0.397023
vt 0.628906 0.509225
vt 0.687088 0.542969
vt 0.687889 0.542969
vt 0.629684 0.509225
vt 0.687889 0.363281
vt 0.687088 0.363281
vt 0.745271 0.397025
vt 0.746094 0.509227
vt 0.746094 0.397025
vt 0.745271 0.509227
s 1
f 175/94/226 172/95/227 173/94/228
f 172/95/227 174/95/227 173/94/228
f 178/96/229 174/95/230 172/95/230
f 172/95/231 175/94/232 176/97/233
f 177/96/234 172/95/231 176/97/233
f 177/96/235 178/96/229 172/95/230
f 178/96/236 180/98/237 179/97/238
f 174/95/239 178/96/236 179/97/238
f 180/98/240 178/96/229 177/96/235
f 181/98/240 180/98/240 177/96/235
f 180/98/241 181/98/241 182/99/242
f 180/98/237 182/99/243 179/97/238
f 182/99/243 183/100/244 179/97/238
f 185/100/245 183/100/246 182/99/242
f 181/98/241 184/99/242 182/99/242
f 184/99/242 185/100/245 182/99/242
f 185/100/245 186/101/247 183/100/246
f 187/102/248 186/101/249 185/100/250
f 188/103/251 187/102/248 185/100/250
f 188/103/251 185/100/250 184/99/252
f 176/97/233 188/103/251 184/99/252
f 189/104/253 188/103/251 176/97/233
f 190/105/254 187/102/248 188/103/251
f 189/104/253 190/105/254 188/103/251
f 192/106/255 191/106/255 190/105/256
f 190/105/254 191/106/257 187/102/248
f 193/105/258 192/106/255 190/105/256
f 193/105/258 190/105/256 189/104/259
f 194/102/260 193/105/261 195/104/262
f 192/106/263 193/105/261 194/102/260
f 195/104/264 193/105/258 189/104/259
f 196/103/265 194/102/260 195/104/262
f 195/104/264 189/104/259 175/94/226
f 196/103/265 195/104/262 173/94/266
f 173/94/228 195/104/264 175/94/226
f 183/100/244 196/103/265 179/97/238
f 183/100/244 197/101/267 196/103/265
f 197/101/267 194/102/260 196/103/265
f 179/97/238 196/103/265 173/94/266
f 186/101/247 197/101/268 183/100/246
f 186/101/247 198/107/269 197/101/268
f 198/107/269 199/107/269 197/101/268
f 197/101/267 199/107/270 194/102/260
f 200/108/271 199/107/272 198/107/272
f 199/107/270 200/108/273 194/102/260
f 201/108/274 200/108/271 198/107/272
f 192/106/275 200/108/271 201/108/274
f 200/108/273 192/106/263 194/102/260
f 191/106/275 192/106/275 201/108/274
f 191/106/257 201/108/276 187/102/248
f 201/108/276 198/107/277 187/102/248
f 198/107/277 186/101/249 187/102/248
f 175/94/232 189/104/253 176/97/233
f 184/99/252 181/98/278 176/97/233
f 181/98/278 177/96/234 176/97/233
f 173/94/266 174/95/239 179/97/238
f 208/109/279 212/110/280 218/111/281
f 214/112/282 208/109/279 218/111/281
f 213/110/283 210/109/284 216/112/285
f 219/111/286 213/110/283 216/112/285
f 210/109/287 208/109/287 214/112/288
f 216/112/289 210/109/287 214/112/288
f 212/110/280 209/113/290 215/114/291
f 218/111/281 212/110/280 215/114/291
f 209/113/292 211/113/292 217/114/293
f 215/114/247 209/113/292 217/114/293
f 211/113/294 213/110/283 219/111/286
f 217/114/295 211/113/294 219/111/286
f 214/112/282 218/111/281 224/115/296
f 220/116/297 214/112/282 224/115/296
f 219/111/286 216/112/285 222/116/298
f 225/115/299 219/111/286 222/116/298
f 216/112/289 214/112/288 220/116/300
f 222/116/301 216/112/289 220/116/300
f 218/111/281 215/114/291 221/117/302
f 224/115/296 218/111/281 221/117/302
f 215/114/247 217/114/293 223/117/303
f 221/117/304 215/114/247 223/117/303
f 217/114/295 219/111/286 225/115/299
f 223/117/305 217/114/295 225/115/299
f 220/116/297 224/115/296 230/118/306
f 226/119/307 220/116/297 230/118/306
f 225/115/299 222/116/298 228/119/308
f 231/118/309 225/115/299 228/119/308
f 222/116/301 220/116/300 226/119/310
f 228/119/311 222/116/301 226/119/310
f 224/115/296 221/117/302 227/120/312
f 230/118/306 224/115/296 227/120/312
f 221/117/304 223/117/303 229/120/313
f 227/120/313 221/117/304 229/120/313
f 223/117/305 225/115/299 231/118/309
f 229/120/314 223/117/305 231/118/309
f 204/121/315 207/122/316 231/118/309
f 228/119/308 204/121/315 231/118/309
f 202/121/317 204/121/317 228/119/311
f 226/119/310 202/121/317 228/119/311
f 205/123/318 229/120/314 231/118/309
f 207/122/316 205/123/318 231/118/309
f 203/123/319 227/120/313 229/120/313
f 205/123/319 203/123/319 229/120/313
f 203/123/320 206/122/321 230/118/306
f 227/120/312 203/123/320 230/118/306
f 206/122/321 202/121/322 226/119/307
f 230/118/306 206/122/321 226/119/307
f 205/123/323 207/122/323 206/122/323
f 203/123/323 205/123/323 206/122/323
f 207/122/323 204/121/323 202/121/323
f 206/122/323 207/122/323 202/121/323
f 232/124/324 234/125/324 233/126/324
f 234/125/324 235/127/324 233/126/324
f 235/127/324 236/128/325 237/129/324
f 233/126/324 235/127/324 237/129/324
f 243/130/326 239/131/326 238/132/326
f 239/131/327 240/133/327 238/132/327
f 238/132/328 240/133/329 241/134/330
f 242/135/328 238/132/328 241/134/330
f 242/135/326 243/130/326 238/132/326
f 245/136/331 244/137/332 243/130/333
f 244/137/332 239/131/333 243/130/333
f 242/135/334 241/134/334 243/130/334
f 245/136/334 243/130/334 241/134/334
f 248/138/335 244/137/332 245/136/331
f 246/139/334 245/136/334 241/134/334
f 246/139/334 247/140/334 245/136/334
f 247/140/335 248/138/335 245/136/331
f 249/141/336 248/138/336 247/140/336
f 249/141/327 240/133/327 248/138/327
f 248/138/327 240/133/327 244/137/327
f 240/133/329 249/141/337 246/139/337
f 246/139/336 249/141/336 247/140/336
f 241/134/330 240/133/329 246/139/337
f 240/133/327 239/131/327 244/137/327
o item_blade
v 26.590300 22.520599 11.862098
v 26.590300 22.520599 5.647598
v 33.175800 18.257101 13.730999
v 34.370899 19.927902 13.730998
v 27.751900 24.144600 11.862098
v 27.751900 24.144600 5.647598
v 34.370899 19.927900 3.778699
v 33.175800 18.257099 3.778699
v 39.761299 13.993600 5.647699
v 39.761299 13.993601 11.862199
v 40.990002 15.711200 5.647699
v 40.990002 15.711201 11.862199
v 0.000000 70.710701 -0.000005
v 70.710701 0.000000 0.000000
v 0.000000 55.656200 3.999996
v -55.656101 0.000000 4.000000
v -70.710701 0.000000 0.000000
v 0.000000 -55.656101 4.000004
v 0.000000 -70.710602 0.000005
v 55.656200 0.000000 4.000000
v 0.000000 70.710701 -0.000005
v 0.000000 55.656200 -4.000004
v 70.710701 0.000000 0.000000
v -55.656101 -0.000000 -4.000000
v -70.710701 0.000000 0.000000
v 0.000000 -55.656101 -3.999996
v 0.000000 -70.710602 0.000005
v 55.656200 -0.000000 -4.000000
v 0.000000 70.710701 -0.000005
v 70.710701 0.000000 0.000000
v 0.000000 55.656200 3.999996
v -55.656101 0.000000 4.000000
v -70.710701 0.000000 0.000000
v 0.000000 -55.656101 4.000004
v 0.000000 -70.710602 0.000005
v 55.656200 0.000000 4.000000
v 0.000000 70.710701 -0.000005
v 0.000000 55.656200 -4.000004
v 70.710701 0.000000 0.000000
v -55.656101 -0.000000 -4.000000
v -70.710701 0.000000 0.000000
v 0.000000 -55.656101 -3.999996
v 0.000000 -70.710602 0.000005
v 55.656200 -0.000000 -4.000000
v 0.000000 70.710701 -0.000005
v 70.710701 0.000000 0.000000
v 0.000000 55.656200 3.999996
v -55.656101 0.000000 4.000000
v -70.710701 0.000000 0.000000
v 0.000000 -55.656101 4.000004
v 0.000000 -70.710602 0.000005
v 55.656200 0.000000 4.000000
v 0.000000 70.710701 -0.000005
v 0.000000 55.656200 -4.000004
v 70.710701 0.000000 0.000000
v -55.656101 -0.000000 -4.000000
v -70.710701 0.000000 0.000000
v 0.000000 -55.656101 -3.999996
v 0.000000 -70.710602 0.000005
v 55.656200 -0.000000 -4.000000
v -49.047565 43.906445 12.984657
v -72.792465 75.179070 18.201330
v -72.792465 75.179070 12.984654
v -49.047478 43.906441 18.201332
v -48.256844 42.799129 18.201332
v -48.256760 42.799126 12.984657
v -55.351295 39.694317 11.486517
v -78.139870 71.605972 11.486514
v -54.560574 38.586998 11.486517
v -60.698608 36.121227 12.984657
v -83.487190 68.032883 12.984655
v -60.698608 36.121227 18.201334
v -83.487190 68.032883 18.201330
v -78.139786 71.605972 19.699471
v -55.351292 39.694229 19.699472
v -54.560574 38.586998 19.699472
v -59.907890 35.013908 18.201334
v -59.907890 35.013908 12.984657
v -47.798500 41.051300 14.918697
v -27.467003 4.206800 14.797900
v -53.285400 37.254799 14.797897
v -22.058905 8.101800 14.918699
v -47.798500 41.051300 16.267296
v -22.058905 8.101800 16.267300
v -53.285400 37.254799 16.388098
v -27.467003 4.206800 16.388100
v -58.772202 33.458500 15.592998
v -32.874901 0.311905 15.593000
v -1.555197 -20.871000 14.797902
v -6.880898 -24.845999 15.593002
v 20.570103 -45.991600 15.593004
v 25.808792 -41.949608 14.797903
v -1.555199 -20.871099 16.388102
v 3.770403 -16.896296 16.267302
v 25.808792 -41.949608 16.388103
v 31.047199 -37.907795 16.267303
v 55.364899 -60.600201 16.388103
v 51.445095 -65.031898 15.593005
v 63.368004 -57.725307 16.267303
v 59.346504 -62.999809 15.593005
v 63.367889 -57.725300 14.918705
v 55.364899 -60.600201 14.797905
v 66.535011 -59.693394 15.593005
v 31.047199 -37.907795 14.918703
v 3.770403 -16.896296 14.918701
v -54.485722 38.503693 15.871110
v -48.945843 30.169317 26.313885
v -45.989506 36.044243 23.112738
v -44.156517 40.828575 20.157829
v -42.555096 46.669914 16.059294
v -48.531845 47.410801 11.910352
v -53.573116 47.453171 8.817740
v -60.025734 46.838055 5.428391
v -62.973598 40.963142 8.634360
v -64.815033 36.180038 11.583407
v -66.416412 30.337463 15.682953
v -60.438732 29.596079 19.832869
v -55.395138 29.562010 22.919691
v -60.106060 29.121437 19.275522
v -55.064686 29.079062 22.368280
v -48.612133 29.694136 25.757607
v -54.152077 38.028503 15.314859
v -53.242664 46.970196 8.266268
v -59.692024 46.362869 4.872113
v -62.648331 40.487949 8.073274
v -64.481285 35.703678 11.028172
v -45.664215 35.569065 22.551592
v -66.082710 29.862280 15.126677
v -43.822807 40.352207 19.602581
v -42.221390 46.194733 15.503016
v -48.199207 46.936104 11.353032
v -48.378101 43.891602 14.049597
v -45.475899 39.865200 17.136396
v -48.378201 43.891602 17.136396
v -45.475899 39.865200 14.049597
v -55.037899 39.283600 13.773597
v -52.135700 35.257099 13.773597
v -60.990002 35.165298 14.577897
v -60.990002 35.165298 16.608099
v -58.087700 31.138903 14.577898
v -58.087799 31.138903 16.608099
v -55.037899 39.283501 17.412395
v -52.135700 35.257099 17.412397
v 45.995564 50.179817 10.806142
v 21.625648 10.547036 4.515465
v 45.995564 50.179817 4.515462
v 21.625648 10.547037 10.806145
v 52.218544 45.557850 12.514938
v 52.218544 45.557850 2.806667
v 27.726444 5.728234 2.806669
v 58.441509 40.936001 4.515463
v 58.441509 40.936001 10.806143
v 33.827042 0.909547 4.515466
v 10.356176 -29.311419 4.515468
v 33.827042 0.909547 10.806146
v 10.356176 -29.311419 10.806148
v -14.235735 -55.381752 10.806149
v -20.077208 -50.258972 12.514946
v 4.382150 -24.329544 12.514944
v -25.918377 -45.136574 10.806149
v 27.726444 5.728235 12.514942
v -1.591775 -19.347799 10.806148
v -25.918377 -45.136574 4.515469
v -1.591775 -19.347799 4.515467
v 4.382150 -24.329544 2.806672
v -20.077208 -50.258972 2.806674
v -14.235735 -55.381752 4.515470
v -47.824913 -84.398811 4.515472
v -53.495159 -79.127548 2.806676
v -59.165401 -73.856384 4.515471
v -59.165401 -73.856384 10.806151
v -53.495159 -79.127548 12.514948
v -47.824913 -84.398811 10.806152
v -59.530998 -58.415699 11.466405
v -53.878399 -62.941700 12.939505
v -59.530998 -58.415699 6.043404
v -53.878399 -62.941700 4.570305
v -48.225800 -67.467796 11.466405
v -48.225800 -67.467796 6.043405
vn -0.8134 0.5818 -0.0000
vn -0.5435 -0.8394 -0.0000
vn -0.1887 0.1350 0.9727
vn 0.0644 -0.0461 0.9969
vn -0.0644 0.0461 0.9969
vn 0.0644 -0.0461 -0.9969
vn -0.0644 0.0461 -0.9969
vn -0.1887 0.1350 -0.9727
vn 0.5373 0.8434 -0.0000
vn 0.1887 -0.1350 -0.9727
vn 0.8133 -0.5818 -0.0000
vn 0.1887 -0.1350 0.9727
vn 0.2559 0.0853 0.9629
vn -0.0853 0.2559 0.9629
vn 0.0639 0.1919 0.9793
vn -0.1532 0.0510 0.9869
vn -0.2558 -0.0853 0.9629
vn -0.0639 -0.1919 0.9793
vn 0.0853 -0.2559 0.9629
vn 0.1531 -0.0510 0.9869
vn 0.0639 0.1919 -0.9793
vn -0.1531 0.0510 -0.9869
vn -0.0853 0.2559 -0.9629
vn 0.2559 0.0853 -0.9629
vn -0.2558 -0.0853 -0.9629
vn -0.0639 -0.1919 -0.9793
vn 0.0853 -0.2559 -0.9629
vn 0.1532 -0.0510 -0.9869
vn 0.8052 0.5930 -0.0000
vn 0.7964 0.6047 -0.0000
vn 0.1563 0.1150 -0.9810
vn 0.0144 0.0119 -0.9998
vn 0.1698 0.1253 -0.9775
vn 0.8138 0.5811 -0.0000
vn 0.8138 0.5812 -0.0000
vn 0.1578 0.1127 -0.9810
vn -0.0037 -0.0026 -1.0000
vn -0.1847 -0.1319 -0.9739
vn -0.0700 -0.0472 -0.9964
vn -0.8138 -0.5811 -0.0000
vn -0.5556 0.8315 -0.0000
vn -0.0681 -0.0457 0.9966
vn -0.1847 -0.1319 0.9739
vn -0.0098 -0.0058 0.9999
vn 0.1698 0.1253 0.9775
vn 0.0493 0.0324 0.9983
vn 0.1568 0.1143 0.9810
vn 0.1578 0.1127 0.9810
vn 0.0135 0.0123 -0.9998
vn -0.0205 -0.0185 -0.9996
vn 0.0143 0.0112 -0.9998
vn -0.0576 -0.0450 -0.9973
vn 0.7436 0.6687 -0.0000
vn 0.7880 0.6156 -0.0000
vn 0.7435 0.6687 -0.0000
vn 0.7434 0.6689 -0.0000
vn 0.0135 0.0123 0.9998
vn 0.0143 0.0112 0.9998
vn -0.0217 -0.0169 0.9996
vn -0.0546 -0.0492 0.9973
vn -0.0934 -0.0730 0.9930
vn -0.0889 -0.0792 0.9929
vn -0.0934 -0.0730 0.9929
vn -0.0886 -0.0796 -0.9929
vn -0.0934 -0.0730 -0.9930
vn -0.0346 -0.0381 -0.9987
vn -0.0780 -0.0940 -0.9925
vn -0.0808 -0.0904 0.9926
vn -0.0394 -0.0544 -0.9977
vn -0.0713 -0.1067 -0.9917
vn -0.0723 -0.1045 0.9919
vn -0.0329 -0.0402 0.9987
vn 0.0121 0.0142 0.9998
vn -0.0220 -0.0318 0.9993
vn 0.0036 -0.1013 0.9949
vn 0.0105 0.0156 0.9998
vn -0.0065 -0.1710 0.9852
vn 0.0763 -0.2020 0.9764
vn 0.0604 -0.1222 0.9907
vn 0.0036 -0.1013 -0.9949
vn 0.0604 -0.1222 -0.9907
vn 0.0763 -0.2020 -0.9764
vn 0.0885 -0.1924 -0.9773
vn -0.0065 -0.1710 -0.9852
vn 0.0885 -0.1924 0.9773
vn 0.5251 0.8510 -0.0000
vn 0.5246 0.8513 -0.0000
vn 0.5278 0.8494 -0.0000
vn 0.0107 0.0155 -0.9998
vn 0.5818 0.8133 -0.0000
vn 0.5526 0.8335 -0.0000
vn 0.6395 0.7688 -0.0000
vn 0.0121 0.0142 -0.9998
vn 0.6680 0.7442 -0.0000
vn -0.4194 0.5879 0.6917
vn -0.4180 0.5889 0.6917
vn -0.4189 0.5924 0.6882
vn -0.4153 0.5908 0.6918
vn -0.4152 0.5867 0.6953
vn -0.4343 -0.7968 0.4200
vn -0.2818 -0.8063 0.5200
vn -0.3278 -0.7998 0.5028
vn -0.2121 -0.7946 0.5688
vn 0.3212 -0.6161 0.7192
vn 0.4427 -0.5333 0.7209
vn 0.4194 -0.5879 -0.6917
vn 0.4180 -0.5889 -0.6917
vn 0.4152 -0.5867 -0.6953
vn 0.4189 -0.5924 -0.6882
vn 0.4153 -0.5908 -0.6918
vn 0.4350 0.7967 -0.4196
vn 0.2824 0.8063 -0.5197
vn 0.3269 0.7998 -0.5034
vn 0.7617 0.6417 -0.0894
vn 0.2106 0.7945 -0.5696
vn 0.8709 0.4774 0.1164
vn 0.8910 0.1098 0.4406
vn 0.8427 -0.0375 0.5371
vn 0.8628 -0.0050 0.5056
vn -0.8709 -0.4774 -0.1164
vn -0.7618 -0.6417 0.0894
vn -0.8911 -0.1106 -0.4401
vn 0.8153 -0.1126 0.5680
vn -0.8429 0.0369 -0.5368
vn -0.8625 0.0058 -0.5061
vn -0.4460 0.5308 -0.7207
vn -0.8145 0.1140 -0.5688
vn -0.3177 0.6182 -0.7189
vn 0.8112 0.5847 -0.0000
vn -0.0115 -0.0083 -0.9999
vn 0.0276 0.0199 -0.9994
vn -0.0506 -0.0365 -0.9980
vn -0.0896 -0.0646 -0.9939
vn -0.8112 -0.5847 -0.0000
vn 0.5690 -0.8223 -0.0000
vn 0.5690 -0.8223 0.0001
vn -0.0506 -0.0365 0.9981
vn -0.0896 -0.0646 0.9939
vn -0.0115 -0.0083 0.9999
vn 0.0276 0.0199 0.9994
vn -0.8112 0.5848 -0.0000
vn -0.8518 0.5238 -0.0000
vn -0.8326 0.5538 -0.0000
vn 0.5963 0.8028 -0.0000
vn -0.0669 0.0532 0.9963
vn -0.1841 0.1132 0.9764
vn -0.1792 0.1184 0.9767
vn 0.5962 0.8028 -0.0000
vn -0.0153 0.0105 -0.9998
vn 0.1841 -0.1132 -0.9764
vn 0.0237 -0.0172 -0.9996
vn -0.1841 0.1132 -0.9764
vn 0.8518 -0.5238 -0.0000
vn 0.8220 -0.5695 -0.0000
vn 0.1764 -0.1231 -0.9766
vn 0.1641 -0.1377 -0.9768
vn 0.7698 -0.6382 -0.0000
vn 0.7489 -0.6627 -0.0000
vn 0.7034 -0.7108 -0.0000
vn 0.0041 0.0036 1.0000
vn 0.1467 -0.1594 0.9762
vn 0.1608 -0.1431 0.9766
vn 0.0025 0.0034 1.0000
vn 0.1744 -0.1265 0.9765
vn -0.1651 0.1361 0.9768
vn -0.1514 0.1521 0.9767
vn 0.0028 0.0040 1.0000
vn -0.7034 0.7108 -0.0000
vn -0.6794 0.7338 -0.0000
vn -0.7489 0.6626 -0.0000
vn -0.7698 0.6382 -0.0000
vn -0.0006 -0.0015 -1.0000
vn -0.1617 0.1416 -0.9766
vn -0.1755 0.1248 -0.9765
vn -0.0011 -0.0025 -1.0000
vn -0.1477 0.1577 -0.9764
vn -0.0297 0.0424 -0.9987
vn 0.1505 -0.1537 -0.9766
vn 0.1417 -0.1640 -0.9762
vn -0.1417 0.1640 -0.9762
vn -0.6537 0.7568 -0.0000
vn -0.1417 0.1640 0.9762
vn 0.0457 -0.0761 0.9961
vn 0.1417 -0.1640 0.9762
vn 0.6537 -0.7567 -0.0000
vn 0.6794 -0.7338 -0.0000
vn 0.1841 -0.1132 0.9764
vn -0.6250 -0.7806 -0.0000
vt 0.638360 0.363281
vt 0.628906 0.392028
vt 0.682500 0.467499
vt 0.692226 0.437923
vt 0.736094 0.542969
vt 0.746094 0.512565
vt 0.976562 0.023438
vt 0.095226 0.374655
vt 0.095226 0.374655
vt 0.363281 0.482039
vt 0.055192 0.405964
vt 0.085714 0.371094
vt 0.085714 0.371094
vt 0.329321 0.508598
vt 0.295360 0.535156
vt 0.045679 0.402403
vt 0.021231 0.432522
vt 0.329321 0.508597
vt 0.055191 0.405964
vt 0.011719 0.428961
vt 0.151345 0.832089
vt 0.130777 0.840408
vt 0.053453 0.761719
vt 0.032586 0.769827
vt 0.011719 0.777935
vt 0.110210 0.848726
vt 0.229324 0.893967
vt 0.209069 0.902456
vt 0.333393 0.938984
vt 0.313470 0.947617
vt 0.229324 0.893967
vt 0.249578 0.885478
vt 0.445800 0.978816
vt 0.353316 0.930352
vt 0.430892 0.988281
vt 0.460942 0.983941
vt 0.476237 0.972677
vt 0.476236 0.972677
vt 0.488281 0.976880
vt 0.454238 0.375317
vt 0.498319 0.363281
vt 0.498320 0.453125
vt 0.542401 0.375317
vt 0.574672 0.408202
vt 0.586483 0.453125
vt 0.574672 0.498048
vt 0.542401 0.530933
vt 0.498319 0.542969
vt 0.454238 0.530933
vt 0.421968 0.498048
vt 0.410156 0.453125
vt 0.421968 0.408204
vt 0.425328 0.408204
vt 0.457599 0.375317
vt 0.501680 0.363281
vt 0.501680 0.453125
vt 0.501680 0.542969
vt 0.545762 0.530933
vt 0.578032 0.498048
vt 0.457598 0.530933
vt 0.425328 0.498048
vt 0.545762 0.375317
vt 0.413517 0.453125
vt 0.578032 0.408202
vt 0.589844 0.453125
vt 0.746094 0.420014
vt 0.724172 0.363281
vt 0.724171 0.363281
vt 0.673866 0.428209
vt 0.695788 0.484943
vt 0.628906 0.486236
vt 0.650829 0.542969
vt 0.650828 0.542969
vt 0.673866 0.428210
vt 0.339170 0.617919
vt 0.438130 0.574219
vt 0.463206 0.579277
vt 0.488281 0.584336
vt 0.363750 0.623195
vt 0.388328 0.628470
vt 0.293124 0.661814
vt 0.193447 0.690595
vt 0.169919 0.684984
vt 0.269059 0.656358
vt 0.244994 0.650903
vt 0.146392 0.679374
vt 0.034553 0.716881
vt 0.057387 0.722656
vt 0.011719 0.711106
vt 0.628906 0.363281
vt 0.687500 0.453124
vt 0.746094 0.542969
s 1
f 255/142/338 251/143/338 250/143/338
f 251/143/339 252/144/339 250/143/339
f 250/143/340 252/144/341 253/145/342
f 254/142/340 250/143/340 253/145/342
f 254/142/338 255/142/338 250/143/338
f 256/145/343 257/144/344 255/142/345
f 256/145/346 255/142/346 253/145/346
f 254/142/346 253/145/346 255/142/346
f 257/144/344 251/143/345 255/142/345
f 252/144/339 251/143/339 257/144/339
f 258/146/347 257/144/344 256/145/343
f 258/146/339 252/144/339 257/144/339
f 259/146/348 258/146/348 260/147/348
f 259/146/339 252/144/339 258/146/339
f 260/147/347 258/146/347 256/145/343
f 261/147/346 260/147/346 256/145/346
f 261/147/348 259/146/348 260/147/348
f 252/144/341 259/146/349 261/147/349
f 253/145/342 252/144/341 261/147/349
f 261/147/346 256/145/346 253/145/346
f 263/148/350 262/148/351 264/148/352
f 264/148/352 262/148/351 265/148/353
f 262/148/351 266/148/354 265/148/353
f 265/148/353 266/148/354 267/148/355
f 266/148/354 268/148/356 267/148/355
f 268/148/356 263/148/350 269/148/357
f 267/148/355 268/148/356 269/148/357
f 269/148/357 263/148/350 264/148/352
f 264/148/352 265/148/353 269/148/357
f 265/148/353 267/148/355 269/148/357
f 271/148/358 273/148/359 270/148/360
f 271/148/358 270/148/360 272/148/361
f 273/148/359 274/148/362 270/148/360
f 273/148/359 275/148/363 274/148/362
f 275/148/363 276/148/364 274/148/362
f 277/148/365 272/148/361 276/148/364
f 275/148/363 277/148/365 276/148/364
f 271/148/358 277/148/365 273/148/359
f 277/148/365 271/148/358 272/148/361
f 277/148/365 275/148/363 273/148/359
f 279/148/350 278/148/351 280/148/352
f 280/148/352 278/148/351 281/148/353
f 278/148/351 282/148/354 281/148/353
f 281/148/353 282/148/354 283/148/355
f 282/148/354 284/148/356 283/148/355
f 284/148/356 279/148/350 285/148/357
f 283/148/355 284/148/356 285/148/357
f 280/148/352 281/148/353 285/148/357
f 285/148/357 279/148/350 280/148/352
f 281/148/353 283/148/355 285/148/357
f 287/148/358 289/148/359 286/148/360
f 287/148/358 286/148/360 288/148/361
f 289/148/359 290/148/362 286/148/360
f 289/148/359 291/148/363 290/148/362
f 291/148/363 292/148/364 290/148/362
f 293/148/365 288/148/361 292/148/364
f 291/148/363 293/148/365 292/148/364
f 293/148/365 287/148/358 288/148/361
f 287/148/358 293/148/365 289/148/359
f 293/148/365 291/148/363 289/148/359
f 295/148/350 294/148/351 296/148/352
f 296/148/352 294/148/351 297/148/353
f 294/148/351 298/148/354 297/148/353
f 297/148/353 298/148/354 299/148/355
f 298/148/354 300/148/356 299/148/355
f 300/148/356 295/148/350 301/148/357
f 299/148/355 300/148/356 301/148/357
f 301/148/357 295/148/350 296/148/352
f 296/148/352 297/148/353 301/148/357
f 297/148/353 299/148/355 301/148/357
f 303/148/358 305/148/359 302/148/360
f 303/148/358 302/148/360 304/148/361
f 305/148/359 306/148/362 302/148/360
f 305/148/359 307/148/363 306/148/362
f 307/148/363 308/148/364 306/148/362
f 309/148/365 304/148/361 308/148/364
f 307/148/363 309/148/365 308/148/364
f 303/148/358 309/148/365 305/148/359
f 309/148/365 303/148/358 304/148/361
f 309/148/365 307/148/363 305/148/359
f 313/149/366 310/150/366 311/151/367
f 310/150/366 312/151/367 311/151/367
f 310/150/368 316/152/369 312/151/370
f 310/150/366 313/149/366 314/153/371
f 315/154/372 310/150/366 314/153/371
f 316/152/369 310/150/368 315/154/373
f 317/155/374 316/152/369 320/156/375
f 316/152/369 317/155/374 312/151/370
f 318/157/376 316/152/369 315/154/373
f 319/158/375 316/152/369 318/157/376
f 316/152/369 319/158/375 320/156/375
f 319/158/377 321/158/377 320/156/377
f 321/158/377 322/156/377 320/156/377
f 317/155/378 320/156/378 322/156/378
f 323/159/379 322/156/380 321/158/380
f 323/159/378 317/155/378 322/156/378
f 312/151/378 317/155/378 323/159/378
f 324/160/381 323/159/379 321/158/380
f 311/151/382 323/159/379 324/160/381
f 311/151/378 312/151/378 323/159/378
f 324/160/381 321/158/380 326/161/380
f 325/157/383 324/160/381 326/161/380
f 313/149/384 324/160/381 325/157/383
f 313/149/384 311/151/382 324/160/381
f 326/161/377 321/158/377 327/161/377
f 321/158/377 319/158/377 327/161/377
f 327/161/375 319/158/375 318/157/376
f 314/153/385 313/149/384 325/157/383
f 331/162/386 329/163/387 328/164/388
f 329/163/387 330/165/389 328/164/388
f 331/162/390 328/164/391 332/164/391
f 333/162/392 331/162/393 332/164/391
f 333/162/394 332/164/395 334/165/396
f 335/163/397 333/162/394 334/165/396
f 335/163/397 334/165/396 336/166/398
f 337/167/399 335/163/397 336/166/400
f 337/167/401 336/166/402 330/165/389
f 329/163/387 337/167/401 330/165/389
f 329/163/387 338/168/403 337/167/401
f 338/168/403 339/169/404 337/167/401
f 337/167/399 339/169/405 335/163/397
f 341/170/406 340/171/407 339/169/404
f 339/169/405 340/171/408 342/172/409
f 338/168/403 341/170/406 339/169/404
f 339/169/405 342/172/409 335/163/397
f 342/172/409 343/173/410 333/162/394
f 342/172/409 344/170/411 343/173/410
f 340/171/408 344/170/411 342/172/409
f 335/163/397 342/172/409 333/162/394
f 346/174/412 344/170/411 340/171/408
f 344/170/411 345/175/413 343/173/410
f 344/170/411 346/174/412 345/175/413
f 347/176/414 346/174/412 340/171/408
f 346/174/412 347/176/414 349/177/415
f 346/174/412 348/178/416 345/175/413
f 348/178/416 346/174/412 349/177/415
f 351/174/417 350/179/418 349/177/419
f 350/179/418 352/180/420 349/177/419
f 347/176/421 351/174/417 349/177/419
f 352/180/422 348/178/416 349/177/415
f 350/179/423 348/178/424 352/180/425
f 350/179/418 351/174/417 353/175/426
f 351/174/417 347/176/421 340/171/407
f 351/174/417 341/170/406 353/175/426
f 341/170/406 351/174/417 340/171/407
f 353/175/426 341/170/406 338/168/403
f 345/175/427 353/175/428 354/173/429
f 345/175/427 348/178/424 353/175/428
f 354/173/430 353/175/426 338/168/403
f 348/178/424 350/179/423 353/175/428
f 343/173/431 345/175/427 354/173/429
f 354/173/430 338/168/403 329/163/387
f 343/173/431 354/173/429 331/162/393
f 331/162/386 354/173/430 329/163/387
f 333/162/392 343/173/431 331/162/393
f 367/181/432 356/182/432 355/183/433
f 356/182/432 357/184/432 355/183/433
f 357/184/432 358/185/434 355/183/433
f 358/185/434 359/186/435 355/183/433
f 359/186/435 360/187/436 355/183/433
f 360/187/436 361/188/432 355/183/433
f 361/188/432 362/189/432 355/183/433
f 362/189/432 363/190/432 355/183/433
f 363/190/432 364/191/434 355/183/433
f 364/191/434 365/192/435 355/183/433
f 365/192/435 366/193/436 355/183/433
f 366/193/436 367/181/432 355/183/433
f 366/193/437 368/194/438 367/181/439
f 368/194/438 369/195/440 367/181/439
f 367/181/439 369/195/440 356/182/441
f 369/195/440 370/196/442 356/182/441
f 370/196/443 369/195/443 371/197/444
f 369/195/443 368/194/445 371/197/444
f 373/198/443 372/199/443 371/197/444
f 372/199/443 380/200/445 371/197/444
f 374/201/443 373/198/443 371/197/444
f 375/202/446 374/201/443 371/197/444
f 376/203/443 370/196/443 371/197/444
f 377/204/447 375/202/446 371/197/444
f 378/205/446 376/203/443 371/197/444
f 368/194/445 377/204/447 371/197/444
f 379/206/447 378/205/446 371/197/444
f 380/200/445 379/206/447 371/197/444
f 360/187/448 380/200/449 361/188/450
f 379/206/451 380/200/449 360/187/448
f 380/200/449 372/199/452 361/188/450
f 359/186/453 379/206/451 360/187/448
f 378/205/454 379/206/451 359/186/453
f 358/185/455 378/205/454 359/186/453
f 376/203/456 378/205/454 358/185/455
f 365/192/457 377/204/458 366/193/437
f 375/202/459 377/204/458 365/192/457
f 377/204/458 368/194/438 366/193/437
f 357/184/460 376/203/456 358/185/455
f 370/196/442 376/203/456 357/184/460
f 364/191/461 375/202/459 365/192/457
f 374/201/462 375/202/459 364/191/461
f 373/198/463 374/201/462 363/190/464
f 363/190/464 374/201/462 364/191/461
f 372/199/452 373/198/463 362/189/465
f 362/189/465 373/198/463 363/190/464
f 361/188/450 372/199/452 362/189/465
f 356/182/441 370/196/442 357/184/460
f 384/207/466 381/208/466 382/207/466
f 381/208/466 383/209/466 382/207/466
f 385/210/467 381/208/468 384/207/468
f 386/211/469 385/210/467 384/207/468
f 387/212/470 385/210/467 386/211/469
f 388/212/471 387/212/471 389/213/471
f 389/213/470 387/212/470 386/211/469
f 390/214/471 388/212/471 389/213/471
f 390/214/472 389/213/472 386/211/473
f 391/215/474 388/212/475 390/214/475
f 392/211/472 390/214/472 384/207/472
f 384/207/472 390/214/472 386/211/473
f 392/211/476 391/215/474 390/214/475
f 383/209/477 391/215/474 392/211/476
f 382/207/477 383/209/477 392/211/476
f 382/207/472 392/211/472 384/207/472
f 396/216/478 393/217/479 394/216/480
f 393/217/479 395/217/479 394/216/480
f 398/218/481 395/217/481 393/217/481
f 397/218/482 393/217/483 396/216/484
f 397/218/481 398/218/481 393/217/481
f 400/219/485 398/218/481 397/218/481
f 398/218/486 400/219/487 399/220/488
f 395/217/489 398/218/486 399/220/488
f 401/219/485 400/219/485 397/218/481
f 400/219/490 401/219/490 402/221/491
f 400/219/487 402/221/492 399/220/488
f 402/221/492 403/222/493 399/220/488
f 405/222/494 403/222/495 402/221/491
f 401/219/490 404/221/491 402/221/491
f 404/221/491 405/222/494 402/221/491
f 405/222/494 406/223/496 403/222/495
f 407/224/497 406/223/498 405/222/499
f 408/225/500 407/224/497 405/222/499
f 408/225/500 405/222/499 404/221/501
f 411/226/502 409/227/503 408/225/500
f 409/227/503 407/224/497 408/225/500
f 410/220/504 408/225/500 404/221/501
f 411/226/502 408/225/500 410/220/504
f 412/227/505 409/227/506 411/226/507
f 413/226/508 412/227/505 411/226/507
f 413/226/508 411/226/507 396/216/478
f 396/216/484 411/226/502 410/220/504
f 414/225/509 413/226/510 394/216/511
f 414/225/509 415/224/512 413/226/510
f 394/216/480 413/226/508 396/216/478
f 415/224/512 412/227/513 413/226/510
f 415/224/512 418/228/514 412/227/513
f 416/223/515 415/224/512 414/225/509
f 416/223/515 417/229/516 415/224/512
f 417/229/516 418/228/514 415/224/512
f 418/228/514 419/230/517 412/227/513
f 419/230/518 420/230/518 409/227/506
f 412/227/505 419/230/518 409/227/506
f 409/227/503 420/230/519 407/224/497
f 420/230/519 421/228/520 407/224/497
f 421/228/520 422/229/521 406/223/498
f 407/224/497 421/228/520 406/223/498
f 406/223/496 422/229/522 416/223/523
f 422/229/522 417/229/522 416/223/523
f 406/223/496 416/223/523 403/222/495
f 403/222/493 416/223/515 414/225/509
f 403/222/493 414/225/509 399/220/488
f 399/220/488 414/225/509 394/216/511
f 410/220/504 397/218/482 396/216/484
f 401/219/524 397/218/482 410/220/504
f 404/221/501 401/219/524 410/220/504
f 394/216/511 395/217/489 399/220/488
f 423/231/525 425/231/525 424/232/525
f 425/231/525 426/232/525 424/232/525
f 424/232/525 426/232/525 427/233/525
f 426/232/525 428/233/525 427/233/525
o item_damaged
v -29.153999 3.117801 15.308600
v -24.850100 -8.020700 15.206201
v -22.281900 0.038201 15.206200
v -32.607300 -7.718799 15.308601
v -29.153999 3.117701 16.452700
v -22.282000 0.038101 16.555099
v -32.607300 -7.718799 16.452700
v -24.850201 -8.020799 16.555099
v -17.092899 -8.322799 15.880601
v -15.409900 -3.041299 15.880600
v -9.765329 -29.969980 13.668165
v -51.361835 -67.003914 18.093136
v -51.361835 -67.003914 13.668168
v -9.765329 -29.969980 18.093132
v -8.293664 -28.720112 18.093132
v -8.293664 -28.720112 13.668165
v -4.377504 -36.646652 12.397330
v -46.791382 -72.667587 12.397333
v -2.905749 -35.396698 12.397330
v 0.192952 -42.310234 13.668166
v -42.220928 -78.331161 13.668169
v 0.193038 -42.310230 18.093134
v -42.220928 -78.331161 18.093136
v -46.791378 -72.667496 19.363970
v -4.377418 -36.646648 19.363966
v -2.905753 -35.396782 19.363966
v 1.664703 -41.060360 18.093134
v 1.664703 -41.060360 13.668166
v -5.951000 -27.676098 15.308602
v 42.820202 6.502701 15.206199
v -1.127600 -33.495300 15.206203
v 37.865799 12.200401 15.308599
v -5.950900 -27.676098 16.452702
v 37.865799 12.200401 16.452700
v -1.127700 -33.495300 16.555101
v 3.695500 -39.314400 15.880603
v 42.820202 6.502602 16.555099
v 47.774502 0.805101 15.880600
v -2.795015 -35.282990 16.275021
v 5.127944 -28.912607 26.883406
v -1.078808 -26.454582 23.621006
v -6.081210 -25.034645 20.611614
v -12.135798 -23.949301 16.445290
v -12.338537 -30.065811 12.233399
v -11.924424 -35.174896 9.099353
v -10.717853 -41.653328 5.666685
v -4.511940 -44.102837 8.933982
v 0.490113 -45.531395 11.937371
v 6.545808 -46.616611 16.104681
v 6.749004 -40.499008 20.317661
v 6.326337 -35.388405 23.445822
v 7.380610 -39.972637 19.527817
v 6.966478 -34.863491 22.661968
v -2.163008 -34.755444 15.486209
v 5.759956 -28.385120 26.094625
v -0.446024 -25.935579 22.827305
v -5.448060 -24.507029 19.823923
v -11.503786 -23.421812 15.656507
v -11.706919 -29.539448 11.443561
v -11.284297 -34.649982 8.315486
v -10.085899 -41.125774 4.877913
v -3.879151 -43.583805 8.140303
v 1.123309 -45.003761 11.149649
v 7.177832 -46.089138 15.315902
v -9.684300 -29.093998 14.571502
v -4.336400 -24.520699 17.189802
v -9.684300 -29.093998 17.189802
v -4.336400 -24.520597 14.571502
v -3.830000 -36.157200 14.337303
v 1.518000 -31.583899 14.337303
v 1.402200 -42.469700 15.019603
v 1.402200 -42.469700 16.741703
v 6.750000 -37.896400 15.019603
v 6.750100 -37.896400 16.741703
v -3.830000 -36.157200 17.424002
v 1.518000 -31.583899 17.424002
v -47.485100 74.001503 15.308595
v -51.311600 77.422798 15.880594
v -47.485100 74.001404 16.452694
v -42.651699 80.013397 15.880594
v -37.841202 75.811600 15.206194
v -8.435800 39.442101 15.308598
v -2.130400 43.504501 15.206197
v -8.435800 39.442101 16.452696
v 20.230400 19.849901 15.206198
v 12.789900 16.988201 15.308599
v 12.789900 16.988201 16.452698
v -2.130500 43.504601 16.555096
v 20.230400 19.849901 16.555098
v 27.671101 22.711702 15.880598
v 4.175200 47.567299 15.880596
v -37.841202 75.811600 16.555094
v -33.127602 80.726303 15.880594
v -55.002800 -4.131499 15.308600
v -48.492500 -0.307299 15.206200
v -62.818199 5.832301 15.308600
v -62.818199 5.832302 16.452700
v -55.002899 -4.131399 16.452700
v -56.299702 9.645901 16.555099
v -48.492401 -0.307499 16.555099
v -41.982101 3.516601 15.880600
v -49.781101 13.459501 15.880599
v -56.299599 9.645901 15.206199
v 19.032801 52.480801 15.308597
v 25.285299 48.283699 15.206196
v 25.472500 68.316498 15.308596
v 25.472401 68.316498 16.452694
v 19.032801 52.480801 16.452696
v 31.160200 62.730900 16.555096
v 25.285299 48.283699 16.555096
v 31.537800 44.086800 15.880597
v 36.848099 57.145100 15.880595
v 31.160200 62.730900 15.206195
v -39.834801 34.469398 15.308598
v -30.776600 22.921202 15.308599
v -32.939098 37.802299 15.206197
v -30.776600 22.921103 16.452698
v -39.834801 34.469398 16.452698
v -24.258101 26.734701 16.555098
v -32.939201 37.802299 16.555098
v -26.043501 41.135201 15.880597
v -17.739500 30.548302 15.880598
v -24.257999 26.734802 15.206198
v 65.920898 20.866402 16.452698
v 53.761101 30.418102 16.555098
v 61.289398 31.826202 16.452698
v 59.833099 16.049501 16.555098
v 65.920799 20.866402 15.308599
v 59.833000 16.049501 15.206199
v 61.289299 31.826302 15.308598
v 53.761101 30.418102 15.206198
v 53.745098 11.232301 15.880599
v 46.232800 29.010101 15.880598
v 0.000000 70.710701 -0.000005
v 70.710701 0.000000 0.000000
v 0.000000 55.656200 3.999996
v -55.656101 0.000000 4.000000
v -70.710701 0.000000 0.000000
v 0.000000 -55.656101 4.000004
v 0.000000 -70.710602 0.000005
v 55.656200 0.000000 4.000000
v 0.000000 70.710701 -0.000005
v 0.000000 55.656200 -4.000004
v 70.710701 0.000000 0.000000
v -55.656101 -0.000000 -4.000000
v -70.710701 0.000000 0.000000
v 0.000000 -55.656101 -3.999996
v 0.000000 -70.710602 0.000005
v 55.656200 -0.000000 -4.000000
v 0.000000 70.710701 -0.000005
v 70.710701 0.000000 0.000000
v 0.000000 55.656200 3.999996
v -55.656101 0.000000 4.000000
v -70.710701 0.000000 0.000000
v 0.000000 -55.656101 4.000004
v 0.000000 -70.710602 0.000005
v 55.656200 0.000000 4.000000
v 0.000000 70.710701 -0.000005
v 0.000000 55.656200 -4.000004
v 70.710701 0.000000 0.000000
v -55.656101 -0.000000 -4.000000
v -70.710701 0.000000 0.000000
v 0.000000 -55.656101 -3.999996
v 0.000000 -70.710602 0.000005
v 55.656200 -0.000000 -4.000000
v 0.000000 70.710701 -0.000005
v 70.710701 0.000000 0.000000
v 0.000000 55.656200 3.999996
v -55.656101 0.000000 4.000000
v -70.710701 0.000000 0.000000
v 0.000000 -55.656101 4.000004
v 0.000000 -70.710602 0.000005
v 55.656200 0.000000 4.000000
v 0.000000 70.710701 -0.000005
v 0.000000 55.656200 -4.000004
v 70.710701 0.000000 0.000000
v -55.656101 -0.000000 -4.000000
v -70.710701 0.000000 0.000000
v 0.000000 -55.656101 -3.999996
v 0.000000 -70.710602 0.000005
v 55.656200 -0.000000 -4.000000
vn -0.0130 0.0042 -0.9999
vn 0.0198 -0.0063 -0.9998
vn 0.0527 -0.0168 -0.9985
vn -0.9528 0.3036 -0.0000
vn 0.0199 -0.0063 0.9998
vn -0.0130 0.0042 0.9999
vn 0.0527 -0.0168 0.9985
vn 0.0855 -0.0273 0.9960
vn 0.0855 -0.0273 -0.9960
vn -0.6562 0.7546 -0.0000
vn -0.6650 0.7469 -0.0000
vn -0.0962 0.1107 -0.9892
vn -0.0095 0.0100 -0.9999
vn -0.1049 0.1203 -0.9872
vn -0.6473 0.7622 -0.0000
vn -0.0949 0.1117 -0.9892
vn 0.0018 -0.0021 -1.0000
vn 0.1114 -0.1312 -0.9851
vn 0.0405 -0.0497 -0.9979
vn 0.6473 -0.7622 -0.0000
vn -0.7782 -0.6280 -0.0000
vn 0.0383 -0.0474 0.9981
vn 0.1114 -0.1312 0.9851
vn -0.1049 0.1203 0.9872
vn 0.0051 -0.0070 1.0000
vn -0.0959 0.1109 0.9892
vn -0.0270 0.0339 0.9991
vn -0.0949 0.1117 0.9892
vn -0.0091 0.0100 -0.9999
vn 0.0139 -0.0153 -0.9998
vn 0.0369 -0.0406 -0.9985
vn -0.6731 0.7396 0.0001
vn -0.6731 0.7396 -0.0000
vn -0.0091 0.0100 0.9999
vn 0.0139 -0.0152 0.9998
vn 0.0369 -0.0406 0.9985
vn 0.0139 -0.0153 0.9998
vn 0.0599 -0.0658 0.9960
vn 0.0599 -0.0658 -0.9960
vn -0.5492 -0.4688 0.6918
vn -0.5493 -0.4688 0.6917
vn -0.5502 -0.4677 0.6918
vn -0.5493 -0.4688 0.6918
vn -0.5532 -0.4688 0.6886
vn -0.5521 -0.4654 0.6918
vn -0.5485 -0.4650 0.6949
vn -0.5492 -0.4688 0.6917
vn 0.8253 -0.2438 0.5094
vn 0.8126 -0.1501 0.5631
vn 0.5730 0.3906 0.7205
vn 0.8303 -0.3649 0.4212
vn 0.8260 -0.2071 0.5242
vn 0.5493 0.4688 -0.6917
vn 0.5502 0.4677 -0.6918
vn 0.5485 0.4650 -0.6949
vn 0.5038 0.4752 0.7213
vn 0.0282 0.8261 0.5627
vn -0.0627 0.8569 0.5116
vn 0.5492 0.4688 -0.6917
vn -0.0343 0.8437 0.5358
vn -0.1901 0.8796 0.4360
vn 0.5532 0.4688 -0.6886
vn -0.5262 0.8387 0.1406
vn -0.7218 0.6814 -0.1214
vn 0.5521 0.4654 -0.6918
vn -0.8261 0.2076 -0.5240
vn -0.8303 0.3657 -0.4206
vn 0.5492 0.4688 -0.6918
vn -0.8124 0.1485 -0.5640
vn -0.8252 0.2431 -0.5098
vn -0.4997 -0.4798 -0.7211
vn -0.5767 -0.3857 -0.7202
vn -0.0297 -0.8255 -0.5636
vn 0.0620 -0.8567 -0.5120
vn 0.0347 -0.8438 -0.5355
vn 0.1909 -0.8797 -0.4355
vn 0.5261 -0.8387 -0.1406
vn 0.7218 -0.6814 0.1214
vn -0.6499 0.7600 -0.0000
vn 0.0069 -0.0081 -0.9999
vn -0.0166 0.0194 -0.9997
vn 0.0305 -0.0356 -0.9989
vn 0.0539 -0.0630 -0.9966
vn 0.6499 -0.7600 -0.0000
vn 0.7699 0.6381 -0.0000
vn 0.0069 -0.0081 0.9999
vn 0.0304 -0.0356 0.9989
vn 0.0539 -0.0630 0.9966
vn -0.0166 0.0194 0.9997
vn -0.0264 0.0786 -0.9966
vn -0.0372 0.1242 -0.9916
vn -0.0271 0.1305 -0.9911
vn -0.6646 -0.7472 -0.0001
vn -0.6642 -0.7475 -0.0000
vn -0.6665 -0.7455 -0.0001
vn -0.6847 -0.7288 -0.0000
vn 0.0109 0.0651 -0.9978
vn -0.0097 -0.0100 -0.9999
vn -0.7060 -0.7082 -0.0000
vn 0.0350 0.0348 -0.9988
vn 0.0154 0.0145 -0.9998
vn -0.7267 -0.6870 -0.0000
vn -0.0101 -0.0095 -0.9999
vn 0.0408 0.0386 0.9984
vn 0.0198 0.0204 0.9996
vn -0.0101 -0.0095 0.9999
vn -0.0097 -0.0100 0.9999
vn 0.0650 0.0668 0.9956
vn 0.0662 0.0626 0.9958
vn 0.0646 0.0683 -0.9956
vn 0.0273 0.1101 -0.9935
vn 0.0274 0.1101 0.9935
vn 0.0109 0.0651 0.9978
vn 0.0662 0.0626 -0.9958
vn -0.0272 0.1305 0.9911
vn -0.0264 0.0787 0.9966
vn -0.0372 0.1242 0.9916
vn 0.0164 0.0129 -0.9998
vn -0.0108 -0.0084 -0.9999
vn -0.7868 -0.6172 -0.0000
vn -0.0108 -0.0084 0.9999
vn 0.0164 0.0128 0.9998
vn 0.0436 0.0342 0.9985
vn 0.0706 0.0554 0.9960
vn 0.0706 0.0554 -0.9960
vn 0.0435 0.0341 -0.9985
vn 0.0196 -0.0080 -0.9998
vn -0.0129 0.0052 -0.9999
vn -0.9263 0.3767 -0.0001
vn -0.9263 0.3767 -0.0000
vn -0.0129 0.0052 0.9999
vn 0.0197 -0.0080 0.9998
vn 0.0520 -0.0212 0.9984
vn 0.0844 -0.0343 0.9958
vn 0.0844 -0.0343 -0.9958
vn 0.0520 -0.0212 -0.9984
vn -0.7868 -0.6172 -0.0001
vn 0.0164 0.0129 0.9998
vn 0.0435 0.0342 -0.9985
vn -0.0125 -0.0472 0.9988
vn 0.0126 0.0053 0.9999
vn -0.0572 0.0262 0.9980
vn -0.0351 -0.0148 0.9993
vn 0.9211 0.3893 -0.0001
vn 0.0126 0.0053 -0.9999
vn -0.0192 -0.0081 -0.9998
vn 0.9211 0.3893 -0.0000
vn -0.0510 -0.0215 -0.9985
vn -0.9211 -0.3892 -0.0001
vn -0.9211 -0.3892 -0.0000
vn 0.2559 0.0853 0.9629
vn -0.0853 0.2559 0.9629
vn 0.0639 0.1919 0.9793
vn -0.1532 0.0510 0.9869
vn -0.2558 -0.0853 0.9629
vn -0.0639 -0.1919 0.9793
vn 0.0853 -0.2559 0.9629
vn 0.1531 -0.0510 0.9869
vn 0.0639 0.1919 -0.9793
vn -0.1531 0.0510 -0.9869
vn -0.0853 0.2559 -0.9629
vn 0.2559 0.0853 -0.9629
vn -0.2558 -0.0853 -0.9629
vn -0.0639 -0.1919 -0.9793
vn 0.0853 -0.2559 -0.9629
vn 0.1532 -0.0510 -0.9869
vt 0.011719 0.976320
vt 0.107414 0.761719
vt 0.226681 0.982299
vt 0.297849 0.822705
vt 0.107414 0.761721
vt 0.297846 0.822707
vt 0.226678 0.982301
vt 0.441643 0.988281
vt 0.488281 0.883690
vt 0.282278 0.375129
vt 0.011719 0.495014
vt 0.320914 0.398790
vt 0.291869 0.371094
vt 0.044494 0.515085
vt 0.077269 0.535156
vt 0.330506 0.394755
vt 0.353690 0.418862
vt 0.353690 0.418862
vt 0.044494 0.515085
vt 0.320915 0.398790
vt 0.330506 0.394755
vt 0.363281 0.414826
vt 0.400388 0.761719
vt 0.444335 0.786777
vt 0.011719 0.937096
vt 0.054504 0.962689
vt 0.011720 0.937096
vt 0.054503 0.962689
vt 0.444335 0.786778
vt 0.097286 0.988281
vt 0.488281 0.811835
vt 0.453830 0.413585
vt 0.497504 0.456713
vt 0.541178 0.499841
vt 0.573150 0.531413
vt 0.584852 0.542969
vt 0.497504 0.456713
vt 0.421859 0.382013
vt 0.410156 0.370457
vt 0.458822 0.406410
vt 0.426850 0.374837
vt 0.502496 0.449537
vt 0.502496 0.449537
vt 0.546170 0.492665
vt 0.578141 0.524238
vt 0.589844 0.535793
vt 0.578141 0.524237
vt 0.415148 0.363281
vt 0.746094 0.484497
vt 0.716235 0.542969
vt 0.746093 0.484497
vt 0.670120 0.478960
vt 0.699978 0.420487
vt 0.628906 0.421753
vt 0.658765 0.363282
vt 0.658765 0.363281
vt 0.034807 0.785623
vt 0.011719 0.773461
vt 0.063970 0.764253
vt 0.034807 0.785623
vt 0.270421 0.908467
vt 0.092996 0.779188
vt 0.308466 0.894027
vt 0.443386 0.978109
vt 0.398492 0.988281
vt 0.308466 0.894026
vt 0.346513 0.879585
vt 0.488281 0.967937
vt 0.121437 0.761719
vt 0.339376 0.939028
vt 0.190472 0.988281
vt 0.011719 0.859953
vt 0.190470 0.988280
vt 0.160810 0.810836
vt 0.339378 0.939030
vt 0.488281 0.889778
vt 0.309903 0.761719
vt 0.160812 0.810836
vt 0.094266 0.908766
vt 0.176816 0.988281
vt 0.488281 0.906386
vt 0.488281 0.906387
vt 0.378421 0.834053
vt 0.011719 0.829251
vt 0.268556 0.761719
vt 0.011719 0.844634
vt 0.207091 0.988280
vt 0.207091 0.988281
vt 0.160449 0.803176
vt 0.347685 0.940844
vt 0.160446 0.803176
vt 0.488281 0.893408
vt 0.309176 0.761719
vt 0.347687 0.940843
vt 0.123193 0.831775
vt 0.234660 0.761719
vt 0.455694 0.901649
vt 0.488279 0.815016
vt 0.234660 0.761720
vt 0.123193 0.831776
vt 0.488281 0.815017
vt 0.011719 0.901833
vt 0.423112 0.988281
vt 0.976562 0.023438
s 1
f 432/234/526 429/235/526 430/236/527
f 429/235/526 431/237/528 430/236/527
f 433/238/529 429/235/529 432/234/529
f 434/239/530 433/238/531 435/234/531
f 435/234/529 433/238/529 432/234/529
f 436/240/532 434/239/530 435/234/531
f 437/241/533 438/242/533 436/240/532
f 438/242/533 434/239/530 436/240/532
f 431/237/528 438/242/534 437/241/534
f 430/236/527 431/237/528 437/241/534
f 442/243/535 439/243/535 440/244/536
f 439/243/535 441/244/536 440/244/536
f 439/243/537 445/245/538 441/244/539
f 439/243/535 442/243/535 443/246/540
f 444/246/540 439/243/535 443/246/540
f 445/245/538 439/243/537 444/246/541
f 446/247/542 445/245/538 449/248/543
f 445/245/538 446/247/542 441/244/539
f 447/249/544 445/245/538 444/246/541
f 448/250/543 445/245/538 447/249/544
f 445/245/538 448/250/543 449/248/543
f 448/250/545 450/251/545 449/248/545
f 450/251/545 451/248/545 449/248/545
f 446/247/546 449/248/546 451/248/546
f 452/252/547 451/248/548 450/251/548
f 452/252/546 446/247/546 451/248/546
f 440/244/549 452/252/547 453/253/550
f 440/244/546 441/244/546 452/252/546
f 441/244/546 446/247/546 452/252/546
f 453/253/550 452/252/547 450/251/548
f 442/243/551 440/244/549 453/253/550
f 442/243/551 453/253/550 454/254/552
f 453/253/550 450/251/548 455/255/548
f 454/254/552 453/253/550 455/255/548
f 455/255/545 450/251/545 456/255/545
f 450/251/545 448/250/545 456/255/545
f 456/255/543 448/250/543 447/249/544
f 443/246/553 442/243/551 454/254/552
f 460/256/554 458/257/555 457/258/554
f 458/257/555 459/259/556 457/258/554
f 460/256/557 457/258/557 461/260/557
f 462/256/558 460/256/558 461/260/558
f 462/256/559 461/260/559 463/261/560
f 465/262/561 463/261/562 464/263/563
f 465/262/561 462/256/559 463/261/562
f 466/264/563 465/262/561 464/263/563
f 466/264/564 464/263/564 459/259/556
f 458/257/555 466/264/564 459/259/556
f 479/265/565 468/266/566 467/266/567
f 468/266/566 469/267/568 467/266/567
f 469/267/568 470/268/569 467/266/567
f 470/268/569 471/269/570 467/266/567
f 471/269/570 472/268/571 467/266/567
f 472/268/571 473/267/566 467/266/567
f 473/267/566 474/270/566 467/266/567
f 474/270/566 475/265/572 467/266/567
f 475/265/572 476/271/569 467/266/567
f 476/271/569 477/272/570 467/266/567
f 477/272/570 478/271/571 467/266/567
f 478/271/571 479/265/565 467/266/567
f 479/265/573 481/273/574 468/266/575
f 478/271/576 480/274/577 479/265/573
f 480/274/577 481/273/574 479/265/573
f 483/275/578 481/273/578 482/276/579
f 481/273/578 480/274/580 482/276/579
f 481/273/574 483/275/581 468/266/575
f 468/266/575 483/275/581 469/267/582
f 483/275/581 484/277/583 469/267/582
f 484/277/584 483/275/578 482/276/579
f 469/267/582 484/277/583 470/268/585
f 484/277/583 485/278/586 470/268/585
f 485/278/587 484/277/584 482/276/579
f 470/268/585 485/278/586 471/269/588
f 485/278/586 486/279/589 471/269/588
f 486/279/590 485/278/587 482/276/579
f 487/280/580 486/279/590 482/276/579
f 486/279/589 487/280/591 472/268/592
f 471/269/588 486/279/589 472/268/592
f 488/277/593 487/280/580 482/276/579
f 487/280/591 488/277/594 473/267/595
f 472/268/592 487/280/591 473/267/595
f 489/276/578 488/277/593 482/276/579
f 488/277/594 489/276/596 474/270/597
f 473/267/595 488/277/594 474/270/597
f 474/270/597 489/276/596 475/265/598
f 489/276/596 490/273/599 475/265/598
f 490/273/593 489/276/578 482/276/579
f 475/265/598 490/273/599 476/271/600
f 490/273/599 491/274/601 476/271/600
f 491/274/587 490/273/593 482/276/579
f 476/271/600 491/274/601 477/272/602
f 491/274/601 492/281/603 477/272/602
f 492/281/590 491/274/587 482/276/579
f 477/272/602 492/281/603 478/271/576
f 492/281/603 480/274/577 478/271/576
f 480/274/580 492/281/590 482/276/579
f 496/282/604 493/283/604 494/284/604
f 493/283/604 495/283/604 494/284/604
f 497/285/605 493/283/606 496/282/606
f 498/286/607 497/285/605 496/282/606
f 499/287/608 497/285/605 498/286/607
f 500/287/609 499/287/609 501/288/609
f 501/288/608 499/287/608 498/286/607
f 502/289/609 500/287/609 501/288/609
f 502/289/610 501/288/610 498/286/610
f 504/286/611 503/285/612 502/289/613
f 503/285/612 500/287/613 502/289/613
f 504/286/610 502/289/610 496/282/610
f 496/282/610 502/289/610 498/286/610
f 494/284/610 504/286/610 496/282/610
f 494/284/614 495/283/614 504/286/611
f 495/283/614 503/285/612 504/286/611
f 505/290/615 506/291/616 508/292/617
f 505/290/618 507/293/619 506/291/620
f 507/293/619 505/290/618 510/294/621
f 509/295/622 505/290/615 508/292/617
f 505/290/615 509/295/622 510/294/623
f 512/294/624 507/293/619 510/294/621
f 509/295/622 511/296/625 510/294/623
f 510/294/623 511/296/625 513/297/626
f 512/294/624 510/294/621 514/298/627
f 514/298/628 510/294/623 513/297/626
f 515/298/627 512/294/624 514/298/627
f 517/297/629 516/299/630 515/298/631
f 516/299/630 512/294/632 515/298/631
f 519/300/633 516/299/630 517/297/629
f 518/301/634 519/300/633 517/297/629
f 511/296/625 509/295/622 519/300/635
f 509/295/622 521/302/636 519/300/635
f 521/302/637 520/295/638 519/300/633
f 520/295/638 516/299/630 519/300/633
f 511/296/625 519/300/635 518/301/639
f 520/295/638 521/302/637 508/292/640
f 521/302/636 509/295/622 508/292/617
f 520/295/638 507/293/641 512/294/632
f 507/293/641 520/295/638 508/292/640
f 516/299/630 520/295/638 512/294/632
f 513/297/626 511/296/625 518/301/639
f 506/291/642 507/293/641 508/292/640
f 523/303/643 522/304/644 524/305/644
f 524/305/645 522/304/645 525/305/645
f 522/304/645 526/306/645 525/305/645
f 525/305/646 526/306/646 527/307/647
f 526/306/646 528/308/648 527/307/647
f 528/308/648 529/309/649 530/310/649
f 527/307/647 528/308/648 530/310/649
f 530/310/650 529/309/650 531/311/651
f 529/309/650 523/303/643 531/311/651
f 531/311/651 523/303/643 524/305/644
f 533/312/652 532/313/653 534/314/653
f 534/314/654 532/313/655 535/315/654
f 532/313/655 536/313/655 535/315/654
f 535/315/656 536/313/656 537/316/657
f 536/313/656 538/312/658 537/316/657
f 538/312/658 539/317/659 540/318/659
f 537/316/657 538/312/658 540/318/659
f 540/318/660 539/317/660 541/316/661
f 539/317/660 533/312/652 541/316/661
f 541/316/661 533/312/652 534/314/653
f 542/319/662 543/320/662 545/321/662
f 543/320/644 542/319/644 544/322/643
f 546/319/645 542/319/645 545/321/645
f 545/321/646 547/323/663 546/319/646
f 547/323/663 548/324/648 546/319/646
f 550/325/649 549/326/649 548/324/648
f 547/323/663 550/325/649 548/324/648
f 550/325/650 551/327/664 549/326/650
f 551/327/651 543/320/644 544/322/643
f 551/327/651 544/322/643 549/326/650
f 555/328/665 552/329/666 553/330/667
f 552/329/666 554/331/666 553/330/668
f 554/331/669 552/329/669 556/332/669
f 556/332/670 557/333/671 558/334/670
f 558/334/672 554/331/672 556/332/672
f 557/333/671 559/330/673 558/334/670
f 557/333/671 560/335/674 559/330/673
f 560/335/674 561/336/675 559/330/673
f 560/335/674 555/328/665 561/336/675
f 555/328/665 553/330/667 561/336/675
f 563/337/676 562/337/677 564/337/678
f 564/337/678 562/337/677 565/337/679
f 562/337/677 566/337/680 565/337/679
f 565/337/679 566/337/680 567/337/681
f 566/337/680 568/337/682 567/337/681
f 568/337/682 563/337/676 569/337/683
f 567/337/681 568/337/682 569/337/683
f 569/337/683 563/337/676 564/337/678
f 564/337/678 565/337/679 569/337/683
f 565/337/679 567/337/681 569/337/683
f 571/337/684 573/337/685 570/337/686
f 571/337/684 570/337/686 572/337/687
f 573/337/685 574/337/688 570/337/686
f 573/337/685 575/337/689 574/337/688
f 575/337/689 576/337/690 574/337/688
f 577/337/691 572/337/687 576/337/690
f 575/337/689 577/337/691 576/337/690
f 571/337/684 577/337/691 573/337/685
f 577/337/691 571/337/684 572/337/687
f 577/337/691 575/337/689 573/337/685
f 579/337/676 578/337/677 580/337/678
f 580/337/678 578/337/677 581/337/679
f 578/337/677 582/337/680 581/337/679
f 581/337/679 582/337/680 583/337/681
f 582/337/680 584/337/682 583/337/681
f 584/337/682 579/337/676 585/337/683
f 583/337/681 584/337/682 585/337/683
f 580/337/678 581/337/679 585/337/683
f 585/337/683 579/337/676 580/337/678
f 581/337/679 583/337/681 585/337/683
f 587/337/684 589/337/685 586/337/686
f 587/337/684 586/337/686 588/337/687
f 589/337/685 590/337/688 586/337/686
f 589/337/685 591/337/689 590/337/688
f 591/337/689 592/337/690 590/337/688
f 593/337/691 588/337/687 592/337/690
f 591/337/689 593/337/691 592/337/690
f 593/337/691 587/337/684 588/337/687
f 587/337/684 593/337/691 589/337/685
f 593/337/691 591/337/689 589/337/685
f 595/337/676 594/337/677 596/337/678
f 596/337/678 594/337/677 597/337/679
f 594/337/677 598/337/680 597/337/679
f 597/337/679 598/337/680 599/337/681
f 598/337/680 600/337/682 599/337/681
f 600/337/682 595/337/676 601/337/683
f 599/337/681 600/337/682 601/337/683
f 601/337/683 595/337/676 596/337/678
f 596/337/678 597/337/679 601/337/683
f 597/337/679 599/337/681 601/337/683
f 603/337/684 605/337/685 602/337/686
f 603/337/684 602/337/686 604/337/687
f 605/337/685 606/337/688 602/337/686
f 605/337/685 607/337/689 606/337/688
f 607/337/689 608/337/690 606/337/688
f 609/337/691 604/337/687 608/337/690
f 607/337/689 609/337/691 608/337/690
f 603/337/684 609/337/691 605/337/685
f 609/337/691 603/337/684 604/337/687
f 609/337/691 607/337/689 605/337/685
o effect
v -35.374783 -4.622668 -3.483364
v -109.539787 -6.437832 3.857580
v -35.374783 -4.622667 3.483364
v -109.539787 -6.437833 -3.857579
v -110.059372 2.344676 -6.465956
v -35.150272 3.709559 -5.343424
v -35.150272 3.709560 5.343423
v -110.059372 2.344676 6.465956
v -35.584221 12.049485 3.483363
v -35.584221 12.049485 -3.483365
v -110.579048 11.127186 3.857579
v -171.314194 5.989187 3.857579
v -110.579048 11.127186 -3.857581
v -171.314194 5.989186 -3.857580
v -227.789032 -2.082219 -3.857580
v -226.514862 -10.779902 -6.465955
v -170.404526 -2.760676 -6.465956
v -169.495087 -11.510421 -3.857579
v -225.240891 -19.477468 -3.857579
v -293.737366 -33.798824 -3.735313
v -293.737366 -33.798824 3.735318
v -225.240891 -19.477468 3.857581
v -226.514862 -10.779901 6.465957
v -169.495087 -11.510421 3.857581
v -170.404526 -2.760675 6.465956
v -227.789032 -2.082219 3.857580
v -297.122711 -16.274298 -3.735315
v -297.122711 -16.274298 3.735317
v -295.774292 -25.118654 5.729938
v -295.774292 -25.118654 -5.729934
v -35.318840 -4.141776 -2.735048
v -35.474915 10.411451 -2.735049
v -35.318840 -4.141776 2.735048
v -35.474915 10.411451 2.735047
v -35.403614 3.762916 -4.221008
v -35.403614 3.762916 4.221007
v -293.368896 -31.964571 -2.735046
v -296.226044 -17.417904 -2.735047
v -293.368896 -31.964571 2.735050
v -296.226044 -17.417904 2.735049
v -294.797394 -24.691242 -4.221006
v -294.797394 -24.691242 4.221010
v -225.448196 -17.983685 -2.735047
v -227.604218 -3.293911 -2.735048
v -225.448196 -17.983685 2.735049
v -227.604218 -3.293910 2.735048
v -226.526108 -10.638916 -4.221007
v -226.526108 -10.638916 4.221009
v -169.641464 -10.049451 -2.735047
v -171.188583 4.726753 -2.735048
v -169.641464 -10.049451 2.735049
v -171.188583 4.726753 2.735048
v -170.414963 -2.661406 -4.221008
v -170.414963 -2.661405 4.221008
v -109.620605 -5.016171 -2.735048
v -110.512978 9.815059 -2.735049
v -109.620605 -5.016171 2.735049
v -110.512978 9.815059 2.735047
v -110.066750 2.399443 -4.221008
v -110.066750 2.399444 4.221008
v -293.368896 -31.964571 -2.735046
v -294.797394 -24.691242 -4.221006
v -293.368896 -31.964571 2.735050
v -294.797394 -24.691242 4.221010
v -296.226044 -17.417904 2.735049
v -296.226044 -17.417904 -2.735047
v -93.235199 -4.707600 -3.134204
v -93.235199 -4.707600 3.134320
v -93.462303 3.188548 -5.019436
v -89.867874 3.222572 -5.019436
v -89.741592 -4.674607 -3.134204
v -89.741592 -4.674607 3.134320
v -93.462303 3.188549 5.019435
v -89.867874 3.222573 5.019435
v -89.994171 11.119751 -3.134321
v -89.994171 11.119751 3.134203
v -93.689316 11.084810 3.134203
v -93.689316 11.084810 -3.134321
vn 0.0629 -0.9980 -0.0000
vn 0.0245 -0.9997 -0.0000
vn 0.0459 -0.9989 -0.0000
vn 1.0000 -0.0027 -0.0000
vn 0.9996 -0.0269 -0.0000
vn 0.0158 -0.2520 -0.9676
vn 0.0179 -0.2837 -0.9588
vn 0.0084 -0.0413 -0.9991
vn 0.0151 -0.0024 -0.9999
vn 0.9996 0.0277 -0.0000
vn 0.0151 -0.0024 0.9999
vn 0.0063 0.2524 0.9676
vn 0.0027 0.0429 0.9991
vn 0.0158 -0.2520 0.9676
vn 0.9986 0.0520 -0.0000
vn -0.0123 0.9999 -0.0000
vn -0.0484 0.9988 -0.0000
vn -0.0114 0.2841 0.9587
vn -0.0298 0.2827 0.9587
vn -0.1047 0.9945 -0.0000
vn -0.1211 0.9926 -0.0000
vn -0.1625 0.9867 -0.0000
vn -0.0085 0.0419 -0.9991
vn -0.0494 0.2803 -0.9587
vn -0.0344 0.2822 -0.9587
vn 0.0023 0.0010 -1.0000
vn -0.0149 0.2839 -0.9587
vn 0.0298 -0.2827 -0.9587
vn 0.0463 -0.2808 -0.9587
vn 0.2047 -0.9788 -0.0000
vn 0.1822 -0.9833 -0.0000
vn 0.0449 -0.2486 -0.9676
vn 0.1641 -0.9864 -0.0000
vn 0.1211 -0.9926 -0.0000
vn 0.0017 -0.0418 0.9991
vn 0.0486 -0.2804 0.9587
vn 0.0344 -0.2822 0.9587
vn 0.0449 -0.2486 0.9676
vn 0.1048 -0.9945 -0.0000
vn -0.0026 0.0004 1.0000
vn 0.0196 -0.2836 0.9587
vn -0.0467 0.2807 0.9587
vn -0.1796 0.9837 -0.0000
vn -0.2005 0.9797 -0.0000
vn -0.0568 0.2461 0.9676
vn -0.9846 -0.1748 -0.0000
vn -0.9886 -0.1507 -0.0000
vn -0.0093 -0.0073 0.9999
vn -0.9788 -0.2046 -0.0000
vn -0.9736 -0.2285 -0.0000
vn -0.0093 -0.0073 -0.9999
vn -0.0568 0.2461 -0.9676
vn 0.0063 0.2524 -0.9676
vn 0.0396 -0.1925 -0.9805
vn -0.0103 0.0613 -0.9981
vn 0.0016 0.0009 -1.0000
vn 0.0321 -0.1937 -0.9805
vn 0.0119 -0.0700 0.9975
vn 0.0396 -0.1925 0.9805
vn 0.0355 -0.1931 0.9805
vn -0.0019 0.0002 1.0000
vn 0.2016 -0.9795 -0.0000
vn 0.1800 -0.9837 -0.0000
vn 0.1625 -0.9867 -0.0000
vn -0.0396 0.1925 -0.9805
vn -0.0353 0.1931 -0.9805
vn -0.2016 0.9795 -0.0000
vn -0.1800 0.9837 -0.0000
vn -0.0396 0.1925 0.9805
vn -0.0319 0.1937 0.9805
vn 0.0016 0.0007 -1.0000
vn 0.0205 -0.1951 -0.9806
vn 0.0237 -0.1947 0.9806
vn -0.0017 0.0003 1.0000
vn 0.1204 -0.9927 -0.0000
vn 0.1040 -0.9946 -0.0000
vn -0.0236 0.1947 -0.9806
vn -0.1204 0.9927 -0.0000
vn -0.1040 0.9946 -0.0000
vn -0.0204 0.1951 0.9806
vn 0.0021 0.0045 -1.0000
vn 0.0077 -0.1921 -0.9813
vn 0.0114 -0.1958 0.9806
vn -0.0024 0.0340 0.9994
vn 0.0580 -0.9983 -0.0000
vn 0.0374 -0.9993 -0.0000
vn -0.0111 0.1958 -0.9806
vn -0.0458 0.9990 -0.0000
vn -0.0090 0.1959 0.9806
vn 0.0029 -0.1906 0.9817
vn -0.0002 0.0146 0.9999
vn 0.0118 -0.9999 -0.0000
vn -0.0027 0.2071 0.9783
vn -0.0079 1.0000 -0.0000
vn -0.0027 0.2071 -0.9783
vn 0.0021 -0.0578 -0.9983
vn 0.0022 -0.1847 -0.9828
vn 0.9999 0.0107 -0.0000
vn -0.9813 -0.1927 -0.0000
vn -0.9812 -0.1927 -0.0000
vn 0.0094 -1.0000 -0.0000
vn -0.9996 -0.0287 -0.0000
vn 0.0022 -0.2322 -0.9727
vn -0.0024 0.0840 -0.9965
vn 0.0037 -0.0843 -0.9964
vn -0.0033 0.0740 0.9972
vn 0.0022 -0.0743 0.9972
vn 0.0022 -0.2322 0.9727
vn 0.9999 0.0160 -0.0000
vn -0.0022 0.2322 0.9727
vn -0.0095 1.0000 -0.0000
vn -0.0022 0.2321 -0.9727
vt 0.352875 0.633003
vt 0.487720 0.624855
vt 0.488281 0.599537
vt 0.352092 0.606343
vt 0.487645 0.574219
vt 0.351308 0.579684
vt 0.240814 0.597448
vt 0.138009 0.623971
vt 0.140166 0.650346
vt 0.242306 0.623994
vt 0.243799 0.650540
vt 0.142322 0.676721
vt 0.017551 0.722656
vt 0.011719 0.669544
vt 0.014008 0.696362
vt 0.016650 0.722656
vt 0.014184 0.699027
vt 0.139093 0.650501
vt 0.140917 0.674377
vt 0.011719 0.675397
vt 0.137269 0.626624
vt 0.241684 0.622251
vt 0.242951 0.646281
vt 0.240416 0.598221
vt 0.351952 0.603328
vt 0.352622 0.627461
vt 0.351283 0.579196
vt 0.488281 0.621609
vt 0.488281 0.595868
vt 0.488281 0.574219
vt 0.628906 0.511340
vt 0.628906 0.394910
vt 0.687500 0.542969
vt 0.687500 0.363281
vt 0.746094 0.394910
vt 0.746094 0.511340
vt 0.629684 0.397023
vt 0.628906 0.397023
vt 0.628906 0.509225
vt 0.687088 0.542969
vt 0.687889 0.542969
vt 0.629684 0.509225
vt 0.687889 0.363281
vt 0.687088 0.363281
vt 0.745271 0.397025
vt 0.746094 0.509227
vt 0.746094 0.397025
vt 0.745271 0.509227
s 1
f 613/338/692 610/339/693 611/338/694
f 610/339/693 612/339/693 611/338/694
f 616/340/695 612/339/696 610/339/696
f 610/339/697 613/338/698 614/341/699
f 615/340/700 610/339/697 614/341/699
f 615/340/701 616/340/695 610/339/696
f 616/340/702 618/342/703 617/341/704
f 612/339/705 616/340/702 617/341/704
f 618/342/706 616/340/695 615/340/701
f 619/342/706 618/342/706 615/340/701
f 618/342/707 619/342/707 620/343/708
f 618/342/703 620/343/709 617/341/704
f 620/343/709 621/344/710 617/341/704
f 623/344/711 621/344/712 620/343/708
f 619/342/707 622/343/708 620/343/708
f 622/343/708 623/344/711 620/343/708
f 623/344/711 624/345/713 621/344/712
f 625/346/714 624/345/715 623/344/716
f 626/347/717 625/346/714 623/344/716
f 626/347/717 623/344/716 622/343/718
f 614/341/699 626/347/717 622/343/718
f 627/348/719 626/347/717 614/341/699
f 628/349/720 625/346/714 626/347/717
f 627/348/719 628/349/720 626/347/717
f 630/350/721 629/350/721 628/349/722
f 628/349/720 629/350/723 625/346/714
f 631/349/724 630/350/721 628/349/722
f 631/349/724 628/349/722 627/348/725
f 632/346/726 631/349/727 633/348/728
f 630/350/729 631/349/727 632/346/726
f 633/348/730 631/349/724 627/348/725
f 634/347/731 632/346/726 633/348/728
f 633/348/730 627/348/725 613/338/692
f 634/347/731 633/348/728 611/338/732
f 611/338/694 633/348/730 613/338/692
f 621/344/710 634/347/731 617/341/704
f 621/344/710 635/345/733 634/347/731
f 635/345/733 632/346/726 634/347/731
f 617/341/704 634/347/731 611/338/732
f 624/345/713 635/345/734 621/344/712
f 624/345/713 636/351/735 635/345/734
f 636/351/735 637/351/735 635/345/734
f 635/345/733 637/351/736 632/346/726
f 638/352/737 637/351/738 636/351/738
f 637/351/736 638/352/739 632/346/726
f 639/352/740 638/352/737 636/351/738
f 630/350/741 638/352/737 639/352/740
f 638/352/739 630/350/729 632/346/726
f 629/350/741 630/350/741 639/352/740
f 629/350/723 639/352/742 625/346/714
f 639/352/742 636/351/743 625/346/714
f 636/351/743 624/345/715 625/346/714
f 613/338/698 627/348/719 614/341/699
f 622/343/718 619/342/744 614/341/699
f 619/342/744 615/340/700 614/341/699
f 611/338/732 612/339/705 617/341/704
f 646/353/745 650/354/746 656/355/747
f 652/356/748 646/353/745 656/355/747
f 651/354/749 648/353/750 654/356/751
f 657/355/752 651/354/749 654/356/751
f 648/353/753 646/353/753 652/356/754
f 654/356/755 648/353/753 652/356/754
f 650/354/746 647/357/756 653/358/757
f 656/355/747 650/354/746 653/358/757
f 647/357/758 649/357/758 655/358/759
f 653/358/713 647/357/758 655/358/759
f 649/357/760 651/354/749 657/355/752
f 655/358/761 649/357/760 657/355/752
f 652/356/748 656/355/747 662/359/762
f 658/360/763 652/356/748 662/359/762
f 657/355/752 654/356/751 660/360/764
f 663/359/765 657/355/752 660/360/764
f 654/356/755 652/356/754 658/360/766
f 660/360/767 654/356/755 658/360/766
f 656/355/747 653/358/757 659/361/768
f 662/359/762 656/355/747 659/361/768
f 653/358/713 655/358/759 661/361/769
f 659/361/770 653/358/713 661/361/769
f 655/358/761 657/355/752 663/359/765
f 661/361/771 655/358/761 663/359/765
f 658/360/763 662/359/762 668/362/772
f 664/363/773 658/360/763 668/362/772
f 663/359/765 660/360/764 666/363/774
f 669/362/775 663/359/765 666/363/774
f 660/360/767 658/360/766 664/363/776
f 666/363/777 660/360/767 664/363/776
f 662/359/762 659/361/768 665/364/778
f 668/362/772 662/359/762 665/364/778
f 659/361/770 661/361/769 667/364/779
f 665/364/779 659/361/770 667/364/779
f 661/361/771 663/359/765 669/362/775
f 667/364/780 661/361/771 669/362/775
f 642/365/781 645/366/782 669/362/775
f 666/363/774 642/365/781 669/362/775
f 640/365/783 642/365/783 666/363/777
f 664/363/776 640/365/783 666/363/777
f 643/367/784 667/364/780 669/362/775
f 645/366/782 643/367/784 669/362/775
f 641/367/785 665/364/779 667/364/779
f 643/367/785 641/367/785 667/364/779
f 641/367/786 644/366/787 668/362/772
f 665/364/778 641/367/786 668/362/772
f 644/366/787 640/365/788 664/363/773
f 668/362/772 644/366/787 664/363/773
f 643/367/789 645/366/789 644/366/789
f 641/367/789 643/367/789 644/366/789
f 645/366/789 642/365/789 640/365/789
f 644/366/789 645/366/789 640/365/789
f 670/368/790 672/369/790 671/370/790
f 672/369/790 673/371/790 671/370/790
f 673/371/790 674/372/791 675/373/790
f 671/370/790 673/371/790 675/373/790
f 681/374/792 677/375/792 676/376/792
f 677/375/793 678/377/793 676/376/793
f 676/376/794 678/377/795 679/378/796
f 680/379/794 676/376/794 679/378/796
f 680/379/792 681/374/792 676/376/792
f 683/380/797 682/381/798 681/374/799
f 682/381/798 677/375/799 681/374/799
f 680/379/800 679/378/800 681/374/800
f 683/380/800 681/374/800 679/378/800
f 686/382/801 682/381/798 683/380/797
f 684/383/800 683/380/800 679/378/800
f 684/383/800 685/384/800 683/380/800
f 685/384/801 686/382/801 683/380/797
f 687/385/802 686/382/802 685/384/802
f 687/385/793 678/377/793 686/382/793
f 686/382/793 678/377/793 682/381/793
f 678/377/795 687/385/803 684/383/803
f 684/383/802 687/385/802 685/384/802
f 679/378/796 678/377/795 684/383/803
f 678/377/793 677/375/793 682/381/793
