# Blender 5.2.0 LTS
# www.blender.org
o blade
v -32.474792 -4.447566 -2.673406
v 48.050255 -3.512379 2.673410
v 48.050255 -3.512380 -2.673406
v -32.474792 -4.447566 2.673410
v -35.269211 -4.429136 2.673410
v -35.269211 -4.429136 -2.673406
v -32.523491 3.612358 -4.208941
v -35.317905 3.630788 -4.208941
v -32.564800 10.449387 -2.673407
v 47.970863 9.626897 -2.673407
v 48.010551 3.057257 -4.208940
v 47.970863 9.626897 2.673409
v 48.010551 3.057258 4.208944
v -32.523491 3.612358 4.208943
v -32.564800 10.449387 2.673409
v -35.359215 10.467817 -2.673407
v -35.359215 10.467817 2.673409
v -35.317905 3.630788 4.208943
v -38.564400 -1.345900 -0.480300
v -110.010300 1.677400 -0.566300
v -38.564400 3.406400 -0.566300
v -109.795494 -3.068699 -0.480300
v -38.564400 -1.345900 0.480300
v -109.795494 -3.068699 0.480300
v -38.564400 3.406400 0.566300
v -110.010300 1.677400 0.566300
v -38.564400 8.158600 -0.000001
v -110.225204 6.423400 -0.000000
v -170.362183 -3.336298 -0.566300
v -170.769089 1.393901 -0.000000
v -227.097382 -6.114900 0.000000
v -226.511780 -10.821399 -0.566299
v -170.362183 -3.336298 0.566300
v -226.511780 -10.821399 0.566301
v -169.955399 -8.066401 0.480301
v -225.926300 -15.527599 0.480301
v -169.955399 -8.066401 -0.480299
v -225.926300 -15.527599 -0.480299
v -285.119110 -26.427000 -0.480298
v -285.119110 -26.427000 0.480302
v -281.382904 -20.574402 -0.566298
v -283.795776 -16.482498 0.000001
v -288.616211 -21.934000 0.000002
v -281.382904 -20.574402 0.566302
v -290.956207 -27.484400 0.000002
v -34.015800 -2.157500 -1.099300
v -42.484100 -2.225600 1.099300
v -34.015800 -2.157500 1.099300
v -42.484100 -2.225600 -1.099300
v -34.015800 3.610700 -1.295900
v -42.484100 3.542600 -1.295900
v -34.015800 8.765900 -0.723001
v -34.015800 8.765900 0.722999
v -42.484100 8.697800 -0.723001
v -42.484100 8.697800 0.722999
v -34.015800 3.610700 1.295900
v -42.484100 3.542600 1.295900
v -34.864811 3.600161 0.000003
v -34.864811 3.600161 14.718198
v -34.859154 -5.331424 14.332384
v -34.855064 -11.876558 8.278098
v -34.838463 -12.288182 0.000007
v -34.855061 -11.876547 -8.278075
v -34.859154 -5.331426 -14.332380
v -34.864811 3.600162 -14.718192
v -34.870441 12.535290 -14.334874
v -34.874573 19.075245 -8.276149
v -34.891159 19.488501 -0.000001
v -34.874573 19.075268 8.275996
v -34.870441 12.535280 14.334866
v -37.428440 19.080307 8.277899
v -37.424347 12.535226 14.332388
v -37.418690 3.603639 0.000003
v -37.418690 3.603638 14.718198
v -37.413059 -5.331476 14.334862
v -37.408928 -11.871442 8.276157
v -37.392342 -12.284704 0.000007
v -37.408928 -11.871445 -8.276140
v -37.413059 -5.331493 -14.334882
v -37.418690 3.603640 -14.718192
v -37.424347 12.535228 -14.332381
v -37.428436 19.080355 -8.278086
v -37.445038 19.491983 -0.000001
vn 0.0025 -1.0000 -0.0000
vn 0.0116 -0.9999 -0.0000
vn 0.0005 -0.1871 -0.9823
vn 0.0003 -0.0180 -0.9998
vn -0.0000 -0.2072 -0.9783
vn -0.0066 -1.0000 -0.0000
vn -0.0012 -0.1872 -0.9823
vn -0.0003 0.0869 -0.9962
vn 0.0018 0.2191 -0.9757
vn 0.0019 0.2234 -0.9747
vn -0.0000 -0.0019 -1.0000
vn 1.0000 0.0060 -0.0000
vn 0.0007 0.0094 1.0000
vn -0.0001 0.0729 0.9973
vn 0.0017 0.2219 0.9751
vn -0.0000 -0.2072 0.9783
vn 0.0023 0.2276 0.9737
vn 0.0084 1.0000 -0.0000
vn 0.0066 1.0000 -0.0000
vn 0.0102 0.9999 -0.0000
vn 0.0014 0.2191 0.9757
vn 0.0005 -0.0510 0.9987
vn 0.0005 -0.1871 0.9823
vn -0.0012 -0.1872 0.9823
vn 0.0014 0.2191 -0.9757
vn 0.0010 -0.0181 -0.9998
vn -0.0015 0.0274 -0.9996
vn 0.0004 -0.0181 -0.9998
vn -0.0018 0.0730 -0.9973
vn 0.0535 -0.9986 -0.0000
vn 0.0242 -0.9997 -0.0000
vn 0.0536 -0.9986 -0.0000
vn 0.0010 -0.0181 0.9998
vn 0.0004 -0.0181 0.9998
vn -0.0007 0.0274 0.9996
vn -0.0039 0.0729 0.9973
vn -0.0029 0.1183 0.9930
vn -0.0063 0.1182 0.9930
vn -0.0029 0.1184 0.9930
vn -0.0063 0.1182 -0.9930
vn -0.0029 0.1183 -0.9930
vn -0.0049 0.0501 -0.9987
vn -0.0136 0.1177 -0.9930
vn -0.0118 0.1179 0.9930
vn -0.0095 0.0634 -0.9979
vn -0.0196 0.1194 -0.9927
vn -0.0187 0.1189 0.9927
vn -0.0059 0.0502 0.9987
vn -0.0057 0.0362 0.9993
vn 0.0020 -0.0180 0.9998
vn 0.0992 -0.9951 -0.0000
vn 0.1485 -0.9889 -0.0000
vn 0.1157 -0.9933 -0.0000
vn 0.0028 -0.0179 0.9998
vn 0.1648 -0.9863 -0.0000
vn 0.0020 -0.0180 -0.9998
vn 0.0028 -0.0179 -0.9998
vn -0.0360 0.0548 -0.9978
vn 0.1797 -0.9837 -0.0000
vn -0.0571 0.0202 -0.9982
vn -0.0891 0.0532 -0.9946
vn -0.0582 0.1031 -0.9930
vn -0.0887 0.0374 -0.9954
vn -0.0361 0.0549 0.9978
vn -0.0582 0.1031 0.9930
vn -0.0891 0.0532 0.9946
vn -0.0887 0.0374 0.9954
vn -0.0571 0.0202 0.9982
vn 0.1783 -0.9840 -0.0000
vn 0.0080 -1.0000 -0.0000
vn -0.0003 0.0141 -0.9999
vn 0.0003 -0.0341 -0.9994
vn -0.0003 0.0624 -0.9981
vn -0.0009 0.1105 -0.9939
vn -0.0080 1.0000 -0.0000
vn -1.0000 -0.0000 -0.0000
vn -0.0003 0.0624 0.9981
vn -0.0009 0.1105 0.9939
vn -0.0003 0.0141 0.9999
vn 0.0003 -0.0341 0.9994
vn 1.0000 0.0006 -0.0000
vn 1.0000 0.0010 -0.0000
vn 1.0000 0.0011 0.0009
vn 1.0000 0.0017 -0.0000
vn 1.0000 0.0011 -0.0009
vn -0.0007 0.4534 0.8913
vn -0.0008 0.3135 0.9496
vn -0.0001 0.0583 0.9983
vn 0.0019 0.9456 0.3254
vn 0.0020 0.8567 0.5158
vn -1.0000 -0.0006 -0.0000
vn -1.0000 -0.0011 0.0009
vn -1.0000 -0.0010 -0.0000
vn 0.0001 -0.0583 0.9983
vn 0.0008 -0.3135 0.9496
vn 0.0007 -0.4534 0.8913
vn -0.0020 -0.8567 0.5158
vn -0.0019 -0.9456 0.3254
vn -1.0000 -0.0011 -0.0009
vn -1.0000 -0.0017 -0.0000
vn -0.0016 -0.9938 -0.1108
vn -0.0016 -0.9938 0.1109
vn -0.0020 -0.8562 -0.5167
vn -0.0019 -0.9457 -0.3251
vn 0.0008 -0.3136 -0.9496
vn 0.0007 -0.4541 -0.8910
vn 0.0001 -0.0585 -0.9983
vn -0.0001 0.0585 -0.9983
vn -0.0008 0.3136 -0.9496
vn -0.0007 0.4541 -0.8910
vn 0.0020 0.8562 -0.5167
vn 0.0019 0.9457 -0.3251
vn 0.0016 0.9938 -0.1108
vn 0.0016 0.9938 0.1109
vt 0.023508 0.535156
vt 0.363281 0.519007
vt 0.023508 0.446391
vt 0.011719 0.535156
vt 0.011719 0.446391
vt 0.023508 0.371094
vt 0.363281 0.374302
vt 0.363281 0.446655
vt 0.011719 0.371094
vt 0.353784 0.833084
vt 0.353378 0.802916
vt 0.488281 0.822133
vt 0.488281 0.791926
vt 0.488281 0.761719
vt 0.352972 0.772748
vt 0.239423 0.834785
vt 0.238654 0.804718
vt 0.133402 0.882364
vt 0.132296 0.852447
vt 0.240191 0.864852
vt 0.134507 0.912279
vt 0.029795 0.944358
vt 0.022740 0.981560
vt 0.016137 0.953000
vt 0.025239 0.918348
vt 0.011719 0.988281
vt 0.628906 0.542969
vt 0.629632 0.363281
vt 0.691131 0.363281
vt 0.690405 0.542969
vt 0.746094 0.363281
vt 0.745368 0.542969
vt 0.544922 0.375318
vt 0.500000 0.363281
vt 0.500000 0.453125
vt 0.455078 0.375318
vt 0.422193 0.408203
vt 0.410156 0.453125
vt 0.422193 0.498047
vt 0.455078 0.530932
vt 0.500000 0.542969
vt 0.544922 0.530932
vt 0.577807 0.498047
vt 0.589844 0.453125
vt 0.577807 0.408204
s 1
f 4/1/1 1/1/1 2/2/2
f 1/1/1 3/2/2 2/2/2
f 1/1/3 7/3/4 3/2/5
f 1/1/1 4/1/1 5/4/6
f 6/4/6 1/1/1 5/4/6
f 7/3/4 1/1/3 6/4/7
f 8/5/8 7/3/4 6/4/7
f 9/6/9 7/3/4 8/5/8
f 7/3/4 9/6/9 10/7/10
f 7/3/4 11/8/11 3/2/5
f 11/8/11 7/3/4 10/7/10
f 3/2/12 11/8/12 13/8/12
f 11/8/12 10/7/12 12/7/12
f 13/8/12 11/8/12 12/7/12
f 14/3/13 13/8/14 15/6/15
f 2/2/16 13/8/14 14/3/13
f 2/2/12 3/2/12 13/8/12
f 13/8/14 12/7/17 15/6/15
f 15/6/18 9/6/18 16/9/19
f 9/6/18 15/6/18 10/7/20
f 15/6/18 12/7/20 10/7/20
f 17/9/19 15/6/18 16/9/19
f 14/3/13 15/6/15 17/9/21
f 18/5/22 14/3/13 17/9/21
f 4/1/23 14/3/13 18/5/22
f 5/4/24 4/1/23 18/5/22
f 16/9/25 9/6/9 8/5/8
f 4/1/23 2/2/16 14/3/13
f 22/10/26 20/11/27 19/12/28
f 20/11/27 21/13/29 19/12/28
f 22/10/30 19/12/31 23/12/31
f 24/10/30 22/10/32 23/12/31
f 24/10/33 23/12/34 25/13/35
f 26/11/36 24/10/33 25/13/35
f 26/11/36 25/13/35 27/14/37
f 28/15/38 26/11/36 27/14/39
f 28/15/40 27/14/41 21/13/29
f 20/11/27 29/16/42 28/15/40
f 29/16/42 30/17/43 28/15/40
f 28/15/38 30/17/44 26/11/36
f 20/11/27 28/15/40 21/13/29
f 32/18/45 31/19/46 30/17/43
f 30/17/44 31/19/47 33/16/48
f 29/16/42 32/18/45 30/17/43
f 30/17/44 33/16/48 26/11/36
f 31/19/47 34/18/49 33/16/48
f 26/11/36 33/16/48 24/10/33
f 33/16/48 35/20/50 24/10/33
f 33/16/48 34/18/49 35/20/50
f 35/20/51 36/21/52 37/20/53
f 34/18/49 36/21/54 35/20/50
f 35/20/51 37/20/53 22/10/32
f 24/10/30 35/20/51 22/10/32
f 36/21/52 38/21/55 37/20/53
f 37/20/56 38/21/57 29/16/42
f 37/20/56 29/16/42 20/11/27
f 22/10/26 37/20/56 20/11/27
f 38/21/57 32/18/45 29/16/42
f 41/22/58 32/18/45 38/21/57
f 36/21/52 40/23/59 38/21/55
f 40/23/59 39/23/59 38/21/55
f 39/23/60 41/22/58 38/21/57
f 41/22/58 39/23/60 43/24/61
f 41/22/58 42/25/62 31/19/46
f 42/25/62 41/22/58 43/24/61
f 32/18/45 41/22/58 31/19/46
f 39/23/60 45/26/63 43/24/61
f 44/22/64 42/25/65 43/24/66
f 45/26/67 40/23/68 43/24/66
f 40/23/68 44/22/64 43/24/66
f 39/23/59 40/23/59 45/26/69
f 42/25/65 44/22/64 31/19/47
f 44/22/64 40/23/68 36/21/54
f 34/18/49 44/22/64 36/21/54
f 44/22/64 34/18/49 31/19/47
f 49/27/70 46/28/70 47/27/70
f 46/28/70 48/28/70 47/27/70
f 50/29/71 46/28/72 49/27/72
f 51/30/73 50/29/71 49/27/72
f 52/31/74 50/29/71 51/30/73
f 53/31/75 52/31/75 54/32/75
f 54/32/74 52/31/74 51/30/73
f 55/32/75 53/31/75 54/32/75
f 55/32/76 54/32/76 51/30/76
f 56/29/77 53/31/78 55/32/78
f 57/30/76 55/32/76 49/27/76
f 49/27/76 55/32/76 51/30/76
f 57/30/79 56/29/77 55/32/78
f 47/27/76 57/30/76 49/27/76
f 47/27/80 48/28/80 57/30/79
f 48/28/80 56/29/77 57/30/79
f 70/33/81 59/34/81 58/35/82
f 59/34/81 60/36/81 58/35/82
f 60/36/81 61/37/83 58/35/82
f 61/37/83 62/38/84 58/35/82
f 62/38/84 63/39/85 58/35/82
f 63/39/85 64/40/81 58/35/82
f 64/40/81 65/41/81 58/35/82
f 65/41/81 66/42/81 58/35/82
f 66/42/81 67/43/83 58/35/82
f 67/43/83 68/44/84 58/35/82
f 68/44/84 69/45/85 58/35/82
f 69/45/85 70/33/81 58/35/82
f 70/33/86 72/33/87 59/34/88
f 69/45/89 71/45/90 70/33/86
f 71/45/90 72/33/87 70/33/86
f 72/33/91 71/45/92 73/35/93
f 74/34/91 72/33/91 73/35/93
f 72/33/87 74/34/94 59/34/88
f 59/34/88 74/34/94 60/36/95
f 74/34/94 75/36/96 60/36/95
f 75/36/91 74/34/91 73/35/93
f 60/36/95 75/36/96 61/37/97
f 75/36/96 76/37/98 61/37/97
f 76/37/99 75/36/91 73/35/93
f 77/38/100 76/37/99 73/35/93
f 76/37/98 77/38/101 62/38/102
f 61/37/97 76/37/98 62/38/102
f 78/39/92 77/38/100 73/35/93
f 77/38/101 78/39/103 63/39/104
f 62/38/102 77/38/101 63/39/104
f 79/40/91 78/39/92 73/35/93
f 78/39/103 79/40/105 64/40/106
f 63/39/104 78/39/103 64/40/106
f 64/40/106 79/40/105 65/41/107
f 79/40/105 80/41/108 65/41/107
f 80/41/91 79/40/91 73/35/93
f 65/41/107 80/41/108 66/42/109
f 80/41/108 81/42/110 66/42/109
f 81/42/91 80/41/91 73/35/93
f 66/42/109 81/42/110 67/43/111
f 81/42/110 82/43/112 67/43/111
f 82/43/99 81/42/91 73/35/93
f 67/43/111 82/43/112 68/44/113
f 82/43/112 83/44/114 68/44/113
f 83/44/100 82/43/99 73/35/93
f 68/44/113 83/44/114 69/45/89
f 83/44/114 71/45/90 69/45/89
f 71/45/92 83/44/100 73/35/93
o blade_damaged
v -38.564400 -1.345900 -0.480300
v -110.010307 1.677400 -0.566300
v -38.564400 3.406400 -0.566300
v -109.795509 -3.068700 -0.480300
v -38.564400 -1.345900 0.480300
v -109.795509 -3.068700 0.480300
v -38.564400 3.406400 0.566300
v -38.564400 8.158600 -0.000001
v -110.010307 1.677400 0.566300
v -110.225204 6.423400 -0.000000
v -32.476555 -4.156232 -2.673406
v 48.050255 -3.512381 2.673410
v 48.050255 -3.512381 -2.673406
v -32.476555 -4.156232 2.673410
v -35.270969 -4.137802 2.673410
v -35.270969 -4.137802 -2.673406
v -32.523346 3.588414 -4.208941
v 48.010551 3.057257 -4.208940
v -35.317764 3.606844 -4.208941
v -32.563038 10.158053 -2.673407
v 47.970863 9.626896 -2.673407
v -32.563038 10.158053 2.673409
v 47.970863 9.626896 2.673409
v 48.010551 3.057257 4.208944
v -32.523346 3.588414 4.208943
v -35.317764 3.606845 4.208943
v -35.357456 10.176483 2.673409
v -35.357456 10.176483 -2.673407
v -34.864807 3.600123 0.000003
v -34.864807 3.600123 14.718282
v -34.859024 -5.331362 14.332397
v -34.854847 -11.876574 8.278175
v -34.837887 -12.288166 0.000007
v -34.854847 -11.876559 -8.278152
v -34.859024 -5.331365 -14.332393
v -34.864807 3.600124 -14.718276
v -34.870560 12.535231 -14.334940
v -34.874779 19.075148 -8.276183
v -34.891727 19.488411 -0.000001
v -34.874779 19.075172 8.276033
v -34.870560 12.535221 14.334933
v -37.428646 19.080320 8.277976
v -37.424465 12.535163 14.332397
v -37.418686 3.603676 14.718282
v -37.418682 3.603677 0.000003
v -37.408710 -11.871348 -8.276175
v -37.412930 -5.331433 -14.334947
v -37.418682 3.603678 -14.718276
v -37.424465 12.535165 -14.332391
v -37.428642 19.080368 -8.278162
v -37.412930 -5.331417 14.334929
v -37.445606 19.491968 -0.000001
v -37.408710 -11.871343 8.276191
v -37.391762 -12.284614 0.000007
v -34.015800 -2.157500 -1.099300
v -42.484100 -2.225600 1.099300
v -34.015800 -2.157500 1.099300
v -42.484100 -2.225600 -1.099300
v -34.015800 3.610700 -1.295900
v -42.484100 3.542600 -1.295900
v -34.015800 8.765900 -0.723001
v -34.015800 8.765900 0.722999
v -42.484100 8.697800 -0.723001
v -42.484100 8.697800 0.722999
v -34.015800 3.610700 1.295900
v -42.484100 3.542600 1.295900
vn 0.0004 -0.0181 -0.9998
vn -0.0007 0.0274 -0.9996
vn -0.0007 0.0275 -0.9996
vn -0.0018 0.0730 -0.9973
vn 0.0242 -0.9997 -0.0000
vn 0.0004 -0.0181 0.9998
vn -0.0007 0.0274 0.9996
vn -0.0018 0.0730 0.9973
vn -0.0029 0.1183 0.9930
vn -0.0029 0.1184 0.9930
vn -0.0029 0.1183 -0.9930
vn -0.0029 0.1184 -0.9930
vn 0.0007 -1.0000 -0.0000
vn 0.0080 -1.0000 -0.0000
vn 0.0001 -0.1945 -0.9809
vn 0.0001 -0.0188 -0.9998
vn -0.0002 -0.2109 -0.9775
vn -0.0066 -1.0000 -0.0000
vn -0.0013 -0.1945 -0.9809
vn -0.0000 -0.0018 -1.0000
vn 0.0015 0.2276 -0.9738
vn -0.0003 0.0904 -0.9959
vn 0.0066 1.0000 -0.0000
vn 1.0000 0.0060 -0.0000
vn -0.0005 0.0758 0.9971
vn 0.0015 0.2276 0.9738
vn 0.0006 0.0113 0.9999
vn -0.0002 -0.2109 0.9775
vn 0.0001 -0.1945 0.9809
vn 0.0006 -0.0532 0.9986
vn -0.0013 -0.1945 0.9809
vn 1.0000 0.0006 -0.0000
vn 1.0000 0.0010 -0.0000
vn 1.0000 0.0011 0.0009
vn 1.0000 0.0017 -0.0000
vn 1.0000 0.0011 -0.0009
vn -0.0007 0.4534 0.8913
vn -0.0008 0.3135 0.9496
vn -0.0001 0.0583 0.9983
vn 0.0019 0.9456 0.3254
vn 0.0020 0.8567 0.5158
vn 0.0001 -0.0583 0.9983
vn -1.0000 -0.0006 -0.0000
vn -1.0000 -0.0010 -0.0000
vn -1.0000 -0.0011 0.0009
vn -1.0000 -0.0017 -0.0000
vn -1.0000 -0.0011 -0.0009
vn -0.0017 -0.9938 0.1109
vn -0.0017 -0.9938 -0.1108
vn -0.0020 -0.9457 -0.3251
vn -0.0020 -0.9456 0.3254
vn -0.0020 -0.8562 -0.5167
vn -0.0021 -0.8567 0.5158
vn 0.0007 -0.4534 0.8913
vn 0.0017 0.9938 -0.1108
vn 0.0017 0.9938 0.1109
vn 0.0020 0.9457 -0.3251
vn 0.0008 -0.3135 0.9496
vn 0.0020 0.8562 -0.5167
vn -0.0007 0.4541 -0.8910
vn -0.0008 0.3136 -0.9496
vn -0.0001 0.0585 -0.9983
vn 0.0008 -0.3136 -0.9496
vn 0.0001 -0.0585 -0.9983
vn 0.0007 -0.4541 -0.8910
vn -0.0003 0.0141 -0.9999
vn 0.0003 -0.0341 -0.9994
vn -0.0003 0.0624 -0.9981
vn -0.0009 0.1105 -0.9939
vn -0.0080 1.0000 -0.0000
vn -1.0000 -0.0000 -0.0000
vn -0.0003 0.0141 0.9999
vn -0.0003 0.0624 0.9981
vn -0.0009 0.1105 0.9939
vn 0.0003 -0.0341 0.9994
vt 0.014576 0.988281
vt 0.013148 0.892507
vt 0.488281 0.953516
vt 0.488281 0.857616
vt 0.488281 0.761719
vt 0.011719 0.796734
vt 0.023508 0.535156
vt 0.363281 0.521689
vt 0.023508 0.446391
vt 0.011719 0.535156
vt 0.363281 0.446391
vt 0.363281 0.371094
vt 0.011719 0.446391
vt 0.023508 0.371094
vt 0.011719 0.371094
vt 0.544922 0.375318
vt 0.500000 0.363281
vt 0.500000 0.453125
vt 0.455078 0.375318
vt 0.422193 0.408203
vt 0.410156 0.453125
vt 0.422193 0.498047
vt 0.455078 0.530932
vt 0.500000 0.542969
vt 0.544922 0.530932
vt 0.577807 0.498047
vt 0.589844 0.453125
vt 0.577807 0.408204
vt 0.628906 0.542969
vt 0.629632 0.363281
vt 0.691131 0.363281
vt 0.690405 0.542969
vt 0.746094 0.363281
vt 0.745368 0.542969
s 1
f 87/46/115 85/47/116 84/48/115
f 85/47/117 86/49/118 84/48/115
f 87/46/119 84/48/119 88/48/119
f 89/46/119 87/46/119 88/48/119
f 89/46/120 88/48/120 90/49/121
f 92/47/122 90/49/121 91/50/123
f 92/47/122 89/46/120 90/49/121
f 93/51/124 92/47/122 91/50/124
f 93/51/125 91/50/125 86/49/118
f 85/47/117 93/51/126 86/49/118
f 97/52/127 94/52/127 95/53/128
f 94/52/127 96/53/128 95/53/128
f 94/52/129 100/54/130 96/53/131
f 94/52/127 97/52/127 98/55/132
f 99/55/132 94/52/127 98/55/132
f 100/54/130 94/52/129 99/55/133
f 101/56/134 100/54/130 104/57/135
f 100/54/130 101/56/134 96/53/131
f 102/58/136 100/54/130 99/55/133
f 103/59/135 100/54/130 102/58/136
f 100/54/130 103/59/135 104/57/135
f 103/59/137 105/59/137 104/57/137
f 105/59/137 106/57/137 104/57/137
f 101/56/138 104/57/138 106/57/138
f 107/56/139 106/57/140 105/59/140
f 107/56/138 101/56/138 106/57/138
f 96/53/138 101/56/138 107/56/138
f 108/54/141 107/56/139 105/59/140
f 95/53/142 107/56/139 108/54/141
f 95/53/138 96/53/138 107/56/138
f 97/52/143 108/54/141 109/58/144
f 97/52/143 95/53/142 108/54/141
f 108/54/141 105/59/140 110/60/140
f 109/58/144 108/54/141 110/60/140
f 110/60/137 105/59/137 111/60/137
f 105/59/137 103/59/137 111/60/137
f 111/60/135 103/59/135 102/58/136
f 98/55/145 97/52/143 109/58/144
f 124/61/146 113/62/146 112/63/147
f 113/62/146 114/64/146 112/63/147
f 114/64/146 115/65/148 112/63/147
f 115/65/148 116/66/149 112/63/147
f 116/66/149 117/67/150 112/63/147
f 117/67/150 118/68/146 112/63/147
f 118/68/146 119/69/146 112/63/147
f 119/69/146 120/70/146 112/63/147
f 120/70/146 121/71/148 112/63/147
f 121/71/148 122/72/149 112/63/147
f 122/72/149 123/73/150 112/63/147
f 123/73/150 124/61/146 112/63/147
f 124/61/151 126/61/152 113/62/153
f 123/73/154 125/73/155 124/61/151
f 125/73/155 126/61/152 124/61/151
f 126/61/152 127/62/156 113/62/153
f 127/62/157 126/61/157 128/63/158
f 126/61/157 125/73/159 128/63/158
f 130/68/157 129/67/159 128/63/158
f 129/67/159 137/66/160 128/63/158
f 131/69/157 130/68/157 128/63/158
f 132/70/157 131/69/157 128/63/158
f 133/71/161 132/70/157 128/63/158
f 134/64/157 127/62/157 128/63/158
f 135/72/160 133/71/161 128/63/158
f 136/65/161 134/64/157 128/63/158
f 125/73/159 135/72/160 128/63/158
f 137/66/160 136/65/161 128/63/158
f 116/66/162 137/66/163 117/67/164
f 136/65/165 137/66/163 116/66/162
f 137/66/163 129/67/166 117/67/164
f 115/65/167 136/65/165 116/66/162
f 134/64/168 136/65/165 115/65/167
f 122/72/169 135/72/170 123/73/154
f 133/71/171 135/72/170 122/72/169
f 135/72/170 125/73/155 123/73/154
f 114/64/172 134/64/168 115/65/167
f 127/62/156 134/64/168 114/64/172
f 121/71/173 133/71/171 122/72/169
f 132/70/174 133/71/171 121/71/173
f 120/70/175 132/70/174 121/71/173
f 131/69/176 132/70/174 120/70/175
f 130/68/177 131/69/176 119/69/178
f 119/69/178 131/69/176 120/70/175
f 129/67/166 130/68/177 118/68/179
f 118/68/179 130/68/177 119/69/178
f 117/67/164 129/67/166 118/68/179
f 113/62/153 127/62/156 114/64/172
f 141/74/128 138/75/128 139/74/128
f 138/75/128 140/75/128 139/74/128
f 142/76/180 138/75/181 141/74/181
f 143/77/182 142/76/180 141/74/181
f 144/78/183 142/76/180 143/77/182
f 145/78/184 144/78/184 146/79/184
f 146/79/183 144/78/183 143/77/182
f 147/79/184 145/78/184 146/79/184
f 147/79/185 146/79/185 143/77/185
f 149/77/186 148/76/187 147/79/188
f 148/76/187 145/78/188 147/79/188
f 149/77/185 147/79/185 141/74/185
f 141/74/185 147/79/185 143/77/185
f 140/75/189 148/76/187 149/77/186
f 139/74/189 140/75/189 149/77/186
f 139/74/185 149/77/185 141/74/185
o blade_fragment
v -285.119080 -26.426998 -0.480298
v -290.956177 -27.484396 0.000002
v -285.119080 -26.426998 0.480302
v -288.616180 -21.933998 0.000002
v -281.382874 -20.574398 -0.566298
v -225.926285 -15.527596 -0.480299
v -226.511765 -10.821397 -0.566299
v -225.926285 -15.527596 0.480301
v -170.362167 -3.336299 -0.566300
v -169.955399 -8.066399 -0.480299
v -169.955399 -8.066399 0.480301
v -110.010292 1.677401 -0.566300
v -109.795486 -3.068699 -0.480300
v -109.795486 -3.068699 0.480300
v -110.010292 1.677401 0.566300
v -170.362167 -3.336299 0.566300
v -226.511765 -10.821397 0.566301
v -170.769089 1.393899 -0.000000
v -227.097382 -6.114900 0.000000
v -281.382874 -20.574398 0.566302
v -283.795776 -16.482498 0.000001
v -110.225189 6.423399 -0.000000
vn -0.0571 0.0202 -0.9982
vn -0.0887 0.0374 -0.9954
vn -0.0891 0.0532 -0.9946
vn 0.1797 -0.9837 -0.0000
vn 0.1783 -0.9840 -0.0000
vn 0.1648 -0.9863 -0.0000
vn -0.0360 0.0548 -0.9978
vn 0.0028 -0.0179 -0.9998
vn -0.0093 0.0634 -0.9979
vn -0.0049 0.0501 -0.9987
vn 0.1485 -0.9889 -0.0000
vn 0.1157 -0.9933 -0.0000
vn 0.0020 -0.0180 -0.9998
vn -0.0023 0.0274 -0.9996
vn 0.0992 -0.9951 -0.0000
vn 0.0828 -0.9966 -0.0000
vn 0.0015 -0.0180 -0.9998
vn -0.0060 0.0728 0.9973
vn -0.0059 0.0502 0.9987
vn 0.0015 -0.0180 0.9998
vn 0.0020 -0.0180 0.9998
vn -0.0187 0.1189 0.9927
vn -0.0057 0.0362 0.9993
vn -0.0118 0.1179 0.9930
vn -0.0196 0.1194 -0.9927
vn -0.0582 0.1031 -0.9930
vn -0.0582 0.1031 0.9930
vn -0.0361 0.0549 0.9978
vn -0.0136 0.1177 -0.9930
vn -0.0891 0.0532 0.9946
vn -0.0571 0.0202 0.9982
vn 0.0028 -0.0179 0.9998
vn -0.0098 0.1180 -0.9930
vn -0.0098 0.1180 0.9930
vn -0.0887 0.0374 0.9954
vt 0.027074 0.981216
vt 0.011719 0.988281
vt 0.017874 0.951195
vt 0.182787 0.908389
vt 0.036902 0.942111
vt 0.181247 0.876944
vt 0.328954 0.826930
vt 0.330024 0.858536
vt 0.487716 0.793430
vt 0.488281 0.825142
vt 0.179706 0.845496
vt 0.327884 0.795324
vt 0.030555 0.914770
vt 0.487151 0.761719
s 1
f 150/80/190 151/81/191 153/82/192
f 150/80/193 152/80/193 151/81/194
f 152/80/193 150/80/193 155/83/195
f 154/84/196 150/80/190 153/82/192
f 150/80/190 154/84/196 155/83/197
f 154/84/196 156/85/198 155/83/197
f 155/83/197 156/85/198 158/86/199
f 157/83/200 155/83/195 159/87/201
f 157/83/200 152/80/193 155/83/195
f 159/87/202 155/83/197 158/86/199
f 159/87/202 158/86/199 161/88/203
f 160/87/204 159/87/201 162/89/205
f 160/87/204 157/83/200 159/87/201
f 162/89/206 159/87/202 161/88/203
f 163/89/205 160/87/204 162/89/205
f 164/88/207 165/86/208 163/89/209
f 165/86/208 160/87/210 163/89/209
f 168/90/211 166/85/212 165/86/208
f 165/86/208 166/85/212 160/87/210
f 167/91/213 165/86/208 164/88/207
f 167/91/213 168/90/211 165/86/208
f 156/85/198 154/84/196 168/90/214
f 154/84/196 170/92/215 168/90/214
f 170/92/216 169/84/217 168/90/211
f 169/84/217 166/85/212 168/90/211
f 156/85/198 168/90/214 167/91/218
f 169/84/217 170/92/216 153/82/219
f 170/92/215 154/84/196 153/82/192
f 152/80/220 169/84/217 153/82/219
f 166/85/212 169/84/217 157/83/221
f 169/84/217 152/80/220 157/83/221
f 158/86/199 167/91/218 171/93/222
f 158/86/199 156/85/198 167/91/218
f 171/93/223 167/91/213 164/88/207
f 161/88/203 158/86/199 171/93/222
f 166/85/212 157/83/221 160/87/210
f 151/81/224 152/80/220 153/82/219
o sheath
v -35.374783 -4.622668 -3.483364
v -109.539787 -6.437832 3.857580
v -35.374783 -4.622667 3.483364
v -109.539787 -6.437833 -3.857579
v -110.059372 2.344676 -6.465956
v -35.150272 3.709559 -5.343424
v -35.150272 3.709560 5.343423
v -110.059372 2.344676 6.465956
v -35.584221 12.049485 3.483363
v -35.584221 12.049485 -3.483365
v -110.579048 11.127186 3.857579
v -171.314194 5.989187 3.857579
v -110.579048 11.127186 -3.857581
v -171.314194 5.989186 -3.857580
v -227.789032 -2.082219 -3.857580
v -226.514862 -10.779902 -6.465955
v -170.404526 -2.760676 -6.465956
v -169.495087 -11.510421 -3.857579
v -225.240891 -19.477468 -3.857579
v -293.737366 -33.798824 -3.735313
v -293.737366 -33.798824 3.735318
v -225.240891 -19.477468 3.857581
v -226.514862 -10.779901 6.465957
v -169.495087 -11.510421 3.857581
v -170.404526 -2.760675 6.465956
v -227.789032 -2.082219 3.857580
v -297.122711 -16.274298 -3.735315
v -297.122711 -16.274298 3.735317
v -295.774292 -25.118654 5.729938
v -295.774292 -25.118654 -5.729934
v -35.318840 -4.141776 -2.735048
v -35.474915 10.411451 -2.735049
v -35.318840 -4.141776 2.735048
v -35.474915 10.411451 2.735047
v -35.403614 3.762916 -4.221008
v -35.403614 3.762916 4.221007
v -293.368896 -31.964571 -2.735046
v -296.226044 -17.417904 -2.735047
v -293.368896 -31.964571 2.735050
v -296.226044 -17.417904 2.735049
v -294.797394 -24.691242 -4.221006
v -294.797394 -24.691242 4.221010
v -225.448196 -17.983685 -2.735047
v -227.604218 -3.293911 -2.735048
v -225.448196 -17.983685 2.735049
v -227.604218 -3.293910 2.735048
v -226.526108 -10.638916 -4.221007
v -226.526108 -10.638916 4.221009
v -169.641464 -10.049451 -2.735047
v -171.188583 4.726753 -2.735048
v -169.641464 -10.049451 2.735049
v -171.188583 4.726753 2.735048
v -170.414963 -2.661406 -4.221008
v -170.414963 -2.661405 4.221008
v -109.620605 -5.016171 -2.735048
v -110.512978 9.815059 -2.735049
v -109.620605 -5.016171 2.735049
v -110.512978 9.815059 2.735047
v -110.066750 2.399443 -4.221008
v -110.066750 2.399444 4.221008
v -293.368896 -31.964571 -2.735046
v -294.797394 -24.691242 -4.221006
v -293.368896 -31.964571 2.735050
v -294.797394 -24.691242 4.221010
v -296.226044 -17.417904 2.735049
v -296.226044 -17.417904 -2.735047
v -93.235199 -4.707600 -3.134204
v -93.235199 -4.707600 3.134320
v -93.462303 3.188548 -5.019436
v -89.867874 3.222572 -5.019436
v -89.741592 -4.674607 -3.134204
v -89.741592 -4.674607 3.134320
v -93.462303 3.188549 5.019435
v -89.867874 3.222573 5.019435
v -89.994171 11.119751 -3.134321
v -89.994171 11.119751 3.134203
v -93.689316 11.084810 3.134203
v -93.689316 11.084810 -3.134321
vn 0.0629 -0.9980 -0.0000
vn 0.0245 -0.9997 -0.0000
vn 0.0459 -0.9989 -0.0000
vn 1.0000 -0.0027 -0.0000
vn 0.9996 -0.0269 -0.0000
vn 0.0158 -0.2520 -0.9676
vn 0.0179 -0.2837 -0.9588
vn 0.0084 -0.0413 -0.9991
vn 0.0151 -0.0024 -0.9999
vn 0.9996 0.0277 -0.0000
vn 0.0151 -0.0024 0.9999
vn 0.0063 0.2524 0.9676
vn 0.0027 0.0429 0.9991
vn 0.0158 -0.2520 0.9676
vn 0.9986 0.0520 -0.0000
vn -0.0123 0.9999 -0.0000
vn -0.0484 0.9988 -0.0000
vn -0.0114 0.2841 0.9587
vn -0.0298 0.2827 0.9587
vn -0.1047 0.9945 -0.0000
vn -0.1211 0.9926 -0.0000
vn -0.1625 0.9867 -0.0000
vn -0.0085 0.0419 -0.9991
vn -0.0494 0.2803 -0.9587
vn -0.0344 0.2822 -0.9587
vn 0.0023 0.0010 -1.0000
vn -0.0149 0.2839 -0.9587
vn 0.0298 -0.2827 -0.9587
vn 0.0463 -0.2808 -0.9587
vn 0.2047 -0.9788 -0.0000
vn 0.1822 -0.9833 -0.0000
vn 0.0449 -0.2486 -0.9676
vn 0.1641 -0.9864 -0.0000
vn 0.1211 -0.9926 -0.0000
vn 0.0017 -0.0418 0.9991
vn 0.0486 -0.2804 0.9587
vn 0.0344 -0.2822 0.9587
vn 0.0449 -0.2486 0.9676
vn 0.1048 -0.9945 -0.0000
vn -0.0026 0.0004 1.0000
vn 0.0196 -0.2836 0.9587
vn -0.0467 0.2807 0.9587
vn -0.1796 0.9837 -0.0000
vn -0.2005 0.9797 -0.0000
vn -0.0568 0.2461 0.9676
vn -0.9846 -0.1748 -0.0000
vn -0.9886 -0.1507 -0.0000
vn -0.0093 -0.0073 0.9999
vn -0.9788 -0.2046 -0.0000
vn -0.9736 -0.2285 -0.0000
vn -0.0093 -0.0073 -0.9999
vn -0.0568 0.2461 -0.9676
vn 0.0063 0.2524 -0.9676
vn 0.0396 -0.1925 -0.9805
vn -0.0103 0.0613 -0.9981
vn 0.0016 0.0009 -1.0000
vn 0.0321 -0.1937 -0.9805
vn 0.0119 -0.0700 0.9975
vn 0.0396 -0.1925 0.9805
vn 0.0355 -0.1931 0.9805
vn -0.0019 0.0002 1.0000
vn 0.2016 -0.9795 -0.0000
vn 0.1800 -0.9837 -0.0000
vn 0.1625 -0.9867 -0.0000
vn -0.0396 0.1925 -0.9805
vn -0.0353 0.1931 -0.9805
vn -0.2016 0.9795 -0.0000
vn -0.1800 0.9837 -0.0000
vn -0.0396 0.1925 0.9805
vn -0.0319 0.1937 0.9805
vn 0.0016 0.0007 -1.0000
vn 0.0205 -0.1951 -0.9806
vn 0.0237 -0.1947 0.9806
vn -0.0017 0.0003 1.0000
vn 0.1204 -0.9927 -0.0000
vn 0.1040 -0.9946 -0.0000
vn -0.0236 0.1947 -0.9806
vn -0.1204 0.9927 -0.0000
vn -0.1040 0.9946 -0.0000
vn -0.0204 0.1951 0.9806
vn 0.0021 0.0045 -1.0000
vn 0.0077 -0.1921 -0.9813
vn 0.0114 -0.1958 0.9806
vn -0.0024 0.0340 0.9994
vn 0.0580 -0.9983 -0.0000
vn 0.0374 -0.9993 -0.0000
vn -0.0111 0.1958 -0.9806
vn -0.0458 0.9990 -0.0000
vn -0.0090 0.1959 0.9806
vn 0.0029 -0.1906 0.9817
vn -0.0002 0.0146 0.9999
vn 0.0118 -0.9999 -0.0000
vn -0.0027 0.2071 0.9783
vn -0.0079 1.0000 -0.0000
vn -0.0027 0.2071 -0.9783
vn 0.0021 -0.0578 -0.9983
vn 0.0022 -0.1847 -0.9828
vn 0.9999 0.0107 -0.0000
vn -0.9813 -0.1927 -0.0000
vn -0.9812 -0.1927 -0.0000
vn 0.0094 -1.0000 -0.0000
vn -0.9996 -0.0287 -0.0000
vn 0.0022 -0.2322 -0.9727
vn -0.0024 0.0840 -0.9965
vn 0.0037 -0.0843 -0.9964
vn -0.0033 0.0740 0.9972
vn 0.0022 -0.0743 0.9972
vn 0.0022 -0.2322 0.9727
vn 0.9999 0.0160 -0.0000
vn -0.0022 0.2322 0.9727
vn -0.0095 1.0000 -0.0000
vn -0.0022 0.2321 -0.9727
vt 0.352875 0.633003
vt 0.487720 0.624855
vt 0.488281 0.599537
vt 0.352092 0.606343
vt 0.487645 0.574219
vt 0.351308 0.579684
vt 0.240814 0.597448
vt 0.138009 0.623971
vt 0.140166 0.650346
vt 0.242306 0.623994
vt 0.243799 0.650540
vt 0.142322 0.676721
vt 0.017551 0.722656
vt 0.011719 0.669544
vt 0.014008 0.696362
vt 0.016650 0.722656
vt 0.014184 0.699027
vt 0.139093 0.650501
vt 0.140917 0.674377
vt 0.011719 0.675397
vt 0.137269 0.626624
vt 0.241684 0.622251
vt 0.242951 0.646281
vt 0.240416 0.598221
vt 0.351952 0.603328
vt 0.352622 0.627461
vt 0.351283 0.579196
vt 0.488281 0.621609
vt 0.488281 0.595868
vt 0.488281 0.574219
vt 0.628906 0.511340
vt 0.628906 0.394910
vt 0.687500 0.542969
vt 0.687500 0.363281
vt 0.746094 0.394910
vt 0.746094 0.511340
vt 0.629684 0.397023
vt 0.628906 0.397023
vt 0.628906 0.509225
vt 0.687088 0.542969
vt 0.687889 0.542969
vt 0.629684 0.509225
vt 0.687889 0.363281
vt 0.687088 0.363281
vt 0.745271 0.397025
vt 0.746094 0.509227
vt 0.746094 0.397025
vt 0.745271 0.509227
s 1
f 175/94/225 172/95/226 173/94/227
f 172/95/226 174/95/226 173/94/227
f 178/96/228 174/95/229 172/95/229
f 172/95/230 175/94/231 176/97/232
f 177/96/233 172/95/230 176/97/232
f 177/96/234 178/96/228 172/95/229
f 178/96/235 180/98/236 179/97/237
f 174/95/238 178/96/235 179/97/237
f 180/98/239 178/96/228 177/96/234
f 181/98/239 180/98/239 177/96/234
f 180/98/240 181/98/240 182/99/241
f 180/98/236 182/99/242 179/97/237
f 182/99/242 183/100/243 179/97/237
f 185/100/244 183/100/245 182/99/241
f 181/98/240 184/99/241 182/99/241
f 184/99/241 185/100/244 182/99/241
f 185/100/244 186/101/246 183/100/245
f 187/102/247 186/101/248 185/100/249
f 188/103/250 187/102/247 185/100/249
f 188/103/250 185/100/249 184/99/251
f 176/97/232 188/103/250 184/99/251
f 189/104/252 188/103/250 176/97/232
f 190/105/253 187/102/247 188/103/250
f 189/104/252 190/105/253 188/103/250
f 192/106/254 191/106/254 190/105/255
f 190/105/253 191/106/256 187/102/247
f 193/105/257 192/106/254 190/105/255
f 193/105/257 190/105/255 189/104/258
f 194/102/259 193/105/260 195/104/261
f 192/106/262 193/105/260 194/102/259
f 195/104/263 193/105/257 189/104/258
f 196/103/264 194/102/259 195/104/261
f 195/104/263 189/104/258 175/94/225
f 196/103/264 195/104/261 173/94/265
f 173/94/227 195/104/263 175/94/225
f 183/100/243 196/103/264 179/97/237
f 183/100/243 197/101/266 196/103/264
f 197/101/266 194/102/259 196/103/264
f 179/97/237 196/103/264 173/94/265
f 186/101/246 197/101/267 183/100/245
f 186/101/246 198/107/268 197/101/267
f 198/107/268 199/107/268 197/101/267
f 197/101/266 199/107/269 194/102/259
f 200/108/270 199/107/271 198/107/271
f 199/107/269 200/108/272 194/102/259
f 201/108/273 200/108/270 198/107/271
f 192/106/274 200/108/270 201/108/273
f 200/108/272 192/106/262 194/102/259
f 191/106/274 192/106/274 201/108/273
f 191/106/256 201/108/275 187/102/247
f 201/108/275 198/107/276 187/102/247
f 198/107/276 186/101/248 187/102/247
f 175/94/231 189/104/252 176/97/232
f 184/99/251 181/98/277 176/97/232
f 181/98/277 177/96/233 176/97/232
f 173/94/265 174/95/238 179/97/237
f 208/109/278 212/110/279 218/111/280
f 214/112/281 208/109/278 218/111/280
f 213/110/282 210/109/283 216/112/284
f 219/111/285 213/110/282 216/112/284
f 210/109/286 208/109/286 214/112/287
f 216/112/288 210/109/286 214/112/287
f 212/110/279 209/113/289 215/114/290
f 218/111/280 212/110/279 215/114/290
f 209/113/291 211/113/291 217/114/292
f 215/114/246 209/113/291 217/114/292
f 211/113/293 213/110/282 219/111/285
f 217/114/294 211/113/293 219/111/285
f 214/112/281 218/111/280 224/115/295
f 220/116/296 214/112/281 224/115/295
f 219/111/285 216/112/284 222/116/297
f 225/115/298 219/111/285 222/116/297
f 216/112/288 214/112/287 220/116/299
f 222/116/300 216/112/288 220/116/299
f 218/111/280 215/114/290 221/117/301
f 224/115/295 218/111/280 221/117/301
f 215/114/246 217/114/292 223/117/302
f 221/117/303 215/114/246 223/117/302
f 217/114/294 219/111/285 225/115/298
f 223/117/304 217/114/294 225/115/298
f 220/116/296 224/115/295 230/118/305
f 226/119/306 220/116/296 230/118/305
f 225/115/298 222/116/297 228/119/307
f 231/118/308 225/115/298 228/119/307
f 222/116/300 220/116/299 226/119/309
f 228/119/310 222/116/300 226/119/309
f 224/115/295 221/117/301 227/120/311
f 230/118/305 224/115/295 227/120/311
f 221/117/303 223/117/302 229/120/312
f 227/120/312 221/117/303 229/120/312
f 223/117/304 225/115/298 231/118/308
f 229/120/313 223/117/304 231/118/308
f 204/121/314 207/122/315 231/118/308
f 228/119/307 204/121/314 231/118/308
f 202/121/316 204/121/316 228/119/310
f 226/119/309 202/121/316 228/119/310
f 205/123/317 229/120/313 231/118/308
f 207/122/315 205/123/317 231/118/308
f 203/123/318 227/120/312 229/120/312
f 205/123/318 203/123/318 229/120/312
f 203/123/319 206/122/320 230/118/305
f 227/120/311 203/123/319 230/118/305
f 206/122/320 202/121/321 226/119/306
f 230/118/305 206/122/320 226/119/306
f 205/123/322 207/122/322 206/122/322
f 203/123/322 205/123/322 206/122/322
f 207/122/322 204/121/322 202/121/322
f 206/122/322 207/122/322 202/121/322
f 232/124/323 234/125/323 233/126/323
f 234/125/323 235/127/323 233/126/323
f 235/127/323 236/128/324 237/129/323
f 233/126/323 235/127/323 237/129/323
f 243/130/325 239/131/325 238/132/325
f 239/131/326 240/133/326 238/132/326
f 238/132/327 240/133/328 241/134/329
f 242/135/327 238/132/327 241/134/329
f 242/135/325 243/130/325 238/132/325
f 245/136/330 244/137/331 243/130/332
f 244/137/331 239/131/332 243/130/332
f 242/135/333 241/134/333 243/130/333
f 245/136/333 243/130/333 241/134/333
f 248/138/334 244/137/331 245/136/330
f 246/139/333 245/136/333 241/134/333
f 246/139/333 247/140/333 245/136/333
f 247/140/334 248/138/334 245/136/330
f 249/141/335 248/138/335 247/140/335
f 249/141/326 240/133/326 248/138/326
f 248/138/326 240/133/326 244/137/326
f 240/133/328 249/141/336 246/139/336
f 246/139/335 249/141/335 247/140/335
f 241/134/329 240/133/328 246/139/336
f 240/133/326 239/131/326 244/137/326
o item_blade
v 26.590300 22.520599 11.862098
v 26.590300 22.520599 5.647598
v 33.175800 18.257101 13.730999
v 34.370899 19.927902 13.730998
v 27.751900 24.144600 11.862098
v 27.751900 24.144600 5.647598
v 34.370899 19.927900 3.778699
v 33.175800 18.257099 3.778699
v 39.761299 13.993600 5.647699
v 39.761299 13.993601 11.862199
v 40.990002 15.711200 5.647699
v 40.990002 15.711201 11.862199
v 0.000000 70.710701 -0.000005
v 70.710701 0.000000 0.000000
v 0.000000 55.656200 3.999996
v -55.656101 0.000000 4.000000
v -70.710701 0.000000 0.000000
v 0.000000 -55.656101 4.000004
v 0.000000 -70.710602 0.000005
v 55.656200 0.000000 4.000000
v 0.000000 70.710701 -0.000005
v 0.000000 55.656200 -4.000004
v 70.710701 0.000000 0.000000
v -55.656101 -0.000000 -4.000000
v -70.710701 0.000000 0.000000
v 0.000000 -55.656101 -3.999996
v 0.000000 -70.710602 0.000005
v 55.656200 -0.000000 -4.000000
v 0.000000 70.710701 -0.000005
v 70.710701 0.000000 0.000000
v 0.000000 55.656200 3.999996
v -55.656101 0.000000 4.000000
v -70.710701 0.000000 0.000000
v 0.000000 -55.656101 4.000004
v 0.000000 -70.710602 0.000005
v 55.656200 0.000000 4.000000
v 0.000000 70.710701 -0.000005
v 0.000000 55.656200 -4.000004
v 70.710701 0.000000 0.000000
v -55.656101 -0.000000 -4.000000
v -70.710701 0.000000 0.000000
v 0.000000 -55.656101 -3.999996
v 0.000000 -70.710602 0.000005
v 55.656200 -0.000000 -4.000000
v 0.000000 70.710701 -0.000005
v 70.710701 0.000000 0.000000
v 0.000000 55.656200 3.999996
v -55.656101 0.000000 4.000000
v -70.710701 0.000000 0.000000
v 0.000000 -55.656101 4.000004
v 0.000000 -70.710602 0.000005
v 55.656200 0.000000 4.000000
v 0.000000 70.710701 -0.000005
v 0.000000 55.656200 -4.000004
v 70.710701 0.000000 0.000000
v -55.656101 -0.000000 -4.000000
v -70.710701 0.000000 0.000000
v 0.000000 -55.656101 -3.999996
v 0.000000 -70.710602 0.000005
v 55.656200 -0.000000 -4.000000
v -46.676559 46.324772 11.839538
v -74.329185 84.676247 19.346458
v -74.329185 84.676247 11.839535
v -46.676449 46.324776 19.346460
v -45.763588 44.960823 19.346460
v -45.763474 44.960831 11.839538
v -55.513004 40.023823 9.683680
v -81.825066 79.331238 9.683677
v -54.600033 38.659874 9.683680
v -63.008770 34.678822 11.839539
v -89.320831 73.986237 11.839536
v -63.008770 34.678822 19.346462
v -89.320831 73.986237 19.346458
v -81.824951 79.331238 21.502321
v -55.513008 40.023708 21.502323
v -54.600033 38.659874 21.502323
v -62.095795 33.314873 19.346462
v -62.095795 33.314873 11.839539
v -47.798500 41.051300 14.918697
v -27.466995 4.206796 14.797900
v -53.285400 37.254799 14.797897
v -22.058901 8.101798 14.918699
v -47.798500 41.051300 16.267296
v -22.058901 8.101798 16.267300
v -53.285400 37.254799 16.388098
v -27.466995 4.206797 16.388100
v -58.772202 33.458500 15.592998
v -32.874901 0.311898 15.593000
v -1.555196 -20.871008 14.797902
v -6.880899 -24.846003 15.593002
v 20.570107 -45.991600 15.593004
v 25.808802 -41.949608 14.797903
v -1.555194 -20.871107 16.388102
v 3.770404 -16.896307 16.267302
v 25.808802 -41.949608 16.388103
v 31.047199 -37.907799 16.267303
v 55.364910 -60.600220 16.388103
v 51.445110 -65.031906 15.593005
v 63.368004 -57.725311 16.267303
v 59.346508 -62.999809 15.593005
v 63.367912 -57.725304 14.918705
v 55.364910 -60.600220 14.797905
v 66.535027 -59.693413 15.593005
v 31.047199 -37.907799 14.918703
v 3.770404 -16.896307 14.918701
v -54.627403 38.709583 16.110603
v -46.713299 26.803337 31.028873
v -36.580017 34.208462 30.812889
v -32.257355 44.303913 24.804623
v -36.254745 51.360943 16.460836
v -41.159950 57.696991 8.023234
v -51.993488 57.396824 1.758672
v -62.541721 50.615822 1.192434
v -72.680473 43.209946 1.405809
v -76.994507 33.115051 7.418729
v -73.000168 26.058218 15.760420
v -68.094215 19.725233 24.195791
v -57.264263 20.017660 30.465174
v -67.477905 18.835438 23.162462
v -56.644279 19.135479 29.427351
v -46.096172 25.916351 29.993578
v -54.010380 37.822590 15.075360
v -51.373508 56.514557 0.720760
v -61.924591 49.728836 0.157141
v -72.057907 42.323711 0.373109
v -76.380409 32.228367 6.381419
v -35.957344 33.322247 29.780125
v -72.383041 25.171232 14.725127
v -31.643345 43.417210 23.767284
v -35.637619 50.473953 15.425543
v -40.543732 56.807079 6.989965
v -48.378101 43.891602 14.049597
v -45.475899 39.865200 17.136396
v -48.378201 43.891602 17.136396
v -45.475899 39.865200 14.049597
v -55.037899 39.283600 13.773597
v -52.135700 35.257099 13.773597
v -60.990002 35.165298 14.577897
v -60.990002 35.165298 16.608099
v -58.087700 31.138903 14.577898
v -58.087799 31.138903 16.608099
v -55.037899 39.283501 17.412395
v -52.135700 35.257099 17.412397
v 45.995564 50.179817 10.806144
v 21.625647 10.547035 4.515466
v 45.995564 50.179817 4.515463
v 21.625647 10.547036 10.806147
v 52.218536 45.557850 12.514939
v 52.218536 45.557850 2.806668
v 27.726444 5.728233 2.806671
v 58.441509 40.936001 4.515464
v 58.441509 40.936001 10.806145
v 33.827038 0.909548 4.515467
v 10.356174 -29.311417 4.515470
v 33.827038 0.909548 10.806148
v 10.356174 -29.311417 10.806149
v -14.235734 -55.381748 10.806151
v -20.077209 -50.258968 12.514947
v 4.382148 -24.329546 12.514945
v -25.918377 -45.136581 10.806151
v 27.726444 5.728234 12.514943
v -1.591773 -19.347794 10.806149
v -25.918377 -45.136581 4.515471
v -1.591773 -19.347794 4.515469
v 4.382148 -24.329546 2.806674
v -20.077209 -50.258968 2.806675
v -14.235734 -55.381748 4.515471
v -47.824913 -84.398811 4.515473
v -53.495159 -79.127541 2.806678
v -59.165401 -73.856384 4.515473
v -59.165401 -73.856384 10.806153
v -53.495159 -79.127541 12.514949
v -47.824913 -84.398811 10.806154
v -59.530998 -58.415699 11.466405
v -53.878399 -62.941700 12.939505
v -59.530998 -58.415699 6.043404
v -53.878399 -62.941700 4.570305
v -48.225800 -67.467796 11.466405
v -48.225800 -67.467796 6.043405
vn -0.8134 0.5818 -0.0000
vn -0.5435 -0.8394 -0.0000
vn -0.1887 0.1350 0.9727
vn 0.0644 -0.0461 0.9969
vn -0.0644 0.0461 0.9969
vn 0.0644 -0.0461 -0.9969
vn -0.0644 0.0461 -0.9969
vn -0.1887 0.1350 -0.9727
vn 0.5373 0.8434 -0.0000
vn 0.1887 -0.1350 -0.9727
vn 0.8133 -0.5818 -0.0000
vn 0.1887 -0.1350 0.9727
vn 0.2559 0.0853 0.9629
vn -0.0853 0.2559 0.9629
vn 0.0639 0.1919 0.9793
vn -0.1532 0.0510 0.9869
vn -0.2558 -0.0853 0.9629
vn -0.0639 -0.1919 0.9793
vn 0.0853 -0.2559 0.9629
vn 0.1531 -0.0510 0.9869
vn 0.0639 0.1919 -0.9793
vn -0.1531 0.0510 -0.9869
vn -0.0853 0.2559 -0.9629
vn 0.2559 0.0853 -0.9629
vn -0.2558 -0.0853 -0.9629
vn -0.0639 -0.1919 -0.9793
vn 0.0853 -0.2559 -0.9629
vn 0.1532 -0.0510 -0.9869
vn 0.8212 0.5706 -0.0000
vn 0.8212 0.5707 -0.0000
vn 0.8111 0.5849 -0.0000
vn 0.1600 0.1112 -0.9808
vn 0.0153 0.0108 -0.9998
vn 0.1738 0.1198 -0.9775
vn 0.8310 0.5562 -0.0000
vn 0.8310 0.5563 -0.0000
vn 0.1620 0.1084 -0.9808
vn 0.0036 0.0024 -1.0000
vn -0.1896 -0.1269 -0.9736
vn -0.0757 -0.0532 -0.9957
vn -0.8310 -0.5563 -0.0000
vn -0.5806 0.8142 -0.0000
vn -0.0597 -0.0427 0.9973
vn -0.1895 -0.1269 0.9736
vn -0.1896 -0.1269 0.9736
vn -0.0100 -0.0053 0.9999
vn 0.1738 0.1198 0.9775
vn 0.0411 0.0300 0.9987
vn 0.1605 0.1104 0.9808
vn -0.8310 -0.5562 -0.0000
vn 0.1620 0.1084 0.9808
vn 0.0135 0.0123 -0.9998
vn -0.0205 -0.0185 -0.9996
vn 0.0143 0.0112 -0.9998
vn -0.0576 -0.0450 -0.9973
vn 0.7435 0.6687 -0.0000
vn 0.7880 0.6156 -0.0000
vn 0.7434 0.6689 -0.0000
vn 0.0135 0.0123 0.9998
vn 0.0143 0.0112 0.9998
vn -0.0217 -0.0169 0.9996
vn -0.0546 -0.0492 0.9973
vn -0.0934 -0.0730 0.9930
vn -0.0889 -0.0792 0.9929
vn -0.0934 -0.0730 0.9929
vn -0.0886 -0.0796 -0.9929
vn -0.0934 -0.0730 -0.9930
vn -0.0346 -0.0381 -0.9987
vn -0.0780 -0.0940 -0.9925
vn -0.0808 -0.0904 0.9926
vn -0.0394 -0.0544 -0.9977
vn -0.0713 -0.1067 -0.9917
vn -0.0723 -0.1045 0.9919
vn -0.0329 -0.0402 0.9987
vn 0.0121 0.0142 0.9998
vn -0.0220 -0.0318 0.9993
vn 0.0036 -0.1013 0.9949
vn 0.0105 0.0156 0.9998
vn -0.0065 -0.1710 0.9852
vn 0.0763 -0.2020 0.9764
vn 0.0604 -0.1222 0.9907
vn 0.0036 -0.1013 -0.9949
vn 0.0604 -0.1222 -0.9907
vn 0.0763 -0.2020 -0.9764
vn 0.0885 -0.1924 -0.9773
vn -0.0065 -0.1710 -0.9852
vn 0.0885 -0.1924 0.9773
vn 0.5251 0.8510 -0.0000
vn 0.5246 0.8513 -0.0000
vn 0.5278 0.8494 -0.0000
vn 0.0107 0.0155 -0.9998
vn 0.5818 0.8133 -0.0000
vn 0.5526 0.8335 -0.0000
vn 0.6395 0.7688 -0.0000
vn 0.0121 0.0142 -0.9998
vn 0.6680 0.7442 -0.0000
vn -0.4164 0.5900 0.6918
vn -0.4170 0.5895 0.6918
vn -0.4165 0.5880 0.6934
vn -0.4185 0.5886 0.6917
vn -0.4182 0.5906 0.6901
vn -0.6573 -0.7189 0.2264
vn -0.5119 -0.7778 0.3646
vn -0.0316 -0.7708 0.6364
vn 0.1057 -0.7255 0.6801
vn 0.3344 -0.6082 0.7199
vn 0.4303 -0.5423 0.7216
vn 0.4164 -0.5900 -0.6918
vn 0.4170 -0.5895 -0.6918
vn 0.4182 -0.5906 -0.6901
vn 0.4165 -0.5880 -0.6934
vn 0.4185 -0.5886 -0.6917
vn 0.6581 0.7184 -0.2256
vn 0.5103 0.7782 -0.3660
vn 0.0329 0.7711 -0.6359
vn 0.7795 0.6226 -0.0697
vn -0.1061 0.7253 -0.6802
vn 0.8642 0.4951 0.0900
vn 0.9070 0.3432 0.2441
vn 0.9068 0.1838 0.3795
vn 0.7145 -0.2567 0.6509
vn -0.8641 -0.4952 -0.0899
vn -0.7794 -0.6227 0.0698
vn -0.9068 -0.3442 -0.2433
vn 0.6217 -0.3688 0.6910
vn -0.9065 -0.1821 -0.3808
vn -0.7153 0.2555 -0.6504
vn -0.4306 0.5421 -0.7216
vn -0.6214 0.3692 -0.6911
vn -0.3341 0.6084 -0.7199
vn 0.8112 0.5847 -0.0000
vn -0.0115 -0.0083 -0.9999
vn 0.0276 0.0199 -0.9994
vn -0.0506 -0.0365 -0.9980
vn -0.0896 -0.0646 -0.9939
vn -0.8112 -0.5847 -0.0000
vn 0.5690 -0.8223 -0.0000
vn 0.5690 -0.8223 0.0001
vn -0.0506 -0.0365 0.9981
vn -0.0896 -0.0646 0.9939
vn -0.0115 -0.0083 0.9999
vn 0.0276 0.0199 0.9994
vn -0.8112 0.5848 -0.0000
vn -0.8518 0.5238 -0.0000
vn -0.8326 0.5538 -0.0000
vn 0.5963 0.8028 -0.0000
vn -0.0669 0.0532 0.9963
vn -0.1841 0.1132 0.9764
vn -0.1792 0.1184 0.9767
vn 0.5962 0.8028 -0.0000
vn -0.0153 0.0105 -0.9998
vn 0.1841 -0.1132 -0.9764
vn 0.0237 -0.0172 -0.9996
vn -0.1841 0.1132 -0.9764
vn 0.8518 -0.5238 -0.0000
vn 0.8220 -0.5695 -0.0000
vn 0.1764 -0.1231 -0.9766
vn 0.1641 -0.1377 -0.9768
vn 0.7698 -0.6382 -0.0000
vn 0.7489 -0.6627 -0.0000
vn 0.7034 -0.7108 -0.0000
vn 0.0041 0.0036 1.0000
vn 0.1467 -0.1594 0.9762
vn 0.1608 -0.1431 0.9766
vn 0.0025 0.0034 1.0000
vn 0.1744 -0.1265 0.9765
vn -0.1651 0.1361 0.9768
vn -0.1514 0.1521 0.9767
vn 0.0028 0.0040 1.0000
vn -0.7034 0.7108 -0.0000
vn -0.6794 0.7338 -0.0000
vn -0.7489 0.6626 -0.0000
vn -0.7698 0.6382 -0.0000
vn -0.0006 -0.0015 -1.0000
vn -0.1617 0.1416 -0.9766
vn -0.1755 0.1248 -0.9765
vn -0.0011 -0.0025 -1.0000
vn -0.1477 0.1577 -0.9764
vn -0.0297 0.0424 -0.9987
vn 0.1505 -0.1537 -0.9766
vn 0.1417 -0.1640 -0.9762
vn -0.1417 0.1640 -0.9762
vn -0.6537 0.7568 -0.0000
vn -0.1417 0.1640 0.9762
vn 0.0457 -0.0761 0.9961
vn 0.1417 -0.1640 0.9762
vn 0.6537 -0.7567 -0.0000
vn 0.6794 -0.7338 -0.0000
vn 0.1841 -0.1132 0.9764
vn -0.6250 -0.7806 -0.0000
vt 0.638360 0.363281
vt 0.628906 0.392028
vt 0.682500 0.467499
vt 0.692226 0.437923
vt 0.736094 0.542969
vt 0.746094 0.512565
vt 0.976562 0.023438
vt 0.095226 0.374655
vt 0.095226 0.374655
vt 0.363281 0.482039
vt 0.055192 0.405964
vt 0.085714 0.371094
vt 0.085714 0.371094
vt 0.329321 0.508598
vt 0.295360 0.535156
vt 0.045679 0.402403
vt 0.021231 0.432522
vt 0.329321 0.508597
vt 0.055191 0.405964
vt 0.011719 0.428961
vt 0.151345 0.832089
vt 0.130777 0.840408
vt 0.053453 0.761719
vt 0.032586 0.769827
vt 0.011719 0.777935
vt 0.110210 0.848726
vt 0.229324 0.893967
vt 0.209069 0.902456
vt 0.333393 0.938984
vt 0.313470 0.947617
vt 0.229324 0.893967
vt 0.249578 0.885478
vt 0.445800 0.978816
vt 0.353316 0.930352
vt 0.430892 0.988281
vt 0.460942 0.983941
vt 0.476237 0.972677
vt 0.476236 0.972677
vt 0.488281 0.976880
vt 0.454238 0.375317
vt 0.498319 0.363281
vt 0.498320 0.453125
vt 0.542401 0.375317
vt 0.574672 0.408202
vt 0.586483 0.453125
vt 0.574672 0.498048
vt 0.542401 0.530933
vt 0.498319 0.542969
vt 0.454238 0.530933
vt 0.421968 0.498048
vt 0.410156 0.453125
vt 0.421968 0.408204
vt 0.425328 0.408204
vt 0.457599 0.375317
vt 0.501680 0.363281
vt 0.501680 0.453125
vt 0.501680 0.542969
vt 0.545762 0.530933
vt 0.578032 0.498048
vt 0.457598 0.530933
vt 0.425328 0.498048
vt 0.545762 0.375317
vt 0.413517 0.453125
vt 0.578032 0.408202
vt 0.589844 0.453125
vt 0.746094 0.420014
vt 0.724172 0.363281
vt 0.724171 0.363281
vt 0.673866 0.428209
vt 0.695788 0.484943
vt 0.628906 0.486236
vt 0.650829 0.542969
vt 0.650828 0.542969
vt 0.673866 0.428210
vt 0.339170 0.617919
vt 0.438130 0.574219
vt 0.463206 0.579277
vt 0.488281 0.584336
vt 0.363750 0.623195
vt 0.388328 0.628470
vt 0.293124 0.661814
vt 0.193447 0.690595
vt 0.169919 0.684984
vt 0.269059 0.656358
vt 0.244994 0.650903
vt 0.146392 0.679374
vt 0.034553 0.716881
vt 0.057387 0.722656
vt 0.011719 0.711106
vt 0.628906 0.363281
vt 0.687500 0.453124
vt 0.746094 0.542969
s 1
f 255/142/337 251/143/337 250/143/337
f 251/143/338 252/144/338 250/143/338
f 250/143/339 252/144/340 253/145/341
f 254/142/339 250/143/339 253/145/341
f 254/142/337 255/142/337 250/143/337
f 256/145/342 257/144/343 255/142/344
f 256/145/345 255/142/345 253/145/345
f 254/142/345 253/145/345 255/142/345
f 257/144/343 251/143/344 255/142/344
f 252/144/338 251/143/338 257/144/338
f 258/146/346 257/144/343 256/145/342
f 258/146/338 252/144/338 257/144/338
f 259/146/347 258/146/347 260/147/347
f 259/146/338 252/144/338 258/146/338
f 260/147/346 258/146/346 256/145/342
f 261/147/345 260/147/345 256/145/345
f 261/147/347 259/146/347 260/147/347
f 252/144/340 259/146/348 261/147/348
f 253/145/341 252/144/340 261/147/348
f 261/147/345 256/145/345 253/145/345
f 263/148/349 262/148/350 264/148/351
f 264/148/351 262/148/350 265/148/352
f 262/148/350 266/148/353 265/148/352
f 265/148/352 266/148/353 267/148/354
f 266/148/353 268/148/355 267/148/354
f 268/148/355 263/148/349 269/148/356
f 267/148/354 268/148/355 269/148/356
f 269/148/356 263/148/349 264/148/351
f 264/148/351 265/148/352 269/148/356
f 265/148/352 267/148/354 269/148/356
f 271/148/357 273/148/358 270/148/359
f 271/148/357 270/148/359 272/148/360
f 273/148/358 274/148/361 270/148/359
f 273/148/358 275/148/362 274/148/361
f 275/148/362 276/148/363 274/148/361
f 277/148/364 272/148/360 276/148/363
f 275/148/362 277/148/364 276/148/363
f 271/148/357 277/148/364 273/148/358
f 277/148/364 271/148/357 272/148/360
f 277/148/364 275/148/362 273/148/358
f 279/148/349 278/148/350 280/148/351
f 280/148/351 278/148/350 281/148/352
f 278/148/350 282/148/353 281/148/352
f 281/148/352 282/148/353 283/148/354
f 282/148/353 284/148/355 283/148/354
f 284/148/355 279/148/349 285/148/356
f 283/148/354 284/148/355 285/148/356
f 280/148/351 281/148/352 285/148/356
f 285/148/356 279/148/349 280/148/351
f 281/148/352 283/148/354 285/148/356
f 287/148/357 289/148/358 286/148/359
f 287/148/357 286/148/359 288/148/360
f 289/148/358 290/148/361 286/148/359
f 289/148/358 291/148/362 290/148/361
f 291/148/362 292/148/363 290/148/361
f 293/148/364 288/148/360 292/148/363
f 291/148/362 293/148/364 292/148/363
f 293/148/364 287/148/357 288/148/360
f 287/148/357 293/148/364 289/148/358
f 293/148/364 291/148/362 289/148/358
f 295/148/349 294/148/350 296/148/351
f 296/148/351 294/148/350 297/148/352
f 294/148/350 298/148/353 297/148/352
f 297/148/352 298/148/353 299/148/354
f 298/148/353 300/148/355 299/148/354
f 300/148/355 295/148/349 301/148/356
f 299/148/354 300/148/355 301/148/356
f 301/148/356 295/148/349 296/148/351
f 296/148/351 297/148/352 301/148/356
f 297/148/352 299/148/354 301/148/356
f 303/148/357 305/148/358 302/148/359
f 303/148/357 302/148/359 304/148/360
f 305/148/358 306/148/361 302/148/359
f 305/148/358 307/148/362 306/148/361
f 307/148/362 308/148/363 306/148/361
f 309/148/364 304/148/360 308/148/363
f 307/148/362 309/148/364 308/148/363
f 303/148/357 309/148/364 305/148/358
f 309/148/364 303/148/357 304/148/360
f 309/148/364 307/148/362 305/148/358
f 313/149/365 310/150/366 311/151/367
f 310/150/366 312/151/367 311/151/367
f 310/150/368 316/152/369 312/151/370
f 310/150/366 313/149/365 314/153/371
f 315/154/372 310/150/366 314/153/371
f 316/152/369 310/150/368 315/154/373
f 317/155/374 316/152/369 320/156/375
f 316/152/369 317/155/374 312/151/370
f 318/157/376 316/152/369 315/154/373
f 319/158/375 316/152/369 318/157/376
f 316/152/369 319/158/375 320/156/375
f 319/158/377 321/158/377 320/156/377
f 321/158/377 322/156/377 320/156/377
f 317/155/378 320/156/378 322/156/378
f 323/159/379 322/156/380 321/158/381
f 323/159/378 317/155/378 322/156/378
f 312/151/378 317/155/378 323/159/378
f 324/160/382 323/159/379 321/158/381
f 311/151/383 323/159/379 324/160/382
f 311/151/378 312/151/378 323/159/378
f 324/160/382 321/158/381 326/161/381
f 325/157/384 324/160/382 326/161/381
f 313/149/385 324/160/382 325/157/384
f 313/149/385 311/151/383 324/160/382
f 326/161/386 321/158/377 327/161/386
f 321/158/377 319/158/377 327/161/386
f 327/161/375 319/158/375 318/157/376
f 314/153/387 313/149/385 325/157/384
f 331/162/388 329/163/389 328/164/390
f 329/163/389 330/165/391 328/164/390
f 331/162/392 328/164/393 332/164/393
f 333/162/392 331/162/394 332/164/393
f 333/162/395 332/164/396 334/165/397
f 335/163/398 333/162/395 334/165/397
f 335/163/398 334/165/397 336/166/399
f 337/167/400 335/163/398 336/166/401
f 337/167/402 336/166/403 330/165/391
f 329/163/389 337/167/402 330/165/391
f 329/163/389 338/168/404 337/167/402
f 338/168/404 339/169/405 337/167/402
f 337/167/400 339/169/406 335/163/398
f 341/170/407 340/171/408 339/169/405
f 339/169/406 340/171/409 342/172/410
f 338/168/404 341/170/407 339/169/405
f 339/169/406 342/172/410 335/163/398
f 342/172/410 343/173/411 333/162/395
f 342/172/410 344/170/412 343/173/411
f 340/171/409 344/170/412 342/172/410
f 335/163/398 342/172/410 333/162/395
f 346/174/413 344/170/412 340/171/409
f 344/170/412 345/175/414 343/173/411
f 344/170/412 346/174/413 345/175/414
f 347/176/415 346/174/413 340/171/409
f 346/174/413 347/176/415 349/177/416
f 346/174/413 348/178/417 345/175/414
f 348/178/417 346/174/413 349/177/416
f 351/174/418 350/179/419 349/177/420
f 350/179/419 352/180/421 349/177/420
f 347/176/422 351/174/418 349/177/420
f 352/180/423 348/178/417 349/177/416
f 350/179/424 348/178/425 352/180/426
f 350/179/419 351/174/418 353/175/427
f 351/174/418 347/176/422 340/171/408
f 351/174/418 341/170/407 353/175/427
f 341/170/407 351/174/418 340/171/408
f 353/175/427 341/170/407 338/168/404
f 345/175/428 353/175/429 354/173/430
f 345/175/428 348/178/425 353/175/429
f 354/173/431 353/175/427 338/168/404
f 348/178/425 350/179/424 353/175/429
f 343/173/432 345/175/428 354/173/430
f 354/173/431 338/168/404 329/163/389
f 343/173/432 354/173/430 331/162/394
f 331/162/388 354/173/431 329/163/389
f 333/162/392 343/173/432 331/162/394
f 367/181/433 356/182/433 355/183/434
f 356/182/433 357/184/433 355/183/434
f 357/184/433 358/185/435 355/183/434
f 358/185/435 359/186/436 355/183/434
f 359/186/436 360/187/437 355/183/434
f 360/187/437 361/188/433 355/183/434
f 361/188/433 362/189/433 355/183/434
f 362/189/433 363/190/433 355/183/434
f 363/190/433 364/191/435 355/183/434
f 364/191/435 365/192/436 355/183/434
f 365/192/436 366/193/437 355/183/434
f 366/193/437 367/181/433 355/183/434
f 366/193/438 368/194/439 367/181/440
f 368/194/439 369/195/441 367/181/440
f 367/181/440 369/195/441 356/182/442
f 369/195/441 370/196/443 356/182/442
f 370/196/444 369/195/444 371/197/445
f 369/195/444 368/194/446 371/197/445
f 373/198/444 372/199/444 371/197/445
f 372/199/444 380/200/446 371/197/445
f 374/201/444 373/198/444 371/197/445
f 375/202/447 374/201/444 371/197/445
f 376/203/444 370/196/444 371/197/445
f 377/204/448 375/202/447 371/197/445
f 378/205/447 376/203/444 371/197/445
f 368/194/446 377/204/448 371/197/445
f 379/206/448 378/205/447 371/197/445
f 380/200/446 379/206/448 371/197/445
f 360/187/449 380/200/450 361/188/451
f 379/206/452 380/200/450 360/187/449
f 380/200/450 372/199/453 361/188/451
f 359/186/454 379/206/452 360/187/449
f 378/205/455 379/206/452 359/186/454
f 358/185/456 378/205/455 359/186/454
f 376/203/457 378/205/455 358/185/456
f 365/192/458 377/204/459 366/193/438
f 375/202/460 377/204/459 365/192/458
f 377/204/459 368/194/439 366/193/438
f 357/184/461 376/203/457 358/185/456
f 370/196/443 376/203/457 357/184/461
f 364/191/462 375/202/460 365/192/458
f 374/201/463 375/202/460 364/191/462
f 373/198/464 374/201/463 363/190/465
f 363/190/465 374/201/463 364/191/462
f 372/199/453 373/198/464 362/189/466
f 362/189/466 373/198/464 363/190/465
f 361/188/451 372/199/453 362/189/466
f 356/182/442 370/196/443 357/184/461
f 384/207/467 381/208/467 382/207/467
f 381/208/467 383/209/467 382/207/467
f 385/210/468 381/208/469 384/207/469
f 386/211/470 385/210/468 384/207/469
f 387/212/471 385/210/468 386/211/470
f 388/212/472 387/212/472 389/213/472
f 389/213/471 387/212/471 386/211/470
f 390/214/472 388/212/472 389/213/472
f 390/214/473 389/213/473 386/211/474
f 391/215/475 388/212/476 390/214/476
f 392/211/473 390/214/473 384/207/473
f 384/207/473 390/214/473 386/211/474
f 392/211/477 391/215/475 390/214/476
f 383/209/478 391/215/475 392/211/477
f 382/207/478 383/209/478 392/211/477
f 382/207/473 392/211/473 384/207/473
f 396/216/479 393/217/480 394/216/481
f 393/217/480 395/217/480 394/216/481
f 398/218/482 395/217/482 393/217/482
f 397/218/483 393/217/484 396/216/485
f 397/218/482 398/218/482 393/217/482
f 400/219/486 398/218/482 397/218/482
f 398/218/487 400/219/488 399/220/489
f 395/217/490 398/218/487 399/220/489
f 401/219/486 400/219/486 397/218/482
f 400/219/491 401/219/491 402/221/492
f 400/219/488 402/221/493 399/220/489
f 402/221/493 403/222/494 399/220/489
f 405/222/495 403/222/496 402/221/492
f 401/219/491 404/221/492 402/221/492
f 404/221/492 405/222/495 402/221/492
f 405/222/495 406/223/497 403/222/496
f 407/224/498 406/223/499 405/222/500
f 408/225/501 407/224/498 405/222/500
f 408/225/501 405/222/500 404/221/502
f 411/226/503 409/227/504 408/225/501
f 409/227/504 407/224/498 408/225/501
f 410/220/505 408/225/501 404/221/502
f 411/226/503 408/225/501 410/220/505
f 412/227/506 409/227/507 411/226/508
f 413/226/509 412/227/506 411/226/508
f 413/226/509 411/226/508 396/216/479
f 396/216/485 411/226/503 410/220/505
f 414/225/510 413/226/511 394/216/512
f 414/225/510 415/224/513 413/226/511
f 394/216/481 413/226/509 396/216/479
f 415/224/513 412/227/514 413/226/511
f 415/224/513 418/228/515 412/227/514
f 416/223/516 415/224/513 414/225/510
f 416/223/516 417/229/517 415/224/513
f 417/229/517 418/228/515 415/224/513
f 418/228/515 419/230/518 412/227/514
f 419/230/519 420/230/519 409/227/507
f 412/227/506 419/230/519 409/227/507
f 409/227/504 420/230/520 407/224/498
f 420/230/520 421/228/521 407/224/498
f 421/228/521 422/229/522 406/223/499
f 407/224/498 421/228/521 406/223/499
f 406/223/497 422/229/523 416/223/524
f 422/229/523 417/229/523 416/223/524
f 406/223/497 416/223/524 403/222/496
f 403/222/494 416/223/516 414/225/510
f 403/222/494 414/225/510 399/220/489
f 399/220/489 414/225/510 394/216/512
f 410/220/505 397/218/483 396/216/485
f 401/219/525 397/218/483 410/220/505
f 404/221/502 401/219/525 410/220/505
f 394/216/512 395/217/490 399/220/489
f 423/231/526 425/231/526 424/232/526
f 425/231/526 426/232/526 424/232/526
f 424/232/526 426/232/526 427/233/526
f 426/232/526 428/233/526 427/233/526
o item_damaged
v -29.153999 3.117801 15.308600
v -24.850100 -8.020700 15.206201
v -22.281900 0.038201 15.206200
v -32.607300 -7.718799 15.308601
v -29.153999 3.117701 16.452700
v -22.282000 0.038101 16.555099
v -32.607300 -7.718799 16.452700
v -24.850201 -8.020799 16.555099
v -17.092899 -8.322799 15.880601
v -15.409900 -3.041299 15.880600
v -12.769352 -27.540874 12.696839
v -63.673359 -71.074867 19.064478
v -63.673359 -71.074867 12.696843
v -12.769352 -27.540874 19.064474
v -10.961204 -26.079710 19.064474
v -10.961204 -26.079710 12.696839
v -4.809794 -36.923893 10.868076
v -56.921337 -79.034271 10.868079
v -3.001536 -35.462624 10.868076
v 1.942222 -44.883186 12.696841
v -50.169323 -86.993553 12.696844
v 1.942334 -44.883190 19.064476
v -50.169323 -86.993553 19.064478
v -56.921341 -79.034149 20.893240
v -4.809681 -36.923897 20.893236
v -3.001531 -35.462734 20.893236
v 3.750484 -43.422024 19.064476
v 3.750484 -43.422024 12.696840
v -5.951000 -27.676098 15.308602
v 42.820202 6.502701 15.206199
v -1.127600 -33.495300 15.206203
v 37.865799 12.200401 15.308599
v -5.950900 -27.676098 16.452702
v 37.865799 12.200401 16.452700
v -1.127700 -33.495300 16.555101
v 3.695500 -39.314400 15.880603
v 42.820202 6.502602 16.555099
v 47.774502 0.805101 15.880600
v -3.068654 -35.508263 16.614643
v 8.249861 -26.407711 31.769489
v -0.156994 -16.823402 31.530628
v -10.755943 -13.368397 25.412802
v -17.524216 -18.057430 16.931540
v -23.487926 -23.605412 8.365420
v -22.200500 -34.547291 2.015632
v -14.386978 -44.608738 1.459851
v -5.978946 -54.198532 1.696106
v 4.618852 -57.644844 7.818530
v 11.386986 -52.958973 16.297615
v 17.347672 -47.410378 24.861675
v 16.068384 -36.471485 31.216276
v 18.529922 -46.433025 23.395699
v 17.242516 -35.491070 29.745701
v -1.889406 -34.530190 15.146576
v 9.429111 -25.429733 30.301479
v 1.020973 -15.839891 30.065197
v -9.576801 -12.393566 23.942799
v -16.344965 -17.079454 15.463530
v -22.305643 -22.628078 6.899457
v -21.026400 -33.566872 0.545032
v -13.207827 -43.630661 -0.008142
v -4.800970 -53.214962 0.230721
v 5.798072 -56.669952 6.348481
v 12.566254 -51.981018 14.829606
v -9.684300 -29.093998 14.571502
v -4.336400 -24.520699 17.189802
v -9.684300 -29.093998 17.189802
v -4.336400 -24.520597 14.571502
v -3.830000 -36.157200 14.337303
v 1.518000 -31.583899 14.337303
v 1.402200 -42.469700 15.019603
v 1.402200 -42.469700 16.741703
v 6.750000 -37.896400 15.019603
v 6.750100 -37.896400 16.741703
v -3.830000 -36.157200 17.424002
v 1.518000 -31.583899 17.424002
v -47.485100 74.001503 15.308595
v -51.311600 77.422798 15.880594
v -47.485100 74.001404 16.452694
v -42.651699 80.013397 15.880594
v -37.841202 75.811600 15.206194
v -8.435800 39.442101 15.308598
v -2.130400 43.504501 15.206197
v -8.435800 39.442101 16.452696
v 20.230400 19.849901 15.206198
v 12.789900 16.988201 15.308599
v 12.789900 16.988201 16.452698
v -2.130500 43.504601 16.555096
v 20.230400 19.849901 16.555098
v 27.671101 22.711702 15.880598
v 4.175200 47.567299 15.880596
v -37.841202 75.811600 16.555094
v -33.127602 80.726303 15.880594
v -55.002800 -4.131499 15.308600
v -48.492500 -0.307299 15.206200
v -62.818199 5.832301 15.308600
v -62.818199 5.832302 16.452700
v -55.002899 -4.131399 16.452700
v -56.299702 9.645901 16.555099
v -48.492401 -0.307499 16.555099
v -41.982101 3.516601 15.880600
v -49.781101 13.459501 15.880599
v -56.299599 9.645901 15.206199
v 19.032801 52.480801 15.308597
v 25.285299 48.283699 15.206196
v 25.472500 68.316498 15.308596
v 25.472401 68.316498 16.452694
v 19.032801 52.480801 16.452696
v 31.160200 62.730900 16.555096
v 25.285299 48.283699 16.555096
v 31.537800 44.086800 15.880597
v 36.848099 57.145100 15.880595
v 31.160200 62.730900 15.206195
v -39.834801 34.469398 15.308598
v -30.776600 22.921202 15.308599
v -32.939098 37.802299 15.206197
v -30.776600 22.921103 16.452698
v -39.834801 34.469398 16.452698
v -24.258101 26.734701 16.555098
v -32.939201 37.802299 16.555098
v -26.043501 41.135201 15.880597
v -17.739500 30.548302 15.880598
v -24.257999 26.734802 15.206198
v 65.920898 20.866402 16.452698
v 53.761101 30.418102 16.555098
v 61.289398 31.826202 16.452698
v 59.833099 16.049501 16.555098
v 65.920799 20.866402 15.308599
v 59.833000 16.049501 15.206199
v 61.289299 31.826302 15.308598
v 53.761101 30.418102 15.206198
v 53.745098 11.232301 15.880599
v 46.232800 29.010101 15.880598
v 0.000000 70.710701 -0.000005
v 70.710701 0.000000 0.000000
v 0.000000 55.656200 3.999996
v -55.656101 0.000000 4.000000
v -70.710701 0.000000 0.000000
v 0.000000 -55.656101 4.000004
v 0.000000 -70.710602 0.000005
v 55.656200 0.000000 4.000000
v 0.000000 70.710701 -0.000005
v 0.000000 55.656200 -4.000004
v 70.710701 0.000000 0.000000
v -55.656101 -0.000000 -4.000000
v -70.710701 0.000000 0.000000
v 0.000000 -55.656101 -3.999996
v 0.000000 -70.710602 0.000005
v 55.656200 -0.000000 -4.000000
v 0.000000 70.710701 -0.000005
v 70.710701 0.000000 0.000000
v 0.000000 55.656200 3.999996
v -55.656101 0.000000 4.000000
v -70.710701 0.000000 0.000000
v 0.000000 -55.656101 4.000004
v 0.000000 -70.710602 0.000005
v 55.656200 0.000000 4.000000
v 0.000000 70.710701 -0.000005
v 0.000000 55.656200 -4.000004
v 70.710701 0.000000 0.000000
v -55.656101 -0.000000 -4.000000
v -70.710701 0.000000 0.000000
v 0.000000 -55.656101 -3.999996
v 0.000000 -70.710602 0.000005
v 55.656200 -0.000000 -4.000000
v 0.000000 70.710701 -0.000005
v 70.710701 0.000000 0.000000
v 0.000000 55.656200 3.999996
v -55.656101 0.000000 4.000000
v -70.710701 0.000000 0.000000
v 0.000000 -55.656101 4.000004
v 0.000000 -70.710602 0.000005
v 55.656200 0.000000 4.000000
v 0.000000 70.710701 -0.000005
v 0.000000 55.656200 -4.000004
v 70.710701 0.000000 0.000000
v -55.656101 -0.000000 -4.000000
v -70.710701 0.000000 0.000000
v 0.000000 -55.656101 -3.999996
v 0.000000 -70.710602 0.000005
v 55.656200 -0.000000 -4.000000
vn -0.0130 0.0042 -0.9999
vn 0.0198 -0.0063 -0.9998
vn 0.0527 -0.0168 -0.9985
vn -0.9528 0.3036 -0.0000
vn 0.0199 -0.0063 0.9998
vn -0.0130 0.0042 0.9999
vn 0.0527 -0.0168 0.9985
vn 0.0855 -0.0273 0.9960
vn 0.0855 -0.0273 -0.9960
vn -0.6393 0.7690 -0.0000
vn -0.6499 0.7600 -0.0000
vn -0.0940 0.1130 -0.9891
vn -0.0089 0.0106 -0.9999
vn -0.1016 0.1230 -0.9872
vn -0.6285 0.7778 -0.0000
vn -0.0924 0.1144 -0.9891
vn -0.0016 0.0020 -1.0000
vn 0.1085 -0.1343 -0.9850
vn 0.0444 -0.0529 -0.9976
vn 0.6285 -0.7778 -0.0000
vn -0.7626 -0.6469 -0.0000
vn 0.0360 -0.0424 0.9985
vn 0.1085 -0.1343 0.9850
vn -0.1016 0.1230 0.9872
vn 0.0049 -0.0071 1.0000
vn -0.0937 0.1133 0.9891
vn -0.0251 0.0291 0.9993
vn -0.0924 0.1144 0.9891
vn -0.0091 0.0100 -0.9999
vn 0.0139 -0.0153 -0.9998
vn 0.0369 -0.0406 -0.9985
vn -0.6731 0.7396 0.0001
vn -0.6731 0.7396 -0.0000
vn -0.0091 0.0100 0.9999
vn 0.0139 -0.0152 0.9998
vn 0.0369 -0.0406 0.9985
vn 0.0139 -0.0153 0.9998
vn 0.0599 -0.0658 0.9960
vn 0.0599 -0.0658 -0.9960
vn -0.5513 -0.4663 0.6918
vn -0.5509 -0.4669 0.6918
vn -0.5496 -0.4663 0.6932
vn -0.5499 -0.4681 0.6918
vn -0.5517 -0.4680 0.6903
vn -0.5495 -0.4663 0.6932
vn 0.7641 0.0497 0.6432
vn 0.7178 0.1570 0.6784
vn 0.5670 0.3989 0.7207
vn 0.7724 -0.5934 0.2266
vn 0.8195 -0.4386 0.3689
vn 0.5513 0.4663 -0.6918
vn 0.5509 0.4669 -0.6918
vn 0.5517 0.4680 -0.6903
vn 0.5103 0.4674 0.7219
vn 0.3013 0.6623 0.6860
vn 0.2042 0.7289 0.6534
vn -0.2607 0.8878 0.3792
vn -0.4242 0.8733 0.2396
vn 0.5496 0.4663 -0.6932
vn -0.5500 0.8281 0.1088
vn -0.7020 0.7059 -0.0947
vn 0.5499 0.4681 -0.6918
vn -0.8198 0.4367 -0.3705
vn -0.7718 0.5945 -0.2254
vn -0.7171 -0.1585 -0.6787
vn -0.7650 -0.0474 -0.6423
vn -0.5101 -0.4677 -0.7219
vn -0.5673 -0.3986 -0.7206
vn -0.3025 -0.6613 -0.6864
vn -0.2021 -0.7302 -0.6526
vn 0.2587 -0.8878 -0.3807
vn 0.4254 -0.8730 -0.2384
vn 0.5501 -0.8280 -0.1087
vn 0.7021 -0.7058 0.0948
vn 0.0069 -0.0081 -0.9999
vn -0.0166 0.0194 -0.9997
vn 0.0305 -0.0356 -0.9989
vn 0.0539 -0.0630 -0.9966
vn 0.6499 -0.7600 -0.0000
vn 0.7699 0.6381 -0.0000
vn 0.0069 -0.0081 0.9999
vn 0.0304 -0.0356 0.9989
vn 0.0539 -0.0630 0.9966
vn -0.0166 0.0194 0.9997
vn -0.0264 0.0786 -0.9966
vn -0.0372 0.1242 -0.9916
vn -0.0271 0.1305 -0.9911
vn -0.6646 -0.7472 -0.0001
vn -0.6642 -0.7475 -0.0000
vn -0.6665 -0.7455 -0.0001
vn -0.6847 -0.7288 -0.0000
vn 0.0109 0.0651 -0.9978
vn -0.0097 -0.0100 -0.9999
vn -0.7060 -0.7082 -0.0000
vn 0.0350 0.0348 -0.9988
vn 0.0154 0.0145 -0.9998
vn -0.7267 -0.6870 -0.0000
vn -0.0101 -0.0095 -0.9999
vn 0.0408 0.0386 0.9984
vn 0.0198 0.0204 0.9996
vn -0.0101 -0.0095 0.9999
vn -0.0097 -0.0100 0.9999
vn 0.0650 0.0668 0.9956
vn 0.0662 0.0626 0.9958
vn 0.0646 0.0683 -0.9956
vn 0.0273 0.1101 -0.9935
vn 0.0274 0.1101 0.9935
vn 0.0109 0.0651 0.9978
vn 0.0662 0.0626 -0.9958
vn -0.0272 0.1305 0.9911
vn -0.0264 0.0787 0.9966
vn -0.0372 0.1242 0.9916
vn 0.0164 0.0129 -0.9998
vn -0.0108 -0.0084 -0.9999
vn -0.7868 -0.6172 -0.0000
vn -0.0108 -0.0084 0.9999
vn 0.0164 0.0128 0.9998
vn 0.0436 0.0342 0.9985
vn 0.0706 0.0554 0.9960
vn 0.0706 0.0554 -0.9960
vn 0.0435 0.0341 -0.9985
vn 0.0196 -0.0080 -0.9998
vn -0.0129 0.0052 -0.9999
vn -0.9263 0.3767 -0.0001
vn -0.9263 0.3767 -0.0000
vn -0.0129 0.0052 0.9999
vn 0.0197 -0.0080 0.9998
vn 0.0520 -0.0212 0.9984
vn 0.0844 -0.0343 0.9958
vn 0.0844 -0.0343 -0.9958
vn 0.0520 -0.0212 -0.9984
vn -0.7868 -0.6172 -0.0001
vn 0.0164 0.0129 0.9998
vn 0.0435 0.0342 -0.9985
vn -0.0125 -0.0472 0.9988
vn 0.0126 0.0053 0.9999
vn -0.0572 0.0262 0.9980
vn -0.0351 -0.0148 0.9993
vn 0.9211 0.3893 -0.0001
vn 0.0126 0.0053 -0.9999
vn -0.0192 -0.0081 -0.9998
vn 0.9211 0.3893 -0.0000
vn -0.0510 -0.0215 -0.9985
vn -0.9211 -0.3892 -0.0001
vn -0.9211 -0.3892 -0.0000
vn 0.2559 0.0853 0.9629
vn -0.0853 0.2559 0.9629
vn 0.0639 0.1919 0.9793
vn -0.1532 0.0510 0.9869
vn -0.2558 -0.0853 0.9629
vn -0.0639 -0.1919 0.9793
vn 0.0853 -0.2559 0.9629
vn 0.1531 -0.0510 0.9869
vn 0.0639 0.1919 -0.9793
vn -0.1531 0.0510 -0.9869
vn -0.0853 0.2559 -0.9629
vn 0.2559 0.0853 -0.9629
vn -0.2558 -0.0853 -0.9629
vn -0.0639 -0.1919 -0.9793
vn 0.0853 -0.2559 -0.9629
vn 0.1532 -0.0510 -0.9869
vt 0.011719 0.976320
vt 0.107414 0.761719
vt 0.226681 0.982299
vt 0.297849 0.822705
vt 0.107414 0.761721
vt 0.297846 0.822707
vt 0.226678 0.982301
vt 0.441643 0.988281
vt 0.488281 0.883690
vt 0.282278 0.375129
vt 0.011719 0.495014
vt 0.320914 0.398790
vt 0.291869 0.371094
vt 0.044494 0.515085
vt 0.077269 0.535156
vt 0.330506 0.394755
vt 0.353690 0.418862
vt 0.353690 0.418862
vt 0.044494 0.515085
vt 0.320915 0.398790
vt 0.330506 0.394755
vt 0.363281 0.414826
vt 0.400388 0.761719
vt 0.444335 0.786777
vt 0.011719 0.937096
vt 0.054504 0.962689
vt 0.011720 0.937096
vt 0.054503 0.962689
vt 0.444335 0.786778
vt 0.097286 0.988281
vt 0.488281 0.811835
vt 0.453830 0.413585
vt 0.497504 0.456713
vt 0.541178 0.499841
vt 0.573150 0.531413
vt 0.584852 0.542969
vt 0.497504 0.456713
vt 0.421859 0.382013
vt 0.410156 0.370457
vt 0.458822 0.406410
vt 0.426850 0.374837
vt 0.502496 0.449537
vt 0.502496 0.449537
vt 0.546170 0.492665
vt 0.578141 0.524238
vt 0.589844 0.535793
vt 0.578141 0.524237
vt 0.415148 0.363281
vt 0.746094 0.484497
vt 0.716235 0.542969
vt 0.746093 0.484497
vt 0.670120 0.478960
vt 0.699978 0.420487
vt 0.628906 0.421753
vt 0.658765 0.363282
vt 0.658765 0.363281
vt 0.034807 0.785623
vt 0.011719 0.773461
vt 0.063970 0.764253
vt 0.034807 0.785623
vt 0.270421 0.908467
vt 0.092996 0.779188
vt 0.308466 0.894027
vt 0.443386 0.978109
vt 0.398492 0.988281
vt 0.308466 0.894026
vt 0.346513 0.879585
vt 0.488281 0.967937
vt 0.121437 0.761719
vt 0.339376 0.939028
vt 0.190472 0.988281
vt 0.011719 0.859953
vt 0.190470 0.988280
vt 0.160810 0.810836
vt 0.339378 0.939030
vt 0.488281 0.889778
vt 0.309903 0.761719
vt 0.160812 0.810836
vt 0.094266 0.908766
vt 0.176816 0.988281
vt 0.488281 0.906386
vt 0.488281 0.906387
vt 0.378421 0.834053
vt 0.011719 0.829251
vt 0.268556 0.761719
vt 0.011719 0.844634
vt 0.207091 0.988280
vt 0.207091 0.988281
vt 0.160449 0.803176
vt 0.347685 0.940844
vt 0.160446 0.803176
vt 0.488281 0.893408
vt 0.309176 0.761719
vt 0.347687 0.940843
vt 0.123193 0.831775
vt 0.234660 0.761719
vt 0.455694 0.901649
vt 0.488279 0.815016
vt 0.234660 0.761720
vt 0.123193 0.831776
vt 0.488281 0.815017
vt 0.011719 0.901833
vt 0.423112 0.988281
vt 0.976562 0.023438
s 1
f 432/234/527 429/235/527 430/236/528
f 429/235/527 431/237/529 430/236/528
f 433/238/530 429/235/530 432/234/530
f 434/239/531 433/238/532 435/234/532
f 435/234/530 433/238/530 432/234/530
f 436/240/533 434/239/531 435/234/532
f 437/241/534 438/242/534 436/240/533
f 438/242/534 434/239/531 436/240/533
f 431/237/529 438/242/535 437/241/535
f 430/236/528 431/237/529 437/241/535
f 442/243/536 439/243/536 440/244/537
f 439/243/536 441/244/537 440/244/537
f 439/243/538 445/245/539 441/244/540
f 439/243/536 442/243/536 443/246/541
f 444/246/541 439/243/536 443/246/541
f 445/245/539 439/243/538 444/246/542
f 446/247/543 445/245/539 449/248/544
f 445/245/539 446/247/543 441/244/540
f 447/249/545 445/245/539 444/246/542
f 448/250/544 445/245/539 447/249/545
f 445/245/539 448/250/544 449/248/544
f 448/250/546 450/251/546 449/248/546
f 450/251/546 451/248/546 449/248/546
f 446/247/547 449/248/547 451/248/547
f 452/252/548 451/248/549 450/251/549
f 452/252/547 446/247/547 451/248/547
f 440/244/550 452/252/548 453/253/551
f 440/244/547 441/244/547 452/252/547
f 441/244/547 446/247/547 452/252/547
f 453/253/551 452/252/548 450/251/549
f 442/243/552 440/244/550 453/253/551
f 442/243/552 453/253/551 454/254/553
f 453/253/551 450/251/549 455/255/549
f 454/254/553 453/253/551 455/255/549
f 455/255/546 450/251/546 456/255/546
f 450/251/546 448/250/546 456/255/546
f 456/255/544 448/250/544 447/249/545
f 443/246/554 442/243/552 454/254/553
f 460/256/555 458/257/556 457/258/555
f 458/257/556 459/259/557 457/258/555
f 460/256/558 457/258/558 461/260/558
f 462/256/559 460/256/559 461/260/559
f 462/256/560 461/260/560 463/261/561
f 465/262/562 463/261/563 464/263/564
f 465/262/562 462/256/560 463/261/563
f 466/264/564 465/262/562 464/263/564
f 466/264/565 464/263/565 459/259/557
f 458/257/556 466/264/565 459/259/557
f 479/265/566 468/266/566 467/266/567
f 468/266/566 469/267/566 467/266/567
f 469/267/566 470/268/568 467/266/567
f 470/268/568 471/269/569 467/266/567
f 471/269/569 472/268/570 467/266/567
f 472/268/570 473/267/566 467/266/567
f 473/267/566 474/270/566 467/266/567
f 474/270/566 475/265/566 467/266/567
f 475/265/566 476/271/571 467/266/567
f 476/271/571 477/272/569 467/266/567
f 477/272/569 478/271/570 467/266/567
f 478/271/570 479/265/566 467/266/567
f 479/265/572 481/273/573 468/266/574
f 478/271/575 480/274/576 479/265/572
f 480/274/576 481/273/573 479/265/572
f 483/275/577 481/273/577 482/276/578
f 481/273/577 480/274/579 482/276/578
f 481/273/573 483/275/580 468/266/574
f 468/266/574 483/275/580 469/267/581
f 483/275/580 484/277/582 469/267/581
f 484/277/577 483/275/577 482/276/578
f 469/267/581 484/277/582 470/268/583
f 484/277/582 485/278/584 470/268/583
f 485/278/585 484/277/577 482/276/578
f 470/268/583 485/278/584 471/269/586
f 485/278/584 486/279/587 471/269/586
f 486/279/588 485/278/585 482/276/578
f 487/280/579 486/279/588 482/276/578
f 486/279/587 487/280/589 472/268/590
f 471/269/586 486/279/587 472/268/590
f 488/277/577 487/280/579 482/276/578
f 487/280/589 488/277/591 473/267/592
f 472/268/590 487/280/589 473/267/592
f 489/276/577 488/277/577 482/276/578
f 488/277/591 489/276/593 474/270/594
f 473/267/592 488/277/591 474/270/594
f 474/270/594 489/276/593 475/265/595
f 489/276/593 490/273/596 475/265/595
f 490/273/577 489/276/577 482/276/578
f 475/265/595 490/273/596 476/271/597
f 490/273/596 491/274/598 476/271/597
f 491/274/585 490/273/577 482/276/578
f 476/271/597 491/274/598 477/272/599
f 491/274/598 492/281/600 477/272/599
f 492/281/588 491/274/585 482/276/578
f 477/272/599 492/281/600 478/271/575
f 492/281/600 480/274/576 478/271/575
f 480/274/579 492/281/588 482/276/578
f 496/282/537 493/283/537 494/284/537
f 493/283/537 495/283/537 494/284/537
f 497/285/601 493/283/602 496/282/602
f 498/286/603 497/285/601 496/282/602
f 499/287/604 497/285/601 498/286/603
f 500/287/605 499/287/605 501/288/605
f 501/288/604 499/287/604 498/286/603
f 502/289/605 500/287/605 501/288/605
f 502/289/606 501/288/606 498/286/606
f 504/286/607 503/285/608 502/289/609
f 503/285/608 500/287/609 502/289/609
f 504/286/606 502/289/606 496/282/606
f 496/282/606 502/289/606 498/286/606
f 494/284/606 504/286/606 496/282/606
f 494/284/610 495/283/610 504/286/607
f 495/283/610 503/285/608 504/286/607
f 505/290/611 506/291/612 508/292/613
f 505/290/614 507/293/615 506/291/616
f 507/293/615 505/290/614 510/294/617
f 509/295/618 505/290/611 508/292/613
f 505/290/611 509/295/618 510/294/619
f 512/294/620 507/293/615 510/294/617
f 509/295/618 511/296/621 510/294/619
f 510/294/619 511/296/621 513/297/622
f 512/294/620 510/294/617 514/298/623
f 514/298/624 510/294/619 513/297/622
f 515/298/623 512/294/620 514/298/623
f 517/297/625 516/299/626 515/298/627
f 516/299/626 512/294/628 515/298/627
f 519/300/629 516/299/626 517/297/625
f 518/301/630 519/300/629 517/297/625
f 511/296/621 509/295/618 519/300/631
f 509/295/618 521/302/632 519/300/631
f 521/302/633 520/295/634 519/300/629
f 520/295/634 516/299/626 519/300/629
f 511/296/621 519/300/631 518/301/635
f 520/295/634 521/302/633 508/292/636
f 521/302/632 509/295/618 508/292/613
f 520/295/634 507/293/637 512/294/628
f 507/293/637 520/295/634 508/292/636
f 516/299/626 520/295/634 512/294/628
f 513/297/622 511/296/621 518/301/635
f 506/291/638 507/293/637 508/292/636
f 523/303/639 522/304/640 524/305/640
f 524/305/641 522/304/641 525/305/641
f 522/304/641 526/306/641 525/305/641
f 525/305/642 526/306/642 527/307/643
f 526/306/642 528/308/644 527/307/643
f 528/308/644 529/309/645 530/310/645
f 527/307/643 528/308/644 530/310/645
f 530/310/646 529/309/646 531/311/647
f 529/309/646 523/303/639 531/311/647
f 531/311/647 523/303/639 524/305/640
f 533/312/648 532/313/649 534/314/649
f 534/314/650 532/313/651 535/315/650
f 532/313/651 536/313/651 535/315/650
f 535/315/652 536/313/652 537/316/653
f 536/313/652 538/312/654 537/316/653
f 538/312/654 539/317/655 540/318/655
f 537/316/653 538/312/654 540/318/655
f 540/318/656 539/317/656 541/316/657
f 539/317/656 533/312/648 541/316/657
f 541/316/657 533/312/648 534/314/649
f 542/319/658 543/320/658 545/321/658
f 543/320/640 542/319/640 544/322/639
f 546/319/641 542/319/641 545/321/641
f 545/321/642 547/323/659 546/319/642
f 547/323/659 548/324/644 546/319/642
f 550/325/645 549/326/645 548/324/644
f 547/323/659 550/325/645 548/324/644
f 550/325/646 551/327/660 549/326/646
f 551/327/647 543/320/640 544/322/639
f 551/327/647 544/322/639 549/326/646
f 555/328/661 552/329/662 553/330/663
f 552/329/662 554/331/662 553/330/664
f 554/331/665 552/329/665 556/332/665
f 556/332/666 557/333/667 558/334/666
f 558/334/668 554/331/668 556/332/668
f 557/333/667 559/330/669 558/334/666
f 557/333/667 560/335/670 559/330/669
f 560/335/670 561/336/671 559/330/669
f 560/335/670 555/328/661 561/336/671
f 555/328/661 553/330/663 561/336/671
f 563/337/672 562/337/673 564/337/674
f 564/337/674 562/337/673 565/337/675
f 562/337/673 566/337/676 565/337/675
f 565/337/675 566/337/676 567/337/677
f 566/337/676 568/337/678 567/337/677
f 568/337/678 563/337/672 569/337/679
f 567/337/677 568/337/678 569/337/679
f 569/337/679 563/337/672 564/337/674
f 564/337/674 565/337/675 569/337/679
f 565/337/675 567/337/677 569/337/679
f 571/337/680 573/337/681 570/337/682
f 571/337/680 570/337/682 572/337/683
f 573/337/681 574/337/684 570/337/682
f 573/337/681 575/337/685 574/337/684
f 575/337/685 576/337/686 574/337/684
f 577/337/687 572/337/683 576/337/686
f 575/337/685 577/337/687 576/337/686
f 571/337/680 577/337/687 573/337/681
f 577/337/687 571/337/680 572/337/683
f 577/337/687 575/337/685 573/337/681
f 579/337/672 578/337/673 580/337/674
f 580/337/674 578/337/673 581/337/675
f 578/337/673 582/337/676 581/337/675
f 581/337/675 582/337/676 583/337/677
f 582/337/676 584/337/678 583/337/677
f 584/337/678 579/337/672 585/337/679
f 583/337/677 584/337/678 585/337/679
f 580/337/674 581/337/675 585/337/679
f 585/337/679 579/337/672 580/337/674
f 581/337/675 583/337/677 585/337/679
f 587/337/680 589/337/681 586/337/682
f 587/337/680 586/337/682 588/337/683
f 589/337/681 590/337/684 586/337/682
f 589/337/681 591/337/685 590/337/684
f 591/337/685 592/337/686 590/337/684
f 593/337/687 588/337/683 592/337/686
f 591/337/685 593/337/687 592/337/686
f 593/337/687 587/337/680 588/337/683
f 587/337/680 593/337/687 589/337/681
f 593/337/687 591/337/685 589/337/681
f 595/337/672 594/337/673 596/337/674
f 596/337/674 594/337/673 597/337/675
f 594/337/673 598/337/676 597/337/675
f 597/337/675 598/337/676 599/337/677
f 598/337/676 600/337/678 599/337/677
f 600/337/678 595/337/672 601/337/679
f 599/337/677 600/337/678 601/337/679
f 601/337/679 595/337/672 596/337/674
f 596/337/674 597/337/675 601/337/679
f 597/337/675 599/337/677 601/337/679
f 603/337/680 605/337/681 602/337/682
f 603/337/680 602/337/682 604/337/683
f 605/337/681 606/337/684 602/337/682
f 605/337/681 607/337/685 606/337/684
f 607/337/685 608/337/686 606/337/684
f 609/337/687 604/337/683 608/337/686
f 607/337/685 609/337/687 608/337/686
f 603/337/680 609/337/687 605/337/681
f 609/337/687 603/337/680 604/337/683
f 609/337/687 607/337/685 605/337/681
o effect
v -35.374783 -4.622668 -3.483364
v -109.539787 -6.437832 3.857580
v -35.374783 -4.622667 3.483364
v -109.539787 -6.437833 -3.857579
v -110.059372 2.344676 -6.465956
v -35.150272 3.709559 -5.343424
v -35.150272 3.709560 5.343423
v -110.059372 2.344676 6.465956
v -35.584221 12.049485 3.483363
v -35.584221 12.049485 -3.483365
v -110.579048 11.127186 3.857579
v -171.314194 5.989187 3.857579
v -110.579048 11.127186 -3.857581
v -171.314194 5.989186 -3.857580
v -227.789032 -2.082219 -3.857580
v -226.514862 -10.779902 -6.465955
v -170.404526 -2.760676 -6.465956
v -169.495087 -11.510421 -3.857579
v -225.240891 -19.477468 -3.857579
v -293.737366 -33.798824 -3.735313
v -293.737366 -33.798824 3.735318
v -225.240891 -19.477468 3.857581
v -226.514862 -10.779901 6.465957
v -169.495087 -11.510421 3.857581
v -170.404526 -2.760675 6.465956
v -227.789032 -2.082219 3.857580
v -297.122711 -16.274298 -3.735315
v -297.122711 -16.274298 3.735317
v -295.774292 -25.118654 5.729938
v -295.774292 -25.118654 -5.729934
v -35.318840 -4.141776 -2.735048
v -35.474915 10.411451 -2.735049
v -35.318840 -4.141776 2.735048
v -35.474915 10.411451 2.735047
v -35.403614 3.762916 -4.221008
v -35.403614 3.762916 4.221007
v -293.368896 -31.964571 -2.735046
v -296.226044 -17.417904 -2.735047
v -293.368896 -31.964571 2.735050
v -296.226044 -17.417904 2.735049
v -294.797394 -24.691242 -4.221006
v -294.797394 -24.691242 4.221010
v -225.448196 -17.983685 -2.735047
v -227.604218 -3.293911 -2.735048
v -225.448196 -17.983685 2.735049
v -227.604218 -3.293910 2.735048
v -226.526108 -10.638916 -4.221007
v -226.526108 -10.638916 4.221009
v -169.641464 -10.049451 -2.735047
v -171.188583 4.726753 -2.735048
v -169.641464 -10.049451 2.735049
v -171.188583 4.726753 2.735048
v -170.414963 -2.661406 -4.221008
v -170.414963 -2.661405 4.221008
v -109.620605 -5.016171 -2.735048
v -110.512978 9.815059 -2.735049
v -109.620605 -5.016171 2.735049
v -110.512978 9.815059 2.735047
v -110.066750 2.399443 -4.221008
v -110.066750 2.399444 4.221008
v -293.368896 -31.964571 -2.735046
v -294.797394 -24.691242 -4.221006
v -293.368896 -31.964571 2.735050
v -294.797394 -24.691242 4.221010
v -296.226044 -17.417904 2.735049
v -296.226044 -17.417904 -2.735047
v -93.235199 -4.707600 -3.134204
v -93.235199 -4.707600 3.134320
v -93.462303 3.188548 -5.019436
v -89.867874 3.222572 -5.019436
v -89.741592 -4.674607 -3.134204
v -89.741592 -4.674607 3.134320
v -93.462303 3.188549 5.019435
v -89.867874 3.222573 5.019435
v -89.994171 11.119751 -3.134321
v -89.994171 11.119751 3.134203
v -93.689316 11.084810 3.134203
v -93.689316 11.084810 -3.134321
vn 0.0629 -0.9980 -0.0000
vn 0.0245 -0.9997 -0.0000
vn 0.0459 -0.9989 -0.0000
vn 1.0000 -0.0027 -0.0000
vn 0.9996 -0.0269 -0.0000
vn 0.0158 -0.2520 -0.9676
vn 0.0179 -0.2837 -0.9588
vn 0.0084 -0.0413 -0.9991
vn 0.0151 -0.0024 -0.9999
vn 0.9996 0.0277 -0.0000
vn 0.0151 -0.0024 0.9999
vn 0.0063 0.2524 0.9676
vn 0.0027 0.0429 0.9991
vn 0.0158 -0.2520 0.9676
vn 0.9986 0.0520 -0.0000
vn -0.0123 0.9999 -0.0000
vn -0.0484 0.9988 -0.0000
vn -0.0114 0.2841 0.9587
vn -0.0298 0.2827 0.9587
vn -0.1047 0.9945 -0.0000
vn -0.1211 0.9926 -0.0000
vn -0.1625 0.9867 -0.0000
vn -0.0085 0.0419 -0.9991
vn -0.0494 0.2803 -0.9587
vn -0.0344 0.2822 -0.9587
vn 0.0023 0.0010 -1.0000
vn -0.0149 0.2839 -0.9587
vn 0.0298 -0.2827 -0.9587
vn 0.0463 -0.2808 -0.9587
vn 0.2047 -0.9788 -0.0000
vn 0.1822 -0.9833 -0.0000
vn 0.0449 -0.2486 -0.9676
vn 0.1641 -0.9864 -0.0000
vn 0.1211 -0.9926 -0.0000
vn 0.0017 -0.0418 0.9991
vn 0.0486 -0.2804 0.9587
vn 0.0344 -0.2822 0.9587
vn 0.0449 -0.2486 0.9676
vn 0.1048 -0.9945 -0.0000
vn -0.0026 0.0004 1.0000
vn 0.0196 -0.2836 0.9587
vn -0.0467 0.2807 0.9587
vn -0.1796 0.9837 -0.0000
vn -0.2005 0.9797 -0.0000
vn -0.0568 0.2461 0.9676
vn -0.9846 -0.1748 -0.0000
vn -0.9886 -0.1507 -0.0000
vn -0.0093 -0.0073 0.9999
vn -0.9788 -0.2046 -0.0000
vn -0.9736 -0.2285 -0.0000
vn -0.0093 -0.0073 -0.9999
vn -0.0568 0.2461 -0.9676
vn 0.0063 0.2524 -0.9676
vn 0.0396 -0.1925 -0.9805
vn -0.0103 0.0613 -0.9981
vn 0.0016 0.0009 -1.0000
vn 0.0321 -0.1937 -0.9805
vn 0.0119 -0.0700 0.9975
vn 0.0396 -0.1925 0.9805
vn 0.0355 -0.1931 0.9805
vn -0.0019 0.0002 1.0000
vn 0.2016 -0.9795 -0.0000
vn 0.1800 -0.9837 -0.0000
vn 0.1625 -0.9867 -0.0000
vn -0.0396 0.1925 -0.9805
vn -0.0353 0.1931 -0.9805
vn -0.2016 0.9795 -0.0000
vn -0.1800 0.9837 -0.0000
vn -0.0396 0.1925 0.9805
vn -0.0319 0.1937 0.9805
vn 0.0016 0.0007 -1.0000
vn 0.0205 -0.1951 -0.9806
vn 0.0237 -0.1947 0.9806
vn -0.0017 0.0003 1.0000
vn 0.1204 -0.9927 -0.0000
vn 0.1040 -0.9946 -0.0000
vn -0.0236 0.1947 -0.9806
vn -0.1204 0.9927 -0.0000
vn -0.1040 0.9946 -0.0000
vn -0.0204 0.1951 0.9806
vn 0.0021 0.0045 -1.0000
vn 0.0077 -0.1921 -0.9813
vn 0.0114 -0.1958 0.9806
vn -0.0024 0.0340 0.9994
vn 0.0580 -0.9983 -0.0000
vn 0.0374 -0.9993 -0.0000
vn -0.0111 0.1958 -0.9806
vn -0.0458 0.9990 -0.0000
vn -0.0090 0.1959 0.9806
vn 0.0029 -0.1906 0.9817
vn -0.0002 0.0146 0.9999
vn 0.0118 -0.9999 -0.0000
vn -0.0027 0.2071 0.9783
vn -0.0079 1.0000 -0.0000
vn -0.0027 0.2071 -0.9783
vn 0.0021 -0.0578 -0.9983
vn 0.0022 -0.1847 -0.9828
vn 0.9999 0.0107 -0.0000
vn -0.9813 -0.1927 -0.0000
vn -0.9812 -0.1927 -0.0000
vn 0.0094 -1.0000 -0.0000
vn -0.9996 -0.0287 -0.0000
vn 0.0022 -0.2322 -0.9727
vn -0.0024 0.0840 -0.9965
vn 0.0037 -0.0843 -0.9964
vn -0.0033 0.0740 0.9972
vn 0.0022 -0.0743 0.9972
vn 0.0022 -0.2322 0.9727
vn 0.9999 0.0160 -0.0000
vn -0.0022 0.2322 0.9727
vn -0.0095 1.0000 -0.0000
vn -0.0022 0.2321 -0.9727
vt 0.352875 0.633003
vt 0.487720 0.624855
vt 0.488281 0.599537
vt 0.352092 0.606343
vt 0.487645 0.574219
vt 0.351308 0.579684
vt 0.240814 0.597448
vt 0.138009 0.623971
vt 0.140166 0.650346
vt 0.242306 0.623994
vt 0.243799 0.650540
vt 0.142322 0.676721
vt 0.017551 0.722656
vt 0.011719 0.669544
vt 0.014008 0.696362
vt 0.016650 0.722656
vt 0.014184 0.699027
vt 0.139093 0.650501
vt 0.140917 0.674377
vt 0.011719 0.675397
vt 0.137269 0.626624
vt 0.241684 0.622251
vt 0.242951 0.646281
vt 0.240416 0.598221
vt 0.351952 0.603328
vt 0.352622 0.627461
vt 0.351283 0.579196
vt 0.488281 0.621609
vt 0.488281 0.595868
vt 0.488281 0.574219
vt 0.628906 0.511340
vt 0.628906 0.394910
vt 0.687500 0.542969
vt 0.687500 0.363281
vt 0.746094 0.394910
vt 0.746094 0.511340
vt 0.629684 0.397023
vt 0.628906 0.397023
vt 0.628906 0.509225
vt 0.687088 0.542969
vt 0.687889 0.542969
vt 0.629684 0.509225
vt 0.687889 0.363281
vt 0.687088 0.363281
vt 0.745271 0.397025
vt 0.746094 0.509227
vt 0.746094 0.397025
vt 0.745271 0.509227
s 1
f 613/338/688 610/339/689 611/338/690
f 610/339/689 612/339/689 611/338/690
f 616/340/691 612/339/692 610/339/692
f 610/339/693 613/338/694 614/341/695
f 615/340/696 610/339/693 614/341/695
f 615/340/697 616/340/691 610/339/692
f 616/340/698 618/342/699 617/341/700
f 612/339/701 616/340/698 617/341/700
f 618/342/702 616/340/691 615/340/697
f 619/342/702 618/342/702 615/340/697
f 618/342/703 619/342/703 620/343/704
f 618/342/699 620/343/705 617/341/700
f 620/343/705 621/344/706 617/341/700
f 623/344/707 621/344/708 620/343/704
f 619/342/703 622/343/704 620/343/704
f 622/343/704 623/344/707 620/343/704
f 623/344/707 624/345/709 621/344/708
f 625/346/710 624/345/711 623/344/712
f 626/347/713 625/346/710 623/344/712
f 626/347/713 623/344/712 622/343/714
f 614/341/695 626/347/713 622/343/714
f 627/348/715 626/347/713 614/341/695
f 628/349/716 625/346/710 626/347/713
f 627/348/715 628/349/716 626/347/713
f 630/350/717 629/350/717 628/349/718
f 628/349/716 629/350/719 625/346/710
f 631/349/720 630/350/717 628/349/718
f 631/349/720 628/349/718 627/348/721
f 632/346/722 631/349/723 633/348/724
f 630/350/725 631/349/723 632/346/722
f 633/348/726 631/349/720 627/348/721
f 634/347/727 632/346/722 633/348/724
f 633/348/726 627/348/721 613/338/688
f 634/347/727 633/348/724 611/338/728
f 611/338/690 633/348/726 613/338/688
f 621/344/706 634/347/727 617/341/700
f 621/344/706 635/345/729 634/347/727
f 635/345/729 632/346/722 634/347/727
f 617/341/700 634/347/727 611/338/728
f 624/345/709 635/345/730 621/344/708
f 624/345/709 636/351/731 635/345/730
f 636/351/731 637/351/731 635/345/730
f 635/345/729 637/351/732 632/346/722
f 638/352/733 637/351/734 636/351/734
f 637/351/732 638/352/735 632/346/722
f 639/352/736 638/352/733 636/351/734
f 630/350/737 638/352/733 639/352/736
f 638/352/735 630/350/725 632/346/722
f 629/350/737 630/350/737 639/352/736
f 629/350/719 639/352/738 625/346/710
f 639/352/738 636/351/739 625/346/710
f 636/351/739 624/345/711 625/346/710
f 613/338/694 627/348/715 614/341/695
f 622/343/714 619/342/740 614/341/695
f 619/342/740 615/340/696 614/341/695
f 611/338/728 612/339/701 617/341/700
f 646/353/741 650/354/742 656/355/743
f 652/356/744 646/353/741 656/355/743
f 651/354/745 648/353/746 654/356/747
f 657/355/748 651/354/745 654/356/747
f 648/353/749 646/353/749 652/356/750
f 654/356/751 648/353/749 652/356/750
f 650/354/742 647/357/752 653/358/753
f 656/355/743 650/354/742 653/358/753
f 647/357/754 649/357/754 655/358/755
f 653/358/709 647/357/754 655/358/755
f 649/357/756 651/354/745 657/355/748
f 655/358/757 649/357/756 657/355/748
f 652/356/744 656/355/743 662/359/758
f 658/360/759 652/356/744 662/359/758
f 657/355/748 654/356/747 660/360/760
f 663/359/761 657/355/748 660/360/760
f 654/356/751 652/356/750 658/360/762
f 660/360/763 654/356/751 658/360/762
f 656/355/743 653/358/753 659/361/764
f 662/359/758 656/355/743 659/361/764
f 653/358/709 655/358/755 661/361/765
f 659/361/766 653/358/709 661/361/765
f 655/358/757 657/355/748 663/359/761
f 661/361/767 655/358/757 663/359/761
f 658/360/759 662/359/758 668/362/768
f 664/363/769 658/360/759 668/362/768
f 663/359/761 660/360/760 666/363/770
f 669/362/771 663/359/761 666/363/770
f 660/360/763 658/360/762 664/363/772
f 666/363/773 660/360/763 664/363/772
f 662/359/758 659/361/764 665/364/774
f 668/362/768 662/359/758 665/364/774
f 659/361/766 661/361/765 667/364/775
f 665/364/775 659/361/766 667/364/775
f 661/361/767 663/359/761 669/362/771
f 667/364/776 661/361/767 669/362/771
f 642/365/777 645/366/778 669/362/771
f 666/363/770 642/365/777 669/362/771
f 640/365/779 642/365/779 666/363/773
f 664/363/772 640/365/779 666/363/773
f 643/367/780 667/364/776 669/362/771
f 645/366/778 643/367/780 669/362/771
f 641/367/781 665/364/775 667/364/775
f 643/367/781 641/367/781 667/364/775
f 641/367/782 644/366/783 668/362/768
f 665/364/774 641/367/782 668/362/768
f 644/366/783 640/365/784 664/363/769
f 668/362/768 644/366/783 664/363/769
f 643/367/785 645/366/785 644/366/785
f 641/367/785 643/367/785 644/366/785
f 645/366/785 642/365/785 640/365/785
f 644/366/785 645/366/785 640/365/785
f 670/368/786 672/369/786 671/370/786
f 672/369/786 673/371/786 671/370/786
f 673/371/786 674/372/787 675/373/786
f 671/370/786 673/371/786 675/373/786
f 681/374/788 677/375/788 676/376/788
f 677/375/789 678/377/789 676/376/789
f 676/376/790 678/377/791 679/378/792
f 680/379/790 676/376/790 679/378/792
f 680/379/788 681/374/788 676/376/788
f 683/380/793 682/381/794 681/374/795
f 682/381/794 677/375/795 681/374/795
f 680/379/796 679/378/796 681/374/796
f 683/380/796 681/374/796 679/378/796
f 686/382/797 682/381/794 683/380/793
f 684/383/796 683/380/796 679/378/796
f 684/383/796 685/384/796 683/380/796
f 685/384/797 686/382/797 683/380/793
f 687/385/798 686/382/798 685/384/798
f 687/385/789 678/377/789 686/382/789
f 686/382/789 678/377/789 682/381/789
f 678/377/791 687/385/799 684/383/799
f 684/383/798 687/385/798 685/384/798
f 679/378/792 678/377/791 684/383/799
f 678/377/789 677/375/789 682/381/789
