# Blender 5.2.0 LTS
# www.blender.org
o blade
v -32.792900 -3.202400 -2.265600
v 41.740303 -1.959198 2.265600
v 41.740303 -1.959199 -2.265600
v -32.792900 -3.202400 2.265600
v -35.379101 -3.202400 2.265600
v -35.379101 -3.202400 -2.265600
v -32.792900 3.631000 -3.566900
v -35.379101 3.631000 -3.566900
v -32.792900 9.427600 -2.265601
v 41.740299 9.180600 -2.265601
v 41.740292 3.610700 -3.566900
v 41.740299 9.180600 2.265599
v 41.740292 3.610700 3.566900
v -32.792900 3.631000 3.566900
v -32.792900 9.427600 2.265599
v -35.379101 9.427600 -2.265601
v -35.379101 9.427600 2.265599
v -35.379101 3.631000 3.566900
v -38.564400 -1.345900 -0.480300
v -110.010300 1.677400 -0.566300
v -38.564400 3.406400 -0.566300
v -109.795494 -3.068699 -0.480300
v -38.564400 -1.345900 0.480300
v -109.795494 -3.068699 0.480300
v -38.564400 3.406400 0.566300
v -110.010300 1.677400 0.566300
v -38.564400 8.158600 -0.000001
v -110.225204 6.423400 -0.000000
v -170.362183 -3.336298 -0.566300
v -170.769089 1.393901 -0.000000
v -227.097382 -6.114900 0.000000
v -226.511780 -10.821399 -0.566299
v -170.362183 -3.336298 0.566300
v -226.511780 -10.821399 0.566301
v -169.955399 -8.066401 0.480301
v -225.926300 -15.527599 0.480301
v -169.955399 -8.066401 -0.480299
v -225.926300 -15.527599 -0.480299
v -285.119110 -26.427000 -0.480298
v -285.119110 -26.427000 0.480302
v -281.382904 -20.574402 -0.566298
v -283.795776 -16.482498 0.000001
v -288.616211 -21.934000 0.000002
v -281.382904 -20.574402 0.566302
v -290.956207 -27.484400 0.000002
v -34.015800 -2.157500 -1.099300
v -42.484100 -2.225600 1.099300
v -34.015800 -2.157500 1.099300
v -42.484100 -2.225600 -1.099300
v -34.015800 3.610700 -1.295900
v -42.484100 3.542600 -1.295900
v -34.015800 8.765900 -0.723001
v -34.015800 8.765900 0.722999
v -42.484100 8.697800 -0.723001
v -42.484100 8.697800 0.722999
v -34.015800 3.610700 1.295900
v -42.484100 3.542600 1.295900
v -34.864811 3.600161 0.000003
v -34.864811 3.600161 14.718198
v -34.859154 -5.331424 14.332384
v -34.855064 -11.876558 8.278098
v -34.838463 -12.288182 0.000007
v -34.855061 -11.876547 -8.278075
v -34.859154 -5.331426 -14.332380
v -34.864811 3.600162 -14.718192
v -34.870441 12.535290 -14.334874
v -34.874573 19.075245 -8.276149
v -34.891159 19.488501 -0.000001
v -34.874573 19.075268 8.275996
v -34.870441 12.535280 14.334866
v -37.428440 19.080307 8.277899
v -37.424347 12.535226 14.332388
v -37.418690 3.603639 0.000003
v -37.418690 3.603638 14.718198
v -37.413059 -5.331476 14.334862
v -37.408928 -11.871442 8.276157
v -37.392342 -12.284704 0.000007
v -37.408928 -11.871445 -8.276140
v -37.413059 -5.331493 -14.334882
v -37.418690 3.603640 -14.718192
v -37.424347 12.535228 -14.332381
v -37.428436 19.080355 -8.278086
v -37.445038 19.491983 -0.000001
vn 0.0083 -1.0000 -0.0000
vn 0.0167 -0.9999 -0.0000
vn 0.0016 -0.1871 -0.9823
vn 0.0006 -0.0180 -0.9998
vn 0.0015 -0.2073 -0.9783
vn -0.0000 -1.0000 -0.0000
vn -0.0000 -0.1871 -0.9823
vn -0.0000 0.0852 -0.9964
vn 0.0004 0.2190 -0.9757
vn 0.0004 0.2233 -0.9747
vn -0.0000 -0.0000 -1.0000
vn 1.0000 -0.0000 -0.0000
vn 0.0005 0.0095 1.0000
vn 0.0003 0.0747 0.9972
vn 0.0003 0.2218 0.9751
vn 0.0015 -0.2073 0.9783
vn 0.0008 0.2275 0.9738
vn 0.0017 1.0000 -0.0000
vn -0.0000 1.0000 -0.0000
vn 0.0033 1.0000 -0.0000
vn -0.0000 0.2190 0.9757
vn -0.0000 -0.0527 0.9986
vn 0.0016 -0.1871 0.9823
vn -0.0000 -0.1871 0.9823
vn -0.0000 0.2190 -0.9757
vn 0.0010 -0.0181 -0.9998
vn -0.0015 0.0274 -0.9996
vn 0.0004 -0.0181 -0.9998
vn -0.0018 0.0730 -0.9973
vn 0.0535 -0.9986 -0.0000
vn 0.0242 -0.9997 -0.0000
vn 0.0536 -0.9986 -0.0000
vn 0.0010 -0.0181 0.9998
vn 0.0004 -0.0181 0.9998
vn -0.0007 0.0274 0.9996
vn -0.0039 0.0729 0.9973
vn -0.0029 0.1183 0.9930
vn -0.0063 0.1182 0.9930
vn -0.0029 0.1184 0.9930
vn -0.0063 0.1182 -0.9930
vn -0.0029 0.1183 -0.9930
vn -0.0049 0.0501 -0.9987
vn -0.0136 0.1177 -0.9930
vn -0.0118 0.1179 0.9930
vn -0.0095 0.0634 -0.9979
vn -0.0196 0.1194 -0.9927
vn -0.0187 0.1189 0.9927
vn -0.0059 0.0502 0.9987
vn -0.0057 0.0362 0.9993
vn 0.0020 -0.0180 0.9998
vn 0.0992 -0.9951 -0.0000
vn 0.1485 -0.9889 -0.0000
vn 0.1157 -0.9933 -0.0000
vn 0.0028 -0.0179 0.9998
vn 0.1648 -0.9863 -0.0000
vn 0.0020 -0.0180 -0.9998
vn 0.0028 -0.0179 -0.9998
vn -0.0360 0.0548 -0.9978
vn 0.1797 -0.9837 -0.0000
vn -0.0571 0.0202 -0.9982
vn -0.0891 0.0532 -0.9946
vn -0.0582 0.1031 -0.9930
vn -0.0887 0.0374 -0.9954
vn -0.0361 0.0549 0.9978
vn -0.0582 0.1031 0.9930
vn -0.0891 0.0532 0.9946
vn -0.0887 0.0374 0.9954
vn -0.0571 0.0202 0.9982
vn 0.1783 -0.9840 -0.0000
vn 0.0080 -1.0000 -0.0000
vn -0.0003 0.0141 -0.9999
vn 0.0003 -0.0341 -0.9994
vn -0.0003 0.0624 -0.9981
vn -0.0009 0.1105 -0.9939
vn -0.0080 1.0000 -0.0000
vn -1.0000 -0.0000 -0.0000
vn -0.0003 0.0624 0.9981
vn -0.0009 0.1105 0.9939
vn -0.0003 0.0141 0.9999
vn 0.0003 -0.0341 0.9994
vn 1.0000 0.0006 -0.0000
vn 1.0000 0.0010 -0.0000
vn 1.0000 0.0011 0.0009
vn 1.0000 0.0017 -0.0000
vn 1.0000 0.0011 -0.0009
vn -0.0007 0.4534 0.8913
vn -0.0008 0.3135 0.9496
vn -0.0001 0.0583 0.9983
vn 0.0019 0.9456 0.3254
vn 0.0020 0.8567 0.5158
vn -1.0000 -0.0006 -0.0000
vn -1.0000 -0.0011 0.0009
vn -1.0000 -0.0010 -0.0000
vn 0.0001 -0.0583 0.9983
vn 0.0008 -0.3135 0.9496
vn 0.0007 -0.4534 0.8913
vn -0.0020 -0.8567 0.5158
vn -0.0019 -0.9456 0.3254
vn -1.0000 -0.0011 -0.0009
vn -1.0000 -0.0017 -0.0000
vn -0.0016 -0.9938 -0.1108
vn -0.0016 -0.9938 0.1109
vn -0.0020 -0.8562 -0.5167
vn -0.0019 -0.9457 -0.3251
vn 0.0008 -0.3136 -0.9496
vn 0.0007 -0.4541 -0.8910
vn 0.0001 -0.0585 -0.9983
vn -0.0001 0.0585 -0.9983
vn -0.0008 0.3136 -0.9496
vn -0.0007 0.4541 -0.8910
vn 0.0020 0.8562 -0.5167
vn 0.0019 0.9457 -0.3251
vn 0.0016 0.9938 -0.1108
vn 0.0016 0.9938 0.1109
vt 0.023508 0.535156
vt 0.363281 0.519007
vt 0.023508 0.446391
vt 0.011719 0.535156
vt 0.011719 0.446391
vt 0.023508 0.371094
vt 0.363281 0.374302
vt 0.363281 0.446655
vt 0.011719 0.371094
vt 0.353784 0.833084
vt 0.353378 0.802916
vt 0.488281 0.822133
vt 0.488281 0.791926
vt 0.488281 0.761719
vt 0.352972 0.772748
vt 0.239423 0.834785
vt 0.238654 0.804718
vt 0.133402 0.882364
vt 0.132296 0.852447
vt 0.240191 0.864852
vt 0.134507 0.912279
vt 0.029795 0.944358
vt 0.022740 0.981560
vt 0.016137 0.953000
vt 0.025239 0.918348
vt 0.011719 0.988281
vt 0.628906 0.542969
vt 0.629632 0.363281
vt 0.691131 0.363281
vt 0.690405 0.542969
vt 0.746094 0.363281
vt 0.745368 0.542969
vt 0.544922 0.375318
vt 0.500000 0.363281
vt 0.500000 0.453125
vt 0.455078 0.375318
vt 0.422193 0.408203
vt 0.410156 0.453125
vt 0.422193 0.498047
vt 0.455078 0.530932
vt 0.500000 0.542969
vt 0.544922 0.530932
vt 0.577807 0.498047
vt 0.589844 0.453125
vt 0.577807 0.408204
s 1
f 4/1/1 1/1/1 2/2/2
f 1/1/1 3/2/2 2/2/2
f 1/1/3 7/3/4 3/2/5
f 1/1/1 4/1/1 5/4/6
f 6/4/6 1/1/1 5/4/6
f 7/3/4 1/1/3 6/4/7
f 8/5/8 7/3/4 6/4/7
f 9/6/9 7/3/4 8/5/8
f 7/3/4 9/6/9 10/7/10
f 7/3/4 11/8/11 3/2/5
f 11/8/11 7/3/4 10/7/10
f 3/2/12 11/8/12 13/8/12
f 11/8/12 10/7/12 12/7/12
f 13/8/12 11/8/12 12/7/12
f 14/3/13 13/8/14 15/6/15
f 2/2/16 13/8/14 14/3/13
f 2/2/12 3/2/12 13/8/12
f 13/8/14 12/7/17 15/6/15
f 15/6/18 9/6/18 16/9/19
f 9/6/18 15/6/18 10/7/20
f 15/6/18 12/7/20 10/7/20
f 17/9/19 15/6/18 16/9/19
f 14/3/13 15/6/15 17/9/21
f 18/5/22 14/3/13 17/9/21
f 4/1/23 14/3/13 18/5/22
f 5/4/24 4/1/23 18/5/22
f 16/9/25 9/6/9 8/5/8
f 4/1/23 2/2/16 14/3/13
f 22/10/26 20/11/27 19/12/28
f 20/11/27 21/13/29 19/12/28
f 22/10/30 19/12/31 23/12/31
f 24/10/30 22/10/32 23/12/31
f 24/10/33 23/12/34 25/13/35
f 26/11/36 24/10/33 25/13/35
f 26/11/36 25/13/35 27/14/37
f 28/15/38 26/11/36 27/14/39
f 28/15/40 27/14/41 21/13/29
f 20/11/27 29/16/42 28/15/40
f 29/16/42 30/17/43 28/15/40
f 28/15/38 30/17/44 26/11/36
f 20/11/27 28/15/40 21/13/29
f 32/18/45 31/19/46 30/17/43
f 30/17/44 31/19/47 33/16/48
f 29/16/42 32/18/45 30/17/43
f 30/17/44 33/16/48 26/11/36
f 31/19/47 34/18/49 33/16/48
f 26/11/36 33/16/48 24/10/33
f 33/16/48 35/20/50 24/10/33
f 33/16/48 34/18/49 35/20/50
f 35/20/51 36/21/52 37/20/53
f 34/18/49 36/21/54 35/20/50
f 35/20/51 37/20/53 22/10/32
f 24/10/30 35/20/51 22/10/32
f 36/21/52 38/21/55 37/20/53
f 37/20/56 38/21/57 29/16/42
f 37/20/56 29/16/42 20/11/27
f 22/10/26 37/20/56 20/11/27
f 38/21/57 32/18/45 29/16/42
f 41/22/58 32/18/45 38/21/57
f 36/21/52 40/23/59 38/21/55
f 40/23/59 39/23/59 38/21/55
f 39/23/60 41/22/58 38/21/57
f 41/22/58 39/23/60 43/24/61
f 41/22/58 42/25/62 31/19/46
f 42/25/62 41/22/58 43/24/61
f 32/18/45 41/22/58 31/19/46
f 39/23/60 45/26/63 43/24/61
f 44/22/64 42/25/65 43/24/66
f 45/26/67 40/23/68 43/24/66
f 40/23/68 44/22/64 43/24/66
f 39/23/59 40/23/59 45/26/69
f 42/25/65 44/22/64 31/19/47
f 44/22/64 40/23/68 36/21/54
f 34/18/49 44/22/64 36/21/54
f 44/22/64 34/18/49 31/19/47
f 49/27/70 46/28/70 47/27/70
f 46/28/70 48/28/70 47/27/70
f 50/29/71 46/28/72 49/27/72
f 51/30/73 50/29/71 49/27/72
f 52/31/74 50/29/71 51/30/73
f 53/31/75 52/31/75 54/32/75
f 54/32/74 52/31/74 51/30/73
f 55/32/75 53/31/75 54/32/75
f 55/32/76 54/32/76 51/30/76
f 56/29/77 53/31/78 55/32/78
f 57/30/76 55/32/76 49/27/76
f 49/27/76 55/32/76 51/30/76
f 57/30/79 56/29/77 55/32/78
f 47/27/76 57/30/76 49/27/76
f 47/27/80 48/28/80 57/30/79
f 48/28/80 56/29/77 57/30/79
f 70/33/81 59/34/81 58/35/82
f 59/34/81 60/36/81 58/35/82
f 60/36/81 61/37/83 58/35/82
f 61/37/83 62/38/84 58/35/82
f 62/38/84 63/39/85 58/35/82
f 63/39/85 64/40/81 58/35/82
f 64/40/81 65/41/81 58/35/82
f 65/41/81 66/42/81 58/35/82
f 66/42/81 67/43/83 58/35/82
f 67/43/83 68/44/84 58/35/82
f 68/44/84 69/45/85 58/35/82
f 69/45/85 70/33/81 58/35/82
f 70/33/86 72/33/87 59/34/88
f 69/45/89 71/45/90 70/33/86
f 71/45/90 72/33/87 70/33/86
f 72/33/91 71/45/92 73/35/93
f 74/34/91 72/33/91 73/35/93
f 72/33/87 74/34/94 59/34/88
f 59/34/88 74/34/94 60/36/95
f 74/34/94 75/36/96 60/36/95
f 75/36/91 74/34/91 73/35/93
f 60/36/95 75/36/96 61/37/97
f 75/36/96 76/37/98 61/37/97
f 76/37/99 75/36/91 73/35/93
f 77/38/100 76/37/99 73/35/93
f 76/37/98 77/38/101 62/38/102
f 61/37/97 76/37/98 62/38/102
f 78/39/92 77/38/100 73/35/93
f 77/38/101 78/39/103 63/39/104
f 62/38/102 77/38/101 63/39/104
f 79/40/91 78/39/92 73/35/93
f 78/39/103 79/40/105 64/40/106
f 63/39/104 78/39/103 64/40/106
f 64/40/106 79/40/105 65/41/107
f 79/40/105 80/41/108 65/41/107
f 80/41/91 79/40/91 73/35/93
f 65/41/107 80/41/108 66/42/109
f 80/41/108 81/42/110 66/42/109
f 81/42/91 80/41/91 73/35/93
f 66/42/109 81/42/110 67/43/111
f 81/42/110 82/43/112 67/43/111
f 82/43/99 81/42/91 73/35/93
f 67/43/111 82/43/112 68/44/113
f 82/43/112 83/44/114 68/44/113
f 83/44/100 82/43/99 73/35/93
f 68/44/113 83/44/114 69/45/89
f 83/44/114 71/45/90 69/45/89
f 71/45/92 83/44/100 73/35/93
o blade_damaged
v -38.564400 -1.345900 -0.480300
v -110.010307 1.677400 -0.566300
v -38.564400 3.406400 -0.566300
v -109.795509 -3.068700 -0.480300
v -38.564400 -1.345900 0.480300
v -109.795509 -3.068700 0.480300
v -38.564400 3.406400 0.566300
v -38.564400 8.158600 -0.000001
v -110.010307 1.677400 0.566300
v -110.225204 6.423400 -0.000000
v -32.792900 -2.955400 -2.265600
v 41.740303 -1.959199 2.265600
v 41.740303 -1.959200 -2.265600
v -32.792900 -2.955400 2.265600
v -35.379101 -2.955400 2.265600
v -35.379101 -2.955400 -2.265600
v -32.792900 3.610700 -3.566900
v 41.740292 3.610699 -3.566900
v -35.379101 3.610700 -3.566900
v -32.792900 9.180600 -2.265601
v 41.740299 9.180600 -2.265601
v -32.792900 9.180600 2.265599
v 41.740299 9.180600 2.265599
v 41.740292 3.610700 3.566900
v -32.792900 3.610700 3.566900
v -35.379101 3.610700 3.566900
v -35.379101 9.180600 2.265599
v -35.379101 9.180600 -2.265601
v -34.864807 3.600123 0.000003
v -34.864807 3.600123 14.718282
v -34.859024 -5.331362 14.332397
v -34.854847 -11.876574 8.278175
v -34.837887 -12.288166 0.000007
v -34.854847 -11.876559 -8.278152
v -34.859024 -5.331365 -14.332393
v -34.864807 3.600124 -14.718276
v -34.870560 12.535231 -14.334940
v -34.874779 19.075148 -8.276183
v -34.891727 19.488411 -0.000001
v -34.874779 19.075172 8.276033
v -34.870560 12.535221 14.334933
v -37.428646 19.080320 8.277976
v -37.424465 12.535163 14.332397
v -37.418686 3.603676 14.718282
v -37.418682 3.603677 0.000003
v -37.408710 -11.871348 -8.276175
v -37.412930 -5.331433 -14.334947
v -37.418682 3.603678 -14.718276
v -37.424465 12.535165 -14.332391
v -37.428642 19.080368 -8.278162
v -37.412930 -5.331417 14.334929
v -37.445606 19.491968 -0.000001
v -37.408710 -11.871343 8.276191
v -37.391762 -12.284614 0.000007
v -34.015800 -2.157500 -1.099300
v -42.484100 -2.225600 1.099300
v -34.015800 -2.157500 1.099300
v -42.484100 -2.225600 -1.099300
v -34.015800 3.610700 -1.295900
v -42.484100 3.542600 -1.295900
v -34.015800 8.765900 -0.723001
v -34.015800 8.765900 0.722999
v -42.484100 8.697800 -0.723001
v -42.484100 8.697800 0.722999
v -34.015800 3.610700 1.295900
v -42.484100 3.542600 1.295900
vn 0.0004 -0.0181 -0.9998
vn -0.0007 0.0274 -0.9996
vn -0.0007 0.0275 -0.9996
vn -0.0018 0.0730 -0.9973
vn 0.0242 -0.9997 -0.0000
vn 0.0004 -0.0181 0.9998
vn -0.0007 0.0274 0.9996
vn -0.0018 0.0730 0.9973
vn -0.0029 0.1183 0.9930
vn -0.0029 0.1184 0.9930
vn -0.0029 0.1183 -0.9930
vn -0.0029 0.1184 -0.9930
vn 0.0067 -1.0000 -0.0000
vn 0.0134 -0.9999 -0.0000
vn 0.0013 -0.1944 -0.9809
vn 0.0004 -0.0187 -0.9998
vn 0.0013 -0.2110 -0.9775
vn -0.0000 -1.0000 -0.0000
vn -0.0000 -0.1944 -0.9809
vn -0.0000 -0.0000 -1.0000
vn -0.0000 0.2275 -0.9738
vn -0.0000 0.0886 -0.9961
vn -0.0000 1.0000 -0.0000
vn 1.0000 -0.0000 -0.0000
vn -0.0000 0.0776 0.9970
vn -0.0000 0.2275 0.9738
vn 0.0004 0.0114 0.9999
vn 0.0013 -0.2110 0.9775
vn 0.0013 -0.1944 0.9809
vn -0.0000 -0.0549 0.9985
vn -0.0000 -0.1944 0.9809
vn 1.0000 0.0006 -0.0000
vn 1.0000 0.0010 -0.0000
vn 1.0000 0.0011 0.0009
vn 1.0000 0.0017 -0.0000
vn 1.0000 0.0011 -0.0009
vn -0.0007 0.4534 0.8913
vn -0.0008 0.3135 0.9496
vn -0.0001 0.0583 0.9983
vn 0.0019 0.9456 0.3254
vn 0.0020 0.8567 0.5158
vn 0.0001 -0.0583 0.9983
vn -1.0000 -0.0006 -0.0000
vn -1.0000 -0.0010 -0.0000
vn -1.0000 -0.0011 0.0009
vn -1.0000 -0.0017 -0.0000
vn -1.0000 -0.0011 -0.0009
vn -0.0017 -0.9938 0.1109
vn -0.0017 -0.9938 -0.1108
vn -0.0020 -0.9457 -0.3251
vn -0.0020 -0.9456 0.3254
vn -0.0020 -0.8562 -0.5167
vn -0.0021 -0.8567 0.5158
vn 0.0007 -0.4534 0.8913
vn 0.0017 0.9938 -0.1108
vn 0.0017 0.9938 0.1109
vn 0.0020 0.9457 -0.3251
vn 0.0008 -0.3135 0.9496
vn 0.0020 0.8562 -0.5167
vn -0.0007 0.4541 -0.8910
vn -0.0008 0.3136 -0.9496
vn -0.0001 0.0585 -0.9983
vn 0.0008 -0.3136 -0.9496
vn 0.0001 -0.0585 -0.9983
vn 0.0007 -0.4541 -0.8910
vn 0.0080 -1.0000 -0.0000
vn -0.0003 0.0141 -0.9999
vn 0.0003 -0.0341 -0.9994
vn -0.0003 0.0624 -0.9981
vn -0.0009 0.1105 -0.9939
vn -0.0080 1.0000 -0.0000
vn -1.0000 -0.0000 -0.0000
vn -0.0003 0.0141 0.9999
vn -0.0003 0.0624 0.9981
vn -0.0009 0.1105 0.9939
vn 0.0003 -0.0341 0.9994
vt 0.014576 0.988281
vt 0.013148 0.892507
vt 0.488281 0.953516
vt 0.488281 0.857616
vt 0.488281 0.761719
vt 0.011719 0.796734
vt 0.023508 0.535156
vt 0.363281 0.521689
vt 0.023508 0.446391
vt 0.011719 0.535156
vt 0.363281 0.446391
vt 0.363281 0.371094
vt 0.011719 0.446391
vt 0.023508 0.371094
vt 0.011719 0.371094
vt 0.544922 0.375318
vt 0.500000 0.363281
vt 0.500000 0.453125
vt 0.455078 0.375318
vt 0.422193 0.408203
vt 0.410156 0.453125
vt 0.422193 0.498047
vt 0.455078 0.530932
vt 0.500000 0.542969
vt 0.544922 0.530932
vt 0.577807 0.498047
vt 0.589844 0.453125
vt 0.577807 0.408204
vt 0.628906 0.542969
vt 0.629632 0.363281
vt 0.691131 0.363281
vt 0.690405 0.542969
vt 0.746094 0.363281
vt 0.745368 0.542969
s 1
f 87/46/115 85/47/116 84/48/115
f 85/47/117 86/49/118 84/48/115
f 87/46/119 84/48/119 88/48/119
f 89/46/119 87/46/119 88/48/119
f 89/46/120 88/48/120 90/49/121
f 92/47/122 90/49/121 91/50/123
f 92/47/122 89/46/120 90/49/121
f 93/51/124 92/47/122 91/50/124
f 93/51/125 91/50/125 86/49/118
f 85/47/117 93/51/126 86/49/118
f 97/52/127 94/52/127 95/53/128
f 94/52/127 96/53/128 95/53/128
f 94/52/129 100/54/130 96/53/131
f 94/52/127 97/52/127 98/55/132
f 99/55/132 94/52/127 98/55/132
f 100/54/130 94/52/129 99/55/133
f 101/56/134 100/54/130 104/57/135
f 100/54/130 101/56/134 96/53/131
f 102/58/136 100/54/130 99/55/133
f 103/59/135 100/54/130 102/58/136
f 100/54/130 103/59/135 104/57/135
f 103/59/137 105/59/137 104/57/137
f 105/59/137 106/57/137 104/57/137
f 101/56/138 104/57/138 106/57/138
f 107/56/139 106/57/140 105/59/140
f 107/56/138 101/56/138 106/57/138
f 96/53/138 101/56/138 107/56/138
f 108/54/141 107/56/139 105/59/140
f 95/53/142 107/56/139 108/54/141
f 95/53/138 96/53/138 107/56/138
f 97/52/143 108/54/141 109/58/144
f 97/52/143 95/53/142 108/54/141
f 108/54/141 105/59/140 110/60/140
f 109/58/144 108/54/141 110/60/140
f 110/60/137 105/59/137 111/60/137
f 105/59/137 103/59/137 111/60/137
f 111/60/135 103/59/135 102/58/136
f 98/55/145 97/52/143 109/58/144
f 124/61/146 113/62/146 112/63/147
f 113/62/146 114/64/146 112/63/147
f 114/64/146 115/65/148 112/63/147
f 115/65/148 116/66/149 112/63/147
f 116/66/149 117/67/150 112/63/147
f 117/67/150 118/68/146 112/63/147
f 118/68/146 119/69/146 112/63/147
f 119/69/146 120/70/146 112/63/147
f 120/70/146 121/71/148 112/63/147
f 121/71/148 122/72/149 112/63/147
f 122/72/149 123/73/150 112/63/147
f 123/73/150 124/61/146 112/63/147
f 124/61/151 126/61/152 113/62/153
f 123/73/154 125/73/155 124/61/151
f 125/73/155 126/61/152 124/61/151
f 126/61/152 127/62/156 113/62/153
f 127/62/157 126/61/157 128/63/158
f 126/61/157 125/73/159 128/63/158
f 130/68/157 129/67/159 128/63/158
f 129/67/159 137/66/160 128/63/158
f 131/69/157 130/68/157 128/63/158
f 132/70/157 131/69/157 128/63/158
f 133/71/161 132/70/157 128/63/158
f 134/64/157 127/62/157 128/63/158
f 135/72/160 133/71/161 128/63/158
f 136/65/161 134/64/157 128/63/158
f 125/73/159 135/72/160 128/63/158
f 137/66/160 136/65/161 128/63/158
f 116/66/162 137/66/163 117/67/164
f 136/65/165 137/66/163 116/66/162
f 137/66/163 129/67/166 117/67/164
f 115/65/167 136/65/165 116/66/162
f 134/64/168 136/65/165 115/65/167
f 122/72/169 135/72/170 123/73/154
f 133/71/171 135/72/170 122/72/169
f 135/72/170 125/73/155 123/73/154
f 114/64/172 134/64/168 115/65/167
f 127/62/156 134/64/168 114/64/172
f 121/71/173 133/71/171 122/72/169
f 132/70/174 133/71/171 121/71/173
f 120/70/175 132/70/174 121/71/173
f 131/69/176 132/70/174 120/70/175
f 130/68/177 131/69/176 119/69/178
f 119/69/178 131/69/176 120/70/175
f 129/67/166 130/68/177 118/68/179
f 118/68/179 130/68/177 119/69/178
f 117/67/164 129/67/166 118/68/179
f 113/62/153 127/62/156 114/64/172
f 141/74/180 138/75/180 139/74/180
f 138/75/180 140/75/180 139/74/180
f 142/76/181 138/75/182 141/74/182
f 143/77/183 142/76/181 141/74/182
f 144/78/184 142/76/181 143/77/183
f 145/78/185 144/78/185 146/79/185
f 146/79/184 144/78/184 143/77/183
f 147/79/185 145/78/185 146/79/185
f 147/79/186 146/79/186 143/77/186
f 149/77/187 148/76/188 147/79/189
f 148/76/188 145/78/189 147/79/189
f 149/77/186 147/79/186 141/74/186
f 141/74/186 147/79/186 143/77/186
f 140/75/190 148/76/188 149/77/187
f 139/74/190 140/75/190 149/77/187
f 139/74/186 149/77/186 141/74/186
o blade_fragment
v -285.119080 -26.426998 -0.480298
v -290.956177 -27.484396 0.000002
v -285.119080 -26.426998 0.480302
v -288.616180 -21.933998 0.000002
v -281.382874 -20.574398 -0.566298
v -225.926285 -15.527596 -0.480299
v -226.511765 -10.821397 -0.566299
v -225.926285 -15.527596 0.480301
v -170.362167 -3.336299 -0.566300
v -169.955399 -8.066399 -0.480299
v -169.955399 -8.066399 0.480301
v -110.010292 1.677401 -0.566300
v -109.795486 -3.068699 -0.480300
v -109.795486 -3.068699 0.480300
v -110.010292 1.677401 0.566300
v -170.362167 -3.336299 0.566300
v -226.511765 -10.821397 0.566301
v -170.769089 1.393899 -0.000000
v -227.097382 -6.114900 0.000000
v -281.382874 -20.574398 0.566302
v -283.795776 -16.482498 0.000001
v -110.225189 6.423399 -0.000000
vn -0.0571 0.0202 -0.9982
vn -0.0887 0.0374 -0.9954
vn -0.0891 0.0532 -0.9946
vn 0.1797 -0.9837 -0.0000
vn 0.1783 -0.9840 -0.0000
vn 0.1648 -0.9863 -0.0000
vn -0.0360 0.0548 -0.9978
vn 0.0028 -0.0179 -0.9998
vn -0.0093 0.0634 -0.9979
vn -0.0049 0.0501 -0.9987
vn 0.1485 -0.9889 -0.0000
vn 0.1157 -0.9933 -0.0000
vn 0.0020 -0.0180 -0.9998
vn -0.0023 0.0274 -0.9996
vn 0.0992 -0.9951 -0.0000
vn 0.0828 -0.9966 -0.0000
vn 0.0015 -0.0180 -0.9998
vn -0.0060 0.0728 0.9973
vn -0.0059 0.0502 0.9987
vn 0.0015 -0.0180 0.9998
vn 0.0020 -0.0180 0.9998
vn -0.0187 0.1189 0.9927
vn -0.0057 0.0362 0.9993
vn -0.0118 0.1179 0.9930
vn -0.0196 0.1194 -0.9927
vn -0.0582 0.1031 -0.9930
vn -0.0582 0.1031 0.9930
vn -0.0361 0.0549 0.9978
vn -0.0136 0.1177 -0.9930
vn -0.0891 0.0532 0.9946
vn -0.0571 0.0202 0.9982
vn 0.0028 -0.0179 0.9998
vn -0.0098 0.1180 -0.9930
vn -0.0098 0.1180 0.9930
vn -0.0887 0.0374 0.9954
vt 0.027074 0.981216
vt 0.011719 0.988281
vt 0.017874 0.951195
vt 0.182787 0.908389
vt 0.036902 0.942111
vt 0.181247 0.876944
vt 0.328954 0.826930
vt 0.330024 0.858536
vt 0.487716 0.793430
vt 0.488281 0.825142
vt 0.179706 0.845496
vt 0.327884 0.795324
vt 0.030555 0.914770
vt 0.487151 0.761719
s 1
f 150/80/191 151/81/192 153/82/193
f 150/80/194 152/80/194 151/81/195
f 152/80/194 150/80/194 155/83/196
f 154/84/197 150/80/191 153/82/193
f 150/80/191 154/84/197 155/83/198
f 154/84/197 156/85/199 155/83/198
f 155/83/198 156/85/199 158/86/200
f 157/83/201 155/83/196 159/87/202
f 157/83/201 152/80/194 155/83/196
f 159/87/203 155/83/198 158/86/200
f 159/87/203 158/86/200 161/88/204
f 160/87/205 159/87/202 162/89/206
f 160/87/205 157/83/201 159/87/202
f 162/89/207 159/87/203 161/88/204
f 163/89/206 160/87/205 162/89/206
f 164/88/208 165/86/209 163/89/210
f 165/86/209 160/87/211 163/89/210
f 168/90/212 166/85/213 165/86/209
f 165/86/209 166/85/213 160/87/211
f 167/91/214 165/86/209 164/88/208
f 167/91/214 168/90/212 165/86/209
f 156/85/199 154/84/197 168/90/215
f 154/84/197 170/92/216 168/90/215
f 170/92/217 169/84/218 168/90/212
f 169/84/218 166/85/213 168/90/212
f 156/85/199 168/90/215 167/91/219
f 169/84/218 170/92/217 153/82/220
f 170/92/216 154/84/197 153/82/193
f 152/80/221 169/84/218 153/82/220
f 166/85/213 169/84/218 157/83/222
f 169/84/218 152/80/221 157/83/222
f 158/86/200 167/91/219 171/93/223
f 158/86/200 156/85/199 167/91/219
f 171/93/224 167/91/214 164/88/208
f 161/88/204 158/86/200 171/93/223
f 166/85/213 157/83/222 160/87/211
f 151/81/225 152/80/221 153/82/220
o sheath
v -35.537594 -2.408487 -2.462378
v -109.624603 -5.284317 2.726911
v -35.537594 -2.408486 2.462378
v -109.624603 -5.284317 -2.726910
v -109.955109 0.926713 -4.570762
v -35.134823 3.499482 -3.777248
v -35.134823 3.499483 3.777248
v -109.955109 0.926714 4.570762
v -35.389313 9.398791 2.462377
v -35.389313 9.398791 -2.462379
v -110.285698 7.137743 2.726910
v -171.035248 2.195664 2.726910
v -110.285698 7.137743 -2.726911
v -171.035248 2.195664 -2.726910
v -227.594101 -4.733328 -2.726910
v -226.508377 -10.868086 -4.570761
v -170.314575 -3.983876 -4.570762
v -169.594147 -10.163337 -2.726909
v -225.422852 -17.002768 -2.726909
v -294.118378 -28.617380 -2.640480
v -294.118378 -28.617380 2.640484
v -225.422852 -17.002768 2.726911
v -226.508377 -10.868086 4.570763
v -169.594147 -10.163337 2.726911
v -170.314575 -3.983875 4.570763
v -227.594101 -4.733328 2.726910
v -297.122711 -16.274298 -2.640481
v -297.122711 -16.274298 2.640483
v -295.966003 -22.511379 4.050474
v -295.966003 -22.511379 -4.050470
v -35.480892 -2.068468 -1.933396
v -35.305309 8.241507 -1.933397
v -35.480892 -2.068467 1.933396
v -35.305309 8.241507 1.933395
v -35.385521 3.531470 -2.983816
v -35.385521 3.531470 2.983816
v -293.705200 -27.661724 -1.933394
v -296.226044 -17.417904 -1.933395
v -293.705200 -27.661724 1.933398
v -296.226044 -17.417904 1.933397
v -294.965576 -22.539816 -2.983814
v -294.965576 -22.539816 2.983818
v -225.587036 -16.207220 -1.933395
v -227.404739 -5.846018 -1.933396
v -225.587036 -16.207220 1.933397
v -227.404739 -5.846018 1.933396
v -226.495804 -11.026701 -2.983815
v -226.495804 -11.026701 2.983817
v -169.698975 -9.313675 -1.933395
v -170.906876 1.122642 -1.933396
v -169.698975 -9.313675 1.933397
v -170.906876 1.122642 1.933396
v -170.302872 -4.095555 -2.983816
v -170.302872 -4.095555 2.983816
v -109.670334 -4.380011 -1.933396
v -110.223404 6.110211 -1.933396
v -109.670334 -4.380011 1.933396
v -110.223404 6.110211 1.933396
v -109.946823 0.865101 -2.983816
v -109.946823 0.865101 2.983816
v -293.705200 -27.661724 -1.933394
v -294.965576 -22.539816 -2.983814
v -293.705200 -27.661724 1.933398
v -294.965576 -22.539816 2.983818
v -296.226044 -17.417904 1.933397
v -296.226044 -17.417904 -1.933395
v -93.235199 -4.707600 -2.215558
v -93.235199 -4.707600 2.215640
v -93.160118 0.905345 -3.548222
v -89.582527 1.066607 -3.548222
v -89.757965 -4.550916 -2.215558
v -89.757965 -4.550916 2.215640
v -93.160118 0.905346 3.548222
v -89.582527 1.066607 3.548222
v -89.407104 6.684130 -2.215640
v -89.407104 6.684130 2.215558
v -93.084930 6.518376 2.215558
v -93.084930 6.518376 -2.215640
vn 0.0685 -0.9977 -0.0000
vn 0.0388 -0.9992 -0.0000
vn 0.0514 -0.9987 -0.0000
vn 0.9996 -0.0278 -0.0000
vn 0.9977 -0.0680 -0.0000
vn 0.0153 -0.2505 -0.9680
vn 0.0188 -0.2836 -0.9588
vn 0.0095 -0.0427 -0.9990
vn 0.0104 0.0032 -0.9999
vn 1.0000 0.0028 -0.0000
vn 0.0104 0.0032 0.9999
vn -0.0015 0.2504 0.9682
vn 0.0010 0.0409 0.9992
vn 0.0153 -0.2505 0.9680
vn 0.9991 0.0431 -0.0000
vn -0.0302 0.9995 -0.0000
vn -0.0557 0.9984 -0.0000
vn -0.0141 0.2839 0.9588
vn -0.0266 0.2830 0.9588
vn -0.0932 0.9956 -0.0000
vn -0.1095 0.9940 -0.0000
vn -0.1342 0.9910 -0.0000
vn -0.0085 0.0401 -0.9992
vn -0.0412 0.2809 -0.9589
vn -0.0312 0.2825 -0.9588
vn 0.0026 -0.0006 -1.0000
vn -0.0176 0.2837 -0.9588
vn 0.0264 -0.2830 -0.9588
vn 0.0380 -0.2814 -0.9588
vn 0.1667 -0.9860 -0.0000
vn 0.1534 -0.9882 -0.0000
vn 0.0385 -0.2475 -0.9681
vn 0.1350 -0.9908 -0.0000
vn 0.1096 -0.9940 -0.0000
vn 0.0041 -0.0430 0.9991
vn 0.0402 -0.2811 0.9588
vn 0.0310 -0.2825 0.9588
vn 0.0385 -0.2475 0.9681
vn 0.0931 -0.9957 -0.0000
vn -0.0023 -0.0010 1.0000
vn 0.0205 -0.2835 0.9588
vn -0.0386 0.2813 0.9588
vn -0.1512 0.9885 -0.0000
vn -0.1637 0.9865 -0.0000
vn -0.0450 0.2457 0.9683
vn -0.9752 -0.2215 -0.0000
vn -0.9832 -0.1823 -0.0000
vn -0.0081 0.0051 1.0000
vn -0.9679 -0.2512 -0.0000
vn -0.9571 -0.2896 -0.0000
vn -0.0082 0.0051 -1.0000
vn -0.0450 0.2457 -0.9683
vn -0.0015 0.2504 -0.9682
vn 0.0325 -0.1931 -0.9806
vn -0.0150 0.0709 -0.9974
vn 0.0018 -0.0003 -1.0000
vn 0.0265 -0.1941 -0.9806
vn 0.0133 -0.0590 0.9982
vn 0.0325 -0.1931 0.9806
vn 0.0299 -0.1936 0.9806
vn -0.0016 -0.0008 1.0000
vn 0.1658 -0.9862 -0.0000
vn 0.1530 -0.9882 -0.0000
vn 0.1353 -0.9908 -0.0000
vn -0.0325 0.1931 -0.9806
vn -0.0301 0.1936 -0.9806
vn -0.1658 0.9862 -0.0000
vn -0.1529 0.9882 -0.0000
vn -0.1354 0.9908 -0.0000
vn -0.0325 0.1931 0.9806
vn -0.0267 0.1941 0.9806
vn 0.0017 -0.0004 -1.0000
vn 0.0185 -0.1952 -0.9806
vn 0.0216 -0.1949 0.9806
vn -0.0016 -0.0007 1.0000
vn 0.1104 -0.9939 -0.0000
vn 0.0939 -0.9956 -0.0000
vn -0.0217 0.1949 -0.9806
vn -0.1104 0.9939 -0.0000
vn -0.0940 0.9956 -0.0000
vn -0.0185 0.1952 0.9806
vn 0.0019 0.0031 -1.0000
vn 0.0093 -0.1921 -0.9813
vn 0.0132 -0.1957 0.9806
vn -0.0024 0.0326 0.9995
vn 0.0669 -0.9978 -0.0000
vn 0.0462 -0.9989 -0.0000
vn -0.0128 0.1957 -0.9806
vn -0.0552 0.9985 -0.0000
vn -0.0108 0.1958 0.9806
vn 0.0062 -0.1902 0.9817
vn -0.0008 0.0204 0.9998
vn 0.0311 -0.9995 -0.0000
vn -0.0068 0.2071 0.9783
vn -0.0284 0.9996 -0.0000
vn -0.0068 0.2071 -0.9783
vn -0.0004 -0.0518 -0.9987
vn 0.0057 -0.1845 -0.9828
vn 0.9999 -0.0170 -0.0000
vn -0.9710 -0.2389 -0.0000
vn -0.9710 -0.2390 -0.0000
vn 0.0450 -0.9990 -0.0000
vn -0.9999 0.0134 -0.0000
vn 0.0104 -0.2311 -0.9729
vn 0.0015 0.0725 -0.9974
vn -0.0007 -0.0720 -0.9974
vn -0.0003 0.0860 0.9963
vn -0.0006 -0.0855 0.9963
vn 0.0104 -0.2311 0.9729
vn 0.9995 -0.0312 -0.0000
vn -0.0104 0.2311 0.9729
vn -0.0450 0.9990 -0.0000
vn -0.0104 0.2311 -0.9729
vt 0.352875 0.633003
vt 0.487720 0.624855
vt 0.488281 0.599537
vt 0.352092 0.606343
vt 0.487645 0.574219
vt 0.351308 0.579684
vt 0.240814 0.597448
vt 0.138009 0.623971
vt 0.140166 0.650346
vt 0.242306 0.623994
vt 0.243799 0.650540
vt 0.142322 0.676721
vt 0.017551 0.722656
vt 0.011719 0.669544
vt 0.014008 0.696362
vt 0.016650 0.722656
vt 0.014184 0.699027
vt 0.139093 0.650501
vt 0.140917 0.674377
vt 0.011719 0.675397
vt 0.137269 0.626624
vt 0.241684 0.622251
vt 0.242951 0.646281
vt 0.240416 0.598221
vt 0.351952 0.603328
vt 0.352622 0.627461
vt 0.351283 0.579196
vt 0.488281 0.621609
vt 0.488281 0.595868
vt 0.488281 0.574219
vt 0.628906 0.511340
vt 0.628906 0.394910
vt 0.687500 0.542969
vt 0.687500 0.363281
vt 0.746094 0.394910
vt 0.746094 0.511340
vt 0.629684 0.397023
vt 0.628906 0.397023
vt 0.628906 0.509225
vt 0.687088 0.542969
vt 0.687889 0.542969
vt 0.629684 0.509225
vt 0.687889 0.363281
vt 0.687088 0.363281
vt 0.745271 0.397025
vt 0.746094 0.509227
vt 0.746094 0.397025
vt 0.745271 0.509227
s 1
f 175/94/226 172/95/227 173/94/228
f 172/95/227 174/95/227 173/94/228
f 178/96/229 174/95/230 172/95/230
f 172/95/231 175/94/232 176/97/233
f 177/96/234 172/95/231 176/97/233
f 177/96/235 178/96/229 172/95/230
f 178/96/236 180/98/237 179/97/238
f 174/95/239 178/96/236 179/97/238
f 180/98/240 178/96/229 177/96/235
f 181/98/240 180/98/240 177/96/235
f 180/98/241 181/98/241 182/99/242
f 180/98/237 182/99/243 179/97/238
f 182/99/243 183/100/244 179/97/238
f 185/100/245 183/100/246 182/99/242
f 181/98/241 184/99/242 182/99/242
f 184/99/242 185/100/245 182/99/242
f 185/100/245 186/101/247 183/100/246
f 187/102/248 186/101/249 185/100/250
f 188/103/251 187/102/248 185/100/250
f 188/103/251 185/100/250 184/99/252
f 176/97/233 188/103/251 184/99/252
f 189/104/253 188/103/251 176/97/233
f 190/105/254 187/102/248 188/103/251
f 189/104/253 190/105/254 188/103/251
f 192/106/255 191/106/255 190/105/256
f 190/105/254 191/106/257 187/102/248
f 193/105/258 192/106/255 190/105/256
f 193/105/258 190/105/256 189/104/259
f 194/102/260 193/105/261 195/104/262
f 192/106/263 193/105/261 194/102/260
f 195/104/264 193/105/258 189/104/259
f 196/103/265 194/102/260 195/104/262
f 195/104/264 189/104/259 175/94/226
f 196/103/265 195/104/262 173/94/266
f 173/94/228 195/104/264 175/94/226
f 183/100/244 196/103/265 179/97/238
f 183/100/244 197/101/267 196/103/265
f 197/101/267 194/102/260 196/103/265
f 179/97/238 196/103/265 173/94/266
f 186/101/247 197/101/268 183/100/246
f 186/101/247 198/107/269 197/101/268
f 198/107/269 199/107/269 197/101/268
f 197/101/267 199/107/270 194/102/260
f 200/108/271 199/107/272 198/107/272
f 199/107/270 200/108/273 194/102/260
f 201/108/274 200/108/271 198/107/272
f 192/106/275 200/108/271 201/108/274
f 200/108/273 192/106/263 194/102/260
f 191/106/275 192/106/275 201/108/274
f 191/106/257 201/108/276 187/102/248
f 201/108/276 198/107/277 187/102/248
f 198/107/277 186/101/249 187/102/248
f 175/94/232 189/104/253 176/97/233
f 184/99/252 181/98/278 176/97/233
f 181/98/278 177/96/234 176/97/233
f 173/94/266 174/95/239 179/97/238
f 208/109/279 212/110/280 218/111/281
f 214/112/282 208/109/279 218/111/281
f 213/110/283 210/109/284 216/112/285
f 219/111/286 213/110/283 216/112/285
f 210/109/287 208/109/287 214/112/288
f 216/112/289 210/109/287 214/112/288
f 212/110/280 209/113/290 215/114/291
f 218/111/281 212/110/280 215/114/291
f 209/113/292 211/113/292 217/114/293
f 215/114/294 209/113/292 217/114/293
f 211/113/295 213/110/283 219/111/286
f 217/114/296 211/113/295 219/111/286
f 214/112/282 218/111/281 224/115/297
f 220/116/298 214/112/282 224/115/297
f 219/111/286 216/112/285 222/116/299
f 225/115/300 219/111/286 222/116/299
f 216/112/289 214/112/288 220/116/301
f 222/116/302 216/112/289 220/116/301
f 218/111/281 215/114/291 221/117/303
f 224/115/297 218/111/281 221/117/303
f 215/114/294 217/114/293 223/117/304
f 221/117/305 215/114/294 223/117/304
f 217/114/296 219/111/286 225/115/300
f 223/117/306 217/114/296 225/115/300
f 220/116/298 224/115/297 230/118/307
f 226/119/308 220/116/298 230/118/307
f 225/115/300 222/116/299 228/119/309
f 231/118/310 225/115/300 228/119/309
f 222/116/302 220/116/301 226/119/311
f 228/119/312 222/116/302 226/119/311
f 224/115/297 221/117/303 227/120/313
f 230/118/307 224/115/297 227/120/313
f 221/117/305 223/117/304 229/120/314
f 227/120/314 221/117/305 229/120/314
f 223/117/306 225/115/300 231/118/310
f 229/120/315 223/117/306 231/118/310
f 204/121/316 207/122/317 231/118/310
f 228/119/309 204/121/316 231/118/310
f 202/121/318 204/121/318 228/119/312
f 226/119/311 202/121/318 228/119/312
f 205/123/319 229/120/315 231/118/310
f 207/122/317 205/123/319 231/118/310
f 203/123/320 227/120/314 229/120/314
f 205/123/320 203/123/320 229/120/314
f 203/123/321 206/122/322 230/118/307
f 227/120/313 203/123/321 230/118/307
f 206/122/322 202/121/323 226/119/308
f 230/118/307 206/122/322 226/119/308
f 205/123/324 207/122/324 206/122/324
f 203/123/324 205/123/324 206/122/324
f 207/122/324 204/121/324 202/121/324
f 206/122/324 207/122/324 202/121/324
f 232/124/325 234/125/325 233/126/326
f 234/125/325 235/127/326 233/126/326
f 235/127/326 236/128/326 237/129/326
f 233/126/326 235/127/326 237/129/326
f 243/130/327 239/131/327 238/132/327
f 239/131/328 240/133/328 238/132/328
f 238/132/329 240/133/330 241/134/331
f 242/135/329 238/132/329 241/134/331
f 242/135/327 243/130/327 238/132/327
f 245/136/332 244/137/333 243/130/334
f 244/137/333 239/131/334 243/130/334
f 242/135/335 241/134/335 243/130/335
f 245/136/335 243/130/335 241/134/335
f 248/138/336 244/137/333 245/136/332
f 246/139/335 245/136/335 241/134/335
f 246/139/335 247/140/335 245/136/335
f 247/140/336 248/138/336 245/136/332
f 249/141/337 248/138/337 247/140/337
f 249/141/328 240/133/328 248/138/328
f 248/138/328 240/133/328 244/137/328
f 240/133/330 249/141/338 246/139/338
f 246/139/337 249/141/337 247/140/337
f 241/134/331 240/133/330 246/139/338
f 240/133/328 239/131/328 244/137/328
o item_blade
v 26.590300 22.520599 11.862098
v 26.590300 22.520599 5.647598
v 33.175800 18.257101 13.730999
v 34.370899 19.927902 13.730998
v 27.751900 24.144600 11.862098
v 27.751900 24.144600 5.647598
v 34.370899 19.927900 3.778699
v 33.175800 18.257099 3.778699
v 39.761299 13.993600 5.647699
v 39.761299 13.993601 11.862199
v 40.990002 15.711200 5.647699
v 40.990002 15.711201 11.862199
v 0.000000 70.710701 -0.000005
v 70.710701 0.000000 0.000000
v 0.000000 55.656200 3.999996
v -55.656101 0.000000 4.000000
v -70.710701 0.000000 0.000000
v 0.000000 -55.656101 4.000004
v 0.000000 -70.710602 0.000005
v 55.656200 0.000000 4.000000
v 0.000000 70.710701 -0.000005
v 0.000000 55.656200 -4.000004
v 70.710701 0.000000 0.000000
v -55.656101 -0.000000 -4.000000
v -70.710701 0.000000 0.000000
v 0.000000 -55.656101 -3.999996
v 0.000000 -70.710602 0.000005
v 55.656200 -0.000000 -4.000000
v 0.000000 70.710701 -0.000005
v 70.710701 0.000000 0.000000
v 0.000000 55.656200 3.999996
v -55.656101 0.000000 4.000000
v -70.710701 0.000000 0.000000
v 0.000000 -55.656101 4.000004
v 0.000000 -70.710602 0.000005
v 55.656200 0.000000 4.000000
v 0.000000 70.710701 -0.000005
v 0.000000 55.656200 -4.000004
v 70.710701 0.000000 0.000000
v -55.656101 -0.000000 -4.000000
v -70.710701 0.000000 0.000000
v 0.000000 -55.656101 -3.999996
v 0.000000 -70.710602 0.000005
v 55.656200 -0.000000 -4.000000
v 0.000000 70.710701 -0.000005
v 70.710701 0.000000 0.000000
v 0.000000 55.656200 3.999996
v -55.656101 0.000000 4.000000
v -70.710701 0.000000 0.000000
v 0.000000 -55.656101 4.000004
v 0.000000 -70.710602 0.000005
v 55.656200 0.000000 4.000000
v 0.000000 70.710701 -0.000005
v 0.000000 55.656200 -4.000004
v 70.710701 0.000000 0.000000
v -55.656101 -0.000000 -4.000000
v -70.710701 0.000000 0.000000
v 0.000000 -55.656101 -3.999996
v 0.000000 -70.710602 0.000005
v 55.656200 -0.000000 -4.000000
v -47.864700 45.118301 12.412096
v -73.866402 80.239502 18.773893
v -73.866402 80.239502 12.412094
v -47.864601 45.118301 18.773895
v -47.002399 43.872002 18.773895
v -47.002300 43.872002 12.412097
v -55.445702 39.872898 10.585097
v -80.297302 75.789894 10.585094
v -54.583401 38.626598 10.585097
v -61.876499 35.423302 12.412097
v -86.728096 71.340302 12.412094
v -61.876499 35.423302 18.773897
v -86.728096 71.340302 18.773893
v -80.297203 75.789894 20.600895
v -55.445702 39.872799 20.600897
v -54.583401 38.626598 20.600897
v -61.014198 34.176998 18.773897
v -61.014198 34.176998 12.412097
v -47.798500 41.051300 14.918697
v -27.466995 4.206796 14.797900
v -53.285400 37.254799 14.797897
v -22.058901 8.101798 14.918699
v -47.798500 41.051300 16.267296
v -22.058901 8.101798 16.267300
v -53.285400 37.254799 16.388098
v -27.466995 4.206797 16.388100
v -58.772202 33.458500 15.592998
v -32.874901 0.311898 15.593000
v -1.555196 -20.871008 14.797902
v -6.880899 -24.846003 15.593002
v 20.570107 -45.991600 15.593004
v 25.808802 -41.949608 14.797903
v -1.555194 -20.871107 16.388102
v 3.770404 -16.896307 16.267302
v 25.808802 -41.949608 16.388103
v 31.047199 -37.907799 16.267303
v 55.364910 -60.600220 16.388103
v 51.445110 -65.031906 15.593005
v 63.368004 -57.725311 16.267303
v 59.346508 -62.999809 15.593005
v 63.367912 -57.725304 14.918705
v 55.364910 -60.600220 14.797905
v 66.535027 -59.693413 15.593005
v 31.047199 -37.907799 14.918703
v 3.770404 -16.896307 14.918701
v -54.627403 38.709583 16.110603
v -46.713299 26.803337 31.028873
v -36.580017 34.208462 30.812889
v -32.257355 44.303913 24.804623
v -36.254745 51.360943 16.460836
v -41.159950 57.696991 8.023234
v -51.993488 57.396824 1.758672
v -62.541721 50.615822 1.192434
v -72.680473 43.209946 1.405809
v -76.994507 33.115051 7.418729
v -73.000168 26.058218 15.760420
v -68.094215 19.725233 24.195791
v -57.264263 20.017660 30.465174
v -67.477905 18.835438 23.162462
v -56.644279 19.135479 29.427351
v -46.096172 25.916351 29.993578
v -54.010380 37.822590 15.075360
v -51.373508 56.514557 0.720760
v -61.924591 49.728836 0.157141
v -72.057907 42.323711 0.373109
v -76.380409 32.228367 6.381419
v -35.957344 33.322247 29.780125
v -72.383041 25.171232 14.725127
v -31.643345 43.417210 23.767284
v -35.637619 50.473953 15.425543
v -40.543732 56.807079 6.989965
v -48.378101 43.891602 14.049597
v -45.475899 39.865200 17.136396
v -48.378201 43.891602 17.136396
v -45.475899 39.865200 14.049597
v -55.037899 39.283600 13.773597
v -52.135700 35.257099 13.773597
v -60.990002 35.165298 14.577897
v -60.990002 35.165298 16.608099
v -58.087700 31.138903 14.577898
v -58.087799 31.138903 16.608099
v -55.037899 39.283501 17.412395
v -52.135700 35.257099 17.412397
v 46.061726 47.385616 12.209180
v 21.420914 19.193798 7.762322
v 46.061726 47.385616 7.762320
v 21.420914 19.193798 12.209182
v 52.251614 44.160767 13.417123
v 52.251614 44.160767 6.554379
v 27.487284 15.828928 6.554380
v 58.441509 40.936001 7.762321
v 58.441509 40.936001 12.209181
v 33.553455 12.464139 7.762323
v 9.876830 -9.066715 7.762324
v 33.553455 12.464139 12.209183
v 9.876830 -9.066715 12.209185
v -14.891866 -27.670597 12.209186
v -20.696850 -24.088995 13.417128
v 3.938339 -5.585667 13.417126
v -26.501530 -20.507671 12.209186
v 27.487284 15.828928 13.417125
v -2.000047 -2.104700 12.209184
v -26.501530 -20.507671 7.762325
v -2.000047 -2.104701 7.762324
v 3.938339 -5.585667 6.554382
v -20.696850 -24.088997 6.554384
v -14.891866 -27.670597 7.762326
v -48.676796 -48.420403 7.762328
v -54.309544 -44.732624 6.554385
v -59.942295 -41.044922 7.762327
v -59.942295 -41.044922 12.209187
v -54.309544 -44.732624 13.417130
v -48.676796 -48.420403 12.209188
v -59.530998 -58.415699 11.466405
v -53.878399 -62.941700 12.939505
v -59.530998 -58.415699 6.043404
v -53.878399 -62.941700 4.570305
v -48.225800 -67.467796 11.466405
v -48.225800 -67.467796 6.043405
vn -0.8134 0.5818 -0.0000
vn -0.5435 -0.8394 -0.0000
vn -0.1887 0.1350 0.9727
vn 0.0644 -0.0461 0.9969
vn -0.0644 0.0461 0.9969
vn 0.0644 -0.0461 -0.9969
vn -0.0644 0.0461 -0.9969
vn -0.1887 0.1350 -0.9727
vn 0.5373 0.8434 -0.0000
vn 0.1887 -0.1350 -0.9727
vn 0.8133 -0.5818 -0.0000
vn 0.1887 -0.1350 0.9727
vn 0.2559 0.0853 0.9629
vn -0.0853 0.2559 0.9629
vn 0.0639 0.1919 0.9793
vn -0.1532 0.0510 0.9869
vn -0.2558 -0.0853 0.9629
vn -0.0639 -0.1919 0.9793
vn 0.0853 -0.2559 0.9629
vn 0.1531 -0.0510 0.9869
vn 0.0639 0.1919 -0.9793
vn -0.1531 0.0510 -0.9869
vn -0.0853 0.2559 -0.9629
vn 0.2559 0.0853 -0.9629
vn -0.2558 -0.0853 -0.9629
vn -0.0639 -0.1919 -0.9793
vn 0.0853 -0.2559 -0.9629
vn 0.1532 -0.0510 -0.9869
vn 0.8131 0.5821 -0.0000
vn 0.8037 0.5950 -0.0000
vn 0.1581 0.1131 -0.9809
vn 0.0149 0.0114 -0.9998
vn 0.1717 0.1226 -0.9775
vn 0.8224 0.5690 -0.0000
vn 0.8223 0.5690 -0.0000
vn 0.1599 0.1106 -0.9809
vn -0.0000 -0.0000 -1.0000
vn -0.1871 -0.1294 -0.9738
vn -0.0729 -0.0504 -0.9961
vn -0.8223 -0.5690 -0.0000
vn -0.5690 0.8223 -0.0000
vn -0.0638 -0.0442 0.9970
vn -0.1871 -0.1294 0.9738
vn -0.0099 -0.0056 0.9999
vn 0.1717 0.1226 0.9775
vn 0.0451 0.0312 0.9985
vn 0.1586 0.1124 0.9809
vn -0.8224 -0.5690 -0.0000
vn 0.1599 0.1106 0.9809
vn 0.0135 0.0123 -0.9998
vn -0.0205 -0.0185 -0.9996
vn 0.0143 0.0112 -0.9998
vn -0.0576 -0.0450 -0.9973
vn 0.7435 0.6687 -0.0000
vn 0.7880 0.6156 -0.0000
vn 0.7434 0.6689 -0.0000
vn 0.0135 0.0123 0.9998
vn 0.0143 0.0112 0.9998
vn -0.0217 -0.0169 0.9996
vn -0.0546 -0.0492 0.9973
vn -0.0934 -0.0730 0.9930
vn -0.0889 -0.0792 0.9929
vn -0.0934 -0.0730 0.9929
vn -0.0886 -0.0796 -0.9929
vn -0.0934 -0.0730 -0.9930
vn -0.0346 -0.0381 -0.9987
vn -0.0780 -0.0940 -0.9925
vn -0.0808 -0.0904 0.9926
vn -0.0394 -0.0544 -0.9977
vn -0.0713 -0.1067 -0.9917
vn -0.0723 -0.1045 0.9919
vn -0.0329 -0.0402 0.9987
vn 0.0121 0.0142 0.9998
vn -0.0220 -0.0318 0.9993
vn 0.0036 -0.1013 0.9949
vn 0.0105 0.0156 0.9998
vn -0.0065 -0.1710 0.9852
vn 0.0763 -0.2020 0.9764
vn 0.0604 -0.1222 0.9907
vn 0.0036 -0.1013 -0.9949
vn 0.0604 -0.1222 -0.9907
vn 0.0763 -0.2020 -0.9764
vn 0.0885 -0.1924 -0.9773
vn -0.0065 -0.1710 -0.9852
vn 0.0885 -0.1924 0.9773
vn 0.5251 0.8510 -0.0000
vn 0.5246 0.8513 -0.0000
vn 0.5278 0.8494 -0.0000
vn 0.0107 0.0155 -0.9998
vn 0.5818 0.8133 -0.0000
vn 0.5526 0.8335 -0.0000
vn 0.6395 0.7688 -0.0000
vn 0.0121 0.0142 -0.9998
vn 0.6680 0.7442 -0.0000
vn -0.4164 0.5900 0.6918
vn -0.4170 0.5895 0.6918
vn -0.4165 0.5880 0.6934
vn -0.4185 0.5886 0.6917
vn -0.4182 0.5906 0.6901
vn -0.6573 -0.7189 0.2264
vn -0.5119 -0.7778 0.3646
vn -0.0316 -0.7708 0.6364
vn 0.1057 -0.7255 0.6801
vn 0.3344 -0.6082 0.7199
vn 0.4303 -0.5423 0.7216
vn 0.4164 -0.5900 -0.6918
vn 0.4170 -0.5895 -0.6918
vn 0.4182 -0.5906 -0.6901
vn 0.4165 -0.5880 -0.6934
vn 0.4185 -0.5886 -0.6917
vn 0.6581 0.7184 -0.2256
vn 0.5103 0.7782 -0.3660
vn 0.0329 0.7711 -0.6359
vn 0.7795 0.6226 -0.0697
vn -0.1061 0.7253 -0.6802
vn 0.8642 0.4951 0.0900
vn 0.9070 0.3432 0.2441
vn 0.9068 0.1838 0.3795
vn 0.7145 -0.2567 0.6509
vn -0.8641 -0.4952 -0.0899
vn -0.7794 -0.6227 0.0698
vn -0.9068 -0.3442 -0.2433
vn 0.6217 -0.3688 0.6910
vn -0.9065 -0.1821 -0.3808
vn -0.7153 0.2555 -0.6504
vn -0.4306 0.5421 -0.7216
vn -0.6214 0.3692 -0.6911
vn -0.3341 0.6084 -0.7199
vn 0.8112 0.5847 -0.0000
vn -0.0115 -0.0083 -0.9999
vn 0.0276 0.0199 -0.9994
vn -0.0506 -0.0365 -0.9980
vn -0.0896 -0.0646 -0.9939
vn -0.8112 -0.5847 -0.0000
vn 0.5690 -0.8223 -0.0000
vn 0.5690 -0.8223 0.0001
vn -0.0506 -0.0365 0.9981
vn -0.0896 -0.0646 0.9939
vn -0.0115 -0.0083 0.9999
vn 0.0276 0.0199 0.9994
vn -0.7007 0.7134 -0.0000
vn -0.7529 0.6581 -0.0000
vn -0.7271 0.6865 -0.0000
vn 0.4620 0.8869 -0.0000
vn -0.0426 0.0194 0.9989
vn -0.1320 0.1154 0.9845
vn -0.1287 0.1228 0.9840
vn 0.0144 -0.0142 -0.9998
vn 0.1320 -0.1154 -0.9845
vn 0.0184 -0.0220 -0.9996
vn -0.1320 0.1154 -0.9845
vn 0.7529 -0.6581 -0.0000
vn 0.7140 -0.7001 -0.0000
vn 0.1275 -0.1232 -0.9841
vn 0.1194 -0.1383 -0.9832
vn 0.6497 -0.7602 -0.0000
vn 0.6249 -0.7807 -0.0000
vn 0.5762 -0.8173 -0.0000
vn -0.0000 0.0019 1.0000
vn 0.1051 -0.1590 0.9817
vn 0.1152 -0.1430 0.9830
vn 0.0014 0.0019 1.0000
vn 0.1250 -0.1263 0.9841
vn -0.1187 0.1401 0.9830
vn -0.1090 0.1561 0.9817
vn 0.0015 0.0021 1.0000
vn -0.5762 0.8173 -0.0000
vn -0.5487 0.8360 -0.0000
vn -0.6249 0.7807 -0.0000
vn -0.6497 0.7602 -0.0000
vn -0.0034 -0.0041 -1.0000
vn -0.1144 0.1450 -0.9828
vn -0.1240 0.1285 -0.9839
vn -0.0031 -0.0030 -1.0000
vn -0.1045 0.1610 -0.9814
vn -0.0529 0.0734 -0.9959
vn 0.1097 -0.1540 -0.9820
vn 0.1018 -0.1658 -0.9809
vn -0.1018 0.1658 -0.9809
vn -0.5233 0.8521 -0.0000
vn -0.1018 0.1658 0.9809
vn 0.0404 -0.0292 0.9988
vn 0.1018 -0.1658 0.9809
vn 0.5233 -0.8521 -0.0000
vn 0.5488 -0.8360 -0.0000
vn 0.1320 -0.1154 0.9845
vn -0.6250 -0.7806 -0.0000
vt 0.638360 0.363281
vt 0.628906 0.392028
vt 0.682500 0.467499
vt 0.692226 0.437923
vt 0.736094 0.542969
vt 0.746094 0.512565
vt 0.976562 0.023438
vt 0.095226 0.374655
vt 0.095226 0.374655
vt 0.363281 0.482039
vt 0.055192 0.405964
vt 0.085714 0.371094
vt 0.085714 0.371094
vt 0.329321 0.508598
vt 0.295360 0.535156
vt 0.045679 0.402403
vt 0.021231 0.432522
vt 0.329321 0.508597
vt 0.055191 0.405964
vt 0.011719 0.428961
vt 0.151345 0.832089
vt 0.130777 0.840408
vt 0.053453 0.761719
vt 0.032586 0.769827
vt 0.011719 0.777935
vt 0.110210 0.848726
vt 0.229324 0.893967
vt 0.209069 0.902456
vt 0.333393 0.938984
vt 0.313470 0.947617
vt 0.229324 0.893967
vt 0.249578 0.885478
vt 0.445800 0.978816
vt 0.353316 0.930352
vt 0.430892 0.988281
vt 0.460942 0.983941
vt 0.476237 0.972677
vt 0.476236 0.972677
vt 0.488281 0.976880
vt 0.454238 0.375317
vt 0.498319 0.363281
vt 0.498320 0.453125
vt 0.542401 0.375317
vt 0.574672 0.408202
vt 0.586483 0.453125
vt 0.574672 0.498048
vt 0.542401 0.530933
vt 0.498319 0.542969
vt 0.454238 0.530933
vt 0.421968 0.498048
vt 0.410156 0.453125
vt 0.421968 0.408204
vt 0.425328 0.408204
vt 0.457599 0.375317
vt 0.501680 0.363281
vt 0.501680 0.453125
vt 0.501680 0.542969
vt 0.545762 0.530933
vt 0.578032 0.498048
vt 0.457598 0.530933
vt 0.425328 0.498048
vt 0.545762 0.375317
vt 0.413517 0.453125
vt 0.578032 0.408202
vt 0.589844 0.453125
vt 0.746094 0.420014
vt 0.724172 0.363281
vt 0.724171 0.363281
vt 0.673866 0.428209
vt 0.695788 0.484943
vt 0.628906 0.486236
vt 0.650829 0.542969
vt 0.650828 0.542969
vt 0.673866 0.428210
vt 0.339170 0.617919
vt 0.438130 0.574219
vt 0.463206 0.579277
vt 0.488281 0.584336
vt 0.363750 0.623195
vt 0.388328 0.628470
vt 0.293124 0.661814
vt 0.193447 0.690595
vt 0.169919 0.684984
vt 0.269059 0.656358
vt 0.244994 0.650903
vt 0.146392 0.679374
vt 0.034553 0.716881
vt 0.057387 0.722656
vt 0.011719 0.711106
vt 0.628906 0.363281
vt 0.687500 0.453124
vt 0.746094 0.542969
s 1
f 255/142/339 251/143/339 250/143/339
f 251/143/340 252/144/340 250/143/340
f 250/143/341 252/144/342 253/145/343
f 254/142/341 250/143/341 253/145/343
f 254/142/339 255/142/339 250/143/339
f 256/145/344 257/144/345 255/142/346
f 256/145/347 255/142/347 253/145/347
f 254/142/347 253/145/347 255/142/347
f 257/144/345 251/143/346 255/142/346
f 252/144/340 251/143/340 257/144/340
f 258/146/348 257/144/345 256/145/344
f 258/146/340 252/144/340 257/144/340
f 259/146/349 258/146/349 260/147/349
f 259/146/340 252/144/340 258/146/340
f 260/147/348 258/146/348 256/145/344
f 261/147/347 260/147/347 256/145/347
f 261/147/349 259/146/349 260/147/349
f 252/144/342 259/146/350 261/147/350
f 253/145/343 252/144/342 261/147/350
f 261/147/347 256/145/347 253/145/347
f 263/148/351 262/148/352 264/148/353
f 264/148/353 262/148/352 265/148/354
f 262/148/352 266/148/355 265/148/354
f 265/148/354 266/148/355 267/148/356
f 266/148/355 268/148/357 267/148/356
f 268/148/357 263/148/351 269/148/358
f 267/148/356 268/148/357 269/148/358
f 269/148/358 263/148/351 264/148/353
f 264/148/353 265/148/354 269/148/358
f 265/148/354 267/148/356 269/148/358
f 271/148/359 273/148/360 270/148/361
f 271/148/359 270/148/361 272/148/362
f 273/148/360 274/148/363 270/148/361
f 273/148/360 275/148/364 274/148/363
f 275/148/364 276/148/365 274/148/363
f 277/148/366 272/148/362 276/148/365
f 275/148/364 277/148/366 276/148/365
f 271/148/359 277/148/366 273/148/360
f 277/148/366 271/148/359 272/148/362
f 277/148/366 275/148/364 273/148/360
f 279/148/351 278/148/352 280/148/353
f 280/148/353 278/148/352 281/148/354
f 278/148/352 282/148/355 281/148/354
f 281/148/354 282/148/355 283/148/356
f 282/148/355 284/148/357 283/148/356
f 284/148/357 279/148/351 285/148/358
f 283/148/356 284/148/357 285/148/358
f 280/148/353 281/148/354 285/148/358
f 285/148/358 279/148/351 280/148/353
f 281/148/354 283/148/356 285/148/358
f 287/148/359 289/148/360 286/148/361
f 287/148/359 286/148/361 288/148/362
f 289/148/360 290/148/363 286/148/361
f 289/148/360 291/148/364 290/148/363
f 291/148/364 292/148/365 290/148/363
f 293/148/366 288/148/362 292/148/365
f 291/148/364 293/148/366 292/148/365
f 293/148/366 287/148/359 288/148/362
f 287/148/359 293/148/366 289/148/360
f 293/148/366 291/148/364 289/148/360
f 295/148/351 294/148/352 296/148/353
f 296/148/353 294/148/352 297/148/354
f 294/148/352 298/148/355 297/148/354
f 297/148/354 298/148/355 299/148/356
f 298/148/355 300/148/357 299/148/356
f 300/148/357 295/148/351 301/148/358
f 299/148/356 300/148/357 301/148/358
f 301/148/358 295/148/351 296/148/353
f 296/148/353 297/148/354 301/148/358
f 297/148/354 299/148/356 301/148/358
f 303/148/359 305/148/360 302/148/361
f 303/148/359 302/148/361 304/148/362
f 305/148/360 306/148/363 302/148/361
f 305/148/360 307/148/364 306/148/363
f 307/148/364 308/148/365 306/148/363
f 309/148/366 304/148/362 308/148/365
f 307/148/364 309/148/366 308/148/365
f 303/148/359 309/148/366 305/148/360
f 309/148/366 303/148/359 304/148/362
f 309/148/366 307/148/364 305/148/360
f 313/149/367 310/150/367 311/151/368
f 310/150/367 312/151/368 311/151/368
f 310/150/369 316/152/370 312/151/371
f 310/150/367 313/149/367 314/153/372
f 315/154/373 310/150/367 314/153/372
f 316/152/370 310/150/369 315/154/374
f 317/155/375 316/152/370 320/156/376
f 316/152/370 317/155/375 312/151/371
f 318/157/377 316/152/370 315/154/374
f 319/158/376 316/152/370 318/157/377
f 316/152/370 319/158/376 320/156/376
f 319/158/378 321/158/378 320/156/378
f 321/158/378 322/156/378 320/156/378
f 317/155/379 320/156/379 322/156/379
f 323/159/380 322/156/381 321/158/381
f 323/159/379 317/155/379 322/156/379
f 312/151/379 317/155/379 323/159/379
f 324/160/382 323/159/380 321/158/381
f 311/151/383 323/159/380 324/160/382
f 311/151/379 312/151/379 323/159/379
f 324/160/382 321/158/381 326/161/381
f 325/157/384 324/160/382 326/161/381
f 313/149/385 324/160/382 325/157/384
f 313/149/385 311/151/383 324/160/382
f 326/161/386 321/158/378 327/161/386
f 321/158/378 319/158/378 327/161/386
f 327/161/376 319/158/376 318/157/377
f 314/153/387 313/149/385 325/157/384
f 331/162/388 329/163/389 328/164/390
f 329/163/389 330/165/391 328/164/390
f 331/162/392 328/164/393 332/164/393
f 333/162/392 331/162/394 332/164/393
f 333/162/395 332/164/396 334/165/397
f 335/163/398 333/162/395 334/165/397
f 335/163/398 334/165/397 336/166/399
f 337/167/400 335/163/398 336/166/401
f 337/167/402 336/166/403 330/165/391
f 329/163/389 337/167/402 330/165/391
f 329/163/389 338/168/404 337/167/402
f 338/168/404 339/169/405 337/167/402
f 337/167/400 339/169/406 335/163/398
f 341/170/407 340/171/408 339/169/405
f 339/169/406 340/171/409 342/172/410
f 338/168/404 341/170/407 339/169/405
f 339/169/406 342/172/410 335/163/398
f 342/172/410 343/173/411 333/162/395
f 342/172/410 344/170/412 343/173/411
f 340/171/409 344/170/412 342/172/410
f 335/163/398 342/172/410 333/162/395
f 346/174/413 344/170/412 340/171/409
f 344/170/412 345/175/414 343/173/411
f 344/170/412 346/174/413 345/175/414
f 347/176/415 346/174/413 340/171/409
f 346/174/413 347/176/415 349/177/416
f 346/174/413 348/178/417 345/175/414
f 348/178/417 346/174/413 349/177/416
f 351/174/418 350/179/419 349/177/420
f 350/179/419 352/180/421 349/177/420
f 347/176/422 351/174/418 349/177/420
f 352/180/423 348/178/417 349/177/416
f 350/179/424 348/178/425 352/180/426
f 350/179/419 351/174/418 353/175/427
f 351/174/418 347/176/422 340/171/408
f 351/174/418 341/170/407 353/175/427
f 341/170/407 351/174/418 340/171/408
f 353/175/427 341/170/407 338/168/404
f 345/175/428 353/175/429 354/173/430
f 345/175/428 348/178/425 353/175/429
f 354/173/431 353/175/427 338/168/404
f 348/178/425 350/179/424 353/175/429
f 343/173/432 345/175/428 354/173/430
f 354/173/431 338/168/404 329/163/389
f 343/173/432 354/173/430 331/162/394
f 331/162/388 354/173/431 329/163/389
f 333/162/392 343/173/432 331/162/394
f 367/181/433 356/182/433 355/183/434
f 356/182/433 357/184/433 355/183/434
f 357/184/433 358/185/435 355/183/434
f 358/185/435 359/186/436 355/183/434
f 359/186/436 360/187/437 355/183/434
f 360/187/437 361/188/433 355/183/434
f 361/188/433 362/189/433 355/183/434
f 362/189/433 363/190/433 355/183/434
f 363/190/433 364/191/435 355/183/434
f 364/191/435 365/192/436 355/183/434
f 365/192/436 366/193/437 355/183/434
f 366/193/437 367/181/433 355/183/434
f 366/193/438 368/194/439 367/181/440
f 368/194/439 369/195/441 367/181/440
f 367/181/440 369/195/441 356/182/442
f 369/195/441 370/196/443 356/182/442
f 370/196/444 369/195/444 371/197/445
f 369/195/444 368/194/446 371/197/445
f 373/198/444 372/199/444 371/197/445
f 372/199/444 380/200/446 371/197/445
f 374/201/444 373/198/444 371/197/445
f 375/202/447 374/201/444 371/197/445
f 376/203/444 370/196/444 371/197/445
f 377/204/448 375/202/447 371/197/445
f 378/205/447 376/203/444 371/197/445
f 368/194/446 377/204/448 371/197/445
f 379/206/448 378/205/447 371/197/445
f 380/200/446 379/206/448 371/197/445
f 360/187/449 380/200/450 361/188/451
f 379/206/452 380/200/450 360/187/449
f 380/200/450 372/199/453 361/188/451
f 359/186/454 379/206/452 360/187/449
f 378/205/455 379/206/452 359/186/454
f 358/185/456 378/205/455 359/186/454
f 376/203/457 378/205/455 358/185/456
f 365/192/458 377/204/459 366/193/438
f 375/202/460 377/204/459 365/192/458
f 377/204/459 368/194/439 366/193/438
f 357/184/461 376/203/457 358/185/456
f 370/196/443 376/203/457 357/184/461
f 364/191/462 375/202/460 365/192/458
f 374/201/463 375/202/460 364/191/462
f 373/198/464 374/201/463 363/190/465
f 363/190/465 374/201/463 364/191/462
f 372/199/453 373/198/464 362/189/466
f 362/189/466 373/198/464 363/190/465
f 361/188/451 372/199/453 362/189/466
f 356/182/442 370/196/443 357/184/461
f 384/207/467 381/208/467 382/207/467
f 381/208/467 383/209/467 382/207/467
f 385/210/468 381/208/469 384/207/469
f 386/211/470 385/210/468 384/207/469
f 387/212/471 385/210/468 386/211/470
f 388/212/472 387/212/472 389/213/472
f 389/213/471 387/212/471 386/211/470
f 390/214/472 388/212/472 389/213/472
f 390/214/473 389/213/473 386/211/474
f 391/215/475 388/212/476 390/214/476
f 392/211/473 390/214/473 384/207/473
f 384/207/473 390/214/473 386/211/474
f 392/211/477 391/215/475 390/214/476
f 383/209/478 391/215/475 392/211/477
f 382/207/478 383/209/478 392/211/477
f 382/207/473 392/211/473 384/207/473
f 396/216/479 393/217/480 394/216/481
f 393/217/480 395/217/480 394/216/481
f 398/218/482 395/217/482 393/217/482
f 397/218/483 393/217/484 396/216/485
f 397/218/482 398/218/482 393/217/482
f 400/219/482 398/218/482 397/218/482
f 398/218/486 400/219/487 399/220/488
f 395/217/489 398/218/486 399/220/488
f 401/219/482 400/219/482 397/218/482
f 400/219/490 401/219/490 402/221/491
f 400/219/487 402/221/492 399/220/488
f 402/221/492 403/222/493 399/220/488
f 405/222/494 403/222/495 402/221/491
f 401/219/490 404/221/491 402/221/491
f 404/221/491 405/222/494 402/221/491
f 405/222/494 406/223/496 403/222/495
f 407/224/497 406/223/498 405/222/499
f 408/225/500 407/224/497 405/222/499
f 408/225/500 405/222/499 404/221/501
f 411/226/502 409/227/503 408/225/500
f 409/227/503 407/224/497 408/225/500
f 410/220/504 408/225/500 404/221/501
f 411/226/502 408/225/500 410/220/504
f 412/227/505 409/227/506 411/226/507
f 413/226/508 412/227/505 411/226/507
f 413/226/508 411/226/507 396/216/479
f 396/216/485 411/226/502 410/220/504
f 414/225/509 413/226/510 394/216/511
f 414/225/509 415/224/512 413/226/510
f 394/216/481 413/226/508 396/216/479
f 415/224/512 412/227/513 413/226/510
f 415/224/512 418/228/514 412/227/513
f 416/223/515 415/224/512 414/225/509
f 416/223/515 417/229/516 415/224/512
f 417/229/516 418/228/514 415/224/512
f 418/228/514 419/230/517 412/227/513
f 419/230/518 420/230/518 409/227/506
f 412/227/505 419/230/518 409/227/506
f 409/227/503 420/230/519 407/224/497
f 420/230/519 421/228/520 407/224/497
f 421/228/520 422/229/521 406/223/498
f 407/224/497 421/228/520 406/223/498
f 406/223/496 422/229/522 416/223/523
f 422/229/522 417/229/522 416/223/523
f 406/223/496 416/223/523 403/222/495
f 403/222/493 416/223/515 414/225/509
f 403/222/493 414/225/509 399/220/488
f 399/220/488 414/225/509 394/216/511
f 410/220/504 397/218/483 396/216/485
f 401/219/524 397/218/483 410/220/504
f 404/221/501 401/219/524 410/220/504
f 394/216/511 395/217/489 399/220/488
f 423/231/525 425/231/525 424/232/525
f 425/231/525 426/232/525 424/232/525
f 424/232/525 426/232/525 427/233/525
f 426/232/525 428/233/525 427/233/525
o item_damaged
v -29.153999 3.117801 15.308600
v -24.850100 -8.020700 15.206201
v -22.281900 0.038201 15.206200
v -32.607300 -7.718799 15.308601
v -29.153999 3.117701 16.452700
v -22.282000 0.038101 16.555099
v -32.607300 -7.718799 16.452700
v -24.850201 -8.020799 16.555099
v -17.092899 -8.322799 15.880601
v -15.409900 -3.041299 15.880600
v -11.276401 -28.765299 13.182502
v -57.942905 -69.502907 18.578806
v -57.942905 -69.502907 13.182506
v -11.276401 -28.765299 18.578802
v -9.622101 -27.394098 18.578802
v -9.622101 -27.394098 13.182502
v -4.612300 -36.805599 11.632703
v -52.289803 -76.323303 11.632706
v -2.957900 -35.434299 11.632703
v 1.040801 -43.625900 13.182503
v -46.636707 -83.143600 13.182507
v 1.040900 -43.625900 18.578804
v -46.636707 -83.143600 18.578806
v -52.289803 -76.323196 20.128605
v -4.612200 -36.805599 20.128601
v -2.957900 -35.434399 20.128601
v 2.695200 -42.254700 18.578804
v 2.695200 -42.254700 13.182503
v -5.951000 -27.676098 15.308602
v 42.820202 6.502701 15.206199
v -1.127600 -33.495300 15.206203
v 37.865799 12.200401 15.308599
v -5.950900 -27.676098 16.452702
v 37.865799 12.200401 16.452700
v -1.127700 -33.495300 16.555101
v 3.695500 -39.314400 15.880603
v 42.820202 6.502602 16.555099
v 47.774502 0.805101 15.880600
v -3.068654 -35.508263 16.614643
v 8.249861 -26.407711 31.769489
v -0.156994 -16.823402 31.530628
v -10.755943 -13.368397 25.412802
v -17.524216 -18.057430 16.931540
v -23.487926 -23.605412 8.365420
v -22.200500 -34.547291 2.015632
v -14.386978 -44.608738 1.459851
v -5.978946 -54.198532 1.696106
v 4.618852 -57.644844 7.818530
v 11.386986 -52.958973 16.297615
v 17.347672 -47.410378 24.861675
v 16.068384 -36.471485 31.216276
v 18.529922 -46.433025 23.395699
v 17.242516 -35.491070 29.745701
v -1.889406 -34.530190 15.146576
v 9.429111 -25.429733 30.301479
v 1.020973 -15.839891 30.065197
v -9.576801 -12.393566 23.942799
v -16.344965 -17.079454 15.463530
v -22.305643 -22.628078 6.899457
v -21.026400 -33.566872 0.545032
v -13.207827 -43.630661 -0.008142
v -4.800970 -53.214962 0.230721
v 5.798072 -56.669952 6.348481
v 12.566254 -51.981018 14.829606
v -9.684300 -29.093998 14.571502
v -4.336400 -24.520699 17.189802
v -9.684300 -29.093998 17.189802
v -4.336400 -24.520597 14.571502
v -3.830000 -36.157200 14.337303
v 1.518000 -31.583899 14.337303
v 1.402200 -42.469700 15.019603
v 1.402200 -42.469700 16.741703
v 6.750000 -37.896400 15.019603
v 6.750100 -37.896400 16.741703
v -3.830000 -36.157200 17.424002
v 1.518000 -31.583899 17.424002
v -47.485100 74.001503 15.308595
v -51.311600 77.422798 15.880594
v -47.485100 74.001404 16.452694
v -42.651699 80.013397 15.880594
v -37.841202 75.811600 15.206194
v -8.435800 39.442101 15.308598
v -2.130400 43.504501 15.206197
v -8.435800 39.442101 16.452696
v 20.230400 19.849901 15.206198
v 12.789900 16.988201 15.308599
v 12.789900 16.988201 16.452698
v -2.130500 43.504601 16.555096
v 20.230400 19.849901 16.555098
v 27.671101 22.711702 15.880598
v 4.175200 47.567299 15.880596
v -37.841202 75.811600 16.555094
v -33.127602 80.726303 15.880594
v -55.002800 -4.131499 15.308600
v -48.492500 -0.307299 15.206200
v -62.818199 5.832301 15.308600
v -62.818199 5.832302 16.452700
v -55.002899 -4.131399 16.452700
v -56.299702 9.645901 16.555099
v -48.492401 -0.307499 16.555099
v -41.982101 3.516601 15.880600
v -49.781101 13.459501 15.880599
v -56.299599 9.645901 15.206199
v 19.032801 52.480801 15.308597
v 25.285299 48.283699 15.206196
v 25.472500 68.316498 15.308596
v 25.472401 68.316498 16.452694
v 19.032801 52.480801 16.452696
v 31.160200 62.730900 16.555096
v 25.285299 48.283699 16.555096
v 31.537800 44.086800 15.880597
v 36.848099 57.145100 15.880595
v 31.160200 62.730900 15.206195
v -39.834801 34.469398 15.308598
v -30.776600 22.921202 15.308599
v -32.939098 37.802299 15.206197
v -30.776600 22.921103 16.452698
v -39.834801 34.469398 16.452698
v -24.258101 26.734701 16.555098
v -32.939201 37.802299 16.555098
v -26.043501 41.135201 15.880597
v -17.739500 30.548302 15.880598
v -24.257999 26.734802 15.206198
v 65.920898 20.866402 16.452698
v 53.761101 30.418102 16.555098
v 61.289398 31.826202 16.452698
v 59.833099 16.049501 16.555098
v 65.920799 20.866402 15.308599
v 59.833000 16.049501 15.206199
v 61.289299 31.826302 15.308598
v 53.761101 30.418102 15.206198
v 53.745098 11.232301 15.880599
v 46.232800 29.010101 15.880598
v 0.000000 70.710701 -0.000005
v 70.710701 0.000000 0.000000
v 0.000000 55.656200 3.999996
v -55.656101 0.000000 4.000000
v -70.710701 0.000000 0.000000
v 0.000000 -55.656101 4.000004
v 0.000000 -70.710602 0.000005
v 55.656200 0.000000 4.000000
v 0.000000 70.710701 -0.000005
v 0.000000 55.656200 -4.000004
v 70.710701 0.000000 0.000000
v -55.656101 -0.000000 -4.000000
v -70.710701 0.000000 0.000000
v 0.000000 -55.656101 -3.999996
v 0.000000 -70.710602 0.000005
v 55.656200 -0.000000 -4.000000
v 0.000000 70.710701 -0.000005
v 70.710701 0.000000 0.000000
v 0.000000 55.656200 3.999996
v -55.656101 0.000000 4.000000
v -70.710701 0.000000 0.000000
v 0.000000 -55.656101 4.000004
v 0.000000 -70.710602 0.000005
v 55.656200 0.000000 4.000000
v 0.000000 70.710701 -0.000005
v 0.000000 55.656200 -4.000004
v 70.710701 0.000000 0.000000
v -55.656101 -0.000000 -4.000000
v -70.710701 0.000000 0.000000
v 0.000000 -55.656101 -3.999996
v 0.000000 -70.710602 0.000005
v 55.656200 -0.000000 -4.000000
v 0.000000 70.710701 -0.000005
v 70.710701 0.000000 0.000000
v 0.000000 55.656200 3.999996
v -55.656101 0.000000 4.000000
v -70.710701 0.000000 0.000000
v 0.000000 -55.656101 4.000004
v 0.000000 -70.710602 0.000005
v 55.656200 0.000000 4.000000
v 0.000000 70.710701 -0.000005
v 0.000000 55.656200 -4.000004
v 70.710701 0.000000 0.000000
v -55.656101 -0.000000 -4.000000
v -70.710701 0.000000 0.000000
v 0.000000 -55.656101 -3.999996
v 0.000000 -70.710602 0.000005
v 55.656200 -0.000000 -4.000000
vn -0.0130 0.0042 -0.9999
vn 0.0198 -0.0063 -0.9998
vn 0.0527 -0.0168 -0.9985
vn -0.9528 0.3036 -0.0000
vn 0.0199 -0.0063 0.9998
vn -0.0130 0.0042 0.9999
vn 0.0527 -0.0168 0.9985
vn 0.0855 -0.0273 0.9960
vn 0.0855 -0.0273 -0.9960
vn -0.6479 0.7617 -0.0000
vn -0.6576 0.7533 -0.0000
vn -0.0951 0.1118 -0.9892
vn -0.0092 0.0103 -0.9999
vn -0.1033 0.1217 -0.9872
vn -0.6382 0.7699 -0.0000
vn -0.0937 0.1130 -0.9892
vn -0.0000 -0.0000 -1.0000
vn 0.1100 -0.1327 -0.9850
vn 0.0425 -0.0513 -0.9978
vn 0.6381 -0.7699 -0.0000
vn -0.7699 -0.6381 -0.0000
vn -0.7699 -0.6382 -0.0000
vn 0.0371 -0.0448 0.9983
vn 0.1100 -0.1327 0.9850
vn -0.1033 0.1217 0.9872
vn 0.0050 -0.0071 1.0000
vn -0.0949 0.1120 0.9892
vn -0.0261 0.0315 0.9992
vn 0.6382 -0.7699 -0.0000
vn -0.0937 0.1130 0.9892
vn -0.0091 0.0100 -0.9999
vn 0.0139 -0.0153 -0.9998
vn 0.0369 -0.0406 -0.9985
vn -0.6731 0.7396 0.0001
vn -0.6731 0.7396 -0.0000
vn -0.0091 0.0100 0.9999
vn 0.0139 -0.0152 0.9998
vn 0.0369 -0.0406 0.9985
vn 0.0139 -0.0153 0.9998
vn 0.0599 -0.0658 0.9960
vn 0.0599 -0.0658 -0.9960
vn -0.5513 -0.4663 0.6918
vn -0.5509 -0.4669 0.6918
vn -0.5496 -0.4663 0.6932
vn -0.5499 -0.4681 0.6918
vn -0.5517 -0.4680 0.6903
vn -0.5495 -0.4663 0.6932
vn 0.7641 0.0497 0.6432
vn 0.7178 0.1570 0.6784
vn 0.5670 0.3989 0.7207
vn 0.7724 -0.5934 0.2266
vn 0.8195 -0.4386 0.3689
vn 0.5513 0.4663 -0.6918
vn 0.5509 0.4669 -0.6918
vn 0.5517 0.4680 -0.6903
vn 0.5103 0.4674 0.7219
vn 0.3013 0.6623 0.6860
vn 0.2042 0.7289 0.6534
vn -0.2607 0.8878 0.3792
vn -0.4242 0.8733 0.2396
vn 0.5496 0.4663 -0.6932
vn -0.5500 0.8281 0.1088
vn -0.7020 0.7059 -0.0947
vn 0.5499 0.4681 -0.6918
vn -0.8198 0.4367 -0.3705
vn -0.7718 0.5945 -0.2254
vn -0.7171 -0.1585 -0.6787
vn -0.7650 -0.0474 -0.6423
vn -0.5101 -0.4677 -0.7219
vn -0.5673 -0.3986 -0.7206
vn -0.3025 -0.6613 -0.6864
vn -0.2021 -0.7302 -0.6526
vn 0.2587 -0.8878 -0.3807
vn 0.4254 -0.8730 -0.2384
vn 0.5501 -0.8280 -0.1087
vn 0.7021 -0.7058 0.0948
vn -0.6499 0.7600 -0.0000
vn 0.0069 -0.0081 -0.9999
vn -0.0166 0.0194 -0.9997
vn 0.0305 -0.0356 -0.9989
vn 0.0539 -0.0630 -0.9966
vn 0.6499 -0.7600 -0.0000
vn 0.7699 0.6381 -0.0000
vn 0.0069 -0.0081 0.9999
vn 0.0304 -0.0356 0.9989
vn 0.0539 -0.0630 0.9966
vn -0.0166 0.0194 0.9997
vn -0.0264 0.0786 -0.9966
vn -0.0372 0.1242 -0.9916
vn -0.0271 0.1305 -0.9911
vn -0.6646 -0.7472 -0.0001
vn -0.6642 -0.7475 -0.0000
vn -0.6665 -0.7455 -0.0001
vn -0.6847 -0.7288 -0.0000
vn 0.0109 0.0651 -0.9978
vn -0.0097 -0.0100 -0.9999
vn -0.7060 -0.7082 -0.0000
vn 0.0350 0.0348 -0.9988
vn 0.0154 0.0145 -0.9998
vn -0.7267 -0.6870 -0.0000
vn -0.0101 -0.0095 -0.9999
vn 0.0408 0.0386 0.9984
vn 0.0198 0.0204 0.9996
vn -0.0101 -0.0095 0.9999
vn -0.0097 -0.0100 0.9999
vn 0.0650 0.0668 0.9956
vn 0.0662 0.0626 0.9958
vn 0.0646 0.0683 -0.9956
vn 0.0273 0.1101 -0.9935
vn 0.0274 0.1101 0.9935
vn 0.0109 0.0651 0.9978
vn 0.0662 0.0626 -0.9958
vn -0.0272 0.1305 0.9911
vn -0.0264 0.0787 0.9966
vn -0.0372 0.1242 0.9916
vn 0.0164 0.0129 -0.9998
vn -0.0108 -0.0084 -0.9999
vn -0.7868 -0.6172 -0.0000
vn -0.0108 -0.0084 0.9999
vn 0.0164 0.0128 0.9998
vn 0.0436 0.0342 0.9985
vn 0.0706 0.0554 0.9960
vn 0.0706 0.0554 -0.9960
vn 0.0435 0.0341 -0.9985
vn 0.0196 -0.0080 -0.9998
vn -0.0129 0.0052 -0.9999
vn -0.9263 0.3767 -0.0001
vn -0.9263 0.3767 -0.0000
vn -0.0129 0.0052 0.9999
vn 0.0197 -0.0080 0.9998
vn 0.0520 -0.0212 0.9984
vn 0.0844 -0.0343 0.9958
vn 0.0844 -0.0343 -0.9958
vn 0.0520 -0.0212 -0.9984
vn -0.7868 -0.6172 -0.0001
vn 0.0164 0.0129 0.9998
vn 0.0435 0.0342 -0.9985
vn -0.0125 -0.0472 0.9988
vn 0.0126 0.0053 0.9999
vn -0.0572 0.0262 0.9980
vn -0.0351 -0.0148 0.9993
vn 0.9211 0.3893 -0.0001
vn 0.0126 0.0053 -0.9999
vn -0.0192 -0.0081 -0.9998
vn 0.9211 0.3893 -0.0000
vn -0.0510 -0.0215 -0.9985
vn -0.9211 -0.3892 -0.0001
vn -0.9211 -0.3892 -0.0000
vn 0.2559 0.0853 0.9629
vn -0.0853 0.2559 0.9629
vn 0.0639 0.1919 0.9793
vn -0.1532 0.0510 0.9869
vn -0.2558 -0.0853 0.9629
vn -0.0639 -0.1919 0.9793
vn 0.0853 -0.2559 0.9629
vn 0.1531 -0.0510 0.9869
vn 0.0639 0.1919 -0.9793
vn -0.1531 0.0510 -0.9869
vn -0.0853 0.2559 -0.9629
vn 0.2559 0.0853 -0.9629
vn -0.2558 -0.0853 -0.9629
vn -0.0639 -0.1919 -0.9793
vn 0.0853 -0.2559 -0.9629
vn 0.1532 -0.0510 -0.9869
vt 0.011719 0.976320
vt 0.107414 0.761719
vt 0.226681 0.982299
vt 0.297849 0.822705
vt 0.107414 0.761721
vt 0.297846 0.822707
vt 0.226678 0.982301
vt 0.441643 0.988281
vt 0.488281 0.883690
vt 0.282278 0.375129
vt 0.011719 0.495014
vt 0.320914 0.398790
vt 0.291869 0.371094
vt 0.044494 0.515085
vt 0.077269 0.535156
vt 0.330506 0.394755
vt 0.353690 0.418862
vt 0.353690 0.418862
vt 0.044494 0.515085
vt 0.320915 0.398790
vt 0.330506 0.394755
vt 0.363281 0.414826
vt 0.400388 0.761719
vt 0.444335 0.786777
vt 0.011719 0.937096
vt 0.054504 0.962689
vt 0.011720 0.937096
vt 0.054503 0.962689
vt 0.444335 0.786778
vt 0.097286 0.988281
vt 0.488281 0.811835
vt 0.453830 0.413585
vt 0.497504 0.456713
vt 0.541178 0.499841
vt 0.573150 0.531413
vt 0.584852 0.542969
vt 0.497504 0.456713
vt 0.421859 0.382013
vt 0.410156 0.370457
vt 0.458822 0.406410
vt 0.426850 0.374837
vt 0.502496 0.449537
vt 0.502496 0.449537
vt 0.546170 0.492665
vt 0.578141 0.524238
vt 0.589844 0.535793
vt 0.578141 0.524237
vt 0.415148 0.363281
vt 0.746094 0.484497
vt 0.716235 0.542969
vt 0.746093 0.484497
vt 0.670120 0.478960
vt 0.699978 0.420487
vt 0.628906 0.421753
vt 0.658765 0.363282
vt 0.658765 0.363281
vt 0.034807 0.785623
vt 0.011719 0.773461
vt 0.063970 0.764253
vt 0.034807 0.785623
vt 0.270421 0.908467
vt 0.092996 0.779188
vt 0.308466 0.894027
vt 0.443386 0.978109
vt 0.398492 0.988281
vt 0.308466 0.894026
vt 0.346513 0.879585
vt 0.488281 0.967937
vt 0.121437 0.761719
vt 0.339376 0.939028
vt 0.190472 0.988281
vt 0.011719 0.859953
vt 0.190470 0.988280
vt 0.160810 0.810836
vt 0.339378 0.939030
vt 0.488281 0.889778
vt 0.309903 0.761719
vt 0.160812 0.810836
vt 0.094266 0.908766
vt 0.176816 0.988281
vt 0.488281 0.906386
vt 0.488281 0.906387
vt 0.378421 0.834053
vt 0.011719 0.829251
vt 0.268556 0.761719
vt 0.011719 0.844634
vt 0.207091 0.988280
vt 0.207091 0.988281
vt 0.160449 0.803176
vt 0.347685 0.940844
vt 0.160446 0.803176
vt 0.488281 0.893408
vt 0.309176 0.761719
vt 0.347687 0.940843
vt 0.123193 0.831775
vt 0.234660 0.761719
vt 0.455694 0.901649
vt 0.488279 0.815016
vt 0.234660 0.761720
vt 0.123193 0.831776
vt 0.488281 0.815017
vt 0.011719 0.901833
vt 0.423112 0.988281
vt 0.976562 0.023438
s 1
f 432/234/526 429/235/526 430/236/527
f 429/235/526 431/237/528 430/236/527
f 433/238/529 429/235/529 432/234/529
f 434/239/530 433/238/531 435/234/531
f 435/234/529 433/238/529 432/234/529
f 436/240/532 434/239/530 435/234/531
f 437/241/533 438/242/533 436/240/532
f 438/242/533 434/239/530 436/240/532
f 431/237/528 438/242/534 437/241/534
f 430/236/527 431/237/528 437/241/534
f 442/243/535 439/243/535 440/244/536
f 439/243/535 441/244/536 440/244/536
f 439/243/537 445/245/538 441/244/539
f 439/243/535 442/243/535 443/246/540
f 444/246/540 439/243/535 443/246/540
f 445/245/538 439/243/537 444/246/541
f 446/247/542 445/245/538 449/248/543
f 445/245/538 446/247/542 441/244/539
f 447/249/544 445/245/538 444/246/541
f 448/250/543 445/245/538 447/249/544
f 445/245/538 448/250/543 449/248/543
f 448/250/545 450/251/545 449/248/545
f 450/251/545 451/248/545 449/248/545
f 446/247/546 449/248/547 451/248/546
f 452/252/548 451/248/549 450/251/549
f 452/252/546 446/247/546 451/248/546
f 440/244/550 452/252/548 453/253/551
f 440/244/547 441/244/546 452/252/546
f 441/244/546 446/247/546 452/252/546
f 453/253/551 452/252/548 450/251/549
f 442/243/552 440/244/550 453/253/551
f 442/243/552 453/253/551 454/254/553
f 453/253/551 450/251/549 455/255/549
f 454/254/553 453/253/551 455/255/549
f 455/255/554 450/251/545 456/255/545
f 450/251/545 448/250/545 456/255/545
f 456/255/543 448/250/543 447/249/544
f 443/246/555 442/243/552 454/254/553
f 460/256/556 458/257/557 457/258/556
f 458/257/557 459/259/558 457/258/556
f 460/256/559 457/258/559 461/260/559
f 462/256/560 460/256/560 461/260/560
f 462/256/561 461/260/561 463/261/562
f 465/262/563 463/261/564 464/263/565
f 465/262/563 462/256/561 463/261/564
f 466/264/565 465/262/563 464/263/565
f 466/264/566 464/263/566 459/259/558
f 458/257/557 466/264/566 459/259/558
f 479/265/567 468/266/567 467/266/568
f 468/266/567 469/267/567 467/266/568
f 469/267/567 470/268/569 467/266/568
f 470/268/569 471/269/570 467/266/568
f 471/269/570 472/268/571 467/266/568
f 472/268/571 473/267/567 467/266/568
f 473/267/567 474/270/567 467/266/568
f 474/270/567 475/265/567 467/266/568
f 475/265/567 476/271/572 467/266/568
f 476/271/572 477/272/570 467/266/568
f 477/272/570 478/271/571 467/266/568
f 478/271/571 479/265/567 467/266/568
f 479/265/573 481/273/574 468/266/575
f 478/271/576 480/274/577 479/265/573
f 480/274/577 481/273/574 479/265/573
f 483/275/578 481/273/578 482/276/579
f 481/273/578 480/274/580 482/276/579
f 481/273/574 483/275/581 468/266/575
f 468/266/575 483/275/581 469/267/582
f 483/275/581 484/277/583 469/267/582
f 484/277/578 483/275/578 482/276/579
f 469/267/582 484/277/583 470/268/584
f 484/277/583 485/278/585 470/268/584
f 485/278/586 484/277/578 482/276/579
f 470/268/584 485/278/585 471/269/587
f 485/278/585 486/279/588 471/269/587
f 486/279/589 485/278/586 482/276/579
f 487/280/580 486/279/589 482/276/579
f 486/279/588 487/280/590 472/268/591
f 471/269/587 486/279/588 472/268/591
f 488/277/578 487/280/580 482/276/579
f 487/280/590 488/277/592 473/267/593
f 472/268/591 487/280/590 473/267/593
f 489/276/578 488/277/578 482/276/579
f 488/277/592 489/276/594 474/270/595
f 473/267/593 488/277/592 474/270/595
f 474/270/595 489/276/594 475/265/596
f 489/276/594 490/273/597 475/265/596
f 490/273/578 489/276/578 482/276/579
f 475/265/596 490/273/597 476/271/598
f 490/273/597 491/274/599 476/271/598
f 491/274/586 490/273/578 482/276/579
f 476/271/598 491/274/599 477/272/600
f 491/274/599 492/281/601 477/272/600
f 492/281/589 491/274/586 482/276/579
f 477/272/600 492/281/601 478/271/576
f 492/281/601 480/274/577 478/271/576
f 480/274/580 492/281/589 482/276/579
f 496/282/602 493/283/602 494/284/602
f 493/283/602 495/283/602 494/284/602
f 497/285/603 493/283/604 496/282/604
f 498/286/605 497/285/603 496/282/604
f 499/287/606 497/285/603 498/286/605
f 500/287/607 499/287/607 501/288/607
f 501/288/606 499/287/606 498/286/605
f 502/289/607 500/287/607 501/288/607
f 502/289/608 501/288/608 498/286/608
f 504/286/609 503/285/610 502/289/611
f 503/285/610 500/287/611 502/289/611
f 504/286/608 502/289/608 496/282/608
f 496/282/608 502/289/608 498/286/608
f 494/284/608 504/286/608 496/282/608
f 494/284/612 495/283/612 504/286/609
f 495/283/612 503/285/610 504/286/609
f 505/290/613 506/291/614 508/292/615
f 505/290/616 507/293/617 506/291/618
f 507/293/617 505/290/616 510/294/619
f 509/295/620 505/290/613 508/292/615
f 505/290/613 509/295/620 510/294/621
f 512/294/622 507/293/617 510/294/619
f 509/295/620 511/296/623 510/294/621
f 510/294/621 511/296/623 513/297/624
f 512/294/622 510/294/619 514/298/625
f 514/298/626 510/294/621 513/297/624
f 515/298/625 512/294/622 514/298/625
f 517/297/627 516/299/628 515/298/629
f 516/299/628 512/294/630 515/298/629
f 519/300/631 516/299/628 517/297/627
f 518/301/632 519/300/631 517/297/627
f 511/296/623 509/295/620 519/300/633
f 509/295/620 521/302/634 519/300/633
f 521/302/635 520/295/636 519/300/631
f 520/295/636 516/299/628 519/300/631
f 511/296/623 519/300/633 518/301/637
f 520/295/636 521/302/635 508/292/638
f 521/302/634 509/295/620 508/292/615
f 520/295/636 507/293/639 512/294/630
f 507/293/639 520/295/636 508/292/638
f 516/299/628 520/295/636 512/294/630
f 513/297/624 511/296/623 518/301/637
f 506/291/640 507/293/639 508/292/638
f 523/303/641 522/304/642 524/305/642
f 524/305/643 522/304/643 525/305/643
f 522/304/643 526/306/643 525/305/643
f 525/305/644 526/306/644 527/307/645
f 526/306/644 528/308/646 527/307/645
f 528/308/646 529/309/647 530/310/647
f 527/307/645 528/308/646 530/310/647
f 530/310/648 529/309/648 531/311/649
f 529/309/648 523/303/641 531/311/649
f 531/311/649 523/303/641 524/305/642
f 533/312/650 532/313/651 534/314/651
f 534/314/652 532/313/653 535/315/652
f 532/313/653 536/313/653 535/315/652
f 535/315/654 536/313/654 537/316/655
f 536/313/654 538/312/656 537/316/655
f 538/312/656 539/317/657 540/318/657
f 537/316/655 538/312/656 540/318/657
f 540/318/658 539/317/658 541/316/659
f 539/317/658 533/312/650 541/316/659
f 541/316/659 533/312/650 534/314/651
f 542/319/660 543/320/660 545/321/660
f 543/320/642 542/319/642 544/322/641
f 546/319/643 542/319/643 545/321/643
f 545/321/644 547/323/661 546/319/644
f 547/323/661 548/324/646 546/319/644
f 550/325/647 549/326/647 548/324/646
f 547/323/661 550/325/647 548/324/646
f 550/325/648 551/327/662 549/326/648
f 551/327/649 543/320/642 544/322/641
f 551/327/649 544/322/641 549/326/648
f 555/328/663 552/329/664 553/330/665
f 552/329/664 554/331/664 553/330/666
f 554/331/667 552/329/667 556/332/667
f 556/332/668 557/333/669 558/334/668
f 558/334/670 554/331/670 556/332/670
f 557/333/669 559/330/671 558/334/668
f 557/333/669 560/335/672 559/330/671
f 560/335/672 561/336/673 559/330/671
f 560/335/672 555/328/663 561/336/673
f 555/328/663 553/330/665 561/336/673
f 563/337/674 562/337/675 564/337/676
f 564/337/676 562/337/675 565/337/677
f 562/337/675 566/337/678 565/337/677
f 565/337/677 566/337/678 567/337/679
f 566/337/678 568/337/680 567/337/679
f 568/337/680 563/337/674 569/337/681
f 567/337/679 568/337/680 569/337/681
f 569/337/681 563/337/674 564/337/676
f 564/337/676 565/337/677 569/337/681
f 565/337/677 567/337/679 569/337/681
f 571/337/682 573/337/683 570/337/684
f 571/337/682 570/337/684 572/337/685
f 573/337/683 574/337/686 570/337/684
f 573/337/683 575/337/687 574/337/686
f 575/337/687 576/337/688 574/337/686
f 577/337/689 572/337/685 576/337/688
f 575/337/687 577/337/689 576/337/688
f 571/337/682 577/337/689 573/337/683
f 577/337/689 571/337/682 572/337/685
f 577/337/689 575/337/687 573/337/683
f 579/337/674 578/337/675 580/337/676
f 580/337/676 578/337/675 581/337/677
f 578/337/675 582/337/678 581/337/677
f 581/337/677 582/337/678 583/337/679
f 582/337/678 584/337/680 583/337/679
f 584/337/680 579/337/674 585/337/681
f 583/337/679 584/337/680 585/337/681
f 580/337/676 581/337/677 585/337/681
f 585/337/681 579/337/674 580/337/676
f 581/337/677 583/337/679 585/337/681
f 587/337/682 589/337/683 586/337/684
f 587/337/682 586/337/684 588/337/685
f 589/337/683 590/337/686 586/337/684
f 589/337/683 591/337/687 590/337/686
f 591/337/687 592/337/688 590/337/686
f 593/337/689 588/337/685 592/337/688
f 591/337/687 593/337/689 592/337/688
f 593/337/689 587/337/682 588/337/685
f 587/337/682 593/337/689 589/337/683
f 593/337/689 591/337/687 589/337/683
f 595/337/674 594/337/675 596/337/676
f 596/337/676 594/337/675 597/337/677
f 594/337/675 598/337/678 597/337/677
f 597/337/677 598/337/678 599/337/679
f 598/337/678 600/337/680 599/337/679
f 600/337/680 595/337/674 601/337/681
f 599/337/679 600/337/680 601/337/681
f 601/337/681 595/337/674 596/337/676
f 596/337/676 597/337/677 601/337/681
f 597/337/677 599/337/679 601/337/681
f 603/337/682 605/337/683 602/337/684
f 603/337/682 602/337/684 604/337/685
f 605/337/683 606/337/686 602/337/684
f 605/337/683 607/337/687 606/337/686
f 607/337/687 608/337/688 606/337/686
f 609/337/689 604/337/685 608/337/688
f 607/337/687 609/337/689 608/337/688
f 603/337/682 609/337/689 605/337/683
f 609/337/689 603/337/682 604/337/685
f 609/337/689 607/337/687 605/337/683
o effect
v -35.537594 -2.408487 -2.462378
v -109.624603 -5.284317 2.726911
v -35.537594 -2.408486 2.462378
v -109.624603 -5.284317 -2.726910
v -109.955109 0.926713 -4.570762
v -35.134823 3.499482 -3.777248
v -35.134823 3.499483 3.777248
v -109.955109 0.926714 4.570762
v -35.389313 9.398791 2.462377
v -35.389313 9.398791 -2.462379
v -110.285698 7.137743 2.726910
v -171.035248 2.195664 2.726910
v -110.285698 7.137743 -2.726911
v -171.035248 2.195664 -2.726910
v -227.594101 -4.733328 -2.726910
v -226.508377 -10.868086 -4.570761
v -170.314575 -3.983876 -4.570762
v -169.594147 -10.163337 -2.726909
v -225.422852 -17.002768 -2.726909
v -294.118378 -28.617380 -2.640480
v -294.118378 -28.617380 2.640484
v -225.422852 -17.002768 2.726911
v -226.508377 -10.868086 4.570763
v -169.594147 -10.163337 2.726911
v -170.314575 -3.983875 4.570763
v -227.594101 -4.733328 2.726910
v -297.122711 -16.274298 -2.640481
v -297.122711 -16.274298 2.640483
v -295.966003 -22.511379 4.050474
v -295.966003 -22.511379 -4.050470
v -35.480892 -2.068468 -1.933396
v -35.305309 8.241507 -1.933397
v -35.480892 -2.068467 1.933396
v -35.305309 8.241507 1.933395
v -35.385521 3.531470 -2.983816
v -35.385521 3.531470 2.983816
v -293.705200 -27.661724 -1.933394
v -296.226044 -17.417904 -1.933395
v -293.705200 -27.661724 1.933398
v -296.226044 -17.417904 1.933397
v -294.965576 -22.539816 -2.983814
v -294.965576 -22.539816 2.983818
v -225.587036 -16.207220 -1.933395
v -227.404739 -5.846018 -1.933396
v -225.587036 -16.207220 1.933397
v -227.404739 -5.846018 1.933396
v -226.495804 -11.026701 -2.983815
v -226.495804 -11.026701 2.983817
v -169.698975 -9.313675 -1.933395
v -170.906876 1.122642 -1.933396
v -169.698975 -9.313675 1.933397
v -170.906876 1.122642 1.933396
v -170.302872 -4.095555 -2.983816
v -170.302872 -4.095555 2.983816
v -109.670334 -4.380011 -1.933396
v -110.223404 6.110211 -1.933396
v -109.670334 -4.380011 1.933396
v -110.223404 6.110211 1.933396
v -109.946823 0.865101 -2.983816
v -109.946823 0.865101 2.983816
v -293.705200 -27.661724 -1.933394
v -294.965576 -22.539816 -2.983814
v -293.705200 -27.661724 1.933398
v -294.965576 -22.539816 2.983818
v -296.226044 -17.417904 1.933397
v -296.226044 -17.417904 -1.933395
v -93.235199 -4.707600 -2.215558
v -93.235199 -4.707600 2.215640
v -93.160118 0.905345 -3.548222
v -89.582527 1.066607 -3.548222
v -89.757965 -4.550916 -2.215558
v -89.757965 -4.550916 2.215640
v -93.160118 0.905346 3.548222
v -89.582527 1.066607 3.548222
v -89.407104 6.684130 -2.215640
v -89.407104 6.684130 2.215558
v -93.084930 6.518376 2.215558
v -93.084930 6.518376 -2.215640
vn 0.0685 -0.9977 -0.0000
vn 0.0388 -0.9992 -0.0000
vn 0.0514 -0.9987 -0.0000
vn 0.9996 -0.0278 -0.0000
vn 0.9977 -0.0680 -0.0000
vn 0.0153 -0.2505 -0.9680
vn 0.0188 -0.2836 -0.9588
vn 0.0095 -0.0427 -0.9990
vn 0.0104 0.0032 -0.9999
vn 1.0000 0.0028 -0.0000
vn 0.0104 0.0032 0.9999
vn -0.0015 0.2504 0.9682
vn 0.0010 0.0409 0.9992
vn 0.0153 -0.2505 0.9680
vn 0.9991 0.0431 -0.0000
vn -0.0302 0.9995 -0.0000
vn -0.0557 0.9984 -0.0000
vn -0.0141 0.2839 0.9588
vn -0.0266 0.2830 0.9588
vn -0.0932 0.9956 -0.0000
vn -0.1095 0.9940 -0.0000
vn -0.1342 0.9910 -0.0000
vn -0.0085 0.0401 -0.9992
vn -0.0412 0.2809 -0.9589
vn -0.0312 0.2825 -0.9588
vn 0.0026 -0.0006 -1.0000
vn -0.0176 0.2837 -0.9588
vn 0.0264 -0.2830 -0.9588
vn 0.0380 -0.2814 -0.9588
vn 0.1667 -0.9860 -0.0000
vn 0.1534 -0.9882 -0.0000
vn 0.0385 -0.2475 -0.9681
vn 0.1350 -0.9908 -0.0000
vn 0.1096 -0.9940 -0.0000
vn 0.0041 -0.0430 0.9991
vn 0.0402 -0.2811 0.9588
vn 0.0310 -0.2825 0.9588
vn 0.0385 -0.2475 0.9681
vn 0.0931 -0.9957 -0.0000
vn -0.0023 -0.0010 1.0000
vn 0.0205 -0.2835 0.9588
vn -0.0386 0.2813 0.9588
vn -0.1512 0.9885 -0.0000
vn -0.1637 0.9865 -0.0000
vn -0.0450 0.2457 0.9683
vn -0.9752 -0.2215 -0.0000
vn -0.9832 -0.1823 -0.0000
vn -0.0081 0.0051 1.0000
vn -0.9679 -0.2512 -0.0000
vn -0.9571 -0.2896 -0.0000
vn -0.0082 0.0051 -1.0000
vn -0.0450 0.2457 -0.9683
vn -0.0015 0.2504 -0.9682
vn 0.0325 -0.1931 -0.9806
vn -0.0150 0.0709 -0.9974
vn 0.0018 -0.0003 -1.0000
vn 0.0265 -0.1941 -0.9806
vn 0.0133 -0.0590 0.9982
vn 0.0325 -0.1931 0.9806
vn 0.0299 -0.1936 0.9806
vn -0.0016 -0.0008 1.0000
vn 0.1658 -0.9862 -0.0000
vn 0.1530 -0.9882 -0.0000
vn 0.1353 -0.9908 -0.0000
vn -0.0325 0.1931 -0.9806
vn -0.0301 0.1936 -0.9806
vn -0.1658 0.9862 -0.0000
vn -0.1529 0.9882 -0.0000
vn -0.1354 0.9908 -0.0000
vn -0.0325 0.1931 0.9806
vn -0.0267 0.1941 0.9806
vn 0.0017 -0.0004 -1.0000
vn 0.0185 -0.1952 -0.9806
vn 0.0216 -0.1949 0.9806
vn -0.0016 -0.0007 1.0000
vn 0.1104 -0.9939 -0.0000
vn 0.0939 -0.9956 -0.0000
vn -0.0217 0.1949 -0.9806
vn -0.1104 0.9939 -0.0000
vn -0.0940 0.9956 -0.0000
vn -0.0185 0.1952 0.9806
vn 0.0019 0.0031 -1.0000
vn 0.0093 -0.1921 -0.9813
vn 0.0132 -0.1957 0.9806
vn -0.0024 0.0326 0.9995
vn 0.0669 -0.9978 -0.0000
vn 0.0462 -0.9989 -0.0000
vn -0.0128 0.1957 -0.9806
vn -0.0552 0.9985 -0.0000
vn -0.0108 0.1958 0.9806
vn 0.0062 -0.1902 0.9817
vn -0.0008 0.0204 0.9998
vn 0.0311 -0.9995 -0.0000
vn -0.0068 0.2071 0.9783
vn -0.0284 0.9996 -0.0000
vn -0.0068 0.2071 -0.9783
vn -0.0004 -0.0518 -0.9987
vn 0.0057 -0.1845 -0.9828
vn 0.9999 -0.0170 -0.0000
vn -0.9710 -0.2389 -0.0000
vn -0.9710 -0.2390 -0.0000
vn 0.0450 -0.9990 -0.0000
vn -0.9999 0.0134 -0.0000
vn 0.0104 -0.2311 -0.9729
vn 0.0015 0.0725 -0.9974
vn -0.0007 -0.0720 -0.9974
vn -0.0003 0.0860 0.9963
vn -0.0006 -0.0855 0.9963
vn 0.0104 -0.2311 0.9729
vn 0.9995 -0.0312 -0.0000
vn -0.0104 0.2311 0.9729
vn -0.0450 0.9990 -0.0000
vn -0.0104 0.2311 -0.9729
vt 0.352875 0.633003
vt 0.487720 0.624855
vt 0.488281 0.599537
vt 0.352092 0.606343
vt 0.487645 0.574219
vt 0.351308 0.579684
vt 0.240814 0.597448
vt 0.138009 0.623971
vt 0.140166 0.650346
vt 0.242306 0.623994
vt 0.243799 0.650540
vt 0.142322 0.676721
vt 0.017551 0.722656
vt 0.011719 0.669544
vt 0.014008 0.696362
vt 0.016650 0.722656
vt 0.014184 0.699027
vt 0.139093 0.650501
vt 0.140917 0.674377
vt 0.011719 0.675397
vt 0.137269 0.626624
vt 0.241684 0.622251
vt 0.242951 0.646281
vt 0.240416 0.598221
vt 0.351952 0.603328
vt 0.352622 0.627461
vt 0.351283 0.579196
vt 0.488281 0.621609
vt 0.488281 0.595868
vt 0.488281 0.574219
vt 0.628906 0.511340
vt 0.628906 0.394910
vt 0.687500 0.542969
vt 0.687500 0.363281
vt 0.746094 0.394910
vt 0.746094 0.511340
vt 0.629684 0.397023
vt 0.628906 0.397023
vt 0.628906 0.509225
vt 0.687088 0.542969
vt 0.687889 0.542969
vt 0.629684 0.509225
vt 0.687889 0.363281
vt 0.687088 0.363281
vt 0.745271 0.397025
vt 0.746094 0.509227
vt 0.746094 0.397025
vt 0.745271 0.509227
s 1
f 613/338/690 610/339/691 611/338/692
f 610/339/691 612/339/691 611/338/692
f 616/340/693 612/339/694 610/339/694
f 610/339/695 613/338/696 614/341/697
f 615/340/698 610/339/695 614/341/697
f 615/340/699 616/340/693 610/339/694
f 616/340/700 618/342/701 617/341/702
f 612/339/703 616/340/700 617/341/702
f 618/342/704 616/340/693 615/340/699
f 619/342/704 618/342/704 615/340/699
f 618/342/705 619/342/705 620/343/706
f 618/342/701 620/343/707 617/341/702
f 620/343/707 621/344/708 617/341/702
f 623/344/709 621/344/710 620/343/706
f 619/342/705 622/343/706 620/343/706
f 622/343/706 623/344/709 620/343/706
f 623/344/709 624/345/711 621/344/710
f 625/346/712 624/345/713 623/344/714
f 626/347/715 625/346/712 623/344/714
f 626/347/715 623/344/714 622/343/716
f 614/341/697 626/347/715 622/343/716
f 627/348/717 626/347/715 614/341/697
f 628/349/718 625/346/712 626/347/715
f 627/348/717 628/349/718 626/347/715
f 630/350/719 629/350/719 628/349/720
f 628/349/718 629/350/721 625/346/712
f 631/349/722 630/350/719 628/349/720
f 631/349/722 628/349/720 627/348/723
f 632/346/724 631/349/725 633/348/726
f 630/350/727 631/349/725 632/346/724
f 633/348/728 631/349/722 627/348/723
f 634/347/729 632/346/724 633/348/726
f 633/348/728 627/348/723 613/338/690
f 634/347/729 633/348/726 611/338/730
f 611/338/692 633/348/728 613/338/690
f 621/344/708 634/347/729 617/341/702
f 621/344/708 635/345/731 634/347/729
f 635/345/731 632/346/724 634/347/729
f 617/341/702 634/347/729 611/338/730
f 624/345/711 635/345/732 621/344/710
f 624/345/711 636/351/733 635/345/732
f 636/351/733 637/351/733 635/345/732
f 635/345/731 637/351/734 632/346/724
f 638/352/735 637/351/736 636/351/736
f 637/351/734 638/352/737 632/346/724
f 639/352/738 638/352/735 636/351/736
f 630/350/739 638/352/735 639/352/738
f 638/352/737 630/350/727 632/346/724
f 629/350/739 630/350/739 639/352/738
f 629/350/721 639/352/740 625/346/712
f 639/352/740 636/351/741 625/346/712
f 636/351/741 624/345/713 625/346/712
f 613/338/696 627/348/717 614/341/697
f 622/343/716 619/342/742 614/341/697
f 619/342/742 615/340/698 614/341/697
f 611/338/730 612/339/703 617/341/702
f 646/353/743 650/354/744 656/355/745
f 652/356/746 646/353/743 656/355/745
f 651/354/747 648/353/748 654/356/749
f 657/355/750 651/354/747 654/356/749
f 648/353/751 646/353/751 652/356/752
f 654/356/753 648/353/751 652/356/752
f 650/354/744 647/357/754 653/358/755
f 656/355/745 650/354/744 653/358/755
f 647/357/756 649/357/756 655/358/757
f 653/358/758 647/357/756 655/358/757
f 649/357/759 651/354/747 657/355/750
f 655/358/760 649/357/759 657/355/750
f 652/356/746 656/355/745 662/359/761
f 658/360/762 652/356/746 662/359/761
f 657/355/750 654/356/749 660/360/763
f 663/359/764 657/355/750 660/360/763
f 654/356/753 652/356/752 658/360/765
f 660/360/766 654/356/753 658/360/765
f 656/355/745 653/358/755 659/361/767
f 662/359/761 656/355/745 659/361/767
f 653/358/758 655/358/757 661/361/768
f 659/361/769 653/358/758 661/361/768
f 655/358/760 657/355/750 663/359/764
f 661/361/770 655/358/760 663/359/764
f 658/360/762 662/359/761 668/362/771
f 664/363/772 658/360/762 668/362/771
f 663/359/764 660/360/763 666/363/773
f 669/362/774 663/359/764 666/363/773
f 660/360/766 658/360/765 664/363/775
f 666/363/776 660/360/766 664/363/775
f 662/359/761 659/361/767 665/364/777
f 668/362/771 662/359/761 665/364/777
f 659/361/769 661/361/768 667/364/778
f 665/364/778 659/361/769 667/364/778
f 661/361/770 663/359/764 669/362/774
f 667/364/779 661/361/770 669/362/774
f 642/365/780 645/366/781 669/362/774
f 666/363/773 642/365/780 669/362/774
f 640/365/782 642/365/782 666/363/776
f 664/363/775 640/365/782 666/363/776
f 643/367/783 667/364/779 669/362/774
f 645/366/781 643/367/783 669/362/774
f 641/367/784 665/364/778 667/364/778
f 643/367/784 641/367/784 667/364/778
f 641/367/785 644/366/786 668/362/771
f 665/364/777 641/367/785 668/362/771
f 644/366/786 640/365/787 664/363/772
f 668/362/771 644/366/786 664/363/772
f 643/367/788 645/366/788 644/366/788
f 641/367/788 643/367/788 644/366/788
f 645/366/788 642/365/788 640/365/788
f 644/366/788 645/366/788 640/365/788
f 670/368/789 672/369/789 671/370/790
f 672/369/789 673/371/790 671/370/790
f 673/371/790 674/372/790 675/373/790
f 671/370/790 673/371/790 675/373/790
f 681/374/791 677/375/791 676/376/791
f 677/375/792 678/377/792 676/376/792
f 676/376/793 678/377/794 679/378/795
f 680/379/793 676/376/793 679/378/795
f 680/379/791 681/374/791 676/376/791
f 683/380/796 682/381/797 681/374/798
f 682/381/797 677/375/798 681/374/798
f 680/379/799 679/378/799 681/374/799
f 683/380/799 681/374/799 679/378/799
f 686/382/800 682/381/797 683/380/796
f 684/383/799 683/380/799 679/378/799
f 684/383/799 685/384/799 683/380/799
f 685/384/800 686/382/800 683/380/796
f 687/385/801 686/382/801 685/384/801
f 687/385/792 678/377/792 686/382/792
f 686/382/792 678/377/792 682/381/792
f 678/377/794 687/385/802 684/383/802
f 684/383/801 687/385/801 685/384/801
f 679/378/795 678/377/794 684/383/802
f 678/377/792 677/375/792 682/381/792
