# Blender 5.2.0 LTS
# www.blender.org
o blade
v -32.474792 -4.447566 -2.673406
v 48.050259 -3.512381 2.673409
v 48.050259 -3.512381 -2.673406
v -32.474792 -4.447566 2.673409
v -35.269211 -4.429136 2.673409
v -35.269211 -4.429136 -2.673406
v -32.523491 3.612357 -4.208941
v -35.317905 3.630788 -4.208941
v -32.564800 10.449386 -2.673407
v 47.970867 9.626896 -2.673407
v 48.010555 3.057256 -4.208941
v 47.970867 9.626896 2.673409
v 48.010555 3.057257 4.208943
v -32.523491 3.612358 4.208943
v -32.564800 10.449386 2.673409
v -35.359215 10.467816 -2.673407
v -35.359215 10.467816 2.673409
v -35.317905 3.630788 4.208943
v -38.564400 -1.345900 -0.480300
v -110.010300 1.677401 -0.566300
v -38.564400 3.406400 -0.566300
v -109.795502 -3.068701 -0.480300
v -38.564400 -1.345900 0.480300
v -109.795502 -3.068701 0.480300
v -38.564400 3.406400 0.566300
v -110.010300 1.677401 0.566300
v -38.564400 8.158600 -0.000001
v -110.225197 6.423399 -0.000000
v -170.362198 -3.336300 -0.566300
v -170.769089 1.393900 -0.000000
v -227.097397 -6.114899 0.000000
v -226.511795 -10.821398 -0.566299
v -170.362198 -3.336300 0.566300
v -226.511795 -10.821398 0.566301
v -169.955414 -8.066401 0.480301
v -225.926285 -15.527601 0.480301
v -169.955414 -8.066401 -0.480299
v -225.926285 -15.527601 -0.480299
v -285.119110 -26.426998 -0.480298
v -285.119110 -26.426998 0.480302
v -281.382904 -20.574398 -0.566298
v -283.795776 -16.482498 0.000001
v -288.616180 -21.934000 0.000002
v -281.382904 -20.574398 0.566302
v -290.956207 -27.484400 0.000002
v -34.015800 -2.157500 -1.099300
v -42.484100 -2.225600 1.099300
v -34.015800 -2.157500 1.099300
v -42.484100 -2.225600 -1.099300
v -34.015800 3.610700 -1.295900
v -42.484100 3.542600 -1.295900
v -34.015800 8.765900 -0.723001
v -34.015800 8.765900 0.722999
v -42.484100 8.697800 -0.723001
v -42.484100 8.697800 0.722999
v -34.015800 3.610700 1.295900
v -42.484100 3.542600 1.295900
v -35.188805 3.601435 0.000002
v -35.188805 3.601434 12.755768
v -35.185284 -3.155957 11.046864
v -35.182705 -8.102701 6.377952
v -35.181763 -9.913346 0.000005
v -35.182705 -8.102701 -6.377943
v -35.185284 -3.155955 -11.046858
v -35.188805 3.601436 -12.755766
v -35.192333 10.357965 -11.045453
v -35.194908 15.304867 -6.377564
v -35.195847 17.116213 -0.000002
v -35.194908 15.304921 6.377465
v -35.192333 10.357957 11.045443
v -37.100796 15.306503 6.377820
v -37.098217 10.359756 11.046862
v -37.094696 3.602365 0.000002
v -37.094696 3.602364 12.755768
v -37.091167 -3.154156 11.045443
v -37.088593 -8.101061 6.377564
v -37.087654 -9.912416 0.000005
v -37.088593 -8.101075 -6.377563
v -37.091167 -3.154166 -11.045456
v -37.094696 3.602365 -12.755766
v -37.098217 10.359756 -11.046861
v -37.100796 15.306500 -6.377948
v -37.101738 17.117147 -0.000002
vn 0.0025 -1.0000 -0.0000
vn 0.0116 -0.9999 -0.0000
vn 0.0005 -0.1871 -0.9823
vn 0.0003 -0.0180 -0.9998
vn -0.0000 -0.2072 -0.9783
vn -0.0066 -1.0000 -0.0000
vn -0.0012 -0.1872 -0.9823
vn -0.0003 0.0869 -0.9962
vn 0.0018 0.2191 -0.9757
vn 0.0019 0.2234 -0.9747
vn -0.0000 -0.0019 -1.0000
vn 1.0000 0.0060 -0.0000
vn 0.0007 0.0094 1.0000
vn -0.0001 0.0729 0.9973
vn 0.0017 0.2219 0.9751
vn -0.0000 -0.2072 0.9783
vn 0.0023 0.2276 0.9737
vn 0.0084 1.0000 -0.0000
vn 0.0066 1.0000 -0.0000
vn 0.0102 0.9999 -0.0000
vn 0.0014 0.2191 0.9757
vn 0.0005 -0.0510 0.9987
vn 0.0005 -0.1871 0.9823
vn -0.0012 -0.1872 0.9823
vn 0.0014 0.2191 -0.9757
vn 0.0010 -0.0181 -0.9998
vn -0.0015 0.0274 -0.9996
vn 0.0004 -0.0181 -0.9998
vn -0.0018 0.0730 -0.9973
vn 0.0535 -0.9986 -0.0000
vn 0.0242 -0.9997 -0.0000
vn 0.0536 -0.9986 -0.0000
vn 0.0010 -0.0181 0.9998
vn 0.0004 -0.0181 0.9998
vn -0.0007 0.0274 0.9996
vn -0.0039 0.0729 0.9973
vn -0.0029 0.1183 0.9930
vn -0.0063 0.1182 0.9930
vn -0.0029 0.1184 0.9930
vn -0.0063 0.1182 -0.9930
vn -0.0029 0.1183 -0.9930
vn -0.0049 0.0501 -0.9987
vn -0.0136 0.1177 -0.9930
vn -0.0118 0.1179 0.9930
vn -0.0095 0.0634 -0.9979
vn -0.0196 0.1194 -0.9927
vn -0.0187 0.1189 0.9927
vn -0.0059 0.0502 0.9987
vn -0.0057 0.0362 0.9993
vn 0.0020 -0.0180 0.9998
vn 0.0992 -0.9951 -0.0000
vn 0.1485 -0.9889 -0.0000
vn 0.1157 -0.9933 -0.0000
vn 0.0028 -0.0179 0.9998
vn 0.1648 -0.9863 -0.0000
vn 0.0020 -0.0180 -0.9998
vn 0.0028 -0.0179 -0.9998
vn -0.0360 0.0548 -0.9978
vn 0.1797 -0.9837 -0.0000
vn -0.0571 0.0202 -0.9982
vn -0.0891 0.0532 -0.9946
vn -0.0582 0.1031 -0.9930
vn -0.0887 0.0374 -0.9954
vn -0.0361 0.0549 0.9978
vn -0.0582 0.1031 0.9930
vn -0.0891 0.0532 0.9946
vn -0.0887 0.0374 0.9954
vn -0.0571 0.0202 0.9982
vn 0.1783 -0.9840 -0.0000
vn 0.0080 -1.0000 -0.0000
vn -0.0003 0.0141 -0.9999
vn 0.0003 -0.0341 -0.9994
vn -0.0003 0.0624 -0.9981
vn -0.0009 0.1105 -0.9939
vn -0.0080 1.0000 -0.0000
vn -1.0000 -0.0000 -0.0000
vn -0.0003 0.0624 0.9981
vn -0.0009 0.1105 0.9939
vn -0.0003 0.0141 0.9999
vn 0.0003 -0.0341 0.9994
vn 1.0000 0.0005 -0.0000
vn 0.0011 0.5439 0.8392
vn 0.0011 0.4163 0.9092
vn -0.0000 0.0638 0.9980
vn 0.0008 0.9026 0.4304
vn 0.0009 0.7985 0.6020
vn -1.0000 -0.0005 -0.0000
vn -0.0000 -0.0638 0.9980
vn -0.0011 -0.4163 0.9092
vn -0.0011 -0.5439 0.8392
vn -0.0009 -0.7985 0.6020
vn -0.0008 -0.9026 0.4304
vn -0.0006 -0.9925 -0.1223
vn -0.0006 -0.9925 0.1224
vn -0.0009 -0.7984 -0.6022
vn -0.0008 -0.9027 -0.4302
vn -0.0011 -0.4159 -0.9094
vn -0.0010 -0.5440 -0.8391
vn -0.0000 -0.0641 -0.9979
vn -0.0000 0.0641 -0.9979
vn 0.0011 0.4159 -0.9094
vn 0.0010 0.5440 -0.8391
vn 0.0009 0.7984 -0.6022
vn 0.0008 0.9027 -0.4302
vn 0.0006 0.9925 -0.1223
vn 0.0006 0.9925 0.1224
vt 0.023508 0.535156
vt 0.363281 0.519007
vt 0.023508 0.446391
vt 0.011719 0.535156
vt 0.011719 0.446391
vt 0.023508 0.371094
vt 0.363281 0.374302
vt 0.363281 0.446655
vt 0.011719 0.371094
vt 0.353784 0.833084
vt 0.353378 0.802916
vt 0.488281 0.822133
vt 0.488281 0.791926
vt 0.488281 0.761719
vt 0.352972 0.772748
vt 0.239423 0.834785
vt 0.238654 0.804718
vt 0.133402 0.882364
vt 0.132296 0.852447
vt 0.240191 0.864852
vt 0.134507 0.912279
vt 0.029795 0.944358
vt 0.022740 0.981560
vt 0.016137 0.953000
vt 0.025239 0.918348
vt 0.011719 0.988281
vt 0.628906 0.542969
vt 0.629632 0.363281
vt 0.691131 0.363281
vt 0.690405 0.542969
vt 0.746094 0.363281
vt 0.745368 0.542969
vt 0.544922 0.375318
vt 0.500000 0.363281
vt 0.500000 0.453125
vt 0.455078 0.375318
vt 0.422193 0.408203
vt 0.410156 0.453125
vt 0.422193 0.498047
vt 0.455078 0.530932
vt 0.500000 0.542969
vt 0.544922 0.530932
vt 0.577807 0.498047
vt 0.589844 0.453125
vt 0.577807 0.408204
s 1
f 4/1/1 1/1/1 2/2/2
f 1/1/1 3/2/2 2/2/2
f 1/1/3 7/3/4 3/2/5
f 1/1/1 4/1/1 5/4/6
f 6/4/6 1/1/1 5/4/6
f 7/3/4 1/1/3 6/4/7
f 8/5/8 7/3/4 6/4/7
f 9/6/9 7/3/4 8/5/8
f 7/3/4 9/6/9 10/7/10
f 7/3/4 11/8/11 3/2/5
f 11/8/11 7/3/4 10/7/10
f 3/2/12 11/8/12 13/8/12
f 11/8/12 10/7/12 12/7/12
f 13/8/12 11/8/12 12/7/12
f 14/3/13 13/8/14 15/6/15
f 2/2/16 13/8/14 14/3/13
f 2/2/12 3/2/12 13/8/12
f 13/8/14 12/7/17 15/6/15
f 15/6/18 9/6/18 16/9/19
f 9/6/18 15/6/18 10/7/20
f 15/6/18 12/7/20 10/7/20
f 17/9/19 15/6/18 16/9/19
f 14/3/13 15/6/15 17/9/21
f 18/5/22 14/3/13 17/9/21
f 4/1/23 14/3/13 18/5/22
f 5/4/24 4/1/23 18/5/22
f 16/9/25 9/6/9 8/5/8
f 4/1/23 2/2/16 14/3/13
f 22/10/26 20/11/27 19/12/28
f 20/11/27 21/13/29 19/12/28
f 22/10/30 19/12/31 23/12/31
f 24/10/30 22/10/32 23/12/31
f 24/10/33 23/12/34 25/13/35
f 26/11/36 24/10/33 25/13/35
f 26/11/36 25/13/35 27/14/37
f 28/15/38 26/11/36 27/14/39
f 28/15/40 27/14/41 21/13/29
f 20/11/27 29/16/42 28/15/40
f 29/16/42 30/17/43 28/15/40
f 28/15/38 30/17/44 26/11/36
f 20/11/27 28/15/40 21/13/29
f 32/18/45 31/19/46 30/17/43
f 30/17/44 31/19/47 33/16/48
f 29/16/42 32/18/45 30/17/43
f 30/17/44 33/16/48 26/11/36
f 31/19/47 34/18/49 33/16/48
f 26/11/36 33/16/48 24/10/33
f 33/16/48 35/20/50 24/10/33
f 33/16/48 34/18/49 35/20/50
f 35/20/51 36/21/52 37/20/53
f 34/18/49 36/21/54 35/20/50
f 35/20/51 37/20/53 22/10/32
f 24/10/30 35/20/51 22/10/32
f 36/21/52 38/21/55 37/20/53
f 37/20/56 38/21/57 29/16/42
f 37/20/56 29/16/42 20/11/27
f 22/10/26 37/20/56 20/11/27
f 38/21/57 32/18/45 29/16/42
f 41/22/58 32/18/45 38/21/57
f 36/21/52 40/23/59 38/21/55
f 40/23/59 39/23/59 38/21/55
f 39/23/60 41/22/58 38/21/57
f 41/22/58 39/23/60 43/24/61
f 41/22/58 42/25/62 31/19/46
f 42/25/62 41/22/58 43/24/61
f 32/18/45 41/22/58 31/19/46
f 39/23/60 45/26/63 43/24/61
f 44/22/64 42/25/65 43/24/66
f 45/26/67 40/23/68 43/24/66
f 40/23/68 44/22/64 43/24/66
f 39/23/59 40/23/59 45/26/69
f 42/25/65 44/22/64 31/19/47
f 44/22/64 40/23/68 36/21/54
f 34/18/49 44/22/64 36/21/54
f 44/22/64 34/18/49 31/19/47
f 49/27/70 46/28/70 47/27/70
f 46/28/70 48/28/70 47/27/70
f 50/29/71 46/28/72 49/27/72
f 51/30/73 50/29/71 49/27/72
f 52/31/74 50/29/71 51/30/73
f 53/31/75 52/31/75 54/32/75
f 54/32/74 52/31/74 51/30/73
f 55/32/75 53/31/75 54/32/75
f 55/32/76 54/32/76 51/30/76
f 56/29/77 53/31/78 55/32/78
f 57/30/76 55/32/76 49/27/76
f 49/27/76 55/32/76 51/30/76
f 57/30/79 56/29/77 55/32/78
f 47/27/76 57/30/76 49/27/76
f 47/27/80 48/28/80 57/30/79
f 48/28/80 56/29/77 57/30/79
f 70/33/81 59/34/81 58/35/81
f 59/34/81 60/36/81 58/35/81
f 60/36/81 61/37/81 58/35/81
f 61/37/81 62/38/81 58/35/81
f 62/38/81 63/39/81 58/35/81
f 63/39/81 64/40/81 58/35/81
f 64/40/81 65/41/81 58/35/81
f 65/41/81 66/42/81 58/35/81
f 66/42/81 67/43/81 58/35/81
f 67/43/81 68/44/81 58/35/81
f 68/44/81 69/45/81 58/35/81
f 69/45/81 70/33/81 58/35/81
f 70/33/82 72/33/83 59/34/84
f 69/45/85 71/45/86 70/33/82
f 71/45/86 72/33/83 70/33/82
f 72/33/87 71/45/87 73/35/87
f 74/34/87 72/33/87 73/35/87
f 72/33/83 74/34/88 59/34/84
f 59/34/84 74/34/88 60/36/89
f 74/34/88 75/36/90 60/36/89
f 75/36/87 74/34/87 73/35/87
f 60/36/89 75/36/90 61/37/91
f 75/36/90 76/37/92 61/37/91
f 76/37/87 75/36/87 73/35/87
f 77/38/87 76/37/87 73/35/87
f 76/37/92 77/38/93 62/38/94
f 61/37/91 76/37/92 62/38/94
f 78/39/87 77/38/87 73/35/87
f 77/38/93 78/39/95 63/39/96
f 62/38/94 77/38/93 63/39/96
f 79/40/87 78/39/87 73/35/87
f 78/39/95 79/40/97 64/40/98
f 63/39/96 78/39/95 64/40/98
f 64/40/98 79/40/97 65/41/99
f 79/40/97 80/41/100 65/41/99
f 80/41/87 79/40/87 73/35/87
f 65/41/99 80/41/100 66/42/101
f 80/41/100 81/42/102 66/42/101
f 81/42/87 80/41/87 73/35/87
f 66/42/101 81/42/102 67/43/103
f 81/42/102 82/43/104 67/43/103
f 82/43/87 81/42/87 73/35/87
f 67/43/103 82/43/104 68/44/105
f 82/43/104 83/44/106 68/44/105
f 83/44/87 82/43/87 73/35/87
f 68/44/105 83/44/106 69/45/85
f 83/44/106 71/45/86 69/45/85
f 71/45/87 83/44/87 73/35/87
o blade_damaged
v -38.564400 -1.345900 -0.480300
v -110.010300 1.677400 -0.566300
v -38.564400 3.406400 -0.566300
v -109.795502 -3.068700 -0.480300
v -38.564400 -1.345900 0.480300
v -109.795502 -3.068700 0.480300
v -38.564400 3.406400 0.566300
v -38.564400 8.158600 -0.000001
v -110.010300 1.677400 0.566300
v -110.225204 6.423400 -0.000000
v -32.476551 -4.156233 -2.673406
v 48.050255 -3.512382 2.673410
v 48.050255 -3.512382 -2.673406
v -32.476551 -4.156233 2.673410
v -35.270969 -4.137803 2.673410
v -35.270969 -4.137803 -2.673406
v -32.523346 3.588413 -4.208941
v 48.010551 3.057257 -4.208941
v -35.317760 3.606844 -4.208941
v -32.563038 10.158053 -2.673407
v 47.970863 9.626896 -2.673407
v -32.563038 10.158053 2.673409
v 47.970863 9.626896 2.673409
v 48.010551 3.057257 4.208943
v -32.523346 3.588414 4.208943
v -35.317760 3.606844 4.208943
v -35.357456 10.176483 2.673409
v -35.357456 10.176483 -2.673407
v -35.188805 3.601425 0.000002
v -35.188805 3.601424 12.755841
v -35.185207 -3.155941 11.046927
v -35.182571 -8.102668 6.377988
v -35.181606 -9.913305 0.000005
v -35.182571 -8.102669 -6.377979
v -35.185207 -3.155940 -11.046922
v -35.188805 3.601426 -12.755838
v -35.192410 10.357912 -11.045486
v -35.195042 15.304801 -6.377594
v -35.196003 17.116154 -0.000002
v -35.195042 15.304854 6.377494
v -35.192410 10.357903 11.045476
v -37.100929 15.306468 6.377856
v -37.098293 10.359740 11.046925
v -37.094696 3.602374 12.755841
v -37.094696 3.602375 0.000002
v -37.088459 -8.101007 -6.377591
v -37.091091 -3.154112 -11.045488
v -37.094696 3.602376 -12.755838
v -37.098293 10.359741 -11.046924
v -37.100929 15.306468 -6.377985
v -37.091091 -3.154102 11.045476
v -37.101894 17.117105 -0.000002
v -37.088459 -8.100992 6.377594
v -37.087498 -9.912356 0.000005
v -34.015800 -2.157500 -1.099300
v -42.484100 -2.225600 1.099300
v -34.015800 -2.157500 1.099300
v -42.484100 -2.225600 -1.099300
v -34.015800 3.610700 -1.295900
v -42.484100 3.542600 -1.295900
v -34.015800 8.765900 -0.723001
v -34.015800 8.765900 0.722999
v -42.484100 8.697800 -0.723001
v -42.484100 8.697800 0.722999
v -34.015800 3.610700 1.295900
v -42.484100 3.542600 1.295900
vn 0.0004 -0.0181 -0.9998
vn -0.0007 0.0274 -0.9996
vn -0.0007 0.0275 -0.9996
vn -0.0018 0.0730 -0.9973
vn 0.0242 -0.9997 -0.0000
vn 0.0004 -0.0181 0.9998
vn -0.0007 0.0274 0.9996
vn -0.0018 0.0730 0.9973
vn -0.0029 0.1183 0.9930
vn -0.0029 0.1184 0.9930
vn -0.0029 0.1183 -0.9930
vn -0.0029 0.1184 -0.9930
vn 0.0007 -1.0000 -0.0000
vn 0.0080 -1.0000 -0.0000
vn 0.0001 -0.1945 -0.9809
vn 0.0001 -0.0188 -0.9998
vn -0.0002 -0.2109 -0.9775
vn -0.0066 -1.0000 -0.0000
vn -0.0013 -0.1945 -0.9809
vn -0.0000 -0.0018 -1.0000
vn 0.0015 0.2276 -0.9738
vn -0.0003 0.0904 -0.9959
vn 0.0066 1.0000 -0.0000
vn 1.0000 0.0060 -0.0000
vn -0.0005 0.0758 0.9971
vn 0.0015 0.2276 0.9738
vn 0.0006 0.0113 0.9999
vn -0.0002 -0.2109 0.9775
vn 0.0001 -0.1945 0.9809
vn 0.0006 -0.0532 0.9986
vn -0.0013 -0.1945 0.9809
vn 1.0000 0.0005 -0.0000
vn 0.0011 0.5439 0.8392
vn 0.0011 0.4163 0.9092
vn -0.0000 0.0638 0.9980
vn 0.0008 0.9026 0.4304
vn 0.0009 0.7985 0.6020
vn -0.0000 -0.0638 0.9980
vn -1.0000 -0.0005 -0.0000
vn -0.0006 -0.9925 0.1224
vn -0.0006 -0.9925 -0.1223
vn -0.0008 -0.9027 -0.4302
vn -0.0008 -0.9026 0.4304
vn -0.0010 -0.7984 -0.6022
vn -0.0010 -0.7985 0.6020
vn -0.0011 -0.5439 0.8392
vn 0.0006 0.9925 -0.1223
vn 0.0006 0.9925 0.1224
vn 0.0008 0.9027 -0.4302
vn -0.0011 -0.4163 0.9092
vn 0.0010 0.7984 -0.6022
vn 0.0011 0.5440 -0.8391
vn 0.0011 0.4159 -0.9094
vn -0.0000 0.0641 -0.9979
vn -0.0011 -0.4159 -0.9094
vn -0.0000 -0.0641 -0.9979
vn -0.0011 -0.5440 -0.8391
vn -0.0003 0.0141 -0.9999
vn 0.0003 -0.0341 -0.9994
vn -0.0003 0.0624 -0.9981
vn -0.0009 0.1105 -0.9939
vn -0.0080 1.0000 -0.0000
vn -1.0000 -0.0000 -0.0000
vn -0.0003 0.0141 0.9999
vn -0.0003 0.0624 0.9981
vn -0.0009 0.1105 0.9939
vn 0.0003 -0.0341 0.9994
vt 0.014576 0.988281
vt 0.013148 0.892507
vt 0.488281 0.953516
vt 0.488281 0.857616
vt 0.488281 0.761719
vt 0.011719 0.796734
vt 0.023508 0.535156
vt 0.363281 0.521689
vt 0.023508 0.446391
vt 0.011719 0.535156
vt 0.363281 0.446391
vt 0.363281 0.371094
vt 0.011719 0.446391
vt 0.023508 0.371094
vt 0.011719 0.371094
vt 0.544922 0.375318
vt 0.500000 0.363281
vt 0.500000 0.453125
vt 0.455078 0.375318
vt 0.422193 0.408203
vt 0.410156 0.453125
vt 0.422193 0.498047
vt 0.455078 0.530932
vt 0.500000 0.542969
vt 0.544922 0.530932
vt 0.577807 0.498047
vt 0.589844 0.453125
vt 0.577807 0.408204
vt 0.628906 0.542969
vt 0.629632 0.363281
vt 0.691131 0.363281
vt 0.690405 0.542969
vt 0.746094 0.363281
vt 0.745368 0.542969
s 1
f 87/46/107 85/47/108 84/48/107
f 85/47/109 86/49/110 84/48/107
f 87/46/111 84/48/111 88/48/111
f 89/46/111 87/46/111 88/48/111
f 89/46/112 88/48/112 90/49/113
f 92/47/114 90/49/113 91/50/115
f 92/47/114 89/46/112 90/49/113
f 93/51/116 92/47/114 91/50/116
f 93/51/117 91/50/117 86/49/110
f 85/47/109 93/51/118 86/49/110
f 97/52/119 94/52/119 95/53/120
f 94/52/119 96/53/120 95/53/120
f 94/52/121 100/54/122 96/53/123
f 94/52/119 97/52/119 98/55/124
f 99/55/124 94/52/119 98/55/124
f 100/54/122 94/52/121 99/55/125
f 101/56/126 100/54/122 104/57/127
f 100/54/122 101/56/126 96/53/123
f 102/58/128 100/54/122 99/55/125
f 103/59/127 100/54/122 102/58/128
f 100/54/122 103/59/127 104/57/127
f 103/59/129 105/59/129 104/57/129
f 105/59/129 106/57/129 104/57/129
f 101/56/130 104/57/130 106/57/130
f 107/56/131 106/57/132 105/59/132
f 107/56/130 101/56/130 106/57/130
f 96/53/130 101/56/130 107/56/130
f 108/54/133 107/56/131 105/59/132
f 95/53/134 107/56/131 108/54/133
f 95/53/130 96/53/130 107/56/130
f 97/52/135 108/54/133 109/58/136
f 97/52/135 95/53/134 108/54/133
f 108/54/133 105/59/132 110/60/132
f 109/58/136 108/54/133 110/60/132
f 110/60/129 105/59/129 111/60/129
f 105/59/129 103/59/129 111/60/129
f 111/60/127 103/59/127 102/58/128
f 98/55/137 97/52/135 109/58/136
f 124/61/138 113/62/138 112/63/138
f 113/62/138 114/64/138 112/63/138
f 114/64/138 115/65/138 112/63/138
f 115/65/138 116/66/138 112/63/138
f 116/66/138 117/67/138 112/63/138
f 117/67/138 118/68/138 112/63/138
f 118/68/138 119/69/138 112/63/138
f 119/69/138 120/70/138 112/63/138
f 120/70/138 121/71/138 112/63/138
f 121/71/138 122/72/138 112/63/138
f 122/72/138 123/73/138 112/63/138
f 123/73/138 124/61/138 112/63/138
f 124/61/139 126/61/140 113/62/141
f 123/73/142 125/73/143 124/61/139
f 125/73/143 126/61/140 124/61/139
f 126/61/140 127/62/144 113/62/141
f 127/62/145 126/61/145 128/63/145
f 126/61/145 125/73/145 128/63/145
f 130/68/145 129/67/145 128/63/145
f 129/67/145 137/66/145 128/63/145
f 131/69/145 130/68/145 128/63/145
f 132/70/145 131/69/145 128/63/145
f 133/71/145 132/70/145 128/63/145
f 134/64/145 127/62/145 128/63/145
f 135/72/145 133/71/145 128/63/145
f 136/65/145 134/64/145 128/63/145
f 125/73/145 135/72/145 128/63/145
f 137/66/145 136/65/145 128/63/145
f 116/66/146 137/66/147 117/67/148
f 136/65/149 137/66/147 116/66/146
f 137/66/147 129/67/150 117/67/148
f 115/65/151 136/65/149 116/66/146
f 134/64/152 136/65/149 115/65/151
f 122/72/153 135/72/154 123/73/142
f 133/71/155 135/72/154 122/72/153
f 135/72/154 125/73/143 123/73/142
f 114/64/156 134/64/152 115/65/151
f 127/62/144 134/64/152 114/64/156
f 121/71/157 133/71/155 122/72/153
f 132/70/158 133/71/155 121/71/157
f 120/70/159 132/70/158 121/71/157
f 131/69/160 132/70/158 120/70/159
f 130/68/161 131/69/160 119/69/162
f 119/69/162 131/69/160 120/70/159
f 129/67/150 130/68/161 118/68/163
f 118/68/163 130/68/161 119/69/162
f 117/67/148 129/67/150 118/68/163
f 113/62/141 127/62/144 114/64/156
f 141/74/120 138/75/120 139/74/120
f 138/75/120 140/75/120 139/74/120
f 142/76/164 138/75/165 141/74/165
f 143/77/166 142/76/164 141/74/165
f 144/78/167 142/76/164 143/77/166
f 145/78/168 144/78/168 146/79/168
f 146/79/167 144/78/167 143/77/166
f 147/79/168 145/78/168 146/79/168
f 147/79/169 146/79/169 143/77/169
f 149/77/170 148/76/171 147/79/172
f 148/76/171 145/78/172 147/79/172
f 149/77/169 147/79/169 141/74/169
f 141/74/169 147/79/169 143/77/169
f 140/75/173 148/76/171 149/77/170
f 139/74/173 140/75/173 149/77/170
f 139/74/169 149/77/169 141/74/169
o blade_fragment
v -285.119080 -26.426998 -0.480298
v -290.956177 -27.484396 0.000002
v -285.119080 -26.426998 0.480302
v -288.616180 -21.933998 0.000002
v -281.382874 -20.574398 -0.566298
v -225.926285 -15.527596 -0.480299
v -226.511765 -10.821397 -0.566299
v -225.926285 -15.527596 0.480301
v -170.362167 -3.336299 -0.566300
v -169.955399 -8.066399 -0.480299
v -169.955399 -8.066399 0.480301
v -110.010292 1.677401 -0.566300
v -109.795486 -3.068699 -0.480300
v -109.795486 -3.068699 0.480300
v -110.010292 1.677401 0.566300
v -170.362167 -3.336299 0.566300
v -226.511765 -10.821397 0.566301
v -170.769089 1.393899 -0.000000
v -227.097382 -6.114900 0.000000
v -281.382874 -20.574398 0.566302
v -283.795776 -16.482498 0.000001
v -110.225189 6.423399 -0.000000
vn -0.0571 0.0202 -0.9982
vn -0.0887 0.0374 -0.9954
vn -0.0891 0.0532 -0.9946
vn 0.1797 -0.9837 -0.0000
vn 0.1783 -0.9840 -0.0000
vn 0.1648 -0.9863 -0.0000
vn -0.0360 0.0548 -0.9978
vn 0.0028 -0.0179 -0.9998
vn -0.0093 0.0634 -0.9979
vn -0.0049 0.0501 -0.9987
vn 0.1485 -0.9889 -0.0000
vn 0.1157 -0.9933 -0.0000
vn 0.0020 -0.0180 -0.9998
vn -0.0023 0.0274 -0.9996
vn 0.0992 -0.9951 -0.0000
vn 0.0828 -0.9966 -0.0000
vn 0.0015 -0.0180 -0.9998
vn -0.0060 0.0728 0.9973
vn -0.0059 0.0502 0.9987
vn 0.0015 -0.0180 0.9998
vn 0.0020 -0.0180 0.9998
vn -0.0187 0.1189 0.9927
vn -0.0057 0.0362 0.9993
vn -0.0118 0.1179 0.9930
vn -0.0196 0.1194 -0.9927
vn -0.0582 0.1031 -0.9930
vn -0.0582 0.1031 0.9930
vn -0.0361 0.0549 0.9978
vn -0.0136 0.1177 -0.9930
vn -0.0891 0.0532 0.9946
vn -0.0571 0.0202 0.9982
vn 0.0028 -0.0179 0.9998
vn -0.0098 0.1180 -0.9930
vn -0.0098 0.1180 0.9930
vn -0.0887 0.0374 0.9954
vt 0.027074 0.981216
vt 0.011719 0.988281
vt 0.017874 0.951195
vt 0.182787 0.908389
vt 0.036902 0.942111
vt 0.181247 0.876944
vt 0.328954 0.826930
vt 0.330024 0.858536
vt 0.487716 0.793430
vt 0.488281 0.825142
vt 0.179706 0.845496
vt 0.327884 0.795324
vt 0.030555 0.914770
vt 0.487151 0.761719
s 1
f 150/80/174 151/81/175 153/82/176
f 150/80/177 152/80/177 151/81/178
f 152/80/177 150/80/177 155/83/179
f 154/84/180 150/80/174 153/82/176
f 150/80/174 154/84/180 155/83/181
f 154/84/180 156/85/182 155/83/181
f 155/83/181 156/85/182 158/86/183
f 157/83/184 155/83/179 159/87/185
f 157/83/184 152/80/177 155/83/179
f 159/87/186 155/83/181 158/86/183
f 159/87/186 158/86/183 161/88/187
f 160/87/188 159/87/185 162/89/189
f 160/87/188 157/83/184 159/87/185
f 162/89/190 159/87/186 161/88/187
f 163/89/189 160/87/188 162/89/189
f 164/88/191 165/86/192 163/89/193
f 165/86/192 160/87/194 163/89/193
f 168/90/195 166/85/196 165/86/192
f 165/86/192 166/85/196 160/87/194
f 167/91/197 165/86/192 164/88/191
f 167/91/197 168/90/195 165/86/192
f 156/85/182 154/84/180 168/90/198
f 154/84/180 170/92/199 168/90/198
f 170/92/200 169/84/201 168/90/195
f 169/84/201 166/85/196 168/90/195
f 156/85/182 168/90/198 167/91/202
f 169/84/201 170/92/200 153/82/203
f 170/92/199 154/84/180 153/82/176
f 152/80/204 169/84/201 153/82/203
f 166/85/196 169/84/201 157/83/205
f 169/84/201 152/80/204 157/83/205
f 158/86/183 167/91/202 171/93/206
f 158/86/183 156/85/182 167/91/202
f 171/93/207 167/91/197 164/88/191
f 161/88/187 158/86/183 171/93/206
f 166/85/196 157/83/205 160/87/194
f 151/81/208 152/80/204 153/82/203
o sheath
v -35.451401 -3.580700 -3.002900
v -109.579697 -5.895001 3.325500
v -35.451401 -3.580699 3.002900
v -109.579697 -5.895002 -3.325500
v -110.010307 1.677399 -5.574100
v -35.143002 3.610700 -4.606400
v -35.143002 3.610700 4.606400
v -110.010307 1.677400 5.574100
v -35.492500 10.802100 3.002899
v -35.492500 10.802100 -3.002901
v -110.441002 9.249801 3.325499
v -171.182922 4.204000 3.325500
v -110.441002 9.249801 -3.325501
v -171.182922 4.203999 -3.325500
v -227.697296 -3.329800 -3.325500
v -226.511810 -10.821400 -5.574099
v -170.362198 -3.336300 -5.574100
v -169.541702 -10.876499 -3.325499
v -225.326523 -18.312904 -3.325499
v -293.916687 -31.360498 -3.220098
v -293.916687 -31.360498 3.220102
v -225.326523 -18.312904 3.325501
v -226.511810 -10.821400 5.574101
v -169.541702 -10.876499 3.325501
v -170.362198 -3.336299 5.574100
v -227.697296 -3.329799 3.325500
v -297.122711 -16.274298 -3.220099
v -297.122711 -16.274298 3.220101
v -295.864502 -23.891701 4.939602
v -295.864502 -23.891701 -4.939598
v -35.395100 -3.166101 -2.357800
v -35.395100 9.390301 -2.357801
v -35.395100 -3.166101 2.357800
v -35.395100 9.390301 2.357799
v -35.395100 3.654000 -3.638800
v -35.395100 3.654000 3.638800
v -293.527161 -29.939701 -2.357798
v -296.226044 -17.417904 -2.357799
v -293.527161 -29.939701 2.357802
v -296.226044 -17.417904 2.357801
v -294.876526 -23.678806 -3.638798
v -294.876526 -23.678806 3.638802
v -225.513535 -17.147701 -2.357799
v -227.510345 -4.494902 -2.357800
v -225.513535 -17.147701 2.357801
v -227.510345 -4.494902 2.357800
v -226.511841 -10.821404 -3.638799
v -226.511841 -10.821404 3.638801
v -169.668533 -9.703203 -2.357799
v -171.056015 3.030700 -2.357800
v -169.668533 -9.703203 2.357801
v -171.056015 3.030701 2.357800
v -170.362213 -3.336300 -3.638800
v -170.362213 -3.336299 3.638800
v -109.644005 -4.716802 -2.357800
v -110.376709 8.071601 -2.357801
v -109.644005 -4.716802 2.357800
v -110.376709 8.071601 2.357799
v -110.010315 1.677400 -3.638800
v -110.010315 1.677400 3.638800
v -293.527161 -29.939701 -2.357798
v -294.876526 -23.678806 -3.638798
v -293.527161 -29.939701 2.357802
v -294.876526 -23.678806 3.638802
v -296.226044 -17.417904 2.357801
v -296.226044 -17.417904 -2.357799
v -93.235199 -4.707600 -2.701900
v -93.235199 -4.707600 2.702000
v -93.320099 2.114100 -4.327100
v -89.733589 2.208000 -4.327100
v -89.749298 -4.616400 -2.701900
v -89.749298 -4.616400 2.702000
v -93.320099 2.114100 4.327100
v -89.733589 2.208000 4.327100
v -89.717903 9.032400 -2.702001
v -89.717903 9.032400 2.701899
v -93.404900 8.935900 2.701899
v -93.404900 8.935900 -2.702001
vn 0.0656 -0.9978 -0.0000
vn 0.0312 -0.9995 -0.0000
vn 0.0484 -0.9988 -0.0000
vn 0.9999 -0.0124 -0.0000
vn 0.9991 -0.0428 -0.0000
vn 0.0157 -0.2513 -0.9678
vn 0.0183 -0.2837 -0.9588
vn 0.0089 -0.0420 -0.9991
vn 0.0129 -0.0001 -0.9999
vn 0.9998 0.0181 -0.0000
vn 0.0129 -0.0001 0.9999
vn 0.0026 0.2514 0.9679
vn 0.0019 0.0420 0.9991
vn 0.0156 -0.2513 0.9678
vn 0.9988 0.0485 -0.0000
vn -0.0207 0.9998 -0.0000
vn -0.0518 0.9987 -0.0000
vn -0.0127 0.2840 0.9587
vn -0.0283 0.2828 0.9588
vn -0.0993 0.9951 -0.0000
vn -0.1157 0.9933 -0.0000
vn -0.1492 0.9888 -0.0000
vn -0.0084 0.0411 -0.9991
vn -0.0455 0.2806 -0.9588
vn -0.0329 0.2823 -0.9588
vn 0.0024 0.0003 -1.0000
vn -0.0162 0.2838 -0.9588
vn 0.0282 -0.2828 -0.9587
vn 0.0424 -0.2811 -0.9588
vn 0.1869 -0.9824 -0.0000
vn 0.1687 -0.9857 -0.0000
vn 0.0418 -0.2481 -0.9678
vn 0.1504 -0.9886 -0.0000
vn 0.1157 -0.9933 -0.0000
vn 0.0028 -0.0424 0.9991
vn 0.0447 -0.2807 0.9588
vn 0.0328 -0.2823 0.9588
vn 0.0418 -0.2481 0.9678
vn 0.0993 -0.9951 -0.0000
vn -0.0024 -0.0003 1.0000
vn 0.0200 -0.2836 0.9587
vn -0.0429 0.2810 0.9588
vn -0.1663 0.9861 -0.0000
vn -0.1833 0.9831 -0.0000
vn -0.0513 0.2459 0.9679
vn -0.9812 -0.1929 -0.0000
vn -0.9866 -0.1630 -0.0000
vn -0.0087 -0.0021 1.0000
vn -0.9749 -0.2228 -0.0000
vn -0.9676 -0.2524 -0.0000
vn -0.0088 -0.0021 -1.0000
vn -0.0513 0.2459 -0.9679
vn 0.0026 0.2514 -0.9679
vn 0.0363 -0.1928 -0.9806
vn -0.0123 0.0654 -0.9978
vn 0.0017 0.0003 -1.0000
vn 0.0295 -0.1939 -0.9806
vn 0.0123 -0.0654 0.9978
vn 0.0363 -0.1928 0.9806
vn 0.0329 -0.1934 0.9806
vn -0.0018 -0.0003 1.0000
vn 0.1848 -0.9828 -0.0000
vn 0.1673 -0.9859 -0.0000
vn 0.1498 -0.9887 -0.0000
vn -0.0363 0.1928 -0.9806
vn -0.0328 0.1934 -0.9806
vn -0.1848 0.9828 -0.0000
vn -0.1673 0.9859 -0.0000
vn -0.1498 0.9887 -0.0000
vn -0.0363 0.1928 0.9806
vn -0.0294 0.1939 0.9806
vn 0.0017 0.0002 -1.0000
vn 0.0196 -0.1952 -0.9806
vn 0.0227 -0.1948 0.9806
vn -0.0016 -0.0001 1.0000
vn 0.0992 -0.9951 -0.0000
vn -0.0227 0.1948 -0.9806
vn -0.0195 0.1952 0.9806
vn 0.0020 0.0038 -1.0000
vn 0.0084 -0.1921 -0.9813
vn 0.0122 -0.1957 0.9806
vn -0.0024 0.0333 0.9994
vn 0.0622 -0.9981 -0.0000
vn 0.0415 -0.9991 -0.0000
vn -0.0119 0.1958 -0.9806
vn -0.0502 0.9987 -0.0000
vn -0.0099 0.1959 0.9806
vn 0.0045 -0.1904 0.9817
vn -0.0005 0.0170 0.9999
vn 0.0209 -0.9998 -0.0000
vn -0.0046 0.2071 0.9783
vn -0.0176 0.9998 -0.0000
vn -0.0046 0.2071 -0.9783
vn 0.0011 -0.0553 -0.9985
vn 0.0039 -0.1846 -0.9828
vn 1.0000 -0.0000 -0.0000
vn -0.9776 -0.2107 -0.0000
vn -0.9775 -0.2107 -0.0000
vn 0.0262 -0.9997 -0.0000
vn -0.9999 -0.0124 -0.0000
vn 0.0061 -0.2317 -0.9728
vn -0.0010 0.0792 -0.9969
vn 0.0021 -0.0791 -0.9969
vn -0.0021 0.0791 0.9969
vn 0.0010 -0.0791 0.9969
vn 0.0061 -0.2317 0.9728
vn 1.0000 -0.0023 -0.0000
vn -0.0061 0.2317 0.9728
vn -0.0262 0.9997 -0.0000
vn -0.0061 0.2317 -0.9728
vt 0.352875 0.633003
vt 0.487720 0.624855
vt 0.488281 0.599537
vt 0.352092 0.606343
vt 0.487645 0.574219
vt 0.351308 0.579684
vt 0.240814 0.597448
vt 0.138009 0.623971
vt 0.140166 0.650346
vt 0.242306 0.623994
vt 0.243799 0.650540
vt 0.142322 0.676721
vt 0.017551 0.722656
vt 0.011719 0.669544
vt 0.014008 0.696362
vt 0.016650 0.722656
vt 0.014184 0.699027
vt 0.139093 0.650501
vt 0.140917 0.674377
vt 0.011719 0.675397
vt 0.137269 0.626624
vt 0.241684 0.622251
vt 0.242951 0.646281
vt 0.240416 0.598221
vt 0.351952 0.603328
vt 0.352622 0.627461
vt 0.351283 0.579196
vt 0.488281 0.621609
vt 0.488281 0.595868
vt 0.488281 0.574219
vt 0.628906 0.511340
vt 0.628906 0.394910
vt 0.687500 0.542969
vt 0.687500 0.363281
vt 0.746094 0.394910
vt 0.746094 0.511340
vt 0.629684 0.397023
vt 0.628906 0.397023
vt 0.628906 0.509225
vt 0.687088 0.542969
vt 0.687889 0.542969
vt 0.629684 0.509225
vt 0.687889 0.363281
vt 0.687088 0.363281
vt 0.745271 0.397025
vt 0.746094 0.509227
vt 0.746094 0.397025
vt 0.745271 0.509227
s 1
f 175/94/209 172/95/210 173/94/211
f 172/95/210 174/95/210 173/94/211
f 178/96/212 174/95/213 172/95/213
f 172/95/214 175/94/215 176/97/216
f 177/96/217 172/95/214 176/97/216
f 177/96/218 178/96/212 172/95/213
f 178/96/219 180/98/220 179/97/221
f 174/95/222 178/96/219 179/97/221
f 180/98/223 178/96/212 177/96/218
f 181/98/223 180/98/223 177/96/218
f 180/98/224 181/98/224 182/99/225
f 180/98/220 182/99/226 179/97/221
f 182/99/226 183/100/227 179/97/221
f 185/100/228 183/100/229 182/99/225
f 181/98/224 184/99/225 182/99/225
f 184/99/225 185/100/228 182/99/225
f 185/100/228 186/101/230 183/100/229
f 187/102/231 186/101/232 185/100/233
f 188/103/234 187/102/231 185/100/233
f 188/103/234 185/100/233 184/99/235
f 176/97/216 188/103/234 184/99/235
f 189/104/236 188/103/234 176/97/216
f 190/105/237 187/102/231 188/103/234
f 189/104/236 190/105/237 188/103/234
f 192/106/238 191/106/238 190/105/239
f 190/105/237 191/106/240 187/102/231
f 193/105/241 192/106/238 190/105/239
f 193/105/241 190/105/239 189/104/242
f 194/102/243 193/105/244 195/104/245
f 192/106/246 193/105/244 194/102/243
f 195/104/247 193/105/241 189/104/242
f 196/103/248 194/102/243 195/104/245
f 195/104/247 189/104/242 175/94/209
f 196/103/248 195/104/245 173/94/249
f 173/94/211 195/104/247 175/94/209
f 183/100/227 196/103/248 179/97/221
f 183/100/227 197/101/250 196/103/248
f 197/101/250 194/102/243 196/103/248
f 179/97/221 196/103/248 173/94/249
f 186/101/230 197/101/251 183/100/229
f 186/101/230 198/107/252 197/101/251
f 198/107/252 199/107/252 197/101/251
f 197/101/250 199/107/253 194/102/243
f 200/108/254 199/107/255 198/107/255
f 199/107/253 200/108/256 194/102/243
f 201/108/257 200/108/254 198/107/255
f 192/106/258 200/108/254 201/108/257
f 200/108/256 192/106/246 194/102/243
f 191/106/258 192/106/258 201/108/257
f 191/106/240 201/108/259 187/102/231
f 201/108/259 198/107/260 187/102/231
f 198/107/260 186/101/232 187/102/231
f 175/94/215 189/104/236 176/97/216
f 184/99/235 181/98/261 176/97/216
f 181/98/261 177/96/217 176/97/216
f 173/94/249 174/95/222 179/97/221
f 208/109/262 212/110/263 218/111/264
f 214/112/265 208/109/262 218/111/264
f 213/110/266 210/109/267 216/112/268
f 219/111/269 213/110/266 216/112/268
f 210/109/270 208/109/270 214/112/271
f 216/112/272 210/109/270 214/112/271
f 212/110/263 209/113/273 215/114/274
f 218/111/264 212/110/263 215/114/274
f 209/113/275 211/113/275 217/114/276
f 215/114/277 209/113/275 217/114/276
f 211/113/278 213/110/266 219/111/269
f 217/114/279 211/113/278 219/111/269
f 214/112/265 218/111/264 224/115/280
f 220/116/281 214/112/265 224/115/280
f 219/111/269 216/112/268 222/116/282
f 225/115/283 219/111/269 222/116/282
f 216/112/272 214/112/271 220/116/242
f 222/116/284 216/112/272 220/116/242
f 218/111/264 215/114/274 221/117/285
f 224/115/280 218/111/264 221/117/285
f 215/114/277 217/114/276 223/117/229
f 221/117/228 215/114/277 223/117/229
f 217/114/279 219/111/269 225/115/283
f 223/117/286 217/114/279 225/115/283
f 220/116/281 224/115/280 230/118/287
f 226/119/288 220/116/281 230/118/287
f 225/115/283 222/116/282 228/119/289
f 231/118/290 225/115/283 228/119/289
f 222/116/284 220/116/242 226/119/291
f 228/119/292 222/116/284 226/119/291
f 224/115/280 221/117/285 227/120/293
f 230/118/287 224/115/280 227/120/293
f 221/117/228 223/117/229 229/120/294
f 227/120/294 221/117/228 229/120/294
f 223/117/286 225/115/283 231/118/290
f 229/120/295 223/117/286 231/118/290
f 204/121/296 207/122/297 231/118/290
f 228/119/289 204/121/296 231/118/290
f 202/121/298 204/121/298 228/119/292
f 226/119/291 202/121/298 228/119/292
f 205/123/299 229/120/295 231/118/290
f 207/122/297 205/123/299 231/118/290
f 203/123/300 227/120/294 229/120/294
f 205/123/300 203/123/300 229/120/294
f 203/123/301 206/122/302 230/118/287
f 227/120/293 203/123/301 230/118/287
f 206/122/302 202/121/303 226/119/288
f 230/118/287 206/122/302 226/119/288
f 205/123/304 207/122/304 206/122/304
f 203/123/304 205/123/304 206/122/304
f 207/122/304 204/121/304 202/121/304
f 206/122/304 207/122/304 202/121/304
f 232/124/305 234/125/305 233/126/305
f 234/125/305 235/127/305 233/126/305
f 235/127/305 236/128/306 237/129/305
f 233/126/305 235/127/305 237/129/305
f 243/130/307 239/131/307 238/132/307
f 239/131/308 240/133/308 238/132/308
f 238/132/309 240/133/310 241/134/311
f 242/135/309 238/132/309 241/134/311
f 242/135/307 243/130/307 238/132/307
f 245/136/312 244/137/313 243/130/314
f 244/137/313 239/131/314 243/130/314
f 242/135/315 241/134/315 243/130/315
f 245/136/315 243/130/315 241/134/315
f 248/138/316 244/137/313 245/136/312
f 246/139/315 245/136/315 241/134/315
f 246/139/315 247/140/315 245/136/315
f 247/140/316 248/138/316 245/136/312
f 249/141/317 248/138/317 247/140/317
f 249/141/308 240/133/308 248/138/308
f 248/138/308 240/133/308 244/137/308
f 240/133/310 249/141/318 246/139/318
f 246/139/317 249/141/317 247/140/317
f 241/134/311 240/133/310 246/139/318
f 240/133/308 239/131/308 244/137/308
o item_blade
v 26.590300 22.520599 11.862098
v 26.590300 22.520599 5.647598
v 33.175800 18.257101 13.730999
v 34.370899 19.927902 13.730998
v 27.751900 24.144600 11.862098
v 27.751900 24.144600 5.647598
v 34.370899 19.927900 3.778699
v 33.175800 18.257099 3.778699
v 39.761299 13.993600 5.647699
v 39.761299 13.993601 11.862199
v 40.990002 15.711200 5.647699
v 40.990002 15.711201 11.862199
v 0.000000 70.710701 -0.000005
v 70.710701 0.000000 0.000000
v 0.000000 55.656200 3.999996
v -55.656101 0.000000 4.000000
v -70.710701 0.000000 0.000000
v 0.000000 -55.656101 4.000004
v 0.000000 -70.710602 0.000005
v 55.656200 0.000000 4.000000
v 0.000000 70.710701 -0.000005
v 0.000000 55.656200 -4.000004
v 70.710701 0.000000 0.000000
v -55.656101 -0.000000 -4.000000
v -70.710701 0.000000 0.000000
v 0.000000 -55.656101 -3.999996
v 0.000000 -70.710602 0.000005
v 55.656200 -0.000000 -4.000000
v 0.000000 70.710701 -0.000005
v 70.710701 0.000000 0.000000
v 0.000000 55.656200 3.999996
v -55.656101 0.000000 4.000000
v -70.710701 0.000000 0.000000
v 0.000000 -55.656101 4.000004
v 0.000000 -70.710602 0.000005
v 55.656200 0.000000 4.000000
v 0.000000 70.710701 -0.000005
v 0.000000 55.656200 -4.000004
v 70.710701 0.000000 0.000000
v -55.656101 -0.000000 -4.000000
v -70.710701 0.000000 0.000000
v 0.000000 -55.656101 -3.999996
v 0.000000 -70.710602 0.000005
v 55.656200 -0.000000 -4.000000
v 0.000000 70.710701 -0.000005
v 70.710701 0.000000 0.000000
v 0.000000 55.656200 3.999996
v -55.656101 0.000000 4.000000
v -70.710701 0.000000 0.000000
v 0.000000 -55.656101 4.000004
v 0.000000 -70.710602 0.000005
v 55.656200 0.000000 4.000000
v 0.000000 70.710701 -0.000005
v 0.000000 55.656200 -4.000004
v 70.710701 0.000000 0.000000
v -55.656101 -0.000000 -4.000000
v -70.710701 0.000000 0.000000
v 0.000000 -55.656101 -3.999996
v 0.000000 -70.710602 0.000005
v 55.656200 -0.000000 -4.000000
v -46.676559 46.324772 11.839537
v -74.329185 84.676247 19.346458
v -74.329185 84.676247 11.839534
v -46.676449 46.324776 19.346460
v -45.763588 44.960823 19.346460
v -45.763474 44.960831 11.839537
v -55.513004 40.023823 9.683679
v -81.825066 79.331238 9.683676
v -54.600033 38.659874 9.683679
v -63.008770 34.678822 11.839538
v -89.320831 73.986237 11.839535
v -63.008770 34.678822 19.346462
v -89.320831 73.986237 19.346458
v -81.824951 79.331238 21.502319
v -55.513008 40.023708 21.502321
v -54.600033 38.659874 21.502321
v -62.095795 33.314873 19.346462
v -62.095795 33.314873 11.839538
v -47.798500 41.051300 14.918697
v -27.466995 4.206796 14.797900
v -53.285400 37.254799 14.797897
v -22.058901 8.101798 14.918699
v -47.798500 41.051300 16.267296
v -22.058901 8.101798 16.267300
v -53.285400 37.254799 16.388098
v -27.466995 4.206797 16.388100
v -58.772202 33.458500 15.592998
v -32.874901 0.311898 15.593000
v -1.555196 -20.871008 14.797902
v -6.880899 -24.846003 15.593002
v 20.570107 -45.991600 15.593004
v 25.808802 -41.949608 14.797903
v -1.555194 -20.871107 16.388102
v 3.770404 -16.896307 16.267302
v 25.808802 -41.949608 16.388103
v 31.047199 -37.907799 16.267303
v 55.364910 -60.600220 16.388103
v 51.445110 -65.031906 15.593005
v 63.368004 -57.725311 16.267303
v 59.346508 -62.999809 15.593005
v 63.367912 -57.725304 14.918705
v 55.364910 -60.600220 14.797905
v 66.535027 -59.693413 15.593005
v 31.047199 -37.907799 14.918703
v 3.770404 -16.896307 14.918701
v -54.550121 38.596401 15.979269
v -47.691227 28.277649 28.908428
v -40.785458 35.024879 27.307016
v -37.567951 42.729218 22.670311
v -38.900909 49.326103 16.240637
v -44.427040 53.048027 9.740952
v -52.665653 52.897697 4.912987
v -61.409191 48.915138 3.050184
v -68.313042 42.167427 4.653041
v -71.531303 34.463902 9.288722
v -70.199417 27.866686 15.717939
v -64.672806 24.145720 22.217075
v -56.434402 24.297087 27.044138
v -64.210846 23.484308 21.444830
v -55.972130 23.634569 26.273039
v -47.228691 27.617044 28.135820
v -54.087673 37.935787 15.206699
v -52.203384 52.235126 4.141809
v -60.946651 48.254528 2.277581
v -67.852417 41.507298 3.878992
v -71.069832 33.803051 8.515711
v -40.324776 34.364769 26.532904
v -69.736885 27.206079 14.945332
v -37.106541 42.068352 21.897276
v -38.438377 48.665497 15.468027
v -43.965145 52.386524 8.968751
v -48.378101 43.891602 14.049597
v -45.475899 39.865200 17.136396
v -48.378201 43.891602 17.136396
v -45.475899 39.865200 14.049597
v -55.037899 39.283600 13.773597
v -52.135700 35.257099 13.773597
v -60.990002 35.165298 14.577897
v -60.990002 35.165298 16.608099
v -58.087700 31.138903 14.577898
v -58.087799 31.138903 16.608099
v -55.037899 39.283501 17.412395
v -52.135700 35.257099 17.412397
v 46.026699 48.864899 11.466396
v 21.529303 14.616099 6.043399
v 46.026699 48.864899 6.043396
v 21.529303 14.616100 11.466399
v 52.234100 44.900398 12.939496
v 52.234100 44.900398 4.570297
v 27.613897 10.481501 4.570299
v 58.441509 40.936001 6.043397
v 58.441509 40.936001 11.466397
v 33.698296 6.347003 6.043399
v 10.130601 -19.784498 6.043401
v 33.698296 6.347003 11.466399
v 10.130601 -19.784498 11.466402
v -14.544502 -42.341206 11.466403
v -20.368805 -37.943687 12.939503
v 4.173297 -15.508897 12.939501
v -26.192802 -33.546505 11.466403
v 27.613897 10.481502 12.939499
v -1.783902 -11.233396 11.466401
v -26.192802 -33.546505 6.043402
v -1.783902 -11.233397 6.043401
v 4.173297 -15.508898 4.570301
v -20.368805 -37.943687 4.570303
v -14.544502 -42.341206 6.043403
v -48.225800 -67.467796 6.043405
v -53.878399 -62.941700 4.570305
v -59.530998 -58.415695 6.043404
v -59.530998 -58.415695 11.466405
v -53.878399 -62.941700 12.939505
v -48.225800 -67.467796 11.466405
v -59.530998 -58.415699 11.466405
v -53.878399 -62.941700 12.939505
v -59.530998 -58.415699 6.043404
v -53.878399 -62.941700 4.570305
v -48.225800 -67.467796 11.466405
v -48.225800 -67.467796 6.043405
vn -0.8134 0.5818 -0.0000
vn -0.5435 -0.8394 -0.0000
vn -0.1887 0.1350 0.9727
vn 0.0644 -0.0461 0.9969
vn -0.0644 0.0461 0.9969
vn 0.0644 -0.0461 -0.9969
vn -0.0644 0.0461 -0.9969
vn -0.1887 0.1350 -0.9727
vn 0.5373 0.8434 -0.0000
vn 0.1887 -0.1350 -0.9727
vn 0.8133 -0.5818 -0.0000
vn 0.1887 -0.1350 0.9727
vn 0.2559 0.0853 0.9629
vn -0.0853 0.2559 0.9629
vn 0.0639 0.1919 0.9793
vn -0.1532 0.0510 0.9869
vn -0.2558 -0.0853 0.9629
vn -0.0639 -0.1919 0.9793
vn 0.0853 -0.2559 0.9629
vn 0.1531 -0.0510 0.9869
vn 0.0639 0.1919 -0.9793
vn -0.1531 0.0510 -0.9869
vn -0.0853 0.2559 -0.9629
vn 0.2559 0.0853 -0.9629
vn -0.2558 -0.0853 -0.9629
vn -0.0639 -0.1919 -0.9793
vn 0.0853 -0.2559 -0.9629
vn 0.1532 -0.0510 -0.9869
vn 0.8212 0.5706 -0.0000
vn 0.8212 0.5707 -0.0000
vn 0.8111 0.5849 -0.0000
vn 0.1600 0.1112 -0.9808
vn 0.0153 0.0108 -0.9998
vn 0.1738 0.1198 -0.9775
vn 0.8310 0.5562 -0.0000
vn 0.8310 0.5563 -0.0000
vn 0.1620 0.1084 -0.9808
vn 0.0036 0.0024 -1.0000
vn -0.1896 -0.1269 -0.9736
vn -0.0757 -0.0532 -0.9957
vn -0.8310 -0.5563 -0.0000
vn -0.5806 0.8142 -0.0000
vn -0.0597 -0.0427 0.9973
vn -0.1895 -0.1269 0.9736
vn -0.1896 -0.1269 0.9736
vn -0.0100 -0.0053 0.9999
vn 0.1738 0.1198 0.9775
vn 0.0411 0.0300 0.9987
vn 0.1605 0.1104 0.9808
vn -0.8310 -0.5562 -0.0000
vn 0.1620 0.1084 0.9808
vn 0.0135 0.0123 -0.9998
vn -0.0205 -0.0185 -0.9996
vn 0.0143 0.0112 -0.9998
vn -0.0576 -0.0450 -0.9973
vn 0.7435 0.6687 -0.0000
vn 0.7880 0.6156 -0.0000
vn 0.7434 0.6689 -0.0000
vn 0.0135 0.0123 0.9998
vn 0.0143 0.0112 0.9998
vn -0.0217 -0.0169 0.9996
vn -0.0546 -0.0492 0.9973
vn -0.0934 -0.0730 0.9930
vn -0.0889 -0.0792 0.9929
vn -0.0934 -0.0730 0.9929
vn -0.0886 -0.0796 -0.9929
vn -0.0934 -0.0730 -0.9930
vn -0.0346 -0.0381 -0.9987
vn -0.0780 -0.0940 -0.9925
vn -0.0808 -0.0904 0.9926
vn -0.0394 -0.0544 -0.9977
vn -0.0713 -0.1067 -0.9917
vn -0.0723 -0.1045 0.9919
vn -0.0329 -0.0402 0.9987
vn 0.0121 0.0142 0.9998
vn -0.0220 -0.0318 0.9993
vn 0.0036 -0.1013 0.9949
vn 0.0105 0.0156 0.9998
vn -0.0065 -0.1710 0.9852
vn 0.0763 -0.2020 0.9764
vn 0.0604 -0.1222 0.9907
vn 0.0036 -0.1013 -0.9949
vn 0.0604 -0.1222 -0.9907
vn 0.0763 -0.2020 -0.9764
vn 0.0885 -0.1924 -0.9773
vn -0.0065 -0.1710 -0.9852
vn 0.0885 -0.1924 0.9773
vn 0.5251 0.8510 -0.0000
vn 0.5246 0.8513 -0.0000
vn 0.5278 0.8494 -0.0000
vn 0.0107 0.0155 -0.9998
vn 0.5818 0.8133 -0.0000
vn 0.5526 0.8335 -0.0000
vn 0.6395 0.7688 -0.0000
vn 0.0121 0.0142 -0.9998
vn 0.6680 0.7442 -0.0000
vn -0.4162 0.5901 0.6918
vn -0.5806 -0.7567 0.3006
vn -0.4293 -0.7965 0.4258
vn -0.1283 -0.7890 0.6008
vn 0.0034 -0.7574 0.6530
vn 0.3298 -0.6110 0.7197
vn 0.4347 -0.5391 0.7213
vn 0.4162 -0.5901 -0.6918
vn 0.5810 0.7565 -0.3004
vn 0.4290 0.7965 -0.4261
vn 0.1288 0.7891 -0.6006
vn 0.7728 0.6301 -0.0763
vn -0.0042 0.7571 -0.6532
vn 0.8664 0.4892 0.1002
vn 0.9106 0.2603 0.3211
vn 0.8905 0.1027 0.4433
vn 0.7712 -0.1782 0.6111
vn -0.8664 -0.4893 -0.1001
vn -0.7727 -0.6301 0.0764
vn -0.9106 -0.2606 -0.3209
vn 0.6930 -0.2904 0.6598
vn -0.8904 -0.1024 -0.4436
vn -0.7715 0.1778 -0.6109
vn -0.4353 0.5387 -0.7213
vn -0.6925 0.2910 -0.6601
vn -0.3291 0.6113 -0.7197
vn 0.8112 0.5847 -0.0000
vn -0.0115 -0.0083 -0.9999
vn 0.0276 0.0199 -0.9994
vn -0.0506 -0.0365 -0.9980
vn -0.0896 -0.0646 -0.9939
vn -0.8112 -0.5847 -0.0000
vn 0.5690 -0.8223 -0.0000
vn 0.5690 -0.8223 0.0001
vn -0.0506 -0.0365 0.9981
vn -0.0896 -0.0646 0.9939
vn -0.0115 -0.0083 0.9999
vn 0.0276 0.0199 0.9994
vn -0.7673 0.6413 -0.0000
vn -0.7909 0.6120 -0.0000
vn 0.5383 0.8428 -0.0000
vn -0.0542 0.0388 0.9978
vn -0.1597 0.1142 0.9805
vn -0.1556 0.1204 0.9805
vn -0.0000 -0.0000 -1.0000
vn 0.1597 -0.1143 -0.9805
vn 0.0214 -0.0193 -0.9996
vn -0.1597 0.1143 -0.9805
vn 0.7792 -0.6268 -0.0000
vn 0.1536 -0.1233 -0.9804
vn 0.1433 -0.1381 -0.9800
vn 0.7207 -0.6932 -0.0000
vn 0.6981 -0.7160 -0.0000
vn 0.6499 -0.7601 -0.0000
vn 0.0022 0.0028 1.0000
vn 0.1273 -0.1594 0.9790
vn 0.1395 -0.1432 0.9798
vn 0.0019 0.0027 1.0000
vn 0.1514 -0.1266 0.9803
vn -0.1433 0.1379 0.9800
vn -0.1315 0.1540 0.9793
vn 0.0021 0.0031 1.0000
vn -0.6498 0.7601 -0.0000
vn -0.6242 0.7813 -0.0000
vn -0.6981 0.7160 -0.0000
vn -0.7207 0.6932 -0.0000
vn -0.0019 -0.0027 -1.0000
vn -0.1395 0.1432 -0.9798
vn -0.1514 0.1265 -0.9803
vn -0.0022 -0.0028 -1.0000
vn -0.1274 0.1593 -0.9790
vn -0.0418 0.0560 -0.9976
vn 0.1315 -0.1539 -0.9793
vn 0.1230 -0.1649 -0.9786
vn -0.1230 0.1649 -0.9786
vn -0.5979 0.8015 -0.0000
vn -0.1230 0.1649 0.9786
vn 0.0418 -0.0560 0.9976
vn 0.1230 -0.1649 0.9786
vn 0.5980 -0.8015 -0.0000
vn 0.6243 -0.7812 -0.0000
vn 0.1597 -0.1143 0.9805
vn -0.6250 -0.7806 -0.0000
vt 0.638360 0.363281
vt 0.628906 0.392028
vt 0.682500 0.467499
vt 0.692226 0.437923
vt 0.736094 0.542969
vt 0.746094 0.512565
vt 0.976562 0.023438
vt 0.095226 0.374655
vt 0.095226 0.374655
vt 0.363281 0.482039
vt 0.055192 0.405964
vt 0.085714 0.371094
vt 0.085714 0.371094
vt 0.329321 0.508598
vt 0.295360 0.535156
vt 0.045679 0.402403
vt 0.021231 0.432522
vt 0.329321 0.508597
vt 0.055191 0.405964
vt 0.011719 0.428961
vt 0.151345 0.832089
vt 0.130777 0.840408
vt 0.053453 0.761719
vt 0.032586 0.769827
vt 0.011719 0.777935
vt 0.110210 0.848726
vt 0.229324 0.893967
vt 0.209069 0.902456
vt 0.333393 0.938984
vt 0.313470 0.947617
vt 0.229324 0.893967
vt 0.249578 0.885478
vt 0.445800 0.978816
vt 0.353316 0.930352
vt 0.430892 0.988281
vt 0.460942 0.983941
vt 0.476237 0.972677
vt 0.476236 0.972677
vt 0.488281 0.976880
vt 0.454238 0.375317
vt 0.498319 0.363281
vt 0.498320 0.453125
vt 0.542401 0.375317
vt 0.574672 0.408202
vt 0.586483 0.453125
vt 0.574672 0.498048
vt 0.542401 0.530933
vt 0.498319 0.542969
vt 0.454238 0.530933
vt 0.421968 0.498048
vt 0.410156 0.453125
vt 0.421968 0.408204
vt 0.425328 0.408204
vt 0.457599 0.375317
vt 0.501680 0.363281
vt 0.501680 0.453125
vt 0.501680 0.542969
vt 0.545762 0.530933
vt 0.578032 0.498048
vt 0.457598 0.530933
vt 0.425328 0.498048
vt 0.545762 0.375317
vt 0.413517 0.453125
vt 0.578032 0.408202
vt 0.589844 0.453125
vt 0.746094 0.420014
vt 0.724172 0.363281
vt 0.724171 0.363281
vt 0.673866 0.428209
vt 0.695788 0.484943
vt 0.628906 0.486236
vt 0.650829 0.542969
vt 0.650828 0.542969
vt 0.673866 0.428210
vt 0.339170 0.617919
vt 0.438130 0.574219
vt 0.463206 0.579277
vt 0.488281 0.584336
vt 0.363750 0.623195
vt 0.388328 0.628470
vt 0.293124 0.661814
vt 0.193447 0.690595
vt 0.169919 0.684984
vt 0.269059 0.656358
vt 0.244994 0.650903
vt 0.146392 0.679374
vt 0.034553 0.716881
vt 0.057387 0.722656
vt 0.011719 0.711106
vt 0.628906 0.363281
vt 0.687500 0.453124
vt 0.746094 0.542969
s 1
f 255/142/319 251/143/319 250/143/319
f 251/143/320 252/144/320 250/143/320
f 250/143/321 252/144/322 253/145/323
f 254/142/321 250/143/321 253/145/323
f 254/142/319 255/142/319 250/143/319
f 256/145/324 257/144/325 255/142/326
f 256/145/327 255/142/327 253/145/327
f 254/142/327 253/145/327 255/142/327
f 257/144/325 251/143/326 255/142/326
f 252/144/320 251/143/320 257/144/320
f 258/146/328 257/144/325 256/145/324
f 258/146/320 252/144/320 257/144/320
f 259/146/329 258/146/329 260/147/329
f 259/146/320 252/144/320 258/146/320
f 260/147/328 258/146/328 256/145/324
f 261/147/327 260/147/327 256/145/327
f 261/147/329 259/146/329 260/147/329
f 252/144/322 259/146/330 261/147/330
f 253/145/323 252/144/322 261/147/330
f 261/147/327 256/145/327 253/145/327
f 263/148/331 262/148/332 264/148/333
f 264/148/333 262/148/332 265/148/334
f 262/148/332 266/148/335 265/148/334
f 265/148/334 266/148/335 267/148/336
f 266/148/335 268/148/337 267/148/336
f 268/148/337 263/148/331 269/148/338
f 267/148/336 268/148/337 269/148/338
f 269/148/338 263/148/331 264/148/333
f 264/148/333 265/148/334 269/148/338
f 265/148/334 267/148/336 269/148/338
f 271/148/339 273/148/340 270/148/341
f 271/148/339 270/148/341 272/148/342
f 273/148/340 274/148/343 270/148/341
f 273/148/340 275/148/344 274/148/343
f 275/148/344 276/148/345 274/148/343
f 277/148/346 272/148/342 276/148/345
f 275/148/344 277/148/346 276/148/345
f 271/148/339 277/148/346 273/148/340
f 277/148/346 271/148/339 272/148/342
f 277/148/346 275/148/344 273/148/340
f 279/148/331 278/148/332 280/148/333
f 280/148/333 278/148/332 281/148/334
f 278/148/332 282/148/335 281/148/334
f 281/148/334 282/148/335 283/148/336
f 282/148/335 284/148/337 283/148/336
f 284/148/337 279/148/331 285/148/338
f 283/148/336 284/148/337 285/148/338
f 280/148/333 281/148/334 285/148/338
f 285/148/338 279/148/331 280/148/333
f 281/148/334 283/148/336 285/148/338
f 287/148/339 289/148/340 286/148/341
f 287/148/339 286/148/341 288/148/342
f 289/148/340 290/148/343 286/148/341
f 289/148/340 291/148/344 290/148/343
f 291/148/344 292/148/345 290/148/343
f 293/148/346 288/148/342 292/148/345
f 291/148/344 293/148/346 292/148/345
f 293/148/346 287/148/339 288/148/342
f 287/148/339 293/148/346 289/148/340
f 293/148/346 291/148/344 289/148/340
f 295/148/331 294/148/332 296/148/333
f 296/148/333 294/148/332 297/148/334
f 294/148/332 298/148/335 297/148/334
f 297/148/334 298/148/335 299/148/336
f 298/148/335 300/148/337 299/148/336
f 300/148/337 295/148/331 301/148/338
f 299/148/336 300/148/337 301/148/338
f 301/148/338 295/148/331 296/148/333
f 296/148/333 297/148/334 301/148/338
f 297/148/334 299/148/336 301/148/338
f 303/148/339 305/148/340 302/148/341
f 303/148/339 302/148/341 304/148/342
f 305/148/340 306/148/343 302/148/341
f 305/148/340 307/148/344 306/148/343
f 307/148/344 308/148/345 306/148/343
f 309/148/346 304/148/342 308/148/345
f 307/148/344 309/148/346 308/148/345
f 303/148/339 309/148/346 305/148/340
f 309/148/346 303/148/339 304/148/342
f 309/148/346 307/148/344 305/148/340
f 313/149/347 310/150/348 311/151/349
f 310/150/348 312/151/349 311/151/349
f 310/150/350 316/152/351 312/151/352
f 310/150/348 313/149/347 314/153/353
f 315/154/354 310/150/348 314/153/353
f 316/152/351 310/150/350 315/154/355
f 317/155/356 316/152/351 320/156/357
f 316/152/351 317/155/356 312/151/352
f 318/157/358 316/152/351 315/154/355
f 319/158/357 316/152/351 318/157/358
f 316/152/351 319/158/357 320/156/357
f 319/158/359 321/158/359 320/156/359
f 321/158/359 322/156/359 320/156/359
f 317/155/360 320/156/360 322/156/360
f 323/159/361 322/156/362 321/158/363
f 323/159/360 317/155/360 322/156/360
f 312/151/360 317/155/360 323/159/360
f 324/160/364 323/159/361 321/158/363
f 311/151/365 323/159/361 324/160/364
f 311/151/360 312/151/360 323/159/360
f 324/160/364 321/158/363 326/161/363
f 325/157/366 324/160/364 326/161/363
f 313/149/367 324/160/364 325/157/366
f 313/149/367 311/151/365 324/160/364
f 326/161/359 321/158/359 327/161/368
f 321/158/359 319/158/359 327/161/368
f 327/161/357 319/158/357 318/157/358
f 314/153/369 313/149/367 325/157/366
f 331/162/370 329/163/371 328/164/372
f 329/163/371 330/165/373 328/164/372
f 331/162/374 328/164/375 332/164/375
f 333/162/374 331/162/376 332/164/375
f 333/162/377 332/164/378 334/165/379
f 335/163/380 333/162/377 334/165/379
f 335/163/380 334/165/379 336/166/381
f 337/167/382 335/163/380 336/166/383
f 337/167/384 336/166/385 330/165/373
f 329/163/371 337/167/384 330/165/373
f 329/163/371 338/168/386 337/167/384
f 338/168/386 339/169/387 337/167/384
f 337/167/382 339/169/388 335/163/380
f 341/170/389 340/171/390 339/169/387
f 339/169/388 340/171/391 342/172/392
f 338/168/386 341/170/389 339/169/387
f 339/169/388 342/172/392 335/163/380
f 342/172/392 343/173/393 333/162/377
f 342/172/392 344/170/394 343/173/393
f 340/171/391 344/170/394 342/172/392
f 335/163/380 342/172/392 333/162/377
f 346/174/395 344/170/394 340/171/391
f 344/170/394 345/175/396 343/173/393
f 344/170/394 346/174/395 345/175/396
f 347/176/397 346/174/395 340/171/391
f 346/174/395 347/176/397 349/177/398
f 346/174/395 348/178/399 345/175/396
f 348/178/399 346/174/395 349/177/398
f 351/174/400 350/179/401 349/177/402
f 350/179/401 352/180/403 349/177/402
f 347/176/404 351/174/400 349/177/402
f 352/180/405 348/178/399 349/177/398
f 350/179/406 348/178/407 352/180/408
f 350/179/401 351/174/400 353/175/409
f 351/174/400 347/176/404 340/171/390
f 351/174/400 341/170/389 353/175/409
f 341/170/389 351/174/400 340/171/390
f 353/175/409 341/170/389 338/168/386
f 345/175/410 353/175/411 354/173/412
f 345/175/410 348/178/407 353/175/411
f 354/173/413 353/175/409 338/168/386
f 348/178/407 350/179/406 353/175/411
f 343/173/414 345/175/410 354/173/412
f 354/173/413 338/168/386 329/163/371
f 343/173/414 354/173/412 331/162/376
f 331/162/370 354/173/413 329/163/371
f 333/162/374 343/173/414 331/162/376
f 367/181/415 356/182/415 355/183/415
f 356/182/415 357/184/415 355/183/415
f 357/184/415 358/185/415 355/183/415
f 358/185/415 359/186/415 355/183/415
f 359/186/415 360/187/415 355/183/415
f 360/187/415 361/188/415 355/183/415
f 361/188/415 362/189/415 355/183/415
f 362/189/415 363/190/415 355/183/415
f 363/190/415 364/191/415 355/183/415
f 364/191/415 365/192/415 355/183/415
f 365/192/415 366/193/415 355/183/415
f 366/193/415 367/181/415 355/183/415
f 366/193/416 368/194/417 367/181/418
f 368/194/417 369/195/419 367/181/418
f 367/181/418 369/195/419 356/182/420
f 369/195/419 370/196/421 356/182/420
f 370/196/422 369/195/422 371/197/422
f 369/195/422 368/194/422 371/197/422
f 373/198/422 372/199/422 371/197/422
f 372/199/422 380/200/422 371/197/422
f 374/201/422 373/198/422 371/197/422
f 375/202/422 374/201/422 371/197/422
f 376/203/422 370/196/422 371/197/422
f 377/204/422 375/202/422 371/197/422
f 378/205/422 376/203/422 371/197/422
f 368/194/422 377/204/422 371/197/422
f 379/206/422 378/205/422 371/197/422
f 380/200/422 379/206/422 371/197/422
f 360/187/423 380/200/424 361/188/425
f 379/206/426 380/200/424 360/187/423
f 380/200/424 372/199/427 361/188/425
f 359/186/428 379/206/426 360/187/423
f 378/205/429 379/206/426 359/186/428
f 358/185/430 378/205/429 359/186/428
f 376/203/431 378/205/429 358/185/430
f 365/192/432 377/204/433 366/193/416
f 375/202/434 377/204/433 365/192/432
f 377/204/433 368/194/417 366/193/416
f 357/184/435 376/203/431 358/185/430
f 370/196/421 376/203/431 357/184/435
f 364/191/436 375/202/434 365/192/432
f 374/201/437 375/202/434 364/191/436
f 373/198/438 374/201/437 363/190/439
f 363/190/439 374/201/437 364/191/436
f 372/199/427 373/198/438 362/189/440
f 362/189/440 373/198/438 363/190/439
f 361/188/425 372/199/427 362/189/440
f 356/182/420 370/196/421 357/184/435
f 384/207/441 381/208/441 382/207/441
f 381/208/441 383/209/441 382/207/441
f 385/210/442 381/208/443 384/207/443
f 386/211/444 385/210/442 384/207/443
f 387/212/445 385/210/442 386/211/444
f 388/212/446 387/212/446 389/213/446
f 389/213/445 387/212/445 386/211/444
f 390/214/446 388/212/446 389/213/446
f 390/214/447 389/213/447 386/211/448
f 391/215/449 388/212/450 390/214/450
f 392/211/447 390/214/447 384/207/447
f 384/207/447 390/214/447 386/211/448
f 392/211/451 391/215/449 390/214/450
f 383/209/452 391/215/449 392/211/451
f 382/207/452 383/209/452 392/211/451
f 382/207/447 392/211/447 384/207/447
f 396/216/453 393/217/319 394/216/454
f 393/217/319 395/217/319 394/216/454
f 398/218/455 395/217/455 393/217/455
f 397/218/456 393/217/457 396/216/458
f 397/218/455 398/218/455 393/217/455
f 400/219/455 398/218/455 397/218/455
f 398/218/459 400/219/460 399/220/461
f 395/217/462 398/218/459 399/220/461
f 401/219/455 400/219/455 397/218/455
f 400/219/329 401/219/329 402/221/463
f 400/219/460 402/221/464 399/220/461
f 402/221/464 403/222/465 399/220/461
f 405/222/466 403/222/467 402/221/463
f 401/219/329 404/221/463 402/221/463
f 404/221/463 405/222/466 402/221/463
f 405/222/466 406/223/468 403/222/467
f 407/224/469 406/223/470 405/222/471
f 408/225/472 407/224/469 405/222/471
f 408/225/472 405/222/471 404/221/473
f 411/226/474 409/227/475 408/225/472
f 409/227/475 407/224/469 408/225/472
f 410/220/476 408/225/472 404/221/473
f 411/226/474 408/225/472 410/220/476
f 412/227/477 409/227/478 411/226/479
f 413/226/480 412/227/477 411/226/479
f 413/226/480 411/226/479 396/216/453
f 396/216/458 411/226/474 410/220/476
f 414/225/481 413/226/482 394/216/483
f 414/225/481 415/224/484 413/226/482
f 394/216/454 413/226/480 396/216/453
f 415/224/484 412/227/485 413/226/482
f 415/224/484 418/228/486 412/227/485
f 416/223/487 415/224/484 414/225/481
f 416/223/487 417/229/488 415/224/484
f 417/229/488 418/228/486 415/224/484
f 418/228/486 419/230/489 412/227/485
f 419/230/490 420/230/490 409/227/478
f 412/227/477 419/230/490 409/227/478
f 409/227/475 420/230/491 407/224/469
f 420/230/491 421/228/492 407/224/469
f 421/228/492 422/229/493 406/223/470
f 407/224/469 421/228/492 406/223/470
f 406/223/468 422/229/494 416/223/495
f 422/229/494 417/229/494 416/223/495
f 406/223/468 416/223/495 403/222/467
f 403/222/465 416/223/487 414/225/481
f 403/222/465 414/225/481 399/220/461
f 399/220/461 414/225/481 394/216/483
f 410/220/476 397/218/456 396/216/458
f 401/219/496 397/218/456 410/220/476
f 404/221/473 401/219/496 410/220/476
f 394/216/483 395/217/462 399/220/461
f 423/231/497 425/231/497 424/232/497
f 425/231/497 426/232/497 424/232/497
f 424/232/497 426/232/497 427/233/497
f 426/232/497 428/233/497 427/233/497
o item_damaged
v -29.153999 3.117801 15.308600
v -24.850100 -8.020700 15.206201
v -22.281900 0.038201 15.206200
v -32.607300 -7.718799 15.308601
v -29.153999 3.117701 16.452700
v -22.282000 0.038101 16.555099
v -32.607300 -7.718799 16.452700
v -24.850201 -8.020799 16.555099
v -17.092899 -8.322799 15.880601
v -15.409900 -3.041299 15.880600
v -12.769350 -27.540876 12.696838
v -63.673347 -71.074860 19.064476
v -63.673347 -71.074860 12.696842
v -12.769350 -27.540876 19.064472
v -10.961201 -26.079712 19.064472
v -10.961201 -26.079712 12.696838
v -4.809794 -36.923893 10.868075
v -56.921326 -79.034256 10.868078
v -3.001537 -35.462624 10.868075
v 1.942220 -44.883183 12.696840
v -50.169315 -86.993546 12.696843
v 1.942333 -44.883186 19.064474
v -50.169315 -86.993546 19.064476
v -56.921333 -79.034134 20.893240
v -4.809680 -36.923897 20.893236
v -3.001532 -35.462734 20.893236
v 3.750482 -43.422024 19.064474
v 3.750482 -43.422024 12.696839
v -5.951000 -27.676098 15.308602
v 42.820202 6.502701 15.206199
v -1.127600 -33.495300 15.206203
v 37.865799 12.200401 15.308599
v -5.950900 -27.676098 16.452702
v 37.865799 12.200401 16.452700
v -1.127700 -33.495300 16.555101
v 3.695500 -39.314400 15.880603
v 42.820202 6.502602 16.555099
v 47.774502 0.805101 15.880600
v -2.918277 -35.385124 16.428396
v 6.891103 -27.497980 29.562595
v -0.557678 -21.121767 27.921247
v -8.638982 -18.567478 23.200388
v -15.187535 -20.519522 16.664885
v -18.448439 -26.454689 10.066080
v -17.548061 -34.782730 5.172097
v -12.727499 -43.272205 3.294255
v -5.278484 -49.646469 4.937085
v 2.802233 -52.201576 9.656823
v 9.351036 -50.250629 16.191813
v 12.611023 -44.314930 22.790215
v 11.709635 -35.987270 27.683237
v 13.490475 -43.583759 21.695087
v 12.590099 -35.255642 26.589231
v -2.039765 -34.653320 15.332825
v 7.769621 -26.766256 28.467066
v 0.320515 -20.391951 26.824209
v -7.760180 -17.836845 22.104486
v -14.309017 -19.787798 15.569355
v -17.568962 -25.723532 8.970960
v -16.667624 -34.051098 4.078072
v -11.849062 -42.540398 2.198739
v -4.400284 -48.916607 3.840083
v 3.681097 -51.470901 8.560888
v 10.229569 -49.518925 15.096283
v -9.684300 -29.093998 14.571502
v -4.336400 -24.520699 17.189802
v -9.684300 -29.093998 17.189802
v -4.336400 -24.520597 14.571502
v -3.830000 -36.157200 14.337303
v 1.518000 -31.583899 14.337303
v 1.402200 -42.469700 15.019603
v 1.402200 -42.469700 16.741703
v 6.750000 -37.896400 15.019603
v 6.750100 -37.896400 16.741703
v -3.830000 -36.157200 17.424002
v 1.518000 -31.583899 17.424002
v -47.485100 74.001503 15.308595
v -51.311600 77.422798 15.880594
v -47.485100 74.001404 16.452694
v -42.651699 80.013397 15.880594
v -37.841202 75.811600 15.206194
v -8.435800 39.442101 15.308598
v -2.130400 43.504501 15.206197
v -8.435800 39.442101 16.452696
v 20.230400 19.849901 15.206198
v 12.789900 16.988201 15.308599
v 12.789900 16.988201 16.452698
v -2.130500 43.504601 16.555096
v 20.230400 19.849901 16.555098
v 27.671101 22.711702 15.880598
v 4.175200 47.567299 15.880596
v -37.841202 75.811600 16.555094
v -33.127602 80.726303 15.880594
v -55.002800 -4.131499 15.308600
v -48.492500 -0.307299 15.206200
v -62.818199 5.832301 15.308600
v -62.818199 5.832302 16.452700
v -55.002899 -4.131399 16.452700
v -56.299702 9.645901 16.555099
v -48.492401 -0.307499 16.555099
v -41.982101 3.516601 15.880600
v -49.781101 13.459501 15.880599
v -56.299599 9.645901 15.206199
v 19.032801 52.480801 15.308597
v 25.285299 48.283699 15.206196
v 25.472500 68.316498 15.308596
v 25.472401 68.316498 16.452694
v 19.032801 52.480801 16.452696
v 31.160200 62.730900 16.555096
v 25.285299 48.283699 16.555096
v 31.537800 44.086800 15.880597
v 36.848099 57.145100 15.880595
v 31.160200 62.730900 15.206195
v -39.834801 34.469398 15.308598
v -30.776600 22.921202 15.308599
v -32.939098 37.802299 15.206197
v -30.776600 22.921103 16.452698
v -39.834801 34.469398 16.452698
v -24.258101 26.734701 16.555098
v -32.939201 37.802299 16.555098
v -26.043501 41.135201 15.880597
v -17.739500 30.548302 15.880598
v -24.257999 26.734802 15.206198
v 65.920898 20.866402 16.452698
v 53.761101 30.418102 16.555098
v 61.289398 31.826202 16.452698
v 59.833099 16.049501 16.555098
v 65.920799 20.866402 15.308599
v 59.833000 16.049501 15.206199
v 61.289299 31.826302 15.308598
v 53.761101 30.418102 15.206198
v 53.745098 11.232301 15.880599
v 46.232800 29.010101 15.880598
v 0.000000 70.710701 -0.000005
v 70.710701 0.000000 0.000000
v 0.000000 55.656200 3.999996
v -55.656101 0.000000 4.000000
v -70.710701 0.000000 0.000000
v 0.000000 -55.656101 4.000004
v 0.000000 -70.710602 0.000005
v 55.656200 0.000000 4.000000
v 0.000000 70.710701 -0.000005
v 0.000000 55.656200 -4.000004
v 70.710701 0.000000 0.000000
v -55.656101 -0.000000 -4.000000
v -70.710701 0.000000 0.000000
v 0.000000 -55.656101 -3.999996
v 0.000000 -70.710602 0.000005
v 55.656200 -0.000000 -4.000000
v 0.000000 70.710701 -0.000005
v 70.710701 0.000000 0.000000
v 0.000000 55.656200 3.999996
v -55.656101 0.000000 4.000000
v -70.710701 0.000000 0.000000
v 0.000000 -55.656101 4.000004
v 0.000000 -70.710602 0.000005
v 55.656200 0.000000 4.000000
v 0.000000 70.710701 -0.000005
v 0.000000 55.656200 -4.000004
v 70.710701 0.000000 0.000000
v -55.656101 -0.000000 -4.000000
v -70.710701 0.000000 0.000000
v 0.000000 -55.656101 -3.999996
v 0.000000 -70.710602 0.000005
v 55.656200 -0.000000 -4.000000
v 0.000000 70.710701 -0.000005
v 70.710701 0.000000 0.000000
v 0.000000 55.656200 3.999996
v -55.656101 0.000000 4.000000
v -70.710701 0.000000 0.000000
v 0.000000 -55.656101 4.000004
v 0.000000 -70.710602 0.000005
v 55.656200 0.000000 4.000000
v 0.000000 70.710701 -0.000005
v 0.000000 55.656200 -4.000004
v 70.710701 0.000000 0.000000
v -55.656101 -0.000000 -4.000000
v -70.710701 0.000000 0.000000
v 0.000000 -55.656101 -3.999996
v 0.000000 -70.710602 0.000005
v 55.656200 -0.000000 -4.000000
vn -0.0130 0.0042 -0.9999
vn 0.0198 -0.0063 -0.9998
vn 0.0527 -0.0168 -0.9985
vn -0.9528 0.3036 -0.0000
vn 0.0199 -0.0063 0.9998
vn -0.0130 0.0042 0.9999
vn 0.0527 -0.0168 0.9985
vn 0.0855 -0.0273 0.9960
vn 0.0855 -0.0273 -0.9960
vn -0.6393 0.7690 -0.0000
vn -0.6499 0.7600 -0.0000
vn -0.0940 0.1130 -0.9891
vn -0.0089 0.0106 -0.9999
vn -0.1016 0.1230 -0.9872
vn -0.6285 0.7778 -0.0000
vn -0.0924 0.1144 -0.9891
vn -0.0016 0.0020 -1.0000
vn 0.1085 -0.1343 -0.9850
vn 0.0444 -0.0529 -0.9976
vn 0.6285 -0.7778 -0.0000
vn -0.7626 -0.6469 -0.0000
vn 0.0360 -0.0424 0.9985
vn 0.1085 -0.1343 0.9850
vn -0.1016 0.1230 0.9872
vn 0.0049 -0.0071 1.0000
vn -0.0937 0.1133 0.9891
vn -0.0251 0.0291 0.9993
vn -0.0924 0.1144 0.9891
vn -0.0091 0.0100 -0.9999
vn 0.0139 -0.0153 -0.9998
vn 0.0369 -0.0406 -0.9985
vn -0.6731 0.7396 0.0001
vn -0.6731 0.7396 -0.0000
vn -0.0091 0.0100 0.9999
vn 0.0139 -0.0152 0.9998
vn 0.0369 -0.0406 0.9985
vn 0.0139 -0.0153 0.9998
vn 0.0599 -0.0658 0.9960
vn 0.0599 -0.0658 -0.9960
vn -0.5515 -0.4662 0.6918
vn 0.7930 -0.0452 0.6076
vn 0.7578 0.0590 0.6498
vn 0.5692 0.3959 0.7206
vn 0.8031 -0.5140 0.3015
vn 0.8300 -0.3550 0.4302
vn 0.5515 0.4662 -0.6918
vn 0.5080 0.4702 0.7217
vn 0.2164 0.7243 0.6547
vn 0.1201 0.7793 0.6150
vn -0.1783 0.8790 0.4423
vn -0.3416 0.8850 0.3163
vn -0.5417 0.8318 0.1208
vn -0.7096 0.6968 -0.1040
vn -0.8300 0.3542 -0.4308
vn -0.8029 0.5147 -0.3009
vn -0.7573 -0.0605 -0.6503
vn -0.7933 0.0464 -0.6070
vn -0.5070 -0.4714 -0.7217
vn -0.5701 -0.3947 -0.7205
vn -0.2177 -0.7234 -0.6552
vn -0.1190 -0.7799 -0.6145
vn 0.1775 -0.8788 -0.4429
vn 0.3423 -0.8849 -0.3157
vn 0.5418 -0.8318 -0.1207
vn 0.7097 -0.6968 0.1041
vn 0.0069 -0.0081 -0.9999
vn -0.0166 0.0194 -0.9997
vn 0.0305 -0.0356 -0.9989
vn 0.0539 -0.0630 -0.9966
vn 0.6499 -0.7600 -0.0000
vn 0.7699 0.6381 -0.0000
vn 0.0069 -0.0081 0.9999
vn 0.0304 -0.0356 0.9989
vn 0.0539 -0.0630 0.9966
vn -0.0166 0.0194 0.9997
vn -0.0264 0.0786 -0.9966
vn -0.0372 0.1242 -0.9916
vn -0.0271 0.1305 -0.9911
vn -0.6646 -0.7472 -0.0001
vn -0.6642 -0.7475 -0.0000
vn -0.6665 -0.7455 -0.0001
vn -0.6847 -0.7288 -0.0000
vn 0.0109 0.0651 -0.9978
vn -0.0097 -0.0100 -0.9999
vn -0.7060 -0.7082 -0.0000
vn 0.0350 0.0348 -0.9988
vn 0.0154 0.0145 -0.9998
vn -0.7267 -0.6870 -0.0000
vn -0.0101 -0.0095 -0.9999
vn 0.0408 0.0386 0.9984
vn 0.0198 0.0204 0.9996
vn -0.0101 -0.0095 0.9999
vn -0.0097 -0.0100 0.9999
vn 0.0650 0.0668 0.9956
vn 0.0662 0.0626 0.9958
vn 0.0646 0.0683 -0.9956
vn 0.0273 0.1101 -0.9935
vn 0.0274 0.1101 0.9935
vn 0.0109 0.0651 0.9978
vn 0.0662 0.0626 -0.9958
vn -0.0272 0.1305 0.9911
vn -0.0264 0.0787 0.9966
vn -0.0372 0.1242 0.9916
vn 0.0164 0.0129 -0.9998
vn -0.0108 -0.0084 -0.9999
vn -0.7868 -0.6172 -0.0000
vn -0.0108 -0.0084 0.9999
vn 0.0164 0.0128 0.9998
vn 0.0436 0.0342 0.9985
vn 0.0706 0.0554 0.9960
vn 0.0706 0.0554 -0.9960
vn 0.0435 0.0341 -0.9985
vn 0.0196 -0.0080 -0.9998
vn -0.0129 0.0052 -0.9999
vn -0.9263 0.3767 -0.0001
vn -0.9263 0.3767 -0.0000
vn -0.0129 0.0052 0.9999
vn 0.0197 -0.0080 0.9998
vn 0.0520 -0.0212 0.9984
vn 0.0844 -0.0343 0.9958
vn 0.0844 -0.0343 -0.9958
vn 0.0520 -0.0212 -0.9984
vn -0.7868 -0.6172 -0.0001
vn 0.0164 0.0129 0.9998
vn 0.0435 0.0342 -0.9985
vn -0.0125 -0.0472 0.9988
vn 0.0126 0.0053 0.9999
vn -0.0572 0.0262 0.9980
vn -0.0351 -0.0148 0.9993
vn 0.9211 0.3893 -0.0001
vn 0.0126 0.0053 -0.9999
vn -0.0192 -0.0081 -0.9998
vn 0.9211 0.3893 -0.0000
vn -0.0510 -0.0215 -0.9985
vn -0.9211 -0.3892 -0.0001
vn -0.9211 -0.3892 -0.0000
vn 0.2559 0.0853 0.9629
vn -0.0853 0.2559 0.9629
vn 0.0639 0.1919 0.9793
vn -0.1532 0.0510 0.9869
vn -0.2558 -0.0853 0.9629
vn -0.0639 -0.1919 0.9793
vn 0.0853 -0.2559 0.9629
vn 0.1531 -0.0510 0.9869
vn 0.0639 0.1919 -0.9793
vn -0.1531 0.0510 -0.9869
vn -0.0853 0.2559 -0.9629
vn 0.2559 0.0853 -0.9629
vn -0.2558 -0.0853 -0.9629
vn -0.0639 -0.1919 -0.9793
vn 0.0853 -0.2559 -0.9629
vn 0.1532 -0.0510 -0.9869
vt 0.011719 0.976320
vt 0.107414 0.761719
vt 0.226681 0.982299
vt 0.297849 0.822705
vt 0.107414 0.761721
vt 0.297846 0.822707
vt 0.226678 0.982301
vt 0.441643 0.988281
vt 0.488281 0.883690
vt 0.282278 0.375129
vt 0.011719 0.495014
vt 0.320914 0.398790
vt 0.291869 0.371094
vt 0.044494 0.515085
vt 0.077269 0.535156
vt 0.330506 0.394755
vt 0.353690 0.418862
vt 0.353690 0.418862
vt 0.044494 0.515085
vt 0.320915 0.398790
vt 0.330506 0.394755
vt 0.363281 0.414826
vt 0.400388 0.761719
vt 0.444335 0.786777
vt 0.011719 0.937096
vt 0.054504 0.962689
vt 0.011720 0.937096
vt 0.054503 0.962689
vt 0.444335 0.786778
vt 0.097286 0.988281
vt 0.488281 0.811835
vt 0.453830 0.413585
vt 0.497504 0.456713
vt 0.541178 0.499841
vt 0.573150 0.531413
vt 0.584852 0.542969
vt 0.497504 0.456713
vt 0.421859 0.382013
vt 0.410156 0.370457
vt 0.458822 0.406410
vt 0.426850 0.374837
vt 0.502496 0.449537
vt 0.502496 0.449537
vt 0.546170 0.492665
vt 0.578141 0.524238
vt 0.589844 0.535793
vt 0.578141 0.524237
vt 0.415148 0.363281
vt 0.746094 0.484497
vt 0.716235 0.542969
vt 0.746093 0.484497
vt 0.670120 0.478960
vt 0.699978 0.420487
vt 0.628906 0.421753
vt 0.658765 0.363282
vt 0.658765 0.363281
vt 0.034807 0.785623
vt 0.011719 0.773461
vt 0.063970 0.764253
vt 0.034807 0.785623
vt 0.270421 0.908467
vt 0.092996 0.779188
vt 0.308466 0.894027
vt 0.443386 0.978109
vt 0.398492 0.988281
vt 0.308466 0.894026
vt 0.346513 0.879585
vt 0.488281 0.967937
vt 0.121437 0.761719
vt 0.339376 0.939028
vt 0.190472 0.988281
vt 0.011719 0.859953
vt 0.190470 0.988280
vt 0.160810 0.810836
vt 0.339378 0.939030
vt 0.488281 0.889778
vt 0.309903 0.761719
vt 0.160812 0.810836
vt 0.094266 0.908766
vt 0.176816 0.988281
vt 0.488281 0.906386
vt 0.488281 0.906387
vt 0.378421 0.834053
vt 0.011719 0.829251
vt 0.268556 0.761719
vt 0.011719 0.844634
vt 0.207091 0.988280
vt 0.207091 0.988281
vt 0.160449 0.803176
vt 0.347685 0.940844
vt 0.160446 0.803176
vt 0.488281 0.893408
vt 0.309176 0.761719
vt 0.347687 0.940843
vt 0.123193 0.831775
vt 0.234660 0.761719
vt 0.455694 0.901649
vt 0.488279 0.815016
vt 0.234660 0.761720
vt 0.123193 0.831776
vt 0.488281 0.815017
vt 0.011719 0.901833
vt 0.423112 0.988281
vt 0.976562 0.023438
s 1
f 432/234/498 429/235/498 430/236/499
f 429/235/498 431/237/500 430/236/499
f 433/238/501 429/235/501 432/234/501
f 434/239/502 433/238/503 435/234/503
f 435/234/501 433/238/501 432/234/501
f 436/240/504 434/239/502 435/234/503
f 437/241/505 438/242/505 436/240/504
f 438/242/505 434/239/502 436/240/504
f 431/237/500 438/242/506 437/241/506
f 430/236/499 431/237/500 437/241/506
f 442/243/507 439/243/507 440/244/508
f 439/243/507 441/244/508 440/244/508
f 439/243/509 445/245/510 441/244/511
f 439/243/507 442/243/507 443/246/512
f 444/246/512 439/243/507 443/246/512
f 445/245/510 439/243/509 444/246/513
f 446/247/514 445/245/510 449/248/515
f 445/245/510 446/247/514 441/244/511
f 447/249/516 445/245/510 444/246/513
f 448/250/515 445/245/510 447/249/516
f 445/245/510 448/250/515 449/248/515
f 448/250/517 450/251/517 449/248/517
f 450/251/517 451/248/517 449/248/517
f 446/247/518 449/248/518 451/248/518
f 452/252/519 451/248/520 450/251/520
f 452/252/518 446/247/518 451/248/518
f 440/244/521 452/252/519 453/253/522
f 440/244/518 441/244/518 452/252/518
f 441/244/518 446/247/518 452/252/518
f 453/253/522 452/252/519 450/251/520
f 442/243/523 440/244/521 453/253/522
f 442/243/523 453/253/522 454/254/524
f 453/253/522 450/251/520 455/255/520
f 454/254/524 453/253/522 455/255/520
f 455/255/517 450/251/517 456/255/517
f 450/251/517 448/250/517 456/255/517
f 456/255/515 448/250/515 447/249/516
f 443/246/525 442/243/523 454/254/524
f 460/256/526 458/257/527 457/258/526
f 458/257/527 459/259/528 457/258/526
f 460/256/529 457/258/529 461/260/529
f 462/256/530 460/256/530 461/260/530
f 462/256/531 461/260/531 463/261/532
f 465/262/533 463/261/534 464/263/535
f 465/262/533 462/256/531 463/261/534
f 466/264/535 465/262/533 464/263/535
f 466/264/536 464/263/536 459/259/528
f 458/257/527 466/264/536 459/259/528
f 479/265/537 468/266/537 467/266/537
f 468/266/537 469/267/537 467/266/537
f 469/267/537 470/268/537 467/266/537
f 470/268/537 471/269/537 467/266/537
f 471/269/537 472/268/537 467/266/537
f 472/268/537 473/267/537 467/266/537
f 473/267/537 474/270/537 467/266/537
f 474/270/537 475/265/537 467/266/537
f 475/265/537 476/271/537 467/266/537
f 476/271/537 477/272/537 467/266/537
f 477/272/537 478/271/537 467/266/537
f 478/271/537 479/265/537 467/266/537
f 479/265/538 481/273/539 468/266/540
f 478/271/541 480/274/542 479/265/538
f 480/274/542 481/273/539 479/265/538
f 483/275/543 481/273/543 482/276/543
f 481/273/543 480/274/543 482/276/543
f 481/273/539 483/275/544 468/266/540
f 468/266/540 483/275/544 469/267/545
f 483/275/544 484/277/546 469/267/545
f 484/277/543 483/275/543 482/276/543
f 469/267/545 484/277/546 470/268/547
f 484/277/546 485/278/548 470/268/547
f 485/278/543 484/277/543 482/276/543
f 470/268/547 485/278/548 471/269/549
f 485/278/548 486/279/550 471/269/549
f 486/279/543 485/278/543 482/276/543
f 487/280/543 486/279/543 482/276/543
f 486/279/550 487/280/551 472/268/552
f 471/269/549 486/279/550 472/268/552
f 488/277/543 487/280/543 482/276/543
f 487/280/551 488/277/553 473/267/554
f 472/268/552 487/280/551 473/267/554
f 489/276/543 488/277/543 482/276/543
f 488/277/553 489/276/555 474/270/556
f 473/267/554 488/277/553 474/270/556
f 474/270/556 489/276/555 475/265/557
f 489/276/555 490/273/558 475/265/557
f 490/273/543 489/276/543 482/276/543
f 475/265/557 490/273/558 476/271/559
f 490/273/558 491/274/560 476/271/559
f 491/274/543 490/273/543 482/276/543
f 476/271/559 491/274/560 477/272/561
f 491/274/560 492/281/562 477/272/561
f 492/281/543 491/274/543 482/276/543
f 477/272/561 492/281/562 478/271/541
f 492/281/562 480/274/542 478/271/541
f 480/274/543 492/281/543 482/276/543
f 496/282/508 493/283/508 494/284/508
f 493/283/508 495/283/508 494/284/508
f 497/285/563 493/283/564 496/282/564
f 498/286/565 497/285/563 496/282/564
f 499/287/566 497/285/563 498/286/565
f 500/287/567 499/287/567 501/288/567
f 501/288/566 499/287/566 498/286/565
f 502/289/567 500/287/567 501/288/567
f 502/289/568 501/288/568 498/286/568
f 504/286/569 503/285/570 502/289/571
f 503/285/570 500/287/571 502/289/571
f 504/286/568 502/289/568 496/282/568
f 496/282/568 502/289/568 498/286/568
f 494/284/568 504/286/568 496/282/568
f 494/284/572 495/283/572 504/286/569
f 495/283/572 503/285/570 504/286/569
f 505/290/573 506/291/574 508/292/575
f 505/290/576 507/293/577 506/291/578
f 507/293/577 505/290/576 510/294/579
f 509/295/580 505/290/573 508/292/575
f 505/290/573 509/295/580 510/294/581
f 512/294/582 507/293/577 510/294/579
f 509/295/580 511/296/583 510/294/581
f 510/294/581 511/296/583 513/297/584
f 512/294/582 510/294/579 514/298/585
f 514/298/586 510/294/581 513/297/584
f 515/298/585 512/294/582 514/298/585
f 517/297/587 516/299/588 515/298/589
f 516/299/588 512/294/590 515/298/589
f 519/300/591 516/299/588 517/297/587
f 518/301/592 519/300/591 517/297/587
f 511/296/583 509/295/580 519/300/593
f 509/295/580 521/302/594 519/300/593
f 521/302/595 520/295/596 519/300/591
f 520/295/596 516/299/588 519/300/591
f 511/296/583 519/300/593 518/301/597
f 520/295/596 521/302/595 508/292/598
f 521/302/594 509/295/580 508/292/575
f 520/295/596 507/293/599 512/294/590
f 507/293/599 520/295/596 508/292/598
f 516/299/588 520/295/596 512/294/590
f 513/297/584 511/296/583 518/301/597
f 506/291/600 507/293/599 508/292/598
f 523/303/601 522/304/602 524/305/602
f 524/305/603 522/304/603 525/305/603
f 522/304/603 526/306/603 525/305/603
f 525/305/604 526/306/604 527/307/605
f 526/306/604 528/308/606 527/307/605
f 528/308/606 529/309/607 530/310/607
f 527/307/605 528/308/606 530/310/607
f 530/310/608 529/309/608 531/311/609
f 529/309/608 523/303/601 531/311/609
f 531/311/609 523/303/601 524/305/602
f 533/312/610 532/313/611 534/314/611
f 534/314/612 532/313/613 535/315/612
f 532/313/613 536/313/613 535/315/612
f 535/315/614 536/313/614 537/316/615
f 536/313/614 538/312/616 537/316/615
f 538/312/616 539/317/617 540/318/617
f 537/316/615 538/312/616 540/318/617
f 540/318/618 539/317/618 541/316/619
f 539/317/618 533/312/610 541/316/619
f 541/316/619 533/312/610 534/314/611
f 542/319/620 543/320/620 545/321/620
f 543/320/602 542/319/602 544/322/601
f 546/319/603 542/319/603 545/321/603
f 545/321/604 547/323/621 546/319/604
f 547/323/621 548/324/606 546/319/604
f 550/325/607 549/326/607 548/324/606
f 547/323/621 550/325/607 548/324/606
f 550/325/608 551/327/622 549/326/608
f 551/327/609 543/320/602 544/322/601
f 551/327/609 544/322/601 549/326/608
f 555/328/623 552/329/624 553/330/625
f 552/329/624 554/331/624 553/330/626
f 554/331/627 552/329/627 556/332/627
f 556/332/628 557/333/629 558/334/628
f 558/334/630 554/331/630 556/332/630
f 557/333/629 559/330/631 558/334/628
f 557/333/629 560/335/632 559/330/631
f 560/335/632 561/336/633 559/330/631
f 560/335/632 555/328/623 561/336/633
f 555/328/623 553/330/625 561/336/633
f 563/337/634 562/337/635 564/337/636
f 564/337/636 562/337/635 565/337/637
f 562/337/635 566/337/638 565/337/637
f 565/337/637 566/337/638 567/337/639
f 566/337/638 568/337/640 567/337/639
f 568/337/640 563/337/634 569/337/641
f 567/337/639 568/337/640 569/337/641
f 569/337/641 563/337/634 564/337/636
f 564/337/636 565/337/637 569/337/641
f 565/337/637 567/337/639 569/337/641
f 571/337/642 573/337/643 570/337/644
f 571/337/642 570/337/644 572/337/645
f 573/337/643 574/337/646 570/337/644
f 573/337/643 575/337/647 574/337/646
f 575/337/647 576/337/648 574/337/646
f 577/337/649 572/337/645 576/337/648
f 575/337/647 577/337/649 576/337/648
f 571/337/642 577/337/649 573/337/643
f 577/337/649 571/337/642 572/337/645
f 577/337/649 575/337/647 573/337/643
f 579/337/634 578/337/635 580/337/636
f 580/337/636 578/337/635 581/337/637
f 578/337/635 582/337/638 581/337/637
f 581/337/637 582/337/638 583/337/639
f 582/337/638 584/337/640 583/337/639
f 584/337/640 579/337/634 585/337/641
f 583/337/639 584/337/640 585/337/641
f 580/337/636 581/337/637 585/337/641
f 585/337/641 579/337/634 580/337/636
f 581/337/637 583/337/639 585/337/641
f 587/337/642 589/337/643 586/337/644
f 587/337/642 586/337/644 588/337/645
f 589/337/643 590/337/646 586/337/644
f 589/337/643 591/337/647 590/337/646
f 591/337/647 592/337/648 590/337/646
f 593/337/649 588/337/645 592/337/648
f 591/337/647 593/337/649 592/337/648
f 593/337/649 587/337/642 588/337/645
f 587/337/642 593/337/649 589/337/643
f 593/337/649 591/337/647 589/337/643
f 595/337/634 594/337/635 596/337/636
f 596/337/636 594/337/635 597/337/637
f 594/337/635 598/337/638 597/337/637
f 597/337/637 598/337/638 599/337/639
f 598/337/638 600/337/640 599/337/639
f 600/337/640 595/337/634 601/337/641
f 599/337/639 600/337/640 601/337/641
f 601/337/641 595/337/634 596/337/636
f 596/337/636 597/337/637 601/337/641
f 597/337/637 599/337/639 601/337/641
f 603/337/642 605/337/643 602/337/644
f 603/337/642 602/337/644 604/337/645
f 605/337/643 606/337/646 602/337/644
f 605/337/643 607/337/647 606/337/646
f 607/337/647 608/337/648 606/337/646
f 609/337/649 604/337/645 608/337/648
f 607/337/647 609/337/649 608/337/648
f 603/337/642 609/337/649 605/337/643
f 609/337/649 603/337/642 604/337/645
f 609/337/649 607/337/647 605/337/643
o effect
v -35.451401 -3.580700 -3.002900
v -109.579697 -5.895001 3.325500
v -35.451401 -3.580699 3.002900
v -109.579697 -5.895002 -3.325500
v -110.010307 1.677399 -5.574100
v -35.143002 3.610700 -4.606400
v -35.143002 3.610700 4.606400
v -110.010307 1.677400 5.574100
v -35.492500 10.802100 3.002899
v -35.492500 10.802100 -3.002901
v -110.441002 9.249801 3.325499
v -171.182922 4.204000 3.325500
v -110.441002 9.249801 -3.325501
v -171.182922 4.203999 -3.325500
v -227.697296 -3.329800 -3.325500
v -226.511810 -10.821400 -5.574099
v -170.362198 -3.336300 -5.574100
v -169.541702 -10.876499 -3.325499
v -225.326523 -18.312904 -3.325499
v -293.916687 -31.360498 -3.220098
v -293.916687 -31.360498 3.220102
v -225.326523 -18.312904 3.325501
v -226.511810 -10.821400 5.574101
v -169.541702 -10.876499 3.325501
v -170.362198 -3.336299 5.574100
v -227.697296 -3.329799 3.325500
v -297.122711 -16.274298 -3.220099
v -297.122711 -16.274298 3.220101
v -295.864502 -23.891701 4.939602
v -295.864502 -23.891701 -4.939598
v -35.395100 -3.166101 -2.357800
v -35.395100 9.390301 -2.357801
v -35.395100 -3.166101 2.357800
v -35.395100 9.390301 2.357799
v -35.395100 3.654000 -3.638800
v -35.395100 3.654000 3.638800
v -293.527161 -29.939701 -2.357798
v -296.226044 -17.417904 -2.357799
v -293.527161 -29.939701 2.357802
v -296.226044 -17.417904 2.357801
v -294.876526 -23.678806 -3.638798
v -294.876526 -23.678806 3.638802
v -225.513535 -17.147701 -2.357799
v -227.510345 -4.494902 -2.357800
v -225.513535 -17.147701 2.357801
v -227.510345 -4.494902 2.357800
v -226.511841 -10.821404 -3.638799
v -226.511841 -10.821404 3.638801
v -169.668533 -9.703203 -2.357799
v -171.056015 3.030700 -2.357800
v -169.668533 -9.703203 2.357801
v -171.056015 3.030701 2.357800
v -170.362213 -3.336300 -3.638800
v -170.362213 -3.336299 3.638800
v -109.644005 -4.716802 -2.357800
v -110.376709 8.071601 -2.357801
v -109.644005 -4.716802 2.357800
v -110.376709 8.071601 2.357799
v -110.010315 1.677400 -3.638800
v -110.010315 1.677400 3.638800
v -293.527161 -29.939701 -2.357798
v -294.876526 -23.678806 -3.638798
v -293.527161 -29.939701 2.357802
v -294.876526 -23.678806 3.638802
v -296.226044 -17.417904 2.357801
v -296.226044 -17.417904 -2.357799
v -93.235199 -4.707600 -2.701900
v -93.235199 -4.707600 2.702000
v -93.320099 2.114100 -4.327100
v -89.733589 2.208000 -4.327100
v -89.749298 -4.616400 -2.701900
v -89.749298 -4.616400 2.702000
v -93.320099 2.114100 4.327100
v -89.733589 2.208000 4.327100
v -89.717903 9.032400 -2.702001
v -89.717903 9.032400 2.701899
v -93.404900 8.935900 2.701899
v -93.404900 8.935900 -2.702001
vn 0.0656 -0.9978 -0.0000
vn 0.0312 -0.9995 -0.0000
vn 0.0484 -0.9988 -0.0000
vn 0.9999 -0.0124 -0.0000
vn 0.9991 -0.0428 -0.0000
vn 0.0157 -0.2513 -0.9678
vn 0.0183 -0.2837 -0.9588
vn 0.0089 -0.0420 -0.9991
vn 0.0129 -0.0001 -0.9999
vn 0.9998 0.0181 -0.0000
vn 0.0129 -0.0001 0.9999
vn 0.0026 0.2514 0.9679
vn 0.0019 0.0420 0.9991
vn 0.0156 -0.2513 0.9678
vn 0.9988 0.0485 -0.0000
vn -0.0207 0.9998 -0.0000
vn -0.0518 0.9987 -0.0000
vn -0.0127 0.2840 0.9587
vn -0.0283 0.2828 0.9588
vn -0.0993 0.9951 -0.0000
vn -0.1157 0.9933 -0.0000
vn -0.1492 0.9888 -0.0000
vn -0.0084 0.0411 -0.9991
vn -0.0455 0.2806 -0.9588
vn -0.0329 0.2823 -0.9588
vn 0.0024 0.0003 -1.0000
vn -0.0162 0.2838 -0.9588
vn 0.0282 -0.2828 -0.9587
vn 0.0424 -0.2811 -0.9588
vn 0.1869 -0.9824 -0.0000
vn 0.1687 -0.9857 -0.0000
vn 0.0418 -0.2481 -0.9678
vn 0.1504 -0.9886 -0.0000
vn 0.1157 -0.9933 -0.0000
vn 0.0028 -0.0424 0.9991
vn 0.0447 -0.2807 0.9588
vn 0.0328 -0.2823 0.9588
vn 0.0418 -0.2481 0.9678
vn 0.0993 -0.9951 -0.0000
vn -0.0024 -0.0003 1.0000
vn 0.0200 -0.2836 0.9587
vn -0.0429 0.2810 0.9588
vn -0.1663 0.9861 -0.0000
vn -0.1833 0.9831 -0.0000
vn -0.0513 0.2459 0.9679
vn -0.9812 -0.1929 -0.0000
vn -0.9866 -0.1630 -0.0000
vn -0.0087 -0.0021 1.0000
vn -0.9749 -0.2228 -0.0000
vn -0.9676 -0.2524 -0.0000
vn -0.0088 -0.0021 -1.0000
vn -0.0513 0.2459 -0.9679
vn 0.0026 0.2514 -0.9679
vn 0.0363 -0.1928 -0.9806
vn -0.0123 0.0654 -0.9978
vn 0.0017 0.0003 -1.0000
vn 0.0295 -0.1939 -0.9806
vn 0.0123 -0.0654 0.9978
vn 0.0363 -0.1928 0.9806
vn 0.0329 -0.1934 0.9806
vn -0.0018 -0.0003 1.0000
vn 0.1848 -0.9828 -0.0000
vn 0.1673 -0.9859 -0.0000
vn 0.1498 -0.9887 -0.0000
vn -0.0363 0.1928 -0.9806
vn -0.0328 0.1934 -0.9806
vn -0.1848 0.9828 -0.0000
vn -0.1673 0.9859 -0.0000
vn -0.1498 0.9887 -0.0000
vn -0.0363 0.1928 0.9806
vn -0.0294 0.1939 0.9806
vn 0.0017 0.0002 -1.0000
vn 0.0196 -0.1952 -0.9806
vn 0.0227 -0.1948 0.9806
vn -0.0016 -0.0001 1.0000
vn 0.0992 -0.9951 -0.0000
vn -0.0227 0.1948 -0.9806
vn -0.0195 0.1952 0.9806
vn 0.0020 0.0038 -1.0000
vn 0.0084 -0.1921 -0.9813
vn 0.0122 -0.1957 0.9806
vn -0.0024 0.0333 0.9994
vn 0.0622 -0.9981 -0.0000
vn 0.0415 -0.9991 -0.0000
vn -0.0119 0.1958 -0.9806
vn -0.0502 0.9987 -0.0000
vn -0.0099 0.1959 0.9806
vn 0.0045 -0.1904 0.9817
vn -0.0005 0.0170 0.9999
vn 0.0209 -0.9998 -0.0000
vn -0.0046 0.2071 0.9783
vn -0.0176 0.9998 -0.0000
vn -0.0046 0.2071 -0.9783
vn 0.0011 -0.0553 -0.9985
vn 0.0039 -0.1846 -0.9828
vn 1.0000 -0.0000 -0.0000
vn -0.9776 -0.2107 -0.0000
vn -0.9775 -0.2107 -0.0000
vn 0.0262 -0.9997 -0.0000
vn -0.9999 -0.0124 -0.0000
vn 0.0061 -0.2317 -0.9728
vn -0.0010 0.0792 -0.9969
vn 0.0021 -0.0791 -0.9969
vn -0.0021 0.0791 0.9969
vn 0.0010 -0.0791 0.9969
vn 0.0061 -0.2317 0.9728
vn 1.0000 -0.0023 -0.0000
vn -0.0061 0.2317 0.9728
vn -0.0262 0.9997 -0.0000
vn -0.0061 0.2317 -0.9728
vt 0.352875 0.633003
vt 0.487720 0.624855
vt 0.488281 0.599537
vt 0.352092 0.606343
vt 0.487645 0.574219
vt 0.351308 0.579684
vt 0.240814 0.597448
vt 0.138009 0.623971
vt 0.140166 0.650346
vt 0.242306 0.623994
vt 0.243799 0.650540
vt 0.142322 0.676721
vt 0.017551 0.722656
vt 0.011719 0.669544
vt 0.014008 0.696362
vt 0.016650 0.722656
vt 0.014184 0.699027
vt 0.139093 0.650501
vt 0.140917 0.674377
vt 0.011719 0.675397
vt 0.137269 0.626624
vt 0.241684 0.622251
vt 0.242951 0.646281
vt 0.240416 0.598221
vt 0.351952 0.603328
vt 0.352622 0.627461
vt 0.351283 0.579196
vt 0.488281 0.621609
vt 0.488281 0.595868
vt 0.488281 0.574219
vt 0.628906 0.511340
vt 0.628906 0.394910
vt 0.687500 0.542969
vt 0.687500 0.363281
vt 0.746094 0.394910
vt 0.746094 0.511340
vt 0.629684 0.397023
vt 0.628906 0.397023
vt 0.628906 0.509225
vt 0.687088 0.542969
vt 0.687889 0.542969
vt 0.629684 0.509225
vt 0.687889 0.363281
vt 0.687088 0.363281
vt 0.745271 0.397025
vt 0.746094 0.509227
vt 0.746094 0.397025
vt 0.745271 0.509227
s 1
f 613/338/650 610/339/651 611/338/652
f 610/339/651 612/339/651 611/338/652
f 616/340/653 612/339/654 610/339/654
f 610/339/655 613/338/656 614/341/657
f 615/340/658 610/339/655 614/341/657
f 615/340/659 616/340/653 610/339/654
f 616/340/660 618/342/661 617/341/662
f 612/339/663 616/340/660 617/341/662
f 618/342/664 616/340/653 615/340/659
f 619/342/664 618/342/664 615/340/659
f 618/342/665 619/342/665 620/343/666
f 618/342/661 620/343/667 617/341/662
f 620/343/667 621/344/668 617/341/662
f 623/344/669 621/344/670 620/343/666
f 619/342/665 622/343/666 620/343/666
f 622/343/666 623/344/669 620/343/666
f 623/344/669 624/345/671 621/344/670
f 625/346/672 624/345/673 623/344/674
f 626/347/675 625/346/672 623/344/674
f 626/347/675 623/344/674 622/343/676
f 614/341/657 626/347/675 622/343/676
f 627/348/677 626/347/675 614/341/657
f 628/349/678 625/346/672 626/347/675
f 627/348/677 628/349/678 626/347/675
f 630/350/679 629/350/679 628/349/680
f 628/349/678 629/350/681 625/346/672
f 631/349/682 630/350/679 628/349/680
f 631/349/682 628/349/680 627/348/683
f 632/346/684 631/349/685 633/348/686
f 630/350/687 631/349/685 632/346/684
f 633/348/688 631/349/682 627/348/683
f 634/347/689 632/346/684 633/348/686
f 633/348/688 627/348/683 613/338/650
f 634/347/689 633/348/686 611/338/690
f 611/338/652 633/348/688 613/338/650
f 621/344/668 634/347/689 617/341/662
f 621/344/668 635/345/691 634/347/689
f 635/345/691 632/346/684 634/347/689
f 617/341/662 634/347/689 611/338/690
f 624/345/671 635/345/692 621/344/670
f 624/345/671 636/351/693 635/345/692
f 636/351/693 637/351/693 635/345/692
f 635/345/691 637/351/694 632/346/684
f 638/352/695 637/351/696 636/351/696
f 637/351/694 638/352/697 632/346/684
f 639/352/698 638/352/695 636/351/696
f 630/350/699 638/352/695 639/352/698
f 638/352/697 630/350/687 632/346/684
f 629/350/699 630/350/699 639/352/698
f 629/350/681 639/352/700 625/346/672
f 639/352/700 636/351/701 625/346/672
f 636/351/701 624/345/673 625/346/672
f 613/338/656 627/348/677 614/341/657
f 622/343/676 619/342/702 614/341/657
f 619/342/702 615/340/658 614/341/657
f 611/338/690 612/339/663 617/341/662
f 646/353/703 650/354/704 656/355/705
f 652/356/706 646/353/703 656/355/705
f 651/354/707 648/353/708 654/356/709
f 657/355/710 651/354/707 654/356/709
f 648/353/711 646/353/711 652/356/712
f 654/356/713 648/353/711 652/356/712
f 650/354/704 647/357/714 653/358/715
f 656/355/705 650/354/704 653/358/715
f 647/357/716 649/357/716 655/358/717
f 653/358/718 647/357/716 655/358/717
f 649/357/719 651/354/707 657/355/710
f 655/358/720 649/357/719 657/355/710
f 652/356/706 656/355/705 662/359/721
f 658/360/722 652/356/706 662/359/721
f 657/355/710 654/356/709 660/360/723
f 663/359/724 657/355/710 660/360/723
f 654/356/713 652/356/712 658/360/683
f 660/360/725 654/356/713 658/360/683
f 656/355/705 653/358/715 659/361/726
f 662/359/721 656/355/705 659/361/726
f 653/358/718 655/358/717 661/361/670
f 659/361/669 653/358/718 661/361/670
f 655/358/720 657/355/710 663/359/724
f 661/361/727 655/358/720 663/359/724
f 658/360/722 662/359/721 668/362/728
f 664/363/729 658/360/722 668/362/728
f 663/359/724 660/360/723 666/363/730
f 669/362/731 663/359/724 666/363/730
f 660/360/725 658/360/683 664/363/732
f 666/363/733 660/360/725 664/363/732
f 662/359/721 659/361/726 665/364/734
f 668/362/728 662/359/721 665/364/734
f 659/361/669 661/361/670 667/364/735
f 665/364/735 659/361/669 667/364/735
f 661/361/727 663/359/724 669/362/731
f 667/364/736 661/361/727 669/362/731
f 642/365/737 645/366/738 669/362/731
f 666/363/730 642/365/737 669/362/731
f 640/365/739 642/365/739 666/363/733
f 664/363/732 640/365/739 666/363/733
f 643/367/740 667/364/736 669/362/731
f 645/366/738 643/367/740 669/362/731
f 641/367/741 665/364/735 667/364/735
f 643/367/741 641/367/741 667/364/735
f 641/367/742 644/366/743 668/362/728
f 665/364/734 641/367/742 668/362/728
f 644/366/743 640/365/744 664/363/729
f 668/362/728 644/366/743 664/363/729
f 643/367/745 645/366/745 644/366/745
f 641/367/745 643/367/745 644/366/745
f 645/366/745 642/365/745 640/365/745
f 644/366/745 645/366/745 640/365/745
f 670/368/746 672/369/746 671/370/746
f 672/369/746 673/371/746 671/370/746
f 673/371/746 674/372/747 675/373/746
f 671/370/746 673/371/746 675/373/746
f 681/374/748 677/375/748 676/376/748
f 677/375/749 678/377/749 676/376/749
f 676/376/750 678/377/751 679/378/752
f 680/379/750 676/376/750 679/378/752
f 680/379/748 681/374/748 676/376/748
f 683/380/753 682/381/754 681/374/755
f 682/381/754 677/375/755 681/374/755
f 680/379/756 679/378/756 681/374/756
f 683/380/756 681/374/756 679/378/756
f 686/382/757 682/381/754 683/380/753
f 684/383/756 683/380/756 679/378/756
f 684/383/756 685/384/756 683/380/756
f 685/384/757 686/382/757 683/380/753
f 687/385/758 686/382/758 685/384/758
f 687/385/749 678/377/749 686/382/749
f 686/382/749 678/377/749 682/381/749
f 678/377/751 687/385/759 684/383/759
f 684/383/758 687/385/758 685/384/758
f 679/378/752 678/377/751 684/383/759
f 678/377/749 677/375/749 682/381/749
