# Blender 5.2.0 LTS
# www.blender.org
o blade
v -32.792900 -3.202400 -2.265600
v 41.740303 -1.959198 2.265600
v 41.740303 -1.959199 -2.265600
v -32.792900 -3.202400 2.265600
v -35.379101 -3.202400 2.265600
v -35.379101 -3.202400 -2.265600
v -32.792900 3.631000 -3.566900
v -35.379101 3.631000 -3.566900
v -32.792900 9.427600 -2.265601
v 41.740299 9.180600 -2.265601
v 41.740292 3.610700 -3.566900
v 41.740299 9.180600 2.265599
v 41.740292 3.610700 3.566900
v -32.792900 3.631000 3.566900
v -32.792900 9.427600 2.265599
v -35.379101 9.427600 -2.265601
v -35.379101 9.427600 2.265599
v -35.379101 3.631000 3.566900
v -38.564400 -1.345900 -0.480300
v -110.010300 1.677400 -0.566300
v -38.564400 3.406400 -0.566300
v -109.795494 -3.068699 -0.480300
v -38.564400 -1.345900 0.480300
v -109.795494 -3.068699 0.480300
v -38.564400 3.406400 0.566300
v -110.010300 1.677400 0.566300
v -38.564400 8.158600 -0.000001
v -110.225204 6.423400 -0.000000
v -170.362183 -3.336298 -0.566300
v -170.769089 1.393901 -0.000000
v -227.097382 -6.114900 0.000000
v -226.511780 -10.821399 -0.566299
v -170.362183 -3.336298 0.566300
v -226.511780 -10.821399 0.566301
v -169.955399 -8.066401 0.480301
v -225.926300 -15.527599 0.480301
v -169.955399 -8.066401 -0.480299
v -225.926300 -15.527599 -0.480299
v -285.119110 -26.427000 -0.480298
v -285.119110 -26.427000 0.480302
v -281.382904 -20.574402 -0.566298
v -283.795776 -16.482498 0.000001
v -288.616211 -21.934000 0.000002
v -281.382904 -20.574402 0.566302
v -290.956207 -27.484400 0.000002
v -34.015800 -2.157500 -1.099300
v -42.484100 -2.225600 1.099300
v -34.015800 -2.157500 1.099300
v -42.484100 -2.225600 -1.099300
v -34.015800 3.610700 -1.295900
v -42.484100 3.542600 -1.295900
v -34.015800 8.765900 -0.723001
v -34.015800 8.765900 0.722999
v -42.484100 8.697800 -0.723001
v -42.484100 8.697800 0.722999
v -34.015800 3.610700 1.295900
v -42.484100 3.542600 1.295900
v -34.864811 3.600161 0.000003
v -34.864811 3.600161 14.718198
v -34.859154 -5.331424 14.332384
v -34.855064 -11.876558 8.278098
v -34.838463 -12.288182 0.000007
v -34.855061 -11.876547 -8.278075
v -34.859154 -5.331426 -14.332380
v -34.864811 3.600162 -14.718192
v -34.870441 12.535290 -14.334874
v -34.874573 19.075245 -8.276149
v -34.891159 19.488501 -0.000001
v -34.874573 19.075268 8.275996
v -34.870441 12.535280 14.334866
v -37.428440 19.080307 8.277899
v -37.424347 12.535226 14.332388
v -37.418690 3.603639 0.000003
v -37.418690 3.603638 14.718198
v -37.413059 -5.331476 14.334862
v -37.408928 -11.871442 8.276157
v -37.392342 -12.284704 0.000007
v -37.408928 -11.871445 -8.276140
v -37.413059 -5.331493 -14.334882
v -37.418690 3.603640 -14.718192
v -37.424347 12.535228 -14.332381
v -37.428436 19.080355 -8.278086
v -37.445038 19.491983 -0.000001
vn 0.0083 -1.0000 -0.0000
vn 0.0167 -0.9999 -0.0000
vn 0.0016 -0.1871 -0.9823
vn 0.0006 -0.0180 -0.9998
vn 0.0015 -0.2073 -0.9783
vn -0.0000 -1.0000 -0.0000
vn -0.0000 -0.1871 -0.9823
vn -0.0000 0.0852 -0.9964
vn 0.0004 0.2190 -0.9757
vn 0.0004 0.2233 -0.9747
vn -0.0000 -0.0000 -1.0000
vn 1.0000 -0.0000 -0.0000
vn 0.0005 0.0095 1.0000
vn 0.0003 0.0747 0.9972
vn 0.0003 0.2218 0.9751
vn 0.0015 -0.2073 0.9783
vn 0.0008 0.2275 0.9738
vn 0.0017 1.0000 -0.0000
vn -0.0000 1.0000 -0.0000
vn 0.0033 1.0000 -0.0000
vn -0.0000 0.2190 0.9757
vn -0.0000 -0.0527 0.9986
vn 0.0016 -0.1871 0.9823
vn -0.0000 -0.1871 0.9823
vn -0.0000 0.2190 -0.9757
vn 0.0010 -0.0181 -0.9998
vn -0.0015 0.0274 -0.9996
vn 0.0004 -0.0181 -0.9998
vn -0.0018 0.0730 -0.9973
vn 0.0535 -0.9986 -0.0000
vn 0.0242 -0.9997 -0.0000
vn 0.0536 -0.9986 -0.0000
vn 0.0010 -0.0181 0.9998
vn 0.0004 -0.0181 0.9998
vn -0.0007 0.0274 0.9996
vn -0.0039 0.0729 0.9973
vn -0.0029 0.1183 0.9930
vn -0.0063 0.1182 0.9930
vn -0.0029 0.1184 0.9930
vn -0.0063 0.1182 -0.9930
vn -0.0029 0.1183 -0.9930
vn -0.0049 0.0501 -0.9987
vn -0.0136 0.1177 -0.9930
vn -0.0118 0.1179 0.9930
vn -0.0095 0.0634 -0.9979
vn -0.0196 0.1194 -0.9927
vn -0.0187 0.1189 0.9927
vn -0.0059 0.0502 0.9987
vn -0.0057 0.0362 0.9993
vn 0.0020 -0.0180 0.9998
vn 0.0992 -0.9951 -0.0000
vn 0.1485 -0.9889 -0.0000
vn 0.1157 -0.9933 -0.0000
vn 0.0028 -0.0179 0.9998
vn 0.1648 -0.9863 -0.0000
vn 0.0020 -0.0180 -0.9998
vn 0.0028 -0.0179 -0.9998
vn -0.0360 0.0548 -0.9978
vn 0.1797 -0.9837 -0.0000
vn -0.0571 0.0202 -0.9982
vn -0.0891 0.0532 -0.9946
vn -0.0582 0.1031 -0.9930
vn -0.0887 0.0374 -0.9954
vn -0.0361 0.0549 0.9978
vn -0.0582 0.1031 0.9930
vn -0.0891 0.0532 0.9946
vn -0.0887 0.0374 0.9954
vn -0.0571 0.0202 0.9982
vn 0.1783 -0.9840 -0.0000
vn 0.0080 -1.0000 -0.0000
vn -0.0003 0.0141 -0.9999
vn 0.0003 -0.0341 -0.9994
vn -0.0003 0.0624 -0.9981
vn -0.0009 0.1105 -0.9939
vn -0.0080 1.0000 -0.0000
vn -1.0000 -0.0000 -0.0000
vn -0.0003 0.0624 0.9981
vn -0.0009 0.1105 0.9939
vn -0.0003 0.0141 0.9999
vn 0.0003 -0.0341 0.9994
vn 1.0000 0.0006 -0.0000
vn 1.0000 0.0010 -0.0000
vn 1.0000 0.0011 0.0009
vn 1.0000 0.0017 -0.0000
vn 1.0000 0.0011 -0.0009
vn -0.0007 0.4534 0.8913
vn -0.0008 0.3135 0.9496
vn -0.0001 0.0583 0.9983
vn 0.0019 0.9456 0.3254
vn 0.0020 0.8567 0.5158
vn -1.0000 -0.0006 -0.0000
vn -1.0000 -0.0011 0.0009
vn -1.0000 -0.0010 -0.0000
vn 0.0001 -0.0583 0.9983
vn 0.0008 -0.3135 0.9496
vn 0.0007 -0.4534 0.8913
vn -0.0020 -0.8567 0.5158
vn -0.0019 -0.9456 0.3254
vn -1.0000 -0.0011 -0.0009
vn -1.0000 -0.0017 -0.0000
vn -0.0016 -0.9938 -0.1108
vn -0.0016 -0.9938 0.1109
vn -0.0020 -0.8562 -0.5167
vn -0.0019 -0.9457 -0.3251
vn 0.0008 -0.3136 -0.9496
vn 0.0007 -0.4541 -0.8910
vn 0.0001 -0.0585 -0.9983
vn -0.0001 0.0585 -0.9983
vn -0.0008 0.3136 -0.9496
vn -0.0007 0.4541 -0.8910
vn 0.0020 0.8562 -0.5167
vn 0.0019 0.9457 -0.3251
vn 0.0016 0.9938 -0.1108
vn 0.0016 0.9938 0.1109
vt 0.023508 0.535156
vt 0.363281 0.519007
vt 0.023508 0.446391
vt 0.011719 0.535156
vt 0.011719 0.446391
vt 0.023508 0.371094
vt 0.363281 0.374302
vt 0.363281 0.446655
vt 0.011719 0.371094
vt 0.353784 0.833084
vt 0.353378 0.802916
vt 0.488281 0.822133
vt 0.488281 0.791926
vt 0.488281 0.761719
vt 0.352972 0.772748
vt 0.239423 0.834785
vt 0.238654 0.804718
vt 0.133402 0.882364
vt 0.132296 0.852447
vt 0.240191 0.864852
vt 0.134507 0.912279
vt 0.029795 0.944358
vt 0.022740 0.981560
vt 0.016137 0.953000
vt 0.025239 0.918348
vt 0.011719 0.988281
vt 0.628906 0.542969
vt 0.629632 0.363281
vt 0.691131 0.363281
vt 0.690405 0.542969
vt 0.746094 0.363281
vt 0.745368 0.542969
vt 0.544922 0.375318
vt 0.500000 0.363281
vt 0.500000 0.453125
vt 0.455078 0.375318
vt 0.422193 0.408203
vt 0.410156 0.453125
vt 0.422193 0.498047
vt 0.455078 0.530932
vt 0.500000 0.542969
vt 0.544922 0.530932
vt 0.577807 0.498047
vt 0.589844 0.453125
vt 0.577807 0.408204
s 1
f 4/1/1 1/1/1 2/2/2
f 1/1/1 3/2/2 2/2/2
f 1/1/3 7/3/4 3/2/5
f 1/1/1 4/1/1 5/4/6
f 6/4/6 1/1/1 5/4/6
f 7/3/4 1/1/3 6/4/7
f 8/5/8 7/3/4 6/4/7
f 9/6/9 7/3/4 8/5/8
f 7/3/4 9/6/9 10/7/10
f 7/3/4 11/8/11 3/2/5
f 11/8/11 7/3/4 10/7/10
f 3/2/12 11/8/12 13/8/12
f 11/8/12 10/7/12 12/7/12
f 13/8/12 11/8/12 12/7/12
f 14/3/13 13/8/14 15/6/15
f 2/2/16 13/8/14 14/3/13
f 2/2/12 3/2/12 13/8/12
f 13/8/14 12/7/17 15/6/15
f 15/6/18 9/6/18 16/9/19
f 9/6/18 15/6/18 10/7/20
f 15/6/18 12/7/20 10/7/20
f 17/9/19 15/6/18 16/9/19
f 14/3/13 15/6/15 17/9/21
f 18/5/22 14/3/13 17/9/21
f 4/1/23 14/3/13 18/5/22
f 5/4/24 4/1/23 18/5/22
f 16/9/25 9/6/9 8/5/8
f 4/1/23 2/2/16 14/3/13
f 22/10/26 20/11/27 19/12/28
f 20/11/27 21/13/29 19/12/28
f 22/10/30 19/12/31 23/12/31
f 24/10/30 22/10/32 23/12/31
f 24/10/33 23/12/34 25/13/35
f 26/11/36 24/10/33 25/13/35
f 26/11/36 25/13/35 27/14/37
f 28/15/38 26/11/36 27/14/39
f 28/15/40 27/14/41 21/13/29
f 20/11/27 29/16/42 28/15/40
f 29/16/42 30/17/43 28/15/40
f 28/15/38 30/17/44 26/11/36
f 20/11/27 28/15/40 21/13/29
f 32/18/45 31/19/46 30/17/43
f 30/17/44 31/19/47 33/16/48
f 29/16/42 32/18/45 30/17/43
f 30/17/44 33/16/48 26/11/36
f 31/19/47 34/18/49 33/16/48
f 26/11/36 33/16/48 24/10/33
f 33/16/48 35/20/50 24/10/33
f 33/16/48 34/18/49 35/20/50
f 35/20/51 36/21/52 37/20/53
f 34/18/49 36/21/54 35/20/50
f 35/20/51 37/20/53 22/10/32
f 24/10/30 35/20/51 22/10/32
f 36/21/52 38/21/55 37/20/53
f 37/20/56 38/21/57 29/16/42
f 37/20/56 29/16/42 20/11/27
f 22/10/26 37/20/56 20/11/27
f 38/21/57 32/18/45 29/16/42
f 41/22/58 32/18/45 38/21/57
f 36/21/52 40/23/59 38/21/55
f 40/23/59 39/23/59 38/21/55
f 39/23/60 41/22/58 38/21/57
f 41/22/58 39/23/60 43/24/61
f 41/22/58 42/25/62 31/19/46
f 42/25/62 41/22/58 43/24/61
f 32/18/45 41/22/58 31/19/46
f 39/23/60 45/26/63 43/24/61
f 44/22/64 42/25/65 43/24/66
f 45/26/67 40/23/68 43/24/66
f 40/23/68 44/22/64 43/24/66
f 39/23/59 40/23/59 45/26/69
f 42/25/65 44/22/64 31/19/47
f 44/22/64 40/23/68 36/21/54
f 34/18/49 44/22/64 36/21/54
f 44/22/64 34/18/49 31/19/47
f 49/27/70 46/28/70 47/27/70
f 46/28/70 48/28/70 47/27/70
f 50/29/71 46/28/72 49/27/72
f 51/30/73 50/29/71 49/27/72
f 52/31/74 50/29/71 51/30/73
f 53/31/75 52/31/75 54/32/75
f 54/32/74 52/31/74 51/30/73
f 55/32/75 53/31/75 54/32/75
f 55/32/76 54/32/76 51/30/76
f 56/29/77 53/31/78 55/32/78
f 57/30/76 55/32/76 49/27/76
f 49/27/76 55/32/76 51/30/76
f 57/30/79 56/29/77 55/32/78
f 47/27/76 57/30/76 49/27/76
f 47/27/80 48/28/80 57/30/79
f 48/28/80 56/29/77 57/30/79
f 70/33/81 59/34/81 58/35/82
f 59/34/81 60/36/81 58/35/82
f 60/36/81 61/37/83 58/35/82
f 61/37/83 62/38/84 58/35/82
f 62/38/84 63/39/85 58/35/82
f 63/39/85 64/40/81 58/35/82
f 64/40/81 65/41/81 58/35/82
f 65/41/81 66/42/81 58/35/82
f 66/42/81 67/43/83 58/35/82
f 67/43/83 68/44/84 58/35/82
f 68/44/84 69/45/85 58/35/82
f 69/45/85 70/33/81 58/35/82
f 70/33/86 72/33/87 59/34/88
f 69/45/89 71/45/90 70/33/86
f 71/45/90 72/33/87 70/33/86
f 72/33/91 71/45/92 73/35/93
f 74/34/91 72/33/91 73/35/93
f 72/33/87 74/34/94 59/34/88
f 59/34/88 74/34/94 60/36/95
f 74/34/94 75/36/96 60/36/95
f 75/36/91 74/34/91 73/35/93
f 60/36/95 75/36/96 61/37/97
f 75/36/96 76/37/98 61/37/97
f 76/37/99 75/36/91 73/35/93
f 77/38/100 76/37/99 73/35/93
f 76/37/98 77/38/101 62/38/102
f 61/37/97 76/37/98 62/38/102
f 78/39/92 77/38/100 73/35/93
f 77/38/101 78/39/103 63/39/104
f 62/38/102 77/38/101 63/39/104
f 79/40/91 78/39/92 73/35/93
f 78/39/103 79/40/105 64/40/106
f 63/39/104 78/39/103 64/40/106
f 64/40/106 79/40/105 65/41/107
f 79/40/105 80/41/108 65/41/107
f 80/41/91 79/40/91 73/35/93
f 65/41/107 80/41/108 66/42/109
f 80/41/108 81/42/110 66/42/109
f 81/42/91 80/41/91 73/35/93
f 66/42/109 81/42/110 67/43/111
f 81/42/110 82/43/112 67/43/111
f 82/43/99 81/42/91 73/35/93
f 67/43/111 82/43/112 68/44/113
f 82/43/112 83/44/114 68/44/113
f 83/44/100 82/43/99 73/35/93
f 68/44/113 83/44/114 69/45/89
f 83/44/114 71/45/90 69/45/89
f 71/45/92 83/44/100 73/35/93
o blade_damaged
v -38.564400 -1.345900 -0.480300
v -110.010307 1.677400 -0.566300
v -38.564400 3.406400 -0.566300
v -109.795509 -3.068700 -0.480300
v -38.564400 -1.345900 0.480300
v -109.795509 -3.068700 0.480300
v -38.564400 3.406400 0.566300
v -38.564400 8.158600 -0.000001
v -110.010307 1.677400 0.566300
v -110.225204 6.423400 -0.000000
v -32.792900 -2.955400 -2.265600
v 41.740303 -1.959199 2.265600
v 41.740303 -1.959200 -2.265600
v -32.792900 -2.955400 2.265600
v -35.379101 -2.955400 2.265600
v -35.379101 -2.955400 -2.265600
v -32.792900 3.610700 -3.566900
v 41.740292 3.610699 -3.566900
v -35.379101 3.610700 -3.566900
v -32.792900 9.180600 -2.265601
v 41.740299 9.180600 -2.265601
v -32.792900 9.180600 2.265599
v 41.740299 9.180600 2.265599
v 41.740292 3.610700 3.566900
v -32.792900 3.610700 3.566900
v -35.379101 3.610700 3.566900
v -35.379101 9.180600 2.265599
v -35.379101 9.180600 -2.265601
v -34.864807 3.600123 0.000003
v -34.864807 3.600123 14.718282
v -34.859024 -5.331362 14.332397
v -34.854847 -11.876574 8.278175
v -34.837887 -12.288166 0.000007
v -34.854847 -11.876559 -8.278152
v -34.859024 -5.331365 -14.332393
v -34.864807 3.600124 -14.718276
v -34.870560 12.535231 -14.334940
v -34.874779 19.075148 -8.276183
v -34.891727 19.488411 -0.000001
v -34.874779 19.075172 8.276033
v -34.870560 12.535221 14.334933
v -37.428646 19.080320 8.277976
v -37.424465 12.535163 14.332397
v -37.418686 3.603676 14.718282
v -37.418682 3.603677 0.000003
v -37.408710 -11.871348 -8.276175
v -37.412930 -5.331433 -14.334947
v -37.418682 3.603678 -14.718276
v -37.424465 12.535165 -14.332391
v -37.428642 19.080368 -8.278162
v -37.412930 -5.331417 14.334929
v -37.445606 19.491968 -0.000001
v -37.408710 -11.871343 8.276191
v -37.391762 -12.284614 0.000007
v -34.015800 -2.157500 -1.099300
v -42.484100 -2.225600 1.099300
v -34.015800 -2.157500 1.099300
v -42.484100 -2.225600 -1.099300
v -34.015800 3.610700 -1.295900
v -42.484100 3.542600 -1.295900
v -34.015800 8.765900 -0.723001
v -34.015800 8.765900 0.722999
v -42.484100 8.697800 -0.723001
v -42.484100 8.697800 0.722999
v -34.015800 3.610700 1.295900
v -42.484100 3.542600 1.295900
vn 0.0004 -0.0181 -0.9998
vn -0.0007 0.0274 -0.9996
vn -0.0007 0.0275 -0.9996
vn -0.0018 0.0730 -0.9973
vn 0.0242 -0.9997 -0.0000
vn 0.0004 -0.0181 0.9998
vn -0.0007 0.0274 0.9996
vn -0.0018 0.0730 0.9973
vn -0.0029 0.1183 0.9930
vn -0.0029 0.1184 0.9930
vn -0.0029 0.1183 -0.9930
vn -0.0029 0.1184 -0.9930
vn 0.0067 -1.0000 -0.0000
vn 0.0134 -0.9999 -0.0000
vn 0.0013 -0.1944 -0.9809
vn 0.0004 -0.0187 -0.9998
vn 0.0013 -0.2110 -0.9775
vn -0.0000 -1.0000 -0.0000
vn -0.0000 -0.1944 -0.9809
vn -0.0000 -0.0000 -1.0000
vn -0.0000 0.2275 -0.9738
vn -0.0000 0.0886 -0.9961
vn -0.0000 1.0000 -0.0000
vn 1.0000 -0.0000 -0.0000
vn -0.0000 0.0776 0.9970
vn -0.0000 0.2275 0.9738
vn 0.0004 0.0114 0.9999
vn 0.0013 -0.2110 0.9775
vn 0.0013 -0.1944 0.9809
vn -0.0000 -0.0549 0.9985
vn -0.0000 -0.1944 0.9809
vn 1.0000 0.0006 -0.0000
vn 1.0000 0.0010 -0.0000
vn 1.0000 0.0011 0.0009
vn 1.0000 0.0017 -0.0000
vn 1.0000 0.0011 -0.0009
vn -0.0007 0.4534 0.8913
vn -0.0008 0.3135 0.9496
vn -0.0001 0.0583 0.9983
vn 0.0019 0.9456 0.3254
vn 0.0020 0.8567 0.5158
vn 0.0001 -0.0583 0.9983
vn -1.0000 -0.0006 -0.0000
vn -1.0000 -0.0010 -0.0000
vn -1.0000 -0.0011 0.0009
vn -1.0000 -0.0017 -0.0000
vn -1.0000 -0.0011 -0.0009
vn -0.0017 -0.9938 0.1109
vn -0.0017 -0.9938 -0.1108
vn -0.0020 -0.9457 -0.3251
vn -0.0020 -0.9456 0.3254
vn -0.0020 -0.8562 -0.5167
vn -0.0021 -0.8567 0.5158
vn 0.0007 -0.4534 0.8913
vn 0.0017 0.9938 -0.1108
vn 0.0017 0.9938 0.1109
vn 0.0020 0.9457 -0.3251
vn 0.0008 -0.3135 0.9496
vn 0.0020 0.8562 -0.5167
vn -0.0007 0.4541 -0.8910
vn -0.0008 0.3136 -0.9496
vn -0.0001 0.0585 -0.9983
vn 0.0008 -0.3136 -0.9496
vn 0.0001 -0.0585 -0.9983
vn 0.0007 -0.4541 -0.8910
vn 0.0080 -1.0000 -0.0000
vn -0.0003 0.0141 -0.9999
vn 0.0003 -0.0341 -0.9994
vn -0.0003 0.0624 -0.9981
vn -0.0009 0.1105 -0.9939
vn -0.0080 1.0000 -0.0000
vn -1.0000 -0.0000 -0.0000
vn -0.0003 0.0141 0.9999
vn -0.0003 0.0624 0.9981
vn -0.0009 0.1105 0.9939
vn 0.0003 -0.0341 0.9994
vt 0.014576 0.988281
vt 0.013148 0.892507
vt 0.488281 0.953516
vt 0.488281 0.857616
vt 0.488281 0.761719
vt 0.011719 0.796734
vt 0.023508 0.535156
vt 0.363281 0.521689
vt 0.023508 0.446391
vt 0.011719 0.535156
vt 0.363281 0.446391
vt 0.363281 0.371094
vt 0.011719 0.446391
vt 0.023508 0.371094
vt 0.011719 0.371094
vt 0.544922 0.375318
vt 0.500000 0.363281
vt 0.500000 0.453125
vt 0.455078 0.375318
vt 0.422193 0.408203
vt 0.410156 0.453125
vt 0.422193 0.498047
vt 0.455078 0.530932
vt 0.500000 0.542969
vt 0.544922 0.530932
vt 0.577807 0.498047
vt 0.589844 0.453125
vt 0.577807 0.408204
vt 0.628906 0.542969
vt 0.629632 0.363281
vt 0.691131 0.363281
vt 0.690405 0.542969
vt 0.746094 0.363281
vt 0.745368 0.542969
s 1
f 87/46/115 85/47/116 84/48/115
f 85/47/117 86/49/118 84/48/115
f 87/46/119 84/48/119 88/48/119
f 89/46/119 87/46/119 88/48/119
f 89/46/120 88/48/120 90/49/121
f 92/47/122 90/49/121 91/50/123
f 92/47/122 89/46/120 90/49/121
f 93/51/124 92/47/122 91/50/124
f 93/51/125 91/50/125 86/49/118
f 85/47/117 93/51/126 86/49/118
f 97/52/127 94/52/127 95/53/128
f 94/52/127 96/53/128 95/53/128
f 94/52/129 100/54/130 96/53/131
f 94/52/127 97/52/127 98/55/132
f 99/55/132 94/52/127 98/55/132
f 100/54/130 94/52/129 99/55/133
f 101/56/134 100/54/130 104/57/135
f 100/54/130 101/56/134 96/53/131
f 102/58/136 100/54/130 99/55/133
f 103/59/135 100/54/130 102/58/136
f 100/54/130 103/59/135 104/57/135
f 103/59/137 105/59/137 104/57/137
f 105/59/137 106/57/137 104/57/137
f 101/56/138 104/57/138 106/57/138
f 107/56/139 106/57/140 105/59/140
f 107/56/138 101/56/138 106/57/138
f 96/53/138 101/56/138 107/56/138
f 108/54/141 107/56/139 105/59/140
f 95/53/142 107/56/139 108/54/141
f 95/53/138 96/53/138 107/56/138
f 97/52/143 108/54/141 109/58/144
f 97/52/143 95/53/142 108/54/141
f 108/54/141 105/59/140 110/60/140
f 109/58/144 108/54/141 110/60/140
f 110/60/137 105/59/137 111/60/137
f 105/59/137 103/59/137 111/60/137
f 111/60/135 103/59/135 102/58/136
f 98/55/145 97/52/143 109/58/144
f 124/61/146 113/62/146 112/63/147
f 113/62/146 114/64/146 112/63/147
f 114/64/146 115/65/148 112/63/147
f 115/65/148 116/66/149 112/63/147
f 116/66/149 117/67/150 112/63/147
f 117/67/150 118/68/146 112/63/147
f 118/68/146 119/69/146 112/63/147
f 119/69/146 120/70/146 112/63/147
f 120/70/146 121/71/148 112/63/147
f 121/71/148 122/72/149 112/63/147
f 122/72/149 123/73/150 112/63/147
f 123/73/150 124/61/146 112/63/147
f 124/61/151 126/61/152 113/62/153
f 123/73/154 125/73/155 124/61/151
f 125/73/155 126/61/152 124/61/151
f 126/61/152 127/62/156 113/62/153
f 127/62/157 126/61/157 128/63/158
f 126/61/157 125/73/159 128/63/158
f 130/68/157 129/67/159 128/63/158
f 129/67/159 137/66/160 128/63/158
f 131/69/157 130/68/157 128/63/158
f 132/70/157 131/69/157 128/63/158
f 133/71/161 132/70/157 128/63/158
f 134/64/157 127/62/157 128/63/158
f 135/72/160 133/71/161 128/63/158
f 136/65/161 134/64/157 128/63/158
f 125/73/159 135/72/160 128/63/158
f 137/66/160 136/65/161 128/63/158
f 116/66/162 137/66/163 117/67/164
f 136/65/165 137/66/163 116/66/162
f 137/66/163 129/67/166 117/67/164
f 115/65/167 136/65/165 116/66/162
f 134/64/168 136/65/165 115/65/167
f 122/72/169 135/72/170 123/73/154
f 133/71/171 135/72/170 122/72/169
f 135/72/170 125/73/155 123/73/154
f 114/64/172 134/64/168 115/65/167
f 127/62/156 134/64/168 114/64/172
f 121/71/173 133/71/171 122/72/169
f 132/70/174 133/71/171 121/71/173
f 120/70/175 132/70/174 121/71/173
f 131/69/176 132/70/174 120/70/175
f 130/68/177 131/69/176 119/69/178
f 119/69/178 131/69/176 120/70/175
f 129/67/166 130/68/177 118/68/179
f 118/68/179 130/68/177 119/69/178
f 117/67/164 129/67/166 118/68/179
f 113/62/153 127/62/156 114/64/172
f 141/74/180 138/75/180 139/74/180
f 138/75/180 140/75/180 139/74/180
f 142/76/181 138/75/182 141/74/182
f 143/77/183 142/76/181 141/74/182
f 144/78/184 142/76/181 143/77/183
f 145/78/185 144/78/185 146/79/185
f 146/79/184 144/78/184 143/77/183
f 147/79/185 145/78/185 146/79/185
f 147/79/186 146/79/186 143/77/186
f 149/77/187 148/76/188 147/79/189
f 148/76/188 145/78/189 147/79/189
f 149/77/186 147/79/186 141/74/186
f 141/74/186 147/79/186 143/77/186
f 140/75/190 148/76/188 149/77/187
f 139/74/190 140/75/190 149/77/187
f 139/74/186 149/77/186 141/74/186
o blade_fragment
v -285.119080 -26.426998 -0.480298
v -290.956177 -27.484396 0.000002
v -285.119080 -26.426998 0.480302
v -288.616180 -21.933998 0.000002
v -281.382874 -20.574398 -0.566298
v -225.926285 -15.527596 -0.480299
v -226.511765 -10.821397 -0.566299
v -225.926285 -15.527596 0.480301
v -170.362167 -3.336299 -0.566300
v -169.955399 -8.066399 -0.480299
v -169.955399 -8.066399 0.480301
v -110.010292 1.677401 -0.566300
v -109.795486 -3.068699 -0.480300
v -109.795486 -3.068699 0.480300
v -110.010292 1.677401 0.566300
v -170.362167 -3.336299 0.566300
v -226.511765 -10.821397 0.566301
v -170.769089 1.393899 -0.000000
v -227.097382 -6.114900 0.000000
v -281.382874 -20.574398 0.566302
v -283.795776 -16.482498 0.000001
v -110.225189 6.423399 -0.000000
vn -0.0571 0.0202 -0.9982
vn -0.0887 0.0374 -0.9954
vn -0.0891 0.0532 -0.9946
vn 0.1797 -0.9837 -0.0000
vn 0.1783 -0.9840 -0.0000
vn 0.1648 -0.9863 -0.0000
vn -0.0360 0.0548 -0.9978
vn 0.0028 -0.0179 -0.9998
vn -0.0093 0.0634 -0.9979
vn -0.0049 0.0501 -0.9987
vn 0.1485 -0.9889 -0.0000
vn 0.1157 -0.9933 -0.0000
vn 0.0020 -0.0180 -0.9998
vn -0.0023 0.0274 -0.9996
vn 0.0992 -0.9951 -0.0000
vn 0.0828 -0.9966 -0.0000
vn 0.0015 -0.0180 -0.9998
vn -0.0060 0.0728 0.9973
vn -0.0059 0.0502 0.9987
vn 0.0015 -0.0180 0.9998
vn 0.0020 -0.0180 0.9998
vn -0.0187 0.1189 0.9927
vn -0.0057 0.0362 0.9993
vn -0.0118 0.1179 0.9930
vn -0.0196 0.1194 -0.9927
vn -0.0582 0.1031 -0.9930
vn -0.0582 0.1031 0.9930
vn -0.0361 0.0549 0.9978
vn -0.0136 0.1177 -0.9930
vn -0.0891 0.0532 0.9946
vn -0.0571 0.0202 0.9982
vn 0.0028 -0.0179 0.9998
vn -0.0098 0.1180 -0.9930
vn -0.0098 0.1180 0.9930
vn -0.0887 0.0374 0.9954
vt 0.027074 0.981216
vt 0.011719 0.988281
vt 0.017874 0.951195
vt 0.182787 0.908389
vt 0.036902 0.942111
vt 0.181247 0.876944
vt 0.328954 0.826930
vt 0.330024 0.858536
vt 0.487716 0.793430
vt 0.488281 0.825142
vt 0.179706 0.845496
vt 0.327884 0.795324
vt 0.030555 0.914770
vt 0.487151 0.761719
s 1
f 150/80/191 151/81/192 153/82/193
f 150/80/194 152/80/194 151/81/195
f 152/80/194 150/80/194 155/83/196
f 154/84/197 150/80/191 153/82/193
f 150/80/191 154/84/197 155/83/198
f 154/84/197 156/85/199 155/83/198
f 155/83/198 156/85/199 158/86/200
f 157/83/201 155/83/196 159/87/202
f 157/83/201 152/80/194 155/83/196
f 159/87/203 155/83/198 158/86/200
f 159/87/203 158/86/200 161/88/204
f 160/87/205 159/87/202 162/89/206
f 160/87/205 157/83/201 159/87/202
f 162/89/207 159/87/203 161/88/204
f 163/89/206 160/87/205 162/89/206
f 164/88/208 165/86/209 163/89/210
f 165/86/209 160/87/211 163/89/210
f 168/90/212 166/85/213 165/86/209
f 165/86/209 166/85/213 160/87/211
f 167/91/214 165/86/209 164/88/208
f 167/91/214 168/90/212 165/86/209
f 156/85/199 154/84/197 168/90/215
f 154/84/197 170/92/216 168/90/215
f 170/92/217 169/84/218 168/90/212
f 169/84/218 166/85/213 168/90/212
f 156/85/199 168/90/215 167/91/219
f 169/84/218 170/92/217 153/82/220
f 170/92/216 154/84/197 153/82/193
f 152/80/221 169/84/218 153/82/220
f 166/85/213 169/84/218 157/83/222
f 169/84/218 152/80/221 157/83/222
f 158/86/200 167/91/219 171/93/223
f 158/86/200 156/85/199 167/91/219
f 171/93/224 167/91/214 164/88/208
f 161/88/204 158/86/200 171/93/223
f 166/85/213 157/83/222 160/87/211
f 151/81/225 152/80/221 153/82/220
o sheath
v -35.451401 -3.580700 -3.002900
v -109.579697 -5.895001 3.325500
v -35.451401 -3.580699 3.002900
v -109.579697 -5.895002 -3.325500
v -110.010307 1.677399 -5.574100
v -35.143002 3.610700 -4.606400
v -35.143002 3.610700 4.606400
v -110.010307 1.677400 5.574100
v -35.492500 10.802100 3.002899
v -35.492500 10.802100 -3.002901
v -110.441002 9.249801 3.325499
v -171.182922 4.204000 3.325500
v -110.441002 9.249801 -3.325501
v -171.182922 4.203999 -3.325500
v -227.697296 -3.329800 -3.325500
v -226.511810 -10.821400 -5.574099
v -170.362198 -3.336300 -5.574100
v -169.541702 -10.876499 -3.325499
v -225.326523 -18.312904 -3.325499
v -293.916687 -31.360498 -3.220098
v -293.916687 -31.360498 3.220102
v -225.326523 -18.312904 3.325501
v -226.511810 -10.821400 5.574101
v -169.541702 -10.876499 3.325501
v -170.362198 -3.336299 5.574100
v -227.697296 -3.329799 3.325500
v -297.122711 -16.274298 -3.220099
v -297.122711 -16.274298 3.220101
v -295.864502 -23.891701 4.939602
v -295.864502 -23.891701 -4.939598
v -35.395100 -3.166101 -2.357800
v -35.395100 9.390301 -2.357801
v -35.395100 -3.166101 2.357800
v -35.395100 9.390301 2.357799
v -35.395100 3.654000 -3.638800
v -35.395100 3.654000 3.638800
v -293.527161 -29.939701 -2.357798
v -296.226044 -17.417904 -2.357799
v -293.527161 -29.939701 2.357802
v -296.226044 -17.417904 2.357801
v -294.876526 -23.678806 -3.638798
v -294.876526 -23.678806 3.638802
v -225.513535 -17.147701 -2.357799
v -227.510345 -4.494902 -2.357800
v -225.513535 -17.147701 2.357801
v -227.510345 -4.494902 2.357800
v -226.511841 -10.821404 -3.638799
v -226.511841 -10.821404 3.638801
v -169.668533 -9.703203 -2.357799
v -171.056015 3.030700 -2.357800
v -169.668533 -9.703203 2.357801
v -171.056015 3.030701 2.357800
v -170.362213 -3.336300 -3.638800
v -170.362213 -3.336299 3.638800
v -109.644005 -4.716802 -2.357800
v -110.376709 8.071601 -2.357801
v -109.644005 -4.716802 2.357800
v -110.376709 8.071601 2.357799
v -110.010315 1.677400 -3.638800
v -110.010315 1.677400 3.638800
v -293.527161 -29.939701 -2.357798
v -294.876526 -23.678806 -3.638798
v -293.527161 -29.939701 2.357802
v -294.876526 -23.678806 3.638802
v -296.226044 -17.417904 2.357801
v -296.226044 -17.417904 -2.357799
v -93.235199 -4.707600 -2.701900
v -93.235199 -4.707600 2.702000
v -93.320099 2.114100 -4.327100
v -89.733589 2.208000 -4.327100
v -89.749298 -4.616400 -2.701900
v -89.749298 -4.616400 2.702000
v -93.320099 2.114100 4.327100
v -89.733589 2.208000 4.327100
v -89.717903 9.032400 -2.702001
v -89.717903 9.032400 2.701899
v -93.404900 8.935900 2.701899
v -93.404900 8.935900 -2.702001
vn 0.0656 -0.9978 -0.0000
vn 0.0312 -0.9995 -0.0000
vn 0.0484 -0.9988 -0.0000
vn 0.9999 -0.0124 -0.0000
vn 0.9991 -0.0428 -0.0000
vn 0.0157 -0.2513 -0.9678
vn 0.0183 -0.2837 -0.9588
vn 0.0089 -0.0420 -0.9991
vn 0.0129 -0.0001 -0.9999
vn 0.9998 0.0181 -0.0000
vn 0.0129 -0.0001 0.9999
vn 0.0026 0.2514 0.9679
vn 0.0019 0.0420 0.9991
vn 0.0156 -0.2513 0.9678
vn 0.9988 0.0485 -0.0000
vn -0.0207 0.9998 -0.0000
vn -0.0518 0.9987 -0.0000
vn -0.0127 0.2840 0.9587
vn -0.0283 0.2828 0.9588
vn -0.0993 0.9951 -0.0000
vn -0.1157 0.9933 -0.0000
vn -0.1492 0.9888 -0.0000
vn -0.0084 0.0411 -0.9991
vn -0.0455 0.2806 -0.9588
vn -0.0329 0.2823 -0.9588
vn 0.0024 0.0003 -1.0000
vn -0.0162 0.2838 -0.9588
vn 0.0282 -0.2828 -0.9587
vn 0.0424 -0.2811 -0.9588
vn 0.1869 -0.9824 -0.0000
vn 0.1687 -0.9857 -0.0000
vn 0.0418 -0.2481 -0.9678
vn 0.1504 -0.9886 -0.0000
vn 0.1157 -0.9933 -0.0000
vn 0.0028 -0.0424 0.9991
vn 0.0447 -0.2807 0.9588
vn 0.0328 -0.2823 0.9588
vn 0.0418 -0.2481 0.9678
vn 0.0993 -0.9951 -0.0000
vn -0.0024 -0.0003 1.0000
vn 0.0200 -0.2836 0.9587
vn -0.0429 0.2810 0.9588
vn -0.1663 0.9861 -0.0000
vn -0.1833 0.9831 -0.0000
vn -0.0513 0.2459 0.9679
vn -0.9812 -0.1929 -0.0000
vn -0.9866 -0.1630 -0.0000
vn -0.0087 -0.0021 1.0000
vn -0.9749 -0.2228 -0.0000
vn -0.9676 -0.2524 -0.0000
vn -0.0088 -0.0021 -1.0000
vn -0.0513 0.2459 -0.9679
vn 0.0026 0.2514 -0.9679
vn 0.0363 -0.1928 -0.9806
vn -0.0123 0.0654 -0.9978
vn 0.0017 0.0003 -1.0000
vn 0.0295 -0.1939 -0.9806
vn 0.0123 -0.0654 0.9978
vn 0.0363 -0.1928 0.9806
vn 0.0329 -0.1934 0.9806
vn -0.0018 -0.0003 1.0000
vn 0.1848 -0.9828 -0.0000
vn 0.1673 -0.9859 -0.0000
vn 0.1498 -0.9887 -0.0000
vn -0.0363 0.1928 -0.9806
vn -0.0328 0.1934 -0.9806
vn -0.1848 0.9828 -0.0000
vn -0.1673 0.9859 -0.0000
vn -0.1498 0.9887 -0.0000
vn -0.0363 0.1928 0.9806
vn -0.0294 0.1939 0.9806
vn 0.0017 0.0002 -1.0000
vn 0.0196 -0.1952 -0.9806
vn 0.0227 -0.1948 0.9806
vn -0.0016 -0.0001 1.0000
vn 0.0992 -0.9951 -0.0000
vn -0.0227 0.1948 -0.9806
vn -0.0195 0.1952 0.9806
vn 0.0020 0.0038 -1.0000
vn 0.0084 -0.1921 -0.9813
vn 0.0122 -0.1957 0.9806
vn -0.0024 0.0333 0.9994
vn 0.0622 -0.9981 -0.0000
vn 0.0415 -0.9991 -0.0000
vn -0.0119 0.1958 -0.9806
vn -0.0502 0.9987 -0.0000
vn -0.0099 0.1959 0.9806
vn 0.0045 -0.1904 0.9817
vn -0.0005 0.0170 0.9999
vn 0.0209 -0.9998 -0.0000
vn -0.0046 0.2071 0.9783
vn -0.0176 0.9998 -0.0000
vn -0.0046 0.2071 -0.9783
vn 0.0011 -0.0553 -0.9985
vn 0.0039 -0.1846 -0.9828
vn 1.0000 -0.0000 -0.0000
vn -0.9776 -0.2107 -0.0000
vn -0.9775 -0.2107 -0.0000
vn 0.0262 -0.9997 -0.0000
vn -0.9999 -0.0124 -0.0000
vn 0.0061 -0.2317 -0.9728
vn -0.0010 0.0792 -0.9969
vn 0.0021 -0.0791 -0.9969
vn -0.0021 0.0791 0.9969
vn 0.0010 -0.0791 0.9969
vn 0.0061 -0.2317 0.9728
vn 1.0000 -0.0023 -0.0000
vn -0.0061 0.2317 0.9728
vn -0.0262 0.9997 -0.0000
vn -0.0061 0.2317 -0.9728
vt 0.352875 0.633003
vt 0.487720 0.624855
vt 0.488281 0.599537
vt 0.352092 0.606343
vt 0.487645 0.574219
vt 0.351308 0.579684
vt 0.240814 0.597448
vt 0.138009 0.623971
vt 0.140166 0.650346
vt 0.242306 0.623994
vt 0.243799 0.650540
vt 0.142322 0.676721
vt 0.017551 0.722656
vt 0.011719 0.669544
vt 0.014008 0.696362
vt 0.016650 0.722656
vt 0.014184 0.699027
vt 0.139093 0.650501
vt 0.140917 0.674377
vt 0.011719 0.675397
vt 0.137269 0.626624
vt 0.241684 0.622251
vt 0.242951 0.646281
vt 0.240416 0.598221
vt 0.351952 0.603328
vt 0.352622 0.627461
vt 0.351283 0.579196
vt 0.488281 0.621609
vt 0.488281 0.595868
vt 0.488281 0.574219
vt 0.628906 0.511340
vt 0.628906 0.394910
vt 0.687500 0.542969
vt 0.687500 0.363281
vt 0.746094 0.394910
vt 0.746094 0.511340
vt 0.629684 0.397023
vt 0.628906 0.397023
vt 0.628906 0.509225
vt 0.687088 0.542969
vt 0.687889 0.542969
vt 0.629684 0.509225
vt 0.687889 0.363281
vt 0.687088 0.363281
vt 0.745271 0.397025
vt 0.746094 0.509227
vt 0.746094 0.397025
vt 0.745271 0.509227
s 1
f 175/94/226 172/95/227 173/94/228
f 172/95/227 174/95/227 173/94/228
f 178/96/229 174/95/230 172/95/230
f 172/95/231 175/94/232 176/97/233
f 177/96/234 172/95/231 176/97/233
f 177/96/235 178/96/229 172/95/230
f 178/96/236 180/98/237 179/97/238
f 174/95/239 178/96/236 179/97/238
f 180/98/240 178/96/229 177/96/235
f 181/98/240 180/98/240 177/96/235
f 180/98/241 181/98/241 182/99/242
f 180/98/237 182/99/243 179/97/238
f 182/99/243 183/100/244 179/97/238
f 185/100/245 183/100/246 182/99/242
f 181/98/241 184/99/242 182/99/242
f 184/99/242 185/100/245 182/99/242
f 185/100/245 186/101/247 183/100/246
f 187/102/248 186/101/249 185/100/250
f 188/103/251 187/102/248 185/100/250
f 188/103/251 185/100/250 184/99/252
f 176/97/233 188/103/251 184/99/252
f 189/104/253 188/103/251 176/97/233
f 190/105/254 187/102/248 188/103/251
f 189/104/253 190/105/254 188/103/251
f 192/106/255 191/106/255 190/105/256
f 190/105/254 191/106/257 187/102/248
f 193/105/258 192/106/255 190/105/256
f 193/105/258 190/105/256 189/104/259
f 194/102/260 193/105/261 195/104/262
f 192/106/263 193/105/261 194/102/260
f 195/104/264 193/105/258 189/104/259
f 196/103/265 194/102/260 195/104/262
f 195/104/264 189/104/259 175/94/226
f 196/103/265 195/104/262 173/94/266
f 173/94/228 195/104/264 175/94/226
f 183/100/244 196/103/265 179/97/238
f 183/100/244 197/101/267 196/103/265
f 197/101/267 194/102/260 196/103/265
f 179/97/238 196/103/265 173/94/266
f 186/101/247 197/101/268 183/100/246
f 186/101/247 198/107/269 197/101/268
f 198/107/269 199/107/269 197/101/268
f 197/101/267 199/107/270 194/102/260
f 200/108/271 199/107/272 198/107/272
f 199/107/270 200/108/273 194/102/260
f 201/108/274 200/108/271 198/107/272
f 192/106/275 200/108/271 201/108/274
f 200/108/273 192/106/263 194/102/260
f 191/106/275 192/106/275 201/108/274
f 191/106/257 201/108/276 187/102/248
f 201/108/276 198/107/277 187/102/248
f 198/107/277 186/101/249 187/102/248
f 175/94/232 189/104/253 176/97/233
f 184/99/252 181/98/278 176/97/233
f 181/98/278 177/96/234 176/97/233
f 173/94/266 174/95/239 179/97/238
f 208/109/279 212/110/280 218/111/281
f 214/112/282 208/109/279 218/111/281
f 213/110/283 210/109/284 216/112/285
f 219/111/286 213/110/283 216/112/285
f 210/109/287 208/109/287 214/112/288
f 216/112/289 210/109/287 214/112/288
f 212/110/280 209/113/290 215/114/291
f 218/111/281 212/110/280 215/114/291
f 209/113/292 211/113/292 217/114/293
f 215/114/294 209/113/292 217/114/293
f 211/113/295 213/110/283 219/111/286
f 217/114/296 211/113/295 219/111/286
f 214/112/282 218/111/281 224/115/297
f 220/116/298 214/112/282 224/115/297
f 219/111/286 216/112/285 222/116/299
f 225/115/300 219/111/286 222/116/299
f 216/112/289 214/112/288 220/116/259
f 222/116/301 216/112/289 220/116/259
f 218/111/281 215/114/291 221/117/302
f 224/115/297 218/111/281 221/117/302
f 215/114/294 217/114/293 223/117/246
f 221/117/245 215/114/294 223/117/246
f 217/114/296 219/111/286 225/115/300
f 223/117/303 217/114/296 225/115/300
f 220/116/298 224/115/297 230/118/304
f 226/119/305 220/116/298 230/118/304
f 225/115/300 222/116/299 228/119/306
f 231/118/307 225/115/300 228/119/306
f 222/116/301 220/116/259 226/119/308
f 228/119/309 222/116/301 226/119/308
f 224/115/297 221/117/302 227/120/310
f 230/118/304 224/115/297 227/120/310
f 221/117/245 223/117/246 229/120/311
f 227/120/311 221/117/245 229/120/311
f 223/117/303 225/115/300 231/118/307
f 229/120/312 223/117/303 231/118/307
f 204/121/313 207/122/314 231/118/307
f 228/119/306 204/121/313 231/118/307
f 202/121/315 204/121/315 228/119/309
f 226/119/308 202/121/315 228/119/309
f 205/123/316 229/120/312 231/118/307
f 207/122/314 205/123/316 231/118/307
f 203/123/317 227/120/311 229/120/311
f 205/123/317 203/123/317 229/120/311
f 203/123/318 206/122/319 230/118/304
f 227/120/310 203/123/318 230/118/304
f 206/122/319 202/121/320 226/119/305
f 230/118/304 206/122/319 226/119/305
f 205/123/321 207/122/321 206/122/321
f 203/123/321 205/123/321 206/122/321
f 207/122/321 204/121/321 202/121/321
f 206/122/321 207/122/321 202/121/321
f 232/124/322 234/125/322 233/126/322
f 234/125/322 235/127/322 233/126/322
f 235/127/322 236/128/323 237/129/322
f 233/126/322 235/127/322 237/129/322
f 243/130/324 239/131/324 238/132/324
f 239/131/325 240/133/325 238/132/325
f 238/132/326 240/133/327 241/134/328
f 242/135/326 238/132/326 241/134/328
f 242/135/324 243/130/324 238/132/324
f 245/136/329 244/137/330 243/130/331
f 244/137/330 239/131/331 243/130/331
f 242/135/332 241/134/332 243/130/332
f 245/136/332 243/130/332 241/134/332
f 248/138/333 244/137/330 245/136/329
f 246/139/332 245/136/332 241/134/332
f 246/139/332 247/140/332 245/136/332
f 247/140/333 248/138/333 245/136/329
f 249/141/334 248/138/334 247/140/334
f 249/141/325 240/133/325 248/138/325
f 248/138/325 240/133/325 244/137/325
f 240/133/327 249/141/335 246/139/335
f 246/139/334 249/141/334 247/140/334
f 241/134/328 240/133/327 246/139/335
f 240/133/325 239/131/325 244/137/325
o item_blade
v 26.590300 22.520599 11.862098
v 26.590300 22.520599 5.647598
v 33.175800 18.257101 13.730999
v 34.370899 19.927902 13.730998
v 27.751900 24.144600 11.862098
v 27.751900 24.144600 5.647598
v 34.370899 19.927900 3.778699
v 33.175800 18.257099 3.778699
v 39.761299 13.993600 5.647699
v 39.761299 13.993601 11.862199
v 40.990002 15.711200 5.647699
v 40.990002 15.711201 11.862199
v 0.000000 70.710701 -0.000005
v 70.710701 0.000000 0.000000
v 0.000000 55.656200 3.999996
v -55.656101 0.000000 4.000000
v -70.710701 0.000000 0.000000
v 0.000000 -55.656101 4.000004
v 0.000000 -70.710602 0.000005
v 55.656200 0.000000 4.000000
v 0.000000 70.710701 -0.000005
v 0.000000 55.656200 -4.000004
v 70.710701 0.000000 0.000000
v -55.656101 -0.000000 -4.000000
v -70.710701 0.000000 0.000000
v 0.000000 -55.656101 -3.999996
v 0.000000 -70.710602 0.000005
v 55.656200 -0.000000 -4.000000
v 0.000000 70.710701 -0.000005
v 70.710701 0.000000 0.000000
v 0.000000 55.656200 3.999996
v -55.656101 0.000000 4.000000
v -70.710701 0.000000 0.000000
v 0.000000 -55.656101 4.000004
v 0.000000 -70.710602 0.000005
v 55.656200 0.000000 4.000000
v 0.000000 70.710701 -0.000005
v 0.000000 55.656200 -4.000004
v 70.710701 0.000000 0.000000
v -55.656101 -0.000000 -4.000000
v -70.710701 0.000000 0.000000
v 0.000000 -55.656101 -3.999996
v 0.000000 -70.710602 0.000005
v 55.656200 -0.000000 -4.000000
v 0.000000 70.710701 -0.000005
v 70.710701 0.000000 0.000000
v 0.000000 55.656200 3.999996
v -55.656101 0.000000 4.000000
v -70.710701 0.000000 0.000000
v 0.000000 -55.656101 4.000004
v 0.000000 -70.710602 0.000005
v 55.656200 0.000000 4.000000
v 0.000000 70.710701 -0.000005
v 0.000000 55.656200 -4.000004
v 70.710701 0.000000 0.000000
v -55.656101 -0.000000 -4.000000
v -70.710701 0.000000 0.000000
v 0.000000 -55.656101 -3.999996
v 0.000000 -70.710602 0.000005
v 55.656200 -0.000000 -4.000000
v -47.864700 45.118301 12.412096
v -73.866402 80.239502 18.773893
v -73.866402 80.239502 12.412094
v -47.864601 45.118301 18.773895
v -47.002399 43.872002 18.773895
v -47.002300 43.872002 12.412097
v -55.445702 39.872898 10.585097
v -80.297302 75.789894 10.585094
v -54.583401 38.626598 10.585097
v -61.876499 35.423302 12.412097
v -86.728096 71.340302 12.412094
v -61.876499 35.423302 18.773897
v -86.728096 71.340302 18.773893
v -80.297203 75.789894 20.600895
v -55.445702 39.872799 20.600897
v -54.583401 38.626598 20.600897
v -61.014198 34.176998 18.773897
v -61.014198 34.176998 12.412097
v -47.798500 41.051300 14.918697
v -27.466995 4.206796 14.797900
v -53.285400 37.254799 14.797897
v -22.058901 8.101798 14.918699
v -47.798500 41.051300 16.267296
v -22.058901 8.101798 16.267300
v -53.285400 37.254799 16.388098
v -27.466995 4.206797 16.388100
v -58.772202 33.458500 15.592998
v -32.874901 0.311898 15.593000
v -1.555196 -20.871008 14.797902
v -6.880899 -24.846003 15.593002
v 20.570107 -45.991600 15.593004
v 25.808802 -41.949608 14.797903
v -1.555194 -20.871107 16.388102
v 3.770404 -16.896307 16.267302
v 25.808802 -41.949608 16.388103
v 31.047199 -37.907799 16.267303
v 55.364910 -60.600220 16.388103
v 51.445110 -65.031906 15.593005
v 63.368004 -57.725311 16.267303
v 59.346508 -62.999809 15.593005
v 63.367912 -57.725304 14.918705
v 55.364910 -60.600220 14.797905
v 66.535027 -59.693413 15.593005
v 31.047199 -37.907799 14.918703
v 3.770404 -16.896307 14.918701
v -54.627403 38.709583 16.110603
v -46.713299 26.803337 31.028873
v -36.580017 34.208462 30.812889
v -32.257355 44.303913 24.804623
v -36.254745 51.360943 16.460836
v -41.159950 57.696991 8.023234
v -51.993488 57.396824 1.758672
v -62.541721 50.615822 1.192434
v -72.680473 43.209946 1.405809
v -76.994507 33.115051 7.418729
v -73.000168 26.058218 15.760420
v -68.094215 19.725233 24.195791
v -57.264263 20.017660 30.465174
v -67.477905 18.835438 23.162462
v -56.644279 19.135479 29.427351
v -46.096172 25.916351 29.993578
v -54.010380 37.822590 15.075360
v -51.373508 56.514557 0.720760
v -61.924591 49.728836 0.157141
v -72.057907 42.323711 0.373109
v -76.380409 32.228367 6.381419
v -35.957344 33.322247 29.780125
v -72.383041 25.171232 14.725127
v -31.643345 43.417210 23.767284
v -35.637619 50.473953 15.425543
v -40.543732 56.807079 6.989965
v -48.378101 43.891602 14.049597
v -45.475899 39.865200 17.136396
v -48.378201 43.891602 17.136396
v -45.475899 39.865200 14.049597
v -55.037899 39.283600 13.773597
v -52.135700 35.257099 13.773597
v -60.990002 35.165298 14.577897
v -60.990002 35.165298 16.608099
v -58.087700 31.138903 14.577898
v -58.087799 31.138903 16.608099
v -55.037899 39.283501 17.412395
v -52.135700 35.257099 17.412397
v 46.026699 48.864899 11.466396
v 21.529303 14.616099 6.043399
v 46.026699 48.864899 6.043396
v 21.529303 14.616100 11.466399
v 52.234100 44.900398 12.939496
v 52.234100 44.900398 4.570297
v 27.613897 10.481501 4.570299
v 58.441509 40.936001 6.043397
v 58.441509 40.936001 11.466397
v 33.698296 6.347003 6.043399
v 10.130601 -19.784498 6.043401
v 33.698296 6.347003 11.466399
v 10.130601 -19.784498 11.466402
v -14.544502 -42.341206 11.466403
v -20.368805 -37.943687 12.939503
v 4.173297 -15.508897 12.939501
v -26.192802 -33.546505 11.466403
v 27.613897 10.481502 12.939499
v -1.783902 -11.233396 11.466401
v -26.192802 -33.546505 6.043402
v -1.783902 -11.233397 6.043401
v 4.173297 -15.508898 4.570301
v -20.368805 -37.943687 4.570303
v -14.544502 -42.341206 6.043403
v -48.225800 -67.467796 6.043405
v -53.878399 -62.941700 4.570305
v -59.530998 -58.415695 6.043404
v -59.530998 -58.415695 11.466405
v -53.878399 -62.941700 12.939505
v -48.225800 -67.467796 11.466405
v -59.530998 -58.415699 11.466405
v -53.878399 -62.941700 12.939505
v -59.530998 -58.415699 6.043404
v -53.878399 -62.941700 4.570305
v -48.225800 -67.467796 11.466405
v -48.225800 -67.467796 6.043405
vn -0.8134 0.5818 -0.0000
vn -0.5435 -0.8394 -0.0000
vn -0.1887 0.1350 0.9727
vn 0.0644 -0.0461 0.9969
vn -0.0644 0.0461 0.9969
vn 0.0644 -0.0461 -0.9969
vn -0.0644 0.0461 -0.9969
vn -0.1887 0.1350 -0.9727
vn 0.5373 0.8434 -0.0000
vn 0.1887 -0.1350 -0.9727
vn 0.8133 -0.5818 -0.0000
vn 0.1887 -0.1350 0.9727
vn 0.2559 0.0853 0.9629
vn -0.0853 0.2559 0.9629
vn 0.0639 0.1919 0.9793
vn -0.1532 0.0510 0.9869
vn -0.2558 -0.0853 0.9629
vn -0.0639 -0.1919 0.9793
vn 0.0853 -0.2559 0.9629
vn 0.1531 -0.0510 0.9869
vn 0.0639 0.1919 -0.9793
vn -0.1531 0.0510 -0.9869
vn -0.0853 0.2559 -0.9629
vn 0.2559 0.0853 -0.9629
vn -0.2558 -0.0853 -0.9629
vn -0.0639 -0.1919 -0.9793
vn 0.0853 -0.2559 -0.9629
vn 0.1532 -0.0510 -0.9869
vn 0.8131 0.5821 -0.0000
vn 0.8037 0.5950 -0.0000
vn 0.1581 0.1131 -0.9809
vn 0.0149 0.0114 -0.9998
vn 0.1717 0.1226 -0.9775
vn 0.8224 0.5690 -0.0000
vn 0.8223 0.5690 -0.0000
vn 0.1599 0.1106 -0.9809
vn -0.0000 -0.0000 -1.0000
vn -0.1871 -0.1294 -0.9738
vn -0.0729 -0.0504 -0.9961
vn -0.8223 -0.5690 -0.0000
vn -0.5690 0.8223 -0.0000
vn -0.0638 -0.0442 0.9970
vn -0.1871 -0.1294 0.9738
vn -0.0099 -0.0056 0.9999
vn 0.1717 0.1226 0.9775
vn 0.0451 0.0312 0.9985
vn 0.1586 0.1124 0.9809
vn -0.8224 -0.5690 -0.0000
vn 0.1599 0.1106 0.9809
vn 0.0135 0.0123 -0.9998
vn -0.0205 -0.0185 -0.9996
vn 0.0143 0.0112 -0.9998
vn -0.0576 -0.0450 -0.9973
vn 0.7435 0.6687 -0.0000
vn 0.7880 0.6156 -0.0000
vn 0.7434 0.6689 -0.0000
vn 0.0135 0.0123 0.9998
vn 0.0143 0.0112 0.9998
vn -0.0217 -0.0169 0.9996
vn -0.0546 -0.0492 0.9973
vn -0.0934 -0.0730 0.9930
vn -0.0889 -0.0792 0.9929
vn -0.0934 -0.0730 0.9929
vn -0.0886 -0.0796 -0.9929
vn -0.0934 -0.0730 -0.9930
vn -0.0346 -0.0381 -0.9987
vn -0.0780 -0.0940 -0.9925
vn -0.0808 -0.0904 0.9926
vn -0.0394 -0.0544 -0.9977
vn -0.0713 -0.1067 -0.9917
vn -0.0723 -0.1045 0.9919
vn -0.0329 -0.0402 0.9987
vn 0.0121 0.0142 0.9998
vn -0.0220 -0.0318 0.9993
vn 0.0036 -0.1013 0.9949
vn 0.0105 0.0156 0.9998
vn -0.0065 -0.1710 0.9852
vn 0.0763 -0.2020 0.9764
vn 0.0604 -0.1222 0.9907
vn 0.0036 -0.1013 -0.9949
vn 0.0604 -0.1222 -0.9907
vn 0.0763 -0.2020 -0.9764
vn 0.0885 -0.1924 -0.9773
vn -0.0065 -0.1710 -0.9852
vn 0.0885 -0.1924 0.9773
vn 0.5251 0.8510 -0.0000
vn 0.5246 0.8513 -0.0000
vn 0.5278 0.8494 -0.0000
vn 0.0107 0.0155 -0.9998
vn 0.5818 0.8133 -0.0000
vn 0.5526 0.8335 -0.0000
vn 0.6395 0.7688 -0.0000
vn 0.0121 0.0142 -0.9998
vn 0.6680 0.7442 -0.0000
vn -0.4164 0.5900 0.6918
vn -0.4170 0.5895 0.6918
vn -0.4165 0.5880 0.6934
vn -0.4185 0.5886 0.6917
vn -0.4182 0.5906 0.6901
vn -0.6573 -0.7189 0.2264
vn -0.5119 -0.7778 0.3646
vn -0.0316 -0.7708 0.6364
vn 0.1057 -0.7255 0.6801
vn 0.3344 -0.6082 0.7199
vn 0.4303 -0.5423 0.7216
vn 0.4164 -0.5900 -0.6918
vn 0.4170 -0.5895 -0.6918
vn 0.4182 -0.5906 -0.6901
vn 0.4165 -0.5880 -0.6934
vn 0.4185 -0.5886 -0.6917
vn 0.6581 0.7184 -0.2256
vn 0.5103 0.7782 -0.3660
vn 0.0329 0.7711 -0.6359
vn 0.7795 0.6226 -0.0697
vn -0.1061 0.7253 -0.6802
vn 0.8642 0.4951 0.0900
vn 0.9070 0.3432 0.2441
vn 0.9068 0.1838 0.3795
vn 0.7145 -0.2567 0.6509
vn -0.8641 -0.4952 -0.0899
vn -0.7794 -0.6227 0.0698
vn -0.9068 -0.3442 -0.2433
vn 0.6217 -0.3688 0.6910
vn -0.9065 -0.1821 -0.3808
vn -0.7153 0.2555 -0.6504
vn -0.4306 0.5421 -0.7216
vn -0.6214 0.3692 -0.6911
vn -0.3341 0.6084 -0.7199
vn 0.8112 0.5847 -0.0000
vn -0.0115 -0.0083 -0.9999
vn 0.0276 0.0199 -0.9994
vn -0.0506 -0.0365 -0.9980
vn -0.0896 -0.0646 -0.9939
vn -0.8112 -0.5847 -0.0000
vn 0.5690 -0.8223 -0.0000
vn 0.5690 -0.8223 0.0001
vn -0.0506 -0.0365 0.9981
vn -0.0896 -0.0646 0.9939
vn -0.0115 -0.0083 0.9999
vn 0.0276 0.0199 0.9994
vn -0.7673 0.6413 -0.0000
vn -0.7909 0.6120 -0.0000
vn 0.5383 0.8428 -0.0000
vn -0.0542 0.0388 0.9978
vn -0.1597 0.1142 0.9805
vn -0.1556 0.1204 0.9805
vn 0.1597 -0.1143 -0.9805
vn 0.0214 -0.0193 -0.9996
vn -0.1597 0.1143 -0.9805
vn 0.7792 -0.6268 -0.0000
vn 0.1536 -0.1233 -0.9804
vn 0.1433 -0.1381 -0.9800
vn 0.7207 -0.6932 -0.0000
vn 0.6981 -0.7160 -0.0000
vn 0.6499 -0.7601 -0.0000
vn 0.0022 0.0028 1.0000
vn 0.1273 -0.1594 0.9790
vn 0.1395 -0.1432 0.9798
vn 0.0019 0.0027 1.0000
vn 0.1514 -0.1266 0.9803
vn -0.1433 0.1379 0.9800
vn -0.1315 0.1540 0.9793
vn 0.0021 0.0031 1.0000
vn -0.6498 0.7601 -0.0000
vn -0.6242 0.7813 -0.0000
vn -0.6981 0.7160 -0.0000
vn -0.7207 0.6932 -0.0000
vn -0.0019 -0.0027 -1.0000
vn -0.1395 0.1432 -0.9798
vn -0.1514 0.1265 -0.9803
vn -0.0022 -0.0028 -1.0000
vn -0.1274 0.1593 -0.9790
vn -0.0418 0.0560 -0.9976
vn 0.1315 -0.1539 -0.9793
vn 0.1230 -0.1649 -0.9786
vn -0.1230 0.1649 -0.9786
vn -0.5979 0.8015 -0.0000
vn -0.1230 0.1649 0.9786
vn 0.0418 -0.0560 0.9976
vn 0.1230 -0.1649 0.9786
vn 0.5980 -0.8015 -0.0000
vn 0.6243 -0.7812 -0.0000
vn 0.1597 -0.1143 0.9805
vn -0.6250 -0.7806 -0.0000
vt 0.638360 0.363281
vt 0.628906 0.392028
vt 0.682500 0.467499
vt 0.692226 0.437923
vt 0.736094 0.542969
vt 0.746094 0.512565
vt 0.976562 0.023438
vt 0.095226 0.374655
vt 0.095226 0.374655
vt 0.363281 0.482039
vt 0.055192 0.405964
vt 0.085714 0.371094
vt 0.085714 0.371094
vt 0.329321 0.508598
vt 0.295360 0.535156
vt 0.045679 0.402403
vt 0.021231 0.432522
vt 0.329321 0.508597
vt 0.055191 0.405964
vt 0.011719 0.428961
vt 0.151345 0.832089
vt 0.130777 0.840408
vt 0.053453 0.761719
vt 0.032586 0.769827
vt 0.011719 0.777935
vt 0.110210 0.848726
vt 0.229324 0.893967
vt 0.209069 0.902456
vt 0.333393 0.938984
vt 0.313470 0.947617
vt 0.229324 0.893967
vt 0.249578 0.885478
vt 0.445800 0.978816
vt 0.353316 0.930352
vt 0.430892 0.988281
vt 0.460942 0.983941
vt 0.476237 0.972677
vt 0.476236 0.972677
vt 0.488281 0.976880
vt 0.454238 0.375317
vt 0.498319 0.363281
vt 0.498320 0.453125
vt 0.542401 0.375317
vt 0.574672 0.408202
vt 0.586483 0.453125
vt 0.574672 0.498048
vt 0.542401 0.530933
vt 0.498319 0.542969
vt 0.454238 0.530933
vt 0.421968 0.498048
vt 0.410156 0.453125
vt 0.421968 0.408204
vt 0.425328 0.408204
vt 0.457599 0.375317
vt 0.501680 0.363281
vt 0.501680 0.453125
vt 0.501680 0.542969
vt 0.545762 0.530933
vt 0.578032 0.498048
vt 0.457598 0.530933
vt 0.425328 0.498048
vt 0.545762 0.375317
vt 0.413517 0.453125
vt 0.578032 0.408202
vt 0.589844 0.453125
vt 0.746094 0.420014
vt 0.724172 0.363281
vt 0.724171 0.363281
vt 0.673866 0.428209
vt 0.695788 0.484943
vt 0.628906 0.486236
vt 0.650829 0.542969
vt 0.650828 0.542969
vt 0.673866 0.428210
vt 0.339170 0.617919
vt 0.438130 0.574219
vt 0.463206 0.579277
vt 0.488281 0.584336
vt 0.363750 0.623195
vt 0.388328 0.628470
vt 0.293124 0.661814
vt 0.193447 0.690595
vt 0.169919 0.684984
vt 0.269059 0.656358
vt 0.244994 0.650903
vt 0.146392 0.679374
vt 0.034553 0.716881
vt 0.057387 0.722656
vt 0.011719 0.711106
vt 0.628906 0.363281
vt 0.687500 0.453124
vt 0.746094 0.542969
s 1
f 255/142/336 251/143/336 250/143/336
f 251/143/337 252/144/337 250/143/337
f 250/143/338 252/144/339 253/145/340
f 254/142/338 250/143/338 253/145/340
f 254/142/336 255/142/336 250/143/336
f 256/145/341 257/144/342 255/142/343
f 256/145/344 255/142/344 253/145/344
f 254/142/344 253/145/344 255/142/344
f 257/144/342 251/143/343 255/142/343
f 252/144/337 251/143/337 257/144/337
f 258/146/345 257/144/342 256/145/341
f 258/146/337 252/144/337 257/144/337
f 259/146/346 258/146/346 260/147/346
f 259/146/337 252/144/337 258/146/337
f 260/147/345 258/146/345 256/145/341
f 261/147/344 260/147/344 256/145/344
f 261/147/346 259/146/346 260/147/346
f 252/144/339 259/146/347 261/147/347
f 253/145/340 252/144/339 261/147/347
f 261/147/344 256/145/344 253/145/344
f 263/148/348 262/148/349 264/148/350
f 264/148/350 262/148/349 265/148/351
f 262/148/349 266/148/352 265/148/351
f 265/148/351 266/148/352 267/148/353
f 266/148/352 268/148/354 267/148/353
f 268/148/354 263/148/348 269/148/355
f 267/148/353 268/148/354 269/148/355
f 269/148/355 263/148/348 264/148/350
f 264/148/350 265/148/351 269/148/355
f 265/148/351 267/148/353 269/148/355
f 271/148/356 273/148/357 270/148/358
f 271/148/356 270/148/358 272/148/359
f 273/148/357 274/148/360 270/148/358
f 273/148/357 275/148/361 274/148/360
f 275/148/361 276/148/362 274/148/360
f 277/148/363 272/148/359 276/148/362
f 275/148/361 277/148/363 276/148/362
f 271/148/356 277/148/363 273/148/357
f 277/148/363 271/148/356 272/148/359
f 277/148/363 275/148/361 273/148/357
f 279/148/348 278/148/349 280/148/350
f 280/148/350 278/148/349 281/148/351
f 278/148/349 282/148/352 281/148/351
f 281/148/351 282/148/352 283/148/353
f 282/148/352 284/148/354 283/148/353
f 284/148/354 279/148/348 285/148/355
f 283/148/353 284/148/354 285/148/355
f 280/148/350 281/148/351 285/148/355
f 285/148/355 279/148/348 280/148/350
f 281/148/351 283/148/353 285/148/355
f 287/148/356 289/148/357 286/148/358
f 287/148/356 286/148/358 288/148/359
f 289/148/357 290/148/360 286/148/358
f 289/148/357 291/148/361 290/148/360
f 291/148/361 292/148/362 290/148/360
f 293/148/363 288/148/359 292/148/362
f 291/148/361 293/148/363 292/148/362
f 293/148/363 287/148/356 288/148/359
f 287/148/356 293/148/363 289/148/357
f 293/148/363 291/148/361 289/148/357
f 295/148/348 294/148/349 296/148/350
f 296/148/350 294/148/349 297/148/351
f 294/148/349 298/148/352 297/148/351
f 297/148/351 298/148/352 299/148/353
f 298/148/352 300/148/354 299/148/353
f 300/148/354 295/148/348 301/148/355
f 299/148/353 300/148/354 301/148/355
f 301/148/355 295/148/348 296/148/350
f 296/148/350 297/148/351 301/148/355
f 297/148/351 299/148/353 301/148/355
f 303/148/356 305/148/357 302/148/358
f 303/148/356 302/148/358 304/148/359
f 305/148/357 306/148/360 302/148/358
f 305/148/357 307/148/361 306/148/360
f 307/148/361 308/148/362 306/148/360
f 309/148/363 304/148/359 308/148/362
f 307/148/361 309/148/363 308/148/362
f 303/148/356 309/148/363 305/148/357
f 309/148/363 303/148/356 304/148/359
f 309/148/363 307/148/361 305/148/357
f 313/149/364 310/150/364 311/151/365
f 310/150/364 312/151/365 311/151/365
f 310/150/366 316/152/367 312/151/368
f 310/150/364 313/149/364 314/153/369
f 315/154/370 310/150/364 314/153/369
f 316/152/367 310/150/366 315/154/371
f 317/155/372 316/152/367 320/156/373
f 316/152/367 317/155/372 312/151/368
f 318/157/374 316/152/367 315/154/371
f 319/158/373 316/152/367 318/157/374
f 316/152/367 319/158/373 320/156/373
f 319/158/375 321/158/375 320/156/375
f 321/158/375 322/156/375 320/156/375
f 317/155/376 320/156/376 322/156/376
f 323/159/377 322/156/378 321/158/378
f 323/159/376 317/155/376 322/156/376
f 312/151/376 317/155/376 323/159/376
f 324/160/379 323/159/377 321/158/378
f 311/151/380 323/159/377 324/160/379
f 311/151/376 312/151/376 323/159/376
f 324/160/379 321/158/378 326/161/378
f 325/157/381 324/160/379 326/161/378
f 313/149/382 324/160/379 325/157/381
f 313/149/382 311/151/380 324/160/379
f 326/161/383 321/158/375 327/161/383
f 321/158/375 319/158/375 327/161/383
f 327/161/373 319/158/373 318/157/374
f 314/153/384 313/149/382 325/157/381
f 331/162/385 329/163/386 328/164/387
f 329/163/386 330/165/388 328/164/387
f 331/162/389 328/164/390 332/164/390
f 333/162/389 331/162/391 332/164/390
f 333/162/392 332/164/393 334/165/394
f 335/163/395 333/162/392 334/165/394
f 335/163/395 334/165/394 336/166/396
f 337/167/397 335/163/395 336/166/398
f 337/167/399 336/166/400 330/165/388
f 329/163/386 337/167/399 330/165/388
f 329/163/386 338/168/401 337/167/399
f 338/168/401 339/169/402 337/167/399
f 337/167/397 339/169/403 335/163/395
f 341/170/404 340/171/405 339/169/402
f 339/169/403 340/171/406 342/172/407
f 338/168/401 341/170/404 339/169/402
f 339/169/403 342/172/407 335/163/395
f 342/172/407 343/173/408 333/162/392
f 342/172/407 344/170/409 343/173/408
f 340/171/406 344/170/409 342/172/407
f 335/163/395 342/172/407 333/162/392
f 346/174/410 344/170/409 340/171/406
f 344/170/409 345/175/411 343/173/408
f 344/170/409 346/174/410 345/175/411
f 347/176/412 346/174/410 340/171/406
f 346/174/410 347/176/412 349/177/413
f 346/174/410 348/178/414 345/175/411
f 348/178/414 346/174/410 349/177/413
f 351/174/415 350/179/416 349/177/417
f 350/179/416 352/180/418 349/177/417
f 347/176/419 351/174/415 349/177/417
f 352/180/420 348/178/414 349/177/413
f 350/179/421 348/178/422 352/180/423
f 350/179/416 351/174/415 353/175/424
f 351/174/415 347/176/419 340/171/405
f 351/174/415 341/170/404 353/175/424
f 341/170/404 351/174/415 340/171/405
f 353/175/424 341/170/404 338/168/401
f 345/175/425 353/175/426 354/173/427
f 345/175/425 348/178/422 353/175/426
f 354/173/428 353/175/424 338/168/401
f 348/178/422 350/179/421 353/175/426
f 343/173/429 345/175/425 354/173/427
f 354/173/428 338/168/401 329/163/386
f 343/173/429 354/173/427 331/162/391
f 331/162/385 354/173/428 329/163/386
f 333/162/389 343/173/429 331/162/391
f 367/181/430 356/182/430 355/183/431
f 356/182/430 357/184/430 355/183/431
f 357/184/430 358/185/432 355/183/431
f 358/185/432 359/186/433 355/183/431
f 359/186/433 360/187/434 355/183/431
f 360/187/434 361/188/430 355/183/431
f 361/188/430 362/189/430 355/183/431
f 362/189/430 363/190/430 355/183/431
f 363/190/430 364/191/432 355/183/431
f 364/191/432 365/192/433 355/183/431
f 365/192/433 366/193/434 355/183/431
f 366/193/434 367/181/430 355/183/431
f 366/193/435 368/194/436 367/181/437
f 368/194/436 369/195/438 367/181/437
f 367/181/437 369/195/438 356/182/439
f 369/195/438 370/196/440 356/182/439
f 370/196/441 369/195/441 371/197/442
f 369/195/441 368/194/443 371/197/442
f 373/198/441 372/199/441 371/197/442
f 372/199/441 380/200/443 371/197/442
f 374/201/441 373/198/441 371/197/442
f 375/202/444 374/201/441 371/197/442
f 376/203/441 370/196/441 371/197/442
f 377/204/445 375/202/444 371/197/442
f 378/205/444 376/203/441 371/197/442
f 368/194/443 377/204/445 371/197/442
f 379/206/445 378/205/444 371/197/442
f 380/200/443 379/206/445 371/197/442
f 360/187/446 380/200/447 361/188/448
f 379/206/449 380/200/447 360/187/446
f 380/200/447 372/199/450 361/188/448
f 359/186/451 379/206/449 360/187/446
f 378/205/452 379/206/449 359/186/451
f 358/185/453 378/205/452 359/186/451
f 376/203/454 378/205/452 358/185/453
f 365/192/455 377/204/456 366/193/435
f 375/202/457 377/204/456 365/192/455
f 377/204/456 368/194/436 366/193/435
f 357/184/458 376/203/454 358/185/453
f 370/196/440 376/203/454 357/184/458
f 364/191/459 375/202/457 365/192/455
f 374/201/460 375/202/457 364/191/459
f 373/198/461 374/201/460 363/190/462
f 363/190/462 374/201/460 364/191/459
f 372/199/450 373/198/461 362/189/463
f 362/189/463 373/198/461 363/190/462
f 361/188/448 372/199/450 362/189/463
f 356/182/439 370/196/440 357/184/458
f 384/207/464 381/208/464 382/207/464
f 381/208/464 383/209/464 382/207/464
f 385/210/465 381/208/466 384/207/466
f 386/211/467 385/210/465 384/207/466
f 387/212/468 385/210/465 386/211/467
f 388/212/469 387/212/469 389/213/469
f 389/213/468 387/212/468 386/211/467
f 390/214/469 388/212/469 389/213/469
f 390/214/470 389/213/470 386/211/471
f 391/215/472 388/212/473 390/214/473
f 392/211/470 390/214/470 384/207/470
f 384/207/470 390/214/470 386/211/471
f 392/211/474 391/215/472 390/214/473
f 383/209/475 391/215/472 392/211/474
f 382/207/475 383/209/475 392/211/474
f 382/207/470 392/211/470 384/207/470
f 396/216/476 393/217/336 394/216/477
f 393/217/336 395/217/336 394/216/477
f 398/218/478 395/217/478 393/217/478
f 397/218/479 393/217/480 396/216/481
f 397/218/478 398/218/478 393/217/478
f 400/219/478 398/218/478 397/218/478
f 398/218/372 400/219/482 399/220/483
f 395/217/484 398/218/372 399/220/483
f 401/219/478 400/219/478 397/218/478
f 400/219/346 401/219/346 402/221/485
f 400/219/482 402/221/486 399/220/483
f 402/221/486 403/222/487 399/220/483
f 405/222/488 403/222/489 402/221/485
f 401/219/346 404/221/485 402/221/485
f 404/221/485 405/222/488 402/221/485
f 405/222/488 406/223/490 403/222/489
f 407/224/491 406/223/492 405/222/493
f 408/225/494 407/224/491 405/222/493
f 408/225/494 405/222/493 404/221/495
f 411/226/496 409/227/497 408/225/494
f 409/227/497 407/224/491 408/225/494
f 410/220/498 408/225/494 404/221/495
f 411/226/496 408/225/494 410/220/498
f 412/227/499 409/227/500 411/226/501
f 413/226/502 412/227/499 411/226/501
f 413/226/502 411/226/501 396/216/476
f 396/216/481 411/226/496 410/220/498
f 414/225/503 413/226/504 394/216/505
f 414/225/503 415/224/506 413/226/504
f 394/216/477 413/226/502 396/216/476
f 415/224/506 412/227/507 413/226/504
f 415/224/506 418/228/508 412/227/507
f 416/223/509 415/224/506 414/225/503
f 416/223/509 417/229/510 415/224/506
f 417/229/510 418/228/508 415/224/506
f 418/228/508 419/230/511 412/227/507
f 419/230/512 420/230/512 409/227/500
f 412/227/499 419/230/512 409/227/500
f 409/227/497 420/230/513 407/224/491
f 420/230/513 421/228/514 407/224/491
f 421/228/514 422/229/515 406/223/492
f 407/224/491 421/228/514 406/223/492
f 406/223/490 422/229/516 416/223/517
f 422/229/516 417/229/516 416/223/517
f 406/223/490 416/223/517 403/222/489
f 403/222/487 416/223/509 414/225/503
f 403/222/487 414/225/503 399/220/483
f 399/220/483 414/225/503 394/216/505
f 410/220/498 397/218/479 396/216/481
f 401/219/518 397/218/479 410/220/498
f 404/221/495 401/219/518 410/220/498
f 394/216/505 395/217/484 399/220/483
f 423/231/519 425/231/519 424/232/519
f 425/231/519 426/232/519 424/232/519
f 424/232/519 426/232/519 427/233/519
f 426/232/519 428/233/519 427/233/519
o item_damaged
v -29.153999 3.117801 15.308600
v -24.850100 -8.020700 15.206201
v -22.281900 0.038201 15.206200
v -32.607300 -7.718799 15.308601
v -29.153999 3.117701 16.452700
v -22.282000 0.038101 16.555099
v -32.607300 -7.718799 16.452700
v -24.850201 -8.020799 16.555099
v -17.092899 -8.322799 15.880601
v -15.409900 -3.041299 15.880600
v -11.276401 -28.765299 13.182502
v -57.942905 -69.502907 18.578806
v -57.942905 -69.502907 13.182506
v -11.276401 -28.765299 18.578802
v -9.622101 -27.394098 18.578802
v -9.622101 -27.394098 13.182502
v -4.612300 -36.805599 11.632703
v -52.289803 -76.323303 11.632706
v -2.957900 -35.434299 11.632703
v 1.040801 -43.625900 13.182503
v -46.636707 -83.143600 13.182507
v 1.040900 -43.625900 18.578804
v -46.636707 -83.143600 18.578806
v -52.289803 -76.323196 20.128605
v -4.612200 -36.805599 20.128601
v -2.957900 -35.434399 20.128601
v 2.695200 -42.254700 18.578804
v 2.695200 -42.254700 13.182503
v -5.951000 -27.676098 15.308602
v 42.820202 6.502701 15.206199
v -1.127600 -33.495300 15.206203
v 37.865799 12.200401 15.308599
v -5.950900 -27.676098 16.452702
v 37.865799 12.200401 16.452700
v -1.127700 -33.495300 16.555101
v 3.695500 -39.314400 15.880603
v 42.820202 6.502602 16.555099
v 47.774502 0.805101 15.880600
v -3.068654 -35.508263 16.614643
v 8.249861 -26.407711 31.769489
v -0.156994 -16.823402 31.530628
v -10.755943 -13.368397 25.412802
v -17.524216 -18.057430 16.931540
v -23.487926 -23.605412 8.365420
v -22.200500 -34.547291 2.015632
v -14.386978 -44.608738 1.459851
v -5.978946 -54.198532 1.696106
v 4.618852 -57.644844 7.818530
v 11.386986 -52.958973 16.297615
v 17.347672 -47.410378 24.861675
v 16.068384 -36.471485 31.216276
v 18.529922 -46.433025 23.395699
v 17.242516 -35.491070 29.745701
v -1.889406 -34.530190 15.146576
v 9.429111 -25.429733 30.301479
v 1.020973 -15.839891 30.065197
v -9.576801 -12.393566 23.942799
v -16.344965 -17.079454 15.463530
v -22.305643 -22.628078 6.899457
v -21.026400 -33.566872 0.545032
v -13.207827 -43.630661 -0.008142
v -4.800970 -53.214962 0.230721
v 5.798072 -56.669952 6.348481
v 12.566254 -51.981018 14.829606
v -9.684300 -29.093998 14.571502
v -4.336400 -24.520699 17.189802
v -9.684300 -29.093998 17.189802
v -4.336400 -24.520597 14.571502
v -3.830000 -36.157200 14.337303
v 1.518000 -31.583899 14.337303
v 1.402200 -42.469700 15.019603
v 1.402200 -42.469700 16.741703
v 6.750000 -37.896400 15.019603
v 6.750100 -37.896400 16.741703
v -3.830000 -36.157200 17.424002
v 1.518000 -31.583899 17.424002
v -47.485100 74.001503 15.308595
v -51.311600 77.422798 15.880594
v -47.485100 74.001404 16.452694
v -42.651699 80.013397 15.880594
v -37.841202 75.811600 15.206194
v -8.435800 39.442101 15.308598
v -2.130400 43.504501 15.206197
v -8.435800 39.442101 16.452696
v 20.230400 19.849901 15.206198
v 12.789900 16.988201 15.308599
v 12.789900 16.988201 16.452698
v -2.130500 43.504601 16.555096
v 20.230400 19.849901 16.555098
v 27.671101 22.711702 15.880598
v 4.175200 47.567299 15.880596
v -37.841202 75.811600 16.555094
v -33.127602 80.726303 15.880594
v -55.002800 -4.131499 15.308600
v -48.492500 -0.307299 15.206200
v -62.818199 5.832301 15.308600
v -62.818199 5.832302 16.452700
v -55.002899 -4.131399 16.452700
v -56.299702 9.645901 16.555099
v -48.492401 -0.307499 16.555099
v -41.982101 3.516601 15.880600
v -49.781101 13.459501 15.880599
v -56.299599 9.645901 15.206199
v 19.032801 52.480801 15.308597
v 25.285299 48.283699 15.206196
v 25.472500 68.316498 15.308596
v 25.472401 68.316498 16.452694
v 19.032801 52.480801 16.452696
v 31.160200 62.730900 16.555096
v 25.285299 48.283699 16.555096
v 31.537800 44.086800 15.880597
v 36.848099 57.145100 15.880595
v 31.160200 62.730900 15.206195
v -39.834801 34.469398 15.308598
v -30.776600 22.921202 15.308599
v -32.939098 37.802299 15.206197
v -30.776600 22.921103 16.452698
v -39.834801 34.469398 16.452698
v -24.258101 26.734701 16.555098
v -32.939201 37.802299 16.555098
v -26.043501 41.135201 15.880597
v -17.739500 30.548302 15.880598
v -24.257999 26.734802 15.206198
v 65.920898 20.866402 16.452698
v 53.761101 30.418102 16.555098
v 61.289398 31.826202 16.452698
v 59.833099 16.049501 16.555098
v 65.920799 20.866402 15.308599
v 59.833000 16.049501 15.206199
v 61.289299 31.826302 15.308598
v 53.761101 30.418102 15.206198
v 53.745098 11.232301 15.880599
v 46.232800 29.010101 15.880598
v 0.000000 70.710701 -0.000005
v 70.710701 0.000000 0.000000
v 0.000000 55.656200 3.999996
v -55.656101 0.000000 4.000000
v -70.710701 0.000000 0.000000
v 0.000000 -55.656101 4.000004
v 0.000000 -70.710602 0.000005
v 55.656200 0.000000 4.000000
v 0.000000 70.710701 -0.000005
v 0.000000 55.656200 -4.000004
v 70.710701 0.000000 0.000000
v -55.656101 -0.000000 -4.000000
v -70.710701 0.000000 0.000000
v 0.000000 -55.656101 -3.999996
v 0.000000 -70.710602 0.000005
v 55.656200 -0.000000 -4.000000
v 0.000000 70.710701 -0.000005
v 70.710701 0.000000 0.000000
v 0.000000 55.656200 3.999996
v -55.656101 0.000000 4.000000
v -70.710701 0.000000 0.000000
v 0.000000 -55.656101 4.000004
v 0.000000 -70.710602 0.000005
v 55.656200 0.000000 4.000000
v 0.000000 70.710701 -0.000005
v 0.000000 55.656200 -4.000004
v 70.710701 0.000000 0.000000
v -55.656101 -0.000000 -4.000000
v -70.710701 0.000000 0.000000
v 0.000000 -55.656101 -3.999996
v 0.000000 -70.710602 0.000005
v 55.656200 -0.000000 -4.000000
v 0.000000 70.710701 -0.000005
v 70.710701 0.000000 0.000000
v 0.000000 55.656200 3.999996
v -55.656101 0.000000 4.000000
v -70.710701 0.000000 0.000000
v 0.000000 -55.656101 4.000004
v 0.000000 -70.710602 0.000005
v 55.656200 0.000000 4.000000
v 0.000000 70.710701 -0.000005
v 0.000000 55.656200 -4.000004
v 70.710701 0.000000 0.000000
v -55.656101 -0.000000 -4.000000
v -70.710701 0.000000 0.000000
v 0.000000 -55.656101 -3.999996
v 0.000000 -70.710602 0.000005
v 55.656200 -0.000000 -4.000000
vn -0.0130 0.0042 -0.9999
vn 0.0198 -0.0063 -0.9998
vn 0.0527 -0.0168 -0.9985
vn -0.9528 0.3036 -0.0000
vn 0.0199 -0.0063 0.9998
vn -0.0130 0.0042 0.9999
vn 0.0527 -0.0168 0.9985
vn 0.0855 -0.0273 0.9960
vn 0.0855 -0.0273 -0.9960
vn -0.6479 0.7617 -0.0000
vn -0.6576 0.7533 -0.0000
vn -0.0951 0.1118 -0.9892
vn -0.0092 0.0103 -0.9999
vn -0.1033 0.1217 -0.9872
vn -0.6382 0.7699 -0.0000
vn -0.0937 0.1130 -0.9892
vn -0.0000 -0.0000 -1.0000
vn 0.1100 -0.1327 -0.9850
vn 0.0425 -0.0513 -0.9978
vn 0.6381 -0.7699 -0.0000
vn -0.7699 -0.6381 -0.0000
vn -0.7699 -0.6382 -0.0000
vn 0.0371 -0.0448 0.9983
vn 0.1100 -0.1327 0.9850
vn -0.1033 0.1217 0.9872
vn 0.0050 -0.0071 1.0000
vn -0.0949 0.1120 0.9892
vn -0.0261 0.0315 0.9992
vn 0.6382 -0.7699 -0.0000
vn -0.0937 0.1130 0.9892
vn -0.0091 0.0100 -0.9999
vn 0.0139 -0.0153 -0.9998
vn 0.0369 -0.0406 -0.9985
vn -0.6731 0.7396 0.0001
vn -0.6731 0.7396 -0.0000
vn -0.0091 0.0100 0.9999
vn 0.0139 -0.0152 0.9998
vn 0.0369 -0.0406 0.9985
vn 0.0139 -0.0153 0.9998
vn 0.0599 -0.0658 0.9960
vn 0.0599 -0.0658 -0.9960
vn -0.5513 -0.4663 0.6918
vn -0.5509 -0.4669 0.6918
vn -0.5496 -0.4663 0.6932
vn -0.5499 -0.4681 0.6918
vn -0.5517 -0.4680 0.6903
vn -0.5495 -0.4663 0.6932
vn 0.7641 0.0497 0.6432
vn 0.7178 0.1570 0.6784
vn 0.5670 0.3989 0.7207
vn 0.7724 -0.5934 0.2266
vn 0.8195 -0.4386 0.3689
vn 0.5513 0.4663 -0.6918
vn 0.5509 0.4669 -0.6918
vn 0.5517 0.4680 -0.6903
vn 0.5103 0.4674 0.7219
vn 0.3013 0.6623 0.6860
vn 0.2042 0.7289 0.6534
vn -0.2607 0.8878 0.3792
vn -0.4242 0.8733 0.2396
vn 0.5496 0.4663 -0.6932
vn -0.5500 0.8281 0.1088
vn -0.7020 0.7059 -0.0947
vn 0.5499 0.4681 -0.6918
vn -0.8198 0.4367 -0.3705
vn -0.7718 0.5945 -0.2254
vn -0.7171 -0.1585 -0.6787
vn -0.7650 -0.0474 -0.6423
vn -0.5101 -0.4677 -0.7219
vn -0.5673 -0.3986 -0.7206
vn -0.3025 -0.6613 -0.6864
vn -0.2021 -0.7302 -0.6526
vn 0.2587 -0.8878 -0.3807
vn 0.4254 -0.8730 -0.2384
vn 0.5501 -0.8280 -0.1087
vn 0.7021 -0.7058 0.0948
vn -0.6499 0.7600 -0.0000
vn 0.0069 -0.0081 -0.9999
vn -0.0166 0.0194 -0.9997
vn 0.0305 -0.0356 -0.9989
vn 0.0539 -0.0630 -0.9966
vn 0.6499 -0.7600 -0.0000
vn 0.7699 0.6381 -0.0000
vn 0.0069 -0.0081 0.9999
vn 0.0304 -0.0356 0.9989
vn 0.0539 -0.0630 0.9966
vn -0.0166 0.0194 0.9997
vn -0.0264 0.0786 -0.9966
vn -0.0372 0.1242 -0.9916
vn -0.0271 0.1305 -0.9911
vn -0.6646 -0.7472 -0.0001
vn -0.6642 -0.7475 -0.0000
vn -0.6665 -0.7455 -0.0001
vn -0.6847 -0.7288 -0.0000
vn 0.0109 0.0651 -0.9978
vn -0.0097 -0.0100 -0.9999
vn -0.7060 -0.7082 -0.0000
vn 0.0350 0.0348 -0.9988
vn 0.0154 0.0145 -0.9998
vn -0.7267 -0.6870 -0.0000
vn -0.0101 -0.0095 -0.9999
vn 0.0408 0.0386 0.9984
vn 0.0198 0.0204 0.9996
vn -0.0101 -0.0095 0.9999
vn -0.0097 -0.0100 0.9999
vn 0.0650 0.0668 0.9956
vn 0.0662 0.0626 0.9958
vn 0.0646 0.0683 -0.9956
vn 0.0273 0.1101 -0.9935
vn 0.0274 0.1101 0.9935
vn 0.0109 0.0651 0.9978
vn 0.0662 0.0626 -0.9958
vn -0.0272 0.1305 0.9911
vn -0.0264 0.0787 0.9966
vn -0.0372 0.1242 0.9916
vn 0.0164 0.0129 -0.9998
vn -0.0108 -0.0084 -0.9999
vn -0.7868 -0.6172 -0.0000
vn -0.0108 -0.0084 0.9999
vn 0.0164 0.0128 0.9998
vn 0.0436 0.0342 0.9985
vn 0.0706 0.0554 0.9960
vn 0.0706 0.0554 -0.9960
vn 0.0435 0.0341 -0.9985
vn 0.0196 -0.0080 -0.9998
vn -0.0129 0.0052 -0.9999
vn -0.9263 0.3767 -0.0001
vn -0.9263 0.3767 -0.0000
vn -0.0129 0.0052 0.9999
vn 0.0197 -0.0080 0.9998
vn 0.0520 -0.0212 0.9984
vn 0.0844 -0.0343 0.9958
vn 0.0844 -0.0343 -0.9958
vn 0.0520 -0.0212 -0.9984
vn -0.7868 -0.6172 -0.0001
vn 0.0164 0.0129 0.9998
vn 0.0435 0.0342 -0.9985
vn -0.0125 -0.0472 0.9988
vn 0.0126 0.0053 0.9999
vn -0.0572 0.0262 0.9980
vn -0.0351 -0.0148 0.9993
vn 0.9211 0.3893 -0.0001
vn 0.0126 0.0053 -0.9999
vn -0.0192 -0.0081 -0.9998
vn 0.9211 0.3893 -0.0000
vn -0.0510 -0.0215 -0.9985
vn -0.9211 -0.3892 -0.0001
vn -0.9211 -0.3892 -0.0000
vn 0.2559 0.0853 0.9629
vn -0.0853 0.2559 0.9629
vn 0.0639 0.1919 0.9793
vn -0.1532 0.0510 0.9869
vn -0.2558 -0.0853 0.9629
vn -0.0639 -0.1919 0.9793
vn 0.0853 -0.2559 0.9629
vn 0.1531 -0.0510 0.9869
vn 0.0639 0.1919 -0.9793
vn -0.1531 0.0510 -0.9869
vn -0.0853 0.2559 -0.9629
vn 0.2559 0.0853 -0.9629
vn -0.2558 -0.0853 -0.9629
vn -0.0639 -0.1919 -0.9793
vn 0.0853 -0.2559 -0.9629
vn 0.1532 -0.0510 -0.9869
vt 0.011719 0.976320
vt 0.107414 0.761719
vt 0.226681 0.982299
vt 0.297849 0.822705
vt 0.107414 0.761721
vt 0.297846 0.822707
vt 0.226678 0.982301
vt 0.441643 0.988281
vt 0.488281 0.883690
vt 0.282278 0.375129
vt 0.011719 0.495014
vt 0.320914 0.398790
vt 0.291869 0.371094
vt 0.044494 0.515085
vt 0.077269 0.535156
vt 0.330506 0.394755
vt 0.353690 0.418862
vt 0.353690 0.418862
vt 0.044494 0.515085
vt 0.320915 0.398790
vt 0.330506 0.394755
vt 0.363281 0.414826
vt 0.400388 0.761719
vt 0.444335 0.786777
vt 0.011719 0.937096
vt 0.054504 0.962689
vt 0.011720 0.937096
vt 0.054503 0.962689
vt 0.444335 0.786778
vt 0.097286 0.988281
vt 0.488281 0.811835
vt 0.453830 0.413585
vt 0.497504 0.456713
vt 0.541178 0.499841
vt 0.573150 0.531413
vt 0.584852 0.542969
vt 0.497504 0.456713
vt 0.421859 0.382013
vt 0.410156 0.370457
vt 0.458822 0.406410
vt 0.426850 0.374837
vt 0.502496 0.449537
vt 0.502496 0.449537
vt 0.546170 0.492665
vt 0.578141 0.524238
vt 0.589844 0.535793
vt 0.578141 0.524237
vt 0.415148 0.363281
vt 0.746094 0.484497
vt 0.716235 0.542969
vt 0.746093 0.484497
vt 0.670120 0.478960
vt 0.699978 0.420487
vt 0.628906 0.421753
vt 0.658765 0.363282
vt 0.658765 0.363281
vt 0.034807 0.785623
vt 0.011719 0.773461
vt 0.063970 0.764253
vt 0.034807 0.785623
vt 0.270421 0.908467
vt 0.092996 0.779188
vt 0.308466 0.894027
vt 0.443386 0.978109
vt 0.398492 0.988281
vt 0.308466 0.894026
vt 0.346513 0.879585
vt 0.488281 0.967937
vt 0.121437 0.761719
vt 0.339376 0.939028
vt 0.190472 0.988281
vt 0.011719 0.859953
vt 0.190470 0.988280
vt 0.160810 0.810836
vt 0.339378 0.939030
vt 0.488281 0.889778
vt 0.309903 0.761719
vt 0.160812 0.810836
vt 0.094266 0.908766
vt 0.176816 0.988281
vt 0.488281 0.906386
vt 0.488281 0.906387
vt 0.378421 0.834053
vt 0.011719 0.829251
vt 0.268556 0.761719
vt 0.011719 0.844634
vt 0.207091 0.988280
vt 0.207091 0.988281
vt 0.160449 0.803176
vt 0.347685 0.940844
vt 0.160446 0.803176
vt 0.488281 0.893408
vt 0.309176 0.761719
vt 0.347687 0.940843
vt 0.123193 0.831775
vt 0.234660 0.761719
vt 0.455694 0.901649
vt 0.488279 0.815016
vt 0.234660 0.761720
vt 0.123193 0.831776
vt 0.488281 0.815017
vt 0.011719 0.901833
vt 0.423112 0.988281
vt 0.976562 0.023438
s 1
f 432/234/520 429/235/520 430/236/521
f 429/235/520 431/237/522 430/236/521
f 433/238/523 429/235/523 432/234/523
f 434/239/524 433/238/525 435/234/525
f 435/234/523 433/238/523 432/234/523
f 436/240/526 434/239/524 435/234/525
f 437/241/527 438/242/527 436/240/526
f 438/242/527 434/239/524 436/240/526
f 431/237/522 438/242/528 437/241/528
f 430/236/521 431/237/522 437/241/528
f 442/243/529 439/243/529 440/244/530
f 439/243/529 441/244/530 440/244/530
f 439/243/531 445/245/532 441/244/533
f 439/243/529 442/243/529 443/246/534
f 444/246/534 439/243/529 443/246/534
f 445/245/532 439/243/531 444/246/535
f 446/247/536 445/245/532 449/248/537
f 445/245/532 446/247/536 441/244/533
f 447/249/538 445/245/532 444/246/535
f 448/250/537 445/245/532 447/249/538
f 445/245/532 448/250/537 449/248/537
f 448/250/539 450/251/539 449/248/539
f 450/251/539 451/248/539 449/248/539
f 446/247/540 449/248/541 451/248/540
f 452/252/542 451/248/543 450/251/543
f 452/252/540 446/247/540 451/248/540
f 440/244/544 452/252/542 453/253/545
f 440/244/541 441/244/540 452/252/540
f 441/244/540 446/247/540 452/252/540
f 453/253/545 452/252/542 450/251/543
f 442/243/546 440/244/544 453/253/545
f 442/243/546 453/253/545 454/254/547
f 453/253/545 450/251/543 455/255/543
f 454/254/547 453/253/545 455/255/543
f 455/255/548 450/251/539 456/255/539
f 450/251/539 448/250/539 456/255/539
f 456/255/537 448/250/537 447/249/538
f 443/246/549 442/243/546 454/254/547
f 460/256/550 458/257/551 457/258/550
f 458/257/551 459/259/552 457/258/550
f 460/256/553 457/258/553 461/260/553
f 462/256/554 460/256/554 461/260/554
f 462/256/555 461/260/555 463/261/556
f 465/262/557 463/261/558 464/263/559
f 465/262/557 462/256/555 463/261/558
f 466/264/559 465/262/557 464/263/559
f 466/264/560 464/263/560 459/259/552
f 458/257/551 466/264/560 459/259/552
f 479/265/561 468/266/561 467/266/562
f 468/266/561 469/267/561 467/266/562
f 469/267/561 470/268/563 467/266/562
f 470/268/563 471/269/564 467/266/562
f 471/269/564 472/268/565 467/266/562
f 472/268/565 473/267/561 467/266/562
f 473/267/561 474/270/561 467/266/562
f 474/270/561 475/265/561 467/266/562
f 475/265/561 476/271/566 467/266/562
f 476/271/566 477/272/564 467/266/562
f 477/272/564 478/271/565 467/266/562
f 478/271/565 479/265/561 467/266/562
f 479/265/567 481/273/568 468/266/569
f 478/271/570 480/274/571 479/265/567
f 480/274/571 481/273/568 479/265/567
f 483/275/572 481/273/572 482/276/573
f 481/273/572 480/274/574 482/276/573
f 481/273/568 483/275/575 468/266/569
f 468/266/569 483/275/575 469/267/576
f 483/275/575 484/277/577 469/267/576
f 484/277/572 483/275/572 482/276/573
f 469/267/576 484/277/577 470/268/578
f 484/277/577 485/278/579 470/268/578
f 485/278/580 484/277/572 482/276/573
f 470/268/578 485/278/579 471/269/581
f 485/278/579 486/279/582 471/269/581
f 486/279/583 485/278/580 482/276/573
f 487/280/574 486/279/583 482/276/573
f 486/279/582 487/280/584 472/268/585
f 471/269/581 486/279/582 472/268/585
f 488/277/572 487/280/574 482/276/573
f 487/280/584 488/277/586 473/267/587
f 472/268/585 487/280/584 473/267/587
f 489/276/572 488/277/572 482/276/573
f 488/277/586 489/276/588 474/270/589
f 473/267/587 488/277/586 474/270/589
f 474/270/589 489/276/588 475/265/590
f 489/276/588 490/273/591 475/265/590
f 490/273/572 489/276/572 482/276/573
f 475/265/590 490/273/591 476/271/592
f 490/273/591 491/274/593 476/271/592
f 491/274/580 490/273/572 482/276/573
f 476/271/592 491/274/593 477/272/594
f 491/274/593 492/281/595 477/272/594
f 492/281/583 491/274/580 482/276/573
f 477/272/594 492/281/595 478/271/570
f 492/281/595 480/274/571 478/271/570
f 480/274/574 492/281/583 482/276/573
f 496/282/596 493/283/596 494/284/596
f 493/283/596 495/283/596 494/284/596
f 497/285/597 493/283/598 496/282/598
f 498/286/599 497/285/597 496/282/598
f 499/287/600 497/285/597 498/286/599
f 500/287/601 499/287/601 501/288/601
f 501/288/600 499/287/600 498/286/599
f 502/289/601 500/287/601 501/288/601
f 502/289/602 501/288/602 498/286/602
f 504/286/603 503/285/604 502/289/605
f 503/285/604 500/287/605 502/289/605
f 504/286/602 502/289/602 496/282/602
f 496/282/602 502/289/602 498/286/602
f 494/284/602 504/286/602 496/282/602
f 494/284/606 495/283/606 504/286/603
f 495/283/606 503/285/604 504/286/603
f 505/290/607 506/291/608 508/292/609
f 505/290/610 507/293/611 506/291/612
f 507/293/611 505/290/610 510/294/613
f 509/295/614 505/290/607 508/292/609
f 505/290/607 509/295/614 510/294/615
f 512/294/616 507/293/611 510/294/613
f 509/295/614 511/296/617 510/294/615
f 510/294/615 511/296/617 513/297/618
f 512/294/616 510/294/613 514/298/619
f 514/298/620 510/294/615 513/297/618
f 515/298/619 512/294/616 514/298/619
f 517/297/621 516/299/622 515/298/623
f 516/299/622 512/294/624 515/298/623
f 519/300/625 516/299/622 517/297/621
f 518/301/626 519/300/625 517/297/621
f 511/296/617 509/295/614 519/300/627
f 509/295/614 521/302/628 519/300/627
f 521/302/629 520/295/630 519/300/625
f 520/295/630 516/299/622 519/300/625
f 511/296/617 519/300/627 518/301/631
f 520/295/630 521/302/629 508/292/632
f 521/302/628 509/295/614 508/292/609
f 520/295/630 507/293/633 512/294/624
f 507/293/633 520/295/630 508/292/632
f 516/299/622 520/295/630 512/294/624
f 513/297/618 511/296/617 518/301/631
f 506/291/634 507/293/633 508/292/632
f 523/303/635 522/304/636 524/305/636
f 524/305/637 522/304/637 525/305/637
f 522/304/637 526/306/637 525/305/637
f 525/305/638 526/306/638 527/307/639
f 526/306/638 528/308/640 527/307/639
f 528/308/640 529/309/641 530/310/641
f 527/307/639 528/308/640 530/310/641
f 530/310/642 529/309/642 531/311/643
f 529/309/642 523/303/635 531/311/643
f 531/311/643 523/303/635 524/305/636
f 533/312/644 532/313/645 534/314/645
f 534/314/646 532/313/647 535/315/646
f 532/313/647 536/313/647 535/315/646
f 535/315/648 536/313/648 537/316/649
f 536/313/648 538/312/650 537/316/649
f 538/312/650 539/317/651 540/318/651
f 537/316/649 538/312/650 540/318/651
f 540/318/652 539/317/652 541/316/653
f 539/317/652 533/312/644 541/316/653
f 541/316/653 533/312/644 534/314/645
f 542/319/654 543/320/654 545/321/654
f 543/320/636 542/319/636 544/322/635
f 546/319/637 542/319/637 545/321/637
f 545/321/638 547/323/655 546/319/638
f 547/323/655 548/324/640 546/319/638
f 550/325/641 549/326/641 548/324/640
f 547/323/655 550/325/641 548/324/640
f 550/325/642 551/327/656 549/326/642
f 551/327/643 543/320/636 544/322/635
f 551/327/643 544/322/635 549/326/642
f 555/328/657 552/329/658 553/330/659
f 552/329/658 554/331/658 553/330/660
f 554/331/661 552/329/661 556/332/661
f 556/332/662 557/333/663 558/334/662
f 558/334/664 554/331/664 556/332/664
f 557/333/663 559/330/665 558/334/662
f 557/333/663 560/335/666 559/330/665
f 560/335/666 561/336/667 559/330/665
f 560/335/666 555/328/657 561/336/667
f 555/328/657 553/330/659 561/336/667
f 563/337/668 562/337/669 564/337/670
f 564/337/670 562/337/669 565/337/671
f 562/337/669 566/337/672 565/337/671
f 565/337/671 566/337/672 567/337/673
f 566/337/672 568/337/674 567/337/673
f 568/337/674 563/337/668 569/337/675
f 567/337/673 568/337/674 569/337/675
f 569/337/675 563/337/668 564/337/670
f 564/337/670 565/337/671 569/337/675
f 565/337/671 567/337/673 569/337/675
f 571/337/676 573/337/677 570/337/678
f 571/337/676 570/337/678 572/337/679
f 573/337/677 574/337/680 570/337/678
f 573/337/677 575/337/681 574/337/680
f 575/337/681 576/337/682 574/337/680
f 577/337/683 572/337/679 576/337/682
f 575/337/681 577/337/683 576/337/682
f 571/337/676 577/337/683 573/337/677
f 577/337/683 571/337/676 572/337/679
f 577/337/683 575/337/681 573/337/677
f 579/337/668 578/337/669 580/337/670
f 580/337/670 578/337/669 581/337/671
f 578/337/669 582/337/672 581/337/671
f 581/337/671 582/337/672 583/337/673
f 582/337/672 584/337/674 583/337/673
f 584/337/674 579/337/668 585/337/675
f 583/337/673 584/337/674 585/337/675
f 580/337/670 581/337/671 585/337/675
f 585/337/675 579/337/668 580/337/670
f 581/337/671 583/337/673 585/337/675
f 587/337/676 589/337/677 586/337/678
f 587/337/676 586/337/678 588/337/679
f 589/337/677 590/337/680 586/337/678
f 589/337/677 591/337/681 590/337/680
f 591/337/681 592/337/682 590/337/680
f 593/337/683 588/337/679 592/337/682
f 591/337/681 593/337/683 592/337/682
f 593/337/683 587/337/676 588/337/679
f 587/337/676 593/337/683 589/337/677
f 593/337/683 591/337/681 589/337/677
f 595/337/668 594/337/669 596/337/670
f 596/337/670 594/337/669 597/337/671
f 594/337/669 598/337/672 597/337/671
f 597/337/671 598/337/672 599/337/673
f 598/337/672 600/337/674 599/337/673
f 600/337/674 595/337/668 601/337/675
f 599/337/673 600/337/674 601/337/675
f 601/337/675 595/337/668 596/337/670
f 596/337/670 597/337/671 601/337/675
f 597/337/671 599/337/673 601/337/675
f 603/337/676 605/337/677 602/337/678
f 603/337/676 602/337/678 604/337/679
f 605/337/677 606/337/680 602/337/678
f 605/337/677 607/337/681 606/337/680
f 607/337/681 608/337/682 606/337/680
f 609/337/683 604/337/679 608/337/682
f 607/337/681 609/337/683 608/337/682
f 603/337/676 609/337/683 605/337/677
f 609/337/683 603/337/676 604/337/679
f 609/337/683 607/337/681 605/337/677
o effect
v -35.451401 -3.580700 -3.002900
v -109.579697 -5.895001 3.325500
v -35.451401 -3.580699 3.002900
v -109.579697 -5.895002 -3.325500
v -110.010307 1.677399 -5.574100
v -35.143002 3.610700 -4.606400
v -35.143002 3.610700 4.606400
v -110.010307 1.677400 5.574100
v -35.492500 10.802100 3.002899
v -35.492500 10.802100 -3.002901
v -110.441002 9.249801 3.325499
v -171.182922 4.204000 3.325500
v -110.441002 9.249801 -3.325501
v -171.182922 4.203999 -3.325500
v -227.697296 -3.329800 -3.325500
v -226.511810 -10.821400 -5.574099
v -170.362198 -3.336300 -5.574100
v -169.541702 -10.876499 -3.325499
v -225.326523 -18.312904 -3.325499
v -293.916687 -31.360498 -3.220098
v -293.916687 -31.360498 3.220102
v -225.326523 -18.312904 3.325501
v -226.511810 -10.821400 5.574101
v -169.541702 -10.876499 3.325501
v -170.362198 -3.336299 5.574100
v -227.697296 -3.329799 3.325500
v -297.122711 -16.274298 -3.220099
v -297.122711 -16.274298 3.220101
v -295.864502 -23.891701 4.939602
v -295.864502 -23.891701 -4.939598
v -35.395100 -3.166101 -2.357800
v -35.395100 9.390301 -2.357801
v -35.395100 -3.166101 2.357800
v -35.395100 9.390301 2.357799
v -35.395100 3.654000 -3.638800
v -35.395100 3.654000 3.638800
v -293.527161 -29.939701 -2.357798
v -296.226044 -17.417904 -2.357799
v -293.527161 -29.939701 2.357802
v -296.226044 -17.417904 2.357801
v -294.876526 -23.678806 -3.638798
v -294.876526 -23.678806 3.638802
v -225.513535 -17.147701 -2.357799
v -227.510345 -4.494902 -2.357800
v -225.513535 -17.147701 2.357801
v -227.510345 -4.494902 2.357800
v -226.511841 -10.821404 -3.638799
v -226.511841 -10.821404 3.638801
v -169.668533 -9.703203 -2.357799
v -171.056015 3.030700 -2.357800
v -169.668533 -9.703203 2.357801
v -171.056015 3.030701 2.357800
v -170.362213 -3.336300 -3.638800
v -170.362213 -3.336299 3.638800
v -109.644005 -4.716802 -2.357800
v -110.376709 8.071601 -2.357801
v -109.644005 -4.716802 2.357800
v -110.376709 8.071601 2.357799
v -110.010315 1.677400 -3.638800
v -110.010315 1.677400 3.638800
v -293.527161 -29.939701 -2.357798
v -294.876526 -23.678806 -3.638798
v -293.527161 -29.939701 2.357802
v -294.876526 -23.678806 3.638802
v -296.226044 -17.417904 2.357801
v -296.226044 -17.417904 -2.357799
v -93.235199 -4.707600 -2.701900
v -93.235199 -4.707600 2.702000
v -93.320099 2.114100 -4.327100
v -89.733589 2.208000 -4.327100
v -89.749298 -4.616400 -2.701900
v -89.749298 -4.616400 2.702000
v -93.320099 2.114100 4.327100
v -89.733589 2.208000 4.327100
v -89.717903 9.032400 -2.702001
v -89.717903 9.032400 2.701899
v -93.404900 8.935900 2.701899
v -93.404900 8.935900 -2.702001
vn 0.0656 -0.9978 -0.0000
vn 0.0312 -0.9995 -0.0000
vn 0.0484 -0.9988 -0.0000
vn 0.9999 -0.0124 -0.0000
vn 0.9991 -0.0428 -0.0000
vn 0.0157 -0.2513 -0.9678
vn 0.0183 -0.2837 -0.9588
vn 0.0089 -0.0420 -0.9991
vn 0.0129 -0.0001 -0.9999
vn 0.9998 0.0181 -0.0000
vn 0.0129 -0.0001 0.9999
vn 0.0026 0.2514 0.9679
vn 0.0019 0.0420 0.9991
vn 0.0156 -0.2513 0.9678
vn 0.9988 0.0485 -0.0000
vn -0.0207 0.9998 -0.0000
vn -0.0518 0.9987 -0.0000
vn -0.0127 0.2840 0.9587
vn -0.0283 0.2828 0.9588
vn -0.0993 0.9951 -0.0000
vn -0.1157 0.9933 -0.0000
vn -0.1492 0.9888 -0.0000
vn -0.0084 0.0411 -0.9991
vn -0.0455 0.2806 -0.9588
vn -0.0329 0.2823 -0.9588
vn 0.0024 0.0003 -1.0000
vn -0.0162 0.2838 -0.9588
vn 0.0282 -0.2828 -0.9587
vn 0.0424 -0.2811 -0.9588
vn 0.1869 -0.9824 -0.0000
vn 0.1687 -0.9857 -0.0000
vn 0.0418 -0.2481 -0.9678
vn 0.1504 -0.9886 -0.0000
vn 0.1157 -0.9933 -0.0000
vn 0.0028 -0.0424 0.9991
vn 0.0447 -0.2807 0.9588
vn 0.0328 -0.2823 0.9588
vn 0.0418 -0.2481 0.9678
vn 0.0993 -0.9951 -0.0000
vn -0.0024 -0.0003 1.0000
vn 0.0200 -0.2836 0.9587
vn -0.0429 0.2810 0.9588
vn -0.1663 0.9861 -0.0000
vn -0.1833 0.9831 -0.0000
vn -0.0513 0.2459 0.9679
vn -0.9812 -0.1929 -0.0000
vn -0.9866 -0.1630 -0.0000
vn -0.0087 -0.0021 1.0000
vn -0.9749 -0.2228 -0.0000
vn -0.9676 -0.2524 -0.0000
vn -0.0088 -0.0021 -1.0000
vn -0.0513 0.2459 -0.9679
vn 0.0026 0.2514 -0.9679
vn 0.0363 -0.1928 -0.9806
vn -0.0123 0.0654 -0.9978
vn 0.0017 0.0003 -1.0000
vn 0.0295 -0.1939 -0.9806
vn 0.0123 -0.0654 0.9978
vn 0.0363 -0.1928 0.9806
vn 0.0329 -0.1934 0.9806
vn -0.0018 -0.0003 1.0000
vn 0.1848 -0.9828 -0.0000
vn 0.1673 -0.9859 -0.0000
vn 0.1498 -0.9887 -0.0000
vn -0.0363 0.1928 -0.9806
vn -0.0328 0.1934 -0.9806
vn -0.1848 0.9828 -0.0000
vn -0.1673 0.9859 -0.0000
vn -0.1498 0.9887 -0.0000
vn -0.0363 0.1928 0.9806
vn -0.0294 0.1939 0.9806
vn 0.0017 0.0002 -1.0000
vn 0.0196 -0.1952 -0.9806
vn 0.0227 -0.1948 0.9806
vn -0.0016 -0.0001 1.0000
vn 0.0992 -0.9951 -0.0000
vn -0.0227 0.1948 -0.9806
vn -0.0195 0.1952 0.9806
vn 0.0020 0.0038 -1.0000
vn 0.0084 -0.1921 -0.9813
vn 0.0122 -0.1957 0.9806
vn -0.0024 0.0333 0.9994
vn 0.0622 -0.9981 -0.0000
vn 0.0415 -0.9991 -0.0000
vn -0.0119 0.1958 -0.9806
vn -0.0502 0.9987 -0.0000
vn -0.0099 0.1959 0.9806
vn 0.0045 -0.1904 0.9817
vn -0.0005 0.0170 0.9999
vn 0.0209 -0.9998 -0.0000
vn -0.0046 0.2071 0.9783
vn -0.0176 0.9998 -0.0000
vn -0.0046 0.2071 -0.9783
vn 0.0011 -0.0553 -0.9985
vn 0.0039 -0.1846 -0.9828
vn 1.0000 -0.0000 -0.0000
vn -0.9776 -0.2107 -0.0000
vn -0.9775 -0.2107 -0.0000
vn 0.0262 -0.9997 -0.0000
vn -0.9999 -0.0124 -0.0000
vn 0.0061 -0.2317 -0.9728
vn -0.0010 0.0792 -0.9969
vn 0.0021 -0.0791 -0.9969
vn -0.0021 0.0791 0.9969
vn 0.0010 -0.0791 0.9969
vn 0.0061 -0.2317 0.9728
vn 1.0000 -0.0023 -0.0000
vn -0.0061 0.2317 0.9728
vn -0.0262 0.9997 -0.0000
vn -0.0061 0.2317 -0.9728
vt 0.352875 0.633003
vt 0.487720 0.624855
vt 0.488281 0.599537
vt 0.352092 0.606343
vt 0.487645 0.574219
vt 0.351308 0.579684
vt 0.240814 0.597448
vt 0.138009 0.623971
vt 0.140166 0.650346
vt 0.242306 0.623994
vt 0.243799 0.650540
vt 0.142322 0.676721
vt 0.017551 0.722656
vt 0.011719 0.669544
vt 0.014008 0.696362
vt 0.016650 0.722656
vt 0.014184 0.699027
vt 0.139093 0.650501
vt 0.140917 0.674377
vt 0.011719 0.675397
vt 0.137269 0.626624
vt 0.241684 0.622251
vt 0.242951 0.646281
vt 0.240416 0.598221
vt 0.351952 0.603328
vt 0.352622 0.627461
vt 0.351283 0.579196
vt 0.488281 0.621609
vt 0.488281 0.595868
vt 0.488281 0.574219
vt 0.628906 0.511340
vt 0.628906 0.394910
vt 0.687500 0.542969
vt 0.687500 0.363281
vt 0.746094 0.394910
vt 0.746094 0.511340
vt 0.629684 0.397023
vt 0.628906 0.397023
vt 0.628906 0.509225
vt 0.687088 0.542969
vt 0.687889 0.542969
vt 0.629684 0.509225
vt 0.687889 0.363281
vt 0.687088 0.363281
vt 0.745271 0.397025
vt 0.746094 0.509227
vt 0.746094 0.397025
vt 0.745271 0.509227
s 1
f 613/338/684 610/339/685 611/338/686
f 610/339/685 612/339/685 611/338/686
f 616/340/687 612/339/688 610/339/688
f 610/339/689 613/338/690 614/341/691
f 615/340/692 610/339/689 614/341/691
f 615/340/693 616/340/687 610/339/688
f 616/340/694 618/342/695 617/341/696
f 612/339/697 616/340/694 617/341/696
f 618/342/698 616/340/687 615/340/693
f 619/342/698 618/342/698 615/340/693
f 618/342/699 619/342/699 620/343/700
f 618/342/695 620/343/701 617/341/696
f 620/343/701 621/344/702 617/341/696
f 623/344/703 621/344/704 620/343/700
f 619/342/699 622/343/700 620/343/700
f 622/343/700 623/344/703 620/343/700
f 623/344/703 624/345/705 621/344/704
f 625/346/706 624/345/707 623/344/708
f 626/347/709 625/346/706 623/344/708
f 626/347/709 623/344/708 622/343/710
f 614/341/691 626/347/709 622/343/710
f 627/348/711 626/347/709 614/341/691
f 628/349/712 625/346/706 626/347/709
f 627/348/711 628/349/712 626/347/709
f 630/350/713 629/350/713 628/349/714
f 628/349/712 629/350/715 625/346/706
f 631/349/716 630/350/713 628/349/714
f 631/349/716 628/349/714 627/348/717
f 632/346/718 631/349/719 633/348/720
f 630/350/721 631/349/719 632/346/718
f 633/348/722 631/349/716 627/348/717
f 634/347/723 632/346/718 633/348/720
f 633/348/722 627/348/717 613/338/684
f 634/347/723 633/348/720 611/338/724
f 611/338/686 633/348/722 613/338/684
f 621/344/702 634/347/723 617/341/696
f 621/344/702 635/345/725 634/347/723
f 635/345/725 632/346/718 634/347/723
f 617/341/696 634/347/723 611/338/724
f 624/345/705 635/345/726 621/344/704
f 624/345/705 636/351/727 635/345/726
f 636/351/727 637/351/727 635/345/726
f 635/345/725 637/351/728 632/346/718
f 638/352/729 637/351/730 636/351/730
f 637/351/728 638/352/731 632/346/718
f 639/352/732 638/352/729 636/351/730
f 630/350/733 638/352/729 639/352/732
f 638/352/731 630/350/721 632/346/718
f 629/350/733 630/350/733 639/352/732
f 629/350/715 639/352/734 625/346/706
f 639/352/734 636/351/735 625/346/706
f 636/351/735 624/345/707 625/346/706
f 613/338/690 627/348/711 614/341/691
f 622/343/710 619/342/736 614/341/691
f 619/342/736 615/340/692 614/341/691
f 611/338/724 612/339/697 617/341/696
f 646/353/737 650/354/738 656/355/739
f 652/356/740 646/353/737 656/355/739
f 651/354/741 648/353/742 654/356/743
f 657/355/744 651/354/741 654/356/743
f 648/353/745 646/353/745 652/356/746
f 654/356/747 648/353/745 652/356/746
f 650/354/738 647/357/748 653/358/749
f 656/355/739 650/354/738 653/358/749
f 647/357/750 649/357/750 655/358/751
f 653/358/752 647/357/750 655/358/751
f 649/357/753 651/354/741 657/355/744
f 655/358/754 649/357/753 657/355/744
f 652/356/740 656/355/739 662/359/755
f 658/360/756 652/356/740 662/359/755
f 657/355/744 654/356/743 660/360/757
f 663/359/758 657/355/744 660/360/757
f 654/356/747 652/356/746 658/360/717
f 660/360/759 654/356/747 658/360/717
f 656/355/739 653/358/749 659/361/760
f 662/359/755 656/355/739 659/361/760
f 653/358/752 655/358/751 661/361/704
f 659/361/703 653/358/752 661/361/704
f 655/358/754 657/355/744 663/359/758
f 661/361/761 655/358/754 663/359/758
f 658/360/756 662/359/755 668/362/762
f 664/363/763 658/360/756 668/362/762
f 663/359/758 660/360/757 666/363/764
f 669/362/765 663/359/758 666/363/764
f 660/360/759 658/360/717 664/363/766
f 666/363/767 660/360/759 664/363/766
f 662/359/755 659/361/760 665/364/768
f 668/362/762 662/359/755 665/364/768
f 659/361/703 661/361/704 667/364/769
f 665/364/769 659/361/703 667/364/769
f 661/361/761 663/359/758 669/362/765
f 667/364/770 661/361/761 669/362/765
f 642/365/771 645/366/772 669/362/765
f 666/363/764 642/365/771 669/362/765
f 640/365/773 642/365/773 666/363/767
f 664/363/766 640/365/773 666/363/767
f 643/367/774 667/364/770 669/362/765
f 645/366/772 643/367/774 669/362/765
f 641/367/775 665/364/769 667/364/769
f 643/367/775 641/367/775 667/364/769
f 641/367/776 644/366/777 668/362/762
f 665/364/768 641/367/776 668/362/762
f 644/366/777 640/365/778 664/363/763
f 668/362/762 644/366/777 664/363/763
f 643/367/779 645/366/779 644/366/779
f 641/367/779 643/367/779 644/366/779
f 645/366/779 642/365/779 640/365/779
f 644/366/779 645/366/779 640/365/779
f 670/368/780 672/369/780 671/370/780
f 672/369/780 673/371/780 671/370/780
f 673/371/780 674/372/781 675/373/780
f 671/370/780 673/371/780 675/373/780
f 681/374/782 677/375/782 676/376/782
f 677/375/783 678/377/783 676/376/783
f 676/376/784 678/377/785 679/378/786
f 680/379/784 676/376/784 679/378/786
f 680/379/782 681/374/782 676/376/782
f 683/380/787 682/381/788 681/374/789
f 682/381/788 677/375/789 681/374/789
f 680/379/790 679/378/790 681/374/790
f 683/380/790 681/374/790 679/378/790
f 686/382/791 682/381/788 683/380/787
f 684/383/790 683/380/790 679/378/790
f 684/383/790 685/384/790 683/380/790
f 685/384/791 686/382/791 683/380/787
f 687/385/792 686/382/792 685/384/792
f 687/385/783 678/377/783 686/382/783
f 686/382/783 678/377/783 682/381/783
f 678/377/785 687/385/793 684/383/793
f 684/383/792 687/385/792 685/384/792
f 679/378/786 678/377/785 684/383/793
f 678/377/783 677/375/783 682/381/783
