# Blender 5.2.0 LTS
# www.blender.org
o blade
v -32.474792 -4.447566 -2.673407
v 48.050247 -3.512381 2.673409
v 48.050247 -3.512382 -2.673407
v -32.474792 -4.447566 2.673409
v -35.269207 -4.429136 2.673409
v -35.269207 -4.429136 -2.673407
v -32.523491 3.612357 -4.208941
v -35.317905 3.630787 -4.208941
v -32.564800 10.449386 -2.673408
v 47.970860 9.626896 -2.673408
v 48.010548 3.057256 -4.208941
v 47.970860 9.626896 2.673408
v 48.010548 3.057257 4.208943
v -32.523491 3.612357 4.208942
v -32.564800 10.449386 2.673408
v -35.359215 10.467816 -2.673408
v -35.359215 10.467816 2.673408
v -35.317905 3.630788 4.208942
v -38.564400 -1.345900 -0.480300
v -110.010300 1.677400 -0.566300
v -38.564400 3.406400 -0.566300
v -109.795502 -3.068701 -0.480300
v -38.564400 -1.345900 0.480300
v -109.795502 -3.068701 0.480300
v -38.564400 3.406400 0.566300
v -110.010300 1.677400 0.566300
v -38.564400 8.158600 -0.000001
v -110.225197 6.423399 -0.000000
v -170.362213 -3.336300 -0.566300
v -170.769104 1.393903 -0.000000
v -227.097397 -6.114900 0.000000
v -226.511795 -10.821399 -0.566299
v -170.362213 -3.336300 0.566300
v -226.511795 -10.821399 0.566301
v -169.955414 -8.066400 0.480301
v -225.926300 -15.527599 0.480301
v -169.955414 -8.066400 -0.480299
v -225.926300 -15.527599 -0.480299
v -285.119110 -26.426998 -0.480298
v -285.119110 -26.426998 0.480302
v -281.382904 -20.574400 -0.566298
v -283.795776 -16.482498 0.000001
v -288.616211 -21.934000 0.000002
v -281.382904 -20.574400 0.566302
v -290.956207 -27.484400 0.000002
v -34.015800 -2.157500 -1.099300
v -42.484100 -2.225600 1.099300
v -34.015800 -2.157500 1.099300
v -42.484100 -2.225600 -1.099300
v -34.015800 3.610700 -1.295900
v -42.484100 3.542600 -1.295900
v -34.015800 8.765900 -0.723001
v -34.015800 8.765900 0.722999
v -42.484100 8.697800 -0.723001
v -42.484100 8.697800 0.722999
v -34.015800 3.610700 1.295900
v -42.484100 3.542600 1.295900
v -35.455627 3.601850 -0.000000
v -35.455627 3.601849 10.302732
v -35.447041 -0.468596 7.051582
v -35.440712 -3.442688 4.068436
v -35.454872 -6.696026 0.000003
v -35.440712 -3.442698 -4.068443
v -35.447041 -0.468591 -7.051576
v -35.455627 3.601851 -10.302733
v -35.464252 7.667428 -7.046916
v -35.470547 10.645968 -4.069454
v -35.456379 13.899723 -0.000003
v -35.470547 10.646037 4.069406
v -35.464252 7.667424 7.046903
v -36.842789 10.646529 4.068377
v -36.836460 7.672391 7.051575
v -36.827873 3.601949 -0.000000
v -36.827873 3.601948 10.302732
v -36.819248 -0.463628 7.046909
v -36.812954 -3.442160 4.069445
v -36.827122 -6.695927 0.000003
v -36.812954 -3.442179 -4.069455
v -36.819248 -0.463630 -7.046915
v -36.827873 3.601950 -10.302733
v -36.836460 7.672392 -7.051581
v -36.842789 10.646494 -4.068443
v -36.828629 13.899825 -0.000003
vn 0.0025 -1.0000 -0.0000
vn 0.0116 -0.9999 -0.0000
vn 0.0005 -0.1871 -0.9823
vn 0.0003 -0.0180 -0.9998
vn -0.0000 -0.2072 -0.9783
vn -0.0066 -1.0000 -0.0000
vn -0.0012 -0.1872 -0.9823
vn -0.0003 0.0869 -0.9962
vn 0.0018 0.2191 -0.9757
vn 0.0019 0.2234 -0.9747
vn -0.0000 -0.0019 -1.0000
vn 1.0000 0.0060 -0.0000
vn 0.0007 0.0094 1.0000
vn -0.0001 0.0729 0.9973
vn 0.0017 0.2219 0.9751
vn -0.0000 -0.2072 0.9783
vn 0.0023 0.2276 0.9737
vn 0.0084 1.0000 -0.0000
vn 0.0066 1.0000 -0.0000
vn 0.0102 0.9999 -0.0000
vn 0.0014 0.2191 0.9757
vn 0.0005 -0.0510 0.9987
vn 0.0005 -0.1871 0.9823
vn -0.0012 -0.1872 0.9823
vn 0.0014 0.2191 -0.9757
vn 0.0010 -0.0181 -0.9998
vn -0.0015 0.0274 -0.9996
vn 0.0004 -0.0181 -0.9998
vn -0.0018 0.0730 -0.9973
vn 0.0535 -0.9986 -0.0000
vn 0.0242 -0.9997 -0.0000
vn 0.0536 -0.9986 -0.0000
vn 0.0010 -0.0181 0.9998
vn 0.0004 -0.0181 0.9998
vn -0.0007 0.0274 0.9996
vn -0.0039 0.0729 0.9973
vn -0.0029 0.1183 0.9930
vn -0.0063 0.1182 0.9930
vn -0.0029 0.1184 0.9930
vn -0.0063 0.1182 -0.9930
vn -0.0029 0.1183 -0.9930
vn -0.0049 0.0501 -0.9987
vn -0.0136 0.1177 -0.9930
vn -0.0118 0.1179 0.9930
vn -0.0095 0.0634 -0.9979
vn -0.0196 0.1194 -0.9927
vn -0.0187 0.1189 0.9927
vn -0.0059 0.0502 0.9987
vn -0.0057 0.0362 0.9993
vn 0.0020 -0.0180 0.9998
vn 0.0992 -0.9951 -0.0000
vn 0.1485 -0.9889 -0.0000
vn 0.1157 -0.9933 -0.0000
vn 0.0028 -0.0179 0.9998
vn 0.1648 -0.9863 -0.0000
vn 0.0020 -0.0180 -0.9998
vn 0.0028 -0.0179 -0.9998
vn -0.0360 0.0548 -0.9978
vn 0.1797 -0.9837 -0.0000
vn -0.0571 0.0202 -0.9982
vn -0.0891 0.0532 -0.9946
vn -0.0582 0.1031 -0.9930
vn -0.0887 0.0374 -0.9954
vn -0.0361 0.0549 0.9978
vn -0.0582 0.1031 0.9930
vn -0.0891 0.0532 0.9946
vn -0.0887 0.0374 0.9954
vn -0.0571 0.0202 0.9982
vn 0.1783 -0.9840 -0.0000
vn 0.0080 -1.0000 -0.0000
vn -0.0003 0.0141 -0.9999
vn 0.0003 -0.0341 -0.9994
vn -0.0003 0.0624 -0.9981
vn -0.0009 0.1105 -0.9939
vn -0.0080 1.0000 -0.0000
vn -1.0000 -0.0000 -0.0000
vn -0.0003 0.0624 0.9981
vn -0.0009 0.1105 0.9939
vn -0.0003 0.0141 0.9999
vn 0.0003 -0.0341 0.9994
vn 1.0000 0.0021 -0.0000
vn 1.0000 0.0014 -0.0000
vn 1.0000 0.0010 -0.0020
vn 1.0000 0.0001 -0.0000
vn 1.0000 0.0010 0.0020
vn 0.0043 0.7158 0.6983
vn 0.0047 0.6164 0.7874
vn 0.0004 0.0747 0.9972
vn -0.0000 0.8031 0.5959
vn 0.0004 0.6811 0.7322
vn -1.0000 -0.0021 -0.0000
vn -1.0000 -0.0010 -0.0020
vn -1.0000 -0.0014 -0.0000
vn -0.0004 -0.0747 0.9972
vn -0.0047 -0.6164 0.7874
vn -0.0043 -0.7158 0.6983
vn -0.0005 -0.6811 0.7322
vn -0.0001 -0.8031 0.5959
vn -1.0000 -0.0010 0.0020
vn -1.0000 -0.0001 -0.0000
vn 0.0004 -0.9898 -0.1425
vn 0.0004 -0.9898 0.1425
vn -0.0005 -0.6815 -0.7318
vn -0.0001 -0.8036 -0.5952
vn -0.0047 -0.6153 -0.7883
vn -0.0043 -0.7151 -0.6990
vn -0.0004 -0.0762 -0.9971
vn 0.0004 0.0762 -0.9971
vn 0.0047 0.6153 -0.7883
vn 0.0043 0.7151 -0.6990
vn 0.0005 0.6815 -0.7318
vn 0.0001 0.8036 -0.5952
vn -0.0004 0.9898 -0.1425
vn -0.0004 0.9898 0.1425
vt 0.023508 0.535156
vt 0.363281 0.519007
vt 0.023508 0.446391
vt 0.011719 0.535156
vt 0.011719 0.446391
vt 0.023508 0.371094
vt 0.363281 0.374302
vt 0.363281 0.446655
vt 0.011719 0.371094
vt 0.353784 0.833084
vt 0.353378 0.802916
vt 0.488281 0.822133
vt 0.488281 0.791926
vt 0.488281 0.761719
vt 0.352972 0.772748
vt 0.239423 0.834785
vt 0.238654 0.804718
vt 0.133402 0.882364
vt 0.132296 0.852447
vt 0.240191 0.864852
vt 0.134507 0.912279
vt 0.029795 0.944358
vt 0.022740 0.981560
vt 0.016137 0.953000
vt 0.025239 0.918348
vt 0.011719 0.988281
vt 0.628906 0.542969
vt 0.629632 0.363281
vt 0.691131 0.363281
vt 0.690405 0.542969
vt 0.746094 0.363281
vt 0.745368 0.542969
vt 0.544922 0.375318
vt 0.500000 0.363281
vt 0.500000 0.453125
vt 0.455078 0.375318
vt 0.422193 0.408203
vt 0.410156 0.453125
vt 0.422193 0.498047
vt 0.455078 0.530932
vt 0.500000 0.542969
vt 0.544922 0.530932
vt 0.577807 0.498047
vt 0.589844 0.453125
vt 0.577807 0.408204
s 1
f 4/1/1 1/1/1 2/2/2
f 1/1/1 3/2/2 2/2/2
f 1/1/3 7/3/4 3/2/5
f 1/1/1 4/1/1 5/4/6
f 6/4/6 1/1/1 5/4/6
f 7/3/4 1/1/3 6/4/7
f 8/5/8 7/3/4 6/4/7
f 9/6/9 7/3/4 8/5/8
f 7/3/4 9/6/9 10/7/10
f 7/3/4 11/8/11 3/2/5
f 11/8/11 7/3/4 10/7/10
f 3/2/12 11/8/12 13/8/12
f 11/8/12 10/7/12 12/7/12
f 13/8/12 11/8/12 12/7/12
f 14/3/13 13/8/14 15/6/15
f 2/2/16 13/8/14 14/3/13
f 2/2/12 3/2/12 13/8/12
f 13/8/14 12/7/17 15/6/15
f 15/6/18 9/6/18 16/9/19
f 9/6/18 15/6/18 10/7/20
f 15/6/18 12/7/20 10/7/20
f 17/9/19 15/6/18 16/9/19
f 14/3/13 15/6/15 17/9/21
f 18/5/22 14/3/13 17/9/21
f 4/1/23 14/3/13 18/5/22
f 5/4/24 4/1/23 18/5/22
f 16/9/25 9/6/9 8/5/8
f 4/1/23 2/2/16 14/3/13
f 22/10/26 20/11/27 19/12/28
f 20/11/27 21/13/29 19/12/28
f 22/10/30 19/12/31 23/12/31
f 24/10/30 22/10/32 23/12/31
f 24/10/33 23/12/34 25/13/35
f 26/11/36 24/10/33 25/13/35
f 26/11/36 25/13/35 27/14/37
f 28/15/38 26/11/36 27/14/39
f 28/15/40 27/14/41 21/13/29
f 20/11/27 29/16/42 28/15/40
f 29/16/42 30/17/43 28/15/40
f 28/15/38 30/17/44 26/11/36
f 20/11/27 28/15/40 21/13/29
f 32/18/45 31/19/46 30/17/43
f 30/17/44 31/19/47 33/16/48
f 29/16/42 32/18/45 30/17/43
f 30/17/44 33/16/48 26/11/36
f 31/19/47 34/18/49 33/16/48
f 26/11/36 33/16/48 24/10/33
f 33/16/48 35/20/50 24/10/33
f 33/16/48 34/18/49 35/20/50
f 35/20/51 36/21/52 37/20/53
f 34/18/49 36/21/54 35/20/50
f 35/20/51 37/20/53 22/10/32
f 24/10/30 35/20/51 22/10/32
f 36/21/52 38/21/55 37/20/53
f 37/20/56 38/21/57 29/16/42
f 37/20/56 29/16/42 20/11/27
f 22/10/26 37/20/56 20/11/27
f 38/21/57 32/18/45 29/16/42
f 41/22/58 32/18/45 38/21/57
f 36/21/52 40/23/59 38/21/55
f 40/23/59 39/23/59 38/21/55
f 39/23/60 41/22/58 38/21/57
f 41/22/58 39/23/60 43/24/61
f 41/22/58 42/25/62 31/19/46
f 42/25/62 41/22/58 43/24/61
f 32/18/45 41/22/58 31/19/46
f 39/23/60 45/26/63 43/24/61
f 44/22/64 42/25/65 43/24/66
f 45/26/67 40/23/68 43/24/66
f 40/23/68 44/22/64 43/24/66
f 39/23/59 40/23/59 45/26/69
f 42/25/65 44/22/64 31/19/47
f 44/22/64 40/23/68 36/21/54
f 34/18/49 44/22/64 36/21/54
f 44/22/64 34/18/49 31/19/47
f 49/27/70 46/28/70 47/27/70
f 46/28/70 48/28/70 47/27/70
f 50/29/71 46/28/72 49/27/72
f 51/30/73 50/29/71 49/27/72
f 52/31/74 50/29/71 51/30/73
f 53/31/75 52/31/75 54/32/75
f 54/32/74 52/31/74 51/30/73
f 55/32/75 53/31/75 54/32/75
f 55/32/76 54/32/76 51/30/76
f 56/29/77 53/31/78 55/32/78
f 57/30/76 55/32/76 49/27/76
f 49/27/76 55/32/76 51/30/76
f 57/30/79 56/29/77 55/32/78
f 47/27/76 57/30/76 49/27/76
f 47/27/80 48/28/80 57/30/79
f 48/28/80 56/29/77 57/30/79
f 70/33/81 59/34/81 58/35/82
f 59/34/81 60/36/81 58/35/82
f 60/36/81 61/37/83 58/35/82
f 61/37/83 62/38/84 58/35/82
f 62/38/84 63/39/85 58/35/82
f 63/39/85 64/40/81 58/35/82
f 64/40/81 65/41/81 58/35/82
f 65/41/81 66/42/81 58/35/82
f 66/42/81 67/43/83 58/35/82
f 67/43/83 68/44/84 58/35/82
f 68/44/84 69/45/85 58/35/82
f 69/45/85 70/33/81 58/35/82
f 70/33/86 72/33/87 59/34/88
f 69/45/89 71/45/90 70/33/86
f 71/45/90 72/33/87 70/33/86
f 72/33/91 71/45/92 73/35/93
f 74/34/91 72/33/91 73/35/93
f 72/33/87 74/34/94 59/34/88
f 59/34/88 74/34/94 60/36/95
f 74/34/94 75/36/96 60/36/95
f 75/36/91 74/34/91 73/35/93
f 60/36/95 75/36/96 61/37/97
f 75/36/96 76/37/98 61/37/97
f 76/37/99 75/36/91 73/35/93
f 77/38/100 76/37/99 73/35/93
f 76/37/98 77/38/101 62/38/102
f 61/37/97 76/37/98 62/38/102
f 78/39/92 77/38/100 73/35/93
f 77/38/101 78/39/103 63/39/104
f 62/38/102 77/38/101 63/39/104
f 79/40/91 78/39/92 73/35/93
f 78/39/103 79/40/105 64/40/106
f 63/39/104 78/39/103 64/40/106
f 64/40/106 79/40/105 65/41/107
f 79/40/105 80/41/108 65/41/107
f 80/41/91 79/40/91 73/35/93
f 65/41/107 80/41/108 66/42/109
f 80/41/108 81/42/110 66/42/109
f 81/42/91 80/41/91 73/35/93
f 66/42/109 81/42/110 67/43/111
f 81/42/110 82/43/112 67/43/111
f 82/43/99 81/42/91 73/35/93
f 67/43/111 82/43/112 68/44/113
f 82/43/112 83/44/114 68/44/113
f 83/44/100 82/43/99 73/35/93
f 68/44/113 83/44/114 69/45/89
f 83/44/114 71/45/90 69/45/89
f 71/45/92 83/44/100 73/35/93
o blade_damaged
v -38.564400 -1.345900 -0.480300
v -110.010307 1.677400 -0.566300
v -38.564400 3.406400 -0.566300
v -109.795509 -3.068700 -0.480300
v -38.564400 -1.345900 0.480300
v -109.795509 -3.068700 0.480300
v -38.564400 3.406400 0.566300
v -38.564400 8.158600 -0.000001
v -110.010307 1.677400 0.566300
v -110.225197 6.423400 -0.000000
v -32.476551 -4.156233 -2.673407
v 48.050259 -3.512382 2.673409
v 48.050259 -3.512382 -2.673407
v -32.476551 -4.156233 2.673409
v -35.270969 -4.137803 2.673409
v -35.270969 -4.137803 -2.673407
v -32.523346 3.588413 -4.208941
v 48.010555 3.057256 -4.208941
v -35.317760 3.606843 -4.208941
v -32.563038 10.158052 -2.673408
v 47.970867 9.626896 -2.673408
v -32.563038 10.158052 2.673408
v 47.970867 9.626896 2.673408
v 48.010555 3.057257 4.208943
v -32.523346 3.588413 4.208942
v -35.317760 3.606844 4.208942
v -35.357456 10.176483 2.673408
v -35.357456 10.176483 -2.673408
v -35.455631 3.601849 -0.000000
v -35.455631 3.601848 10.302791
v -35.446857 -0.468642 7.051683
v -35.440392 -3.442646 4.068434
v -35.454861 -6.695987 0.000003
v -35.440392 -3.442656 -4.068441
v -35.446857 -0.468638 -7.051677
v -35.455631 3.601850 -10.302792
v -35.464443 7.667369 -7.046918
v -35.470875 10.645917 -4.069474
v -35.456402 13.899683 -0.000003
v -35.470875 10.645985 4.069426
v -35.464443 7.667364 7.046905
v -36.843117 10.646487 4.068375
v -36.836651 7.672438 7.051676
v -36.827877 3.601950 10.302791
v -36.827877 3.601951 -0.000000
v -36.812634 -3.442124 -4.069475
v -36.819065 -0.463568 -7.046915
v -36.827877 3.601952 -10.302792
v -36.836651 7.672439 -7.051682
v -36.843117 10.646452 -4.068441
v -36.819065 -0.463566 7.046910
v -36.828648 13.899787 -0.000003
v -36.812634 -3.442107 4.069465
v -36.827106 -6.695885 0.000003
v -34.015800 -2.157500 -1.099300
v -42.484100 -2.225600 1.099300
v -34.015800 -2.157500 1.099300
v -42.484100 -2.225600 -1.099300
v -34.015800 3.610700 -1.295900
v -42.484100 3.542600 -1.295900
v -34.015800 8.765900 -0.723001
v -34.015800 8.765900 0.722999
v -42.484100 8.697800 -0.723001
v -42.484100 8.697800 0.722999
v -34.015800 3.610700 1.295900
v -42.484100 3.542600 1.295900
vn 0.0004 -0.0181 -0.9998
vn -0.0007 0.0274 -0.9996
vn -0.0007 0.0275 -0.9996
vn -0.0018 0.0730 -0.9973
vn 0.0242 -0.9997 -0.0000
vn 0.0004 -0.0181 0.9998
vn -0.0007 0.0274 0.9996
vn -0.0018 0.0730 0.9973
vn -0.0029 0.1183 0.9930
vn -0.0029 0.1184 0.9930
vn -0.0029 0.1183 -0.9930
vn -0.0029 0.1184 -0.9930
vn 0.0007 -1.0000 -0.0000
vn 0.0080 -1.0000 -0.0000
vn 0.0001 -0.1945 -0.9809
vn 0.0001 -0.0188 -0.9998
vn -0.0002 -0.2109 -0.9775
vn -0.0066 -1.0000 -0.0000
vn -0.0013 -0.1945 -0.9809
vn -0.0000 -0.0018 -1.0000
vn 0.0015 0.2276 -0.9738
vn -0.0003 0.0904 -0.9959
vn 0.0066 1.0000 -0.0000
vn 1.0000 0.0060 -0.0000
vn -0.0005 0.0758 0.9971
vn 0.0015 0.2276 0.9738
vn 0.0006 0.0113 0.9999
vn -0.0002 -0.2109 0.9775
vn 0.0001 -0.1945 0.9809
vn 0.0006 -0.0532 0.9986
vn -0.0013 -0.1945 0.9809
vn 1.0000 0.0022 -0.0000
vn 1.0000 0.0015 -0.0000
vn 1.0000 0.0010 -0.0021
vn 1.0000 0.0001 -0.0000
vn 1.0000 0.0010 0.0021
vn 0.0044 0.7158 0.6983
vn 0.0048 0.6164 0.7874
vn 0.0004 0.0746 0.9972
vn -0.0000 0.8031 0.5959
vn 0.0004 0.6811 0.7322
vn -0.0004 -0.0746 0.9972
vn -1.0000 -0.0022 -0.0000
vn -1.0000 -0.0015 -0.0000
vn -1.0000 -0.0010 -0.0021
vn -1.0000 -0.0001 -0.0000
vn -1.0000 -0.0010 0.0021
vn 0.0005 -0.9898 0.1425
vn 0.0005 -0.9898 -0.1425
vn -0.0001 -0.8036 -0.5952
vn -0.0001 -0.8031 0.5959
vn -0.0005 -0.6815 -0.7318
vn -0.0005 -0.6811 0.7322
vn -0.0044 -0.7158 0.6983
vn -0.0004 0.9898 -0.1425
vn -0.0005 0.9898 0.1425
vn 0.0001 0.8036 -0.5952
vn -0.0048 -0.6164 0.7874
vn 0.0005 0.6815 -0.7318
vn 0.0044 0.7151 -0.6990
vn 0.0048 0.6153 -0.7883
vn 0.0004 0.0762 -0.9971
vn -0.0048 -0.6153 -0.7883
vn -0.0004 -0.0762 -0.9971
vn -0.0044 -0.7151 -0.6990
vn -0.0003 0.0141 -0.9999
vn 0.0003 -0.0341 -0.9994
vn -0.0003 0.0624 -0.9981
vn -0.0009 0.1105 -0.9939
vn -0.0080 1.0000 -0.0000
vn -1.0000 -0.0000 -0.0000
vn -0.0003 0.0141 0.9999
vn -0.0003 0.0624 0.9981
vn -0.0009 0.1105 0.9939
vn 0.0003 -0.0341 0.9994
vt 0.014576 0.988281
vt 0.013148 0.892507
vt 0.488281 0.953516
vt 0.488281 0.857616
vt 0.488281 0.761719
vt 0.011719 0.796734
vt 0.023508 0.535156
vt 0.363281 0.521689
vt 0.023508 0.446391
vt 0.011719 0.535156
vt 0.363281 0.446391
vt 0.363281 0.371094
vt 0.011719 0.446391
vt 0.023508 0.371094
vt 0.011719 0.371094
vt 0.544922 0.375318
vt 0.500000 0.363281
vt 0.500000 0.453125
vt 0.455078 0.375318
vt 0.422193 0.408203
vt 0.410156 0.453125
vt 0.422193 0.498047
vt 0.455078 0.530932
vt 0.500000 0.542969
vt 0.544922 0.530932
vt 0.577807 0.498047
vt 0.589844 0.453125
vt 0.577807 0.408204
vt 0.628906 0.542969
vt 0.629632 0.363281
vt 0.691131 0.363281
vt 0.690405 0.542969
vt 0.746094 0.363281
vt 0.745368 0.542969
s 1
f 87/46/115 85/47/116 84/48/115
f 85/47/117 86/49/118 84/48/115
f 87/46/119 84/48/119 88/48/119
f 89/46/119 87/46/119 88/48/119
f 89/46/120 88/48/120 90/49/121
f 92/47/122 90/49/121 91/50/123
f 92/47/122 89/46/120 90/49/121
f 93/51/124 92/47/122 91/50/124
f 93/51/125 91/50/125 86/49/118
f 85/47/117 93/51/126 86/49/118
f 97/52/127 94/52/127 95/53/128
f 94/52/127 96/53/128 95/53/128
f 94/52/129 100/54/130 96/53/131
f 94/52/127 97/52/127 98/55/132
f 99/55/132 94/52/127 98/55/132
f 100/54/130 94/52/129 99/55/133
f 101/56/134 100/54/130 104/57/135
f 100/54/130 101/56/134 96/53/131
f 102/58/136 100/54/130 99/55/133
f 103/59/135 100/54/130 102/58/136
f 100/54/130 103/59/135 104/57/135
f 103/59/137 105/59/137 104/57/137
f 105/59/137 106/57/137 104/57/137
f 101/56/138 104/57/138 106/57/138
f 107/56/139 106/57/140 105/59/140
f 107/56/138 101/56/138 106/57/138
f 96/53/138 101/56/138 107/56/138
f 108/54/141 107/56/139 105/59/140
f 95/53/142 107/56/139 108/54/141
f 95/53/138 96/53/138 107/56/138
f 97/52/143 108/54/141 109/58/144
f 97/52/143 95/53/142 108/54/141
f 108/54/141 105/59/140 110/60/140
f 109/58/144 108/54/141 110/60/140
f 110/60/137 105/59/137 111/60/137
f 105/59/137 103/59/137 111/60/137
f 111/60/135 103/59/135 102/58/136
f 98/55/145 97/52/143 109/58/144
f 124/61/146 113/62/146 112/63/147
f 113/62/146 114/64/146 112/63/147
f 114/64/146 115/65/148 112/63/147
f 115/65/148 116/66/149 112/63/147
f 116/66/149 117/67/150 112/63/147
f 117/67/150 118/68/146 112/63/147
f 118/68/146 119/69/146 112/63/147
f 119/69/146 120/70/146 112/63/147
f 120/70/146 121/71/148 112/63/147
f 121/71/148 122/72/149 112/63/147
f 122/72/149 123/73/150 112/63/147
f 123/73/150 124/61/146 112/63/147
f 124/61/151 126/61/152 113/62/153
f 123/73/154 125/73/155 124/61/151
f 125/73/155 126/61/152 124/61/151
f 126/61/152 127/62/156 113/62/153
f 127/62/157 126/61/157 128/63/158
f 126/61/157 125/73/159 128/63/158
f 130/68/157 129/67/159 128/63/158
f 129/67/159 137/66/160 128/63/158
f 131/69/157 130/68/157 128/63/158
f 132/70/157 131/69/157 128/63/158
f 133/71/161 132/70/157 128/63/158
f 134/64/157 127/62/157 128/63/158
f 135/72/160 133/71/161 128/63/158
f 136/65/161 134/64/157 128/63/158
f 125/73/159 135/72/160 128/63/158
f 137/66/160 136/65/161 128/63/158
f 116/66/162 137/66/163 117/67/164
f 136/65/165 137/66/163 116/66/162
f 137/66/163 129/67/166 117/67/164
f 115/65/167 136/65/165 116/66/162
f 134/64/168 136/65/165 115/65/167
f 122/72/169 135/72/170 123/73/154
f 133/71/171 135/72/170 122/72/169
f 135/72/170 125/73/155 123/73/154
f 114/64/172 134/64/168 115/65/167
f 127/62/156 134/64/168 114/64/172
f 121/71/173 133/71/171 122/72/169
f 132/70/174 133/71/171 121/71/173
f 120/70/175 132/70/174 121/71/173
f 131/69/176 132/70/174 120/70/175
f 130/68/177 131/69/176 119/69/178
f 119/69/178 131/69/176 120/70/175
f 129/67/166 130/68/177 118/68/179
f 118/68/179 130/68/177 119/69/178
f 117/67/164 129/67/166 118/68/179
f 113/62/153 127/62/156 114/64/172
f 141/74/128 138/75/128 139/74/128
f 138/75/128 140/75/128 139/74/128
f 142/76/180 138/75/181 141/74/181
f 143/77/182 142/76/180 141/74/181
f 144/78/183 142/76/180 143/77/182
f 145/78/184 144/78/184 146/79/184
f 146/79/183 144/78/183 143/77/182
f 147/79/184 145/78/184 146/79/184
f 147/79/185 146/79/185 143/77/185
f 149/77/186 148/76/187 147/79/188
f 148/76/187 145/78/188 147/79/188
f 149/77/185 147/79/185 141/74/185
f 141/74/185 147/79/185 143/77/185
f 140/75/189 148/76/187 149/77/186
f 139/74/189 140/75/189 149/77/186
f 139/74/185 149/77/185 141/74/185
o blade_fragment
v -285.119080 -26.426998 -0.480298
v -290.956177 -27.484396 0.000002
v -285.119080 -26.426998 0.480302
v -288.616180 -21.933998 0.000002
v -281.382874 -20.574398 -0.566298
v -225.926285 -15.527596 -0.480299
v -226.511765 -10.821397 -0.566299
v -225.926285 -15.527596 0.480301
v -170.362167 -3.336299 -0.566300
v -169.955399 -8.066399 -0.480299
v -169.955399 -8.066399 0.480301
v -110.010292 1.677401 -0.566300
v -109.795486 -3.068699 -0.480300
v -109.795486 -3.068699 0.480300
v -110.010292 1.677401 0.566300
v -170.362167 -3.336299 0.566300
v -226.511765 -10.821397 0.566301
v -170.769089 1.393899 -0.000000
v -227.097382 -6.114900 0.000000
v -281.382874 -20.574398 0.566302
v -283.795776 -16.482498 0.000001
v -110.225189 6.423399 -0.000000
vn -0.0571 0.0202 -0.9982
vn -0.0887 0.0374 -0.9954
vn -0.0891 0.0532 -0.9946
vn 0.1797 -0.9837 -0.0000
vn 0.1783 -0.9840 -0.0000
vn 0.1648 -0.9863 -0.0000
vn -0.0360 0.0548 -0.9978
vn 0.0028 -0.0179 -0.9998
vn -0.0093 0.0634 -0.9979
vn -0.0049 0.0501 -0.9987
vn 0.1485 -0.9889 -0.0000
vn 0.1157 -0.9933 -0.0000
vn 0.0020 -0.0180 -0.9998
vn -0.0023 0.0274 -0.9996
vn 0.0992 -0.9951 -0.0000
vn 0.0828 -0.9966 -0.0000
vn 0.0015 -0.0180 -0.9998
vn -0.0060 0.0728 0.9973
vn -0.0059 0.0502 0.9987
vn 0.0015 -0.0180 0.9998
vn 0.0020 -0.0180 0.9998
vn -0.0187 0.1189 0.9927
vn -0.0057 0.0362 0.9993
vn -0.0118 0.1179 0.9930
vn -0.0196 0.1194 -0.9927
vn -0.0582 0.1031 -0.9930
vn -0.0582 0.1031 0.9930
vn -0.0361 0.0549 0.9978
vn -0.0136 0.1177 -0.9930
vn -0.0891 0.0532 0.9946
vn -0.0571 0.0202 0.9982
vn 0.0028 -0.0179 0.9998
vn -0.0098 0.1180 -0.9930
vn -0.0098 0.1180 0.9930
vn -0.0887 0.0374 0.9954
vt 0.027074 0.981216
vt 0.011719 0.988281
vt 0.017874 0.951195
vt 0.182787 0.908389
vt 0.036902 0.942111
vt 0.181247 0.876944
vt 0.328954 0.826930
vt 0.330024 0.858536
vt 0.487716 0.793430
vt 0.488281 0.825142
vt 0.179706 0.845496
vt 0.327884 0.795324
vt 0.030555 0.914770
vt 0.487151 0.761719
s 1
f 150/80/190 151/81/191 153/82/192
f 150/80/193 152/80/193 151/81/194
f 152/80/193 150/80/193 155/83/195
f 154/84/196 150/80/190 153/82/192
f 150/80/190 154/84/196 155/83/197
f 154/84/196 156/85/198 155/83/197
f 155/83/197 156/85/198 158/86/199
f 157/83/200 155/83/195 159/87/201
f 157/83/200 152/80/193 155/83/195
f 159/87/202 155/83/197 158/86/199
f 159/87/202 158/86/199 161/88/203
f 160/87/204 159/87/201 162/89/205
f 160/87/204 157/83/200 159/87/201
f 162/89/206 159/87/202 161/88/203
f 163/89/205 160/87/204 162/89/205
f 164/88/207 165/86/208 163/89/209
f 165/86/208 160/87/210 163/89/209
f 168/90/211 166/85/212 165/86/208
f 165/86/208 166/85/212 160/87/210
f 167/91/213 165/86/208 164/88/207
f 167/91/213 168/90/211 165/86/208
f 156/85/198 154/84/196 168/90/214
f 154/84/196 170/92/215 168/90/214
f 170/92/216 169/84/217 168/90/211
f 169/84/217 166/85/212 168/90/211
f 156/85/198 168/90/214 167/91/218
f 169/84/217 170/92/216 153/82/219
f 170/92/215 154/84/196 153/82/192
f 152/80/220 169/84/217 153/82/219
f 166/85/212 169/84/217 157/83/221
f 169/84/217 152/80/220 157/83/221
f 158/86/199 167/91/218 171/93/222
f 158/86/199 156/85/198 167/91/218
f 171/93/223 167/91/213 164/88/207
f 161/88/203 158/86/199 171/93/222
f 166/85/212 157/83/221 160/87/210
f 151/81/224 152/80/220 153/82/219
o sheath
v -35.374783 -4.622668 -3.483364
v -109.539787 -6.437832 3.857580
v -35.374783 -4.622667 3.483364
v -109.539787 -6.437833 -3.857579
v -110.059372 2.344676 -6.465956
v -35.150272 3.709559 -5.343424
v -35.150272 3.709560 5.343423
v -110.059372 2.344676 6.465956
v -35.584221 12.049485 3.483363
v -35.584221 12.049485 -3.483365
v -110.579048 11.127186 3.857579
v -171.314194 5.989187 3.857579
v -110.579048 11.127186 -3.857581
v -171.314194 5.989186 -3.857580
v -227.789032 -2.082219 -3.857580
v -226.514862 -10.779902 -6.465955
v -170.404526 -2.760676 -6.465956
v -169.495087 -11.510421 -3.857579
v -225.240891 -19.477468 -3.857579
v -293.737366 -33.798824 -3.735313
v -293.737366 -33.798824 3.735318
v -225.240891 -19.477468 3.857581
v -226.514862 -10.779901 6.465957
v -169.495087 -11.510421 3.857581
v -170.404526 -2.760675 6.465956
v -227.789032 -2.082219 3.857580
v -297.122711 -16.274298 -3.735315
v -297.122711 -16.274298 3.735317
v -295.774292 -25.118654 5.729938
v -295.774292 -25.118654 -5.729934
v -35.318840 -4.141776 -2.735048
v -35.474915 10.411451 -2.735049
v -35.318840 -4.141776 2.735048
v -35.474915 10.411451 2.735047
v -35.403614 3.762916 -4.221008
v -35.403614 3.762916 4.221007
v -293.368896 -31.964571 -2.735046
v -296.226044 -17.417904 -2.735047
v -293.368896 -31.964571 2.735050
v -296.226044 -17.417904 2.735049
v -294.797394 -24.691242 -4.221006
v -294.797394 -24.691242 4.221010
v -225.448196 -17.983685 -2.735047
v -227.604218 -3.293911 -2.735048
v -225.448196 -17.983685 2.735049
v -227.604218 -3.293910 2.735048
v -226.526108 -10.638916 -4.221007
v -226.526108 -10.638916 4.221009
v -169.641464 -10.049451 -2.735047
v -171.188583 4.726753 -2.735048
v -169.641464 -10.049451 2.735049
v -171.188583 4.726753 2.735048
v -170.414963 -2.661406 -4.221008
v -170.414963 -2.661405 4.221008
v -109.620605 -5.016171 -2.735048
v -110.512978 9.815059 -2.735049
v -109.620605 -5.016171 2.735049
v -110.512978 9.815059 2.735047
v -110.066750 2.399443 -4.221008
v -110.066750 2.399444 4.221008
v -293.368896 -31.964571 -2.735046
v -294.797394 -24.691242 -4.221006
v -293.368896 -31.964571 2.735050
v -294.797394 -24.691242 4.221010
v -296.226044 -17.417904 2.735049
v -296.226044 -17.417904 -2.735047
v -93.235199 -4.707600 -3.134204
v -93.235199 -4.707600 3.134320
v -93.462303 3.188548 -5.019436
v -89.867874 3.222572 -5.019436
v -89.741592 -4.674607 -3.134204
v -89.741592 -4.674607 3.134320
v -93.462303 3.188549 5.019435
v -89.867874 3.222573 5.019435
v -89.994171 11.119751 -3.134321
v -89.994171 11.119751 3.134203
v -93.689316 11.084810 3.134203
v -93.689316 11.084810 -3.134321
vn 0.0629 -0.9980 -0.0000
vn 0.0245 -0.9997 -0.0000
vn 0.0459 -0.9989 -0.0000
vn 1.0000 -0.0027 -0.0000
vn 0.9996 -0.0269 -0.0000
vn 0.0158 -0.2520 -0.9676
vn 0.0179 -0.2837 -0.9588
vn 0.0084 -0.0413 -0.9991
vn 0.0151 -0.0024 -0.9999
vn 0.9996 0.0277 -0.0000
vn 0.0151 -0.0024 0.9999
vn 0.0063 0.2524 0.9676
vn 0.0027 0.0429 0.9991
vn 0.0158 -0.2520 0.9676
vn 0.9986 0.0520 -0.0000
vn -0.0123 0.9999 -0.0000
vn -0.0484 0.9988 -0.0000
vn -0.0114 0.2841 0.9587
vn -0.0298 0.2827 0.9587
vn -0.1047 0.9945 -0.0000
vn -0.1211 0.9926 -0.0000
vn -0.1625 0.9867 -0.0000
vn -0.0085 0.0419 -0.9991
vn -0.0494 0.2803 -0.9587
vn -0.0344 0.2822 -0.9587
vn 0.0023 0.0010 -1.0000
vn -0.0149 0.2839 -0.9587
vn 0.0298 -0.2827 -0.9587
vn 0.0463 -0.2808 -0.9587
vn 0.2047 -0.9788 -0.0000
vn 0.1822 -0.9833 -0.0000
vn 0.0449 -0.2486 -0.9676
vn 0.1641 -0.9864 -0.0000
vn 0.1211 -0.9926 -0.0000
vn 0.0017 -0.0418 0.9991
vn 0.0486 -0.2804 0.9587
vn 0.0344 -0.2822 0.9587
vn 0.0449 -0.2486 0.9676
vn 0.1048 -0.9945 -0.0000
vn -0.0026 0.0004 1.0000
vn 0.0196 -0.2836 0.9587
vn -0.0467 0.2807 0.9587
vn -0.1796 0.9837 -0.0000
vn -0.2005 0.9797 -0.0000
vn -0.0568 0.2461 0.9676
vn -0.9846 -0.1748 -0.0000
vn -0.9886 -0.1507 -0.0000
vn -0.0093 -0.0073 0.9999
vn -0.9788 -0.2046 -0.0000
vn -0.9736 -0.2285 -0.0000
vn -0.0093 -0.0073 -0.9999
vn -0.0568 0.2461 -0.9676
vn 0.0063 0.2524 -0.9676
vn 0.0396 -0.1925 -0.9805
vn -0.0103 0.0613 -0.9981
vn 0.0016 0.0009 -1.0000
vn 0.0321 -0.1937 -0.9805
vn 0.0119 -0.0700 0.9975
vn 0.0396 -0.1925 0.9805
vn 0.0355 -0.1931 0.9805
vn -0.0019 0.0002 1.0000
vn 0.2016 -0.9795 -0.0000
vn 0.1800 -0.9837 -0.0000
vn 0.1625 -0.9867 -0.0000
vn -0.0396 0.1925 -0.9805
vn -0.0353 0.1931 -0.9805
vn -0.2016 0.9795 -0.0000
vn -0.1800 0.9837 -0.0000
vn -0.0396 0.1925 0.9805
vn -0.0319 0.1937 0.9805
vn 0.0016 0.0007 -1.0000
vn 0.0205 -0.1951 -0.9806
vn 0.0237 -0.1947 0.9806
vn -0.0017 0.0003 1.0000
vn 0.1204 -0.9927 -0.0000
vn 0.1040 -0.9946 -0.0000
vn -0.0236 0.1947 -0.9806
vn -0.1204 0.9927 -0.0000
vn -0.1040 0.9946 -0.0000
vn -0.0204 0.1951 0.9806
vn 0.0021 0.0045 -1.0000
vn 0.0077 -0.1921 -0.9813
vn 0.0114 -0.1958 0.9806
vn -0.0024 0.0340 0.9994
vn 0.0580 -0.9983 -0.0000
vn 0.0374 -0.9993 -0.0000
vn -0.0111 0.1958 -0.9806
vn -0.0458 0.9990 -0.0000
vn -0.0090 0.1959 0.9806
vn 0.0029 -0.1906 0.9817
vn -0.0002 0.0146 0.9999
vn 0.0118 -0.9999 -0.0000
vn -0.0027 0.2071 0.9783
vn -0.0079 1.0000 -0.0000
vn -0.0027 0.2071 -0.9783
vn 0.0021 -0.0578 -0.9983
vn 0.0022 -0.1847 -0.9828
vn 0.9999 0.0107 -0.0000
vn -0.9813 -0.1927 -0.0000
vn -0.9812 -0.1927 -0.0000
vn 0.0094 -1.0000 -0.0000
vn -0.9996 -0.0287 -0.0000
vn 0.0022 -0.2322 -0.9727
vn -0.0024 0.0840 -0.9965
vn 0.0037 -0.0843 -0.9964
vn -0.0033 0.0740 0.9972
vn 0.0022 -0.0743 0.9972
vn 0.0022 -0.2322 0.9727
vn 0.9999 0.0160 -0.0000
vn -0.0022 0.2322 0.9727
vn -0.0095 1.0000 -0.0000
vn -0.0022 0.2321 -0.9727
vt 0.352875 0.633003
vt 0.487720 0.624855
vt 0.488281 0.599537
vt 0.352092 0.606343
vt 0.487645 0.574219
vt 0.351308 0.579684
vt 0.240814 0.597448
vt 0.138009 0.623971
vt 0.140166 0.650346
vt 0.242306 0.623994
vt 0.243799 0.650540
vt 0.142322 0.676721
vt 0.017551 0.722656
vt 0.011719 0.669544
vt 0.014008 0.696362
vt 0.016650 0.722656
vt 0.014184 0.699027
vt 0.139093 0.650501
vt 0.140917 0.674377
vt 0.011719 0.675397
vt 0.137269 0.626624
vt 0.241684 0.622251
vt 0.242951 0.646281
vt 0.240416 0.598221
vt 0.351952 0.603328
vt 0.352622 0.627461
vt 0.351283 0.579196
vt 0.488281 0.621609
vt 0.488281 0.595868
vt 0.488281 0.574219
vt 0.628906 0.511340
vt 0.628906 0.394910
vt 0.687500 0.542969
vt 0.687500 0.363281
vt 0.746094 0.394910
vt 0.746094 0.511340
vt 0.629684 0.397023
vt 0.628906 0.397023
vt 0.628906 0.509225
vt 0.687088 0.542969
vt 0.687889 0.542969
vt 0.629684 0.509225
vt 0.687889 0.363281
vt 0.687088 0.363281
vt 0.745271 0.397025
vt 0.746094 0.509227
vt 0.746094 0.397025
vt 0.745271 0.509227
s 1
f 175/94/225 172/95/226 173/94/227
f 172/95/226 174/95/226 173/94/227
f 178/96/228 174/95/229 172/95/229
f 172/95/230 175/94/231 176/97/232
f 177/96/233 172/95/230 176/97/232
f 177/96/234 178/96/228 172/95/229
f 178/96/235 180/98/236 179/97/237
f 174/95/238 178/96/235 179/97/237
f 180/98/239 178/96/228 177/96/234
f 181/98/239 180/98/239 177/96/234
f 180/98/240 181/98/240 182/99/241
f 180/98/236 182/99/242 179/97/237
f 182/99/242 183/100/243 179/97/237
f 185/100/244 183/100/245 182/99/241
f 181/98/240 184/99/241 182/99/241
f 184/99/241 185/100/244 182/99/241
f 185/100/244 186/101/246 183/100/245
f 187/102/247 186/101/248 185/100/249
f 188/103/250 187/102/247 185/100/249
f 188/103/250 185/100/249 184/99/251
f 176/97/232 188/103/250 184/99/251
f 189/104/252 188/103/250 176/97/232
f 190/105/253 187/102/247 188/103/250
f 189/104/252 190/105/253 188/103/250
f 192/106/254 191/106/254 190/105/255
f 190/105/253 191/106/256 187/102/247
f 193/105/257 192/106/254 190/105/255
f 193/105/257 190/105/255 189/104/258
f 194/102/259 193/105/260 195/104/261
f 192/106/262 193/105/260 194/102/259
f 195/104/263 193/105/257 189/104/258
f 196/103/264 194/102/259 195/104/261
f 195/104/263 189/104/258 175/94/225
f 196/103/264 195/104/261 173/94/265
f 173/94/227 195/104/263 175/94/225
f 183/100/243 196/103/264 179/97/237
f 183/100/243 197/101/266 196/103/264
f 197/101/266 194/102/259 196/103/264
f 179/97/237 196/103/264 173/94/265
f 186/101/246 197/101/267 183/100/245
f 186/101/246 198/107/268 197/101/267
f 198/107/268 199/107/268 197/101/267
f 197/101/266 199/107/269 194/102/259
f 200/108/270 199/107/271 198/107/271
f 199/107/269 200/108/272 194/102/259
f 201/108/273 200/108/270 198/107/271
f 192/106/274 200/108/270 201/108/273
f 200/108/272 192/106/262 194/102/259
f 191/106/274 192/106/274 201/108/273
f 191/106/256 201/108/275 187/102/247
f 201/108/275 198/107/276 187/102/247
f 198/107/276 186/101/248 187/102/247
f 175/94/231 189/104/252 176/97/232
f 184/99/251 181/98/277 176/97/232
f 181/98/277 177/96/233 176/97/232
f 173/94/265 174/95/238 179/97/237
f 208/109/278 212/110/279 218/111/280
f 214/112/281 208/109/278 218/111/280
f 213/110/282 210/109/283 216/112/284
f 219/111/285 213/110/282 216/112/284
f 210/109/286 208/109/286 214/112/287
f 216/112/288 210/109/286 214/112/287
f 212/110/279 209/113/289 215/114/290
f 218/111/280 212/110/279 215/114/290
f 209/113/291 211/113/291 217/114/292
f 215/114/246 209/113/291 217/114/292
f 211/113/293 213/110/282 219/111/285
f 217/114/294 211/113/293 219/111/285
f 214/112/281 218/111/280 224/115/295
f 220/116/296 214/112/281 224/115/295
f 219/111/285 216/112/284 222/116/297
f 225/115/298 219/111/285 222/116/297
f 216/112/288 214/112/287 220/116/299
f 222/116/300 216/112/288 220/116/299
f 218/111/280 215/114/290 221/117/301
f 224/115/295 218/111/280 221/117/301
f 215/114/246 217/114/292 223/117/302
f 221/117/303 215/114/246 223/117/302
f 217/114/294 219/111/285 225/115/298
f 223/117/304 217/114/294 225/115/298
f 220/116/296 224/115/295 230/118/305
f 226/119/306 220/116/296 230/118/305
f 225/115/298 222/116/297 228/119/307
f 231/118/308 225/115/298 228/119/307
f 222/116/300 220/116/299 226/119/309
f 228/119/310 222/116/300 226/119/309
f 224/115/295 221/117/301 227/120/311
f 230/118/305 224/115/295 227/120/311
f 221/117/303 223/117/302 229/120/312
f 227/120/312 221/117/303 229/120/312
f 223/117/304 225/115/298 231/118/308
f 229/120/313 223/117/304 231/118/308
f 204/121/314 207/122/315 231/118/308
f 228/119/307 204/121/314 231/118/308
f 202/121/316 204/121/316 228/119/310
f 226/119/309 202/121/316 228/119/310
f 205/123/317 229/120/313 231/118/308
f 207/122/315 205/123/317 231/118/308
f 203/123/318 227/120/312 229/120/312
f 205/123/318 203/123/318 229/120/312
f 203/123/319 206/122/320 230/118/305
f 227/120/311 203/123/319 230/118/305
f 206/122/320 202/121/321 226/119/306
f 230/118/305 206/122/320 226/119/306
f 205/123/322 207/122/322 206/122/322
f 203/123/322 205/123/322 206/122/322
f 207/122/322 204/121/322 202/121/322
f 206/122/322 207/122/322 202/121/322
f 232/124/323 234/125/323 233/126/323
f 234/125/323 235/127/323 233/126/323
f 235/127/323 236/128/324 237/129/323
f 233/126/323 235/127/323 237/129/323
f 243/130/325 239/131/325 238/132/325
f 239/131/326 240/133/326 238/132/326
f 238/132/327 240/133/328 241/134/329
f 242/135/327 238/132/327 241/134/329
f 242/135/325 243/130/325 238/132/325
f 245/136/330 244/137/331 243/130/332
f 244/137/331 239/131/332 243/130/332
f 242/135/333 241/134/333 243/130/333
f 245/136/333 243/130/333 241/134/333
f 248/138/334 244/137/331 245/136/330
f 246/139/333 245/136/333 241/134/333
f 246/139/333 247/140/333 245/136/333
f 247/140/334 248/138/334 245/136/330
f 249/141/335 248/138/335 247/140/335
f 249/141/326 240/133/326 248/138/326
f 248/138/326 240/133/326 244/137/326
f 240/133/328 249/141/336 246/139/336
f 246/139/335 249/141/335 247/140/335
f 241/134/329 240/133/328 246/139/336
f 240/133/326 239/131/326 244/137/326
o item_blade
v 26.590300 22.520599 11.862098
v 26.590300 22.520599 5.647598
v 33.175800 18.257101 13.730999
v 34.370899 19.927902 13.730998
v 27.751900 24.144600 11.862098
v 27.751900 24.144600 5.647598
v 34.370899 19.927900 3.778699
v 33.175800 18.257099 3.778699
v 39.761299 13.993600 5.647699
v 39.761299 13.993601 11.862199
v 40.990002 15.711200 5.647699
v 40.990002 15.711201 11.862199
v 0.000000 70.710701 -0.000005
v 70.710701 0.000000 0.000000
v 0.000000 55.656200 3.999996
v -55.656101 0.000000 4.000000
v -70.710701 0.000000 0.000000
v 0.000000 -55.656101 4.000004
v 0.000000 -70.710602 0.000005
v 55.656200 0.000000 4.000000
v 0.000000 70.710701 -0.000005
v 0.000000 55.656200 -4.000004
v 70.710701 0.000000 0.000000
v -55.656101 -0.000000 -4.000000
v -70.710701 0.000000 0.000000
v 0.000000 -55.656101 -3.999996
v 0.000000 -70.710602 0.000005
v 55.656200 -0.000000 -4.000000
v 0.000000 70.710701 -0.000005
v 70.710701 0.000000 0.000000
v 0.000000 55.656200 3.999996
v -55.656101 0.000000 4.000000
v -70.710701 0.000000 0.000000
v 0.000000 -55.656101 4.000004
v 0.000000 -70.710602 0.000005
v 55.656200 0.000000 4.000000
v 0.000000 70.710701 -0.000005
v 0.000000 55.656200 -4.000004
v 70.710701 0.000000 0.000000
v -55.656101 -0.000000 -4.000000
v -70.710701 0.000000 0.000000
v 0.000000 -55.656101 -3.999996
v 0.000000 -70.710602 0.000005
v 55.656200 -0.000000 -4.000000
v 0.000000 70.710701 -0.000005
v 70.710701 0.000000 0.000000
v 0.000000 55.656200 3.999996
v -55.656101 0.000000 4.000000
v -70.710701 0.000000 0.000000
v 0.000000 -55.656101 4.000004
v 0.000000 -70.710602 0.000005
v 55.656200 0.000000 4.000000
v 0.000000 70.710701 -0.000005
v 0.000000 55.656200 -4.000004
v 70.710701 0.000000 0.000000
v -55.656101 -0.000000 -4.000000
v -70.710701 0.000000 0.000000
v 0.000000 -55.656101 -3.999996
v 0.000000 -70.710602 0.000005
v 55.656200 -0.000000 -4.000000
v -46.676559 46.324776 11.839536
v -74.329193 84.676254 19.346457
v -74.329193 84.676254 11.839533
v -46.676445 46.324780 19.346458
v -45.763584 44.960827 19.346458
v -45.763474 44.960831 11.839536
v -55.513004 40.023823 9.683678
v -81.825073 79.331245 9.683675
v -54.600033 38.659874 9.683678
v -63.008770 34.678822 11.839537
v -89.320839 73.986244 11.839534
v -63.008770 34.678822 19.346460
v -89.320839 73.986244 19.346457
v -81.824959 79.331245 21.502319
v -55.513008 40.023708 21.502321
v -54.600033 38.659874 21.502321
v -62.095798 33.314869 19.346460
v -62.095798 33.314869 11.839537
v -47.798500 41.051300 14.918697
v -27.467003 4.206800 14.797900
v -53.285400 37.254799 14.797897
v -22.058905 8.101800 14.918699
v -47.798500 41.051300 16.267296
v -22.058905 8.101800 16.267300
v -53.285400 37.254799 16.388098
v -27.467003 4.206800 16.388100
v -58.772202 33.458500 15.592998
v -32.874901 0.311905 15.593000
v -1.555197 -20.871000 14.797902
v -6.880898 -24.845999 15.593002
v 20.570103 -45.991600 15.593004
v 25.808792 -41.949608 14.797903
v -1.555199 -20.871099 16.388102
v 3.770403 -16.896296 16.267302
v 25.808792 -41.949608 16.388103
v 31.047199 -37.907795 16.267303
v 55.364899 -60.600201 16.388103
v 51.445095 -65.031898 15.593005
v 63.368004 -57.725307 16.267303
v 59.346504 -62.999809 15.593005
v 63.367889 -57.725300 14.918705
v 55.364899 -60.600201 14.797905
v 66.535011 -59.693394 15.593005
v 31.047199 -37.907795 14.918703
v 3.770403 -16.896296 14.918701
v -54.485722 38.503693 15.871110
v -48.945843 30.169317 26.313885
v -45.989506 36.044243 23.112738
v -44.156517 40.828575 20.157829
v -42.555096 46.669914 16.059294
v -48.531845 47.410801 11.910352
v -53.573116 47.453171 8.817740
v -60.025734 46.838055 5.428391
v -62.973598 40.963142 8.634360
v -64.815033 36.180038 11.583407
v -66.416412 30.337463 15.682953
v -60.438732 29.596079 19.832869
v -55.395138 29.562010 22.919691
v -60.106060 29.121437 19.275522
v -55.064686 29.079062 22.368280
v -48.612133 29.694136 25.757607
v -54.152077 38.028503 15.314859
v -53.242664 46.970196 8.266268
v -59.692024 46.362869 4.872113
v -62.648331 40.487949 8.073274
v -64.481285 35.703678 11.028172
v -45.664215 35.569065 22.551592
v -66.082710 29.862280 15.126677
v -43.822807 40.352207 19.602581
v -42.221390 46.194733 15.503016
v -48.199207 46.936104 11.353032
v -48.378101 43.891602 14.049597
v -45.475899 39.865200 17.136396
v -48.378201 43.891602 17.136396
v -45.475899 39.865200 14.049597
v -55.037899 39.283600 13.773597
v -52.135700 35.257099 13.773597
v -60.990002 35.165298 14.577897
v -60.990002 35.165298 16.608099
v -58.087700 31.138903 14.577898
v -58.087799 31.138903 16.608099
v -55.037899 39.283501 17.412395
v -52.135700 35.257099 17.412397
v 45.995564 50.179817 10.806142
v 21.625648 10.547036 4.515465
v 45.995564 50.179817 4.515462
v 21.625648 10.547037 10.806145
v 52.218544 45.557850 12.514938
v 52.218544 45.557850 2.806667
v 27.726444 5.728234 2.806669
v 58.441509 40.936001 4.515463
v 58.441509 40.936001 10.806143
v 33.827042 0.909547 4.515466
v 10.356176 -29.311419 4.515468
v 33.827042 0.909547 10.806146
v 10.356176 -29.311419 10.806148
v -14.235735 -55.381752 10.806149
v -20.077208 -50.258972 12.514946
v 4.382150 -24.329544 12.514944
v -25.918377 -45.136574 10.806149
v 27.726444 5.728235 12.514942
v -1.591775 -19.347799 10.806148
v -25.918377 -45.136574 4.515469
v -1.591775 -19.347799 4.515467
v 4.382150 -24.329544 2.806672
v -20.077208 -50.258972 2.806674
v -14.235735 -55.381752 4.515470
v -47.824913 -84.398811 4.515472
v -53.495159 -79.127548 2.806676
v -59.165401 -73.856384 4.515471
v -59.165401 -73.856384 10.806151
v -53.495159 -79.127548 12.514948
v -47.824913 -84.398811 10.806152
v -59.530998 -58.415699 11.466405
v -53.878399 -62.941700 12.939505
v -59.530998 -58.415699 6.043404
v -53.878399 -62.941700 4.570305
v -48.225800 -67.467796 11.466405
v -48.225800 -67.467796 6.043405
vn -0.8134 0.5818 -0.0000
vn -0.5435 -0.8394 -0.0000
vn -0.1887 0.1350 0.9727
vn 0.0644 -0.0461 0.9969
vn -0.0644 0.0461 0.9969
vn 0.0644 -0.0461 -0.9969
vn -0.0644 0.0461 -0.9969
vn -0.1887 0.1350 -0.9727
vn 0.5373 0.8434 -0.0000
vn 0.1887 -0.1350 -0.9727
vn 0.8133 -0.5818 -0.0000
vn 0.1887 -0.1350 0.9727
vn 0.2559 0.0853 0.9629
vn -0.0853 0.2559 0.9629
vn 0.0639 0.1919 0.9793
vn -0.1532 0.0510 0.9869
vn -0.2558 -0.0853 0.9629
vn -0.0639 -0.1919 0.9793
vn 0.0853 -0.2559 0.9629
vn 0.1531 -0.0510 0.9869
vn 0.0639 0.1919 -0.9793
vn -0.1531 0.0510 -0.9869
vn -0.0853 0.2559 -0.9629
vn 0.2559 0.0853 -0.9629
vn -0.2558 -0.0853 -0.9629
vn -0.0639 -0.1919 -0.9793
vn 0.0853 -0.2559 -0.9629
vn 0.1532 -0.0510 -0.9869
vn 0.8212 0.5706 -0.0000
vn 0.8212 0.5707 -0.0000
vn 0.8111 0.5849 -0.0000
vn 0.1600 0.1112 -0.9808
vn 0.0153 0.0108 -0.9998
vn 0.1738 0.1198 -0.9775
vn 0.8310 0.5562 -0.0000
vn 0.8310 0.5563 -0.0000
vn 0.1620 0.1084 -0.9808
vn 0.0036 0.0024 -1.0000
vn -0.1896 -0.1269 -0.9736
vn -0.0757 -0.0532 -0.9957
vn -0.8310 -0.5563 -0.0000
vn -0.5806 0.8142 -0.0000
vn -0.0597 -0.0427 0.9973
vn -0.1895 -0.1269 0.9736
vn -0.1896 -0.1269 0.9736
vn -0.0100 -0.0053 0.9999
vn 0.1738 0.1198 0.9775
vn 0.0411 0.0300 0.9987
vn 0.1605 0.1104 0.9808
vn -0.8310 -0.5562 -0.0000
vn 0.1620 0.1084 0.9808
vn 0.0135 0.0123 -0.9998
vn -0.0205 -0.0185 -0.9996
vn 0.0143 0.0112 -0.9998
vn -0.0576 -0.0450 -0.9973
vn 0.7436 0.6687 -0.0000
vn 0.7880 0.6156 -0.0000
vn 0.7435 0.6687 -0.0000
vn 0.7434 0.6689 -0.0000
vn 0.0135 0.0123 0.9998
vn 0.0143 0.0112 0.9998
vn -0.0217 -0.0169 0.9996
vn -0.0546 -0.0492 0.9973
vn -0.0934 -0.0730 0.9930
vn -0.0889 -0.0792 0.9929
vn -0.0934 -0.0730 0.9929
vn -0.0886 -0.0796 -0.9929
vn -0.0934 -0.0730 -0.9930
vn -0.0346 -0.0381 -0.9987
vn -0.0780 -0.0940 -0.9925
vn -0.0808 -0.0904 0.9926
vn -0.0394 -0.0544 -0.9977
vn -0.0713 -0.1067 -0.9917
vn -0.0723 -0.1045 0.9919
vn -0.0329 -0.0402 0.9987
vn 0.0121 0.0142 0.9998
vn -0.0220 -0.0318 0.9993
vn 0.0036 -0.1013 0.9949
vn 0.0105 0.0156 0.9998
vn -0.0065 -0.1710 0.9852
vn 0.0763 -0.2020 0.9764
vn 0.0604 -0.1222 0.9907
vn 0.0036 -0.1013 -0.9949
vn 0.0604 -0.1222 -0.9907
vn 0.0763 -0.2020 -0.9764
vn 0.0885 -0.1924 -0.9773
vn -0.0065 -0.1710 -0.9852
vn 0.0885 -0.1924 0.9773
vn 0.5251 0.8510 -0.0000
vn 0.5246 0.8513 -0.0000
vn 0.5278 0.8494 -0.0000
vn 0.0107 0.0155 -0.9998
vn 0.5818 0.8133 -0.0000
vn 0.5526 0.8335 -0.0000
vn 0.6395 0.7688 -0.0000
vn 0.0121 0.0142 -0.9998
vn 0.6680 0.7442 -0.0000
vn -0.4194 0.5879 0.6917
vn -0.4180 0.5889 0.6917
vn -0.4189 0.5924 0.6882
vn -0.4153 0.5908 0.6918
vn -0.4152 0.5867 0.6953
vn -0.4343 -0.7968 0.4200
vn -0.2818 -0.8063 0.5200
vn -0.3278 -0.7998 0.5028
vn -0.2121 -0.7946 0.5688
vn 0.3212 -0.6161 0.7192
vn 0.4427 -0.5333 0.7209
vn 0.4194 -0.5879 -0.6917
vn 0.4180 -0.5889 -0.6917
vn 0.4152 -0.5867 -0.6953
vn 0.4189 -0.5924 -0.6882
vn 0.4153 -0.5908 -0.6918
vn 0.4350 0.7967 -0.4196
vn 0.2824 0.8063 -0.5197
vn 0.3269 0.7998 -0.5034
vn 0.7617 0.6417 -0.0894
vn 0.2106 0.7945 -0.5696
vn 0.8709 0.4774 0.1164
vn 0.8910 0.1098 0.4406
vn 0.8427 -0.0375 0.5371
vn 0.8628 -0.0050 0.5056
vn -0.8709 -0.4774 -0.1164
vn -0.7618 -0.6417 0.0894
vn -0.8911 -0.1106 -0.4401
vn 0.8153 -0.1126 0.5680
vn -0.8429 0.0369 -0.5368
vn -0.8625 0.0058 -0.5061
vn -0.4460 0.5308 -0.7207
vn -0.8145 0.1140 -0.5688
vn -0.3177 0.6182 -0.7189
vn 0.8112 0.5847 -0.0000
vn -0.0115 -0.0083 -0.9999
vn 0.0276 0.0199 -0.9994
vn -0.0506 -0.0365 -0.9980
vn -0.0896 -0.0646 -0.9939
vn -0.8112 -0.5847 -0.0000
vn 0.5690 -0.8223 -0.0000
vn 0.5690 -0.8223 0.0001
vn -0.0506 -0.0365 0.9981
vn -0.0896 -0.0646 0.9939
vn -0.0115 -0.0083 0.9999
vn 0.0276 0.0199 0.9994
vn -0.8112 0.5848 -0.0000
vn -0.8518 0.5238 -0.0000
vn -0.8326 0.5538 -0.0000
vn 0.5963 0.8028 -0.0000
vn -0.0669 0.0532 0.9963
vn -0.1841 0.1132 0.9764
vn -0.1792 0.1184 0.9767
vn 0.5962 0.8028 -0.0000
vn -0.0153 0.0105 -0.9998
vn 0.1841 -0.1132 -0.9764
vn 0.0237 -0.0172 -0.9996
vn -0.1841 0.1132 -0.9764
vn 0.8518 -0.5238 -0.0000
vn 0.8220 -0.5695 -0.0000
vn 0.1764 -0.1231 -0.9766
vn 0.1641 -0.1377 -0.9768
vn 0.7698 -0.6382 -0.0000
vn 0.7489 -0.6627 -0.0000
vn 0.7034 -0.7108 -0.0000
vn 0.0041 0.0036 1.0000
vn 0.1467 -0.1594 0.9762
vn 0.1608 -0.1431 0.9766
vn 0.0025 0.0034 1.0000
vn 0.1744 -0.1265 0.9765
vn -0.1651 0.1361 0.9768
vn -0.1514 0.1521 0.9767
vn 0.0028 0.0040 1.0000
vn -0.7034 0.7108 -0.0000
vn -0.6794 0.7338 -0.0000
vn -0.7489 0.6626 -0.0000
vn -0.7698 0.6382 -0.0000
vn -0.0006 -0.0015 -1.0000
vn -0.1617 0.1416 -0.9766
vn -0.1755 0.1248 -0.9765
vn -0.0011 -0.0025 -1.0000
vn -0.1477 0.1577 -0.9764
vn -0.0297 0.0424 -0.9987
vn 0.1505 -0.1537 -0.9766
vn 0.1417 -0.1640 -0.9762
vn -0.1417 0.1640 -0.9762
vn -0.6537 0.7568 -0.0000
vn -0.1417 0.1640 0.9762
vn 0.0457 -0.0761 0.9961
vn 0.1417 -0.1640 0.9762
vn 0.6537 -0.7567 -0.0000
vn 0.6794 -0.7338 -0.0000
vn 0.1841 -0.1132 0.9764
vn -0.6250 -0.7806 -0.0000
vt 0.638360 0.363281
vt 0.628906 0.392028
vt 0.682500 0.467499
vt 0.692226 0.437923
vt 0.736094 0.542969
vt 0.746094 0.512565
vt 0.976562 0.023438
vt 0.095226 0.374655
vt 0.095226 0.374655
vt 0.363281 0.482039
vt 0.055192 0.405964
vt 0.085714 0.371094
vt 0.085714 0.371094
vt 0.329321 0.508598
vt 0.295360 0.535156
vt 0.045679 0.402403
vt 0.021231 0.432522
vt 0.329321 0.508597
vt 0.055191 0.405964
vt 0.011719 0.428961
vt 0.151345 0.832089
vt 0.130777 0.840408
vt 0.053453 0.761719
vt 0.032586 0.769827
vt 0.011719 0.777935
vt 0.110210 0.848726
vt 0.229324 0.893967
vt 0.209069 0.902456
vt 0.333393 0.938984
vt 0.313470 0.947617
vt 0.229324 0.893967
vt 0.249578 0.885478
vt 0.445800 0.978816
vt 0.353316 0.930352
vt 0.430892 0.988281
vt 0.460942 0.983941
vt 0.476237 0.972677
vt 0.476236 0.972677
vt 0.488281 0.976880
vt 0.454238 0.375317
vt 0.498319 0.363281
vt 0.498320 0.453125
vt 0.542401 0.375317
vt 0.574672 0.408202
vt 0.586483 0.453125
vt 0.574672 0.498048
vt 0.542401 0.530933
vt 0.498319 0.542969
vt 0.454238 0.530933
vt 0.421968 0.498048
vt 0.410156 0.453125
vt 0.421968 0.408204
vt 0.425328 0.408204
vt 0.457599 0.375317
vt 0.501680 0.363281
vt 0.501680 0.453125
vt 0.501680 0.542969
vt 0.545762 0.530933
vt 0.578032 0.498048
vt 0.457598 0.530933
vt 0.425328 0.498048
vt 0.545762 0.375317
vt 0.413517 0.453125
vt 0.578032 0.408202
vt 0.589844 0.453125
vt 0.746094 0.420014
vt 0.724172 0.363281
vt 0.724171 0.363281
vt 0.673866 0.428209
vt 0.695788 0.484943
vt 0.628906 0.486236
vt 0.650829 0.542969
vt 0.650828 0.542969
vt 0.673866 0.428210
vt 0.339170 0.617919
vt 0.438130 0.574219
vt 0.463206 0.579277
vt 0.488281 0.584336
vt 0.363750 0.623195
vt 0.388328 0.628470
vt 0.293124 0.661814
vt 0.193447 0.690595
vt 0.169919 0.684984
vt 0.269059 0.656358
vt 0.244994 0.650903
vt 0.146392 0.679374
vt 0.034553 0.716881
vt 0.057387 0.722656
vt 0.011719 0.711106
vt 0.628906 0.363281
vt 0.687500 0.453124
vt 0.746094 0.542969
s 1
f 255/142/337 251/143/337 250/143/337
f 251/143/338 252/144/338 250/143/338
f 250/143/339 252/144/340 253/145/341
f 254/142/339 250/143/339 253/145/341
f 254/142/337 255/142/337 250/143/337
f 256/145/342 257/144/343 255/142/344
f 256/145/345 255/142/345 253/145/345
f 254/142/345 253/145/345 255/142/345
f 257/144/343 251/143/344 255/142/344
f 252/144/338 251/143/338 257/144/338
f 258/146/346 257/144/343 256/145/342
f 258/146/338 252/144/338 257/144/338
f 259/146/347 258/146/347 260/147/347
f 259/146/338 252/144/338 258/146/338
f 260/147/346 258/146/346 256/145/342
f 261/147/345 260/147/345 256/145/345
f 261/147/347 259/146/347 260/147/347
f 252/144/340 259/146/348 261/147/348
f 253/145/341 252/144/340 261/147/348
f 261/147/345 256/145/345 253/145/345
f 263/148/349 262/148/350 264/148/351
f 264/148/351 262/148/350 265/148/352
f 262/148/350 266/148/353 265/148/352
f 265/148/352 266/148/353 267/148/354
f 266/148/353 268/148/355 267/148/354
f 268/148/355 263/148/349 269/148/356
f 267/148/354 268/148/355 269/148/356
f 269/148/356 263/148/349 264/148/351
f 264/148/351 265/148/352 269/148/356
f 265/148/352 267/148/354 269/148/356
f 271/148/357 273/148/358 270/148/359
f 271/148/357 270/148/359 272/148/360
f 273/148/358 274/148/361 270/148/359
f 273/148/358 275/148/362 274/148/361
f 275/148/362 276/148/363 274/148/361
f 277/148/364 272/148/360 276/148/363
f 275/148/362 277/148/364 276/148/363
f 271/148/357 277/148/364 273/148/358
f 277/148/364 271/148/357 272/148/360
f 277/148/364 275/148/362 273/148/358
f 279/148/349 278/148/350 280/148/351
f 280/148/351 278/148/350 281/148/352
f 278/148/350 282/148/353 281/148/352
f 281/148/352 282/148/353 283/148/354
f 282/148/353 284/148/355 283/148/354
f 284/148/355 279/148/349 285/148/356
f 283/148/354 284/148/355 285/148/356
f 280/148/351 281/148/352 285/148/356
f 285/148/356 279/148/349 280/148/351
f 281/148/352 283/148/354 285/148/356
f 287/148/357 289/148/358 286/148/359
f 287/148/357 286/148/359 288/148/360
f 289/148/358 290/148/361 286/148/359
f 289/148/358 291/148/362 290/148/361
f 291/148/362 292/148/363 290/148/361
f 293/148/364 288/148/360 292/148/363
f 291/148/362 293/148/364 292/148/363
f 293/148/364 287/148/357 288/148/360
f 287/148/357 293/148/364 289/148/358
f 293/148/364 291/148/362 289/148/358
f 295/148/349 294/148/350 296/148/351
f 296/148/351 294/148/350 297/148/352
f 294/148/350 298/148/353 297/148/352
f 297/148/352 298/148/353 299/148/354
f 298/148/353 300/148/355 299/148/354
f 300/148/355 295/148/349 301/148/356
f 299/148/354 300/148/355 301/148/356
f 301/148/356 295/148/349 296/148/351
f 296/148/351 297/148/352 301/148/356
f 297/148/352 299/148/354 301/148/356
f 303/148/357 305/148/358 302/148/359
f 303/148/357 302/148/359 304/148/360
f 305/148/358 306/148/361 302/148/359
f 305/148/358 307/148/362 306/148/361
f 307/148/362 308/148/363 306/148/361
f 309/148/364 304/148/360 308/148/363
f 307/148/362 309/148/364 308/148/363
f 303/148/357 309/148/364 305/148/358
f 309/148/364 303/148/357 304/148/360
f 309/148/364 307/148/362 305/148/358
f 313/149/365 310/150/366 311/151/367
f 310/150/366 312/151/367 311/151/367
f 310/150/368 316/152/369 312/151/370
f 310/150/366 313/149/365 314/153/371
f 315/154/372 310/150/366 314/153/371
f 316/152/369 310/150/368 315/154/373
f 317/155/374 316/152/369 320/156/375
f 316/152/369 317/155/374 312/151/370
f 318/157/376 316/152/369 315/154/373
f 319/158/375 316/152/369 318/157/376
f 316/152/369 319/158/375 320/156/375
f 319/158/377 321/158/377 320/156/377
f 321/158/377 322/156/377 320/156/377
f 317/155/378 320/156/378 322/156/378
f 323/159/379 322/156/380 321/158/381
f 323/159/378 317/155/378 322/156/378
f 312/151/378 317/155/378 323/159/378
f 324/160/382 323/159/379 321/158/381
f 311/151/383 323/159/379 324/160/382
f 311/151/378 312/151/378 323/159/378
f 324/160/382 321/158/381 326/161/381
f 325/157/384 324/160/382 326/161/381
f 313/149/385 324/160/382 325/157/384
f 313/149/385 311/151/383 324/160/382
f 326/161/386 321/158/377 327/161/386
f 321/158/377 319/158/377 327/161/386
f 327/161/375 319/158/375 318/157/376
f 314/153/387 313/149/385 325/157/384
f 331/162/388 329/163/389 328/164/390
f 329/163/389 330/165/391 328/164/390
f 331/162/392 328/164/393 332/164/393
f 333/162/394 331/162/395 332/164/393
f 333/162/396 332/164/397 334/165/398
f 335/163/399 333/162/396 334/165/398
f 335/163/399 334/165/398 336/166/400
f 337/167/401 335/163/399 336/166/402
f 337/167/403 336/166/404 330/165/391
f 329/163/389 337/167/403 330/165/391
f 329/163/389 338/168/405 337/167/403
f 338/168/405 339/169/406 337/167/403
f 337/167/401 339/169/407 335/163/399
f 341/170/408 340/171/409 339/169/406
f 339/169/407 340/171/410 342/172/411
f 338/168/405 341/170/408 339/169/406
f 339/169/407 342/172/411 335/163/399
f 342/172/411 343/173/412 333/162/396
f 342/172/411 344/170/413 343/173/412
f 340/171/410 344/170/413 342/172/411
f 335/163/399 342/172/411 333/162/396
f 346/174/414 344/170/413 340/171/410
f 344/170/413 345/175/415 343/173/412
f 344/170/413 346/174/414 345/175/415
f 347/176/416 346/174/414 340/171/410
f 346/174/414 347/176/416 349/177/417
f 346/174/414 348/178/418 345/175/415
f 348/178/418 346/174/414 349/177/417
f 351/174/419 350/179/420 349/177/421
f 350/179/420 352/180/422 349/177/421
f 347/176/423 351/174/419 349/177/421
f 352/180/424 348/178/418 349/177/417
f 350/179/425 348/178/426 352/180/427
f 350/179/420 351/174/419 353/175/428
f 351/174/419 347/176/423 340/171/409
f 351/174/419 341/170/408 353/175/428
f 341/170/408 351/174/419 340/171/409
f 353/175/428 341/170/408 338/168/405
f 345/175/429 353/175/430 354/173/431
f 345/175/429 348/178/426 353/175/430
f 354/173/432 353/175/428 338/168/405
f 348/178/426 350/179/425 353/175/430
f 343/173/433 345/175/429 354/173/431
f 354/173/432 338/168/405 329/163/389
f 343/173/433 354/173/431 331/162/395
f 331/162/388 354/173/432 329/163/389
f 333/162/394 343/173/433 331/162/395
f 367/181/434 356/182/434 355/183/435
f 356/182/434 357/184/434 355/183/435
f 357/184/434 358/185/436 355/183/435
f 358/185/436 359/186/437 355/183/435
f 359/186/437 360/187/438 355/183/435
f 360/187/438 361/188/434 355/183/435
f 361/188/434 362/189/434 355/183/435
f 362/189/434 363/190/434 355/183/435
f 363/190/434 364/191/436 355/183/435
f 364/191/436 365/192/437 355/183/435
f 365/192/437 366/193/438 355/183/435
f 366/193/438 367/181/434 355/183/435
f 366/193/439 368/194/440 367/181/441
f 368/194/440 369/195/442 367/181/441
f 367/181/441 369/195/442 356/182/443
f 369/195/442 370/196/444 356/182/443
f 370/196/445 369/195/445 371/197/446
f 369/195/445 368/194/447 371/197/446
f 373/198/445 372/199/445 371/197/446
f 372/199/445 380/200/447 371/197/446
f 374/201/445 373/198/445 371/197/446
f 375/202/448 374/201/445 371/197/446
f 376/203/445 370/196/445 371/197/446
f 377/204/449 375/202/448 371/197/446
f 378/205/448 376/203/445 371/197/446
f 368/194/447 377/204/449 371/197/446
f 379/206/449 378/205/448 371/197/446
f 380/200/447 379/206/449 371/197/446
f 360/187/450 380/200/451 361/188/452
f 379/206/453 380/200/451 360/187/450
f 380/200/451 372/199/454 361/188/452
f 359/186/455 379/206/453 360/187/450
f 378/205/456 379/206/453 359/186/455
f 358/185/457 378/205/456 359/186/455
f 376/203/458 378/205/456 358/185/457
f 365/192/459 377/204/460 366/193/439
f 375/202/461 377/204/460 365/192/459
f 377/204/460 368/194/440 366/193/439
f 357/184/462 376/203/458 358/185/457
f 370/196/444 376/203/458 357/184/462
f 364/191/463 375/202/461 365/192/459
f 374/201/464 375/202/461 364/191/463
f 373/198/465 374/201/464 363/190/466
f 363/190/466 374/201/464 364/191/463
f 372/199/454 373/198/465 362/189/467
f 362/189/467 373/198/465 363/190/466
f 361/188/452 372/199/454 362/189/467
f 356/182/443 370/196/444 357/184/462
f 384/207/468 381/208/468 382/207/468
f 381/208/468 383/209/468 382/207/468
f 385/210/469 381/208/470 384/207/470
f 386/211/471 385/210/469 384/207/470
f 387/212/472 385/210/469 386/211/471
f 388/212/473 387/212/473 389/213/473
f 389/213/472 387/212/472 386/211/471
f 390/214/473 388/212/473 389/213/473
f 390/214/474 389/213/474 386/211/475
f 391/215/476 388/212/477 390/214/477
f 392/211/474 390/214/474 384/207/474
f 384/207/474 390/214/474 386/211/475
f 392/211/478 391/215/476 390/214/477
f 383/209/479 391/215/476 392/211/478
f 382/207/479 383/209/479 392/211/478
f 382/207/474 392/211/474 384/207/474
f 396/216/480 393/217/481 394/216/482
f 393/217/481 395/217/481 394/216/482
f 398/218/483 395/217/483 393/217/483
f 397/218/484 393/217/485 396/216/486
f 397/218/483 398/218/483 393/217/483
f 400/219/487 398/218/483 397/218/483
f 398/218/488 400/219/489 399/220/490
f 395/217/491 398/218/488 399/220/490
f 401/219/487 400/219/487 397/218/483
f 400/219/492 401/219/492 402/221/493
f 400/219/489 402/221/494 399/220/490
f 402/221/494 403/222/495 399/220/490
f 405/222/496 403/222/497 402/221/493
f 401/219/492 404/221/493 402/221/493
f 404/221/493 405/222/496 402/221/493
f 405/222/496 406/223/498 403/222/497
f 407/224/499 406/223/500 405/222/501
f 408/225/502 407/224/499 405/222/501
f 408/225/502 405/222/501 404/221/503
f 411/226/504 409/227/505 408/225/502
f 409/227/505 407/224/499 408/225/502
f 410/220/506 408/225/502 404/221/503
f 411/226/504 408/225/502 410/220/506
f 412/227/507 409/227/508 411/226/509
f 413/226/510 412/227/507 411/226/509
f 413/226/510 411/226/509 396/216/480
f 396/216/486 411/226/504 410/220/506
f 414/225/511 413/226/512 394/216/513
f 414/225/511 415/224/514 413/226/512
f 394/216/482 413/226/510 396/216/480
f 415/224/514 412/227/515 413/226/512
f 415/224/514 418/228/516 412/227/515
f 416/223/517 415/224/514 414/225/511
f 416/223/517 417/229/518 415/224/514
f 417/229/518 418/228/516 415/224/514
f 418/228/516 419/230/519 412/227/515
f 419/230/520 420/230/520 409/227/508
f 412/227/507 419/230/520 409/227/508
f 409/227/505 420/230/521 407/224/499
f 420/230/521 421/228/522 407/224/499
f 421/228/522 422/229/523 406/223/500
f 407/224/499 421/228/522 406/223/500
f 406/223/498 422/229/524 416/223/525
f 422/229/524 417/229/524 416/223/525
f 406/223/498 416/223/525 403/222/497
f 403/222/495 416/223/517 414/225/511
f 403/222/495 414/225/511 399/220/490
f 399/220/490 414/225/511 394/216/513
f 410/220/506 397/218/484 396/216/486
f 401/219/526 397/218/484 410/220/506
f 404/221/503 401/219/526 410/220/506
f 394/216/513 395/217/491 399/220/490
f 423/231/527 425/231/527 424/232/527
f 425/231/527 426/232/527 424/232/527
f 424/232/527 426/232/527 427/233/527
f 426/232/527 428/233/527 427/233/527
o item_damaged
v -29.153999 3.117801 15.308600
v -24.850100 -8.020700 15.206201
v -22.281900 0.038201 15.206200
v -32.607300 -7.718799 15.308601
v -29.153999 3.117701 16.452700
v -22.282000 0.038101 16.555099
v -32.607300 -7.718799 16.452700
v -24.850201 -8.020799 16.555099
v -17.092899 -8.322799 15.880601
v -15.409900 -3.041299 15.880600
v -12.769351 -27.540876 12.696838
v -63.673347 -71.074860 19.064476
v -63.673347 -71.074860 12.696842
v -12.769351 -27.540876 19.064472
v -10.961202 -26.079712 19.064472
v -10.961202 -26.079712 12.696838
v -4.809795 -36.923893 10.868075
v -56.921329 -79.034264 10.868078
v -3.001537 -35.462624 10.868075
v 1.942219 -44.883183 12.696840
v -50.169319 -86.993553 12.696843
v 1.942333 -44.883186 19.064474
v -50.169319 -86.993553 19.064476
v -56.921333 -79.034149 20.893240
v -4.809681 -36.923897 20.893236
v -3.001532 -35.462734 20.893236
v 3.750483 -43.422024 19.064474
v 3.750483 -43.422024 12.696839
v -5.951000 -27.676098 15.308602
v 42.820202 6.502701 15.206199
v -1.127600 -33.495300 15.206203
v 37.865799 12.200401 15.308599
v -5.950900 -27.676098 16.452702
v 37.865799 12.200401 16.452700
v -1.127700 -33.495300 16.555101
v 3.695500 -39.314400 15.880603
v 42.820202 6.502602 16.555099
v 47.774502 0.805101 15.880600
v -2.795015 -35.282990 16.275021
v 5.127944 -28.912607 26.883406
v -1.078808 -26.454582 23.621006
v -6.081210 -25.034645 20.611614
v -12.135798 -23.949301 16.445290
v -12.338537 -30.065811 12.233399
v -11.924424 -35.174896 9.099353
v -10.717853 -41.653328 5.666685
v -4.511940 -44.102837 8.933982
v 0.490113 -45.531395 11.937371
v 6.545808 -46.616611 16.104681
v 6.749004 -40.499008 20.317661
v 6.326337 -35.388405 23.445822
v 7.380610 -39.972637 19.527817
v 6.966478 -34.863491 22.661968
v -2.163008 -34.755444 15.486209
v 5.759956 -28.385120 26.094625
v -0.446024 -25.935579 22.827305
v -5.448060 -24.507029 19.823923
v -11.503786 -23.421812 15.656507
v -11.706919 -29.539448 11.443561
v -11.284297 -34.649982 8.315486
v -10.085899 -41.125774 4.877913
v -3.879151 -43.583805 8.140303
v 1.123309 -45.003761 11.149649
v 7.177832 -46.089138 15.315902
v -9.684300 -29.093998 14.571502
v -4.336400 -24.520699 17.189802
v -9.684300 -29.093998 17.189802
v -4.336400 -24.520597 14.571502
v -3.830000 -36.157200 14.337303
v 1.518000 -31.583899 14.337303
v 1.402200 -42.469700 15.019603
v 1.402200 -42.469700 16.741703
v 6.750000 -37.896400 15.019603
v 6.750100 -37.896400 16.741703
v -3.830000 -36.157200 17.424002
v 1.518000 -31.583899 17.424002
v -47.485100 74.001503 15.308595
v -51.311600 77.422798 15.880594
v -47.485100 74.001404 16.452694
v -42.651699 80.013397 15.880594
v -37.841202 75.811600 15.206194
v -8.435800 39.442101 15.308598
v -2.130400 43.504501 15.206197
v -8.435800 39.442101 16.452696
v 20.230400 19.849901 15.206198
v 12.789900 16.988201 15.308599
v 12.789900 16.988201 16.452698
v -2.130500 43.504601 16.555096
v 20.230400 19.849901 16.555098
v 27.671101 22.711702 15.880598
v 4.175200 47.567299 15.880596
v -37.841202 75.811600 16.555094
v -33.127602 80.726303 15.880594
v -55.002800 -4.131499 15.308600
v -48.492500 -0.307299 15.206200
v -62.818199 5.832301 15.308600
v -62.818199 5.832302 16.452700
v -55.002899 -4.131399 16.452700
v -56.299702 9.645901 16.555099
v -48.492401 -0.307499 16.555099
v -41.982101 3.516601 15.880600
v -49.781101 13.459501 15.880599
v -56.299599 9.645901 15.206199
v 19.032801 52.480801 15.308597
v 25.285299 48.283699 15.206196
v 25.472500 68.316498 15.308596
v 25.472401 68.316498 16.452694
v 19.032801 52.480801 16.452696
v 31.160200 62.730900 16.555096
v 25.285299 48.283699 16.555096
v 31.537800 44.086800 15.880597
v 36.848099 57.145100 15.880595
v 31.160200 62.730900 15.206195
v -39.834801 34.469398 15.308598
v -30.776600 22.921202 15.308599
v -32.939098 37.802299 15.206197
v -30.776600 22.921103 16.452698
v -39.834801 34.469398 16.452698
v -24.258101 26.734701 16.555098
v -32.939201 37.802299 16.555098
v -26.043501 41.135201 15.880597
v -17.739500 30.548302 15.880598
v -24.257999 26.734802 15.206198
v 65.920898 20.866402 16.452698
v 53.761101 30.418102 16.555098
v 61.289398 31.826202 16.452698
v 59.833099 16.049501 16.555098
v 65.920799 20.866402 15.308599
v 59.833000 16.049501 15.206199
v 61.289299 31.826302 15.308598
v 53.761101 30.418102 15.206198
v 53.745098 11.232301 15.880599
v 46.232800 29.010101 15.880598
v 0.000000 70.710701 -0.000005
v 70.710701 0.000000 0.000000
v 0.000000 55.656200 3.999996
v -55.656101 0.000000 4.000000
v -70.710701 0.000000 0.000000
v 0.000000 -55.656101 4.000004
v 0.000000 -70.710602 0.000005
v 55.656200 0.000000 4.000000
v 0.000000 70.710701 -0.000005
v 0.000000 55.656200 -4.000004
v 70.710701 0.000000 0.000000
v -55.656101 -0.000000 -4.000000
v -70.710701 0.000000 0.000000
v 0.000000 -55.656101 -3.999996
v 0.000000 -70.710602 0.000005
v 55.656200 -0.000000 -4.000000
v 0.000000 70.710701 -0.000005
v 70.710701 0.000000 0.000000
v 0.000000 55.656200 3.999996
v -55.656101 0.000000 4.000000
v -70.710701 0.000000 0.000000
v 0.000000 -55.656101 4.000004
v 0.000000 -70.710602 0.000005
v 55.656200 0.000000 4.000000
v 0.000000 70.710701 -0.000005
v 0.000000 55.656200 -4.000004
v 70.710701 0.000000 0.000000
v -55.656101 -0.000000 -4.000000
v -70.710701 0.000000 0.000000
v 0.000000 -55.656101 -3.999996
v 0.000000 -70.710602 0.000005
v 55.656200 -0.000000 -4.000000
v 0.000000 70.710701 -0.000005
v 70.710701 0.000000 0.000000
v 0.000000 55.656200 3.999996
v -55.656101 0.000000 4.000000
v -70.710701 0.000000 0.000000
v 0.000000 -55.656101 4.000004
v 0.000000 -70.710602 0.000005
v 55.656200 0.000000 4.000000
v 0.000000 70.710701 -0.000005
v 0.000000 55.656200 -4.000004
v 70.710701 0.000000 0.000000
v -55.656101 -0.000000 -4.000000
v -70.710701 0.000000 0.000000
v 0.000000 -55.656101 -3.999996
v 0.000000 -70.710602 0.000005
v 55.656200 -0.000000 -4.000000
vn -0.0130 0.0042 -0.9999
vn 0.0198 -0.0063 -0.9998
vn 0.0527 -0.0168 -0.9985
vn -0.9528 0.3036 -0.0000
vn 0.0199 -0.0063 0.9998
vn -0.0130 0.0042 0.9999
vn 0.0527 -0.0168 0.9985
vn 0.0855 -0.0273 0.9960
vn 0.0855 -0.0273 -0.9960
vn -0.6393 0.7690 -0.0000
vn -0.6499 0.7600 -0.0000
vn -0.0940 0.1130 -0.9891
vn -0.0089 0.0106 -0.9999
vn -0.1016 0.1230 -0.9872
vn -0.6285 0.7778 -0.0000
vn -0.0924 0.1144 -0.9891
vn -0.0016 0.0020 -1.0000
vn 0.1085 -0.1343 -0.9850
vn 0.0444 -0.0529 -0.9976
vn 0.6285 -0.7778 -0.0000
vn -0.7626 -0.6469 -0.0000
vn 0.0360 -0.0424 0.9985
vn 0.1085 -0.1343 0.9850
vn -0.1016 0.1230 0.9872
vn 0.0049 -0.0071 1.0000
vn -0.0937 0.1133 0.9891
vn -0.0251 0.0291 0.9993
vn -0.0924 0.1144 0.9891
vn -0.0091 0.0100 -0.9999
vn 0.0139 -0.0153 -0.9998
vn 0.0369 -0.0406 -0.9985
vn -0.6731 0.7396 0.0001
vn -0.6731 0.7396 -0.0000
vn -0.0091 0.0100 0.9999
vn 0.0139 -0.0152 0.9998
vn 0.0369 -0.0406 0.9985
vn 0.0139 -0.0153 0.9998
vn 0.0599 -0.0658 0.9960
vn 0.0599 -0.0658 -0.9960
vn -0.5492 -0.4688 0.6918
vn -0.5493 -0.4688 0.6917
vn -0.5502 -0.4677 0.6918
vn -0.5493 -0.4688 0.6918
vn -0.5532 -0.4688 0.6886
vn -0.5521 -0.4654 0.6918
vn -0.5485 -0.4650 0.6949
vn -0.5492 -0.4688 0.6917
vn 0.8253 -0.2438 0.5094
vn 0.8126 -0.1501 0.5631
vn 0.5730 0.3906 0.7205
vn 0.8303 -0.3649 0.4212
vn 0.8260 -0.2071 0.5242
vn 0.5493 0.4688 -0.6917
vn 0.5502 0.4677 -0.6918
vn 0.5485 0.4650 -0.6949
vn 0.5038 0.4752 0.7213
vn 0.0282 0.8261 0.5627
vn -0.0627 0.8569 0.5116
vn 0.5492 0.4688 -0.6917
vn -0.0343 0.8437 0.5358
vn -0.1901 0.8796 0.4360
vn 0.5532 0.4688 -0.6886
vn -0.5262 0.8387 0.1406
vn -0.7218 0.6814 -0.1214
vn 0.5521 0.4654 -0.6918
vn -0.8261 0.2076 -0.5240
vn -0.8303 0.3657 -0.4206
vn 0.5492 0.4688 -0.6918
vn -0.8124 0.1485 -0.5640
vn -0.8252 0.2431 -0.5098
vn -0.4997 -0.4798 -0.7211
vn -0.5767 -0.3857 -0.7202
vn -0.0297 -0.8255 -0.5636
vn 0.0620 -0.8567 -0.5120
vn 0.0347 -0.8438 -0.5355
vn 0.1909 -0.8797 -0.4355
vn 0.5261 -0.8387 -0.1406
vn 0.7218 -0.6814 0.1214
vn 0.0069 -0.0081 -0.9999
vn -0.0166 0.0194 -0.9997
vn 0.0305 -0.0356 -0.9989
vn 0.0539 -0.0630 -0.9966
vn 0.6499 -0.7600 -0.0000
vn 0.7699 0.6381 -0.0000
vn 0.0069 -0.0081 0.9999
vn 0.0304 -0.0356 0.9989
vn 0.0539 -0.0630 0.9966
vn -0.0166 0.0194 0.9997
vn -0.0264 0.0786 -0.9966
vn -0.0372 0.1242 -0.9916
vn -0.0271 0.1305 -0.9911
vn -0.6646 -0.7472 -0.0001
vn -0.6642 -0.7475 -0.0000
vn -0.6665 -0.7455 -0.0001
vn -0.6847 -0.7288 -0.0000
vn 0.0109 0.0651 -0.9978
vn -0.0097 -0.0100 -0.9999
vn -0.7060 -0.7082 -0.0000
vn 0.0350 0.0348 -0.9988
vn 0.0154 0.0145 -0.9998
vn -0.7267 -0.6870 -0.0000
vn -0.0101 -0.0095 -0.9999
vn 0.0408 0.0386 0.9984
vn 0.0198 0.0204 0.9996
vn -0.0101 -0.0095 0.9999
vn -0.0097 -0.0100 0.9999
vn 0.0650 0.0668 0.9956
vn 0.0662 0.0626 0.9958
vn 0.0646 0.0683 -0.9956
vn 0.0273 0.1101 -0.9935
vn 0.0274 0.1101 0.9935
vn 0.0109 0.0651 0.9978
vn 0.0662 0.0626 -0.9958
vn -0.0272 0.1305 0.9911
vn -0.0264 0.0787 0.9966
vn -0.0372 0.1242 0.9916
vn 0.0164 0.0129 -0.9998
vn -0.0108 -0.0084 -0.9999
vn -0.7868 -0.6172 -0.0000
vn -0.0108 -0.0084 0.9999
vn 0.0164 0.0128 0.9998
vn 0.0436 0.0342 0.9985
vn 0.0706 0.0554 0.9960
vn 0.0706 0.0554 -0.9960
vn 0.0435 0.0341 -0.9985
vn 0.0196 -0.0080 -0.9998
vn -0.0129 0.0052 -0.9999
vn -0.9263 0.3767 -0.0001
vn -0.9263 0.3767 -0.0000
vn -0.0129 0.0052 0.9999
vn 0.0197 -0.0080 0.9998
vn 0.0520 -0.0212 0.9984
vn 0.0844 -0.0343 0.9958
vn 0.0844 -0.0343 -0.9958
vn 0.0520 -0.0212 -0.9984
vn -0.7868 -0.6172 -0.0001
vn 0.0164 0.0129 0.9998
vn 0.0435 0.0342 -0.9985
vn -0.0125 -0.0472 0.9988
vn 0.0126 0.0053 0.9999
vn -0.0572 0.0262 0.9980
vn -0.0351 -0.0148 0.9993
vn 0.9211 0.3893 -0.0001
vn 0.0126 0.0053 -0.9999
vn -0.0192 -0.0081 -0.9998
vn 0.9211 0.3893 -0.0000
vn -0.0510 -0.0215 -0.9985
vn -0.9211 -0.3892 -0.0001
vn -0.9211 -0.3892 -0.0000
vn 0.2559 0.0853 0.9629
vn -0.0853 0.2559 0.9629
vn 0.0639 0.1919 0.9793
vn -0.1532 0.0510 0.9869
vn -0.2558 -0.0853 0.9629
vn -0.0639 -0.1919 0.9793
vn 0.0853 -0.2559 0.9629
vn 0.1531 -0.0510 0.9869
vn 0.0639 0.1919 -0.9793
vn -0.1531 0.0510 -0.9869
vn -0.0853 0.2559 -0.9629
vn 0.2559 0.0853 -0.9629
vn -0.2558 -0.0853 -0.9629
vn -0.0639 -0.1919 -0.9793
vn 0.0853 -0.2559 -0.9629
vn 0.1532 -0.0510 -0.9869
vt 0.011719 0.976320
vt 0.107414 0.761719
vt 0.226681 0.982299
vt 0.297849 0.822705
vt 0.107414 0.761721
vt 0.297846 0.822707
vt 0.226678 0.982301
vt 0.441643 0.988281
vt 0.488281 0.883690
vt 0.282278 0.375129
vt 0.011719 0.495014
vt 0.320914 0.398790
vt 0.291869 0.371094
vt 0.044494 0.515085
vt 0.077269 0.535156
vt 0.330506 0.394755
vt 0.353690 0.418862
vt 0.353690 0.418862
vt 0.044494 0.515085
vt 0.320915 0.398790
vt 0.330506 0.394755
vt 0.363281 0.414826
vt 0.400388 0.761719
vt 0.444335 0.786777
vt 0.011719 0.937096
vt 0.054504 0.962689
vt 0.011720 0.937096
vt 0.054503 0.962689
vt 0.444335 0.786778
vt 0.097286 0.988281
vt 0.488281 0.811835
vt 0.453830 0.413585
vt 0.497504 0.456713
vt 0.541178 0.499841
vt 0.573150 0.531413
vt 0.584852 0.542969
vt 0.497504 0.456713
vt 0.421859 0.382013
vt 0.410156 0.370457
vt 0.458822 0.406410
vt 0.426850 0.374837
vt 0.502496 0.449537
vt 0.502496 0.449537
vt 0.546170 0.492665
vt 0.578141 0.524238
vt 0.589844 0.535793
vt 0.578141 0.524237
vt 0.415148 0.363281
vt 0.746094 0.484497
vt 0.716235 0.542969
vt 0.746093 0.484497
vt 0.670120 0.478960
vt 0.699978 0.420487
vt 0.628906 0.421753
vt 0.658765 0.363282
vt 0.658765 0.363281
vt 0.034807 0.785623
vt 0.011719 0.773461
vt 0.063970 0.764253
vt 0.034807 0.785623
vt 0.270421 0.908467
vt 0.092996 0.779188
vt 0.308466 0.894027
vt 0.443386 0.978109
vt 0.398492 0.988281
vt 0.308466 0.894026
vt 0.346513 0.879585
vt 0.488281 0.967937
vt 0.121437 0.761719
vt 0.339376 0.939028
vt 0.190472 0.988281
vt 0.011719 0.859953
vt 0.190470 0.988280
vt 0.160810 0.810836
vt 0.339378 0.939030
vt 0.488281 0.889778
vt 0.309903 0.761719
vt 0.160812 0.810836
vt 0.094266 0.908766
vt 0.176816 0.988281
vt 0.488281 0.906386
vt 0.488281 0.906387
vt 0.378421 0.834053
vt 0.011719 0.829251
vt 0.268556 0.761719
vt 0.011719 0.844634
vt 0.207091 0.988280
vt 0.207091 0.988281
vt 0.160449 0.803176
vt 0.347685 0.940844
vt 0.160446 0.803176
vt 0.488281 0.893408
vt 0.309176 0.761719
vt 0.347687 0.940843
vt 0.123193 0.831775
vt 0.234660 0.761719
vt 0.455694 0.901649
vt 0.488279 0.815016
vt 0.234660 0.761720
vt 0.123193 0.831776
vt 0.488281 0.815017
vt 0.011719 0.901833
vt 0.423112 0.988281
vt 0.976562 0.023438
s 1
f 432/234/528 429/235/528 430/236/529
f 429/235/528 431/237/530 430/236/529
f 433/238/531 429/235/531 432/234/531
f 434/239/532 433/238/533 435/234/533
f 435/234/531 433/238/531 432/234/531
f 436/240/534 434/239/532 435/234/533
f 437/241/535 438/242/535 436/240/534
f 438/242/535 434/239/532 436/240/534
f 431/237/530 438/242/536 437/241/536
f 430/236/529 431/237/530 437/241/536
f 442/243/537 439/243/537 440/244/538
f 439/243/537 441/244/538 440/244/538
f 439/243/539 445/245/540 441/244/541
f 439/243/537 442/243/537 443/246/542
f 444/246/542 439/243/537 443/246/542
f 445/245/540 439/243/539 444/246/543
f 446/247/544 445/245/540 449/248/545
f 445/245/540 446/247/544 441/244/541
f 447/249/546 445/245/540 444/246/543
f 448/250/545 445/245/540 447/249/546
f 445/245/540 448/250/545 449/248/545
f 448/250/547 450/251/547 449/248/547
f 450/251/547 451/248/547 449/248/547
f 446/247/548 449/248/548 451/248/548
f 452/252/549 451/248/550 450/251/550
f 452/252/548 446/247/548 451/248/548
f 440/244/551 452/252/549 453/253/552
f 440/244/548 441/244/548 452/252/548
f 441/244/548 446/247/548 452/252/548
f 453/253/552 452/252/549 450/251/550
f 442/243/553 440/244/551 453/253/552
f 442/243/553 453/253/552 454/254/554
f 453/253/552 450/251/550 455/255/550
f 454/254/554 453/253/552 455/255/550
f 455/255/547 450/251/547 456/255/547
f 450/251/547 448/250/547 456/255/547
f 456/255/545 448/250/545 447/249/546
f 443/246/555 442/243/553 454/254/554
f 460/256/556 458/257/557 457/258/556
f 458/257/557 459/259/558 457/258/556
f 460/256/559 457/258/559 461/260/559
f 462/256/560 460/256/560 461/260/560
f 462/256/561 461/260/561 463/261/562
f 465/262/563 463/261/564 464/263/565
f 465/262/563 462/256/561 463/261/564
f 466/264/565 465/262/563 464/263/565
f 466/264/566 464/263/566 459/259/558
f 458/257/557 466/264/566 459/259/558
f 479/265/567 468/266/568 467/266/569
f 468/266/568 469/267/570 467/266/569
f 469/267/570 470/268/571 467/266/569
f 470/268/571 471/269/572 467/266/569
f 471/269/572 472/268/573 467/266/569
f 472/268/573 473/267/568 467/266/569
f 473/267/568 474/270/568 467/266/569
f 474/270/568 475/265/574 467/266/569
f 475/265/574 476/271/571 467/266/569
f 476/271/571 477/272/572 467/266/569
f 477/272/572 478/271/573 467/266/569
f 478/271/573 479/265/567 467/266/569
f 479/265/575 481/273/576 468/266/577
f 478/271/578 480/274/579 479/265/575
f 480/274/579 481/273/576 479/265/575
f 483/275/580 481/273/580 482/276/581
f 481/273/580 480/274/582 482/276/581
f 481/273/576 483/275/583 468/266/577
f 468/266/577 483/275/583 469/267/584
f 483/275/583 484/277/585 469/267/584
f 484/277/586 483/275/580 482/276/581
f 469/267/584 484/277/585 470/268/587
f 484/277/585 485/278/588 470/268/587
f 485/278/589 484/277/586 482/276/581
f 470/268/587 485/278/588 471/269/590
f 485/278/588 486/279/591 471/269/590
f 486/279/592 485/278/589 482/276/581
f 487/280/582 486/279/592 482/276/581
f 486/279/591 487/280/593 472/268/594
f 471/269/590 486/279/591 472/268/594
f 488/277/595 487/280/582 482/276/581
f 487/280/593 488/277/596 473/267/597
f 472/268/594 487/280/593 473/267/597
f 489/276/580 488/277/595 482/276/581
f 488/277/596 489/276/598 474/270/599
f 473/267/597 488/277/596 474/270/599
f 474/270/599 489/276/598 475/265/600
f 489/276/598 490/273/601 475/265/600
f 490/273/595 489/276/580 482/276/581
f 475/265/600 490/273/601 476/271/602
f 490/273/601 491/274/603 476/271/602
f 491/274/589 490/273/595 482/276/581
f 476/271/602 491/274/603 477/272/604
f 491/274/603 492/281/605 477/272/604
f 492/281/592 491/274/589 482/276/581
f 477/272/604 492/281/605 478/271/578
f 492/281/605 480/274/579 478/271/578
f 480/274/582 492/281/592 482/276/581
f 496/282/538 493/283/538 494/284/538
f 493/283/538 495/283/538 494/284/538
f 497/285/606 493/283/607 496/282/607
f 498/286/608 497/285/606 496/282/607
f 499/287/609 497/285/606 498/286/608
f 500/287/610 499/287/610 501/288/610
f 501/288/609 499/287/609 498/286/608
f 502/289/610 500/287/610 501/288/610
f 502/289/611 501/288/611 498/286/611
f 504/286/612 503/285/613 502/289/614
f 503/285/613 500/287/614 502/289/614
f 504/286/611 502/289/611 496/282/611
f 496/282/611 502/289/611 498/286/611
f 494/284/611 504/286/611 496/282/611
f 494/284/615 495/283/615 504/286/612
f 495/283/615 503/285/613 504/286/612
f 505/290/616 506/291/617 508/292/618
f 505/290/619 507/293/620 506/291/621
f 507/293/620 505/290/619 510/294/622
f 509/295/623 505/290/616 508/292/618
f 505/290/616 509/295/623 510/294/624
f 512/294/625 507/293/620 510/294/622
f 509/295/623 511/296/626 510/294/624
f 510/294/624 511/296/626 513/297/627
f 512/294/625 510/294/622 514/298/628
f 514/298/629 510/294/624 513/297/627
f 515/298/628 512/294/625 514/298/628
f 517/297/630 516/299/631 515/298/632
f 516/299/631 512/294/633 515/298/632
f 519/300/634 516/299/631 517/297/630
f 518/301/635 519/300/634 517/297/630
f 511/296/626 509/295/623 519/300/636
f 509/295/623 521/302/637 519/300/636
f 521/302/638 520/295/639 519/300/634
f 520/295/639 516/299/631 519/300/634
f 511/296/626 519/300/636 518/301/640
f 520/295/639 521/302/638 508/292/641
f 521/302/637 509/295/623 508/292/618
f 520/295/639 507/293/642 512/294/633
f 507/293/642 520/295/639 508/292/641
f 516/299/631 520/295/639 512/294/633
f 513/297/627 511/296/626 518/301/640
f 506/291/643 507/293/642 508/292/641
f 523/303/644 522/304/645 524/305/645
f 524/305/646 522/304/646 525/305/646
f 522/304/646 526/306/646 525/305/646
f 525/305/647 526/306/647 527/307/648
f 526/306/647 528/308/649 527/307/648
f 528/308/649 529/309/650 530/310/650
f 527/307/648 528/308/649 530/310/650
f 530/310/651 529/309/651 531/311/652
f 529/309/651 523/303/644 531/311/652
f 531/311/652 523/303/644 524/305/645
f 533/312/653 532/313/654 534/314/654
f 534/314/655 532/313/656 535/315/655
f 532/313/656 536/313/656 535/315/655
f 535/315/657 536/313/657 537/316/658
f 536/313/657 538/312/659 537/316/658
f 538/312/659 539/317/660 540/318/660
f 537/316/658 538/312/659 540/318/660
f 540/318/661 539/317/661 541/316/662
f 539/317/661 533/312/653 541/316/662
f 541/316/662 533/312/653 534/314/654
f 542/319/663 543/320/663 545/321/663
f 543/320/645 542/319/645 544/322/644
f 546/319/646 542/319/646 545/321/646
f 545/321/647 547/323/664 546/319/647
f 547/323/664 548/324/649 546/319/647
f 550/325/650 549/326/650 548/324/649
f 547/323/664 550/325/650 548/324/649
f 550/325/651 551/327/665 549/326/651
f 551/327/652 543/320/645 544/322/644
f 551/327/652 544/322/644 549/326/651
f 555/328/666 552/329/667 553/330/668
f 552/329/667 554/331/667 553/330/669
f 554/331/670 552/329/670 556/332/670
f 556/332/671 557/333/672 558/334/671
f 558/334/673 554/331/673 556/332/673
f 557/333/672 559/330/674 558/334/671
f 557/333/672 560/335/675 559/330/674
f 560/335/675 561/336/676 559/330/674
f 560/335/675 555/328/666 561/336/676
f 555/328/666 553/330/668 561/336/676
f 563/337/677 562/337/678 564/337/679
f 564/337/679 562/337/678 565/337/680
f 562/337/678 566/337/681 565/337/680
f 565/337/680 566/337/681 567/337/682
f 566/337/681 568/337/683 567/337/682
f 568/337/683 563/337/677 569/337/684
f 567/337/682 568/337/683 569/337/684
f 569/337/684 563/337/677 564/337/679
f 564/337/679 565/337/680 569/337/684
f 565/337/680 567/337/682 569/337/684
f 571/337/685 573/337/686 570/337/687
f 571/337/685 570/337/687 572/337/688
f 573/337/686 574/337/689 570/337/687
f 573/337/686 575/337/690 574/337/689
f 575/337/690 576/337/691 574/337/689
f 577/337/692 572/337/688 576/337/691
f 575/337/690 577/337/692 576/337/691
f 571/337/685 577/337/692 573/337/686
f 577/337/692 571/337/685 572/337/688
f 577/337/692 575/337/690 573/337/686
f 579/337/677 578/337/678 580/337/679
f 580/337/679 578/337/678 581/337/680
f 578/337/678 582/337/681 581/337/680
f 581/337/680 582/337/681 583/337/682
f 582/337/681 584/337/683 583/337/682
f 584/337/683 579/337/677 585/337/684
f 583/337/682 584/337/683 585/337/684
f 580/337/679 581/337/680 585/337/684
f 585/337/684 579/337/677 580/337/679
f 581/337/680 583/337/682 585/337/684
f 587/337/685 589/337/686 586/337/687
f 587/337/685 586/337/687 588/337/688
f 589/337/686 590/337/689 586/337/687
f 589/337/686 591/337/690 590/337/689
f 591/337/690 592/337/691 590/337/689
f 593/337/692 588/337/688 592/337/691
f 591/337/690 593/337/692 592/337/691
f 593/337/692 587/337/685 588/337/688
f 587/337/685 593/337/692 589/337/686
f 593/337/692 591/337/690 589/337/686
f 595/337/677 594/337/678 596/337/679
f 596/337/679 594/337/678 597/337/680
f 594/337/678 598/337/681 597/337/680
f 597/337/680 598/337/681 599/337/682
f 598/337/681 600/337/683 599/337/682
f 600/337/683 595/337/677 601/337/684
f 599/337/682 600/337/683 601/337/684
f 601/337/684 595/337/677 596/337/679
f 596/337/679 597/337/680 601/337/684
f 597/337/680 599/337/682 601/337/684
f 603/337/685 605/337/686 602/337/687
f 603/337/685 602/337/687 604/337/688
f 605/337/686 606/337/689 602/337/687
f 605/337/686 607/337/690 606/337/689
f 607/337/690 608/337/691 606/337/689
f 609/337/692 604/337/688 608/337/691
f 607/337/690 609/337/692 608/337/691
f 603/337/685 609/337/692 605/337/686
f 609/337/692 603/337/685 604/337/688
f 609/337/692 607/337/690 605/337/686
o effect
v -35.374783 -4.622668 -3.483364
v -109.539787 -6.437832 3.857580
v -35.374783 -4.622667 3.483364
v -109.539787 -6.437833 -3.857579
v -110.059372 2.344676 -6.465956
v -35.150272 3.709559 -5.343424
v -35.150272 3.709560 5.343423
v -110.059372 2.344676 6.465956
v -35.584221 12.049485 3.483363
v -35.584221 12.049485 -3.483365
v -110.579048 11.127186 3.857579
v -171.314194 5.989187 3.857579
v -110.579048 11.127186 -3.857581
v -171.314194 5.989186 -3.857580
v -227.789032 -2.082219 -3.857580
v -226.514862 -10.779902 -6.465955
v -170.404526 -2.760676 -6.465956
v -169.495087 -11.510421 -3.857579
v -225.240891 -19.477468 -3.857579
v -293.737366 -33.798824 -3.735313
v -293.737366 -33.798824 3.735318
v -225.240891 -19.477468 3.857581
v -226.514862 -10.779901 6.465957
v -169.495087 -11.510421 3.857581
v -170.404526 -2.760675 6.465956
v -227.789032 -2.082219 3.857580
v -297.122711 -16.274298 -3.735315
v -297.122711 -16.274298 3.735317
v -295.774292 -25.118654 5.729938
v -295.774292 -25.118654 -5.729934
v -35.318840 -4.141776 -2.735048
v -35.474915 10.411451 -2.735049
v -35.318840 -4.141776 2.735048
v -35.474915 10.411451 2.735047
v -35.403614 3.762916 -4.221008
v -35.403614 3.762916 4.221007
v -293.368896 -31.964571 -2.735046
v -296.226044 -17.417904 -2.735047
v -293.368896 -31.964571 2.735050
v -296.226044 -17.417904 2.735049
v -294.797394 -24.691242 -4.221006
v -294.797394 -24.691242 4.221010
v -225.448196 -17.983685 -2.735047
v -227.604218 -3.293911 -2.735048
v -225.448196 -17.983685 2.735049
v -227.604218 -3.293910 2.735048
v -226.526108 -10.638916 -4.221007
v -226.526108 -10.638916 4.221009
v -169.641464 -10.049451 -2.735047
v -171.188583 4.726753 -2.735048
v -169.641464 -10.049451 2.735049
v -171.188583 4.726753 2.735048
v -170.414963 -2.661406 -4.221008
v -170.414963 -2.661405 4.221008
v -109.620605 -5.016171 -2.735048
v -110.512978 9.815059 -2.735049
v -109.620605 -5.016171 2.735049
v -110.512978 9.815059 2.735047
v -110.066750 2.399443 -4.221008
v -110.066750 2.399444 4.221008
v -293.368896 -31.964571 -2.735046
v -294.797394 -24.691242 -4.221006
v -293.368896 -31.964571 2.735050
v -294.797394 -24.691242 4.221010
v -296.226044 -17.417904 2.735049
v -296.226044 -17.417904 -2.735047
v -93.235199 -4.707600 -3.134204
v -93.235199 -4.707600 3.134320
v -93.462303 3.188548 -5.019436
v -89.867874 3.222572 -5.019436
v -89.741592 -4.674607 -3.134204
v -89.741592 -4.674607 3.134320
v -93.462303 3.188549 5.019435
v -89.867874 3.222573 5.019435
v -89.994171 11.119751 -3.134321
v -89.994171 11.119751 3.134203
v -93.689316 11.084810 3.134203
v -93.689316 11.084810 -3.134321
vn 0.0629 -0.9980 -0.0000
vn 0.0245 -0.9997 -0.0000
vn 0.0459 -0.9989 -0.0000
vn 1.0000 -0.0027 -0.0000
vn 0.9996 -0.0269 -0.0000
vn 0.0158 -0.2520 -0.9676
vn 0.0179 -0.2837 -0.9588
vn 0.0084 -0.0413 -0.9991
vn 0.0151 -0.0024 -0.9999
vn 0.9996 0.0277 -0.0000
vn 0.0151 -0.0024 0.9999
vn 0.0063 0.2524 0.9676
vn 0.0027 0.0429 0.9991
vn 0.0158 -0.2520 0.9676
vn 0.9986 0.0520 -0.0000
vn -0.0123 0.9999 -0.0000
vn -0.0484 0.9988 -0.0000
vn -0.0114 0.2841 0.9587
vn -0.0298 0.2827 0.9587
vn -0.1047 0.9945 -0.0000
vn -0.1211 0.9926 -0.0000
vn -0.1625 0.9867 -0.0000
vn -0.0085 0.0419 -0.9991
vn -0.0494 0.2803 -0.9587
vn -0.0344 0.2822 -0.9587
vn 0.0023 0.0010 -1.0000
vn -0.0149 0.2839 -0.9587
vn 0.0298 -0.2827 -0.9587
vn 0.0463 -0.2808 -0.9587
vn 0.2047 -0.9788 -0.0000
vn 0.1822 -0.9833 -0.0000
vn 0.0449 -0.2486 -0.9676
vn 0.1641 -0.9864 -0.0000
vn 0.1211 -0.9926 -0.0000
vn 0.0017 -0.0418 0.9991
vn 0.0486 -0.2804 0.9587
vn 0.0344 -0.2822 0.9587
vn 0.0449 -0.2486 0.9676
vn 0.1048 -0.9945 -0.0000
vn -0.0026 0.0004 1.0000
vn 0.0196 -0.2836 0.9587
vn -0.0467 0.2807 0.9587
vn -0.1796 0.9837 -0.0000
vn -0.2005 0.9797 -0.0000
vn -0.0568 0.2461 0.9676
vn -0.9846 -0.1748 -0.0000
vn -0.9886 -0.1507 -0.0000
vn -0.0093 -0.0073 0.9999
vn -0.9788 -0.2046 -0.0000
vn -0.9736 -0.2285 -0.0000
vn -0.0093 -0.0073 -0.9999
vn -0.0568 0.2461 -0.9676
vn 0.0063 0.2524 -0.9676
vn 0.0396 -0.1925 -0.9805
vn -0.0103 0.0613 -0.9981
vn 0.0016 0.0009 -1.0000
vn 0.0321 -0.1937 -0.9805
vn 0.0119 -0.0700 0.9975
vn 0.0396 -0.1925 0.9805
vn 0.0355 -0.1931 0.9805
vn -0.0019 0.0002 1.0000
vn 0.2016 -0.9795 -0.0000
vn 0.1800 -0.9837 -0.0000
vn 0.1625 -0.9867 -0.0000
vn -0.0396 0.1925 -0.9805
vn -0.0353 0.1931 -0.9805
vn -0.2016 0.9795 -0.0000
vn -0.1800 0.9837 -0.0000
vn -0.0396 0.1925 0.9805
vn -0.0319 0.1937 0.9805
vn 0.0016 0.0007 -1.0000
vn 0.0205 -0.1951 -0.9806
vn 0.0237 -0.1947 0.9806
vn -0.0017 0.0003 1.0000
vn 0.1204 -0.9927 -0.0000
vn 0.1040 -0.9946 -0.0000
vn -0.0236 0.1947 -0.9806
vn -0.1204 0.9927 -0.0000
vn -0.1040 0.9946 -0.0000
vn -0.0204 0.1951 0.9806
vn 0.0021 0.0045 -1.0000
vn 0.0077 -0.1921 -0.9813
vn 0.0114 -0.1958 0.9806
vn -0.0024 0.0340 0.9994
vn 0.0580 -0.9983 -0.0000
vn 0.0374 -0.9993 -0.0000
vn -0.0111 0.1958 -0.9806
vn -0.0458 0.9990 -0.0000
vn -0.0090 0.1959 0.9806
vn 0.0029 -0.1906 0.9817
vn -0.0002 0.0146 0.9999
vn 0.0118 -0.9999 -0.0000
vn -0.0027 0.2071 0.9783
vn -0.0079 1.0000 -0.0000
vn -0.0027 0.2071 -0.9783
vn 0.0021 -0.0578 -0.9983
vn 0.0022 -0.1847 -0.9828
vn 0.9999 0.0107 -0.0000
vn -0.9813 -0.1927 -0.0000
vn -0.9812 -0.1927 -0.0000
vn 0.0094 -1.0000 -0.0000
vn -0.9996 -0.0287 -0.0000
vn 0.0022 -0.2322 -0.9727
vn -0.0024 0.0840 -0.9965
vn 0.0037 -0.0843 -0.9964
vn -0.0033 0.0740 0.9972
vn 0.0022 -0.0743 0.9972
vn 0.0022 -0.2322 0.9727
vn 0.9999 0.0160 -0.0000
vn -0.0022 0.2322 0.9727
vn -0.0095 1.0000 -0.0000
vn -0.0022 0.2321 -0.9727
vt 0.352875 0.633003
vt 0.487720 0.624855
vt 0.488281 0.599537
vt 0.352092 0.606343
vt 0.487645 0.574219
vt 0.351308 0.579684
vt 0.240814 0.597448
vt 0.138009 0.623971
vt 0.140166 0.650346
vt 0.242306 0.623994
vt 0.243799 0.650540
vt 0.142322 0.676721
vt 0.017551 0.722656
vt 0.011719 0.669544
vt 0.014008 0.696362
vt 0.016650 0.722656
vt 0.014184 0.699027
vt 0.139093 0.650501
vt 0.140917 0.674377
vt 0.011719 0.675397
vt 0.137269 0.626624
vt 0.241684 0.622251
vt 0.242951 0.646281
vt 0.240416 0.598221
vt 0.351952 0.603328
vt 0.352622 0.627461
vt 0.351283 0.579196
vt 0.488281 0.621609
vt 0.488281 0.595868
vt 0.488281 0.574219
vt 0.628906 0.511340
vt 0.628906 0.394910
vt 0.687500 0.542969
vt 0.687500 0.363281
vt 0.746094 0.394910
vt 0.746094 0.511340
vt 0.629684 0.397023
vt 0.628906 0.397023
vt 0.628906 0.509225
vt 0.687088 0.542969
vt 0.687889 0.542969
vt 0.629684 0.509225
vt 0.687889 0.363281
vt 0.687088 0.363281
vt 0.745271 0.397025
vt 0.746094 0.509227
vt 0.746094 0.397025
vt 0.745271 0.509227
s 1
f 613/338/693 610/339/694 611/338/695
f 610/339/694 612/339/694 611/338/695
f 616/340/696 612/339/697 610/339/697
f 610/339/698 613/338/699 614/341/700
f 615/340/701 610/339/698 614/341/700
f 615/340/702 616/340/696 610/339/697
f 616/340/703 618/342/704 617/341/705
f 612/339/706 616/340/703 617/341/705
f 618/342/707 616/340/696 615/340/702
f 619/342/707 618/342/707 615/340/702
f 618/342/708 619/342/708 620/343/709
f 618/342/704 620/343/710 617/341/705
f 620/343/710 621/344/711 617/341/705
f 623/344/712 621/344/713 620/343/709
f 619/342/708 622/343/709 620/343/709
f 622/343/709 623/344/712 620/343/709
f 623/344/712 624/345/714 621/344/713
f 625/346/715 624/345/716 623/344/717
f 626/347/718 625/346/715 623/344/717
f 626/347/718 623/344/717 622/343/719
f 614/341/700 626/347/718 622/343/719
f 627/348/720 626/347/718 614/341/700
f 628/349/721 625/346/715 626/347/718
f 627/348/720 628/349/721 626/347/718
f 630/350/722 629/350/722 628/349/723
f 628/349/721 629/350/724 625/346/715
f 631/349/725 630/350/722 628/349/723
f 631/349/725 628/349/723 627/348/726
f 632/346/727 631/349/728 633/348/729
f 630/350/730 631/349/728 632/346/727
f 633/348/731 631/349/725 627/348/726
f 634/347/732 632/346/727 633/348/729
f 633/348/731 627/348/726 613/338/693
f 634/347/732 633/348/729 611/338/733
f 611/338/695 633/348/731 613/338/693
f 621/344/711 634/347/732 617/341/705
f 621/344/711 635/345/734 634/347/732
f 635/345/734 632/346/727 634/347/732
f 617/341/705 634/347/732 611/338/733
f 624/345/714 635/345/735 621/344/713
f 624/345/714 636/351/736 635/345/735
f 636/351/736 637/351/736 635/345/735
f 635/345/734 637/351/737 632/346/727
f 638/352/738 637/351/739 636/351/739
f 637/351/737 638/352/740 632/346/727
f 639/352/741 638/352/738 636/351/739
f 630/350/742 638/352/738 639/352/741
f 638/352/740 630/350/730 632/346/727
f 629/350/742 630/350/742 639/352/741
f 629/350/724 639/352/743 625/346/715
f 639/352/743 636/351/744 625/346/715
f 636/351/744 624/345/716 625/346/715
f 613/338/699 627/348/720 614/341/700
f 622/343/719 619/342/745 614/341/700
f 619/342/745 615/340/701 614/341/700
f 611/338/733 612/339/706 617/341/705
f 646/353/746 650/354/747 656/355/748
f 652/356/749 646/353/746 656/355/748
f 651/354/750 648/353/751 654/356/752
f 657/355/753 651/354/750 654/356/752
f 648/353/754 646/353/754 652/356/755
f 654/356/756 648/353/754 652/356/755
f 650/354/747 647/357/757 653/358/758
f 656/355/748 650/354/747 653/358/758
f 647/357/759 649/357/759 655/358/760
f 653/358/714 647/357/759 655/358/760
f 649/357/761 651/354/750 657/355/753
f 655/358/762 649/357/761 657/355/753
f 652/356/749 656/355/748 662/359/763
f 658/360/764 652/356/749 662/359/763
f 657/355/753 654/356/752 660/360/765
f 663/359/766 657/355/753 660/360/765
f 654/356/756 652/356/755 658/360/767
f 660/360/768 654/356/756 658/360/767
f 656/355/748 653/358/758 659/361/769
f 662/359/763 656/355/748 659/361/769
f 653/358/714 655/358/760 661/361/770
f 659/361/771 653/358/714 661/361/770
f 655/358/762 657/355/753 663/359/766
f 661/361/772 655/358/762 663/359/766
f 658/360/764 662/359/763 668/362/773
f 664/363/774 658/360/764 668/362/773
f 663/359/766 660/360/765 666/363/775
f 669/362/776 663/359/766 666/363/775
f 660/360/768 658/360/767 664/363/777
f 666/363/778 660/360/768 664/363/777
f 662/359/763 659/361/769 665/364/779
f 668/362/773 662/359/763 665/364/779
f 659/361/771 661/361/770 667/364/780
f 665/364/780 659/361/771 667/364/780
f 661/361/772 663/359/766 669/362/776
f 667/364/781 661/361/772 669/362/776
f 642/365/782 645/366/783 669/362/776
f 666/363/775 642/365/782 669/362/776
f 640/365/784 642/365/784 666/363/778
f 664/363/777 640/365/784 666/363/778
f 643/367/785 667/364/781 669/362/776
f 645/366/783 643/367/785 669/362/776
f 641/367/786 665/364/780 667/364/780
f 643/367/786 641/367/786 667/364/780
f 641/367/787 644/366/788 668/362/773
f 665/364/779 641/367/787 668/362/773
f 644/366/788 640/365/789 664/363/774
f 668/362/773 644/366/788 664/363/774
f 643/367/790 645/366/790 644/366/790
f 641/367/790 643/367/790 644/366/790
f 645/366/790 642/365/790 640/365/790
f 644/366/790 645/366/790 640/365/790
f 670/368/791 672/369/791 671/370/791
f 672/369/791 673/371/791 671/370/791
f 673/371/791 674/372/792 675/373/791
f 671/370/791 673/371/791 675/373/791
f 681/374/793 677/375/793 676/376/793
f 677/375/794 678/377/794 676/376/794
f 676/376/795 678/377/796 679/378/797
f 680/379/795 676/376/795 679/378/797
f 680/379/793 681/374/793 676/376/793
f 683/380/798 682/381/799 681/374/800
f 682/381/799 677/375/800 681/374/800
f 680/379/801 679/378/801 681/374/801
f 683/380/801 681/374/801 679/378/801
f 686/382/802 682/381/799 683/380/798
f 684/383/801 683/380/801 679/378/801
f 684/383/801 685/384/801 683/380/801
f 685/384/802 686/382/802 683/380/798
f 687/385/803 686/382/803 685/384/803
f 687/385/794 678/377/794 686/382/794
f 686/382/794 678/377/794 682/381/794
f 678/377/796 687/385/804 684/383/804
f 684/383/803 687/385/803 685/384/803
f 679/378/797 678/377/796 684/383/804
f 678/377/794 677/375/794 682/381/794
