# Blender 5.2.0 LTS
# www.blender.org
o blade
v -33.167946 -1.961311 -1.857793
v 33.888592 -0.516454 1.857790
v 33.888592 -0.516455 -1.857794
v -33.167946 -1.961311 1.857790
v -35.494469 -1.976056 1.857790
v -35.494469 -1.976056 -1.857793
v -33.128986 3.644866 -2.924860
v -35.455509 3.630122 -2.924860
v -33.095940 8.400446 -1.857794
v 33.952099 8.622730 -1.857794
v 33.920338 4.053137 -2.924860
v 33.952099 8.622730 1.857790
v 33.920338 4.053137 2.924856
v -33.128986 3.644867 2.924856
v -33.095940 8.400446 1.857790
v -35.422462 8.385701 -1.857794
v -35.422462 8.385701 1.857790
v -35.455509 3.630123 2.924856
v -39.060116 -2.243780 -0.566752
v -124.766975 1.152836 -0.668233
v -39.048691 3.365328 -0.668233
v -124.520691 -4.448440 -0.566752
v -39.060116 -2.243780 0.566756
v -124.520691 -4.448440 0.566756
v -39.048691 3.365328 0.668235
v -124.766975 1.152836 0.668235
v -39.037266 8.974318 0.000001
v -125.013374 6.753990 0.000001
v -197.183609 -4.909896 -0.668232
v -197.660385 0.672150 0.000001
v -265.255890 -8.325856 0.000002
v -264.564636 -13.879498 -0.668231
v -197.183609 -4.909896 0.668236
v -264.564636 -13.879498 0.668237
v -196.706955 -10.491824 0.566756
v -263.873535 -19.432789 0.566757
v -196.706955 -10.491824 -0.566752
v -263.873535 -19.432789 -0.566751
v -334.913757 -32.439583 -0.566750
v -334.913757 -32.439583 0.566758
v -330.417328 -25.522818 -0.668231
v -333.302246 -20.698975 0.000003
v -339.098419 -27.144934 0.000004
v -330.417328 -25.522818 0.668237
v -341.919098 -33.701660 0.000004
v -34.015800 -2.157500 -1.099300
v -42.484100 -2.225600 1.099300
v -34.015800 -2.157500 1.099300
v -42.484100 -2.225600 -1.099300
v -34.015800 3.610700 -1.295900
v -42.484100 3.542600 -1.295900
v -34.015800 8.765900 -0.723001
v -34.015800 8.765900 0.722999
v -42.484100 8.697800 -0.723001
v -42.484100 8.697800 0.722999
v -34.015800 3.610700 1.295900
v -42.484100 3.542600 1.295900
v -35.188805 3.601435 0.000002
v -35.188805 3.601434 12.755768
v -35.185284 -3.155957 11.046864
v -35.182705 -8.102701 6.377952
v -35.181763 -9.913346 0.000005
v -35.182705 -8.102701 -6.377943
v -35.185284 -3.155955 -11.046858
v -35.188805 3.601436 -12.755766
v -35.192333 10.357965 -11.045453
v -35.194908 15.304867 -6.377564
v -35.195847 17.116213 -0.000002
v -35.194908 15.304921 6.377465
v -35.192333 10.357957 11.045443
v -37.100796 15.306503 6.377820
v -37.098217 10.359756 11.046862
v -37.094696 3.602365 0.000002
v -37.094696 3.602364 12.755768
v -37.091167 -3.154156 11.045443
v -37.088593 -8.101061 6.377564
v -37.087654 -9.912416 0.000005
v -37.088593 -8.101075 -6.377563
v -37.091167 -3.154166 -11.045456
v -37.094696 3.602365 -12.755766
v -37.098217 10.359756 -11.046861
v -37.100796 15.306500 -6.377948
v -37.101738 17.117147 -0.000002
vn 0.0139 -0.9999 -0.0000
vn 0.0215 -0.9998 -0.0000
vn 0.0026 -0.1870 -0.9824
vn 0.0008 -0.0179 -0.9998
vn 0.0030 -0.2075 -0.9782
vn 0.0063 -1.0000 -0.0000
vn 0.0012 -0.1870 -0.9824
vn 0.0004 0.0835 -0.9965
vn -0.0011 0.2189 -0.9757
vn -0.0011 0.2232 -0.9748
vn -0.0000 0.0019 -1.0000
vn 1.0000 -0.0069 -0.0000
vn 1.0000 -0.0070 -0.0000
vn 0.0004 0.0095 1.0000
vn 0.0008 0.0766 0.9971
vn -0.0011 0.2217 0.9751
vn 0.0030 -0.2075 0.9782
vn -0.0008 0.2274 0.9738
vn -0.0048 1.0000 -0.0000
vn -0.0063 1.0000 -0.0000
vn -0.0033 1.0000 -0.0000
vn -0.0014 0.2189 0.9757
vn -0.0006 -0.0543 0.9985
vn 0.0026 -0.1870 0.9824
vn 0.0012 -0.1870 0.9824
vn -0.0014 0.2189 -0.9757
vn 0.0010 -0.0181 -0.9998
vn -0.0015 0.0274 -0.9996
vn 0.0005 -0.0181 -0.9998
vn -0.0018 0.0731 -0.9973
vn 0.0551 -0.9985 -0.0000
vn 0.0258 -0.9997 -0.0000
vn 0.0546 -0.9985 -0.0000
vn 0.0548 -0.9985 -0.0000
vn 0.0010 -0.0181 0.9998
vn 0.0005 -0.0181 0.9998
vn -0.0008 0.0276 0.9996
vn -0.0040 0.0729 0.9973
vn -0.0031 0.1183 0.9930
vn -0.0064 0.1182 0.9930
vn -0.0064 0.1182 -0.9930
vn -0.0031 0.1183 -0.9930
vn -0.0049 0.0501 -0.9987
vn -0.0136 0.1177 -0.9930
vn -0.0118 0.1179 0.9930
vn -0.0095 0.0633 -0.9979
vn -0.0196 0.1194 -0.9927
vn -0.0186 0.1189 0.9927
vn -0.0059 0.0501 0.9987
vn -0.0057 0.0362 0.9993
vn 0.0020 -0.0180 0.9998
vn 0.0995 -0.9950 -0.0000
vn 0.1479 -0.9890 -0.0000
vn 0.1159 -0.9933 -0.0000
vn 0.0028 -0.0179 0.9998
vn 0.1643 -0.9864 -0.0000
vn 0.0020 -0.0180 -0.9998
vn 0.0028 -0.0179 -0.9998
vn -0.0354 0.0549 -0.9979
vn 0.1787 -0.9839 -0.0000
vn -0.0563 0.0205 -0.9982
vn -0.0877 0.0532 -0.9947
vn -0.0578 0.1030 -0.9930
vn -0.0873 0.0376 -0.9955
vn -0.0354 0.0549 0.9979
vn -0.0578 0.1030 0.9930
vn -0.0877 0.0533 0.9947
vn -0.0873 0.0376 0.9955
vn -0.0563 0.0205 0.9982
vn 0.1773 -0.9842 -0.0000
vn 0.0080 -1.0000 -0.0000
vn -0.0003 0.0141 -0.9999
vn 0.0003 -0.0341 -0.9994
vn -0.0003 0.0624 -0.9981
vn -0.0009 0.1105 -0.9939
vn -0.0080 1.0000 -0.0000
vn -1.0000 -0.0000 -0.0000
vn -0.0003 0.0624 0.9981
vn -0.0009 0.1105 0.9939
vn -0.0003 0.0141 0.9999
vn 0.0003 -0.0341 0.9994
vn 1.0000 0.0005 -0.0000
vn 0.0011 0.5439 0.8392
vn 0.0011 0.4163 0.9092
vn -0.0000 0.0638 0.9980
vn 0.0008 0.9026 0.4304
vn 0.0009 0.7985 0.6020
vn -1.0000 -0.0005 -0.0000
vn -0.0000 -0.0638 0.9980
vn -0.0011 -0.4163 0.9092
vn -0.0011 -0.5439 0.8392
vn -0.0009 -0.7985 0.6020
vn -0.0008 -0.9026 0.4304
vn -0.0006 -0.9925 -0.1223
vn -0.0006 -0.9925 0.1224
vn -0.0009 -0.7984 -0.6022
vn -0.0008 -0.9027 -0.4302
vn -0.0011 -0.4159 -0.9094
vn -0.0010 -0.5440 -0.8391
vn -0.0000 -0.0641 -0.9979
vn -0.0000 0.0641 -0.9979
vn 0.0011 0.4159 -0.9094
vn 0.0010 0.5440 -0.8391
vn 0.0009 0.7984 -0.6022
vn 0.0008 0.9027 -0.4302
vn 0.0006 0.9925 -0.1223
vn 0.0006 0.9925 0.1224
vt 0.023508 0.535156
vt 0.363281 0.519007
vt 0.023508 0.446391
vt 0.011719 0.535156
vt 0.011719 0.446391
vt 0.023508 0.371094
vt 0.363281 0.374302
vt 0.363281 0.446655
vt 0.011719 0.371094
vt 0.353784 0.833084
vt 0.353378 0.802916
vt 0.488281 0.822133
vt 0.488281 0.791926
vt 0.488281 0.761719
vt 0.352972 0.772748
vt 0.239423 0.834785
vt 0.238654 0.804718
vt 0.133402 0.882364
vt 0.132296 0.852447
vt 0.240191 0.864852
vt 0.134507 0.912279
vt 0.029795 0.944358
vt 0.022740 0.981560
vt 0.016137 0.953000
vt 0.025239 0.918348
vt 0.011719 0.988281
vt 0.628906 0.542969
vt 0.629632 0.363281
vt 0.691131 0.363281
vt 0.690405 0.542969
vt 0.746094 0.363281
vt 0.745368 0.542969
vt 0.544922 0.375318
vt 0.500000 0.363281
vt 0.500000 0.453125
vt 0.455078 0.375318
vt 0.422193 0.408203
vt 0.410156 0.453125
vt 0.422193 0.498047
vt 0.455078 0.530932
vt 0.500000 0.542969
vt 0.544922 0.530932
vt 0.577807 0.498047
vt 0.589844 0.453125
vt 0.577807 0.408204
s 1
f 4/1/1 1/1/1 2/2/2
f 1/1/1 3/2/2 2/2/2
f 1/1/3 7/3/4 3/2/5
f 1/1/1 4/1/1 5/4/6
f 6/4/6 1/1/1 5/4/6
f 7/3/4 1/1/3 6/4/7
f 8/5/8 7/3/4 6/4/7
f 9/6/9 7/3/4 8/5/8
f 7/3/4 9/6/9 10/7/10
f 7/3/4 11/8/11 3/2/5
f 11/8/11 7/3/4 10/7/10
f 3/2/12 11/8/12 13/8/12
f 11/8/12 10/7/13 12/7/13
f 13/8/12 11/8/12 12/7/13
f 14/3/14 13/8/15 15/6/16
f 2/2/17 13/8/15 14/3/14
f 2/2/12 3/2/12 13/8/12
f 13/8/15 12/7/18 15/6/16
f 15/6/19 9/6/19 16/9/20
f 9/6/19 15/6/19 10/7/21
f 15/6/19 12/7/21 10/7/21
f 17/9/20 15/6/19 16/9/20
f 14/3/14 15/6/16 17/9/22
f 18/5/23 14/3/14 17/9/22
f 4/1/24 14/3/14 18/5/23
f 5/4/25 4/1/24 18/5/23
f 16/9/26 9/6/9 8/5/8
f 4/1/24 2/2/17 14/3/14
f 22/10/27 20/11/28 19/12/29
f 20/11/28 21/13/30 19/12/29
f 22/10/31 19/12/32 23/12/32
f 24/10/33 22/10/34 23/12/32
f 24/10/35 23/12/36 25/13/37
f 26/11/38 24/10/35 25/13/37
f 26/11/38 25/13/37 27/14/39
f 28/15/40 26/11/38 27/14/39
f 28/15/41 27/14/42 21/13/30
f 20/11/28 29/16/43 28/15/41
f 29/16/43 30/17/44 28/15/41
f 28/15/40 30/17/45 26/11/38
f 20/11/28 28/15/41 21/13/30
f 32/18/46 31/19/47 30/17/44
f 30/17/45 31/19/48 33/16/49
f 29/16/43 32/18/46 30/17/44
f 30/17/45 33/16/49 26/11/38
f 31/19/48 34/18/50 33/16/49
f 26/11/38 33/16/49 24/10/35
f 33/16/49 35/20/51 24/10/35
f 33/16/49 34/18/50 35/20/51
f 35/20/52 36/21/53 37/20/54
f 34/18/50 36/21/55 35/20/51
f 35/20/52 37/20/54 22/10/34
f 24/10/33 35/20/52 22/10/34
f 36/21/53 38/21/56 37/20/54
f 37/20/57 38/21/58 29/16/43
f 37/20/57 29/16/43 20/11/28
f 22/10/27 37/20/57 20/11/28
f 38/21/58 32/18/46 29/16/43
f 41/22/59 32/18/46 38/21/58
f 36/21/53 40/23/60 38/21/56
f 40/23/60 39/23/60 38/21/56
f 39/23/61 41/22/59 38/21/58
f 41/22/59 39/23/61 43/24/62
f 41/22/59 42/25/63 31/19/47
f 42/25/63 41/22/59 43/24/62
f 32/18/46 41/22/59 31/19/47
f 39/23/61 45/26/64 43/24/62
f 44/22/65 42/25/66 43/24/67
f 45/26/68 40/23/69 43/24/67
f 40/23/69 44/22/65 43/24/67
f 39/23/60 40/23/60 45/26/70
f 42/25/66 44/22/65 31/19/48
f 44/22/65 40/23/69 36/21/55
f 34/18/50 44/22/65 36/21/55
f 44/22/65 34/18/50 31/19/48
f 49/27/71 46/28/71 47/27/71
f 46/28/71 48/28/71 47/27/71
f 50/29/72 46/28/73 49/27/73
f 51/30/74 50/29/72 49/27/73
f 52/31/75 50/29/72 51/30/74
f 53/31/76 52/31/76 54/32/76
f 54/32/75 52/31/75 51/30/74
f 55/32/76 53/31/76 54/32/76
f 55/32/77 54/32/77 51/30/77
f 56/29/78 53/31/79 55/32/79
f 57/30/77 55/32/77 49/27/77
f 49/27/77 55/32/77 51/30/77
f 57/30/80 56/29/78 55/32/79
f 47/27/77 57/30/77 49/27/77
f 47/27/81 48/28/81 57/30/80
f 48/28/81 56/29/78 57/30/80
f 70/33/82 59/34/82 58/35/82
f 59/34/82 60/36/82 58/35/82
f 60/36/82 61/37/82 58/35/82
f 61/37/82 62/38/82 58/35/82
f 62/38/82 63/39/82 58/35/82
f 63/39/82 64/40/82 58/35/82
f 64/40/82 65/41/82 58/35/82
f 65/41/82 66/42/82 58/35/82
f 66/42/82 67/43/82 58/35/82
f 67/43/82 68/44/82 58/35/82
f 68/44/82 69/45/82 58/35/82
f 69/45/82 70/33/82 58/35/82
f 70/33/83 72/33/84 59/34/85
f 69/45/86 71/45/87 70/33/83
f 71/45/87 72/33/84 70/33/83
f 72/33/88 71/45/88 73/35/88
f 74/34/88 72/33/88 73/35/88
f 72/33/84 74/34/89 59/34/85
f 59/34/85 74/34/89 60/36/90
f 74/34/89 75/36/91 60/36/90
f 75/36/88 74/34/88 73/35/88
f 60/36/90 75/36/91 61/37/92
f 75/36/91 76/37/93 61/37/92
f 76/37/88 75/36/88 73/35/88
f 77/38/88 76/37/88 73/35/88
f 76/37/93 77/38/94 62/38/95
f 61/37/92 76/37/93 62/38/95
f 78/39/88 77/38/88 73/35/88
f 77/38/94 78/39/96 63/39/97
f 62/38/95 77/38/94 63/39/97
f 79/40/88 78/39/88 73/35/88
f 78/39/96 79/40/98 64/40/99
f 63/39/97 78/39/96 64/40/99
f 64/40/99 79/40/98 65/41/100
f 79/40/98 80/41/101 65/41/100
f 80/41/88 79/40/88 73/35/88
f 65/41/100 80/41/101 66/42/102
f 80/41/101 81/42/103 66/42/102
f 81/42/88 80/41/88 73/35/88
f 66/42/102 81/42/103 67/43/104
f 81/42/103 82/43/105 67/43/104
f 82/43/88 81/42/88 73/35/88
f 67/43/104 82/43/105 68/44/106
f 82/43/105 83/44/107 68/44/106
f 83/44/88 82/43/88 73/35/88
f 68/44/106 83/44/107 69/45/86
f 83/44/107 71/45/87 69/45/86
f 71/45/88 83/44/88 73/35/88
o blade_damaged
v -39.045097 -2.234806 -0.566752
v -124.780403 1.387118 -0.668233
v -39.048710 3.373047 -0.668233
v -124.519043 -4.213581 -0.566752
v -39.045097 -2.234806 0.566756
v -124.519043 -4.213581 0.566756
v -39.048710 3.373047 0.668235
v -39.052326 8.980781 0.000001
v -124.780403 1.387118 0.668235
v -125.041901 6.987700 0.000001
v -33.166538 -1.758672 -1.857793
v 33.888588 -0.516455 1.857791
v 33.888588 -0.516455 -1.857793
v -33.166538 -1.758671 1.857791
v -35.493061 -1.773416 1.857791
v -35.493061 -1.773416 -1.857793
v -33.129101 3.628212 -2.924860
v 33.920334 4.053138 -2.924860
v -35.455627 3.613468 -2.924860
v -33.097347 8.197805 -1.857794
v 33.952095 8.622730 -1.857794
v -33.097347 8.197805 1.857790
v 33.952095 8.622730 1.857790
v 33.920334 4.053138 2.924856
v -33.129101 3.628212 2.924856
v -35.455627 3.613468 2.924856
v -35.423874 8.183061 1.857790
v -35.423874 8.183061 -1.857794
v -35.188805 3.601425 0.000002
v -35.188805 3.601424 12.755841
v -35.185207 -3.155941 11.046927
v -35.182571 -8.102668 6.377988
v -35.181606 -9.913305 0.000005
v -35.182571 -8.102669 -6.377979
v -35.185207 -3.155940 -11.046922
v -35.188805 3.601426 -12.755838
v -35.192410 10.357912 -11.045486
v -35.195042 15.304801 -6.377594
v -35.196003 17.116154 -0.000002
v -35.195042 15.304854 6.377494
v -35.192410 10.357903 11.045476
v -37.100929 15.306468 6.377856
v -37.098293 10.359740 11.046925
v -37.094696 3.602374 12.755841
v -37.094696 3.602375 0.000002
v -37.088459 -8.101007 -6.377591
v -37.091091 -3.154112 -11.045488
v -37.094696 3.602376 -12.755838
v -37.098293 10.359741 -11.046924
v -37.100929 15.306468 -6.377985
v -37.091091 -3.154102 11.045476
v -37.101894 17.117105 -0.000002
v -37.088459 -8.100992 6.377594
v -37.087498 -9.912356 0.000005
v -34.015800 -2.157500 -1.099300
v -42.484100 -2.225600 1.099300
v -34.015800 -2.157500 1.099300
v -42.484100 -2.225600 -1.099300
v -34.015800 3.610700 -1.295900
v -42.484100 3.542600 -1.295900
v -34.015800 8.765900 -0.723001
v -34.015800 8.765900 0.722999
v -42.484100 8.697800 -0.723001
v -42.484100 8.697800 0.722999
v -34.015800 3.610700 1.295900
v -42.484100 3.542600 1.295900
vn 0.0004 -0.0181 -0.9998
vn -0.0007 0.0274 -0.9996
vn -0.0005 0.0276 -0.9996
vn -0.0018 0.0729 -0.9973
vn 0.0231 -0.9997 -0.0000
vn 0.0004 -0.0181 0.9998
vn -0.0006 0.0274 0.9996
vn -0.0017 0.0729 0.9973
vn -0.0007 0.0275 0.9996
vn -0.0027 0.1183 0.9930
vn -0.0017 0.0730 0.9973
vn -0.0027 0.1183 -0.9930
vn -0.0016 0.0730 -0.9973
vn 0.0124 -0.9999 -0.0000
vn 0.0185 -0.9998 -0.0000
vn 0.0024 -0.1943 -0.9809
vn 0.0007 -0.0187 -0.9998
vn 0.0028 -0.2111 -0.9775
vn 0.0063 -1.0000 -0.0000
vn 0.0012 -0.1943 -0.9809
vn -0.0000 0.0019 -1.0000
vn -0.0014 0.2274 -0.9738
vn 0.0004 0.0868 -0.9962
vn -0.0063 1.0000 -0.0000
vn 1.0000 -0.0069 -0.0000
vn 0.0005 0.0795 0.9968
vn -0.0014 0.2274 0.9738
vn 0.0003 0.0114 0.9999
vn 0.0028 -0.2111 0.9775
vn 0.0024 -0.1943 0.9809
vn -0.0006 -0.0566 0.9984
vn 0.0012 -0.1943 0.9809
vn 1.0000 0.0005 -0.0000
vn 0.0011 0.5439 0.8392
vn 0.0011 0.4163 0.9092
vn -0.0000 0.0638 0.9980
vn 0.0008 0.9026 0.4304
vn 0.0009 0.7985 0.6020
vn -0.0000 -0.0638 0.9980
vn -1.0000 -0.0005 -0.0000
vn -0.0006 -0.9925 0.1224
vn -0.0006 -0.9925 -0.1223
vn -0.0008 -0.9027 -0.4302
vn -0.0008 -0.9026 0.4304
vn -0.0010 -0.7984 -0.6022
vn -0.0010 -0.7985 0.6020
vn -0.0011 -0.5439 0.8392
vn 0.0006 0.9925 -0.1223
vn 0.0006 0.9925 0.1224
vn 0.0008 0.9027 -0.4302
vn -0.0011 -0.4163 0.9092
vn 0.0010 0.7984 -0.6022
vn 0.0011 0.5440 -0.8391
vn 0.0011 0.4159 -0.9094
vn -0.0000 0.0641 -0.9979
vn -0.0011 -0.4159 -0.9094
vn -0.0000 -0.0641 -0.9979
vn -0.0011 -0.5440 -0.8391
vn 0.0080 -1.0000 -0.0000
vn -0.0003 0.0141 -0.9999
vn 0.0003 -0.0341 -0.9994
vn -0.0003 0.0624 -0.9981
vn -0.0009 0.1105 -0.9939
vn -0.0080 1.0000 -0.0000
vn -1.0000 -0.0000 -0.0000
vn -0.0003 0.0141 0.9999
vn -0.0003 0.0624 0.9981
vn -0.0009 0.1105 0.9939
vn 0.0003 -0.0341 0.9994
vt 0.014576 0.988281
vt 0.013148 0.892507
vt 0.488281 0.953516
vt 0.488281 0.857616
vt 0.488281 0.761719
vt 0.011719 0.796734
vt 0.023508 0.535156
vt 0.363281 0.521689
vt 0.023508 0.446391
vt 0.011719 0.535156
vt 0.363281 0.446391
vt 0.363281 0.371094
vt 0.011719 0.446391
vt 0.023508 0.371094
vt 0.011719 0.371094
vt 0.544922 0.375318
vt 0.500000 0.363281
vt 0.500000 0.453125
vt 0.455078 0.375318
vt 0.422193 0.408203
vt 0.410156 0.453125
vt 0.422193 0.498047
vt 0.455078 0.530932
vt 0.500000 0.542969
vt 0.544922 0.530932
vt 0.577807 0.498047
vt 0.589844 0.453125
vt 0.577807 0.408204
vt 0.628906 0.542969
vt 0.629632 0.363281
vt 0.691131 0.363281
vt 0.690405 0.542969
vt 0.746094 0.363281
vt 0.745368 0.542969
s 1
f 87/46/108 85/47/109 84/48/108
f 85/47/110 86/49/111 84/48/108
f 87/46/112 84/48/112 88/48/112
f 89/46/112 87/46/112 88/48/112
f 89/46/113 88/48/113 90/49/114
f 92/47/115 90/49/116 91/50/117
f 92/47/115 89/46/113 90/49/116
f 93/51/117 92/47/118 91/50/117
f 93/51/119 91/50/119 86/49/120
f 85/47/110 93/51/119 86/49/111
f 97/52/121 94/52/121 95/53/122
f 94/52/121 96/53/122 95/53/122
f 94/52/123 100/54/124 96/53/125
f 94/52/121 97/52/121 98/55/126
f 99/55/126 94/52/121 98/55/126
f 100/54/124 94/52/123 99/55/127
f 101/56/128 100/54/124 104/57/129
f 100/54/124 101/56/128 96/53/125
f 102/58/130 100/54/124 99/55/127
f 103/59/129 100/54/124 102/58/130
f 100/54/124 103/59/129 104/57/129
f 103/59/131 105/59/131 104/57/131
f 105/59/131 106/57/131 104/57/131
f 101/56/132 104/57/132 106/57/132
f 107/56/133 106/57/134 105/59/134
f 107/56/132 101/56/132 106/57/132
f 96/53/132 101/56/132 107/56/132
f 108/54/135 107/56/133 105/59/134
f 95/53/136 107/56/133 108/54/135
f 95/53/132 96/53/132 107/56/132
f 97/52/137 108/54/135 109/58/138
f 97/52/137 95/53/136 108/54/135
f 108/54/135 105/59/134 110/60/134
f 109/58/138 108/54/135 110/60/134
f 110/60/131 105/59/131 111/60/131
f 105/59/131 103/59/131 111/60/131
f 111/60/129 103/59/129 102/58/130
f 98/55/139 97/52/137 109/58/138
f 124/61/140 113/62/140 112/63/140
f 113/62/140 114/64/140 112/63/140
f 114/64/140 115/65/140 112/63/140
f 115/65/140 116/66/140 112/63/140
f 116/66/140 117/67/140 112/63/140
f 117/67/140 118/68/140 112/63/140
f 118/68/140 119/69/140 112/63/140
f 119/69/140 120/70/140 112/63/140
f 120/70/140 121/71/140 112/63/140
f 121/71/140 122/72/140 112/63/140
f 122/72/140 123/73/140 112/63/140
f 123/73/140 124/61/140 112/63/140
f 124/61/141 126/61/142 113/62/143
f 123/73/144 125/73/145 124/61/141
f 125/73/145 126/61/142 124/61/141
f 126/61/142 127/62/146 113/62/143
f 127/62/147 126/61/147 128/63/147
f 126/61/147 125/73/147 128/63/147
f 130/68/147 129/67/147 128/63/147
f 129/67/147 137/66/147 128/63/147
f 131/69/147 130/68/147 128/63/147
f 132/70/147 131/69/147 128/63/147
f 133/71/147 132/70/147 128/63/147
f 134/64/147 127/62/147 128/63/147
f 135/72/147 133/71/147 128/63/147
f 136/65/147 134/64/147 128/63/147
f 125/73/147 135/72/147 128/63/147
f 137/66/147 136/65/147 128/63/147
f 116/66/148 137/66/149 117/67/150
f 136/65/151 137/66/149 116/66/148
f 137/66/149 129/67/152 117/67/150
f 115/65/153 136/65/151 116/66/148
f 134/64/154 136/65/151 115/65/153
f 122/72/155 135/72/156 123/73/144
f 133/71/157 135/72/156 122/72/155
f 135/72/156 125/73/145 123/73/144
f 114/64/158 134/64/154 115/65/153
f 127/62/146 134/64/154 114/64/158
f 121/71/159 133/71/157 122/72/155
f 132/70/160 133/71/157 121/71/159
f 120/70/161 132/70/160 121/71/159
f 131/69/162 132/70/160 120/70/161
f 130/68/163 131/69/162 119/69/164
f 119/69/164 131/69/162 120/70/161
f 129/67/152 130/68/163 118/68/165
f 118/68/165 130/68/163 119/69/164
f 117/67/150 129/67/152 118/68/165
f 113/62/143 127/62/146 114/64/158
f 141/74/166 138/75/166 139/74/166
f 138/75/166 140/75/166 139/74/166
f 142/76/167 138/75/168 141/74/168
f 143/77/169 142/76/167 141/74/168
f 144/78/170 142/76/167 143/77/169
f 145/78/171 144/78/171 146/79/171
f 146/79/170 144/78/170 143/77/169
f 147/79/171 145/78/171 146/79/171
f 147/79/172 146/79/172 143/77/172
f 149/77/173 148/76/174 147/79/175
f 148/76/174 145/78/175 147/79/175
f 149/77/172 147/79/172 141/74/172
f 141/74/172 147/79/172 143/77/172
f 140/75/176 148/76/174 149/77/173
f 139/74/176 140/75/176 149/77/173
f 139/74/172 149/77/172 141/74/172
o blade_fragment
v -334.542053 -32.319374 -0.566752
v -341.547424 -33.581276 0.000003
v -334.542053 -32.319374 0.566756
v -338.726898 -27.024656 0.000002
v -330.045776 -25.402756 -0.668232
v -263.501740 -19.314333 -0.566753
v -264.192993 -13.761062 -0.668233
v -263.501740 -19.314333 0.566755
v -196.811768 -4.793106 -0.668234
v -196.334976 -10.375010 -0.566753
v -196.334976 -10.375010 0.566755
v -124.394875 1.267876 -0.668234
v -124.148445 -4.333370 -0.566754
v -124.148445 -4.333370 0.566754
v -124.394875 1.267876 0.668234
v -196.811768 -4.793106 0.668234
v -264.192993 -13.761062 0.668235
v -197.288712 0.788915 -0.000000
v -264.884369 -8.207438 0.000001
v -330.045776 -25.402756 0.668236
v -332.930847 -20.578873 0.000002
v -124.641411 6.869002 -0.000001
vn -0.0563 0.0205 -0.9982
vn -0.0873 0.0376 -0.9955
vn -0.0877 0.0532 -0.9947
vn 0.1787 -0.9839 -0.0000
vn 0.1773 -0.9842 -0.0000
vn 0.1642 -0.9864 -0.0000
vn -0.0354 0.0549 -0.9979
vn 0.0028 -0.0179 -0.9998
vn -0.0093 0.0634 -0.9979
vn -0.0049 0.0501 -0.9987
vn 0.1479 -0.9890 -0.0000
vn 0.1159 -0.9933 -0.0000
vn 0.0020 -0.0180 -0.9998
vn -0.0023 0.0275 -0.9996
vn 0.0995 -0.9950 -0.0000
vn 0.0834 -0.9965 -0.0000
vn 0.0015 -0.0180 -0.9998
vn -0.0061 0.0729 0.9973
vn -0.0059 0.0502 0.9987
vn 0.0015 -0.0180 0.9998
vn 0.0020 -0.0180 0.9998
vn -0.0186 0.1189 0.9927
vn -0.0057 0.0362 0.9993
vn -0.0118 0.1179 0.9930
vn -0.0196 0.1194 -0.9927
vn -0.0578 0.1030 -0.9930
vn -0.0578 0.1030 0.9930
vn -0.0354 0.0549 0.9979
vn -0.0136 0.1177 -0.9930
vn -0.0877 0.0533 0.9947
vn -0.0563 0.0205 0.9982
vn 0.0028 -0.0179 0.9998
vn -0.0099 0.1180 -0.9930
vn -0.0099 0.1180 0.9930
vn -0.0873 0.0376 0.9955
vt 0.027074 0.981216
vt 0.011719 0.988281
vt 0.017874 0.951195
vt 0.182787 0.908389
vt 0.036902 0.942111
vt 0.181247 0.876944
vt 0.328954 0.826930
vt 0.330024 0.858536
vt 0.487716 0.793430
vt 0.488281 0.825142
vt 0.179706 0.845496
vt 0.327884 0.795324
vt 0.030555 0.914770
vt 0.487151 0.761719
s 1
f 150/80/177 151/81/178 153/82/179
f 150/80/180 152/80/180 151/81/181
f 152/80/180 150/80/180 155/83/182
f 154/84/183 150/80/177 153/82/179
f 150/80/177 154/84/183 155/83/184
f 154/84/183 156/85/185 155/83/184
f 155/83/184 156/85/185 158/86/186
f 157/83/187 155/83/182 159/87/188
f 157/83/187 152/80/180 155/83/182
f 159/87/189 155/83/184 158/86/186
f 159/87/189 158/86/186 161/88/190
f 160/87/191 159/87/188 162/89/192
f 160/87/191 157/83/187 159/87/188
f 162/89/193 159/87/189 161/88/190
f 163/89/192 160/87/191 162/89/192
f 164/88/194 165/86/195 163/89/196
f 165/86/195 160/87/197 163/89/196
f 168/90/198 166/85/199 165/86/195
f 165/86/195 166/85/199 160/87/197
f 167/91/200 165/86/195 164/88/194
f 167/91/200 168/90/198 165/86/195
f 156/85/185 154/84/183 168/90/201
f 154/84/183 170/92/202 168/90/201
f 170/92/203 169/84/204 168/90/198
f 169/84/204 166/85/199 168/90/198
f 156/85/185 168/90/201 167/91/205
f 169/84/204 170/92/203 153/82/206
f 170/92/202 154/84/183 153/82/179
f 152/80/207 169/84/204 153/82/206
f 166/85/199 169/84/204 157/83/208
f 169/84/204 152/80/207 157/83/208
f 158/86/186 167/91/205 171/93/209
f 158/86/186 156/85/185 167/91/205
f 171/93/210 167/91/200 164/88/194
f 161/88/190 158/86/186 171/93/209
f 166/85/199 157/83/208 160/87/197
f 151/81/211 152/80/207 153/82/206
o sheath
v -35.609547 -3.592329 -3.002900
v -122.300659 -6.830393 3.325500
v -35.609547 -3.592328 3.002900
v -122.300659 -6.830394 -3.325500
v -122.709923 0.743576 -5.574100
v -35.159588 3.609480 -4.606400
v -35.159588 3.609481 4.606400
v -122.709923 0.743577 5.574100
v -35.478771 10.803109 3.002899
v -35.478771 10.803109 -3.002901
v -123.119301 8.317546 3.325499
v -194.194550 2.511918 3.325500
v -123.119301 8.317546 -3.325501
v -194.194550 2.511918 -3.325500
v -260.358368 -5.731421 -3.325500
v -259.065582 -13.215130 -5.574099
v -193.328796 -5.025070 -5.574100
v -192.463318 -12.561962 -3.325499
v -257.773010 -20.698746 -3.325498
v -338.123016 -34.611061 -3.220097
v -338.123016 -34.611061 3.220103
v -257.773010 -20.698746 3.325502
v -259.065582 -13.215130 5.574101
v -192.463318 -12.561962 3.325501
v -193.328796 -5.025069 5.574100
v -260.358368 -5.731420 3.325500
v -341.683563 -19.550928 -3.220098
v -341.683563 -19.550928 3.220101
v -340.307312 -27.159653 4.939602
v -340.307312 -27.159653 -4.939598
v -35.543293 -3.177684 -2.357800
v -35.377464 9.391680 -2.357801
v -35.543293 -3.177684 2.357800
v -35.377464 9.391680 2.357799
v -35.453220 3.649457 -3.638800
v -35.453220 3.649457 3.638800
v -337.644928 -33.388027 -2.357797
v -340.634460 -20.888947 -2.357798
v -337.644928 -33.388027 2.357803
v -340.634460 -20.888947 2.357802
v -339.139618 -27.138489 -3.638798
v -339.139618 -27.138489 3.638802
v -257.970245 -19.684578 -2.357799
v -260.137360 -7.045089 -2.357800
v -257.970245 -19.684578 2.357801
v -260.137360 -7.045089 2.357800
v -259.053711 -13.364934 -3.638799
v -259.053711 -13.364934 3.638801
v -192.590942 -11.494861 -2.357799
v -194.044693 1.233864 -2.357800
v -192.590942 -11.494861 2.357801
v -194.044693 1.233865 2.357800
v -193.317734 -5.130546 -3.638799
v -193.317734 -5.130545 3.638800
v -122.358353 -5.710578 -2.357800
v -123.045959 7.081349 -2.357800
v -122.358353 -5.710578 2.357800
v -123.045959 7.081349 2.357800
v -122.702103 0.685386 -3.638800
v -122.702103 0.685387 3.638800
v -337.644928 -33.388027 -2.357797
v -339.139618 -27.138489 -3.638798
v -337.644928 -33.388027 2.357803
v -339.139618 -27.138489 3.638802
v -340.634460 -20.888947 2.357802
v -340.634460 -20.888947 -2.357798
v -103.135185 -6.017891 -2.701900
v -103.135185 -6.017891 2.702000
v -103.083420 0.821895 -4.327100
v -98.895630 0.995377 -4.327100
v -99.064865 -5.849342 -2.701900
v -99.064865 -5.849342 2.702000
v -103.083420 0.821896 4.327100
v -98.895630 0.995378 4.327100
v -98.726410 7.840097 -2.702000
v -98.726410 7.840097 2.701900
v -103.031540 7.661786 2.701900
v -103.031540 7.661786 -2.702000
vn 0.0679 -0.9977 -0.0000
vn 0.0373 -0.9993 -0.0000
vn 0.0508 -0.9987 -0.0000
vn 0.9997 -0.0243 -0.0000
vn 0.9981 -0.0624 -0.0000
vn 0.0154 -0.2506 -0.9680
vn 0.0187 -0.2836 -0.9588
vn 0.0094 -0.0425 -0.9991
vn 0.0109 0.0025 -0.9999
vn 1.0000 0.0063 -0.0000
vn 0.0109 0.0025 0.9999
vn -0.0007 0.2506 0.9681
vn 0.0012 0.0411 0.9992
vn 0.0154 -0.2506 0.9680
vn 0.9990 0.0443 -0.0000
vn -0.0283 0.9996 -0.0000
vn -0.0549 0.9985 -0.0000
vn -0.0138 0.2839 0.9588
vn -0.0269 0.2829 0.9588
vn -0.0944 0.9955 -0.0000
vn -0.1107 0.9939 -0.0000
vn -0.1371 0.9906 -0.0000
vn -0.0085 0.0403 -0.9992
vn -0.0421 0.2808 -0.9588
vn -0.0315 0.2825 -0.9588
vn 0.0025 -0.0004 -1.0000
vn -0.0173 0.2837 -0.9588
vn 0.0268 -0.2829 -0.9588
vn 0.0388 -0.2813 -0.9588
vn 0.1706 -0.9853 -0.0000
vn 0.1563 -0.9877 -0.0000
vn 0.0391 -0.2476 -0.9681
vn 0.1380 -0.9904 -0.0000
vn 0.1108 -0.9938 -0.0000
vn 0.0039 -0.0429 0.9991
vn 0.0411 -0.2810 0.9588
vn 0.0314 -0.2825 0.9588
vn 0.0391 -0.2476 0.9681
vn 0.0943 -0.9955 -0.0000
vn -0.0023 -0.0009 1.0000
vn 0.0204 -0.2835 0.9588
vn -0.0394 0.2812 0.9588
vn -0.1541 0.9880 -0.0000
vn -0.1675 0.9859 -0.0000
vn -0.0462 0.2457 0.9682
vn -0.9766 -0.2151 -0.0000
vn -0.9840 -0.1780 -0.0000
vn -0.0083 0.0035 1.0000
vn -0.9696 -0.2448 -0.0000
vn -0.9596 -0.2813 -0.0000
vn -0.0083 0.0036 -1.0000
vn -0.0462 0.2457 -0.9682
vn -0.0007 0.2506 -0.9681
vn 0.0332 -0.1931 -0.9806
vn -0.0144 0.0697 -0.9975
vn 0.0018 -0.0002 -1.0000
vn 0.0271 -0.1941 -0.9806
vn 0.0131 -0.0604 0.9981
vn 0.0332 -0.1931 0.9806
vn 0.0305 -0.1936 0.9806
vn -0.0016 -0.0007 1.0000
vn 0.1695 -0.9855 -0.0000
vn 0.1557 -0.9878 -0.0000
vn 0.1381 -0.9904 -0.0000
vn -0.0332 0.1931 -0.9806
vn -0.0306 0.1936 -0.9806
vn -0.1695 0.9855 -0.0000
vn -0.1557 0.9878 -0.0000
vn -0.1382 0.9904 -0.0000
vn -0.0332 0.1931 0.9806
vn -0.0272 0.1941 0.9806
vn 0.0017 -0.0003 -1.0000
vn 0.0187 -0.1952 -0.9806
vn 0.0218 -0.1949 0.9806
vn -0.0016 -0.0006 1.0000
vn 0.1115 -0.9938 -0.0000
vn 0.0949 -0.9955 -0.0000
vn -0.0219 0.1949 -0.9806
vn -0.1114 0.9938 -0.0000
vn -0.0950 0.9955 -0.0000
vn -0.0187 0.1952 0.9806
vn 0.0019 0.0032 -1.0000
vn 0.0091 -0.1921 -0.9813
vn 0.0130 -0.1957 0.9806
vn -0.0024 0.0327 0.9995
vn 0.0660 -0.9978 -0.0000
vn 0.0453 -0.9990 -0.0000
vn -0.0126 0.1957 -0.9806
vn -0.0542 0.9985 -0.0000
vn -0.0106 0.1958 0.9806
vn 0.0059 -0.1902 0.9817
vn -0.0007 0.0197 0.9998
vn 0.0292 -0.9996 -0.0000
vn -0.0064 0.2071 0.9783
vn -0.0263 0.9997 -0.0000
vn -0.0064 0.2071 -0.9783
vn -0.0001 -0.0526 -0.9986
vn 0.0054 -0.1845 -0.9828
vn 0.9999 -0.0132 -0.0000
vn -0.9726 -0.2326 -0.0000
vn 0.0414 -0.9991 -0.0000
vn -1.0000 0.0076 -0.0000
vn 0.0096 -0.2312 -0.9729
vn 0.0009 0.0739 -0.9973
vn -0.0001 -0.0736 -0.9973
vn -0.0007 0.0846 0.9964
vn -0.0003 -0.0842 0.9964
vn 0.0096 -0.2312 0.9729
vn 0.9997 -0.0247 -0.0000
vn -0.0096 0.2312 0.9729
vn -0.0414 0.9991 -0.0000
vn -0.0096 0.2312 -0.9729
vt 0.352875 0.633003
vt 0.487720 0.624855
vt 0.488281 0.599537
vt 0.352092 0.606343
vt 0.487645 0.574219
vt 0.351308 0.579684
vt 0.240814 0.597448
vt 0.138009 0.623971
vt 0.140166 0.650346
vt 0.242306 0.623994
vt 0.243799 0.650540
vt 0.142322 0.676721
vt 0.017551 0.722656
vt 0.011719 0.669544
vt 0.014008 0.696362
vt 0.016650 0.722656
vt 0.014184 0.699027
vt 0.139093 0.650501
vt 0.140917 0.674377
vt 0.011719 0.675397
vt 0.137269 0.626624
vt 0.241684 0.622251
vt 0.242951 0.646281
vt 0.240416 0.598221
vt 0.351952 0.603328
vt 0.352622 0.627461
vt 0.351283 0.579196
vt 0.488281 0.621609
vt 0.488281 0.595868
vt 0.488281 0.574219
vt 0.628906 0.511340
vt 0.628906 0.394910
vt 0.687500 0.542969
vt 0.687500 0.363281
vt 0.746094 0.394910
vt 0.746094 0.511340
vt 0.629684 0.397023
vt 0.628906 0.397023
vt 0.628906 0.509225
vt 0.687088 0.542969
vt 0.687889 0.542969
vt 0.629684 0.509225
vt 0.687889 0.363281
vt 0.687088 0.363281
vt 0.745271 0.397025
vt 0.746094 0.509227
vt 0.746094 0.397025
vt 0.745271 0.509227
s 1
f 175/94/212 172/95/213 173/94/214
f 172/95/213 174/95/213 173/94/214
f 178/96/215 174/95/216 172/95/216
f 172/95/217 175/94/218 176/97/219
f 177/96/220 172/95/217 176/97/219
f 177/96/221 178/96/215 172/95/216
f 178/96/222 180/98/223 179/97/224
f 174/95/225 178/96/222 179/97/224
f 180/98/226 178/96/215 177/96/221
f 181/98/226 180/98/226 177/96/221
f 180/98/227 181/98/227 182/99/228
f 180/98/223 182/99/229 179/97/224
f 182/99/229 183/100/230 179/97/224
f 185/100/231 183/100/232 182/99/228
f 181/98/227 184/99/228 182/99/228
f 184/99/228 185/100/231 182/99/228
f 185/100/231 186/101/233 183/100/232
f 187/102/234 186/101/235 185/100/236
f 188/103/237 187/102/234 185/100/236
f 188/103/237 185/100/236 184/99/238
f 176/97/219 188/103/237 184/99/238
f 189/104/239 188/103/237 176/97/219
f 190/105/240 187/102/234 188/103/237
f 189/104/239 190/105/240 188/103/237
f 192/106/241 191/106/241 190/105/242
f 190/105/240 191/106/243 187/102/234
f 193/105/244 192/106/241 190/105/242
f 193/105/244 190/105/242 189/104/245
f 194/102/246 193/105/247 195/104/248
f 192/106/249 193/105/247 194/102/246
f 195/104/250 193/105/244 189/104/245
f 196/103/251 194/102/246 195/104/248
f 195/104/250 189/104/245 175/94/212
f 196/103/251 195/104/248 173/94/252
f 173/94/214 195/104/250 175/94/212
f 183/100/230 196/103/251 179/97/224
f 183/100/230 197/101/253 196/103/251
f 197/101/253 194/102/246 196/103/251
f 179/97/224 196/103/251 173/94/252
f 186/101/233 197/101/254 183/100/232
f 186/101/233 198/107/255 197/101/254
f 198/107/255 199/107/255 197/101/254
f 197/101/253 199/107/256 194/102/246
f 200/108/257 199/107/258 198/107/258
f 199/107/256 200/108/259 194/102/246
f 201/108/260 200/108/257 198/107/258
f 192/106/261 200/108/257 201/108/260
f 200/108/259 192/106/249 194/102/246
f 191/106/261 192/106/261 201/108/260
f 191/106/243 201/108/262 187/102/234
f 201/108/262 198/107/263 187/102/234
f 198/107/263 186/101/235 187/102/234
f 175/94/218 189/104/239 176/97/219
f 184/99/238 181/98/264 176/97/219
f 181/98/264 177/96/220 176/97/219
f 173/94/252 174/95/225 179/97/224
f 208/109/265 212/110/266 218/111/267
f 214/112/268 208/109/265 218/111/267
f 213/110/269 210/109/270 216/112/271
f 219/111/272 213/110/269 216/112/271
f 210/109/273 208/109/273 214/112/274
f 216/112/275 210/109/273 214/112/274
f 212/110/266 209/113/276 215/114/277
f 218/111/267 212/110/266 215/114/277
f 209/113/278 211/113/278 217/114/279
f 215/114/280 209/113/278 217/114/279
f 211/113/281 213/110/269 219/111/272
f 217/114/282 211/113/281 219/111/272
f 214/112/268 218/111/267 224/115/283
f 220/116/284 214/112/268 224/115/283
f 219/111/272 216/112/271 222/116/285
f 225/115/286 219/111/272 222/116/285
f 216/112/275 214/112/274 220/116/287
f 222/116/288 216/112/275 220/116/287
f 218/111/267 215/114/277 221/117/289
f 224/115/283 218/111/267 221/117/289
f 215/114/280 217/114/279 223/117/290
f 221/117/291 215/114/280 223/117/290
f 217/114/282 219/111/272 225/115/286
f 223/117/292 217/114/282 225/115/286
f 220/116/284 224/115/283 230/118/293
f 226/119/294 220/116/284 230/118/293
f 225/115/286 222/116/285 228/119/295
f 231/118/296 225/115/286 228/119/295
f 222/116/288 220/116/287 226/119/297
f 228/119/298 222/116/288 226/119/297
f 224/115/283 221/117/289 227/120/299
f 230/118/293 224/115/283 227/120/299
f 221/117/291 223/117/290 229/120/300
f 227/120/300 221/117/291 229/120/300
f 223/117/292 225/115/286 231/118/296
f 229/120/301 223/117/292 231/118/296
f 204/121/302 207/122/303 231/118/296
f 228/119/295 204/121/302 231/118/296
f 202/121/304 204/121/304 228/119/298
f 226/119/297 202/121/304 228/119/298
f 205/123/305 229/120/301 231/118/296
f 207/122/303 205/123/305 231/118/296
f 203/123/306 227/120/300 229/120/300
f 205/123/306 203/123/306 229/120/300
f 203/123/307 206/122/308 230/118/293
f 227/120/299 203/123/307 230/118/293
f 206/122/308 202/121/309 226/119/294
f 230/118/293 206/122/308 226/119/294
f 205/123/310 207/122/310 206/122/310
f 203/123/310 205/123/310 206/122/310
f 207/122/310 204/121/310 202/121/310
f 206/122/310 207/122/310 202/121/310
f 232/124/311 234/125/311 233/126/311
f 234/125/311 235/127/311 233/126/311
f 235/127/311 236/128/311 237/129/311
f 233/126/311 235/127/311 237/129/311
f 243/130/312 239/131/312 238/132/312
f 239/131/313 240/133/313 238/132/313
f 238/132/314 240/133/315 241/134/316
f 242/135/314 238/132/314 241/134/316
f 242/135/312 243/130/312 238/132/312
f 245/136/317 244/137/318 243/130/319
f 244/137/318 239/131/319 243/130/319
f 242/135/320 241/134/320 243/130/320
f 245/136/320 243/130/320 241/134/320
f 248/138/321 244/137/318 245/136/317
f 246/139/320 245/136/320 241/134/320
f 246/139/320 247/140/320 245/136/320
f 247/140/321 248/138/321 245/136/317
f 249/141/322 248/138/322 247/140/322
f 249/141/313 240/133/313 248/138/313
f 248/138/313 240/133/313 244/137/313
f 240/133/315 249/141/323 246/139/323
f 246/139/322 249/141/322 247/140/322
f 241/134/316 240/133/315 246/139/323
f 240/133/313 239/131/313 244/137/313
o item_blade
v 26.590300 22.520599 11.862098
v 26.590300 22.520599 5.647598
v 33.175800 18.257101 13.730999
v 34.370899 19.927902 13.730998
v 27.751900 24.144600 11.862098
v 27.751900 24.144600 5.647598
v 34.370899 19.927900 3.778699
v 33.175800 18.257099 3.778699
v 39.761299 13.993600 5.647699
v 39.761299 13.993601 11.862199
v 40.990002 15.711200 5.647699
v 40.990002 15.711201 11.862199
v 0.000000 70.710701 -0.000005
v 70.710701 0.000000 0.000000
v 0.000000 55.656200 3.999996
v -55.656101 0.000000 4.000000
v -70.710701 0.000000 0.000000
v 0.000000 -55.656101 4.000004
v 0.000000 -70.710602 0.000005
v 55.656200 0.000000 4.000000
v 0.000000 70.710701 -0.000005
v 0.000000 55.656200 -4.000004
v 70.710701 0.000000 0.000000
v -55.656101 -0.000000 -4.000000
v -70.710701 0.000000 0.000000
v 0.000000 -55.656101 -3.999996
v 0.000000 -70.710602 0.000005
v 55.656200 -0.000000 -4.000000
v 0.000000 70.710701 -0.000005
v 70.710701 0.000000 0.000000
v 0.000000 55.656200 3.999996
v -55.656101 0.000000 4.000000
v -70.710701 0.000000 0.000000
v 0.000000 -55.656101 4.000004
v 0.000000 -70.710602 0.000005
v 55.656200 0.000000 4.000000
v 0.000000 70.710701 -0.000005
v 0.000000 55.656200 -4.000004
v 70.710701 0.000000 0.000000
v -55.656101 -0.000000 -4.000000
v -70.710701 0.000000 0.000000
v 0.000000 -55.656101 -3.999996
v 0.000000 -70.710602 0.000005
v 55.656200 -0.000000 -4.000000
v 0.000000 70.710701 -0.000005
v 70.710701 0.000000 0.000000
v 0.000000 55.656200 3.999996
v -55.656101 0.000000 4.000000
v -70.710701 0.000000 0.000000
v 0.000000 -55.656101 4.000004
v 0.000000 -70.710602 0.000005
v 55.656200 0.000000 4.000000
v 0.000000 70.710701 -0.000005
v 0.000000 55.656200 -4.000004
v 70.710701 0.000000 0.000000
v -55.656101 -0.000000 -4.000000
v -70.710701 0.000000 0.000000
v 0.000000 -55.656101 -3.999996
v 0.000000 -70.710602 0.000005
v 55.656200 -0.000000 -4.000000
v -49.047565 43.906445 12.984656
v -72.792465 75.179062 18.201328
v -72.792465 75.179062 12.984653
v -49.047482 43.906441 18.201330
v -48.256847 42.799129 18.201330
v -48.256760 42.799126 12.984656
v -55.351295 39.694317 11.486516
v -78.139862 71.605972 11.486513
v -54.560574 38.587002 11.486516
v -60.698608 36.121227 12.984656
v -83.487183 68.032883 12.984654
v -60.698608 36.121227 18.201332
v -83.487183 68.032883 18.201328
v -78.139778 71.605965 19.699471
v -55.351292 39.694229 19.699472
v -54.560574 38.587002 19.699472
v -59.907890 35.013908 18.201332
v -59.907890 35.013908 12.984656
v -46.573372 41.510929 14.797326
v -21.976330 -2.456677 14.654785
v -53.077000 37.054630 14.654782
v -15.567611 2.117404 14.797329
v -46.573372 41.510929 16.388672
v -15.567611 2.117404 16.388676
v -53.077000 37.054630 16.531219
v -21.976330 -2.456677 16.531221
v -59.580509 32.598572 15.593000
v -28.384825 -7.030636 15.593004
v 9.157693 -32.500862 14.654788
v 2.847971 -37.170773 15.593006
v 35.778366 -62.558830 15.593008
v 41.983711 -57.808475 14.654790
v 9.157696 -32.500980 16.531223
v 15.467295 -27.831295 16.388678
v 41.983711 -57.808475 16.531225
v 48.188705 -53.058338 16.388680
v 77.399132 -80.253258 16.531227
v 72.769806 -85.479446 15.593010
v 86.911247 -76.916367 16.388681
v 82.168945 -83.142754 15.593010
v 86.911140 -76.916359 14.797335
v 77.399132 -80.253258 14.654791
v 90.705818 -79.285316 15.593009
v 48.188705 -53.058338 14.797333
v 15.467295 -27.831295 14.797331
v -54.550121 38.596401 15.979269
v -47.691227 28.277649 28.908428
v -40.785458 35.024879 27.307016
v -37.567951 42.729218 22.670311
v -38.900909 49.326103 16.240637
v -44.427040 53.048027 9.740952
v -52.665653 52.897697 4.912987
v -61.409191 48.915138 3.050184
v -68.313042 42.167427 4.653041
v -71.531303 34.463902 9.288722
v -70.199417 27.866686 15.717939
v -64.672806 24.145720 22.217075
v -56.434402 24.297087 27.044138
v -64.210846 23.484308 21.444830
v -55.972130 23.634569 26.273039
v -47.228691 27.617044 28.135820
v -54.087673 37.935787 15.206699
v -52.203384 52.235126 4.141809
v -60.946651 48.254528 2.277581
v -67.852417 41.507298 3.878992
v -71.069832 33.803051 8.515711
v -40.324776 34.364769 26.532904
v -69.736885 27.206079 14.945332
v -37.106541 42.068352 21.897276
v -38.438377 48.665497 15.468027
v -43.965145 52.386524 8.968751
v -48.378101 43.891602 14.049597
v -45.475899 39.865200 17.136396
v -48.378201 43.891602 17.136396
v -45.475899 39.865200 14.049597
v -55.037899 39.283600 13.773597
v -52.135700 35.257099 13.773597
v -60.990002 35.165298 14.577897
v -60.990002 35.165298 16.608099
v -58.087700 31.138903 14.577898
v -58.087799 31.138903 16.608099
v -55.037899 39.283501 17.412395
v -52.135700 35.257099 17.412397
v 63.118534 49.269592 11.466396
v 34.321133 14.918979 6.043399
v 63.118534 49.269592 6.043396
v 34.321133 14.918980 11.466399
v 70.364655 45.329685 12.939496
v 70.364655 45.329685 4.570297
v 41.422897 10.808463 4.570299
v 77.610779 41.389881 6.043396
v 77.610779 41.389881 11.466397
v 48.524429 6.698049 6.043399
v 20.847347 -19.530752 6.043401
v 48.524429 6.698049 11.466399
v 20.847347 -19.530752 11.466402
v -8.110917 -42.188877 11.466403
v -14.907106 -37.814369 12.939503
v 13.895069 -15.278709 12.939501
v -21.702938 -33.440197 11.466403
v 41.422897 10.808464 12.939499
v 6.942914 -11.026767 11.466401
v -21.702938 -33.440197 6.043402
v 6.942914 -11.026768 6.043401
v 13.895069 -15.278710 4.570301
v -14.907106 -37.814369 4.570303
v -8.110917 -42.188877 6.043403
v -47.615910 -67.453354 6.043405
v -54.210705 -62.949566 4.570305
v -60.805496 -58.445869 6.043404
v -60.805496 -58.445869 11.466405
v -54.210705 -62.949566 12.939505
v -47.615910 -67.453354 11.466405
v -59.530998 -58.415699 11.466405
v -53.878399 -62.941700 12.939505
v -59.530998 -58.415699 6.043404
v -53.878399 -62.941700 4.570305
v -48.225800 -67.467796 11.466405
v -48.225800 -67.467796 6.043405
vn -0.8134 0.5818 -0.0000
vn -0.5435 -0.8394 -0.0000
vn -0.1887 0.1350 0.9727
vn 0.0644 -0.0461 0.9969
vn -0.0644 0.0461 0.9969
vn 0.0644 -0.0461 -0.9969
vn -0.0644 0.0461 -0.9969
vn -0.1887 0.1350 -0.9727
vn 0.5373 0.8434 -0.0000
vn 0.1887 -0.1350 -0.9727
vn 0.8133 -0.5818 -0.0000
vn 0.1887 -0.1350 0.9727
vn 0.2559 0.0853 0.9629
vn -0.0853 0.2559 0.9629
vn 0.0639 0.1919 0.9793
vn -0.1532 0.0510 0.9869
vn -0.2558 -0.0853 0.9629
vn -0.0639 -0.1919 0.9793
vn 0.0853 -0.2559 0.9629
vn 0.1531 -0.0510 0.9869
vn 0.0639 0.1919 -0.9793
vn -0.1531 0.0510 -0.9869
vn -0.0853 0.2559 -0.9629
vn 0.2559 0.0853 -0.9629
vn -0.2558 -0.0853 -0.9629
vn -0.0639 -0.1919 -0.9793
vn 0.0853 -0.2559 -0.9629
vn 0.1532 -0.0510 -0.9869
vn 0.8052 0.5930 -0.0000
vn 0.7964 0.6047 -0.0000
vn 0.1563 0.1150 -0.9810
vn 0.0144 0.0119 -0.9998
vn 0.1698 0.1253 -0.9775
vn 0.8138 0.5811 -0.0000
vn 0.8138 0.5812 -0.0000
vn 0.1578 0.1127 -0.9810
vn -0.0037 -0.0026 -1.0000
vn -0.1847 -0.1319 -0.9739
vn -0.0700 -0.0472 -0.9964
vn -0.8138 -0.5811 -0.0000
vn -0.5556 0.8315 -0.0000
vn -0.0681 -0.0457 0.9966
vn -0.1847 -0.1319 0.9739
vn -0.0098 -0.0058 0.9999
vn 0.1698 0.1253 0.9775
vn 0.0493 0.0324 0.9983
vn 0.1568 0.1143 0.9810
vn 0.1578 0.1127 0.9810
vn 0.0135 0.0123 -0.9998
vn -0.0205 -0.0185 -0.9996
vn 0.0142 0.0112 -0.9998
vn -0.0578 -0.0453 -0.9973
vn 0.7411 0.6714 -0.0000
vn 0.7858 0.6185 -0.0000
vn 0.7418 0.6706 -0.0000
vn 0.7417 0.6707 -0.0000
vn 0.0135 0.0123 0.9998
vn 0.0142 0.0112 0.9998
vn -0.0217 -0.0174 0.9996
vn -0.0545 -0.0493 0.9973
vn -0.0931 -0.0732 0.9930
vn -0.0887 -0.0794 0.9929
vn -0.0931 -0.0733 0.9930
vn -0.0884 -0.0798 -0.9929
vn -0.0931 -0.0733 -0.9930
vn -0.0345 -0.0381 -0.9987
vn -0.0780 -0.0940 -0.9925
vn -0.0807 -0.0904 0.9926
vn -0.0394 -0.0543 -0.9977
vn -0.0714 -0.1066 -0.9917
vn -0.0724 -0.1044 0.9919
vn -0.0329 -0.0402 0.9987
vn 0.0121 0.0142 0.9998
vn -0.0220 -0.0317 0.9993
vn 0.0025 -0.1002 0.9950
vn 0.0105 0.0156 0.9998
vn -0.0071 -0.1709 0.9853
vn 0.0740 -0.2001 0.9770
vn 0.0589 -0.1212 0.9909
vn 0.0025 -0.1002 -0.9950
vn 0.0589 -0.1212 -0.9909
vn 0.0740 -0.2001 -0.9770
vn 0.0861 -0.1905 -0.9779
vn -0.0071 -0.1709 -0.9853
vn 0.0861 -0.1905 0.9779
vn 0.5269 0.8499 -0.0000
vn 0.5264 0.8502 -0.0000
vn 0.5296 0.8483 -0.0000
vn 0.0107 0.0154 -0.9998
vn 0.5829 0.8126 -0.0000
vn 0.5536 0.8328 -0.0000
vn 0.6391 0.7691 -0.0000
vn 0.0121 0.0142 -0.9998
vn 0.6676 0.7445 -0.0000
vn -0.4162 0.5901 0.6918
vn -0.5806 -0.7567 0.3006
vn -0.4293 -0.7965 0.4258
vn -0.1283 -0.7890 0.6008
vn 0.0034 -0.7574 0.6530
vn 0.3298 -0.6110 0.7197
vn 0.4347 -0.5391 0.7213
vn 0.4162 -0.5901 -0.6918
vn 0.5810 0.7565 -0.3004
vn 0.4290 0.7965 -0.4261
vn 0.1288 0.7891 -0.6006
vn 0.7728 0.6301 -0.0763
vn -0.0042 0.7571 -0.6532
vn 0.8664 0.4892 0.1002
vn 0.9106 0.2603 0.3211
vn 0.8905 0.1027 0.4433
vn 0.7712 -0.1782 0.6111
vn -0.8664 -0.4893 -0.1001
vn -0.7727 -0.6301 0.0764
vn -0.9106 -0.2606 -0.3209
vn 0.6930 -0.2904 0.6598
vn -0.8904 -0.1024 -0.4436
vn -0.7715 0.1778 -0.6109
vn -0.4353 0.5387 -0.7213
vn -0.6925 0.2910 -0.6601
vn -0.3291 0.6113 -0.7197
vn 0.8112 0.5847 -0.0000
vn -0.0115 -0.0083 -0.9999
vn 0.0276 0.0199 -0.9994
vn -0.0506 -0.0365 -0.9980
vn -0.0896 -0.0646 -0.9939
vn -0.8112 -0.5847 -0.0000
vn 0.5690 -0.8223 -0.0000
vn 0.5690 -0.8223 0.0001
vn -0.0506 -0.0365 0.9981
vn -0.0896 -0.0646 0.9939
vn -0.0115 -0.0083 0.9999
vn 0.0276 0.0199 0.9994
vn -0.7153 0.6989 -0.0000
vn -0.7663 0.6424 -0.0000
vn -0.7411 0.6714 -0.0000
vn 0.4777 0.8785 -0.0000
vn -0.0446 0.0234 0.9987
vn -0.1374 0.1152 0.9838
vn -0.1339 0.1223 0.9834
vn 0.0119 -0.0113 -0.9999
vn 0.1374 -0.1152 -0.9838
vn 0.0190 -0.0214 -0.9996
vn -0.1374 0.1152 -0.9838
vn 0.7663 -0.6425 -0.0000
vn 0.7283 -0.6853 -0.0000
vn 0.1326 -0.1233 -0.9835
vn 0.1240 -0.1382 -0.9826
vn 0.6649 -0.7470 -0.0000
vn 0.6405 -0.7679 -0.0000
vn 0.5916 -0.8062 -0.0000
vn 0.0004 0.0021 1.0000
vn 0.1094 -0.1591 0.9812
vn 0.1199 -0.1431 0.9824
vn 0.0015 0.0021 1.0000
vn 0.1301 -0.1264 0.9834
vn -0.1235 0.1397 0.9825
vn -0.1134 0.1557 0.9813
vn 0.0016 0.0023 1.0000
vn -0.5916 0.8062 -0.0000
vn -0.5645 0.8254 -0.0000
vn -0.6405 0.7679 -0.0000
vn -0.6649 0.7470 -0.0000
vn -0.0031 -0.0038 -1.0000
vn -0.1192 0.1447 -0.9823
vn -0.1293 0.1281 -0.9833
vn -0.0030 -0.0030 -1.0000
vn -0.1089 0.1607 -0.9810
vn -0.0510 0.0698 -0.9963
vn 0.1139 -0.1540 -0.9815
vn 0.1059 -0.1656 -0.9805
vn -0.1059 0.1656 -0.9805
vn -0.5387 0.8425 -0.0000
vn -0.1059 0.1656 0.9805
vn 0.0404 -0.0347 0.9986
vn 0.1059 -0.1656 0.9805
vn 0.5388 -0.8425 -0.0000
vn 0.5646 -0.8254 -0.0000
vn 0.1374 -0.1152 0.9838
vn -0.6250 -0.7806 -0.0000
vt 0.638360 0.363281
vt 0.628906 0.392028
vt 0.682500 0.467499
vt 0.692226 0.437923
vt 0.736094 0.542969
vt 0.746094 0.512565
vt 0.976562 0.023438
vt 0.095226 0.374655
vt 0.095226 0.374655
vt 0.363281 0.482039
vt 0.055192 0.405964
vt 0.085714 0.371094
vt 0.085714 0.371094
vt 0.329321 0.508598
vt 0.295360 0.535156
vt 0.045679 0.402403
vt 0.021231 0.432522
vt 0.329321 0.508597
vt 0.055191 0.405964
vt 0.011719 0.428961
vt 0.151345 0.832089
vt 0.130777 0.840408
vt 0.053453 0.761719
vt 0.032586 0.769827
vt 0.011719 0.777935
vt 0.110210 0.848726
vt 0.229324 0.893967
vt 0.209069 0.902456
vt 0.333393 0.938984
vt 0.313470 0.947617
vt 0.229324 0.893967
vt 0.249578 0.885478
vt 0.445800 0.978816
vt 0.353316 0.930352
vt 0.430892 0.988281
vt 0.460942 0.983941
vt 0.476237 0.972677
vt 0.476236 0.972677
vt 0.488281 0.976880
vt 0.454238 0.375317
vt 0.498319 0.363281
vt 0.498320 0.453125
vt 0.542401 0.375317
vt 0.574672 0.408202
vt 0.586483 0.453125
vt 0.574672 0.498048
vt 0.542401 0.530933
vt 0.498319 0.542969
vt 0.454238 0.530933
vt 0.421968 0.498048
vt 0.410156 0.453125
vt 0.421968 0.408204
vt 0.425328 0.408204
vt 0.457599 0.375317
vt 0.501680 0.363281
vt 0.501680 0.453125
vt 0.501680 0.542969
vt 0.545762 0.530933
vt 0.578032 0.498048
vt 0.457598 0.530933
vt 0.425328 0.498048
vt 0.545762 0.375317
vt 0.413517 0.453125
vt 0.578032 0.408202
vt 0.589844 0.453125
vt 0.746094 0.420014
vt 0.724172 0.363281
vt 0.724171 0.363281
vt 0.673866 0.428209
vt 0.695788 0.484943
vt 0.628906 0.486236
vt 0.650829 0.542969
vt 0.650828 0.542969
vt 0.673866 0.428210
vt 0.339170 0.617919
vt 0.438130 0.574219
vt 0.463206 0.579277
vt 0.488281 0.584336
vt 0.363750 0.623195
vt 0.388328 0.628470
vt 0.293124 0.661814
vt 0.193447 0.690595
vt 0.169919 0.684984
vt 0.269059 0.656358
vt 0.244994 0.650903
vt 0.146392 0.679374
vt 0.034553 0.716881
vt 0.057387 0.722656
vt 0.011719 0.711106
vt 0.628906 0.363281
vt 0.687500 0.453124
vt 0.746094 0.542969
s 1
f 255/142/324 251/143/324 250/143/324
f 251/143/325 252/144/325 250/143/325
f 250/143/326 252/144/327 253/145/328
f 254/142/326 250/143/326 253/145/328
f 254/142/324 255/142/324 250/143/324
f 256/145/329 257/144/330 255/142/331
f 256/145/332 255/142/332 253/145/332
f 254/142/332 253/145/332 255/142/332
f 257/144/330 251/143/331 255/142/331
f 252/144/325 251/143/325 257/144/325
f 258/146/333 257/144/330 256/145/329
f 258/146/325 252/144/325 257/144/325
f 259/146/334 258/146/334 260/147/334
f 259/146/325 252/144/325 258/146/325
f 260/147/333 258/146/333 256/145/329
f 261/147/332 260/147/332 256/145/332
f 261/147/334 259/146/334 260/147/334
f 252/144/327 259/146/335 261/147/335
f 253/145/328 252/144/327 261/147/335
f 261/147/332 256/145/332 253/145/332
f 263/148/336 262/148/337 264/148/338
f 264/148/338 262/148/337 265/148/339
f 262/148/337 266/148/340 265/148/339
f 265/148/339 266/148/340 267/148/341
f 266/148/340 268/148/342 267/148/341
f 268/148/342 263/148/336 269/148/343
f 267/148/341 268/148/342 269/148/343
f 269/148/343 263/148/336 264/148/338
f 264/148/338 265/148/339 269/148/343
f 265/148/339 267/148/341 269/148/343
f 271/148/344 273/148/345 270/148/346
f 271/148/344 270/148/346 272/148/347
f 273/148/345 274/148/348 270/148/346
f 273/148/345 275/148/349 274/148/348
f 275/148/349 276/148/350 274/148/348
f 277/148/351 272/148/347 276/148/350
f 275/148/349 277/148/351 276/148/350
f 271/148/344 277/148/351 273/148/345
f 277/148/351 271/148/344 272/148/347
f 277/148/351 275/148/349 273/148/345
f 279/148/336 278/148/337 280/148/338
f 280/148/338 278/148/337 281/148/339
f 278/148/337 282/148/340 281/148/339
f 281/148/339 282/148/340 283/148/341
f 282/148/340 284/148/342 283/148/341
f 284/148/342 279/148/336 285/148/343
f 283/148/341 284/148/342 285/148/343
f 280/148/338 281/148/339 285/148/343
f 285/148/343 279/148/336 280/148/338
f 281/148/339 283/148/341 285/148/343
f 287/148/344 289/148/345 286/148/346
f 287/148/344 286/148/346 288/148/347
f 289/148/345 290/148/348 286/148/346
f 289/148/345 291/148/349 290/148/348
f 291/148/349 292/148/350 290/148/348
f 293/148/351 288/148/347 292/148/350
f 291/148/349 293/148/351 292/148/350
f 293/148/351 287/148/344 288/148/347
f 287/148/344 293/148/351 289/148/345
f 293/148/351 291/148/349 289/148/345
f 295/148/336 294/148/337 296/148/338
f 296/148/338 294/148/337 297/148/339
f 294/148/337 298/148/340 297/148/339
f 297/148/339 298/148/340 299/148/341
f 298/148/340 300/148/342 299/148/341
f 300/148/342 295/148/336 301/148/343
f 299/148/341 300/148/342 301/148/343
f 301/148/343 295/148/336 296/148/338
f 296/148/338 297/148/339 301/148/343
f 297/148/339 299/148/341 301/148/343
f 303/148/344 305/148/345 302/148/346
f 303/148/344 302/148/346 304/148/347
f 305/148/345 306/148/348 302/148/346
f 305/148/345 307/148/349 306/148/348
f 307/148/349 308/148/350 306/148/348
f 309/148/351 304/148/347 308/148/350
f 307/148/349 309/148/351 308/148/350
f 303/148/344 309/148/351 305/148/345
f 309/148/351 303/148/344 304/148/347
f 309/148/351 307/148/349 305/148/345
f 313/149/352 310/150/352 311/151/353
f 310/150/352 312/151/353 311/151/353
f 310/150/354 316/152/355 312/151/356
f 310/150/352 313/149/352 314/153/357
f 315/154/358 310/150/352 314/153/357
f 316/152/355 310/150/354 315/154/359
f 317/155/360 316/152/355 320/156/361
f 316/152/355 317/155/360 312/151/356
f 318/157/362 316/152/355 315/154/359
f 319/158/361 316/152/355 318/157/362
f 316/152/355 319/158/361 320/156/361
f 319/158/363 321/158/363 320/156/363
f 321/158/363 322/156/363 320/156/363
f 317/155/364 320/156/364 322/156/364
f 323/159/365 322/156/366 321/158/366
f 323/159/364 317/155/364 322/156/364
f 312/151/364 317/155/364 323/159/364
f 324/160/367 323/159/365 321/158/366
f 311/151/368 323/159/365 324/160/367
f 311/151/364 312/151/364 323/159/364
f 324/160/367 321/158/366 326/161/366
f 325/157/369 324/160/367 326/161/366
f 313/149/370 324/160/367 325/157/369
f 313/149/370 311/151/368 324/160/367
f 326/161/363 321/158/363 327/161/363
f 321/158/363 319/158/363 327/161/363
f 327/161/361 319/158/361 318/157/362
f 314/153/371 313/149/370 325/157/369
f 331/162/372 329/163/373 328/164/374
f 329/163/373 330/165/375 328/164/374
f 331/162/376 328/164/377 332/164/377
f 333/162/378 331/162/379 332/164/377
f 333/162/380 332/164/381 334/165/382
f 335/163/383 333/162/380 334/165/382
f 335/163/383 334/165/382 336/166/384
f 337/167/385 335/163/383 336/166/386
f 337/167/387 336/166/388 330/165/375
f 329/163/373 337/167/387 330/165/375
f 329/163/373 338/168/389 337/167/387
f 338/168/389 339/169/390 337/167/387
f 337/167/385 339/169/391 335/163/383
f 341/170/392 340/171/393 339/169/390
f 339/169/391 340/171/394 342/172/395
f 338/168/389 341/170/392 339/169/390
f 339/169/391 342/172/395 335/163/383
f 342/172/395 343/173/396 333/162/380
f 342/172/395 344/170/397 343/173/396
f 340/171/394 344/170/397 342/172/395
f 335/163/383 342/172/395 333/162/380
f 346/174/398 344/170/397 340/171/394
f 344/170/397 345/175/399 343/173/396
f 344/170/397 346/174/398 345/175/399
f 347/176/400 346/174/398 340/171/394
f 346/174/398 347/176/400 349/177/401
f 346/174/398 348/178/402 345/175/399
f 348/178/402 346/174/398 349/177/401
f 351/174/403 350/179/404 349/177/405
f 350/179/404 352/180/406 349/177/405
f 347/176/407 351/174/403 349/177/405
f 352/180/408 348/178/402 349/177/401
f 350/179/409 348/178/410 352/180/411
f 350/179/404 351/174/403 353/175/412
f 351/174/403 347/176/407 340/171/393
f 351/174/403 341/170/392 353/175/412
f 341/170/392 351/174/403 340/171/393
f 353/175/412 341/170/392 338/168/389
f 345/175/413 353/175/414 354/173/415
f 345/175/413 348/178/410 353/175/414
f 354/173/416 353/175/412 338/168/389
f 348/178/410 350/179/409 353/175/414
f 343/173/417 345/175/413 354/173/415
f 354/173/416 338/168/389 329/163/373
f 343/173/417 354/173/415 331/162/379
f 331/162/372 354/173/416 329/163/373
f 333/162/378 343/173/417 331/162/379
f 367/181/418 356/182/418 355/183/418
f 356/182/418 357/184/418 355/183/418
f 357/184/418 358/185/418 355/183/418
f 358/185/418 359/186/418 355/183/418
f 359/186/418 360/187/418 355/183/418
f 360/187/418 361/188/418 355/183/418
f 361/188/418 362/189/418 355/183/418
f 362/189/418 363/190/418 355/183/418
f 363/190/418 364/191/418 355/183/418
f 364/191/418 365/192/418 355/183/418
f 365/192/418 366/193/418 355/183/418
f 366/193/418 367/181/418 355/183/418
f 366/193/419 368/194/420 367/181/421
f 368/194/420 369/195/422 367/181/421
f 367/181/421 369/195/422 356/182/423
f 369/195/422 370/196/424 356/182/423
f 370/196/425 369/195/425 371/197/425
f 369/195/425 368/194/425 371/197/425
f 373/198/425 372/199/425 371/197/425
f 372/199/425 380/200/425 371/197/425
f 374/201/425 373/198/425 371/197/425
f 375/202/425 374/201/425 371/197/425
f 376/203/425 370/196/425 371/197/425
f 377/204/425 375/202/425 371/197/425
f 378/205/425 376/203/425 371/197/425
f 368/194/425 377/204/425 371/197/425
f 379/206/425 378/205/425 371/197/425
f 380/200/425 379/206/425 371/197/425
f 360/187/426 380/200/427 361/188/428
f 379/206/429 380/200/427 360/187/426
f 380/200/427 372/199/430 361/188/428
f 359/186/431 379/206/429 360/187/426
f 378/205/432 379/206/429 359/186/431
f 358/185/433 378/205/432 359/186/431
f 376/203/434 378/205/432 358/185/433
f 365/192/435 377/204/436 366/193/419
f 375/202/437 377/204/436 365/192/435
f 377/204/436 368/194/420 366/193/419
f 357/184/438 376/203/434 358/185/433
f 370/196/424 376/203/434 357/184/438
f 364/191/439 375/202/437 365/192/435
f 374/201/440 375/202/437 364/191/439
f 373/198/441 374/201/440 363/190/442
f 363/190/442 374/201/440 364/191/439
f 372/199/430 373/198/441 362/189/443
f 362/189/443 373/198/441 363/190/442
f 361/188/428 372/199/430 362/189/443
f 356/182/423 370/196/424 357/184/438
f 384/207/444 381/208/444 382/207/444
f 381/208/444 383/209/444 382/207/444
f 385/210/445 381/208/446 384/207/446
f 386/211/447 385/210/445 384/207/446
f 387/212/448 385/210/445 386/211/447
f 388/212/449 387/212/449 389/213/449
f 389/213/448 387/212/448 386/211/447
f 390/214/449 388/212/449 389/213/449
f 390/214/450 389/213/450 386/211/451
f 391/215/452 388/212/453 390/214/453
f 392/211/450 390/214/450 384/207/450
f 384/207/450 390/214/450 386/211/451
f 392/211/454 391/215/452 390/214/453
f 383/209/455 391/215/452 392/211/454
f 382/207/455 383/209/455 392/211/454
f 382/207/450 392/211/450 384/207/450
f 396/216/456 393/217/457 394/216/458
f 393/217/457 395/217/457 394/216/458
f 398/218/459 395/217/459 393/217/459
f 397/218/460 393/217/461 396/216/462
f 397/218/459 398/218/459 393/217/459
f 400/219/459 398/218/459 397/218/459
f 398/218/463 400/219/464 399/220/465
f 395/217/466 398/218/463 399/220/465
f 401/219/459 400/219/459 397/218/459
f 400/219/467 401/219/467 402/221/468
f 400/219/464 402/221/469 399/220/465
f 402/221/469 403/222/470 399/220/465
f 405/222/471 403/222/472 402/221/468
f 401/219/467 404/221/468 402/221/468
f 404/221/468 405/222/471 402/221/468
f 405/222/471 406/223/473 403/222/472
f 407/224/474 406/223/475 405/222/476
f 408/225/477 407/224/474 405/222/476
f 408/225/477 405/222/476 404/221/478
f 411/226/479 409/227/480 408/225/477
f 409/227/480 407/224/474 408/225/477
f 410/220/481 408/225/477 404/221/478
f 411/226/479 408/225/477 410/220/481
f 412/227/482 409/227/483 411/226/484
f 413/226/485 412/227/482 411/226/484
f 413/226/485 411/226/484 396/216/456
f 396/216/462 411/226/479 410/220/481
f 414/225/486 413/226/487 394/216/488
f 414/225/486 415/224/489 413/226/487
f 394/216/458 413/226/485 396/216/456
f 415/224/489 412/227/490 413/226/487
f 415/224/489 418/228/491 412/227/490
f 416/223/492 415/224/489 414/225/486
f 416/223/492 417/229/493 415/224/489
f 417/229/493 418/228/491 415/224/489
f 418/228/491 419/230/494 412/227/490
f 419/230/495 420/230/495 409/227/483
f 412/227/482 419/230/495 409/227/483
f 409/227/480 420/230/496 407/224/474
f 420/230/496 421/228/497 407/224/474
f 421/228/497 422/229/498 406/223/475
f 407/224/474 421/228/497 406/223/475
f 406/223/473 422/229/499 416/223/500
f 422/229/499 417/229/499 416/223/500
f 406/223/473 416/223/500 403/222/472
f 403/222/470 416/223/492 414/225/486
f 403/222/470 414/225/486 399/220/465
f 399/220/465 414/225/486 394/216/488
f 410/220/481 397/218/460 396/216/462
f 401/219/501 397/218/460 410/220/481
f 404/221/478 401/219/501 410/220/481
f 394/216/488 395/217/466 399/220/465
f 423/231/502 425/231/502 424/232/502
f 425/231/502 426/232/502 424/232/502
f 424/232/502 426/232/502 427/233/502
f 426/232/502 428/233/502 427/233/502
o item_damaged
v -29.153999 3.117801 15.308600
v -24.850100 -8.020700 15.206201
v -22.281900 0.038201 15.206200
v -32.607300 -7.718799 15.308601
v -29.153999 3.117701 16.452700
v -22.282000 0.038101 16.555099
v -32.607300 -7.718799 16.452700
v -24.850201 -8.020799 16.555099
v -17.092899 -8.322799 15.880601
v -15.409900 -3.041299 15.880600
v -9.765330 -29.969980 13.668165
v -51.361832 -67.003914 18.093136
v -51.361832 -67.003914 13.668168
v -9.765330 -29.969980 18.093132
v -8.293665 -28.720112 18.093132
v -8.293665 -28.720112 13.668165
v -4.377504 -36.646652 12.397330
v -46.791378 -72.667580 12.397333
v -2.905750 -35.396698 12.397330
v 0.192952 -42.310234 13.668166
v -42.220924 -78.331154 13.668169
v 0.193037 -42.310226 18.093134
v -42.220924 -78.331154 18.093136
v -46.791374 -72.667488 19.363970
v -4.377419 -36.646648 19.363966
v -2.905754 -35.396782 19.363966
v 1.664702 -41.060360 18.093134
v 1.664702 -41.060360 13.668166
v -5.951000 -27.676098 15.308602
v 42.820202 6.502701 15.206199
v -1.127600 -33.495300 15.206203
v 37.865799 12.200401 15.308599
v -5.950900 -27.676098 16.452702
v 37.865799 12.200401 16.452700
v -1.127700 -33.495300 16.555101
v 3.695500 -39.314400 15.880603
v 42.820202 6.502602 16.555099
v 47.774502 0.805101 15.880600
v -2.918277 -35.385124 16.428396
v 6.891103 -27.497980 29.562595
v -0.557678 -21.121767 27.921247
v -8.638982 -18.567478 23.200388
v -15.187535 -20.519522 16.664885
v -18.448439 -26.454689 10.066080
v -17.548061 -34.782730 5.172097
v -12.727499 -43.272205 3.294255
v -5.278484 -49.646469 4.937085
v 2.802233 -52.201576 9.656823
v 9.351036 -50.250629 16.191813
v 12.611023 -44.314930 22.790215
v 11.709635 -35.987270 27.683237
v 13.490475 -43.583759 21.695087
v 12.590099 -35.255642 26.589231
v -2.039765 -34.653320 15.332825
v 7.769621 -26.766256 28.467066
v 0.320515 -20.391951 26.824209
v -7.760180 -17.836845 22.104486
v -14.309017 -19.787798 15.569355
v -17.568962 -25.723532 8.970960
v -16.667624 -34.051098 4.078072
v -11.849062 -42.540398 2.198739
v -4.400284 -48.916607 3.840083
v 3.681097 -51.470901 8.560888
v 10.229569 -49.518925 15.096283
v -9.684300 -29.093998 14.571502
v -4.336400 -24.520699 17.189802
v -9.684300 -29.093998 17.189802
v -4.336400 -24.520597 14.571502
v -3.830000 -36.157200 14.337303
v 1.518000 -31.583899 14.337303
v 1.402200 -42.469700 15.019603
v 1.402200 -42.469700 16.741703
v 6.750000 -37.896400 15.019603
v 6.750100 -37.896400 16.741703
v -3.830000 -36.157200 17.424002
v 1.518000 -31.583899 17.424002
v -47.485100 74.001503 15.308595
v -51.311600 77.422798 15.880594
v -47.485100 74.001404 16.452694
v -42.651699 80.013397 15.880594
v -37.841202 75.811600 15.206194
v -8.435800 39.442101 15.308598
v -2.130400 43.504501 15.206197
v -8.435800 39.442101 16.452696
v 20.230400 19.849901 15.206198
v 12.789900 16.988201 15.308599
v 12.789900 16.988201 16.452698
v -2.130500 43.504601 16.555096
v 20.230400 19.849901 16.555098
v 27.671101 22.711702 15.880598
v 4.175200 47.567299 15.880596
v -37.841202 75.811600 16.555094
v -33.127602 80.726303 15.880594
v -55.002800 -4.131499 15.308600
v -48.492500 -0.307299 15.206200
v -62.818199 5.832301 15.308600
v -62.818199 5.832302 16.452700
v -55.002899 -4.131399 16.452700
v -56.299702 9.645901 16.555099
v -48.492401 -0.307499 16.555099
v -41.982101 3.516601 15.880600
v -49.781101 13.459501 15.880599
v -56.299599 9.645901 15.206199
v 19.032801 52.480801 15.308597
v 25.285299 48.283699 15.206196
v 25.472500 68.316498 15.308596
v 25.472401 68.316498 16.452694
v 19.032801 52.480801 16.452696
v 31.160200 62.730900 16.555096
v 25.285299 48.283699 16.555096
v 31.537800 44.086800 15.880597
v 36.848099 57.145100 15.880595
v 31.160200 62.730900 15.206195
v -39.834801 34.469398 15.308598
v -30.776600 22.921202 15.308599
v -32.939098 37.802299 15.206197
v -30.776600 22.921103 16.452698
v -39.834801 34.469398 16.452698
v -24.258101 26.734701 16.555098
v -32.939201 37.802299 16.555098
v -26.043501 41.135201 15.880597
v -17.739500 30.548302 15.880598
v -24.257999 26.734802 15.206198
v 65.920898 20.866402 16.452698
v 53.761101 30.418102 16.555098
v 61.289398 31.826202 16.452698
v 59.833099 16.049501 16.555098
v 65.920799 20.866402 15.308599
v 59.833000 16.049501 15.206199
v 61.289299 31.826302 15.308598
v 53.761101 30.418102 15.206198
v 53.745098 11.232301 15.880599
v 46.232800 29.010101 15.880598
v 0.000000 70.710701 -0.000005
v 70.710701 0.000000 0.000000
v 0.000000 55.656200 3.999996
v -55.656101 0.000000 4.000000
v -70.710701 0.000000 0.000000
v 0.000000 -55.656101 4.000004
v 0.000000 -70.710602 0.000005
v 55.656200 0.000000 4.000000
v 0.000000 70.710701 -0.000005
v 0.000000 55.656200 -4.000004
v 70.710701 0.000000 0.000000
v -55.656101 -0.000000 -4.000000
v -70.710701 0.000000 0.000000
v 0.000000 -55.656101 -3.999996
v 0.000000 -70.710602 0.000005
v 55.656200 -0.000000 -4.000000
v 0.000000 70.710701 -0.000005
v 70.710701 0.000000 0.000000
v 0.000000 55.656200 3.999996
v -55.656101 0.000000 4.000000
v -70.710701 0.000000 0.000000
v 0.000000 -55.656101 4.000004
v 0.000000 -70.710602 0.000005
v 55.656200 0.000000 4.000000
v 0.000000 70.710701 -0.000005
v 0.000000 55.656200 -4.000004
v 70.710701 0.000000 0.000000
v -55.656101 -0.000000 -4.000000
v -70.710701 0.000000 0.000000
v 0.000000 -55.656101 -3.999996
v 0.000000 -70.710602 0.000005
v 55.656200 -0.000000 -4.000000
v 0.000000 70.710701 -0.000005
v 70.710701 0.000000 0.000000
v 0.000000 55.656200 3.999996
v -55.656101 0.000000 4.000000
v -70.710701 0.000000 0.000000
v 0.000000 -55.656101 4.000004
v 0.000000 -70.710602 0.000005
v 55.656200 0.000000 4.000000
v 0.000000 70.710701 -0.000005
v 0.000000 55.656200 -4.000004
v 70.710701 0.000000 0.000000
v -55.656101 -0.000000 -4.000000
v -70.710701 0.000000 0.000000
v 0.000000 -55.656101 -3.999996
v 0.000000 -70.710602 0.000005
v 55.656200 -0.000000 -4.000000
vn -0.0130 0.0042 -0.9999
vn 0.0198 -0.0063 -0.9998
vn 0.0527 -0.0168 -0.9985
vn -0.9528 0.3036 -0.0000
vn 0.0199 -0.0063 0.9998
vn -0.0130 0.0042 0.9999
vn 0.0527 -0.0168 0.9985
vn 0.0855 -0.0273 0.9960
vn 0.0855 -0.0273 -0.9960
vn -0.6562 0.7546 -0.0000
vn -0.6650 0.7469 -0.0000
vn -0.0962 0.1107 -0.9892
vn -0.0095 0.0100 -0.9999
vn -0.1049 0.1203 -0.9872
vn -0.6473 0.7622 -0.0000
vn -0.0949 0.1117 -0.9892
vn 0.0018 -0.0021 -1.0000
vn 0.1114 -0.1312 -0.9851
vn 0.0405 -0.0497 -0.9979
vn 0.6473 -0.7622 -0.0000
vn -0.7782 -0.6280 -0.0000
vn 0.0383 -0.0474 0.9981
vn 0.1114 -0.1312 0.9851
vn -0.1049 0.1203 0.9872
vn 0.0051 -0.0070 1.0000
vn -0.0959 0.1109 0.9892
vn -0.0270 0.0339 0.9991
vn -0.0949 0.1117 0.9892
vn -0.0091 0.0100 -0.9999
vn 0.0139 -0.0153 -0.9998
vn 0.0369 -0.0406 -0.9985
vn -0.6731 0.7396 0.0001
vn -0.6731 0.7396 -0.0000
vn -0.0091 0.0100 0.9999
vn 0.0139 -0.0152 0.9998
vn 0.0369 -0.0406 0.9985
vn 0.0139 -0.0153 0.9998
vn 0.0599 -0.0658 0.9960
vn 0.0599 -0.0658 -0.9960
vn -0.5515 -0.4662 0.6918
vn 0.7930 -0.0452 0.6076
vn 0.7578 0.0590 0.6498
vn 0.5692 0.3959 0.7206
vn 0.8031 -0.5140 0.3015
vn 0.8300 -0.3550 0.4302
vn 0.5515 0.4662 -0.6918
vn 0.5080 0.4702 0.7217
vn 0.2164 0.7243 0.6547
vn 0.1201 0.7793 0.6150
vn -0.1783 0.8790 0.4423
vn -0.3416 0.8850 0.3163
vn -0.5417 0.8318 0.1208
vn -0.7096 0.6968 -0.1040
vn -0.8300 0.3542 -0.4308
vn -0.8029 0.5147 -0.3009
vn -0.7573 -0.0605 -0.6503
vn -0.7933 0.0464 -0.6070
vn -0.5070 -0.4714 -0.7217
vn -0.5701 -0.3947 -0.7205
vn -0.2177 -0.7234 -0.6552
vn -0.1190 -0.7799 -0.6145
vn 0.1775 -0.8788 -0.4429
vn 0.3423 -0.8849 -0.3157
vn 0.5418 -0.8318 -0.1207
vn 0.7097 -0.6968 0.1041
vn -0.6499 0.7600 -0.0000
vn 0.0069 -0.0081 -0.9999
vn -0.0166 0.0194 -0.9997
vn 0.0305 -0.0356 -0.9989
vn 0.0539 -0.0630 -0.9966
vn 0.6499 -0.7600 -0.0000
vn 0.7699 0.6381 -0.0000
vn 0.0069 -0.0081 0.9999
vn 0.0304 -0.0356 0.9989
vn 0.0539 -0.0630 0.9966
vn -0.0166 0.0194 0.9997
vn -0.0264 0.0786 -0.9966
vn -0.0372 0.1242 -0.9916
vn -0.0271 0.1305 -0.9911
vn -0.6646 -0.7472 -0.0001
vn -0.6642 -0.7475 -0.0000
vn -0.6665 -0.7455 -0.0001
vn -0.6847 -0.7288 -0.0000
vn 0.0109 0.0651 -0.9978
vn -0.0097 -0.0100 -0.9999
vn -0.7060 -0.7082 -0.0000
vn 0.0350 0.0348 -0.9988
vn 0.0154 0.0145 -0.9998
vn -0.7267 -0.6870 -0.0000
vn -0.0101 -0.0095 -0.9999
vn 0.0408 0.0386 0.9984
vn 0.0198 0.0204 0.9996
vn -0.0101 -0.0095 0.9999
vn -0.0097 -0.0100 0.9999
vn 0.0650 0.0668 0.9956
vn 0.0662 0.0626 0.9958
vn 0.0646 0.0683 -0.9956
vn 0.0273 0.1101 -0.9935
vn 0.0274 0.1101 0.9935
vn 0.0109 0.0651 0.9978
vn 0.0662 0.0626 -0.9958
vn -0.0272 0.1305 0.9911
vn -0.0264 0.0787 0.9966
vn -0.0372 0.1242 0.9916
vn 0.0164 0.0129 -0.9998
vn -0.0108 -0.0084 -0.9999
vn -0.7868 -0.6172 -0.0000
vn -0.0108 -0.0084 0.9999
vn 0.0164 0.0128 0.9998
vn 0.0436 0.0342 0.9985
vn 0.0706 0.0554 0.9960
vn 0.0706 0.0554 -0.9960
vn 0.0435 0.0341 -0.9985
vn 0.0196 -0.0080 -0.9998
vn -0.0129 0.0052 -0.9999
vn -0.9263 0.3767 -0.0001
vn -0.9263 0.3767 -0.0000
vn -0.0129 0.0052 0.9999
vn 0.0197 -0.0080 0.9998
vn 0.0520 -0.0212 0.9984
vn 0.0844 -0.0343 0.9958
vn 0.0844 -0.0343 -0.9958
vn 0.0520 -0.0212 -0.9984
vn -0.7868 -0.6172 -0.0001
vn 0.0164 0.0129 0.9998
vn 0.0435 0.0342 -0.9985
vn -0.0125 -0.0472 0.9988
vn 0.0126 0.0053 0.9999
vn -0.0572 0.0262 0.9980
vn -0.0351 -0.0148 0.9993
vn 0.9211 0.3893 -0.0001
vn 0.0126 0.0053 -0.9999
vn -0.0192 -0.0081 -0.9998
vn 0.9211 0.3893 -0.0000
vn -0.0510 -0.0215 -0.9985
vn -0.9211 -0.3892 -0.0001
vn -0.9211 -0.3892 -0.0000
vn 0.2559 0.0853 0.9629
vn -0.0853 0.2559 0.9629
vn 0.0639 0.1919 0.9793
vn -0.1532 0.0510 0.9869
vn -0.2558 -0.0853 0.9629
vn -0.0639 -0.1919 0.9793
vn 0.0853 -0.2559 0.9629
vn 0.1531 -0.0510 0.9869
vn 0.0639 0.1919 -0.9793
vn -0.1531 0.0510 -0.9869
vn -0.0853 0.2559 -0.9629
vn 0.2559 0.0853 -0.9629
vn -0.2558 -0.0853 -0.9629
vn -0.0639 -0.1919 -0.9793
vn 0.0853 -0.2559 -0.9629
vn 0.1532 -0.0510 -0.9869
vt 0.011719 0.976320
vt 0.107414 0.761719
vt 0.226681 0.982299
vt 0.297849 0.822705
vt 0.107414 0.761721
vt 0.297846 0.822707
vt 0.226678 0.982301
vt 0.441643 0.988281
vt 0.488281 0.883690
vt 0.282278 0.375129
vt 0.011719 0.495014
vt 0.320914 0.398790
vt 0.291869 0.371094
vt 0.044494 0.515085
vt 0.077269 0.535156
vt 0.330506 0.394755
vt 0.353690 0.418862
vt 0.353690 0.418862
vt 0.044494 0.515085
vt 0.320915 0.398790
vt 0.330506 0.394755
vt 0.363281 0.414826
vt 0.400388 0.761719
vt 0.444335 0.786777
vt 0.011719 0.937096
vt 0.054504 0.962689
vt 0.011720 0.937096
vt 0.054503 0.962689
vt 0.444335 0.786778
vt 0.097286 0.988281
vt 0.488281 0.811835
vt 0.453830 0.413585
vt 0.497504 0.456713
vt 0.541178 0.499841
vt 0.573150 0.531413
vt 0.584852 0.542969
vt 0.497504 0.456713
vt 0.421859 0.382013
vt 0.410156 0.370457
vt 0.458822 0.406410
vt 0.426850 0.374837
vt 0.502496 0.449537
vt 0.502496 0.449537
vt 0.546170 0.492665
vt 0.578141 0.524238
vt 0.589844 0.535793
vt 0.578141 0.524237
vt 0.415148 0.363281
vt 0.746094 0.484497
vt 0.716235 0.542969
vt 0.746093 0.484497
vt 0.670120 0.478960
vt 0.699978 0.420487
vt 0.628906 0.421753
vt 0.658765 0.363282
vt 0.658765 0.363281
vt 0.034807 0.785623
vt 0.011719 0.773461
vt 0.063970 0.764253
vt 0.034807 0.785623
vt 0.270421 0.908467
vt 0.092996 0.779188
vt 0.308466 0.894027
vt 0.443386 0.978109
vt 0.398492 0.988281
vt 0.308466 0.894026
vt 0.346513 0.879585
vt 0.488281 0.967937
vt 0.121437 0.761719
vt 0.339376 0.939028
vt 0.190472 0.988281
vt 0.011719 0.859953
vt 0.190470 0.988280
vt 0.160810 0.810836
vt 0.339378 0.939030
vt 0.488281 0.889778
vt 0.309903 0.761719
vt 0.160812 0.810836
vt 0.094266 0.908766
vt 0.176816 0.988281
vt 0.488281 0.906386
vt 0.488281 0.906387
vt 0.378421 0.834053
vt 0.011719 0.829251
vt 0.268556 0.761719
vt 0.011719 0.844634
vt 0.207091 0.988280
vt 0.207091 0.988281
vt 0.160449 0.803176
vt 0.347685 0.940844
vt 0.160446 0.803176
vt 0.488281 0.893408
vt 0.309176 0.761719
vt 0.347687 0.940843
vt 0.123193 0.831775
vt 0.234660 0.761719
vt 0.455694 0.901649
vt 0.488279 0.815016
vt 0.234660 0.761720
vt 0.123193 0.831776
vt 0.488281 0.815017
vt 0.011719 0.901833
vt 0.423112 0.988281
vt 0.976562 0.023438
s 1
f 432/234/503 429/235/503 430/236/504
f 429/235/503 431/237/505 430/236/504
f 433/238/506 429/235/506 432/234/506
f 434/239/507 433/238/508 435/234/508
f 435/234/506 433/238/506 432/234/506
f 436/240/509 434/239/507 435/234/508
f 437/241/510 438/242/510 436/240/509
f 438/242/510 434/239/507 436/240/509
f 431/237/505 438/242/511 437/241/511
f 430/236/504 431/237/505 437/241/511
f 442/243/512 439/243/512 440/244/513
f 439/243/512 441/244/513 440/244/513
f 439/243/514 445/245/515 441/244/516
f 439/243/512 442/243/512 443/246/517
f 444/246/517 439/243/512 443/246/517
f 445/245/515 439/243/514 444/246/518
f 446/247/519 445/245/515 449/248/520
f 445/245/515 446/247/519 441/244/516
f 447/249/521 445/245/515 444/246/518
f 448/250/520 445/245/515 447/249/521
f 445/245/515 448/250/520 449/248/520
f 448/250/522 450/251/522 449/248/522
f 450/251/522 451/248/522 449/248/522
f 446/247/523 449/248/523 451/248/523
f 452/252/524 451/248/525 450/251/525
f 452/252/523 446/247/523 451/248/523
f 440/244/526 452/252/524 453/253/527
f 440/244/523 441/244/523 452/252/523
f 441/244/523 446/247/523 452/252/523
f 453/253/527 452/252/524 450/251/525
f 442/243/528 440/244/526 453/253/527
f 442/243/528 453/253/527 454/254/529
f 453/253/527 450/251/525 455/255/525
f 454/254/529 453/253/527 455/255/525
f 455/255/522 450/251/522 456/255/522
f 450/251/522 448/250/522 456/255/522
f 456/255/520 448/250/520 447/249/521
f 443/246/530 442/243/528 454/254/529
f 460/256/531 458/257/532 457/258/531
f 458/257/532 459/259/533 457/258/531
f 460/256/534 457/258/534 461/260/534
f 462/256/535 460/256/535 461/260/535
f 462/256/536 461/260/536 463/261/537
f 465/262/538 463/261/539 464/263/540
f 465/262/538 462/256/536 463/261/539
f 466/264/540 465/262/538 464/263/540
f 466/264/541 464/263/541 459/259/533
f 458/257/532 466/264/541 459/259/533
f 479/265/542 468/266/542 467/266/542
f 468/266/542 469/267/542 467/266/542
f 469/267/542 470/268/542 467/266/542
f 470/268/542 471/269/542 467/266/542
f 471/269/542 472/268/542 467/266/542
f 472/268/542 473/267/542 467/266/542
f 473/267/542 474/270/542 467/266/542
f 474/270/542 475/265/542 467/266/542
f 475/265/542 476/271/542 467/266/542
f 476/271/542 477/272/542 467/266/542
f 477/272/542 478/271/542 467/266/542
f 478/271/542 479/265/542 467/266/542
f 479/265/543 481/273/544 468/266/545
f 478/271/546 480/274/547 479/265/543
f 480/274/547 481/273/544 479/265/543
f 483/275/548 481/273/548 482/276/548
f 481/273/548 480/274/548 482/276/548
f 481/273/544 483/275/549 468/266/545
f 468/266/545 483/275/549 469/267/550
f 483/275/549 484/277/551 469/267/550
f 484/277/548 483/275/548 482/276/548
f 469/267/550 484/277/551 470/268/552
f 484/277/551 485/278/553 470/268/552
f 485/278/548 484/277/548 482/276/548
f 470/268/552 485/278/553 471/269/554
f 485/278/553 486/279/555 471/269/554
f 486/279/548 485/278/548 482/276/548
f 487/280/548 486/279/548 482/276/548
f 486/279/555 487/280/556 472/268/557
f 471/269/554 486/279/555 472/268/557
f 488/277/548 487/280/548 482/276/548
f 487/280/556 488/277/558 473/267/559
f 472/268/557 487/280/556 473/267/559
f 489/276/548 488/277/548 482/276/548
f 488/277/558 489/276/560 474/270/561
f 473/267/559 488/277/558 474/270/561
f 474/270/561 489/276/560 475/265/562
f 489/276/560 490/273/563 475/265/562
f 490/273/548 489/276/548 482/276/548
f 475/265/562 490/273/563 476/271/564
f 490/273/563 491/274/565 476/271/564
f 491/274/548 490/273/548 482/276/548
f 476/271/564 491/274/565 477/272/566
f 491/274/565 492/281/567 477/272/566
f 492/281/548 491/274/548 482/276/548
f 477/272/566 492/281/567 478/271/546
f 492/281/567 480/274/547 478/271/546
f 480/274/548 492/281/548 482/276/548
f 496/282/568 493/283/568 494/284/568
f 493/283/568 495/283/568 494/284/568
f 497/285/569 493/283/570 496/282/570
f 498/286/571 497/285/569 496/282/570
f 499/287/572 497/285/569 498/286/571
f 500/287/573 499/287/573 501/288/573
f 501/288/572 499/287/572 498/286/571
f 502/289/573 500/287/573 501/288/573
f 502/289/574 501/288/574 498/286/574
f 504/286/575 503/285/576 502/289/577
f 503/285/576 500/287/577 502/289/577
f 504/286/574 502/289/574 496/282/574
f 496/282/574 502/289/574 498/286/574
f 494/284/574 504/286/574 496/282/574
f 494/284/578 495/283/578 504/286/575
f 495/283/578 503/285/576 504/286/575
f 505/290/579 506/291/580 508/292/581
f 505/290/582 507/293/583 506/291/584
f 507/293/583 505/290/582 510/294/585
f 509/295/586 505/290/579 508/292/581
f 505/290/579 509/295/586 510/294/587
f 512/294/588 507/293/583 510/294/585
f 509/295/586 511/296/589 510/294/587
f 510/294/587 511/296/589 513/297/590
f 512/294/588 510/294/585 514/298/591
f 514/298/592 510/294/587 513/297/590
f 515/298/591 512/294/588 514/298/591
f 517/297/593 516/299/594 515/298/595
f 516/299/594 512/294/596 515/298/595
f 519/300/597 516/299/594 517/297/593
f 518/301/598 519/300/597 517/297/593
f 511/296/589 509/295/586 519/300/599
f 509/295/586 521/302/600 519/300/599
f 521/302/601 520/295/602 519/300/597
f 520/295/602 516/299/594 519/300/597
f 511/296/589 519/300/599 518/301/603
f 520/295/602 521/302/601 508/292/604
f 521/302/600 509/295/586 508/292/581
f 520/295/602 507/293/605 512/294/596
f 507/293/605 520/295/602 508/292/604
f 516/299/594 520/295/602 512/294/596
f 513/297/590 511/296/589 518/301/603
f 506/291/606 507/293/605 508/292/604
f 523/303/607 522/304/608 524/305/608
f 524/305/609 522/304/609 525/305/609
f 522/304/609 526/306/609 525/305/609
f 525/305/610 526/306/610 527/307/611
f 526/306/610 528/308/612 527/307/611
f 528/308/612 529/309/613 530/310/613
f 527/307/611 528/308/612 530/310/613
f 530/310/614 529/309/614 531/311/615
f 529/309/614 523/303/607 531/311/615
f 531/311/615 523/303/607 524/305/608
f 533/312/616 532/313/617 534/314/617
f 534/314/618 532/313/619 535/315/618
f 532/313/619 536/313/619 535/315/618
f 535/315/620 536/313/620 537/316/621
f 536/313/620 538/312/622 537/316/621
f 538/312/622 539/317/623 540/318/623
f 537/316/621 538/312/622 540/318/623
f 540/318/624 539/317/624 541/316/625
f 539/317/624 533/312/616 541/316/625
f 541/316/625 533/312/616 534/314/617
f 542/319/626 543/320/626 545/321/626
f 543/320/608 542/319/608 544/322/607
f 546/319/609 542/319/609 545/321/609
f 545/321/610 547/323/627 546/319/610
f 547/323/627 548/324/612 546/319/610
f 550/325/613 549/326/613 548/324/612
f 547/323/627 550/325/613 548/324/612
f 550/325/614 551/327/628 549/326/614
f 551/327/615 543/320/608 544/322/607
f 551/327/615 544/322/607 549/326/614
f 555/328/629 552/329/630 553/330/631
f 552/329/630 554/331/630 553/330/632
f 554/331/633 552/329/633 556/332/633
f 556/332/634 557/333/635 558/334/634
f 558/334/636 554/331/636 556/332/636
f 557/333/635 559/330/637 558/334/634
f 557/333/635 560/335/638 559/330/637
f 560/335/638 561/336/639 559/330/637
f 560/335/638 555/328/629 561/336/639
f 555/328/629 553/330/631 561/336/639
f 563/337/640 562/337/641 564/337/642
f 564/337/642 562/337/641 565/337/643
f 562/337/641 566/337/644 565/337/643
f 565/337/643 566/337/644 567/337/645
f 566/337/644 568/337/646 567/337/645
f 568/337/646 563/337/640 569/337/647
f 567/337/645 568/337/646 569/337/647
f 569/337/647 563/337/640 564/337/642
f 564/337/642 565/337/643 569/337/647
f 565/337/643 567/337/645 569/337/647
f 571/337/648 573/337/649 570/337/650
f 571/337/648 570/337/650 572/337/651
f 573/337/649 574/337/652 570/337/650
f 573/337/649 575/337/653 574/337/652
f 575/337/653 576/337/654 574/337/652
f 577/337/655 572/337/651 576/337/654
f 575/337/653 577/337/655 576/337/654
f 571/337/648 577/337/655 573/337/649
f 577/337/655 571/337/648 572/337/651
f 577/337/655 575/337/653 573/337/649
f 579/337/640 578/337/641 580/337/642
f 580/337/642 578/337/641 581/337/643
f 578/337/641 582/337/644 581/337/643
f 581/337/643 582/337/644 583/337/645
f 582/337/644 584/337/646 583/337/645
f 584/337/646 579/337/640 585/337/647
f 583/337/645 584/337/646 585/337/647
f 580/337/642 581/337/643 585/337/647
f 585/337/647 579/337/640 580/337/642
f 581/337/643 583/337/645 585/337/647
f 587/337/648 589/337/649 586/337/650
f 587/337/648 586/337/650 588/337/651
f 589/337/649 590/337/652 586/337/650
f 589/337/649 591/337/653 590/337/652
f 591/337/653 592/337/654 590/337/652
f 593/337/655 588/337/651 592/337/654
f 591/337/653 593/337/655 592/337/654
f 593/337/655 587/337/648 588/337/651
f 587/337/648 593/337/655 589/337/649
f 593/337/655 591/337/653 589/337/649
f 595/337/640 594/337/641 596/337/642
f 596/337/642 594/337/641 597/337/643
f 594/337/641 598/337/644 597/337/643
f 597/337/643 598/337/644 599/337/645
f 598/337/644 600/337/646 599/337/645
f 600/337/646 595/337/640 601/337/647
f 599/337/645 600/337/646 601/337/647
f 601/337/647 595/337/640 596/337/642
f 596/337/642 597/337/643 601/337/647
f 597/337/643 599/337/645 601/337/647
f 603/337/648 605/337/649 602/337/650
f 603/337/648 602/337/650 604/337/651
f 605/337/649 606/337/652 602/337/650
f 605/337/649 607/337/653 606/337/652
f 607/337/653 608/337/654 606/337/652
f 609/337/655 604/337/651 608/337/654
f 607/337/653 609/337/655 608/337/654
f 603/337/648 609/337/655 605/337/649
f 609/337/655 603/337/648 604/337/651
f 609/337/655 607/337/653 605/337/649
o effect
v -35.609547 -3.592329 -3.002900
v -122.300659 -6.830393 3.325500
v -35.609547 -3.592328 3.002900
v -122.300659 -6.830394 -3.325500
v -122.709923 0.743576 -5.574100
v -35.159588 3.609480 -4.606400
v -35.159588 3.609481 4.606400
v -122.709923 0.743577 5.574100
v -35.478771 10.803109 3.002899
v -35.478771 10.803109 -3.002901
v -123.119301 8.317546 3.325499
v -194.194550 2.511918 3.325500
v -123.119301 8.317546 -3.325501
v -194.194550 2.511918 -3.325500
v -260.358368 -5.731421 -3.325500
v -259.065582 -13.215130 -5.574099
v -193.328796 -5.025070 -5.574100
v -192.463318 -12.561962 -3.325499
v -257.773010 -20.698746 -3.325498
v -338.123016 -34.611061 -3.220097
v -338.123016 -34.611061 3.220103
v -257.773010 -20.698746 3.325502
v -259.065582 -13.215130 5.574101
v -192.463318 -12.561962 3.325501
v -193.328796 -5.025069 5.574100
v -260.358368 -5.731420 3.325500
v -341.683563 -19.550928 -3.220098
v -341.683563 -19.550928 3.220101
v -340.307312 -27.159653 4.939602
v -340.307312 -27.159653 -4.939598
v -35.543293 -3.177684 -2.357800
v -35.377464 9.391680 -2.357801
v -35.543293 -3.177684 2.357800
v -35.377464 9.391680 2.357799
v -35.453220 3.649457 -3.638800
v -35.453220 3.649457 3.638800
v -337.644928 -33.388027 -2.357797
v -340.634460 -20.888947 -2.357798
v -337.644928 -33.388027 2.357803
v -340.634460 -20.888947 2.357802
v -339.139618 -27.138489 -3.638798
v -339.139618 -27.138489 3.638802
v -257.970245 -19.684578 -2.357799
v -260.137360 -7.045089 -2.357800
v -257.970245 -19.684578 2.357801
v -260.137360 -7.045089 2.357800
v -259.053711 -13.364934 -3.638799
v -259.053711 -13.364934 3.638801
v -192.590942 -11.494861 -2.357799
v -194.044693 1.233864 -2.357800
v -192.590942 -11.494861 2.357801
v -194.044693 1.233865 2.357800
v -193.317734 -5.130546 -3.638799
v -193.317734 -5.130545 3.638800
v -122.358353 -5.710578 -2.357800
v -123.045959 7.081349 -2.357800
v -122.358353 -5.710578 2.357800
v -123.045959 7.081349 2.357800
v -122.702103 0.685386 -3.638800
v -122.702103 0.685387 3.638800
v -337.644928 -33.388027 -2.357797
v -339.139618 -27.138489 -3.638798
v -337.644928 -33.388027 2.357803
v -339.139618 -27.138489 3.638802
v -340.634460 -20.888947 2.357802
v -340.634460 -20.888947 -2.357798
v -103.135185 -6.017891 -2.701900
v -103.135185 -6.017891 2.702000
v -103.083420 0.821895 -4.327100
v -98.895630 0.995377 -4.327100
v -99.064865 -5.849342 -2.701900
v -99.064865 -5.849342 2.702000
v -103.083420 0.821896 4.327100
v -98.895630 0.995378 4.327100
v -98.726410 7.840097 -2.702000
v -98.726410 7.840097 2.701900
v -103.031540 7.661786 2.701900
v -103.031540 7.661786 -2.702000
vn 0.0679 -0.9977 -0.0000
vn 0.0373 -0.9993 -0.0000
vn 0.0508 -0.9987 -0.0000
vn 0.9997 -0.0243 -0.0000
vn 0.9981 -0.0624 -0.0000
vn 0.0154 -0.2506 -0.9680
vn 0.0187 -0.2836 -0.9588
vn 0.0094 -0.0425 -0.9991
vn 0.0109 0.0025 -0.9999
vn 1.0000 0.0063 -0.0000
vn 0.0109 0.0025 0.9999
vn -0.0007 0.2506 0.9681
vn 0.0012 0.0411 0.9992
vn 0.0154 -0.2506 0.9680
vn 0.9990 0.0443 -0.0000
vn -0.0283 0.9996 -0.0000
vn -0.0549 0.9985 -0.0000
vn -0.0138 0.2839 0.9588
vn -0.0269 0.2829 0.9588
vn -0.0944 0.9955 -0.0000
vn -0.1107 0.9939 -0.0000
vn -0.1371 0.9906 -0.0000
vn -0.0085 0.0403 -0.9992
vn -0.0421 0.2808 -0.9588
vn -0.0315 0.2825 -0.9588
vn 0.0025 -0.0004 -1.0000
vn -0.0173 0.2837 -0.9588
vn 0.0268 -0.2829 -0.9588
vn 0.0388 -0.2813 -0.9588
vn 0.1706 -0.9853 -0.0000
vn 0.1563 -0.9877 -0.0000
vn 0.0391 -0.2476 -0.9681
vn 0.1380 -0.9904 -0.0000
vn 0.1108 -0.9938 -0.0000
vn 0.0039 -0.0429 0.9991
vn 0.0411 -0.2810 0.9588
vn 0.0314 -0.2825 0.9588
vn 0.0391 -0.2476 0.9681
vn 0.0943 -0.9955 -0.0000
vn -0.0023 -0.0009 1.0000
vn 0.0204 -0.2835 0.9588
vn -0.0394 0.2812 0.9588
vn -0.1541 0.9880 -0.0000
vn -0.1675 0.9859 -0.0000
vn -0.0462 0.2457 0.9682
vn -0.9766 -0.2151 -0.0000
vn -0.9840 -0.1780 -0.0000
vn -0.0083 0.0035 1.0000
vn -0.9696 -0.2448 -0.0000
vn -0.9596 -0.2813 -0.0000
vn -0.0083 0.0036 -1.0000
vn -0.0462 0.2457 -0.9682
vn -0.0007 0.2506 -0.9681
vn 0.0332 -0.1931 -0.9806
vn -0.0144 0.0697 -0.9975
vn 0.0018 -0.0002 -1.0000
vn 0.0271 -0.1941 -0.9806
vn 0.0131 -0.0604 0.9981
vn 0.0332 -0.1931 0.9806
vn 0.0305 -0.1936 0.9806
vn -0.0016 -0.0007 1.0000
vn 0.1695 -0.9855 -0.0000
vn 0.1557 -0.9878 -0.0000
vn 0.1381 -0.9904 -0.0000
vn -0.0332 0.1931 -0.9806
vn -0.0306 0.1936 -0.9806
vn -0.1695 0.9855 -0.0000
vn -0.1557 0.9878 -0.0000
vn -0.1382 0.9904 -0.0000
vn -0.0332 0.1931 0.9806
vn -0.0272 0.1941 0.9806
vn 0.0017 -0.0003 -1.0000
vn 0.0187 -0.1952 -0.9806
vn 0.0218 -0.1949 0.9806
vn -0.0016 -0.0006 1.0000
vn 0.1115 -0.9938 -0.0000
vn 0.0949 -0.9955 -0.0000
vn -0.0219 0.1949 -0.9806
vn -0.1114 0.9938 -0.0000
vn -0.0950 0.9955 -0.0000
vn -0.0187 0.1952 0.9806
vn 0.0019 0.0032 -1.0000
vn 0.0091 -0.1921 -0.9813
vn 0.0130 -0.1957 0.9806
vn -0.0024 0.0327 0.9995
vn 0.0660 -0.9978 -0.0000
vn 0.0453 -0.9990 -0.0000
vn -0.0126 0.1957 -0.9806
vn -0.0542 0.9985 -0.0000
vn -0.0106 0.1958 0.9806
vn 0.0059 -0.1902 0.9817
vn -0.0007 0.0197 0.9998
vn 0.0292 -0.9996 -0.0000
vn -0.0064 0.2071 0.9783
vn -0.0263 0.9997 -0.0000
vn -0.0064 0.2071 -0.9783
vn -0.0001 -0.0526 -0.9986
vn 0.0054 -0.1845 -0.9828
vn 0.9999 -0.0132 -0.0000
vn -0.9726 -0.2326 -0.0000
vn 0.0414 -0.9991 -0.0000
vn -1.0000 0.0076 -0.0000
vn 0.0096 -0.2312 -0.9729
vn 0.0009 0.0739 -0.9973
vn -0.0001 -0.0736 -0.9973
vn -0.0007 0.0846 0.9964
vn -0.0003 -0.0842 0.9964
vn 0.0096 -0.2312 0.9729
vn 0.9997 -0.0247 -0.0000
vn -0.0096 0.2312 0.9729
vn -0.0414 0.9991 -0.0000
vn -0.0096 0.2312 -0.9729
vt 0.352875 0.633003
vt 0.487720 0.624855
vt 0.488281 0.599537
vt 0.352092 0.606343
vt 0.487645 0.574219
vt 0.351308 0.579684
vt 0.240814 0.597448
vt 0.138009 0.623971
vt 0.140166 0.650346
vt 0.242306 0.623994
vt 0.243799 0.650540
vt 0.142322 0.676721
vt 0.017551 0.722656
vt 0.011719 0.669544
vt 0.014008 0.696362
vt 0.016650 0.722656
vt 0.014184 0.699027
vt 0.139093 0.650501
vt 0.140917 0.674377
vt 0.011719 0.675397
vt 0.137269 0.626624
vt 0.241684 0.622251
vt 0.242951 0.646281
vt 0.240416 0.598221
vt 0.351952 0.603328
vt 0.352622 0.627461
vt 0.351283 0.579196
vt 0.488281 0.621609
vt 0.488281 0.595868
vt 0.488281 0.574219
vt 0.628906 0.511340
vt 0.628906 0.394910
vt 0.687500 0.542969
vt 0.687500 0.363281
vt 0.746094 0.394910
vt 0.746094 0.511340
vt 0.629684 0.397023
vt 0.628906 0.397023
vt 0.628906 0.509225
vt 0.687088 0.542969
vt 0.687889 0.542969
vt 0.629684 0.509225
vt 0.687889 0.363281
vt 0.687088 0.363281
vt 0.745271 0.397025
vt 0.746094 0.509227
vt 0.746094 0.397025
vt 0.745271 0.509227
s 1
f 613/338/656 610/339/657 611/338/658
f 610/339/657 612/339/657 611/338/658
f 616/340/659 612/339/660 610/339/660
f 610/339/661 613/338/662 614/341/663
f 615/340/664 610/339/661 614/341/663
f 615/340/665 616/340/659 610/339/660
f 616/340/666 618/342/667 617/341/668
f 612/339/669 616/340/666 617/341/668
f 618/342/670 616/340/659 615/340/665
f 619/342/670 618/342/670 615/340/665
f 618/342/671 619/342/671 620/343/672
f 618/342/667 620/343/673 617/341/668
f 620/343/673 621/344/674 617/341/668
f 623/344/675 621/344/676 620/343/672
f 619/342/671 622/343/672 620/343/672
f 622/343/672 623/344/675 620/343/672
f 623/344/675 624/345/677 621/344/676
f 625/346/678 624/345/679 623/344/680
f 626/347/681 625/346/678 623/344/680
f 626/347/681 623/344/680 622/343/682
f 614/341/663 626/347/681 622/343/682
f 627/348/683 626/347/681 614/341/663
f 628/349/684 625/346/678 626/347/681
f 627/348/683 628/349/684 626/347/681
f 630/350/685 629/350/685 628/349/686
f 628/349/684 629/350/687 625/346/678
f 631/349/688 630/350/685 628/349/686
f 631/349/688 628/349/686 627/348/689
f 632/346/690 631/349/691 633/348/692
f 630/350/693 631/349/691 632/346/690
f 633/348/694 631/349/688 627/348/689
f 634/347/695 632/346/690 633/348/692
f 633/348/694 627/348/689 613/338/656
f 634/347/695 633/348/692 611/338/696
f 611/338/658 633/348/694 613/338/656
f 621/344/674 634/347/695 617/341/668
f 621/344/674 635/345/697 634/347/695
f 635/345/697 632/346/690 634/347/695
f 617/341/668 634/347/695 611/338/696
f 624/345/677 635/345/698 621/344/676
f 624/345/677 636/351/699 635/345/698
f 636/351/699 637/351/699 635/345/698
f 635/345/697 637/351/700 632/346/690
f 638/352/701 637/351/702 636/351/702
f 637/351/700 638/352/703 632/346/690
f 639/352/704 638/352/701 636/351/702
f 630/350/705 638/352/701 639/352/704
f 638/352/703 630/350/693 632/346/690
f 629/350/705 630/350/705 639/352/704
f 629/350/687 639/352/706 625/346/678
f 639/352/706 636/351/707 625/346/678
f 636/351/707 624/345/679 625/346/678
f 613/338/662 627/348/683 614/341/663
f 622/343/682 619/342/708 614/341/663
f 619/342/708 615/340/664 614/341/663
f 611/338/696 612/339/669 617/341/668
f 646/353/709 650/354/710 656/355/711
f 652/356/712 646/353/709 656/355/711
f 651/354/713 648/353/714 654/356/715
f 657/355/716 651/354/713 654/356/715
f 648/353/717 646/353/717 652/356/718
f 654/356/719 648/353/717 652/356/718
f 650/354/710 647/357/720 653/358/721
f 656/355/711 650/354/710 653/358/721
f 647/357/722 649/357/722 655/358/723
f 653/358/724 647/357/722 655/358/723
f 649/357/725 651/354/713 657/355/716
f 655/358/726 649/357/725 657/355/716
f 652/356/712 656/355/711 662/359/727
f 658/360/728 652/356/712 662/359/727
f 657/355/716 654/356/715 660/360/729
f 663/359/730 657/355/716 660/360/729
f 654/356/719 652/356/718 658/360/731
f 660/360/732 654/356/719 658/360/731
f 656/355/711 653/358/721 659/361/733
f 662/359/727 656/355/711 659/361/733
f 653/358/724 655/358/723 661/361/734
f 659/361/735 653/358/724 661/361/734
f 655/358/726 657/355/716 663/359/730
f 661/361/736 655/358/726 663/359/730
f 658/360/728 662/359/727 668/362/737
f 664/363/738 658/360/728 668/362/737
f 663/359/730 660/360/729 666/363/739
f 669/362/740 663/359/730 666/363/739
f 660/360/732 658/360/731 664/363/741
f 666/363/742 660/360/732 664/363/741
f 662/359/727 659/361/733 665/364/743
f 668/362/737 662/359/727 665/364/743
f 659/361/735 661/361/734 667/364/744
f 665/364/744 659/361/735 667/364/744
f 661/361/736 663/359/730 669/362/740
f 667/364/745 661/361/736 669/362/740
f 642/365/746 645/366/747 669/362/740
f 666/363/739 642/365/746 669/362/740
f 640/365/748 642/365/748 666/363/742
f 664/363/741 640/365/748 666/363/742
f 643/367/749 667/364/745 669/362/740
f 645/366/747 643/367/749 669/362/740
f 641/367/750 665/364/744 667/364/744
f 643/367/750 641/367/750 667/364/744
f 641/367/751 644/366/752 668/362/737
f 665/364/743 641/367/751 668/362/737
f 644/366/752 640/365/753 664/363/738
f 668/362/737 644/366/752 664/363/738
f 643/367/754 645/366/754 644/366/754
f 641/367/754 643/367/754 644/366/754
f 645/366/754 642/365/754 640/365/754
f 644/366/754 645/366/754 640/365/754
f 670/368/755 672/369/755 671/370/755
f 672/369/755 673/371/755 671/370/755
f 673/371/755 674/372/755 675/373/755
f 671/370/755 673/371/755 675/373/755
f 681/374/756 677/375/756 676/376/756
f 677/375/757 678/377/757 676/376/757
f 676/376/758 678/377/759 679/378/760
f 680/379/758 676/376/758 679/378/760
f 680/379/756 681/374/756 676/376/756
f 683/380/761 682/381/762 681/374/763
f 682/381/762 677/375/763 681/374/763
f 680/379/764 679/378/764 681/374/764
f 683/380/764 681/374/764 679/378/764
f 686/382/765 682/381/762 683/380/761
f 684/383/764 683/380/764 679/378/764
f 684/383/764 685/384/764 683/380/764
f 685/384/765 686/382/765 683/380/761
f 687/385/766 686/382/766 685/384/766
f 687/385/757 678/377/757 686/382/757
f 686/382/757 678/377/757 682/381/757
f 678/377/759 687/385/767 684/383/767
f 684/383/766 687/385/766 685/384/766
f 679/378/760 678/377/759 684/383/767
f 678/377/757 677/375/757 682/381/757
