# Blender 5.2.0 LTS
# www.blender.org
o blade
v -33.167946 -1.961312 -1.857794
v 33.888588 -0.516454 1.857790
v 33.888588 -0.516454 -1.857794
v -33.167946 -1.961312 1.857790
v -35.494469 -1.976057 1.857790
v -35.494469 -1.976057 -1.857794
v -33.128986 3.644866 -2.924860
v -35.455513 3.630122 -2.924860
v -33.095940 8.400445 -1.857795
v 33.952095 8.622730 -1.857795
v 33.920334 4.053137 -2.924860
v 33.952095 8.622730 1.857790
v 33.920334 4.053137 2.924856
v -33.128986 3.644866 2.924856
v -33.095940 8.400445 1.857790
v -35.422462 8.385701 -1.857795
v -35.422462 8.385701 1.857790
v -35.455513 3.630122 2.924856
v -39.060116 -2.243779 -0.566752
v -124.766968 1.152835 -0.668232
v -39.048691 3.365328 -0.668232
v -124.520676 -4.448437 -0.566752
v -39.060116 -2.243779 0.566756
v -124.520676 -4.448437 0.566756
v -39.048691 3.365328 0.668236
v -124.766968 1.152835 0.668236
v -39.037266 8.974318 0.000001
v -125.013382 6.753991 0.000001
v -197.183594 -4.909893 -0.668232
v -197.660385 0.672151 0.000002
v -265.255859 -8.325857 0.000003
v -264.564636 -13.879498 -0.668231
v -197.183594 -4.909893 0.668236
v -264.564636 -13.879498 0.668237
v -196.706940 -10.491823 0.566757
v -263.873535 -19.432787 0.566757
v -196.706940 -10.491823 -0.566751
v -263.873535 -19.432787 -0.566751
v -334.913757 -32.439583 -0.566750
v -334.913757 -32.439583 0.566758
v -330.417328 -25.522820 -0.668230
v -333.302246 -20.698977 0.000003
v -339.098419 -27.144934 0.000004
v -330.417328 -25.522820 0.668238
v -341.919098 -33.701660 0.000004
v -34.015800 -2.157500 -1.099300
v -42.484100 -2.225600 1.099300
v -34.015800 -2.157500 1.099300
v -42.484100 -2.225600 -1.099300
v -34.015800 3.610700 -1.295900
v -42.484100 3.542600 -1.295900
v -34.015800 8.765900 -0.723001
v -34.015800 8.765900 0.722999
v -42.484100 8.697800 -0.723001
v -42.484100 8.697800 0.722999
v -34.015800 3.610700 1.295900
v -42.484100 3.542600 1.295900
v -34.864811 3.600161 0.000003
v -34.864811 3.600161 14.718198
v -34.859154 -5.331424 14.332384
v -34.855064 -11.876558 8.278098
v -34.838463 -12.288182 0.000007
v -34.855061 -11.876547 -8.278075
v -34.859154 -5.331426 -14.332380
v -34.864811 3.600162 -14.718192
v -34.870441 12.535290 -14.334874
v -34.874573 19.075245 -8.276149
v -34.891159 19.488501 -0.000001
v -34.874573 19.075268 8.275996
v -34.870441 12.535280 14.334866
v -37.428440 19.080307 8.277899
v -37.424347 12.535226 14.332388
v -37.418690 3.603639 0.000003
v -37.418690 3.603638 14.718198
v -37.413059 -5.331476 14.334862
v -37.408928 -11.871442 8.276157
v -37.392342 -12.284704 0.000007
v -37.408928 -11.871445 -8.276140
v -37.413059 -5.331493 -14.334882
v -37.418690 3.603640 -14.718192
v -37.424347 12.535228 -14.332381
v -37.428436 19.080355 -8.278086
v -37.445038 19.491983 -0.000001
vn 0.0139 -0.9999 -0.0000
vn 0.0215 -0.9998 -0.0000
vn 0.0026 -0.1870 -0.9824
vn 0.0008 -0.0179 -0.9998
vn 0.0030 -0.2075 -0.9782
vn 0.0063 -1.0000 -0.0000
vn 0.0012 -0.1870 -0.9824
vn 0.0004 0.0835 -0.9965
vn -0.0011 0.2189 -0.9757
vn -0.0011 0.2232 -0.9748
vn -0.0000 0.0019 -1.0000
vn 1.0000 -0.0069 -0.0000
vn 1.0000 -0.0070 -0.0000
vn 0.0004 0.0095 1.0000
vn 0.0008 0.0766 0.9971
vn -0.0011 0.2217 0.9751
vn 0.0030 -0.2075 0.9782
vn -0.0008 0.2274 0.9738
vn -0.0048 1.0000 -0.0000
vn -0.0063 1.0000 -0.0000
vn -0.0033 1.0000 -0.0000
vn -0.0014 0.2189 0.9757
vn -0.0006 -0.0543 0.9985
vn 0.0026 -0.1870 0.9824
vn 0.0012 -0.1870 0.9824
vn -0.0014 0.2189 -0.9757
vn 0.0010 -0.0181 -0.9998
vn -0.0015 0.0274 -0.9996
vn 0.0005 -0.0181 -0.9998
vn -0.0018 0.0731 -0.9973
vn 0.0551 -0.9985 -0.0000
vn 0.0258 -0.9997 -0.0000
vn 0.0546 -0.9985 -0.0000
vn 0.0548 -0.9985 -0.0000
vn 0.0010 -0.0181 0.9998
vn 0.0005 -0.0181 0.9998
vn -0.0008 0.0276 0.9996
vn -0.0040 0.0729 0.9973
vn -0.0031 0.1183 0.9930
vn -0.0064 0.1182 0.9930
vn -0.0064 0.1182 -0.9930
vn -0.0031 0.1183 -0.9930
vn -0.0049 0.0501 -0.9987
vn -0.0136 0.1177 -0.9930
vn -0.0118 0.1179 0.9930
vn -0.0095 0.0633 -0.9979
vn -0.0196 0.1194 -0.9927
vn -0.0186 0.1189 0.9927
vn -0.0059 0.0501 0.9987
vn -0.0057 0.0362 0.9993
vn 0.0020 -0.0180 0.9998
vn 0.0995 -0.9950 -0.0000
vn 0.1479 -0.9890 -0.0000
vn 0.1159 -0.9933 -0.0000
vn 0.0028 -0.0179 0.9998
vn 0.1643 -0.9864 -0.0000
vn 0.0020 -0.0180 -0.9998
vn 0.0028 -0.0179 -0.9998
vn -0.0354 0.0549 -0.9979
vn 0.1787 -0.9839 -0.0000
vn -0.0563 0.0205 -0.9982
vn -0.0877 0.0532 -0.9947
vn -0.0578 0.1030 -0.9930
vn -0.0873 0.0376 -0.9955
vn -0.0354 0.0549 0.9979
vn -0.0578 0.1030 0.9930
vn -0.0877 0.0533 0.9947
vn -0.0873 0.0376 0.9955
vn -0.0563 0.0205 0.9982
vn 0.1773 -0.9842 -0.0000
vn 0.0080 -1.0000 -0.0000
vn -0.0003 0.0141 -0.9999
vn 0.0003 -0.0341 -0.9994
vn -0.0003 0.0624 -0.9981
vn -0.0009 0.1105 -0.9939
vn -0.0080 1.0000 -0.0000
vn -1.0000 -0.0000 -0.0000
vn -0.0003 0.0624 0.9981
vn -0.0009 0.1105 0.9939
vn -0.0003 0.0141 0.9999
vn 0.0003 -0.0341 0.9994
vn 1.0000 0.0006 -0.0000
vn 1.0000 0.0010 -0.0000
vn 1.0000 0.0011 0.0009
vn 1.0000 0.0017 -0.0000
vn 1.0000 0.0011 -0.0009
vn -0.0007 0.4534 0.8913
vn -0.0008 0.3135 0.9496
vn -0.0001 0.0583 0.9983
vn 0.0019 0.9456 0.3254
vn 0.0020 0.8567 0.5158
vn -1.0000 -0.0006 -0.0000
vn -1.0000 -0.0011 0.0009
vn -1.0000 -0.0010 -0.0000
vn 0.0001 -0.0583 0.9983
vn 0.0008 -0.3135 0.9496
vn 0.0007 -0.4534 0.8913
vn -0.0020 -0.8567 0.5158
vn -0.0019 -0.9456 0.3254
vn -1.0000 -0.0011 -0.0009
vn -1.0000 -0.0017 -0.0000
vn -0.0016 -0.9938 -0.1108
vn -0.0016 -0.9938 0.1109
vn -0.0020 -0.8562 -0.5167
vn -0.0019 -0.9457 -0.3251
vn 0.0008 -0.3136 -0.9496
vn 0.0007 -0.4541 -0.8910
vn 0.0001 -0.0585 -0.9983
vn -0.0001 0.0585 -0.9983
vn -0.0008 0.3136 -0.9496
vn -0.0007 0.4541 -0.8910
vn 0.0020 0.8562 -0.5167
vn 0.0019 0.9457 -0.3251
vn 0.0016 0.9938 -0.1108
vn 0.0016 0.9938 0.1109
vt 0.023508 0.535156
vt 0.363281 0.519007
vt 0.023508 0.446391
vt 0.011719 0.535156
vt 0.011719 0.446391
vt 0.023508 0.371094
vt 0.363281 0.374302
vt 0.363281 0.446655
vt 0.011719 0.371094
vt 0.353784 0.833084
vt 0.353378 0.802916
vt 0.488281 0.822133
vt 0.488281 0.791926
vt 0.488281 0.761719
vt 0.352972 0.772748
vt 0.239423 0.834785
vt 0.238654 0.804718
vt 0.133402 0.882364
vt 0.132296 0.852447
vt 0.240191 0.864852
vt 0.134507 0.912279
vt 0.029795 0.944358
vt 0.022740 0.981560
vt 0.016137 0.953000
vt 0.025239 0.918348
vt 0.011719 0.988281
vt 0.628906 0.542969
vt 0.629632 0.363281
vt 0.691131 0.363281
vt 0.690405 0.542969
vt 0.746094 0.363281
vt 0.745368 0.542969
vt 0.544922 0.375318
vt 0.500000 0.363281
vt 0.500000 0.453125
vt 0.455078 0.375318
vt 0.422193 0.408203
vt 0.410156 0.453125
vt 0.422193 0.498047
vt 0.455078 0.530932
vt 0.500000 0.542969
vt 0.544922 0.530932
vt 0.577807 0.498047
vt 0.589844 0.453125
vt 0.577807 0.408204
s 1
f 4/1/1 1/1/1 2/2/2
f 1/1/1 3/2/2 2/2/2
f 1/1/3 7/3/4 3/2/5
f 1/1/1 4/1/1 5/4/6
f 6/4/6 1/1/1 5/4/6
f 7/3/4 1/1/3 6/4/7
f 8/5/8 7/3/4 6/4/7
f 9/6/9 7/3/4 8/5/8
f 7/3/4 9/6/9 10/7/10
f 7/3/4 11/8/11 3/2/5
f 11/8/11 7/3/4 10/7/10
f 3/2/12 11/8/12 13/8/12
f 11/8/12 10/7/13 12/7/13
f 13/8/12 11/8/12 12/7/13
f 14/3/14 13/8/15 15/6/16
f 2/2/17 13/8/15 14/3/14
f 2/2/12 3/2/12 13/8/12
f 13/8/15 12/7/18 15/6/16
f 15/6/19 9/6/19 16/9/20
f 9/6/19 15/6/19 10/7/21
f 15/6/19 12/7/21 10/7/21
f 17/9/20 15/6/19 16/9/20
f 14/3/14 15/6/16 17/9/22
f 18/5/23 14/3/14 17/9/22
f 4/1/24 14/3/14 18/5/23
f 5/4/25 4/1/24 18/5/23
f 16/9/26 9/6/9 8/5/8
f 4/1/24 2/2/17 14/3/14
f 22/10/27 20/11/28 19/12/29
f 20/11/28 21/13/30 19/12/29
f 22/10/31 19/12/32 23/12/32
f 24/10/33 22/10/34 23/12/32
f 24/10/35 23/12/36 25/13/37
f 26/11/38 24/10/35 25/13/37
f 26/11/38 25/13/37 27/14/39
f 28/15/40 26/11/38 27/14/39
f 28/15/41 27/14/42 21/13/30
f 20/11/28 29/16/43 28/15/41
f 29/16/43 30/17/44 28/15/41
f 28/15/40 30/17/45 26/11/38
f 20/11/28 28/15/41 21/13/30
f 32/18/46 31/19/47 30/17/44
f 30/17/45 31/19/48 33/16/49
f 29/16/43 32/18/46 30/17/44
f 30/17/45 33/16/49 26/11/38
f 31/19/48 34/18/50 33/16/49
f 26/11/38 33/16/49 24/10/35
f 33/16/49 35/20/51 24/10/35
f 33/16/49 34/18/50 35/20/51
f 35/20/52 36/21/53 37/20/54
f 34/18/50 36/21/55 35/20/51
f 35/20/52 37/20/54 22/10/34
f 24/10/33 35/20/52 22/10/34
f 36/21/53 38/21/56 37/20/54
f 37/20/57 38/21/58 29/16/43
f 37/20/57 29/16/43 20/11/28
f 22/10/27 37/20/57 20/11/28
f 38/21/58 32/18/46 29/16/43
f 41/22/59 32/18/46 38/21/58
f 36/21/53 40/23/60 38/21/56
f 40/23/60 39/23/60 38/21/56
f 39/23/61 41/22/59 38/21/58
f 41/22/59 39/23/61 43/24/62
f 41/22/59 42/25/63 31/19/47
f 42/25/63 41/22/59 43/24/62
f 32/18/46 41/22/59 31/19/47
f 39/23/61 45/26/64 43/24/62
f 44/22/65 42/25/66 43/24/67
f 45/26/68 40/23/69 43/24/67
f 40/23/69 44/22/65 43/24/67
f 39/23/60 40/23/60 45/26/70
f 42/25/66 44/22/65 31/19/48
f 44/22/65 40/23/69 36/21/55
f 34/18/50 44/22/65 36/21/55
f 44/22/65 34/18/50 31/19/48
f 49/27/71 46/28/71 47/27/71
f 46/28/71 48/28/71 47/27/71
f 50/29/72 46/28/73 49/27/73
f 51/30/74 50/29/72 49/27/73
f 52/31/75 50/29/72 51/30/74
f 53/31/76 52/31/76 54/32/76
f 54/32/75 52/31/75 51/30/74
f 55/32/76 53/31/76 54/32/76
f 55/32/77 54/32/77 51/30/77
f 56/29/78 53/31/79 55/32/79
f 57/30/77 55/32/77 49/27/77
f 49/27/77 55/32/77 51/30/77
f 57/30/80 56/29/78 55/32/79
f 47/27/77 57/30/77 49/27/77
f 47/27/81 48/28/81 57/30/80
f 48/28/81 56/29/78 57/30/80
f 70/33/82 59/34/82 58/35/83
f 59/34/82 60/36/82 58/35/83
f 60/36/82 61/37/84 58/35/83
f 61/37/84 62/38/85 58/35/83
f 62/38/85 63/39/86 58/35/83
f 63/39/86 64/40/82 58/35/83
f 64/40/82 65/41/82 58/35/83
f 65/41/82 66/42/82 58/35/83
f 66/42/82 67/43/84 58/35/83
f 67/43/84 68/44/85 58/35/83
f 68/44/85 69/45/86 58/35/83
f 69/45/86 70/33/82 58/35/83
f 70/33/87 72/33/88 59/34/89
f 69/45/90 71/45/91 70/33/87
f 71/45/91 72/33/88 70/33/87
f 72/33/92 71/45/93 73/35/94
f 74/34/92 72/33/92 73/35/94
f 72/33/88 74/34/95 59/34/89
f 59/34/89 74/34/95 60/36/96
f 74/34/95 75/36/97 60/36/96
f 75/36/92 74/34/92 73/35/94
f 60/36/96 75/36/97 61/37/98
f 75/36/97 76/37/99 61/37/98
f 76/37/100 75/36/92 73/35/94
f 77/38/101 76/37/100 73/35/94
f 76/37/99 77/38/102 62/38/103
f 61/37/98 76/37/99 62/38/103
f 78/39/93 77/38/101 73/35/94
f 77/38/102 78/39/104 63/39/105
f 62/38/103 77/38/102 63/39/105
f 79/40/92 78/39/93 73/35/94
f 78/39/104 79/40/106 64/40/107
f 63/39/105 78/39/104 64/40/107
f 64/40/107 79/40/106 65/41/108
f 79/40/106 80/41/109 65/41/108
f 80/41/92 79/40/92 73/35/94
f 65/41/108 80/41/109 66/42/110
f 80/41/109 81/42/111 66/42/110
f 81/42/92 80/41/92 73/35/94
f 66/42/110 81/42/111 67/43/112
f 81/42/111 82/43/113 67/43/112
f 82/43/100 81/42/92 73/35/94
f 67/43/112 82/43/113 68/44/114
f 82/43/113 83/44/115 68/44/114
f 83/44/101 82/43/100 73/35/94
f 68/44/114 83/44/115 69/45/90
f 83/44/115 71/45/91 69/45/90
f 71/45/93 83/44/101 73/35/94
o blade_damaged
v -39.045097 -2.234805 -0.566752
v -124.780418 1.387119 -0.668232
v -39.048714 3.373047 -0.668232
v -124.519058 -4.213580 -0.566752
v -39.045097 -2.234805 0.566756
v -124.519058 -4.213580 0.566756
v -39.048714 3.373047 0.668236
v -39.052326 8.980781 0.000001
v -124.780418 1.387119 0.668236
v -125.041893 6.987700 0.000001
v -33.166534 -1.758672 -1.857794
v 33.888588 -0.516455 1.857790
v 33.888588 -0.516455 -1.857794
v -33.166534 -1.758672 1.857790
v -35.493061 -1.773416 1.857790
v -35.493061 -1.773416 -1.857794
v -33.129101 3.628211 -2.924860
v 33.920334 4.053137 -2.924860
v -35.455627 3.613467 -2.924860
v -33.097347 8.197804 -1.857794
v 33.952095 8.622730 -1.857794
v -33.097347 8.197804 1.857790
v 33.952095 8.622730 1.857790
v 33.920334 4.053137 2.924856
v -33.129101 3.628212 2.924856
v -35.455627 3.613467 2.924856
v -35.423870 8.183060 1.857790
v -35.423870 8.183060 -1.857794
v -34.864807 3.600123 0.000003
v -34.864807 3.600123 14.718282
v -34.859024 -5.331362 14.332397
v -34.854847 -11.876574 8.278175
v -34.837887 -12.288166 0.000007
v -34.854847 -11.876559 -8.278152
v -34.859024 -5.331365 -14.332393
v -34.864807 3.600124 -14.718276
v -34.870560 12.535231 -14.334940
v -34.874779 19.075148 -8.276183
v -34.891727 19.488411 -0.000001
v -34.874779 19.075172 8.276033
v -34.870560 12.535221 14.334933
v -37.428646 19.080320 8.277976
v -37.424465 12.535163 14.332397
v -37.418686 3.603676 14.718282
v -37.418682 3.603677 0.000003
v -37.408710 -11.871348 -8.276175
v -37.412930 -5.331433 -14.334947
v -37.418682 3.603678 -14.718276
v -37.424465 12.535165 -14.332391
v -37.428642 19.080368 -8.278162
v -37.412930 -5.331417 14.334929
v -37.445606 19.491968 -0.000001
v -37.408710 -11.871343 8.276191
v -37.391762 -12.284614 0.000007
v -34.015800 -2.157500 -1.099300
v -42.484100 -2.225600 1.099300
v -34.015800 -2.157500 1.099300
v -42.484100 -2.225600 -1.099300
v -34.015800 3.610700 -1.295900
v -42.484100 3.542600 -1.295900
v -34.015800 8.765900 -0.723001
v -34.015800 8.765900 0.722999
v -42.484100 8.697800 -0.723001
v -42.484100 8.697800 0.722999
v -34.015800 3.610700 1.295900
v -42.484100 3.542600 1.295900
vn 0.0004 -0.0181 -0.9998
vn -0.0007 0.0274 -0.9996
vn -0.0005 0.0276 -0.9996
vn -0.0018 0.0729 -0.9973
vn 0.0231 -0.9997 -0.0000
vn 0.0004 -0.0181 0.9998
vn -0.0006 0.0274 0.9996
vn -0.0017 0.0729 0.9973
vn -0.0007 0.0275 0.9996
vn -0.0027 0.1183 0.9930
vn -0.0017 0.0730 0.9973
vn -0.0027 0.1183 -0.9930
vn -0.0016 0.0730 -0.9973
vn 0.0124 -0.9999 -0.0000
vn 0.0185 -0.9998 -0.0000
vn 0.0024 -0.1943 -0.9809
vn 0.0007 -0.0187 -0.9998
vn 0.0028 -0.2111 -0.9775
vn 0.0063 -1.0000 -0.0000
vn 0.0012 -0.1943 -0.9809
vn -0.0000 0.0019 -1.0000
vn -0.0014 0.2274 -0.9738
vn 0.0004 0.0868 -0.9962
vn -0.0063 1.0000 -0.0000
vn 1.0000 -0.0069 -0.0000
vn 1.0000 -0.0070 -0.0000
vn 0.0005 0.0795 0.9968
vn -0.0014 0.2274 0.9738
vn 0.0003 0.0114 0.9999
vn 0.0028 -0.2111 0.9775
vn 0.0024 -0.1943 0.9809
vn -0.0006 -0.0566 0.9984
vn 0.0012 -0.1943 0.9809
vn 1.0000 0.0006 -0.0000
vn 1.0000 0.0010 -0.0000
vn 1.0000 0.0011 0.0009
vn 1.0000 0.0017 -0.0000
vn 1.0000 0.0011 -0.0009
vn -0.0007 0.4534 0.8913
vn -0.0008 0.3135 0.9496
vn -0.0001 0.0583 0.9983
vn 0.0019 0.9456 0.3254
vn 0.0020 0.8567 0.5158
vn 0.0001 -0.0583 0.9983
vn -1.0000 -0.0006 -0.0000
vn -1.0000 -0.0010 -0.0000
vn -1.0000 -0.0011 0.0009
vn -1.0000 -0.0017 -0.0000
vn -1.0000 -0.0011 -0.0009
vn -0.0017 -0.9938 0.1109
vn -0.0017 -0.9938 -0.1108
vn -0.0020 -0.9457 -0.3251
vn -0.0020 -0.9456 0.3254
vn -0.0020 -0.8562 -0.5167
vn -0.0021 -0.8567 0.5158
vn 0.0007 -0.4534 0.8913
vn 0.0017 0.9938 -0.1108
vn 0.0017 0.9938 0.1109
vn 0.0020 0.9457 -0.3251
vn 0.0008 -0.3135 0.9496
vn 0.0020 0.8562 -0.5167
vn -0.0007 0.4541 -0.8910
vn -0.0008 0.3136 -0.9496
vn -0.0001 0.0585 -0.9983
vn 0.0008 -0.3136 -0.9496
vn 0.0001 -0.0585 -0.9983
vn 0.0007 -0.4541 -0.8910
vn 0.0080 -1.0000 -0.0000
vn -0.0003 0.0141 -0.9999
vn 0.0003 -0.0341 -0.9994
vn -0.0003 0.0624 -0.9981
vn -0.0009 0.1105 -0.9939
vn -0.0080 1.0000 -0.0000
vn -1.0000 -0.0000 -0.0000
vn -0.0003 0.0141 0.9999
vn -0.0003 0.0624 0.9981
vn -0.0009 0.1105 0.9939
vn 0.0003 -0.0341 0.9994
vt 0.014576 0.988281
vt 0.013148 0.892507
vt 0.488281 0.953516
vt 0.488281 0.857616
vt 0.488281 0.761719
vt 0.011719 0.796734
vt 0.023508 0.535156
vt 0.363281 0.521689
vt 0.023508 0.446391
vt 0.011719 0.535156
vt 0.363281 0.446391
vt 0.363281 0.371094
vt 0.011719 0.446391
vt 0.023508 0.371094
vt 0.011719 0.371094
vt 0.544922 0.375318
vt 0.500000 0.363281
vt 0.500000 0.453125
vt 0.455078 0.375318
vt 0.422193 0.408203
vt 0.410156 0.453125
vt 0.422193 0.498047
vt 0.455078 0.530932
vt 0.500000 0.542969
vt 0.544922 0.530932
vt 0.577807 0.498047
vt 0.589844 0.453125
vt 0.577807 0.408204
vt 0.628906 0.542969
vt 0.629632 0.363281
vt 0.691131 0.363281
vt 0.690405 0.542969
vt 0.746094 0.363281
vt 0.745368 0.542969
s 1
f 87/46/116 85/47/117 84/48/116
f 85/47/118 86/49/119 84/48/116
f 87/46/120 84/48/120 88/48/120
f 89/46/120 87/46/120 88/48/120
f 89/46/121 88/48/121 90/49/122
f 92/47/123 90/49/124 91/50/125
f 92/47/123 89/46/121 90/49/124
f 93/51/125 92/47/126 91/50/125
f 93/51/127 91/50/127 86/49/128
f 85/47/118 93/51/127 86/49/119
f 97/52/129 94/52/129 95/53/130
f 94/52/129 96/53/130 95/53/130
f 94/52/131 100/54/132 96/53/133
f 94/52/129 97/52/129 98/55/134
f 99/55/134 94/52/129 98/55/134
f 100/54/132 94/52/131 99/55/135
f 101/56/136 100/54/132 104/57/137
f 100/54/132 101/56/136 96/53/133
f 102/58/138 100/54/132 99/55/135
f 103/59/137 100/54/132 102/58/138
f 100/54/132 103/59/137 104/57/137
f 103/59/139 105/59/139 104/57/139
f 105/59/139 106/57/139 104/57/139
f 101/56/140 104/57/141 106/57/141
f 107/56/142 106/57/143 105/59/143
f 107/56/140 101/56/140 106/57/141
f 96/53/140 101/56/140 107/56/140
f 108/54/144 107/56/142 105/59/143
f 95/53/145 107/56/142 108/54/144
f 95/53/140 96/53/140 107/56/140
f 97/52/146 108/54/144 109/58/147
f 97/52/146 95/53/145 108/54/144
f 108/54/144 105/59/143 110/60/143
f 109/58/147 108/54/144 110/60/143
f 110/60/139 105/59/139 111/60/139
f 105/59/139 103/59/139 111/60/139
f 111/60/137 103/59/137 102/58/138
f 98/55/148 97/52/146 109/58/147
f 124/61/149 113/62/149 112/63/150
f 113/62/149 114/64/149 112/63/150
f 114/64/149 115/65/151 112/63/150
f 115/65/151 116/66/152 112/63/150
f 116/66/152 117/67/153 112/63/150
f 117/67/153 118/68/149 112/63/150
f 118/68/149 119/69/149 112/63/150
f 119/69/149 120/70/149 112/63/150
f 120/70/149 121/71/151 112/63/150
f 121/71/151 122/72/152 112/63/150
f 122/72/152 123/73/153 112/63/150
f 123/73/153 124/61/149 112/63/150
f 124/61/154 126/61/155 113/62/156
f 123/73/157 125/73/158 124/61/154
f 125/73/158 126/61/155 124/61/154
f 126/61/155 127/62/159 113/62/156
f 127/62/160 126/61/160 128/63/161
f 126/61/160 125/73/162 128/63/161
f 130/68/160 129/67/162 128/63/161
f 129/67/162 137/66/163 128/63/161
f 131/69/160 130/68/160 128/63/161
f 132/70/160 131/69/160 128/63/161
f 133/71/164 132/70/160 128/63/161
f 134/64/160 127/62/160 128/63/161
f 135/72/163 133/71/164 128/63/161
f 136/65/164 134/64/160 128/63/161
f 125/73/162 135/72/163 128/63/161
f 137/66/163 136/65/164 128/63/161
f 116/66/165 137/66/166 117/67/167
f 136/65/168 137/66/166 116/66/165
f 137/66/166 129/67/169 117/67/167
f 115/65/170 136/65/168 116/66/165
f 134/64/171 136/65/168 115/65/170
f 122/72/172 135/72/173 123/73/157
f 133/71/174 135/72/173 122/72/172
f 135/72/173 125/73/158 123/73/157
f 114/64/175 134/64/171 115/65/170
f 127/62/159 134/64/171 114/64/175
f 121/71/176 133/71/174 122/72/172
f 132/70/177 133/71/174 121/71/176
f 120/70/178 132/70/177 121/71/176
f 131/69/179 132/70/177 120/70/178
f 130/68/180 131/69/179 119/69/181
f 119/69/181 131/69/179 120/70/178
f 129/67/169 130/68/180 118/68/182
f 118/68/182 130/68/180 119/69/181
f 117/67/167 129/67/169 118/68/182
f 113/62/156 127/62/159 114/64/175
f 141/74/183 138/75/183 139/74/183
f 138/75/183 140/75/183 139/74/183
f 142/76/184 138/75/185 141/74/185
f 143/77/186 142/76/184 141/74/185
f 144/78/187 142/76/184 143/77/186
f 145/78/188 144/78/188 146/79/188
f 146/79/187 144/78/187 143/77/186
f 147/79/188 145/78/188 146/79/188
f 147/79/189 146/79/189 143/77/189
f 149/77/190 148/76/191 147/79/192
f 148/76/191 145/78/192 147/79/192
f 149/77/189 147/79/189 141/74/189
f 141/74/189 147/79/189 143/77/189
f 140/75/193 148/76/191 149/77/190
f 139/74/193 140/75/193 149/77/190
f 139/74/189 149/77/189 141/74/189
o blade_fragment
v -334.542053 -32.319374 -0.566752
v -341.547424 -33.581276 0.000003
v -334.542053 -32.319374 0.566756
v -338.726898 -27.024656 0.000002
v -330.045776 -25.402756 -0.668232
v -263.501740 -19.314333 -0.566753
v -264.192993 -13.761062 -0.668233
v -263.501740 -19.314333 0.566755
v -196.811768 -4.793106 -0.668234
v -196.334976 -10.375010 -0.566753
v -196.334976 -10.375010 0.566755
v -124.394875 1.267876 -0.668234
v -124.148445 -4.333370 -0.566754
v -124.148445 -4.333370 0.566754
v -124.394875 1.267876 0.668234
v -196.811768 -4.793106 0.668234
v -264.192993 -13.761062 0.668235
v -197.288712 0.788915 -0.000000
v -264.884369 -8.207438 0.000001
v -330.045776 -25.402756 0.668236
v -332.930847 -20.578873 0.000002
v -124.641411 6.869002 -0.000001
vn -0.0563 0.0205 -0.9982
vn -0.0873 0.0376 -0.9955
vn -0.0877 0.0532 -0.9947
vn 0.1787 -0.9839 -0.0000
vn 0.1773 -0.9842 -0.0000
vn 0.1642 -0.9864 -0.0000
vn -0.0354 0.0549 -0.9979
vn 0.0028 -0.0179 -0.9998
vn -0.0093 0.0634 -0.9979
vn -0.0049 0.0501 -0.9987
vn 0.1479 -0.9890 -0.0000
vn 0.1159 -0.9933 -0.0000
vn 0.0020 -0.0180 -0.9998
vn -0.0023 0.0275 -0.9996
vn 0.0995 -0.9950 -0.0000
vn 0.0834 -0.9965 -0.0000
vn 0.0015 -0.0180 -0.9998
vn -0.0061 0.0729 0.9973
vn -0.0059 0.0502 0.9987
vn 0.0015 -0.0180 0.9998
vn 0.0020 -0.0180 0.9998
vn -0.0186 0.1189 0.9927
vn -0.0057 0.0362 0.9993
vn -0.0118 0.1179 0.9930
vn -0.0196 0.1194 -0.9927
vn -0.0578 0.1030 -0.9930
vn -0.0578 0.1030 0.9930
vn -0.0354 0.0549 0.9979
vn -0.0136 0.1177 -0.9930
vn -0.0877 0.0533 0.9947
vn -0.0563 0.0205 0.9982
vn 0.0028 -0.0179 0.9998
vn -0.0099 0.1180 -0.9930
vn -0.0099 0.1180 0.9930
vn -0.0873 0.0376 0.9955
vt 0.027074 0.981216
vt 0.011719 0.988281
vt 0.017874 0.951195
vt 0.182787 0.908389
vt 0.036902 0.942111
vt 0.181247 0.876944
vt 0.328954 0.826930
vt 0.330024 0.858536
vt 0.487716 0.793430
vt 0.488281 0.825142
vt 0.179706 0.845496
vt 0.327884 0.795324
vt 0.030555 0.914770
vt 0.487151 0.761719
s 1
f 150/80/194 151/81/195 153/82/196
f 150/80/197 152/80/197 151/81/198
f 152/80/197 150/80/197 155/83/199
f 154/84/200 150/80/194 153/82/196
f 150/80/194 154/84/200 155/83/201
f 154/84/200 156/85/202 155/83/201
f 155/83/201 156/85/202 158/86/203
f 157/83/204 155/83/199 159/87/205
f 157/83/204 152/80/197 155/83/199
f 159/87/206 155/83/201 158/86/203
f 159/87/206 158/86/203 161/88/207
f 160/87/208 159/87/205 162/89/209
f 160/87/208 157/83/204 159/87/205
f 162/89/210 159/87/206 161/88/207
f 163/89/209 160/87/208 162/89/209
f 164/88/211 165/86/212 163/89/213
f 165/86/212 160/87/214 163/89/213
f 168/90/215 166/85/216 165/86/212
f 165/86/212 166/85/216 160/87/214
f 167/91/217 165/86/212 164/88/211
f 167/91/217 168/90/215 165/86/212
f 156/85/202 154/84/200 168/90/218
f 154/84/200 170/92/219 168/90/218
f 170/92/220 169/84/221 168/90/215
f 169/84/221 166/85/216 168/90/215
f 156/85/202 168/90/218 167/91/222
f 169/84/221 170/92/220 153/82/223
f 170/92/219 154/84/200 153/82/196
f 152/80/224 169/84/221 153/82/223
f 166/85/216 169/84/221 157/83/225
f 169/84/221 152/80/224 157/83/225
f 158/86/203 167/91/222 171/93/226
f 158/86/203 156/85/202 167/91/222
f 171/93/227 167/91/217 164/88/211
f 161/88/207 158/86/203 171/93/226
f 166/85/216 157/83/225 160/87/214
f 151/81/228 152/80/224 153/82/223
o sheath
v -35.532928 -4.634296 -3.483364
v -122.260742 -7.373224 3.857580
v -35.532928 -4.634295 3.483364
v -122.260742 -7.373225 -3.857579
v -122.758987 1.410852 -6.465956
v -35.166859 3.708340 -5.343424
v -35.166859 3.708341 5.343423
v -122.758987 1.410853 6.465956
v -35.570492 12.050495 3.483363
v -35.570492 12.050495 -3.483365
v -123.257347 10.194930 3.857579
v -194.325821 4.297106 3.857580
v -123.257347 10.194930 -3.857581
v -194.325821 4.297105 -3.857580
v -260.450104 -4.483840 -3.857580
v -259.068634 -13.173633 -6.465955
v -193.371124 -4.449447 -6.465956
v -192.416702 -13.195884 -3.857579
v -257.687378 -21.863312 -3.857578
v -337.943726 -37.049389 -3.735313
v -337.943726 -37.049389 3.735319
v -257.687378 -21.863312 3.857582
v -259.068634 -13.173631 6.465957
v -192.416702 -13.195884 3.857581
v -193.371124 -4.449446 6.465957
v -260.450104 -4.483839 3.857580
v -341.683563 -19.550928 -3.735314
v -341.683563 -19.550928 3.735317
v -340.217102 -28.386606 5.729938
v -340.217102 -28.386606 -5.729934
v -35.467033 -4.153358 -2.735048
v -35.457279 10.412830 -2.735049
v -35.467033 -4.153358 2.735048
v -35.457279 10.412830 2.735047
v -35.461735 3.758373 -4.221008
v -35.461735 3.758373 4.221007
v -337.486664 -35.412895 -2.735045
v -340.634460 -20.888948 -2.735046
v -337.486664 -35.412895 2.735051
v -340.634460 -20.888948 2.735050
v -339.060486 -28.150925 -4.221006
v -339.060486 -28.150925 4.221010
v -257.904907 -20.520561 -2.735047
v -260.231232 -5.844098 -2.735048
v -257.904907 -20.520561 2.735049
v -260.231232 -5.844098 2.735049
v -259.067963 -13.182447 -4.221007
v -259.067963 -13.182447 4.221009
v -192.563873 -11.841107 -2.735047
v -194.177261 2.929916 -2.735048
v -192.563873 -11.841107 2.735049
v -194.177261 2.929917 2.735048
v -193.370483 -4.455652 -4.221007
v -193.370483 -4.455651 4.221008
v -122.334953 -6.009948 -2.735048
v -123.182228 8.824807 -2.735049
v -122.334953 -6.009948 2.735049
v -123.182228 8.824807 2.735047
v -122.758537 1.407430 -4.221008
v -122.758537 1.407431 4.221008
v -337.486664 -35.412895 -2.735045
v -339.060486 -28.150925 -4.221006
v -337.486664 -35.412895 2.735051
v -339.060486 -28.150925 4.221010
v -340.634460 -20.888948 2.735050
v -340.634460 -20.888948 -2.735046
v -103.135185 -6.017891 -3.134203
v -103.135185 -6.017891 3.134320
v -103.225624 1.896344 -5.019436
v -99.029907 2.009949 -5.019436
v -99.057159 -5.907549 -3.134203
v -99.057159 -5.907549 3.134320
v -103.225624 1.896344 5.019436
v -99.029907 2.009950 5.019436
v -99.002678 9.927448 -3.134320
v -99.002678 9.927448 3.134203
v -103.315956 9.810697 3.134203
v -103.315956 9.810697 -3.134320
vn 0.0657 -0.9978 -0.0000
vn 0.0316 -0.9995 -0.0000
vn 0.0486 -0.9988 -0.0000
vn 0.9999 -0.0130 -0.0000
vn 0.9990 -0.0438 -0.0000
vn 0.0156 -0.2512 -0.9678
vn 0.0183 -0.2837 -0.9588
vn 0.0089 -0.0420 -0.9991
vn 0.0128 -0.0000 -0.9999
vn 0.9998 0.0175 -0.0000
vn 0.0128 -0.0000 0.9999
vn 0.0024 0.2514 0.9679
vn 0.0019 0.0419 0.9991
vn 0.0156 -0.2512 0.9678
vn 0.9988 0.0483 -0.0000
vn -0.0212 0.9998 -0.0000
vn -0.0520 0.9986 -0.0000
vn -0.0128 0.2840 0.9587
vn -0.0282 0.2828 0.9588
vn -0.0990 0.9951 -0.0000
vn -0.1154 0.9933 -0.0000
vn -0.1485 0.9889 -0.0000
vn -0.0084 0.0411 -0.9991
vn -0.0453 0.2806 -0.9588
vn -0.0328 0.2823 -0.9588
vn 0.0025 0.0002 -1.0000
vn -0.0163 0.2838 -0.9588
vn 0.0281 -0.2829 -0.9587
vn 0.0422 -0.2811 -0.9588
vn 0.1859 -0.9826 -0.0000
vn 0.1680 -0.9858 -0.0000
vn 0.0416 -0.2481 -0.9678
vn 0.1497 -0.9887 -0.0000
vn 0.1154 -0.9933 -0.0000
vn 0.0028 -0.0424 0.9991
vn 0.0444 -0.2807 0.9588
vn 0.0327 -0.2824 0.9588
vn 0.0416 -0.2481 0.9678
vn 0.0990 -0.9951 -0.0000
vn -0.0024 -0.0003 1.0000
vn 0.0200 -0.2835 0.9587
vn -0.0427 0.2810 0.9588
vn -0.1656 0.9862 -0.0000
vn -0.1824 0.9832 -0.0000
vn -0.0510 0.2459 0.9680
vn -0.9810 -0.1941 -0.0000
vn -0.9865 -0.1637 -0.0000
vn -0.0087 -0.0018 1.0000
vn -0.9746 -0.2239 -0.0000
vn -0.9672 -0.2538 -0.0000
vn -0.0087 -0.0018 -1.0000
vn -0.0510 0.2459 -0.9680
vn 0.0024 0.2514 -0.9679
vn 0.0361 -0.1928 -0.9806
vn -0.0124 0.0656 -0.9978
vn 0.0017 0.0003 -1.0000
vn 0.0293 -0.1939 -0.9806
vn 0.0123 -0.0651 0.9978
vn 0.0361 -0.1928 0.9806
vn 0.0327 -0.1934 0.9806
vn -0.0017 -0.0003 1.0000
vn 0.1839 -0.9829 -0.0000
vn 0.1666 -0.9860 -0.0000
vn 0.1491 -0.9888 -0.0000
vn -0.0361 0.1928 -0.9806
vn -0.0327 0.1934 -0.9806
vn -0.1839 0.9829 -0.0000
vn -0.1666 0.9860 -0.0000
vn -0.1491 0.9888 -0.0000
vn -0.0361 0.1928 0.9806
vn -0.0293 0.1939 0.9806
vn 0.0017 0.0002 -1.0000
vn 0.0195 -0.1952 -0.9806
vn 0.0226 -0.1948 0.9806
vn -0.0016 -0.0002 1.0000
vn 0.1155 -0.9933 -0.0000
vn -0.0227 0.1948 -0.9806
vn -0.0195 0.1952 0.9806
vn 0.0020 0.0038 -1.0000
vn 0.0085 -0.1921 -0.9813
vn 0.0122 -0.1957 0.9806
vn -0.0024 0.0333 0.9994
vn 0.0624 -0.9981 -0.0000
vn 0.0417 -0.9991 -0.0000
vn -0.0119 0.1958 -0.9806
vn -0.0504 0.9987 -0.0000
vn -0.0099 0.1959 0.9806
vn 0.0046 -0.1904 0.9817
vn -0.0005 0.0172 0.9999
vn 0.0214 -0.9998 -0.0000
vn -0.0047 0.2071 0.9783
vn -0.0181 0.9998 -0.0000
vn -0.0047 0.2071 -0.9783
vn 0.0011 -0.0551 -0.9985
vn 0.0039 -0.1846 -0.9828
vn 1.0000 -0.0007 -0.0000
vn -0.9773 -0.2118 -0.0000
vn 0.0270 -0.9996 -0.0000
vn -0.9999 -0.0114 -0.0000
vn 0.0063 -0.2317 -0.9728
vn -0.0009 0.0789 -0.9969
vn 0.0020 -0.0788 -0.9969
vn -0.0020 0.0794 0.9968
vn 0.0009 -0.0794 0.9968
vn 0.0063 -0.2316 0.9728
vn 1.0000 -0.0034 -0.0000
vn -0.0063 0.2316 0.9728
vn -0.0271 0.9996 -0.0000
vn -0.0063 0.2316 -0.9728
vt 0.352875 0.633003
vt 0.487720 0.624855
vt 0.488281 0.599537
vt 0.352092 0.606343
vt 0.487645 0.574219
vt 0.351308 0.579684
vt 0.240814 0.597448
vt 0.138009 0.623971
vt 0.140166 0.650346
vt 0.242306 0.623994
vt 0.243799 0.650540
vt 0.142322 0.676721
vt 0.017551 0.722656
vt 0.011719 0.669544
vt 0.014008 0.696362
vt 0.016650 0.722656
vt 0.014184 0.699027
vt 0.139093 0.650501
vt 0.140917 0.674377
vt 0.011719 0.675397
vt 0.137269 0.626624
vt 0.241684 0.622251
vt 0.242951 0.646281
vt 0.240416 0.598221
vt 0.351952 0.603328
vt 0.352622 0.627461
vt 0.351283 0.579196
vt 0.488281 0.621609
vt 0.488281 0.595868
vt 0.488281 0.574219
vt 0.628906 0.511340
vt 0.628906 0.394910
vt 0.687500 0.542969
vt 0.687500 0.363281
vt 0.746094 0.394910
vt 0.746094 0.511340
vt 0.629684 0.397023
vt 0.628906 0.397023
vt 0.628906 0.509225
vt 0.687088 0.542969
vt 0.687889 0.542969
vt 0.629684 0.509225
vt 0.687889 0.363281
vt 0.687088 0.363281
vt 0.745271 0.397025
vt 0.746094 0.509227
vt 0.746094 0.397025
vt 0.745271 0.509227
s 1
f 175/94/229 172/95/230 173/94/231
f 172/95/230 174/95/230 173/94/231
f 178/96/232 174/95/233 172/95/233
f 172/95/234 175/94/235 176/97/236
f 177/96/237 172/95/234 176/97/236
f 177/96/238 178/96/232 172/95/233
f 178/96/239 180/98/240 179/97/241
f 174/95/242 178/96/239 179/97/241
f 180/98/243 178/96/232 177/96/238
f 181/98/243 180/98/243 177/96/238
f 180/98/244 181/98/244 182/99/245
f 180/98/240 182/99/246 179/97/241
f 182/99/246 183/100/247 179/97/241
f 185/100/248 183/100/249 182/99/245
f 181/98/244 184/99/245 182/99/245
f 184/99/245 185/100/248 182/99/245
f 185/100/248 186/101/250 183/100/249
f 187/102/251 186/101/252 185/100/253
f 188/103/254 187/102/251 185/100/253
f 188/103/254 185/100/253 184/99/255
f 176/97/236 188/103/254 184/99/255
f 189/104/256 188/103/254 176/97/236
f 190/105/257 187/102/251 188/103/254
f 189/104/256 190/105/257 188/103/254
f 192/106/258 191/106/258 190/105/259
f 190/105/257 191/106/260 187/102/251
f 193/105/261 192/106/258 190/105/259
f 193/105/261 190/105/259 189/104/262
f 194/102/263 193/105/264 195/104/265
f 192/106/266 193/105/264 194/102/263
f 195/104/267 193/105/261 189/104/262
f 196/103/268 194/102/263 195/104/265
f 195/104/267 189/104/262 175/94/229
f 196/103/268 195/104/265 173/94/269
f 173/94/231 195/104/267 175/94/229
f 183/100/247 196/103/268 179/97/241
f 183/100/247 197/101/270 196/103/268
f 197/101/270 194/102/263 196/103/268
f 179/97/241 196/103/268 173/94/269
f 186/101/250 197/101/271 183/100/249
f 186/101/250 198/107/272 197/101/271
f 198/107/272 199/107/272 197/101/271
f 197/101/270 199/107/273 194/102/263
f 200/108/274 199/107/275 198/107/275
f 199/107/273 200/108/276 194/102/263
f 201/108/277 200/108/274 198/107/275
f 192/106/278 200/108/274 201/108/277
f 200/108/276 192/106/266 194/102/263
f 191/106/278 192/106/278 201/108/277
f 191/106/260 201/108/279 187/102/251
f 201/108/279 198/107/280 187/102/251
f 198/107/280 186/101/252 187/102/251
f 175/94/235 189/104/256 176/97/236
f 184/99/255 181/98/281 176/97/236
f 181/98/281 177/96/237 176/97/236
f 173/94/269 174/95/242 179/97/241
f 208/109/282 212/110/283 218/111/284
f 214/112/285 208/109/282 218/111/284
f 213/110/286 210/109/287 216/112/288
f 219/111/289 213/110/286 216/112/288
f 210/109/290 208/109/290 214/112/291
f 216/112/292 210/109/290 214/112/291
f 212/110/283 209/113/293 215/114/294
f 218/111/284 212/110/283 215/114/294
f 209/113/295 211/113/295 217/114/296
f 215/114/297 209/113/295 217/114/296
f 211/113/298 213/110/286 219/111/289
f 217/114/299 211/113/298 219/111/289
f 214/112/285 218/111/284 224/115/300
f 220/116/301 214/112/285 224/115/300
f 219/111/289 216/112/288 222/116/302
f 225/115/303 219/111/289 222/116/302
f 216/112/292 214/112/291 220/116/304
f 222/116/267 216/112/292 220/116/304
f 218/111/284 215/114/294 221/117/305
f 224/115/300 218/111/284 221/117/305
f 215/114/297 217/114/296 223/117/249
f 221/117/248 215/114/297 223/117/249
f 217/114/299 219/111/289 225/115/303
f 223/117/306 217/114/299 225/115/303
f 220/116/301 224/115/300 230/118/307
f 226/119/308 220/116/301 230/118/307
f 225/115/303 222/116/302 228/119/309
f 231/118/310 225/115/303 228/119/309
f 222/116/267 220/116/304 226/119/311
f 228/119/312 222/116/267 226/119/311
f 224/115/300 221/117/305 227/120/313
f 230/118/307 224/115/300 227/120/313
f 221/117/248 223/117/249 229/120/314
f 227/120/314 221/117/248 229/120/314
f 223/117/306 225/115/303 231/118/310
f 229/120/315 223/117/306 231/118/310
f 204/121/316 207/122/317 231/118/310
f 228/119/309 204/121/316 231/118/310
f 202/121/318 204/121/318 228/119/312
f 226/119/311 202/121/318 228/119/312
f 205/123/319 229/120/315 231/118/310
f 207/122/317 205/123/319 231/118/310
f 203/123/320 227/120/314 229/120/314
f 205/123/320 203/123/320 229/120/314
f 203/123/321 206/122/322 230/118/307
f 227/120/313 203/123/321 230/118/307
f 206/122/322 202/121/323 226/119/308
f 230/118/307 206/122/322 226/119/308
f 205/123/324 207/122/324 206/122/324
f 203/123/324 205/123/324 206/122/324
f 207/122/324 204/121/324 202/121/324
f 206/122/324 207/122/324 202/121/324
f 232/124/325 234/125/325 233/126/325
f 234/125/325 235/127/325 233/126/325
f 235/127/325 236/128/325 237/129/325
f 233/126/325 235/127/325 237/129/325
f 243/130/326 239/131/326 238/132/326
f 239/131/327 240/133/327 238/132/327
f 238/132/328 240/133/329 241/134/330
f 242/135/328 238/132/328 241/134/330
f 242/135/326 243/130/326 238/132/326
f 245/136/331 244/137/332 243/130/333
f 244/137/332 239/131/333 243/130/333
f 242/135/334 241/134/334 243/130/334
f 245/136/334 243/130/334 241/134/334
f 248/138/335 244/137/332 245/136/331
f 246/139/334 245/136/334 241/134/334
f 246/139/334 247/140/334 245/136/334
f 247/140/335 248/138/335 245/136/331
f 249/141/336 248/138/336 247/140/336
f 249/141/327 240/133/327 248/138/327
f 248/138/327 240/133/327 244/137/327
f 240/133/329 249/141/337 246/139/337
f 246/139/336 249/141/336 247/140/336
f 241/134/330 240/133/329 246/139/337
f 240/133/327 239/131/327 244/137/327
o item_blade
v 26.590300 22.520599 11.862098
v 26.590300 22.520599 5.647598
v 33.175800 18.257101 13.730999
v 34.370899 19.927902 13.730998
v 27.751900 24.144600 11.862098
v 27.751900 24.144600 5.647598
v 34.370899 19.927900 3.778699
v 33.175800 18.257099 3.778699
v 39.761299 13.993600 5.647699
v 39.761299 13.993601 11.862199
v 40.990002 15.711200 5.647699
v 40.990002 15.711201 11.862199
v 0.000000 70.710701 -0.000005
v 70.710701 0.000000 0.000000
v 0.000000 55.656200 3.999996
v -55.656101 0.000000 4.000000
v -70.710701 0.000000 0.000000
v 0.000000 -55.656101 4.000004
v 0.000000 -70.710602 0.000005
v 55.656200 0.000000 4.000000
v 0.000000 70.710701 -0.000005
v 0.000000 55.656200 -4.000004
v 70.710701 0.000000 0.000000
v -55.656101 -0.000000 -4.000000
v -70.710701 0.000000 0.000000
v 0.000000 -55.656101 -3.999996
v 0.000000 -70.710602 0.000005
v 55.656200 -0.000000 -4.000000
v 0.000000 70.710701 -0.000005
v 70.710701 0.000000 0.000000
v 0.000000 55.656200 3.999996
v -55.656101 0.000000 4.000000
v -70.710701 0.000000 0.000000
v 0.000000 -55.656101 4.000004
v 0.000000 -70.710602 0.000005
v 55.656200 0.000000 4.000000
v 0.000000 70.710701 -0.000005
v 0.000000 55.656200 -4.000004
v 70.710701 0.000000 0.000000
v -55.656101 -0.000000 -4.000000
v -70.710701 0.000000 0.000000
v 0.000000 -55.656101 -3.999996
v 0.000000 -70.710602 0.000005
v 55.656200 -0.000000 -4.000000
v 0.000000 70.710701 -0.000005
v 70.710701 0.000000 0.000000
v 0.000000 55.656200 3.999996
v -55.656101 0.000000 4.000000
v -70.710701 0.000000 0.000000
v 0.000000 -55.656101 4.000004
v 0.000000 -70.710602 0.000005
v 55.656200 0.000000 4.000000
v 0.000000 70.710701 -0.000005
v 0.000000 55.656200 -4.000004
v 70.710701 0.000000 0.000000
v -55.656101 -0.000000 -4.000000
v -70.710701 0.000000 0.000000
v 0.000000 -55.656101 -3.999996
v 0.000000 -70.710602 0.000005
v 55.656200 -0.000000 -4.000000
v -49.047565 43.906445 12.984655
v -72.792465 75.179062 18.201328
v -72.792465 75.179062 12.984653
v -49.047482 43.906441 18.201330
v -48.256847 42.799129 18.201330
v -48.256760 42.799126 12.984655
v -55.351295 39.694317 11.486515
v -78.139862 71.605972 11.486512
v -54.560574 38.587002 11.486515
v -60.698608 36.121227 12.984655
v -83.487183 68.032883 12.984653
v -60.698608 36.121227 18.201332
v -83.487183 68.032883 18.201328
v -78.139778 71.605965 19.699469
v -55.351292 39.694229 19.699471
v -54.560574 38.587002 19.699471
v -59.907890 35.013908 18.201332
v -59.907890 35.013908 12.984655
v -46.573372 41.510929 14.797327
v -21.976330 -2.456677 14.654786
v -53.077000 37.054630 14.654783
v -15.567611 2.117404 14.797330
v -46.573372 41.510929 16.388674
v -15.567611 2.117404 16.388678
v -53.077000 37.054630 16.531219
v -21.976330 -2.456677 16.531221
v -59.580509 32.598572 15.593001
v -28.384825 -7.030636 15.593005
v 9.157693 -32.500862 14.654789
v 2.847971 -37.170773 15.593007
v 35.778366 -62.558830 15.593009
v 41.983711 -57.808475 14.654791
v 9.157696 -32.500980 16.531223
v 15.467295 -27.831295 16.388680
v 41.983711 -57.808475 16.531225
v 48.188705 -53.058338 16.388681
v 77.399132 -80.253258 16.531227
v 72.769806 -85.479446 15.593011
v 86.911247 -76.916367 16.388683
v 82.168945 -83.142754 15.593011
v 86.911140 -76.916359 14.797336
v 77.399132 -80.253258 14.654792
v 90.705818 -79.285316 15.593010
v 48.188705 -53.058338 14.797334
v 15.467295 -27.831295 14.797332
v -54.627403 38.709583 16.110603
v -46.713299 26.803337 31.028873
v -36.580017 34.208462 30.812889
v -32.257355 44.303913 24.804623
v -36.254745 51.360943 16.460836
v -41.159950 57.696991 8.023234
v -51.993488 57.396824 1.758672
v -62.541721 50.615822 1.192434
v -72.680473 43.209946 1.405809
v -76.994507 33.115051 7.418729
v -73.000168 26.058218 15.760420
v -68.094215 19.725233 24.195791
v -57.264263 20.017660 30.465174
v -67.477905 18.835438 23.162462
v -56.644279 19.135479 29.427351
v -46.096172 25.916351 29.993578
v -54.010380 37.822590 15.075360
v -51.373508 56.514557 0.720760
v -61.924591 49.728836 0.157141
v -72.057907 42.323711 0.373109
v -76.380409 32.228367 6.381419
v -35.957344 33.322247 29.780125
v -72.383041 25.171232 14.725127
v -31.643345 43.417210 23.767284
v -35.637619 50.473953 15.425543
v -40.543732 56.807079 6.989965
v -48.378101 43.891602 14.049597
v -45.475899 39.865200 17.136396
v -48.378201 43.891602 17.136396
v -45.475899 39.865200 14.049597
v -55.037899 39.283600 13.773597
v -52.135700 35.257099 13.773597
v -60.990002 35.165298 14.577897
v -60.990002 35.165298 16.608099
v -58.087700 31.138903 14.577898
v -58.087799 31.138903 16.608099
v -55.037899 39.283501 17.412395
v -52.135700 35.257099 17.412397
v 63.087399 50.584511 10.806144
v 34.417477 10.849914 4.515466
v 63.087399 50.584511 4.515463
v 34.417477 10.849915 10.806147
v 70.349091 45.987137 12.514939
v 70.349091 45.987137 2.806668
v 41.535442 6.055196 2.806671
v 77.610779 41.389881 4.515464
v 77.610779 41.389881 10.806145
v 48.653175 1.260594 4.515467
v 21.072920 -29.057671 4.515470
v 48.653175 1.260595 10.806148
v 21.072920 -29.057671 10.806149
v -7.802149 -55.229420 10.806151
v -14.615511 -50.129650 12.514947
v 14.103920 -24.099360 12.514945
v -21.428513 -45.030270 10.806151
v 41.535442 6.055197 12.514943
v 7.135043 -19.141165 10.806149
v -21.428513 -45.030270 4.515471
v 7.135043 -19.141165 4.515469
v 14.103920 -24.099360 2.806674
v -14.615511 -50.129650 2.806675
v -7.802149 -55.229420 4.515471
v -47.215023 -84.384377 4.515473
v -53.827461 -79.135414 2.806678
v -60.439899 -73.886559 4.515473
v -60.439899 -73.886559 10.806153
v -53.827461 -79.135414 12.514949
v -47.215023 -84.384377 10.806154
v -59.530998 -58.415699 11.466405
v -53.878399 -62.941700 12.939505
v -59.530998 -58.415699 6.043404
v -53.878399 -62.941700 4.570305
v -48.225800 -67.467796 11.466405
v -48.225800 -67.467796 6.043405
vn -0.8134 0.5818 -0.0000
vn -0.5435 -0.8394 -0.0000
vn -0.1887 0.1350 0.9727
vn 0.0644 -0.0461 0.9969
vn -0.0644 0.0461 0.9969
vn 0.0644 -0.0461 -0.9969
vn -0.0644 0.0461 -0.9969
vn -0.1887 0.1350 -0.9727
vn 0.5373 0.8434 -0.0000
vn 0.1887 -0.1350 -0.9727
vn 0.8133 -0.5818 -0.0000
vn 0.1887 -0.1350 0.9727
vn 0.2559 0.0853 0.9629
vn -0.0853 0.2559 0.9629
vn 0.0639 0.1919 0.9793
vn -0.1532 0.0510 0.9869
vn -0.2558 -0.0853 0.9629
vn -0.0639 -0.1919 0.9793
vn 0.0853 -0.2559 0.9629
vn 0.1531 -0.0510 0.9869
vn 0.0639 0.1919 -0.9793
vn -0.1531 0.0510 -0.9869
vn -0.0853 0.2559 -0.9629
vn 0.2559 0.0853 -0.9629
vn -0.2558 -0.0853 -0.9629
vn -0.0639 -0.1919 -0.9793
vn 0.0853 -0.2559 -0.9629
vn 0.1532 -0.0510 -0.9869
vn 0.8052 0.5930 -0.0000
vn 0.7964 0.6047 -0.0000
vn 0.1563 0.1150 -0.9810
vn 0.0144 0.0119 -0.9998
vn 0.1698 0.1253 -0.9775
vn 0.8138 0.5811 -0.0000
vn 0.8138 0.5812 -0.0000
vn 0.1578 0.1127 -0.9810
vn -0.0037 -0.0026 -1.0000
vn -0.1847 -0.1319 -0.9739
vn -0.0700 -0.0472 -0.9964
vn -0.8138 -0.5811 -0.0000
vn -0.5556 0.8315 -0.0000
vn -0.0681 -0.0457 0.9966
vn -0.1847 -0.1319 0.9739
vn -0.0098 -0.0058 0.9999
vn 0.1698 0.1253 0.9775
vn 0.0493 0.0324 0.9983
vn 0.1568 0.1143 0.9810
vn 0.1578 0.1127 0.9810
vn 0.0135 0.0123 -0.9998
vn -0.0205 -0.0185 -0.9996
vn 0.0142 0.0112 -0.9998
vn -0.0578 -0.0453 -0.9973
vn 0.7411 0.6714 -0.0000
vn 0.7858 0.6185 -0.0000
vn 0.7418 0.6706 -0.0000
vn 0.7417 0.6707 -0.0000
vn 0.0135 0.0123 0.9998
vn 0.0142 0.0112 0.9998
vn -0.0217 -0.0174 0.9996
vn -0.0545 -0.0493 0.9973
vn -0.0931 -0.0732 0.9930
vn -0.0887 -0.0794 0.9929
vn -0.0931 -0.0733 0.9930
vn -0.0884 -0.0798 -0.9929
vn -0.0931 -0.0733 -0.9930
vn -0.0345 -0.0381 -0.9987
vn -0.0780 -0.0940 -0.9925
vn -0.0807 -0.0904 0.9926
vn -0.0394 -0.0543 -0.9977
vn -0.0714 -0.1066 -0.9917
vn -0.0724 -0.1044 0.9919
vn -0.0329 -0.0402 0.9987
vn 0.0121 0.0142 0.9998
vn -0.0220 -0.0317 0.9993
vn 0.0025 -0.1002 0.9950
vn 0.0105 0.0156 0.9998
vn -0.0071 -0.1709 0.9853
vn 0.0740 -0.2001 0.9770
vn 0.0589 -0.1212 0.9909
vn 0.0025 -0.1002 -0.9950
vn 0.0589 -0.1212 -0.9909
vn 0.0740 -0.2001 -0.9770
vn 0.0861 -0.1905 -0.9779
vn -0.0071 -0.1709 -0.9853
vn 0.0861 -0.1905 0.9779
vn 0.5269 0.8499 -0.0000
vn 0.5264 0.8502 -0.0000
vn 0.5296 0.8483 -0.0000
vn 0.0107 0.0154 -0.9998
vn 0.5829 0.8126 -0.0000
vn 0.5536 0.8328 -0.0000
vn 0.6391 0.7691 -0.0000
vn 0.0121 0.0142 -0.9998
vn 0.6676 0.7445 -0.0000
vn -0.4164 0.5900 0.6918
vn -0.4170 0.5895 0.6918
vn -0.4165 0.5880 0.6934
vn -0.4185 0.5886 0.6917
vn -0.4182 0.5906 0.6901
vn -0.6573 -0.7189 0.2264
vn -0.5119 -0.7778 0.3646
vn -0.0316 -0.7708 0.6364
vn 0.1057 -0.7255 0.6801
vn 0.3344 -0.6082 0.7199
vn 0.4303 -0.5423 0.7216
vn 0.4164 -0.5900 -0.6918
vn 0.4170 -0.5895 -0.6918
vn 0.4182 -0.5906 -0.6901
vn 0.4165 -0.5880 -0.6934
vn 0.4185 -0.5886 -0.6917
vn 0.6581 0.7184 -0.2256
vn 0.5103 0.7782 -0.3660
vn 0.0329 0.7711 -0.6359
vn 0.7795 0.6226 -0.0697
vn -0.1061 0.7253 -0.6802
vn 0.8642 0.4951 0.0900
vn 0.9070 0.3432 0.2441
vn 0.9068 0.1838 0.3795
vn 0.7145 -0.2567 0.6509
vn -0.8641 -0.4952 -0.0899
vn -0.7794 -0.6227 0.0698
vn -0.9068 -0.3442 -0.2433
vn 0.6217 -0.3688 0.6910
vn -0.9065 -0.1821 -0.3808
vn -0.7153 0.2555 -0.6504
vn -0.4306 0.5421 -0.7216
vn -0.6214 0.3692 -0.6911
vn -0.3341 0.6084 -0.7199
vn 0.8112 0.5847 -0.0000
vn -0.0115 -0.0083 -0.9999
vn 0.0276 0.0199 -0.9994
vn -0.0506 -0.0365 -0.9980
vn -0.0896 -0.0646 -0.9939
vn -0.8112 -0.5847 -0.0000
vn 0.5690 -0.8223 -0.0000
vn 0.5690 -0.8223 0.0001
vn -0.0506 -0.0365 0.9981
vn -0.0896 -0.0646 0.9939
vn -0.0115 -0.0083 0.9999
vn 0.0276 0.0199 0.9994
vn -0.7646 0.6445 -0.0000
vn -0.8109 0.5851 -0.0000
vn -0.7883 0.6153 -0.0000
vn 0.5349 0.8449 -0.0000
vn -0.0536 0.0379 0.9978
vn -0.1584 0.1143 0.9807
vn -0.1543 0.1205 0.9807
vn 0.0008 -0.0006 -1.0000
vn 0.1584 -0.1143 -0.9807
vn 0.0213 -0.0194 -0.9996
vn -0.1584 0.1143 -0.9807
vn 0.8109 -0.5852 -0.0000
vn 0.7766 -0.6300 -0.0000
vn 0.1524 -0.1233 -0.9806
vn 0.1421 -0.1381 -0.9802
vn 0.7178 -0.6963 -0.0000
vn 0.6950 -0.7190 -0.0000
vn 0.6467 -0.7627 -0.0000
vn 0.0021 0.0028 1.0000
vn 0.1262 -0.1593 0.9791
vn 0.1384 -0.1432 0.9800
vn 0.0019 0.0027 1.0000
vn 0.1501 -0.1265 0.9805
vn -0.1422 0.1380 0.9802
vn -0.1304 0.1541 0.9794
vn 0.0021 0.0031 1.0000
vn -0.6467 0.7628 -0.0000
vn -0.6210 0.7838 -0.0000
vn -0.6950 0.7190 -0.0000
vn -0.7177 0.6963 -0.0000
vn -0.0020 -0.0027 -1.0000
vn -0.1383 0.1433 -0.9800
vn -0.1501 0.1266 -0.9805
vn -0.0022 -0.0028 -1.0000
vn -0.1263 0.1594 -0.9791
vn -0.0424 0.0568 -0.9975
vn 0.1304 -0.1540 -0.9794
vn 0.1220 -0.1649 -0.9787
vn -0.1220 0.1649 -0.9787
vn -0.5947 0.8040 -0.0000
vn -0.1220 0.1649 0.9787
vn 0.0416 -0.0548 0.9976
vn 0.1220 -0.1649 0.9787
vn 0.5947 -0.8039 -0.0000
vn 0.6210 -0.7838 -0.0000
vn 0.1584 -0.1143 0.9807
vn -0.6250 -0.7806 -0.0000
vt 0.638360 0.363281
vt 0.628906 0.392028
vt 0.682500 0.467499
vt 0.692226 0.437923
vt 0.736094 0.542969
vt 0.746094 0.512565
vt 0.976562 0.023438
vt 0.095226 0.374655
vt 0.095226 0.374655
vt 0.363281 0.482039
vt 0.055192 0.405964
vt 0.085714 0.371094
vt 0.085714 0.371094
vt 0.329321 0.508598
vt 0.295360 0.535156
vt 0.045679 0.402403
vt 0.021231 0.432522
vt 0.329321 0.508597
vt 0.055191 0.405964
vt 0.011719 0.428961
vt 0.151345 0.832089
vt 0.130777 0.840408
vt 0.053453 0.761719
vt 0.032586 0.769827
vt 0.011719 0.777935
vt 0.110210 0.848726
vt 0.229324 0.893967
vt 0.209069 0.902456
vt 0.333393 0.938984
vt 0.313470 0.947617
vt 0.229324 0.893967
vt 0.249578 0.885478
vt 0.445800 0.978816
vt 0.353316 0.930352
vt 0.430892 0.988281
vt 0.460942 0.983941
vt 0.476237 0.972677
vt 0.476236 0.972677
vt 0.488281 0.976880
vt 0.454238 0.375317
vt 0.498319 0.363281
vt 0.498320 0.453125
vt 0.542401 0.375317
vt 0.574672 0.408202
vt 0.586483 0.453125
vt 0.574672 0.498048
vt 0.542401 0.530933
vt 0.498319 0.542969
vt 0.454238 0.530933
vt 0.421968 0.498048
vt 0.410156 0.453125
vt 0.421968 0.408204
vt 0.425328 0.408204
vt 0.457599 0.375317
vt 0.501680 0.363281
vt 0.501680 0.453125
vt 0.501680 0.542969
vt 0.545762 0.530933
vt 0.578032 0.498048
vt 0.457598 0.530933
vt 0.425328 0.498048
vt 0.545762 0.375317
vt 0.413517 0.453125
vt 0.578032 0.408202
vt 0.589844 0.453125
vt 0.746094 0.420014
vt 0.724172 0.363281
vt 0.724171 0.363281
vt 0.673866 0.428209
vt 0.695788 0.484943
vt 0.628906 0.486236
vt 0.650829 0.542969
vt 0.650828 0.542969
vt 0.673866 0.428210
vt 0.339170 0.617919
vt 0.438130 0.574219
vt 0.463206 0.579277
vt 0.488281 0.584336
vt 0.363750 0.623195
vt 0.388328 0.628470
vt 0.293124 0.661814
vt 0.193447 0.690595
vt 0.169919 0.684984
vt 0.269059 0.656358
vt 0.244994 0.650903
vt 0.146392 0.679374
vt 0.034553 0.716881
vt 0.057387 0.722656
vt 0.011719 0.711106
vt 0.628906 0.363281
vt 0.687500 0.453124
vt 0.746094 0.542969
s 1
f 255/142/338 251/143/338 250/143/338
f 251/143/339 252/144/339 250/143/339
f 250/143/340 252/144/341 253/145/342
f 254/142/340 250/143/340 253/145/342
f 254/142/338 255/142/338 250/143/338
f 256/145/343 257/144/344 255/142/345
f 256/145/346 255/142/346 253/145/346
f 254/142/346 253/145/346 255/142/346
f 257/144/344 251/143/345 255/142/345
f 252/144/339 251/143/339 257/144/339
f 258/146/347 257/144/344 256/145/343
f 258/146/339 252/144/339 257/144/339
f 259/146/348 258/146/348 260/147/348
f 259/146/339 252/144/339 258/146/339
f 260/147/347 258/146/347 256/145/343
f 261/147/346 260/147/346 256/145/346
f 261/147/348 259/146/348 260/147/348
f 252/144/341 259/146/349 261/147/349
f 253/145/342 252/144/341 261/147/349
f 261/147/346 256/145/346 253/145/346
f 263/148/350 262/148/351 264/148/352
f 264/148/352 262/148/351 265/148/353
f 262/148/351 266/148/354 265/148/353
f 265/148/353 266/148/354 267/148/355
f 266/148/354 268/148/356 267/148/355
f 268/148/356 263/148/350 269/148/357
f 267/148/355 268/148/356 269/148/357
f 269/148/357 263/148/350 264/148/352
f 264/148/352 265/148/353 269/148/357
f 265/148/353 267/148/355 269/148/357
f 271/148/358 273/148/359 270/148/360
f 271/148/358 270/148/360 272/148/361
f 273/148/359 274/148/362 270/148/360
f 273/148/359 275/148/363 274/148/362
f 275/148/363 276/148/364 274/148/362
f 277/148/365 272/148/361 276/148/364
f 275/148/363 277/148/365 276/148/364
f 271/148/358 277/148/365 273/148/359
f 277/148/365 271/148/358 272/148/361
f 277/148/365 275/148/363 273/148/359
f 279/148/350 278/148/351 280/148/352
f 280/148/352 278/148/351 281/148/353
f 278/148/351 282/148/354 281/148/353
f 281/148/353 282/148/354 283/148/355
f 282/148/354 284/148/356 283/148/355
f 284/148/356 279/148/350 285/148/357
f 283/148/355 284/148/356 285/148/357
f 280/148/352 281/148/353 285/148/357
f 285/148/357 279/148/350 280/148/352
f 281/148/353 283/148/355 285/148/357
f 287/148/358 289/148/359 286/148/360
f 287/148/358 286/148/360 288/148/361
f 289/148/359 290/148/362 286/148/360
f 289/148/359 291/148/363 290/148/362
f 291/148/363 292/148/364 290/148/362
f 293/148/365 288/148/361 292/148/364
f 291/148/363 293/148/365 292/148/364
f 293/148/365 287/148/358 288/148/361
f 287/148/358 293/148/365 289/148/359
f 293/148/365 291/148/363 289/148/359
f 295/148/350 294/148/351 296/148/352
f 296/148/352 294/148/351 297/148/353
f 294/148/351 298/148/354 297/148/353
f 297/148/353 298/148/354 299/148/355
f 298/148/354 300/148/356 299/148/355
f 300/148/356 295/148/350 301/148/357
f 299/148/355 300/148/356 301/148/357
f 301/148/357 295/148/350 296/148/352
f 296/148/352 297/148/353 301/148/357
f 297/148/353 299/148/355 301/148/357
f 303/148/358 305/148/359 302/148/360
f 303/148/358 302/148/360 304/148/361
f 305/148/359 306/148/362 302/148/360
f 305/148/359 307/148/363 306/148/362
f 307/148/363 308/148/364 306/148/362
f 309/148/365 304/148/361 308/148/364
f 307/148/363 309/148/365 308/148/364
f 303/148/358 309/148/365 305/148/359
f 309/148/365 303/148/358 304/148/361
f 309/148/365 307/148/363 305/148/359
f 313/149/366 310/150/366 311/151/367
f 310/150/366 312/151/367 311/151/367
f 310/150/368 316/152/369 312/151/370
f 310/150/366 313/149/366 314/153/371
f 315/154/372 310/150/366 314/153/371
f 316/152/369 310/150/368 315/154/373
f 317/155/374 316/152/369 320/156/375
f 316/152/369 317/155/374 312/151/370
f 318/157/376 316/152/369 315/154/373
f 319/158/375 316/152/369 318/157/376
f 316/152/369 319/158/375 320/156/375
f 319/158/377 321/158/377 320/156/377
f 321/158/377 322/156/377 320/156/377
f 317/155/378 320/156/378 322/156/378
f 323/159/379 322/156/380 321/158/380
f 323/159/378 317/155/378 322/156/378
f 312/151/378 317/155/378 323/159/378
f 324/160/381 323/159/379 321/158/380
f 311/151/382 323/159/379 324/160/381
f 311/151/378 312/151/378 323/159/378
f 324/160/381 321/158/380 326/161/380
f 325/157/383 324/160/381 326/161/380
f 313/149/384 324/160/381 325/157/383
f 313/149/384 311/151/382 324/160/381
f 326/161/377 321/158/377 327/161/377
f 321/158/377 319/158/377 327/161/377
f 327/161/375 319/158/375 318/157/376
f 314/153/385 313/149/384 325/157/383
f 331/162/386 329/163/387 328/164/388
f 329/163/387 330/165/389 328/164/388
f 331/162/390 328/164/391 332/164/391
f 333/162/392 331/162/393 332/164/391
f 333/162/394 332/164/395 334/165/396
f 335/163/397 333/162/394 334/165/396
f 335/163/397 334/165/396 336/166/398
f 337/167/399 335/163/397 336/166/400
f 337/167/401 336/166/402 330/165/389
f 329/163/387 337/167/401 330/165/389
f 329/163/387 338/168/403 337/167/401
f 338/168/403 339/169/404 337/167/401
f 337/167/399 339/169/405 335/163/397
f 341/170/406 340/171/407 339/169/404
f 339/169/405 340/171/408 342/172/409
f 338/168/403 341/170/406 339/169/404
f 339/169/405 342/172/409 335/163/397
f 342/172/409 343/173/410 333/162/394
f 342/172/409 344/170/411 343/173/410
f 340/171/408 344/170/411 342/172/409
f 335/163/397 342/172/409 333/162/394
f 346/174/412 344/170/411 340/171/408
f 344/170/411 345/175/413 343/173/410
f 344/170/411 346/174/412 345/175/413
f 347/176/414 346/174/412 340/171/408
f 346/174/412 347/176/414 349/177/415
f 346/174/412 348/178/416 345/175/413
f 348/178/416 346/174/412 349/177/415
f 351/174/417 350/179/418 349/177/419
f 350/179/418 352/180/420 349/177/419
f 347/176/421 351/174/417 349/177/419
f 352/180/422 348/178/416 349/177/415
f 350/179/423 348/178/424 352/180/425
f 350/179/418 351/174/417 353/175/426
f 351/174/417 347/176/421 340/171/407
f 351/174/417 341/170/406 353/175/426
f 341/170/406 351/174/417 340/171/407
f 353/175/426 341/170/406 338/168/403
f 345/175/427 353/175/428 354/173/429
f 345/175/427 348/178/424 353/175/428
f 354/173/430 353/175/426 338/168/403
f 348/178/424 350/179/423 353/175/428
f 343/173/431 345/175/427 354/173/429
f 354/173/430 338/168/403 329/163/387
f 343/173/431 354/173/429 331/162/393
f 331/162/386 354/173/430 329/163/387
f 333/162/392 343/173/431 331/162/393
f 367/181/432 356/182/432 355/183/433
f 356/182/432 357/184/432 355/183/433
f 357/184/432 358/185/434 355/183/433
f 358/185/434 359/186/435 355/183/433
f 359/186/435 360/187/436 355/183/433
f 360/187/436 361/188/432 355/183/433
f 361/188/432 362/189/432 355/183/433
f 362/189/432 363/190/432 355/183/433
f 363/190/432 364/191/434 355/183/433
f 364/191/434 365/192/435 355/183/433
f 365/192/435 366/193/436 355/183/433
f 366/193/436 367/181/432 355/183/433
f 366/193/437 368/194/438 367/181/439
f 368/194/438 369/195/440 367/181/439
f 367/181/439 369/195/440 356/182/441
f 369/195/440 370/196/442 356/182/441
f 370/196/443 369/195/443 371/197/444
f 369/195/443 368/194/445 371/197/444
f 373/198/443 372/199/443 371/197/444
f 372/199/443 380/200/445 371/197/444
f 374/201/443 373/198/443 371/197/444
f 375/202/446 374/201/443 371/197/444
f 376/203/443 370/196/443 371/197/444
f 377/204/447 375/202/446 371/197/444
f 378/205/446 376/203/443 371/197/444
f 368/194/445 377/204/447 371/197/444
f 379/206/447 378/205/446 371/197/444
f 380/200/445 379/206/447 371/197/444
f 360/187/448 380/200/449 361/188/450
f 379/206/451 380/200/449 360/187/448
f 380/200/449 372/199/452 361/188/450
f 359/186/453 379/206/451 360/187/448
f 378/205/454 379/206/451 359/186/453
f 358/185/455 378/205/454 359/186/453
f 376/203/456 378/205/454 358/185/455
f 365/192/457 377/204/458 366/193/437
f 375/202/459 377/204/458 365/192/457
f 377/204/458 368/194/438 366/193/437
f 357/184/460 376/203/456 358/185/455
f 370/196/442 376/203/456 357/184/460
f 364/191/461 375/202/459 365/192/457
f 374/201/462 375/202/459 364/191/461
f 373/198/463 374/201/462 363/190/464
f 363/190/464 374/201/462 364/191/461
f 372/199/452 373/198/463 362/189/465
f 362/189/465 373/198/463 363/190/464
f 361/188/450 372/199/452 362/189/465
f 356/182/441 370/196/442 357/184/460
f 384/207/466 381/208/466 382/207/466
f 381/208/466 383/209/466 382/207/466
f 385/210/467 381/208/468 384/207/468
f 386/211/469 385/210/467 384/207/468
f 387/212/470 385/210/467 386/211/469
f 388/212/471 387/212/471 389/213/471
f 389/213/470 387/212/470 386/211/469
f 390/214/471 388/212/471 389/213/471
f 390/214/472 389/213/472 386/211/473
f 391/215/474 388/212/475 390/214/475
f 392/211/472 390/214/472 384/207/472
f 384/207/472 390/214/472 386/211/473
f 392/211/476 391/215/474 390/214/475
f 383/209/477 391/215/474 392/211/476
f 382/207/477 383/209/477 392/211/476
f 382/207/472 392/211/472 384/207/472
f 396/216/478 393/217/479 394/216/480
f 393/217/479 395/217/479 394/216/480
f 398/218/481 395/217/481 393/217/481
f 397/218/482 393/217/483 396/216/484
f 397/218/481 398/218/481 393/217/481
f 400/219/481 398/218/481 397/218/481
f 398/218/485 400/219/486 399/220/487
f 395/217/488 398/218/485 399/220/487
f 401/219/481 400/219/481 397/218/481
f 400/219/489 401/219/489 402/221/490
f 400/219/486 402/221/491 399/220/487
f 402/221/491 403/222/492 399/220/487
f 405/222/493 403/222/494 402/221/490
f 401/219/489 404/221/490 402/221/490
f 404/221/490 405/222/493 402/221/490
f 405/222/493 406/223/495 403/222/494
f 407/224/496 406/223/497 405/222/498
f 408/225/499 407/224/496 405/222/498
f 408/225/499 405/222/498 404/221/500
f 411/226/501 409/227/502 408/225/499
f 409/227/502 407/224/496 408/225/499
f 410/220/503 408/225/499 404/221/500
f 411/226/501 408/225/499 410/220/503
f 412/227/504 409/227/505 411/226/506
f 413/226/507 412/227/504 411/226/506
f 413/226/507 411/226/506 396/216/478
f 396/216/484 411/226/501 410/220/503
f 414/225/508 413/226/509 394/216/510
f 414/225/508 415/224/511 413/226/509
f 394/216/480 413/226/507 396/216/478
f 415/224/511 412/227/512 413/226/509
f 415/224/511 418/228/513 412/227/512
f 416/223/514 415/224/511 414/225/508
f 416/223/514 417/229/515 415/224/511
f 417/229/515 418/228/513 415/224/511
f 418/228/513 419/230/516 412/227/512
f 419/230/517 420/230/517 409/227/505
f 412/227/504 419/230/517 409/227/505
f 409/227/502 420/230/518 407/224/496
f 420/230/518 421/228/519 407/224/496
f 421/228/519 422/229/520 406/223/497
f 407/224/496 421/228/519 406/223/497
f 406/223/495 422/229/521 416/223/522
f 422/229/521 417/229/521 416/223/522
f 406/223/495 416/223/522 403/222/494
f 403/222/492 416/223/514 414/225/508
f 403/222/492 414/225/508 399/220/487
f 399/220/487 414/225/508 394/216/510
f 410/220/503 397/218/482 396/216/484
f 401/219/523 397/218/482 410/220/503
f 404/221/500 401/219/523 410/220/503
f 394/216/510 395/217/488 399/220/487
f 423/231/524 425/231/524 424/232/524
f 425/231/524 426/232/524 424/232/524
f 424/232/524 426/232/524 427/233/524
f 426/232/524 428/233/524 427/233/524
o item_damaged
v -29.153999 3.117801 15.308600
v -24.850100 -8.020700 15.206201
v -22.281900 0.038201 15.206200
v -32.607300 -7.718799 15.308601
v -29.153999 3.117701 16.452700
v -22.282000 0.038101 16.555099
v -32.607300 -7.718799 16.452700
v -24.850201 -8.020799 16.555099
v -17.092899 -8.322799 15.880601
v -15.409900 -3.041299 15.880600
v -9.765332 -29.969978 13.668164
v -51.361843 -67.003922 18.093134
v -51.361843 -67.003922 13.668167
v -9.765332 -29.969978 18.093130
v -8.293667 -28.720112 18.093130
v -8.293667 -28.720112 13.668164
v -4.377505 -36.646656 12.397329
v -46.791389 -72.667587 12.397332
v -2.905750 -35.396698 12.397329
v 0.192952 -42.310234 13.668165
v -42.220932 -78.331161 13.668168
v 0.193037 -42.310230 18.093132
v -42.220932 -78.331161 18.093134
v -46.791386 -72.667496 19.363970
v -4.377419 -36.646652 19.363966
v -2.905754 -35.396782 19.363966
v 1.664703 -41.060364 18.093132
v 1.664703 -41.060364 13.668165
v -5.951000 -27.676098 15.308602
v 42.820202 6.502701 15.206199
v -1.127600 -33.495300 15.206203
v 37.865799 12.200401 15.308599
v -5.950900 -27.676098 16.452702
v 37.865799 12.200401 16.452700
v -1.127700 -33.495300 16.555101
v 3.695500 -39.314400 15.880603
v 42.820202 6.502602 16.555099
v 47.774502 0.805101 15.880600
v -3.068654 -35.508263 16.614643
v 8.249861 -26.407711 31.769489
v -0.156994 -16.823402 31.530628
v -10.755943 -13.368397 25.412802
v -17.524216 -18.057430 16.931540
v -23.487926 -23.605412 8.365420
v -22.200500 -34.547291 2.015632
v -14.386978 -44.608738 1.459851
v -5.978946 -54.198532 1.696106
v 4.618852 -57.644844 7.818530
v 11.386986 -52.958973 16.297615
v 17.347672 -47.410378 24.861675
v 16.068384 -36.471485 31.216276
v 18.529922 -46.433025 23.395699
v 17.242516 -35.491070 29.745701
v -1.889406 -34.530190 15.146576
v 9.429111 -25.429733 30.301479
v 1.020973 -15.839891 30.065197
v -9.576801 -12.393566 23.942799
v -16.344965 -17.079454 15.463530
v -22.305643 -22.628078 6.899457
v -21.026400 -33.566872 0.545032
v -13.207827 -43.630661 -0.008142
v -4.800970 -53.214962 0.230721
v 5.798072 -56.669952 6.348481
v 12.566254 -51.981018 14.829606
v -9.684300 -29.093998 14.571502
v -4.336400 -24.520699 17.189802
v -9.684300 -29.093998 17.189802
v -4.336400 -24.520597 14.571502
v -3.830000 -36.157200 14.337303
v 1.518000 -31.583899 14.337303
v 1.402200 -42.469700 15.019603
v 1.402200 -42.469700 16.741703
v 6.750000 -37.896400 15.019603
v 6.750100 -37.896400 16.741703
v -3.830000 -36.157200 17.424002
v 1.518000 -31.583899 17.424002
v -47.485100 74.001503 15.308595
v -51.311600 77.422798 15.880594
v -47.485100 74.001404 16.452694
v -42.651699 80.013397 15.880594
v -37.841202 75.811600 15.206194
v -8.435800 39.442101 15.308598
v -2.130400 43.504501 15.206197
v -8.435800 39.442101 16.452696
v 20.230400 19.849901 15.206198
v 12.789900 16.988201 15.308599
v 12.789900 16.988201 16.452698
v -2.130500 43.504601 16.555096
v 20.230400 19.849901 16.555098
v 27.671101 22.711702 15.880598
v 4.175200 47.567299 15.880596
v -37.841202 75.811600 16.555094
v -33.127602 80.726303 15.880594
v -55.002800 -4.131499 15.308600
v -48.492500 -0.307299 15.206200
v -62.818199 5.832301 15.308600
v -62.818199 5.832302 16.452700
v -55.002899 -4.131399 16.452700
v -56.299702 9.645901 16.555099
v -48.492401 -0.307499 16.555099
v -41.982101 3.516601 15.880600
v -49.781101 13.459501 15.880599
v -56.299599 9.645901 15.206199
v 19.032801 52.480801 15.308597
v 25.285299 48.283699 15.206196
v 25.472500 68.316498 15.308596
v 25.472401 68.316498 16.452694
v 19.032801 52.480801 16.452696
v 31.160200 62.730900 16.555096
v 25.285299 48.283699 16.555096
v 31.537800 44.086800 15.880597
v 36.848099 57.145100 15.880595
v 31.160200 62.730900 15.206195
v -39.834801 34.469398 15.308598
v -30.776600 22.921202 15.308599
v -32.939098 37.802299 15.206197
v -30.776600 22.921103 16.452698
v -39.834801 34.469398 16.452698
v -24.258101 26.734701 16.555098
v -32.939201 37.802299 16.555098
v -26.043501 41.135201 15.880597
v -17.739500 30.548302 15.880598
v -24.257999 26.734802 15.206198
v 65.920898 20.866402 16.452698
v 53.761101 30.418102 16.555098
v 61.289398 31.826202 16.452698
v 59.833099 16.049501 16.555098
v 65.920799 20.866402 15.308599
v 59.833000 16.049501 15.206199
v 61.289299 31.826302 15.308598
v 53.761101 30.418102 15.206198
v 53.745098 11.232301 15.880599
v 46.232800 29.010101 15.880598
v 0.000000 70.710701 -0.000005
v 70.710701 0.000000 0.000000
v 0.000000 55.656200 3.999996
v -55.656101 0.000000 4.000000
v -70.710701 0.000000 0.000000
v 0.000000 -55.656101 4.000004
v 0.000000 -70.710602 0.000005
v 55.656200 0.000000 4.000000
v 0.000000 70.710701 -0.000005
v 0.000000 55.656200 -4.000004
v 70.710701 0.000000 0.000000
v -55.656101 -0.000000 -4.000000
v -70.710701 0.000000 0.000000
v 0.000000 -55.656101 -3.999996
v 0.000000 -70.710602 0.000005
v 55.656200 -0.000000 -4.000000
v 0.000000 70.710701 -0.000005
v 70.710701 0.000000 0.000000
v 0.000000 55.656200 3.999996
v -55.656101 0.000000 4.000000
v -70.710701 0.000000 0.000000
v 0.000000 -55.656101 4.000004
v 0.000000 -70.710602 0.000005
v 55.656200 0.000000 4.000000
v 0.000000 70.710701 -0.000005
v 0.000000 55.656200 -4.000004
v 70.710701 0.000000 0.000000
v -55.656101 -0.000000 -4.000000
v -70.710701 0.000000 0.000000
v 0.000000 -55.656101 -3.999996
v 0.000000 -70.710602 0.000005
v 55.656200 -0.000000 -4.000000
v 0.000000 70.710701 -0.000005
v 70.710701 0.000000 0.000000
v 0.000000 55.656200 3.999996
v -55.656101 0.000000 4.000000
v -70.710701 0.000000 0.000000
v 0.000000 -55.656101 4.000004
v 0.000000 -70.710602 0.000005
v 55.656200 0.000000 4.000000
v 0.000000 70.710701 -0.000005
v 0.000000 55.656200 -4.000004
v 70.710701 0.000000 0.000000
v -55.656101 -0.000000 -4.000000
v -70.710701 0.000000 0.000000
v 0.000000 -55.656101 -3.999996
v 0.000000 -70.710602 0.000005
v 55.656200 -0.000000 -4.000000
vn -0.0130 0.0042 -0.9999
vn 0.0198 -0.0063 -0.9998
vn 0.0527 -0.0168 -0.9985
vn -0.9528 0.3036 -0.0000
vn 0.0199 -0.0063 0.9998
vn -0.0130 0.0042 0.9999
vn 0.0527 -0.0168 0.9985
vn 0.0855 -0.0273 0.9960
vn 0.0855 -0.0273 -0.9960
vn -0.6562 0.7546 -0.0000
vn -0.6650 0.7469 -0.0000
vn -0.0962 0.1107 -0.9892
vn -0.0095 0.0100 -0.9999
vn -0.1049 0.1203 -0.9872
vn -0.6473 0.7622 -0.0000
vn -0.0949 0.1117 -0.9892
vn 0.0018 -0.0021 -1.0000
vn 0.1114 -0.1312 -0.9851
vn 0.0405 -0.0497 -0.9979
vn 0.6473 -0.7622 -0.0000
vn -0.7782 -0.6280 -0.0000
vn 0.0383 -0.0474 0.9981
vn 0.1114 -0.1312 0.9851
vn -0.1049 0.1203 0.9872
vn 0.0051 -0.0070 1.0000
vn -0.0959 0.1109 0.9892
vn -0.0270 0.0339 0.9991
vn -0.0949 0.1117 0.9892
vn -0.0091 0.0100 -0.9999
vn 0.0139 -0.0153 -0.9998
vn 0.0369 -0.0406 -0.9985
vn -0.6731 0.7396 0.0001
vn -0.6731 0.7396 -0.0000
vn -0.0091 0.0100 0.9999
vn 0.0139 -0.0152 0.9998
vn 0.0369 -0.0406 0.9985
vn 0.0139 -0.0153 0.9998
vn 0.0599 -0.0658 0.9960
vn 0.0599 -0.0658 -0.9960
vn -0.5513 -0.4663 0.6918
vn -0.5509 -0.4669 0.6918
vn -0.5496 -0.4663 0.6932
vn -0.5499 -0.4681 0.6918
vn -0.5517 -0.4680 0.6903
vn -0.5495 -0.4663 0.6932
vn 0.7641 0.0497 0.6432
vn 0.7178 0.1570 0.6784
vn 0.5670 0.3989 0.7207
vn 0.7724 -0.5934 0.2266
vn 0.8195 -0.4386 0.3689
vn 0.5513 0.4663 -0.6918
vn 0.5509 0.4669 -0.6918
vn 0.5517 0.4680 -0.6903
vn 0.5103 0.4674 0.7219
vn 0.3013 0.6623 0.6860
vn 0.2042 0.7289 0.6534
vn -0.2607 0.8878 0.3792
vn -0.4242 0.8733 0.2396
vn 0.5496 0.4663 -0.6932
vn -0.5500 0.8281 0.1088
vn -0.7020 0.7059 -0.0947
vn 0.5499 0.4681 -0.6918
vn -0.8198 0.4367 -0.3705
vn -0.7718 0.5945 -0.2254
vn -0.7171 -0.1585 -0.6787
vn -0.7650 -0.0474 -0.6423
vn -0.5101 -0.4677 -0.7219
vn -0.5673 -0.3986 -0.7206
vn -0.3025 -0.6613 -0.6864
vn -0.2021 -0.7302 -0.6526
vn 0.2587 -0.8878 -0.3807
vn 0.4254 -0.8730 -0.2384
vn 0.5501 -0.8280 -0.1087
vn 0.7021 -0.7058 0.0948
vn -0.6499 0.7600 -0.0000
vn 0.0069 -0.0081 -0.9999
vn -0.0166 0.0194 -0.9997
vn 0.0305 -0.0356 -0.9989
vn 0.0539 -0.0630 -0.9966
vn 0.6499 -0.7600 -0.0000
vn 0.7699 0.6381 -0.0000
vn 0.0069 -0.0081 0.9999
vn 0.0304 -0.0356 0.9989
vn 0.0539 -0.0630 0.9966
vn -0.0166 0.0194 0.9997
vn -0.0264 0.0786 -0.9966
vn -0.0372 0.1242 -0.9916
vn -0.0271 0.1305 -0.9911
vn -0.6646 -0.7472 -0.0001
vn -0.6642 -0.7475 -0.0000
vn -0.6665 -0.7455 -0.0001
vn -0.6847 -0.7288 -0.0000
vn 0.0109 0.0651 -0.9978
vn -0.0097 -0.0100 -0.9999
vn -0.7060 -0.7082 -0.0000
vn 0.0350 0.0348 -0.9988
vn 0.0154 0.0145 -0.9998
vn -0.7267 -0.6870 -0.0000
vn -0.0101 -0.0095 -0.9999
vn 0.0408 0.0386 0.9984
vn 0.0198 0.0204 0.9996
vn -0.0101 -0.0095 0.9999
vn -0.0097 -0.0100 0.9999
vn 0.0650 0.0668 0.9956
vn 0.0662 0.0626 0.9958
vn 0.0646 0.0683 -0.9956
vn 0.0273 0.1101 -0.9935
vn 0.0274 0.1101 0.9935
vn 0.0109 0.0651 0.9978
vn 0.0662 0.0626 -0.9958
vn -0.0272 0.1305 0.9911
vn -0.0264 0.0787 0.9966
vn -0.0372 0.1242 0.9916
vn 0.0164 0.0129 -0.9998
vn -0.0108 -0.0084 -0.9999
vn -0.7868 -0.6172 -0.0000
vn -0.0108 -0.0084 0.9999
vn 0.0164 0.0128 0.9998
vn 0.0436 0.0342 0.9985
vn 0.0706 0.0554 0.9960
vn 0.0706 0.0554 -0.9960
vn 0.0435 0.0341 -0.9985
vn 0.0196 -0.0080 -0.9998
vn -0.0129 0.0052 -0.9999
vn -0.9263 0.3767 -0.0001
vn -0.9263 0.3767 -0.0000
vn -0.0129 0.0052 0.9999
vn 0.0197 -0.0080 0.9998
vn 0.0520 -0.0212 0.9984
vn 0.0844 -0.0343 0.9958
vn 0.0844 -0.0343 -0.9958
vn 0.0520 -0.0212 -0.9984
vn -0.7868 -0.6172 -0.0001
vn 0.0164 0.0129 0.9998
vn 0.0435 0.0342 -0.9985
vn -0.0125 -0.0472 0.9988
vn 0.0126 0.0053 0.9999
vn -0.0572 0.0262 0.9980
vn -0.0351 -0.0148 0.9993
vn 0.9211 0.3893 -0.0001
vn 0.0126 0.0053 -0.9999
vn -0.0192 -0.0081 -0.9998
vn 0.9211 0.3893 -0.0000
vn -0.0510 -0.0215 -0.9985
vn -0.9211 -0.3892 -0.0001
vn -0.9211 -0.3892 -0.0000
vn 0.2559 0.0853 0.9629
vn -0.0853 0.2559 0.9629
vn 0.0639 0.1919 0.9793
vn -0.1532 0.0510 0.9869
vn -0.2558 -0.0853 0.9629
vn -0.0639 -0.1919 0.9793
vn 0.0853 -0.2559 0.9629
vn 0.1531 -0.0510 0.9869
vn 0.0639 0.1919 -0.9793
vn -0.1531 0.0510 -0.9869
vn -0.0853 0.2559 -0.9629
vn 0.2559 0.0853 -0.9629
vn -0.2558 -0.0853 -0.9629
vn -0.0639 -0.1919 -0.9793
vn 0.0853 -0.2559 -0.9629
vn 0.1532 -0.0510 -0.9869
vt 0.011719 0.976320
vt 0.107414 0.761719
vt 0.226681 0.982299
vt 0.297849 0.822705
vt 0.107414 0.761721
vt 0.297846 0.822707
vt 0.226678 0.982301
vt 0.441643 0.988281
vt 0.488281 0.883690
vt 0.282278 0.375129
vt 0.011719 0.495014
vt 0.320914 0.398790
vt 0.291869 0.371094
vt 0.044494 0.515085
vt 0.077269 0.535156
vt 0.330506 0.394755
vt 0.353690 0.418862
vt 0.353690 0.418862
vt 0.044494 0.515085
vt 0.320915 0.398790
vt 0.330506 0.394755
vt 0.363281 0.414826
vt 0.400388 0.761719
vt 0.444335 0.786777
vt 0.011719 0.937096
vt 0.054504 0.962689
vt 0.011720 0.937096
vt 0.054503 0.962689
vt 0.444335 0.786778
vt 0.097286 0.988281
vt 0.488281 0.811835
vt 0.453830 0.413585
vt 0.497504 0.456713
vt 0.541178 0.499841
vt 0.573150 0.531413
vt 0.584852 0.542969
vt 0.497504 0.456713
vt 0.421859 0.382013
vt 0.410156 0.370457
vt 0.458822 0.406410
vt 0.426850 0.374837
vt 0.502496 0.449537
vt 0.502496 0.449537
vt 0.546170 0.492665
vt 0.578141 0.524238
vt 0.589844 0.535793
vt 0.578141 0.524237
vt 0.415148 0.363281
vt 0.746094 0.484497
vt 0.716235 0.542969
vt 0.746093 0.484497
vt 0.670120 0.478960
vt 0.699978 0.420487
vt 0.628906 0.421753
vt 0.658765 0.363282
vt 0.658765 0.363281
vt 0.034807 0.785623
vt 0.011719 0.773461
vt 0.063970 0.764253
vt 0.034807 0.785623
vt 0.270421 0.908467
vt 0.092996 0.779188
vt 0.308466 0.894027
vt 0.443386 0.978109
vt 0.398492 0.988281
vt 0.308466 0.894026
vt 0.346513 0.879585
vt 0.488281 0.967937
vt 0.121437 0.761719
vt 0.339376 0.939028
vt 0.190472 0.988281
vt 0.011719 0.859953
vt 0.190470 0.988280
vt 0.160810 0.810836
vt 0.339378 0.939030
vt 0.488281 0.889778
vt 0.309903 0.761719
vt 0.160812 0.810836
vt 0.094266 0.908766
vt 0.176816 0.988281
vt 0.488281 0.906386
vt 0.488281 0.906387
vt 0.378421 0.834053
vt 0.011719 0.829251
vt 0.268556 0.761719
vt 0.011719 0.844634
vt 0.207091 0.988280
vt 0.207091 0.988281
vt 0.160449 0.803176
vt 0.347685 0.940844
vt 0.160446 0.803176
vt 0.488281 0.893408
vt 0.309176 0.761719
vt 0.347687 0.940843
vt 0.123193 0.831775
vt 0.234660 0.761719
vt 0.455694 0.901649
vt 0.488279 0.815016
vt 0.234660 0.761720
vt 0.123193 0.831776
vt 0.488281 0.815017
vt 0.011719 0.901833
vt 0.423112 0.988281
vt 0.976562 0.023438
s 1
f 432/234/525 429/235/525 430/236/526
f 429/235/525 431/237/527 430/236/526
f 433/238/528 429/235/528 432/234/528
f 434/239/529 433/238/530 435/234/530
f 435/234/528 433/238/528 432/234/528
f 436/240/531 434/239/529 435/234/530
f 437/241/532 438/242/532 436/240/531
f 438/242/532 434/239/529 436/240/531
f 431/237/527 438/242/533 437/241/533
f 430/236/526 431/237/527 437/241/533
f 442/243/534 439/243/534 440/244/535
f 439/243/534 441/244/535 440/244/535
f 439/243/536 445/245/537 441/244/538
f 439/243/534 442/243/534 443/246/539
f 444/246/539 439/243/534 443/246/539
f 445/245/537 439/243/536 444/246/540
f 446/247/541 445/245/537 449/248/542
f 445/245/537 446/247/541 441/244/538
f 447/249/543 445/245/537 444/246/540
f 448/250/542 445/245/537 447/249/543
f 445/245/537 448/250/542 449/248/542
f 448/250/544 450/251/544 449/248/544
f 450/251/544 451/248/544 449/248/544
f 446/247/545 449/248/545 451/248/545
f 452/252/546 451/248/547 450/251/547
f 452/252/545 446/247/545 451/248/545
f 440/244/548 452/252/546 453/253/549
f 440/244/545 441/244/545 452/252/545
f 441/244/545 446/247/545 452/252/545
f 453/253/549 452/252/546 450/251/547
f 442/243/550 440/244/548 453/253/549
f 442/243/550 453/253/549 454/254/551
f 453/253/549 450/251/547 455/255/547
f 454/254/551 453/253/549 455/255/547
f 455/255/544 450/251/544 456/255/544
f 450/251/544 448/250/544 456/255/544
f 456/255/542 448/250/542 447/249/543
f 443/246/552 442/243/550 454/254/551
f 460/256/553 458/257/554 457/258/553
f 458/257/554 459/259/555 457/258/553
f 460/256/556 457/258/556 461/260/556
f 462/256/557 460/256/557 461/260/557
f 462/256/558 461/260/558 463/261/559
f 465/262/560 463/261/561 464/263/562
f 465/262/560 462/256/558 463/261/561
f 466/264/562 465/262/560 464/263/562
f 466/264/563 464/263/563 459/259/555
f 458/257/554 466/264/563 459/259/555
f 479/265/564 468/266/564 467/266/565
f 468/266/564 469/267/564 467/266/565
f 469/267/564 470/268/566 467/266/565
f 470/268/566 471/269/567 467/266/565
f 471/269/567 472/268/568 467/266/565
f 472/268/568 473/267/564 467/266/565
f 473/267/564 474/270/564 467/266/565
f 474/270/564 475/265/564 467/266/565
f 475/265/564 476/271/569 467/266/565
f 476/271/569 477/272/567 467/266/565
f 477/272/567 478/271/568 467/266/565
f 478/271/568 479/265/564 467/266/565
f 479/265/570 481/273/571 468/266/572
f 478/271/573 480/274/574 479/265/570
f 480/274/574 481/273/571 479/265/570
f 483/275/575 481/273/575 482/276/576
f 481/273/575 480/274/577 482/276/576
f 481/273/571 483/275/578 468/266/572
f 468/266/572 483/275/578 469/267/579
f 483/275/578 484/277/580 469/267/579
f 484/277/575 483/275/575 482/276/576
f 469/267/579 484/277/580 470/268/581
f 484/277/580 485/278/582 470/268/581
f 485/278/583 484/277/575 482/276/576
f 470/268/581 485/278/582 471/269/584
f 485/278/582 486/279/585 471/269/584
f 486/279/586 485/278/583 482/276/576
f 487/280/577 486/279/586 482/276/576
f 486/279/585 487/280/587 472/268/588
f 471/269/584 486/279/585 472/268/588
f 488/277/575 487/280/577 482/276/576
f 487/280/587 488/277/589 473/267/590
f 472/268/588 487/280/587 473/267/590
f 489/276/575 488/277/575 482/276/576
f 488/277/589 489/276/591 474/270/592
f 473/267/590 488/277/589 474/270/592
f 474/270/592 489/276/591 475/265/593
f 489/276/591 490/273/594 475/265/593
f 490/273/575 489/276/575 482/276/576
f 475/265/593 490/273/594 476/271/595
f 490/273/594 491/274/596 476/271/595
f 491/274/583 490/273/575 482/276/576
f 476/271/595 491/274/596 477/272/597
f 491/274/596 492/281/598 477/272/597
f 492/281/586 491/274/583 482/276/576
f 477/272/597 492/281/598 478/271/573
f 492/281/598 480/274/574 478/271/573
f 480/274/577 492/281/586 482/276/576
f 496/282/599 493/283/599 494/284/599
f 493/283/599 495/283/599 494/284/599
f 497/285/600 493/283/601 496/282/601
f 498/286/602 497/285/600 496/282/601
f 499/287/603 497/285/600 498/286/602
f 500/287/604 499/287/604 501/288/604
f 501/288/603 499/287/603 498/286/602
f 502/289/604 500/287/604 501/288/604
f 502/289/605 501/288/605 498/286/605
f 504/286/606 503/285/607 502/289/608
f 503/285/607 500/287/608 502/289/608
f 504/286/605 502/289/605 496/282/605
f 496/282/605 502/289/605 498/286/605
f 494/284/605 504/286/605 496/282/605
f 494/284/609 495/283/609 504/286/606
f 495/283/609 503/285/607 504/286/606
f 505/290/610 506/291/611 508/292/612
f 505/290/613 507/293/614 506/291/615
f 507/293/614 505/290/613 510/294/616
f 509/295/617 505/290/610 508/292/612
f 505/290/610 509/295/617 510/294/618
f 512/294/619 507/293/614 510/294/616
f 509/295/617 511/296/620 510/294/618
f 510/294/618 511/296/620 513/297/621
f 512/294/619 510/294/616 514/298/622
f 514/298/623 510/294/618 513/297/621
f 515/298/622 512/294/619 514/298/622
f 517/297/624 516/299/625 515/298/626
f 516/299/625 512/294/627 515/298/626
f 519/300/628 516/299/625 517/297/624
f 518/301/629 519/300/628 517/297/624
f 511/296/620 509/295/617 519/300/630
f 509/295/617 521/302/631 519/300/630
f 521/302/632 520/295/633 519/300/628
f 520/295/633 516/299/625 519/300/628
f 511/296/620 519/300/630 518/301/634
f 520/295/633 521/302/632 508/292/635
f 521/302/631 509/295/617 508/292/612
f 520/295/633 507/293/636 512/294/627
f 507/293/636 520/295/633 508/292/635
f 516/299/625 520/295/633 512/294/627
f 513/297/621 511/296/620 518/301/634
f 506/291/637 507/293/636 508/292/635
f 523/303/638 522/304/639 524/305/639
f 524/305/640 522/304/640 525/305/640
f 522/304/640 526/306/640 525/305/640
f 525/305/641 526/306/641 527/307/642
f 526/306/641 528/308/643 527/307/642
f 528/308/643 529/309/644 530/310/644
f 527/307/642 528/308/643 530/310/644
f 530/310/645 529/309/645 531/311/646
f 529/309/645 523/303/638 531/311/646
f 531/311/646 523/303/638 524/305/639
f 533/312/647 532/313/648 534/314/648
f 534/314/649 532/313/650 535/315/649
f 532/313/650 536/313/650 535/315/649
f 535/315/651 536/313/651 537/316/652
f 536/313/651 538/312/653 537/316/652
f 538/312/653 539/317/654 540/318/654
f 537/316/652 538/312/653 540/318/654
f 540/318/655 539/317/655 541/316/656
f 539/317/655 533/312/647 541/316/656
f 541/316/656 533/312/647 534/314/648
f 542/319/657 543/320/657 545/321/657
f 543/320/639 542/319/639 544/322/638
f 546/319/640 542/319/640 545/321/640
f 545/321/641 547/323/658 546/319/641
f 547/323/658 548/324/643 546/319/641
f 550/325/644 549/326/644 548/324/643
f 547/323/658 550/325/644 548/324/643
f 550/325/645 551/327/659 549/326/645
f 551/327/646 543/320/639 544/322/638
f 551/327/646 544/322/638 549/326/645
f 555/328/660 552/329/661 553/330/662
f 552/329/661 554/331/661 553/330/663
f 554/331/664 552/329/664 556/332/664
f 556/332/665 557/333/666 558/334/665
f 558/334/667 554/331/667 556/332/667
f 557/333/666 559/330/668 558/334/665
f 557/333/666 560/335/669 559/330/668
f 560/335/669 561/336/670 559/330/668
f 560/335/669 555/328/660 561/336/670
f 555/328/660 553/330/662 561/336/670
f 563/337/671 562/337/672 564/337/673
f 564/337/673 562/337/672 565/337/674
f 562/337/672 566/337/675 565/337/674
f 565/337/674 566/337/675 567/337/676
f 566/337/675 568/337/677 567/337/676
f 568/337/677 563/337/671 569/337/678
f 567/337/676 568/337/677 569/337/678
f 569/337/678 563/337/671 564/337/673
f 564/337/673 565/337/674 569/337/678
f 565/337/674 567/337/676 569/337/678
f 571/337/679 573/337/680 570/337/681
f 571/337/679 570/337/681 572/337/682
f 573/337/680 574/337/683 570/337/681
f 573/337/680 575/337/684 574/337/683
f 575/337/684 576/337/685 574/337/683
f 577/337/686 572/337/682 576/337/685
f 575/337/684 577/337/686 576/337/685
f 571/337/679 577/337/686 573/337/680
f 577/337/686 571/337/679 572/337/682
f 577/337/686 575/337/684 573/337/680
f 579/337/671 578/337/672 580/337/673
f 580/337/673 578/337/672 581/337/674
f 578/337/672 582/337/675 581/337/674
f 581/337/674 582/337/675 583/337/676
f 582/337/675 584/337/677 583/337/676
f 584/337/677 579/337/671 585/337/678
f 583/337/676 584/337/677 585/337/678
f 580/337/673 581/337/674 585/337/678
f 585/337/678 579/337/671 580/337/673
f 581/337/674 583/337/676 585/337/678
f 587/337/679 589/337/680 586/337/681
f 587/337/679 586/337/681 588/337/682
f 589/337/680 590/337/683 586/337/681
f 589/337/680 591/337/684 590/337/683
f 591/337/684 592/337/685 590/337/683
f 593/337/686 588/337/682 592/337/685
f 591/337/684 593/337/686 592/337/685
f 593/337/686 587/337/679 588/337/682
f 587/337/679 593/337/686 589/337/680
f 593/337/686 591/337/684 589/337/680
f 595/337/671 594/337/672 596/337/673
f 596/337/673 594/337/672 597/337/674
f 594/337/672 598/337/675 597/337/674
f 597/337/674 598/337/675 599/337/676
f 598/337/675 600/337/677 599/337/676
f 600/337/677 595/337/671 601/337/678
f 599/337/676 600/337/677 601/337/678
f 601/337/678 595/337/671 596/337/673
f 596/337/673 597/337/674 601/337/678
f 597/337/674 599/337/676 601/337/678
f 603/337/679 605/337/680 602/337/681
f 603/337/679 602/337/681 604/337/682
f 605/337/680 606/337/683 602/337/681
f 605/337/680 607/337/684 606/337/683
f 607/337/684 608/337/685 606/337/683
f 609/337/686 604/337/682 608/337/685
f 607/337/684 609/337/686 608/337/685
f 603/337/679 609/337/686 605/337/680
f 609/337/686 603/337/679 604/337/682
f 609/337/686 607/337/684 605/337/680
o effect
v -35.532928 -4.634296 -3.483364
v -122.260742 -7.373224 3.857580
v -35.532928 -4.634295 3.483364
v -122.260742 -7.373225 -3.857579
v -122.758987 1.410852 -6.465956
v -35.166859 3.708340 -5.343424
v -35.166859 3.708341 5.343423
v -122.758987 1.410853 6.465956
v -35.570492 12.050495 3.483363
v -35.570492 12.050495 -3.483365
v -123.257347 10.194930 3.857579
v -194.325821 4.297106 3.857580
v -123.257347 10.194930 -3.857581
v -194.325821 4.297105 -3.857580
v -260.450104 -4.483840 -3.857580
v -259.068634 -13.173633 -6.465955
v -193.371124 -4.449447 -6.465956
v -192.416702 -13.195884 -3.857579
v -257.687378 -21.863312 -3.857578
v -337.943726 -37.049389 -3.735313
v -337.943726 -37.049389 3.735319
v -257.687378 -21.863312 3.857582
v -259.068634 -13.173631 6.465957
v -192.416702 -13.195884 3.857581
v -193.371124 -4.449446 6.465957
v -260.450104 -4.483839 3.857580
v -341.683563 -19.550928 -3.735314
v -341.683563 -19.550928 3.735317
v -340.217102 -28.386606 5.729938
v -340.217102 -28.386606 -5.729934
v -35.467033 -4.153358 -2.735048
v -35.457279 10.412830 -2.735049
v -35.467033 -4.153358 2.735048
v -35.457279 10.412830 2.735047
v -35.461735 3.758373 -4.221008
v -35.461735 3.758373 4.221007
v -337.486664 -35.412895 -2.735045
v -340.634460 -20.888948 -2.735046
v -337.486664 -35.412895 2.735051
v -340.634460 -20.888948 2.735050
v -339.060486 -28.150925 -4.221006
v -339.060486 -28.150925 4.221010
v -257.904907 -20.520561 -2.735047
v -260.231232 -5.844098 -2.735048
v -257.904907 -20.520561 2.735049
v -260.231232 -5.844098 2.735049
v -259.067963 -13.182447 -4.221007
v -259.067963 -13.182447 4.221009
v -192.563873 -11.841107 -2.735047
v -194.177261 2.929916 -2.735048
v -192.563873 -11.841107 2.735049
v -194.177261 2.929917 2.735048
v -193.370483 -4.455652 -4.221007
v -193.370483 -4.455651 4.221008
v -122.334953 -6.009948 -2.735048
v -123.182228 8.824807 -2.735049
v -122.334953 -6.009948 2.735049
v -123.182228 8.824807 2.735047
v -122.758537 1.407430 -4.221008
v -122.758537 1.407431 4.221008
v -337.486664 -35.412895 -2.735045
v -339.060486 -28.150925 -4.221006
v -337.486664 -35.412895 2.735051
v -339.060486 -28.150925 4.221010
v -340.634460 -20.888948 2.735050
v -340.634460 -20.888948 -2.735046
v -103.135185 -6.017891 -3.134203
v -103.135185 -6.017891 3.134320
v -103.225624 1.896344 -5.019436
v -99.029907 2.009949 -5.019436
v -99.057159 -5.907549 -3.134203
v -99.057159 -5.907549 3.134320
v -103.225624 1.896344 5.019436
v -99.029907 2.009950 5.019436
v -99.002678 9.927448 -3.134320
v -99.002678 9.927448 3.134203
v -103.315956 9.810697 3.134203
v -103.315956 9.810697 -3.134320
vn 0.0657 -0.9978 -0.0000
vn 0.0316 -0.9995 -0.0000
vn 0.0486 -0.9988 -0.0000
vn 0.9999 -0.0130 -0.0000
vn 0.9990 -0.0438 -0.0000
vn 0.0156 -0.2512 -0.9678
vn 0.0183 -0.2837 -0.9588
vn 0.0089 -0.0420 -0.9991
vn 0.0128 -0.0000 -0.9999
vn 0.9998 0.0175 -0.0000
vn 0.0128 -0.0000 0.9999
vn 0.0024 0.2514 0.9679
vn 0.0019 0.0419 0.9991
vn 0.0156 -0.2512 0.9678
vn 0.9988 0.0483 -0.0000
vn -0.0212 0.9998 -0.0000
vn -0.0520 0.9986 -0.0000
vn -0.0128 0.2840 0.9587
vn -0.0282 0.2828 0.9588
vn -0.0990 0.9951 -0.0000
vn -0.1154 0.9933 -0.0000
vn -0.1485 0.9889 -0.0000
vn -0.0084 0.0411 -0.9991
vn -0.0453 0.2806 -0.9588
vn -0.0328 0.2823 -0.9588
vn 0.0025 0.0002 -1.0000
vn -0.0163 0.2838 -0.9588
vn 0.0281 -0.2829 -0.9587
vn 0.0422 -0.2811 -0.9588
vn 0.1859 -0.9826 -0.0000
vn 0.1680 -0.9858 -0.0000
vn 0.0416 -0.2481 -0.9678
vn 0.1497 -0.9887 -0.0000
vn 0.1154 -0.9933 -0.0000
vn 0.0028 -0.0424 0.9991
vn 0.0444 -0.2807 0.9588
vn 0.0327 -0.2824 0.9588
vn 0.0416 -0.2481 0.9678
vn 0.0990 -0.9951 -0.0000
vn -0.0024 -0.0003 1.0000
vn 0.0200 -0.2835 0.9587
vn -0.0427 0.2810 0.9588
vn -0.1656 0.9862 -0.0000
vn -0.1824 0.9832 -0.0000
vn -0.0510 0.2459 0.9680
vn -0.9810 -0.1941 -0.0000
vn -0.9865 -0.1637 -0.0000
vn -0.0087 -0.0018 1.0000
vn -0.9746 -0.2239 -0.0000
vn -0.9672 -0.2538 -0.0000
vn -0.0087 -0.0018 -1.0000
vn -0.0510 0.2459 -0.9680
vn 0.0024 0.2514 -0.9679
vn 0.0361 -0.1928 -0.9806
vn -0.0124 0.0656 -0.9978
vn 0.0017 0.0003 -1.0000
vn 0.0293 -0.1939 -0.9806
vn 0.0123 -0.0651 0.9978
vn 0.0361 -0.1928 0.9806
vn 0.0327 -0.1934 0.9806
vn -0.0017 -0.0003 1.0000
vn 0.1839 -0.9829 -0.0000
vn 0.1666 -0.9860 -0.0000
vn 0.1491 -0.9888 -0.0000
vn -0.0361 0.1928 -0.9806
vn -0.0327 0.1934 -0.9806
vn -0.1839 0.9829 -0.0000
vn -0.1666 0.9860 -0.0000
vn -0.1491 0.9888 -0.0000
vn -0.0361 0.1928 0.9806
vn -0.0293 0.1939 0.9806
vn 0.0017 0.0002 -1.0000
vn 0.0195 -0.1952 -0.9806
vn 0.0226 -0.1948 0.9806
vn -0.0016 -0.0002 1.0000
vn 0.1155 -0.9933 -0.0000
vn -0.0227 0.1948 -0.9806
vn -0.0195 0.1952 0.9806
vn 0.0020 0.0038 -1.0000
vn 0.0085 -0.1921 -0.9813
vn 0.0122 -0.1957 0.9806
vn -0.0024 0.0333 0.9994
vn 0.0624 -0.9981 -0.0000
vn 0.0417 -0.9991 -0.0000
vn -0.0119 0.1958 -0.9806
vn -0.0504 0.9987 -0.0000
vn -0.0099 0.1959 0.9806
vn 0.0046 -0.1904 0.9817
vn -0.0005 0.0172 0.9999
vn 0.0214 -0.9998 -0.0000
vn -0.0047 0.2071 0.9783
vn -0.0181 0.9998 -0.0000
vn -0.0047 0.2071 -0.9783
vn 0.0011 -0.0551 -0.9985
vn 0.0039 -0.1846 -0.9828
vn 1.0000 -0.0007 -0.0000
vn -0.9773 -0.2118 -0.0000
vn 0.0270 -0.9996 -0.0000
vn -0.9999 -0.0114 -0.0000
vn 0.0063 -0.2317 -0.9728
vn -0.0009 0.0789 -0.9969
vn 0.0020 -0.0788 -0.9969
vn -0.0020 0.0794 0.9968
vn 0.0009 -0.0794 0.9968
vn 0.0063 -0.2316 0.9728
vn 1.0000 -0.0034 -0.0000
vn -0.0063 0.2316 0.9728
vn -0.0271 0.9996 -0.0000
vn -0.0063 0.2316 -0.9728
vt 0.352875 0.633003
vt 0.487720 0.624855
vt 0.488281 0.599537
vt 0.352092 0.606343
vt 0.487645 0.574219
vt 0.351308 0.579684
vt 0.240814 0.597448
vt 0.138009 0.623971
vt 0.140166 0.650346
vt 0.242306 0.623994
vt 0.243799 0.650540
vt 0.142322 0.676721
vt 0.017551 0.722656
vt 0.011719 0.669544
vt 0.014008 0.696362
vt 0.016650 0.722656
vt 0.014184 0.699027
vt 0.139093 0.650501
vt 0.140917 0.674377
vt 0.011719 0.675397
vt 0.137269 0.626624
vt 0.241684 0.622251
vt 0.242951 0.646281
vt 0.240416 0.598221
vt 0.351952 0.603328
vt 0.352622 0.627461
vt 0.351283 0.579196
vt 0.488281 0.621609
vt 0.488281 0.595868
vt 0.488281 0.574219
vt 0.628906 0.511340
vt 0.628906 0.394910
vt 0.687500 0.542969
vt 0.687500 0.363281
vt 0.746094 0.394910
vt 0.746094 0.511340
vt 0.629684 0.397023
vt 0.628906 0.397023
vt 0.628906 0.509225
vt 0.687088 0.542969
vt 0.687889 0.542969
vt 0.629684 0.509225
vt 0.687889 0.363281
vt 0.687088 0.363281
vt 0.745271 0.397025
vt 0.746094 0.509227
vt 0.746094 0.397025
vt 0.745271 0.509227
s 1
f 613/338/687 610/339/688 611/338/689
f 610/339/688 612/339/688 611/338/689
f 616/340/690 612/339/691 610/339/691
f 610/339/692 613/338/693 614/341/694
f 615/340/695 610/339/692 614/341/694
f 615/340/696 616/340/690 610/339/691
f 616/340/697 618/342/698 617/341/699
f 612/339/700 616/340/697 617/341/699
f 618/342/701 616/340/690 615/340/696
f 619/342/701 618/342/701 615/340/696
f 618/342/702 619/342/702 620/343/703
f 618/342/698 620/343/704 617/341/699
f 620/343/704 621/344/705 617/341/699
f 623/344/706 621/344/707 620/343/703
f 619/342/702 622/343/703 620/343/703
f 622/343/703 623/344/706 620/343/703
f 623/344/706 624/345/708 621/344/707
f 625/346/709 624/345/710 623/344/711
f 626/347/712 625/346/709 623/344/711
f 626/347/712 623/344/711 622/343/713
f 614/341/694 626/347/712 622/343/713
f 627/348/714 626/347/712 614/341/694
f 628/349/715 625/346/709 626/347/712
f 627/348/714 628/349/715 626/347/712
f 630/350/716 629/350/716 628/349/717
f 628/349/715 629/350/718 625/346/709
f 631/349/719 630/350/716 628/349/717
f 631/349/719 628/349/717 627/348/720
f 632/346/721 631/349/722 633/348/723
f 630/350/724 631/349/722 632/346/721
f 633/348/725 631/349/719 627/348/720
f 634/347/726 632/346/721 633/348/723
f 633/348/725 627/348/720 613/338/687
f 634/347/726 633/348/723 611/338/727
f 611/338/689 633/348/725 613/338/687
f 621/344/705 634/347/726 617/341/699
f 621/344/705 635/345/728 634/347/726
f 635/345/728 632/346/721 634/347/726
f 617/341/699 634/347/726 611/338/727
f 624/345/708 635/345/729 621/344/707
f 624/345/708 636/351/730 635/345/729
f 636/351/730 637/351/730 635/345/729
f 635/345/728 637/351/731 632/346/721
f 638/352/732 637/351/733 636/351/733
f 637/351/731 638/352/734 632/346/721
f 639/352/735 638/352/732 636/351/733
f 630/350/736 638/352/732 639/352/735
f 638/352/734 630/350/724 632/346/721
f 629/350/736 630/350/736 639/352/735
f 629/350/718 639/352/737 625/346/709
f 639/352/737 636/351/738 625/346/709
f 636/351/738 624/345/710 625/346/709
f 613/338/693 627/348/714 614/341/694
f 622/343/713 619/342/739 614/341/694
f 619/342/739 615/340/695 614/341/694
f 611/338/727 612/339/700 617/341/699
f 646/353/740 650/354/741 656/355/742
f 652/356/743 646/353/740 656/355/742
f 651/354/744 648/353/745 654/356/746
f 657/355/747 651/354/744 654/356/746
f 648/353/748 646/353/748 652/356/749
f 654/356/750 648/353/748 652/356/749
f 650/354/741 647/357/751 653/358/752
f 656/355/742 650/354/741 653/358/752
f 647/357/753 649/357/753 655/358/754
f 653/358/755 647/357/753 655/358/754
f 649/357/756 651/354/744 657/355/747
f 655/358/757 649/357/756 657/355/747
f 652/356/743 656/355/742 662/359/758
f 658/360/759 652/356/743 662/359/758
f 657/355/747 654/356/746 660/360/760
f 663/359/761 657/355/747 660/360/760
f 654/356/750 652/356/749 658/360/762
f 660/360/725 654/356/750 658/360/762
f 656/355/742 653/358/752 659/361/763
f 662/359/758 656/355/742 659/361/763
f 653/358/755 655/358/754 661/361/707
f 659/361/706 653/358/755 661/361/707
f 655/358/757 657/355/747 663/359/761
f 661/361/764 655/358/757 663/359/761
f 658/360/759 662/359/758 668/362/765
f 664/363/766 658/360/759 668/362/765
f 663/359/761 660/360/760 666/363/767
f 669/362/768 663/359/761 666/363/767
f 660/360/725 658/360/762 664/363/769
f 666/363/770 660/360/725 664/363/769
f 662/359/758 659/361/763 665/364/771
f 668/362/765 662/359/758 665/364/771
f 659/361/706 661/361/707 667/364/772
f 665/364/772 659/361/706 667/364/772
f 661/361/764 663/359/761 669/362/768
f 667/364/773 661/361/764 669/362/768
f 642/365/774 645/366/775 669/362/768
f 666/363/767 642/365/774 669/362/768
f 640/365/776 642/365/776 666/363/770
f 664/363/769 640/365/776 666/363/770
f 643/367/777 667/364/773 669/362/768
f 645/366/775 643/367/777 669/362/768
f 641/367/778 665/364/772 667/364/772
f 643/367/778 641/367/778 667/364/772
f 641/367/779 644/366/780 668/362/765
f 665/364/771 641/367/779 668/362/765
f 644/366/780 640/365/781 664/363/766
f 668/362/765 644/366/780 664/363/766
f 643/367/782 645/366/782 644/366/782
f 641/367/782 643/367/782 644/366/782
f 645/366/782 642/365/782 640/365/782
f 644/366/782 645/366/782 640/365/782
f 670/368/783 672/369/783 671/370/783
f 672/369/783 673/371/783 671/370/783
f 673/371/783 674/372/783 675/373/783
f 671/370/783 673/371/783 675/373/783
f 681/374/784 677/375/784 676/376/784
f 677/375/785 678/377/785 676/376/785
f 676/376/786 678/377/787 679/378/788
f 680/379/786 676/376/786 679/378/788
f 680/379/784 681/374/784 676/376/784
f 683/380/789 682/381/790 681/374/791
f 682/381/790 677/375/791 681/374/791
f 680/379/792 679/378/792 681/374/792
f 683/380/792 681/374/792 679/378/792
f 686/382/793 682/381/790 683/380/789
f 684/383/792 683/380/792 679/378/792
f 684/383/792 685/384/792 683/380/792
f 685/384/793 686/382/793 683/380/789
f 687/385/794 686/382/794 685/384/794
f 687/385/785 678/377/785 686/382/785
f 686/382/785 678/377/785 682/381/785
f 678/377/787 687/385/795 684/383/795
f 684/383/794 687/385/794 685/384/794
f 679/378/788 678/377/787 684/383/795
f 678/377/785 677/375/785 682/381/785
