# Blender 5.2.0 LTS
# www.blender.org
o blade
v -32.792900 -3.202400 -2.265600
v 41.740303 -1.959198 2.265600
v 41.740303 -1.959199 -2.265600
v -32.792900 -3.202400 2.265600
v -35.379101 -3.202400 2.265600
v -35.379101 -3.202400 -2.265600
v -32.792900 3.631000 -3.566900
v -35.379101 3.631000 -3.566900
v -32.792900 9.427600 -2.265601
v 41.740299 9.180600 -2.265601
v 41.740292 3.610700 -3.566900
v 41.740299 9.180600 2.265599
v 41.740292 3.610700 3.566900
v -32.792900 3.631000 3.566900
v -32.792900 9.427600 2.265599
v -35.379101 9.427600 -2.265601
v -35.379101 9.427600 2.265599
v -35.379101 3.631000 3.566900
v -39.060116 -2.243779 -0.566752
v -124.766968 1.152835 -0.668232
v -39.048691 3.365328 -0.668232
v -124.520676 -4.448437 -0.566752
v -39.060116 -2.243779 0.566756
v -124.520676 -4.448437 0.566756
v -39.048691 3.365328 0.668236
v -124.766968 1.152835 0.668236
v -39.037266 8.974318 0.000001
v -125.013382 6.753991 0.000001
v -197.183594 -4.909893 -0.668232
v -197.660385 0.672151 0.000002
v -265.255859 -8.325857 0.000003
v -264.564636 -13.879498 -0.668231
v -197.183594 -4.909893 0.668236
v -264.564636 -13.879498 0.668237
v -196.706940 -10.491823 0.566757
v -263.873535 -19.432787 0.566757
v -196.706940 -10.491823 -0.566751
v -263.873535 -19.432787 -0.566751
v -334.913757 -32.439583 -0.566750
v -334.913757 -32.439583 0.566758
v -330.417328 -25.522820 -0.668230
v -333.302246 -20.698977 0.000003
v -339.098419 -27.144934 0.000004
v -330.417328 -25.522820 0.668238
v -341.919098 -33.701660 0.000004
v -34.015800 -2.157500 -1.099300
v -42.484100 -2.225600 1.099300
v -34.015800 -2.157500 1.099300
v -42.484100 -2.225600 -1.099300
v -34.015800 3.610700 -1.295900
v -42.484100 3.542600 -1.295900
v -34.015800 8.765900 -0.723001
v -34.015800 8.765900 0.722999
v -42.484100 8.697800 -0.723001
v -42.484100 8.697800 0.722999
v -34.015800 3.610700 1.295900
v -42.484100 3.542600 1.295900
v -34.864811 3.600161 0.000003
v -34.864811 3.600161 14.718198
v -34.859154 -5.331424 14.332384
v -34.855064 -11.876558 8.278098
v -34.838463 -12.288182 0.000007
v -34.855061 -11.876547 -8.278075
v -34.859154 -5.331426 -14.332380
v -34.864811 3.600162 -14.718192
v -34.870441 12.535290 -14.334874
v -34.874573 19.075245 -8.276149
v -34.891159 19.488501 -0.000001
v -34.874573 19.075268 8.275996
v -34.870441 12.535280 14.334866
v -37.428440 19.080307 8.277899
v -37.424347 12.535226 14.332388
v -37.418690 3.603639 0.000003
v -37.418690 3.603638 14.718198
v -37.413059 -5.331476 14.334862
v -37.408928 -11.871442 8.276157
v -37.392342 -12.284704 0.000007
v -37.408928 -11.871445 -8.276140
v -37.413059 -5.331493 -14.334882
v -37.418690 3.603640 -14.718192
v -37.424347 12.535228 -14.332381
v -37.428436 19.080355 -8.278086
v -37.445038 19.491983 -0.000001
vn 0.0083 -1.0000 -0.0000
vn 0.0167 -0.9999 -0.0000
vn 0.0016 -0.1871 -0.9823
vn 0.0006 -0.0180 -0.9998
vn 0.0015 -0.2073 -0.9783
vn -0.0000 -1.0000 -0.0000
vn -0.0000 -0.1871 -0.9823
vn -0.0000 0.0852 -0.9964
vn 0.0004 0.2190 -0.9757
vn 0.0004 0.2233 -0.9747
vn -0.0000 -0.0000 -1.0000
vn 1.0000 -0.0000 -0.0000
vn 0.0005 0.0095 1.0000
vn 0.0003 0.0747 0.9972
vn 0.0003 0.2218 0.9751
vn 0.0015 -0.2073 0.9783
vn 0.0008 0.2275 0.9738
vn 0.0017 1.0000 -0.0000
vn -0.0000 1.0000 -0.0000
vn 0.0033 1.0000 -0.0000
vn -0.0000 0.2190 0.9757
vn -0.0000 -0.0527 0.9986
vn 0.0016 -0.1871 0.9823
vn -0.0000 -0.1871 0.9823
vn -0.0000 0.2190 -0.9757
vn 0.0010 -0.0181 -0.9998
vn -0.0015 0.0274 -0.9996
vn 0.0005 -0.0181 -0.9998
vn -0.0018 0.0731 -0.9973
vn 0.0551 -0.9985 -0.0000
vn 0.0258 -0.9997 -0.0000
vn 0.0546 -0.9985 -0.0000
vn 0.0548 -0.9985 -0.0000
vn 0.0010 -0.0181 0.9998
vn 0.0005 -0.0181 0.9998
vn -0.0008 0.0276 0.9996
vn -0.0040 0.0729 0.9973
vn -0.0031 0.1183 0.9930
vn -0.0064 0.1182 0.9930
vn -0.0064 0.1182 -0.9930
vn -0.0031 0.1183 -0.9930
vn -0.0049 0.0501 -0.9987
vn -0.0136 0.1177 -0.9930
vn -0.0118 0.1179 0.9930
vn -0.0095 0.0633 -0.9979
vn -0.0196 0.1194 -0.9927
vn -0.0186 0.1189 0.9927
vn -0.0059 0.0501 0.9987
vn -0.0057 0.0362 0.9993
vn 0.0020 -0.0180 0.9998
vn 0.0995 -0.9950 -0.0000
vn 0.1479 -0.9890 -0.0000
vn 0.1159 -0.9933 -0.0000
vn 0.0028 -0.0179 0.9998
vn 0.1643 -0.9864 -0.0000
vn 0.0020 -0.0180 -0.9998
vn 0.0028 -0.0179 -0.9998
vn -0.0354 0.0549 -0.9979
vn 0.1787 -0.9839 -0.0000
vn -0.0563 0.0205 -0.9982
vn -0.0877 0.0532 -0.9947
vn -0.0578 0.1030 -0.9930
vn -0.0873 0.0376 -0.9955
vn -0.0354 0.0549 0.9979
vn -0.0578 0.1030 0.9930
vn -0.0877 0.0533 0.9947
vn -0.0873 0.0376 0.9955
vn -0.0563 0.0205 0.9982
vn 0.1773 -0.9842 -0.0000
vn 0.0080 -1.0000 -0.0000
vn -0.0003 0.0141 -0.9999
vn 0.0003 -0.0341 -0.9994
vn -0.0003 0.0624 -0.9981
vn -0.0009 0.1105 -0.9939
vn -0.0080 1.0000 -0.0000
vn -1.0000 -0.0000 -0.0000
vn -0.0003 0.0624 0.9981
vn -0.0009 0.1105 0.9939
vn -0.0003 0.0141 0.9999
vn 0.0003 -0.0341 0.9994
vn 1.0000 0.0006 -0.0000
vn 1.0000 0.0010 -0.0000
vn 1.0000 0.0011 0.0009
vn 1.0000 0.0017 -0.0000
vn 1.0000 0.0011 -0.0009
vn -0.0007 0.4534 0.8913
vn -0.0008 0.3135 0.9496
vn -0.0001 0.0583 0.9983
vn 0.0019 0.9456 0.3254
vn 0.0020 0.8567 0.5158
vn -1.0000 -0.0006 -0.0000
vn -1.0000 -0.0011 0.0009
vn -1.0000 -0.0010 -0.0000
vn 0.0001 -0.0583 0.9983
vn 0.0008 -0.3135 0.9496
vn 0.0007 -0.4534 0.8913
vn -0.0020 -0.8567 0.5158
vn -0.0019 -0.9456 0.3254
vn -1.0000 -0.0011 -0.0009
vn -1.0000 -0.0017 -0.0000
vn -0.0016 -0.9938 -0.1108
vn -0.0016 -0.9938 0.1109
vn -0.0020 -0.8562 -0.5167
vn -0.0019 -0.9457 -0.3251
vn 0.0008 -0.3136 -0.9496
vn 0.0007 -0.4541 -0.8910
vn 0.0001 -0.0585 -0.9983
vn -0.0001 0.0585 -0.9983
vn -0.0008 0.3136 -0.9496
vn -0.0007 0.4541 -0.8910
vn 0.0020 0.8562 -0.5167
vn 0.0019 0.9457 -0.3251
vn 0.0016 0.9938 -0.1108
vn 0.0016 0.9938 0.1109
vt 0.023508 0.535156
vt 0.363281 0.519007
vt 0.023508 0.446391
vt 0.011719 0.535156
vt 0.011719 0.446391
vt 0.023508 0.371094
vt 0.363281 0.374302
vt 0.363281 0.446655
vt 0.011719 0.371094
vt 0.353784 0.833084
vt 0.353378 0.802916
vt 0.488281 0.822133
vt 0.488281 0.791926
vt 0.488281 0.761719
vt 0.352972 0.772748
vt 0.239423 0.834785
vt 0.238654 0.804718
vt 0.133402 0.882364
vt 0.132296 0.852447
vt 0.240191 0.864852
vt 0.134507 0.912279
vt 0.029795 0.944358
vt 0.022740 0.981560
vt 0.016137 0.953000
vt 0.025239 0.918348
vt 0.011719 0.988281
vt 0.628906 0.542969
vt 0.629632 0.363281
vt 0.691131 0.363281
vt 0.690405 0.542969
vt 0.746094 0.363281
vt 0.745368 0.542969
vt 0.544922 0.375318
vt 0.500000 0.363281
vt 0.500000 0.453125
vt 0.455078 0.375318
vt 0.422193 0.408203
vt 0.410156 0.453125
vt 0.422193 0.498047
vt 0.455078 0.530932
vt 0.500000 0.542969
vt 0.544922 0.530932
vt 0.577807 0.498047
vt 0.589844 0.453125
vt 0.577807 0.408204
s 1
f 4/1/1 1/1/1 2/2/2
f 1/1/1 3/2/2 2/2/2
f 1/1/3 7/3/4 3/2/5
f 1/1/1 4/1/1 5/4/6
f 6/4/6 1/1/1 5/4/6
f 7/3/4 1/1/3 6/4/7
f 8/5/8 7/3/4 6/4/7
f 9/6/9 7/3/4 8/5/8
f 7/3/4 9/6/9 10/7/10
f 7/3/4 11/8/11 3/2/5
f 11/8/11 7/3/4 10/7/10
f 3/2/12 11/8/12 13/8/12
f 11/8/12 10/7/12 12/7/12
f 13/8/12 11/8/12 12/7/12
f 14/3/13 13/8/14 15/6/15
f 2/2/16 13/8/14 14/3/13
f 2/2/12 3/2/12 13/8/12
f 13/8/14 12/7/17 15/6/15
f 15/6/18 9/6/18 16/9/19
f 9/6/18 15/6/18 10/7/20
f 15/6/18 12/7/20 10/7/20
f 17/9/19 15/6/18 16/9/19
f 14/3/13 15/6/15 17/9/21
f 18/5/22 14/3/13 17/9/21
f 4/1/23 14/3/13 18/5/22
f 5/4/24 4/1/23 18/5/22
f 16/9/25 9/6/9 8/5/8
f 4/1/23 2/2/16 14/3/13
f 22/10/26 20/11/27 19/12/28
f 20/11/27 21/13/29 19/12/28
f 22/10/30 19/12/31 23/12/31
f 24/10/32 22/10/33 23/12/31
f 24/10/34 23/12/35 25/13/36
f 26/11/37 24/10/34 25/13/36
f 26/11/37 25/13/36 27/14/38
f 28/15/39 26/11/37 27/14/38
f 28/15/40 27/14/41 21/13/29
f 20/11/27 29/16/42 28/15/40
f 29/16/42 30/17/43 28/15/40
f 28/15/39 30/17/44 26/11/37
f 20/11/27 28/15/40 21/13/29
f 32/18/45 31/19/46 30/17/43
f 30/17/44 31/19/47 33/16/48
f 29/16/42 32/18/45 30/17/43
f 30/17/44 33/16/48 26/11/37
f 31/19/47 34/18/49 33/16/48
f 26/11/37 33/16/48 24/10/34
f 33/16/48 35/20/50 24/10/34
f 33/16/48 34/18/49 35/20/50
f 35/20/51 36/21/52 37/20/53
f 34/18/49 36/21/54 35/20/50
f 35/20/51 37/20/53 22/10/33
f 24/10/32 35/20/51 22/10/33
f 36/21/52 38/21/55 37/20/53
f 37/20/56 38/21/57 29/16/42
f 37/20/56 29/16/42 20/11/27
f 22/10/26 37/20/56 20/11/27
f 38/21/57 32/18/45 29/16/42
f 41/22/58 32/18/45 38/21/57
f 36/21/52 40/23/59 38/21/55
f 40/23/59 39/23/59 38/21/55
f 39/23/60 41/22/58 38/21/57
f 41/22/58 39/23/60 43/24/61
f 41/22/58 42/25/62 31/19/46
f 42/25/62 41/22/58 43/24/61
f 32/18/45 41/22/58 31/19/46
f 39/23/60 45/26/63 43/24/61
f 44/22/64 42/25/65 43/24/66
f 45/26/67 40/23/68 43/24/66
f 40/23/68 44/22/64 43/24/66
f 39/23/59 40/23/59 45/26/69
f 42/25/65 44/22/64 31/19/47
f 44/22/64 40/23/68 36/21/54
f 34/18/49 44/22/64 36/21/54
f 44/22/64 34/18/49 31/19/47
f 49/27/70 46/28/70 47/27/70
f 46/28/70 48/28/70 47/27/70
f 50/29/71 46/28/72 49/27/72
f 51/30/73 50/29/71 49/27/72
f 52/31/74 50/29/71 51/30/73
f 53/31/75 52/31/75 54/32/75
f 54/32/74 52/31/74 51/30/73
f 55/32/75 53/31/75 54/32/75
f 55/32/76 54/32/76 51/30/76
f 56/29/77 53/31/78 55/32/78
f 57/30/76 55/32/76 49/27/76
f 49/27/76 55/32/76 51/30/76
f 57/30/79 56/29/77 55/32/78
f 47/27/76 57/30/76 49/27/76
f 47/27/80 48/28/80 57/30/79
f 48/28/80 56/29/77 57/30/79
f 70/33/81 59/34/81 58/35/82
f 59/34/81 60/36/81 58/35/82
f 60/36/81 61/37/83 58/35/82
f 61/37/83 62/38/84 58/35/82
f 62/38/84 63/39/85 58/35/82
f 63/39/85 64/40/81 58/35/82
f 64/40/81 65/41/81 58/35/82
f 65/41/81 66/42/81 58/35/82
f 66/42/81 67/43/83 58/35/82
f 67/43/83 68/44/84 58/35/82
f 68/44/84 69/45/85 58/35/82
f 69/45/85 70/33/81 58/35/82
f 70/33/86 72/33/87 59/34/88
f 69/45/89 71/45/90 70/33/86
f 71/45/90 72/33/87 70/33/86
f 72/33/91 71/45/92 73/35/93
f 74/34/91 72/33/91 73/35/93
f 72/33/87 74/34/94 59/34/88
f 59/34/88 74/34/94 60/36/95
f 74/34/94 75/36/96 60/36/95
f 75/36/91 74/34/91 73/35/93
f 60/36/95 75/36/96 61/37/97
f 75/36/96 76/37/98 61/37/97
f 76/37/99 75/36/91 73/35/93
f 77/38/100 76/37/99 73/35/93
f 76/37/98 77/38/101 62/38/102
f 61/37/97 76/37/98 62/38/102
f 78/39/92 77/38/100 73/35/93
f 77/38/101 78/39/103 63/39/104
f 62/38/102 77/38/101 63/39/104
f 79/40/91 78/39/92 73/35/93
f 78/39/103 79/40/105 64/40/106
f 63/39/104 78/39/103 64/40/106
f 64/40/106 79/40/105 65/41/107
f 79/40/105 80/41/108 65/41/107
f 80/41/91 79/40/91 73/35/93
f 65/41/107 80/41/108 66/42/109
f 80/41/108 81/42/110 66/42/109
f 81/42/91 80/41/91 73/35/93
f 66/42/109 81/42/110 67/43/111
f 81/42/110 82/43/112 67/43/111
f 82/43/99 81/42/91 73/35/93
f 67/43/111 82/43/112 68/44/113
f 82/43/112 83/44/114 68/44/113
f 83/44/100 82/43/99 73/35/93
f 68/44/113 83/44/114 69/45/89
f 83/44/114 71/45/90 69/45/89
f 71/45/92 83/44/100 73/35/93
o blade_damaged
v -39.045097 -2.234805 -0.566752
v -124.780418 1.387119 -0.668232
v -39.048714 3.373047 -0.668232
v -124.519058 -4.213580 -0.566752
v -39.045097 -2.234805 0.566756
v -124.519058 -4.213580 0.566756
v -39.048714 3.373047 0.668236
v -39.052326 8.980781 0.000001
v -124.780418 1.387119 0.668236
v -125.041893 6.987700 0.000001
v -32.792900 -2.955400 -2.265600
v 41.740303 -1.959199 2.265600
v 41.740303 -1.959200 -2.265600
v -32.792900 -2.955400 2.265600
v -35.379101 -2.955400 2.265600
v -35.379101 -2.955400 -2.265600
v -32.792900 3.610700 -3.566900
v 41.740292 3.610699 -3.566900
v -35.379101 3.610700 -3.566900
v -32.792900 9.180600 -2.265601
v 41.740299 9.180600 -2.265601
v -32.792900 9.180600 2.265599
v 41.740299 9.180600 2.265599
v 41.740292 3.610700 3.566900
v -32.792900 3.610700 3.566900
v -35.379101 3.610700 3.566900
v -35.379101 9.180600 2.265599
v -35.379101 9.180600 -2.265601
v -34.864807 3.600123 0.000003
v -34.864807 3.600123 14.718282
v -34.859024 -5.331362 14.332397
v -34.854847 -11.876574 8.278175
v -34.837887 -12.288166 0.000007
v -34.854847 -11.876559 -8.278152
v -34.859024 -5.331365 -14.332393
v -34.864807 3.600124 -14.718276
v -34.870560 12.535231 -14.334940
v -34.874779 19.075148 -8.276183
v -34.891727 19.488411 -0.000001
v -34.874779 19.075172 8.276033
v -34.870560 12.535221 14.334933
v -37.428646 19.080320 8.277976
v -37.424465 12.535163 14.332397
v -37.418686 3.603676 14.718282
v -37.418682 3.603677 0.000003
v -37.408710 -11.871348 -8.276175
v -37.412930 -5.331433 -14.334947
v -37.418682 3.603678 -14.718276
v -37.424465 12.535165 -14.332391
v -37.428642 19.080368 -8.278162
v -37.412930 -5.331417 14.334929
v -37.445606 19.491968 -0.000001
v -37.408710 -11.871343 8.276191
v -37.391762 -12.284614 0.000007
v -34.015800 -2.157500 -1.099300
v -42.484100 -2.225600 1.099300
v -34.015800 -2.157500 1.099300
v -42.484100 -2.225600 -1.099300
v -34.015800 3.610700 -1.295900
v -42.484100 3.542600 -1.295900
v -34.015800 8.765900 -0.723001
v -34.015800 8.765900 0.722999
v -42.484100 8.697800 -0.723001
v -42.484100 8.697800 0.722999
v -34.015800 3.610700 1.295900
v -42.484100 3.542600 1.295900
vn 0.0004 -0.0181 -0.9998
vn -0.0007 0.0274 -0.9996
vn -0.0005 0.0276 -0.9996
vn -0.0018 0.0729 -0.9973
vn 0.0231 -0.9997 -0.0000
vn 0.0004 -0.0181 0.9998
vn -0.0006 0.0274 0.9996
vn -0.0017 0.0729 0.9973
vn -0.0007 0.0275 0.9996
vn -0.0027 0.1183 0.9930
vn -0.0017 0.0730 0.9973
vn -0.0027 0.1183 -0.9930
vn -0.0016 0.0730 -0.9973
vn 0.0067 -1.0000 -0.0000
vn 0.0134 -0.9999 -0.0000
vn 0.0013 -0.1944 -0.9809
vn 0.0004 -0.0187 -0.9998
vn 0.0013 -0.2110 -0.9775
vn -0.0000 -1.0000 -0.0000
vn -0.0000 -0.1944 -0.9809
vn -0.0000 -0.0000 -1.0000
vn -0.0000 0.2275 -0.9738
vn -0.0000 0.0886 -0.9961
vn -0.0000 1.0000 -0.0000
vn 1.0000 -0.0000 -0.0000
vn -0.0000 0.0776 0.9970
vn -0.0000 0.2275 0.9738
vn 0.0004 0.0114 0.9999
vn 0.0013 -0.2110 0.9775
vn 0.0013 -0.1944 0.9809
vn -0.0000 -0.0549 0.9985
vn -0.0000 -0.1944 0.9809
vn 1.0000 0.0006 -0.0000
vn 1.0000 0.0010 -0.0000
vn 1.0000 0.0011 0.0009
vn 1.0000 0.0017 -0.0000
vn 1.0000 0.0011 -0.0009
vn -0.0007 0.4534 0.8913
vn -0.0008 0.3135 0.9496
vn -0.0001 0.0583 0.9983
vn 0.0019 0.9456 0.3254
vn 0.0020 0.8567 0.5158
vn 0.0001 -0.0583 0.9983
vn -1.0000 -0.0006 -0.0000
vn -1.0000 -0.0010 -0.0000
vn -1.0000 -0.0011 0.0009
vn -1.0000 -0.0017 -0.0000
vn -1.0000 -0.0011 -0.0009
vn -0.0017 -0.9938 0.1109
vn -0.0017 -0.9938 -0.1108
vn -0.0020 -0.9457 -0.3251
vn -0.0020 -0.9456 0.3254
vn -0.0020 -0.8562 -0.5167
vn -0.0021 -0.8567 0.5158
vn 0.0007 -0.4534 0.8913
vn 0.0017 0.9938 -0.1108
vn 0.0017 0.9938 0.1109
vn 0.0020 0.9457 -0.3251
vn 0.0008 -0.3135 0.9496
vn 0.0020 0.8562 -0.5167
vn -0.0007 0.4541 -0.8910
vn -0.0008 0.3136 -0.9496
vn -0.0001 0.0585 -0.9983
vn 0.0008 -0.3136 -0.9496
vn 0.0001 -0.0585 -0.9983
vn 0.0007 -0.4541 -0.8910
vn 0.0080 -1.0000 -0.0000
vn -0.0003 0.0141 -0.9999
vn 0.0003 -0.0341 -0.9994
vn -0.0003 0.0624 -0.9981
vn -0.0009 0.1105 -0.9939
vn -0.0080 1.0000 -0.0000
vn -1.0000 -0.0000 -0.0000
vn -0.0003 0.0141 0.9999
vn -0.0003 0.0624 0.9981
vn -0.0009 0.1105 0.9939
vn 0.0003 -0.0341 0.9994
vt 0.014576 0.988281
vt 0.013148 0.892507
vt 0.488281 0.953516
vt 0.488281 0.857616
vt 0.488281 0.761719
vt 0.011719 0.796734
vt 0.023508 0.535156
vt 0.363281 0.521689
vt 0.023508 0.446391
vt 0.011719 0.535156
vt 0.363281 0.446391
vt 0.363281 0.371094
vt 0.011719 0.446391
vt 0.023508 0.371094
vt 0.011719 0.371094
vt 0.544922 0.375318
vt 0.500000 0.363281
vt 0.500000 0.453125
vt 0.455078 0.375318
vt 0.422193 0.408203
vt 0.410156 0.453125
vt 0.422193 0.498047
vt 0.455078 0.530932
vt 0.500000 0.542969
vt 0.544922 0.530932
vt 0.577807 0.498047
vt 0.589844 0.453125
vt 0.577807 0.408204
vt 0.628906 0.542969
vt 0.629632 0.363281
vt 0.691131 0.363281
vt 0.690405 0.542969
vt 0.746094 0.363281
vt 0.745368 0.542969
s 1
f 87/46/115 85/47/116 84/48/115
f 85/47/117 86/49/118 84/48/115
f 87/46/119 84/48/119 88/48/119
f 89/46/119 87/46/119 88/48/119
f 89/46/120 88/48/120 90/49/121
f 92/47/122 90/49/123 91/50/124
f 92/47/122 89/46/120 90/49/123
f 93/51/124 92/47/125 91/50/124
f 93/51/126 91/50/126 86/49/127
f 85/47/117 93/51/126 86/49/118
f 97/52/128 94/52/128 95/53/129
f 94/52/128 96/53/129 95/53/129
f 94/52/130 100/54/131 96/53/132
f 94/52/128 97/52/128 98/55/133
f 99/55/133 94/52/128 98/55/133
f 100/54/131 94/52/130 99/55/134
f 101/56/135 100/54/131 104/57/136
f 100/54/131 101/56/135 96/53/132
f 102/58/137 100/54/131 99/55/134
f 103/59/136 100/54/131 102/58/137
f 100/54/131 103/59/136 104/57/136
f 103/59/138 105/59/138 104/57/138
f 105/59/138 106/57/138 104/57/138
f 101/56/139 104/57/139 106/57/139
f 107/56/140 106/57/141 105/59/141
f 107/56/139 101/56/139 106/57/139
f 96/53/139 101/56/139 107/56/139
f 108/54/142 107/56/140 105/59/141
f 95/53/143 107/56/140 108/54/142
f 95/53/139 96/53/139 107/56/139
f 97/52/144 108/54/142 109/58/145
f 97/52/144 95/53/143 108/54/142
f 108/54/142 105/59/141 110/60/141
f 109/58/145 108/54/142 110/60/141
f 110/60/138 105/59/138 111/60/138
f 105/59/138 103/59/138 111/60/138
f 111/60/136 103/59/136 102/58/137
f 98/55/146 97/52/144 109/58/145
f 124/61/147 113/62/147 112/63/148
f 113/62/147 114/64/147 112/63/148
f 114/64/147 115/65/149 112/63/148
f 115/65/149 116/66/150 112/63/148
f 116/66/150 117/67/151 112/63/148
f 117/67/151 118/68/147 112/63/148
f 118/68/147 119/69/147 112/63/148
f 119/69/147 120/70/147 112/63/148
f 120/70/147 121/71/149 112/63/148
f 121/71/149 122/72/150 112/63/148
f 122/72/150 123/73/151 112/63/148
f 123/73/151 124/61/147 112/63/148
f 124/61/152 126/61/153 113/62/154
f 123/73/155 125/73/156 124/61/152
f 125/73/156 126/61/153 124/61/152
f 126/61/153 127/62/157 113/62/154
f 127/62/158 126/61/158 128/63/159
f 126/61/158 125/73/160 128/63/159
f 130/68/158 129/67/160 128/63/159
f 129/67/160 137/66/161 128/63/159
f 131/69/158 130/68/158 128/63/159
f 132/70/158 131/69/158 128/63/159
f 133/71/162 132/70/158 128/63/159
f 134/64/158 127/62/158 128/63/159
f 135/72/161 133/71/162 128/63/159
f 136/65/162 134/64/158 128/63/159
f 125/73/160 135/72/161 128/63/159
f 137/66/161 136/65/162 128/63/159
f 116/66/163 137/66/164 117/67/165
f 136/65/166 137/66/164 116/66/163
f 137/66/164 129/67/167 117/67/165
f 115/65/168 136/65/166 116/66/163
f 134/64/169 136/65/166 115/65/168
f 122/72/170 135/72/171 123/73/155
f 133/71/172 135/72/171 122/72/170
f 135/72/171 125/73/156 123/73/155
f 114/64/173 134/64/169 115/65/168
f 127/62/157 134/64/169 114/64/173
f 121/71/174 133/71/172 122/72/170
f 132/70/175 133/71/172 121/71/174
f 120/70/176 132/70/175 121/71/174
f 131/69/177 132/70/175 120/70/176
f 130/68/178 131/69/177 119/69/179
f 119/69/179 131/69/177 120/70/176
f 129/67/167 130/68/178 118/68/180
f 118/68/180 130/68/178 119/69/179
f 117/67/165 129/67/167 118/68/180
f 113/62/154 127/62/157 114/64/173
f 141/74/181 138/75/181 139/74/181
f 138/75/181 140/75/181 139/74/181
f 142/76/182 138/75/183 141/74/183
f 143/77/184 142/76/182 141/74/183
f 144/78/185 142/76/182 143/77/184
f 145/78/186 144/78/186 146/79/186
f 146/79/185 144/78/185 143/77/184
f 147/79/186 145/78/186 146/79/186
f 147/79/187 146/79/187 143/77/187
f 149/77/188 148/76/189 147/79/190
f 148/76/189 145/78/190 147/79/190
f 149/77/187 147/79/187 141/74/187
f 141/74/187 147/79/187 143/77/187
f 140/75/191 148/76/189 149/77/188
f 139/74/191 140/75/191 149/77/188
f 139/74/187 149/77/187 141/74/187
o blade_fragment
v -334.542053 -32.319374 -0.566752
v -341.547424 -33.581276 0.000003
v -334.542053 -32.319374 0.566756
v -338.726898 -27.024656 0.000002
v -330.045776 -25.402756 -0.668232
v -263.501740 -19.314333 -0.566753
v -264.192993 -13.761062 -0.668233
v -263.501740 -19.314333 0.566755
v -196.811768 -4.793106 -0.668234
v -196.334976 -10.375010 -0.566753
v -196.334976 -10.375010 0.566755
v -124.394875 1.267876 -0.668234
v -124.148445 -4.333370 -0.566754
v -124.148445 -4.333370 0.566754
v -124.394875 1.267876 0.668234
v -196.811768 -4.793106 0.668234
v -264.192993 -13.761062 0.668235
v -197.288712 0.788915 -0.000000
v -264.884369 -8.207438 0.000001
v -330.045776 -25.402756 0.668236
v -332.930847 -20.578873 0.000002
v -124.641411 6.869002 -0.000001
vn -0.0563 0.0205 -0.9982
vn -0.0873 0.0376 -0.9955
vn -0.0877 0.0532 -0.9947
vn 0.1787 -0.9839 -0.0000
vn 0.1773 -0.9842 -0.0000
vn 0.1642 -0.9864 -0.0000
vn -0.0354 0.0549 -0.9979
vn 0.0028 -0.0179 -0.9998
vn -0.0093 0.0634 -0.9979
vn -0.0049 0.0501 -0.9987
vn 0.1479 -0.9890 -0.0000
vn 0.1159 -0.9933 -0.0000
vn 0.0020 -0.0180 -0.9998
vn -0.0023 0.0275 -0.9996
vn 0.0995 -0.9950 -0.0000
vn 0.0834 -0.9965 -0.0000
vn 0.0015 -0.0180 -0.9998
vn -0.0061 0.0729 0.9973
vn -0.0059 0.0502 0.9987
vn 0.0015 -0.0180 0.9998
vn 0.0020 -0.0180 0.9998
vn -0.0186 0.1189 0.9927
vn -0.0057 0.0362 0.9993
vn -0.0118 0.1179 0.9930
vn -0.0196 0.1194 -0.9927
vn -0.0578 0.1030 -0.9930
vn -0.0578 0.1030 0.9930
vn -0.0354 0.0549 0.9979
vn -0.0136 0.1177 -0.9930
vn -0.0877 0.0533 0.9947
vn -0.0563 0.0205 0.9982
vn 0.0028 -0.0179 0.9998
vn -0.0099 0.1180 -0.9930
vn -0.0099 0.1180 0.9930
vn -0.0873 0.0376 0.9955
vt 0.027074 0.981216
vt 0.011719 0.988281
vt 0.017874 0.951195
vt 0.182787 0.908389
vt 0.036902 0.942111
vt 0.181247 0.876944
vt 0.328954 0.826930
vt 0.330024 0.858536
vt 0.487716 0.793430
vt 0.488281 0.825142
vt 0.179706 0.845496
vt 0.327884 0.795324
vt 0.030555 0.914770
vt 0.487151 0.761719
s 1
f 150/80/192 151/81/193 153/82/194
f 150/80/195 152/80/195 151/81/196
f 152/80/195 150/80/195 155/83/197
f 154/84/198 150/80/192 153/82/194
f 150/80/192 154/84/198 155/83/199
f 154/84/198 156/85/200 155/83/199
f 155/83/199 156/85/200 158/86/201
f 157/83/202 155/83/197 159/87/203
f 157/83/202 152/80/195 155/83/197
f 159/87/204 155/83/199 158/86/201
f 159/87/204 158/86/201 161/88/205
f 160/87/206 159/87/203 162/89/207
f 160/87/206 157/83/202 159/87/203
f 162/89/208 159/87/204 161/88/205
f 163/89/207 160/87/206 162/89/207
f 164/88/209 165/86/210 163/89/211
f 165/86/210 160/87/212 163/89/211
f 168/90/213 166/85/214 165/86/210
f 165/86/210 166/85/214 160/87/212
f 167/91/215 165/86/210 164/88/209
f 167/91/215 168/90/213 165/86/210
f 156/85/200 154/84/198 168/90/216
f 154/84/198 170/92/217 168/90/216
f 170/92/218 169/84/219 168/90/213
f 169/84/219 166/85/214 168/90/213
f 156/85/200 168/90/216 167/91/220
f 169/84/219 170/92/218 153/82/221
f 170/92/217 154/84/198 153/82/194
f 152/80/222 169/84/219 153/82/221
f 166/85/214 169/84/219 157/83/223
f 169/84/219 152/80/222 157/83/223
f 158/86/201 167/91/220 171/93/224
f 158/86/201 156/85/200 167/91/220
f 171/93/225 167/91/215 164/88/209
f 161/88/205 158/86/201 171/93/224
f 166/85/214 157/83/223 160/87/212
f 151/81/226 152/80/222 153/82/221
o sheath
v -35.532928 -4.634296 -3.483364
v -122.260742 -7.373224 3.857580
v -35.532928 -4.634295 3.483364
v -122.260742 -7.373225 -3.857579
v -122.758987 1.410852 -6.465956
v -35.166859 3.708340 -5.343424
v -35.166859 3.708341 5.343423
v -122.758987 1.410853 6.465956
v -35.570492 12.050495 3.483363
v -35.570492 12.050495 -3.483365
v -123.257347 10.194930 3.857579
v -194.325821 4.297106 3.857580
v -123.257347 10.194930 -3.857581
v -194.325821 4.297105 -3.857580
v -260.450104 -4.483840 -3.857580
v -259.068634 -13.173633 -6.465955
v -193.371124 -4.449447 -6.465956
v -192.416702 -13.195884 -3.857579
v -257.687378 -21.863312 -3.857578
v -337.943726 -37.049389 -3.735313
v -337.943726 -37.049389 3.735319
v -257.687378 -21.863312 3.857582
v -259.068634 -13.173631 6.465957
v -192.416702 -13.195884 3.857581
v -193.371124 -4.449446 6.465957
v -260.450104 -4.483839 3.857580
v -341.683563 -19.550928 -3.735314
v -341.683563 -19.550928 3.735317
v -340.217102 -28.386606 5.729938
v -340.217102 -28.386606 -5.729934
v -35.467033 -4.153358 -2.735048
v -35.457279 10.412830 -2.735049
v -35.467033 -4.153358 2.735048
v -35.457279 10.412830 2.735047
v -35.461735 3.758373 -4.221008
v -35.461735 3.758373 4.221007
v -337.486664 -35.412895 -2.735045
v -340.634460 -20.888948 -2.735046
v -337.486664 -35.412895 2.735051
v -340.634460 -20.888948 2.735050
v -339.060486 -28.150925 -4.221006
v -339.060486 -28.150925 4.221010
v -257.904907 -20.520561 -2.735047
v -260.231232 -5.844098 -2.735048
v -257.904907 -20.520561 2.735049
v -260.231232 -5.844098 2.735049
v -259.067963 -13.182447 -4.221007
v -259.067963 -13.182447 4.221009
v -192.563873 -11.841107 -2.735047
v -194.177261 2.929916 -2.735048
v -192.563873 -11.841107 2.735049
v -194.177261 2.929917 2.735048
v -193.370483 -4.455652 -4.221007
v -193.370483 -4.455651 4.221008
v -122.334953 -6.009948 -2.735048
v -123.182228 8.824807 -2.735049
v -122.334953 -6.009948 2.735049
v -123.182228 8.824807 2.735047
v -122.758537 1.407430 -4.221008
v -122.758537 1.407431 4.221008
v -337.486664 -35.412895 -2.735045
v -339.060486 -28.150925 -4.221006
v -337.486664 -35.412895 2.735051
v -339.060486 -28.150925 4.221010
v -340.634460 -20.888948 2.735050
v -340.634460 -20.888948 -2.735046
v -103.135185 -6.017891 -3.134203
v -103.135185 -6.017891 3.134320
v -103.225624 1.896344 -5.019436
v -99.029907 2.009949 -5.019436
v -99.057159 -5.907549 -3.134203
v -99.057159 -5.907549 3.134320
v -103.225624 1.896344 5.019436
v -99.029907 2.009950 5.019436
v -99.002678 9.927448 -3.134320
v -99.002678 9.927448 3.134203
v -103.315956 9.810697 3.134203
v -103.315956 9.810697 -3.134320
vn 0.0657 -0.9978 -0.0000
vn 0.0316 -0.9995 -0.0000
vn 0.0486 -0.9988 -0.0000
vn 0.9999 -0.0130 -0.0000
vn 0.9990 -0.0438 -0.0000
vn 0.0156 -0.2512 -0.9678
vn 0.0183 -0.2837 -0.9588
vn 0.0089 -0.0420 -0.9991
vn 0.0128 -0.0000 -0.9999
vn 0.9998 0.0175 -0.0000
vn 0.0128 -0.0000 0.9999
vn 0.0024 0.2514 0.9679
vn 0.0019 0.0419 0.9991
vn 0.0156 -0.2512 0.9678
vn 0.9988 0.0483 -0.0000
vn -0.0212 0.9998 -0.0000
vn -0.0520 0.9986 -0.0000
vn -0.0128 0.2840 0.9587
vn -0.0282 0.2828 0.9588
vn -0.0990 0.9951 -0.0000
vn -0.1154 0.9933 -0.0000
vn -0.1485 0.9889 -0.0000
vn -0.0084 0.0411 -0.9991
vn -0.0453 0.2806 -0.9588
vn -0.0328 0.2823 -0.9588
vn 0.0025 0.0002 -1.0000
vn -0.0163 0.2838 -0.9588
vn 0.0281 -0.2829 -0.9587
vn 0.0422 -0.2811 -0.9588
vn 0.1859 -0.9826 -0.0000
vn 0.1680 -0.9858 -0.0000
vn 0.0416 -0.2481 -0.9678
vn 0.1497 -0.9887 -0.0000
vn 0.1154 -0.9933 -0.0000
vn 0.0028 -0.0424 0.9991
vn 0.0444 -0.2807 0.9588
vn 0.0327 -0.2824 0.9588
vn 0.0416 -0.2481 0.9678
vn 0.0990 -0.9951 -0.0000
vn -0.0024 -0.0003 1.0000
vn 0.0200 -0.2835 0.9587
vn -0.0427 0.2810 0.9588
vn -0.1656 0.9862 -0.0000
vn -0.1824 0.9832 -0.0000
vn -0.0510 0.2459 0.9680
vn -0.9810 -0.1941 -0.0000
vn -0.9865 -0.1637 -0.0000
vn -0.0087 -0.0018 1.0000
vn -0.9746 -0.2239 -0.0000
vn -0.9672 -0.2538 -0.0000
vn -0.0087 -0.0018 -1.0000
vn -0.0510 0.2459 -0.9680
vn 0.0024 0.2514 -0.9679
vn 0.0361 -0.1928 -0.9806
vn -0.0124 0.0656 -0.9978
vn 0.0017 0.0003 -1.0000
vn 0.0293 -0.1939 -0.9806
vn 0.0123 -0.0651 0.9978
vn 0.0361 -0.1928 0.9806
vn 0.0327 -0.1934 0.9806
vn -0.0017 -0.0003 1.0000
vn 0.1839 -0.9829 -0.0000
vn 0.1666 -0.9860 -0.0000
vn 0.1491 -0.9888 -0.0000
vn -0.0361 0.1928 -0.9806
vn -0.0327 0.1934 -0.9806
vn -0.1839 0.9829 -0.0000
vn -0.1666 0.9860 -0.0000
vn -0.1491 0.9888 -0.0000
vn -0.0361 0.1928 0.9806
vn -0.0293 0.1939 0.9806
vn 0.0017 0.0002 -1.0000
vn 0.0195 -0.1952 -0.9806
vn 0.0226 -0.1948 0.9806
vn -0.0016 -0.0002 1.0000
vn 0.1155 -0.9933 -0.0000
vn -0.0227 0.1948 -0.9806
vn -0.0195 0.1952 0.9806
vn 0.0020 0.0038 -1.0000
vn 0.0085 -0.1921 -0.9813
vn 0.0122 -0.1957 0.9806
vn -0.0024 0.0333 0.9994
vn 0.0624 -0.9981 -0.0000
vn 0.0417 -0.9991 -0.0000
vn -0.0119 0.1958 -0.9806
vn -0.0504 0.9987 -0.0000
vn -0.0099 0.1959 0.9806
vn 0.0046 -0.1904 0.9817
vn -0.0005 0.0172 0.9999
vn 0.0214 -0.9998 -0.0000
vn -0.0047 0.2071 0.9783
vn -0.0181 0.9998 -0.0000
vn -0.0047 0.2071 -0.9783
vn 0.0011 -0.0551 -0.9985
vn 0.0039 -0.1846 -0.9828
vn 1.0000 -0.0007 -0.0000
vn -0.9773 -0.2118 -0.0000
vn 0.0270 -0.9996 -0.0000
vn -0.9999 -0.0114 -0.0000
vn 0.0063 -0.2317 -0.9728
vn -0.0009 0.0789 -0.9969
vn 0.0020 -0.0788 -0.9969
vn -0.0020 0.0794 0.9968
vn 0.0009 -0.0794 0.9968
vn 0.0063 -0.2316 0.9728
vn 1.0000 -0.0034 -0.0000
vn -0.0063 0.2316 0.9728
vn -0.0271 0.9996 -0.0000
vn -0.0063 0.2316 -0.9728
vt 0.352875 0.633003
vt 0.487720 0.624855
vt 0.488281 0.599537
vt 0.352092 0.606343
vt 0.487645 0.574219
vt 0.351308 0.579684
vt 0.240814 0.597448
vt 0.138009 0.623971
vt 0.140166 0.650346
vt 0.242306 0.623994
vt 0.243799 0.650540
vt 0.142322 0.676721
vt 0.017551 0.722656
vt 0.011719 0.669544
vt 0.014008 0.696362
vt 0.016650 0.722656
vt 0.014184 0.699027
vt 0.139093 0.650501
vt 0.140917 0.674377
vt 0.011719 0.675397
vt 0.137269 0.626624
vt 0.241684 0.622251
vt 0.242951 0.646281
vt 0.240416 0.598221
vt 0.351952 0.603328
vt 0.352622 0.627461
vt 0.351283 0.579196
vt 0.488281 0.621609
vt 0.488281 0.595868
vt 0.488281 0.574219
vt 0.628906 0.511340
vt 0.628906 0.394910
vt 0.687500 0.542969
vt 0.687500 0.363281
vt 0.746094 0.394910
vt 0.746094 0.511340
vt 0.629684 0.397023
vt 0.628906 0.397023
vt 0.628906 0.509225
vt 0.687088 0.542969
vt 0.687889 0.542969
vt 0.629684 0.509225
vt 0.687889 0.363281
vt 0.687088 0.363281
vt 0.745271 0.397025
vt 0.746094 0.509227
vt 0.746094 0.397025
vt 0.745271 0.509227
s 1
f 175/94/227 172/95/228 173/94/229
f 172/95/228 174/95/228 173/94/229
f 178/96/230 174/95/231 172/95/231
f 172/95/232 175/94/233 176/97/234
f 177/96/235 172/95/232 176/97/234
f 177/96/236 178/96/230 172/95/231
f 178/96/237 180/98/238 179/97/239
f 174/95/240 178/96/237 179/97/239
f 180/98/241 178/96/230 177/96/236
f 181/98/241 180/98/241 177/96/236
f 180/98/242 181/98/242 182/99/243
f 180/98/238 182/99/244 179/97/239
f 182/99/244 183/100/245 179/97/239
f 185/100/246 183/100/247 182/99/243
f 181/98/242 184/99/243 182/99/243
f 184/99/243 185/100/246 182/99/243
f 185/100/246 186/101/248 183/100/247
f 187/102/249 186/101/250 185/100/251
f 188/103/252 187/102/249 185/100/251
f 188/103/252 185/100/251 184/99/253
f 176/97/234 188/103/252 184/99/253
f 189/104/254 188/103/252 176/97/234
f 190/105/255 187/102/249 188/103/252
f 189/104/254 190/105/255 188/103/252
f 192/106/256 191/106/256 190/105/257
f 190/105/255 191/106/258 187/102/249
f 193/105/259 192/106/256 190/105/257
f 193/105/259 190/105/257 189/104/260
f 194/102/261 193/105/262 195/104/263
f 192/106/264 193/105/262 194/102/261
f 195/104/265 193/105/259 189/104/260
f 196/103/266 194/102/261 195/104/263
f 195/104/265 189/104/260 175/94/227
f 196/103/266 195/104/263 173/94/267
f 173/94/229 195/104/265 175/94/227
f 183/100/245 196/103/266 179/97/239
f 183/100/245 197/101/268 196/103/266
f 197/101/268 194/102/261 196/103/266
f 179/97/239 196/103/266 173/94/267
f 186/101/248 197/101/269 183/100/247
f 186/101/248 198/107/270 197/101/269
f 198/107/270 199/107/270 197/101/269
f 197/101/268 199/107/271 194/102/261
f 200/108/272 199/107/273 198/107/273
f 199/107/271 200/108/274 194/102/261
f 201/108/275 200/108/272 198/107/273
f 192/106/276 200/108/272 201/108/275
f 200/108/274 192/106/264 194/102/261
f 191/106/276 192/106/276 201/108/275
f 191/106/258 201/108/277 187/102/249
f 201/108/277 198/107/278 187/102/249
f 198/107/278 186/101/250 187/102/249
f 175/94/233 189/104/254 176/97/234
f 184/99/253 181/98/279 176/97/234
f 181/98/279 177/96/235 176/97/234
f 173/94/267 174/95/240 179/97/239
f 208/109/280 212/110/281 218/111/282
f 214/112/283 208/109/280 218/111/282
f 213/110/284 210/109/285 216/112/286
f 219/111/287 213/110/284 216/112/286
f 210/109/288 208/109/288 214/112/289
f 216/112/290 210/109/288 214/112/289
f 212/110/281 209/113/291 215/114/292
f 218/111/282 212/110/281 215/114/292
f 209/113/293 211/113/293 217/114/294
f 215/114/295 209/113/293 217/114/294
f 211/113/296 213/110/284 219/111/287
f 217/114/297 211/113/296 219/111/287
f 214/112/283 218/111/282 224/115/298
f 220/116/299 214/112/283 224/115/298
f 219/111/287 216/112/286 222/116/300
f 225/115/301 219/111/287 222/116/300
f 216/112/290 214/112/289 220/116/302
f 222/116/265 216/112/290 220/116/302
f 218/111/282 215/114/292 221/117/303
f 224/115/298 218/111/282 221/117/303
f 215/114/295 217/114/294 223/117/247
f 221/117/246 215/114/295 223/117/247
f 217/114/297 219/111/287 225/115/301
f 223/117/304 217/114/297 225/115/301
f 220/116/299 224/115/298 230/118/305
f 226/119/306 220/116/299 230/118/305
f 225/115/301 222/116/300 228/119/307
f 231/118/308 225/115/301 228/119/307
f 222/116/265 220/116/302 226/119/309
f 228/119/310 222/116/265 226/119/309
f 224/115/298 221/117/303 227/120/311
f 230/118/305 224/115/298 227/120/311
f 221/117/246 223/117/247 229/120/312
f 227/120/312 221/117/246 229/120/312
f 223/117/304 225/115/301 231/118/308
f 229/120/313 223/117/304 231/118/308
f 204/121/314 207/122/315 231/118/308
f 228/119/307 204/121/314 231/118/308
f 202/121/316 204/121/316 228/119/310
f 226/119/309 202/121/316 228/119/310
f 205/123/317 229/120/313 231/118/308
f 207/122/315 205/123/317 231/118/308
f 203/123/318 227/120/312 229/120/312
f 205/123/318 203/123/318 229/120/312
f 203/123/319 206/122/320 230/118/305
f 227/120/311 203/123/319 230/118/305
f 206/122/320 202/121/321 226/119/306
f 230/118/305 206/122/320 226/119/306
f 205/123/322 207/122/322 206/122/322
f 203/123/322 205/123/322 206/122/322
f 207/122/322 204/121/322 202/121/322
f 206/122/322 207/122/322 202/121/322
f 232/124/323 234/125/323 233/126/323
f 234/125/323 235/127/323 233/126/323
f 235/127/323 236/128/323 237/129/323
f 233/126/323 235/127/323 237/129/323
f 243/130/324 239/131/324 238/132/324
f 239/131/325 240/133/325 238/132/325
f 238/132/326 240/133/327 241/134/328
f 242/135/326 238/132/326 241/134/328
f 242/135/324 243/130/324 238/132/324
f 245/136/329 244/137/330 243/130/331
f 244/137/330 239/131/331 243/130/331
f 242/135/332 241/134/332 243/130/332
f 245/136/332 243/130/332 241/134/332
f 248/138/333 244/137/330 245/136/329
f 246/139/332 245/136/332 241/134/332
f 246/139/332 247/140/332 245/136/332
f 247/140/333 248/138/333 245/136/329
f 249/141/334 248/138/334 247/140/334
f 249/141/325 240/133/325 248/138/325
f 248/138/325 240/133/325 244/137/325
f 240/133/327 249/141/335 246/139/335
f 246/139/334 249/141/334 247/140/334
f 241/134/328 240/133/327 246/139/335
f 240/133/325 239/131/325 244/137/325
o item_blade
v 26.590300 22.520599 11.862098
v 26.590300 22.520599 5.647598
v 33.175800 18.257101 13.730999
v 34.370899 19.927902 13.730998
v 27.751900 24.144600 11.862098
v 27.751900 24.144600 5.647598
v 34.370899 19.927900 3.778699
v 33.175800 18.257099 3.778699
v 39.761299 13.993600 5.647699
v 39.761299 13.993601 11.862199
v 40.990002 15.711200 5.647699
v 40.990002 15.711201 11.862199
v 0.000000 70.710701 -0.000005
v 70.710701 0.000000 0.000000
v 0.000000 55.656200 3.999996
v -55.656101 0.000000 4.000000
v -70.710701 0.000000 0.000000
v 0.000000 -55.656101 4.000004
v 0.000000 -70.710602 0.000005
v 55.656200 0.000000 4.000000
v 0.000000 70.710701 -0.000005
v 0.000000 55.656200 -4.000004
v 70.710701 0.000000 0.000000
v -55.656101 -0.000000 -4.000000
v -70.710701 0.000000 0.000000
v 0.000000 -55.656101 -3.999996
v 0.000000 -70.710602 0.000005
v 55.656200 -0.000000 -4.000000
v 0.000000 70.710701 -0.000005
v 70.710701 0.000000 0.000000
v 0.000000 55.656200 3.999996
v -55.656101 0.000000 4.000000
v -70.710701 0.000000 0.000000
v 0.000000 -55.656101 4.000004
v 0.000000 -70.710602 0.000005
v 55.656200 0.000000 4.000000
v 0.000000 70.710701 -0.000005
v 0.000000 55.656200 -4.000004
v 70.710701 0.000000 0.000000
v -55.656101 -0.000000 -4.000000
v -70.710701 0.000000 0.000000
v 0.000000 -55.656101 -3.999996
v 0.000000 -70.710602 0.000005
v 55.656200 -0.000000 -4.000000
v 0.000000 70.710701 -0.000005
v 70.710701 0.000000 0.000000
v 0.000000 55.656200 3.999996
v -55.656101 0.000000 4.000000
v -70.710701 0.000000 0.000000
v 0.000000 -55.656101 4.000004
v 0.000000 -70.710602 0.000005
v 55.656200 0.000000 4.000000
v 0.000000 70.710701 -0.000005
v 0.000000 55.656200 -4.000004
v 70.710701 0.000000 0.000000
v -55.656101 -0.000000 -4.000000
v -70.710701 0.000000 0.000000
v 0.000000 -55.656101 -3.999996
v 0.000000 -70.710602 0.000005
v 55.656200 -0.000000 -4.000000
v -47.864700 45.118301 12.412096
v -73.866402 80.239502 18.773893
v -73.866402 80.239502 12.412094
v -47.864601 45.118301 18.773895
v -47.002399 43.872002 18.773895
v -47.002300 43.872002 12.412097
v -55.445702 39.872898 10.585097
v -80.297302 75.789894 10.585094
v -54.583401 38.626598 10.585097
v -61.876499 35.423302 12.412097
v -86.728096 71.340302 12.412094
v -61.876499 35.423302 18.773897
v -86.728096 71.340302 18.773893
v -80.297203 75.789894 20.600895
v -55.445702 39.872799 20.600897
v -54.583401 38.626598 20.600897
v -61.014198 34.176998 18.773897
v -61.014198 34.176998 12.412097
v -46.573372 41.510929 14.797327
v -21.976330 -2.456677 14.654786
v -53.077000 37.054630 14.654783
v -15.567611 2.117404 14.797330
v -46.573372 41.510929 16.388674
v -15.567611 2.117404 16.388678
v -53.077000 37.054630 16.531219
v -21.976330 -2.456677 16.531221
v -59.580509 32.598572 15.593001
v -28.384825 -7.030636 15.593005
v 9.157693 -32.500862 14.654789
v 2.847971 -37.170773 15.593007
v 35.778366 -62.558830 15.593009
v 41.983711 -57.808475 14.654791
v 9.157696 -32.500980 16.531223
v 15.467295 -27.831295 16.388680
v 41.983711 -57.808475 16.531225
v 48.188705 -53.058338 16.388681
v 77.399132 -80.253258 16.531227
v 72.769806 -85.479446 15.593011
v 86.911247 -76.916367 16.388683
v 82.168945 -83.142754 15.593011
v 86.911140 -76.916359 14.797336
v 77.399132 -80.253258 14.654792
v 90.705818 -79.285316 15.593010
v 48.188705 -53.058338 14.797334
v 15.467295 -27.831295 14.797332
v -54.627403 38.709583 16.110603
v -46.713299 26.803337 31.028873
v -36.580017 34.208462 30.812889
v -32.257355 44.303913 24.804623
v -36.254745 51.360943 16.460836
v -41.159950 57.696991 8.023234
v -51.993488 57.396824 1.758672
v -62.541721 50.615822 1.192434
v -72.680473 43.209946 1.405809
v -76.994507 33.115051 7.418729
v -73.000168 26.058218 15.760420
v -68.094215 19.725233 24.195791
v -57.264263 20.017660 30.465174
v -67.477905 18.835438 23.162462
v -56.644279 19.135479 29.427351
v -46.096172 25.916351 29.993578
v -54.010380 37.822590 15.075360
v -51.373508 56.514557 0.720760
v -61.924591 49.728836 0.157141
v -72.057907 42.323711 0.373109
v -76.380409 32.228367 6.381419
v -35.957344 33.322247 29.780125
v -72.383041 25.171232 14.725127
v -31.643345 43.417210 23.767284
v -35.637619 50.473953 15.425543
v -40.543732 56.807079 6.989965
v -48.378101 43.891602 14.049597
v -45.475899 39.865200 17.136396
v -48.378201 43.891602 17.136396
v -45.475899 39.865200 14.049597
v -55.037899 39.283600 13.773597
v -52.135700 35.257099 13.773597
v -60.990002 35.165298 14.577897
v -60.990002 35.165298 16.608099
v -58.087700 31.138903 14.577898
v -58.087799 31.138903 16.608099
v -55.037899 39.283501 17.412395
v -52.135700 35.257099 17.412397
v 63.087399 50.584511 10.806144
v 34.417477 10.849914 4.515466
v 63.087399 50.584511 4.515463
v 34.417477 10.849915 10.806147
v 70.349091 45.987137 12.514939
v 70.349091 45.987137 2.806668
v 41.535442 6.055196 2.806671
v 77.610779 41.389881 4.515464
v 77.610779 41.389881 10.806145
v 48.653175 1.260594 4.515467
v 21.072920 -29.057671 4.515470
v 48.653175 1.260595 10.806148
v 21.072920 -29.057671 10.806149
v -7.802149 -55.229420 10.806151
v -14.615511 -50.129650 12.514947
v 14.103920 -24.099360 12.514945
v -21.428513 -45.030270 10.806151
v 41.535442 6.055197 12.514943
v 7.135043 -19.141165 10.806149
v -21.428513 -45.030270 4.515471
v 7.135043 -19.141165 4.515469
v 14.103920 -24.099360 2.806674
v -14.615511 -50.129650 2.806675
v -7.802149 -55.229420 4.515471
v -47.215023 -84.384377 4.515473
v -53.827461 -79.135414 2.806678
v -60.439899 -73.886559 4.515473
v -60.439899 -73.886559 10.806153
v -53.827461 -79.135414 12.514949
v -47.215023 -84.384377 10.806154
v -59.530998 -58.415699 11.466405
v -53.878399 -62.941700 12.939505
v -59.530998 -58.415699 6.043404
v -53.878399 -62.941700 4.570305
v -48.225800 -67.467796 11.466405
v -48.225800 -67.467796 6.043405
vn -0.8134 0.5818 -0.0000
vn -0.5435 -0.8394 -0.0000
vn -0.1887 0.1350 0.9727
vn 0.0644 -0.0461 0.9969
vn -0.0644 0.0461 0.9969
vn 0.0644 -0.0461 -0.9969
vn -0.0644 0.0461 -0.9969
vn -0.1887 0.1350 -0.9727
vn 0.5373 0.8434 -0.0000
vn 0.1887 -0.1350 -0.9727
vn 0.8133 -0.5818 -0.0000
vn 0.1887 -0.1350 0.9727
vn 0.2559 0.0853 0.9629
vn -0.0853 0.2559 0.9629
vn 0.0639 0.1919 0.9793
vn -0.1532 0.0510 0.9869
vn -0.2558 -0.0853 0.9629
vn -0.0639 -0.1919 0.9793
vn 0.0853 -0.2559 0.9629
vn 0.1531 -0.0510 0.9869
vn 0.0639 0.1919 -0.9793
vn -0.1531 0.0510 -0.9869
vn -0.0853 0.2559 -0.9629
vn 0.2559 0.0853 -0.9629
vn -0.2558 -0.0853 -0.9629
vn -0.0639 -0.1919 -0.9793
vn 0.0853 -0.2559 -0.9629
vn 0.1532 -0.0510 -0.9869
vn 0.8131 0.5821 -0.0000
vn 0.8037 0.5950 -0.0000
vn 0.1581 0.1131 -0.9809
vn 0.0149 0.0114 -0.9998
vn 0.1717 0.1226 -0.9775
vn 0.8224 0.5690 -0.0000
vn 0.8223 0.5690 -0.0000
vn 0.1599 0.1106 -0.9809
vn -0.0000 -0.0000 -1.0000
vn -0.1871 -0.1294 -0.9738
vn -0.0729 -0.0504 -0.9961
vn -0.8223 -0.5690 -0.0000
vn -0.5690 0.8223 -0.0000
vn -0.0638 -0.0442 0.9970
vn -0.1871 -0.1294 0.9738
vn -0.0099 -0.0056 0.9999
vn 0.1717 0.1226 0.9775
vn 0.0451 0.0312 0.9985
vn 0.1586 0.1124 0.9809
vn -0.8224 -0.5690 -0.0000
vn 0.1599 0.1106 0.9809
vn 0.0135 0.0123 -0.9998
vn -0.0205 -0.0185 -0.9996
vn 0.0142 0.0112 -0.9998
vn -0.0578 -0.0453 -0.9973
vn 0.7411 0.6714 -0.0000
vn 0.7858 0.6185 -0.0000
vn 0.7418 0.6706 -0.0000
vn 0.7417 0.6707 -0.0000
vn 0.0135 0.0123 0.9998
vn 0.0142 0.0112 0.9998
vn -0.0217 -0.0174 0.9996
vn -0.0545 -0.0493 0.9973
vn -0.0931 -0.0732 0.9930
vn -0.0887 -0.0794 0.9929
vn -0.0931 -0.0733 0.9930
vn -0.0884 -0.0798 -0.9929
vn -0.0931 -0.0733 -0.9930
vn -0.0345 -0.0381 -0.9987
vn -0.0780 -0.0940 -0.9925
vn -0.0807 -0.0904 0.9926
vn -0.0394 -0.0543 -0.9977
vn -0.0714 -0.1066 -0.9917
vn -0.0724 -0.1044 0.9919
vn -0.0329 -0.0402 0.9987
vn 0.0121 0.0142 0.9998
vn -0.0220 -0.0317 0.9993
vn 0.0025 -0.1002 0.9950
vn 0.0105 0.0156 0.9998
vn -0.0071 -0.1709 0.9853
vn 0.0740 -0.2001 0.9770
vn 0.0589 -0.1212 0.9909
vn 0.0025 -0.1002 -0.9950
vn 0.0589 -0.1212 -0.9909
vn 0.0740 -0.2001 -0.9770
vn 0.0861 -0.1905 -0.9779
vn -0.0071 -0.1709 -0.9853
vn 0.0861 -0.1905 0.9779
vn 0.5269 0.8499 -0.0000
vn 0.5264 0.8502 -0.0000
vn 0.5296 0.8483 -0.0000
vn 0.0107 0.0154 -0.9998
vn 0.5829 0.8126 -0.0000
vn 0.5536 0.8328 -0.0000
vn 0.6391 0.7691 -0.0000
vn 0.0121 0.0142 -0.9998
vn 0.6676 0.7445 -0.0000
vn -0.4164 0.5900 0.6918
vn -0.4170 0.5895 0.6918
vn -0.4165 0.5880 0.6934
vn -0.4185 0.5886 0.6917
vn -0.4182 0.5906 0.6901
vn -0.6573 -0.7189 0.2264
vn -0.5119 -0.7778 0.3646
vn -0.0316 -0.7708 0.6364
vn 0.1057 -0.7255 0.6801
vn 0.3344 -0.6082 0.7199
vn 0.4303 -0.5423 0.7216
vn 0.4164 -0.5900 -0.6918
vn 0.4170 -0.5895 -0.6918
vn 0.4182 -0.5906 -0.6901
vn 0.4165 -0.5880 -0.6934
vn 0.4185 -0.5886 -0.6917
vn 0.6581 0.7184 -0.2256
vn 0.5103 0.7782 -0.3660
vn 0.0329 0.7711 -0.6359
vn 0.7795 0.6226 -0.0697
vn -0.1061 0.7253 -0.6802
vn 0.8642 0.4951 0.0900
vn 0.9070 0.3432 0.2441
vn 0.9068 0.1838 0.3795
vn 0.7145 -0.2567 0.6509
vn -0.8641 -0.4952 -0.0899
vn -0.7794 -0.6227 0.0698
vn -0.9068 -0.3442 -0.2433
vn 0.6217 -0.3688 0.6910
vn -0.9065 -0.1821 -0.3808
vn -0.7153 0.2555 -0.6504
vn -0.4306 0.5421 -0.7216
vn -0.6214 0.3692 -0.6911
vn -0.3341 0.6084 -0.7199
vn 0.8112 0.5847 -0.0000
vn -0.0115 -0.0083 -0.9999
vn 0.0276 0.0199 -0.9994
vn -0.0506 -0.0365 -0.9980
vn -0.0896 -0.0646 -0.9939
vn -0.8112 -0.5847 -0.0000
vn 0.5690 -0.8223 -0.0000
vn 0.5690 -0.8223 0.0001
vn -0.0506 -0.0365 0.9981
vn -0.0896 -0.0646 0.9939
vn -0.0115 -0.0083 0.9999
vn 0.0276 0.0199 0.9994
vn -0.7646 0.6445 -0.0000
vn -0.8109 0.5851 -0.0000
vn -0.7883 0.6153 -0.0000
vn 0.5349 0.8449 -0.0000
vn -0.0536 0.0379 0.9978
vn -0.1584 0.1143 0.9807
vn -0.1543 0.1205 0.9807
vn 0.0008 -0.0006 -1.0000
vn 0.1584 -0.1143 -0.9807
vn 0.0213 -0.0194 -0.9996
vn -0.1584 0.1143 -0.9807
vn 0.8109 -0.5852 -0.0000
vn 0.7766 -0.6300 -0.0000
vn 0.1524 -0.1233 -0.9806
vn 0.1421 -0.1381 -0.9802
vn 0.7178 -0.6963 -0.0000
vn 0.6950 -0.7190 -0.0000
vn 0.6467 -0.7627 -0.0000
vn 0.0021 0.0028 1.0000
vn 0.1262 -0.1593 0.9791
vn 0.1384 -0.1432 0.9800
vn 0.0019 0.0027 1.0000
vn 0.1501 -0.1265 0.9805
vn -0.1422 0.1380 0.9802
vn -0.1304 0.1541 0.9794
vn 0.0021 0.0031 1.0000
vn -0.6467 0.7628 -0.0000
vn -0.6210 0.7838 -0.0000
vn -0.6950 0.7190 -0.0000
vn -0.7177 0.6963 -0.0000
vn -0.0020 -0.0027 -1.0000
vn -0.1383 0.1433 -0.9800
vn -0.1501 0.1266 -0.9805
vn -0.0022 -0.0028 -1.0000
vn -0.1263 0.1594 -0.9791
vn -0.0424 0.0568 -0.9975
vn 0.1304 -0.1540 -0.9794
vn 0.1220 -0.1649 -0.9787
vn -0.1220 0.1649 -0.9787
vn -0.5947 0.8040 -0.0000
vn -0.1220 0.1649 0.9787
vn 0.0416 -0.0548 0.9976
vn 0.1220 -0.1649 0.9787
vn 0.5947 -0.8039 -0.0000
vn 0.6210 -0.7838 -0.0000
vn 0.1584 -0.1143 0.9807
vn -0.6250 -0.7806 -0.0000
vt 0.638360 0.363281
vt 0.628906 0.392028
vt 0.682500 0.467499
vt 0.692226 0.437923
vt 0.736094 0.542969
vt 0.746094 0.512565
vt 0.976562 0.023438
vt 0.095226 0.374655
vt 0.095226 0.374655
vt 0.363281 0.482039
vt 0.055192 0.405964
vt 0.085714 0.371094
vt 0.085714 0.371094
vt 0.329321 0.508598
vt 0.295360 0.535156
vt 0.045679 0.402403
vt 0.021231 0.432522
vt 0.329321 0.508597
vt 0.055191 0.405964
vt 0.011719 0.428961
vt 0.151345 0.832089
vt 0.130777 0.840408
vt 0.053453 0.761719
vt 0.032586 0.769827
vt 0.011719 0.777935
vt 0.110210 0.848726
vt 0.229324 0.893967
vt 0.209069 0.902456
vt 0.333393 0.938984
vt 0.313470 0.947617
vt 0.229324 0.893967
vt 0.249578 0.885478
vt 0.445800 0.978816
vt 0.353316 0.930352
vt 0.430892 0.988281
vt 0.460942 0.983941
vt 0.476237 0.972677
vt 0.476236 0.972677
vt 0.488281 0.976880
vt 0.454238 0.375317
vt 0.498319 0.363281
vt 0.498320 0.453125
vt 0.542401 0.375317
vt 0.574672 0.408202
vt 0.586483 0.453125
vt 0.574672 0.498048
vt 0.542401 0.530933
vt 0.498319 0.542969
vt 0.454238 0.530933
vt 0.421968 0.498048
vt 0.410156 0.453125
vt 0.421968 0.408204
vt 0.425328 0.408204
vt 0.457599 0.375317
vt 0.501680 0.363281
vt 0.501680 0.453125
vt 0.501680 0.542969
vt 0.545762 0.530933
vt 0.578032 0.498048
vt 0.457598 0.530933
vt 0.425328 0.498048
vt 0.545762 0.375317
vt 0.413517 0.453125
vt 0.578032 0.408202
vt 0.589844 0.453125
vt 0.746094 0.420014
vt 0.724172 0.363281
vt 0.724171 0.363281
vt 0.673866 0.428209
vt 0.695788 0.484943
vt 0.628906 0.486236
vt 0.650829 0.542969
vt 0.650828 0.542969
vt 0.673866 0.428210
vt 0.339170 0.617919
vt 0.438130 0.574219
vt 0.463206 0.579277
vt 0.488281 0.584336
vt 0.363750 0.623195
vt 0.388328 0.628470
vt 0.293124 0.661814
vt 0.193447 0.690595
vt 0.169919 0.684984
vt 0.269059 0.656358
vt 0.244994 0.650903
vt 0.146392 0.679374
vt 0.034553 0.716881
vt 0.057387 0.722656
vt 0.011719 0.711106
vt 0.628906 0.363281
vt 0.687500 0.453124
vt 0.746094 0.542969
s 1
f 255/142/336 251/143/336 250/143/336
f 251/143/337 252/144/337 250/143/337
f 250/143/338 252/144/339 253/145/340
f 254/142/338 250/143/338 253/145/340
f 254/142/336 255/142/336 250/143/336
f 256/145/341 257/144/342 255/142/343
f 256/145/344 255/142/344 253/145/344
f 254/142/344 253/145/344 255/142/344
f 257/144/342 251/143/343 255/142/343
f 252/144/337 251/143/337 257/144/337
f 258/146/345 257/144/342 256/145/341
f 258/146/337 252/144/337 257/144/337
f 259/146/346 258/146/346 260/147/346
f 259/146/337 252/144/337 258/146/337
f 260/147/345 258/146/345 256/145/341
f 261/147/344 260/147/344 256/145/344
f 261/147/346 259/146/346 260/147/346
f 252/144/339 259/146/347 261/147/347
f 253/145/340 252/144/339 261/147/347
f 261/147/344 256/145/344 253/145/344
f 263/148/348 262/148/349 264/148/350
f 264/148/350 262/148/349 265/148/351
f 262/148/349 266/148/352 265/148/351
f 265/148/351 266/148/352 267/148/353
f 266/148/352 268/148/354 267/148/353
f 268/148/354 263/148/348 269/148/355
f 267/148/353 268/148/354 269/148/355
f 269/148/355 263/148/348 264/148/350
f 264/148/350 265/148/351 269/148/355
f 265/148/351 267/148/353 269/148/355
f 271/148/356 273/148/357 270/148/358
f 271/148/356 270/148/358 272/148/359
f 273/148/357 274/148/360 270/148/358
f 273/148/357 275/148/361 274/148/360
f 275/148/361 276/148/362 274/148/360
f 277/148/363 272/148/359 276/148/362
f 275/148/361 277/148/363 276/148/362
f 271/148/356 277/148/363 273/148/357
f 277/148/363 271/148/356 272/148/359
f 277/148/363 275/148/361 273/148/357
f 279/148/348 278/148/349 280/148/350
f 280/148/350 278/148/349 281/148/351
f 278/148/349 282/148/352 281/148/351
f 281/148/351 282/148/352 283/148/353
f 282/148/352 284/148/354 283/148/353
f 284/148/354 279/148/348 285/148/355
f 283/148/353 284/148/354 285/148/355
f 280/148/350 281/148/351 285/148/355
f 285/148/355 279/148/348 280/148/350
f 281/148/351 283/148/353 285/148/355
f 287/148/356 289/148/357 286/148/358
f 287/148/356 286/148/358 288/148/359
f 289/148/357 290/148/360 286/148/358
f 289/148/357 291/148/361 290/148/360
f 291/148/361 292/148/362 290/148/360
f 293/148/363 288/148/359 292/148/362
f 291/148/361 293/148/363 292/148/362
f 293/148/363 287/148/356 288/148/359
f 287/148/356 293/148/363 289/148/357
f 293/148/363 291/148/361 289/148/357
f 295/148/348 294/148/349 296/148/350
f 296/148/350 294/148/349 297/148/351
f 294/148/349 298/148/352 297/148/351
f 297/148/351 298/148/352 299/148/353
f 298/148/352 300/148/354 299/148/353
f 300/148/354 295/148/348 301/148/355
f 299/148/353 300/148/354 301/148/355
f 301/148/355 295/148/348 296/148/350
f 296/148/350 297/148/351 301/148/355
f 297/148/351 299/148/353 301/148/355
f 303/148/356 305/148/357 302/148/358
f 303/148/356 302/148/358 304/148/359
f 305/148/357 306/148/360 302/148/358
f 305/148/357 307/148/361 306/148/360
f 307/148/361 308/148/362 306/148/360
f 309/148/363 304/148/359 308/148/362
f 307/148/361 309/148/363 308/148/362
f 303/148/356 309/148/363 305/148/357
f 309/148/363 303/148/356 304/148/359
f 309/148/363 307/148/361 305/148/357
f 313/149/364 310/150/364 311/151/365
f 310/150/364 312/151/365 311/151/365
f 310/150/366 316/152/367 312/151/368
f 310/150/364 313/149/364 314/153/369
f 315/154/370 310/150/364 314/153/369
f 316/152/367 310/150/366 315/154/371
f 317/155/372 316/152/367 320/156/373
f 316/152/367 317/155/372 312/151/368
f 318/157/374 316/152/367 315/154/371
f 319/158/373 316/152/367 318/157/374
f 316/152/367 319/158/373 320/156/373
f 319/158/375 321/158/375 320/156/375
f 321/158/375 322/156/375 320/156/375
f 317/155/376 320/156/376 322/156/376
f 323/159/377 322/156/378 321/158/378
f 323/159/376 317/155/376 322/156/376
f 312/151/376 317/155/376 323/159/376
f 324/160/379 323/159/377 321/158/378
f 311/151/380 323/159/377 324/160/379
f 311/151/376 312/151/376 323/159/376
f 324/160/379 321/158/378 326/161/378
f 325/157/381 324/160/379 326/161/378
f 313/149/382 324/160/379 325/157/381
f 313/149/382 311/151/380 324/160/379
f 326/161/383 321/158/375 327/161/383
f 321/158/375 319/158/375 327/161/383
f 327/161/373 319/158/373 318/157/374
f 314/153/384 313/149/382 325/157/381
f 331/162/385 329/163/386 328/164/387
f 329/163/386 330/165/388 328/164/387
f 331/162/389 328/164/390 332/164/390
f 333/162/391 331/162/392 332/164/390
f 333/162/393 332/164/394 334/165/395
f 335/163/396 333/162/393 334/165/395
f 335/163/396 334/165/395 336/166/397
f 337/167/398 335/163/396 336/166/399
f 337/167/400 336/166/401 330/165/388
f 329/163/386 337/167/400 330/165/388
f 329/163/386 338/168/402 337/167/400
f 338/168/402 339/169/403 337/167/400
f 337/167/398 339/169/404 335/163/396
f 341/170/405 340/171/406 339/169/403
f 339/169/404 340/171/407 342/172/408
f 338/168/402 341/170/405 339/169/403
f 339/169/404 342/172/408 335/163/396
f 342/172/408 343/173/409 333/162/393
f 342/172/408 344/170/410 343/173/409
f 340/171/407 344/170/410 342/172/408
f 335/163/396 342/172/408 333/162/393
f 346/174/411 344/170/410 340/171/407
f 344/170/410 345/175/412 343/173/409
f 344/170/410 346/174/411 345/175/412
f 347/176/413 346/174/411 340/171/407
f 346/174/411 347/176/413 349/177/414
f 346/174/411 348/178/415 345/175/412
f 348/178/415 346/174/411 349/177/414
f 351/174/416 350/179/417 349/177/418
f 350/179/417 352/180/419 349/177/418
f 347/176/420 351/174/416 349/177/418
f 352/180/421 348/178/415 349/177/414
f 350/179/422 348/178/423 352/180/424
f 350/179/417 351/174/416 353/175/425
f 351/174/416 347/176/420 340/171/406
f 351/174/416 341/170/405 353/175/425
f 341/170/405 351/174/416 340/171/406
f 353/175/425 341/170/405 338/168/402
f 345/175/426 353/175/427 354/173/428
f 345/175/426 348/178/423 353/175/427
f 354/173/429 353/175/425 338/168/402
f 348/178/423 350/179/422 353/175/427
f 343/173/430 345/175/426 354/173/428
f 354/173/429 338/168/402 329/163/386
f 343/173/430 354/173/428 331/162/392
f 331/162/385 354/173/429 329/163/386
f 333/162/391 343/173/430 331/162/392
f 367/181/431 356/182/431 355/183/432
f 356/182/431 357/184/431 355/183/432
f 357/184/431 358/185/433 355/183/432
f 358/185/433 359/186/434 355/183/432
f 359/186/434 360/187/435 355/183/432
f 360/187/435 361/188/431 355/183/432
f 361/188/431 362/189/431 355/183/432
f 362/189/431 363/190/431 355/183/432
f 363/190/431 364/191/433 355/183/432
f 364/191/433 365/192/434 355/183/432
f 365/192/434 366/193/435 355/183/432
f 366/193/435 367/181/431 355/183/432
f 366/193/436 368/194/437 367/181/438
f 368/194/437 369/195/439 367/181/438
f 367/181/438 369/195/439 356/182/440
f 369/195/439 370/196/441 356/182/440
f 370/196/442 369/195/442 371/197/443
f 369/195/442 368/194/444 371/197/443
f 373/198/442 372/199/442 371/197/443
f 372/199/442 380/200/444 371/197/443
f 374/201/442 373/198/442 371/197/443
f 375/202/445 374/201/442 371/197/443
f 376/203/442 370/196/442 371/197/443
f 377/204/446 375/202/445 371/197/443
f 378/205/445 376/203/442 371/197/443
f 368/194/444 377/204/446 371/197/443
f 379/206/446 378/205/445 371/197/443
f 380/200/444 379/206/446 371/197/443
f 360/187/447 380/200/448 361/188/449
f 379/206/450 380/200/448 360/187/447
f 380/200/448 372/199/451 361/188/449
f 359/186/452 379/206/450 360/187/447
f 378/205/453 379/206/450 359/186/452
f 358/185/454 378/205/453 359/186/452
f 376/203/455 378/205/453 358/185/454
f 365/192/456 377/204/457 366/193/436
f 375/202/458 377/204/457 365/192/456
f 377/204/457 368/194/437 366/193/436
f 357/184/459 376/203/455 358/185/454
f 370/196/441 376/203/455 357/184/459
f 364/191/460 375/202/458 365/192/456
f 374/201/461 375/202/458 364/191/460
f 373/198/462 374/201/461 363/190/463
f 363/190/463 374/201/461 364/191/460
f 372/199/451 373/198/462 362/189/464
f 362/189/464 373/198/462 363/190/463
f 361/188/449 372/199/451 362/189/464
f 356/182/440 370/196/441 357/184/459
f 384/207/465 381/208/465 382/207/465
f 381/208/465 383/209/465 382/207/465
f 385/210/466 381/208/467 384/207/467
f 386/211/468 385/210/466 384/207/467
f 387/212/469 385/210/466 386/211/468
f 388/212/470 387/212/470 389/213/470
f 389/213/469 387/212/469 386/211/468
f 390/214/470 388/212/470 389/213/470
f 390/214/471 389/213/471 386/211/472
f 391/215/473 388/212/474 390/214/474
f 392/211/471 390/214/471 384/207/471
f 384/207/471 390/214/471 386/211/472
f 392/211/475 391/215/473 390/214/474
f 383/209/476 391/215/473 392/211/475
f 382/207/476 383/209/476 392/211/475
f 382/207/471 392/211/471 384/207/471
f 396/216/477 393/217/478 394/216/479
f 393/217/478 395/217/478 394/216/479
f 398/218/480 395/217/480 393/217/480
f 397/218/481 393/217/482 396/216/483
f 397/218/480 398/218/480 393/217/480
f 400/219/480 398/218/480 397/218/480
f 398/218/484 400/219/485 399/220/486
f 395/217/487 398/218/484 399/220/486
f 401/219/480 400/219/480 397/218/480
f 400/219/488 401/219/488 402/221/489
f 400/219/485 402/221/490 399/220/486
f 402/221/490 403/222/491 399/220/486
f 405/222/492 403/222/493 402/221/489
f 401/219/488 404/221/489 402/221/489
f 404/221/489 405/222/492 402/221/489
f 405/222/492 406/223/494 403/222/493
f 407/224/495 406/223/496 405/222/497
f 408/225/498 407/224/495 405/222/497
f 408/225/498 405/222/497 404/221/499
f 411/226/500 409/227/501 408/225/498
f 409/227/501 407/224/495 408/225/498
f 410/220/502 408/225/498 404/221/499
f 411/226/500 408/225/498 410/220/502
f 412/227/503 409/227/504 411/226/505
f 413/226/506 412/227/503 411/226/505
f 413/226/506 411/226/505 396/216/477
f 396/216/483 411/226/500 410/220/502
f 414/225/507 413/226/508 394/216/509
f 414/225/507 415/224/510 413/226/508
f 394/216/479 413/226/506 396/216/477
f 415/224/510 412/227/511 413/226/508
f 415/224/510 418/228/512 412/227/511
f 416/223/513 415/224/510 414/225/507
f 416/223/513 417/229/514 415/224/510
f 417/229/514 418/228/512 415/224/510
f 418/228/512 419/230/515 412/227/511
f 419/230/516 420/230/516 409/227/504
f 412/227/503 419/230/516 409/227/504
f 409/227/501 420/230/517 407/224/495
f 420/230/517 421/228/518 407/224/495
f 421/228/518 422/229/519 406/223/496
f 407/224/495 421/228/518 406/223/496
f 406/223/494 422/229/520 416/223/521
f 422/229/520 417/229/520 416/223/521
f 406/223/494 416/223/521 403/222/493
f 403/222/491 416/223/513 414/225/507
f 403/222/491 414/225/507 399/220/486
f 399/220/486 414/225/507 394/216/509
f 410/220/502 397/218/481 396/216/483
f 401/219/522 397/218/481 410/220/502
f 404/221/499 401/219/522 410/220/502
f 394/216/509 395/217/487 399/220/486
f 423/231/523 425/231/523 424/232/523
f 425/231/523 426/232/523 424/232/523
f 424/232/523 426/232/523 427/233/523
f 426/232/523 428/233/523 427/233/523
o item_damaged
v -29.153999 3.117801 15.308600
v -24.850100 -8.020700 15.206201
v -22.281900 0.038201 15.206200
v -32.607300 -7.718799 15.308601
v -29.153999 3.117701 16.452700
v -22.282000 0.038101 16.555099
v -32.607300 -7.718799 16.452700
v -24.850201 -8.020799 16.555099
v -17.092899 -8.322799 15.880601
v -15.409900 -3.041299 15.880600
v -11.276401 -28.765299 13.182502
v -57.942905 -69.502907 18.578806
v -57.942905 -69.502907 13.182506
v -11.276401 -28.765299 18.578802
v -9.622101 -27.394098 18.578802
v -9.622101 -27.394098 13.182502
v -4.612300 -36.805599 11.632703
v -52.289803 -76.323303 11.632706
v -2.957900 -35.434299 11.632703
v 1.040801 -43.625900 13.182503
v -46.636707 -83.143600 13.182507
v 1.040900 -43.625900 18.578804
v -46.636707 -83.143600 18.578806
v -52.289803 -76.323196 20.128605
v -4.612200 -36.805599 20.128601
v -2.957900 -35.434399 20.128601
v 2.695200 -42.254700 18.578804
v 2.695200 -42.254700 13.182503
v -5.951000 -27.676098 15.308602
v 42.820202 6.502701 15.206199
v -1.127600 -33.495300 15.206203
v 37.865799 12.200401 15.308599
v -5.950900 -27.676098 16.452702
v 37.865799 12.200401 16.452700
v -1.127700 -33.495300 16.555101
v 3.695500 -39.314400 15.880603
v 42.820202 6.502602 16.555099
v 47.774502 0.805101 15.880600
v -3.068654 -35.508263 16.614643
v 8.249861 -26.407711 31.769489
v -0.156994 -16.823402 31.530628
v -10.755943 -13.368397 25.412802
v -17.524216 -18.057430 16.931540
v -23.487926 -23.605412 8.365420
v -22.200500 -34.547291 2.015632
v -14.386978 -44.608738 1.459851
v -5.978946 -54.198532 1.696106
v 4.618852 -57.644844 7.818530
v 11.386986 -52.958973 16.297615
v 17.347672 -47.410378 24.861675
v 16.068384 -36.471485 31.216276
v 18.529922 -46.433025 23.395699
v 17.242516 -35.491070 29.745701
v -1.889406 -34.530190 15.146576
v 9.429111 -25.429733 30.301479
v 1.020973 -15.839891 30.065197
v -9.576801 -12.393566 23.942799
v -16.344965 -17.079454 15.463530
v -22.305643 -22.628078 6.899457
v -21.026400 -33.566872 0.545032
v -13.207827 -43.630661 -0.008142
v -4.800970 -53.214962 0.230721
v 5.798072 -56.669952 6.348481
v 12.566254 -51.981018 14.829606
v -9.684300 -29.093998 14.571502
v -4.336400 -24.520699 17.189802
v -9.684300 -29.093998 17.189802
v -4.336400 -24.520597 14.571502
v -3.830000 -36.157200 14.337303
v 1.518000 -31.583899 14.337303
v 1.402200 -42.469700 15.019603
v 1.402200 -42.469700 16.741703
v 6.750000 -37.896400 15.019603
v 6.750100 -37.896400 16.741703
v -3.830000 -36.157200 17.424002
v 1.518000 -31.583899 17.424002
v -47.485100 74.001503 15.308595
v -51.311600 77.422798 15.880594
v -47.485100 74.001404 16.452694
v -42.651699 80.013397 15.880594
v -37.841202 75.811600 15.206194
v -8.435800 39.442101 15.308598
v -2.130400 43.504501 15.206197
v -8.435800 39.442101 16.452696
v 20.230400 19.849901 15.206198
v 12.789900 16.988201 15.308599
v 12.789900 16.988201 16.452698
v -2.130500 43.504601 16.555096
v 20.230400 19.849901 16.555098
v 27.671101 22.711702 15.880598
v 4.175200 47.567299 15.880596
v -37.841202 75.811600 16.555094
v -33.127602 80.726303 15.880594
v -55.002800 -4.131499 15.308600
v -48.492500 -0.307299 15.206200
v -62.818199 5.832301 15.308600
v -62.818199 5.832302 16.452700
v -55.002899 -4.131399 16.452700
v -56.299702 9.645901 16.555099
v -48.492401 -0.307499 16.555099
v -41.982101 3.516601 15.880600
v -49.781101 13.459501 15.880599
v -56.299599 9.645901 15.206199
v 19.032801 52.480801 15.308597
v 25.285299 48.283699 15.206196
v 25.472500 68.316498 15.308596
v 25.472401 68.316498 16.452694
v 19.032801 52.480801 16.452696
v 31.160200 62.730900 16.555096
v 25.285299 48.283699 16.555096
v 31.537800 44.086800 15.880597
v 36.848099 57.145100 15.880595
v 31.160200 62.730900 15.206195
v -39.834801 34.469398 15.308598
v -30.776600 22.921202 15.308599
v -32.939098 37.802299 15.206197
v -30.776600 22.921103 16.452698
v -39.834801 34.469398 16.452698
v -24.258101 26.734701 16.555098
v -32.939201 37.802299 16.555098
v -26.043501 41.135201 15.880597
v -17.739500 30.548302 15.880598
v -24.257999 26.734802 15.206198
v 65.920898 20.866402 16.452698
v 53.761101 30.418102 16.555098
v 61.289398 31.826202 16.452698
v 59.833099 16.049501 16.555098
v 65.920799 20.866402 15.308599
v 59.833000 16.049501 15.206199
v 61.289299 31.826302 15.308598
v 53.761101 30.418102 15.206198
v 53.745098 11.232301 15.880599
v 46.232800 29.010101 15.880598
v 0.000000 70.710701 -0.000005
v 70.710701 0.000000 0.000000
v 0.000000 55.656200 3.999996
v -55.656101 0.000000 4.000000
v -70.710701 0.000000 0.000000
v 0.000000 -55.656101 4.000004
v 0.000000 -70.710602 0.000005
v 55.656200 0.000000 4.000000
v 0.000000 70.710701 -0.000005
v 0.000000 55.656200 -4.000004
v 70.710701 0.000000 0.000000
v -55.656101 -0.000000 -4.000000
v -70.710701 0.000000 0.000000
v 0.000000 -55.656101 -3.999996
v 0.000000 -70.710602 0.000005
v 55.656200 -0.000000 -4.000000
v 0.000000 70.710701 -0.000005
v 70.710701 0.000000 0.000000
v 0.000000 55.656200 3.999996
v -55.656101 0.000000 4.000000
v -70.710701 0.000000 0.000000
v 0.000000 -55.656101 4.000004
v 0.000000 -70.710602 0.000005
v 55.656200 0.000000 4.000000
v 0.000000 70.710701 -0.000005
v 0.000000 55.656200 -4.000004
v 70.710701 0.000000 0.000000
v -55.656101 -0.000000 -4.000000
v -70.710701 0.000000 0.000000
v 0.000000 -55.656101 -3.999996
v 0.000000 -70.710602 0.000005
v 55.656200 -0.000000 -4.000000
v 0.000000 70.710701 -0.000005
v 70.710701 0.000000 0.000000
v 0.000000 55.656200 3.999996
v -55.656101 0.000000 4.000000
v -70.710701 0.000000 0.000000
v 0.000000 -55.656101 4.000004
v 0.000000 -70.710602 0.000005
v 55.656200 0.000000 4.000000
v 0.000000 70.710701 -0.000005
v 0.000000 55.656200 -4.000004
v 70.710701 0.000000 0.000000
v -55.656101 -0.000000 -4.000000
v -70.710701 0.000000 0.000000
v 0.000000 -55.656101 -3.999996
v 0.000000 -70.710602 0.000005
v 55.656200 -0.000000 -4.000000
vn -0.0130 0.0042 -0.9999
vn 0.0198 -0.0063 -0.9998
vn 0.0527 -0.0168 -0.9985
vn -0.9528 0.3036 -0.0000
vn 0.0199 -0.0063 0.9998
vn -0.0130 0.0042 0.9999
vn 0.0527 -0.0168 0.9985
vn 0.0855 -0.0273 0.9960
vn 0.0855 -0.0273 -0.9960
vn -0.6479 0.7617 -0.0000
vn -0.6576 0.7533 -0.0000
vn -0.0951 0.1118 -0.9892
vn -0.0092 0.0103 -0.9999
vn -0.1033 0.1217 -0.9872
vn -0.6382 0.7699 -0.0000
vn -0.0937 0.1130 -0.9892
vn -0.0000 -0.0000 -1.0000
vn 0.1100 -0.1327 -0.9850
vn 0.0425 -0.0513 -0.9978
vn 0.6381 -0.7699 -0.0000
vn -0.7699 -0.6381 -0.0000
vn -0.7699 -0.6382 -0.0000
vn 0.0371 -0.0448 0.9983
vn 0.1100 -0.1327 0.9850
vn -0.1033 0.1217 0.9872
vn 0.0050 -0.0071 1.0000
vn -0.0949 0.1120 0.9892
vn -0.0261 0.0315 0.9992
vn 0.6382 -0.7699 -0.0000
vn -0.0937 0.1130 0.9892
vn -0.0091 0.0100 -0.9999
vn 0.0139 -0.0153 -0.9998
vn 0.0369 -0.0406 -0.9985
vn -0.6731 0.7396 0.0001
vn -0.6731 0.7396 -0.0000
vn -0.0091 0.0100 0.9999
vn 0.0139 -0.0152 0.9998
vn 0.0369 -0.0406 0.9985
vn 0.0139 -0.0153 0.9998
vn 0.0599 -0.0658 0.9960
vn 0.0599 -0.0658 -0.9960
vn -0.5513 -0.4663 0.6918
vn -0.5509 -0.4669 0.6918
vn -0.5496 -0.4663 0.6932
vn -0.5499 -0.4681 0.6918
vn -0.5517 -0.4680 0.6903
vn -0.5495 -0.4663 0.6932
vn 0.7641 0.0497 0.6432
vn 0.7178 0.1570 0.6784
vn 0.5670 0.3989 0.7207
vn 0.7724 -0.5934 0.2266
vn 0.8195 -0.4386 0.3689
vn 0.5513 0.4663 -0.6918
vn 0.5509 0.4669 -0.6918
vn 0.5517 0.4680 -0.6903
vn 0.5103 0.4674 0.7219
vn 0.3013 0.6623 0.6860
vn 0.2042 0.7289 0.6534
vn -0.2607 0.8878 0.3792
vn -0.4242 0.8733 0.2396
vn 0.5496 0.4663 -0.6932
vn -0.5500 0.8281 0.1088
vn -0.7020 0.7059 -0.0947
vn 0.5499 0.4681 -0.6918
vn -0.8198 0.4367 -0.3705
vn -0.7718 0.5945 -0.2254
vn -0.7171 -0.1585 -0.6787
vn -0.7650 -0.0474 -0.6423
vn -0.5101 -0.4677 -0.7219
vn -0.5673 -0.3986 -0.7206
vn -0.3025 -0.6613 -0.6864
vn -0.2021 -0.7302 -0.6526
vn 0.2587 -0.8878 -0.3807
vn 0.4254 -0.8730 -0.2384
vn 0.5501 -0.8280 -0.1087
vn 0.7021 -0.7058 0.0948
vn -0.6499 0.7600 -0.0000
vn 0.0069 -0.0081 -0.9999
vn -0.0166 0.0194 -0.9997
vn 0.0305 -0.0356 -0.9989
vn 0.0539 -0.0630 -0.9966
vn 0.6499 -0.7600 -0.0000
vn 0.7699 0.6381 -0.0000
vn 0.0069 -0.0081 0.9999
vn 0.0304 -0.0356 0.9989
vn 0.0539 -0.0630 0.9966
vn -0.0166 0.0194 0.9997
vn -0.0264 0.0786 -0.9966
vn -0.0372 0.1242 -0.9916
vn -0.0271 0.1305 -0.9911
vn -0.6646 -0.7472 -0.0001
vn -0.6642 -0.7475 -0.0000
vn -0.6665 -0.7455 -0.0001
vn -0.6847 -0.7288 -0.0000
vn 0.0109 0.0651 -0.9978
vn -0.0097 -0.0100 -0.9999
vn -0.7060 -0.7082 -0.0000
vn 0.0350 0.0348 -0.9988
vn 0.0154 0.0145 -0.9998
vn -0.7267 -0.6870 -0.0000
vn -0.0101 -0.0095 -0.9999
vn 0.0408 0.0386 0.9984
vn 0.0198 0.0204 0.9996
vn -0.0101 -0.0095 0.9999
vn -0.0097 -0.0100 0.9999
vn 0.0650 0.0668 0.9956
vn 0.0662 0.0626 0.9958
vn 0.0646 0.0683 -0.9956
vn 0.0273 0.1101 -0.9935
vn 0.0274 0.1101 0.9935
vn 0.0109 0.0651 0.9978
vn 0.0662 0.0626 -0.9958
vn -0.0272 0.1305 0.9911
vn -0.0264 0.0787 0.9966
vn -0.0372 0.1242 0.9916
vn 0.0164 0.0129 -0.9998
vn -0.0108 -0.0084 -0.9999
vn -0.7868 -0.6172 -0.0000
vn -0.0108 -0.0084 0.9999
vn 0.0164 0.0128 0.9998
vn 0.0436 0.0342 0.9985
vn 0.0706 0.0554 0.9960
vn 0.0706 0.0554 -0.9960
vn 0.0435 0.0341 -0.9985
vn 0.0196 -0.0080 -0.9998
vn -0.0129 0.0052 -0.9999
vn -0.9263 0.3767 -0.0001
vn -0.9263 0.3767 -0.0000
vn -0.0129 0.0052 0.9999
vn 0.0197 -0.0080 0.9998
vn 0.0520 -0.0212 0.9984
vn 0.0844 -0.0343 0.9958
vn 0.0844 -0.0343 -0.9958
vn 0.0520 -0.0212 -0.9984
vn -0.7868 -0.6172 -0.0001
vn 0.0164 0.0129 0.9998
vn 0.0435 0.0342 -0.9985
vn -0.0125 -0.0472 0.9988
vn 0.0126 0.0053 0.9999
vn -0.0572 0.0262 0.9980
vn -0.0351 -0.0148 0.9993
vn 0.9211 0.3893 -0.0001
vn 0.0126 0.0053 -0.9999
vn -0.0192 -0.0081 -0.9998
vn 0.9211 0.3893 -0.0000
vn -0.0510 -0.0215 -0.9985
vn -0.9211 -0.3892 -0.0001
vn -0.9211 -0.3892 -0.0000
vn 0.2559 0.0853 0.9629
vn -0.0853 0.2559 0.9629
vn 0.0639 0.1919 0.9793
vn -0.1532 0.0510 0.9869
vn -0.2558 -0.0853 0.9629
vn -0.0639 -0.1919 0.9793
vn 0.0853 -0.2559 0.9629
vn 0.1531 -0.0510 0.9869
vn 0.0639 0.1919 -0.9793
vn -0.1531 0.0510 -0.9869
vn -0.0853 0.2559 -0.9629
vn 0.2559 0.0853 -0.9629
vn -0.2558 -0.0853 -0.9629
vn -0.0639 -0.1919 -0.9793
vn 0.0853 -0.2559 -0.9629
vn 0.1532 -0.0510 -0.9869
vt 0.011719 0.976320
vt 0.107414 0.761719
vt 0.226681 0.982299
vt 0.297849 0.822705
vt 0.107414 0.761721
vt 0.297846 0.822707
vt 0.226678 0.982301
vt 0.441643 0.988281
vt 0.488281 0.883690
vt 0.282278 0.375129
vt 0.011719 0.495014
vt 0.320914 0.398790
vt 0.291869 0.371094
vt 0.044494 0.515085
vt 0.077269 0.535156
vt 0.330506 0.394755
vt 0.353690 0.418862
vt 0.353690 0.418862
vt 0.044494 0.515085
vt 0.320915 0.398790
vt 0.330506 0.394755
vt 0.363281 0.414826
vt 0.400388 0.761719
vt 0.444335 0.786777
vt 0.011719 0.937096
vt 0.054504 0.962689
vt 0.011720 0.937096
vt 0.054503 0.962689
vt 0.444335 0.786778
vt 0.097286 0.988281
vt 0.488281 0.811835
vt 0.453830 0.413585
vt 0.497504 0.456713
vt 0.541178 0.499841
vt 0.573150 0.531413
vt 0.584852 0.542969
vt 0.497504 0.456713
vt 0.421859 0.382013
vt 0.410156 0.370457
vt 0.458822 0.406410
vt 0.426850 0.374837
vt 0.502496 0.449537
vt 0.502496 0.449537
vt 0.546170 0.492665
vt 0.578141 0.524238
vt 0.589844 0.535793
vt 0.578141 0.524237
vt 0.415148 0.363281
vt 0.746094 0.484497
vt 0.716235 0.542969
vt 0.746093 0.484497
vt 0.670120 0.478960
vt 0.699978 0.420487
vt 0.628906 0.421753
vt 0.658765 0.363282
vt 0.658765 0.363281
vt 0.034807 0.785623
vt 0.011719 0.773461
vt 0.063970 0.764253
vt 0.034807 0.785623
vt 0.270421 0.908467
vt 0.092996 0.779188
vt 0.308466 0.894027
vt 0.443386 0.978109
vt 0.398492 0.988281
vt 0.308466 0.894026
vt 0.346513 0.879585
vt 0.488281 0.967937
vt 0.121437 0.761719
vt 0.339376 0.939028
vt 0.190472 0.988281
vt 0.011719 0.859953
vt 0.190470 0.988280
vt 0.160810 0.810836
vt 0.339378 0.939030
vt 0.488281 0.889778
vt 0.309903 0.761719
vt 0.160812 0.810836
vt 0.094266 0.908766
vt 0.176816 0.988281
vt 0.488281 0.906386
vt 0.488281 0.906387
vt 0.378421 0.834053
vt 0.011719 0.829251
vt 0.268556 0.761719
vt 0.011719 0.844634
vt 0.207091 0.988280
vt 0.207091 0.988281
vt 0.160449 0.803176
vt 0.347685 0.940844
vt 0.160446 0.803176
vt 0.488281 0.893408
vt 0.309176 0.761719
vt 0.347687 0.940843
vt 0.123193 0.831775
vt 0.234660 0.761719
vt 0.455694 0.901649
vt 0.488279 0.815016
vt 0.234660 0.761720
vt 0.123193 0.831776
vt 0.488281 0.815017
vt 0.011719 0.901833
vt 0.423112 0.988281
vt 0.976562 0.023438
s 1
f 432/234/524 429/235/524 430/236/525
f 429/235/524 431/237/526 430/236/525
f 433/238/527 429/235/527 432/234/527
f 434/239/528 433/238/529 435/234/529
f 435/234/527 433/238/527 432/234/527
f 436/240/530 434/239/528 435/234/529
f 437/241/531 438/242/531 436/240/530
f 438/242/531 434/239/528 436/240/530
f 431/237/526 438/242/532 437/241/532
f 430/236/525 431/237/526 437/241/532
f 442/243/533 439/243/533 440/244/534
f 439/243/533 441/244/534 440/244/534
f 439/243/535 445/245/536 441/244/537
f 439/243/533 442/243/533 443/246/538
f 444/246/538 439/243/533 443/246/538
f 445/245/536 439/243/535 444/246/539
f 446/247/540 445/245/536 449/248/541
f 445/245/536 446/247/540 441/244/537
f 447/249/542 445/245/536 444/246/539
f 448/250/541 445/245/536 447/249/542
f 445/245/536 448/250/541 449/248/541
f 448/250/543 450/251/543 449/248/543
f 450/251/543 451/248/543 449/248/543
f 446/247/544 449/248/545 451/248/544
f 452/252/546 451/248/547 450/251/547
f 452/252/544 446/247/544 451/248/544
f 440/244/548 452/252/546 453/253/549
f 440/244/545 441/244/544 452/252/544
f 441/244/544 446/247/544 452/252/544
f 453/253/549 452/252/546 450/251/547
f 442/243/550 440/244/548 453/253/549
f 442/243/550 453/253/549 454/254/551
f 453/253/549 450/251/547 455/255/547
f 454/254/551 453/253/549 455/255/547
f 455/255/552 450/251/543 456/255/543
f 450/251/543 448/250/543 456/255/543
f 456/255/541 448/250/541 447/249/542
f 443/246/553 442/243/550 454/254/551
f 460/256/554 458/257/555 457/258/554
f 458/257/555 459/259/556 457/258/554
f 460/256/557 457/258/557 461/260/557
f 462/256/558 460/256/558 461/260/558
f 462/256/559 461/260/559 463/261/560
f 465/262/561 463/261/562 464/263/563
f 465/262/561 462/256/559 463/261/562
f 466/264/563 465/262/561 464/263/563
f 466/264/564 464/263/564 459/259/556
f 458/257/555 466/264/564 459/259/556
f 479/265/565 468/266/565 467/266/566
f 468/266/565 469/267/565 467/266/566
f 469/267/565 470/268/567 467/266/566
f 470/268/567 471/269/568 467/266/566
f 471/269/568 472/268/569 467/266/566
f 472/268/569 473/267/565 467/266/566
f 473/267/565 474/270/565 467/266/566
f 474/270/565 475/265/565 467/266/566
f 475/265/565 476/271/570 467/266/566
f 476/271/570 477/272/568 467/266/566
f 477/272/568 478/271/569 467/266/566
f 478/271/569 479/265/565 467/266/566
f 479/265/571 481/273/572 468/266/573
f 478/271/574 480/274/575 479/265/571
f 480/274/575 481/273/572 479/265/571
f 483/275/576 481/273/576 482/276/577
f 481/273/576 480/274/578 482/276/577
f 481/273/572 483/275/579 468/266/573
f 468/266/573 483/275/579 469/267/580
f 483/275/579 484/277/581 469/267/580
f 484/277/576 483/275/576 482/276/577
f 469/267/580 484/277/581 470/268/582
f 484/277/581 485/278/583 470/268/582
f 485/278/584 484/277/576 482/276/577
f 470/268/582 485/278/583 471/269/585
f 485/278/583 486/279/586 471/269/585
f 486/279/587 485/278/584 482/276/577
f 487/280/578 486/279/587 482/276/577
f 486/279/586 487/280/588 472/268/589
f 471/269/585 486/279/586 472/268/589
f 488/277/576 487/280/578 482/276/577
f 487/280/588 488/277/590 473/267/591
f 472/268/589 487/280/588 473/267/591
f 489/276/576 488/277/576 482/276/577
f 488/277/590 489/276/592 474/270/593
f 473/267/591 488/277/590 474/270/593
f 474/270/593 489/276/592 475/265/594
f 489/276/592 490/273/595 475/265/594
f 490/273/576 489/276/576 482/276/577
f 475/265/594 490/273/595 476/271/596
f 490/273/595 491/274/597 476/271/596
f 491/274/584 490/273/576 482/276/577
f 476/271/596 491/274/597 477/272/598
f 491/274/597 492/281/599 477/272/598
f 492/281/587 491/274/584 482/276/577
f 477/272/598 492/281/599 478/271/574
f 492/281/599 480/274/575 478/271/574
f 480/274/578 492/281/587 482/276/577
f 496/282/600 493/283/600 494/284/600
f 493/283/600 495/283/600 494/284/600
f 497/285/601 493/283/602 496/282/602
f 498/286/603 497/285/601 496/282/602
f 499/287/604 497/285/601 498/286/603
f 500/287/605 499/287/605 501/288/605
f 501/288/604 499/287/604 498/286/603
f 502/289/605 500/287/605 501/288/605
f 502/289/606 501/288/606 498/286/606
f 504/286/607 503/285/608 502/289/609
f 503/285/608 500/287/609 502/289/609
f 504/286/606 502/289/606 496/282/606
f 496/282/606 502/289/606 498/286/606
f 494/284/606 504/286/606 496/282/606
f 494/284/610 495/283/610 504/286/607
f 495/283/610 503/285/608 504/286/607
f 505/290/611 506/291/612 508/292/613
f 505/290/614 507/293/615 506/291/616
f 507/293/615 505/290/614 510/294/617
f 509/295/618 505/290/611 508/292/613
f 505/290/611 509/295/618 510/294/619
f 512/294/620 507/293/615 510/294/617
f 509/295/618 511/296/621 510/294/619
f 510/294/619 511/296/621 513/297/622
f 512/294/620 510/294/617 514/298/623
f 514/298/624 510/294/619 513/297/622
f 515/298/623 512/294/620 514/298/623
f 517/297/625 516/299/626 515/298/627
f 516/299/626 512/294/628 515/298/627
f 519/300/629 516/299/626 517/297/625
f 518/301/630 519/300/629 517/297/625
f 511/296/621 509/295/618 519/300/631
f 509/295/618 521/302/632 519/300/631
f 521/302/633 520/295/634 519/300/629
f 520/295/634 516/299/626 519/300/629
f 511/296/621 519/300/631 518/301/635
f 520/295/634 521/302/633 508/292/636
f 521/302/632 509/295/618 508/292/613
f 520/295/634 507/293/637 512/294/628
f 507/293/637 520/295/634 508/292/636
f 516/299/626 520/295/634 512/294/628
f 513/297/622 511/296/621 518/301/635
f 506/291/638 507/293/637 508/292/636
f 523/303/639 522/304/640 524/305/640
f 524/305/641 522/304/641 525/305/641
f 522/304/641 526/306/641 525/305/641
f 525/305/642 526/306/642 527/307/643
f 526/306/642 528/308/644 527/307/643
f 528/308/644 529/309/645 530/310/645
f 527/307/643 528/308/644 530/310/645
f 530/310/646 529/309/646 531/311/647
f 529/309/646 523/303/639 531/311/647
f 531/311/647 523/303/639 524/305/640
f 533/312/648 532/313/649 534/314/649
f 534/314/650 532/313/651 535/315/650
f 532/313/651 536/313/651 535/315/650
f 535/315/652 536/313/652 537/316/653
f 536/313/652 538/312/654 537/316/653
f 538/312/654 539/317/655 540/318/655
f 537/316/653 538/312/654 540/318/655
f 540/318/656 539/317/656 541/316/657
f 539/317/656 533/312/648 541/316/657
f 541/316/657 533/312/648 534/314/649
f 542/319/658 543/320/658 545/321/658
f 543/320/640 542/319/640 544/322/639
f 546/319/641 542/319/641 545/321/641
f 545/321/642 547/323/659 546/319/642
f 547/323/659 548/324/644 546/319/642
f 550/325/645 549/326/645 548/324/644
f 547/323/659 550/325/645 548/324/644
f 550/325/646 551/327/660 549/326/646
f 551/327/647 543/320/640 544/322/639
f 551/327/647 544/322/639 549/326/646
f 555/328/661 552/329/662 553/330/663
f 552/329/662 554/331/662 553/330/664
f 554/331/665 552/329/665 556/332/665
f 556/332/666 557/333/667 558/334/666
f 558/334/668 554/331/668 556/332/668
f 557/333/667 559/330/669 558/334/666
f 557/333/667 560/335/670 559/330/669
f 560/335/670 561/336/671 559/330/669
f 560/335/670 555/328/661 561/336/671
f 555/328/661 553/330/663 561/336/671
f 563/337/672 562/337/673 564/337/674
f 564/337/674 562/337/673 565/337/675
f 562/337/673 566/337/676 565/337/675
f 565/337/675 566/337/676 567/337/677
f 566/337/676 568/337/678 567/337/677
f 568/337/678 563/337/672 569/337/679
f 567/337/677 568/337/678 569/337/679
f 569/337/679 563/337/672 564/337/674
f 564/337/674 565/337/675 569/337/679
f 565/337/675 567/337/677 569/337/679
f 571/337/680 573/337/681 570/337/682
f 571/337/680 570/337/682 572/337/683
f 573/337/681 574/337/684 570/337/682
f 573/337/681 575/337/685 574/337/684
f 575/337/685 576/337/686 574/337/684
f 577/337/687 572/337/683 576/337/686
f 575/337/685 577/337/687 576/337/686
f 571/337/680 577/337/687 573/337/681
f 577/337/687 571/337/680 572/337/683
f 577/337/687 575/337/685 573/337/681
f 579/337/672 578/337/673 580/337/674
f 580/337/674 578/337/673 581/337/675
f 578/337/673 582/337/676 581/337/675
f 581/337/675 582/337/676 583/337/677
f 582/337/676 584/337/678 583/337/677
f 584/337/678 579/337/672 585/337/679
f 583/337/677 584/337/678 585/337/679
f 580/337/674 581/337/675 585/337/679
f 585/337/679 579/337/672 580/337/674
f 581/337/675 583/337/677 585/337/679
f 587/337/680 589/337/681 586/337/682
f 587/337/680 586/337/682 588/337/683
f 589/337/681 590/337/684 586/337/682
f 589/337/681 591/337/685 590/337/684
f 591/337/685 592/337/686 590/337/684
f 593/337/687 588/337/683 592/337/686
f 591/337/685 593/337/687 592/337/686
f 593/337/687 587/337/680 588/337/683
f 587/337/680 593/337/687 589/337/681
f 593/337/687 591/337/685 589/337/681
f 595/337/672 594/337/673 596/337/674
f 596/337/674 594/337/673 597/337/675
f 594/337/673 598/337/676 597/337/675
f 597/337/675 598/337/676 599/337/677
f 598/337/676 600/337/678 599/337/677
f 600/337/678 595/337/672 601/337/679
f 599/337/677 600/337/678 601/337/679
f 601/337/679 595/337/672 596/337/674
f 596/337/674 597/337/675 601/337/679
f 597/337/675 599/337/677 601/337/679
f 603/337/680 605/337/681 602/337/682
f 603/337/680 602/337/682 604/337/683
f 605/337/681 606/337/684 602/337/682
f 605/337/681 607/337/685 606/337/684
f 607/337/685 608/337/686 606/337/684
f 609/337/687 604/337/683 608/337/686
f 607/337/685 609/337/687 608/337/686
f 603/337/680 609/337/687 605/337/681
f 609/337/687 603/337/680 604/337/683
f 609/337/687 607/337/685 605/337/681
o effect
v -35.532928 -4.634296 -3.483364
v -122.260742 -7.373224 3.857580
v -35.532928 -4.634295 3.483364
v -122.260742 -7.373225 -3.857579
v -122.758987 1.410852 -6.465956
v -35.166859 3.708340 -5.343424
v -35.166859 3.708341 5.343423
v -122.758987 1.410853 6.465956
v -35.570492 12.050495 3.483363
v -35.570492 12.050495 -3.483365
v -123.257347 10.194930 3.857579
v -194.325821 4.297106 3.857580
v -123.257347 10.194930 -3.857581
v -194.325821 4.297105 -3.857580
v -260.450104 -4.483840 -3.857580
v -259.068634 -13.173633 -6.465955
v -193.371124 -4.449447 -6.465956
v -192.416702 -13.195884 -3.857579
v -257.687378 -21.863312 -3.857578
v -337.943726 -37.049389 -3.735313
v -337.943726 -37.049389 3.735319
v -257.687378 -21.863312 3.857582
v -259.068634 -13.173631 6.465957
v -192.416702 -13.195884 3.857581
v -193.371124 -4.449446 6.465957
v -260.450104 -4.483839 3.857580
v -341.683563 -19.550928 -3.735314
v -341.683563 -19.550928 3.735317
v -340.217102 -28.386606 5.729938
v -340.217102 -28.386606 -5.729934
v -35.467033 -4.153358 -2.735048
v -35.457279 10.412830 -2.735049
v -35.467033 -4.153358 2.735048
v -35.457279 10.412830 2.735047
v -35.461735 3.758373 -4.221008
v -35.461735 3.758373 4.221007
v -337.486664 -35.412895 -2.735045
v -340.634460 -20.888948 -2.735046
v -337.486664 -35.412895 2.735051
v -340.634460 -20.888948 2.735050
v -339.060486 -28.150925 -4.221006
v -339.060486 -28.150925 4.221010
v -257.904907 -20.520561 -2.735047
v -260.231232 -5.844098 -2.735048
v -257.904907 -20.520561 2.735049
v -260.231232 -5.844098 2.735049
v -259.067963 -13.182447 -4.221007
v -259.067963 -13.182447 4.221009
v -192.563873 -11.841107 -2.735047
v -194.177261 2.929916 -2.735048
v -192.563873 -11.841107 2.735049
v -194.177261 2.929917 2.735048
v -193.370483 -4.455652 -4.221007
v -193.370483 -4.455651 4.221008
v -122.334953 -6.009948 -2.735048
v -123.182228 8.824807 -2.735049
v -122.334953 -6.009948 2.735049
v -123.182228 8.824807 2.735047
v -122.758537 1.407430 -4.221008
v -122.758537 1.407431 4.221008
v -337.486664 -35.412895 -2.735045
v -339.060486 -28.150925 -4.221006
v -337.486664 -35.412895 2.735051
v -339.060486 -28.150925 4.221010
v -340.634460 -20.888948 2.735050
v -340.634460 -20.888948 -2.735046
v -103.135185 -6.017891 -3.134203
v -103.135185 -6.017891 3.134320
v -103.225624 1.896344 -5.019436
v -99.029907 2.009949 -5.019436
v -99.057159 -5.907549 -3.134203
v -99.057159 -5.907549 3.134320
v -103.225624 1.896344 5.019436
v -99.029907 2.009950 5.019436
v -99.002678 9.927448 -3.134320
v -99.002678 9.927448 3.134203
v -103.315956 9.810697 3.134203
v -103.315956 9.810697 -3.134320
vn 0.0657 -0.9978 -0.0000
vn 0.0316 -0.9995 -0.0000
vn 0.0486 -0.9988 -0.0000
vn 0.9999 -0.0130 -0.0000
vn 0.9990 -0.0438 -0.0000
vn 0.0156 -0.2512 -0.9678
vn 0.0183 -0.2837 -0.9588
vn 0.0089 -0.0420 -0.9991
vn 0.0128 -0.0000 -0.9999
vn 0.9998 0.0175 -0.0000
vn 0.0128 -0.0000 0.9999
vn 0.0024 0.2514 0.9679
vn 0.0019 0.0419 0.9991
vn 0.0156 -0.2512 0.9678
vn 0.9988 0.0483 -0.0000
vn -0.0212 0.9998 -0.0000
vn -0.0520 0.9986 -0.0000
vn -0.0128 0.2840 0.9587
vn -0.0282 0.2828 0.9588
vn -0.0990 0.9951 -0.0000
vn -0.1154 0.9933 -0.0000
vn -0.1485 0.9889 -0.0000
vn -0.0084 0.0411 -0.9991
vn -0.0453 0.2806 -0.9588
vn -0.0328 0.2823 -0.9588
vn 0.0025 0.0002 -1.0000
vn -0.0163 0.2838 -0.9588
vn 0.0281 -0.2829 -0.9587
vn 0.0422 -0.2811 -0.9588
vn 0.1859 -0.9826 -0.0000
vn 0.1680 -0.9858 -0.0000
vn 0.0416 -0.2481 -0.9678
vn 0.1497 -0.9887 -0.0000
vn 0.1154 -0.9933 -0.0000
vn 0.0028 -0.0424 0.9991
vn 0.0444 -0.2807 0.9588
vn 0.0327 -0.2824 0.9588
vn 0.0416 -0.2481 0.9678
vn 0.0990 -0.9951 -0.0000
vn -0.0024 -0.0003 1.0000
vn 0.0200 -0.2835 0.9587
vn -0.0427 0.2810 0.9588
vn -0.1656 0.9862 -0.0000
vn -0.1824 0.9832 -0.0000
vn -0.0510 0.2459 0.9680
vn -0.9810 -0.1941 -0.0000
vn -0.9865 -0.1637 -0.0000
vn -0.0087 -0.0018 1.0000
vn -0.9746 -0.2239 -0.0000
vn -0.9672 -0.2538 -0.0000
vn -0.0087 -0.0018 -1.0000
vn -0.0510 0.2459 -0.9680
vn 0.0024 0.2514 -0.9679
vn 0.0361 -0.1928 -0.9806
vn -0.0124 0.0656 -0.9978
vn 0.0017 0.0003 -1.0000
vn 0.0293 -0.1939 -0.9806
vn 0.0123 -0.0651 0.9978
vn 0.0361 -0.1928 0.9806
vn 0.0327 -0.1934 0.9806
vn -0.0017 -0.0003 1.0000
vn 0.1839 -0.9829 -0.0000
vn 0.1666 -0.9860 -0.0000
vn 0.1491 -0.9888 -0.0000
vn -0.0361 0.1928 -0.9806
vn -0.0327 0.1934 -0.9806
vn -0.1839 0.9829 -0.0000
vn -0.1666 0.9860 -0.0000
vn -0.1491 0.9888 -0.0000
vn -0.0361 0.1928 0.9806
vn -0.0293 0.1939 0.9806
vn 0.0017 0.0002 -1.0000
vn 0.0195 -0.1952 -0.9806
vn 0.0226 -0.1948 0.9806
vn -0.0016 -0.0002 1.0000
vn 0.1155 -0.9933 -0.0000
vn -0.0227 0.1948 -0.9806
vn -0.0195 0.1952 0.9806
vn 0.0020 0.0038 -1.0000
vn 0.0085 -0.1921 -0.9813
vn 0.0122 -0.1957 0.9806
vn -0.0024 0.0333 0.9994
vn 0.0624 -0.9981 -0.0000
vn 0.0417 -0.9991 -0.0000
vn -0.0119 0.1958 -0.9806
vn -0.0504 0.9987 -0.0000
vn -0.0099 0.1959 0.9806
vn 0.0046 -0.1904 0.9817
vn -0.0005 0.0172 0.9999
vn 0.0214 -0.9998 -0.0000
vn -0.0047 0.2071 0.9783
vn -0.0181 0.9998 -0.0000
vn -0.0047 0.2071 -0.9783
vn 0.0011 -0.0551 -0.9985
vn 0.0039 -0.1846 -0.9828
vn 1.0000 -0.0007 -0.0000
vn -0.9773 -0.2118 -0.0000
vn 0.0270 -0.9996 -0.0000
vn -0.9999 -0.0114 -0.0000
vn 0.0063 -0.2317 -0.9728
vn -0.0009 0.0789 -0.9969
vn 0.0020 -0.0788 -0.9969
vn -0.0020 0.0794 0.9968
vn 0.0009 -0.0794 0.9968
vn 0.0063 -0.2316 0.9728
vn 1.0000 -0.0034 -0.0000
vn -0.0063 0.2316 0.9728
vn -0.0271 0.9996 -0.0000
vn -0.0063 0.2316 -0.9728
vt 0.352875 0.633003
vt 0.487720 0.624855
vt 0.488281 0.599537
vt 0.352092 0.606343
vt 0.487645 0.574219
vt 0.351308 0.579684
vt 0.240814 0.597448
vt 0.138009 0.623971
vt 0.140166 0.650346
vt 0.242306 0.623994
vt 0.243799 0.650540
vt 0.142322 0.676721
vt 0.017551 0.722656
vt 0.011719 0.669544
vt 0.014008 0.696362
vt 0.016650 0.722656
vt 0.014184 0.699027
vt 0.139093 0.650501
vt 0.140917 0.674377
vt 0.011719 0.675397
vt 0.137269 0.626624
vt 0.241684 0.622251
vt 0.242951 0.646281
vt 0.240416 0.598221
vt 0.351952 0.603328
vt 0.352622 0.627461
vt 0.351283 0.579196
vt 0.488281 0.621609
vt 0.488281 0.595868
vt 0.488281 0.574219
vt 0.628906 0.511340
vt 0.628906 0.394910
vt 0.687500 0.542969
vt 0.687500 0.363281
vt 0.746094 0.394910
vt 0.746094 0.511340
vt 0.629684 0.397023
vt 0.628906 0.397023
vt 0.628906 0.509225
vt 0.687088 0.542969
vt 0.687889 0.542969
vt 0.629684 0.509225
vt 0.687889 0.363281
vt 0.687088 0.363281
vt 0.745271 0.397025
vt 0.746094 0.509227
vt 0.746094 0.397025
vt 0.745271 0.509227
s 1
f 613/338/688 610/339/689 611/338/690
f 610/339/689 612/339/689 611/338/690
f 616/340/691 612/339/692 610/339/692
f 610/339/693 613/338/694 614/341/695
f 615/340/696 610/339/693 614/341/695
f 615/340/697 616/340/691 610/339/692
f 616/340/698 618/342/699 617/341/700
f 612/339/701 616/340/698 617/341/700
f 618/342/702 616/340/691 615/340/697
f 619/342/702 618/342/702 615/340/697
f 618/342/703 619/342/703 620/343/704
f 618/342/699 620/343/705 617/341/700
f 620/343/705 621/344/706 617/341/700
f 623/344/707 621/344/708 620/343/704
f 619/342/703 622/343/704 620/343/704
f 622/343/704 623/344/707 620/343/704
f 623/344/707 624/345/709 621/344/708
f 625/346/710 624/345/711 623/344/712
f 626/347/713 625/346/710 623/344/712
f 626/347/713 623/344/712 622/343/714
f 614/341/695 626/347/713 622/343/714
f 627/348/715 626/347/713 614/341/695
f 628/349/716 625/346/710 626/347/713
f 627/348/715 628/349/716 626/347/713
f 630/350/717 629/350/717 628/349/718
f 628/349/716 629/350/719 625/346/710
f 631/349/720 630/350/717 628/349/718
f 631/349/720 628/349/718 627/348/721
f 632/346/722 631/349/723 633/348/724
f 630/350/725 631/349/723 632/346/722
f 633/348/726 631/349/720 627/348/721
f 634/347/727 632/346/722 633/348/724
f 633/348/726 627/348/721 613/338/688
f 634/347/727 633/348/724 611/338/728
f 611/338/690 633/348/726 613/338/688
f 621/344/706 634/347/727 617/341/700
f 621/344/706 635/345/729 634/347/727
f 635/345/729 632/346/722 634/347/727
f 617/341/700 634/347/727 611/338/728
f 624/345/709 635/345/730 621/344/708
f 624/345/709 636/351/731 635/345/730
f 636/351/731 637/351/731 635/345/730
f 635/345/729 637/351/732 632/346/722
f 638/352/733 637/351/734 636/351/734
f 637/351/732 638/352/735 632/346/722
f 639/352/736 638/352/733 636/351/734
f 630/350/737 638/352/733 639/352/736
f 638/352/735 630/350/725 632/346/722
f 629/350/737 630/350/737 639/352/736
f 629/350/719 639/352/738 625/346/710
f 639/352/738 636/351/739 625/346/710
f 636/351/739 624/345/711 625/346/710
f 613/338/694 627/348/715 614/341/695
f 622/343/714 619/342/740 614/341/695
f 619/342/740 615/340/696 614/341/695
f 611/338/728 612/339/701 617/341/700
f 646/353/741 650/354/742 656/355/743
f 652/356/744 646/353/741 656/355/743
f 651/354/745 648/353/746 654/356/747
f 657/355/748 651/354/745 654/356/747
f 648/353/749 646/353/749 652/356/750
f 654/356/751 648/353/749 652/356/750
f 650/354/742 647/357/752 653/358/753
f 656/355/743 650/354/742 653/358/753
f 647/357/754 649/357/754 655/358/755
f 653/358/756 647/357/754 655/358/755
f 649/357/757 651/354/745 657/355/748
f 655/358/758 649/357/757 657/355/748
f 652/356/744 656/355/743 662/359/759
f 658/360/760 652/356/744 662/359/759
f 657/355/748 654/356/747 660/360/761
f 663/359/762 657/355/748 660/360/761
f 654/356/751 652/356/750 658/360/763
f 660/360/726 654/356/751 658/360/763
f 656/355/743 653/358/753 659/361/764
f 662/359/759 656/355/743 659/361/764
f 653/358/756 655/358/755 661/361/708
f 659/361/707 653/358/756 661/361/708
f 655/358/758 657/355/748 663/359/762
f 661/361/765 655/358/758 663/359/762
f 658/360/760 662/359/759 668/362/766
f 664/363/767 658/360/760 668/362/766
f 663/359/762 660/360/761 666/363/768
f 669/362/769 663/359/762 666/363/768
f 660/360/726 658/360/763 664/363/770
f 666/363/771 660/360/726 664/363/770
f 662/359/759 659/361/764 665/364/772
f 668/362/766 662/359/759 665/364/772
f 659/361/707 661/361/708 667/364/773
f 665/364/773 659/361/707 667/364/773
f 661/361/765 663/359/762 669/362/769
f 667/364/774 661/361/765 669/362/769
f 642/365/775 645/366/776 669/362/769
f 666/363/768 642/365/775 669/362/769
f 640/365/777 642/365/777 666/363/771
f 664/363/770 640/365/777 666/363/771
f 643/367/778 667/364/774 669/362/769
f 645/366/776 643/367/778 669/362/769
f 641/367/779 665/364/773 667/364/773
f 643/367/779 641/367/779 667/364/773
f 641/367/780 644/366/781 668/362/766
f 665/364/772 641/367/780 668/362/766
f 644/366/781 640/365/782 664/363/767
f 668/362/766 644/366/781 664/363/767
f 643/367/783 645/366/783 644/366/783
f 641/367/783 643/367/783 644/366/783
f 645/366/783 642/365/783 640/365/783
f 644/366/783 645/366/783 640/365/783
f 670/368/784 672/369/784 671/370/784
f 672/369/784 673/371/784 671/370/784
f 673/371/784 674/372/784 675/373/784
f 671/370/784 673/371/784 675/373/784
f 681/374/785 677/375/785 676/376/785
f 677/375/786 678/377/786 676/376/786
f 676/376/787 678/377/788 679/378/789
f 680/379/787 676/376/787 679/378/789
f 680/379/785 681/374/785 676/376/785
f 683/380/790 682/381/791 681/374/792
f 682/381/791 677/375/792 681/374/792
f 680/379/793 679/378/793 681/374/793
f 683/380/793 681/374/793 679/378/793
f 686/382/794 682/381/791 683/380/790
f 684/383/793 683/380/793 679/378/793
f 684/383/793 685/384/793 683/380/793
f 685/384/794 686/382/794 683/380/790
f 687/385/795 686/382/795 685/384/795
f 687/385/786 678/377/786 686/382/786
f 686/382/786 678/377/786 682/381/786
f 678/377/788 687/385/796 684/383/796
f 684/383/795 687/385/795 685/384/795
f 679/378/789 678/377/788 684/383/796
f 678/377/786 677/375/786 682/381/786
