# Blender 5.2.0 LTS
# www.blender.org
o blade
v -33.167946 -1.961311 -1.857793
v 33.888584 -0.516454 1.857791
v 33.888584 -0.516455 -1.857793
v -33.167946 -1.961311 1.857791
v -35.494469 -1.976055 1.857791
v -35.494469 -1.976056 -1.857793
v -33.128986 3.644867 -2.924859
v -35.455513 3.630122 -2.924859
v -33.095940 8.400446 -1.857794
v 33.952091 8.622731 -1.857794
v 33.920330 4.053138 -2.924859
v 33.952091 8.622731 1.857790
v 33.920330 4.053138 2.924857
v -33.128986 3.644867 2.924857
v -33.095940 8.400446 1.857790
v -35.422466 8.385702 -1.857794
v -35.422466 8.385702 1.857790
v -35.455513 3.630123 2.924857
v -39.060112 -2.243781 -0.566753
v -124.766975 1.152835 -0.668233
v -39.048687 3.365328 -0.668233
v -124.520691 -4.448440 -0.566753
v -39.060112 -2.243781 0.566755
v -124.520691 -4.448440 0.566755
v -39.048687 3.365328 0.668235
v -124.766975 1.152835 0.668235
v -39.037262 8.974318 0.000000
v -125.013374 6.753989 0.000001
v -197.183609 -4.909895 -0.668233
v -197.660385 0.672153 0.000001
v -265.255859 -8.325857 0.000002
v -264.564636 -13.879498 -0.668232
v -197.183609 -4.909895 0.668235
v -264.564636 -13.879498 0.668236
v -196.706940 -10.491823 0.566756
v -263.873535 -19.432789 0.566757
v -196.706940 -10.491823 -0.566752
v -263.873535 -19.432789 -0.566751
v -334.913757 -32.439583 -0.566751
v -334.913757 -32.439583 0.566758
v -330.417328 -25.522818 -0.668231
v -333.302246 -20.698977 0.000003
v -339.098419 -27.144936 0.000003
v -330.417328 -25.522818 0.668237
v -341.919098 -33.701660 0.000004
v -34.015800 -2.157500 -1.099300
v -42.484100 -2.225600 1.099300
v -34.015800 -2.157500 1.099300
v -42.484100 -2.225600 -1.099300
v -34.015800 3.610700 -1.295900
v -42.484100 3.542600 -1.295900
v -34.015800 8.765900 -0.723001
v -34.015800 8.765900 0.722999
v -42.484100 8.697800 -0.723001
v -42.484100 8.697800 0.722999
v -34.015800 3.610700 1.295900
v -42.484100 3.542600 1.295900
v -35.455627 3.601850 -0.000000
v -35.455627 3.601849 10.302732
v -35.447041 -0.468596 7.051582
v -35.440712 -3.442688 4.068436
v -35.454872 -6.696026 0.000003
v -35.440712 -3.442698 -4.068443
v -35.447041 -0.468591 -7.051576
v -35.455627 3.601851 -10.302733
v -35.464252 7.667428 -7.046916
v -35.470547 10.645968 -4.069454
v -35.456379 13.899723 -0.000003
v -35.470547 10.646037 4.069406
v -35.464252 7.667424 7.046903
v -36.842789 10.646529 4.068377
v -36.836460 7.672391 7.051575
v -36.827873 3.601949 -0.000000
v -36.827873 3.601948 10.302732
v -36.819248 -0.463628 7.046909
v -36.812954 -3.442160 4.069445
v -36.827122 -6.695927 0.000003
v -36.812954 -3.442179 -4.069455
v -36.819248 -0.463630 -7.046915
v -36.827873 3.601950 -10.302733
v -36.836460 7.672392 -7.051581
v -36.842789 10.646494 -4.068443
v -36.828629 13.899825 -0.000003
vn 0.0139 -0.9999 -0.0000
vn 0.0215 -0.9998 -0.0000
vn 0.0026 -0.1870 -0.9824
vn 0.0008 -0.0179 -0.9998
vn 0.0030 -0.2075 -0.9782
vn 0.0063 -1.0000 -0.0000
vn 0.0012 -0.1870 -0.9824
vn 0.0004 0.0835 -0.9965
vn -0.0011 0.2189 -0.9757
vn -0.0011 0.2232 -0.9748
vn -0.0000 0.0019 -1.0000
vn 1.0000 -0.0069 -0.0000
vn 0.0004 0.0095 1.0000
vn 0.0008 0.0766 0.9971
vn -0.0011 0.2217 0.9751
vn 0.0030 -0.2075 0.9782
vn -0.0008 0.2274 0.9738
vn -0.0048 1.0000 -0.0000
vn -0.0063 1.0000 -0.0000
vn -0.0033 1.0000 -0.0000
vn -0.0014 0.2189 0.9757
vn -0.0006 -0.0543 0.9985
vn 0.0026 -0.1870 0.9824
vn 0.0012 -0.1870 0.9824
vn -0.0014 0.2189 -0.9757
vn 0.0010 -0.0181 -0.9998
vn -0.0015 0.0274 -0.9996
vn 0.0005 -0.0181 -0.9998
vn -0.0018 0.0731 -0.9973
vn 0.0551 -0.9985 -0.0000
vn 0.0258 -0.9997 -0.0000
vn 0.0546 -0.9985 -0.0000
vn 0.0548 -0.9985 -0.0000
vn 0.0010 -0.0181 0.9998
vn 0.0005 -0.0181 0.9998
vn -0.0008 0.0276 0.9996
vn -0.0040 0.0729 0.9973
vn -0.0031 0.1183 0.9930
vn -0.0064 0.1182 0.9930
vn -0.0064 0.1182 -0.9930
vn -0.0031 0.1183 -0.9930
vn -0.0049 0.0501 -0.9987
vn -0.0136 0.1177 -0.9930
vn -0.0118 0.1179 0.9930
vn -0.0095 0.0633 -0.9979
vn -0.0196 0.1194 -0.9927
vn -0.0186 0.1189 0.9927
vn -0.0059 0.0501 0.9987
vn -0.0057 0.0362 0.9993
vn 0.0020 -0.0180 0.9998
vn 0.0995 -0.9950 -0.0000
vn 0.1479 -0.9890 -0.0000
vn 0.1159 -0.9933 -0.0000
vn 0.0028 -0.0179 0.9998
vn 0.1643 -0.9864 -0.0000
vn 0.0020 -0.0180 -0.9998
vn 0.0028 -0.0179 -0.9998
vn -0.0354 0.0549 -0.9979
vn 0.1787 -0.9839 -0.0000
vn -0.0563 0.0205 -0.9982
vn -0.0877 0.0532 -0.9947
vn -0.0578 0.1030 -0.9930
vn -0.0873 0.0376 -0.9955
vn -0.0354 0.0549 0.9979
vn -0.0578 0.1030 0.9930
vn -0.0877 0.0533 0.9947
vn -0.0873 0.0376 0.9955
vn -0.0563 0.0205 0.9982
vn 0.1773 -0.9842 -0.0000
vn 0.0080 -1.0000 -0.0000
vn -0.0003 0.0141 -0.9999
vn 0.0003 -0.0341 -0.9994
vn -0.0003 0.0624 -0.9981
vn -0.0009 0.1105 -0.9939
vn -0.0080 1.0000 -0.0000
vn -1.0000 -0.0000 -0.0000
vn -0.0003 0.0624 0.9981
vn -0.0009 0.1105 0.9939
vn -0.0003 0.0141 0.9999
vn 0.0003 -0.0341 0.9994
vn 1.0000 0.0021 -0.0000
vn 1.0000 0.0014 -0.0000
vn 1.0000 0.0010 -0.0020
vn 1.0000 0.0001 -0.0000
vn 1.0000 0.0010 0.0020
vn 0.0043 0.7158 0.6983
vn 0.0047 0.6164 0.7874
vn 0.0004 0.0747 0.9972
vn -0.0000 0.8031 0.5959
vn 0.0004 0.6811 0.7322
vn -1.0000 -0.0021 -0.0000
vn -1.0000 -0.0010 -0.0020
vn -1.0000 -0.0014 -0.0000
vn -0.0004 -0.0747 0.9972
vn -0.0047 -0.6164 0.7874
vn -0.0043 -0.7158 0.6983
vn -0.0005 -0.6811 0.7322
vn -0.0001 -0.8031 0.5959
vn -1.0000 -0.0010 0.0020
vn -1.0000 -0.0001 -0.0000
vn 0.0004 -0.9898 -0.1425
vn 0.0004 -0.9898 0.1425
vn -0.0005 -0.6815 -0.7318
vn -0.0001 -0.8036 -0.5952
vn -0.0047 -0.6153 -0.7883
vn -0.0043 -0.7151 -0.6990
vn -0.0004 -0.0762 -0.9971
vn 0.0004 0.0762 -0.9971
vn 0.0047 0.6153 -0.7883
vn 0.0043 0.7151 -0.6990
vn 0.0005 0.6815 -0.7318
vn 0.0001 0.8036 -0.5952
vn -0.0004 0.9898 -0.1425
vn -0.0004 0.9898 0.1425
vt 0.023508 0.535156
vt 0.363281 0.519007
vt 0.023508 0.446391
vt 0.011719 0.535156
vt 0.011719 0.446391
vt 0.023508 0.371094
vt 0.363281 0.374302
vt 0.363281 0.446655
vt 0.011719 0.371094
vt 0.353784 0.833084
vt 0.353378 0.802916
vt 0.488281 0.822133
vt 0.488281 0.791926
vt 0.488281 0.761719
vt 0.352972 0.772748
vt 0.239423 0.834785
vt 0.238654 0.804718
vt 0.133402 0.882364
vt 0.132296 0.852447
vt 0.240191 0.864852
vt 0.134507 0.912279
vt 0.029795 0.944358
vt 0.022740 0.981560
vt 0.016137 0.953000
vt 0.025239 0.918348
vt 0.011719 0.988281
vt 0.628906 0.542969
vt 0.629632 0.363281
vt 0.691131 0.363281
vt 0.690405 0.542969
vt 0.746094 0.363281
vt 0.745368 0.542969
vt 0.544922 0.375318
vt 0.500000 0.363281
vt 0.500000 0.453125
vt 0.455078 0.375318
vt 0.422193 0.408203
vt 0.410156 0.453125
vt 0.422193 0.498047
vt 0.455078 0.530932
vt 0.500000 0.542969
vt 0.544922 0.530932
vt 0.577807 0.498047
vt 0.589844 0.453125
vt 0.577807 0.408204
s 1
f 4/1/1 1/1/1 2/2/2
f 1/1/1 3/2/2 2/2/2
f 1/1/3 7/3/4 3/2/5
f 1/1/1 4/1/1 5/4/6
f 6/4/6 1/1/1 5/4/6
f 7/3/4 1/1/3 6/4/7
f 8/5/8 7/3/4 6/4/7
f 9/6/9 7/3/4 8/5/8
f 7/3/4 9/6/9 10/7/10
f 7/3/4 11/8/11 3/2/5
f 11/8/11 7/3/4 10/7/10
f 3/2/12 11/8/12 13/8/12
f 11/8/12 10/7/12 12/7/12
f 13/8/12 11/8/12 12/7/12
f 14/3/13 13/8/14 15/6/15
f 2/2/16 13/8/14 14/3/13
f 2/2/12 3/2/12 13/8/12
f 13/8/14 12/7/17 15/6/15
f 15/6/18 9/6/18 16/9/19
f 9/6/18 15/6/18 10/7/20
f 15/6/18 12/7/20 10/7/20
f 17/9/19 15/6/18 16/9/19
f 14/3/13 15/6/15 17/9/21
f 18/5/22 14/3/13 17/9/21
f 4/1/23 14/3/13 18/5/22
f 5/4/24 4/1/23 18/5/22
f 16/9/25 9/6/9 8/5/8
f 4/1/23 2/2/16 14/3/13
f 22/10/26 20/11/27 19/12/28
f 20/11/27 21/13/29 19/12/28
f 22/10/30 19/12/31 23/12/31
f 24/10/32 22/10/33 23/12/31
f 24/10/34 23/12/35 25/13/36
f 26/11/37 24/10/34 25/13/36
f 26/11/37 25/13/36 27/14/38
f 28/15/39 26/11/37 27/14/38
f 28/15/40 27/14/41 21/13/29
f 20/11/27 29/16/42 28/15/40
f 29/16/42 30/17/43 28/15/40
f 28/15/39 30/17/44 26/11/37
f 20/11/27 28/15/40 21/13/29
f 32/18/45 31/19/46 30/17/43
f 30/17/44 31/19/47 33/16/48
f 29/16/42 32/18/45 30/17/43
f 30/17/44 33/16/48 26/11/37
f 31/19/47 34/18/49 33/16/48
f 26/11/37 33/16/48 24/10/34
f 33/16/48 35/20/50 24/10/34
f 33/16/48 34/18/49 35/20/50
f 35/20/51 36/21/52 37/20/53
f 34/18/49 36/21/54 35/20/50
f 35/20/51 37/20/53 22/10/33
f 24/10/32 35/20/51 22/10/33
f 36/21/52 38/21/55 37/20/53
f 37/20/56 38/21/57 29/16/42
f 37/20/56 29/16/42 20/11/27
f 22/10/26 37/20/56 20/11/27
f 38/21/57 32/18/45 29/16/42
f 41/22/58 32/18/45 38/21/57
f 36/21/52 40/23/59 38/21/55
f 40/23/59 39/23/59 38/21/55
f 39/23/60 41/22/58 38/21/57
f 41/22/58 39/23/60 43/24/61
f 41/22/58 42/25/62 31/19/46
f 42/25/62 41/22/58 43/24/61
f 32/18/45 41/22/58 31/19/46
f 39/23/60 45/26/63 43/24/61
f 44/22/64 42/25/65 43/24/66
f 45/26/67 40/23/68 43/24/66
f 40/23/68 44/22/64 43/24/66
f 39/23/59 40/23/59 45/26/69
f 42/25/65 44/22/64 31/19/47
f 44/22/64 40/23/68 36/21/54
f 34/18/49 44/22/64 36/21/54
f 44/22/64 34/18/49 31/19/47
f 49/27/70 46/28/70 47/27/70
f 46/28/70 48/28/70 47/27/70
f 50/29/71 46/28/72 49/27/72
f 51/30/73 50/29/71 49/27/72
f 52/31/74 50/29/71 51/30/73
f 53/31/75 52/31/75 54/32/75
f 54/32/74 52/31/74 51/30/73
f 55/32/75 53/31/75 54/32/75
f 55/32/76 54/32/76 51/30/76
f 56/29/77 53/31/78 55/32/78
f 57/30/76 55/32/76 49/27/76
f 49/27/76 55/32/76 51/30/76
f 57/30/79 56/29/77 55/32/78
f 47/27/76 57/30/76 49/27/76
f 47/27/80 48/28/80 57/30/79
f 48/28/80 56/29/77 57/30/79
f 70/33/81 59/34/81 58/35/82
f 59/34/81 60/36/81 58/35/82
f 60/36/81 61/37/83 58/35/82
f 61/37/83 62/38/84 58/35/82
f 62/38/84 63/39/85 58/35/82
f 63/39/85 64/40/81 58/35/82
f 64/40/81 65/41/81 58/35/82
f 65/41/81 66/42/81 58/35/82
f 66/42/81 67/43/83 58/35/82
f 67/43/83 68/44/84 58/35/82
f 68/44/84 69/45/85 58/35/82
f 69/45/85 70/33/81 58/35/82
f 70/33/86 72/33/87 59/34/88
f 69/45/89 71/45/90 70/33/86
f 71/45/90 72/33/87 70/33/86
f 72/33/91 71/45/92 73/35/93
f 74/34/91 72/33/91 73/35/93
f 72/33/87 74/34/94 59/34/88
f 59/34/88 74/34/94 60/36/95
f 74/34/94 75/36/96 60/36/95
f 75/36/91 74/34/91 73/35/93
f 60/36/95 75/36/96 61/37/97
f 75/36/96 76/37/98 61/37/97
f 76/37/99 75/36/91 73/35/93
f 77/38/100 76/37/99 73/35/93
f 76/37/98 77/38/101 62/38/102
f 61/37/97 76/37/98 62/38/102
f 78/39/92 77/38/100 73/35/93
f 77/38/101 78/39/103 63/39/104
f 62/38/102 77/38/101 63/39/104
f 79/40/91 78/39/92 73/35/93
f 78/39/103 79/40/105 64/40/106
f 63/39/104 78/39/103 64/40/106
f 64/40/106 79/40/105 65/41/107
f 79/40/105 80/41/108 65/41/107
f 80/41/91 79/40/91 73/35/93
f 65/41/107 80/41/108 66/42/109
f 80/41/108 81/42/110 66/42/109
f 81/42/91 80/41/91 73/35/93
f 66/42/109 81/42/110 67/43/111
f 81/42/110 82/43/112 67/43/111
f 82/43/99 81/42/91 73/35/93
f 67/43/111 82/43/112 68/44/113
f 82/43/112 83/44/114 68/44/113
f 83/44/100 82/43/99 73/35/93
f 68/44/113 83/44/114 69/45/89
f 83/44/114 71/45/90 69/45/89
f 71/45/92 83/44/100 73/35/93
o blade_damaged
v -39.045094 -2.234806 -0.566753
v -124.780411 1.387118 -0.668233
v -39.048710 3.373046 -0.668233
v -124.519051 -4.213581 -0.566753
v -39.045094 -2.234806 0.566755
v -124.519051 -4.213581 0.566755
v -39.048710 3.373046 0.668235
v -39.052322 8.980780 0.000000
v -124.780411 1.387118 0.668235
v -125.041885 6.987699 0.000001
v -33.166538 -1.758671 -1.857793
v 33.888588 -0.516455 1.857791
v 33.888588 -0.516455 -1.857793
v -33.166538 -1.758671 1.857791
v -35.493061 -1.773415 1.857791
v -35.493061 -1.773415 -1.857793
v -33.129105 3.628212 -2.924859
v 33.920338 4.053138 -2.924859
v -35.455627 3.613468 -2.924859
v -33.097347 8.197805 -1.857794
v 33.952095 8.622731 -1.857794
v -33.097347 8.197805 1.857790
v 33.952095 8.622731 1.857790
v 33.920338 4.053138 2.924857
v -33.129105 3.628213 2.924857
v -35.455627 3.613469 2.924857
v -35.423874 8.183062 1.857790
v -35.423874 8.183062 -1.857794
v -35.455631 3.601849 -0.000000
v -35.455631 3.601848 10.302791
v -35.446857 -0.468642 7.051683
v -35.440392 -3.442646 4.068434
v -35.454861 -6.695987 0.000003
v -35.440392 -3.442656 -4.068441
v -35.446857 -0.468638 -7.051677
v -35.455631 3.601850 -10.302792
v -35.464443 7.667369 -7.046918
v -35.470875 10.645917 -4.069474
v -35.456402 13.899683 -0.000003
v -35.470875 10.645985 4.069426
v -35.464443 7.667364 7.046905
v -36.843117 10.646487 4.068375
v -36.836651 7.672438 7.051676
v -36.827877 3.601950 10.302791
v -36.827877 3.601951 -0.000000
v -36.812634 -3.442124 -4.069475
v -36.819065 -0.463568 -7.046915
v -36.827877 3.601952 -10.302792
v -36.836651 7.672439 -7.051682
v -36.843117 10.646452 -4.068441
v -36.819065 -0.463566 7.046910
v -36.828648 13.899787 -0.000003
v -36.812634 -3.442107 4.069465
v -36.827106 -6.695885 0.000003
v -34.015800 -2.157500 -1.099300
v -42.484100 -2.225600 1.099300
v -34.015800 -2.157500 1.099300
v -42.484100 -2.225600 -1.099300
v -34.015800 3.610700 -1.295900
v -42.484100 3.542600 -1.295900
v -34.015800 8.765900 -0.723001
v -34.015800 8.765900 0.722999
v -42.484100 8.697800 -0.723001
v -42.484100 8.697800 0.722999
v -34.015800 3.610700 1.295900
v -42.484100 3.542600 1.295900
vn 0.0004 -0.0181 -0.9998
vn -0.0007 0.0274 -0.9996
vn -0.0005 0.0276 -0.9996
vn -0.0018 0.0729 -0.9973
vn 0.0231 -0.9997 -0.0000
vn 0.0004 -0.0181 0.9998
vn -0.0006 0.0274 0.9996
vn -0.0017 0.0729 0.9973
vn -0.0007 0.0275 0.9996
vn -0.0027 0.1183 0.9930
vn -0.0017 0.0730 0.9973
vn -0.0027 0.1183 -0.9930
vn -0.0016 0.0730 -0.9973
vn 0.0124 -0.9999 -0.0000
vn 0.0185 -0.9998 -0.0000
vn 0.0024 -0.1943 -0.9809
vn 0.0007 -0.0187 -0.9998
vn 0.0028 -0.2111 -0.9775
vn 0.0063 -1.0000 -0.0000
vn 0.0012 -0.1943 -0.9809
vn -0.0000 0.0019 -1.0000
vn -0.0014 0.2274 -0.9738
vn 0.0004 0.0868 -0.9962
vn -0.0063 1.0000 -0.0000
vn 1.0000 -0.0069 -0.0000
vn 0.0005 0.0795 0.9968
vn -0.0014 0.2274 0.9738
vn 0.0003 0.0114 0.9999
vn 0.0028 -0.2111 0.9775
vn 0.0024 -0.1943 0.9809
vn -0.0006 -0.0566 0.9984
vn 0.0012 -0.1943 0.9809
vn 1.0000 0.0022 -0.0000
vn 1.0000 0.0015 -0.0000
vn 1.0000 0.0010 -0.0021
vn 1.0000 0.0001 -0.0000
vn 1.0000 0.0010 0.0021
vn 0.0044 0.7158 0.6983
vn 0.0048 0.6164 0.7874
vn 0.0004 0.0746 0.9972
vn -0.0000 0.8031 0.5959
vn 0.0004 0.6811 0.7322
vn -0.0004 -0.0746 0.9972
vn -1.0000 -0.0022 -0.0000
vn -1.0000 -0.0015 -0.0000
vn -1.0000 -0.0010 -0.0021
vn -1.0000 -0.0001 -0.0000
vn -1.0000 -0.0010 0.0021
vn 0.0005 -0.9898 0.1425
vn 0.0005 -0.9898 -0.1425
vn -0.0001 -0.8036 -0.5952
vn -0.0001 -0.8031 0.5959
vn -0.0005 -0.6815 -0.7318
vn -0.0005 -0.6811 0.7322
vn -0.0044 -0.7158 0.6983
vn -0.0004 0.9898 -0.1425
vn -0.0005 0.9898 0.1425
vn 0.0001 0.8036 -0.5952
vn -0.0048 -0.6164 0.7874
vn 0.0005 0.6815 -0.7318
vn 0.0044 0.7151 -0.6990
vn 0.0048 0.6153 -0.7883
vn 0.0004 0.0762 -0.9971
vn -0.0048 -0.6153 -0.7883
vn -0.0004 -0.0762 -0.9971
vn -0.0044 -0.7151 -0.6990
vn 0.0080 -1.0000 -0.0000
vn -0.0003 0.0141 -0.9999
vn 0.0003 -0.0341 -0.9994
vn -0.0003 0.0624 -0.9981
vn -0.0009 0.1105 -0.9939
vn -0.0080 1.0000 -0.0000
vn -1.0000 -0.0000 -0.0000
vn -0.0003 0.0141 0.9999
vn -0.0003 0.0624 0.9981
vn -0.0009 0.1105 0.9939
vn 0.0003 -0.0341 0.9994
vt 0.014576 0.988281
vt 0.013148 0.892507
vt 0.488281 0.953516
vt 0.488281 0.857616
vt 0.488281 0.761719
vt 0.011719 0.796734
vt 0.023508 0.535156
vt 0.363281 0.521689
vt 0.023508 0.446391
vt 0.011719 0.535156
vt 0.363281 0.446391
vt 0.363281 0.371094
vt 0.011719 0.446391
vt 0.023508 0.371094
vt 0.011719 0.371094
vt 0.544922 0.375318
vt 0.500000 0.363281
vt 0.500000 0.453125
vt 0.455078 0.375318
vt 0.422193 0.408203
vt 0.410156 0.453125
vt 0.422193 0.498047
vt 0.455078 0.530932
vt 0.500000 0.542969
vt 0.544922 0.530932
vt 0.577807 0.498047
vt 0.589844 0.453125
vt 0.577807 0.408204
vt 0.628906 0.542969
vt 0.629632 0.363281
vt 0.691131 0.363281
vt 0.690405 0.542969
vt 0.746094 0.363281
vt 0.745368 0.542969
s 1
f 87/46/115 85/47/116 84/48/115
f 85/47/117 86/49/118 84/48/115
f 87/46/119 84/48/119 88/48/119
f 89/46/119 87/46/119 88/48/119
f 89/46/120 88/48/120 90/49/121
f 92/47/122 90/49/123 91/50/124
f 92/47/122 89/46/120 90/49/123
f 93/51/124 92/47/125 91/50/124
f 93/51/126 91/50/126 86/49/127
f 85/47/117 93/51/126 86/49/118
f 97/52/128 94/52/128 95/53/129
f 94/52/128 96/53/129 95/53/129
f 94/52/130 100/54/131 96/53/132
f 94/52/128 97/52/128 98/55/133
f 99/55/133 94/52/128 98/55/133
f 100/54/131 94/52/130 99/55/134
f 101/56/135 100/54/131 104/57/136
f 100/54/131 101/56/135 96/53/132
f 102/58/137 100/54/131 99/55/134
f 103/59/136 100/54/131 102/58/137
f 100/54/131 103/59/136 104/57/136
f 103/59/138 105/59/138 104/57/138
f 105/59/138 106/57/138 104/57/138
f 101/56/139 104/57/139 106/57/139
f 107/56/140 106/57/141 105/59/141
f 107/56/139 101/56/139 106/57/139
f 96/53/139 101/56/139 107/56/139
f 108/54/142 107/56/140 105/59/141
f 95/53/143 107/56/140 108/54/142
f 95/53/139 96/53/139 107/56/139
f 97/52/144 108/54/142 109/58/145
f 97/52/144 95/53/143 108/54/142
f 108/54/142 105/59/141 110/60/141
f 109/58/145 108/54/142 110/60/141
f 110/60/138 105/59/138 111/60/138
f 105/59/138 103/59/138 111/60/138
f 111/60/136 103/59/136 102/58/137
f 98/55/146 97/52/144 109/58/145
f 124/61/147 113/62/147 112/63/148
f 113/62/147 114/64/147 112/63/148
f 114/64/147 115/65/149 112/63/148
f 115/65/149 116/66/150 112/63/148
f 116/66/150 117/67/151 112/63/148
f 117/67/151 118/68/147 112/63/148
f 118/68/147 119/69/147 112/63/148
f 119/69/147 120/70/147 112/63/148
f 120/70/147 121/71/149 112/63/148
f 121/71/149 122/72/150 112/63/148
f 122/72/150 123/73/151 112/63/148
f 123/73/151 124/61/147 112/63/148
f 124/61/152 126/61/153 113/62/154
f 123/73/155 125/73/156 124/61/152
f 125/73/156 126/61/153 124/61/152
f 126/61/153 127/62/157 113/62/154
f 127/62/158 126/61/158 128/63/159
f 126/61/158 125/73/160 128/63/159
f 130/68/158 129/67/160 128/63/159
f 129/67/160 137/66/161 128/63/159
f 131/69/158 130/68/158 128/63/159
f 132/70/158 131/69/158 128/63/159
f 133/71/162 132/70/158 128/63/159
f 134/64/158 127/62/158 128/63/159
f 135/72/161 133/71/162 128/63/159
f 136/65/162 134/64/158 128/63/159
f 125/73/160 135/72/161 128/63/159
f 137/66/161 136/65/162 128/63/159
f 116/66/163 137/66/164 117/67/165
f 136/65/166 137/66/164 116/66/163
f 137/66/164 129/67/167 117/67/165
f 115/65/168 136/65/166 116/66/163
f 134/64/169 136/65/166 115/65/168
f 122/72/170 135/72/171 123/73/155
f 133/71/172 135/72/171 122/72/170
f 135/72/171 125/73/156 123/73/155
f 114/64/173 134/64/169 115/65/168
f 127/62/157 134/64/169 114/64/173
f 121/71/174 133/71/172 122/72/170
f 132/70/175 133/71/172 121/71/174
f 120/70/176 132/70/175 121/71/174
f 131/69/177 132/70/175 120/70/176
f 130/68/178 131/69/177 119/69/179
f 119/69/179 131/69/177 120/70/176
f 129/67/167 130/68/178 118/68/180
f 118/68/180 130/68/178 119/69/179
f 117/67/165 129/67/167 118/68/180
f 113/62/154 127/62/157 114/64/173
f 141/74/181 138/75/181 139/74/181
f 138/75/181 140/75/181 139/74/181
f 142/76/182 138/75/183 141/74/183
f 143/77/184 142/76/182 141/74/183
f 144/78/185 142/76/182 143/77/184
f 145/78/186 144/78/186 146/79/186
f 146/79/185 144/78/185 143/77/184
f 147/79/186 145/78/186 146/79/186
f 147/79/187 146/79/187 143/77/187
f 149/77/188 148/76/189 147/79/190
f 148/76/189 145/78/190 147/79/190
f 149/77/187 147/79/187 141/74/187
f 141/74/187 147/79/187 143/77/187
f 140/75/191 148/76/189 149/77/188
f 139/74/191 140/75/191 149/77/188
f 139/74/187 149/77/187 141/74/187
o blade_fragment
v -334.542053 -32.319374 -0.566752
v -341.547424 -33.581276 0.000003
v -334.542053 -32.319374 0.566756
v -338.726898 -27.024656 0.000002
v -330.045776 -25.402756 -0.668232
v -263.501740 -19.314333 -0.566753
v -264.192993 -13.761062 -0.668233
v -263.501740 -19.314333 0.566755
v -196.811768 -4.793106 -0.668234
v -196.334976 -10.375010 -0.566753
v -196.334976 -10.375010 0.566755
v -124.394875 1.267876 -0.668234
v -124.148445 -4.333370 -0.566754
v -124.148445 -4.333370 0.566754
v -124.394875 1.267876 0.668234
v -196.811768 -4.793106 0.668234
v -264.192993 -13.761062 0.668235
v -197.288712 0.788915 -0.000000
v -264.884369 -8.207438 0.000001
v -330.045776 -25.402756 0.668236
v -332.930847 -20.578873 0.000002
v -124.641411 6.869002 -0.000001
vn -0.0563 0.0205 -0.9982
vn -0.0873 0.0376 -0.9955
vn -0.0877 0.0532 -0.9947
vn 0.1787 -0.9839 -0.0000
vn 0.1773 -0.9842 -0.0000
vn 0.1642 -0.9864 -0.0000
vn -0.0354 0.0549 -0.9979
vn 0.0028 -0.0179 -0.9998
vn -0.0093 0.0634 -0.9979
vn -0.0049 0.0501 -0.9987
vn 0.1479 -0.9890 -0.0000
vn 0.1159 -0.9933 -0.0000
vn 0.0020 -0.0180 -0.9998
vn -0.0023 0.0275 -0.9996
vn 0.0995 -0.9950 -0.0000
vn 0.0834 -0.9965 -0.0000
vn 0.0015 -0.0180 -0.9998
vn -0.0061 0.0729 0.9973
vn -0.0059 0.0502 0.9987
vn 0.0015 -0.0180 0.9998
vn 0.0020 -0.0180 0.9998
vn -0.0186 0.1189 0.9927
vn -0.0057 0.0362 0.9993
vn -0.0118 0.1179 0.9930
vn -0.0196 0.1194 -0.9927
vn -0.0578 0.1030 -0.9930
vn -0.0578 0.1030 0.9930
vn -0.0354 0.0549 0.9979
vn -0.0136 0.1177 -0.9930
vn -0.0877 0.0533 0.9947
vn -0.0563 0.0205 0.9982
vn 0.0028 -0.0179 0.9998
vn -0.0099 0.1180 -0.9930
vn -0.0099 0.1180 0.9930
vn -0.0873 0.0376 0.9955
vt 0.027074 0.981216
vt 0.011719 0.988281
vt 0.017874 0.951195
vt 0.182787 0.908389
vt 0.036902 0.942111
vt 0.181247 0.876944
vt 0.328954 0.826930
vt 0.330024 0.858536
vt 0.487716 0.793430
vt 0.488281 0.825142
vt 0.179706 0.845496
vt 0.327884 0.795324
vt 0.030555 0.914770
vt 0.487151 0.761719
s 1
f 150/80/192 151/81/193 153/82/194
f 150/80/195 152/80/195 151/81/196
f 152/80/195 150/80/195 155/83/197
f 154/84/198 150/80/192 153/82/194
f 150/80/192 154/84/198 155/83/199
f 154/84/198 156/85/200 155/83/199
f 155/83/199 156/85/200 158/86/201
f 157/83/202 155/83/197 159/87/203
f 157/83/202 152/80/195 155/83/197
f 159/87/204 155/83/199 158/86/201
f 159/87/204 158/86/201 161/88/205
f 160/87/206 159/87/203 162/89/207
f 160/87/206 157/83/202 159/87/203
f 162/89/208 159/87/204 161/88/205
f 163/89/207 160/87/206 162/89/207
f 164/88/209 165/86/210 163/89/211
f 165/86/210 160/87/212 163/89/211
f 168/90/213 166/85/214 165/86/210
f 165/86/210 166/85/214 160/87/212
f 167/91/215 165/86/210 164/88/209
f 167/91/215 168/90/213 165/86/210
f 156/85/200 154/84/198 168/90/216
f 154/84/198 170/92/217 168/90/216
f 170/92/218 169/84/219 168/90/213
f 169/84/219 166/85/214 168/90/213
f 156/85/200 168/90/216 167/91/220
f 169/84/219 170/92/218 153/82/221
f 170/92/217 154/84/198 153/82/194
f 152/80/222 169/84/219 153/82/221
f 166/85/214 169/84/219 157/83/223
f 169/84/219 152/80/222 157/83/223
f 158/86/201 167/91/220 171/93/224
f 158/86/201 156/85/200 167/91/220
f 171/93/225 167/91/215 164/88/209
f 161/88/205 158/86/201 171/93/224
f 166/85/214 157/83/223 160/87/212
f 151/81/226 152/80/222 153/82/221
o sheath
v -35.695740 -2.420115 -2.462378
v -122.345566 -6.219709 2.726911
v -35.695740 -2.420115 2.462378
v -122.345566 -6.219709 -2.726910
v -122.654724 -0.007110 -4.570762
v -35.151409 3.498263 -3.777248
v -35.151409 3.498263 3.777248
v -122.654724 -0.007109 4.570762
v -35.375584 9.399800 2.462377
v -35.375584 9.399800 -2.462379
v -122.963997 6.205488 2.726910
v -194.046875 0.503583 2.726910
v -122.963997 6.205488 -2.726911
v -194.046875 0.503583 -2.726910
v -260.255157 -7.134948 -2.726910
v -259.062134 -13.261816 -4.570761
v -193.281174 -5.672647 -4.570762
v -192.515762 -11.848800 -2.726909
v -257.869354 -19.388609 -2.726909
v -338.324707 -31.867943 -2.640480
v -338.324707 -31.867943 2.640484
v -257.869354 -19.388609 2.726912
v -259.062134 -13.261816 4.570763
v -192.515762 -11.848800 2.726911
v -193.281174 -5.672646 4.570763
v -260.255157 -7.134948 2.726911
v -341.683563 -19.550928 -2.640481
v -341.683563 -19.550928 2.640483
v -340.408813 -25.779331 4.050474
v -340.408813 -25.779331 -4.050470
v -35.629086 -2.080051 -1.933396
v -35.287670 8.242885 -1.933397
v -35.629086 -2.080050 1.933396
v -35.287670 8.242885 1.933395
v -35.443645 3.526927 -2.983816
v -35.443645 3.526927 2.983816
v -337.822968 -31.110050 -1.933394
v -340.634460 -20.888947 -1.933394
v -337.822968 -31.110050 1.933398
v -340.634460 -20.888947 1.933398
v -339.228668 -25.999498 -2.983814
v -339.228668 -25.999498 2.983818
v -258.043762 -18.744097 -1.933395
v -260.031769 -8.396205 -1.933395
v -258.043762 -18.744097 1.933397
v -260.031769 -8.396205 1.933397
v -259.037659 -13.570231 -2.983815
v -259.037659 -13.570231 2.983817
v -192.621384 -11.105332 -1.933395
v -193.895554 -0.674194 -1.933396
v -192.621384 -11.105332 1.933397
v -193.895554 -0.674194 1.933396
v -193.258392 -5.889801 -2.983815
v -193.258392 -5.889801 2.983816
v -122.384674 -5.373787 -1.933396
v -122.892654 5.119959 -1.933396
v -122.384674 -5.373787 1.933396
v -122.892654 5.119959 1.933396
v -122.638611 -0.126912 -2.983816
v -122.638611 -0.126912 2.983816
v -337.822968 -31.110050 -1.933394
v -339.228668 -25.999498 -2.983814
v -337.822968 -31.110050 1.933398
v -339.228668 -25.999498 2.983818
v -340.634460 -20.888947 1.933398
v -340.634460 -20.888947 -1.933394
v -103.135185 -6.017891 -2.215558
v -103.135185 -6.017891 2.215640
v -102.923439 -0.386859 -3.548222
v -98.744560 -0.146016 -3.548222
v -99.073532 -5.783859 -2.215558
v -99.073532 -5.783859 2.215640
v -102.923439 -0.386859 3.548222
v -98.744560 -0.146015 3.548222
v -98.415611 5.491827 -2.215640
v -98.415611 5.491827 2.215558
v -102.711578 5.244261 2.215558
v -102.711578 5.244261 -2.215640
vn 0.0704 -0.9975 -0.0000
vn 0.0438 -0.9990 -0.0000
vn 0.0533 -0.9986 -0.0000
vn 0.9991 -0.0423 -0.0000
vn 0.9958 -0.0916 -0.0000
vn 0.0150 -0.2499 -0.9681
vn 0.0191 -0.2836 -0.9588
vn 0.0099 -0.0431 -0.9990
vn 0.0086 0.0060 -0.9999
vn 0.9999 -0.0115 -0.0000
vn 0.0086 0.0060 0.9999
vn -0.0042 0.2496 0.9683
vn 0.0004 0.0402 0.9992
vn 0.0150 -0.2499 0.9681
vn 0.9993 0.0380 -0.0000
vn -0.0364 0.9993 -0.0000
vn -0.0582 0.9983 -0.0000
vn -0.0151 0.2838 0.9588
vn -0.0255 0.2830 0.9588
vn -0.0891 0.9960 -0.0000
vn -0.1055 0.9944 -0.0000
vn -0.1242 0.9923 -0.0000
vn -0.0088 0.0394 -0.9992
vn -0.0383 0.2811 -0.9589
vn -0.0301 0.2826 -0.9588
vn 0.0026 -0.0011 -1.0000
vn -0.0186 0.2836 -0.9588
vn 0.0252 -0.2830 -0.9588
vn 0.0351 -0.2816 -0.9589
vn 0.1533 -0.9882 -0.0000
vn 0.1432 -0.9897 -0.0000
vn 0.0364 -0.2470 -0.9683
vn 0.1248 -0.9922 -0.0000
vn 0.1055 -0.9944 -0.0000
vn 0.0052 -0.0434 0.9990
vn 0.0373 -0.2813 0.9589
vn 0.0299 -0.2826 0.9588
vn 0.0364 -0.2470 0.9683
vn 0.0891 -0.9960 -0.0000
vn -0.0023 -0.0015 1.0000
vn 0.0208 -0.2835 0.9588
vn -0.0357 0.2815 0.9589
vn -0.1412 0.9900 -0.0000
vn -0.1507 0.9886 -0.0000
vn -0.0410 0.2455 0.9685
vn -0.9688 -0.2479 -0.0000
vn -0.9797 -0.2005 -0.0000
vn -0.0077 0.0110 0.9999
vn -0.9607 -0.2776 -0.0000
vn -0.9461 -0.3238 -0.0000
vn -0.0077 0.0111 -0.9999
vn -0.0410 0.2455 -0.9685
vn -0.0042 0.2496 -0.9683
vn 0.0300 -0.1933 -0.9807
vn -0.0173 0.0754 -0.9970
vn 0.0019 -0.0007 -1.0000
vn 0.0246 -0.1943 -0.9806
vn 0.0146 -0.0536 0.9985
vn 0.0300 -0.1933 0.9807
vn 0.0280 -0.1938 0.9806
vn -0.0015 -0.0012 1.0000
vn 0.1532 -0.9882 -0.0000
vn 0.1434 -0.9897 -0.0000
vn 0.1257 -0.9921 -0.0000
vn -0.0300 0.1933 -0.9807
vn -0.0282 0.1938 -0.9806
vn -0.1532 0.9882 -0.0000
vn -0.1434 0.9897 -0.0000
vn -0.1258 0.9921 -0.0000
vn -0.0300 0.1933 0.9807
vn -0.0248 0.1942 0.9806
vn 0.0017 -0.0008 -1.0000
vn 0.0178 -0.1953 -0.9806
vn 0.0209 -0.1950 0.9806
vn -0.0015 -0.0010 1.0000
vn 0.1069 -0.9943 -0.0000
vn 0.0904 -0.9959 -0.0000
vn -0.0210 0.1950 -0.9806
vn -0.1068 0.9943 -0.0000
vn -0.0905 0.9959 -0.0000
vn -0.0178 0.1953 0.9806
vn 0.0019 0.0026 -1.0000
vn 0.0098 -0.1921 -0.9813
vn 0.0138 -0.1956 0.9806
vn -0.0024 0.0321 0.9995
vn 0.0700 -0.9975 -0.0000
vn 0.0493 -0.9988 -0.0000
vn -0.0135 0.1956 -0.9806
vn -0.0585 0.9983 -0.0000
vn -0.0114 0.1958 0.9806
vn 0.0074 -0.1900 0.9818
vn -0.0011 0.0232 0.9997
vn 0.0379 -0.9993 -0.0000
vn -0.0083 0.2071 0.9783
vn -0.0356 0.9994 -0.0000
vn -0.0083 0.2071 -0.9783
vn -0.0018 -0.0490 -0.9988
vn 0.0070 -0.1844 -0.9828
vn 0.9995 -0.0331 -0.0000
vn -0.9642 -0.2652 -0.0000
vn 0.0575 -0.9983 -0.0000
vn -0.9993 0.0376 -0.0000
vn 0.0133 -0.2308 -0.9729
vn 0.0039 0.0669 -0.9978
vn -0.0035 -0.0661 -0.9978
vn 0.0012 0.0916 0.9958
vn -0.0021 -0.0907 0.9959
vn 0.0133 -0.2307 0.9729
vn 0.9983 -0.0583 -0.0000
vn 0.9983 -0.0582 -0.0000
vn -0.0133 0.2308 0.9729
vn -0.0575 0.9983 -0.0000
vn -0.0133 0.2307 -0.9729
vt 0.352875 0.633003
vt 0.487720 0.624855
vt 0.488281 0.599537
vt 0.352092 0.606343
vt 0.487645 0.574219
vt 0.351308 0.579684
vt 0.240814 0.597448
vt 0.138009 0.623971
vt 0.140166 0.650346
vt 0.242306 0.623994
vt 0.243799 0.650540
vt 0.142322 0.676721
vt 0.017551 0.722656
vt 0.011719 0.669544
vt 0.014008 0.696362
vt 0.016650 0.722656
vt 0.014184 0.699027
vt 0.139093 0.650501
vt 0.140917 0.674377
vt 0.011719 0.675397
vt 0.137269 0.626624
vt 0.241684 0.622251
vt 0.242951 0.646281
vt 0.240416 0.598221
vt 0.351952 0.603328
vt 0.352622 0.627461
vt 0.351283 0.579196
vt 0.488281 0.621609
vt 0.488281 0.595868
vt 0.488281 0.574219
vt 0.628906 0.511340
vt 0.628906 0.394910
vt 0.687500 0.542969
vt 0.687500 0.363281
vt 0.746094 0.394910
vt 0.746094 0.511340
vt 0.629684 0.397023
vt 0.628906 0.397023
vt 0.628906 0.509225
vt 0.687088 0.542969
vt 0.687889 0.542969
vt 0.629684 0.509225
vt 0.687889 0.363281
vt 0.687088 0.363281
vt 0.745271 0.397025
vt 0.746094 0.509227
vt 0.746094 0.397025
vt 0.745271 0.509227
s 1
f 175/94/227 172/95/228 173/94/229
f 172/95/228 174/95/228 173/94/229
f 178/96/230 174/95/231 172/95/231
f 172/95/232 175/94/233 176/97/234
f 177/96/235 172/95/232 176/97/234
f 177/96/236 178/96/230 172/95/231
f 178/96/237 180/98/238 179/97/239
f 174/95/240 178/96/237 179/97/239
f 180/98/241 178/96/230 177/96/236
f 181/98/241 180/98/241 177/96/236
f 180/98/242 181/98/242 182/99/243
f 180/98/238 182/99/244 179/97/239
f 182/99/244 183/100/245 179/97/239
f 185/100/246 183/100/247 182/99/243
f 181/98/242 184/99/243 182/99/243
f 184/99/243 185/100/246 182/99/243
f 185/100/246 186/101/248 183/100/247
f 187/102/249 186/101/250 185/100/251
f 188/103/252 187/102/249 185/100/251
f 188/103/252 185/100/251 184/99/253
f 176/97/234 188/103/252 184/99/253
f 189/104/254 188/103/252 176/97/234
f 190/105/255 187/102/249 188/103/252
f 189/104/254 190/105/255 188/103/252
f 192/106/256 191/106/256 190/105/257
f 190/105/255 191/106/258 187/102/249
f 193/105/259 192/106/256 190/105/257
f 193/105/259 190/105/257 189/104/260
f 194/102/261 193/105/262 195/104/263
f 192/106/264 193/105/262 194/102/261
f 195/104/265 193/105/259 189/104/260
f 196/103/266 194/102/261 195/104/263
f 195/104/265 189/104/260 175/94/227
f 196/103/266 195/104/263 173/94/267
f 173/94/229 195/104/265 175/94/227
f 183/100/245 196/103/266 179/97/239
f 183/100/245 197/101/268 196/103/266
f 197/101/268 194/102/261 196/103/266
f 179/97/239 196/103/266 173/94/267
f 186/101/248 197/101/269 183/100/247
f 186/101/248 198/107/270 197/101/269
f 198/107/270 199/107/270 197/101/269
f 197/101/268 199/107/271 194/102/261
f 200/108/272 199/107/273 198/107/273
f 199/107/271 200/108/274 194/102/261
f 201/108/275 200/108/272 198/107/273
f 192/106/276 200/108/272 201/108/275
f 200/108/274 192/106/264 194/102/261
f 191/106/276 192/106/276 201/108/275
f 191/106/258 201/108/277 187/102/249
f 201/108/277 198/107/278 187/102/249
f 198/107/278 186/101/250 187/102/249
f 175/94/233 189/104/254 176/97/234
f 184/99/253 181/98/279 176/97/234
f 181/98/279 177/96/235 176/97/234
f 173/94/267 174/95/240 179/97/239
f 208/109/280 212/110/281 218/111/282
f 214/112/283 208/109/280 218/111/282
f 213/110/284 210/109/285 216/112/286
f 219/111/287 213/110/284 216/112/286
f 210/109/288 208/109/288 214/112/289
f 216/112/290 210/109/288 214/112/289
f 212/110/281 209/113/291 215/114/292
f 218/111/282 212/110/281 215/114/292
f 209/113/293 211/113/293 217/114/294
f 215/114/295 209/113/293 217/114/294
f 211/113/296 213/110/284 219/111/287
f 217/114/297 211/113/296 219/111/287
f 214/112/283 218/111/282 224/115/298
f 220/116/299 214/112/283 224/115/298
f 219/111/287 216/112/286 222/116/300
f 225/115/301 219/111/287 222/116/300
f 216/112/290 214/112/289 220/116/302
f 222/116/303 216/112/290 220/116/302
f 218/111/282 215/114/292 221/117/304
f 224/115/298 218/111/282 221/117/304
f 215/114/295 217/114/294 223/117/305
f 221/117/306 215/114/295 223/117/305
f 217/114/297 219/111/287 225/115/301
f 223/117/307 217/114/297 225/115/301
f 220/116/299 224/115/298 230/118/308
f 226/119/309 220/116/299 230/118/308
f 225/115/301 222/116/300 228/119/310
f 231/118/311 225/115/301 228/119/310
f 222/116/303 220/116/302 226/119/312
f 228/119/313 222/116/303 226/119/312
f 224/115/298 221/117/304 227/120/314
f 230/118/308 224/115/298 227/120/314
f 221/117/306 223/117/305 229/120/315
f 227/120/315 221/117/306 229/120/315
f 223/117/307 225/115/301 231/118/311
f 229/120/316 223/117/307 231/118/311
f 204/121/317 207/122/318 231/118/311
f 228/119/310 204/121/317 231/118/311
f 202/121/319 204/121/319 228/119/313
f 226/119/312 202/121/319 228/119/313
f 205/123/320 229/120/316 231/118/311
f 207/122/318 205/123/320 231/118/311
f 203/123/321 227/120/315 229/120/315
f 205/123/321 203/123/321 229/120/315
f 203/123/322 206/122/323 230/118/308
f 227/120/314 203/123/322 230/118/308
f 206/122/323 202/121/324 226/119/309
f 230/118/308 206/122/323 226/119/309
f 205/123/325 207/122/325 206/122/325
f 203/123/325 205/123/325 206/122/325
f 207/122/325 204/121/325 202/121/325
f 206/122/325 207/122/325 202/121/325
f 232/124/326 234/125/326 233/126/326
f 234/125/326 235/127/326 233/126/326
f 235/127/326 236/128/326 237/129/326
f 233/126/326 235/127/326 237/129/326
f 243/130/327 239/131/327 238/132/327
f 239/131/328 240/133/328 238/132/328
f 238/132/329 240/133/330 241/134/331
f 242/135/329 238/132/329 241/134/331
f 242/135/327 243/130/327 238/132/327
f 245/136/332 244/137/333 243/130/334
f 244/137/333 239/131/334 243/130/334
f 242/135/335 241/134/335 243/130/335
f 245/136/336 243/130/335 241/134/335
f 248/138/337 244/137/333 245/136/332
f 246/139/336 245/136/336 241/134/335
f 246/139/336 247/140/336 245/136/336
f 247/140/337 248/138/337 245/136/332
f 249/141/338 248/138/338 247/140/338
f 249/141/328 240/133/328 248/138/328
f 248/138/328 240/133/328 244/137/328
f 240/133/330 249/141/339 246/139/339
f 246/139/338 249/141/338 247/140/338
f 241/134/331 240/133/330 246/139/339
f 240/133/328 239/131/328 244/137/328
o item_blade
v 26.590300 22.520599 11.862098
v 26.590300 22.520599 5.647598
v 33.175800 18.257101 13.730999
v 34.370899 19.927902 13.730998
v 27.751900 24.144600 11.862098
v 27.751900 24.144600 5.647598
v 34.370899 19.927900 3.778699
v 33.175800 18.257099 3.778699
v 39.761299 13.993600 5.647699
v 39.761299 13.993601 11.862199
v 40.990002 15.711200 5.647699
v 40.990002 15.711201 11.862199
v 0.000000 70.710701 -0.000005
v 70.710701 0.000000 0.000000
v 0.000000 55.656200 3.999996
v -55.656101 0.000000 4.000000
v -70.710701 0.000000 0.000000
v 0.000000 -55.656101 4.000004
v 0.000000 -70.710602 0.000005
v 55.656200 0.000000 4.000000
v 0.000000 70.710701 -0.000005
v 0.000000 55.656200 -4.000004
v 70.710701 0.000000 0.000000
v -55.656101 -0.000000 -4.000000
v -70.710701 0.000000 0.000000
v 0.000000 -55.656101 -3.999996
v 0.000000 -70.710602 0.000005
v 55.656200 -0.000000 -4.000000
v 0.000000 70.710701 -0.000005
v 70.710701 0.000000 0.000000
v 0.000000 55.656200 3.999996
v -55.656101 0.000000 4.000000
v -70.710701 0.000000 0.000000
v 0.000000 -55.656101 4.000004
v 0.000000 -70.710602 0.000005
v 55.656200 0.000000 4.000000
v 0.000000 70.710701 -0.000005
v 0.000000 55.656200 -4.000004
v 70.710701 0.000000 0.000000
v -55.656101 -0.000000 -4.000000
v -70.710701 0.000000 0.000000
v 0.000000 -55.656101 -3.999996
v 0.000000 -70.710602 0.000005
v 55.656200 -0.000000 -4.000000
v 0.000000 70.710701 -0.000005
v 70.710701 0.000000 0.000000
v 0.000000 55.656200 3.999996
v -55.656101 0.000000 4.000000
v -70.710701 0.000000 0.000000
v 0.000000 -55.656101 4.000004
v 0.000000 -70.710602 0.000005
v 55.656200 0.000000 4.000000
v 0.000000 70.710701 -0.000005
v 0.000000 55.656200 -4.000004
v 70.710701 0.000000 0.000000
v -55.656101 -0.000000 -4.000000
v -70.710701 0.000000 0.000000
v 0.000000 -55.656101 -3.999996
v 0.000000 -70.710602 0.000005
v 55.656200 -0.000000 -4.000000
v -49.047565 43.906445 12.984657
v -72.792465 75.179070 18.201330
v -72.792465 75.179070 12.984654
v -49.047478 43.906441 18.201332
v -48.256844 42.799129 18.201332
v -48.256760 42.799126 12.984657
v -55.351295 39.694317 11.486517
v -78.139870 71.605972 11.486514
v -54.560574 38.586998 11.486517
v -60.698608 36.121227 12.984657
v -83.487190 68.032883 12.984655
v -60.698608 36.121227 18.201334
v -83.487190 68.032883 18.201330
v -78.139786 71.605972 19.699471
v -55.351292 39.694229 19.699472
v -54.560574 38.586998 19.699472
v -59.907890 35.013908 18.201334
v -59.907890 35.013908 12.984657
v -46.573372 41.510929 14.797325
v -21.976339 -2.456672 14.654784
v -53.077000 37.054630 14.654781
v -15.567616 2.117407 14.797328
v -46.573372 41.510929 16.388672
v -15.567616 2.117407 16.388676
v -53.077000 37.054630 16.531218
v -21.976339 -2.456672 16.531219
v -59.580509 32.598572 15.592999
v -28.384829 -7.030627 15.593003
v 9.157692 -32.500854 14.654787
v 2.847972 -37.170769 15.593005
v 35.778362 -62.558826 15.593007
v 41.983700 -57.808475 14.654789
v 9.157690 -32.500969 16.531221
v 15.467293 -27.831282 16.388678
v 41.983700 -57.808475 16.531223
v 48.188705 -53.058334 16.388680
v 77.399109 -80.253235 16.531225
v 72.769791 -85.479431 15.593009
v 86.911247 -76.916359 16.388681
v 82.168938 -83.142761 15.593009
v 86.911118 -76.916351 14.797334
v 77.399109 -80.253235 14.654790
v 90.705795 -79.285294 15.593008
v 48.188705 -53.058334 14.797332
v 15.467293 -27.831282 14.797330
v -54.485722 38.503693 15.871110
v -48.945843 30.169317 26.313885
v -45.989506 36.044243 23.112738
v -44.156517 40.828575 20.157829
v -42.555096 46.669914 16.059294
v -48.531845 47.410801 11.910352
v -53.573116 47.453171 8.817740
v -60.025734 46.838055 5.428391
v -62.973598 40.963142 8.634360
v -64.815033 36.180038 11.583407
v -66.416412 30.337463 15.682953
v -60.438732 29.596079 19.832869
v -55.395138 29.562010 22.919691
v -60.106060 29.121437 19.275522
v -55.064686 29.079062 22.368280
v -48.612133 29.694136 25.757607
v -54.152077 38.028503 15.314859
v -53.242664 46.970196 8.266268
v -59.692024 46.362869 4.872113
v -62.648331 40.487949 8.073274
v -64.481285 35.703678 11.028172
v -45.664215 35.569065 22.551592
v -66.082710 29.862280 15.126677
v -43.822807 40.352207 19.602581
v -42.221390 46.194733 15.503016
v -48.199207 46.936104 11.353032
v -48.378101 43.891602 14.049597
v -45.475899 39.865200 17.136396
v -48.378201 43.891602 17.136396
v -45.475899 39.865200 14.049597
v -55.037899 39.283600 13.773597
v -52.135700 35.257099 13.773597
v -60.990002 35.165298 14.577897
v -60.990002 35.165298 16.608099
v -58.087700 31.138903 14.577898
v -58.087799 31.138903 16.608099
v -55.037899 39.283501 17.412395
v -52.135700 35.257099 17.412397
v 63.153561 47.790306 12.209182
v 34.212746 19.496677 7.762324
v 63.153561 47.790306 7.762322
v 34.212746 19.496677 12.209184
v 70.382179 44.590054 13.417124
v 70.382179 44.590054 6.554380
v 41.296284 16.155891 6.554382
v 77.610779 41.389881 7.762322
v 77.610779 41.389881 12.209183
v 48.379589 12.815185 7.762325
v 20.593578 -8.812971 7.762326
v 48.379589 12.815185 12.209185
v 20.593578 -8.812971 12.209187
v -8.458282 -27.518269 12.209188
v -15.235148 -23.959679 13.417130
v 13.660113 -5.355478 13.417128
v -22.011665 -20.401360 12.209188
v 41.296284 16.155893 13.417127
v 6.726767 -1.898076 12.209186
v -22.011665 -20.401360 7.762327
v 6.726767 -1.898076 7.762326
v 13.660113 -5.355478 6.554384
v -15.235148 -23.959681 6.554386
v -8.458282 -27.518269 7.762328
v -48.066906 -48.405960 7.762330
v -54.641850 -44.740498 6.554387
v -61.216797 -41.075104 7.762329
v -61.216797 -41.075104 12.209188
v -54.641850 -44.740498 13.417131
v -48.066906 -48.405960 12.209189
v -59.530998 -58.415699 11.466405
v -53.878399 -62.941700 12.939505
v -59.530998 -58.415699 6.043404
v -53.878399 -62.941700 4.570305
v -48.225800 -67.467796 11.466405
v -48.225800 -67.467796 6.043405
vn -0.8134 0.5818 -0.0000
vn -0.5435 -0.8394 -0.0000
vn -0.1887 0.1350 0.9727
vn 0.0644 -0.0461 0.9969
vn -0.0644 0.0461 0.9969
vn 0.0644 -0.0461 -0.9969
vn -0.0644 0.0461 -0.9969
vn -0.1887 0.1350 -0.9727
vn 0.5373 0.8434 -0.0000
vn 0.1887 -0.1350 -0.9727
vn 0.8133 -0.5818 -0.0000
vn 0.1887 -0.1350 0.9727
vn 0.2559 0.0853 0.9629
vn -0.0853 0.2559 0.9629
vn 0.0639 0.1919 0.9793
vn -0.1532 0.0510 0.9869
vn -0.2558 -0.0853 0.9629
vn -0.0639 -0.1919 0.9793
vn 0.0853 -0.2559 0.9629
vn 0.1531 -0.0510 0.9869
vn 0.0639 0.1919 -0.9793
vn -0.1531 0.0510 -0.9869
vn -0.0853 0.2559 -0.9629
vn 0.2559 0.0853 -0.9629
vn -0.2558 -0.0853 -0.9629
vn -0.0639 -0.1919 -0.9793
vn 0.0853 -0.2559 -0.9629
vn 0.1532 -0.0510 -0.9869
vn 0.8052 0.5930 -0.0000
vn 0.7964 0.6047 -0.0000
vn 0.1563 0.1150 -0.9810
vn 0.0144 0.0119 -0.9998
vn 0.1698 0.1253 -0.9775
vn 0.8138 0.5811 -0.0000
vn 0.8138 0.5812 -0.0000
vn 0.1578 0.1127 -0.9810
vn -0.0037 -0.0026 -1.0000
vn -0.1847 -0.1319 -0.9739
vn -0.0700 -0.0472 -0.9964
vn -0.8138 -0.5811 -0.0000
vn -0.5556 0.8315 -0.0000
vn -0.0681 -0.0457 0.9966
vn -0.1847 -0.1319 0.9739
vn -0.0098 -0.0058 0.9999
vn 0.1698 0.1253 0.9775
vn 0.0493 0.0324 0.9983
vn 0.1568 0.1143 0.9810
vn 0.1578 0.1127 0.9810
vn 0.0135 0.0123 -0.9998
vn -0.0205 -0.0185 -0.9996
vn 0.0142 0.0112 -0.9998
vn -0.0578 -0.0453 -0.9973
vn 0.7411 0.6714 -0.0000
vn 0.7858 0.6185 -0.0000
vn 0.7418 0.6706 -0.0000
vn 0.7417 0.6707 -0.0000
vn 0.0135 0.0123 0.9998
vn 0.0142 0.0112 0.9998
vn -0.0217 -0.0174 0.9996
vn -0.0545 -0.0493 0.9973
vn -0.0931 -0.0732 0.9930
vn -0.0887 -0.0794 0.9929
vn -0.0931 -0.0733 0.9930
vn -0.0884 -0.0798 -0.9929
vn -0.0931 -0.0733 -0.9930
vn -0.0345 -0.0381 -0.9987
vn -0.0780 -0.0940 -0.9925
vn -0.0807 -0.0904 0.9926
vn -0.0394 -0.0543 -0.9977
vn -0.0714 -0.1066 -0.9917
vn -0.0724 -0.1044 0.9919
vn -0.0329 -0.0402 0.9987
vn 0.0121 0.0142 0.9998
vn -0.0220 -0.0317 0.9993
vn 0.0025 -0.1002 0.9950
vn 0.0105 0.0156 0.9998
vn -0.0071 -0.1709 0.9853
vn 0.0740 -0.2001 0.9770
vn 0.0589 -0.1212 0.9909
vn 0.0025 -0.1002 -0.9950
vn 0.0589 -0.1212 -0.9909
vn 0.0740 -0.2001 -0.9770
vn 0.0861 -0.1905 -0.9779
vn -0.0071 -0.1709 -0.9853
vn 0.0861 -0.1905 0.9779
vn 0.5269 0.8499 -0.0000
vn 0.5264 0.8502 -0.0000
vn 0.5296 0.8483 -0.0000
vn 0.0107 0.0154 -0.9998
vn 0.5829 0.8126 -0.0000
vn 0.5536 0.8328 -0.0000
vn 0.6391 0.7691 -0.0000
vn 0.0121 0.0142 -0.9998
vn 0.6676 0.7445 -0.0000
vn -0.4194 0.5879 0.6917
vn -0.4180 0.5889 0.6917
vn -0.4189 0.5924 0.6882
vn -0.4153 0.5908 0.6918
vn -0.4152 0.5867 0.6953
vn -0.4343 -0.7968 0.4200
vn -0.2818 -0.8063 0.5200
vn -0.3278 -0.7998 0.5028
vn -0.2121 -0.7946 0.5688
vn 0.3212 -0.6161 0.7192
vn 0.4427 -0.5333 0.7209
vn 0.4194 -0.5879 -0.6917
vn 0.4180 -0.5889 -0.6917
vn 0.4152 -0.5867 -0.6953
vn 0.4189 -0.5924 -0.6882
vn 0.4153 -0.5908 -0.6918
vn 0.4350 0.7967 -0.4196
vn 0.2824 0.8063 -0.5197
vn 0.3269 0.7998 -0.5034
vn 0.7617 0.6417 -0.0894
vn 0.2106 0.7945 -0.5696
vn 0.8709 0.4774 0.1164
vn 0.8910 0.1098 0.4406
vn 0.8427 -0.0375 0.5371
vn 0.8628 -0.0050 0.5056
vn -0.8709 -0.4774 -0.1164
vn -0.7618 -0.6417 0.0894
vn -0.8911 -0.1106 -0.4401
vn 0.8153 -0.1126 0.5680
vn -0.8429 0.0369 -0.5368
vn -0.8625 0.0058 -0.5061
vn -0.4460 0.5308 -0.7207
vn -0.8145 0.1140 -0.5688
vn -0.3177 0.6182 -0.7189
vn 0.8112 0.5847 -0.0000
vn -0.0115 -0.0083 -0.9999
vn 0.0276 0.0199 -0.9994
vn -0.0506 -0.0365 -0.9980
vn -0.0896 -0.0646 -0.9939
vn -0.8112 -0.5847 -0.0000
vn 0.5690 -0.8223 -0.0000
vn 0.5690 -0.8223 0.0001
vn -0.0506 -0.0365 0.9981
vn -0.0896 -0.0646 0.9939
vn -0.0115 -0.0083 0.9999
vn 0.0276 0.0199 0.9994
vn -0.6434 0.7655 -0.0000
vn -0.6991 0.7151 -0.0000
vn -0.6718 0.7408 -0.0000
vn 0.4048 0.9144 -0.0000
vn -0.0370 0.0044 0.9993
vn -0.1135 0.1161 0.9867
vn -0.1110 0.1245 0.9860
vn 0.0217 -0.0252 -0.9994
vn 0.1135 -0.1161 -0.9867
vn 0.0161 -0.0238 -0.9996
vn -0.1135 0.1161 -0.9867
vn 0.6990 -0.7151 -0.0000
vn 0.6577 -0.7533 -0.0000
vn 0.1100 -0.1231 -0.9863
vn 0.1034 -0.1383 -0.9850
vn 0.5914 -0.8064 -0.0000
vn 0.5652 -0.8250 -0.0000
vn 0.5186 -0.8550 -0.0000
vn -0.0015 0.0014 1.0000
vn 0.0902 -0.1587 0.9832
vn 0.0989 -0.1427 0.9848
vn 0.0011 0.0014 1.0000
vn 0.1073 -0.1259 0.9862
vn -0.1024 0.1417 0.9846
vn -0.0942 0.1576 0.9830
vn 0.0012 0.0015 1.0000
vn -0.5187 0.8550 -0.0000
vn -0.4899 0.8718 -0.0000
vn -0.5652 0.8250 -0.0000
vn -0.5914 0.8064 -0.0000
vn -0.0044 -0.0050 -1.0000
vn -0.0977 0.1462 -0.9844
vn -0.1058 0.1298 -0.9859
vn -0.0036 -0.0031 -1.0000
vn -0.0893 0.1622 -0.9827
vn -0.0582 0.0861 -0.9946
vn 0.0951 -0.1540 -0.9835
vn 0.0877 -0.1663 -0.9822
vn -0.0877 0.1663 -0.9822
vn -0.4664 0.8846 -0.0000
vn -0.0877 0.1663 0.9822
vn 0.0416 -0.0089 0.9991
vn 0.0877 -0.1663 0.9822
vn 0.4665 -0.8845 -0.0000
vn 0.4900 -0.8717 -0.0000
vn 0.1135 -0.1161 0.9867
vn -0.6250 -0.7806 -0.0000
vt 0.638360 0.363281
vt 0.628906 0.392028
vt 0.682500 0.467499
vt 0.692226 0.437923
vt 0.736094 0.542969
vt 0.746094 0.512565
vt 0.976562 0.023438
vt 0.095226 0.374655
vt 0.095226 0.374655
vt 0.363281 0.482039
vt 0.055192 0.405964
vt 0.085714 0.371094
vt 0.085714 0.371094
vt 0.329321 0.508598
vt 0.295360 0.535156
vt 0.045679 0.402403
vt 0.021231 0.432522
vt 0.329321 0.508597
vt 0.055191 0.405964
vt 0.011719 0.428961
vt 0.151345 0.832089
vt 0.130777 0.840408
vt 0.053453 0.761719
vt 0.032586 0.769827
vt 0.011719 0.777935
vt 0.110210 0.848726
vt 0.229324 0.893967
vt 0.209069 0.902456
vt 0.333393 0.938984
vt 0.313470 0.947617
vt 0.229324 0.893967
vt 0.249578 0.885478
vt 0.445800 0.978816
vt 0.353316 0.930352
vt 0.430892 0.988281
vt 0.460942 0.983941
vt 0.476237 0.972677
vt 0.476236 0.972677
vt 0.488281 0.976880
vt 0.454238 0.375317
vt 0.498319 0.363281
vt 0.498320 0.453125
vt 0.542401 0.375317
vt 0.574672 0.408202
vt 0.586483 0.453125
vt 0.574672 0.498048
vt 0.542401 0.530933
vt 0.498319 0.542969
vt 0.454238 0.530933
vt 0.421968 0.498048
vt 0.410156 0.453125
vt 0.421968 0.408204
vt 0.425328 0.408204
vt 0.457599 0.375317
vt 0.501680 0.363281
vt 0.501680 0.453125
vt 0.501680 0.542969
vt 0.545762 0.530933
vt 0.578032 0.498048
vt 0.457598 0.530933
vt 0.425328 0.498048
vt 0.545762 0.375317
vt 0.413517 0.453125
vt 0.578032 0.408202
vt 0.589844 0.453125
vt 0.746094 0.420014
vt 0.724172 0.363281
vt 0.724171 0.363281
vt 0.673866 0.428209
vt 0.695788 0.484943
vt 0.628906 0.486236
vt 0.650829 0.542969
vt 0.650828 0.542969
vt 0.673866 0.428210
vt 0.339170 0.617919
vt 0.438130 0.574219
vt 0.463206 0.579277
vt 0.488281 0.584336
vt 0.363750 0.623195
vt 0.388328 0.628470
vt 0.293124 0.661814
vt 0.193447 0.690595
vt 0.169919 0.684984
vt 0.269059 0.656358
vt 0.244994 0.650903
vt 0.146392 0.679374
vt 0.034553 0.716881
vt 0.057387 0.722656
vt 0.011719 0.711106
vt 0.628906 0.363281
vt 0.687500 0.453124
vt 0.746094 0.542969
s 1
f 255/142/340 251/143/340 250/143/340
f 251/143/341 252/144/341 250/143/341
f 250/143/342 252/144/343 253/145/344
f 254/142/342 250/143/342 253/145/344
f 254/142/340 255/142/340 250/143/340
f 256/145/345 257/144/346 255/142/347
f 256/145/348 255/142/348 253/145/348
f 254/142/348 253/145/348 255/142/348
f 257/144/346 251/143/347 255/142/347
f 252/144/341 251/143/341 257/144/341
f 258/146/349 257/144/346 256/145/345
f 258/146/341 252/144/341 257/144/341
f 259/146/350 258/146/350 260/147/350
f 259/146/341 252/144/341 258/146/341
f 260/147/349 258/146/349 256/145/345
f 261/147/348 260/147/348 256/145/348
f 261/147/350 259/146/350 260/147/350
f 252/144/343 259/146/351 261/147/351
f 253/145/344 252/144/343 261/147/351
f 261/147/348 256/145/348 253/145/348
f 263/148/352 262/148/353 264/148/354
f 264/148/354 262/148/353 265/148/355
f 262/148/353 266/148/356 265/148/355
f 265/148/355 266/148/356 267/148/357
f 266/148/356 268/148/358 267/148/357
f 268/148/358 263/148/352 269/148/359
f 267/148/357 268/148/358 269/148/359
f 269/148/359 263/148/352 264/148/354
f 264/148/354 265/148/355 269/148/359
f 265/148/355 267/148/357 269/148/359
f 271/148/360 273/148/361 270/148/362
f 271/148/360 270/148/362 272/148/363
f 273/148/361 274/148/364 270/148/362
f 273/148/361 275/148/365 274/148/364
f 275/148/365 276/148/366 274/148/364
f 277/148/367 272/148/363 276/148/366
f 275/148/365 277/148/367 276/148/366
f 271/148/360 277/148/367 273/148/361
f 277/148/367 271/148/360 272/148/363
f 277/148/367 275/148/365 273/148/361
f 279/148/352 278/148/353 280/148/354
f 280/148/354 278/148/353 281/148/355
f 278/148/353 282/148/356 281/148/355
f 281/148/355 282/148/356 283/148/357
f 282/148/356 284/148/358 283/148/357
f 284/148/358 279/148/352 285/148/359
f 283/148/357 284/148/358 285/148/359
f 280/148/354 281/148/355 285/148/359
f 285/148/359 279/148/352 280/148/354
f 281/148/355 283/148/357 285/148/359
f 287/148/360 289/148/361 286/148/362
f 287/148/360 286/148/362 288/148/363
f 289/148/361 290/148/364 286/148/362
f 289/148/361 291/148/365 290/148/364
f 291/148/365 292/148/366 290/148/364
f 293/148/367 288/148/363 292/148/366
f 291/148/365 293/148/367 292/148/366
f 293/148/367 287/148/360 288/148/363
f 287/148/360 293/148/367 289/148/361
f 293/148/367 291/148/365 289/148/361
f 295/148/352 294/148/353 296/148/354
f 296/148/354 294/148/353 297/148/355
f 294/148/353 298/148/356 297/148/355
f 297/148/355 298/148/356 299/148/357
f 298/148/356 300/148/358 299/148/357
f 300/148/358 295/148/352 301/148/359
f 299/148/357 300/148/358 301/148/359
f 301/148/359 295/148/352 296/148/354
f 296/148/354 297/148/355 301/148/359
f 297/148/355 299/148/357 301/148/359
f 303/148/360 305/148/361 302/148/362
f 303/148/360 302/148/362 304/148/363
f 305/148/361 306/148/364 302/148/362
f 305/148/361 307/148/365 306/148/364
f 307/148/365 308/148/366 306/148/364
f 309/148/367 304/148/363 308/148/366
f 307/148/365 309/148/367 308/148/366
f 303/148/360 309/148/367 305/148/361
f 309/148/367 303/148/360 304/148/363
f 309/148/367 307/148/365 305/148/361
f 313/149/368 310/150/368 311/151/369
f 310/150/368 312/151/369 311/151/369
f 310/150/370 316/152/371 312/151/372
f 310/150/368 313/149/368 314/153/373
f 315/154/374 310/150/368 314/153/373
f 316/152/371 310/150/370 315/154/375
f 317/155/376 316/152/371 320/156/377
f 316/152/371 317/155/376 312/151/372
f 318/157/378 316/152/371 315/154/375
f 319/158/377 316/152/371 318/157/378
f 316/152/371 319/158/377 320/156/377
f 319/158/379 321/158/379 320/156/379
f 321/158/379 322/156/379 320/156/379
f 317/155/380 320/156/380 322/156/380
f 323/159/381 322/156/382 321/158/382
f 323/159/380 317/155/380 322/156/380
f 312/151/380 317/155/380 323/159/380
f 324/160/383 323/159/381 321/158/382
f 311/151/384 323/159/381 324/160/383
f 311/151/380 312/151/380 323/159/380
f 324/160/383 321/158/382 326/161/382
f 325/157/385 324/160/383 326/161/382
f 313/149/386 324/160/383 325/157/385
f 313/149/386 311/151/384 324/160/383
f 326/161/379 321/158/379 327/161/379
f 321/158/379 319/158/379 327/161/379
f 327/161/377 319/158/377 318/157/378
f 314/153/387 313/149/386 325/157/385
f 331/162/388 329/163/389 328/164/390
f 329/163/389 330/165/391 328/164/390
f 331/162/392 328/164/393 332/164/393
f 333/162/394 331/162/395 332/164/393
f 333/162/396 332/164/397 334/165/398
f 335/163/399 333/162/396 334/165/398
f 335/163/399 334/165/398 336/166/400
f 337/167/401 335/163/399 336/166/402
f 337/167/403 336/166/404 330/165/391
f 329/163/389 337/167/403 330/165/391
f 329/163/389 338/168/405 337/167/403
f 338/168/405 339/169/406 337/167/403
f 337/167/401 339/169/407 335/163/399
f 341/170/408 340/171/409 339/169/406
f 339/169/407 340/171/410 342/172/411
f 338/168/405 341/170/408 339/169/406
f 339/169/407 342/172/411 335/163/399
f 342/172/411 343/173/412 333/162/396
f 342/172/411 344/170/413 343/173/412
f 340/171/410 344/170/413 342/172/411
f 335/163/399 342/172/411 333/162/396
f 346/174/414 344/170/413 340/171/410
f 344/170/413 345/175/415 343/173/412
f 344/170/413 346/174/414 345/175/415
f 347/176/416 346/174/414 340/171/410
f 346/174/414 347/176/416 349/177/417
f 346/174/414 348/178/418 345/175/415
f 348/178/418 346/174/414 349/177/417
f 351/174/419 350/179/420 349/177/421
f 350/179/420 352/180/422 349/177/421
f 347/176/423 351/174/419 349/177/421
f 352/180/424 348/178/418 349/177/417
f 350/179/425 348/178/426 352/180/427
f 350/179/420 351/174/419 353/175/428
f 351/174/419 347/176/423 340/171/409
f 351/174/419 341/170/408 353/175/428
f 341/170/408 351/174/419 340/171/409
f 353/175/428 341/170/408 338/168/405
f 345/175/429 353/175/430 354/173/431
f 345/175/429 348/178/426 353/175/430
f 354/173/432 353/175/428 338/168/405
f 348/178/426 350/179/425 353/175/430
f 343/173/433 345/175/429 354/173/431
f 354/173/432 338/168/405 329/163/389
f 343/173/433 354/173/431 331/162/395
f 331/162/388 354/173/432 329/163/389
f 333/162/394 343/173/433 331/162/395
f 367/181/434 356/182/434 355/183/435
f 356/182/434 357/184/434 355/183/435
f 357/184/434 358/185/436 355/183/435
f 358/185/436 359/186/437 355/183/435
f 359/186/437 360/187/438 355/183/435
f 360/187/438 361/188/434 355/183/435
f 361/188/434 362/189/434 355/183/435
f 362/189/434 363/190/434 355/183/435
f 363/190/434 364/191/436 355/183/435
f 364/191/436 365/192/437 355/183/435
f 365/192/437 366/193/438 355/183/435
f 366/193/438 367/181/434 355/183/435
f 366/193/439 368/194/440 367/181/441
f 368/194/440 369/195/442 367/181/441
f 367/181/441 369/195/442 356/182/443
f 369/195/442 370/196/444 356/182/443
f 370/196/445 369/195/445 371/197/446
f 369/195/445 368/194/447 371/197/446
f 373/198/445 372/199/445 371/197/446
f 372/199/445 380/200/447 371/197/446
f 374/201/445 373/198/445 371/197/446
f 375/202/448 374/201/445 371/197/446
f 376/203/445 370/196/445 371/197/446
f 377/204/449 375/202/448 371/197/446
f 378/205/448 376/203/445 371/197/446
f 368/194/447 377/204/449 371/197/446
f 379/206/449 378/205/448 371/197/446
f 380/200/447 379/206/449 371/197/446
f 360/187/450 380/200/451 361/188/452
f 379/206/453 380/200/451 360/187/450
f 380/200/451 372/199/454 361/188/452
f 359/186/455 379/206/453 360/187/450
f 378/205/456 379/206/453 359/186/455
f 358/185/457 378/205/456 359/186/455
f 376/203/458 378/205/456 358/185/457
f 365/192/459 377/204/460 366/193/439
f 375/202/461 377/204/460 365/192/459
f 377/204/460 368/194/440 366/193/439
f 357/184/462 376/203/458 358/185/457
f 370/196/444 376/203/458 357/184/462
f 364/191/463 375/202/461 365/192/459
f 374/201/464 375/202/461 364/191/463
f 373/198/465 374/201/464 363/190/466
f 363/190/466 374/201/464 364/191/463
f 372/199/454 373/198/465 362/189/467
f 362/189/467 373/198/465 363/190/466
f 361/188/452 372/199/454 362/189/467
f 356/182/443 370/196/444 357/184/462
f 384/207/468 381/208/468 382/207/468
f 381/208/468 383/209/468 382/207/468
f 385/210/469 381/208/470 384/207/470
f 386/211/471 385/210/469 384/207/470
f 387/212/472 385/210/469 386/211/471
f 388/212/473 387/212/473 389/213/473
f 389/213/472 387/212/472 386/211/471
f 390/214/473 388/212/473 389/213/473
f 390/214/474 389/213/474 386/211/475
f 391/215/476 388/212/477 390/214/477
f 392/211/474 390/214/474 384/207/474
f 384/207/474 390/214/474 386/211/475
f 392/211/478 391/215/476 390/214/477
f 383/209/479 391/215/476 392/211/478
f 382/207/479 383/209/479 392/211/478
f 382/207/474 392/211/474 384/207/474
f 396/216/480 393/217/481 394/216/482
f 393/217/481 395/217/481 394/216/482
f 398/218/483 395/217/483 393/217/483
f 397/218/484 393/217/485 396/216/486
f 397/218/483 398/218/483 393/217/483
f 400/219/483 398/218/483 397/218/483
f 398/218/487 400/219/488 399/220/489
f 395/217/490 398/218/487 399/220/489
f 401/219/483 400/219/483 397/218/483
f 400/219/491 401/219/491 402/221/492
f 400/219/488 402/221/493 399/220/489
f 402/221/493 403/222/494 399/220/489
f 405/222/495 403/222/496 402/221/492
f 401/219/491 404/221/492 402/221/492
f 404/221/492 405/222/495 402/221/492
f 405/222/495 406/223/497 403/222/496
f 407/224/498 406/223/499 405/222/500
f 408/225/501 407/224/498 405/222/500
f 408/225/501 405/222/500 404/221/502
f 411/226/503 409/227/504 408/225/501
f 409/227/504 407/224/498 408/225/501
f 410/220/505 408/225/501 404/221/502
f 411/226/503 408/225/501 410/220/505
f 412/227/506 409/227/507 411/226/508
f 413/226/509 412/227/506 411/226/508
f 413/226/509 411/226/508 396/216/480
f 396/216/486 411/226/503 410/220/505
f 414/225/510 413/226/511 394/216/512
f 414/225/510 415/224/513 413/226/511
f 394/216/482 413/226/509 396/216/480
f 415/224/513 412/227/514 413/226/511
f 415/224/513 418/228/515 412/227/514
f 416/223/516 415/224/513 414/225/510
f 416/223/516 417/229/517 415/224/513
f 417/229/517 418/228/515 415/224/513
f 418/228/515 419/230/518 412/227/514
f 419/230/519 420/230/519 409/227/507
f 412/227/506 419/230/519 409/227/507
f 409/227/504 420/230/520 407/224/498
f 420/230/520 421/228/521 407/224/498
f 421/228/521 422/229/522 406/223/499
f 407/224/498 421/228/521 406/223/499
f 406/223/497 422/229/523 416/223/524
f 422/229/523 417/229/523 416/223/524
f 406/223/497 416/223/524 403/222/496
f 403/222/494 416/223/516 414/225/510
f 403/222/494 414/225/510 399/220/489
f 399/220/489 414/225/510 394/216/512
f 410/220/505 397/218/484 396/216/486
f 401/219/525 397/218/484 410/220/505
f 404/221/502 401/219/525 410/220/505
f 394/216/512 395/217/490 399/220/489
f 423/231/526 425/231/526 424/232/526
f 425/231/526 426/232/526 424/232/526
f 424/232/526 426/232/526 427/233/526
f 426/232/526 428/233/526 427/233/526
o item_damaged
v -29.153999 3.117801 15.308600
v -24.850100 -8.020700 15.206201
v -22.281900 0.038201 15.206200
v -32.607300 -7.718799 15.308601
v -29.153999 3.117701 16.452700
v -22.282000 0.038101 16.555099
v -32.607300 -7.718799 16.452700
v -24.850201 -8.020799 16.555099
v -17.092899 -8.322799 15.880601
v -15.409900 -3.041299 15.880600
v -9.765329 -29.969980 13.668165
v -51.361835 -67.003914 18.093136
v -51.361835 -67.003914 13.668168
v -9.765329 -29.969980 18.093132
v -8.293664 -28.720112 18.093132
v -8.293664 -28.720112 13.668165
v -4.377504 -36.646652 12.397330
v -46.791382 -72.667587 12.397333
v -2.905749 -35.396698 12.397330
v 0.192952 -42.310234 13.668166
v -42.220928 -78.331161 13.668169
v 0.193038 -42.310230 18.093134
v -42.220928 -78.331161 18.093136
v -46.791378 -72.667496 19.363970
v -4.377418 -36.646648 19.363966
v -2.905753 -35.396782 19.363966
v 1.664703 -41.060360 18.093134
v 1.664703 -41.060360 13.668166
v -5.951000 -27.676098 15.308602
v 42.820202 6.502701 15.206199
v -1.127600 -33.495300 15.206203
v 37.865799 12.200401 15.308599
v -5.950900 -27.676098 16.452702
v 37.865799 12.200401 16.452700
v -1.127700 -33.495300 16.555101
v 3.695500 -39.314400 15.880603
v 42.820202 6.502602 16.555099
v 47.774502 0.805101 15.880600
v -2.795015 -35.282990 16.275021
v 5.127944 -28.912607 26.883406
v -1.078808 -26.454582 23.621006
v -6.081210 -25.034645 20.611614
v -12.135798 -23.949301 16.445290
v -12.338537 -30.065811 12.233399
v -11.924424 -35.174896 9.099353
v -10.717853 -41.653328 5.666685
v -4.511940 -44.102837 8.933982
v 0.490113 -45.531395 11.937371
v 6.545808 -46.616611 16.104681
v 6.749004 -40.499008 20.317661
v 6.326337 -35.388405 23.445822
v 7.380610 -39.972637 19.527817
v 6.966478 -34.863491 22.661968
v -2.163008 -34.755444 15.486209
v 5.759956 -28.385120 26.094625
v -0.446024 -25.935579 22.827305
v -5.448060 -24.507029 19.823923
v -11.503786 -23.421812 15.656507
v -11.706919 -29.539448 11.443561
v -11.284297 -34.649982 8.315486
v -10.085899 -41.125774 4.877913
v -3.879151 -43.583805 8.140303
v 1.123309 -45.003761 11.149649
v 7.177832 -46.089138 15.315902
v -9.684300 -29.093998 14.571502
v -4.336400 -24.520699 17.189802
v -9.684300 -29.093998 17.189802
v -4.336400 -24.520597 14.571502
v -3.830000 -36.157200 14.337303
v 1.518000 -31.583899 14.337303
v 1.402200 -42.469700 15.019603
v 1.402200 -42.469700 16.741703
v 6.750000 -37.896400 15.019603
v 6.750100 -37.896400 16.741703
v -3.830000 -36.157200 17.424002
v 1.518000 -31.583899 17.424002
v -47.485100 74.001503 15.308595
v -51.311600 77.422798 15.880594
v -47.485100 74.001404 16.452694
v -42.651699 80.013397 15.880594
v -37.841202 75.811600 15.206194
v -8.435800 39.442101 15.308598
v -2.130400 43.504501 15.206197
v -8.435800 39.442101 16.452696
v 20.230400 19.849901 15.206198
v 12.789900 16.988201 15.308599
v 12.789900 16.988201 16.452698
v -2.130500 43.504601 16.555096
v 20.230400 19.849901 16.555098
v 27.671101 22.711702 15.880598
v 4.175200 47.567299 15.880596
v -37.841202 75.811600 16.555094
v -33.127602 80.726303 15.880594
v -55.002800 -4.131499 15.308600
v -48.492500 -0.307299 15.206200
v -62.818199 5.832301 15.308600
v -62.818199 5.832302 16.452700
v -55.002899 -4.131399 16.452700
v -56.299702 9.645901 16.555099
v -48.492401 -0.307499 16.555099
v -41.982101 3.516601 15.880600
v -49.781101 13.459501 15.880599
v -56.299599 9.645901 15.206199
v 19.032801 52.480801 15.308597
v 25.285299 48.283699 15.206196
v 25.472500 68.316498 15.308596
v 25.472401 68.316498 16.452694
v 19.032801 52.480801 16.452696
v 31.160200 62.730900 16.555096
v 25.285299 48.283699 16.555096
v 31.537800 44.086800 15.880597
v 36.848099 57.145100 15.880595
v 31.160200 62.730900 15.206195
v -39.834801 34.469398 15.308598
v -30.776600 22.921202 15.308599
v -32.939098 37.802299 15.206197
v -30.776600 22.921103 16.452698
v -39.834801 34.469398 16.452698
v -24.258101 26.734701 16.555098
v -32.939201 37.802299 16.555098
v -26.043501 41.135201 15.880597
v -17.739500 30.548302 15.880598
v -24.257999 26.734802 15.206198
v 65.920898 20.866402 16.452698
v 53.761101 30.418102 16.555098
v 61.289398 31.826202 16.452698
v 59.833099 16.049501 16.555098
v 65.920799 20.866402 15.308599
v 59.833000 16.049501 15.206199
v 61.289299 31.826302 15.308598
v 53.761101 30.418102 15.206198
v 53.745098 11.232301 15.880599
v 46.232800 29.010101 15.880598
v 0.000000 70.710701 -0.000005
v 70.710701 0.000000 0.000000
v 0.000000 55.656200 3.999996
v -55.656101 0.000000 4.000000
v -70.710701 0.000000 0.000000
v 0.000000 -55.656101 4.000004
v 0.000000 -70.710602 0.000005
v 55.656200 0.000000 4.000000
v 0.000000 70.710701 -0.000005
v 0.000000 55.656200 -4.000004
v 70.710701 0.000000 0.000000
v -55.656101 -0.000000 -4.000000
v -70.710701 0.000000 0.000000
v 0.000000 -55.656101 -3.999996
v 0.000000 -70.710602 0.000005
v 55.656200 -0.000000 -4.000000
v 0.000000 70.710701 -0.000005
v 70.710701 0.000000 0.000000
v 0.000000 55.656200 3.999996
v -55.656101 0.000000 4.000000
v -70.710701 0.000000 0.000000
v 0.000000 -55.656101 4.000004
v 0.000000 -70.710602 0.000005
v 55.656200 0.000000 4.000000
v 0.000000 70.710701 -0.000005
v 0.000000 55.656200 -4.000004
v 70.710701 0.000000 0.000000
v -55.656101 -0.000000 -4.000000
v -70.710701 0.000000 0.000000
v 0.000000 -55.656101 -3.999996
v 0.000000 -70.710602 0.000005
v 55.656200 -0.000000 -4.000000
v 0.000000 70.710701 -0.000005
v 70.710701 0.000000 0.000000
v 0.000000 55.656200 3.999996
v -55.656101 0.000000 4.000000
v -70.710701 0.000000 0.000000
v 0.000000 -55.656101 4.000004
v 0.000000 -70.710602 0.000005
v 55.656200 0.000000 4.000000
v 0.000000 70.710701 -0.000005
v 0.000000 55.656200 -4.000004
v 70.710701 0.000000 0.000000
v -55.656101 -0.000000 -4.000000
v -70.710701 0.000000 0.000000
v 0.000000 -55.656101 -3.999996
v 0.000000 -70.710602 0.000005
v 55.656200 -0.000000 -4.000000
vn -0.0130 0.0042 -0.9999
vn 0.0198 -0.0063 -0.9998
vn 0.0527 -0.0168 -0.9985
vn -0.9528 0.3036 -0.0000
vn 0.0199 -0.0063 0.9998
vn -0.0130 0.0042 0.9999
vn 0.0527 -0.0168 0.9985
vn 0.0855 -0.0273 0.9960
vn 0.0855 -0.0273 -0.9960
vn -0.6562 0.7546 -0.0000
vn -0.6650 0.7469 -0.0000
vn -0.0962 0.1107 -0.9892
vn -0.0095 0.0100 -0.9999
vn -0.1049 0.1203 -0.9872
vn -0.6473 0.7622 -0.0000
vn -0.0949 0.1117 -0.9892
vn 0.0018 -0.0021 -1.0000
vn 0.1114 -0.1312 -0.9851
vn 0.0405 -0.0497 -0.9979
vn 0.6473 -0.7622 -0.0000
vn -0.7782 -0.6280 -0.0000
vn 0.0383 -0.0474 0.9981
vn 0.1114 -0.1312 0.9851
vn -0.1049 0.1203 0.9872
vn 0.0051 -0.0070 1.0000
vn -0.0959 0.1109 0.9892
vn -0.0270 0.0339 0.9991
vn -0.0949 0.1117 0.9892
vn -0.0091 0.0100 -0.9999
vn 0.0139 -0.0153 -0.9998
vn 0.0369 -0.0406 -0.9985
vn -0.6731 0.7396 0.0001
vn -0.6731 0.7396 -0.0000
vn -0.0091 0.0100 0.9999
vn 0.0139 -0.0152 0.9998
vn 0.0369 -0.0406 0.9985
vn 0.0139 -0.0153 0.9998
vn 0.0599 -0.0658 0.9960
vn 0.0599 -0.0658 -0.9960
vn -0.5492 -0.4688 0.6918
vn -0.5493 -0.4688 0.6917
vn -0.5502 -0.4677 0.6918
vn -0.5493 -0.4688 0.6918
vn -0.5532 -0.4688 0.6886
vn -0.5521 -0.4654 0.6918
vn -0.5485 -0.4650 0.6949
vn -0.5492 -0.4688 0.6917
vn 0.8253 -0.2438 0.5094
vn 0.8126 -0.1501 0.5631
vn 0.5730 0.3906 0.7205
vn 0.8303 -0.3649 0.4212
vn 0.8260 -0.2071 0.5242
vn 0.5493 0.4688 -0.6917
vn 0.5502 0.4677 -0.6918
vn 0.5485 0.4650 -0.6949
vn 0.5038 0.4752 0.7213
vn 0.0282 0.8261 0.5627
vn -0.0627 0.8569 0.5116
vn 0.5492 0.4688 -0.6917
vn -0.0343 0.8437 0.5358
vn -0.1901 0.8796 0.4360
vn 0.5532 0.4688 -0.6886
vn -0.5262 0.8387 0.1406
vn -0.7218 0.6814 -0.1214
vn 0.5521 0.4654 -0.6918
vn -0.8261 0.2076 -0.5240
vn -0.8303 0.3657 -0.4206
vn 0.5492 0.4688 -0.6918
vn -0.8124 0.1485 -0.5640
vn -0.8252 0.2431 -0.5098
vn -0.4997 -0.4798 -0.7211
vn -0.5767 -0.3857 -0.7202
vn -0.0297 -0.8255 -0.5636
vn 0.0620 -0.8567 -0.5120
vn 0.0347 -0.8438 -0.5355
vn 0.1909 -0.8797 -0.4355
vn 0.5261 -0.8387 -0.1406
vn 0.7218 -0.6814 0.1214
vn -0.6499 0.7600 -0.0000
vn 0.0069 -0.0081 -0.9999
vn -0.0166 0.0194 -0.9997
vn 0.0305 -0.0356 -0.9989
vn 0.0539 -0.0630 -0.9966
vn 0.6499 -0.7600 -0.0000
vn 0.7699 0.6381 -0.0000
vn 0.0069 -0.0081 0.9999
vn 0.0304 -0.0356 0.9989
vn 0.0539 -0.0630 0.9966
vn -0.0166 0.0194 0.9997
vn -0.0264 0.0786 -0.9966
vn -0.0372 0.1242 -0.9916
vn -0.0271 0.1305 -0.9911
vn -0.6646 -0.7472 -0.0001
vn -0.6642 -0.7475 -0.0000
vn -0.6665 -0.7455 -0.0001
vn -0.6847 -0.7288 -0.0000
vn 0.0109 0.0651 -0.9978
vn -0.0097 -0.0100 -0.9999
vn -0.7060 -0.7082 -0.0000
vn 0.0350 0.0348 -0.9988
vn 0.0154 0.0145 -0.9998
vn -0.7267 -0.6870 -0.0000
vn -0.0101 -0.0095 -0.9999
vn 0.0408 0.0386 0.9984
vn 0.0198 0.0204 0.9996
vn -0.0101 -0.0095 0.9999
vn -0.0097 -0.0100 0.9999
vn 0.0650 0.0668 0.9956
vn 0.0662 0.0626 0.9958
vn 0.0646 0.0683 -0.9956
vn 0.0273 0.1101 -0.9935
vn 0.0274 0.1101 0.9935
vn 0.0109 0.0651 0.9978
vn 0.0662 0.0626 -0.9958
vn -0.0272 0.1305 0.9911
vn -0.0264 0.0787 0.9966
vn -0.0372 0.1242 0.9916
vn 0.0164 0.0129 -0.9998
vn -0.0108 -0.0084 -0.9999
vn -0.7868 -0.6172 -0.0000
vn -0.0108 -0.0084 0.9999
vn 0.0164 0.0128 0.9998
vn 0.0436 0.0342 0.9985
vn 0.0706 0.0554 0.9960
vn 0.0706 0.0554 -0.9960
vn 0.0435 0.0341 -0.9985
vn 0.0196 -0.0080 -0.9998
vn -0.0129 0.0052 -0.9999
vn -0.9263 0.3767 -0.0001
vn -0.9263 0.3767 -0.0000
vn -0.0129 0.0052 0.9999
vn 0.0197 -0.0080 0.9998
vn 0.0520 -0.0212 0.9984
vn 0.0844 -0.0343 0.9958
vn 0.0844 -0.0343 -0.9958
vn 0.0520 -0.0212 -0.9984
vn -0.7868 -0.6172 -0.0001
vn 0.0164 0.0129 0.9998
vn 0.0435 0.0342 -0.9985
vn -0.0125 -0.0472 0.9988
vn 0.0126 0.0053 0.9999
vn -0.0572 0.0262 0.9980
vn -0.0351 -0.0148 0.9993
vn 0.9211 0.3893 -0.0001
vn 0.0126 0.0053 -0.9999
vn -0.0192 -0.0081 -0.9998
vn 0.9211 0.3893 -0.0000
vn -0.0510 -0.0215 -0.9985
vn -0.9211 -0.3892 -0.0001
vn -0.9211 -0.3892 -0.0000
vn 0.2559 0.0853 0.9629
vn -0.0853 0.2559 0.9629
vn 0.0639 0.1919 0.9793
vn -0.1532 0.0510 0.9869
vn -0.2558 -0.0853 0.9629
vn -0.0639 -0.1919 0.9793
vn 0.0853 -0.2559 0.9629
vn 0.1531 -0.0510 0.9869
vn 0.0639 0.1919 -0.9793
vn -0.1531 0.0510 -0.9869
vn -0.0853 0.2559 -0.9629
vn 0.2559 0.0853 -0.9629
vn -0.2558 -0.0853 -0.9629
vn -0.0639 -0.1919 -0.9793
vn 0.0853 -0.2559 -0.9629
vn 0.1532 -0.0510 -0.9869
vt 0.011719 0.976320
vt 0.107414 0.761719
vt 0.226681 0.982299
vt 0.297849 0.822705
vt 0.107414 0.761721
vt 0.297846 0.822707
vt 0.226678 0.982301
vt 0.441643 0.988281
vt 0.488281 0.883690
vt 0.282278 0.375129
vt 0.011719 0.495014
vt 0.320914 0.398790
vt 0.291869 0.371094
vt 0.044494 0.515085
vt 0.077269 0.535156
vt 0.330506 0.394755
vt 0.353690 0.418862
vt 0.353690 0.418862
vt 0.044494 0.515085
vt 0.320915 0.398790
vt 0.330506 0.394755
vt 0.363281 0.414826
vt 0.400388 0.761719
vt 0.444335 0.786777
vt 0.011719 0.937096
vt 0.054504 0.962689
vt 0.011720 0.937096
vt 0.054503 0.962689
vt 0.444335 0.786778
vt 0.097286 0.988281
vt 0.488281 0.811835
vt 0.453830 0.413585
vt 0.497504 0.456713
vt 0.541178 0.499841
vt 0.573150 0.531413
vt 0.584852 0.542969
vt 0.497504 0.456713
vt 0.421859 0.382013
vt 0.410156 0.370457
vt 0.458822 0.406410
vt 0.426850 0.374837
vt 0.502496 0.449537
vt 0.502496 0.449537
vt 0.546170 0.492665
vt 0.578141 0.524238
vt 0.589844 0.535793
vt 0.578141 0.524237
vt 0.415148 0.363281
vt 0.746094 0.484497
vt 0.716235 0.542969
vt 0.746093 0.484497
vt 0.670120 0.478960
vt 0.699978 0.420487
vt 0.628906 0.421753
vt 0.658765 0.363282
vt 0.658765 0.363281
vt 0.034807 0.785623
vt 0.011719 0.773461
vt 0.063970 0.764253
vt 0.034807 0.785623
vt 0.270421 0.908467
vt 0.092996 0.779188
vt 0.308466 0.894027
vt 0.443386 0.978109
vt 0.398492 0.988281
vt 0.308466 0.894026
vt 0.346513 0.879585
vt 0.488281 0.967937
vt 0.121437 0.761719
vt 0.339376 0.939028
vt 0.190472 0.988281
vt 0.011719 0.859953
vt 0.190470 0.988280
vt 0.160810 0.810836
vt 0.339378 0.939030
vt 0.488281 0.889778
vt 0.309903 0.761719
vt 0.160812 0.810836
vt 0.094266 0.908766
vt 0.176816 0.988281
vt 0.488281 0.906386
vt 0.488281 0.906387
vt 0.378421 0.834053
vt 0.011719 0.829251
vt 0.268556 0.761719
vt 0.011719 0.844634
vt 0.207091 0.988280
vt 0.207091 0.988281
vt 0.160449 0.803176
vt 0.347685 0.940844
vt 0.160446 0.803176
vt 0.488281 0.893408
vt 0.309176 0.761719
vt 0.347687 0.940843
vt 0.123193 0.831775
vt 0.234660 0.761719
vt 0.455694 0.901649
vt 0.488279 0.815016
vt 0.234660 0.761720
vt 0.123193 0.831776
vt 0.488281 0.815017
vt 0.011719 0.901833
vt 0.423112 0.988281
vt 0.976562 0.023438
s 1
f 432/234/527 429/235/527 430/236/528
f 429/235/527 431/237/529 430/236/528
f 433/238/530 429/235/530 432/234/530
f 434/239/531 433/238/532 435/234/532
f 435/234/530 433/238/530 432/234/530
f 436/240/533 434/239/531 435/234/532
f 437/241/534 438/242/534 436/240/533
f 438/242/534 434/239/531 436/240/533
f 431/237/529 438/242/535 437/241/535
f 430/236/528 431/237/529 437/241/535
f 442/243/536 439/243/536 440/244/537
f 439/243/536 441/244/537 440/244/537
f 439/243/538 445/245/539 441/244/540
f 439/243/536 442/243/536 443/246/541
f 444/246/541 439/243/536 443/246/541
f 445/245/539 439/243/538 444/246/542
f 446/247/543 445/245/539 449/248/544
f 445/245/539 446/247/543 441/244/540
f 447/249/545 445/245/539 444/246/542
f 448/250/544 445/245/539 447/249/545
f 445/245/539 448/250/544 449/248/544
f 448/250/546 450/251/546 449/248/546
f 450/251/546 451/248/546 449/248/546
f 446/247/547 449/248/547 451/248/547
f 452/252/548 451/248/549 450/251/549
f 452/252/547 446/247/547 451/248/547
f 440/244/550 452/252/548 453/253/551
f 440/244/547 441/244/547 452/252/547
f 441/244/547 446/247/547 452/252/547
f 453/253/551 452/252/548 450/251/549
f 442/243/552 440/244/550 453/253/551
f 442/243/552 453/253/551 454/254/553
f 453/253/551 450/251/549 455/255/549
f 454/254/553 453/253/551 455/255/549
f 455/255/546 450/251/546 456/255/546
f 450/251/546 448/250/546 456/255/546
f 456/255/544 448/250/544 447/249/545
f 443/246/554 442/243/552 454/254/553
f 460/256/555 458/257/556 457/258/555
f 458/257/556 459/259/557 457/258/555
f 460/256/558 457/258/558 461/260/558
f 462/256/559 460/256/559 461/260/559
f 462/256/560 461/260/560 463/261/561
f 465/262/562 463/261/563 464/263/564
f 465/262/562 462/256/560 463/261/563
f 466/264/564 465/262/562 464/263/564
f 466/264/565 464/263/565 459/259/557
f 458/257/556 466/264/565 459/259/557
f 479/265/566 468/266/567 467/266/568
f 468/266/567 469/267/569 467/266/568
f 469/267/569 470/268/570 467/266/568
f 470/268/570 471/269/571 467/266/568
f 471/269/571 472/268/572 467/266/568
f 472/268/572 473/267/567 467/266/568
f 473/267/567 474/270/567 467/266/568
f 474/270/567 475/265/573 467/266/568
f 475/265/573 476/271/570 467/266/568
f 476/271/570 477/272/571 467/266/568
f 477/272/571 478/271/572 467/266/568
f 478/271/572 479/265/566 467/266/568
f 479/265/574 481/273/575 468/266/576
f 478/271/577 480/274/578 479/265/574
f 480/274/578 481/273/575 479/265/574
f 483/275/579 481/273/579 482/276/580
f 481/273/579 480/274/581 482/276/580
f 481/273/575 483/275/582 468/266/576
f 468/266/576 483/275/582 469/267/583
f 483/275/582 484/277/584 469/267/583
f 484/277/585 483/275/579 482/276/580
f 469/267/583 484/277/584 470/268/586
f 484/277/584 485/278/587 470/268/586
f 485/278/588 484/277/585 482/276/580
f 470/268/586 485/278/587 471/269/589
f 485/278/587 486/279/590 471/269/589
f 486/279/591 485/278/588 482/276/580
f 487/280/581 486/279/591 482/276/580
f 486/279/590 487/280/592 472/268/593
f 471/269/589 486/279/590 472/268/593
f 488/277/594 487/280/581 482/276/580
f 487/280/592 488/277/595 473/267/596
f 472/268/593 487/280/592 473/267/596
f 489/276/579 488/277/594 482/276/580
f 488/277/595 489/276/597 474/270/598
f 473/267/596 488/277/595 474/270/598
f 474/270/598 489/276/597 475/265/599
f 489/276/597 490/273/600 475/265/599
f 490/273/594 489/276/579 482/276/580
f 475/265/599 490/273/600 476/271/601
f 490/273/600 491/274/602 476/271/601
f 491/274/588 490/273/594 482/276/580
f 476/271/601 491/274/602 477/272/603
f 491/274/602 492/281/604 477/272/603
f 492/281/591 491/274/588 482/276/580
f 477/272/603 492/281/604 478/271/577
f 492/281/604 480/274/578 478/271/577
f 480/274/581 492/281/591 482/276/580
f 496/282/605 493/283/605 494/284/605
f 493/283/605 495/283/605 494/284/605
f 497/285/606 493/283/607 496/282/607
f 498/286/608 497/285/606 496/282/607
f 499/287/609 497/285/606 498/286/608
f 500/287/610 499/287/610 501/288/610
f 501/288/609 499/287/609 498/286/608
f 502/289/610 500/287/610 501/288/610
f 502/289/611 501/288/611 498/286/611
f 504/286/612 503/285/613 502/289/614
f 503/285/613 500/287/614 502/289/614
f 504/286/611 502/289/611 496/282/611
f 496/282/611 502/289/611 498/286/611
f 494/284/611 504/286/611 496/282/611
f 494/284/615 495/283/615 504/286/612
f 495/283/615 503/285/613 504/286/612
f 505/290/616 506/291/617 508/292/618
f 505/290/619 507/293/620 506/291/621
f 507/293/620 505/290/619 510/294/622
f 509/295/623 505/290/616 508/292/618
f 505/290/616 509/295/623 510/294/624
f 512/294/625 507/293/620 510/294/622
f 509/295/623 511/296/626 510/294/624
f 510/294/624 511/296/626 513/297/627
f 512/294/625 510/294/622 514/298/628
f 514/298/629 510/294/624 513/297/627
f 515/298/628 512/294/625 514/298/628
f 517/297/630 516/299/631 515/298/632
f 516/299/631 512/294/633 515/298/632
f 519/300/634 516/299/631 517/297/630
f 518/301/635 519/300/634 517/297/630
f 511/296/626 509/295/623 519/300/636
f 509/295/623 521/302/637 519/300/636
f 521/302/638 520/295/639 519/300/634
f 520/295/639 516/299/631 519/300/634
f 511/296/626 519/300/636 518/301/640
f 520/295/639 521/302/638 508/292/641
f 521/302/637 509/295/623 508/292/618
f 520/295/639 507/293/642 512/294/633
f 507/293/642 520/295/639 508/292/641
f 516/299/631 520/295/639 512/294/633
f 513/297/627 511/296/626 518/301/640
f 506/291/643 507/293/642 508/292/641
f 523/303/644 522/304/645 524/305/645
f 524/305/646 522/304/646 525/305/646
f 522/304/646 526/306/646 525/305/646
f 525/305/647 526/306/647 527/307/648
f 526/306/647 528/308/649 527/307/648
f 528/308/649 529/309/650 530/310/650
f 527/307/648 528/308/649 530/310/650
f 530/310/651 529/309/651 531/311/652
f 529/309/651 523/303/644 531/311/652
f 531/311/652 523/303/644 524/305/645
f 533/312/653 532/313/654 534/314/654
f 534/314/655 532/313/656 535/315/655
f 532/313/656 536/313/656 535/315/655
f 535/315/657 536/313/657 537/316/658
f 536/313/657 538/312/659 537/316/658
f 538/312/659 539/317/660 540/318/660
f 537/316/658 538/312/659 540/318/660
f 540/318/661 539/317/661 541/316/662
f 539/317/661 533/312/653 541/316/662
f 541/316/662 533/312/653 534/314/654
f 542/319/663 543/320/663 545/321/663
f 543/320/645 542/319/645 544/322/644
f 546/319/646 542/319/646 545/321/646
f 545/321/647 547/323/664 546/319/647
f 547/323/664 548/324/649 546/319/647
f 550/325/650 549/326/650 548/324/649
f 547/323/664 550/325/650 548/324/649
f 550/325/651 551/327/665 549/326/651
f 551/327/652 543/320/645 544/322/644
f 551/327/652 544/322/644 549/326/651
f 555/328/666 552/329/667 553/330/668
f 552/329/667 554/331/667 553/330/669
f 554/331/670 552/329/670 556/332/670
f 556/332/671 557/333/672 558/334/671
f 558/334/673 554/331/673 556/332/673
f 557/333/672 559/330/674 558/334/671
f 557/333/672 560/335/675 559/330/674
f 560/335/675 561/336/676 559/330/674
f 560/335/675 555/328/666 561/336/676
f 555/328/666 553/330/668 561/336/676
f 563/337/677 562/337/678 564/337/679
f 564/337/679 562/337/678 565/337/680
f 562/337/678 566/337/681 565/337/680
f 565/337/680 566/337/681 567/337/682
f 566/337/681 568/337/683 567/337/682
f 568/337/683 563/337/677 569/337/684
f 567/337/682 568/337/683 569/337/684
f 569/337/684 563/337/677 564/337/679
f 564/337/679 565/337/680 569/337/684
f 565/337/680 567/337/682 569/337/684
f 571/337/685 573/337/686 570/337/687
f 571/337/685 570/337/687 572/337/688
f 573/337/686 574/337/689 570/337/687
f 573/337/686 575/337/690 574/337/689
f 575/337/690 576/337/691 574/337/689
f 577/337/692 572/337/688 576/337/691
f 575/337/690 577/337/692 576/337/691
f 571/337/685 577/337/692 573/337/686
f 577/337/692 571/337/685 572/337/688
f 577/337/692 575/337/690 573/337/686
f 579/337/677 578/337/678 580/337/679
f 580/337/679 578/337/678 581/337/680
f 578/337/678 582/337/681 581/337/680
f 581/337/680 582/337/681 583/337/682
f 582/337/681 584/337/683 583/337/682
f 584/337/683 579/337/677 585/337/684
f 583/337/682 584/337/683 585/337/684
f 580/337/679 581/337/680 585/337/684
f 585/337/684 579/337/677 580/337/679
f 581/337/680 583/337/682 585/337/684
f 587/337/685 589/337/686 586/337/687
f 587/337/685 586/337/687 588/337/688
f 589/337/686 590/337/689 586/337/687
f 589/337/686 591/337/690 590/337/689
f 591/337/690 592/337/691 590/337/689
f 593/337/692 588/337/688 592/337/691
f 591/337/690 593/337/692 592/337/691
f 593/337/692 587/337/685 588/337/688
f 587/337/685 593/337/692 589/337/686
f 593/337/692 591/337/690 589/337/686
f 595/337/677 594/337/678 596/337/679
f 596/337/679 594/337/678 597/337/680
f 594/337/678 598/337/681 597/337/680
f 597/337/680 598/337/681 599/337/682
f 598/337/681 600/337/683 599/337/682
f 600/337/683 595/337/677 601/337/684
f 599/337/682 600/337/683 601/337/684
f 601/337/684 595/337/677 596/337/679
f 596/337/679 597/337/680 601/337/684
f 597/337/680 599/337/682 601/337/684
f 603/337/685 605/337/686 602/337/687
f 603/337/685 602/337/687 604/337/688
f 605/337/686 606/337/689 602/337/687
f 605/337/686 607/337/690 606/337/689
f 607/337/690 608/337/691 606/337/689
f 609/337/692 604/337/688 608/337/691
f 607/337/690 609/337/692 608/337/691
f 603/337/685 609/337/692 605/337/686
f 609/337/692 603/337/685 604/337/688
f 609/337/692 607/337/690 605/337/686
o effect
v -35.695740 -2.420115 -2.462378
v -122.345566 -6.219709 2.726911
v -35.695740 -2.420115 2.462378
v -122.345566 -6.219709 -2.726910
v -122.654724 -0.007110 -4.570762
v -35.151409 3.498263 -3.777248
v -35.151409 3.498263 3.777248
v -122.654724 -0.007109 4.570762
v -35.375584 9.399800 2.462377
v -35.375584 9.399800 -2.462379
v -122.963997 6.205488 2.726910
v -194.046875 0.503583 2.726910
v -122.963997 6.205488 -2.726911
v -194.046875 0.503583 -2.726910
v -260.255157 -7.134948 -2.726910
v -259.062134 -13.261816 -4.570761
v -193.281174 -5.672647 -4.570762
v -192.515762 -11.848800 -2.726909
v -257.869354 -19.388609 -2.726909
v -338.324707 -31.867943 -2.640480
v -338.324707 -31.867943 2.640484
v -257.869354 -19.388609 2.726912
v -259.062134 -13.261816 4.570763
v -192.515762 -11.848800 2.726911
v -193.281174 -5.672646 4.570763
v -260.255157 -7.134948 2.726911
v -341.683563 -19.550928 -2.640481
v -341.683563 -19.550928 2.640483
v -340.408813 -25.779331 4.050474
v -340.408813 -25.779331 -4.050470
v -35.629086 -2.080051 -1.933396
v -35.287670 8.242885 -1.933397
v -35.629086 -2.080050 1.933396
v -35.287670 8.242885 1.933395
v -35.443645 3.526927 -2.983816
v -35.443645 3.526927 2.983816
v -337.822968 -31.110050 -1.933394
v -340.634460 -20.888947 -1.933394
v -337.822968 -31.110050 1.933398
v -340.634460 -20.888947 1.933398
v -339.228668 -25.999498 -2.983814
v -339.228668 -25.999498 2.983818
v -258.043762 -18.744097 -1.933395
v -260.031769 -8.396205 -1.933395
v -258.043762 -18.744097 1.933397
v -260.031769 -8.396205 1.933397
v -259.037659 -13.570231 -2.983815
v -259.037659 -13.570231 2.983817
v -192.621384 -11.105332 -1.933395
v -193.895554 -0.674194 -1.933396
v -192.621384 -11.105332 1.933397
v -193.895554 -0.674194 1.933396
v -193.258392 -5.889801 -2.983815
v -193.258392 -5.889801 2.983816
v -122.384674 -5.373787 -1.933396
v -122.892654 5.119959 -1.933396
v -122.384674 -5.373787 1.933396
v -122.892654 5.119959 1.933396
v -122.638611 -0.126912 -2.983816
v -122.638611 -0.126912 2.983816
v -337.822968 -31.110050 -1.933394
v -339.228668 -25.999498 -2.983814
v -337.822968 -31.110050 1.933398
v -339.228668 -25.999498 2.983818
v -340.634460 -20.888947 1.933398
v -340.634460 -20.888947 -1.933394
v -103.135185 -6.017891 -2.215558
v -103.135185 -6.017891 2.215640
v -102.923439 -0.386859 -3.548222
v -98.744560 -0.146016 -3.548222
v -99.073532 -5.783859 -2.215558
v -99.073532 -5.783859 2.215640
v -102.923439 -0.386859 3.548222
v -98.744560 -0.146015 3.548222
v -98.415611 5.491827 -2.215640
v -98.415611 5.491827 2.215558
v -102.711578 5.244261 2.215558
v -102.711578 5.244261 -2.215640
vn 0.0704 -0.9975 -0.0000
vn 0.0438 -0.9990 -0.0000
vn 0.0533 -0.9986 -0.0000
vn 0.9991 -0.0423 -0.0000
vn 0.9958 -0.0916 -0.0000
vn 0.0150 -0.2499 -0.9681
vn 0.0191 -0.2836 -0.9588
vn 0.0099 -0.0431 -0.9990
vn 0.0086 0.0060 -0.9999
vn 0.9999 -0.0115 -0.0000
vn 0.0086 0.0060 0.9999
vn -0.0042 0.2496 0.9683
vn 0.0004 0.0402 0.9992
vn 0.0150 -0.2499 0.9681
vn 0.9993 0.0380 -0.0000
vn -0.0364 0.9993 -0.0000
vn -0.0582 0.9983 -0.0000
vn -0.0151 0.2838 0.9588
vn -0.0255 0.2830 0.9588
vn -0.0891 0.9960 -0.0000
vn -0.1055 0.9944 -0.0000
vn -0.1242 0.9923 -0.0000
vn -0.0088 0.0394 -0.9992
vn -0.0383 0.2811 -0.9589
vn -0.0301 0.2826 -0.9588
vn 0.0026 -0.0011 -1.0000
vn -0.0186 0.2836 -0.9588
vn 0.0252 -0.2830 -0.9588
vn 0.0351 -0.2816 -0.9589
vn 0.1533 -0.9882 -0.0000
vn 0.1432 -0.9897 -0.0000
vn 0.0364 -0.2470 -0.9683
vn 0.1248 -0.9922 -0.0000
vn 0.1055 -0.9944 -0.0000
vn 0.0052 -0.0434 0.9990
vn 0.0373 -0.2813 0.9589
vn 0.0299 -0.2826 0.9588
vn 0.0364 -0.2470 0.9683
vn 0.0891 -0.9960 -0.0000
vn -0.0023 -0.0015 1.0000
vn 0.0208 -0.2835 0.9588
vn -0.0357 0.2815 0.9589
vn -0.1412 0.9900 -0.0000
vn -0.1507 0.9886 -0.0000
vn -0.0410 0.2455 0.9685
vn -0.9688 -0.2479 -0.0000
vn -0.9797 -0.2005 -0.0000
vn -0.0077 0.0110 0.9999
vn -0.9607 -0.2776 -0.0000
vn -0.9461 -0.3238 -0.0000
vn -0.0077 0.0111 -0.9999
vn -0.0410 0.2455 -0.9685
vn -0.0042 0.2496 -0.9683
vn 0.0300 -0.1933 -0.9807
vn -0.0173 0.0754 -0.9970
vn 0.0019 -0.0007 -1.0000
vn 0.0246 -0.1943 -0.9806
vn 0.0146 -0.0536 0.9985
vn 0.0300 -0.1933 0.9807
vn 0.0280 -0.1938 0.9806
vn -0.0015 -0.0012 1.0000
vn 0.1532 -0.9882 -0.0000
vn 0.1434 -0.9897 -0.0000
vn 0.1257 -0.9921 -0.0000
vn -0.0300 0.1933 -0.9807
vn -0.0282 0.1938 -0.9806
vn -0.1532 0.9882 -0.0000
vn -0.1434 0.9897 -0.0000
vn -0.1258 0.9921 -0.0000
vn -0.0300 0.1933 0.9807
vn -0.0248 0.1942 0.9806
vn 0.0017 -0.0008 -1.0000
vn 0.0178 -0.1953 -0.9806
vn 0.0209 -0.1950 0.9806
vn -0.0015 -0.0010 1.0000
vn 0.1069 -0.9943 -0.0000
vn 0.0904 -0.9959 -0.0000
vn -0.0210 0.1950 -0.9806
vn -0.1068 0.9943 -0.0000
vn -0.0905 0.9959 -0.0000
vn -0.0178 0.1953 0.9806
vn 0.0019 0.0026 -1.0000
vn 0.0098 -0.1921 -0.9813
vn 0.0138 -0.1956 0.9806
vn -0.0024 0.0321 0.9995
vn 0.0700 -0.9975 -0.0000
vn 0.0493 -0.9988 -0.0000
vn -0.0135 0.1956 -0.9806
vn -0.0585 0.9983 -0.0000
vn -0.0114 0.1958 0.9806
vn 0.0074 -0.1900 0.9818
vn -0.0011 0.0232 0.9997
vn 0.0379 -0.9993 -0.0000
vn -0.0083 0.2071 0.9783
vn -0.0356 0.9994 -0.0000
vn -0.0083 0.2071 -0.9783
vn -0.0018 -0.0490 -0.9988
vn 0.0070 -0.1844 -0.9828
vn 0.9995 -0.0331 -0.0000
vn -0.9642 -0.2652 -0.0000
vn 0.0575 -0.9983 -0.0000
vn -0.9993 0.0376 -0.0000
vn 0.0133 -0.2308 -0.9729
vn 0.0039 0.0669 -0.9978
vn -0.0035 -0.0661 -0.9978
vn 0.0012 0.0916 0.9958
vn -0.0021 -0.0907 0.9959
vn 0.0133 -0.2307 0.9729
vn 0.9983 -0.0583 -0.0000
vn 0.9983 -0.0582 -0.0000
vn -0.0133 0.2308 0.9729
vn -0.0575 0.9983 -0.0000
vn -0.0133 0.2307 -0.9729
vt 0.352875 0.633003
vt 0.487720 0.624855
vt 0.488281 0.599537
vt 0.352092 0.606343
vt 0.487645 0.574219
vt 0.351308 0.579684
vt 0.240814 0.597448
vt 0.138009 0.623971
vt 0.140166 0.650346
vt 0.242306 0.623994
vt 0.243799 0.650540
vt 0.142322 0.676721
vt 0.017551 0.722656
vt 0.011719 0.669544
vt 0.014008 0.696362
vt 0.016650 0.722656
vt 0.014184 0.699027
vt 0.139093 0.650501
vt 0.140917 0.674377
vt 0.011719 0.675397
vt 0.137269 0.626624
vt 0.241684 0.622251
vt 0.242951 0.646281
vt 0.240416 0.598221
vt 0.351952 0.603328
vt 0.352622 0.627461
vt 0.351283 0.579196
vt 0.488281 0.621609
vt 0.488281 0.595868
vt 0.488281 0.574219
vt 0.628906 0.511340
vt 0.628906 0.394910
vt 0.687500 0.542969
vt 0.687500 0.363281
vt 0.746094 0.394910
vt 0.746094 0.511340
vt 0.629684 0.397023
vt 0.628906 0.397023
vt 0.628906 0.509225
vt 0.687088 0.542969
vt 0.687889 0.542969
vt 0.629684 0.509225
vt 0.687889 0.363281
vt 0.687088 0.363281
vt 0.745271 0.397025
vt 0.746094 0.509227
vt 0.746094 0.397025
vt 0.745271 0.509227
s 1
f 613/338/693 610/339/694 611/338/695
f 610/339/694 612/339/694 611/338/695
f 616/340/696 612/339/697 610/339/697
f 610/339/698 613/338/699 614/341/700
f 615/340/701 610/339/698 614/341/700
f 615/340/702 616/340/696 610/339/697
f 616/340/703 618/342/704 617/341/705
f 612/339/706 616/340/703 617/341/705
f 618/342/707 616/340/696 615/340/702
f 619/342/707 618/342/707 615/340/702
f 618/342/708 619/342/708 620/343/709
f 618/342/704 620/343/710 617/341/705
f 620/343/710 621/344/711 617/341/705
f 623/344/712 621/344/713 620/343/709
f 619/342/708 622/343/709 620/343/709
f 622/343/709 623/344/712 620/343/709
f 623/344/712 624/345/714 621/344/713
f 625/346/715 624/345/716 623/344/717
f 626/347/718 625/346/715 623/344/717
f 626/347/718 623/344/717 622/343/719
f 614/341/700 626/347/718 622/343/719
f 627/348/720 626/347/718 614/341/700
f 628/349/721 625/346/715 626/347/718
f 627/348/720 628/349/721 626/347/718
f 630/350/722 629/350/722 628/349/723
f 628/349/721 629/350/724 625/346/715
f 631/349/725 630/350/722 628/349/723
f 631/349/725 628/349/723 627/348/726
f 632/346/727 631/349/728 633/348/729
f 630/350/730 631/349/728 632/346/727
f 633/348/731 631/349/725 627/348/726
f 634/347/732 632/346/727 633/348/729
f 633/348/731 627/348/726 613/338/693
f 634/347/732 633/348/729 611/338/733
f 611/338/695 633/348/731 613/338/693
f 621/344/711 634/347/732 617/341/705
f 621/344/711 635/345/734 634/347/732
f 635/345/734 632/346/727 634/347/732
f 617/341/705 634/347/732 611/338/733
f 624/345/714 635/345/735 621/344/713
f 624/345/714 636/351/736 635/345/735
f 636/351/736 637/351/736 635/345/735
f 635/345/734 637/351/737 632/346/727
f 638/352/738 637/351/739 636/351/739
f 637/351/737 638/352/740 632/346/727
f 639/352/741 638/352/738 636/351/739
f 630/350/742 638/352/738 639/352/741
f 638/352/740 630/350/730 632/346/727
f 629/350/742 630/350/742 639/352/741
f 629/350/724 639/352/743 625/346/715
f 639/352/743 636/351/744 625/346/715
f 636/351/744 624/345/716 625/346/715
f 613/338/699 627/348/720 614/341/700
f 622/343/719 619/342/745 614/341/700
f 619/342/745 615/340/701 614/341/700
f 611/338/733 612/339/706 617/341/705
f 646/353/746 650/354/747 656/355/748
f 652/356/749 646/353/746 656/355/748
f 651/354/750 648/353/751 654/356/752
f 657/355/753 651/354/750 654/356/752
f 648/353/754 646/353/754 652/356/755
f 654/356/756 648/353/754 652/356/755
f 650/354/747 647/357/757 653/358/758
f 656/355/748 650/354/747 653/358/758
f 647/357/759 649/357/759 655/358/760
f 653/358/761 647/357/759 655/358/760
f 649/357/762 651/354/750 657/355/753
f 655/358/763 649/357/762 657/355/753
f 652/356/749 656/355/748 662/359/764
f 658/360/765 652/356/749 662/359/764
f 657/355/753 654/356/752 660/360/766
f 663/359/767 657/355/753 660/360/766
f 654/356/756 652/356/755 658/360/768
f 660/360/769 654/356/756 658/360/768
f 656/355/748 653/358/758 659/361/770
f 662/359/764 656/355/748 659/361/770
f 653/358/761 655/358/760 661/361/771
f 659/361/772 653/358/761 661/361/771
f 655/358/763 657/355/753 663/359/767
f 661/361/773 655/358/763 663/359/767
f 658/360/765 662/359/764 668/362/774
f 664/363/775 658/360/765 668/362/774
f 663/359/767 660/360/766 666/363/776
f 669/362/777 663/359/767 666/363/776
f 660/360/769 658/360/768 664/363/778
f 666/363/779 660/360/769 664/363/778
f 662/359/764 659/361/770 665/364/780
f 668/362/774 662/359/764 665/364/780
f 659/361/772 661/361/771 667/364/781
f 665/364/781 659/361/772 667/364/781
f 661/361/773 663/359/767 669/362/777
f 667/364/782 661/361/773 669/362/777
f 642/365/783 645/366/784 669/362/777
f 666/363/776 642/365/783 669/362/777
f 640/365/785 642/365/785 666/363/779
f 664/363/778 640/365/785 666/363/779
f 643/367/786 667/364/782 669/362/777
f 645/366/784 643/367/786 669/362/777
f 641/367/787 665/364/781 667/364/781
f 643/367/787 641/367/787 667/364/781
f 641/367/788 644/366/789 668/362/774
f 665/364/780 641/367/788 668/362/774
f 644/366/789 640/365/790 664/363/775
f 668/362/774 644/366/789 664/363/775
f 643/367/791 645/366/791 644/366/791
f 641/367/791 643/367/791 644/366/791
f 645/366/791 642/365/791 640/365/791
f 644/366/791 645/366/791 640/365/791
f 670/368/792 672/369/792 671/370/792
f 672/369/792 673/371/792 671/370/792
f 673/371/792 674/372/792 675/373/792
f 671/370/792 673/371/792 675/373/792
f 681/374/793 677/375/793 676/376/793
f 677/375/794 678/377/794 676/376/794
f 676/376/795 678/377/796 679/378/797
f 680/379/795 676/376/795 679/378/797
f 680/379/793 681/374/793 676/376/793
f 683/380/798 682/381/799 681/374/800
f 682/381/799 677/375/800 681/374/800
f 680/379/801 679/378/801 681/374/801
f 683/380/802 681/374/801 679/378/801
f 686/382/803 682/381/799 683/380/798
f 684/383/802 683/380/802 679/378/801
f 684/383/802 685/384/802 683/380/802
f 685/384/803 686/382/803 683/380/798
f 687/385/804 686/382/804 685/384/804
f 687/385/794 678/377/794 686/382/794
f 686/382/794 678/377/794 682/381/794
f 678/377/796 687/385/805 684/383/805
f 684/383/804 687/385/804 685/384/804
f 679/378/797 678/377/796 684/383/805
f 678/377/794 677/375/794 682/381/794
