# Blender 5.2.0 LTS
# www.blender.org
o blade
v -32.792900 -3.202399 -2.265600
v 41.740307 -1.959199 2.265600
v 41.740307 -1.959200 -2.265600
v -32.792900 -3.202399 2.265600
v -35.379101 -3.202399 2.265600
v -35.379101 -3.202400 -2.265600
v -32.792900 3.631000 -3.566900
v -35.379101 3.631000 -3.566900
v -32.792900 9.427600 -2.265601
v 41.740303 9.180600 -2.265601
v 41.740295 3.610699 -3.566900
v 41.740303 9.180600 2.265599
v 41.740295 3.610700 3.566900
v -32.792900 3.631000 3.566900
v -32.792900 9.427600 2.265599
v -35.379101 9.427600 -2.265601
v -35.379101 9.427600 2.265599
v -35.379101 3.631000 3.566900
v -39.060116 -2.243780 -0.566752
v -124.766975 1.152836 -0.668233
v -39.048691 3.365328 -0.668233
v -124.520691 -4.448440 -0.566752
v -39.060116 -2.243780 0.566756
v -124.520691 -4.448440 0.566756
v -39.048691 3.365328 0.668235
v -124.766975 1.152836 0.668235
v -39.037266 8.974318 0.000001
v -125.013374 6.753990 0.000001
v -197.183609 -4.909896 -0.668232
v -197.660385 0.672150 0.000001
v -265.255890 -8.325856 0.000002
v -264.564636 -13.879498 -0.668231
v -197.183609 -4.909896 0.668236
v -264.564636 -13.879498 0.668237
v -196.706955 -10.491824 0.566756
v -263.873535 -19.432789 0.566757
v -196.706955 -10.491824 -0.566752
v -263.873535 -19.432789 -0.566751
v -334.913757 -32.439583 -0.566750
v -334.913757 -32.439583 0.566758
v -330.417328 -25.522818 -0.668231
v -333.302246 -20.698975 0.000003
v -339.098419 -27.144934 0.000004
v -330.417328 -25.522818 0.668237
v -341.919098 -33.701660 0.000004
v -34.015800 -2.157500 -1.099300
v -42.484100 -2.225600 1.099300
v -34.015800 -2.157500 1.099300
v -42.484100 -2.225600 -1.099300
v -34.015800 3.610700 -1.295900
v -42.484100 3.542600 -1.295900
v -34.015800 8.765900 -0.723001
v -34.015800 8.765900 0.722999
v -42.484100 8.697800 -0.723001
v -42.484100 8.697800 0.722999
v -34.015800 3.610700 1.295900
v -42.484100 3.542600 1.295900
v -35.188805 3.601435 0.000002
v -35.188805 3.601434 12.755768
v -35.185284 -3.155957 11.046864
v -35.182705 -8.102701 6.377952
v -35.181763 -9.913346 0.000005
v -35.182705 -8.102701 -6.377943
v -35.185284 -3.155955 -11.046858
v -35.188805 3.601436 -12.755766
v -35.192333 10.357965 -11.045453
v -35.194908 15.304867 -6.377564
v -35.195847 17.116213 -0.000002
v -35.194908 15.304921 6.377465
v -35.192333 10.357957 11.045443
v -37.100796 15.306503 6.377820
v -37.098217 10.359756 11.046862
v -37.094696 3.602365 0.000002
v -37.094696 3.602364 12.755768
v -37.091167 -3.154156 11.045443
v -37.088593 -8.101061 6.377564
v -37.087654 -9.912416 0.000005
v -37.088593 -8.101075 -6.377563
v -37.091167 -3.154166 -11.045456
v -37.094696 3.602365 -12.755766
v -37.098217 10.359756 -11.046861
v -37.100796 15.306500 -6.377948
v -37.101738 17.117147 -0.000002
vn 0.0083 -1.0000 -0.0000
vn 0.0167 -0.9999 -0.0000
vn 0.0016 -0.1871 -0.9823
vn 0.0006 -0.0180 -0.9998
vn 0.0015 -0.2073 -0.9783
vn -0.0000 -1.0000 -0.0000
vn -0.0000 -0.1871 -0.9823
vn -0.0000 0.0852 -0.9964
vn 0.0004 0.2190 -0.9757
vn 0.0004 0.2233 -0.9747
vn -0.0000 -0.0000 -1.0000
vn 1.0000 -0.0000 -0.0000
vn 0.0005 0.0095 1.0000
vn 0.0003 0.0747 0.9972
vn 0.0003 0.2218 0.9751
vn 0.0015 -0.2073 0.9783
vn 0.0008 0.2275 0.9738
vn 0.0017 1.0000 -0.0000
vn -0.0000 1.0000 -0.0000
vn 0.0033 1.0000 -0.0000
vn -0.0000 0.2190 0.9757
vn -0.0000 -0.0527 0.9986
vn 0.0016 -0.1871 0.9823
vn -0.0000 -0.1871 0.9823
vn -0.0000 0.2190 -0.9757
vn 0.0010 -0.0181 -0.9998
vn -0.0015 0.0274 -0.9996
vn 0.0005 -0.0181 -0.9998
vn -0.0018 0.0731 -0.9973
vn 0.0551 -0.9985 -0.0000
vn 0.0258 -0.9997 -0.0000
vn 0.0546 -0.9985 -0.0000
vn 0.0548 -0.9985 -0.0000
vn 0.0010 -0.0181 0.9998
vn 0.0005 -0.0181 0.9998
vn -0.0008 0.0276 0.9996
vn -0.0040 0.0729 0.9973
vn -0.0031 0.1183 0.9930
vn -0.0064 0.1182 0.9930
vn -0.0064 0.1182 -0.9930
vn -0.0031 0.1183 -0.9930
vn -0.0049 0.0501 -0.9987
vn -0.0136 0.1177 -0.9930
vn -0.0118 0.1179 0.9930
vn -0.0095 0.0633 -0.9979
vn -0.0196 0.1194 -0.9927
vn -0.0186 0.1189 0.9927
vn -0.0059 0.0501 0.9987
vn -0.0057 0.0362 0.9993
vn 0.0020 -0.0180 0.9998
vn 0.0995 -0.9950 -0.0000
vn 0.1479 -0.9890 -0.0000
vn 0.1159 -0.9933 -0.0000
vn 0.0028 -0.0179 0.9998
vn 0.1643 -0.9864 -0.0000
vn 0.0020 -0.0180 -0.9998
vn 0.0028 -0.0179 -0.9998
vn -0.0354 0.0549 -0.9979
vn 0.1787 -0.9839 -0.0000
vn -0.0563 0.0205 -0.9982
vn -0.0877 0.0532 -0.9947
vn -0.0578 0.1030 -0.9930
vn -0.0873 0.0376 -0.9955
vn -0.0354 0.0549 0.9979
vn -0.0578 0.1030 0.9930
vn -0.0877 0.0533 0.9947
vn -0.0873 0.0376 0.9955
vn -0.0563 0.0205 0.9982
vn 0.1773 -0.9842 -0.0000
vn 0.0080 -1.0000 -0.0000
vn -0.0003 0.0141 -0.9999
vn 0.0003 -0.0341 -0.9994
vn -0.0003 0.0624 -0.9981
vn -0.0009 0.1105 -0.9939
vn -0.0080 1.0000 -0.0000
vn -1.0000 -0.0000 -0.0000
vn -0.0003 0.0624 0.9981
vn -0.0009 0.1105 0.9939
vn -0.0003 0.0141 0.9999
vn 0.0003 -0.0341 0.9994
vn 1.0000 0.0005 -0.0000
vn 0.0011 0.5439 0.8392
vn 0.0011 0.4163 0.9092
vn -0.0000 0.0638 0.9980
vn 0.0008 0.9026 0.4304
vn 0.0009 0.7985 0.6020
vn -1.0000 -0.0005 -0.0000
vn -0.0000 -0.0638 0.9980
vn -0.0011 -0.4163 0.9092
vn -0.0011 -0.5439 0.8392
vn -0.0009 -0.7985 0.6020
vn -0.0008 -0.9026 0.4304
vn -0.0006 -0.9925 -0.1223
vn -0.0006 -0.9925 0.1224
vn -0.0009 -0.7984 -0.6022
vn -0.0008 -0.9027 -0.4302
vn -0.0011 -0.4159 -0.9094
vn -0.0010 -0.5440 -0.8391
vn -0.0000 -0.0641 -0.9979
vn -0.0000 0.0641 -0.9979
vn 0.0011 0.4159 -0.9094
vn 0.0010 0.5440 -0.8391
vn 0.0009 0.7984 -0.6022
vn 0.0008 0.9027 -0.4302
vn 0.0006 0.9925 -0.1223
vn 0.0006 0.9925 0.1224
vt 0.023508 0.535156
vt 0.363281 0.519007
vt 0.023508 0.446391
vt 0.011719 0.535156
vt 0.011719 0.446391
vt 0.023508 0.371094
vt 0.363281 0.374302
vt 0.363281 0.446655
vt 0.011719 0.371094
vt 0.353784 0.833084
vt 0.353378 0.802916
vt 0.488281 0.822133
vt 0.488281 0.791926
vt 0.488281 0.761719
vt 0.352972 0.772748
vt 0.239423 0.834785
vt 0.238654 0.804718
vt 0.133402 0.882364
vt 0.132296 0.852447
vt 0.240191 0.864852
vt 0.134507 0.912279
vt 0.029795 0.944358
vt 0.022740 0.981560
vt 0.016137 0.953000
vt 0.025239 0.918348
vt 0.011719 0.988281
vt 0.628906 0.542969
vt 0.629632 0.363281
vt 0.691131 0.363281
vt 0.690405 0.542969
vt 0.746094 0.363281
vt 0.745368 0.542969
vt 0.544922 0.375318
vt 0.500000 0.363281
vt 0.500000 0.453125
vt 0.455078 0.375318
vt 0.422193 0.408203
vt 0.410156 0.453125
vt 0.422193 0.498047
vt 0.455078 0.530932
vt 0.500000 0.542969
vt 0.544922 0.530932
vt 0.577807 0.498047
vt 0.589844 0.453125
vt 0.577807 0.408204
s 1
f 4/1/1 1/1/1 2/2/2
f 1/1/1 3/2/2 2/2/2
f 1/1/3 7/3/4 3/2/5
f 1/1/1 4/1/1 5/4/6
f 6/4/6 1/1/1 5/4/6
f 7/3/4 1/1/3 6/4/7
f 8/5/8 7/3/4 6/4/7
f 9/6/9 7/3/4 8/5/8
f 7/3/4 9/6/9 10/7/10
f 7/3/4 11/8/11 3/2/5
f 11/8/11 7/3/4 10/7/10
f 3/2/12 11/8/12 13/8/12
f 11/8/12 10/7/12 12/7/12
f 13/8/12 11/8/12 12/7/12
f 14/3/13 13/8/14 15/6/15
f 2/2/16 13/8/14 14/3/13
f 2/2/12 3/2/12 13/8/12
f 13/8/14 12/7/17 15/6/15
f 15/6/18 9/6/18 16/9/19
f 9/6/18 15/6/18 10/7/20
f 15/6/18 12/7/20 10/7/20
f 17/9/19 15/6/18 16/9/19
f 14/3/13 15/6/15 17/9/21
f 18/5/22 14/3/13 17/9/21
f 4/1/23 14/3/13 18/5/22
f 5/4/24 4/1/23 18/5/22
f 16/9/25 9/6/9 8/5/8
f 4/1/23 2/2/16 14/3/13
f 22/10/26 20/11/27 19/12/28
f 20/11/27 21/13/29 19/12/28
f 22/10/30 19/12/31 23/12/31
f 24/10/32 22/10/33 23/12/31
f 24/10/34 23/12/35 25/13/36
f 26/11/37 24/10/34 25/13/36
f 26/11/37 25/13/36 27/14/38
f 28/15/39 26/11/37 27/14/38
f 28/15/40 27/14/41 21/13/29
f 20/11/27 29/16/42 28/15/40
f 29/16/42 30/17/43 28/15/40
f 28/15/39 30/17/44 26/11/37
f 20/11/27 28/15/40 21/13/29
f 32/18/45 31/19/46 30/17/43
f 30/17/44 31/19/47 33/16/48
f 29/16/42 32/18/45 30/17/43
f 30/17/44 33/16/48 26/11/37
f 31/19/47 34/18/49 33/16/48
f 26/11/37 33/16/48 24/10/34
f 33/16/48 35/20/50 24/10/34
f 33/16/48 34/18/49 35/20/50
f 35/20/51 36/21/52 37/20/53
f 34/18/49 36/21/54 35/20/50
f 35/20/51 37/20/53 22/10/33
f 24/10/32 35/20/51 22/10/33
f 36/21/52 38/21/55 37/20/53
f 37/20/56 38/21/57 29/16/42
f 37/20/56 29/16/42 20/11/27
f 22/10/26 37/20/56 20/11/27
f 38/21/57 32/18/45 29/16/42
f 41/22/58 32/18/45 38/21/57
f 36/21/52 40/23/59 38/21/55
f 40/23/59 39/23/59 38/21/55
f 39/23/60 41/22/58 38/21/57
f 41/22/58 39/23/60 43/24/61
f 41/22/58 42/25/62 31/19/46
f 42/25/62 41/22/58 43/24/61
f 32/18/45 41/22/58 31/19/46
f 39/23/60 45/26/63 43/24/61
f 44/22/64 42/25/65 43/24/66
f 45/26/67 40/23/68 43/24/66
f 40/23/68 44/22/64 43/24/66
f 39/23/59 40/23/59 45/26/69
f 42/25/65 44/22/64 31/19/47
f 44/22/64 40/23/68 36/21/54
f 34/18/49 44/22/64 36/21/54
f 44/22/64 34/18/49 31/19/47
f 49/27/70 46/28/70 47/27/70
f 46/28/70 48/28/70 47/27/70
f 50/29/71 46/28/72 49/27/72
f 51/30/73 50/29/71 49/27/72
f 52/31/74 50/29/71 51/30/73
f 53/31/75 52/31/75 54/32/75
f 54/32/74 52/31/74 51/30/73
f 55/32/75 53/31/75 54/32/75
f 55/32/76 54/32/76 51/30/76
f 56/29/77 53/31/78 55/32/78
f 57/30/76 55/32/76 49/27/76
f 49/27/76 55/32/76 51/30/76
f 57/30/79 56/29/77 55/32/78
f 47/27/76 57/30/76 49/27/76
f 47/27/80 48/28/80 57/30/79
f 48/28/80 56/29/77 57/30/79
f 70/33/81 59/34/81 58/35/81
f 59/34/81 60/36/81 58/35/81
f 60/36/81 61/37/81 58/35/81
f 61/37/81 62/38/81 58/35/81
f 62/38/81 63/39/81 58/35/81
f 63/39/81 64/40/81 58/35/81
f 64/40/81 65/41/81 58/35/81
f 65/41/81 66/42/81 58/35/81
f 66/42/81 67/43/81 58/35/81
f 67/43/81 68/44/81 58/35/81
f 68/44/81 69/45/81 58/35/81
f 69/45/81 70/33/81 58/35/81
f 70/33/82 72/33/83 59/34/84
f 69/45/85 71/45/86 70/33/82
f 71/45/86 72/33/83 70/33/82
f 72/33/87 71/45/87 73/35/87
f 74/34/87 72/33/87 73/35/87
f 72/33/83 74/34/88 59/34/84
f 59/34/84 74/34/88 60/36/89
f 74/34/88 75/36/90 60/36/89
f 75/36/87 74/34/87 73/35/87
f 60/36/89 75/36/90 61/37/91
f 75/36/90 76/37/92 61/37/91
f 76/37/87 75/36/87 73/35/87
f 77/38/87 76/37/87 73/35/87
f 76/37/92 77/38/93 62/38/94
f 61/37/91 76/37/92 62/38/94
f 78/39/87 77/38/87 73/35/87
f 77/38/93 78/39/95 63/39/96
f 62/38/94 77/38/93 63/39/96
f 79/40/87 78/39/87 73/35/87
f 78/39/95 79/40/97 64/40/98
f 63/39/96 78/39/95 64/40/98
f 64/40/98 79/40/97 65/41/99
f 79/40/97 80/41/100 65/41/99
f 80/41/87 79/40/87 73/35/87
f 65/41/99 80/41/100 66/42/101
f 80/41/100 81/42/102 66/42/101
f 81/42/87 80/41/87 73/35/87
f 66/42/101 81/42/102 67/43/103
f 81/42/102 82/43/104 67/43/103
f 82/43/87 81/42/87 73/35/87
f 67/43/103 82/43/104 68/44/105
f 82/43/104 83/44/106 68/44/105
f 83/44/87 82/43/87 73/35/87
f 68/44/105 83/44/106 69/45/85
f 83/44/106 71/45/86 69/45/85
f 71/45/87 83/44/87 73/35/87
o blade_damaged
v -39.045097 -2.234806 -0.566752
v -124.780403 1.387118 -0.668233
v -39.048710 3.373047 -0.668233
v -124.519043 -4.213581 -0.566752
v -39.045097 -2.234806 0.566756
v -124.519043 -4.213581 0.566756
v -39.048710 3.373047 0.668235
v -39.052326 8.980781 0.000001
v -124.780403 1.387118 0.668235
v -125.041901 6.987700 0.000001
v -32.792900 -2.955400 -2.265600
v 41.740303 -1.959200 2.265600
v 41.740303 -1.959200 -2.265600
v -32.792900 -2.955400 2.265600
v -35.379101 -2.955400 2.265600
v -35.379101 -2.955400 -2.265600
v -32.792900 3.610700 -3.566900
v 41.740292 3.610700 -3.566900
v -35.379101 3.610700 -3.566900
v -32.792900 9.180600 -2.265601
v 41.740299 9.180600 -2.265601
v -32.792900 9.180600 2.265599
v 41.740299 9.180600 2.265599
v 41.740292 3.610700 3.566900
v -32.792900 3.610700 3.566900
v -35.379101 3.610700 3.566900
v -35.379101 9.180600 2.265599
v -35.379101 9.180600 -2.265601
v -35.188805 3.601425 0.000002
v -35.188805 3.601424 12.755841
v -35.185207 -3.155941 11.046927
v -35.182571 -8.102668 6.377988
v -35.181606 -9.913305 0.000005
v -35.182571 -8.102669 -6.377979
v -35.185207 -3.155940 -11.046922
v -35.188805 3.601426 -12.755838
v -35.192410 10.357912 -11.045486
v -35.195042 15.304801 -6.377594
v -35.196003 17.116154 -0.000002
v -35.195042 15.304854 6.377494
v -35.192410 10.357903 11.045476
v -37.100929 15.306468 6.377856
v -37.098293 10.359740 11.046925
v -37.094696 3.602374 12.755841
v -37.094696 3.602375 0.000002
v -37.088459 -8.101007 -6.377591
v -37.091091 -3.154112 -11.045488
v -37.094696 3.602376 -12.755838
v -37.098293 10.359741 -11.046924
v -37.100929 15.306468 -6.377985
v -37.091091 -3.154102 11.045476
v -37.101894 17.117105 -0.000002
v -37.088459 -8.100992 6.377594
v -37.087498 -9.912356 0.000005
v -34.015800 -2.157500 -1.099300
v -42.484100 -2.225600 1.099300
v -34.015800 -2.157500 1.099300
v -42.484100 -2.225600 -1.099300
v -34.015800 3.610700 -1.295900
v -42.484100 3.542600 -1.295900
v -34.015800 8.765900 -0.723001
v -34.015800 8.765900 0.722999
v -42.484100 8.697800 -0.723001
v -42.484100 8.697800 0.722999
v -34.015800 3.610700 1.295900
v -42.484100 3.542600 1.295900
vn 0.0004 -0.0181 -0.9998
vn -0.0007 0.0274 -0.9996
vn -0.0005 0.0276 -0.9996
vn -0.0018 0.0729 -0.9973
vn 0.0231 -0.9997 -0.0000
vn 0.0004 -0.0181 0.9998
vn -0.0006 0.0274 0.9996
vn -0.0017 0.0729 0.9973
vn -0.0007 0.0275 0.9996
vn -0.0027 0.1183 0.9930
vn -0.0017 0.0730 0.9973
vn -0.0027 0.1183 -0.9930
vn -0.0016 0.0730 -0.9973
vn 0.0067 -1.0000 -0.0000
vn 0.0134 -0.9999 -0.0000
vn 0.0013 -0.1944 -0.9809
vn 0.0004 -0.0187 -0.9998
vn 0.0013 -0.2110 -0.9775
vn -0.0000 -1.0000 -0.0000
vn -0.0000 -0.1944 -0.9809
vn -0.0000 -0.0000 -1.0000
vn -0.0000 0.2275 -0.9738
vn -0.0000 0.0886 -0.9961
vn -0.0000 1.0000 -0.0000
vn 1.0000 -0.0000 -0.0000
vn -0.0000 0.0776 0.9970
vn -0.0000 0.2275 0.9738
vn 0.0004 0.0114 0.9999
vn 0.0013 -0.2110 0.9775
vn 0.0013 -0.1944 0.9809
vn -0.0000 -0.0549 0.9985
vn -0.0000 -0.1944 0.9809
vn 1.0000 0.0005 -0.0000
vn 0.0011 0.5439 0.8392
vn 0.0011 0.4163 0.9092
vn -0.0000 0.0638 0.9980
vn 0.0008 0.9026 0.4304
vn 0.0009 0.7985 0.6020
vn -0.0000 -0.0638 0.9980
vn -1.0000 -0.0005 -0.0000
vn -0.0006 -0.9925 0.1224
vn -0.0006 -0.9925 -0.1223
vn -0.0008 -0.9027 -0.4302
vn -0.0008 -0.9026 0.4304
vn -0.0010 -0.7984 -0.6022
vn -0.0010 -0.7985 0.6020
vn -0.0011 -0.5439 0.8392
vn 0.0006 0.9925 -0.1223
vn 0.0006 0.9925 0.1224
vn 0.0008 0.9027 -0.4302
vn -0.0011 -0.4163 0.9092
vn 0.0010 0.7984 -0.6022
vn 0.0011 0.5440 -0.8391
vn 0.0011 0.4159 -0.9094
vn -0.0000 0.0641 -0.9979
vn -0.0011 -0.4159 -0.9094
vn -0.0000 -0.0641 -0.9979
vn -0.0011 -0.5440 -0.8391
vn 0.0080 -1.0000 -0.0000
vn -0.0003 0.0141 -0.9999
vn 0.0003 -0.0341 -0.9994
vn -0.0003 0.0624 -0.9981
vn -0.0009 0.1105 -0.9939
vn -0.0080 1.0000 -0.0000
vn -1.0000 -0.0000 -0.0000
vn -0.0003 0.0141 0.9999
vn -0.0003 0.0624 0.9981
vn -0.0009 0.1105 0.9939
vn 0.0003 -0.0341 0.9994
vt 0.014576 0.988281
vt 0.013148 0.892507
vt 0.488281 0.953516
vt 0.488281 0.857616
vt 0.488281 0.761719
vt 0.011719 0.796734
vt 0.023508 0.535156
vt 0.363281 0.521689
vt 0.023508 0.446391
vt 0.011719 0.535156
vt 0.363281 0.446391
vt 0.363281 0.371094
vt 0.011719 0.446391
vt 0.023508 0.371094
vt 0.011719 0.371094
vt 0.544922 0.375318
vt 0.500000 0.363281
vt 0.500000 0.453125
vt 0.455078 0.375318
vt 0.422193 0.408203
vt 0.410156 0.453125
vt 0.422193 0.498047
vt 0.455078 0.530932
vt 0.500000 0.542969
vt 0.544922 0.530932
vt 0.577807 0.498047
vt 0.589844 0.453125
vt 0.577807 0.408204
vt 0.628906 0.542969
vt 0.629632 0.363281
vt 0.691131 0.363281
vt 0.690405 0.542969
vt 0.746094 0.363281
vt 0.745368 0.542969
s 1
f 87/46/107 85/47/108 84/48/107
f 85/47/109 86/49/110 84/48/107
f 87/46/111 84/48/111 88/48/111
f 89/46/111 87/46/111 88/48/111
f 89/46/112 88/48/112 90/49/113
f 92/47/114 90/49/115 91/50/116
f 92/47/114 89/46/112 90/49/115
f 93/51/116 92/47/117 91/50/116
f 93/51/118 91/50/118 86/49/119
f 85/47/109 93/51/118 86/49/110
f 97/52/120 94/52/120 95/53/121
f 94/52/120 96/53/121 95/53/121
f 94/52/122 100/54/123 96/53/124
f 94/52/120 97/52/120 98/55/125
f 99/55/125 94/52/120 98/55/125
f 100/54/123 94/52/122 99/55/126
f 101/56/127 100/54/123 104/57/128
f 100/54/123 101/56/127 96/53/124
f 102/58/129 100/54/123 99/55/126
f 103/59/128 100/54/123 102/58/129
f 100/54/123 103/59/128 104/57/128
f 103/59/130 105/59/130 104/57/130
f 105/59/130 106/57/130 104/57/130
f 101/56/131 104/57/131 106/57/131
f 107/56/132 106/57/133 105/59/133
f 107/56/131 101/56/131 106/57/131
f 96/53/131 101/56/131 107/56/131
f 108/54/134 107/56/132 105/59/133
f 95/53/135 107/56/132 108/54/134
f 95/53/131 96/53/131 107/56/131
f 97/52/136 108/54/134 109/58/137
f 97/52/136 95/53/135 108/54/134
f 108/54/134 105/59/133 110/60/133
f 109/58/137 108/54/134 110/60/133
f 110/60/130 105/59/130 111/60/130
f 105/59/130 103/59/130 111/60/130
f 111/60/128 103/59/128 102/58/129
f 98/55/138 97/52/136 109/58/137
f 124/61/139 113/62/139 112/63/139
f 113/62/139 114/64/139 112/63/139
f 114/64/139 115/65/139 112/63/139
f 115/65/139 116/66/139 112/63/139
f 116/66/139 117/67/139 112/63/139
f 117/67/139 118/68/139 112/63/139
f 118/68/139 119/69/139 112/63/139
f 119/69/139 120/70/139 112/63/139
f 120/70/139 121/71/139 112/63/139
f 121/71/139 122/72/139 112/63/139
f 122/72/139 123/73/139 112/63/139
f 123/73/139 124/61/139 112/63/139
f 124/61/140 126/61/141 113/62/142
f 123/73/143 125/73/144 124/61/140
f 125/73/144 126/61/141 124/61/140
f 126/61/141 127/62/145 113/62/142
f 127/62/146 126/61/146 128/63/146
f 126/61/146 125/73/146 128/63/146
f 130/68/146 129/67/146 128/63/146
f 129/67/146 137/66/146 128/63/146
f 131/69/146 130/68/146 128/63/146
f 132/70/146 131/69/146 128/63/146
f 133/71/146 132/70/146 128/63/146
f 134/64/146 127/62/146 128/63/146
f 135/72/146 133/71/146 128/63/146
f 136/65/146 134/64/146 128/63/146
f 125/73/146 135/72/146 128/63/146
f 137/66/146 136/65/146 128/63/146
f 116/66/147 137/66/148 117/67/149
f 136/65/150 137/66/148 116/66/147
f 137/66/148 129/67/151 117/67/149
f 115/65/152 136/65/150 116/66/147
f 134/64/153 136/65/150 115/65/152
f 122/72/154 135/72/155 123/73/143
f 133/71/156 135/72/155 122/72/154
f 135/72/155 125/73/144 123/73/143
f 114/64/157 134/64/153 115/65/152
f 127/62/145 134/64/153 114/64/157
f 121/71/158 133/71/156 122/72/154
f 132/70/159 133/71/156 121/71/158
f 120/70/160 132/70/159 121/71/158
f 131/69/161 132/70/159 120/70/160
f 130/68/162 131/69/161 119/69/163
f 119/69/163 131/69/161 120/70/160
f 129/67/151 130/68/162 118/68/164
f 118/68/164 130/68/162 119/69/163
f 117/67/149 129/67/151 118/68/164
f 113/62/142 127/62/145 114/64/157
f 141/74/165 138/75/165 139/74/165
f 138/75/165 140/75/165 139/74/165
f 142/76/166 138/75/167 141/74/167
f 143/77/168 142/76/166 141/74/167
f 144/78/169 142/76/166 143/77/168
f 145/78/170 144/78/170 146/79/170
f 146/79/169 144/78/169 143/77/168
f 147/79/170 145/78/170 146/79/170
f 147/79/171 146/79/171 143/77/171
f 149/77/172 148/76/173 147/79/174
f 148/76/173 145/78/174 147/79/174
f 149/77/171 147/79/171 141/74/171
f 141/74/171 147/79/171 143/77/171
f 140/75/175 148/76/173 149/77/172
f 139/74/175 140/75/175 149/77/172
f 139/74/171 149/77/171 141/74/171
o blade_fragment
v -334.542053 -32.319374 -0.566752
v -341.547424 -33.581276 0.000003
v -334.542053 -32.319374 0.566756
v -338.726898 -27.024656 0.000002
v -330.045776 -25.402756 -0.668232
v -263.501740 -19.314333 -0.566753
v -264.192993 -13.761062 -0.668233
v -263.501740 -19.314333 0.566755
v -196.811768 -4.793106 -0.668234
v -196.334976 -10.375010 -0.566753
v -196.334976 -10.375010 0.566755
v -124.394875 1.267876 -0.668234
v -124.148445 -4.333370 -0.566754
v -124.148445 -4.333370 0.566754
v -124.394875 1.267876 0.668234
v -196.811768 -4.793106 0.668234
v -264.192993 -13.761062 0.668235
v -197.288712 0.788915 -0.000000
v -264.884369 -8.207438 0.000001
v -330.045776 -25.402756 0.668236
v -332.930847 -20.578873 0.000002
v -124.641411 6.869002 -0.000001
vn -0.0563 0.0205 -0.9982
vn -0.0873 0.0376 -0.9955
vn -0.0877 0.0532 -0.9947
vn 0.1787 -0.9839 -0.0000
vn 0.1773 -0.9842 -0.0000
vn 0.1642 -0.9864 -0.0000
vn -0.0354 0.0549 -0.9979
vn 0.0028 -0.0179 -0.9998
vn -0.0093 0.0634 -0.9979
vn -0.0049 0.0501 -0.9987
vn 0.1479 -0.9890 -0.0000
vn 0.1159 -0.9933 -0.0000
vn 0.0020 -0.0180 -0.9998
vn -0.0023 0.0275 -0.9996
vn 0.0995 -0.9950 -0.0000
vn 0.0834 -0.9965 -0.0000
vn 0.0015 -0.0180 -0.9998
vn -0.0061 0.0729 0.9973
vn -0.0059 0.0502 0.9987
vn 0.0015 -0.0180 0.9998
vn 0.0020 -0.0180 0.9998
vn -0.0186 0.1189 0.9927
vn -0.0057 0.0362 0.9993
vn -0.0118 0.1179 0.9930
vn -0.0196 0.1194 -0.9927
vn -0.0578 0.1030 -0.9930
vn -0.0578 0.1030 0.9930
vn -0.0354 0.0549 0.9979
vn -0.0136 0.1177 -0.9930
vn -0.0877 0.0533 0.9947
vn -0.0563 0.0205 0.9982
vn 0.0028 -0.0179 0.9998
vn -0.0099 0.1180 -0.9930
vn -0.0099 0.1180 0.9930
vn -0.0873 0.0376 0.9955
vt 0.027074 0.981216
vt 0.011719 0.988281
vt 0.017874 0.951195
vt 0.182787 0.908389
vt 0.036902 0.942111
vt 0.181247 0.876944
vt 0.328954 0.826930
vt 0.330024 0.858536
vt 0.487716 0.793430
vt 0.488281 0.825142
vt 0.179706 0.845496
vt 0.327884 0.795324
vt 0.030555 0.914770
vt 0.487151 0.761719
s 1
f 150/80/176 151/81/177 153/82/178
f 150/80/179 152/80/179 151/81/180
f 152/80/179 150/80/179 155/83/181
f 154/84/182 150/80/176 153/82/178
f 150/80/176 154/84/182 155/83/183
f 154/84/182 156/85/184 155/83/183
f 155/83/183 156/85/184 158/86/185
f 157/83/186 155/83/181 159/87/187
f 157/83/186 152/80/179 155/83/181
f 159/87/188 155/83/183 158/86/185
f 159/87/188 158/86/185 161/88/189
f 160/87/190 159/87/187 162/89/191
f 160/87/190 157/83/186 159/87/187
f 162/89/192 159/87/188 161/88/189
f 163/89/191 160/87/190 162/89/191
f 164/88/193 165/86/194 163/89/195
f 165/86/194 160/87/196 163/89/195
f 168/90/197 166/85/198 165/86/194
f 165/86/194 166/85/198 160/87/196
f 167/91/199 165/86/194 164/88/193
f 167/91/199 168/90/197 165/86/194
f 156/85/184 154/84/182 168/90/200
f 154/84/182 170/92/201 168/90/200
f 170/92/202 169/84/203 168/90/197
f 169/84/203 166/85/198 168/90/197
f 156/85/184 168/90/200 167/91/204
f 169/84/203 170/92/202 153/82/205
f 170/92/201 154/84/182 153/82/178
f 152/80/206 169/84/203 153/82/205
f 166/85/198 169/84/203 157/83/207
f 169/84/203 152/80/206 157/83/207
f 158/86/185 167/91/204 171/93/208
f 158/86/185 156/85/184 167/91/204
f 171/93/209 167/91/199 164/88/193
f 161/88/189 158/86/185 171/93/208
f 166/85/198 157/83/207 160/87/196
f 151/81/210 152/80/206 153/82/205
o sheath
v -35.695740 -2.420115 -2.462378
v -122.345566 -6.219709 2.726911
v -35.695740 -2.420115 2.462378
v -122.345566 -6.219709 -2.726910
v -122.654724 -0.007110 -4.570762
v -35.151409 3.498263 -3.777248
v -35.151409 3.498263 3.777248
v -122.654724 -0.007109 4.570762
v -35.375584 9.399800 2.462377
v -35.375584 9.399800 -2.462379
v -122.963997 6.205488 2.726910
v -194.046875 0.503583 2.726910
v -122.963997 6.205488 -2.726911
v -194.046875 0.503583 -2.726910
v -260.255157 -7.134948 -2.726910
v -259.062134 -13.261816 -4.570761
v -193.281174 -5.672647 -4.570762
v -192.515762 -11.848800 -2.726909
v -257.869354 -19.388609 -2.726909
v -338.324707 -31.867943 -2.640480
v -338.324707 -31.867943 2.640484
v -257.869354 -19.388609 2.726912
v -259.062134 -13.261816 4.570763
v -192.515762 -11.848800 2.726911
v -193.281174 -5.672646 4.570763
v -260.255157 -7.134948 2.726911
v -341.683563 -19.550928 -2.640481
v -341.683563 -19.550928 2.640483
v -340.408813 -25.779331 4.050474
v -340.408813 -25.779331 -4.050470
v -35.629086 -2.080051 -1.933396
v -35.287670 8.242885 -1.933397
v -35.629086 -2.080050 1.933396
v -35.287670 8.242885 1.933395
v -35.443645 3.526927 -2.983816
v -35.443645 3.526927 2.983816
v -337.822968 -31.110050 -1.933394
v -340.634460 -20.888947 -1.933394
v -337.822968 -31.110050 1.933398
v -340.634460 -20.888947 1.933398
v -339.228668 -25.999498 -2.983814
v -339.228668 -25.999498 2.983818
v -258.043762 -18.744097 -1.933395
v -260.031769 -8.396205 -1.933395
v -258.043762 -18.744097 1.933397
v -260.031769 -8.396205 1.933397
v -259.037659 -13.570231 -2.983815
v -259.037659 -13.570231 2.983817
v -192.621384 -11.105332 -1.933395
v -193.895554 -0.674194 -1.933396
v -192.621384 -11.105332 1.933397
v -193.895554 -0.674194 1.933396
v -193.258392 -5.889801 -2.983815
v -193.258392 -5.889801 2.983816
v -122.384674 -5.373787 -1.933396
v -122.892654 5.119959 -1.933396
v -122.384674 -5.373787 1.933396
v -122.892654 5.119959 1.933396
v -122.638611 -0.126912 -2.983816
v -122.638611 -0.126912 2.983816
v -337.822968 -31.110050 -1.933394
v -339.228668 -25.999498 -2.983814
v -337.822968 -31.110050 1.933398
v -339.228668 -25.999498 2.983818
v -340.634460 -20.888947 1.933398
v -340.634460 -20.888947 -1.933394
v -103.135185 -6.017891 -2.215558
v -103.135185 -6.017891 2.215640
v -102.923439 -0.386859 -3.548222
v -98.744560 -0.146016 -3.548222
v -99.073532 -5.783859 -2.215558
v -99.073532 -5.783859 2.215640
v -102.923439 -0.386859 3.548222
v -98.744560 -0.146015 3.548222
v -98.415611 5.491827 -2.215640
v -98.415611 5.491827 2.215558
v -102.711578 5.244261 2.215558
v -102.711578 5.244261 -2.215640
vn 0.0704 -0.9975 -0.0000
vn 0.0438 -0.9990 -0.0000
vn 0.0533 -0.9986 -0.0000
vn 0.9991 -0.0423 -0.0000
vn 0.9958 -0.0916 -0.0000
vn 0.0150 -0.2499 -0.9681
vn 0.0191 -0.2836 -0.9588
vn 0.0099 -0.0431 -0.9990
vn 0.0086 0.0060 -0.9999
vn 0.9999 -0.0115 -0.0000
vn 0.0086 0.0060 0.9999
vn -0.0042 0.2496 0.9683
vn 0.0004 0.0402 0.9992
vn 0.0150 -0.2499 0.9681
vn 0.9993 0.0380 -0.0000
vn -0.0364 0.9993 -0.0000
vn -0.0582 0.9983 -0.0000
vn -0.0151 0.2838 0.9588
vn -0.0255 0.2830 0.9588
vn -0.0891 0.9960 -0.0000
vn -0.1055 0.9944 -0.0000
vn -0.1242 0.9923 -0.0000
vn -0.0088 0.0394 -0.9992
vn -0.0383 0.2811 -0.9589
vn -0.0301 0.2826 -0.9588
vn 0.0026 -0.0011 -1.0000
vn -0.0186 0.2836 -0.9588
vn 0.0252 -0.2830 -0.9588
vn 0.0351 -0.2816 -0.9589
vn 0.1533 -0.9882 -0.0000
vn 0.1432 -0.9897 -0.0000
vn 0.0364 -0.2470 -0.9683
vn 0.1248 -0.9922 -0.0000
vn 0.1055 -0.9944 -0.0000
vn 0.0052 -0.0434 0.9990
vn 0.0373 -0.2813 0.9589
vn 0.0299 -0.2826 0.9588
vn 0.0364 -0.2470 0.9683
vn 0.0891 -0.9960 -0.0000
vn -0.0023 -0.0015 1.0000
vn 0.0208 -0.2835 0.9588
vn -0.0357 0.2815 0.9589
vn -0.1412 0.9900 -0.0000
vn -0.1507 0.9886 -0.0000
vn -0.0410 0.2455 0.9685
vn -0.9688 -0.2479 -0.0000
vn -0.9797 -0.2005 -0.0000
vn -0.0077 0.0110 0.9999
vn -0.9607 -0.2776 -0.0000
vn -0.9461 -0.3238 -0.0000
vn -0.0077 0.0111 -0.9999
vn -0.0410 0.2455 -0.9685
vn -0.0042 0.2496 -0.9683
vn 0.0300 -0.1933 -0.9807
vn -0.0173 0.0754 -0.9970
vn 0.0019 -0.0007 -1.0000
vn 0.0246 -0.1943 -0.9806
vn 0.0146 -0.0536 0.9985
vn 0.0300 -0.1933 0.9807
vn 0.0280 -0.1938 0.9806
vn -0.0015 -0.0012 1.0000
vn 0.1532 -0.9882 -0.0000
vn 0.1434 -0.9897 -0.0000
vn 0.1257 -0.9921 -0.0000
vn -0.0300 0.1933 -0.9807
vn -0.0282 0.1938 -0.9806
vn -0.1532 0.9882 -0.0000
vn -0.1434 0.9897 -0.0000
vn -0.1258 0.9921 -0.0000
vn -0.0300 0.1933 0.9807
vn -0.0248 0.1942 0.9806
vn 0.0017 -0.0008 -1.0000
vn 0.0178 -0.1953 -0.9806
vn 0.0209 -0.1950 0.9806
vn -0.0015 -0.0010 1.0000
vn 0.1069 -0.9943 -0.0000
vn 0.0904 -0.9959 -0.0000
vn -0.0210 0.1950 -0.9806
vn -0.1068 0.9943 -0.0000
vn -0.0905 0.9959 -0.0000
vn -0.0178 0.1953 0.9806
vn 0.0019 0.0026 -1.0000
vn 0.0098 -0.1921 -0.9813
vn 0.0138 -0.1956 0.9806
vn -0.0024 0.0321 0.9995
vn 0.0700 -0.9975 -0.0000
vn 0.0493 -0.9988 -0.0000
vn -0.0135 0.1956 -0.9806
vn -0.0585 0.9983 -0.0000
vn -0.0114 0.1958 0.9806
vn 0.0074 -0.1900 0.9818
vn -0.0011 0.0232 0.9997
vn 0.0379 -0.9993 -0.0000
vn -0.0083 0.2071 0.9783
vn -0.0356 0.9994 -0.0000
vn -0.0083 0.2071 -0.9783
vn -0.0018 -0.0490 -0.9988
vn 0.0070 -0.1844 -0.9828
vn 0.9995 -0.0331 -0.0000
vn -0.9642 -0.2652 -0.0000
vn 0.0575 -0.9983 -0.0000
vn -0.9993 0.0376 -0.0000
vn 0.0133 -0.2308 -0.9729
vn 0.0039 0.0669 -0.9978
vn -0.0035 -0.0661 -0.9978
vn 0.0012 0.0916 0.9958
vn -0.0021 -0.0907 0.9959
vn 0.0133 -0.2307 0.9729
vn 0.9983 -0.0583 -0.0000
vn 0.9983 -0.0582 -0.0000
vn -0.0133 0.2308 0.9729
vn -0.0575 0.9983 -0.0000
vn -0.0133 0.2307 -0.9729
vt 0.352875 0.633003
vt 0.487720 0.624855
vt 0.488281 0.599537
vt 0.352092 0.606343
vt 0.487645 0.574219
vt 0.351308 0.579684
vt 0.240814 0.597448
vt 0.138009 0.623971
vt 0.140166 0.650346
vt 0.242306 0.623994
vt 0.243799 0.650540
vt 0.142322 0.676721
vt 0.017551 0.722656
vt 0.011719 0.669544
vt 0.014008 0.696362
vt 0.016650 0.722656
vt 0.014184 0.699027
vt 0.139093 0.650501
vt 0.140917 0.674377
vt 0.011719 0.675397
vt 0.137269 0.626624
vt 0.241684 0.622251
vt 0.242951 0.646281
vt 0.240416 0.598221
vt 0.351952 0.603328
vt 0.352622 0.627461
vt 0.351283 0.579196
vt 0.488281 0.621609
vt 0.488281 0.595868
vt 0.488281 0.574219
vt 0.628906 0.511340
vt 0.628906 0.394910
vt 0.687500 0.542969
vt 0.687500 0.363281
vt 0.746094 0.394910
vt 0.746094 0.511340
vt 0.629684 0.397023
vt 0.628906 0.397023
vt 0.628906 0.509225
vt 0.687088 0.542969
vt 0.687889 0.542969
vt 0.629684 0.509225
vt 0.687889 0.363281
vt 0.687088 0.363281
vt 0.745271 0.397025
vt 0.746094 0.509227
vt 0.746094 0.397025
vt 0.745271 0.509227
s 1
f 175/94/211 172/95/212 173/94/213
f 172/95/212 174/95/212 173/94/213
f 178/96/214 174/95/215 172/95/215
f 172/95/216 175/94/217 176/97/218
f 177/96/219 172/95/216 176/97/218
f 177/96/220 178/96/214 172/95/215
f 178/96/221 180/98/222 179/97/223
f 174/95/224 178/96/221 179/97/223
f 180/98/225 178/96/214 177/96/220
f 181/98/225 180/98/225 177/96/220
f 180/98/226 181/98/226 182/99/227
f 180/98/222 182/99/228 179/97/223
f 182/99/228 183/100/229 179/97/223
f 185/100/230 183/100/231 182/99/227
f 181/98/226 184/99/227 182/99/227
f 184/99/227 185/100/230 182/99/227
f 185/100/230 186/101/232 183/100/231
f 187/102/233 186/101/234 185/100/235
f 188/103/236 187/102/233 185/100/235
f 188/103/236 185/100/235 184/99/237
f 176/97/218 188/103/236 184/99/237
f 189/104/238 188/103/236 176/97/218
f 190/105/239 187/102/233 188/103/236
f 189/104/238 190/105/239 188/103/236
f 192/106/240 191/106/240 190/105/241
f 190/105/239 191/106/242 187/102/233
f 193/105/243 192/106/240 190/105/241
f 193/105/243 190/105/241 189/104/244
f 194/102/245 193/105/246 195/104/247
f 192/106/248 193/105/246 194/102/245
f 195/104/249 193/105/243 189/104/244
f 196/103/250 194/102/245 195/104/247
f 195/104/249 189/104/244 175/94/211
f 196/103/250 195/104/247 173/94/251
f 173/94/213 195/104/249 175/94/211
f 183/100/229 196/103/250 179/97/223
f 183/100/229 197/101/252 196/103/250
f 197/101/252 194/102/245 196/103/250
f 179/97/223 196/103/250 173/94/251
f 186/101/232 197/101/253 183/100/231
f 186/101/232 198/107/254 197/101/253
f 198/107/254 199/107/254 197/101/253
f 197/101/252 199/107/255 194/102/245
f 200/108/256 199/107/257 198/107/257
f 199/107/255 200/108/258 194/102/245
f 201/108/259 200/108/256 198/107/257
f 192/106/260 200/108/256 201/108/259
f 200/108/258 192/106/248 194/102/245
f 191/106/260 192/106/260 201/108/259
f 191/106/242 201/108/261 187/102/233
f 201/108/261 198/107/262 187/102/233
f 198/107/262 186/101/234 187/102/233
f 175/94/217 189/104/238 176/97/218
f 184/99/237 181/98/263 176/97/218
f 181/98/263 177/96/219 176/97/218
f 173/94/251 174/95/224 179/97/223
f 208/109/264 212/110/265 218/111/266
f 214/112/267 208/109/264 218/111/266
f 213/110/268 210/109/269 216/112/270
f 219/111/271 213/110/268 216/112/270
f 210/109/272 208/109/272 214/112/273
f 216/112/274 210/109/272 214/112/273
f 212/110/265 209/113/275 215/114/276
f 218/111/266 212/110/265 215/114/276
f 209/113/277 211/113/277 217/114/278
f 215/114/279 209/113/277 217/114/278
f 211/113/280 213/110/268 219/111/271
f 217/114/281 211/113/280 219/111/271
f 214/112/267 218/111/266 224/115/282
f 220/116/283 214/112/267 224/115/282
f 219/111/271 216/112/270 222/116/284
f 225/115/285 219/111/271 222/116/284
f 216/112/274 214/112/273 220/116/286
f 222/116/287 216/112/274 220/116/286
f 218/111/266 215/114/276 221/117/288
f 224/115/282 218/111/266 221/117/288
f 215/114/279 217/114/278 223/117/289
f 221/117/290 215/114/279 223/117/289
f 217/114/281 219/111/271 225/115/285
f 223/117/291 217/114/281 225/115/285
f 220/116/283 224/115/282 230/118/292
f 226/119/293 220/116/283 230/118/292
f 225/115/285 222/116/284 228/119/294
f 231/118/295 225/115/285 228/119/294
f 222/116/287 220/116/286 226/119/296
f 228/119/297 222/116/287 226/119/296
f 224/115/282 221/117/288 227/120/298
f 230/118/292 224/115/282 227/120/298
f 221/117/290 223/117/289 229/120/299
f 227/120/299 221/117/290 229/120/299
f 223/117/291 225/115/285 231/118/295
f 229/120/300 223/117/291 231/118/295
f 204/121/301 207/122/302 231/118/295
f 228/119/294 204/121/301 231/118/295
f 202/121/303 204/121/303 228/119/297
f 226/119/296 202/121/303 228/119/297
f 205/123/304 229/120/300 231/118/295
f 207/122/302 205/123/304 231/118/295
f 203/123/305 227/120/299 229/120/299
f 205/123/305 203/123/305 229/120/299
f 203/123/306 206/122/307 230/118/292
f 227/120/298 203/123/306 230/118/292
f 206/122/307 202/121/308 226/119/293
f 230/118/292 206/122/307 226/119/293
f 205/123/309 207/122/309 206/122/309
f 203/123/309 205/123/309 206/122/309
f 207/122/309 204/121/309 202/121/309
f 206/122/309 207/122/309 202/121/309
f 232/124/310 234/125/310 233/126/310
f 234/125/310 235/127/310 233/126/310
f 235/127/310 236/128/310 237/129/310
f 233/126/310 235/127/310 237/129/310
f 243/130/311 239/131/311 238/132/311
f 239/131/312 240/133/312 238/132/312
f 238/132/313 240/133/314 241/134/315
f 242/135/313 238/132/313 241/134/315
f 242/135/311 243/130/311 238/132/311
f 245/136/316 244/137/317 243/130/318
f 244/137/317 239/131/318 243/130/318
f 242/135/319 241/134/319 243/130/319
f 245/136/320 243/130/319 241/134/319
f 248/138/321 244/137/317 245/136/316
f 246/139/320 245/136/320 241/134/319
f 246/139/320 247/140/320 245/136/320
f 247/140/321 248/138/321 245/136/316
f 249/141/322 248/138/322 247/140/322
f 249/141/312 240/133/312 248/138/312
f 248/138/312 240/133/312 244/137/312
f 240/133/314 249/141/323 246/139/323
f 246/139/322 249/141/322 247/140/322
f 241/134/315 240/133/314 246/139/323
f 240/133/312 239/131/312 244/137/312
o item_blade
v 26.590300 22.520599 11.862098
v 26.590300 22.520599 5.647598
v 33.175800 18.257101 13.730999
v 34.370899 19.927902 13.730998
v 27.751900 24.144600 11.862098
v 27.751900 24.144600 5.647598
v 34.370899 19.927900 3.778699
v 33.175800 18.257099 3.778699
v 39.761299 13.993600 5.647699
v 39.761299 13.993601 11.862199
v 40.990002 15.711200 5.647699
v 40.990002 15.711201 11.862199
v 0.000000 70.710701 -0.000005
v 70.710701 0.000000 0.000000
v 0.000000 55.656200 3.999996
v -55.656101 0.000000 4.000000
v -70.710701 0.000000 0.000000
v 0.000000 -55.656101 4.000004
v 0.000000 -70.710602 0.000005
v 55.656200 0.000000 4.000000
v 0.000000 70.710701 -0.000005
v 0.000000 55.656200 -4.000004
v 70.710701 0.000000 0.000000
v -55.656101 -0.000000 -4.000000
v -70.710701 0.000000 0.000000
v 0.000000 -55.656101 -3.999996
v 0.000000 -70.710602 0.000005
v 55.656200 -0.000000 -4.000000
v 0.000000 70.710701 -0.000005
v 70.710701 0.000000 0.000000
v 0.000000 55.656200 3.999996
v -55.656101 0.000000 4.000000
v -70.710701 0.000000 0.000000
v 0.000000 -55.656101 4.000004
v 0.000000 -70.710602 0.000005
v 55.656200 0.000000 4.000000
v 0.000000 70.710701 -0.000005
v 0.000000 55.656200 -4.000004
v 70.710701 0.000000 0.000000
v -55.656101 -0.000000 -4.000000
v -70.710701 0.000000 0.000000
v 0.000000 -55.656101 -3.999996
v 0.000000 -70.710602 0.000005
v 55.656200 -0.000000 -4.000000
v 0.000000 70.710701 -0.000005
v 70.710701 0.000000 0.000000
v 0.000000 55.656200 3.999996
v -55.656101 0.000000 4.000000
v -70.710701 0.000000 0.000000
v 0.000000 -55.656101 4.000004
v 0.000000 -70.710602 0.000005
v 55.656200 0.000000 4.000000
v 0.000000 70.710701 -0.000005
v 0.000000 55.656200 -4.000004
v 70.710701 0.000000 0.000000
v -55.656101 -0.000000 -4.000000
v -70.710701 0.000000 0.000000
v 0.000000 -55.656101 -3.999996
v 0.000000 -70.710602 0.000005
v 55.656200 -0.000000 -4.000000
v -47.864700 45.118301 12.412096
v -73.866402 80.239502 18.773893
v -73.866402 80.239502 12.412094
v -47.864601 45.118301 18.773895
v -47.002399 43.872002 18.773895
v -47.002300 43.872002 12.412097
v -55.445702 39.872898 10.585097
v -80.297302 75.789894 10.585094
v -54.583401 38.626598 10.585097
v -61.876499 35.423302 12.412097
v -86.728096 71.340302 12.412094
v -61.876499 35.423302 18.773897
v -86.728096 71.340302 18.773893
v -80.297203 75.789894 20.600895
v -55.445702 39.872799 20.600897
v -54.583401 38.626598 20.600897
v -61.014198 34.176998 18.773897
v -61.014198 34.176998 12.412097
v -46.573372 41.510929 14.797326
v -21.976330 -2.456677 14.654785
v -53.077000 37.054630 14.654782
v -15.567611 2.117404 14.797329
v -46.573372 41.510929 16.388672
v -15.567611 2.117404 16.388676
v -53.077000 37.054630 16.531219
v -21.976330 -2.456677 16.531221
v -59.580509 32.598572 15.593000
v -28.384825 -7.030636 15.593004
v 9.157693 -32.500862 14.654788
v 2.847971 -37.170773 15.593006
v 35.778366 -62.558830 15.593008
v 41.983711 -57.808475 14.654790
v 9.157696 -32.500980 16.531223
v 15.467295 -27.831295 16.388678
v 41.983711 -57.808475 16.531225
v 48.188705 -53.058338 16.388680
v 77.399132 -80.253258 16.531227
v 72.769806 -85.479446 15.593010
v 86.911247 -76.916367 16.388681
v 82.168945 -83.142754 15.593010
v 86.911140 -76.916359 14.797335
v 77.399132 -80.253258 14.654791
v 90.705818 -79.285316 15.593009
v 48.188705 -53.058338 14.797333
v 15.467295 -27.831295 14.797331
v -54.550121 38.596401 15.979269
v -47.691227 28.277649 28.908428
v -40.785458 35.024879 27.307016
v -37.567951 42.729218 22.670311
v -38.900909 49.326103 16.240637
v -44.427040 53.048027 9.740952
v -52.665653 52.897697 4.912987
v -61.409191 48.915138 3.050184
v -68.313042 42.167427 4.653041
v -71.531303 34.463902 9.288722
v -70.199417 27.866686 15.717939
v -64.672806 24.145720 22.217075
v -56.434402 24.297087 27.044138
v -64.210846 23.484308 21.444830
v -55.972130 23.634569 26.273039
v -47.228691 27.617044 28.135820
v -54.087673 37.935787 15.206699
v -52.203384 52.235126 4.141809
v -60.946651 48.254528 2.277581
v -67.852417 41.507298 3.878992
v -71.069832 33.803051 8.515711
v -40.324776 34.364769 26.532904
v -69.736885 27.206079 14.945332
v -37.106541 42.068352 21.897276
v -38.438377 48.665497 15.468027
v -43.965145 52.386524 8.968751
v -48.378101 43.891602 14.049597
v -45.475899 39.865200 17.136396
v -48.378201 43.891602 17.136396
v -45.475899 39.865200 14.049597
v -55.037899 39.283600 13.773597
v -52.135700 35.257099 13.773597
v -60.990002 35.165298 14.577897
v -60.990002 35.165298 16.608099
v -58.087700 31.138903 14.577898
v -58.087799 31.138903 16.608099
v -55.037899 39.283501 17.412395
v -52.135700 35.257099 17.412397
v 63.153561 47.790306 12.209182
v 34.212746 19.496675 7.762323
v 63.153561 47.790306 7.762321
v 34.212746 19.496675 12.209184
v 70.382164 44.590054 13.417123
v 70.382164 44.590054 6.554380
v 41.296284 16.155890 6.554382
v 77.610779 41.389881 7.762321
v 77.610779 41.389881 12.209183
v 48.379589 12.815185 7.762324
v 20.593576 -8.812969 7.762325
v 48.379589 12.815185 12.209185
v 20.593576 -8.812969 12.209187
v -8.458281 -27.518267 12.209188
v -15.235151 -23.959677 13.417129
v 13.660111 -5.355479 13.417127
v -22.011665 -20.401363 12.209188
v 41.296284 16.155891 13.417126
v 6.726769 -1.898071 12.209186
v -22.011665 -20.401363 7.762326
v 6.726769 -1.898071 7.762325
v 13.660111 -5.355480 6.554384
v -15.235151 -23.959679 6.554385
v -8.458281 -27.518267 7.762327
v -48.066902 -48.405964 7.762329
v -54.641850 -44.740494 6.554387
v -61.216793 -41.075096 7.762328
v -61.216793 -41.075096 12.209188
v -54.641850 -44.740494 13.417130
v -48.066902 -48.405964 12.209189
v -59.530998 -58.415699 11.466405
v -53.878399 -62.941700 12.939505
v -59.530998 -58.415699 6.043404
v -53.878399 -62.941700 4.570305
v -48.225800 -67.467796 11.466405
v -48.225800 -67.467796 6.043405
vn -0.8134 0.5818 -0.0000
vn -0.5435 -0.8394 -0.0000
vn -0.1887 0.1350 0.9727
vn 0.0644 -0.0461 0.9969
vn -0.0644 0.0461 0.9969
vn 0.0644 -0.0461 -0.9969
vn -0.0644 0.0461 -0.9969
vn -0.1887 0.1350 -0.9727
vn 0.5373 0.8434 -0.0000
vn 0.1887 -0.1350 -0.9727
vn 0.8133 -0.5818 -0.0000
vn 0.1887 -0.1350 0.9727
vn 0.2559 0.0853 0.9629
vn -0.0853 0.2559 0.9629
vn 0.0639 0.1919 0.9793
vn -0.1532 0.0510 0.9869
vn -0.2558 -0.0853 0.9629
vn -0.0639 -0.1919 0.9793
vn 0.0853 -0.2559 0.9629
vn 0.1531 -0.0510 0.9869
vn 0.0639 0.1919 -0.9793
vn -0.1531 0.0510 -0.9869
vn -0.0853 0.2559 -0.9629
vn 0.2559 0.0853 -0.9629
vn -0.2558 -0.0853 -0.9629
vn -0.0639 -0.1919 -0.9793
vn 0.0853 -0.2559 -0.9629
vn 0.1532 -0.0510 -0.9869
vn 0.8131 0.5821 -0.0000
vn 0.8037 0.5950 -0.0000
vn 0.1581 0.1131 -0.9809
vn 0.0149 0.0114 -0.9998
vn 0.1717 0.1226 -0.9775
vn 0.8224 0.5690 -0.0000
vn 0.8223 0.5690 -0.0000
vn 0.1599 0.1106 -0.9809
vn -0.0000 -0.0000 -1.0000
vn -0.1871 -0.1294 -0.9738
vn -0.0729 -0.0504 -0.9961
vn -0.8223 -0.5690 -0.0000
vn -0.5690 0.8223 -0.0000
vn -0.0638 -0.0442 0.9970
vn -0.1871 -0.1294 0.9738
vn -0.0099 -0.0056 0.9999
vn 0.1717 0.1226 0.9775
vn 0.0451 0.0312 0.9985
vn 0.1586 0.1124 0.9809
vn -0.8224 -0.5690 -0.0000
vn 0.1599 0.1106 0.9809
vn 0.0135 0.0123 -0.9998
vn -0.0205 -0.0185 -0.9996
vn 0.0142 0.0112 -0.9998
vn -0.0578 -0.0453 -0.9973
vn 0.7411 0.6714 -0.0000
vn 0.7858 0.6185 -0.0000
vn 0.7418 0.6706 -0.0000
vn 0.7417 0.6707 -0.0000
vn 0.0135 0.0123 0.9998
vn 0.0142 0.0112 0.9998
vn -0.0217 -0.0174 0.9996
vn -0.0545 -0.0493 0.9973
vn -0.0931 -0.0732 0.9930
vn -0.0887 -0.0794 0.9929
vn -0.0931 -0.0733 0.9930
vn -0.0884 -0.0798 -0.9929
vn -0.0931 -0.0733 -0.9930
vn -0.0345 -0.0381 -0.9987
vn -0.0780 -0.0940 -0.9925
vn -0.0807 -0.0904 0.9926
vn -0.0394 -0.0543 -0.9977
vn -0.0714 -0.1066 -0.9917
vn -0.0724 -0.1044 0.9919
vn -0.0329 -0.0402 0.9987
vn 0.0121 0.0142 0.9998
vn -0.0220 -0.0317 0.9993
vn 0.0025 -0.1002 0.9950
vn 0.0105 0.0156 0.9998
vn -0.0071 -0.1709 0.9853
vn 0.0740 -0.2001 0.9770
vn 0.0589 -0.1212 0.9909
vn 0.0025 -0.1002 -0.9950
vn 0.0589 -0.1212 -0.9909
vn 0.0740 -0.2001 -0.9770
vn 0.0861 -0.1905 -0.9779
vn -0.0071 -0.1709 -0.9853
vn 0.0861 -0.1905 0.9779
vn 0.5269 0.8499 -0.0000
vn 0.5264 0.8502 -0.0000
vn 0.5296 0.8483 -0.0000
vn 0.0107 0.0154 -0.9998
vn 0.5829 0.8126 -0.0000
vn 0.5536 0.8328 -0.0000
vn 0.6391 0.7691 -0.0000
vn 0.0121 0.0142 -0.9998
vn 0.6676 0.7445 -0.0000
vn -0.4162 0.5901 0.6918
vn -0.5806 -0.7567 0.3006
vn -0.4293 -0.7965 0.4258
vn -0.1283 -0.7890 0.6008
vn 0.0034 -0.7574 0.6530
vn 0.3298 -0.6110 0.7197
vn 0.4347 -0.5391 0.7213
vn 0.4162 -0.5901 -0.6918
vn 0.5810 0.7565 -0.3004
vn 0.4290 0.7965 -0.4261
vn 0.1288 0.7891 -0.6006
vn 0.7728 0.6301 -0.0763
vn -0.0042 0.7571 -0.6532
vn 0.8664 0.4892 0.1002
vn 0.9106 0.2603 0.3211
vn 0.8905 0.1027 0.4433
vn 0.7712 -0.1782 0.6111
vn -0.8664 -0.4893 -0.1001
vn -0.7727 -0.6301 0.0764
vn -0.9106 -0.2606 -0.3209
vn 0.6930 -0.2904 0.6598
vn -0.8904 -0.1024 -0.4436
vn -0.7715 0.1778 -0.6109
vn -0.4353 0.5387 -0.7213
vn -0.6925 0.2910 -0.6601
vn -0.3291 0.6113 -0.7197
vn 0.8112 0.5847 -0.0000
vn -0.0115 -0.0083 -0.9999
vn 0.0276 0.0199 -0.9994
vn -0.0506 -0.0365 -0.9980
vn -0.0896 -0.0646 -0.9939
vn -0.8112 -0.5847 -0.0000
vn 0.5690 -0.8223 -0.0000
vn 0.5690 -0.8223 0.0001
vn -0.0506 -0.0365 0.9981
vn -0.0896 -0.0646 0.9939
vn -0.0115 -0.0083 0.9999
vn 0.0276 0.0199 0.9994
vn -0.6434 0.7655 -0.0000
vn -0.6991 0.7151 -0.0000
vn -0.6718 0.7408 -0.0000
vn 0.4048 0.9144 -0.0000
vn -0.0370 0.0044 0.9993
vn -0.1135 0.1161 0.9867
vn -0.1110 0.1245 0.9860
vn 0.0217 -0.0252 -0.9994
vn 0.1135 -0.1161 -0.9867
vn 0.0161 -0.0238 -0.9996
vn -0.1135 0.1161 -0.9867
vn 0.6990 -0.7151 -0.0000
vn 0.6577 -0.7533 -0.0000
vn 0.1100 -0.1231 -0.9863
vn 0.1034 -0.1383 -0.9850
vn 0.5914 -0.8064 -0.0000
vn 0.5652 -0.8250 -0.0000
vn 0.5186 -0.8550 -0.0000
vn -0.0015 0.0014 1.0000
vn 0.0902 -0.1587 0.9832
vn 0.0989 -0.1427 0.9848
vn 0.0011 0.0014 1.0000
vn 0.1073 -0.1259 0.9862
vn -0.1024 0.1417 0.9846
vn -0.0942 0.1576 0.9830
vn 0.0012 0.0015 1.0000
vn -0.5187 0.8550 -0.0000
vn -0.4899 0.8718 -0.0000
vn -0.5652 0.8250 -0.0000
vn -0.5914 0.8064 -0.0000
vn -0.0044 -0.0050 -1.0000
vn -0.0977 0.1462 -0.9844
vn -0.1058 0.1298 -0.9859
vn -0.0036 -0.0031 -1.0000
vn -0.0893 0.1622 -0.9827
vn -0.0582 0.0861 -0.9946
vn 0.0951 -0.1540 -0.9835
vn 0.0877 -0.1663 -0.9822
vn -0.0877 0.1663 -0.9822
vn -0.4664 0.8846 -0.0000
vn -0.0877 0.1663 0.9822
vn 0.0416 -0.0089 0.9991
vn 0.0877 -0.1663 0.9822
vn 0.4665 -0.8845 -0.0000
vn 0.4900 -0.8717 -0.0000
vn 0.1135 -0.1161 0.9867
vn -0.6250 -0.7806 -0.0000
vt 0.638360 0.363281
vt 0.628906 0.392028
vt 0.682500 0.467499
vt 0.692226 0.437923
vt 0.736094 0.542969
vt 0.746094 0.512565
vt 0.976562 0.023438
vt 0.095226 0.374655
vt 0.095226 0.374655
vt 0.363281 0.482039
vt 0.055192 0.405964
vt 0.085714 0.371094
vt 0.085714 0.371094
vt 0.329321 0.508598
vt 0.295360 0.535156
vt 0.045679 0.402403
vt 0.021231 0.432522
vt 0.329321 0.508597
vt 0.055191 0.405964
vt 0.011719 0.428961
vt 0.151345 0.832089
vt 0.130777 0.840408
vt 0.053453 0.761719
vt 0.032586 0.769827
vt 0.011719 0.777935
vt 0.110210 0.848726
vt 0.229324 0.893967
vt 0.209069 0.902456
vt 0.333393 0.938984
vt 0.313470 0.947617
vt 0.229324 0.893967
vt 0.249578 0.885478
vt 0.445800 0.978816
vt 0.353316 0.930352
vt 0.430892 0.988281
vt 0.460942 0.983941
vt 0.476237 0.972677
vt 0.476236 0.972677
vt 0.488281 0.976880
vt 0.454238 0.375317
vt 0.498319 0.363281
vt 0.498320 0.453125
vt 0.542401 0.375317
vt 0.574672 0.408202
vt 0.586483 0.453125
vt 0.574672 0.498048
vt 0.542401 0.530933
vt 0.498319 0.542969
vt 0.454238 0.530933
vt 0.421968 0.498048
vt 0.410156 0.453125
vt 0.421968 0.408204
vt 0.425328 0.408204
vt 0.457599 0.375317
vt 0.501680 0.363281
vt 0.501680 0.453125
vt 0.501680 0.542969
vt 0.545762 0.530933
vt 0.578032 0.498048
vt 0.457598 0.530933
vt 0.425328 0.498048
vt 0.545762 0.375317
vt 0.413517 0.453125
vt 0.578032 0.408202
vt 0.589844 0.453125
vt 0.746094 0.420014
vt 0.724172 0.363281
vt 0.724171 0.363281
vt 0.673866 0.428209
vt 0.695788 0.484943
vt 0.628906 0.486236
vt 0.650829 0.542969
vt 0.650828 0.542969
vt 0.673866 0.428210
vt 0.339170 0.617919
vt 0.438130 0.574219
vt 0.463206 0.579277
vt 0.488281 0.584336
vt 0.363750 0.623195
vt 0.388328 0.628470
vt 0.293124 0.661814
vt 0.193447 0.690595
vt 0.169919 0.684984
vt 0.269059 0.656358
vt 0.244994 0.650903
vt 0.146392 0.679374
vt 0.034553 0.716881
vt 0.057387 0.722656
vt 0.011719 0.711106
vt 0.628906 0.363281
vt 0.687500 0.453124
vt 0.746094 0.542969
s 1
f 255/142/324 251/143/324 250/143/324
f 251/143/325 252/144/325 250/143/325
f 250/143/326 252/144/327 253/145/328
f 254/142/326 250/143/326 253/145/328
f 254/142/324 255/142/324 250/143/324
f 256/145/329 257/144/330 255/142/331
f 256/145/332 255/142/332 253/145/332
f 254/142/332 253/145/332 255/142/332
f 257/144/330 251/143/331 255/142/331
f 252/144/325 251/143/325 257/144/325
f 258/146/333 257/144/330 256/145/329
f 258/146/325 252/144/325 257/144/325
f 259/146/334 258/146/334 260/147/334
f 259/146/325 252/144/325 258/146/325
f 260/147/333 258/146/333 256/145/329
f 261/147/332 260/147/332 256/145/332
f 261/147/334 259/146/334 260/147/334
f 252/144/327 259/146/335 261/147/335
f 253/145/328 252/144/327 261/147/335
f 261/147/332 256/145/332 253/145/332
f 263/148/336 262/148/337 264/148/338
f 264/148/338 262/148/337 265/148/339
f 262/148/337 266/148/340 265/148/339
f 265/148/339 266/148/340 267/148/341
f 266/148/340 268/148/342 267/148/341
f 268/148/342 263/148/336 269/148/343
f 267/148/341 268/148/342 269/148/343
f 269/148/343 263/148/336 264/148/338
f 264/148/338 265/148/339 269/148/343
f 265/148/339 267/148/341 269/148/343
f 271/148/344 273/148/345 270/148/346
f 271/148/344 270/148/346 272/148/347
f 273/148/345 274/148/348 270/148/346
f 273/148/345 275/148/349 274/148/348
f 275/148/349 276/148/350 274/148/348
f 277/148/351 272/148/347 276/148/350
f 275/148/349 277/148/351 276/148/350
f 271/148/344 277/148/351 273/148/345
f 277/148/351 271/148/344 272/148/347
f 277/148/351 275/148/349 273/148/345
f 279/148/336 278/148/337 280/148/338
f 280/148/338 278/148/337 281/148/339
f 278/148/337 282/148/340 281/148/339
f 281/148/339 282/148/340 283/148/341
f 282/148/340 284/148/342 283/148/341
f 284/148/342 279/148/336 285/148/343
f 283/148/341 284/148/342 285/148/343
f 280/148/338 281/148/339 285/148/343
f 285/148/343 279/148/336 280/148/338
f 281/148/339 283/148/341 285/148/343
f 287/148/344 289/148/345 286/148/346
f 287/148/344 286/148/346 288/148/347
f 289/148/345 290/148/348 286/148/346
f 289/148/345 291/148/349 290/148/348
f 291/148/349 292/148/350 290/148/348
f 293/148/351 288/148/347 292/148/350
f 291/148/349 293/148/351 292/148/350
f 293/148/351 287/148/344 288/148/347
f 287/148/344 293/148/351 289/148/345
f 293/148/351 291/148/349 289/148/345
f 295/148/336 294/148/337 296/148/338
f 296/148/338 294/148/337 297/148/339
f 294/148/337 298/148/340 297/148/339
f 297/148/339 298/148/340 299/148/341
f 298/148/340 300/148/342 299/148/341
f 300/148/342 295/148/336 301/148/343
f 299/148/341 300/148/342 301/148/343
f 301/148/343 295/148/336 296/148/338
f 296/148/338 297/148/339 301/148/343
f 297/148/339 299/148/341 301/148/343
f 303/148/344 305/148/345 302/148/346
f 303/148/344 302/148/346 304/148/347
f 305/148/345 306/148/348 302/148/346
f 305/148/345 307/148/349 306/148/348
f 307/148/349 308/148/350 306/148/348
f 309/148/351 304/148/347 308/148/350
f 307/148/349 309/148/351 308/148/350
f 303/148/344 309/148/351 305/148/345
f 309/148/351 303/148/344 304/148/347
f 309/148/351 307/148/349 305/148/345
f 313/149/352 310/150/352 311/151/353
f 310/150/352 312/151/353 311/151/353
f 310/150/354 316/152/355 312/151/356
f 310/150/352 313/149/352 314/153/357
f 315/154/358 310/150/352 314/153/357
f 316/152/355 310/150/354 315/154/359
f 317/155/360 316/152/355 320/156/361
f 316/152/355 317/155/360 312/151/356
f 318/157/362 316/152/355 315/154/359
f 319/158/361 316/152/355 318/157/362
f 316/152/355 319/158/361 320/156/361
f 319/158/363 321/158/363 320/156/363
f 321/158/363 322/156/363 320/156/363
f 317/155/364 320/156/364 322/156/364
f 323/159/365 322/156/366 321/158/366
f 323/159/364 317/155/364 322/156/364
f 312/151/364 317/155/364 323/159/364
f 324/160/367 323/159/365 321/158/366
f 311/151/368 323/159/365 324/160/367
f 311/151/364 312/151/364 323/159/364
f 324/160/367 321/158/366 326/161/366
f 325/157/369 324/160/367 326/161/366
f 313/149/370 324/160/367 325/157/369
f 313/149/370 311/151/368 324/160/367
f 326/161/371 321/158/363 327/161/371
f 321/158/363 319/158/363 327/161/371
f 327/161/361 319/158/361 318/157/362
f 314/153/372 313/149/370 325/157/369
f 331/162/373 329/163/374 328/164/375
f 329/163/374 330/165/376 328/164/375
f 331/162/377 328/164/378 332/164/378
f 333/162/379 331/162/380 332/164/378
f 333/162/381 332/164/382 334/165/383
f 335/163/384 333/162/381 334/165/383
f 335/163/384 334/165/383 336/166/385
f 337/167/386 335/163/384 336/166/387
f 337/167/388 336/166/389 330/165/376
f 329/163/374 337/167/388 330/165/376
f 329/163/374 338/168/390 337/167/388
f 338/168/390 339/169/391 337/167/388
f 337/167/386 339/169/392 335/163/384
f 341/170/393 340/171/394 339/169/391
f 339/169/392 340/171/395 342/172/396
f 338/168/390 341/170/393 339/169/391
f 339/169/392 342/172/396 335/163/384
f 342/172/396 343/173/397 333/162/381
f 342/172/396 344/170/398 343/173/397
f 340/171/395 344/170/398 342/172/396
f 335/163/384 342/172/396 333/162/381
f 346/174/399 344/170/398 340/171/395
f 344/170/398 345/175/400 343/173/397
f 344/170/398 346/174/399 345/175/400
f 347/176/401 346/174/399 340/171/395
f 346/174/399 347/176/401 349/177/402
f 346/174/399 348/178/403 345/175/400
f 348/178/403 346/174/399 349/177/402
f 351/174/404 350/179/405 349/177/406
f 350/179/405 352/180/407 349/177/406
f 347/176/408 351/174/404 349/177/406
f 352/180/409 348/178/403 349/177/402
f 350/179/410 348/178/411 352/180/412
f 350/179/405 351/174/404 353/175/413
f 351/174/404 347/176/408 340/171/394
f 351/174/404 341/170/393 353/175/413
f 341/170/393 351/174/404 340/171/394
f 353/175/413 341/170/393 338/168/390
f 345/175/414 353/175/415 354/173/416
f 345/175/414 348/178/411 353/175/415
f 354/173/417 353/175/413 338/168/390
f 348/178/411 350/179/410 353/175/415
f 343/173/418 345/175/414 354/173/416
f 354/173/417 338/168/390 329/163/374
f 343/173/418 354/173/416 331/162/380
f 331/162/373 354/173/417 329/163/374
f 333/162/379 343/173/418 331/162/380
f 367/181/419 356/182/419 355/183/419
f 356/182/419 357/184/419 355/183/419
f 357/184/419 358/185/419 355/183/419
f 358/185/419 359/186/419 355/183/419
f 359/186/419 360/187/419 355/183/419
f 360/187/419 361/188/419 355/183/419
f 361/188/419 362/189/419 355/183/419
f 362/189/419 363/190/419 355/183/419
f 363/190/419 364/191/419 355/183/419
f 364/191/419 365/192/419 355/183/419
f 365/192/419 366/193/419 355/183/419
f 366/193/419 367/181/419 355/183/419
f 366/193/420 368/194/421 367/181/422
f 368/194/421 369/195/423 367/181/422
f 367/181/422 369/195/423 356/182/424
f 369/195/423 370/196/425 356/182/424
f 370/196/426 369/195/426 371/197/426
f 369/195/426 368/194/426 371/197/426
f 373/198/426 372/199/426 371/197/426
f 372/199/426 380/200/426 371/197/426
f 374/201/426 373/198/426 371/197/426
f 375/202/426 374/201/426 371/197/426
f 376/203/426 370/196/426 371/197/426
f 377/204/426 375/202/426 371/197/426
f 378/205/426 376/203/426 371/197/426
f 368/194/426 377/204/426 371/197/426
f 379/206/426 378/205/426 371/197/426
f 380/200/426 379/206/426 371/197/426
f 360/187/427 380/200/428 361/188/429
f 379/206/430 380/200/428 360/187/427
f 380/200/428 372/199/431 361/188/429
f 359/186/432 379/206/430 360/187/427
f 378/205/433 379/206/430 359/186/432
f 358/185/434 378/205/433 359/186/432
f 376/203/435 378/205/433 358/185/434
f 365/192/436 377/204/437 366/193/420
f 375/202/438 377/204/437 365/192/436
f 377/204/437 368/194/421 366/193/420
f 357/184/439 376/203/435 358/185/434
f 370/196/425 376/203/435 357/184/439
f 364/191/440 375/202/438 365/192/436
f 374/201/441 375/202/438 364/191/440
f 373/198/442 374/201/441 363/190/443
f 363/190/443 374/201/441 364/191/440
f 372/199/431 373/198/442 362/189/444
f 362/189/444 373/198/442 363/190/443
f 361/188/429 372/199/431 362/189/444
f 356/182/424 370/196/425 357/184/439
f 384/207/445 381/208/445 382/207/445
f 381/208/445 383/209/445 382/207/445
f 385/210/446 381/208/447 384/207/447
f 386/211/448 385/210/446 384/207/447
f 387/212/449 385/210/446 386/211/448
f 388/212/450 387/212/450 389/213/450
f 389/213/449 387/212/449 386/211/448
f 390/214/450 388/212/450 389/213/450
f 390/214/451 389/213/451 386/211/452
f 391/215/453 388/212/454 390/214/454
f 392/211/451 390/214/451 384/207/451
f 384/207/451 390/214/451 386/211/452
f 392/211/455 391/215/453 390/214/454
f 383/209/456 391/215/453 392/211/455
f 382/207/456 383/209/456 392/211/455
f 382/207/451 392/211/451 384/207/451
f 396/216/457 393/217/458 394/216/459
f 393/217/458 395/217/458 394/216/459
f 398/218/460 395/217/460 393/217/460
f 397/218/461 393/217/462 396/216/463
f 397/218/460 398/218/460 393/217/460
f 400/219/460 398/218/460 397/218/460
f 398/218/464 400/219/465 399/220/466
f 395/217/467 398/218/464 399/220/466
f 401/219/460 400/219/460 397/218/460
f 400/219/468 401/219/468 402/221/469
f 400/219/465 402/221/470 399/220/466
f 402/221/470 403/222/471 399/220/466
f 405/222/472 403/222/473 402/221/469
f 401/219/468 404/221/469 402/221/469
f 404/221/469 405/222/472 402/221/469
f 405/222/472 406/223/474 403/222/473
f 407/224/475 406/223/476 405/222/477
f 408/225/478 407/224/475 405/222/477
f 408/225/478 405/222/477 404/221/479
f 411/226/480 409/227/481 408/225/478
f 409/227/481 407/224/475 408/225/478
f 410/220/482 408/225/478 404/221/479
f 411/226/480 408/225/478 410/220/482
f 412/227/483 409/227/484 411/226/485
f 413/226/486 412/227/483 411/226/485
f 413/226/486 411/226/485 396/216/457
f 396/216/463 411/226/480 410/220/482
f 414/225/487 413/226/488 394/216/489
f 414/225/487 415/224/490 413/226/488
f 394/216/459 413/226/486 396/216/457
f 415/224/490 412/227/491 413/226/488
f 415/224/490 418/228/492 412/227/491
f 416/223/493 415/224/490 414/225/487
f 416/223/493 417/229/494 415/224/490
f 417/229/494 418/228/492 415/224/490
f 418/228/492 419/230/495 412/227/491
f 419/230/496 420/230/496 409/227/484
f 412/227/483 419/230/496 409/227/484
f 409/227/481 420/230/497 407/224/475
f 420/230/497 421/228/498 407/224/475
f 421/228/498 422/229/499 406/223/476
f 407/224/475 421/228/498 406/223/476
f 406/223/474 422/229/500 416/223/501
f 422/229/500 417/229/500 416/223/501
f 406/223/474 416/223/501 403/222/473
f 403/222/471 416/223/493 414/225/487
f 403/222/471 414/225/487 399/220/466
f 399/220/466 414/225/487 394/216/489
f 410/220/482 397/218/461 396/216/463
f 401/219/502 397/218/461 410/220/482
f 404/221/479 401/219/502 410/220/482
f 394/216/489 395/217/467 399/220/466
f 423/231/503 425/231/503 424/232/503
f 425/231/503 426/232/503 424/232/503
f 424/232/503 426/232/503 427/233/503
f 426/232/503 428/233/503 427/233/503
o item_damaged
v -29.153999 3.117801 15.308600
v -24.850100 -8.020700 15.206201
v -22.281900 0.038201 15.206200
v -32.607300 -7.718799 15.308601
v -29.153999 3.117701 16.452700
v -22.282000 0.038101 16.555099
v -32.607300 -7.718799 16.452700
v -24.850201 -8.020799 16.555099
v -17.092899 -8.322799 15.880601
v -15.409900 -3.041299 15.880600
v -11.276399 -28.765299 13.182502
v -57.942894 -69.502899 18.578806
v -57.942894 -69.502899 13.182506
v -11.276399 -28.765299 18.578802
v -9.622099 -27.394100 18.578802
v -9.622099 -27.394100 13.182502
v -4.612299 -36.805599 11.632703
v -52.289795 -76.323296 11.632706
v -2.957900 -35.434299 11.632703
v 1.040800 -43.625900 13.182503
v -46.636696 -83.143593 13.182507
v 1.040900 -43.625900 18.578804
v -46.636696 -83.143593 18.578806
v -52.289795 -76.323189 20.128605
v -4.612199 -36.805599 20.128601
v -2.957900 -35.434399 20.128601
v 2.695199 -42.254700 18.578804
v 2.695199 -42.254700 13.182503
v -5.951000 -27.676098 15.308602
v 42.820202 6.502701 15.206199
v -1.127600 -33.495300 15.206203
v 37.865799 12.200401 15.308599
v -5.950900 -27.676098 16.452702
v 37.865799 12.200401 16.452700
v -1.127700 -33.495300 16.555101
v 3.695500 -39.314400 15.880603
v 42.820202 6.502602 16.555099
v 47.774502 0.805101 15.880600
v -2.918277 -35.385124 16.428396
v 6.891103 -27.497980 29.562595
v -0.557678 -21.121767 27.921247
v -8.638982 -18.567478 23.200388
v -15.187535 -20.519522 16.664885
v -18.448439 -26.454689 10.066080
v -17.548061 -34.782730 5.172097
v -12.727499 -43.272205 3.294255
v -5.278484 -49.646469 4.937085
v 2.802233 -52.201576 9.656823
v 9.351036 -50.250629 16.191813
v 12.611023 -44.314930 22.790215
v 11.709635 -35.987270 27.683237
v 13.490475 -43.583759 21.695087
v 12.590099 -35.255642 26.589231
v -2.039765 -34.653320 15.332825
v 7.769621 -26.766256 28.467066
v 0.320515 -20.391951 26.824209
v -7.760180 -17.836845 22.104486
v -14.309017 -19.787798 15.569355
v -17.568962 -25.723532 8.970960
v -16.667624 -34.051098 4.078072
v -11.849062 -42.540398 2.198739
v -4.400284 -48.916607 3.840083
v 3.681097 -51.470901 8.560888
v 10.229569 -49.518925 15.096283
v -9.684300 -29.093998 14.571502
v -4.336400 -24.520699 17.189802
v -9.684300 -29.093998 17.189802
v -4.336400 -24.520597 14.571502
v -3.830000 -36.157200 14.337303
v 1.518000 -31.583899 14.337303
v 1.402200 -42.469700 15.019603
v 1.402200 -42.469700 16.741703
v 6.750000 -37.896400 15.019603
v 6.750100 -37.896400 16.741703
v -3.830000 -36.157200 17.424002
v 1.518000 -31.583899 17.424002
v -47.485100 74.001503 15.308595
v -51.311600 77.422798 15.880594
v -47.485100 74.001404 16.452694
v -42.651699 80.013397 15.880594
v -37.841202 75.811600 15.206194
v -8.435800 39.442101 15.308598
v -2.130400 43.504501 15.206197
v -8.435800 39.442101 16.452696
v 20.230400 19.849901 15.206198
v 12.789900 16.988201 15.308599
v 12.789900 16.988201 16.452698
v -2.130500 43.504601 16.555096
v 20.230400 19.849901 16.555098
v 27.671101 22.711702 15.880598
v 4.175200 47.567299 15.880596
v -37.841202 75.811600 16.555094
v -33.127602 80.726303 15.880594
v -55.002800 -4.131499 15.308600
v -48.492500 -0.307299 15.206200
v -62.818199 5.832301 15.308600
v -62.818199 5.832302 16.452700
v -55.002899 -4.131399 16.452700
v -56.299702 9.645901 16.555099
v -48.492401 -0.307499 16.555099
v -41.982101 3.516601 15.880600
v -49.781101 13.459501 15.880599
v -56.299599 9.645901 15.206199
v 19.032801 52.480801 15.308597
v 25.285299 48.283699 15.206196
v 25.472500 68.316498 15.308596
v 25.472401 68.316498 16.452694
v 19.032801 52.480801 16.452696
v 31.160200 62.730900 16.555096
v 25.285299 48.283699 16.555096
v 31.537800 44.086800 15.880597
v 36.848099 57.145100 15.880595
v 31.160200 62.730900 15.206195
v -39.834801 34.469398 15.308598
v -30.776600 22.921202 15.308599
v -32.939098 37.802299 15.206197
v -30.776600 22.921103 16.452698
v -39.834801 34.469398 16.452698
v -24.258101 26.734701 16.555098
v -32.939201 37.802299 16.555098
v -26.043501 41.135201 15.880597
v -17.739500 30.548302 15.880598
v -24.257999 26.734802 15.206198
v 65.920898 20.866402 16.452698
v 53.761101 30.418102 16.555098
v 61.289398 31.826202 16.452698
v 59.833099 16.049501 16.555098
v 65.920799 20.866402 15.308599
v 59.833000 16.049501 15.206199
v 61.289299 31.826302 15.308598
v 53.761101 30.418102 15.206198
v 53.745098 11.232301 15.880599
v 46.232800 29.010101 15.880598
v 0.000000 70.710701 -0.000005
v 70.710701 0.000000 0.000000
v 0.000000 55.656200 3.999996
v -55.656101 0.000000 4.000000
v -70.710701 0.000000 0.000000
v 0.000000 -55.656101 4.000004
v 0.000000 -70.710602 0.000005
v 55.656200 0.000000 4.000000
v 0.000000 70.710701 -0.000005
v 0.000000 55.656200 -4.000004
v 70.710701 0.000000 0.000000
v -55.656101 -0.000000 -4.000000
v -70.710701 0.000000 0.000000
v 0.000000 -55.656101 -3.999996
v 0.000000 -70.710602 0.000005
v 55.656200 -0.000000 -4.000000
v 0.000000 70.710701 -0.000005
v 70.710701 0.000000 0.000000
v 0.000000 55.656200 3.999996
v -55.656101 0.000000 4.000000
v -70.710701 0.000000 0.000000
v 0.000000 -55.656101 4.000004
v 0.000000 -70.710602 0.000005
v 55.656200 0.000000 4.000000
v 0.000000 70.710701 -0.000005
v 0.000000 55.656200 -4.000004
v 70.710701 0.000000 0.000000
v -55.656101 -0.000000 -4.000000
v -70.710701 0.000000 0.000000
v 0.000000 -55.656101 -3.999996
v 0.000000 -70.710602 0.000005
v 55.656200 -0.000000 -4.000000
v 0.000000 70.710701 -0.000005
v 70.710701 0.000000 0.000000
v 0.000000 55.656200 3.999996
v -55.656101 0.000000 4.000000
v -70.710701 0.000000 0.000000
v 0.000000 -55.656101 4.000004
v 0.000000 -70.710602 0.000005
v 55.656200 0.000000 4.000000
v 0.000000 70.710701 -0.000005
v 0.000000 55.656200 -4.000004
v 70.710701 0.000000 0.000000
v -55.656101 -0.000000 -4.000000
v -70.710701 0.000000 0.000000
v 0.000000 -55.656101 -3.999996
v 0.000000 -70.710602 0.000005
v 55.656200 -0.000000 -4.000000
vn -0.0130 0.0042 -0.9999
vn 0.0198 -0.0063 -0.9998
vn 0.0527 -0.0168 -0.9985
vn -0.9528 0.3036 -0.0000
vn 0.0199 -0.0063 0.9998
vn -0.0130 0.0042 0.9999
vn 0.0527 -0.0168 0.9985
vn 0.0855 -0.0273 0.9960
vn 0.0855 -0.0273 -0.9960
vn -0.6479 0.7617 -0.0000
vn -0.6576 0.7533 -0.0000
vn -0.0951 0.1118 -0.9892
vn -0.0092 0.0103 -0.9999
vn -0.1033 0.1217 -0.9872
vn -0.6382 0.7699 -0.0000
vn -0.0937 0.1130 -0.9892
vn -0.0000 -0.0000 -1.0000
vn 0.1100 -0.1327 -0.9850
vn 0.0425 -0.0513 -0.9978
vn 0.6381 -0.7699 -0.0000
vn -0.7699 -0.6381 -0.0000
vn -0.7699 -0.6382 -0.0000
vn 0.0371 -0.0448 0.9983
vn 0.1100 -0.1327 0.9850
vn -0.1033 0.1217 0.9872
vn 0.0050 -0.0071 1.0000
vn -0.0949 0.1120 0.9892
vn -0.0261 0.0315 0.9992
vn 0.6382 -0.7699 -0.0000
vn -0.0937 0.1130 0.9892
vn -0.0091 0.0100 -0.9999
vn 0.0139 -0.0153 -0.9998
vn 0.0369 -0.0406 -0.9985
vn -0.6731 0.7396 0.0001
vn -0.6731 0.7396 -0.0000
vn -0.0091 0.0100 0.9999
vn 0.0139 -0.0152 0.9998
vn 0.0369 -0.0406 0.9985
vn 0.0139 -0.0153 0.9998
vn 0.0599 -0.0658 0.9960
vn 0.0599 -0.0658 -0.9960
vn -0.5515 -0.4662 0.6918
vn 0.7930 -0.0452 0.6076
vn 0.7578 0.0590 0.6498
vn 0.5692 0.3959 0.7206
vn 0.8031 -0.5140 0.3015
vn 0.8300 -0.3550 0.4302
vn 0.5515 0.4662 -0.6918
vn 0.5080 0.4702 0.7217
vn 0.2164 0.7243 0.6547
vn 0.1201 0.7793 0.6150
vn -0.1783 0.8790 0.4423
vn -0.3416 0.8850 0.3163
vn -0.5417 0.8318 0.1208
vn -0.7096 0.6968 -0.1040
vn -0.8300 0.3542 -0.4308
vn -0.8029 0.5147 -0.3009
vn -0.7573 -0.0605 -0.6503
vn -0.7933 0.0464 -0.6070
vn -0.5070 -0.4714 -0.7217
vn -0.5701 -0.3947 -0.7205
vn -0.2177 -0.7234 -0.6552
vn -0.1190 -0.7799 -0.6145
vn 0.1775 -0.8788 -0.4429
vn 0.3423 -0.8849 -0.3157
vn 0.5418 -0.8318 -0.1207
vn 0.7097 -0.6968 0.1041
vn -0.6499 0.7600 -0.0000
vn 0.0069 -0.0081 -0.9999
vn -0.0166 0.0194 -0.9997
vn 0.0305 -0.0356 -0.9989
vn 0.0539 -0.0630 -0.9966
vn 0.6499 -0.7600 -0.0000
vn 0.7699 0.6381 -0.0000
vn 0.0069 -0.0081 0.9999
vn 0.0304 -0.0356 0.9989
vn 0.0539 -0.0630 0.9966
vn -0.0166 0.0194 0.9997
vn -0.0264 0.0786 -0.9966
vn -0.0372 0.1242 -0.9916
vn -0.0271 0.1305 -0.9911
vn -0.6646 -0.7472 -0.0001
vn -0.6642 -0.7475 -0.0000
vn -0.6665 -0.7455 -0.0001
vn -0.6847 -0.7288 -0.0000
vn 0.0109 0.0651 -0.9978
vn -0.0097 -0.0100 -0.9999
vn -0.7060 -0.7082 -0.0000
vn 0.0350 0.0348 -0.9988
vn 0.0154 0.0145 -0.9998
vn -0.7267 -0.6870 -0.0000
vn -0.0101 -0.0095 -0.9999
vn 0.0408 0.0386 0.9984
vn 0.0198 0.0204 0.9996
vn -0.0101 -0.0095 0.9999
vn -0.0097 -0.0100 0.9999
vn 0.0650 0.0668 0.9956
vn 0.0662 0.0626 0.9958
vn 0.0646 0.0683 -0.9956
vn 0.0273 0.1101 -0.9935
vn 0.0274 0.1101 0.9935
vn 0.0109 0.0651 0.9978
vn 0.0662 0.0626 -0.9958
vn -0.0272 0.1305 0.9911
vn -0.0264 0.0787 0.9966
vn -0.0372 0.1242 0.9916
vn 0.0164 0.0129 -0.9998
vn -0.0108 -0.0084 -0.9999
vn -0.7868 -0.6172 -0.0000
vn -0.0108 -0.0084 0.9999
vn 0.0164 0.0128 0.9998
vn 0.0436 0.0342 0.9985
vn 0.0706 0.0554 0.9960
vn 0.0706 0.0554 -0.9960
vn 0.0435 0.0341 -0.9985
vn 0.0196 -0.0080 -0.9998
vn -0.0129 0.0052 -0.9999
vn -0.9263 0.3767 -0.0001
vn -0.9263 0.3767 -0.0000
vn -0.0129 0.0052 0.9999
vn 0.0197 -0.0080 0.9998
vn 0.0520 -0.0212 0.9984
vn 0.0844 -0.0343 0.9958
vn 0.0844 -0.0343 -0.9958
vn 0.0520 -0.0212 -0.9984
vn -0.7868 -0.6172 -0.0001
vn 0.0164 0.0129 0.9998
vn 0.0435 0.0342 -0.9985
vn -0.0125 -0.0472 0.9988
vn 0.0126 0.0053 0.9999
vn -0.0572 0.0262 0.9980
vn -0.0351 -0.0148 0.9993
vn 0.9211 0.3893 -0.0001
vn 0.0126 0.0053 -0.9999
vn -0.0192 -0.0081 -0.9998
vn 0.9211 0.3893 -0.0000
vn -0.0510 -0.0215 -0.9985
vn -0.9211 -0.3892 -0.0001
vn -0.9211 -0.3892 -0.0000
vn 0.2559 0.0853 0.9629
vn -0.0853 0.2559 0.9629
vn 0.0639 0.1919 0.9793
vn -0.1532 0.0510 0.9869
vn -0.2558 -0.0853 0.9629
vn -0.0639 -0.1919 0.9793
vn 0.0853 -0.2559 0.9629
vn 0.1531 -0.0510 0.9869
vn 0.0639 0.1919 -0.9793
vn -0.1531 0.0510 -0.9869
vn -0.0853 0.2559 -0.9629
vn 0.2559 0.0853 -0.9629
vn -0.2558 -0.0853 -0.9629
vn -0.0639 -0.1919 -0.9793
vn 0.0853 -0.2559 -0.9629
vn 0.1532 -0.0510 -0.9869
vt 0.011719 0.976320
vt 0.107414 0.761719
vt 0.226681 0.982299
vt 0.297849 0.822705
vt 0.107414 0.761721
vt 0.297846 0.822707
vt 0.226678 0.982301
vt 0.441643 0.988281
vt 0.488281 0.883690
vt 0.282278 0.375129
vt 0.011719 0.495014
vt 0.320914 0.398790
vt 0.291869 0.371094
vt 0.044494 0.515085
vt 0.077269 0.535156
vt 0.330506 0.394755
vt 0.353690 0.418862
vt 0.353690 0.418862
vt 0.044494 0.515085
vt 0.320915 0.398790
vt 0.330506 0.394755
vt 0.363281 0.414826
vt 0.400388 0.761719
vt 0.444335 0.786777
vt 0.011719 0.937096
vt 0.054504 0.962689
vt 0.011720 0.937096
vt 0.054503 0.962689
vt 0.444335 0.786778
vt 0.097286 0.988281
vt 0.488281 0.811835
vt 0.453830 0.413585
vt 0.497504 0.456713
vt 0.541178 0.499841
vt 0.573150 0.531413
vt 0.584852 0.542969
vt 0.497504 0.456713
vt 0.421859 0.382013
vt 0.410156 0.370457
vt 0.458822 0.406410
vt 0.426850 0.374837
vt 0.502496 0.449537
vt 0.502496 0.449537
vt 0.546170 0.492665
vt 0.578141 0.524238
vt 0.589844 0.535793
vt 0.578141 0.524237
vt 0.415148 0.363281
vt 0.746094 0.484497
vt 0.716235 0.542969
vt 0.746093 0.484497
vt 0.670120 0.478960
vt 0.699978 0.420487
vt 0.628906 0.421753
vt 0.658765 0.363282
vt 0.658765 0.363281
vt 0.034807 0.785623
vt 0.011719 0.773461
vt 0.063970 0.764253
vt 0.034807 0.785623
vt 0.270421 0.908467
vt 0.092996 0.779188
vt 0.308466 0.894027
vt 0.443386 0.978109
vt 0.398492 0.988281
vt 0.308466 0.894026
vt 0.346513 0.879585
vt 0.488281 0.967937
vt 0.121437 0.761719
vt 0.339376 0.939028
vt 0.190472 0.988281
vt 0.011719 0.859953
vt 0.190470 0.988280
vt 0.160810 0.810836
vt 0.339378 0.939030
vt 0.488281 0.889778
vt 0.309903 0.761719
vt 0.160812 0.810836
vt 0.094266 0.908766
vt 0.176816 0.988281
vt 0.488281 0.906386
vt 0.488281 0.906387
vt 0.378421 0.834053
vt 0.011719 0.829251
vt 0.268556 0.761719
vt 0.011719 0.844634
vt 0.207091 0.988280
vt 0.207091 0.988281
vt 0.160449 0.803176
vt 0.347685 0.940844
vt 0.160446 0.803176
vt 0.488281 0.893408
vt 0.309176 0.761719
vt 0.347687 0.940843
vt 0.123193 0.831775
vt 0.234660 0.761719
vt 0.455694 0.901649
vt 0.488279 0.815016
vt 0.234660 0.761720
vt 0.123193 0.831776
vt 0.488281 0.815017
vt 0.011719 0.901833
vt 0.423112 0.988281
vt 0.976562 0.023438
s 1
f 432/234/504 429/235/504 430/236/505
f 429/235/504 431/237/506 430/236/505
f 433/238/507 429/235/507 432/234/507
f 434/239/508 433/238/509 435/234/509
f 435/234/507 433/238/507 432/234/507
f 436/240/510 434/239/508 435/234/509
f 437/241/511 438/242/511 436/240/510
f 438/242/511 434/239/508 436/240/510
f 431/237/506 438/242/512 437/241/512
f 430/236/505 431/237/506 437/241/512
f 442/243/513 439/243/513 440/244/514
f 439/243/513 441/244/514 440/244/514
f 439/243/515 445/245/516 441/244/517
f 439/243/513 442/243/513 443/246/518
f 444/246/518 439/243/513 443/246/518
f 445/245/516 439/243/515 444/246/519
f 446/247/520 445/245/516 449/248/521
f 445/245/516 446/247/520 441/244/517
f 447/249/522 445/245/516 444/246/519
f 448/250/521 445/245/516 447/249/522
f 445/245/516 448/250/521 449/248/521
f 448/250/523 450/251/523 449/248/523
f 450/251/523 451/248/523 449/248/523
f 446/247/524 449/248/525 451/248/524
f 452/252/526 451/248/527 450/251/527
f 452/252/524 446/247/524 451/248/524
f 440/244/528 452/252/526 453/253/529
f 440/244/525 441/244/524 452/252/524
f 441/244/524 446/247/524 452/252/524
f 453/253/529 452/252/526 450/251/527
f 442/243/530 440/244/528 453/253/529
f 442/243/530 453/253/529 454/254/531
f 453/253/529 450/251/527 455/255/527
f 454/254/531 453/253/529 455/255/527
f 455/255/532 450/251/523 456/255/523
f 450/251/523 448/250/523 456/255/523
f 456/255/521 448/250/521 447/249/522
f 443/246/533 442/243/530 454/254/531
f 460/256/534 458/257/535 457/258/534
f 458/257/535 459/259/536 457/258/534
f 460/256/537 457/258/537 461/260/537
f 462/256/538 460/256/538 461/260/538
f 462/256/539 461/260/539 463/261/540
f 465/262/541 463/261/542 464/263/543
f 465/262/541 462/256/539 463/261/542
f 466/264/543 465/262/541 464/263/543
f 466/264/544 464/263/544 459/259/536
f 458/257/535 466/264/544 459/259/536
f 479/265/545 468/266/545 467/266/545
f 468/266/545 469/267/545 467/266/545
f 469/267/545 470/268/545 467/266/545
f 470/268/545 471/269/545 467/266/545
f 471/269/545 472/268/545 467/266/545
f 472/268/545 473/267/545 467/266/545
f 473/267/545 474/270/545 467/266/545
f 474/270/545 475/265/545 467/266/545
f 475/265/545 476/271/545 467/266/545
f 476/271/545 477/272/545 467/266/545
f 477/272/545 478/271/545 467/266/545
f 478/271/545 479/265/545 467/266/545
f 479/265/546 481/273/547 468/266/548
f 478/271/549 480/274/550 479/265/546
f 480/274/550 481/273/547 479/265/546
f 483/275/551 481/273/551 482/276/551
f 481/273/551 480/274/551 482/276/551
f 481/273/547 483/275/552 468/266/548
f 468/266/548 483/275/552 469/267/553
f 483/275/552 484/277/554 469/267/553
f 484/277/551 483/275/551 482/276/551
f 469/267/553 484/277/554 470/268/555
f 484/277/554 485/278/556 470/268/555
f 485/278/551 484/277/551 482/276/551
f 470/268/555 485/278/556 471/269/557
f 485/278/556 486/279/558 471/269/557
f 486/279/551 485/278/551 482/276/551
f 487/280/551 486/279/551 482/276/551
f 486/279/558 487/280/559 472/268/560
f 471/269/557 486/279/558 472/268/560
f 488/277/551 487/280/551 482/276/551
f 487/280/559 488/277/561 473/267/562
f 472/268/560 487/280/559 473/267/562
f 489/276/551 488/277/551 482/276/551
f 488/277/561 489/276/563 474/270/564
f 473/267/562 488/277/561 474/270/564
f 474/270/564 489/276/563 475/265/565
f 489/276/563 490/273/566 475/265/565
f 490/273/551 489/276/551 482/276/551
f 475/265/565 490/273/566 476/271/567
f 490/273/566 491/274/568 476/271/567
f 491/274/551 490/273/551 482/276/551
f 476/271/567 491/274/568 477/272/569
f 491/274/568 492/281/570 477/272/569
f 492/281/551 491/274/551 482/276/551
f 477/272/569 492/281/570 478/271/549
f 492/281/570 480/274/550 478/271/549
f 480/274/551 492/281/551 482/276/551
f 496/282/571 493/283/571 494/284/571
f 493/283/571 495/283/571 494/284/571
f 497/285/572 493/283/573 496/282/573
f 498/286/574 497/285/572 496/282/573
f 499/287/575 497/285/572 498/286/574
f 500/287/576 499/287/576 501/288/576
f 501/288/575 499/287/575 498/286/574
f 502/289/576 500/287/576 501/288/576
f 502/289/577 501/288/577 498/286/577
f 504/286/578 503/285/579 502/289/580
f 503/285/579 500/287/580 502/289/580
f 504/286/577 502/289/577 496/282/577
f 496/282/577 502/289/577 498/286/577
f 494/284/577 504/286/577 496/282/577
f 494/284/581 495/283/581 504/286/578
f 495/283/581 503/285/579 504/286/578
f 505/290/582 506/291/583 508/292/584
f 505/290/585 507/293/586 506/291/587
f 507/293/586 505/290/585 510/294/588
f 509/295/589 505/290/582 508/292/584
f 505/290/582 509/295/589 510/294/590
f 512/294/591 507/293/586 510/294/588
f 509/295/589 511/296/592 510/294/590
f 510/294/590 511/296/592 513/297/593
f 512/294/591 510/294/588 514/298/594
f 514/298/595 510/294/590 513/297/593
f 515/298/594 512/294/591 514/298/594
f 517/297/596 516/299/597 515/298/598
f 516/299/597 512/294/599 515/298/598
f 519/300/600 516/299/597 517/297/596
f 518/301/601 519/300/600 517/297/596
f 511/296/592 509/295/589 519/300/602
f 509/295/589 521/302/603 519/300/602
f 521/302/604 520/295/605 519/300/600
f 520/295/605 516/299/597 519/300/600
f 511/296/592 519/300/602 518/301/606
f 520/295/605 521/302/604 508/292/607
f 521/302/603 509/295/589 508/292/584
f 520/295/605 507/293/608 512/294/599
f 507/293/608 520/295/605 508/292/607
f 516/299/597 520/295/605 512/294/599
f 513/297/593 511/296/592 518/301/606
f 506/291/609 507/293/608 508/292/607
f 523/303/610 522/304/611 524/305/611
f 524/305/612 522/304/612 525/305/612
f 522/304/612 526/306/612 525/305/612
f 525/305/613 526/306/613 527/307/614
f 526/306/613 528/308/615 527/307/614
f 528/308/615 529/309/616 530/310/616
f 527/307/614 528/308/615 530/310/616
f 530/310/617 529/309/617 531/311/618
f 529/309/617 523/303/610 531/311/618
f 531/311/618 523/303/610 524/305/611
f 533/312/619 532/313/620 534/314/620
f 534/314/621 532/313/622 535/315/621
f 532/313/622 536/313/622 535/315/621
f 535/315/623 536/313/623 537/316/624
f 536/313/623 538/312/625 537/316/624
f 538/312/625 539/317/626 540/318/626
f 537/316/624 538/312/625 540/318/626
f 540/318/627 539/317/627 541/316/628
f 539/317/627 533/312/619 541/316/628
f 541/316/628 533/312/619 534/314/620
f 542/319/629 543/320/629 545/321/629
f 543/320/611 542/319/611 544/322/610
f 546/319/612 542/319/612 545/321/612
f 545/321/613 547/323/630 546/319/613
f 547/323/630 548/324/615 546/319/613
f 550/325/616 549/326/616 548/324/615
f 547/323/630 550/325/616 548/324/615
f 550/325/617 551/327/631 549/326/617
f 551/327/618 543/320/611 544/322/610
f 551/327/618 544/322/610 549/326/617
f 555/328/632 552/329/633 553/330/634
f 552/329/633 554/331/633 553/330/635
f 554/331/636 552/329/636 556/332/636
f 556/332/637 557/333/638 558/334/637
f 558/334/639 554/331/639 556/332/639
f 557/333/638 559/330/640 558/334/637
f 557/333/638 560/335/641 559/330/640
f 560/335/641 561/336/642 559/330/640
f 560/335/641 555/328/632 561/336/642
f 555/328/632 553/330/634 561/336/642
f 563/337/643 562/337/644 564/337/645
f 564/337/645 562/337/644 565/337/646
f 562/337/644 566/337/647 565/337/646
f 565/337/646 566/337/647 567/337/648
f 566/337/647 568/337/649 567/337/648
f 568/337/649 563/337/643 569/337/650
f 567/337/648 568/337/649 569/337/650
f 569/337/650 563/337/643 564/337/645
f 564/337/645 565/337/646 569/337/650
f 565/337/646 567/337/648 569/337/650
f 571/337/651 573/337/652 570/337/653
f 571/337/651 570/337/653 572/337/654
f 573/337/652 574/337/655 570/337/653
f 573/337/652 575/337/656 574/337/655
f 575/337/656 576/337/657 574/337/655
f 577/337/658 572/337/654 576/337/657
f 575/337/656 577/337/658 576/337/657
f 571/337/651 577/337/658 573/337/652
f 577/337/658 571/337/651 572/337/654
f 577/337/658 575/337/656 573/337/652
f 579/337/643 578/337/644 580/337/645
f 580/337/645 578/337/644 581/337/646
f 578/337/644 582/337/647 581/337/646
f 581/337/646 582/337/647 583/337/648
f 582/337/647 584/337/649 583/337/648
f 584/337/649 579/337/643 585/337/650
f 583/337/648 584/337/649 585/337/650
f 580/337/645 581/337/646 585/337/650
f 585/337/650 579/337/643 580/337/645
f 581/337/646 583/337/648 585/337/650
f 587/337/651 589/337/652 586/337/653
f 587/337/651 586/337/653 588/337/654
f 589/337/652 590/337/655 586/337/653
f 589/337/652 591/337/656 590/337/655
f 591/337/656 592/337/657 590/337/655
f 593/337/658 588/337/654 592/337/657
f 591/337/656 593/337/658 592/337/657
f 593/337/658 587/337/651 588/337/654
f 587/337/651 593/337/658 589/337/652
f 593/337/658 591/337/656 589/337/652
f 595/337/643 594/337/644 596/337/645
f 596/337/645 594/337/644 597/337/646
f 594/337/644 598/337/647 597/337/646
f 597/337/646 598/337/647 599/337/648
f 598/337/647 600/337/649 599/337/648
f 600/337/649 595/337/643 601/337/650
f 599/337/648 600/337/649 601/337/650
f 601/337/650 595/337/643 596/337/645
f 596/337/645 597/337/646 601/337/650
f 597/337/646 599/337/648 601/337/650
f 603/337/651 605/337/652 602/337/653
f 603/337/651 602/337/653 604/337/654
f 605/337/652 606/337/655 602/337/653
f 605/337/652 607/337/656 606/337/655
f 607/337/656 608/337/657 606/337/655
f 609/337/658 604/337/654 608/337/657
f 607/337/656 609/337/658 608/337/657
f 603/337/651 609/337/658 605/337/652
f 609/337/658 603/337/651 604/337/654
f 609/337/658 607/337/656 605/337/652
o effect
v -35.695740 -2.420115 -2.462378
v -122.345566 -6.219709 2.726911
v -35.695740 -2.420115 2.462378
v -122.345566 -6.219709 -2.726910
v -122.654724 -0.007110 -4.570762
v -35.151409 3.498263 -3.777248
v -35.151409 3.498263 3.777248
v -122.654724 -0.007109 4.570762
v -35.375584 9.399800 2.462377
v -35.375584 9.399800 -2.462379
v -122.963997 6.205488 2.726910
v -194.046875 0.503583 2.726910
v -122.963997 6.205488 -2.726911
v -194.046875 0.503583 -2.726910
v -260.255157 -7.134948 -2.726910
v -259.062134 -13.261816 -4.570761
v -193.281174 -5.672647 -4.570762
v -192.515762 -11.848800 -2.726909
v -257.869354 -19.388609 -2.726909
v -338.324707 -31.867943 -2.640480
v -338.324707 -31.867943 2.640484
v -257.869354 -19.388609 2.726912
v -259.062134 -13.261816 4.570763
v -192.515762 -11.848800 2.726911
v -193.281174 -5.672646 4.570763
v -260.255157 -7.134948 2.726911
v -341.683563 -19.550928 -2.640481
v -341.683563 -19.550928 2.640483
v -340.408813 -25.779331 4.050474
v -340.408813 -25.779331 -4.050470
v -35.629086 -2.080051 -1.933396
v -35.287670 8.242885 -1.933397
v -35.629086 -2.080050 1.933396
v -35.287670 8.242885 1.933395
v -35.443645 3.526927 -2.983816
v -35.443645 3.526927 2.983816
v -337.822968 -31.110050 -1.933394
v -340.634460 -20.888947 -1.933394
v -337.822968 -31.110050 1.933398
v -340.634460 -20.888947 1.933398
v -339.228668 -25.999498 -2.983814
v -339.228668 -25.999498 2.983818
v -258.043762 -18.744097 -1.933395
v -260.031769 -8.396205 -1.933395
v -258.043762 -18.744097 1.933397
v -260.031769 -8.396205 1.933397
v -259.037659 -13.570231 -2.983815
v -259.037659 -13.570231 2.983817
v -192.621384 -11.105332 -1.933395
v -193.895554 -0.674194 -1.933396
v -192.621384 -11.105332 1.933397
v -193.895554 -0.674194 1.933396
v -193.258392 -5.889801 -2.983815
v -193.258392 -5.889801 2.983816
v -122.384674 -5.373787 -1.933396
v -122.892654 5.119959 -1.933396
v -122.384674 -5.373787 1.933396
v -122.892654 5.119959 1.933396
v -122.638611 -0.126912 -2.983816
v -122.638611 -0.126912 2.983816
v -337.822968 -31.110050 -1.933394
v -339.228668 -25.999498 -2.983814
v -337.822968 -31.110050 1.933398
v -339.228668 -25.999498 2.983818
v -340.634460 -20.888947 1.933398
v -340.634460 -20.888947 -1.933394
v -103.135185 -6.017891 -2.215558
v -103.135185 -6.017891 2.215640
v -102.923439 -0.386859 -3.548222
v -98.744560 -0.146016 -3.548222
v -99.073532 -5.783859 -2.215558
v -99.073532 -5.783859 2.215640
v -102.923439 -0.386859 3.548222
v -98.744560 -0.146015 3.548222
v -98.415611 5.491827 -2.215640
v -98.415611 5.491827 2.215558
v -102.711578 5.244261 2.215558
v -102.711578 5.244261 -2.215640
vn 0.0704 -0.9975 -0.0000
vn 0.0438 -0.9990 -0.0000
vn 0.0533 -0.9986 -0.0000
vn 0.9991 -0.0423 -0.0000
vn 0.9958 -0.0916 -0.0000
vn 0.0150 -0.2499 -0.9681
vn 0.0191 -0.2836 -0.9588
vn 0.0099 -0.0431 -0.9990
vn 0.0086 0.0060 -0.9999
vn 0.9999 -0.0115 -0.0000
vn 0.0086 0.0060 0.9999
vn -0.0042 0.2496 0.9683
vn 0.0004 0.0402 0.9992
vn 0.0150 -0.2499 0.9681
vn 0.9993 0.0380 -0.0000
vn -0.0364 0.9993 -0.0000
vn -0.0582 0.9983 -0.0000
vn -0.0151 0.2838 0.9588
vn -0.0255 0.2830 0.9588
vn -0.0891 0.9960 -0.0000
vn -0.1055 0.9944 -0.0000
vn -0.1242 0.9923 -0.0000
vn -0.0088 0.0394 -0.9992
vn -0.0383 0.2811 -0.9589
vn -0.0301 0.2826 -0.9588
vn 0.0026 -0.0011 -1.0000
vn -0.0186 0.2836 -0.9588
vn 0.0252 -0.2830 -0.9588
vn 0.0351 -0.2816 -0.9589
vn 0.1533 -0.9882 -0.0000
vn 0.1432 -0.9897 -0.0000
vn 0.0364 -0.2470 -0.9683
vn 0.1248 -0.9922 -0.0000
vn 0.1055 -0.9944 -0.0000
vn 0.0052 -0.0434 0.9990
vn 0.0373 -0.2813 0.9589
vn 0.0299 -0.2826 0.9588
vn 0.0364 -0.2470 0.9683
vn 0.0891 -0.9960 -0.0000
vn -0.0023 -0.0015 1.0000
vn 0.0208 -0.2835 0.9588
vn -0.0357 0.2815 0.9589
vn -0.1412 0.9900 -0.0000
vn -0.1507 0.9886 -0.0000
vn -0.0410 0.2455 0.9685
vn -0.9688 -0.2479 -0.0000
vn -0.9797 -0.2005 -0.0000
vn -0.0077 0.0110 0.9999
vn -0.9607 -0.2776 -0.0000
vn -0.9461 -0.3238 -0.0000
vn -0.0077 0.0111 -0.9999
vn -0.0410 0.2455 -0.9685
vn -0.0042 0.2496 -0.9683
vn 0.0300 -0.1933 -0.9807
vn -0.0173 0.0754 -0.9970
vn 0.0019 -0.0007 -1.0000
vn 0.0246 -0.1943 -0.9806
vn 0.0146 -0.0536 0.9985
vn 0.0300 -0.1933 0.9807
vn 0.0280 -0.1938 0.9806
vn -0.0015 -0.0012 1.0000
vn 0.1532 -0.9882 -0.0000
vn 0.1434 -0.9897 -0.0000
vn 0.1257 -0.9921 -0.0000
vn -0.0300 0.1933 -0.9807
vn -0.0282 0.1938 -0.9806
vn -0.1532 0.9882 -0.0000
vn -0.1434 0.9897 -0.0000
vn -0.1258 0.9921 -0.0000
vn -0.0300 0.1933 0.9807
vn -0.0248 0.1942 0.9806
vn 0.0017 -0.0008 -1.0000
vn 0.0178 -0.1953 -0.9806
vn 0.0209 -0.1950 0.9806
vn -0.0015 -0.0010 1.0000
vn 0.1069 -0.9943 -0.0000
vn 0.0904 -0.9959 -0.0000
vn -0.0210 0.1950 -0.9806
vn -0.1068 0.9943 -0.0000
vn -0.0905 0.9959 -0.0000
vn -0.0178 0.1953 0.9806
vn 0.0019 0.0026 -1.0000
vn 0.0098 -0.1921 -0.9813
vn 0.0138 -0.1956 0.9806
vn -0.0024 0.0321 0.9995
vn 0.0700 -0.9975 -0.0000
vn 0.0493 -0.9988 -0.0000
vn -0.0135 0.1956 -0.9806
vn -0.0585 0.9983 -0.0000
vn -0.0114 0.1958 0.9806
vn 0.0074 -0.1900 0.9818
vn -0.0011 0.0232 0.9997
vn 0.0379 -0.9993 -0.0000
vn -0.0083 0.2071 0.9783
vn -0.0356 0.9994 -0.0000
vn -0.0083 0.2071 -0.9783
vn -0.0018 -0.0490 -0.9988
vn 0.0070 -0.1844 -0.9828
vn 0.9995 -0.0331 -0.0000
vn -0.9642 -0.2652 -0.0000
vn 0.0575 -0.9983 -0.0000
vn -0.9993 0.0376 -0.0000
vn 0.0133 -0.2308 -0.9729
vn 0.0039 0.0669 -0.9978
vn -0.0035 -0.0661 -0.9978
vn 0.0012 0.0916 0.9958
vn -0.0021 -0.0907 0.9959
vn 0.0133 -0.2307 0.9729
vn 0.9983 -0.0583 -0.0000
vn 0.9983 -0.0582 -0.0000
vn -0.0133 0.2308 0.9729
vn -0.0575 0.9983 -0.0000
vn -0.0133 0.2307 -0.9729
vt 0.352875 0.633003
vt 0.487720 0.624855
vt 0.488281 0.599537
vt 0.352092 0.606343
vt 0.487645 0.574219
vt 0.351308 0.579684
vt 0.240814 0.597448
vt 0.138009 0.623971
vt 0.140166 0.650346
vt 0.242306 0.623994
vt 0.243799 0.650540
vt 0.142322 0.676721
vt 0.017551 0.722656
vt 0.011719 0.669544
vt 0.014008 0.696362
vt 0.016650 0.722656
vt 0.014184 0.699027
vt 0.139093 0.650501
vt 0.140917 0.674377
vt 0.011719 0.675397
vt 0.137269 0.626624
vt 0.241684 0.622251
vt 0.242951 0.646281
vt 0.240416 0.598221
vt 0.351952 0.603328
vt 0.352622 0.627461
vt 0.351283 0.579196
vt 0.488281 0.621609
vt 0.488281 0.595868
vt 0.488281 0.574219
vt 0.628906 0.511340
vt 0.628906 0.394910
vt 0.687500 0.542969
vt 0.687500 0.363281
vt 0.746094 0.394910
vt 0.746094 0.511340
vt 0.629684 0.397023
vt 0.628906 0.397023
vt 0.628906 0.509225
vt 0.687088 0.542969
vt 0.687889 0.542969
vt 0.629684 0.509225
vt 0.687889 0.363281
vt 0.687088 0.363281
vt 0.745271 0.397025
vt 0.746094 0.509227
vt 0.746094 0.397025
vt 0.745271 0.509227
s 1
f 613/338/659 610/339/660 611/338/661
f 610/339/660 612/339/660 611/338/661
f 616/340/662 612/339/663 610/339/663
f 610/339/664 613/338/665 614/341/666
f 615/340/667 610/339/664 614/341/666
f 615/340/668 616/340/662 610/339/663
f 616/340/669 618/342/670 617/341/671
f 612/339/672 616/340/669 617/341/671
f 618/342/673 616/340/662 615/340/668
f 619/342/673 618/342/673 615/340/668
f 618/342/674 619/342/674 620/343/675
f 618/342/670 620/343/676 617/341/671
f 620/343/676 621/344/677 617/341/671
f 623/344/678 621/344/679 620/343/675
f 619/342/674 622/343/675 620/343/675
f 622/343/675 623/344/678 620/343/675
f 623/344/678 624/345/680 621/344/679
f 625/346/681 624/345/682 623/344/683
f 626/347/684 625/346/681 623/344/683
f 626/347/684 623/344/683 622/343/685
f 614/341/666 626/347/684 622/343/685
f 627/348/686 626/347/684 614/341/666
f 628/349/687 625/346/681 626/347/684
f 627/348/686 628/349/687 626/347/684
f 630/350/688 629/350/688 628/349/689
f 628/349/687 629/350/690 625/346/681
f 631/349/691 630/350/688 628/349/689
f 631/349/691 628/349/689 627/348/692
f 632/346/693 631/349/694 633/348/695
f 630/350/696 631/349/694 632/346/693
f 633/348/697 631/349/691 627/348/692
f 634/347/698 632/346/693 633/348/695
f 633/348/697 627/348/692 613/338/659
f 634/347/698 633/348/695 611/338/699
f 611/338/661 633/348/697 613/338/659
f 621/344/677 634/347/698 617/341/671
f 621/344/677 635/345/700 634/347/698
f 635/345/700 632/346/693 634/347/698
f 617/341/671 634/347/698 611/338/699
f 624/345/680 635/345/701 621/344/679
f 624/345/680 636/351/702 635/345/701
f 636/351/702 637/351/702 635/345/701
f 635/345/700 637/351/703 632/346/693
f 638/352/704 637/351/705 636/351/705
f 637/351/703 638/352/706 632/346/693
f 639/352/707 638/352/704 636/351/705
f 630/350/708 638/352/704 639/352/707
f 638/352/706 630/350/696 632/346/693
f 629/350/708 630/350/708 639/352/707
f 629/350/690 639/352/709 625/346/681
f 639/352/709 636/351/710 625/346/681
f 636/351/710 624/345/682 625/346/681
f 613/338/665 627/348/686 614/341/666
f 622/343/685 619/342/711 614/341/666
f 619/342/711 615/340/667 614/341/666
f 611/338/699 612/339/672 617/341/671
f 646/353/712 650/354/713 656/355/714
f 652/356/715 646/353/712 656/355/714
f 651/354/716 648/353/717 654/356/718
f 657/355/719 651/354/716 654/356/718
f 648/353/720 646/353/720 652/356/721
f 654/356/722 648/353/720 652/356/721
f 650/354/713 647/357/723 653/358/724
f 656/355/714 650/354/713 653/358/724
f 647/357/725 649/357/725 655/358/726
f 653/358/727 647/357/725 655/358/726
f 649/357/728 651/354/716 657/355/719
f 655/358/729 649/357/728 657/355/719
f 652/356/715 656/355/714 662/359/730
f 658/360/731 652/356/715 662/359/730
f 657/355/719 654/356/718 660/360/732
f 663/359/733 657/355/719 660/360/732
f 654/356/722 652/356/721 658/360/734
f 660/360/735 654/356/722 658/360/734
f 656/355/714 653/358/724 659/361/736
f 662/359/730 656/355/714 659/361/736
f 653/358/727 655/358/726 661/361/737
f 659/361/738 653/358/727 661/361/737
f 655/358/729 657/355/719 663/359/733
f 661/361/739 655/358/729 663/359/733
f 658/360/731 662/359/730 668/362/740
f 664/363/741 658/360/731 668/362/740
f 663/359/733 660/360/732 666/363/742
f 669/362/743 663/359/733 666/363/742
f 660/360/735 658/360/734 664/363/744
f 666/363/745 660/360/735 664/363/744
f 662/359/730 659/361/736 665/364/746
f 668/362/740 662/359/730 665/364/746
f 659/361/738 661/361/737 667/364/747
f 665/364/747 659/361/738 667/364/747
f 661/361/739 663/359/733 669/362/743
f 667/364/748 661/361/739 669/362/743
f 642/365/749 645/366/750 669/362/743
f 666/363/742 642/365/749 669/362/743
f 640/365/751 642/365/751 666/363/745
f 664/363/744 640/365/751 666/363/745
f 643/367/752 667/364/748 669/362/743
f 645/366/750 643/367/752 669/362/743
f 641/367/753 665/364/747 667/364/747
f 643/367/753 641/367/753 667/364/747
f 641/367/754 644/366/755 668/362/740
f 665/364/746 641/367/754 668/362/740
f 644/366/755 640/365/756 664/363/741
f 668/362/740 644/366/755 664/363/741
f 643/367/757 645/366/757 644/366/757
f 641/367/757 643/367/757 644/366/757
f 645/366/757 642/365/757 640/365/757
f 644/366/757 645/366/757 640/365/757
f 670/368/758 672/369/758 671/370/758
f 672/369/758 673/371/758 671/370/758
f 673/371/758 674/372/758 675/373/758
f 671/370/758 673/371/758 675/373/758
f 681/374/759 677/375/759 676/376/759
f 677/375/760 678/377/760 676/376/760
f 676/376/761 678/377/762 679/378/763
f 680/379/761 676/376/761 679/378/763
f 680/379/759 681/374/759 676/376/759
f 683/380/764 682/381/765 681/374/766
f 682/381/765 677/375/766 681/374/766
f 680/379/767 679/378/767 681/374/767
f 683/380/768 681/374/767 679/378/767
f 686/382/769 682/381/765 683/380/764
f 684/383/768 683/380/768 679/378/767
f 684/383/768 685/384/768 683/380/768
f 685/384/769 686/382/769 683/380/764
f 687/385/770 686/382/770 685/384/770
f 687/385/760 678/377/760 686/382/760
f 686/382/760 678/377/760 682/381/760
f 678/377/762 687/385/771 684/383/771
f 684/383/770 687/385/770 685/384/770
f 679/378/763 678/377/762 684/383/771
f 678/377/760 677/375/760 682/381/760
