# Blender 5.2.0 LTS
# www.blender.org
o blade
v -32.474792 -4.447566 -2.673406
v 48.050259 -3.512381 2.673409
v 48.050259 -3.512381 -2.673406
v -32.474792 -4.447566 2.673409
v -35.269211 -4.429136 2.673409
v -35.269211 -4.429136 -2.673406
v -32.523491 3.612357 -4.208941
v -35.317905 3.630788 -4.208941
v -32.564800 10.449386 -2.673407
v 47.970867 9.626896 -2.673407
v 48.010555 3.057256 -4.208941
v 47.970867 9.626896 2.673409
v 48.010555 3.057257 4.208943
v -32.523491 3.612358 4.208943
v -32.564800 10.449386 2.673409
v -35.359215 10.467816 -2.673407
v -35.359215 10.467816 2.673409
v -35.317905 3.630788 4.208943
v -39.060116 -2.243780 -0.566752
v -124.766975 1.152836 -0.668233
v -39.048691 3.365328 -0.668233
v -124.520691 -4.448440 -0.566752
v -39.060116 -2.243780 0.566756
v -124.520691 -4.448440 0.566756
v -39.048691 3.365328 0.668235
v -124.766975 1.152836 0.668235
v -39.037266 8.974318 0.000001
v -125.013374 6.753990 0.000001
v -197.183609 -4.909896 -0.668232
v -197.660385 0.672150 0.000001
v -265.255890 -8.325856 0.000002
v -264.564636 -13.879498 -0.668231
v -197.183609 -4.909896 0.668236
v -264.564636 -13.879498 0.668237
v -196.706955 -10.491824 0.566756
v -263.873535 -19.432789 0.566757
v -196.706955 -10.491824 -0.566752
v -263.873535 -19.432789 -0.566751
v -334.913757 -32.439583 -0.566750
v -334.913757 -32.439583 0.566758
v -330.417328 -25.522818 -0.668231
v -333.302246 -20.698975 0.000003
v -339.098419 -27.144934 0.000004
v -330.417328 -25.522818 0.668237
v -341.919098 -33.701660 0.000004
v -34.015800 -2.157500 -1.099300
v -42.484100 -2.225600 1.099300
v -34.015800 -2.157500 1.099300
v -42.484100 -2.225600 -1.099300
v -34.015800 3.610700 -1.295900
v -42.484100 3.542600 -1.295900
v -34.015800 8.765900 -0.723001
v -34.015800 8.765900 0.722999
v -42.484100 8.697800 -0.723001
v -42.484100 8.697800 0.722999
v -34.015800 3.610700 1.295900
v -42.484100 3.542600 1.295900
v -35.188805 3.601435 0.000002
v -35.188805 3.601434 12.755768
v -35.185284 -3.155957 11.046864
v -35.182705 -8.102701 6.377952
v -35.181763 -9.913346 0.000005
v -35.182705 -8.102701 -6.377943
v -35.185284 -3.155955 -11.046858
v -35.188805 3.601436 -12.755766
v -35.192333 10.357965 -11.045453
v -35.194908 15.304867 -6.377564
v -35.195847 17.116213 -0.000002
v -35.194908 15.304921 6.377465
v -35.192333 10.357957 11.045443
v -37.100796 15.306503 6.377820
v -37.098217 10.359756 11.046862
v -37.094696 3.602365 0.000002
v -37.094696 3.602364 12.755768
v -37.091167 -3.154156 11.045443
v -37.088593 -8.101061 6.377564
v -37.087654 -9.912416 0.000005
v -37.088593 -8.101075 -6.377563
v -37.091167 -3.154166 -11.045456
v -37.094696 3.602365 -12.755766
v -37.098217 10.359756 -11.046861
v -37.100796 15.306500 -6.377948
v -37.101738 17.117147 -0.000002
vn 0.0025 -1.0000 -0.0000
vn 0.0116 -0.9999 -0.0000
vn 0.0005 -0.1871 -0.9823
vn 0.0003 -0.0180 -0.9998
vn -0.0000 -0.2072 -0.9783
vn -0.0066 -1.0000 -0.0000
vn -0.0012 -0.1872 -0.9823
vn -0.0003 0.0869 -0.9962
vn 0.0018 0.2191 -0.9757
vn 0.0019 0.2234 -0.9747
vn -0.0000 -0.0019 -1.0000
vn 1.0000 0.0060 -0.0000
vn 0.0007 0.0094 1.0000
vn -0.0001 0.0729 0.9973
vn 0.0017 0.2219 0.9751
vn -0.0000 -0.2072 0.9783
vn 0.0023 0.2276 0.9737
vn 0.0084 1.0000 -0.0000
vn 0.0066 1.0000 -0.0000
vn 0.0102 0.9999 -0.0000
vn 0.0014 0.2191 0.9757
vn 0.0005 -0.0510 0.9987
vn 0.0005 -0.1871 0.9823
vn -0.0012 -0.1872 0.9823
vn 0.0014 0.2191 -0.9757
vn 0.0010 -0.0181 -0.9998
vn -0.0015 0.0274 -0.9996
vn 0.0005 -0.0181 -0.9998
vn -0.0018 0.0731 -0.9973
vn 0.0551 -0.9985 -0.0000
vn 0.0258 -0.9997 -0.0000
vn 0.0546 -0.9985 -0.0000
vn 0.0548 -0.9985 -0.0000
vn 0.0010 -0.0181 0.9998
vn 0.0005 -0.0181 0.9998
vn -0.0008 0.0276 0.9996
vn -0.0040 0.0729 0.9973
vn -0.0031 0.1183 0.9930
vn -0.0064 0.1182 0.9930
vn -0.0064 0.1182 -0.9930
vn -0.0031 0.1183 -0.9930
vn -0.0049 0.0501 -0.9987
vn -0.0136 0.1177 -0.9930
vn -0.0118 0.1179 0.9930
vn -0.0095 0.0633 -0.9979
vn -0.0196 0.1194 -0.9927
vn -0.0186 0.1189 0.9927
vn -0.0059 0.0501 0.9987
vn -0.0057 0.0362 0.9993
vn 0.0020 -0.0180 0.9998
vn 0.0995 -0.9950 -0.0000
vn 0.1479 -0.9890 -0.0000
vn 0.1159 -0.9933 -0.0000
vn 0.0028 -0.0179 0.9998
vn 0.1643 -0.9864 -0.0000
vn 0.0020 -0.0180 -0.9998
vn 0.0028 -0.0179 -0.9998
vn -0.0354 0.0549 -0.9979
vn 0.1787 -0.9839 -0.0000
vn -0.0563 0.0205 -0.9982
vn -0.0877 0.0532 -0.9947
vn -0.0578 0.1030 -0.9930
vn -0.0873 0.0376 -0.9955
vn -0.0354 0.0549 0.9979
vn -0.0578 0.1030 0.9930
vn -0.0877 0.0533 0.9947
vn -0.0873 0.0376 0.9955
vn -0.0563 0.0205 0.9982
vn 0.1773 -0.9842 -0.0000
vn 0.0080 -1.0000 -0.0000
vn -0.0003 0.0141 -0.9999
vn 0.0003 -0.0341 -0.9994
vn -0.0003 0.0624 -0.9981
vn -0.0009 0.1105 -0.9939
vn -0.0080 1.0000 -0.0000
vn -1.0000 -0.0000 -0.0000
vn -0.0003 0.0624 0.9981
vn -0.0009 0.1105 0.9939
vn -0.0003 0.0141 0.9999
vn 0.0003 -0.0341 0.9994
vn 1.0000 0.0005 -0.0000
vn 0.0011 0.5439 0.8392
vn 0.0011 0.4163 0.9092
vn -0.0000 0.0638 0.9980
vn 0.0008 0.9026 0.4304
vn 0.0009 0.7985 0.6020
vn -1.0000 -0.0005 -0.0000
vn -0.0000 -0.0638 0.9980
vn -0.0011 -0.4163 0.9092
vn -0.0011 -0.5439 0.8392
vn -0.0009 -0.7985 0.6020
vn -0.0008 -0.9026 0.4304
vn -0.0006 -0.9925 -0.1223
vn -0.0006 -0.9925 0.1224
vn -0.0009 -0.7984 -0.6022
vn -0.0008 -0.9027 -0.4302
vn -0.0011 -0.4159 -0.9094
vn -0.0010 -0.5440 -0.8391
vn -0.0000 -0.0641 -0.9979
vn -0.0000 0.0641 -0.9979
vn 0.0011 0.4159 -0.9094
vn 0.0010 0.5440 -0.8391
vn 0.0009 0.7984 -0.6022
vn 0.0008 0.9027 -0.4302
vn 0.0006 0.9925 -0.1223
vn 0.0006 0.9925 0.1224
vt 0.023508 0.535156
vt 0.363281 0.519007
vt 0.023508 0.446391
vt 0.011719 0.535156
vt 0.011719 0.446391
vt 0.023508 0.371094
vt 0.363281 0.374302
vt 0.363281 0.446655
vt 0.011719 0.371094
vt 0.353784 0.833084
vt 0.353378 0.802916
vt 0.488281 0.822133
vt 0.488281 0.791926
vt 0.488281 0.761719
vt 0.352972 0.772748
vt 0.239423 0.834785
vt 0.238654 0.804718
vt 0.133402 0.882364
vt 0.132296 0.852447
vt 0.240191 0.864852
vt 0.134507 0.912279
vt 0.029795 0.944358
vt 0.022740 0.981560
vt 0.016137 0.953000
vt 0.025239 0.918348
vt 0.011719 0.988281
vt 0.628906 0.542969
vt 0.629632 0.363281
vt 0.691131 0.363281
vt 0.690405 0.542969
vt 0.746094 0.363281
vt 0.745368 0.542969
vt 0.544922 0.375318
vt 0.500000 0.363281
vt 0.500000 0.453125
vt 0.455078 0.375318
vt 0.422193 0.408203
vt 0.410156 0.453125
vt 0.422193 0.498047
vt 0.455078 0.530932
vt 0.500000 0.542969
vt 0.544922 0.530932
vt 0.577807 0.498047
vt 0.589844 0.453125
vt 0.577807 0.408204
s 1
f 4/1/1 1/1/1 2/2/2
f 1/1/1 3/2/2 2/2/2
f 1/1/3 7/3/4 3/2/5
f 1/1/1 4/1/1 5/4/6
f 6/4/6 1/1/1 5/4/6
f 7/3/4 1/1/3 6/4/7
f 8/5/8 7/3/4 6/4/7
f 9/6/9 7/3/4 8/5/8
f 7/3/4 9/6/9 10/7/10
f 7/3/4 11/8/11 3/2/5
f 11/8/11 7/3/4 10/7/10
f 3/2/12 11/8/12 13/8/12
f 11/8/12 10/7/12 12/7/12
f 13/8/12 11/8/12 12/7/12
f 14/3/13 13/8/14 15/6/15
f 2/2/16 13/8/14 14/3/13
f 2/2/12 3/2/12 13/8/12
f 13/8/14 12/7/17 15/6/15
f 15/6/18 9/6/18 16/9/19
f 9/6/18 15/6/18 10/7/20
f 15/6/18 12/7/20 10/7/20
f 17/9/19 15/6/18 16/9/19
f 14/3/13 15/6/15 17/9/21
f 18/5/22 14/3/13 17/9/21
f 4/1/23 14/3/13 18/5/22
f 5/4/24 4/1/23 18/5/22
f 16/9/25 9/6/9 8/5/8
f 4/1/23 2/2/16 14/3/13
f 22/10/26 20/11/27 19/12/28
f 20/11/27 21/13/29 19/12/28
f 22/10/30 19/12/31 23/12/31
f 24/10/32 22/10/33 23/12/31
f 24/10/34 23/12/35 25/13/36
f 26/11/37 24/10/34 25/13/36
f 26/11/37 25/13/36 27/14/38
f 28/15/39 26/11/37 27/14/38
f 28/15/40 27/14/41 21/13/29
f 20/11/27 29/16/42 28/15/40
f 29/16/42 30/17/43 28/15/40
f 28/15/39 30/17/44 26/11/37
f 20/11/27 28/15/40 21/13/29
f 32/18/45 31/19/46 30/17/43
f 30/17/44 31/19/47 33/16/48
f 29/16/42 32/18/45 30/17/43
f 30/17/44 33/16/48 26/11/37
f 31/19/47 34/18/49 33/16/48
f 26/11/37 33/16/48 24/10/34
f 33/16/48 35/20/50 24/10/34
f 33/16/48 34/18/49 35/20/50
f 35/20/51 36/21/52 37/20/53
f 34/18/49 36/21/54 35/20/50
f 35/20/51 37/20/53 22/10/33
f 24/10/32 35/20/51 22/10/33
f 36/21/52 38/21/55 37/20/53
f 37/20/56 38/21/57 29/16/42
f 37/20/56 29/16/42 20/11/27
f 22/10/26 37/20/56 20/11/27
f 38/21/57 32/18/45 29/16/42
f 41/22/58 32/18/45 38/21/57
f 36/21/52 40/23/59 38/21/55
f 40/23/59 39/23/59 38/21/55
f 39/23/60 41/22/58 38/21/57
f 41/22/58 39/23/60 43/24/61
f 41/22/58 42/25/62 31/19/46
f 42/25/62 41/22/58 43/24/61
f 32/18/45 41/22/58 31/19/46
f 39/23/60 45/26/63 43/24/61
f 44/22/64 42/25/65 43/24/66
f 45/26/67 40/23/68 43/24/66
f 40/23/68 44/22/64 43/24/66
f 39/23/59 40/23/59 45/26/69
f 42/25/65 44/22/64 31/19/47
f 44/22/64 40/23/68 36/21/54
f 34/18/49 44/22/64 36/21/54
f 44/22/64 34/18/49 31/19/47
f 49/27/70 46/28/70 47/27/70
f 46/28/70 48/28/70 47/27/70
f 50/29/71 46/28/72 49/27/72
f 51/30/73 50/29/71 49/27/72
f 52/31/74 50/29/71 51/30/73
f 53/31/75 52/31/75 54/32/75
f 54/32/74 52/31/74 51/30/73
f 55/32/75 53/31/75 54/32/75
f 55/32/76 54/32/76 51/30/76
f 56/29/77 53/31/78 55/32/78
f 57/30/76 55/32/76 49/27/76
f 49/27/76 55/32/76 51/30/76
f 57/30/79 56/29/77 55/32/78
f 47/27/76 57/30/76 49/27/76
f 47/27/80 48/28/80 57/30/79
f 48/28/80 56/29/77 57/30/79
f 70/33/81 59/34/81 58/35/81
f 59/34/81 60/36/81 58/35/81
f 60/36/81 61/37/81 58/35/81
f 61/37/81 62/38/81 58/35/81
f 62/38/81 63/39/81 58/35/81
f 63/39/81 64/40/81 58/35/81
f 64/40/81 65/41/81 58/35/81
f 65/41/81 66/42/81 58/35/81
f 66/42/81 67/43/81 58/35/81
f 67/43/81 68/44/81 58/35/81
f 68/44/81 69/45/81 58/35/81
f 69/45/81 70/33/81 58/35/81
f 70/33/82 72/33/83 59/34/84
f 69/45/85 71/45/86 70/33/82
f 71/45/86 72/33/83 70/33/82
f 72/33/87 71/45/87 73/35/87
f 74/34/87 72/33/87 73/35/87
f 72/33/83 74/34/88 59/34/84
f 59/34/84 74/34/88 60/36/89
f 74/34/88 75/36/90 60/36/89
f 75/36/87 74/34/87 73/35/87
f 60/36/89 75/36/90 61/37/91
f 75/36/90 76/37/92 61/37/91
f 76/37/87 75/36/87 73/35/87
f 77/38/87 76/37/87 73/35/87
f 76/37/92 77/38/93 62/38/94
f 61/37/91 76/37/92 62/38/94
f 78/39/87 77/38/87 73/35/87
f 77/38/93 78/39/95 63/39/96
f 62/38/94 77/38/93 63/39/96
f 79/40/87 78/39/87 73/35/87
f 78/39/95 79/40/97 64/40/98
f 63/39/96 78/39/95 64/40/98
f 64/40/98 79/40/97 65/41/99
f 79/40/97 80/41/100 65/41/99
f 80/41/87 79/40/87 73/35/87
f 65/41/99 80/41/100 66/42/101
f 80/41/100 81/42/102 66/42/101
f 81/42/87 80/41/87 73/35/87
f 66/42/101 81/42/102 67/43/103
f 81/42/102 82/43/104 67/43/103
f 82/43/87 81/42/87 73/35/87
f 67/43/103 82/43/104 68/44/105
f 82/43/104 83/44/106 68/44/105
f 83/44/87 82/43/87 73/35/87
f 68/44/105 83/44/106 69/45/85
f 83/44/106 71/45/86 69/45/85
f 71/45/87 83/44/87 73/35/87
o blade_damaged
v -39.045097 -2.234806 -0.566752
v -124.780403 1.387118 -0.668233
v -39.048710 3.373047 -0.668233
v -124.519043 -4.213581 -0.566752
v -39.045097 -2.234806 0.566756
v -124.519043 -4.213581 0.566756
v -39.048710 3.373047 0.668235
v -39.052326 8.980781 0.000001
v -124.780403 1.387118 0.668235
v -125.041901 6.987700 0.000001
v -32.476551 -4.156233 -2.673406
v 48.050255 -3.512382 2.673410
v 48.050255 -3.512382 -2.673406
v -32.476551 -4.156233 2.673410
v -35.270969 -4.137803 2.673410
v -35.270969 -4.137803 -2.673406
v -32.523346 3.588413 -4.208941
v 48.010551 3.057257 -4.208941
v -35.317760 3.606844 -4.208941
v -32.563038 10.158053 -2.673407
v 47.970863 9.626896 -2.673407
v -32.563038 10.158053 2.673409
v 47.970863 9.626896 2.673409
v 48.010551 3.057257 4.208943
v -32.523346 3.588414 4.208943
v -35.317760 3.606844 4.208943
v -35.357456 10.176483 2.673409
v -35.357456 10.176483 -2.673407
v -35.188805 3.601425 0.000002
v -35.188805 3.601424 12.755841
v -35.185207 -3.155941 11.046927
v -35.182571 -8.102668 6.377988
v -35.181606 -9.913305 0.000005
v -35.182571 -8.102669 -6.377979
v -35.185207 -3.155940 -11.046922
v -35.188805 3.601426 -12.755838
v -35.192410 10.357912 -11.045486
v -35.195042 15.304801 -6.377594
v -35.196003 17.116154 -0.000002
v -35.195042 15.304854 6.377494
v -35.192410 10.357903 11.045476
v -37.100929 15.306468 6.377856
v -37.098293 10.359740 11.046925
v -37.094696 3.602374 12.755841
v -37.094696 3.602375 0.000002
v -37.088459 -8.101007 -6.377591
v -37.091091 -3.154112 -11.045488
v -37.094696 3.602376 -12.755838
v -37.098293 10.359741 -11.046924
v -37.100929 15.306468 -6.377985
v -37.091091 -3.154102 11.045476
v -37.101894 17.117105 -0.000002
v -37.088459 -8.100992 6.377594
v -37.087498 -9.912356 0.000005
v -34.015800 -2.157500 -1.099300
v -42.484100 -2.225600 1.099300
v -34.015800 -2.157500 1.099300
v -42.484100 -2.225600 -1.099300
v -34.015800 3.610700 -1.295900
v -42.484100 3.542600 -1.295900
v -34.015800 8.765900 -0.723001
v -34.015800 8.765900 0.722999
v -42.484100 8.697800 -0.723001
v -42.484100 8.697800 0.722999
v -34.015800 3.610700 1.295900
v -42.484100 3.542600 1.295900
vn 0.0004 -0.0181 -0.9998
vn -0.0007 0.0274 -0.9996
vn -0.0005 0.0276 -0.9996
vn -0.0018 0.0729 -0.9973
vn 0.0231 -0.9997 -0.0000
vn 0.0004 -0.0181 0.9998
vn -0.0006 0.0274 0.9996
vn -0.0017 0.0729 0.9973
vn -0.0007 0.0275 0.9996
vn -0.0027 0.1183 0.9930
vn -0.0017 0.0730 0.9973
vn -0.0027 0.1183 -0.9930
vn -0.0016 0.0730 -0.9973
vn 0.0007 -1.0000 -0.0000
vn 0.0080 -1.0000 -0.0000
vn 0.0001 -0.1945 -0.9809
vn 0.0001 -0.0188 -0.9998
vn -0.0002 -0.2109 -0.9775
vn -0.0066 -1.0000 -0.0000
vn -0.0013 -0.1945 -0.9809
vn -0.0000 -0.0018 -1.0000
vn 0.0015 0.2276 -0.9738
vn -0.0003 0.0904 -0.9959
vn 0.0066 1.0000 -0.0000
vn 1.0000 0.0060 -0.0000
vn -0.0005 0.0758 0.9971
vn 0.0015 0.2276 0.9738
vn 0.0006 0.0113 0.9999
vn -0.0002 -0.2109 0.9775
vn 0.0001 -0.1945 0.9809
vn 0.0006 -0.0532 0.9986
vn -0.0013 -0.1945 0.9809
vn 1.0000 0.0005 -0.0000
vn 0.0011 0.5439 0.8392
vn 0.0011 0.4163 0.9092
vn -0.0000 0.0638 0.9980
vn 0.0008 0.9026 0.4304
vn 0.0009 0.7985 0.6020
vn -0.0000 -0.0638 0.9980
vn -1.0000 -0.0005 -0.0000
vn -0.0006 -0.9925 0.1224
vn -0.0006 -0.9925 -0.1223
vn -0.0008 -0.9027 -0.4302
vn -0.0008 -0.9026 0.4304
vn -0.0010 -0.7984 -0.6022
vn -0.0010 -0.7985 0.6020
vn -0.0011 -0.5439 0.8392
vn 0.0006 0.9925 -0.1223
vn 0.0006 0.9925 0.1224
vn 0.0008 0.9027 -0.4302
vn -0.0011 -0.4163 0.9092
vn 0.0010 0.7984 -0.6022
vn 0.0011 0.5440 -0.8391
vn 0.0011 0.4159 -0.9094
vn -0.0000 0.0641 -0.9979
vn -0.0011 -0.4159 -0.9094
vn -0.0000 -0.0641 -0.9979
vn -0.0011 -0.5440 -0.8391
vn -0.0003 0.0141 -0.9999
vn 0.0003 -0.0341 -0.9994
vn -0.0003 0.0624 -0.9981
vn -0.0009 0.1105 -0.9939
vn -0.0080 1.0000 -0.0000
vn -1.0000 -0.0000 -0.0000
vn -0.0003 0.0141 0.9999
vn -0.0003 0.0624 0.9981
vn -0.0009 0.1105 0.9939
vn 0.0003 -0.0341 0.9994
vt 0.014576 0.988281
vt 0.013148 0.892507
vt 0.488281 0.953516
vt 0.488281 0.857616
vt 0.488281 0.761719
vt 0.011719 0.796734
vt 0.023508 0.535156
vt 0.363281 0.521689
vt 0.023508 0.446391
vt 0.011719 0.535156
vt 0.363281 0.446391
vt 0.363281 0.371094
vt 0.011719 0.446391
vt 0.023508 0.371094
vt 0.011719 0.371094
vt 0.544922 0.375318
vt 0.500000 0.363281
vt 0.500000 0.453125
vt 0.455078 0.375318
vt 0.422193 0.408203
vt 0.410156 0.453125
vt 0.422193 0.498047
vt 0.455078 0.530932
vt 0.500000 0.542969
vt 0.544922 0.530932
vt 0.577807 0.498047
vt 0.589844 0.453125
vt 0.577807 0.408204
vt 0.628906 0.542969
vt 0.629632 0.363281
vt 0.691131 0.363281
vt 0.690405 0.542969
vt 0.746094 0.363281
vt 0.745368 0.542969
s 1
f 87/46/107 85/47/108 84/48/107
f 85/47/109 86/49/110 84/48/107
f 87/46/111 84/48/111 88/48/111
f 89/46/111 87/46/111 88/48/111
f 89/46/112 88/48/112 90/49/113
f 92/47/114 90/49/115 91/50/116
f 92/47/114 89/46/112 90/49/115
f 93/51/116 92/47/117 91/50/116
f 93/51/118 91/50/118 86/49/119
f 85/47/109 93/51/118 86/49/110
f 97/52/120 94/52/120 95/53/121
f 94/52/120 96/53/121 95/53/121
f 94/52/122 100/54/123 96/53/124
f 94/52/120 97/52/120 98/55/125
f 99/55/125 94/52/120 98/55/125
f 100/54/123 94/52/122 99/55/126
f 101/56/127 100/54/123 104/57/128
f 100/54/123 101/56/127 96/53/124
f 102/58/129 100/54/123 99/55/126
f 103/59/128 100/54/123 102/58/129
f 100/54/123 103/59/128 104/57/128
f 103/59/130 105/59/130 104/57/130
f 105/59/130 106/57/130 104/57/130
f 101/56/131 104/57/131 106/57/131
f 107/56/132 106/57/133 105/59/133
f 107/56/131 101/56/131 106/57/131
f 96/53/131 101/56/131 107/56/131
f 108/54/134 107/56/132 105/59/133
f 95/53/135 107/56/132 108/54/134
f 95/53/131 96/53/131 107/56/131
f 97/52/136 108/54/134 109/58/137
f 97/52/136 95/53/135 108/54/134
f 108/54/134 105/59/133 110/60/133
f 109/58/137 108/54/134 110/60/133
f 110/60/130 105/59/130 111/60/130
f 105/59/130 103/59/130 111/60/130
f 111/60/128 103/59/128 102/58/129
f 98/55/138 97/52/136 109/58/137
f 124/61/139 113/62/139 112/63/139
f 113/62/139 114/64/139 112/63/139
f 114/64/139 115/65/139 112/63/139
f 115/65/139 116/66/139 112/63/139
f 116/66/139 117/67/139 112/63/139
f 117/67/139 118/68/139 112/63/139
f 118/68/139 119/69/139 112/63/139
f 119/69/139 120/70/139 112/63/139
f 120/70/139 121/71/139 112/63/139
f 121/71/139 122/72/139 112/63/139
f 122/72/139 123/73/139 112/63/139
f 123/73/139 124/61/139 112/63/139
f 124/61/140 126/61/141 113/62/142
f 123/73/143 125/73/144 124/61/140
f 125/73/144 126/61/141 124/61/140
f 126/61/141 127/62/145 113/62/142
f 127/62/146 126/61/146 128/63/146
f 126/61/146 125/73/146 128/63/146
f 130/68/146 129/67/146 128/63/146
f 129/67/146 137/66/146 128/63/146
f 131/69/146 130/68/146 128/63/146
f 132/70/146 131/69/146 128/63/146
f 133/71/146 132/70/146 128/63/146
f 134/64/146 127/62/146 128/63/146
f 135/72/146 133/71/146 128/63/146
f 136/65/146 134/64/146 128/63/146
f 125/73/146 135/72/146 128/63/146
f 137/66/146 136/65/146 128/63/146
f 116/66/147 137/66/148 117/67/149
f 136/65/150 137/66/148 116/66/147
f 137/66/148 129/67/151 117/67/149
f 115/65/152 136/65/150 116/66/147
f 134/64/153 136/65/150 115/65/152
f 122/72/154 135/72/155 123/73/143
f 133/71/156 135/72/155 122/72/154
f 135/72/155 125/73/144 123/73/143
f 114/64/157 134/64/153 115/65/152
f 127/62/145 134/64/153 114/64/157
f 121/71/158 133/71/156 122/72/154
f 132/70/159 133/71/156 121/71/158
f 120/70/160 132/70/159 121/71/158
f 131/69/161 132/70/159 120/70/160
f 130/68/162 131/69/161 119/69/163
f 119/69/163 131/69/161 120/70/160
f 129/67/151 130/68/162 118/68/164
f 118/68/164 130/68/162 119/69/163
f 117/67/149 129/67/151 118/68/164
f 113/62/142 127/62/145 114/64/157
f 141/74/121 138/75/121 139/74/121
f 138/75/121 140/75/121 139/74/121
f 142/76/165 138/75/166 141/74/166
f 143/77/167 142/76/165 141/74/166
f 144/78/168 142/76/165 143/77/167
f 145/78/169 144/78/169 146/79/169
f 146/79/168 144/78/168 143/77/167
f 147/79/169 145/78/169 146/79/169
f 147/79/170 146/79/170 143/77/170
f 149/77/171 148/76/172 147/79/173
f 148/76/172 145/78/173 147/79/173
f 149/77/170 147/79/170 141/74/170
f 141/74/170 147/79/170 143/77/170
f 140/75/174 148/76/172 149/77/171
f 139/74/174 140/75/174 149/77/171
f 139/74/170 149/77/170 141/74/170
o blade_fragment
v -334.542053 -32.319374 -0.566752
v -341.547424 -33.581276 0.000003
v -334.542053 -32.319374 0.566756
v -338.726898 -27.024656 0.000002
v -330.045776 -25.402756 -0.668232
v -263.501740 -19.314333 -0.566753
v -264.192993 -13.761062 -0.668233
v -263.501740 -19.314333 0.566755
v -196.811768 -4.793106 -0.668234
v -196.334976 -10.375010 -0.566753
v -196.334976 -10.375010 0.566755
v -124.394875 1.267876 -0.668234
v -124.148445 -4.333370 -0.566754
v -124.148445 -4.333370 0.566754
v -124.394875 1.267876 0.668234
v -196.811768 -4.793106 0.668234
v -264.192993 -13.761062 0.668235
v -197.288712 0.788915 -0.000000
v -264.884369 -8.207438 0.000001
v -330.045776 -25.402756 0.668236
v -332.930847 -20.578873 0.000002
v -124.641411 6.869002 -0.000001
vn -0.0563 0.0205 -0.9982
vn -0.0873 0.0376 -0.9955
vn -0.0877 0.0532 -0.9947
vn 0.1787 -0.9839 -0.0000
vn 0.1773 -0.9842 -0.0000
vn 0.1642 -0.9864 -0.0000
vn -0.0354 0.0549 -0.9979
vn 0.0028 -0.0179 -0.9998
vn -0.0093 0.0634 -0.9979
vn -0.0049 0.0501 -0.9987
vn 0.1479 -0.9890 -0.0000
vn 0.1159 -0.9933 -0.0000
vn 0.0020 -0.0180 -0.9998
vn -0.0023 0.0275 -0.9996
vn 0.0995 -0.9950 -0.0000
vn 0.0834 -0.9965 -0.0000
vn 0.0015 -0.0180 -0.9998
vn -0.0061 0.0729 0.9973
vn -0.0059 0.0502 0.9987
vn 0.0015 -0.0180 0.9998
vn 0.0020 -0.0180 0.9998
vn -0.0186 0.1189 0.9927
vn -0.0057 0.0362 0.9993
vn -0.0118 0.1179 0.9930
vn -0.0196 0.1194 -0.9927
vn -0.0578 0.1030 -0.9930
vn -0.0578 0.1030 0.9930
vn -0.0354 0.0549 0.9979
vn -0.0136 0.1177 -0.9930
vn -0.0877 0.0533 0.9947
vn -0.0563 0.0205 0.9982
vn 0.0028 -0.0179 0.9998
vn -0.0099 0.1180 -0.9930
vn -0.0099 0.1180 0.9930
vn -0.0873 0.0376 0.9955
vt 0.027074 0.981216
vt 0.011719 0.988281
vt 0.017874 0.951195
vt 0.182787 0.908389
vt 0.036902 0.942111
vt 0.181247 0.876944
vt 0.328954 0.826930
vt 0.330024 0.858536
vt 0.487716 0.793430
vt 0.488281 0.825142
vt 0.179706 0.845496
vt 0.327884 0.795324
vt 0.030555 0.914770
vt 0.487151 0.761719
s 1
f 150/80/175 151/81/176 153/82/177
f 150/80/178 152/80/178 151/81/179
f 152/80/178 150/80/178 155/83/180
f 154/84/181 150/80/175 153/82/177
f 150/80/175 154/84/181 155/83/182
f 154/84/181 156/85/183 155/83/182
f 155/83/182 156/85/183 158/86/184
f 157/83/185 155/83/180 159/87/186
f 157/83/185 152/80/178 155/83/180
f 159/87/187 155/83/182 158/86/184
f 159/87/187 158/86/184 161/88/188
f 160/87/189 159/87/186 162/89/190
f 160/87/189 157/83/185 159/87/186
f 162/89/191 159/87/187 161/88/188
f 163/89/190 160/87/189 162/89/190
f 164/88/192 165/86/193 163/89/194
f 165/86/193 160/87/195 163/89/194
f 168/90/196 166/85/197 165/86/193
f 165/86/193 166/85/197 160/87/195
f 167/91/198 165/86/193 164/88/192
f 167/91/198 168/90/196 165/86/193
f 156/85/183 154/84/181 168/90/199
f 154/84/181 170/92/200 168/90/199
f 170/92/201 169/84/202 168/90/196
f 169/84/202 166/85/197 168/90/196
f 156/85/183 168/90/199 167/91/203
f 169/84/202 170/92/201 153/82/204
f 170/92/200 154/84/181 153/82/177
f 152/80/205 169/84/202 153/82/204
f 166/85/197 169/84/202 157/83/206
f 169/84/202 152/80/205 157/83/206
f 158/86/184 167/91/203 171/93/207
f 158/86/184 156/85/183 167/91/203
f 171/93/208 167/91/198 164/88/192
f 161/88/188 158/86/184 171/93/207
f 166/85/197 157/83/206 160/87/195
f 151/81/209 152/80/205 153/82/204
o sheath
v -35.609547 -3.592329 -3.002900
v -122.300659 -6.830393 3.325500
v -35.609547 -3.592328 3.002900
v -122.300659 -6.830394 -3.325500
v -122.709923 0.743576 -5.574100
v -35.159588 3.609480 -4.606400
v -35.159588 3.609481 4.606400
v -122.709923 0.743577 5.574100
v -35.478771 10.803109 3.002899
v -35.478771 10.803109 -3.002901
v -123.119301 8.317546 3.325499
v -194.194550 2.511918 3.325500
v -123.119301 8.317546 -3.325501
v -194.194550 2.511918 -3.325500
v -260.358368 -5.731421 -3.325500
v -259.065582 -13.215130 -5.574099
v -193.328796 -5.025070 -5.574100
v -192.463318 -12.561962 -3.325499
v -257.773010 -20.698746 -3.325498
v -338.123016 -34.611061 -3.220097
v -338.123016 -34.611061 3.220103
v -257.773010 -20.698746 3.325502
v -259.065582 -13.215130 5.574101
v -192.463318 -12.561962 3.325501
v -193.328796 -5.025069 5.574100
v -260.358368 -5.731420 3.325500
v -341.683563 -19.550928 -3.220098
v -341.683563 -19.550928 3.220101
v -340.307312 -27.159653 4.939602
v -340.307312 -27.159653 -4.939598
v -35.543293 -3.177684 -2.357800
v -35.377464 9.391680 -2.357801
v -35.543293 -3.177684 2.357800
v -35.377464 9.391680 2.357799
v -35.453220 3.649457 -3.638800
v -35.453220 3.649457 3.638800
v -337.644928 -33.388027 -2.357797
v -340.634460 -20.888947 -2.357798
v -337.644928 -33.388027 2.357803
v -340.634460 -20.888947 2.357802
v -339.139618 -27.138489 -3.638798
v -339.139618 -27.138489 3.638802
v -257.970245 -19.684578 -2.357799
v -260.137360 -7.045089 -2.357800
v -257.970245 -19.684578 2.357801
v -260.137360 -7.045089 2.357800
v -259.053711 -13.364934 -3.638799
v -259.053711 -13.364934 3.638801
v -192.590942 -11.494861 -2.357799
v -194.044693 1.233864 -2.357800
v -192.590942 -11.494861 2.357801
v -194.044693 1.233865 2.357800
v -193.317734 -5.130546 -3.638799
v -193.317734 -5.130545 3.638800
v -122.358353 -5.710578 -2.357800
v -123.045959 7.081349 -2.357800
v -122.358353 -5.710578 2.357800
v -123.045959 7.081349 2.357800
v -122.702103 0.685386 -3.638800
v -122.702103 0.685387 3.638800
v -337.644928 -33.388027 -2.357797
v -339.139618 -27.138489 -3.638798
v -337.644928 -33.388027 2.357803
v -339.139618 -27.138489 3.638802
v -340.634460 -20.888947 2.357802
v -340.634460 -20.888947 -2.357798
v -103.135185 -6.017891 -2.701900
v -103.135185 -6.017891 2.702000
v -103.083420 0.821895 -4.327100
v -98.895630 0.995377 -4.327100
v -99.064865 -5.849342 -2.701900
v -99.064865 -5.849342 2.702000
v -103.083420 0.821896 4.327100
v -98.895630 0.995378 4.327100
v -98.726410 7.840097 -2.702000
v -98.726410 7.840097 2.701900
v -103.031540 7.661786 2.701900
v -103.031540 7.661786 -2.702000
vn 0.0679 -0.9977 -0.0000
vn 0.0373 -0.9993 -0.0000
vn 0.0508 -0.9987 -0.0000
vn 0.9997 -0.0243 -0.0000
vn 0.9981 -0.0624 -0.0000
vn 0.0154 -0.2506 -0.9680
vn 0.0187 -0.2836 -0.9588
vn 0.0094 -0.0425 -0.9991
vn 0.0109 0.0025 -0.9999
vn 1.0000 0.0063 -0.0000
vn 0.0109 0.0025 0.9999
vn -0.0007 0.2506 0.9681
vn 0.0012 0.0411 0.9992
vn 0.0154 -0.2506 0.9680
vn 0.9990 0.0443 -0.0000
vn -0.0283 0.9996 -0.0000
vn -0.0549 0.9985 -0.0000
vn -0.0138 0.2839 0.9588
vn -0.0269 0.2829 0.9588
vn -0.0944 0.9955 -0.0000
vn -0.1107 0.9939 -0.0000
vn -0.1371 0.9906 -0.0000
vn -0.0085 0.0403 -0.9992
vn -0.0421 0.2808 -0.9588
vn -0.0315 0.2825 -0.9588
vn 0.0025 -0.0004 -1.0000
vn -0.0173 0.2837 -0.9588
vn 0.0268 -0.2829 -0.9588
vn 0.0388 -0.2813 -0.9588
vn 0.1706 -0.9853 -0.0000
vn 0.1563 -0.9877 -0.0000
vn 0.0391 -0.2476 -0.9681
vn 0.1380 -0.9904 -0.0000
vn 0.1108 -0.9938 -0.0000
vn 0.0039 -0.0429 0.9991
vn 0.0411 -0.2810 0.9588
vn 0.0314 -0.2825 0.9588
vn 0.0391 -0.2476 0.9681
vn 0.0943 -0.9955 -0.0000
vn -0.0023 -0.0009 1.0000
vn 0.0204 -0.2835 0.9588
vn -0.0394 0.2812 0.9588
vn -0.1541 0.9880 -0.0000
vn -0.1675 0.9859 -0.0000
vn -0.0462 0.2457 0.9682
vn -0.9766 -0.2151 -0.0000
vn -0.9840 -0.1780 -0.0000
vn -0.0083 0.0035 1.0000
vn -0.9696 -0.2448 -0.0000
vn -0.9596 -0.2813 -0.0000
vn -0.0083 0.0036 -1.0000
vn -0.0462 0.2457 -0.9682
vn -0.0007 0.2506 -0.9681
vn 0.0332 -0.1931 -0.9806
vn -0.0144 0.0697 -0.9975
vn 0.0018 -0.0002 -1.0000
vn 0.0271 -0.1941 -0.9806
vn 0.0131 -0.0604 0.9981
vn 0.0332 -0.1931 0.9806
vn 0.0305 -0.1936 0.9806
vn -0.0016 -0.0007 1.0000
vn 0.1695 -0.9855 -0.0000
vn 0.1557 -0.9878 -0.0000
vn 0.1381 -0.9904 -0.0000
vn -0.0332 0.1931 -0.9806
vn -0.0306 0.1936 -0.9806
vn -0.1695 0.9855 -0.0000
vn -0.1557 0.9878 -0.0000
vn -0.1382 0.9904 -0.0000
vn -0.0332 0.1931 0.9806
vn -0.0272 0.1941 0.9806
vn 0.0017 -0.0003 -1.0000
vn 0.0187 -0.1952 -0.9806
vn 0.0218 -0.1949 0.9806
vn -0.0016 -0.0006 1.0000
vn 0.1115 -0.9938 -0.0000
vn 0.0949 -0.9955 -0.0000
vn -0.0219 0.1949 -0.9806
vn -0.1114 0.9938 -0.0000
vn -0.0950 0.9955 -0.0000
vn -0.0187 0.1952 0.9806
vn 0.0019 0.0032 -1.0000
vn 0.0091 -0.1921 -0.9813
vn 0.0130 -0.1957 0.9806
vn -0.0024 0.0327 0.9995
vn 0.0660 -0.9978 -0.0000
vn 0.0453 -0.9990 -0.0000
vn -0.0126 0.1957 -0.9806
vn -0.0542 0.9985 -0.0000
vn -0.0106 0.1958 0.9806
vn 0.0059 -0.1902 0.9817
vn -0.0007 0.0197 0.9998
vn 0.0292 -0.9996 -0.0000
vn -0.0064 0.2071 0.9783
vn -0.0263 0.9997 -0.0000
vn -0.0064 0.2071 -0.9783
vn -0.0001 -0.0526 -0.9986
vn 0.0054 -0.1845 -0.9828
vn 0.9999 -0.0132 -0.0000
vn -0.9726 -0.2326 -0.0000
vn 0.0414 -0.9991 -0.0000
vn -1.0000 0.0076 -0.0000
vn 0.0096 -0.2312 -0.9729
vn 0.0009 0.0739 -0.9973
vn -0.0001 -0.0736 -0.9973
vn -0.0007 0.0846 0.9964
vn -0.0003 -0.0842 0.9964
vn 0.0096 -0.2312 0.9729
vn 0.9997 -0.0247 -0.0000
vn -0.0096 0.2312 0.9729
vn -0.0414 0.9991 -0.0000
vn -0.0096 0.2312 -0.9729
vt 0.352875 0.633003
vt 0.487720 0.624855
vt 0.488281 0.599537
vt 0.352092 0.606343
vt 0.487645 0.574219
vt 0.351308 0.579684
vt 0.240814 0.597448
vt 0.138009 0.623971
vt 0.140166 0.650346
vt 0.242306 0.623994
vt 0.243799 0.650540
vt 0.142322 0.676721
vt 0.017551 0.722656
vt 0.011719 0.669544
vt 0.014008 0.696362
vt 0.016650 0.722656
vt 0.014184 0.699027
vt 0.139093 0.650501
vt 0.140917 0.674377
vt 0.011719 0.675397
vt 0.137269 0.626624
vt 0.241684 0.622251
vt 0.242951 0.646281
vt 0.240416 0.598221
vt 0.351952 0.603328
vt 0.352622 0.627461
vt 0.351283 0.579196
vt 0.488281 0.621609
vt 0.488281 0.595868
vt 0.488281 0.574219
vt 0.628906 0.511340
vt 0.628906 0.394910
vt 0.687500 0.542969
vt 0.687500 0.363281
vt 0.746094 0.394910
vt 0.746094 0.511340
vt 0.629684 0.397023
vt 0.628906 0.397023
vt 0.628906 0.509225
vt 0.687088 0.542969
vt 0.687889 0.542969
vt 0.629684 0.509225
vt 0.687889 0.363281
vt 0.687088 0.363281
vt 0.745271 0.397025
vt 0.746094 0.509227
vt 0.746094 0.397025
vt 0.745271 0.509227
s 1
f 175/94/210 172/95/211 173/94/212
f 172/95/211 174/95/211 173/94/212
f 178/96/213 174/95/214 172/95/214
f 172/95/215 175/94/216 176/97/217
f 177/96/218 172/95/215 176/97/217
f 177/96/219 178/96/213 172/95/214
f 178/96/220 180/98/221 179/97/222
f 174/95/223 178/96/220 179/97/222
f 180/98/224 178/96/213 177/96/219
f 181/98/224 180/98/224 177/96/219
f 180/98/225 181/98/225 182/99/226
f 180/98/221 182/99/227 179/97/222
f 182/99/227 183/100/228 179/97/222
f 185/100/229 183/100/230 182/99/226
f 181/98/225 184/99/226 182/99/226
f 184/99/226 185/100/229 182/99/226
f 185/100/229 186/101/231 183/100/230
f 187/102/232 186/101/233 185/100/234
f 188/103/235 187/102/232 185/100/234
f 188/103/235 185/100/234 184/99/236
f 176/97/217 188/103/235 184/99/236
f 189/104/237 188/103/235 176/97/217
f 190/105/238 187/102/232 188/103/235
f 189/104/237 190/105/238 188/103/235
f 192/106/239 191/106/239 190/105/240
f 190/105/238 191/106/241 187/102/232
f 193/105/242 192/106/239 190/105/240
f 193/105/242 190/105/240 189/104/243
f 194/102/244 193/105/245 195/104/246
f 192/106/247 193/105/245 194/102/244
f 195/104/248 193/105/242 189/104/243
f 196/103/249 194/102/244 195/104/246
f 195/104/248 189/104/243 175/94/210
f 196/103/249 195/104/246 173/94/250
f 173/94/212 195/104/248 175/94/210
f 183/100/228 196/103/249 179/97/222
f 183/100/228 197/101/251 196/103/249
f 197/101/251 194/102/244 196/103/249
f 179/97/222 196/103/249 173/94/250
f 186/101/231 197/101/252 183/100/230
f 186/101/231 198/107/253 197/101/252
f 198/107/253 199/107/253 197/101/252
f 197/101/251 199/107/254 194/102/244
f 200/108/255 199/107/256 198/107/256
f 199/107/254 200/108/257 194/102/244
f 201/108/258 200/108/255 198/107/256
f 192/106/259 200/108/255 201/108/258
f 200/108/257 192/106/247 194/102/244
f 191/106/259 192/106/259 201/108/258
f 191/106/241 201/108/260 187/102/232
f 201/108/260 198/107/261 187/102/232
f 198/107/261 186/101/233 187/102/232
f 175/94/216 189/104/237 176/97/217
f 184/99/236 181/98/262 176/97/217
f 181/98/262 177/96/218 176/97/217
f 173/94/250 174/95/223 179/97/222
f 208/109/263 212/110/264 218/111/265
f 214/112/266 208/109/263 218/111/265
f 213/110/267 210/109/268 216/112/269
f 219/111/270 213/110/267 216/112/269
f 210/109/271 208/109/271 214/112/272
f 216/112/273 210/109/271 214/112/272
f 212/110/264 209/113/274 215/114/275
f 218/111/265 212/110/264 215/114/275
f 209/113/276 211/113/276 217/114/277
f 215/114/278 209/113/276 217/114/277
f 211/113/279 213/110/267 219/111/270
f 217/114/280 211/113/279 219/111/270
f 214/112/266 218/111/265 224/115/281
f 220/116/282 214/112/266 224/115/281
f 219/111/270 216/112/269 222/116/283
f 225/115/284 219/111/270 222/116/283
f 216/112/273 214/112/272 220/116/285
f 222/116/286 216/112/273 220/116/285
f 218/111/265 215/114/275 221/117/287
f 224/115/281 218/111/265 221/117/287
f 215/114/278 217/114/277 223/117/288
f 221/117/289 215/114/278 223/117/288
f 217/114/280 219/111/270 225/115/284
f 223/117/290 217/114/280 225/115/284
f 220/116/282 224/115/281 230/118/291
f 226/119/292 220/116/282 230/118/291
f 225/115/284 222/116/283 228/119/293
f 231/118/294 225/115/284 228/119/293
f 222/116/286 220/116/285 226/119/295
f 228/119/296 222/116/286 226/119/295
f 224/115/281 221/117/287 227/120/297
f 230/118/291 224/115/281 227/120/297
f 221/117/289 223/117/288 229/120/298
f 227/120/298 221/117/289 229/120/298
f 223/117/290 225/115/284 231/118/294
f 229/120/299 223/117/290 231/118/294
f 204/121/300 207/122/301 231/118/294
f 228/119/293 204/121/300 231/118/294
f 202/121/302 204/121/302 228/119/296
f 226/119/295 202/121/302 228/119/296
f 205/123/303 229/120/299 231/118/294
f 207/122/301 205/123/303 231/118/294
f 203/123/304 227/120/298 229/120/298
f 205/123/304 203/123/304 229/120/298
f 203/123/305 206/122/306 230/118/291
f 227/120/297 203/123/305 230/118/291
f 206/122/306 202/121/307 226/119/292
f 230/118/291 206/122/306 226/119/292
f 205/123/308 207/122/308 206/122/308
f 203/123/308 205/123/308 206/122/308
f 207/122/308 204/121/308 202/121/308
f 206/122/308 207/122/308 202/121/308
f 232/124/309 234/125/309 233/126/309
f 234/125/309 235/127/309 233/126/309
f 235/127/309 236/128/309 237/129/309
f 233/126/309 235/127/309 237/129/309
f 243/130/310 239/131/310 238/132/310
f 239/131/311 240/133/311 238/132/311
f 238/132/312 240/133/313 241/134/314
f 242/135/312 238/132/312 241/134/314
f 242/135/310 243/130/310 238/132/310
f 245/136/315 244/137/316 243/130/317
f 244/137/316 239/131/317 243/130/317
f 242/135/318 241/134/318 243/130/318
f 245/136/318 243/130/318 241/134/318
f 248/138/319 244/137/316 245/136/315
f 246/139/318 245/136/318 241/134/318
f 246/139/318 247/140/318 245/136/318
f 247/140/319 248/138/319 245/136/315
f 249/141/320 248/138/320 247/140/320
f 249/141/311 240/133/311 248/138/311
f 248/138/311 240/133/311 244/137/311
f 240/133/313 249/141/321 246/139/321
f 246/139/320 249/141/320 247/140/320
f 241/134/314 240/133/313 246/139/321
f 240/133/311 239/131/311 244/137/311
o item_blade
v 26.590300 22.520599 11.862098
v 26.590300 22.520599 5.647598
v 33.175800 18.257101 13.730999
v 34.370899 19.927902 13.730998
v 27.751900 24.144600 11.862098
v 27.751900 24.144600 5.647598
v 34.370899 19.927900 3.778699
v 33.175800 18.257099 3.778699
v 39.761299 13.993600 5.647699
v 39.761299 13.993601 11.862199
v 40.990002 15.711200 5.647699
v 40.990002 15.711201 11.862199
v 0.000000 70.710701 -0.000005
v 70.710701 0.000000 0.000000
v 0.000000 55.656200 3.999996
v -55.656101 0.000000 4.000000
v -70.710701 0.000000 0.000000
v 0.000000 -55.656101 4.000004
v 0.000000 -70.710602 0.000005
v 55.656200 0.000000 4.000000
v 0.000000 70.710701 -0.000005
v 0.000000 55.656200 -4.000004
v 70.710701 0.000000 0.000000
v -55.656101 -0.000000 -4.000000
v -70.710701 0.000000 0.000000
v 0.000000 -55.656101 -3.999996
v 0.000000 -70.710602 0.000005
v 55.656200 -0.000000 -4.000000
v 0.000000 70.710701 -0.000005
v 70.710701 0.000000 0.000000
v 0.000000 55.656200 3.999996
v -55.656101 0.000000 4.000000
v -70.710701 0.000000 0.000000
v 0.000000 -55.656101 4.000004
v 0.000000 -70.710602 0.000005
v 55.656200 0.000000 4.000000
v 0.000000 70.710701 -0.000005
v 0.000000 55.656200 -4.000004
v 70.710701 0.000000 0.000000
v -55.656101 -0.000000 -4.000000
v -70.710701 0.000000 0.000000
v 0.000000 -55.656101 -3.999996
v 0.000000 -70.710602 0.000005
v 55.656200 -0.000000 -4.000000
v 0.000000 70.710701 -0.000005
v 70.710701 0.000000 0.000000
v 0.000000 55.656200 3.999996
v -55.656101 0.000000 4.000000
v -70.710701 0.000000 0.000000
v 0.000000 -55.656101 4.000004
v 0.000000 -70.710602 0.000005
v 55.656200 0.000000 4.000000
v 0.000000 70.710701 -0.000005
v 0.000000 55.656200 -4.000004
v 70.710701 0.000000 0.000000
v -55.656101 -0.000000 -4.000000
v -70.710701 0.000000 0.000000
v 0.000000 -55.656101 -3.999996
v 0.000000 -70.710602 0.000005
v 55.656200 -0.000000 -4.000000
v -46.676559 46.324772 11.839537
v -74.329185 84.676247 19.346458
v -74.329185 84.676247 11.839534
v -46.676449 46.324776 19.346460
v -45.763588 44.960823 19.346460
v -45.763474 44.960831 11.839537
v -55.513004 40.023823 9.683679
v -81.825066 79.331238 9.683676
v -54.600033 38.659874 9.683679
v -63.008770 34.678822 11.839538
v -89.320831 73.986237 11.839535
v -63.008770 34.678822 19.346462
v -89.320831 73.986237 19.346458
v -81.824951 79.331238 21.502319
v -55.513008 40.023708 21.502321
v -54.600033 38.659874 21.502321
v -62.095795 33.314873 19.346462
v -62.095795 33.314873 11.839538
v -46.573372 41.510929 14.797326
v -21.976330 -2.456677 14.654785
v -53.077000 37.054630 14.654782
v -15.567611 2.117404 14.797329
v -46.573372 41.510929 16.388672
v -15.567611 2.117404 16.388676
v -53.077000 37.054630 16.531219
v -21.976330 -2.456677 16.531221
v -59.580509 32.598572 15.593000
v -28.384825 -7.030636 15.593004
v 9.157693 -32.500862 14.654788
v 2.847971 -37.170773 15.593006
v 35.778366 -62.558830 15.593008
v 41.983711 -57.808475 14.654790
v 9.157696 -32.500980 16.531223
v 15.467295 -27.831295 16.388678
v 41.983711 -57.808475 16.531225
v 48.188705 -53.058338 16.388680
v 77.399132 -80.253258 16.531227
v 72.769806 -85.479446 15.593010
v 86.911247 -76.916367 16.388681
v 82.168945 -83.142754 15.593010
v 86.911140 -76.916359 14.797335
v 77.399132 -80.253258 14.654791
v 90.705818 -79.285316 15.593009
v 48.188705 -53.058338 14.797333
v 15.467295 -27.831295 14.797331
v -54.550121 38.596401 15.979269
v -47.691227 28.277649 28.908428
v -40.785458 35.024879 27.307016
v -37.567951 42.729218 22.670311
v -38.900909 49.326103 16.240637
v -44.427040 53.048027 9.740952
v -52.665653 52.897697 4.912987
v -61.409191 48.915138 3.050184
v -68.313042 42.167427 4.653041
v -71.531303 34.463902 9.288722
v -70.199417 27.866686 15.717939
v -64.672806 24.145720 22.217075
v -56.434402 24.297087 27.044138
v -64.210846 23.484308 21.444830
v -55.972130 23.634569 26.273039
v -47.228691 27.617044 28.135820
v -54.087673 37.935787 15.206699
v -52.203384 52.235126 4.141809
v -60.946651 48.254528 2.277581
v -67.852417 41.507298 3.878992
v -71.069832 33.803051 8.515711
v -40.324776 34.364769 26.532904
v -69.736885 27.206079 14.945332
v -37.106541 42.068352 21.897276
v -38.438377 48.665497 15.468027
v -43.965145 52.386524 8.968751
v -48.378101 43.891602 14.049597
v -45.475899 39.865200 17.136396
v -48.378201 43.891602 17.136396
v -45.475899 39.865200 14.049597
v -55.037899 39.283600 13.773597
v -52.135700 35.257099 13.773597
v -60.990002 35.165298 14.577897
v -60.990002 35.165298 16.608099
v -58.087700 31.138903 14.577898
v -58.087799 31.138903 16.608099
v -55.037899 39.283501 17.412395
v -52.135700 35.257099 17.412397
v 63.118534 49.269592 11.466396
v 34.321133 14.918979 6.043399
v 63.118534 49.269592 6.043396
v 34.321133 14.918980 11.466399
v 70.364655 45.329685 12.939496
v 70.364655 45.329685 4.570297
v 41.422897 10.808463 4.570299
v 77.610779 41.389881 6.043396
v 77.610779 41.389881 11.466397
v 48.524429 6.698049 6.043399
v 20.847347 -19.530752 6.043401
v 48.524429 6.698049 11.466399
v 20.847347 -19.530752 11.466402
v -8.110917 -42.188877 11.466403
v -14.907106 -37.814369 12.939503
v 13.895069 -15.278709 12.939501
v -21.702938 -33.440197 11.466403
v 41.422897 10.808464 12.939499
v 6.942914 -11.026767 11.466401
v -21.702938 -33.440197 6.043402
v 6.942914 -11.026768 6.043401
v 13.895069 -15.278710 4.570301
v -14.907106 -37.814369 4.570303
v -8.110917 -42.188877 6.043403
v -47.615910 -67.453354 6.043405
v -54.210705 -62.949566 4.570305
v -60.805496 -58.445869 6.043404
v -60.805496 -58.445869 11.466405
v -54.210705 -62.949566 12.939505
v -47.615910 -67.453354 11.466405
v -59.530998 -58.415699 11.466405
v -53.878399 -62.941700 12.939505
v -59.530998 -58.415699 6.043404
v -53.878399 -62.941700 4.570305
v -48.225800 -67.467796 11.466405
v -48.225800 -67.467796 6.043405
vn -0.8134 0.5818 -0.0000
vn -0.5435 -0.8394 -0.0000
vn -0.1887 0.1350 0.9727
vn 0.0644 -0.0461 0.9969
vn -0.0644 0.0461 0.9969
vn 0.0644 -0.0461 -0.9969
vn -0.0644 0.0461 -0.9969
vn -0.1887 0.1350 -0.9727
vn 0.5373 0.8434 -0.0000
vn 0.1887 -0.1350 -0.9727
vn 0.8133 -0.5818 -0.0000
vn 0.1887 -0.1350 0.9727
vn 0.2559 0.0853 0.9629
vn -0.0853 0.2559 0.9629
vn 0.0639 0.1919 0.9793
vn -0.1532 0.0510 0.9869
vn -0.2558 -0.0853 0.9629
vn -0.0639 -0.1919 0.9793
vn 0.0853 -0.2559 0.9629
vn 0.1531 -0.0510 0.9869
vn 0.0639 0.1919 -0.9793
vn -0.1531 0.0510 -0.9869
vn -0.0853 0.2559 -0.9629
vn 0.2559 0.0853 -0.9629
vn -0.2558 -0.0853 -0.9629
vn -0.0639 -0.1919 -0.9793
vn 0.0853 -0.2559 -0.9629
vn 0.1532 -0.0510 -0.9869
vn 0.8212 0.5706 -0.0000
vn 0.8212 0.5707 -0.0000
vn 0.8111 0.5849 -0.0000
vn 0.1600 0.1112 -0.9808
vn 0.0153 0.0108 -0.9998
vn 0.1738 0.1198 -0.9775
vn 0.8310 0.5562 -0.0000
vn 0.8310 0.5563 -0.0000
vn 0.1620 0.1084 -0.9808
vn 0.0036 0.0024 -1.0000
vn -0.1896 -0.1269 -0.9736
vn -0.0757 -0.0532 -0.9957
vn -0.8310 -0.5563 -0.0000
vn -0.5806 0.8142 -0.0000
vn -0.0597 -0.0427 0.9973
vn -0.1895 -0.1269 0.9736
vn -0.1896 -0.1269 0.9736
vn -0.0100 -0.0053 0.9999
vn 0.1738 0.1198 0.9775
vn 0.0411 0.0300 0.9987
vn 0.1605 0.1104 0.9808
vn -0.8310 -0.5562 -0.0000
vn 0.1620 0.1084 0.9808
vn 0.0135 0.0123 -0.9998
vn -0.0205 -0.0185 -0.9996
vn 0.0142 0.0112 -0.9998
vn -0.0578 -0.0453 -0.9973
vn 0.7411 0.6714 -0.0000
vn 0.7858 0.6185 -0.0000
vn 0.7418 0.6706 -0.0000
vn 0.7417 0.6707 -0.0000
vn 0.0135 0.0123 0.9998
vn 0.0142 0.0112 0.9998
vn -0.0217 -0.0174 0.9996
vn -0.0545 -0.0493 0.9973
vn -0.0931 -0.0732 0.9930
vn -0.0887 -0.0794 0.9929
vn -0.0931 -0.0733 0.9930
vn -0.0884 -0.0798 -0.9929
vn -0.0931 -0.0733 -0.9930
vn -0.0345 -0.0381 -0.9987
vn -0.0780 -0.0940 -0.9925
vn -0.0807 -0.0904 0.9926
vn -0.0394 -0.0543 -0.9977
vn -0.0714 -0.1066 -0.9917
vn -0.0724 -0.1044 0.9919
vn -0.0329 -0.0402 0.9987
vn 0.0121 0.0142 0.9998
vn -0.0220 -0.0317 0.9993
vn 0.0025 -0.1002 0.9950
vn 0.0105 0.0156 0.9998
vn -0.0071 -0.1709 0.9853
vn 0.0740 -0.2001 0.9770
vn 0.0589 -0.1212 0.9909
vn 0.0025 -0.1002 -0.9950
vn 0.0589 -0.1212 -0.9909
vn 0.0740 -0.2001 -0.9770
vn 0.0861 -0.1905 -0.9779
vn -0.0071 -0.1709 -0.9853
vn 0.0861 -0.1905 0.9779
vn 0.5269 0.8499 -0.0000
vn 0.5264 0.8502 -0.0000
vn 0.5296 0.8483 -0.0000
vn 0.0107 0.0154 -0.9998
vn 0.5829 0.8126 -0.0000
vn 0.5536 0.8328 -0.0000
vn 0.6391 0.7691 -0.0000
vn 0.0121 0.0142 -0.9998
vn 0.6676 0.7445 -0.0000
vn -0.4162 0.5901 0.6918
vn -0.5806 -0.7567 0.3006
vn -0.4293 -0.7965 0.4258
vn -0.1283 -0.7890 0.6008
vn 0.0034 -0.7574 0.6530
vn 0.3298 -0.6110 0.7197
vn 0.4347 -0.5391 0.7213
vn 0.4162 -0.5901 -0.6918
vn 0.5810 0.7565 -0.3004
vn 0.4290 0.7965 -0.4261
vn 0.1288 0.7891 -0.6006
vn 0.7728 0.6301 -0.0763
vn -0.0042 0.7571 -0.6532
vn 0.8664 0.4892 0.1002
vn 0.9106 0.2603 0.3211
vn 0.8905 0.1027 0.4433
vn 0.7712 -0.1782 0.6111
vn -0.8664 -0.4893 -0.1001
vn -0.7727 -0.6301 0.0764
vn -0.9106 -0.2606 -0.3209
vn 0.6930 -0.2904 0.6598
vn -0.8904 -0.1024 -0.4436
vn -0.7715 0.1778 -0.6109
vn -0.4353 0.5387 -0.7213
vn -0.6925 0.2910 -0.6601
vn -0.3291 0.6113 -0.7197
vn 0.8112 0.5847 -0.0000
vn -0.0115 -0.0083 -0.9999
vn 0.0276 0.0199 -0.9994
vn -0.0506 -0.0365 -0.9980
vn -0.0896 -0.0646 -0.9939
vn -0.8112 -0.5847 -0.0000
vn 0.5690 -0.8223 -0.0000
vn 0.5690 -0.8223 0.0001
vn -0.0506 -0.0365 0.9981
vn -0.0896 -0.0646 0.9939
vn -0.0115 -0.0083 0.9999
vn 0.0276 0.0199 0.9994
vn -0.7153 0.6989 -0.0000
vn -0.7663 0.6424 -0.0000
vn -0.7411 0.6714 -0.0000
vn 0.4777 0.8785 -0.0000
vn -0.0446 0.0234 0.9987
vn -0.1374 0.1152 0.9838
vn -0.1339 0.1223 0.9834
vn 0.0119 -0.0113 -0.9999
vn 0.1374 -0.1152 -0.9838
vn 0.0190 -0.0214 -0.9996
vn -0.1374 0.1152 -0.9838
vn 0.7663 -0.6425 -0.0000
vn 0.7283 -0.6853 -0.0000
vn 0.1326 -0.1233 -0.9835
vn 0.1240 -0.1382 -0.9826
vn 0.6649 -0.7470 -0.0000
vn 0.6405 -0.7679 -0.0000
vn 0.5916 -0.8062 -0.0000
vn 0.0004 0.0021 1.0000
vn 0.1094 -0.1591 0.9812
vn 0.1199 -0.1431 0.9824
vn 0.0015 0.0021 1.0000
vn 0.1301 -0.1264 0.9834
vn -0.1235 0.1397 0.9825
vn -0.1134 0.1557 0.9813
vn 0.0016 0.0023 1.0000
vn -0.5916 0.8062 -0.0000
vn -0.5645 0.8254 -0.0000
vn -0.6405 0.7679 -0.0000
vn -0.6649 0.7470 -0.0000
vn -0.0031 -0.0038 -1.0000
vn -0.1192 0.1447 -0.9823
vn -0.1293 0.1281 -0.9833
vn -0.0030 -0.0030 -1.0000
vn -0.1089 0.1607 -0.9810
vn -0.0510 0.0698 -0.9963
vn 0.1139 -0.1540 -0.9815
vn 0.1059 -0.1656 -0.9805
vn -0.1059 0.1656 -0.9805
vn -0.5387 0.8425 -0.0000
vn -0.1059 0.1656 0.9805
vn 0.0404 -0.0347 0.9986
vn 0.1059 -0.1656 0.9805
vn 0.5388 -0.8425 -0.0000
vn 0.5646 -0.8254 -0.0000
vn 0.1374 -0.1152 0.9838
vn -0.6250 -0.7806 -0.0000
vt 0.638360 0.363281
vt 0.628906 0.392028
vt 0.682500 0.467499
vt 0.692226 0.437923
vt 0.736094 0.542969
vt 0.746094 0.512565
vt 0.976562 0.023438
vt 0.095226 0.374655
vt 0.095226 0.374655
vt 0.363281 0.482039
vt 0.055192 0.405964
vt 0.085714 0.371094
vt 0.085714 0.371094
vt 0.329321 0.508598
vt 0.295360 0.535156
vt 0.045679 0.402403
vt 0.021231 0.432522
vt 0.329321 0.508597
vt 0.055191 0.405964
vt 0.011719 0.428961
vt 0.151345 0.832089
vt 0.130777 0.840408
vt 0.053453 0.761719
vt 0.032586 0.769827
vt 0.011719 0.777935
vt 0.110210 0.848726
vt 0.229324 0.893967
vt 0.209069 0.902456
vt 0.333393 0.938984
vt 0.313470 0.947617
vt 0.229324 0.893967
vt 0.249578 0.885478
vt 0.445800 0.978816
vt 0.353316 0.930352
vt 0.430892 0.988281
vt 0.460942 0.983941
vt 0.476237 0.972677
vt 0.476236 0.972677
vt 0.488281 0.976880
vt 0.454238 0.375317
vt 0.498319 0.363281
vt 0.498320 0.453125
vt 0.542401 0.375317
vt 0.574672 0.408202
vt 0.586483 0.453125
vt 0.574672 0.498048
vt 0.542401 0.530933
vt 0.498319 0.542969
vt 0.454238 0.530933
vt 0.421968 0.498048
vt 0.410156 0.453125
vt 0.421968 0.408204
vt 0.425328 0.408204
vt 0.457599 0.375317
vt 0.501680 0.363281
vt 0.501680 0.453125
vt 0.501680 0.542969
vt 0.545762 0.530933
vt 0.578032 0.498048
vt 0.457598 0.530933
vt 0.425328 0.498048
vt 0.545762 0.375317
vt 0.413517 0.453125
vt 0.578032 0.408202
vt 0.589844 0.453125
vt 0.746094 0.420014
vt 0.724172 0.363281
vt 0.724171 0.363281
vt 0.673866 0.428209
vt 0.695788 0.484943
vt 0.628906 0.486236
vt 0.650829 0.542969
vt 0.650828 0.542969
vt 0.673866 0.428210
vt 0.339170 0.617919
vt 0.438130 0.574219
vt 0.463206 0.579277
vt 0.488281 0.584336
vt 0.363750 0.623195
vt 0.388328 0.628470
vt 0.293124 0.661814
vt 0.193447 0.690595
vt 0.169919 0.684984
vt 0.269059 0.656358
vt 0.244994 0.650903
vt 0.146392 0.679374
vt 0.034553 0.716881
vt 0.057387 0.722656
vt 0.011719 0.711106
vt 0.628906 0.363281
vt 0.687500 0.453124
vt 0.746094 0.542969
s 1
f 255/142/322 251/143/322 250/143/322
f 251/143/323 252/144/323 250/143/323
f 250/143/324 252/144/325 253/145/326
f 254/142/324 250/143/324 253/145/326
f 254/142/322 255/142/322 250/143/322
f 256/145/327 257/144/328 255/142/329
f 256/145/330 255/142/330 253/145/330
f 254/142/330 253/145/330 255/142/330
f 257/144/328 251/143/329 255/142/329
f 252/144/323 251/143/323 257/144/323
f 258/146/331 257/144/328 256/145/327
f 258/146/323 252/144/323 257/144/323
f 259/146/332 258/146/332 260/147/332
f 259/146/323 252/144/323 258/146/323
f 260/147/331 258/146/331 256/145/327
f 261/147/330 260/147/330 256/145/330
f 261/147/332 259/146/332 260/147/332
f 252/144/325 259/146/333 261/147/333
f 253/145/326 252/144/325 261/147/333
f 261/147/330 256/145/330 253/145/330
f 263/148/334 262/148/335 264/148/336
f 264/148/336 262/148/335 265/148/337
f 262/148/335 266/148/338 265/148/337
f 265/148/337 266/148/338 267/148/339
f 266/148/338 268/148/340 267/148/339
f 268/148/340 263/148/334 269/148/341
f 267/148/339 268/148/340 269/148/341
f 269/148/341 263/148/334 264/148/336
f 264/148/336 265/148/337 269/148/341
f 265/148/337 267/148/339 269/148/341
f 271/148/342 273/148/343 270/148/344
f 271/148/342 270/148/344 272/148/345
f 273/148/343 274/148/346 270/148/344
f 273/148/343 275/148/347 274/148/346
f 275/148/347 276/148/348 274/148/346
f 277/148/349 272/148/345 276/148/348
f 275/148/347 277/148/349 276/148/348
f 271/148/342 277/148/349 273/148/343
f 277/148/349 271/148/342 272/148/345
f 277/148/349 275/148/347 273/148/343
f 279/148/334 278/148/335 280/148/336
f 280/148/336 278/148/335 281/148/337
f 278/148/335 282/148/338 281/148/337
f 281/148/337 282/148/338 283/148/339
f 282/148/338 284/148/340 283/148/339
f 284/148/340 279/148/334 285/148/341
f 283/148/339 284/148/340 285/148/341
f 280/148/336 281/148/337 285/148/341
f 285/148/341 279/148/334 280/148/336
f 281/148/337 283/148/339 285/148/341
f 287/148/342 289/148/343 286/148/344
f 287/148/342 286/148/344 288/148/345
f 289/148/343 290/148/346 286/148/344
f 289/148/343 291/148/347 290/148/346
f 291/148/347 292/148/348 290/148/346
f 293/148/349 288/148/345 292/148/348
f 291/148/347 293/148/349 292/148/348
f 293/148/349 287/148/342 288/148/345
f 287/148/342 293/148/349 289/148/343
f 293/148/349 291/148/347 289/148/343
f 295/148/334 294/148/335 296/148/336
f 296/148/336 294/148/335 297/148/337
f 294/148/335 298/148/338 297/148/337
f 297/148/337 298/148/338 299/148/339
f 298/148/338 300/148/340 299/148/339
f 300/148/340 295/148/334 301/148/341
f 299/148/339 300/148/340 301/148/341
f 301/148/341 295/148/334 296/148/336
f 296/148/336 297/148/337 301/148/341
f 297/148/337 299/148/339 301/148/341
f 303/148/342 305/148/343 302/148/344
f 303/148/342 302/148/344 304/148/345
f 305/148/343 306/148/346 302/148/344
f 305/148/343 307/148/347 306/148/346
f 307/148/347 308/148/348 306/148/346
f 309/148/349 304/148/345 308/148/348
f 307/148/347 309/148/349 308/148/348
f 303/148/342 309/148/349 305/148/343
f 309/148/349 303/148/342 304/148/345
f 309/148/349 307/148/347 305/148/343
f 313/149/350 310/150/351 311/151/352
f 310/150/351 312/151/352 311/151/352
f 310/150/353 316/152/354 312/151/355
f 310/150/351 313/149/350 314/153/356
f 315/154/357 310/150/351 314/153/356
f 316/152/354 310/150/353 315/154/358
f 317/155/359 316/152/354 320/156/360
f 316/152/354 317/155/359 312/151/355
f 318/157/361 316/152/354 315/154/358
f 319/158/360 316/152/354 318/157/361
f 316/152/354 319/158/360 320/156/360
f 319/158/362 321/158/362 320/156/362
f 321/158/362 322/156/362 320/156/362
f 317/155/363 320/156/363 322/156/363
f 323/159/364 322/156/365 321/158/366
f 323/159/363 317/155/363 322/156/363
f 312/151/363 317/155/363 323/159/363
f 324/160/367 323/159/364 321/158/366
f 311/151/368 323/159/364 324/160/367
f 311/151/363 312/151/363 323/159/363
f 324/160/367 321/158/366 326/161/366
f 325/157/369 324/160/367 326/161/366
f 313/149/370 324/160/367 325/157/369
f 313/149/370 311/151/368 324/160/367
f 326/161/362 321/158/362 327/161/371
f 321/158/362 319/158/362 327/161/371
f 327/161/360 319/158/360 318/157/361
f 314/153/372 313/149/370 325/157/369
f 331/162/373 329/163/374 328/164/375
f 329/163/374 330/165/376 328/164/375
f 331/162/377 328/164/378 332/164/378
f 333/162/379 331/162/380 332/164/378
f 333/162/381 332/164/382 334/165/383
f 335/163/384 333/162/381 334/165/383
f 335/163/384 334/165/383 336/166/385
f 337/167/386 335/163/384 336/166/387
f 337/167/388 336/166/389 330/165/376
f 329/163/374 337/167/388 330/165/376
f 329/163/374 338/168/390 337/167/388
f 338/168/390 339/169/391 337/167/388
f 337/167/386 339/169/392 335/163/384
f 341/170/393 340/171/394 339/169/391
f 339/169/392 340/171/395 342/172/396
f 338/168/390 341/170/393 339/169/391
f 339/169/392 342/172/396 335/163/384
f 342/172/396 343/173/397 333/162/381
f 342/172/396 344/170/398 343/173/397
f 340/171/395 344/170/398 342/172/396
f 335/163/384 342/172/396 333/162/381
f 346/174/399 344/170/398 340/171/395
f 344/170/398 345/175/400 343/173/397
f 344/170/398 346/174/399 345/175/400
f 347/176/401 346/174/399 340/171/395
f 346/174/399 347/176/401 349/177/402
f 346/174/399 348/178/403 345/175/400
f 348/178/403 346/174/399 349/177/402
f 351/174/404 350/179/405 349/177/406
f 350/179/405 352/180/407 349/177/406
f 347/176/408 351/174/404 349/177/406
f 352/180/409 348/178/403 349/177/402
f 350/179/410 348/178/411 352/180/412
f 350/179/405 351/174/404 353/175/413
f 351/174/404 347/176/408 340/171/394
f 351/174/404 341/170/393 353/175/413
f 341/170/393 351/174/404 340/171/394
f 353/175/413 341/170/393 338/168/390
f 345/175/414 353/175/415 354/173/416
f 345/175/414 348/178/411 353/175/415
f 354/173/417 353/175/413 338/168/390
f 348/178/411 350/179/410 353/175/415
f 343/173/418 345/175/414 354/173/416
f 354/173/417 338/168/390 329/163/374
f 343/173/418 354/173/416 331/162/380
f 331/162/373 354/173/417 329/163/374
f 333/162/379 343/173/418 331/162/380
f 367/181/419 356/182/419 355/183/419
f 356/182/419 357/184/419 355/183/419
f 357/184/419 358/185/419 355/183/419
f 358/185/419 359/186/419 355/183/419
f 359/186/419 360/187/419 355/183/419
f 360/187/419 361/188/419 355/183/419
f 361/188/419 362/189/419 355/183/419
f 362/189/419 363/190/419 355/183/419
f 363/190/419 364/191/419 355/183/419
f 364/191/419 365/192/419 355/183/419
f 365/192/419 366/193/419 355/183/419
f 366/193/419 367/181/419 355/183/419
f 366/193/420 368/194/421 367/181/422
f 368/194/421 369/195/423 367/181/422
f 367/181/422 369/195/423 356/182/424
f 369/195/423 370/196/425 356/182/424
f 370/196/426 369/195/426 371/197/426
f 369/195/426 368/194/426 371/197/426
f 373/198/426 372/199/426 371/197/426
f 372/199/426 380/200/426 371/197/426
f 374/201/426 373/198/426 371/197/426
f 375/202/426 374/201/426 371/197/426
f 376/203/426 370/196/426 371/197/426
f 377/204/426 375/202/426 371/197/426
f 378/205/426 376/203/426 371/197/426
f 368/194/426 377/204/426 371/197/426
f 379/206/426 378/205/426 371/197/426
f 380/200/426 379/206/426 371/197/426
f 360/187/427 380/200/428 361/188/429
f 379/206/430 380/200/428 360/187/427
f 380/200/428 372/199/431 361/188/429
f 359/186/432 379/206/430 360/187/427
f 378/205/433 379/206/430 359/186/432
f 358/185/434 378/205/433 359/186/432
f 376/203/435 378/205/433 358/185/434
f 365/192/436 377/204/437 366/193/420
f 375/202/438 377/204/437 365/192/436
f 377/204/437 368/194/421 366/193/420
f 357/184/439 376/203/435 358/185/434
f 370/196/425 376/203/435 357/184/439
f 364/191/440 375/202/438 365/192/436
f 374/201/441 375/202/438 364/191/440
f 373/198/442 374/201/441 363/190/443
f 363/190/443 374/201/441 364/191/440
f 372/199/431 373/198/442 362/189/444
f 362/189/444 373/198/442 363/190/443
f 361/188/429 372/199/431 362/189/444
f 356/182/424 370/196/425 357/184/439
f 384/207/445 381/208/445 382/207/445
f 381/208/445 383/209/445 382/207/445
f 385/210/446 381/208/447 384/207/447
f 386/211/448 385/210/446 384/207/447
f 387/212/449 385/210/446 386/211/448
f 388/212/450 387/212/450 389/213/450
f 389/213/449 387/212/449 386/211/448
f 390/214/450 388/212/450 389/213/450
f 390/214/451 389/213/451 386/211/452
f 391/215/453 388/212/454 390/214/454
f 392/211/451 390/214/451 384/207/451
f 384/207/451 390/214/451 386/211/452
f 392/211/455 391/215/453 390/214/454
f 383/209/456 391/215/453 392/211/455
f 382/207/456 383/209/456 392/211/455
f 382/207/451 392/211/451 384/207/451
f 396/216/457 393/217/458 394/216/459
f 393/217/458 395/217/458 394/216/459
f 398/218/460 395/217/460 393/217/460
f 397/218/461 393/217/462 396/216/463
f 397/218/460 398/218/460 393/217/460
f 400/219/460 398/218/460 397/218/460
f 398/218/464 400/219/465 399/220/466
f 395/217/467 398/218/464 399/220/466
f 401/219/460 400/219/460 397/218/460
f 400/219/468 401/219/468 402/221/469
f 400/219/465 402/221/470 399/220/466
f 402/221/470 403/222/471 399/220/466
f 405/222/472 403/222/473 402/221/469
f 401/219/468 404/221/469 402/221/469
f 404/221/469 405/222/472 402/221/469
f 405/222/472 406/223/474 403/222/473
f 407/224/475 406/223/476 405/222/477
f 408/225/478 407/224/475 405/222/477
f 408/225/478 405/222/477 404/221/479
f 411/226/480 409/227/481 408/225/478
f 409/227/481 407/224/475 408/225/478
f 410/220/482 408/225/478 404/221/479
f 411/226/480 408/225/478 410/220/482
f 412/227/483 409/227/484 411/226/485
f 413/226/486 412/227/483 411/226/485
f 413/226/486 411/226/485 396/216/457
f 396/216/463 411/226/480 410/220/482
f 414/225/487 413/226/488 394/216/489
f 414/225/487 415/224/490 413/226/488
f 394/216/459 413/226/486 396/216/457
f 415/224/490 412/227/491 413/226/488
f 415/224/490 418/228/492 412/227/491
f 416/223/493 415/224/490 414/225/487
f 416/223/493 417/229/494 415/224/490
f 417/229/494 418/228/492 415/224/490
f 418/228/492 419/230/495 412/227/491
f 419/230/496 420/230/496 409/227/484
f 412/227/483 419/230/496 409/227/484
f 409/227/481 420/230/497 407/224/475
f 420/230/497 421/228/498 407/224/475
f 421/228/498 422/229/499 406/223/476
f 407/224/475 421/228/498 406/223/476
f 406/223/474 422/229/500 416/223/501
f 422/229/500 417/229/500 416/223/501
f 406/223/474 416/223/501 403/222/473
f 403/222/471 416/223/493 414/225/487
f 403/222/471 414/225/487 399/220/466
f 399/220/466 414/225/487 394/216/489
f 410/220/482 397/218/461 396/216/463
f 401/219/502 397/218/461 410/220/482
f 404/221/479 401/219/502 410/220/482
f 394/216/489 395/217/467 399/220/466
f 423/231/503 425/231/503 424/232/503
f 425/231/503 426/232/503 424/232/503
f 424/232/503 426/232/503 427/233/503
f 426/232/503 428/233/503 427/233/503
o item_damaged
v -29.153999 3.117801 15.308600
v -24.850100 -8.020700 15.206201
v -22.281900 0.038201 15.206200
v -32.607300 -7.718799 15.308601
v -29.153999 3.117701 16.452700
v -22.282000 0.038101 16.555099
v -32.607300 -7.718799 16.452700
v -24.850201 -8.020799 16.555099
v -17.092899 -8.322799 15.880601
v -15.409900 -3.041299 15.880600
v -12.769350 -27.540876 12.696838
v -63.673347 -71.074860 19.064476
v -63.673347 -71.074860 12.696842
v -12.769350 -27.540876 19.064472
v -10.961201 -26.079712 19.064472
v -10.961201 -26.079712 12.696838
v -4.809794 -36.923893 10.868075
v -56.921326 -79.034256 10.868078
v -3.001537 -35.462624 10.868075
v 1.942220 -44.883183 12.696840
v -50.169315 -86.993546 12.696843
v 1.942333 -44.883186 19.064474
v -50.169315 -86.993546 19.064476
v -56.921333 -79.034134 20.893240
v -4.809680 -36.923897 20.893236
v -3.001532 -35.462734 20.893236
v 3.750482 -43.422024 19.064474
v 3.750482 -43.422024 12.696839
v -5.951000 -27.676098 15.308602
v 42.820202 6.502701 15.206199
v -1.127600 -33.495300 15.206203
v 37.865799 12.200401 15.308599
v -5.950900 -27.676098 16.452702
v 37.865799 12.200401 16.452700
v -1.127700 -33.495300 16.555101
v 3.695500 -39.314400 15.880603
v 42.820202 6.502602 16.555099
v 47.774502 0.805101 15.880600
v -2.918277 -35.385124 16.428396
v 6.891103 -27.497980 29.562595
v -0.557678 -21.121767 27.921247
v -8.638982 -18.567478 23.200388
v -15.187535 -20.519522 16.664885
v -18.448439 -26.454689 10.066080
v -17.548061 -34.782730 5.172097
v -12.727499 -43.272205 3.294255
v -5.278484 -49.646469 4.937085
v 2.802233 -52.201576 9.656823
v 9.351036 -50.250629 16.191813
v 12.611023 -44.314930 22.790215
v 11.709635 -35.987270 27.683237
v 13.490475 -43.583759 21.695087
v 12.590099 -35.255642 26.589231
v -2.039765 -34.653320 15.332825
v 7.769621 -26.766256 28.467066
v 0.320515 -20.391951 26.824209
v -7.760180 -17.836845 22.104486
v -14.309017 -19.787798 15.569355
v -17.568962 -25.723532 8.970960
v -16.667624 -34.051098 4.078072
v -11.849062 -42.540398 2.198739
v -4.400284 -48.916607 3.840083
v 3.681097 -51.470901 8.560888
v 10.229569 -49.518925 15.096283
v -9.684300 -29.093998 14.571502
v -4.336400 -24.520699 17.189802
v -9.684300 -29.093998 17.189802
v -4.336400 -24.520597 14.571502
v -3.830000 -36.157200 14.337303
v 1.518000 -31.583899 14.337303
v 1.402200 -42.469700 15.019603
v 1.402200 -42.469700 16.741703
v 6.750000 -37.896400 15.019603
v 6.750100 -37.896400 16.741703
v -3.830000 -36.157200 17.424002
v 1.518000 -31.583899 17.424002
v -47.485100 74.001503 15.308595
v -51.311600 77.422798 15.880594
v -47.485100 74.001404 16.452694
v -42.651699 80.013397 15.880594
v -37.841202 75.811600 15.206194
v -8.435800 39.442101 15.308598
v -2.130400 43.504501 15.206197
v -8.435800 39.442101 16.452696
v 20.230400 19.849901 15.206198
v 12.789900 16.988201 15.308599
v 12.789900 16.988201 16.452698
v -2.130500 43.504601 16.555096
v 20.230400 19.849901 16.555098
v 27.671101 22.711702 15.880598
v 4.175200 47.567299 15.880596
v -37.841202 75.811600 16.555094
v -33.127602 80.726303 15.880594
v -55.002800 -4.131499 15.308600
v -48.492500 -0.307299 15.206200
v -62.818199 5.832301 15.308600
v -62.818199 5.832302 16.452700
v -55.002899 -4.131399 16.452700
v -56.299702 9.645901 16.555099
v -48.492401 -0.307499 16.555099
v -41.982101 3.516601 15.880600
v -49.781101 13.459501 15.880599
v -56.299599 9.645901 15.206199
v 19.032801 52.480801 15.308597
v 25.285299 48.283699 15.206196
v 25.472500 68.316498 15.308596
v 25.472401 68.316498 16.452694
v 19.032801 52.480801 16.452696
v 31.160200 62.730900 16.555096
v 25.285299 48.283699 16.555096
v 31.537800 44.086800 15.880597
v 36.848099 57.145100 15.880595
v 31.160200 62.730900 15.206195
v -39.834801 34.469398 15.308598
v -30.776600 22.921202 15.308599
v -32.939098 37.802299 15.206197
v -30.776600 22.921103 16.452698
v -39.834801 34.469398 16.452698
v -24.258101 26.734701 16.555098
v -32.939201 37.802299 16.555098
v -26.043501 41.135201 15.880597
v -17.739500 30.548302 15.880598
v -24.257999 26.734802 15.206198
v 65.920898 20.866402 16.452698
v 53.761101 30.418102 16.555098
v 61.289398 31.826202 16.452698
v 59.833099 16.049501 16.555098
v 65.920799 20.866402 15.308599
v 59.833000 16.049501 15.206199
v 61.289299 31.826302 15.308598
v 53.761101 30.418102 15.206198
v 53.745098 11.232301 15.880599
v 46.232800 29.010101 15.880598
v 0.000000 70.710701 -0.000005
v 70.710701 0.000000 0.000000
v 0.000000 55.656200 3.999996
v -55.656101 0.000000 4.000000
v -70.710701 0.000000 0.000000
v 0.000000 -55.656101 4.000004
v 0.000000 -70.710602 0.000005
v 55.656200 0.000000 4.000000
v 0.000000 70.710701 -0.000005
v 0.000000 55.656200 -4.000004
v 70.710701 0.000000 0.000000
v -55.656101 -0.000000 -4.000000
v -70.710701 0.000000 0.000000
v 0.000000 -55.656101 -3.999996
v 0.000000 -70.710602 0.000005
v 55.656200 -0.000000 -4.000000
v 0.000000 70.710701 -0.000005
v 70.710701 0.000000 0.000000
v 0.000000 55.656200 3.999996
v -55.656101 0.000000 4.000000
v -70.710701 0.000000 0.000000
v 0.000000 -55.656101 4.000004
v 0.000000 -70.710602 0.000005
v 55.656200 0.000000 4.000000
v 0.000000 70.710701 -0.000005
v 0.000000 55.656200 -4.000004
v 70.710701 0.000000 0.000000
v -55.656101 -0.000000 -4.000000
v -70.710701 0.000000 0.000000
v 0.000000 -55.656101 -3.999996
v 0.000000 -70.710602 0.000005
v 55.656200 -0.000000 -4.000000
v 0.000000 70.710701 -0.000005
v 70.710701 0.000000 0.000000
v 0.000000 55.656200 3.999996
v -55.656101 0.000000 4.000000
v -70.710701 0.000000 0.000000
v 0.000000 -55.656101 4.000004
v 0.000000 -70.710602 0.000005
v 55.656200 0.000000 4.000000
v 0.000000 70.710701 -0.000005
v 0.000000 55.656200 -4.000004
v 70.710701 0.000000 0.000000
v -55.656101 -0.000000 -4.000000
v -70.710701 0.000000 0.000000
v 0.000000 -55.656101 -3.999996
v 0.000000 -70.710602 0.000005
v 55.656200 -0.000000 -4.000000
vn -0.0130 0.0042 -0.9999
vn 0.0198 -0.0063 -0.9998
vn 0.0527 -0.0168 -0.9985
vn -0.9528 0.3036 -0.0000
vn 0.0199 -0.0063 0.9998
vn -0.0130 0.0042 0.9999
vn 0.0527 -0.0168 0.9985
vn 0.0855 -0.0273 0.9960
vn 0.0855 -0.0273 -0.9960
vn -0.6393 0.7690 -0.0000
vn -0.6499 0.7600 -0.0000
vn -0.0940 0.1130 -0.9891
vn -0.0089 0.0106 -0.9999
vn -0.1016 0.1230 -0.9872
vn -0.6285 0.7778 -0.0000
vn -0.0924 0.1144 -0.9891
vn -0.0016 0.0020 -1.0000
vn 0.1085 -0.1343 -0.9850
vn 0.0444 -0.0529 -0.9976
vn 0.6285 -0.7778 -0.0000
vn -0.7626 -0.6469 -0.0000
vn 0.0360 -0.0424 0.9985
vn 0.1085 -0.1343 0.9850
vn -0.1016 0.1230 0.9872
vn 0.0049 -0.0071 1.0000
vn -0.0937 0.1133 0.9891
vn -0.0251 0.0291 0.9993
vn -0.0924 0.1144 0.9891
vn -0.0091 0.0100 -0.9999
vn 0.0139 -0.0153 -0.9998
vn 0.0369 -0.0406 -0.9985
vn -0.6731 0.7396 0.0001
vn -0.6731 0.7396 -0.0000
vn -0.0091 0.0100 0.9999
vn 0.0139 -0.0152 0.9998
vn 0.0369 -0.0406 0.9985
vn 0.0139 -0.0153 0.9998
vn 0.0599 -0.0658 0.9960
vn 0.0599 -0.0658 -0.9960
vn -0.5515 -0.4662 0.6918
vn 0.7930 -0.0452 0.6076
vn 0.7578 0.0590 0.6498
vn 0.5692 0.3959 0.7206
vn 0.8031 -0.5140 0.3015
vn 0.8300 -0.3550 0.4302
vn 0.5515 0.4662 -0.6918
vn 0.5080 0.4702 0.7217
vn 0.2164 0.7243 0.6547
vn 0.1201 0.7793 0.6150
vn -0.1783 0.8790 0.4423
vn -0.3416 0.8850 0.3163
vn -0.5417 0.8318 0.1208
vn -0.7096 0.6968 -0.1040
vn -0.8300 0.3542 -0.4308
vn -0.8029 0.5147 -0.3009
vn -0.7573 -0.0605 -0.6503
vn -0.7933 0.0464 -0.6070
vn -0.5070 -0.4714 -0.7217
vn -0.5701 -0.3947 -0.7205
vn -0.2177 -0.7234 -0.6552
vn -0.1190 -0.7799 -0.6145
vn 0.1775 -0.8788 -0.4429
vn 0.3423 -0.8849 -0.3157
vn 0.5418 -0.8318 -0.1207
vn 0.7097 -0.6968 0.1041
vn 0.0069 -0.0081 -0.9999
vn -0.0166 0.0194 -0.9997
vn 0.0305 -0.0356 -0.9989
vn 0.0539 -0.0630 -0.9966
vn 0.6499 -0.7600 -0.0000
vn 0.7699 0.6381 -0.0000
vn 0.0069 -0.0081 0.9999
vn 0.0304 -0.0356 0.9989
vn 0.0539 -0.0630 0.9966
vn -0.0166 0.0194 0.9997
vn -0.0264 0.0786 -0.9966
vn -0.0372 0.1242 -0.9916
vn -0.0271 0.1305 -0.9911
vn -0.6646 -0.7472 -0.0001
vn -0.6642 -0.7475 -0.0000
vn -0.6665 -0.7455 -0.0001
vn -0.6847 -0.7288 -0.0000
vn 0.0109 0.0651 -0.9978
vn -0.0097 -0.0100 -0.9999
vn -0.7060 -0.7082 -0.0000
vn 0.0350 0.0348 -0.9988
vn 0.0154 0.0145 -0.9998
vn -0.7267 -0.6870 -0.0000
vn -0.0101 -0.0095 -0.9999
vn 0.0408 0.0386 0.9984
vn 0.0198 0.0204 0.9996
vn -0.0101 -0.0095 0.9999
vn -0.0097 -0.0100 0.9999
vn 0.0650 0.0668 0.9956
vn 0.0662 0.0626 0.9958
vn 0.0646 0.0683 -0.9956
vn 0.0273 0.1101 -0.9935
vn 0.0274 0.1101 0.9935
vn 0.0109 0.0651 0.9978
vn 0.0662 0.0626 -0.9958
vn -0.0272 0.1305 0.9911
vn -0.0264 0.0787 0.9966
vn -0.0372 0.1242 0.9916
vn 0.0164 0.0129 -0.9998
vn -0.0108 -0.0084 -0.9999
vn -0.7868 -0.6172 -0.0000
vn -0.0108 -0.0084 0.9999
vn 0.0164 0.0128 0.9998
vn 0.0436 0.0342 0.9985
vn 0.0706 0.0554 0.9960
vn 0.0706 0.0554 -0.9960
vn 0.0435 0.0341 -0.9985
vn 0.0196 -0.0080 -0.9998
vn -0.0129 0.0052 -0.9999
vn -0.9263 0.3767 -0.0001
vn -0.9263 0.3767 -0.0000
vn -0.0129 0.0052 0.9999
vn 0.0197 -0.0080 0.9998
vn 0.0520 -0.0212 0.9984
vn 0.0844 -0.0343 0.9958
vn 0.0844 -0.0343 -0.9958
vn 0.0520 -0.0212 -0.9984
vn -0.7868 -0.6172 -0.0001
vn 0.0164 0.0129 0.9998
vn 0.0435 0.0342 -0.9985
vn -0.0125 -0.0472 0.9988
vn 0.0126 0.0053 0.9999
vn -0.0572 0.0262 0.9980
vn -0.0351 -0.0148 0.9993
vn 0.9211 0.3893 -0.0001
vn 0.0126 0.0053 -0.9999
vn -0.0192 -0.0081 -0.9998
vn 0.9211 0.3893 -0.0000
vn -0.0510 -0.0215 -0.9985
vn -0.9211 -0.3892 -0.0001
vn -0.9211 -0.3892 -0.0000
vn 0.2559 0.0853 0.9629
vn -0.0853 0.2559 0.9629
vn 0.0639 0.1919 0.9793
vn -0.1532 0.0510 0.9869
vn -0.2558 -0.0853 0.9629
vn -0.0639 -0.1919 0.9793
vn 0.0853 -0.2559 0.9629
vn 0.1531 -0.0510 0.9869
vn 0.0639 0.1919 -0.9793
vn -0.1531 0.0510 -0.9869
vn -0.0853 0.2559 -0.9629
vn 0.2559 0.0853 -0.9629
vn -0.2558 -0.0853 -0.9629
vn -0.0639 -0.1919 -0.9793
vn 0.0853 -0.2559 -0.9629
vn 0.1532 -0.0510 -0.9869
vt 0.011719 0.976320
vt 0.107414 0.761719
vt 0.226681 0.982299
vt 0.297849 0.822705
vt 0.107414 0.761721
vt 0.297846 0.822707
vt 0.226678 0.982301
vt 0.441643 0.988281
vt 0.488281 0.883690
vt 0.282278 0.375129
vt 0.011719 0.495014
vt 0.320914 0.398790
vt 0.291869 0.371094
vt 0.044494 0.515085
vt 0.077269 0.535156
vt 0.330506 0.394755
vt 0.353690 0.418862
vt 0.353690 0.418862
vt 0.044494 0.515085
vt 0.320915 0.398790
vt 0.330506 0.394755
vt 0.363281 0.414826
vt 0.400388 0.761719
vt 0.444335 0.786777
vt 0.011719 0.937096
vt 0.054504 0.962689
vt 0.011720 0.937096
vt 0.054503 0.962689
vt 0.444335 0.786778
vt 0.097286 0.988281
vt 0.488281 0.811835
vt 0.453830 0.413585
vt 0.497504 0.456713
vt 0.541178 0.499841
vt 0.573150 0.531413
vt 0.584852 0.542969
vt 0.497504 0.456713
vt 0.421859 0.382013
vt 0.410156 0.370457
vt 0.458822 0.406410
vt 0.426850 0.374837
vt 0.502496 0.449537
vt 0.502496 0.449537
vt 0.546170 0.492665
vt 0.578141 0.524238
vt 0.589844 0.535793
vt 0.578141 0.524237
vt 0.415148 0.363281
vt 0.746094 0.484497
vt 0.716235 0.542969
vt 0.746093 0.484497
vt 0.670120 0.478960
vt 0.699978 0.420487
vt 0.628906 0.421753
vt 0.658765 0.363282
vt 0.658765 0.363281
vt 0.034807 0.785623
vt 0.011719 0.773461
vt 0.063970 0.764253
vt 0.034807 0.785623
vt 0.270421 0.908467
vt 0.092996 0.779188
vt 0.308466 0.894027
vt 0.443386 0.978109
vt 0.398492 0.988281
vt 0.308466 0.894026
vt 0.346513 0.879585
vt 0.488281 0.967937
vt 0.121437 0.761719
vt 0.339376 0.939028
vt 0.190472 0.988281
vt 0.011719 0.859953
vt 0.190470 0.988280
vt 0.160810 0.810836
vt 0.339378 0.939030
vt 0.488281 0.889778
vt 0.309903 0.761719
vt 0.160812 0.810836
vt 0.094266 0.908766
vt 0.176816 0.988281
vt 0.488281 0.906386
vt 0.488281 0.906387
vt 0.378421 0.834053
vt 0.011719 0.829251
vt 0.268556 0.761719
vt 0.011719 0.844634
vt 0.207091 0.988280
vt 0.207091 0.988281
vt 0.160449 0.803176
vt 0.347685 0.940844
vt 0.160446 0.803176
vt 0.488281 0.893408
vt 0.309176 0.761719
vt 0.347687 0.940843
vt 0.123193 0.831775
vt 0.234660 0.761719
vt 0.455694 0.901649
vt 0.488279 0.815016
vt 0.234660 0.761720
vt 0.123193 0.831776
vt 0.488281 0.815017
vt 0.011719 0.901833
vt 0.423112 0.988281
vt 0.976562 0.023438
s 1
f 432/234/504 429/235/504 430/236/505
f 429/235/504 431/237/506 430/236/505
f 433/238/507 429/235/507 432/234/507
f 434/239/508 433/238/509 435/234/509
f 435/234/507 433/238/507 432/234/507
f 436/240/510 434/239/508 435/234/509
f 437/241/511 438/242/511 436/240/510
f 438/242/511 434/239/508 436/240/510
f 431/237/506 438/242/512 437/241/512
f 430/236/505 431/237/506 437/241/512
f 442/243/513 439/243/513 440/244/514
f 439/243/513 441/244/514 440/244/514
f 439/243/515 445/245/516 441/244/517
f 439/243/513 442/243/513 443/246/518
f 444/246/518 439/243/513 443/246/518
f 445/245/516 439/243/515 444/246/519
f 446/247/520 445/245/516 449/248/521
f 445/245/516 446/247/520 441/244/517
f 447/249/522 445/245/516 444/246/519
f 448/250/521 445/245/516 447/249/522
f 445/245/516 448/250/521 449/248/521
f 448/250/523 450/251/523 449/248/523
f 450/251/523 451/248/523 449/248/523
f 446/247/524 449/248/524 451/248/524
f 452/252/525 451/248/526 450/251/526
f 452/252/524 446/247/524 451/248/524
f 440/244/527 452/252/525 453/253/528
f 440/244/524 441/244/524 452/252/524
f 441/244/524 446/247/524 452/252/524
f 453/253/528 452/252/525 450/251/526
f 442/243/529 440/244/527 453/253/528
f 442/243/529 453/253/528 454/254/530
f 453/253/528 450/251/526 455/255/526
f 454/254/530 453/253/528 455/255/526
f 455/255/523 450/251/523 456/255/523
f 450/251/523 448/250/523 456/255/523
f 456/255/521 448/250/521 447/249/522
f 443/246/531 442/243/529 454/254/530
f 460/256/532 458/257/533 457/258/532
f 458/257/533 459/259/534 457/258/532
f 460/256/535 457/258/535 461/260/535
f 462/256/536 460/256/536 461/260/536
f 462/256/537 461/260/537 463/261/538
f 465/262/539 463/261/540 464/263/541
f 465/262/539 462/256/537 463/261/540
f 466/264/541 465/262/539 464/263/541
f 466/264/542 464/263/542 459/259/534
f 458/257/533 466/264/542 459/259/534
f 479/265/543 468/266/543 467/266/543
f 468/266/543 469/267/543 467/266/543
f 469/267/543 470/268/543 467/266/543
f 470/268/543 471/269/543 467/266/543
f 471/269/543 472/268/543 467/266/543
f 472/268/543 473/267/543 467/266/543
f 473/267/543 474/270/543 467/266/543
f 474/270/543 475/265/543 467/266/543
f 475/265/543 476/271/543 467/266/543
f 476/271/543 477/272/543 467/266/543
f 477/272/543 478/271/543 467/266/543
f 478/271/543 479/265/543 467/266/543
f 479/265/544 481/273/545 468/266/546
f 478/271/547 480/274/548 479/265/544
f 480/274/548 481/273/545 479/265/544
f 483/275/549 481/273/549 482/276/549
f 481/273/549 480/274/549 482/276/549
f 481/273/545 483/275/550 468/266/546
f 468/266/546 483/275/550 469/267/551
f 483/275/550 484/277/552 469/267/551
f 484/277/549 483/275/549 482/276/549
f 469/267/551 484/277/552 470/268/553
f 484/277/552 485/278/554 470/268/553
f 485/278/549 484/277/549 482/276/549
f 470/268/553 485/278/554 471/269/555
f 485/278/554 486/279/556 471/269/555
f 486/279/549 485/278/549 482/276/549
f 487/280/549 486/279/549 482/276/549
f 486/279/556 487/280/557 472/268/558
f 471/269/555 486/279/556 472/268/558
f 488/277/549 487/280/549 482/276/549
f 487/280/557 488/277/559 473/267/560
f 472/268/558 487/280/557 473/267/560
f 489/276/549 488/277/549 482/276/549
f 488/277/559 489/276/561 474/270/562
f 473/267/560 488/277/559 474/270/562
f 474/270/562 489/276/561 475/265/563
f 489/276/561 490/273/564 475/265/563
f 490/273/549 489/276/549 482/276/549
f 475/265/563 490/273/564 476/271/565
f 490/273/564 491/274/566 476/271/565
f 491/274/549 490/273/549 482/276/549
f 476/271/565 491/274/566 477/272/567
f 491/274/566 492/281/568 477/272/567
f 492/281/549 491/274/549 482/276/549
f 477/272/567 492/281/568 478/271/547
f 492/281/568 480/274/548 478/271/547
f 480/274/549 492/281/549 482/276/549
f 496/282/514 493/283/514 494/284/514
f 493/283/514 495/283/514 494/284/514
f 497/285/569 493/283/570 496/282/570
f 498/286/571 497/285/569 496/282/570
f 499/287/572 497/285/569 498/286/571
f 500/287/573 499/287/573 501/288/573
f 501/288/572 499/287/572 498/286/571
f 502/289/573 500/287/573 501/288/573
f 502/289/574 501/288/574 498/286/574
f 504/286/575 503/285/576 502/289/577
f 503/285/576 500/287/577 502/289/577
f 504/286/574 502/289/574 496/282/574
f 496/282/574 502/289/574 498/286/574
f 494/284/574 504/286/574 496/282/574
f 494/284/578 495/283/578 504/286/575
f 495/283/578 503/285/576 504/286/575
f 505/290/579 506/291/580 508/292/581
f 505/290/582 507/293/583 506/291/584
f 507/293/583 505/290/582 510/294/585
f 509/295/586 505/290/579 508/292/581
f 505/290/579 509/295/586 510/294/587
f 512/294/588 507/293/583 510/294/585
f 509/295/586 511/296/589 510/294/587
f 510/294/587 511/296/589 513/297/590
f 512/294/588 510/294/585 514/298/591
f 514/298/592 510/294/587 513/297/590
f 515/298/591 512/294/588 514/298/591
f 517/297/593 516/299/594 515/298/595
f 516/299/594 512/294/596 515/298/595
f 519/300/597 516/299/594 517/297/593
f 518/301/598 519/300/597 517/297/593
f 511/296/589 509/295/586 519/300/599
f 509/295/586 521/302/600 519/300/599
f 521/302/601 520/295/602 519/300/597
f 520/295/602 516/299/594 519/300/597
f 511/296/589 519/300/599 518/301/603
f 520/295/602 521/302/601 508/292/604
f 521/302/600 509/295/586 508/292/581
f 520/295/602 507/293/605 512/294/596
f 507/293/605 520/295/602 508/292/604
f 516/299/594 520/295/602 512/294/596
f 513/297/590 511/296/589 518/301/603
f 506/291/606 507/293/605 508/292/604
f 523/303/607 522/304/608 524/305/608
f 524/305/609 522/304/609 525/305/609
f 522/304/609 526/306/609 525/305/609
f 525/305/610 526/306/610 527/307/611
f 526/306/610 528/308/612 527/307/611
f 528/308/612 529/309/613 530/310/613
f 527/307/611 528/308/612 530/310/613
f 530/310/614 529/309/614 531/311/615
f 529/309/614 523/303/607 531/311/615
f 531/311/615 523/303/607 524/305/608
f 533/312/616 532/313/617 534/314/617
f 534/314/618 532/313/619 535/315/618
f 532/313/619 536/313/619 535/315/618
f 535/315/620 536/313/620 537/316/621
f 536/313/620 538/312/622 537/316/621
f 538/312/622 539/317/623 540/318/623
f 537/316/621 538/312/622 540/318/623
f 540/318/624 539/317/624 541/316/625
f 539/317/624 533/312/616 541/316/625
f 541/316/625 533/312/616 534/314/617
f 542/319/626 543/320/626 545/321/626
f 543/320/608 542/319/608 544/322/607
f 546/319/609 542/319/609 545/321/609
f 545/321/610 547/323/627 546/319/610
f 547/323/627 548/324/612 546/319/610
f 550/325/613 549/326/613 548/324/612
f 547/323/627 550/325/613 548/324/612
f 550/325/614 551/327/628 549/326/614
f 551/327/615 543/320/608 544/322/607
f 551/327/615 544/322/607 549/326/614
f 555/328/629 552/329/630 553/330/631
f 552/329/630 554/331/630 553/330/632
f 554/331/633 552/329/633 556/332/633
f 556/332/634 557/333/635 558/334/634
f 558/334/636 554/331/636 556/332/636
f 557/333/635 559/330/637 558/334/634
f 557/333/635 560/335/638 559/330/637
f 560/335/638 561/336/639 559/330/637
f 560/335/638 555/328/629 561/336/639
f 555/328/629 553/330/631 561/336/639
f 563/337/640 562/337/641 564/337/642
f 564/337/642 562/337/641 565/337/643
f 562/337/641 566/337/644 565/337/643
f 565/337/643 566/337/644 567/337/645
f 566/337/644 568/337/646 567/337/645
f 568/337/646 563/337/640 569/337/647
f 567/337/645 568/337/646 569/337/647
f 569/337/647 563/337/640 564/337/642
f 564/337/642 565/337/643 569/337/647
f 565/337/643 567/337/645 569/337/647
f 571/337/648 573/337/649 570/337/650
f 571/337/648 570/337/650 572/337/651
f 573/337/649 574/337/652 570/337/650
f 573/337/649 575/337/653 574/337/652
f 575/337/653 576/337/654 574/337/652
f 577/337/655 572/337/651 576/337/654
f 575/337/653 577/337/655 576/337/654
f 571/337/648 577/337/655 573/337/649
f 577/337/655 571/337/648 572/337/651
f 577/337/655 575/337/653 573/337/649
f 579/337/640 578/337/641 580/337/642
f 580/337/642 578/337/641 581/337/643
f 578/337/641 582/337/644 581/337/643
f 581/337/643 582/337/644 583/337/645
f 582/337/644 584/337/646 583/337/645
f 584/337/646 579/337/640 585/337/647
f 583/337/645 584/337/646 585/337/647
f 580/337/642 581/337/643 585/337/647
f 585/337/647 579/337/640 580/337/642
f 581/337/643 583/337/645 585/337/647
f 587/337/648 589/337/649 586/337/650
f 587/337/648 586/337/650 588/337/651
f 589/337/649 590/337/652 586/337/650
f 589/337/649 591/337/653 590/337/652
f 591/337/653 592/337/654 590/337/652
f 593/337/655 588/337/651 592/337/654
f 591/337/653 593/337/655 592/337/654
f 593/337/655 587/337/648 588/337/651
f 587/337/648 593/337/655 589/337/649
f 593/337/655 591/337/653 589/337/649
f 595/337/640 594/337/641 596/337/642
f 596/337/642 594/337/641 597/337/643
f 594/337/641 598/337/644 597/337/643
f 597/337/643 598/337/644 599/337/645
f 598/337/644 600/337/646 599/337/645
f 600/337/646 595/337/640 601/337/647
f 599/337/645 600/337/646 601/337/647
f 601/337/647 595/337/640 596/337/642
f 596/337/642 597/337/643 601/337/647
f 597/337/643 599/337/645 601/337/647
f 603/337/648 605/337/649 602/337/650
f 603/337/648 602/337/650 604/337/651
f 605/337/649 606/337/652 602/337/650
f 605/337/649 607/337/653 606/337/652
f 607/337/653 608/337/654 606/337/652
f 609/337/655 604/337/651 608/337/654
f 607/337/653 609/337/655 608/337/654
f 603/337/648 609/337/655 605/337/649
f 609/337/655 603/337/648 604/337/651
f 609/337/655 607/337/653 605/337/649
o effect
v -35.609547 -3.592329 -3.002900
v -122.300659 -6.830393 3.325500
v -35.609547 -3.592328 3.002900
v -122.300659 -6.830394 -3.325500
v -122.709923 0.743576 -5.574100
v -35.159588 3.609480 -4.606400
v -35.159588 3.609481 4.606400
v -122.709923 0.743577 5.574100
v -35.478771 10.803109 3.002899
v -35.478771 10.803109 -3.002901
v -123.119301 8.317546 3.325499
v -194.194550 2.511918 3.325500
v -123.119301 8.317546 -3.325501
v -194.194550 2.511918 -3.325500
v -260.358368 -5.731421 -3.325500
v -259.065582 -13.215130 -5.574099
v -193.328796 -5.025070 -5.574100
v -192.463318 -12.561962 -3.325499
v -257.773010 -20.698746 -3.325498
v -338.123016 -34.611061 -3.220097
v -338.123016 -34.611061 3.220103
v -257.773010 -20.698746 3.325502
v -259.065582 -13.215130 5.574101
v -192.463318 -12.561962 3.325501
v -193.328796 -5.025069 5.574100
v -260.358368 -5.731420 3.325500
v -341.683563 -19.550928 -3.220098
v -341.683563 -19.550928 3.220101
v -340.307312 -27.159653 4.939602
v -340.307312 -27.159653 -4.939598
v -35.543293 -3.177684 -2.357800
v -35.377464 9.391680 -2.357801
v -35.543293 -3.177684 2.357800
v -35.377464 9.391680 2.357799
v -35.453220 3.649457 -3.638800
v -35.453220 3.649457 3.638800
v -337.644928 -33.388027 -2.357797
v -340.634460 -20.888947 -2.357798
v -337.644928 -33.388027 2.357803
v -340.634460 -20.888947 2.357802
v -339.139618 -27.138489 -3.638798
v -339.139618 -27.138489 3.638802
v -257.970245 -19.684578 -2.357799
v -260.137360 -7.045089 -2.357800
v -257.970245 -19.684578 2.357801
v -260.137360 -7.045089 2.357800
v -259.053711 -13.364934 -3.638799
v -259.053711 -13.364934 3.638801
v -192.590942 -11.494861 -2.357799
v -194.044693 1.233864 -2.357800
v -192.590942 -11.494861 2.357801
v -194.044693 1.233865 2.357800
v -193.317734 -5.130546 -3.638799
v -193.317734 -5.130545 3.638800
v -122.358353 -5.710578 -2.357800
v -123.045959 7.081349 -2.357800
v -122.358353 -5.710578 2.357800
v -123.045959 7.081349 2.357800
v -122.702103 0.685386 -3.638800
v -122.702103 0.685387 3.638800
v -337.644928 -33.388027 -2.357797
v -339.139618 -27.138489 -3.638798
v -337.644928 -33.388027 2.357803
v -339.139618 -27.138489 3.638802
v -340.634460 -20.888947 2.357802
v -340.634460 -20.888947 -2.357798
v -103.135185 -6.017891 -2.701900
v -103.135185 -6.017891 2.702000
v -103.083420 0.821895 -4.327100
v -98.895630 0.995377 -4.327100
v -99.064865 -5.849342 -2.701900
v -99.064865 -5.849342 2.702000
v -103.083420 0.821896 4.327100
v -98.895630 0.995378 4.327100
v -98.726410 7.840097 -2.702000
v -98.726410 7.840097 2.701900
v -103.031540 7.661786 2.701900
v -103.031540 7.661786 -2.702000
vn 0.0679 -0.9977 -0.0000
vn 0.0373 -0.9993 -0.0000
vn 0.0508 -0.9987 -0.0000
vn 0.9997 -0.0243 -0.0000
vn 0.9981 -0.0624 -0.0000
vn 0.0154 -0.2506 -0.9680
vn 0.0187 -0.2836 -0.9588
vn 0.0094 -0.0425 -0.9991
vn 0.0109 0.0025 -0.9999
vn 1.0000 0.0063 -0.0000
vn 0.0109 0.0025 0.9999
vn -0.0007 0.2506 0.9681
vn 0.0012 0.0411 0.9992
vn 0.0154 -0.2506 0.9680
vn 0.9990 0.0443 -0.0000
vn -0.0283 0.9996 -0.0000
vn -0.0549 0.9985 -0.0000
vn -0.0138 0.2839 0.9588
vn -0.0269 0.2829 0.9588
vn -0.0944 0.9955 -0.0000
vn -0.1107 0.9939 -0.0000
vn -0.1371 0.9906 -0.0000
vn -0.0085 0.0403 -0.9992
vn -0.0421 0.2808 -0.9588
vn -0.0315 0.2825 -0.9588
vn 0.0025 -0.0004 -1.0000
vn -0.0173 0.2837 -0.9588
vn 0.0268 -0.2829 -0.9588
vn 0.0388 -0.2813 -0.9588
vn 0.1706 -0.9853 -0.0000
vn 0.1563 -0.9877 -0.0000
vn 0.0391 -0.2476 -0.9681
vn 0.1380 -0.9904 -0.0000
vn 0.1108 -0.9938 -0.0000
vn 0.0039 -0.0429 0.9991
vn 0.0411 -0.2810 0.9588
vn 0.0314 -0.2825 0.9588
vn 0.0391 -0.2476 0.9681
vn 0.0943 -0.9955 -0.0000
vn -0.0023 -0.0009 1.0000
vn 0.0204 -0.2835 0.9588
vn -0.0394 0.2812 0.9588
vn -0.1541 0.9880 -0.0000
vn -0.1675 0.9859 -0.0000
vn -0.0462 0.2457 0.9682
vn -0.9766 -0.2151 -0.0000
vn -0.9840 -0.1780 -0.0000
vn -0.0083 0.0035 1.0000
vn -0.9696 -0.2448 -0.0000
vn -0.9596 -0.2813 -0.0000
vn -0.0083 0.0036 -1.0000
vn -0.0462 0.2457 -0.9682
vn -0.0007 0.2506 -0.9681
vn 0.0332 -0.1931 -0.9806
vn -0.0144 0.0697 -0.9975
vn 0.0018 -0.0002 -1.0000
vn 0.0271 -0.1941 -0.9806
vn 0.0131 -0.0604 0.9981
vn 0.0332 -0.1931 0.9806
vn 0.0305 -0.1936 0.9806
vn -0.0016 -0.0007 1.0000
vn 0.1695 -0.9855 -0.0000
vn 0.1557 -0.9878 -0.0000
vn 0.1381 -0.9904 -0.0000
vn -0.0332 0.1931 -0.9806
vn -0.0306 0.1936 -0.9806
vn -0.1695 0.9855 -0.0000
vn -0.1557 0.9878 -0.0000
vn -0.1382 0.9904 -0.0000
vn -0.0332 0.1931 0.9806
vn -0.0272 0.1941 0.9806
vn 0.0017 -0.0003 -1.0000
vn 0.0187 -0.1952 -0.9806
vn 0.0218 -0.1949 0.9806
vn -0.0016 -0.0006 1.0000
vn 0.1115 -0.9938 -0.0000
vn 0.0949 -0.9955 -0.0000
vn -0.0219 0.1949 -0.9806
vn -0.1114 0.9938 -0.0000
vn -0.0950 0.9955 -0.0000
vn -0.0187 0.1952 0.9806
vn 0.0019 0.0032 -1.0000
vn 0.0091 -0.1921 -0.9813
vn 0.0130 -0.1957 0.9806
vn -0.0024 0.0327 0.9995
vn 0.0660 -0.9978 -0.0000
vn 0.0453 -0.9990 -0.0000
vn -0.0126 0.1957 -0.9806
vn -0.0542 0.9985 -0.0000
vn -0.0106 0.1958 0.9806
vn 0.0059 -0.1902 0.9817
vn -0.0007 0.0197 0.9998
vn 0.0292 -0.9996 -0.0000
vn -0.0064 0.2071 0.9783
vn -0.0263 0.9997 -0.0000
vn -0.0064 0.2071 -0.9783
vn -0.0001 -0.0526 -0.9986
vn 0.0054 -0.1845 -0.9828
vn 0.9999 -0.0132 -0.0000
vn -0.9726 -0.2326 -0.0000
vn 0.0414 -0.9991 -0.0000
vn -1.0000 0.0076 -0.0000
vn 0.0096 -0.2312 -0.9729
vn 0.0009 0.0739 -0.9973
vn -0.0001 -0.0736 -0.9973
vn -0.0007 0.0846 0.9964
vn -0.0003 -0.0842 0.9964
vn 0.0096 -0.2312 0.9729
vn 0.9997 -0.0247 -0.0000
vn -0.0096 0.2312 0.9729
vn -0.0414 0.9991 -0.0000
vn -0.0096 0.2312 -0.9729
vt 0.352875 0.633003
vt 0.487720 0.624855
vt 0.488281 0.599537
vt 0.352092 0.606343
vt 0.487645 0.574219
vt 0.351308 0.579684
vt 0.240814 0.597448
vt 0.138009 0.623971
vt 0.140166 0.650346
vt 0.242306 0.623994
vt 0.243799 0.650540
vt 0.142322 0.676721
vt 0.017551 0.722656
vt 0.011719 0.669544
vt 0.014008 0.696362
vt 0.016650 0.722656
vt 0.014184 0.699027
vt 0.139093 0.650501
vt 0.140917 0.674377
vt 0.011719 0.675397
vt 0.137269 0.626624
vt 0.241684 0.622251
vt 0.242951 0.646281
vt 0.240416 0.598221
vt 0.351952 0.603328
vt 0.352622 0.627461
vt 0.351283 0.579196
vt 0.488281 0.621609
vt 0.488281 0.595868
vt 0.488281 0.574219
vt 0.628906 0.511340
vt 0.628906 0.394910
vt 0.687500 0.542969
vt 0.687500 0.363281
vt 0.746094 0.394910
vt 0.746094 0.511340
vt 0.629684 0.397023
vt 0.628906 0.397023
vt 0.628906 0.509225
vt 0.687088 0.542969
vt 0.687889 0.542969
vt 0.629684 0.509225
vt 0.687889 0.363281
vt 0.687088 0.363281
vt 0.745271 0.397025
vt 0.746094 0.509227
vt 0.746094 0.397025
vt 0.745271 0.509227
s 1
f 613/338/656 610/339/657 611/338/658
f 610/339/657 612/339/657 611/338/658
f 616/340/659 612/339/660 610/339/660
f 610/339/661 613/338/662 614/341/663
f 615/340/664 610/339/661 614/341/663
f 615/340/665 616/340/659 610/339/660
f 616/340/666 618/342/667 617/341/668
f 612/339/669 616/340/666 617/341/668
f 618/342/670 616/340/659 615/340/665
f 619/342/670 618/342/670 615/340/665
f 618/342/671 619/342/671 620/343/672
f 618/342/667 620/343/673 617/341/668
f 620/343/673 621/344/674 617/341/668
f 623/344/675 621/344/676 620/343/672
f 619/342/671 622/343/672 620/343/672
f 622/343/672 623/344/675 620/343/672
f 623/344/675 624/345/677 621/344/676
f 625/346/678 624/345/679 623/344/680
f 626/347/681 625/346/678 623/344/680
f 626/347/681 623/344/680 622/343/682
f 614/341/663 626/347/681 622/343/682
f 627/348/683 626/347/681 614/341/663
f 628/349/684 625/346/678 626/347/681
f 627/348/683 628/349/684 626/347/681
f 630/350/685 629/350/685 628/349/686
f 628/349/684 629/350/687 625/346/678
f 631/349/688 630/350/685 628/349/686
f 631/349/688 628/349/686 627/348/689
f 632/346/690 631/349/691 633/348/692
f 630/350/693 631/349/691 632/346/690
f 633/348/694 631/349/688 627/348/689
f 634/347/695 632/346/690 633/348/692
f 633/348/694 627/348/689 613/338/656
f 634/347/695 633/348/692 611/338/696
f 611/338/658 633/348/694 613/338/656
f 621/344/674 634/347/695 617/341/668
f 621/344/674 635/345/697 634/347/695
f 635/345/697 632/346/690 634/347/695
f 617/341/668 634/347/695 611/338/696
f 624/345/677 635/345/698 621/344/676
f 624/345/677 636/351/699 635/345/698
f 636/351/699 637/351/699 635/345/698
f 635/345/697 637/351/700 632/346/690
f 638/352/701 637/351/702 636/351/702
f 637/351/700 638/352/703 632/346/690
f 639/352/704 638/352/701 636/351/702
f 630/350/705 638/352/701 639/352/704
f 638/352/703 630/350/693 632/346/690
f 629/350/705 630/350/705 639/352/704
f 629/350/687 639/352/706 625/346/678
f 639/352/706 636/351/707 625/346/678
f 636/351/707 624/345/679 625/346/678
f 613/338/662 627/348/683 614/341/663
f 622/343/682 619/342/708 614/341/663
f 619/342/708 615/340/664 614/341/663
f 611/338/696 612/339/669 617/341/668
f 646/353/709 650/354/710 656/355/711
f 652/356/712 646/353/709 656/355/711
f 651/354/713 648/353/714 654/356/715
f 657/355/716 651/354/713 654/356/715
f 648/353/717 646/353/717 652/356/718
f 654/356/719 648/353/717 652/356/718
f 650/354/710 647/357/720 653/358/721
f 656/355/711 650/354/710 653/358/721
f 647/357/722 649/357/722 655/358/723
f 653/358/724 647/357/722 655/358/723
f 649/357/725 651/354/713 657/355/716
f 655/358/726 649/357/725 657/355/716
f 652/356/712 656/355/711 662/359/727
f 658/360/728 652/356/712 662/359/727
f 657/355/716 654/356/715 660/360/729
f 663/359/730 657/355/716 660/360/729
f 654/356/719 652/356/718 658/360/731
f 660/360/732 654/356/719 658/360/731
f 656/355/711 653/358/721 659/361/733
f 662/359/727 656/355/711 659/361/733
f 653/358/724 655/358/723 661/361/734
f 659/361/735 653/358/724 661/361/734
f 655/358/726 657/355/716 663/359/730
f 661/361/736 655/358/726 663/359/730
f 658/360/728 662/359/727 668/362/737
f 664/363/738 658/360/728 668/362/737
f 663/359/730 660/360/729 666/363/739
f 669/362/740 663/359/730 666/363/739
f 660/360/732 658/360/731 664/363/741
f 666/363/742 660/360/732 664/363/741
f 662/359/727 659/361/733 665/364/743
f 668/362/737 662/359/727 665/364/743
f 659/361/735 661/361/734 667/364/744
f 665/364/744 659/361/735 667/364/744
f 661/361/736 663/359/730 669/362/740
f 667/364/745 661/361/736 669/362/740
f 642/365/746 645/366/747 669/362/740
f 666/363/739 642/365/746 669/362/740
f 640/365/748 642/365/748 666/363/742
f 664/363/741 640/365/748 666/363/742
f 643/367/749 667/364/745 669/362/740
f 645/366/747 643/367/749 669/362/740
f 641/367/750 665/364/744 667/364/744
f 643/367/750 641/367/750 667/364/744
f 641/367/751 644/366/752 668/362/737
f 665/364/743 641/367/751 668/362/737
f 644/366/752 640/365/753 664/363/738
f 668/362/737 644/366/752 664/363/738
f 643/367/754 645/366/754 644/366/754
f 641/367/754 643/367/754 644/366/754
f 645/366/754 642/365/754 640/365/754
f 644/366/754 645/366/754 640/365/754
f 670/368/755 672/369/755 671/370/755
f 672/369/755 673/371/755 671/370/755
f 673/371/755 674/372/755 675/373/755
f 671/370/755 673/371/755 675/373/755
f 681/374/756 677/375/756 676/376/756
f 677/375/757 678/377/757 676/376/757
f 676/376/758 678/377/759 679/378/760
f 680/379/758 676/376/758 679/378/760
f 680/379/756 681/374/756 676/376/756
f 683/380/761 682/381/762 681/374/763
f 682/381/762 677/375/763 681/374/763
f 680/379/764 679/378/764 681/374/764
f 683/380/764 681/374/764 679/378/764
f 686/382/765 682/381/762 683/380/761
f 684/383/764 683/380/764 679/378/764
f 684/383/764 685/384/764 683/380/764
f 685/384/765 686/382/765 683/380/761
f 687/385/766 686/382/766 685/384/766
f 687/385/757 678/377/757 686/382/757
f 686/382/757 678/377/757 682/381/757
f 678/377/759 687/385/767 684/383/767
f 684/383/766 687/385/766 685/384/766
f 679/378/760 678/377/759 684/383/767
f 678/377/757 677/375/757 682/381/757
