# Blender 5.2.0 LTS
# www.blender.org
o blade
v -32.474792 -4.447566 -2.673406
v 48.050255 -3.512379 2.673410
v 48.050255 -3.512380 -2.673406
v -32.474792 -4.447566 2.673410
v -35.269211 -4.429136 2.673410
v -35.269211 -4.429136 -2.673406
v -32.523491 3.612358 -4.208941
v -35.317905 3.630788 -4.208941
v -32.564800 10.449387 -2.673407
v 47.970863 9.626897 -2.673407
v 48.010551 3.057257 -4.208940
v 47.970863 9.626897 2.673409
v 48.010551 3.057258 4.208944
v -32.523491 3.612358 4.208943
v -32.564800 10.449387 2.673409
v -35.359215 10.467817 -2.673407
v -35.359215 10.467817 2.673409
v -35.317905 3.630788 4.208943
v -39.060116 -2.243779 -0.566752
v -124.766968 1.152835 -0.668232
v -39.048691 3.365328 -0.668232
v -124.520676 -4.448437 -0.566752
v -39.060116 -2.243779 0.566756
v -124.520676 -4.448437 0.566756
v -39.048691 3.365328 0.668236
v -124.766968 1.152835 0.668236
v -39.037266 8.974318 0.000001
v -125.013382 6.753991 0.000001
v -197.183594 -4.909893 -0.668232
v -197.660385 0.672151 0.000002
v -265.255859 -8.325857 0.000003
v -264.564636 -13.879498 -0.668231
v -197.183594 -4.909893 0.668236
v -264.564636 -13.879498 0.668237
v -196.706940 -10.491823 0.566757
v -263.873535 -19.432787 0.566757
v -196.706940 -10.491823 -0.566751
v -263.873535 -19.432787 -0.566751
v -334.913757 -32.439583 -0.566750
v -334.913757 -32.439583 0.566758
v -330.417328 -25.522820 -0.668230
v -333.302246 -20.698977 0.000003
v -339.098419 -27.144934 0.000004
v -330.417328 -25.522820 0.668238
v -341.919098 -33.701660 0.000004
v -34.015800 -2.157500 -1.099300
v -42.484100 -2.225600 1.099300
v -34.015800 -2.157500 1.099300
v -42.484100 -2.225600 -1.099300
v -34.015800 3.610700 -1.295900
v -42.484100 3.542600 -1.295900
v -34.015800 8.765900 -0.723001
v -34.015800 8.765900 0.722999
v -42.484100 8.697800 -0.723001
v -42.484100 8.697800 0.722999
v -34.015800 3.610700 1.295900
v -42.484100 3.542600 1.295900
v -34.864811 3.600161 0.000003
v -34.864811 3.600161 14.718198
v -34.859154 -5.331424 14.332384
v -34.855064 -11.876558 8.278098
v -34.838463 -12.288182 0.000007
v -34.855061 -11.876547 -8.278075
v -34.859154 -5.331426 -14.332380
v -34.864811 3.600162 -14.718192
v -34.870441 12.535290 -14.334874
v -34.874573 19.075245 -8.276149
v -34.891159 19.488501 -0.000001
v -34.874573 19.075268 8.275996
v -34.870441 12.535280 14.334866
v -37.428440 19.080307 8.277899
v -37.424347 12.535226 14.332388
v -37.418690 3.603639 0.000003
v -37.418690 3.603638 14.718198
v -37.413059 -5.331476 14.334862
v -37.408928 -11.871442 8.276157
v -37.392342 -12.284704 0.000007
v -37.408928 -11.871445 -8.276140
v -37.413059 -5.331493 -14.334882
v -37.418690 3.603640 -14.718192
v -37.424347 12.535228 -14.332381
v -37.428436 19.080355 -8.278086
v -37.445038 19.491983 -0.000001
vn 0.0025 -1.0000 -0.0000
vn 0.0116 -0.9999 -0.0000
vn 0.0005 -0.1871 -0.9823
vn 0.0003 -0.0180 -0.9998
vn -0.0000 -0.2072 -0.9783
vn -0.0066 -1.0000 -0.0000
vn -0.0012 -0.1872 -0.9823
vn -0.0003 0.0869 -0.9962
vn 0.0018 0.2191 -0.9757
vn 0.0019 0.2234 -0.9747
vn -0.0000 -0.0019 -1.0000
vn 1.0000 0.0060 -0.0000
vn 0.0007 0.0094 1.0000
vn -0.0001 0.0729 0.9973
vn 0.0017 0.2219 0.9751
vn -0.0000 -0.2072 0.9783
vn 0.0023 0.2276 0.9737
vn 0.0084 1.0000 -0.0000
vn 0.0066 1.0000 -0.0000
vn 0.0102 0.9999 -0.0000
vn 0.0014 0.2191 0.9757
vn 0.0005 -0.0510 0.9987
vn 0.0005 -0.1871 0.9823
vn -0.0012 -0.1872 0.9823
vn 0.0014 0.2191 -0.9757
vn 0.0010 -0.0181 -0.9998
vn -0.0015 0.0274 -0.9996
vn 0.0005 -0.0181 -0.9998
vn -0.0018 0.0731 -0.9973
vn 0.0551 -0.9985 -0.0000
vn 0.0258 -0.9997 -0.0000
vn 0.0546 -0.9985 -0.0000
vn 0.0548 -0.9985 -0.0000
vn 0.0010 -0.0181 0.9998
vn 0.0005 -0.0181 0.9998
vn -0.0008 0.0276 0.9996
vn -0.0040 0.0729 0.9973
vn -0.0031 0.1183 0.9930
vn -0.0064 0.1182 0.9930
vn -0.0064 0.1182 -0.9930
vn -0.0031 0.1183 -0.9930
vn -0.0049 0.0501 -0.9987
vn -0.0136 0.1177 -0.9930
vn -0.0118 0.1179 0.9930
vn -0.0095 0.0633 -0.9979
vn -0.0196 0.1194 -0.9927
vn -0.0186 0.1189 0.9927
vn -0.0059 0.0501 0.9987
vn -0.0057 0.0362 0.9993
vn 0.0020 -0.0180 0.9998
vn 0.0995 -0.9950 -0.0000
vn 0.1479 -0.9890 -0.0000
vn 0.1159 -0.9933 -0.0000
vn 0.0028 -0.0179 0.9998
vn 0.1643 -0.9864 -0.0000
vn 0.0020 -0.0180 -0.9998
vn 0.0028 -0.0179 -0.9998
vn -0.0354 0.0549 -0.9979
vn 0.1787 -0.9839 -0.0000
vn -0.0563 0.0205 -0.9982
vn -0.0877 0.0532 -0.9947
vn -0.0578 0.1030 -0.9930
vn -0.0873 0.0376 -0.9955
vn -0.0354 0.0549 0.9979
vn -0.0578 0.1030 0.9930
vn -0.0877 0.0533 0.9947
vn -0.0873 0.0376 0.9955
vn -0.0563 0.0205 0.9982
vn 0.1773 -0.9842 -0.0000
vn 0.0080 -1.0000 -0.0000
vn -0.0003 0.0141 -0.9999
vn 0.0003 -0.0341 -0.9994
vn -0.0003 0.0624 -0.9981
vn -0.0009 0.1105 -0.9939
vn -0.0080 1.0000 -0.0000
vn -1.0000 -0.0000 -0.0000
vn -0.0003 0.0624 0.9981
vn -0.0009 0.1105 0.9939
vn -0.0003 0.0141 0.9999
vn 0.0003 -0.0341 0.9994
vn 1.0000 0.0006 -0.0000
vn 1.0000 0.0010 -0.0000
vn 1.0000 0.0011 0.0009
vn 1.0000 0.0017 -0.0000
vn 1.0000 0.0011 -0.0009
vn -0.0007 0.4534 0.8913
vn -0.0008 0.3135 0.9496
vn -0.0001 0.0583 0.9983
vn 0.0019 0.9456 0.3254
vn 0.0020 0.8567 0.5158
vn -1.0000 -0.0006 -0.0000
vn -1.0000 -0.0011 0.0009
vn -1.0000 -0.0010 -0.0000
vn 0.0001 -0.0583 0.9983
vn 0.0008 -0.3135 0.9496
vn 0.0007 -0.4534 0.8913
vn -0.0020 -0.8567 0.5158
vn -0.0019 -0.9456 0.3254
vn -1.0000 -0.0011 -0.0009
vn -1.0000 -0.0017 -0.0000
vn -0.0016 -0.9938 -0.1108
vn -0.0016 -0.9938 0.1109
vn -0.0020 -0.8562 -0.5167
vn -0.0019 -0.9457 -0.3251
vn 0.0008 -0.3136 -0.9496
vn 0.0007 -0.4541 -0.8910
vn 0.0001 -0.0585 -0.9983
vn -0.0001 0.0585 -0.9983
vn -0.0008 0.3136 -0.9496
vn -0.0007 0.4541 -0.8910
vn 0.0020 0.8562 -0.5167
vn 0.0019 0.9457 -0.3251
vn 0.0016 0.9938 -0.1108
vn 0.0016 0.9938 0.1109
vt 0.023508 0.535156
vt 0.363281 0.519007
vt 0.023508 0.446391
vt 0.011719 0.535156
vt 0.011719 0.446391
vt 0.023508 0.371094
vt 0.363281 0.374302
vt 0.363281 0.446655
vt 0.011719 0.371094
vt 0.353784 0.833084
vt 0.353378 0.802916
vt 0.488281 0.822133
vt 0.488281 0.791926
vt 0.488281 0.761719
vt 0.352972 0.772748
vt 0.239423 0.834785
vt 0.238654 0.804718
vt 0.133402 0.882364
vt 0.132296 0.852447
vt 0.240191 0.864852
vt 0.134507 0.912279
vt 0.029795 0.944358
vt 0.022740 0.981560
vt 0.016137 0.953000
vt 0.025239 0.918348
vt 0.011719 0.988281
vt 0.628906 0.542969
vt 0.629632 0.363281
vt 0.691131 0.363281
vt 0.690405 0.542969
vt 0.746094 0.363281
vt 0.745368 0.542969
vt 0.544922 0.375318
vt 0.500000 0.363281
vt 0.500000 0.453125
vt 0.455078 0.375318
vt 0.422193 0.408203
vt 0.410156 0.453125
vt 0.422193 0.498047
vt 0.455078 0.530932
vt 0.500000 0.542969
vt 0.544922 0.530932
vt 0.577807 0.498047
vt 0.589844 0.453125
vt 0.577807 0.408204
s 1
f 4/1/1 1/1/1 2/2/2
f 1/1/1 3/2/2 2/2/2
f 1/1/3 7/3/4 3/2/5
f 1/1/1 4/1/1 5/4/6
f 6/4/6 1/1/1 5/4/6
f 7/3/4 1/1/3 6/4/7
f 8/5/8 7/3/4 6/4/7
f 9/6/9 7/3/4 8/5/8
f 7/3/4 9/6/9 10/7/10
f 7/3/4 11/8/11 3/2/5
f 11/8/11 7/3/4 10/7/10
f 3/2/12 11/8/12 13/8/12
f 11/8/12 10/7/12 12/7/12
f 13/8/12 11/8/12 12/7/12
f 14/3/13 13/8/14 15/6/15
f 2/2/16 13/8/14 14/3/13
f 2/2/12 3/2/12 13/8/12
f 13/8/14 12/7/17 15/6/15
f 15/6/18 9/6/18 16/9/19
f 9/6/18 15/6/18 10/7/20
f 15/6/18 12/7/20 10/7/20
f 17/9/19 15/6/18 16/9/19
f 14/3/13 15/6/15 17/9/21
f 18/5/22 14/3/13 17/9/21
f 4/1/23 14/3/13 18/5/22
f 5/4/24 4/1/23 18/5/22
f 16/9/25 9/6/9 8/5/8
f 4/1/23 2/2/16 14/3/13
f 22/10/26 20/11/27 19/12/28
f 20/11/27 21/13/29 19/12/28
f 22/10/30 19/12/31 23/12/31
f 24/10/32 22/10/33 23/12/31
f 24/10/34 23/12/35 25/13/36
f 26/11/37 24/10/34 25/13/36
f 26/11/37 25/13/36 27/14/38
f 28/15/39 26/11/37 27/14/38
f 28/15/40 27/14/41 21/13/29
f 20/11/27 29/16/42 28/15/40
f 29/16/42 30/17/43 28/15/40
f 28/15/39 30/17/44 26/11/37
f 20/11/27 28/15/40 21/13/29
f 32/18/45 31/19/46 30/17/43
f 30/17/44 31/19/47 33/16/48
f 29/16/42 32/18/45 30/17/43
f 30/17/44 33/16/48 26/11/37
f 31/19/47 34/18/49 33/16/48
f 26/11/37 33/16/48 24/10/34
f 33/16/48 35/20/50 24/10/34
f 33/16/48 34/18/49 35/20/50
f 35/20/51 36/21/52 37/20/53
f 34/18/49 36/21/54 35/20/50
f 35/20/51 37/20/53 22/10/33
f 24/10/32 35/20/51 22/10/33
f 36/21/52 38/21/55 37/20/53
f 37/20/56 38/21/57 29/16/42
f 37/20/56 29/16/42 20/11/27
f 22/10/26 37/20/56 20/11/27
f 38/21/57 32/18/45 29/16/42
f 41/22/58 32/18/45 38/21/57
f 36/21/52 40/23/59 38/21/55
f 40/23/59 39/23/59 38/21/55
f 39/23/60 41/22/58 38/21/57
f 41/22/58 39/23/60 43/24/61
f 41/22/58 42/25/62 31/19/46
f 42/25/62 41/22/58 43/24/61
f 32/18/45 41/22/58 31/19/46
f 39/23/60 45/26/63 43/24/61
f 44/22/64 42/25/65 43/24/66
f 45/26/67 40/23/68 43/24/66
f 40/23/68 44/22/64 43/24/66
f 39/23/59 40/23/59 45/26/69
f 42/25/65 44/22/64 31/19/47
f 44/22/64 40/23/68 36/21/54
f 34/18/49 44/22/64 36/21/54
f 44/22/64 34/18/49 31/19/47
f 49/27/70 46/28/70 47/27/70
f 46/28/70 48/28/70 47/27/70
f 50/29/71 46/28/72 49/27/72
f 51/30/73 50/29/71 49/27/72
f 52/31/74 50/29/71 51/30/73
f 53/31/75 52/31/75 54/32/75
f 54/32/74 52/31/74 51/30/73
f 55/32/75 53/31/75 54/32/75
f 55/32/76 54/32/76 51/30/76
f 56/29/77 53/31/78 55/32/78
f 57/30/76 55/32/76 49/27/76
f 49/27/76 55/32/76 51/30/76
f 57/30/79 56/29/77 55/32/78
f 47/27/76 57/30/76 49/27/76
f 47/27/80 48/28/80 57/30/79
f 48/28/80 56/29/77 57/30/79
f 70/33/81 59/34/81 58/35/82
f 59/34/81 60/36/81 58/35/82
f 60/36/81 61/37/83 58/35/82
f 61/37/83 62/38/84 58/35/82
f 62/38/84 63/39/85 58/35/82
f 63/39/85 64/40/81 58/35/82
f 64/40/81 65/41/81 58/35/82
f 65/41/81 66/42/81 58/35/82
f 66/42/81 67/43/83 58/35/82
f 67/43/83 68/44/84 58/35/82
f 68/44/84 69/45/85 58/35/82
f 69/45/85 70/33/81 58/35/82
f 70/33/86 72/33/87 59/34/88
f 69/45/89 71/45/90 70/33/86
f 71/45/90 72/33/87 70/33/86
f 72/33/91 71/45/92 73/35/93
f 74/34/91 72/33/91 73/35/93
f 72/33/87 74/34/94 59/34/88
f 59/34/88 74/34/94 60/36/95
f 74/34/94 75/36/96 60/36/95
f 75/36/91 74/34/91 73/35/93
f 60/36/95 75/36/96 61/37/97
f 75/36/96 76/37/98 61/37/97
f 76/37/99 75/36/91 73/35/93
f 77/38/100 76/37/99 73/35/93
f 76/37/98 77/38/101 62/38/102
f 61/37/97 76/37/98 62/38/102
f 78/39/92 77/38/100 73/35/93
f 77/38/101 78/39/103 63/39/104
f 62/38/102 77/38/101 63/39/104
f 79/40/91 78/39/92 73/35/93
f 78/39/103 79/40/105 64/40/106
f 63/39/104 78/39/103 64/40/106
f 64/40/106 79/40/105 65/41/107
f 79/40/105 80/41/108 65/41/107
f 80/41/91 79/40/91 73/35/93
f 65/41/107 80/41/108 66/42/109
f 80/41/108 81/42/110 66/42/109
f 81/42/91 80/41/91 73/35/93
f 66/42/109 81/42/110 67/43/111
f 81/42/110 82/43/112 67/43/111
f 82/43/99 81/42/91 73/35/93
f 67/43/111 82/43/112 68/44/113
f 82/43/112 83/44/114 68/44/113
f 83/44/100 82/43/99 73/35/93
f 68/44/113 83/44/114 69/45/89
f 83/44/114 71/45/90 69/45/89
f 71/45/92 83/44/100 73/35/93
o blade_damaged
v -39.045097 -2.234805 -0.566752
v -124.780418 1.387119 -0.668232
v -39.048714 3.373047 -0.668232
v -124.519058 -4.213580 -0.566752
v -39.045097 -2.234805 0.566756
v -124.519058 -4.213580 0.566756
v -39.048714 3.373047 0.668236
v -39.052326 8.980781 0.000001
v -124.780418 1.387119 0.668236
v -125.041893 6.987700 0.000001
v -32.476555 -4.156232 -2.673406
v 48.050255 -3.512381 2.673410
v 48.050255 -3.512381 -2.673406
v -32.476555 -4.156232 2.673410
v -35.270969 -4.137802 2.673410
v -35.270969 -4.137802 -2.673406
v -32.523346 3.588414 -4.208941
v 48.010551 3.057257 -4.208940
v -35.317764 3.606844 -4.208941
v -32.563038 10.158053 -2.673407
v 47.970863 9.626896 -2.673407
v -32.563038 10.158053 2.673409
v 47.970863 9.626896 2.673409
v 48.010551 3.057257 4.208944
v -32.523346 3.588414 4.208943
v -35.317764 3.606845 4.208943
v -35.357456 10.176483 2.673409
v -35.357456 10.176483 -2.673407
v -34.864807 3.600123 0.000003
v -34.864807 3.600123 14.718282
v -34.859024 -5.331362 14.332397
v -34.854847 -11.876574 8.278175
v -34.837887 -12.288166 0.000007
v -34.854847 -11.876559 -8.278152
v -34.859024 -5.331365 -14.332393
v -34.864807 3.600124 -14.718276
v -34.870560 12.535231 -14.334940
v -34.874779 19.075148 -8.276183
v -34.891727 19.488411 -0.000001
v -34.874779 19.075172 8.276033
v -34.870560 12.535221 14.334933
v -37.428646 19.080320 8.277976
v -37.424465 12.535163 14.332397
v -37.418686 3.603676 14.718282
v -37.418682 3.603677 0.000003
v -37.408710 -11.871348 -8.276175
v -37.412930 -5.331433 -14.334947
v -37.418682 3.603678 -14.718276
v -37.424465 12.535165 -14.332391
v -37.428642 19.080368 -8.278162
v -37.412930 -5.331417 14.334929
v -37.445606 19.491968 -0.000001
v -37.408710 -11.871343 8.276191
v -37.391762 -12.284614 0.000007
v -34.015800 -2.157500 -1.099300
v -42.484100 -2.225600 1.099300
v -34.015800 -2.157500 1.099300
v -42.484100 -2.225600 -1.099300
v -34.015800 3.610700 -1.295900
v -42.484100 3.542600 -1.295900
v -34.015800 8.765900 -0.723001
v -34.015800 8.765900 0.722999
v -42.484100 8.697800 -0.723001
v -42.484100 8.697800 0.722999
v -34.015800 3.610700 1.295900
v -42.484100 3.542600 1.295900
vn 0.0004 -0.0181 -0.9998
vn -0.0007 0.0274 -0.9996
vn -0.0005 0.0276 -0.9996
vn -0.0018 0.0729 -0.9973
vn 0.0231 -0.9997 -0.0000
vn 0.0004 -0.0181 0.9998
vn -0.0006 0.0274 0.9996
vn -0.0017 0.0729 0.9973
vn -0.0007 0.0275 0.9996
vn -0.0027 0.1183 0.9930
vn -0.0017 0.0730 0.9973
vn -0.0027 0.1183 -0.9930
vn -0.0016 0.0730 -0.9973
vn 0.0007 -1.0000 -0.0000
vn 0.0080 -1.0000 -0.0000
vn 0.0001 -0.1945 -0.9809
vn 0.0001 -0.0188 -0.9998
vn -0.0002 -0.2109 -0.9775
vn -0.0066 -1.0000 -0.0000
vn -0.0013 -0.1945 -0.9809
vn -0.0000 -0.0018 -1.0000
vn 0.0015 0.2276 -0.9738
vn -0.0003 0.0904 -0.9959
vn 0.0066 1.0000 -0.0000
vn 1.0000 0.0060 -0.0000
vn -0.0005 0.0758 0.9971
vn 0.0015 0.2276 0.9738
vn 0.0006 0.0113 0.9999
vn -0.0002 -0.2109 0.9775
vn 0.0001 -0.1945 0.9809
vn 0.0006 -0.0532 0.9986
vn -0.0013 -0.1945 0.9809
vn 1.0000 0.0006 -0.0000
vn 1.0000 0.0010 -0.0000
vn 1.0000 0.0011 0.0009
vn 1.0000 0.0017 -0.0000
vn 1.0000 0.0011 -0.0009
vn -0.0007 0.4534 0.8913
vn -0.0008 0.3135 0.9496
vn -0.0001 0.0583 0.9983
vn 0.0019 0.9456 0.3254
vn 0.0020 0.8567 0.5158
vn 0.0001 -0.0583 0.9983
vn -1.0000 -0.0006 -0.0000
vn -1.0000 -0.0010 -0.0000
vn -1.0000 -0.0011 0.0009
vn -1.0000 -0.0017 -0.0000
vn -1.0000 -0.0011 -0.0009
vn -0.0017 -0.9938 0.1109
vn -0.0017 -0.9938 -0.1108
vn -0.0020 -0.9457 -0.3251
vn -0.0020 -0.9456 0.3254
vn -0.0020 -0.8562 -0.5167
vn -0.0021 -0.8567 0.5158
vn 0.0007 -0.4534 0.8913
vn 0.0017 0.9938 -0.1108
vn 0.0017 0.9938 0.1109
vn 0.0020 0.9457 -0.3251
vn 0.0008 -0.3135 0.9496
vn 0.0020 0.8562 -0.5167
vn -0.0007 0.4541 -0.8910
vn -0.0008 0.3136 -0.9496
vn -0.0001 0.0585 -0.9983
vn 0.0008 -0.3136 -0.9496
vn 0.0001 -0.0585 -0.9983
vn 0.0007 -0.4541 -0.8910
vn -0.0003 0.0141 -0.9999
vn 0.0003 -0.0341 -0.9994
vn -0.0003 0.0624 -0.9981
vn -0.0009 0.1105 -0.9939
vn -0.0080 1.0000 -0.0000
vn -1.0000 -0.0000 -0.0000
vn -0.0003 0.0141 0.9999
vn -0.0003 0.0624 0.9981
vn -0.0009 0.1105 0.9939
vn 0.0003 -0.0341 0.9994
vt 0.014576 0.988281
vt 0.013148 0.892507
vt 0.488281 0.953516
vt 0.488281 0.857616
vt 0.488281 0.761719
vt 0.011719 0.796734
vt 0.023508 0.535156
vt 0.363281 0.521689
vt 0.023508 0.446391
vt 0.011719 0.535156
vt 0.363281 0.446391
vt 0.363281 0.371094
vt 0.011719 0.446391
vt 0.023508 0.371094
vt 0.011719 0.371094
vt 0.544922 0.375318
vt 0.500000 0.363281
vt 0.500000 0.453125
vt 0.455078 0.375318
vt 0.422193 0.408203
vt 0.410156 0.453125
vt 0.422193 0.498047
vt 0.455078 0.530932
vt 0.500000 0.542969
vt 0.544922 0.530932
vt 0.577807 0.498047
vt 0.589844 0.453125
vt 0.577807 0.408204
vt 0.628906 0.542969
vt 0.629632 0.363281
vt 0.691131 0.363281
vt 0.690405 0.542969
vt 0.746094 0.363281
vt 0.745368 0.542969
s 1
f 87/46/115 85/47/116 84/48/115
f 85/47/117 86/49/118 84/48/115
f 87/46/119 84/48/119 88/48/119
f 89/46/119 87/46/119 88/48/119
f 89/46/120 88/48/120 90/49/121
f 92/47/122 90/49/123 91/50/124
f 92/47/122 89/46/120 90/49/123
f 93/51/124 92/47/125 91/50/124
f 93/51/126 91/50/126 86/49/127
f 85/47/117 93/51/126 86/49/118
f 97/52/128 94/52/128 95/53/129
f 94/52/128 96/53/129 95/53/129
f 94/52/130 100/54/131 96/53/132
f 94/52/128 97/52/128 98/55/133
f 99/55/133 94/52/128 98/55/133
f 100/54/131 94/52/130 99/55/134
f 101/56/135 100/54/131 104/57/136
f 100/54/131 101/56/135 96/53/132
f 102/58/137 100/54/131 99/55/134
f 103/59/136 100/54/131 102/58/137
f 100/54/131 103/59/136 104/57/136
f 103/59/138 105/59/138 104/57/138
f 105/59/138 106/57/138 104/57/138
f 101/56/139 104/57/139 106/57/139
f 107/56/140 106/57/141 105/59/141
f 107/56/139 101/56/139 106/57/139
f 96/53/139 101/56/139 107/56/139
f 108/54/142 107/56/140 105/59/141
f 95/53/143 107/56/140 108/54/142
f 95/53/139 96/53/139 107/56/139
f 97/52/144 108/54/142 109/58/145
f 97/52/144 95/53/143 108/54/142
f 108/54/142 105/59/141 110/60/141
f 109/58/145 108/54/142 110/60/141
f 110/60/138 105/59/138 111/60/138
f 105/59/138 103/59/138 111/60/138
f 111/60/136 103/59/136 102/58/137
f 98/55/146 97/52/144 109/58/145
f 124/61/147 113/62/147 112/63/148
f 113/62/147 114/64/147 112/63/148
f 114/64/147 115/65/149 112/63/148
f 115/65/149 116/66/150 112/63/148
f 116/66/150 117/67/151 112/63/148
f 117/67/151 118/68/147 112/63/148
f 118/68/147 119/69/147 112/63/148
f 119/69/147 120/70/147 112/63/148
f 120/70/147 121/71/149 112/63/148
f 121/71/149 122/72/150 112/63/148
f 122/72/150 123/73/151 112/63/148
f 123/73/151 124/61/147 112/63/148
f 124/61/152 126/61/153 113/62/154
f 123/73/155 125/73/156 124/61/152
f 125/73/156 126/61/153 124/61/152
f 126/61/153 127/62/157 113/62/154
f 127/62/158 126/61/158 128/63/159
f 126/61/158 125/73/160 128/63/159
f 130/68/158 129/67/160 128/63/159
f 129/67/160 137/66/161 128/63/159
f 131/69/158 130/68/158 128/63/159
f 132/70/158 131/69/158 128/63/159
f 133/71/162 132/70/158 128/63/159
f 134/64/158 127/62/158 128/63/159
f 135/72/161 133/71/162 128/63/159
f 136/65/162 134/64/158 128/63/159
f 125/73/160 135/72/161 128/63/159
f 137/66/161 136/65/162 128/63/159
f 116/66/163 137/66/164 117/67/165
f 136/65/166 137/66/164 116/66/163
f 137/66/164 129/67/167 117/67/165
f 115/65/168 136/65/166 116/66/163
f 134/64/169 136/65/166 115/65/168
f 122/72/170 135/72/171 123/73/155
f 133/71/172 135/72/171 122/72/170
f 135/72/171 125/73/156 123/73/155
f 114/64/173 134/64/169 115/65/168
f 127/62/157 134/64/169 114/64/173
f 121/71/174 133/71/172 122/72/170
f 132/70/175 133/71/172 121/71/174
f 120/70/176 132/70/175 121/71/174
f 131/69/177 132/70/175 120/70/176
f 130/68/178 131/69/177 119/69/179
f 119/69/179 131/69/177 120/70/176
f 129/67/167 130/68/178 118/68/180
f 118/68/180 130/68/178 119/69/179
f 117/67/165 129/67/167 118/68/180
f 113/62/154 127/62/157 114/64/173
f 141/74/129 138/75/129 139/74/129
f 138/75/129 140/75/129 139/74/129
f 142/76/181 138/75/182 141/74/182
f 143/77/183 142/76/181 141/74/182
f 144/78/184 142/76/181 143/77/183
f 145/78/185 144/78/185 146/79/185
f 146/79/184 144/78/184 143/77/183
f 147/79/185 145/78/185 146/79/185
f 147/79/186 146/79/186 143/77/186
f 149/77/187 148/76/188 147/79/189
f 148/76/188 145/78/189 147/79/189
f 149/77/186 147/79/186 141/74/186
f 141/74/186 147/79/186 143/77/186
f 140/75/190 148/76/188 149/77/187
f 139/74/190 140/75/190 149/77/187
f 139/74/186 149/77/186 141/74/186
o blade_fragment
v -334.542053 -32.319374 -0.566752
v -341.547424 -33.581276 0.000003
v -334.542053 -32.319374 0.566756
v -338.726898 -27.024656 0.000002
v -330.045776 -25.402756 -0.668232
v -263.501740 -19.314333 -0.566753
v -264.192993 -13.761062 -0.668233
v -263.501740 -19.314333 0.566755
v -196.811768 -4.793106 -0.668234
v -196.334976 -10.375010 -0.566753
v -196.334976 -10.375010 0.566755
v -124.394875 1.267876 -0.668234
v -124.148445 -4.333370 -0.566754
v -124.148445 -4.333370 0.566754
v -124.394875 1.267876 0.668234
v -196.811768 -4.793106 0.668234
v -264.192993 -13.761062 0.668235
v -197.288712 0.788915 -0.000000
v -264.884369 -8.207438 0.000001
v -330.045776 -25.402756 0.668236
v -332.930847 -20.578873 0.000002
v -124.641411 6.869002 -0.000001
vn -0.0563 0.0205 -0.9982
vn -0.0873 0.0376 -0.9955
vn -0.0877 0.0532 -0.9947
vn 0.1787 -0.9839 -0.0000
vn 0.1773 -0.9842 -0.0000
vn 0.1642 -0.9864 -0.0000
vn -0.0354 0.0549 -0.9979
vn 0.0028 -0.0179 -0.9998
vn -0.0093 0.0634 -0.9979
vn -0.0049 0.0501 -0.9987
vn 0.1479 -0.9890 -0.0000
vn 0.1159 -0.9933 -0.0000
vn 0.0020 -0.0180 -0.9998
vn -0.0023 0.0275 -0.9996
vn 0.0995 -0.9950 -0.0000
vn 0.0834 -0.9965 -0.0000
vn 0.0015 -0.0180 -0.9998
vn -0.0061 0.0729 0.9973
vn -0.0059 0.0502 0.9987
vn 0.0015 -0.0180 0.9998
vn 0.0020 -0.0180 0.9998
vn -0.0186 0.1189 0.9927
vn -0.0057 0.0362 0.9993
vn -0.0118 0.1179 0.9930
vn -0.0196 0.1194 -0.9927
vn -0.0578 0.1030 -0.9930
vn -0.0578 0.1030 0.9930
vn -0.0354 0.0549 0.9979
vn -0.0136 0.1177 -0.9930
vn -0.0877 0.0533 0.9947
vn -0.0563 0.0205 0.9982
vn 0.0028 -0.0179 0.9998
vn -0.0099 0.1180 -0.9930
vn -0.0099 0.1180 0.9930
vn -0.0873 0.0376 0.9955
vt 0.027074 0.981216
vt 0.011719 0.988281
vt 0.017874 0.951195
vt 0.182787 0.908389
vt 0.036902 0.942111
vt 0.181247 0.876944
vt 0.328954 0.826930
vt 0.330024 0.858536
vt 0.487716 0.793430
vt 0.488281 0.825142
vt 0.179706 0.845496
vt 0.327884 0.795324
vt 0.030555 0.914770
vt 0.487151 0.761719
s 1
f 150/80/191 151/81/192 153/82/193
f 150/80/194 152/80/194 151/81/195
f 152/80/194 150/80/194 155/83/196
f 154/84/197 150/80/191 153/82/193
f 150/80/191 154/84/197 155/83/198
f 154/84/197 156/85/199 155/83/198
f 155/83/198 156/85/199 158/86/200
f 157/83/201 155/83/196 159/87/202
f 157/83/201 152/80/194 155/83/196
f 159/87/203 155/83/198 158/86/200
f 159/87/203 158/86/200 161/88/204
f 160/87/205 159/87/202 162/89/206
f 160/87/205 157/83/201 159/87/202
f 162/89/207 159/87/203 161/88/204
f 163/89/206 160/87/205 162/89/206
f 164/88/208 165/86/209 163/89/210
f 165/86/209 160/87/211 163/89/210
f 168/90/212 166/85/213 165/86/209
f 165/86/209 166/85/213 160/87/211
f 167/91/214 165/86/209 164/88/208
f 167/91/214 168/90/212 165/86/209
f 156/85/199 154/84/197 168/90/215
f 154/84/197 170/92/216 168/90/215
f 170/92/217 169/84/218 168/90/212
f 169/84/218 166/85/213 168/90/212
f 156/85/199 168/90/215 167/91/219
f 169/84/218 170/92/217 153/82/220
f 170/92/216 154/84/197 153/82/193
f 152/80/221 169/84/218 153/82/220
f 166/85/213 169/84/218 157/83/222
f 169/84/218 152/80/221 157/83/222
f 158/86/200 167/91/219 171/93/223
f 158/86/200 156/85/199 167/91/219
f 171/93/224 167/91/214 164/88/208
f 161/88/204 158/86/200 171/93/223
f 166/85/213 157/83/222 160/87/211
f 151/81/225 152/80/221 153/82/220
o sheath
v -35.609547 -3.592329 -3.002900
v -122.300659 -6.830393 3.325500
v -35.609547 -3.592328 3.002900
v -122.300659 -6.830394 -3.325500
v -122.709923 0.743576 -5.574100
v -35.159588 3.609480 -4.606400
v -35.159588 3.609481 4.606400
v -122.709923 0.743577 5.574100
v -35.478771 10.803109 3.002899
v -35.478771 10.803109 -3.002901
v -123.119301 8.317546 3.325499
v -194.194550 2.511918 3.325500
v -123.119301 8.317546 -3.325501
v -194.194550 2.511918 -3.325500
v -260.358368 -5.731421 -3.325500
v -259.065582 -13.215130 -5.574099
v -193.328796 -5.025070 -5.574100
v -192.463318 -12.561962 -3.325499
v -257.773010 -20.698746 -3.325498
v -338.123016 -34.611061 -3.220097
v -338.123016 -34.611061 3.220103
v -257.773010 -20.698746 3.325502
v -259.065582 -13.215130 5.574101
v -192.463318 -12.561962 3.325501
v -193.328796 -5.025069 5.574100
v -260.358368 -5.731420 3.325500
v -341.683563 -19.550928 -3.220098
v -341.683563 -19.550928 3.220101
v -340.307312 -27.159653 4.939602
v -340.307312 -27.159653 -4.939598
v -35.543293 -3.177684 -2.357800
v -35.377464 9.391680 -2.357801
v -35.543293 -3.177684 2.357800
v -35.377464 9.391680 2.357799
v -35.453220 3.649457 -3.638800
v -35.453220 3.649457 3.638800
v -337.644928 -33.388027 -2.357797
v -340.634460 -20.888947 -2.357798
v -337.644928 -33.388027 2.357803
v -340.634460 -20.888947 2.357802
v -339.139618 -27.138489 -3.638798
v -339.139618 -27.138489 3.638802
v -257.970245 -19.684578 -2.357799
v -260.137360 -7.045089 -2.357800
v -257.970245 -19.684578 2.357801
v -260.137360 -7.045089 2.357800
v -259.053711 -13.364934 -3.638799
v -259.053711 -13.364934 3.638801
v -192.590942 -11.494861 -2.357799
v -194.044693 1.233864 -2.357800
v -192.590942 -11.494861 2.357801
v -194.044693 1.233865 2.357800
v -193.317734 -5.130546 -3.638799
v -193.317734 -5.130545 3.638800
v -122.358353 -5.710578 -2.357800
v -123.045959 7.081349 -2.357800
v -122.358353 -5.710578 2.357800
v -123.045959 7.081349 2.357800
v -122.702103 0.685386 -3.638800
v -122.702103 0.685387 3.638800
v -337.644928 -33.388027 -2.357797
v -339.139618 -27.138489 -3.638798
v -337.644928 -33.388027 2.357803
v -339.139618 -27.138489 3.638802
v -340.634460 -20.888947 2.357802
v -340.634460 -20.888947 -2.357798
v -103.135185 -6.017891 -2.701900
v -103.135185 -6.017891 2.702000
v -103.083420 0.821895 -4.327100
v -98.895630 0.995377 -4.327100
v -99.064865 -5.849342 -2.701900
v -99.064865 -5.849342 2.702000
v -103.083420 0.821896 4.327100
v -98.895630 0.995378 4.327100
v -98.726410 7.840097 -2.702000
v -98.726410 7.840097 2.701900
v -103.031540 7.661786 2.701900
v -103.031540 7.661786 -2.702000
vn 0.0679 -0.9977 -0.0000
vn 0.0373 -0.9993 -0.0000
vn 0.0508 -0.9987 -0.0000
vn 0.9997 -0.0243 -0.0000
vn 0.9981 -0.0624 -0.0000
vn 0.0154 -0.2506 -0.9680
vn 0.0187 -0.2836 -0.9588
vn 0.0094 -0.0425 -0.9991
vn 0.0109 0.0025 -0.9999
vn 1.0000 0.0063 -0.0000
vn 0.0109 0.0025 0.9999
vn -0.0007 0.2506 0.9681
vn 0.0012 0.0411 0.9992
vn 0.0154 -0.2506 0.9680
vn 0.9990 0.0443 -0.0000
vn -0.0283 0.9996 -0.0000
vn -0.0549 0.9985 -0.0000
vn -0.0138 0.2839 0.9588
vn -0.0269 0.2829 0.9588
vn -0.0944 0.9955 -0.0000
vn -0.1107 0.9939 -0.0000
vn -0.1371 0.9906 -0.0000
vn -0.0085 0.0403 -0.9992
vn -0.0421 0.2808 -0.9588
vn -0.0315 0.2825 -0.9588
vn 0.0025 -0.0004 -1.0000
vn -0.0173 0.2837 -0.9588
vn 0.0268 -0.2829 -0.9588
vn 0.0388 -0.2813 -0.9588
vn 0.1706 -0.9853 -0.0000
vn 0.1563 -0.9877 -0.0000
vn 0.0391 -0.2476 -0.9681
vn 0.1380 -0.9904 -0.0000
vn 0.1108 -0.9938 -0.0000
vn 0.0039 -0.0429 0.9991
vn 0.0411 -0.2810 0.9588
vn 0.0314 -0.2825 0.9588
vn 0.0391 -0.2476 0.9681
vn 0.0943 -0.9955 -0.0000
vn -0.0023 -0.0009 1.0000
vn 0.0204 -0.2835 0.9588
vn -0.0394 0.2812 0.9588
vn -0.1541 0.9880 -0.0000
vn -0.1675 0.9859 -0.0000
vn -0.0462 0.2457 0.9682
vn -0.9766 -0.2151 -0.0000
vn -0.9840 -0.1780 -0.0000
vn -0.0083 0.0035 1.0000
vn -0.9696 -0.2448 -0.0000
vn -0.9596 -0.2813 -0.0000
vn -0.0083 0.0036 -1.0000
vn -0.0462 0.2457 -0.9682
vn -0.0007 0.2506 -0.9681
vn 0.0332 -0.1931 -0.9806
vn -0.0144 0.0697 -0.9975
vn 0.0018 -0.0002 -1.0000
vn 0.0271 -0.1941 -0.9806
vn 0.0131 -0.0604 0.9981
vn 0.0332 -0.1931 0.9806
vn 0.0305 -0.1936 0.9806
vn -0.0016 -0.0007 1.0000
vn 0.1695 -0.9855 -0.0000
vn 0.1557 -0.9878 -0.0000
vn 0.1381 -0.9904 -0.0000
vn -0.0332 0.1931 -0.9806
vn -0.0306 0.1936 -0.9806
vn -0.1695 0.9855 -0.0000
vn -0.1557 0.9878 -0.0000
vn -0.1382 0.9904 -0.0000
vn -0.0332 0.1931 0.9806
vn -0.0272 0.1941 0.9806
vn 0.0017 -0.0003 -1.0000
vn 0.0187 -0.1952 -0.9806
vn 0.0218 -0.1949 0.9806
vn -0.0016 -0.0006 1.0000
vn 0.1115 -0.9938 -0.0000
vn 0.0949 -0.9955 -0.0000
vn -0.0219 0.1949 -0.9806
vn -0.1114 0.9938 -0.0000
vn -0.0950 0.9955 -0.0000
vn -0.0187 0.1952 0.9806
vn 0.0019 0.0032 -1.0000
vn 0.0091 -0.1921 -0.9813
vn 0.0130 -0.1957 0.9806
vn -0.0024 0.0327 0.9995
vn 0.0660 -0.9978 -0.0000
vn 0.0453 -0.9990 -0.0000
vn -0.0126 0.1957 -0.9806
vn -0.0542 0.9985 -0.0000
vn -0.0106 0.1958 0.9806
vn 0.0059 -0.1902 0.9817
vn -0.0007 0.0197 0.9998
vn 0.0292 -0.9996 -0.0000
vn -0.0064 0.2071 0.9783
vn -0.0263 0.9997 -0.0000
vn -0.0064 0.2071 -0.9783
vn -0.0001 -0.0526 -0.9986
vn 0.0054 -0.1845 -0.9828
vn 0.9999 -0.0132 -0.0000
vn -0.9726 -0.2326 -0.0000
vn 0.0414 -0.9991 -0.0000
vn -1.0000 0.0076 -0.0000
vn 0.0096 -0.2312 -0.9729
vn 0.0009 0.0739 -0.9973
vn -0.0001 -0.0736 -0.9973
vn -0.0007 0.0846 0.9964
vn -0.0003 -0.0842 0.9964
vn 0.0096 -0.2312 0.9729
vn 0.9997 -0.0247 -0.0000
vn -0.0096 0.2312 0.9729
vn -0.0414 0.9991 -0.0000
vn -0.0096 0.2312 -0.9729
vt 0.352875 0.633003
vt 0.487720 0.624855
vt 0.488281 0.599537
vt 0.352092 0.606343
vt 0.487645 0.574219
vt 0.351308 0.579684
vt 0.240814 0.597448
vt 0.138009 0.623971
vt 0.140166 0.650346
vt 0.242306 0.623994
vt 0.243799 0.650540
vt 0.142322 0.676721
vt 0.017551 0.722656
vt 0.011719 0.669544
vt 0.014008 0.696362
vt 0.016650 0.722656
vt 0.014184 0.699027
vt 0.139093 0.650501
vt 0.140917 0.674377
vt 0.011719 0.675397
vt 0.137269 0.626624
vt 0.241684 0.622251
vt 0.242951 0.646281
vt 0.240416 0.598221
vt 0.351952 0.603328
vt 0.352622 0.627461
vt 0.351283 0.579196
vt 0.488281 0.621609
vt 0.488281 0.595868
vt 0.488281 0.574219
vt 0.628906 0.511340
vt 0.628906 0.394910
vt 0.687500 0.542969
vt 0.687500 0.363281
vt 0.746094 0.394910
vt 0.746094 0.511340
vt 0.629684 0.397023
vt 0.628906 0.397023
vt 0.628906 0.509225
vt 0.687088 0.542969
vt 0.687889 0.542969
vt 0.629684 0.509225
vt 0.687889 0.363281
vt 0.687088 0.363281
vt 0.745271 0.397025
vt 0.746094 0.509227
vt 0.746094 0.397025
vt 0.745271 0.509227
s 1
f 175/94/226 172/95/227 173/94/228
f 172/95/227 174/95/227 173/94/228
f 178/96/229 174/95/230 172/95/230
f 172/95/231 175/94/232 176/97/233
f 177/96/234 172/95/231 176/97/233
f 177/96/235 178/96/229 172/95/230
f 178/96/236 180/98/237 179/97/238
f 174/95/239 178/96/236 179/97/238
f 180/98/240 178/96/229 177/96/235
f 181/98/240 180/98/240 177/96/235
f 180/98/241 181/98/241 182/99/242
f 180/98/237 182/99/243 179/97/238
f 182/99/243 183/100/244 179/97/238
f 185/100/245 183/100/246 182/99/242
f 181/98/241 184/99/242 182/99/242
f 184/99/242 185/100/245 182/99/242
f 185/100/245 186/101/247 183/100/246
f 187/102/248 186/101/249 185/100/250
f 188/103/251 187/102/248 185/100/250
f 188/103/251 185/100/250 184/99/252
f 176/97/233 188/103/251 184/99/252
f 189/104/253 188/103/251 176/97/233
f 190/105/254 187/102/248 188/103/251
f 189/104/253 190/105/254 188/103/251
f 192/106/255 191/106/255 190/105/256
f 190/105/254 191/106/257 187/102/248
f 193/105/258 192/106/255 190/105/256
f 193/105/258 190/105/256 189/104/259
f 194/102/260 193/105/261 195/104/262
f 192/106/263 193/105/261 194/102/260
f 195/104/264 193/105/258 189/104/259
f 196/103/265 194/102/260 195/104/262
f 195/104/264 189/104/259 175/94/226
f 196/103/265 195/104/262 173/94/266
f 173/94/228 195/104/264 175/94/226
f 183/100/244 196/103/265 179/97/238
f 183/100/244 197/101/267 196/103/265
f 197/101/267 194/102/260 196/103/265
f 179/97/238 196/103/265 173/94/266
f 186/101/247 197/101/268 183/100/246
f 186/101/247 198/107/269 197/101/268
f 198/107/269 199/107/269 197/101/268
f 197/101/267 199/107/270 194/102/260
f 200/108/271 199/107/272 198/107/272
f 199/107/270 200/108/273 194/102/260
f 201/108/274 200/108/271 198/107/272
f 192/106/275 200/108/271 201/108/274
f 200/108/273 192/106/263 194/102/260
f 191/106/275 192/106/275 201/108/274
f 191/106/257 201/108/276 187/102/248
f 201/108/276 198/107/277 187/102/248
f 198/107/277 186/101/249 187/102/248
f 175/94/232 189/104/253 176/97/233
f 184/99/252 181/98/278 176/97/233
f 181/98/278 177/96/234 176/97/233
f 173/94/266 174/95/239 179/97/238
f 208/109/279 212/110/280 218/111/281
f 214/112/282 208/109/279 218/111/281
f 213/110/283 210/109/284 216/112/285
f 219/111/286 213/110/283 216/112/285
f 210/109/287 208/109/287 214/112/288
f 216/112/289 210/109/287 214/112/288
f 212/110/280 209/113/290 215/114/291
f 218/111/281 212/110/280 215/114/291
f 209/113/292 211/113/292 217/114/293
f 215/114/294 209/113/292 217/114/293
f 211/113/295 213/110/283 219/111/286
f 217/114/296 211/113/295 219/111/286
f 214/112/282 218/111/281 224/115/297
f 220/116/298 214/112/282 224/115/297
f 219/111/286 216/112/285 222/116/299
f 225/115/300 219/111/286 222/116/299
f 216/112/289 214/112/288 220/116/301
f 222/116/302 216/112/289 220/116/301
f 218/111/281 215/114/291 221/117/303
f 224/115/297 218/111/281 221/117/303
f 215/114/294 217/114/293 223/117/304
f 221/117/305 215/114/294 223/117/304
f 217/114/296 219/111/286 225/115/300
f 223/117/306 217/114/296 225/115/300
f 220/116/298 224/115/297 230/118/307
f 226/119/308 220/116/298 230/118/307
f 225/115/300 222/116/299 228/119/309
f 231/118/310 225/115/300 228/119/309
f 222/116/302 220/116/301 226/119/311
f 228/119/312 222/116/302 226/119/311
f 224/115/297 221/117/303 227/120/313
f 230/118/307 224/115/297 227/120/313
f 221/117/305 223/117/304 229/120/314
f 227/120/314 221/117/305 229/120/314
f 223/117/306 225/115/300 231/118/310
f 229/120/315 223/117/306 231/118/310
f 204/121/316 207/122/317 231/118/310
f 228/119/309 204/121/316 231/118/310
f 202/121/318 204/121/318 228/119/312
f 226/119/311 202/121/318 228/119/312
f 205/123/319 229/120/315 231/118/310
f 207/122/317 205/123/319 231/118/310
f 203/123/320 227/120/314 229/120/314
f 205/123/320 203/123/320 229/120/314
f 203/123/321 206/122/322 230/118/307
f 227/120/313 203/123/321 230/118/307
f 206/122/322 202/121/323 226/119/308
f 230/118/307 206/122/322 226/119/308
f 205/123/324 207/122/324 206/122/324
f 203/123/324 205/123/324 206/122/324
f 207/122/324 204/121/324 202/121/324
f 206/122/324 207/122/324 202/121/324
f 232/124/325 234/125/325 233/126/325
f 234/125/325 235/127/325 233/126/325
f 235/127/325 236/128/325 237/129/325
f 233/126/325 235/127/325 237/129/325
f 243/130/326 239/131/326 238/132/326
f 239/131/327 240/133/327 238/132/327
f 238/132/328 240/133/329 241/134/330
f 242/135/328 238/132/328 241/134/330
f 242/135/326 243/130/326 238/132/326
f 245/136/331 244/137/332 243/130/333
f 244/137/332 239/131/333 243/130/333
f 242/135/334 241/134/334 243/130/334
f 245/136/334 243/130/334 241/134/334
f 248/138/335 244/137/332 245/136/331
f 246/139/334 245/136/334 241/134/334
f 246/139/334 247/140/334 245/136/334
f 247/140/335 248/138/335 245/136/331
f 249/141/336 248/138/336 247/140/336
f 249/141/327 240/133/327 248/138/327
f 248/138/327 240/133/327 244/137/327
f 240/133/329 249/141/337 246/139/337
f 246/139/336 249/141/336 247/140/336
f 241/134/330 240/133/329 246/139/337
f 240/133/327 239/131/327 244/137/327
o item_blade
v 26.590300 22.520599 11.862098
v 26.590300 22.520599 5.647598
v 33.175800 18.257101 13.730999
v 34.370899 19.927902 13.730998
v 27.751900 24.144600 11.862098
v 27.751900 24.144600 5.647598
v 34.370899 19.927900 3.778699
v 33.175800 18.257099 3.778699
v 39.761299 13.993600 5.647699
v 39.761299 13.993601 11.862199
v 40.990002 15.711200 5.647699
v 40.990002 15.711201 11.862199
v 0.000000 70.710701 -0.000005
v 70.710701 0.000000 0.000000
v 0.000000 55.656200 3.999996
v -55.656101 0.000000 4.000000
v -70.710701 0.000000 0.000000
v 0.000000 -55.656101 4.000004
v 0.000000 -70.710602 0.000005
v 55.656200 0.000000 4.000000
v 0.000000 70.710701 -0.000005
v 0.000000 55.656200 -4.000004
v 70.710701 0.000000 0.000000
v -55.656101 -0.000000 -4.000000
v -70.710701 0.000000 0.000000
v 0.000000 -55.656101 -3.999996
v 0.000000 -70.710602 0.000005
v 55.656200 -0.000000 -4.000000
v 0.000000 70.710701 -0.000005
v 70.710701 0.000000 0.000000
v 0.000000 55.656200 3.999996
v -55.656101 0.000000 4.000000
v -70.710701 0.000000 0.000000
v 0.000000 -55.656101 4.000004
v 0.000000 -70.710602 0.000005
v 55.656200 0.000000 4.000000
v 0.000000 70.710701 -0.000005
v 0.000000 55.656200 -4.000004
v 70.710701 0.000000 0.000000
v -55.656101 -0.000000 -4.000000
v -70.710701 0.000000 0.000000
v 0.000000 -55.656101 -3.999996
v 0.000000 -70.710602 0.000005
v 55.656200 -0.000000 -4.000000
v 0.000000 70.710701 -0.000005
v 70.710701 0.000000 0.000000
v 0.000000 55.656200 3.999996
v -55.656101 0.000000 4.000000
v -70.710701 0.000000 0.000000
v 0.000000 -55.656101 4.000004
v 0.000000 -70.710602 0.000005
v 55.656200 0.000000 4.000000
v 0.000000 70.710701 -0.000005
v 0.000000 55.656200 -4.000004
v 70.710701 0.000000 0.000000
v -55.656101 -0.000000 -4.000000
v -70.710701 0.000000 0.000000
v 0.000000 -55.656101 -3.999996
v 0.000000 -70.710602 0.000005
v 55.656200 -0.000000 -4.000000
v -46.676559 46.324772 11.839538
v -74.329185 84.676247 19.346458
v -74.329185 84.676247 11.839535
v -46.676449 46.324776 19.346460
v -45.763588 44.960823 19.346460
v -45.763474 44.960831 11.839538
v -55.513004 40.023823 9.683680
v -81.825066 79.331238 9.683677
v -54.600033 38.659874 9.683680
v -63.008770 34.678822 11.839539
v -89.320831 73.986237 11.839536
v -63.008770 34.678822 19.346462
v -89.320831 73.986237 19.346458
v -81.824951 79.331238 21.502321
v -55.513008 40.023708 21.502323
v -54.600033 38.659874 21.502323
v -62.095795 33.314873 19.346462
v -62.095795 33.314873 11.839539
v -46.573372 41.510929 14.797327
v -21.976330 -2.456677 14.654786
v -53.077000 37.054630 14.654783
v -15.567611 2.117404 14.797330
v -46.573372 41.510929 16.388674
v -15.567611 2.117404 16.388678
v -53.077000 37.054630 16.531219
v -21.976330 -2.456677 16.531221
v -59.580509 32.598572 15.593001
v -28.384825 -7.030636 15.593005
v 9.157693 -32.500862 14.654789
v 2.847971 -37.170773 15.593007
v 35.778366 -62.558830 15.593009
v 41.983711 -57.808475 14.654791
v 9.157696 -32.500980 16.531223
v 15.467295 -27.831295 16.388680
v 41.983711 -57.808475 16.531225
v 48.188705 -53.058338 16.388681
v 77.399132 -80.253258 16.531227
v 72.769806 -85.479446 15.593011
v 86.911247 -76.916367 16.388683
v 82.168945 -83.142754 15.593011
v 86.911140 -76.916359 14.797336
v 77.399132 -80.253258 14.654792
v 90.705818 -79.285316 15.593010
v 48.188705 -53.058338 14.797334
v 15.467295 -27.831295 14.797332
v -54.627403 38.709583 16.110603
v -46.713299 26.803337 31.028873
v -36.580017 34.208462 30.812889
v -32.257355 44.303913 24.804623
v -36.254745 51.360943 16.460836
v -41.159950 57.696991 8.023234
v -51.993488 57.396824 1.758672
v -62.541721 50.615822 1.192434
v -72.680473 43.209946 1.405809
v -76.994507 33.115051 7.418729
v -73.000168 26.058218 15.760420
v -68.094215 19.725233 24.195791
v -57.264263 20.017660 30.465174
v -67.477905 18.835438 23.162462
v -56.644279 19.135479 29.427351
v -46.096172 25.916351 29.993578
v -54.010380 37.822590 15.075360
v -51.373508 56.514557 0.720760
v -61.924591 49.728836 0.157141
v -72.057907 42.323711 0.373109
v -76.380409 32.228367 6.381419
v -35.957344 33.322247 29.780125
v -72.383041 25.171232 14.725127
v -31.643345 43.417210 23.767284
v -35.637619 50.473953 15.425543
v -40.543732 56.807079 6.989965
v -48.378101 43.891602 14.049597
v -45.475899 39.865200 17.136396
v -48.378201 43.891602 17.136396
v -45.475899 39.865200 14.049597
v -55.037899 39.283600 13.773597
v -52.135700 35.257099 13.773597
v -60.990002 35.165298 14.577897
v -60.990002 35.165298 16.608099
v -58.087700 31.138903 14.577898
v -58.087799 31.138903 16.608099
v -55.037899 39.283501 17.412395
v -52.135700 35.257099 17.412397
v 63.118534 49.269592 11.466396
v 34.321133 14.918979 6.043399
v 63.118534 49.269592 6.043396
v 34.321133 14.918980 11.466399
v 70.364655 45.329685 12.939496
v 70.364655 45.329685 4.570297
v 41.422897 10.808463 4.570299
v 77.610779 41.389881 6.043396
v 77.610779 41.389881 11.466397
v 48.524429 6.698049 6.043399
v 20.847347 -19.530752 6.043401
v 48.524429 6.698049 11.466399
v 20.847347 -19.530752 11.466402
v -8.110917 -42.188877 11.466403
v -14.907106 -37.814369 12.939503
v 13.895069 -15.278709 12.939501
v -21.702938 -33.440197 11.466403
v 41.422897 10.808464 12.939499
v 6.942914 -11.026767 11.466401
v -21.702938 -33.440197 6.043402
v 6.942914 -11.026768 6.043401
v 13.895069 -15.278710 4.570301
v -14.907106 -37.814369 4.570303
v -8.110917 -42.188877 6.043403
v -47.615910 -67.453354 6.043405
v -54.210705 -62.949566 4.570305
v -60.805496 -58.445869 6.043404
v -60.805496 -58.445869 11.466405
v -54.210705 -62.949566 12.939505
v -47.615910 -67.453354 11.466405
v -59.530998 -58.415699 11.466405
v -53.878399 -62.941700 12.939505
v -59.530998 -58.415699 6.043404
v -53.878399 -62.941700 4.570305
v -48.225800 -67.467796 11.466405
v -48.225800 -67.467796 6.043405
vn -0.8134 0.5818 -0.0000
vn -0.5435 -0.8394 -0.0000
vn -0.1887 0.1350 0.9727
vn 0.0644 -0.0461 0.9969
vn -0.0644 0.0461 0.9969
vn 0.0644 -0.0461 -0.9969
vn -0.0644 0.0461 -0.9969
vn -0.1887 0.1350 -0.9727
vn 0.5373 0.8434 -0.0000
vn 0.1887 -0.1350 -0.9727
vn 0.8133 -0.5818 -0.0000
vn 0.1887 -0.1350 0.9727
vn 0.2559 0.0853 0.9629
vn -0.0853 0.2559 0.9629
vn 0.0639 0.1919 0.9793
vn -0.1532 0.0510 0.9869
vn -0.2558 -0.0853 0.9629
vn -0.0639 -0.1919 0.9793
vn 0.0853 -0.2559 0.9629
vn 0.1531 -0.0510 0.9869
vn 0.0639 0.1919 -0.9793
vn -0.1531 0.0510 -0.9869
vn -0.0853 0.2559 -0.9629
vn 0.2559 0.0853 -0.9629
vn -0.2558 -0.0853 -0.9629
vn -0.0639 -0.1919 -0.9793
vn 0.0853 -0.2559 -0.9629
vn 0.1532 -0.0510 -0.9869
vn 0.8212 0.5706 -0.0000
vn 0.8212 0.5707 -0.0000
vn 0.8111 0.5849 -0.0000
vn 0.1600 0.1112 -0.9808
vn 0.0153 0.0108 -0.9998
vn 0.1738 0.1198 -0.9775
vn 0.8310 0.5562 -0.0000
vn 0.8310 0.5563 -0.0000
vn 0.1620 0.1084 -0.9808
vn 0.0036 0.0024 -1.0000
vn -0.1896 -0.1269 -0.9736
vn -0.0757 -0.0532 -0.9957
vn -0.8310 -0.5563 -0.0000
vn -0.5806 0.8142 -0.0000
vn -0.0597 -0.0427 0.9973
vn -0.1895 -0.1269 0.9736
vn -0.1896 -0.1269 0.9736
vn -0.0100 -0.0053 0.9999
vn 0.1738 0.1198 0.9775
vn 0.0411 0.0300 0.9987
vn 0.1605 0.1104 0.9808
vn -0.8310 -0.5562 -0.0000
vn 0.1620 0.1084 0.9808
vn 0.0135 0.0123 -0.9998
vn -0.0205 -0.0185 -0.9996
vn 0.0142 0.0112 -0.9998
vn -0.0578 -0.0453 -0.9973
vn 0.7411 0.6714 -0.0000
vn 0.7858 0.6185 -0.0000
vn 0.7418 0.6706 -0.0000
vn 0.7417 0.6707 -0.0000
vn 0.0135 0.0123 0.9998
vn 0.0142 0.0112 0.9998
vn -0.0217 -0.0174 0.9996
vn -0.0545 -0.0493 0.9973
vn -0.0931 -0.0732 0.9930
vn -0.0887 -0.0794 0.9929
vn -0.0931 -0.0733 0.9930
vn -0.0884 -0.0798 -0.9929
vn -0.0931 -0.0733 -0.9930
vn -0.0345 -0.0381 -0.9987
vn -0.0780 -0.0940 -0.9925
vn -0.0807 -0.0904 0.9926
vn -0.0394 -0.0543 -0.9977
vn -0.0714 -0.1066 -0.9917
vn -0.0724 -0.1044 0.9919
vn -0.0329 -0.0402 0.9987
vn 0.0121 0.0142 0.9998
vn -0.0220 -0.0317 0.9993
vn 0.0025 -0.1002 0.9950
vn 0.0105 0.0156 0.9998
vn -0.0071 -0.1709 0.9853
vn 0.0740 -0.2001 0.9770
vn 0.0589 -0.1212 0.9909
vn 0.0025 -0.1002 -0.9950
vn 0.0589 -0.1212 -0.9909
vn 0.0740 -0.2001 -0.9770
vn 0.0861 -0.1905 -0.9779
vn -0.0071 -0.1709 -0.9853
vn 0.0861 -0.1905 0.9779
vn 0.5269 0.8499 -0.0000
vn 0.5264 0.8502 -0.0000
vn 0.5296 0.8483 -0.0000
vn 0.0107 0.0154 -0.9998
vn 0.5829 0.8126 -0.0000
vn 0.5536 0.8328 -0.0000
vn 0.6391 0.7691 -0.0000
vn 0.0121 0.0142 -0.9998
vn 0.6676 0.7445 -0.0000
vn -0.4164 0.5900 0.6918
vn -0.4170 0.5895 0.6918
vn -0.4165 0.5880 0.6934
vn -0.4185 0.5886 0.6917
vn -0.4182 0.5906 0.6901
vn -0.6573 -0.7189 0.2264
vn -0.5119 -0.7778 0.3646
vn -0.0316 -0.7708 0.6364
vn 0.1057 -0.7255 0.6801
vn 0.3344 -0.6082 0.7199
vn 0.4303 -0.5423 0.7216
vn 0.4164 -0.5900 -0.6918
vn 0.4170 -0.5895 -0.6918
vn 0.4182 -0.5906 -0.6901
vn 0.4165 -0.5880 -0.6934
vn 0.4185 -0.5886 -0.6917
vn 0.6581 0.7184 -0.2256
vn 0.5103 0.7782 -0.3660
vn 0.0329 0.7711 -0.6359
vn 0.7795 0.6226 -0.0697
vn -0.1061 0.7253 -0.6802
vn 0.8642 0.4951 0.0900
vn 0.9070 0.3432 0.2441
vn 0.9068 0.1838 0.3795
vn 0.7145 -0.2567 0.6509
vn -0.8641 -0.4952 -0.0899
vn -0.7794 -0.6227 0.0698
vn -0.9068 -0.3442 -0.2433
vn 0.6217 -0.3688 0.6910
vn -0.9065 -0.1821 -0.3808
vn -0.7153 0.2555 -0.6504
vn -0.4306 0.5421 -0.7216
vn -0.6214 0.3692 -0.6911
vn -0.3341 0.6084 -0.7199
vn 0.8112 0.5847 -0.0000
vn -0.0115 -0.0083 -0.9999
vn 0.0276 0.0199 -0.9994
vn -0.0506 -0.0365 -0.9980
vn -0.0896 -0.0646 -0.9939
vn -0.8112 -0.5847 -0.0000
vn 0.5690 -0.8223 -0.0000
vn 0.5690 -0.8223 0.0001
vn -0.0506 -0.0365 0.9981
vn -0.0896 -0.0646 0.9939
vn -0.0115 -0.0083 0.9999
vn 0.0276 0.0199 0.9994
vn -0.7153 0.6989 -0.0000
vn -0.7663 0.6424 -0.0000
vn -0.7411 0.6714 -0.0000
vn 0.4777 0.8785 -0.0000
vn -0.0446 0.0234 0.9987
vn -0.1374 0.1152 0.9838
vn -0.1339 0.1223 0.9834
vn 0.0119 -0.0113 -0.9999
vn 0.1374 -0.1152 -0.9838
vn 0.0190 -0.0214 -0.9996
vn -0.1374 0.1152 -0.9838
vn 0.7663 -0.6425 -0.0000
vn 0.7283 -0.6853 -0.0000
vn 0.1326 -0.1233 -0.9835
vn 0.1240 -0.1382 -0.9826
vn 0.6649 -0.7470 -0.0000
vn 0.6405 -0.7679 -0.0000
vn 0.5916 -0.8062 -0.0000
vn 0.0004 0.0021 1.0000
vn 0.1094 -0.1591 0.9812
vn 0.1199 -0.1431 0.9824
vn 0.0015 0.0021 1.0000
vn 0.1301 -0.1264 0.9834
vn -0.1235 0.1397 0.9825
vn -0.1134 0.1557 0.9813
vn 0.0016 0.0023 1.0000
vn -0.5916 0.8062 -0.0000
vn -0.5645 0.8254 -0.0000
vn -0.6405 0.7679 -0.0000
vn -0.6649 0.7470 -0.0000
vn -0.0031 -0.0038 -1.0000
vn -0.1192 0.1447 -0.9823
vn -0.1293 0.1281 -0.9833
vn -0.0030 -0.0030 -1.0000
vn -0.1089 0.1607 -0.9810
vn -0.0510 0.0698 -0.9963
vn 0.1139 -0.1540 -0.9815
vn 0.1059 -0.1656 -0.9805
vn -0.1059 0.1656 -0.9805
vn -0.5387 0.8425 -0.0000
vn -0.1059 0.1656 0.9805
vn 0.0404 -0.0347 0.9986
vn 0.1059 -0.1656 0.9805
vn 0.5388 -0.8425 -0.0000
vn 0.5646 -0.8254 -0.0000
vn 0.1374 -0.1152 0.9838
vn -0.6250 -0.7806 -0.0000
vt 0.638360 0.363281
vt 0.628906 0.392028
vt 0.682500 0.467499
vt 0.692226 0.437923
vt 0.736094 0.542969
vt 0.746094 0.512565
vt 0.976562 0.023438
vt 0.095226 0.374655
vt 0.095226 0.374655
vt 0.363281 0.482039
vt 0.055192 0.405964
vt 0.085714 0.371094
vt 0.085714 0.371094
vt 0.329321 0.508598
vt 0.295360 0.535156
vt 0.045679 0.402403
vt 0.021231 0.432522
vt 0.329321 0.508597
vt 0.055191 0.405964
vt 0.011719 0.428961
vt 0.151345 0.832089
vt 0.130777 0.840408
vt 0.053453 0.761719
vt 0.032586 0.769827
vt 0.011719 0.777935
vt 0.110210 0.848726
vt 0.229324 0.893967
vt 0.209069 0.902456
vt 0.333393 0.938984
vt 0.313470 0.947617
vt 0.229324 0.893967
vt 0.249578 0.885478
vt 0.445800 0.978816
vt 0.353316 0.930352
vt 0.430892 0.988281
vt 0.460942 0.983941
vt 0.476237 0.972677
vt 0.476236 0.972677
vt 0.488281 0.976880
vt 0.454238 0.375317
vt 0.498319 0.363281
vt 0.498320 0.453125
vt 0.542401 0.375317
vt 0.574672 0.408202
vt 0.586483 0.453125
vt 0.574672 0.498048
vt 0.542401 0.530933
vt 0.498319 0.542969
vt 0.454238 0.530933
vt 0.421968 0.498048
vt 0.410156 0.453125
vt 0.421968 0.408204
vt 0.425328 0.408204
vt 0.457599 0.375317
vt 0.501680 0.363281
vt 0.501680 0.453125
vt 0.501680 0.542969
vt 0.545762 0.530933
vt 0.578032 0.498048
vt 0.457598 0.530933
vt 0.425328 0.498048
vt 0.545762 0.375317
vt 0.413517 0.453125
vt 0.578032 0.408202
vt 0.589844 0.453125
vt 0.746094 0.420014
vt 0.724172 0.363281
vt 0.724171 0.363281
vt 0.673866 0.428209
vt 0.695788 0.484943
vt 0.628906 0.486236
vt 0.650829 0.542969
vt 0.650828 0.542969
vt 0.673866 0.428210
vt 0.339170 0.617919
vt 0.438130 0.574219
vt 0.463206 0.579277
vt 0.488281 0.584336
vt 0.363750 0.623195
vt 0.388328 0.628470
vt 0.293124 0.661814
vt 0.193447 0.690595
vt 0.169919 0.684984
vt 0.269059 0.656358
vt 0.244994 0.650903
vt 0.146392 0.679374
vt 0.034553 0.716881
vt 0.057387 0.722656
vt 0.011719 0.711106
vt 0.628906 0.363281
vt 0.687500 0.453124
vt 0.746094 0.542969
s 1
f 255/142/338 251/143/338 250/143/338
f 251/143/339 252/144/339 250/143/339
f 250/143/340 252/144/341 253/145/342
f 254/142/340 250/143/340 253/145/342
f 254/142/338 255/142/338 250/143/338
f 256/145/343 257/144/344 255/142/345
f 256/145/346 255/142/346 253/145/346
f 254/142/346 253/145/346 255/142/346
f 257/144/344 251/143/345 255/142/345
f 252/144/339 251/143/339 257/144/339
f 258/146/347 257/144/344 256/145/343
f 258/146/339 252/144/339 257/144/339
f 259/146/348 258/146/348 260/147/348
f 259/146/339 252/144/339 258/146/339
f 260/147/347 258/146/347 256/145/343
f 261/147/346 260/147/346 256/145/346
f 261/147/348 259/146/348 260/147/348
f 252/144/341 259/146/349 261/147/349
f 253/145/342 252/144/341 261/147/349
f 261/147/346 256/145/346 253/145/346
f 263/148/350 262/148/351 264/148/352
f 264/148/352 262/148/351 265/148/353
f 262/148/351 266/148/354 265/148/353
f 265/148/353 266/148/354 267/148/355
f 266/148/354 268/148/356 267/148/355
f 268/148/356 263/148/350 269/148/357
f 267/148/355 268/148/356 269/148/357
f 269/148/357 263/148/350 264/148/352
f 264/148/352 265/148/353 269/148/357
f 265/148/353 267/148/355 269/148/357
f 271/148/358 273/148/359 270/148/360
f 271/148/358 270/148/360 272/148/361
f 273/148/359 274/148/362 270/148/360
f 273/148/359 275/148/363 274/148/362
f 275/148/363 276/148/364 274/148/362
f 277/148/365 272/148/361 276/148/364
f 275/148/363 277/148/365 276/148/364
f 271/148/358 277/148/365 273/148/359
f 277/148/365 271/148/358 272/148/361
f 277/148/365 275/148/363 273/148/359
f 279/148/350 278/148/351 280/148/352
f 280/148/352 278/148/351 281/148/353
f 278/148/351 282/148/354 281/148/353
f 281/148/353 282/148/354 283/148/355
f 282/148/354 284/148/356 283/148/355
f 284/148/356 279/148/350 285/148/357
f 283/148/355 284/148/356 285/148/357
f 280/148/352 281/148/353 285/148/357
f 285/148/357 279/148/350 280/148/352
f 281/148/353 283/148/355 285/148/357
f 287/148/358 289/148/359 286/148/360
f 287/148/358 286/148/360 288/148/361
f 289/148/359 290/148/362 286/148/360
f 289/148/359 291/148/363 290/148/362
f 291/148/363 292/148/364 290/148/362
f 293/148/365 288/148/361 292/148/364
f 291/148/363 293/148/365 292/148/364
f 293/148/365 287/148/358 288/148/361
f 287/148/358 293/148/365 289/148/359
f 293/148/365 291/148/363 289/148/359
f 295/148/350 294/148/351 296/148/352
f 296/148/352 294/148/351 297/148/353
f 294/148/351 298/148/354 297/148/353
f 297/148/353 298/148/354 299/148/355
f 298/148/354 300/148/356 299/148/355
f 300/148/356 295/148/350 301/148/357
f 299/148/355 300/148/356 301/148/357
f 301/148/357 295/148/350 296/148/352
f 296/148/352 297/148/353 301/148/357
f 297/148/353 299/148/355 301/148/357
f 303/148/358 305/148/359 302/148/360
f 303/148/358 302/148/360 304/148/361
f 305/148/359 306/148/362 302/148/360
f 305/148/359 307/148/363 306/148/362
f 307/148/363 308/148/364 306/148/362
f 309/148/365 304/148/361 308/148/364
f 307/148/363 309/148/365 308/148/364
f 303/148/358 309/148/365 305/148/359
f 309/148/365 303/148/358 304/148/361
f 309/148/365 307/148/363 305/148/359
f 313/149/366 310/150/367 311/151/368
f 310/150/367 312/151/368 311/151/368
f 310/150/369 316/152/370 312/151/371
f 310/150/367 313/149/366 314/153/372
f 315/154/373 310/150/367 314/153/372
f 316/152/370 310/150/369 315/154/374
f 317/155/375 316/152/370 320/156/376
f 316/152/370 317/155/375 312/151/371
f 318/157/377 316/152/370 315/154/374
f 319/158/376 316/152/370 318/157/377
f 316/152/370 319/158/376 320/156/376
f 319/158/378 321/158/378 320/156/378
f 321/158/378 322/156/378 320/156/378
f 317/155/379 320/156/379 322/156/379
f 323/159/380 322/156/381 321/158/382
f 323/159/379 317/155/379 322/156/379
f 312/151/379 317/155/379 323/159/379
f 324/160/383 323/159/380 321/158/382
f 311/151/384 323/159/380 324/160/383
f 311/151/379 312/151/379 323/159/379
f 324/160/383 321/158/382 326/161/382
f 325/157/385 324/160/383 326/161/382
f 313/149/386 324/160/383 325/157/385
f 313/149/386 311/151/384 324/160/383
f 326/161/387 321/158/378 327/161/387
f 321/158/378 319/158/378 327/161/387
f 327/161/376 319/158/376 318/157/377
f 314/153/388 313/149/386 325/157/385
f 331/162/389 329/163/390 328/164/391
f 329/163/390 330/165/392 328/164/391
f 331/162/393 328/164/394 332/164/394
f 333/162/395 331/162/396 332/164/394
f 333/162/397 332/164/398 334/165/399
f 335/163/400 333/162/397 334/165/399
f 335/163/400 334/165/399 336/166/401
f 337/167/402 335/163/400 336/166/403
f 337/167/404 336/166/405 330/165/392
f 329/163/390 337/167/404 330/165/392
f 329/163/390 338/168/406 337/167/404
f 338/168/406 339/169/407 337/167/404
f 337/167/402 339/169/408 335/163/400
f 341/170/409 340/171/410 339/169/407
f 339/169/408 340/171/411 342/172/412
f 338/168/406 341/170/409 339/169/407
f 339/169/408 342/172/412 335/163/400
f 342/172/412 343/173/413 333/162/397
f 342/172/412 344/170/414 343/173/413
f 340/171/411 344/170/414 342/172/412
f 335/163/400 342/172/412 333/162/397
f 346/174/415 344/170/414 340/171/411
f 344/170/414 345/175/416 343/173/413
f 344/170/414 346/174/415 345/175/416
f 347/176/417 346/174/415 340/171/411
f 346/174/415 347/176/417 349/177/418
f 346/174/415 348/178/419 345/175/416
f 348/178/419 346/174/415 349/177/418
f 351/174/420 350/179/421 349/177/422
f 350/179/421 352/180/423 349/177/422
f 347/176/424 351/174/420 349/177/422
f 352/180/425 348/178/419 349/177/418
f 350/179/426 348/178/427 352/180/428
f 350/179/421 351/174/420 353/175/429
f 351/174/420 347/176/424 340/171/410
f 351/174/420 341/170/409 353/175/429
f 341/170/409 351/174/420 340/171/410
f 353/175/429 341/170/409 338/168/406
f 345/175/430 353/175/431 354/173/432
f 345/175/430 348/178/427 353/175/431
f 354/173/433 353/175/429 338/168/406
f 348/178/427 350/179/426 353/175/431
f 343/173/434 345/175/430 354/173/432
f 354/173/433 338/168/406 329/163/390
f 343/173/434 354/173/432 331/162/396
f 331/162/389 354/173/433 329/163/390
f 333/162/395 343/173/434 331/162/396
f 367/181/435 356/182/435 355/183/436
f 356/182/435 357/184/435 355/183/436
f 357/184/435 358/185/437 355/183/436
f 358/185/437 359/186/438 355/183/436
f 359/186/438 360/187/439 355/183/436
f 360/187/439 361/188/435 355/183/436
f 361/188/435 362/189/435 355/183/436
f 362/189/435 363/190/435 355/183/436
f 363/190/435 364/191/437 355/183/436
f 364/191/437 365/192/438 355/183/436
f 365/192/438 366/193/439 355/183/436
f 366/193/439 367/181/435 355/183/436
f 366/193/440 368/194/441 367/181/442
f 368/194/441 369/195/443 367/181/442
f 367/181/442 369/195/443 356/182/444
f 369/195/443 370/196/445 356/182/444
f 370/196/446 369/195/446 371/197/447
f 369/195/446 368/194/448 371/197/447
f 373/198/446 372/199/446 371/197/447
f 372/199/446 380/200/448 371/197/447
f 374/201/446 373/198/446 371/197/447
f 375/202/449 374/201/446 371/197/447
f 376/203/446 370/196/446 371/197/447
f 377/204/450 375/202/449 371/197/447
f 378/205/449 376/203/446 371/197/447
f 368/194/448 377/204/450 371/197/447
f 379/206/450 378/205/449 371/197/447
f 380/200/448 379/206/450 371/197/447
f 360/187/451 380/200/452 361/188/453
f 379/206/454 380/200/452 360/187/451
f 380/200/452 372/199/455 361/188/453
f 359/186/456 379/206/454 360/187/451
f 378/205/457 379/206/454 359/186/456
f 358/185/458 378/205/457 359/186/456
f 376/203/459 378/205/457 358/185/458
f 365/192/460 377/204/461 366/193/440
f 375/202/462 377/204/461 365/192/460
f 377/204/461 368/194/441 366/193/440
f 357/184/463 376/203/459 358/185/458
f 370/196/445 376/203/459 357/184/463
f 364/191/464 375/202/462 365/192/460
f 374/201/465 375/202/462 364/191/464
f 373/198/466 374/201/465 363/190/467
f 363/190/467 374/201/465 364/191/464
f 372/199/455 373/198/466 362/189/468
f 362/189/468 373/198/466 363/190/467
f 361/188/453 372/199/455 362/189/468
f 356/182/444 370/196/445 357/184/463
f 384/207/469 381/208/469 382/207/469
f 381/208/469 383/209/469 382/207/469
f 385/210/470 381/208/471 384/207/471
f 386/211/472 385/210/470 384/207/471
f 387/212/473 385/210/470 386/211/472
f 388/212/474 387/212/474 389/213/474
f 389/213/473 387/212/473 386/211/472
f 390/214/474 388/212/474 389/213/474
f 390/214/475 389/213/475 386/211/476
f 391/215/477 388/212/478 390/214/478
f 392/211/475 390/214/475 384/207/475
f 384/207/475 390/214/475 386/211/476
f 392/211/479 391/215/477 390/214/478
f 383/209/480 391/215/477 392/211/479
f 382/207/480 383/209/480 392/211/479
f 382/207/475 392/211/475 384/207/475
f 396/216/481 393/217/482 394/216/483
f 393/217/482 395/217/482 394/216/483
f 398/218/484 395/217/484 393/217/484
f 397/218/485 393/217/486 396/216/487
f 397/218/484 398/218/484 393/217/484
f 400/219/484 398/218/484 397/218/484
f 398/218/488 400/219/489 399/220/490
f 395/217/491 398/218/488 399/220/490
f 401/219/484 400/219/484 397/218/484
f 400/219/492 401/219/492 402/221/493
f 400/219/489 402/221/494 399/220/490
f 402/221/494 403/222/495 399/220/490
f 405/222/496 403/222/497 402/221/493
f 401/219/492 404/221/493 402/221/493
f 404/221/493 405/222/496 402/221/493
f 405/222/496 406/223/498 403/222/497
f 407/224/499 406/223/500 405/222/501
f 408/225/502 407/224/499 405/222/501
f 408/225/502 405/222/501 404/221/503
f 411/226/504 409/227/505 408/225/502
f 409/227/505 407/224/499 408/225/502
f 410/220/506 408/225/502 404/221/503
f 411/226/504 408/225/502 410/220/506
f 412/227/507 409/227/508 411/226/509
f 413/226/510 412/227/507 411/226/509
f 413/226/510 411/226/509 396/216/481
f 396/216/487 411/226/504 410/220/506
f 414/225/511 413/226/512 394/216/513
f 414/225/511 415/224/514 413/226/512
f 394/216/483 413/226/510 396/216/481
f 415/224/514 412/227/515 413/226/512
f 415/224/514 418/228/516 412/227/515
f 416/223/517 415/224/514 414/225/511
f 416/223/517 417/229/518 415/224/514
f 417/229/518 418/228/516 415/224/514
f 418/228/516 419/230/519 412/227/515
f 419/230/520 420/230/520 409/227/508
f 412/227/507 419/230/520 409/227/508
f 409/227/505 420/230/521 407/224/499
f 420/230/521 421/228/522 407/224/499
f 421/228/522 422/229/523 406/223/500
f 407/224/499 421/228/522 406/223/500
f 406/223/498 422/229/524 416/223/525
f 422/229/524 417/229/524 416/223/525
f 406/223/498 416/223/525 403/222/497
f 403/222/495 416/223/517 414/225/511
f 403/222/495 414/225/511 399/220/490
f 399/220/490 414/225/511 394/216/513
f 410/220/506 397/218/485 396/216/487
f 401/219/526 397/218/485 410/220/506
f 404/221/503 401/219/526 410/220/506
f 394/216/513 395/217/491 399/220/490
f 423/231/527 425/231/527 424/232/527
f 425/231/527 426/232/527 424/232/527
f 424/232/527 426/232/527 427/233/527
f 426/232/527 428/233/527 427/233/527
o item_damaged
v -29.153999 3.117801 15.308600
v -24.850100 -8.020700 15.206201
v -22.281900 0.038201 15.206200
v -32.607300 -7.718799 15.308601
v -29.153999 3.117701 16.452700
v -22.282000 0.038101 16.555099
v -32.607300 -7.718799 16.452700
v -24.850201 -8.020799 16.555099
v -17.092899 -8.322799 15.880601
v -15.409900 -3.041299 15.880600
v -12.769352 -27.540874 12.696839
v -63.673359 -71.074867 19.064478
v -63.673359 -71.074867 12.696843
v -12.769352 -27.540874 19.064474
v -10.961204 -26.079710 19.064474
v -10.961204 -26.079710 12.696839
v -4.809794 -36.923893 10.868076
v -56.921337 -79.034271 10.868079
v -3.001536 -35.462624 10.868076
v 1.942222 -44.883186 12.696841
v -50.169323 -86.993553 12.696844
v 1.942334 -44.883190 19.064476
v -50.169323 -86.993553 19.064478
v -56.921341 -79.034149 20.893240
v -4.809681 -36.923897 20.893236
v -3.001531 -35.462734 20.893236
v 3.750484 -43.422024 19.064476
v 3.750484 -43.422024 12.696840
v -5.951000 -27.676098 15.308602
v 42.820202 6.502701 15.206199
v -1.127600 -33.495300 15.206203
v 37.865799 12.200401 15.308599
v -5.950900 -27.676098 16.452702
v 37.865799 12.200401 16.452700
v -1.127700 -33.495300 16.555101
v 3.695500 -39.314400 15.880603
v 42.820202 6.502602 16.555099
v 47.774502 0.805101 15.880600
v -3.068654 -35.508263 16.614643
v 8.249861 -26.407711 31.769489
v -0.156994 -16.823402 31.530628
v -10.755943 -13.368397 25.412802
v -17.524216 -18.057430 16.931540
v -23.487926 -23.605412 8.365420
v -22.200500 -34.547291 2.015632
v -14.386978 -44.608738 1.459851
v -5.978946 -54.198532 1.696106
v 4.618852 -57.644844 7.818530
v 11.386986 -52.958973 16.297615
v 17.347672 -47.410378 24.861675
v 16.068384 -36.471485 31.216276
v 18.529922 -46.433025 23.395699
v 17.242516 -35.491070 29.745701
v -1.889406 -34.530190 15.146576
v 9.429111 -25.429733 30.301479
v 1.020973 -15.839891 30.065197
v -9.576801 -12.393566 23.942799
v -16.344965 -17.079454 15.463530
v -22.305643 -22.628078 6.899457
v -21.026400 -33.566872 0.545032
v -13.207827 -43.630661 -0.008142
v -4.800970 -53.214962 0.230721
v 5.798072 -56.669952 6.348481
v 12.566254 -51.981018 14.829606
v -9.684300 -29.093998 14.571502
v -4.336400 -24.520699 17.189802
v -9.684300 -29.093998 17.189802
v -4.336400 -24.520597 14.571502
v -3.830000 -36.157200 14.337303
v 1.518000 -31.583899 14.337303
v 1.402200 -42.469700 15.019603
v 1.402200 -42.469700 16.741703
v 6.750000 -37.896400 15.019603
v 6.750100 -37.896400 16.741703
v -3.830000 -36.157200 17.424002
v 1.518000 -31.583899 17.424002
v -47.485100 74.001503 15.308595
v -51.311600 77.422798 15.880594
v -47.485100 74.001404 16.452694
v -42.651699 80.013397 15.880594
v -37.841202 75.811600 15.206194
v -8.435800 39.442101 15.308598
v -2.130400 43.504501 15.206197
v -8.435800 39.442101 16.452696
v 20.230400 19.849901 15.206198
v 12.789900 16.988201 15.308599
v 12.789900 16.988201 16.452698
v -2.130500 43.504601 16.555096
v 20.230400 19.849901 16.555098
v 27.671101 22.711702 15.880598
v 4.175200 47.567299 15.880596
v -37.841202 75.811600 16.555094
v -33.127602 80.726303 15.880594
v -55.002800 -4.131499 15.308600
v -48.492500 -0.307299 15.206200
v -62.818199 5.832301 15.308600
v -62.818199 5.832302 16.452700
v -55.002899 -4.131399 16.452700
v -56.299702 9.645901 16.555099
v -48.492401 -0.307499 16.555099
v -41.982101 3.516601 15.880600
v -49.781101 13.459501 15.880599
v -56.299599 9.645901 15.206199
v 19.032801 52.480801 15.308597
v 25.285299 48.283699 15.206196
v 25.472500 68.316498 15.308596
v 25.472401 68.316498 16.452694
v 19.032801 52.480801 16.452696
v 31.160200 62.730900 16.555096
v 25.285299 48.283699 16.555096
v 31.537800 44.086800 15.880597
v 36.848099 57.145100 15.880595
v 31.160200 62.730900 15.206195
v -39.834801 34.469398 15.308598
v -30.776600 22.921202 15.308599
v -32.939098 37.802299 15.206197
v -30.776600 22.921103 16.452698
v -39.834801 34.469398 16.452698
v -24.258101 26.734701 16.555098
v -32.939201 37.802299 16.555098
v -26.043501 41.135201 15.880597
v -17.739500 30.548302 15.880598
v -24.257999 26.734802 15.206198
v 65.920898 20.866402 16.452698
v 53.761101 30.418102 16.555098
v 61.289398 31.826202 16.452698
v 59.833099 16.049501 16.555098
v 65.920799 20.866402 15.308599
v 59.833000 16.049501 15.206199
v 61.289299 31.826302 15.308598
v 53.761101 30.418102 15.206198
v 53.745098 11.232301 15.880599
v 46.232800 29.010101 15.880598
v 0.000000 70.710701 -0.000005
v 70.710701 0.000000 0.000000
v 0.000000 55.656200 3.999996
v -55.656101 0.000000 4.000000
v -70.710701 0.000000 0.000000
v 0.000000 -55.656101 4.000004
v 0.000000 -70.710602 0.000005
v 55.656200 0.000000 4.000000
v 0.000000 70.710701 -0.000005
v 0.000000 55.656200 -4.000004
v 70.710701 0.000000 0.000000
v -55.656101 -0.000000 -4.000000
v -70.710701 0.000000 0.000000
v 0.000000 -55.656101 -3.999996
v 0.000000 -70.710602 0.000005
v 55.656200 -0.000000 -4.000000
v 0.000000 70.710701 -0.000005
v 70.710701 0.000000 0.000000
v 0.000000 55.656200 3.999996
v -55.656101 0.000000 4.000000
v -70.710701 0.000000 0.000000
v 0.000000 -55.656101 4.000004
v 0.000000 -70.710602 0.000005
v 55.656200 0.000000 4.000000
v 0.000000 70.710701 -0.000005
v 0.000000 55.656200 -4.000004
v 70.710701 0.000000 0.000000
v -55.656101 -0.000000 -4.000000
v -70.710701 0.000000 0.000000
v 0.000000 -55.656101 -3.999996
v 0.000000 -70.710602 0.000005
v 55.656200 -0.000000 -4.000000
v 0.000000 70.710701 -0.000005
v 70.710701 0.000000 0.000000
v 0.000000 55.656200 3.999996
v -55.656101 0.000000 4.000000
v -70.710701 0.000000 0.000000
v 0.000000 -55.656101 4.000004
v 0.000000 -70.710602 0.000005
v 55.656200 0.000000 4.000000
v 0.000000 70.710701 -0.000005
v 0.000000 55.656200 -4.000004
v 70.710701 0.000000 0.000000
v -55.656101 -0.000000 -4.000000
v -70.710701 0.000000 0.000000
v 0.000000 -55.656101 -3.999996
v 0.000000 -70.710602 0.000005
v 55.656200 -0.000000 -4.000000
vn -0.0130 0.0042 -0.9999
vn 0.0198 -0.0063 -0.9998
vn 0.0527 -0.0168 -0.9985
vn -0.9528 0.3036 -0.0000
vn 0.0199 -0.0063 0.9998
vn -0.0130 0.0042 0.9999
vn 0.0527 -0.0168 0.9985
vn 0.0855 -0.0273 0.9960
vn 0.0855 -0.0273 -0.9960
vn -0.6393 0.7690 -0.0000
vn -0.6499 0.7600 -0.0000
vn -0.0940 0.1130 -0.9891
vn -0.0089 0.0106 -0.9999
vn -0.1016 0.1230 -0.9872
vn -0.6285 0.7778 -0.0000
vn -0.0924 0.1144 -0.9891
vn -0.0016 0.0020 -1.0000
vn 0.1085 -0.1343 -0.9850
vn 0.0444 -0.0529 -0.9976
vn 0.6285 -0.7778 -0.0000
vn -0.7626 -0.6469 -0.0000
vn 0.0360 -0.0424 0.9985
vn 0.1085 -0.1343 0.9850
vn -0.1016 0.1230 0.9872
vn 0.0049 -0.0071 1.0000
vn -0.0937 0.1133 0.9891
vn -0.0251 0.0291 0.9993
vn -0.0924 0.1144 0.9891
vn -0.0091 0.0100 -0.9999
vn 0.0139 -0.0153 -0.9998
vn 0.0369 -0.0406 -0.9985
vn -0.6731 0.7396 0.0001
vn -0.6731 0.7396 -0.0000
vn -0.0091 0.0100 0.9999
vn 0.0139 -0.0152 0.9998
vn 0.0369 -0.0406 0.9985
vn 0.0139 -0.0153 0.9998
vn 0.0599 -0.0658 0.9960
vn 0.0599 -0.0658 -0.9960
vn -0.5513 -0.4663 0.6918
vn -0.5509 -0.4669 0.6918
vn -0.5496 -0.4663 0.6932
vn -0.5499 -0.4681 0.6918
vn -0.5517 -0.4680 0.6903
vn -0.5495 -0.4663 0.6932
vn 0.7641 0.0497 0.6432
vn 0.7178 0.1570 0.6784
vn 0.5670 0.3989 0.7207
vn 0.7724 -0.5934 0.2266
vn 0.8195 -0.4386 0.3689
vn 0.5513 0.4663 -0.6918
vn 0.5509 0.4669 -0.6918
vn 0.5517 0.4680 -0.6903
vn 0.5103 0.4674 0.7219
vn 0.3013 0.6623 0.6860
vn 0.2042 0.7289 0.6534
vn -0.2607 0.8878 0.3792
vn -0.4242 0.8733 0.2396
vn 0.5496 0.4663 -0.6932
vn -0.5500 0.8281 0.1088
vn -0.7020 0.7059 -0.0947
vn 0.5499 0.4681 -0.6918
vn -0.8198 0.4367 -0.3705
vn -0.7718 0.5945 -0.2254
vn -0.7171 -0.1585 -0.6787
vn -0.7650 -0.0474 -0.6423
vn -0.5101 -0.4677 -0.7219
vn -0.5673 -0.3986 -0.7206
vn -0.3025 -0.6613 -0.6864
vn -0.2021 -0.7302 -0.6526
vn 0.2587 -0.8878 -0.3807
vn 0.4254 -0.8730 -0.2384
vn 0.5501 -0.8280 -0.1087
vn 0.7021 -0.7058 0.0948
vn 0.0069 -0.0081 -0.9999
vn -0.0166 0.0194 -0.9997
vn 0.0305 -0.0356 -0.9989
vn 0.0539 -0.0630 -0.9966
vn 0.6499 -0.7600 -0.0000
vn 0.7699 0.6381 -0.0000
vn 0.0069 -0.0081 0.9999
vn 0.0304 -0.0356 0.9989
vn 0.0539 -0.0630 0.9966
vn -0.0166 0.0194 0.9997
vn -0.0264 0.0786 -0.9966
vn -0.0372 0.1242 -0.9916
vn -0.0271 0.1305 -0.9911
vn -0.6646 -0.7472 -0.0001
vn -0.6642 -0.7475 -0.0000
vn -0.6665 -0.7455 -0.0001
vn -0.6847 -0.7288 -0.0000
vn 0.0109 0.0651 -0.9978
vn -0.0097 -0.0100 -0.9999
vn -0.7060 -0.7082 -0.0000
vn 0.0350 0.0348 -0.9988
vn 0.0154 0.0145 -0.9998
vn -0.7267 -0.6870 -0.0000
vn -0.0101 -0.0095 -0.9999
vn 0.0408 0.0386 0.9984
vn 0.0198 0.0204 0.9996
vn -0.0101 -0.0095 0.9999
vn -0.0097 -0.0100 0.9999
vn 0.0650 0.0668 0.9956
vn 0.0662 0.0626 0.9958
vn 0.0646 0.0683 -0.9956
vn 0.0273 0.1101 -0.9935
vn 0.0274 0.1101 0.9935
vn 0.0109 0.0651 0.9978
vn 0.0662 0.0626 -0.9958
vn -0.0272 0.1305 0.9911
vn -0.0264 0.0787 0.9966
vn -0.0372 0.1242 0.9916
vn 0.0164 0.0129 -0.9998
vn -0.0108 -0.0084 -0.9999
vn -0.7868 -0.6172 -0.0000
vn -0.0108 -0.0084 0.9999
vn 0.0164 0.0128 0.9998
vn 0.0436 0.0342 0.9985
vn 0.0706 0.0554 0.9960
vn 0.0706 0.0554 -0.9960
vn 0.0435 0.0341 -0.9985
vn 0.0196 -0.0080 -0.9998
vn -0.0129 0.0052 -0.9999
vn -0.9263 0.3767 -0.0001
vn -0.9263 0.3767 -0.0000
vn -0.0129 0.0052 0.9999
vn 0.0197 -0.0080 0.9998
vn 0.0520 -0.0212 0.9984
vn 0.0844 -0.0343 0.9958
vn 0.0844 -0.0343 -0.9958
vn 0.0520 -0.0212 -0.9984
vn -0.7868 -0.6172 -0.0001
vn 0.0164 0.0129 0.9998
vn 0.0435 0.0342 -0.9985
vn -0.0125 -0.0472 0.9988
vn 0.0126 0.0053 0.9999
vn -0.0572 0.0262 0.9980
vn -0.0351 -0.0148 0.9993
vn 0.9211 0.3893 -0.0001
vn 0.0126 0.0053 -0.9999
vn -0.0192 -0.0081 -0.9998
vn 0.9211 0.3893 -0.0000
vn -0.0510 -0.0215 -0.9985
vn -0.9211 -0.3892 -0.0001
vn -0.9211 -0.3892 -0.0000
vn 0.2559 0.0853 0.9629
vn -0.0853 0.2559 0.9629
vn 0.0639 0.1919 0.9793
vn -0.1532 0.0510 0.9869
vn -0.2558 -0.0853 0.9629
vn -0.0639 -0.1919 0.9793
vn 0.0853 -0.2559 0.9629
vn 0.1531 -0.0510 0.9869
vn 0.0639 0.1919 -0.9793
vn -0.1531 0.0510 -0.9869
vn -0.0853 0.2559 -0.9629
vn 0.2559 0.0853 -0.9629
vn -0.2558 -0.0853 -0.9629
vn -0.0639 -0.1919 -0.9793
vn 0.0853 -0.2559 -0.9629
vn 0.1532 -0.0510 -0.9869
vt 0.011719 0.976320
vt 0.107414 0.761719
vt 0.226681 0.982299
vt 0.297849 0.822705
vt 0.107414 0.761721
vt 0.297846 0.822707
vt 0.226678 0.982301
vt 0.441643 0.988281
vt 0.488281 0.883690
vt 0.282278 0.375129
vt 0.011719 0.495014
vt 0.320914 0.398790
vt 0.291869 0.371094
vt 0.044494 0.515085
vt 0.077269 0.535156
vt 0.330506 0.394755
vt 0.353690 0.418862
vt 0.353690 0.418862
vt 0.044494 0.515085
vt 0.320915 0.398790
vt 0.330506 0.394755
vt 0.363281 0.414826
vt 0.400388 0.761719
vt 0.444335 0.786777
vt 0.011719 0.937096
vt 0.054504 0.962689
vt 0.011720 0.937096
vt 0.054503 0.962689
vt 0.444335 0.786778
vt 0.097286 0.988281
vt 0.488281 0.811835
vt 0.453830 0.413585
vt 0.497504 0.456713
vt 0.541178 0.499841
vt 0.573150 0.531413
vt 0.584852 0.542969
vt 0.497504 0.456713
vt 0.421859 0.382013
vt 0.410156 0.370457
vt 0.458822 0.406410
vt 0.426850 0.374837
vt 0.502496 0.449537
vt 0.502496 0.449537
vt 0.546170 0.492665
vt 0.578141 0.524238
vt 0.589844 0.535793
vt 0.578141 0.524237
vt 0.415148 0.363281
vt 0.746094 0.484497
vt 0.716235 0.542969
vt 0.746093 0.484497
vt 0.670120 0.478960
vt 0.699978 0.420487
vt 0.628906 0.421753
vt 0.658765 0.363282
vt 0.658765 0.363281
vt 0.034807 0.785623
vt 0.011719 0.773461
vt 0.063970 0.764253
vt 0.034807 0.785623
vt 0.270421 0.908467
vt 0.092996 0.779188
vt 0.308466 0.894027
vt 0.443386 0.978109
vt 0.398492 0.988281
vt 0.308466 0.894026
vt 0.346513 0.879585
vt 0.488281 0.967937
vt 0.121437 0.761719
vt 0.339376 0.939028
vt 0.190472 0.988281
vt 0.011719 0.859953
vt 0.190470 0.988280
vt 0.160810 0.810836
vt 0.339378 0.939030
vt 0.488281 0.889778
vt 0.309903 0.761719
vt 0.160812 0.810836
vt 0.094266 0.908766
vt 0.176816 0.988281
vt 0.488281 0.906386
vt 0.488281 0.906387
vt 0.378421 0.834053
vt 0.011719 0.829251
vt 0.268556 0.761719
vt 0.011719 0.844634
vt 0.207091 0.988280
vt 0.207091 0.988281
vt 0.160449 0.803176
vt 0.347685 0.940844
vt 0.160446 0.803176
vt 0.488281 0.893408
vt 0.309176 0.761719
vt 0.347687 0.940843
vt 0.123193 0.831775
vt 0.234660 0.761719
vt 0.455694 0.901649
vt 0.488279 0.815016
vt 0.234660 0.761720
vt 0.123193 0.831776
vt 0.488281 0.815017
vt 0.011719 0.901833
vt 0.423112 0.988281
vt 0.976562 0.023438
s 1
f 432/234/528 429/235/528 430/236/529
f 429/235/528 431/237/530 430/236/529
f 433/238/531 429/235/531 432/234/531
f 434/239/532 433/238/533 435/234/533
f 435/234/531 433/238/531 432/234/531
f 436/240/534 434/239/532 435/234/533
f 437/241/535 438/242/535 436/240/534
f 438/242/535 434/239/532 436/240/534
f 431/237/530 438/242/536 437/241/536
f 430/236/529 431/237/530 437/241/536
f 442/243/537 439/243/537 440/244/538
f 439/243/537 441/244/538 440/244/538
f 439/243/539 445/245/540 441/244/541
f 439/243/537 442/243/537 443/246/542
f 444/246/542 439/243/537 443/246/542
f 445/245/540 439/243/539 444/246/543
f 446/247/544 445/245/540 449/248/545
f 445/245/540 446/247/544 441/244/541
f 447/249/546 445/245/540 444/246/543
f 448/250/545 445/245/540 447/249/546
f 445/245/540 448/250/545 449/248/545
f 448/250/547 450/251/547 449/248/547
f 450/251/547 451/248/547 449/248/547
f 446/247/548 449/248/548 451/248/548
f 452/252/549 451/248/550 450/251/550
f 452/252/548 446/247/548 451/248/548
f 440/244/551 452/252/549 453/253/552
f 440/244/548 441/244/548 452/252/548
f 441/244/548 446/247/548 452/252/548
f 453/253/552 452/252/549 450/251/550
f 442/243/553 440/244/551 453/253/552
f 442/243/553 453/253/552 454/254/554
f 453/253/552 450/251/550 455/255/550
f 454/254/554 453/253/552 455/255/550
f 455/255/547 450/251/547 456/255/547
f 450/251/547 448/250/547 456/255/547
f 456/255/545 448/250/545 447/249/546
f 443/246/555 442/243/553 454/254/554
f 460/256/556 458/257/557 457/258/556
f 458/257/557 459/259/558 457/258/556
f 460/256/559 457/258/559 461/260/559
f 462/256/560 460/256/560 461/260/560
f 462/256/561 461/260/561 463/261/562
f 465/262/563 463/261/564 464/263/565
f 465/262/563 462/256/561 463/261/564
f 466/264/565 465/262/563 464/263/565
f 466/264/566 464/263/566 459/259/558
f 458/257/557 466/264/566 459/259/558
f 479/265/567 468/266/567 467/266/568
f 468/266/567 469/267/567 467/266/568
f 469/267/567 470/268/569 467/266/568
f 470/268/569 471/269/570 467/266/568
f 471/269/570 472/268/571 467/266/568
f 472/268/571 473/267/567 467/266/568
f 473/267/567 474/270/567 467/266/568
f 474/270/567 475/265/567 467/266/568
f 475/265/567 476/271/572 467/266/568
f 476/271/572 477/272/570 467/266/568
f 477/272/570 478/271/571 467/266/568
f 478/271/571 479/265/567 467/266/568
f 479/265/573 481/273/574 468/266/575
f 478/271/576 480/274/577 479/265/573
f 480/274/577 481/273/574 479/265/573
f 483/275/578 481/273/578 482/276/579
f 481/273/578 480/274/580 482/276/579
f 481/273/574 483/275/581 468/266/575
f 468/266/575 483/275/581 469/267/582
f 483/275/581 484/277/583 469/267/582
f 484/277/578 483/275/578 482/276/579
f 469/267/582 484/277/583 470/268/584
f 484/277/583 485/278/585 470/268/584
f 485/278/586 484/277/578 482/276/579
f 470/268/584 485/278/585 471/269/587
f 485/278/585 486/279/588 471/269/587
f 486/279/589 485/278/586 482/276/579
f 487/280/580 486/279/589 482/276/579
f 486/279/588 487/280/590 472/268/591
f 471/269/587 486/279/588 472/268/591
f 488/277/578 487/280/580 482/276/579
f 487/280/590 488/277/592 473/267/593
f 472/268/591 487/280/590 473/267/593
f 489/276/578 488/277/578 482/276/579
f 488/277/592 489/276/594 474/270/595
f 473/267/593 488/277/592 474/270/595
f 474/270/595 489/276/594 475/265/596
f 489/276/594 490/273/597 475/265/596
f 490/273/578 489/276/578 482/276/579
f 475/265/596 490/273/597 476/271/598
f 490/273/597 491/274/599 476/271/598
f 491/274/586 490/273/578 482/276/579
f 476/271/598 491/274/599 477/272/600
f 491/274/599 492/281/601 477/272/600
f 492/281/589 491/274/586 482/276/579
f 477/272/600 492/281/601 478/271/576
f 492/281/601 480/274/577 478/271/576
f 480/274/580 492/281/589 482/276/579
f 496/282/538 493/283/538 494/284/538
f 493/283/538 495/283/538 494/284/538
f 497/285/602 493/283/603 496/282/603
f 498/286/604 497/285/602 496/282/603
f 499/287/605 497/285/602 498/286/604
f 500/287/606 499/287/606 501/288/606
f 501/288/605 499/287/605 498/286/604
f 502/289/606 500/287/606 501/288/606
f 502/289/607 501/288/607 498/286/607
f 504/286/608 503/285/609 502/289/610
f 503/285/609 500/287/610 502/289/610
f 504/286/607 502/289/607 496/282/607
f 496/282/607 502/289/607 498/286/607
f 494/284/607 504/286/607 496/282/607
f 494/284/611 495/283/611 504/286/608
f 495/283/611 503/285/609 504/286/608
f 505/290/612 506/291/613 508/292/614
f 505/290/615 507/293/616 506/291/617
f 507/293/616 505/290/615 510/294/618
f 509/295/619 505/290/612 508/292/614
f 505/290/612 509/295/619 510/294/620
f 512/294/621 507/293/616 510/294/618
f 509/295/619 511/296/622 510/294/620
f 510/294/620 511/296/622 513/297/623
f 512/294/621 510/294/618 514/298/624
f 514/298/625 510/294/620 513/297/623
f 515/298/624 512/294/621 514/298/624
f 517/297/626 516/299/627 515/298/628
f 516/299/627 512/294/629 515/298/628
f 519/300/630 516/299/627 517/297/626
f 518/301/631 519/300/630 517/297/626
f 511/296/622 509/295/619 519/300/632
f 509/295/619 521/302/633 519/300/632
f 521/302/634 520/295/635 519/300/630
f 520/295/635 516/299/627 519/300/630
f 511/296/622 519/300/632 518/301/636
f 520/295/635 521/302/634 508/292/637
f 521/302/633 509/295/619 508/292/614
f 520/295/635 507/293/638 512/294/629
f 507/293/638 520/295/635 508/292/637
f 516/299/627 520/295/635 512/294/629
f 513/297/623 511/296/622 518/301/636
f 506/291/639 507/293/638 508/292/637
f 523/303/640 522/304/641 524/305/641
f 524/305/642 522/304/642 525/305/642
f 522/304/642 526/306/642 525/305/642
f 525/305/643 526/306/643 527/307/644
f 526/306/643 528/308/645 527/307/644
f 528/308/645 529/309/646 530/310/646
f 527/307/644 528/308/645 530/310/646
f 530/310/647 529/309/647 531/311/648
f 529/309/647 523/303/640 531/311/648
f 531/311/648 523/303/640 524/305/641
f 533/312/649 532/313/650 534/314/650
f 534/314/651 532/313/652 535/315/651
f 532/313/652 536/313/652 535/315/651
f 535/315/653 536/313/653 537/316/654
f 536/313/653 538/312/655 537/316/654
f 538/312/655 539/317/656 540/318/656
f 537/316/654 538/312/655 540/318/656
f 540/318/657 539/317/657 541/316/658
f 539/317/657 533/312/649 541/316/658
f 541/316/658 533/312/649 534/314/650
f 542/319/659 543/320/659 545/321/659
f 543/320/641 542/319/641 544/322/640
f 546/319/642 542/319/642 545/321/642
f 545/321/643 547/323/660 546/319/643
f 547/323/660 548/324/645 546/319/643
f 550/325/646 549/326/646 548/324/645
f 547/323/660 550/325/646 548/324/645
f 550/325/647 551/327/661 549/326/647
f 551/327/648 543/320/641 544/322/640
f 551/327/648 544/322/640 549/326/647
f 555/328/662 552/329/663 553/330/664
f 552/329/663 554/331/663 553/330/665
f 554/331/666 552/329/666 556/332/666
f 556/332/667 557/333/668 558/334/667
f 558/334/669 554/331/669 556/332/669
f 557/333/668 559/330/670 558/334/667
f 557/333/668 560/335/671 559/330/670
f 560/335/671 561/336/672 559/330/670
f 560/335/671 555/328/662 561/336/672
f 555/328/662 553/330/664 561/336/672
f 563/337/673 562/337/674 564/337/675
f 564/337/675 562/337/674 565/337/676
f 562/337/674 566/337/677 565/337/676
f 565/337/676 566/337/677 567/337/678
f 566/337/677 568/337/679 567/337/678
f 568/337/679 563/337/673 569/337/680
f 567/337/678 568/337/679 569/337/680
f 569/337/680 563/337/673 564/337/675
f 564/337/675 565/337/676 569/337/680
f 565/337/676 567/337/678 569/337/680
f 571/337/681 573/337/682 570/337/683
f 571/337/681 570/337/683 572/337/684
f 573/337/682 574/337/685 570/337/683
f 573/337/682 575/337/686 574/337/685
f 575/337/686 576/337/687 574/337/685
f 577/337/688 572/337/684 576/337/687
f 575/337/686 577/337/688 576/337/687
f 571/337/681 577/337/688 573/337/682
f 577/337/688 571/337/681 572/337/684
f 577/337/688 575/337/686 573/337/682
f 579/337/673 578/337/674 580/337/675
f 580/337/675 578/337/674 581/337/676
f 578/337/674 582/337/677 581/337/676
f 581/337/676 582/337/677 583/337/678
f 582/337/677 584/337/679 583/337/678
f 584/337/679 579/337/673 585/337/680
f 583/337/678 584/337/679 585/337/680
f 580/337/675 581/337/676 585/337/680
f 585/337/680 579/337/673 580/337/675
f 581/337/676 583/337/678 585/337/680
f 587/337/681 589/337/682 586/337/683
f 587/337/681 586/337/683 588/337/684
f 589/337/682 590/337/685 586/337/683
f 589/337/682 591/337/686 590/337/685
f 591/337/686 592/337/687 590/337/685
f 593/337/688 588/337/684 592/337/687
f 591/337/686 593/337/688 592/337/687
f 593/337/688 587/337/681 588/337/684
f 587/337/681 593/337/688 589/337/682
f 593/337/688 591/337/686 589/337/682
f 595/337/673 594/337/674 596/337/675
f 596/337/675 594/337/674 597/337/676
f 594/337/674 598/337/677 597/337/676
f 597/337/676 598/337/677 599/337/678
f 598/337/677 600/337/679 599/337/678
f 600/337/679 595/337/673 601/337/680
f 599/337/678 600/337/679 601/337/680
f 601/337/680 595/337/673 596/337/675
f 596/337/675 597/337/676 601/337/680
f 597/337/676 599/337/678 601/337/680
f 603/337/681 605/337/682 602/337/683
f 603/337/681 602/337/683 604/337/684
f 605/337/682 606/337/685 602/337/683
f 605/337/682 607/337/686 606/337/685
f 607/337/686 608/337/687 606/337/685
f 609/337/688 604/337/684 608/337/687
f 607/337/686 609/337/688 608/337/687
f 603/337/681 609/337/688 605/337/682
f 609/337/688 603/337/681 604/337/684
f 609/337/688 607/337/686 605/337/682
o effect
v -35.609547 -3.592329 -3.002900
v -122.300659 -6.830393 3.325500
v -35.609547 -3.592328 3.002900
v -122.300659 -6.830394 -3.325500
v -122.709923 0.743576 -5.574100
v -35.159588 3.609480 -4.606400
v -35.159588 3.609481 4.606400
v -122.709923 0.743577 5.574100
v -35.478771 10.803109 3.002899
v -35.478771 10.803109 -3.002901
v -123.119301 8.317546 3.325499
v -194.194550 2.511918 3.325500
v -123.119301 8.317546 -3.325501
v -194.194550 2.511918 -3.325500
v -260.358368 -5.731421 -3.325500
v -259.065582 -13.215130 -5.574099
v -193.328796 -5.025070 -5.574100
v -192.463318 -12.561962 -3.325499
v -257.773010 -20.698746 -3.325498
v -338.123016 -34.611061 -3.220097
v -338.123016 -34.611061 3.220103
v -257.773010 -20.698746 3.325502
v -259.065582 -13.215130 5.574101
v -192.463318 -12.561962 3.325501
v -193.328796 -5.025069 5.574100
v -260.358368 -5.731420 3.325500
v -341.683563 -19.550928 -3.220098
v -341.683563 -19.550928 3.220101
v -340.307312 -27.159653 4.939602
v -340.307312 -27.159653 -4.939598
v -35.543293 -3.177684 -2.357800
v -35.377464 9.391680 -2.357801
v -35.543293 -3.177684 2.357800
v -35.377464 9.391680 2.357799
v -35.453220 3.649457 -3.638800
v -35.453220 3.649457 3.638800
v -337.644928 -33.388027 -2.357797
v -340.634460 -20.888947 -2.357798
v -337.644928 -33.388027 2.357803
v -340.634460 -20.888947 2.357802
v -339.139618 -27.138489 -3.638798
v -339.139618 -27.138489 3.638802
v -257.970245 -19.684578 -2.357799
v -260.137360 -7.045089 -2.357800
v -257.970245 -19.684578 2.357801
v -260.137360 -7.045089 2.357800
v -259.053711 -13.364934 -3.638799
v -259.053711 -13.364934 3.638801
v -192.590942 -11.494861 -2.357799
v -194.044693 1.233864 -2.357800
v -192.590942 -11.494861 2.357801
v -194.044693 1.233865 2.357800
v -193.317734 -5.130546 -3.638799
v -193.317734 -5.130545 3.638800
v -122.358353 -5.710578 -2.357800
v -123.045959 7.081349 -2.357800
v -122.358353 -5.710578 2.357800
v -123.045959 7.081349 2.357800
v -122.702103 0.685386 -3.638800
v -122.702103 0.685387 3.638800
v -337.644928 -33.388027 -2.357797
v -339.139618 -27.138489 -3.638798
v -337.644928 -33.388027 2.357803
v -339.139618 -27.138489 3.638802
v -340.634460 -20.888947 2.357802
v -340.634460 -20.888947 -2.357798
v -103.135185 -6.017891 -2.701900
v -103.135185 -6.017891 2.702000
v -103.083420 0.821895 -4.327100
v -98.895630 0.995377 -4.327100
v -99.064865 -5.849342 -2.701900
v -99.064865 -5.849342 2.702000
v -103.083420 0.821896 4.327100
v -98.895630 0.995378 4.327100
v -98.726410 7.840097 -2.702000
v -98.726410 7.840097 2.701900
v -103.031540 7.661786 2.701900
v -103.031540 7.661786 -2.702000
vn 0.0679 -0.9977 -0.0000
vn 0.0373 -0.9993 -0.0000
vn 0.0508 -0.9987 -0.0000
vn 0.9997 -0.0243 -0.0000
vn 0.9981 -0.0624 -0.0000
vn 0.0154 -0.2506 -0.9680
vn 0.0187 -0.2836 -0.9588
vn 0.0094 -0.0425 -0.9991
vn 0.0109 0.0025 -0.9999
vn 1.0000 0.0063 -0.0000
vn 0.0109 0.0025 0.9999
vn -0.0007 0.2506 0.9681
vn 0.0012 0.0411 0.9992
vn 0.0154 -0.2506 0.9680
vn 0.9990 0.0443 -0.0000
vn -0.0283 0.9996 -0.0000
vn -0.0549 0.9985 -0.0000
vn -0.0138 0.2839 0.9588
vn -0.0269 0.2829 0.9588
vn -0.0944 0.9955 -0.0000
vn -0.1107 0.9939 -0.0000
vn -0.1371 0.9906 -0.0000
vn -0.0085 0.0403 -0.9992
vn -0.0421 0.2808 -0.9588
vn -0.0315 0.2825 -0.9588
vn 0.0025 -0.0004 -1.0000
vn -0.0173 0.2837 -0.9588
vn 0.0268 -0.2829 -0.9588
vn 0.0388 -0.2813 -0.9588
vn 0.1706 -0.9853 -0.0000
vn 0.1563 -0.9877 -0.0000
vn 0.0391 -0.2476 -0.9681
vn 0.1380 -0.9904 -0.0000
vn 0.1108 -0.9938 -0.0000
vn 0.0039 -0.0429 0.9991
vn 0.0411 -0.2810 0.9588
vn 0.0314 -0.2825 0.9588
vn 0.0391 -0.2476 0.9681
vn 0.0943 -0.9955 -0.0000
vn -0.0023 -0.0009 1.0000
vn 0.0204 -0.2835 0.9588
vn -0.0394 0.2812 0.9588
vn -0.1541 0.9880 -0.0000
vn -0.1675 0.9859 -0.0000
vn -0.0462 0.2457 0.9682
vn -0.9766 -0.2151 -0.0000
vn -0.9840 -0.1780 -0.0000
vn -0.0083 0.0035 1.0000
vn -0.9696 -0.2448 -0.0000
vn -0.9596 -0.2813 -0.0000
vn -0.0083 0.0036 -1.0000
vn -0.0462 0.2457 -0.9682
vn -0.0007 0.2506 -0.9681
vn 0.0332 -0.1931 -0.9806
vn -0.0144 0.0697 -0.9975
vn 0.0018 -0.0002 -1.0000
vn 0.0271 -0.1941 -0.9806
vn 0.0131 -0.0604 0.9981
vn 0.0332 -0.1931 0.9806
vn 0.0305 -0.1936 0.9806
vn -0.0016 -0.0007 1.0000
vn 0.1695 -0.9855 -0.0000
vn 0.1557 -0.9878 -0.0000
vn 0.1381 -0.9904 -0.0000
vn -0.0332 0.1931 -0.9806
vn -0.0306 0.1936 -0.9806
vn -0.1695 0.9855 -0.0000
vn -0.1557 0.9878 -0.0000
vn -0.1382 0.9904 -0.0000
vn -0.0332 0.1931 0.9806
vn -0.0272 0.1941 0.9806
vn 0.0017 -0.0003 -1.0000
vn 0.0187 -0.1952 -0.9806
vn 0.0218 -0.1949 0.9806
vn -0.0016 -0.0006 1.0000
vn 0.1115 -0.9938 -0.0000
vn 0.0949 -0.9955 -0.0000
vn -0.0219 0.1949 -0.9806
vn -0.1114 0.9938 -0.0000
vn -0.0950 0.9955 -0.0000
vn -0.0187 0.1952 0.9806
vn 0.0019 0.0032 -1.0000
vn 0.0091 -0.1921 -0.9813
vn 0.0130 -0.1957 0.9806
vn -0.0024 0.0327 0.9995
vn 0.0660 -0.9978 -0.0000
vn 0.0453 -0.9990 -0.0000
vn -0.0126 0.1957 -0.9806
vn -0.0542 0.9985 -0.0000
vn -0.0106 0.1958 0.9806
vn 0.0059 -0.1902 0.9817
vn -0.0007 0.0197 0.9998
vn 0.0292 -0.9996 -0.0000
vn -0.0064 0.2071 0.9783
vn -0.0263 0.9997 -0.0000
vn -0.0064 0.2071 -0.9783
vn -0.0001 -0.0526 -0.9986
vn 0.0054 -0.1845 -0.9828
vn 0.9999 -0.0132 -0.0000
vn -0.9726 -0.2326 -0.0000
vn 0.0414 -0.9991 -0.0000
vn -1.0000 0.0076 -0.0000
vn 0.0096 -0.2312 -0.9729
vn 0.0009 0.0739 -0.9973
vn -0.0001 -0.0736 -0.9973
vn -0.0007 0.0846 0.9964
vn -0.0003 -0.0842 0.9964
vn 0.0096 -0.2312 0.9729
vn 0.9997 -0.0247 -0.0000
vn -0.0096 0.2312 0.9729
vn -0.0414 0.9991 -0.0000
vn -0.0096 0.2312 -0.9729
vt 0.352875 0.633003
vt 0.487720 0.624855
vt 0.488281 0.599537
vt 0.352092 0.606343
vt 0.487645 0.574219
vt 0.351308 0.579684
vt 0.240814 0.597448
vt 0.138009 0.623971
vt 0.140166 0.650346
vt 0.242306 0.623994
vt 0.243799 0.650540
vt 0.142322 0.676721
vt 0.017551 0.722656
vt 0.011719 0.669544
vt 0.014008 0.696362
vt 0.016650 0.722656
vt 0.014184 0.699027
vt 0.139093 0.650501
vt 0.140917 0.674377
vt 0.011719 0.675397
vt 0.137269 0.626624
vt 0.241684 0.622251
vt 0.242951 0.646281
vt 0.240416 0.598221
vt 0.351952 0.603328
vt 0.352622 0.627461
vt 0.351283 0.579196
vt 0.488281 0.621609
vt 0.488281 0.595868
vt 0.488281 0.574219
vt 0.628906 0.511340
vt 0.628906 0.394910
vt 0.687500 0.542969
vt 0.687500 0.363281
vt 0.746094 0.394910
vt 0.746094 0.511340
vt 0.629684 0.397023
vt 0.628906 0.397023
vt 0.628906 0.509225
vt 0.687088 0.542969
vt 0.687889 0.542969
vt 0.629684 0.509225
vt 0.687889 0.363281
vt 0.687088 0.363281
vt 0.745271 0.397025
vt 0.746094 0.509227
vt 0.746094 0.397025
vt 0.745271 0.509227
s 1
f 613/338/689 610/339/690 611/338/691
f 610/339/690 612/339/690 611/338/691
f 616/340/692 612/339/693 610/339/693
f 610/339/694 613/338/695 614/341/696
f 615/340/697 610/339/694 614/341/696
f 615/340/698 616/340/692 610/339/693
f 616/340/699 618/342/700 617/341/701
f 612/339/702 616/340/699 617/341/701
f 618/342/703 616/340/692 615/340/698
f 619/342/703 618/342/703 615/340/698
f 618/342/704 619/342/704 620/343/705
f 618/342/700 620/343/706 617/341/701
f 620/343/706 621/344/707 617/341/701
f 623/344/708 621/344/709 620/343/705
f 619/342/704 622/343/705 620/343/705
f 622/343/705 623/344/708 620/343/705
f 623/344/708 624/345/710 621/344/709
f 625/346/711 624/345/712 623/344/713
f 626/347/714 625/346/711 623/344/713
f 626/347/714 623/344/713 622/343/715
f 614/341/696 626/347/714 622/343/715
f 627/348/716 626/347/714 614/341/696
f 628/349/717 625/346/711 626/347/714
f 627/348/716 628/349/717 626/347/714
f 630/350/718 629/350/718 628/349/719
f 628/349/717 629/350/720 625/346/711
f 631/349/721 630/350/718 628/349/719
f 631/349/721 628/349/719 627/348/722
f 632/346/723 631/349/724 633/348/725
f 630/350/726 631/349/724 632/346/723
f 633/348/727 631/349/721 627/348/722
f 634/347/728 632/346/723 633/348/725
f 633/348/727 627/348/722 613/338/689
f 634/347/728 633/348/725 611/338/729
f 611/338/691 633/348/727 613/338/689
f 621/344/707 634/347/728 617/341/701
f 621/344/707 635/345/730 634/347/728
f 635/345/730 632/346/723 634/347/728
f 617/341/701 634/347/728 611/338/729
f 624/345/710 635/345/731 621/344/709
f 624/345/710 636/351/732 635/345/731
f 636/351/732 637/351/732 635/345/731
f 635/345/730 637/351/733 632/346/723
f 638/352/734 637/351/735 636/351/735
f 637/351/733 638/352/736 632/346/723
f 639/352/737 638/352/734 636/351/735
f 630/350/738 638/352/734 639/352/737
f 638/352/736 630/350/726 632/346/723
f 629/350/738 630/350/738 639/352/737
f 629/350/720 639/352/739 625/346/711
f 639/352/739 636/351/740 625/346/711
f 636/351/740 624/345/712 625/346/711
f 613/338/695 627/348/716 614/341/696
f 622/343/715 619/342/741 614/341/696
f 619/342/741 615/340/697 614/341/696
f 611/338/729 612/339/702 617/341/701
f 646/353/742 650/354/743 656/355/744
f 652/356/745 646/353/742 656/355/744
f 651/354/746 648/353/747 654/356/748
f 657/355/749 651/354/746 654/356/748
f 648/353/750 646/353/750 652/356/751
f 654/356/752 648/353/750 652/356/751
f 650/354/743 647/357/753 653/358/754
f 656/355/744 650/354/743 653/358/754
f 647/357/755 649/357/755 655/358/756
f 653/358/757 647/357/755 655/358/756
f 649/357/758 651/354/746 657/355/749
f 655/358/759 649/357/758 657/355/749
f 652/356/745 656/355/744 662/359/760
f 658/360/761 652/356/745 662/359/760
f 657/355/749 654/356/748 660/360/762
f 663/359/763 657/355/749 660/360/762
f 654/356/752 652/356/751 658/360/764
f 660/360/765 654/356/752 658/360/764
f 656/355/744 653/358/754 659/361/766
f 662/359/760 656/355/744 659/361/766
f 653/358/757 655/358/756 661/361/767
f 659/361/768 653/358/757 661/361/767
f 655/358/759 657/355/749 663/359/763
f 661/361/769 655/358/759 663/359/763
f 658/360/761 662/359/760 668/362/770
f 664/363/771 658/360/761 668/362/770
f 663/359/763 660/360/762 666/363/772
f 669/362/773 663/359/763 666/363/772
f 660/360/765 658/360/764 664/363/774
f 666/363/775 660/360/765 664/363/774
f 662/359/760 659/361/766 665/364/776
f 668/362/770 662/359/760 665/364/776
f 659/361/768 661/361/767 667/364/777
f 665/364/777 659/361/768 667/364/777
f 661/361/769 663/359/763 669/362/773
f 667/364/778 661/361/769 669/362/773
f 642/365/779 645/366/780 669/362/773
f 666/363/772 642/365/779 669/362/773
f 640/365/781 642/365/781 666/363/775
f 664/363/774 640/365/781 666/363/775
f 643/367/782 667/364/778 669/362/773
f 645/366/780 643/367/782 669/362/773
f 641/367/783 665/364/777 667/364/777
f 643/367/783 641/367/783 667/364/777
f 641/367/784 644/366/785 668/362/770
f 665/364/776 641/367/784 668/362/770
f 644/366/785 640/365/786 664/363/771
f 668/362/770 644/366/785 664/363/771
f 643/367/787 645/366/787 644/366/787
f 641/367/787 643/367/787 644/366/787
f 645/366/787 642/365/787 640/365/787
f 644/366/787 645/366/787 640/365/787
f 670/368/788 672/369/788 671/370/788
f 672/369/788 673/371/788 671/370/788
f 673/371/788 674/372/788 675/373/788
f 671/370/788 673/371/788 675/373/788
f 681/374/789 677/375/789 676/376/789
f 677/375/790 678/377/790 676/376/790
f 676/376/791 678/377/792 679/378/793
f 680/379/791 676/376/791 679/378/793
f 680/379/789 681/374/789 676/376/789
f 683/380/794 682/381/795 681/374/796
f 682/381/795 677/375/796 681/374/796
f 680/379/797 679/378/797 681/374/797
f 683/380/797 681/374/797 679/378/797
f 686/382/798 682/381/795 683/380/794
f 684/383/797 683/380/797 679/378/797
f 684/383/797 685/384/797 683/380/797
f 685/384/798 686/382/798 683/380/794
f 687/385/799 686/382/799 685/384/799
f 687/385/790 678/377/790 686/382/790
f 686/382/790 678/377/790 682/381/790
f 678/377/792 687/385/800 684/383/800
f 684/383/799 687/385/799 685/384/799
f 679/378/793 678/377/792 684/383/800
f 678/377/790 677/375/790 682/381/790
