# Blender 5.2.0 LTS
# www.blender.org
o blade
v -32.792900 -3.202400 -2.265600
v 41.740303 -1.959198 2.265600
v 41.740303 -1.959199 -2.265600
v -32.792900 -3.202400 2.265600
v -35.379101 -3.202400 2.265600
v -35.379101 -3.202400 -2.265600
v -32.792900 3.631000 -3.566900
v -35.379101 3.631000 -3.566900
v -32.792900 9.427600 -2.265601
v 41.740299 9.180600 -2.265601
v 41.740292 3.610700 -3.566900
v 41.740299 9.180600 2.265599
v 41.740292 3.610700 3.566900
v -32.792900 3.631000 3.566900
v -32.792900 9.427600 2.265599
v -35.379101 9.427600 -2.265601
v -35.379101 9.427600 2.265599
v -35.379101 3.631000 3.566900
v -37.807766 -0.602279 -0.413059
v -89.446373 3.193911 -0.487020
v -37.887741 3.474942 -0.487020
v -89.211403 -0.881605 -0.413059
v -37.807766 -0.602279 0.413057
v -89.211403 -0.881605 0.413057
v -37.887741 3.474942 0.487016
v -89.446373 3.193911 0.487016
v -37.967716 7.552077 -0.000002
v -89.681419 7.269344 -0.000002
v -132.939270 -0.091917 -0.487019
v -133.312683 3.973191 -0.000002
v -173.858322 -1.521015 -0.000001
v -173.356293 -5.568797 -0.487019
v -132.939270 -0.091917 0.487016
v -173.356293 -5.568797 0.487017
v -132.565948 -4.156940 0.413057
v -172.854340 -9.616321 0.413057
v -132.565948 -4.156940 -0.413059
v -172.854340 -9.616321 -0.413059
v -215.411255 -17.971273 -0.413058
v -215.411255 -17.971273 0.413058
v -212.812012 -13.012933 -0.487018
v -214.623108 -9.461691 -0.000001
v -218.011963 -14.057668 -0.000000
v -212.812012 -13.012933 0.487017
v -219.608154 -18.780235 -0.000000
v -34.015800 -2.157500 -1.099300
v -42.484100 -2.225600 1.099300
v -34.015800 -2.157500 1.099300
v -42.484100 -2.225600 -1.099300
v -34.015800 3.610700 -1.295900
v -42.484100 3.542600 -1.295900
v -34.015800 8.765900 -0.723001
v -34.015800 8.765900 0.722999
v -42.484100 8.697800 -0.723001
v -42.484100 8.697800 0.722999
v -34.015800 3.610700 1.295900
v -42.484100 3.542600 1.295900
v -34.864811 3.600161 0.000003
v -34.864811 3.600161 14.718198
v -34.859154 -5.331424 14.332384
v -34.855064 -11.876558 8.278098
v -34.838463 -12.288182 0.000007
v -34.855061 -11.876547 -8.278075
v -34.859154 -5.331426 -14.332380
v -34.864811 3.600162 -14.718192
v -34.870441 12.535290 -14.334874
v -34.874573 19.075245 -8.276149
v -34.891159 19.488501 -0.000001
v -34.874573 19.075268 8.275996
v -34.870441 12.535280 14.334866
v -37.428440 19.080307 8.277899
v -37.424347 12.535226 14.332388
v -37.418690 3.603639 0.000003
v -37.418690 3.603638 14.718198
v -37.413059 -5.331476 14.334862
v -37.408928 -11.871442 8.276157
v -37.392342 -12.284704 0.000007
v -37.408928 -11.871445 -8.276140
v -37.413059 -5.331493 -14.334882
v -37.418690 3.603640 -14.718192
v -37.424347 12.535228 -14.332381
v -37.428436 19.080355 -8.278086
v -37.445038 19.491983 -0.000001
vn 0.0083 -1.0000 -0.0000
vn 0.0167 -0.9999 -0.0000
vn 0.0016 -0.1871 -0.9823
vn 0.0006 -0.0180 -0.9998
vn 0.0015 -0.2073 -0.9783
vn -0.0000 -1.0000 -0.0000
vn -0.0000 -0.1871 -0.9823
vn -0.0000 0.0852 -0.9964
vn 0.0004 0.2190 -0.9757
vn 0.0004 0.2233 -0.9747
vn -0.0000 -0.0000 -1.0000
vn 1.0000 -0.0000 -0.0000
vn 0.0005 0.0095 1.0000
vn 0.0003 0.0747 0.9972
vn 0.0003 0.2218 0.9751
vn 0.0015 -0.2073 0.9783
vn 0.0008 0.2275 0.9738
vn 0.0017 1.0000 -0.0000
vn -0.0000 1.0000 -0.0000
vn 0.0033 1.0000 -0.0000
vn -0.0000 0.2190 0.9757
vn -0.0000 -0.0527 0.9986
vn 0.0016 -0.1871 0.9823
vn -0.0000 -0.1871 0.9823
vn -0.0000 0.2190 -0.9757
vn 0.0007 -0.0181 -0.9998
vn -0.0015 0.0277 -0.9996
vn 0.0001 -0.0181 -0.9998
vn -0.0012 0.0714 -0.9974
vn 0.0348 -0.9994 -0.0000
vn 0.0054 -1.0000 -0.0000
vn 0.0404 -0.9992 -0.0000
vn 0.0406 -0.9992 -0.0000
vn 0.0007 -0.0181 0.9998
vn 0.0001 -0.0181 0.9998
vn 0.0008 0.0259 0.9997
vn -0.0031 0.0732 0.9973
vn -0.0006 0.1186 0.9929
vn -0.0048 0.1184 0.9930
vn -0.0048 0.1184 -0.9930
vn -0.0006 0.1186 -0.9929
vn -0.0047 0.0503 -0.9987
vn -0.0133 0.1177 -0.9930
vn -0.0115 0.1179 0.9930
vn -0.0098 0.0635 -0.9979
vn -0.0204 0.1193 -0.9926
vn -0.0194 0.1188 0.9927
vn -0.0058 0.0504 0.9987
vn -0.0060 0.0364 0.9993
vn 0.0019 -0.0180 0.9998
vn 0.0966 -0.9953 -0.0000
vn 0.1554 -0.9878 -0.0000
vn 0.1130 -0.9936 -0.0000
vn 0.0029 -0.0179 0.9998
vn 0.1717 -0.9852 -0.0000
vn 0.0019 -0.0180 -0.9998
vn 0.0029 -0.0179 -0.9998
vn -0.0437 0.0543 -0.9976
vn 0.1910 -0.9816 -0.0000
vn -0.0662 0.0175 -0.9977
vn -0.1051 0.0524 -0.9931
vn -0.0631 0.1040 -0.9926
vn -0.1046 0.0354 -0.9939
vn -0.0436 0.0544 0.9976
vn -0.0631 0.1040 0.9926
vn -0.1051 0.0524 0.9931
vn -0.1046 0.0354 0.9939
vn -0.0662 0.0175 0.9977
vn 0.1893 -0.9819 -0.0000
vn 0.0080 -1.0000 -0.0000
vn -0.0003 0.0141 -0.9999
vn 0.0003 -0.0341 -0.9994
vn -0.0003 0.0624 -0.9981
vn -0.0009 0.1105 -0.9939
vn -0.0080 1.0000 -0.0000
vn -1.0000 -0.0000 -0.0000
vn -0.0003 0.0624 0.9981
vn -0.0009 0.1105 0.9939
vn -0.0003 0.0141 0.9999
vn 0.0003 -0.0341 0.9994
vn 1.0000 0.0006 -0.0000
vn 1.0000 0.0010 -0.0000
vn 1.0000 0.0011 0.0009
vn 1.0000 0.0017 -0.0000
vn 1.0000 0.0011 -0.0009
vn -0.0007 0.4534 0.8913
vn -0.0008 0.3135 0.9496
vn -0.0001 0.0583 0.9983
vn 0.0019 0.9456 0.3254
vn 0.0020 0.8567 0.5158
vn -1.0000 -0.0006 -0.0000
vn -1.0000 -0.0011 0.0009
vn -1.0000 -0.0010 -0.0000
vn 0.0001 -0.0583 0.9983
vn 0.0008 -0.3135 0.9496
vn 0.0007 -0.4534 0.8913
vn -0.0020 -0.8567 0.5158
vn -0.0019 -0.9456 0.3254
vn -1.0000 -0.0011 -0.0009
vn -1.0000 -0.0017 -0.0000
vn -0.0016 -0.9938 -0.1108
vn -0.0016 -0.9938 0.1109
vn -0.0020 -0.8562 -0.5167
vn -0.0019 -0.9457 -0.3251
vn 0.0008 -0.3136 -0.9496
vn 0.0007 -0.4541 -0.8910
vn 0.0001 -0.0585 -0.9983
vn -0.0001 0.0585 -0.9983
vn -0.0008 0.3136 -0.9496
vn -0.0007 0.4541 -0.8910
vn 0.0020 0.8562 -0.5167
vn 0.0019 0.9457 -0.3251
vn 0.0016 0.9938 -0.1108
vn 0.0016 0.9938 0.1109
vt 0.023508 0.535156
vt 0.363281 0.519007
vt 0.023508 0.446391
vt 0.011719 0.535156
vt 0.011719 0.446391
vt 0.023508 0.371094
vt 0.363281 0.374302
vt 0.363281 0.446655
vt 0.011719 0.371094
vt 0.353784 0.833084
vt 0.353378 0.802916
vt 0.488281 0.822133
vt 0.488281 0.791926
vt 0.488281 0.761719
vt 0.352972 0.772748
vt 0.239423 0.834785
vt 0.238654 0.804718
vt 0.133402 0.882364
vt 0.132296 0.852447
vt 0.240191 0.864852
vt 0.134507 0.912279
vt 0.029795 0.944358
vt 0.022740 0.981560
vt 0.016137 0.953000
vt 0.025239 0.918348
vt 0.011719 0.988281
vt 0.628906 0.542969
vt 0.629632 0.363281
vt 0.691131 0.363281
vt 0.690405 0.542969
vt 0.746094 0.363281
vt 0.745368 0.542969
vt 0.544922 0.375318
vt 0.500000 0.363281
vt 0.500000 0.453125
vt 0.455078 0.375318
vt 0.422193 0.408203
vt 0.410156 0.453125
vt 0.422193 0.498047
vt 0.455078 0.530932
vt 0.500000 0.542969
vt 0.544922 0.530932
vt 0.577807 0.498047
vt 0.589844 0.453125
vt 0.577807 0.408204
s 1
f 4/1/1 1/1/1 2/2/2
f 1/1/1 3/2/2 2/2/2
f 1/1/3 7/3/4 3/2/5
f 1/1/1 4/1/1 5/4/6
f 6/4/6 1/1/1 5/4/6
f 7/3/4 1/1/3 6/4/7
f 8/5/8 7/3/4 6/4/7
f 9/6/9 7/3/4 8/5/8
f 7/3/4 9/6/9 10/7/10
f 7/3/4 11/8/11 3/2/5
f 11/8/11 7/3/4 10/7/10
f 3/2/12 11/8/12 13/8/12
f 11/8/12 10/7/12 12/7/12
f 13/8/12 11/8/12 12/7/12
f 14/3/13 13/8/14 15/6/15
f 2/2/16 13/8/14 14/3/13
f 2/2/12 3/2/12 13/8/12
f 13/8/14 12/7/17 15/6/15
f 15/6/18 9/6/18 16/9/19
f 9/6/18 15/6/18 10/7/20
f 15/6/18 12/7/20 10/7/20
f 17/9/19 15/6/18 16/9/19
f 14/3/13 15/6/15 17/9/21
f 18/5/22 14/3/13 17/9/21
f 4/1/23 14/3/13 18/5/22
f 5/4/24 4/1/23 18/5/22
f 16/9/25 9/6/9 8/5/8
f 4/1/23 2/2/16 14/3/13
f 22/10/26 20/11/27 19/12/28
f 20/11/27 21/13/29 19/12/28
f 22/10/30 19/12/31 23/12/31
f 24/10/32 22/10/33 23/12/31
f 24/10/34 23/12/35 25/13/36
f 26/11/37 24/10/34 25/13/36
f 26/11/37 25/13/36 27/14/38
f 28/15/39 26/11/37 27/14/38
f 28/15/40 27/14/41 21/13/29
f 20/11/27 29/16/42 28/15/40
f 29/16/42 30/17/43 28/15/40
f 28/15/39 30/17/44 26/11/37
f 20/11/27 28/15/40 21/13/29
f 32/18/45 31/19/46 30/17/43
f 30/17/44 31/19/47 33/16/48
f 29/16/42 32/18/45 30/17/43
f 30/17/44 33/16/48 26/11/37
f 31/19/47 34/18/49 33/16/48
f 26/11/37 33/16/48 24/10/34
f 33/16/48 35/20/50 24/10/34
f 33/16/48 34/18/49 35/20/50
f 35/20/51 36/21/52 37/20/53
f 34/18/49 36/21/54 35/20/50
f 35/20/51 37/20/53 22/10/33
f 24/10/32 35/20/51 22/10/33
f 36/21/52 38/21/55 37/20/53
f 37/20/56 38/21/57 29/16/42
f 37/20/56 29/16/42 20/11/27
f 22/10/26 37/20/56 20/11/27
f 38/21/57 32/18/45 29/16/42
f 41/22/58 32/18/45 38/21/57
f 36/21/52 40/23/59 38/21/55
f 40/23/59 39/23/59 38/21/55
f 39/23/60 41/22/58 38/21/57
f 41/22/58 39/23/60 43/24/61
f 41/22/58 42/25/62 31/19/46
f 42/25/62 41/22/58 43/24/61
f 32/18/45 41/22/58 31/19/46
f 39/23/60 45/26/63 43/24/61
f 44/22/64 42/25/65 43/24/66
f 45/26/67 40/23/68 43/24/66
f 40/23/68 44/22/64 43/24/66
f 39/23/59 40/23/59 45/26/69
f 42/25/65 44/22/64 31/19/47
f 44/22/64 40/23/68 36/21/54
f 34/18/49 44/22/64 36/21/54
f 44/22/64 34/18/49 31/19/47
f 49/27/70 46/28/70 47/27/70
f 46/28/70 48/28/70 47/27/70
f 50/29/71 46/28/72 49/27/72
f 51/30/73 50/29/71 49/27/72
f 52/31/74 50/29/71 51/30/73
f 53/31/75 52/31/75 54/32/75
f 54/32/74 52/31/74 51/30/73
f 55/32/75 53/31/75 54/32/75
f 55/32/76 54/32/76 51/30/76
f 56/29/77 53/31/78 55/32/78
f 57/30/76 55/32/76 49/27/76
f 49/27/76 55/32/76 51/30/76
f 57/30/79 56/29/77 55/32/78
f 47/27/76 57/30/76 49/27/76
f 47/27/80 48/28/80 57/30/79
f 48/28/80 56/29/77 57/30/79
f 70/33/81 59/34/81 58/35/82
f 59/34/81 60/36/81 58/35/82
f 60/36/81 61/37/83 58/35/82
f 61/37/83 62/38/84 58/35/82
f 62/38/84 63/39/85 58/35/82
f 63/39/85 64/40/81 58/35/82
f 64/40/81 65/41/81 58/35/82
f 65/41/81 66/42/81 58/35/82
f 66/42/81 67/43/83 58/35/82
f 67/43/83 68/44/84 58/35/82
f 68/44/84 69/45/85 58/35/82
f 69/45/85 70/33/81 58/35/82
f 70/33/86 72/33/87 59/34/88
f 69/45/89 71/45/90 70/33/86
f 71/45/90 72/33/87 70/33/86
f 72/33/91 71/45/92 73/35/93
f 74/34/91 72/33/91 73/35/93
f 72/33/87 74/34/94 59/34/88
f 59/34/88 74/34/94 60/36/95
f 74/34/94 75/36/96 60/36/95
f 75/36/91 74/34/91 73/35/93
f 60/36/95 75/36/96 61/37/97
f 75/36/96 76/37/98 61/37/97
f 76/37/99 75/36/91 73/35/93
f 77/38/100 76/37/99 73/35/93
f 76/37/98 77/38/101 62/38/102
f 61/37/97 76/37/98 62/38/102
f 78/39/92 77/38/100 73/35/93
f 77/38/101 78/39/103 63/39/104
f 62/38/102 77/38/101 63/39/104
f 79/40/91 78/39/92 73/35/93
f 78/39/103 79/40/105 64/40/106
f 63/39/104 78/39/103 64/40/106
f 64/40/106 79/40/105 65/41/107
f 79/40/105 80/41/108 65/41/107
f 80/41/91 79/40/91 73/35/93
f 65/41/107 80/41/108 66/42/109
f 80/41/108 81/42/110 66/42/109
f 81/42/91 80/41/91 73/35/93
f 66/42/109 81/42/110 67/43/111
f 81/42/110 82/43/112 67/43/111
f 82/43/99 81/42/91 73/35/93
f 67/43/111 82/43/112 68/44/113
f 82/43/112 83/44/114 68/44/113
f 83/44/100 82/43/99 73/35/93
f 68/44/113 83/44/114 69/45/89
f 83/44/114 71/45/90 69/45/89
f 71/45/92 83/44/100 73/35/93
o blade_damaged
v -37.912891 -0.665104 -0.413059
v -89.352333 1.553926 -0.487020
v -37.887589 3.420911 -0.487020
v -89.222908 -2.525614 -0.413059
v -37.912891 -0.665104 0.413057
v -89.222908 -2.525614 0.413057
v -37.887589 3.420911 0.487016
v -37.862286 7.506839 -0.000002
v -89.352333 1.553926 0.487016
v -89.481834 5.633380 -0.000002
v -32.792900 -2.955400 -2.265600
v 41.740303 -1.959199 2.265600
v 41.740303 -1.959200 -2.265600
v -32.792900 -2.955400 2.265600
v -35.379101 -2.955400 2.265600
v -35.379101 -2.955400 -2.265600
v -32.792900 3.610700 -3.566900
v 41.740292 3.610699 -3.566900
v -35.379101 3.610700 -3.566900
v -32.792900 9.180600 -2.265601
v 41.740299 9.180600 -2.265601
v -32.792900 9.180600 2.265599
v 41.740299 9.180600 2.265599
v 41.740292 3.610700 3.566900
v -32.792900 3.610700 3.566900
v -35.379101 3.610700 3.566900
v -35.379101 9.180600 2.265599
v -35.379101 9.180600 -2.265601
v -34.864807 3.600123 0.000003
v -34.864807 3.600123 14.718282
v -34.859024 -5.331362 14.332397
v -34.854847 -11.876574 8.278175
v -34.837887 -12.288166 0.000007
v -34.854847 -11.876559 -8.278152
v -34.859024 -5.331365 -14.332393
v -34.864807 3.600124 -14.718276
v -34.870560 12.535231 -14.334940
v -34.874779 19.075148 -8.276183
v -34.891727 19.488411 -0.000001
v -34.874779 19.075172 8.276033
v -34.870560 12.535221 14.334933
v -37.428646 19.080320 8.277976
v -37.424465 12.535163 14.332397
v -37.418686 3.603676 14.718282
v -37.418682 3.603677 0.000003
v -37.408710 -11.871348 -8.276175
v -37.412930 -5.331433 -14.334947
v -37.418682 3.603678 -14.718276
v -37.424465 12.535165 -14.332391
v -37.428642 19.080368 -8.278162
v -37.412930 -5.331417 14.334929
v -37.445606 19.491968 -0.000001
v -37.408710 -11.871343 8.276191
v -37.391762 -12.284614 0.000007
v -34.015800 -2.157500 -1.099300
v -42.484100 -2.225600 1.099300
v -34.015800 -2.157500 1.099300
v -42.484100 -2.225600 -1.099300
v -34.015800 3.610700 -1.295900
v -42.484100 3.542600 -1.295900
v -34.015800 8.765900 -0.723001
v -34.015800 8.765900 0.722999
v -42.484100 8.697800 -0.723001
v -42.484100 8.697800 0.722999
v -34.015800 3.610700 1.295900
v -42.484100 3.542600 1.295900
vn 0.0007 -0.0181 -0.9998
vn -0.0002 0.0274 -0.9996
vn -0.0024 0.0263 -0.9997
vn -0.0014 0.0742 -0.9972
vn 0.0362 -0.9993 -0.0000
vn 0.0007 -0.0181 0.9998
vn -0.0011 0.0274 0.9996
vn -0.0027 0.0739 0.9973
vn -0.0007 0.0266 0.9996
vn -0.0043 0.1184 0.9930
vn -0.0027 0.0731 0.9973
vn -0.0043 0.1184 -0.9930
vn -0.0033 0.0731 -0.9973
vn 0.0067 -1.0000 -0.0000
vn 0.0134 -0.9999 -0.0000
vn 0.0013 -0.1944 -0.9809
vn 0.0004 -0.0187 -0.9998
vn 0.0013 -0.2110 -0.9775
vn -0.0000 -1.0000 -0.0000
vn -0.0000 -0.1944 -0.9809
vn -0.0000 -0.0000 -1.0000
vn -0.0000 0.2275 -0.9738
vn -0.0000 0.0886 -0.9961
vn -0.0000 1.0000 -0.0000
vn 1.0000 -0.0000 -0.0000
vn -0.0000 0.0776 0.9970
vn -0.0000 0.2275 0.9738
vn 0.0004 0.0114 0.9999
vn 0.0013 -0.2110 0.9775
vn 0.0013 -0.1944 0.9809
vn -0.0000 -0.0549 0.9985
vn -0.0000 -0.1944 0.9809
vn 1.0000 0.0006 -0.0000
vn 1.0000 0.0010 -0.0000
vn 1.0000 0.0011 0.0009
vn 1.0000 0.0017 -0.0000
vn 1.0000 0.0011 -0.0009
vn -0.0007 0.4534 0.8913
vn -0.0008 0.3135 0.9496
vn -0.0001 0.0583 0.9983
vn 0.0019 0.9456 0.3254
vn 0.0020 0.8567 0.5158
vn 0.0001 -0.0583 0.9983
vn -1.0000 -0.0006 -0.0000
vn -1.0000 -0.0010 -0.0000
vn -1.0000 -0.0011 0.0009
vn -1.0000 -0.0017 -0.0000
vn -1.0000 -0.0011 -0.0009
vn -0.0017 -0.9938 0.1109
vn -0.0017 -0.9938 -0.1108
vn -0.0020 -0.9457 -0.3251
vn -0.0020 -0.9456 0.3254
vn -0.0020 -0.8562 -0.5167
vn -0.0021 -0.8567 0.5158
vn 0.0007 -0.4534 0.8913
vn 0.0017 0.9938 -0.1108
vn 0.0017 0.9938 0.1109
vn 0.0020 0.9457 -0.3251
vn 0.0008 -0.3135 0.9496
vn 0.0020 0.8562 -0.5167
vn -0.0007 0.4541 -0.8910
vn -0.0008 0.3136 -0.9496
vn -0.0001 0.0585 -0.9983
vn 0.0008 -0.3136 -0.9496
vn 0.0001 -0.0585 -0.9983
vn 0.0007 -0.4541 -0.8910
vn 0.0080 -1.0000 -0.0000
vn -0.0003 0.0141 -0.9999
vn 0.0003 -0.0341 -0.9994
vn -0.0003 0.0624 -0.9981
vn -0.0009 0.1105 -0.9939
vn -0.0080 1.0000 -0.0000
vn -1.0000 -0.0000 -0.0000
vn -0.0003 0.0141 0.9999
vn -0.0003 0.0624 0.9981
vn -0.0009 0.1105 0.9939
vn 0.0003 -0.0341 0.9994
vt 0.014576 0.988281
vt 0.013148 0.892507
vt 0.488281 0.953516
vt 0.488281 0.857616
vt 0.488281 0.761719
vt 0.011719 0.796734
vt 0.023508 0.535156
vt 0.363281 0.521689
vt 0.023508 0.446391
vt 0.011719 0.535156
vt 0.363281 0.446391
vt 0.363281 0.371094
vt 0.011719 0.446391
vt 0.023508 0.371094
vt 0.011719 0.371094
vt 0.544922 0.375318
vt 0.500000 0.363281
vt 0.500000 0.453125
vt 0.455078 0.375318
vt 0.422193 0.408203
vt 0.410156 0.453125
vt 0.422193 0.498047
vt 0.455078 0.530932
vt 0.500000 0.542969
vt 0.544922 0.530932
vt 0.577807 0.498047
vt 0.589844 0.453125
vt 0.577807 0.408204
vt 0.628906 0.542969
vt 0.629632 0.363281
vt 0.691131 0.363281
vt 0.690405 0.542969
vt 0.746094 0.363281
vt 0.745368 0.542969
s 1
f 87/46/115 85/47/116 84/48/115
f 85/47/117 86/49/118 84/48/115
f 87/46/119 84/48/119 88/48/119
f 89/46/119 87/46/119 88/48/119
f 89/46/120 88/48/120 90/49/121
f 92/47/122 90/49/123 91/50/124
f 92/47/122 89/46/120 90/49/123
f 93/51/124 92/47/125 91/50/124
f 93/51/126 91/50/126 86/49/127
f 85/47/117 93/51/126 86/49/118
f 97/52/128 94/52/128 95/53/129
f 94/52/128 96/53/129 95/53/129
f 94/52/130 100/54/131 96/53/132
f 94/52/128 97/52/128 98/55/133
f 99/55/133 94/52/128 98/55/133
f 100/54/131 94/52/130 99/55/134
f 101/56/135 100/54/131 104/57/136
f 100/54/131 101/56/135 96/53/132
f 102/58/137 100/54/131 99/55/134
f 103/59/136 100/54/131 102/58/137
f 100/54/131 103/59/136 104/57/136
f 103/59/138 105/59/138 104/57/138
f 105/59/138 106/57/138 104/57/138
f 101/56/139 104/57/139 106/57/139
f 107/56/140 106/57/141 105/59/141
f 107/56/139 101/56/139 106/57/139
f 96/53/139 101/56/139 107/56/139
f 108/54/142 107/56/140 105/59/141
f 95/53/143 107/56/140 108/54/142
f 95/53/139 96/53/139 107/56/139
f 97/52/144 108/54/142 109/58/145
f 97/52/144 95/53/143 108/54/142
f 108/54/142 105/59/141 110/60/141
f 109/58/145 108/54/142 110/60/141
f 110/60/138 105/59/138 111/60/138
f 105/59/138 103/59/138 111/60/138
f 111/60/136 103/59/136 102/58/137
f 98/55/146 97/52/144 109/58/145
f 124/61/147 113/62/147 112/63/148
f 113/62/147 114/64/147 112/63/148
f 114/64/147 115/65/149 112/63/148
f 115/65/149 116/66/150 112/63/148
f 116/66/150 117/67/151 112/63/148
f 117/67/151 118/68/147 112/63/148
f 118/68/147 119/69/147 112/63/148
f 119/69/147 120/70/147 112/63/148
f 120/70/147 121/71/149 112/63/148
f 121/71/149 122/72/150 112/63/148
f 122/72/150 123/73/151 112/63/148
f 123/73/151 124/61/147 112/63/148
f 124/61/152 126/61/153 113/62/154
f 123/73/155 125/73/156 124/61/152
f 125/73/156 126/61/153 124/61/152
f 126/61/153 127/62/157 113/62/154
f 127/62/158 126/61/158 128/63/159
f 126/61/158 125/73/160 128/63/159
f 130/68/158 129/67/160 128/63/159
f 129/67/160 137/66/161 128/63/159
f 131/69/158 130/68/158 128/63/159
f 132/70/158 131/69/158 128/63/159
f 133/71/162 132/70/158 128/63/159
f 134/64/158 127/62/158 128/63/159
f 135/72/161 133/71/162 128/63/159
f 136/65/162 134/64/158 128/63/159
f 125/73/160 135/72/161 128/63/159
f 137/66/161 136/65/162 128/63/159
f 116/66/163 137/66/164 117/67/165
f 136/65/166 137/66/164 116/66/163
f 137/66/164 129/67/167 117/67/165
f 115/65/168 136/65/166 116/66/163
f 134/64/169 136/65/166 115/65/168
f 122/72/170 135/72/171 123/73/155
f 133/71/172 135/72/171 122/72/170
f 135/72/171 125/73/156 123/73/155
f 114/64/173 134/64/169 115/65/168
f 127/62/157 134/64/169 114/64/173
f 121/71/174 133/71/172 122/72/170
f 132/70/175 133/71/172 121/71/174
f 120/70/176 132/70/175 121/71/174
f 131/69/177 132/70/175 120/70/176
f 130/68/178 131/69/177 119/69/179
f 119/69/179 131/69/177 120/70/176
f 129/67/167 130/68/178 118/68/180
f 118/68/180 130/68/178 119/69/179
f 117/67/165 129/67/167 118/68/180
f 113/62/154 127/62/157 114/64/173
f 141/74/181 138/75/181 139/74/181
f 138/75/181 140/75/181 139/74/181
f 142/76/182 138/75/183 141/74/183
f 143/77/184 142/76/182 141/74/183
f 144/78/185 142/76/182 143/77/184
f 145/78/186 144/78/186 146/79/186
f 146/79/185 144/78/185 143/77/184
f 147/79/186 145/78/186 146/79/186
f 147/79/187 146/79/187 143/77/187
f 149/77/188 148/76/189 147/79/190
f 148/76/189 145/78/190 147/79/190
f 149/77/187 147/79/187 141/74/187
f 141/74/187 147/79/187 143/77/187
f 140/75/191 148/76/189 149/77/188
f 139/74/191 140/75/191 149/77/188
f 139/74/187 149/77/187 141/74/187
o blade_fragment
v -215.931625 -18.138594 -0.413057
v -220.128448 -18.948765 0.000001
v -215.931625 -18.138594 0.413059
v -218.531265 -14.225461 0.000001
v -213.331390 -13.179222 -0.487017
v -173.375443 -9.771342 -0.413057
v -173.876419 -5.723707 -0.487018
v -173.375443 -9.771342 0.413059
v -133.460663 -0.235305 -0.487018
v -133.088303 -4.300475 -0.413058
v -133.088303 -4.300475 0.413058
v -89.969734 3.062763 -0.487018
v -89.735718 -1.012943 -0.413058
v -89.735718 -1.012943 0.413058
v -89.969734 3.062763 0.487018
v -133.460663 -0.235304 0.487018
v -173.876419 -5.723707 0.487018
v -133.833130 3.829953 -0.000000
v -174.377502 -1.675813 0.000000
v -213.331390 -13.179222 0.487019
v -215.141571 -9.628261 0.000001
v -90.203819 7.138384 -0.000001
vn -0.0662 0.0175 -0.9977
vn -0.1047 0.0354 -0.9939
vn -0.1051 0.0524 -0.9931
vn 0.1913 -0.9815 -0.0000
vn 0.1895 -0.9819 -0.0000
vn 0.1720 -0.9851 -0.0000
vn -0.0438 0.0542 -0.9976
vn 0.0029 -0.0179 -0.9998
vn -0.0097 0.0635 -0.9979
vn -0.0047 0.0503 -0.9987
vn 0.1557 -0.9878 -0.0000
vn 0.1133 -0.9936 -0.0000
vn 0.0019 -0.0180 -0.9998
vn -0.0015 0.0266 -0.9996
vn 0.0969 -0.9953 -0.0000
vn 0.0756 -0.9971 -0.0000
vn 0.0014 -0.0181 -0.9998
vn -0.0059 0.0720 0.9974
vn -0.0058 0.0504 0.9987
vn 0.0014 -0.0181 0.9998
vn 0.0019 -0.0180 0.9998
vn -0.0195 0.1188 0.9927
vn -0.0061 0.0364 0.9993
vn -0.0115 0.1179 0.9930
vn -0.0204 0.1193 -0.9926
vn -0.0631 0.1040 -0.9926
vn -0.0631 0.1040 0.9926
vn -0.0438 0.0543 0.9976
vn -0.0133 0.1177 -0.9930
vn -0.1052 0.0524 0.9931
vn -0.0662 0.0175 0.9977
vn 0.0029 -0.0179 0.9998
vn -0.0090 0.1181 -0.9930
vn -0.0090 0.1181 0.9930
vn -0.1047 0.0354 0.9939
vt 0.027074 0.981216
vt 0.011719 0.988281
vt 0.017874 0.951195
vt 0.182787 0.908389
vt 0.036902 0.942111
vt 0.181247 0.876944
vt 0.328954 0.826930
vt 0.330024 0.858536
vt 0.487716 0.793430
vt 0.488281 0.825142
vt 0.179706 0.845496
vt 0.327884 0.795324
vt 0.030555 0.914770
vt 0.487151 0.761719
s 1
f 150/80/192 151/81/193 153/82/194
f 150/80/195 152/80/195 151/81/196
f 152/80/195 150/80/195 155/83/197
f 154/84/198 150/80/192 153/82/194
f 150/80/192 154/84/198 155/83/199
f 154/84/198 156/85/200 155/83/199
f 155/83/199 156/85/200 158/86/201
f 157/83/202 155/83/197 159/87/203
f 157/83/202 152/80/195 155/83/197
f 159/87/204 155/83/199 158/86/201
f 159/87/204 158/86/201 161/88/205
f 160/87/206 159/87/203 162/89/207
f 160/87/206 157/83/202 159/87/203
f 162/89/208 159/87/204 161/88/205
f 163/89/207 160/87/206 162/89/207
f 164/88/209 165/86/210 163/89/211
f 165/86/210 160/87/212 163/89/211
f 168/90/213 166/85/214 165/86/210
f 165/86/210 166/85/214 160/87/212
f 167/91/215 165/86/210 164/88/209
f 167/91/215 168/90/213 165/86/210
f 156/85/200 154/84/198 168/90/216
f 154/84/198 170/92/217 168/90/216
f 170/92/218 169/84/219 168/90/213
f 169/84/219 166/85/214 168/90/213
f 156/85/200 168/90/216 167/91/220
f 169/84/219 170/92/218 153/82/221
f 170/92/217 154/84/198 153/82/194
f 152/80/222 169/84/219 153/82/221
f 166/85/214 169/84/219 157/83/223
f 169/84/219 152/80/222 157/83/223
f 158/86/201 167/91/220 171/93/224
f 158/86/201 156/85/200 167/91/220
f 171/93/225 167/91/215 164/88/209
f 161/88/205 158/86/201 171/93/224
f 166/85/214 157/83/223 160/87/212
f 151/81/226 152/80/222 153/82/221
o sheath
v -35.228138 -3.564283 -3.002900
v -91.620697 -4.574447 3.325500
v -35.228138 -3.564283 3.002900
v -91.620697 -4.574448 -3.325500
v -92.081429 2.995738 -5.574100
v -35.119587 3.612422 -4.606400
v -35.119587 3.612422 4.606400
v -92.081429 2.995739 5.574100
v -35.511883 10.800674 3.002899
v -35.511883 10.800674 -3.002901
v -92.542236 10.565926 3.325499
v -138.695923 6.592821 3.325500
v -92.542236 10.565926 -3.325501
v -138.695923 6.592820 -3.325500
v -181.587555 0.060723 -3.325500
v -180.553558 -7.442017 -5.574100
v -137.938766 -0.952153 -5.574100
v -137.181778 -8.497022 -3.325499
v -179.519714 -14.944655 -3.325499
v -231.507736 -26.771469 -3.220098
v -231.507736 -26.771469 3.220102
v -179.519714 -14.944655 3.325501
v -180.553558 -7.442016 5.574100
v -137.181778 -8.497022 3.325501
v -137.938766 -0.952152 5.574100
v -181.587555 0.060724 3.325500
v -234.213257 -11.648466 -3.220099
v -234.213257 -11.648466 3.220101
v -233.121689 -19.278122 4.939601
v -233.121689 -19.278122 -4.939599
v -35.185886 -3.149749 -2.357800
v -35.419998 9.388355 -2.357801
v -35.185886 -3.149748 2.357800
v -35.419998 9.388355 2.357799
v -35.313046 3.660414 -3.638800
v -35.313046 3.660414 3.638800
v -231.243240 -25.071478 -2.357798
v -233.531799 -12.517608 -2.357799
v -231.243240 -25.071478 2.357802
v -233.531799 -12.517608 2.357801
v -232.387466 -18.794546 -3.638798
v -232.387466 -18.794546 3.638801
v -179.692276 -13.566229 -2.357799
v -181.448669 -0.894638 -2.357800
v -179.692276 -13.566229 2.357801
v -181.448669 -0.894638 2.357800
v -180.570404 -7.230536 -3.638799
v -180.570404 -7.230536 3.638800
v -137.307495 -7.173806 -2.357800
v -138.601425 5.567410 -2.357800
v -137.307495 -7.173806 2.357800
v -138.601425 5.567410 2.357800
v -137.954407 -0.803247 -3.638800
v -137.954407 -0.803246 3.638800
v -91.694344 -3.313824 -2.357800
v -92.490707 9.469604 -2.357801
v -91.694344 -3.313823 2.357800
v -92.490707 9.469604 2.357799
v -92.092491 3.077889 -3.638800
v -92.092491 3.077890 3.638800
v -231.243240 -25.071478 -2.357798
v -232.387466 -18.794546 -3.638798
v -231.243240 -25.071478 2.357802
v -232.387466 -18.794546 3.638801
v -233.531799 -12.517608 2.357801
v -233.531799 -12.517608 -2.357799
v -79.258751 -2.857776 -2.701900
v -79.258751 -2.857775 2.702000
v -79.536583 3.938388 -4.327100
v -76.798950 3.919938 -4.327100
v -76.597908 -2.875775 -2.701900
v -76.597908 -2.875775 2.702000
v -79.536583 3.938389 4.327099
v -76.798950 3.919938 4.327099
v -77.000008 10.715651 -2.702001
v -77.000008 10.715651 2.701899
v -79.814346 10.734650 2.701899
v -79.814346 10.734650 -2.702001
vn 0.0604 -0.9982 -0.0000
vn 0.0179 -0.9998 -0.0000
vn 0.0434 -0.9991 -0.0000
vn 1.0000 0.0045 -0.0000
vn 0.9999 -0.0151 -0.0000
vn 0.0159 -0.2527 -0.9674
vn 0.0174 -0.2837 -0.9587
vn 0.0079 -0.0406 -0.9991
vn 0.0172 -0.0044 -0.9998
vn 0.9994 0.0349 -0.0000
vn 0.0172 -0.0044 0.9998
vn 0.0098 0.2533 0.9673
vn 0.0036 0.0438 0.9990
vn 0.0159 -0.2527 0.9674
vn 0.9985 0.0545 -0.0000
vn -0.0041 1.0000 -0.0000
vn -0.0451 0.9990 -0.0000
vn -0.0102 0.2842 0.9587
vn -0.0313 0.2826 0.9587
vn -0.1100 0.9939 -0.0000
vn -0.1264 0.9920 -0.0000
vn -0.1754 0.9845 -0.0000
vn -0.0087 0.0427 -0.9991
vn -0.0531 0.2800 -0.9585
vn -0.0359 0.2821 -0.9587
vn 0.0022 0.0017 -1.0000
vn -0.0137 0.2839 -0.9587
vn 0.0314 -0.2826 -0.9587
vn 0.0502 -0.2805 -0.9585
vn 0.2218 -0.9751 -0.0000
vn 0.1954 -0.9807 -0.0000
vn 0.0480 -0.2491 -0.9673
vn 0.1773 -0.9842 -0.0000
vn 0.1264 -0.9920 -0.0000
vn 0.0008 -0.0412 0.9991
vn 0.0524 -0.2801 0.9585
vn 0.0360 -0.2821 0.9587
vn 0.0480 -0.2491 0.9673
vn 0.1101 -0.9939 -0.0000
vn -0.0027 0.0011 1.0000
vn 0.0192 -0.2836 0.9587
vn -0.0504 0.2804 0.9585
vn -0.1925 0.9813 -0.0000
vn -0.2172 0.9761 -0.0000
vn -0.0623 0.2463 0.9672
vn -0.9869 -0.1612 -0.0000
vn -0.9899 -0.1416 -0.0000
vn -0.0097 -0.0118 0.9999
vn -0.9816 -0.1911 -0.0000
vn -0.9776 -0.2106 -0.0000
vn -0.0097 -0.0117 -0.9999
vn -0.0623 0.2463 -0.9672
vn 0.0098 0.2533 -0.9673
vn 0.0429 -0.1923 -0.9804
vn -0.0086 0.0578 -0.9983
vn 0.0014 0.0015 -1.0000
vn 0.0347 -0.1935 -0.9805
vn 0.0118 -0.0739 0.9972
vn 0.0429 -0.1923 0.9804
vn 0.0380 -0.1929 0.9805
vn -0.0021 0.0007 1.0000
vn 0.2178 -0.9760 -0.0000
vn 0.1923 -0.9813 -0.0000
vn 0.1749 -0.9846 -0.0000
vn -0.0429 0.1923 -0.9804
vn -0.0376 0.1929 -0.9805
vn -0.2178 0.9760 -0.0000
vn -0.1923 0.9813 -0.0000
vn -0.1748 0.9846 -0.0000
vn -0.0429 0.1923 0.9804
vn -0.0342 0.1935 0.9805
vn 0.0016 0.0012 -1.0000
vn 0.0215 -0.1950 -0.9806
vn 0.0246 -0.1947 0.9806
vn -0.0018 0.0008 1.0000
vn 0.1250 -0.9922 -0.0000
vn 0.1086 -0.9941 -0.0000
vn -0.0245 0.1946 -0.9806
vn -0.1250 0.9922 -0.0000
vn -0.1086 0.9941 -0.0000
vn -0.0213 0.1950 0.9806
vn 0.0022 0.0051 -1.0000
vn 0.0069 -0.1921 -0.9813
vn 0.0105 -0.1959 0.9806
vn -0.0023 0.0346 0.9994
vn 0.0539 -0.9985 -0.0000
vn 0.0334 -0.9994 -0.0000
vn -0.0103 0.1959 -0.9806
vn -0.0415 0.9991 -0.0000
vn -0.0082 0.1960 0.9806
vn 0.0014 -0.1908 0.9816
vn -0.0000 0.0126 0.9999
vn 0.0029 -1.0000 -0.0000
vn -0.0009 0.2070 0.9783
vn 0.0014 1.0000 -0.0000
vn -0.0009 0.2070 -0.9783
vn 0.0027 -0.0598 -0.9982
vn 0.0005 -0.1848 -0.9828
vn 0.9998 0.0187 -0.0000
vn -0.9838 -0.1793 -0.0000
vn -0.9838 -0.1794 -0.0000
vn -0.0068 -1.0000 -0.0000
vn -0.9992 -0.0408 -0.0000
vn -0.0016 -0.2326 -0.9726
vn -0.0033 0.0882 -0.9961
vn 0.0048 -0.0887 -0.9961
vn -0.0044 0.0697 0.9976
vn 0.0032 -0.0702 0.9975
vn -0.0016 -0.2326 0.9726
vn 0.9996 0.0296 -0.0000
vn 0.0016 0.2326 0.9726
vn 0.0068 1.0000 -0.0000
vn 0.0016 0.2326 -0.9726
vt 0.352875 0.633003
vt 0.487720 0.624855
vt 0.488281 0.599537
vt 0.352092 0.606343
vt 0.487645 0.574219
vt 0.351308 0.579684
vt 0.240814 0.597448
vt 0.138009 0.623971
vt 0.140166 0.650346
vt 0.242306 0.623994
vt 0.243799 0.650540
vt 0.142322 0.676721
vt 0.017551 0.722656
vt 0.011719 0.669544
vt 0.014008 0.696362
vt 0.016650 0.722656
vt 0.014184 0.699027
vt 0.139093 0.650501
vt 0.140917 0.674377
vt 0.011719 0.675397
vt 0.137269 0.626624
vt 0.241684 0.622251
vt 0.242951 0.646281
vt 0.240416 0.598221
vt 0.351952 0.603328
vt 0.352622 0.627461
vt 0.351283 0.579196
vt 0.488281 0.621609
vt 0.488281 0.595868
vt 0.488281 0.574219
vt 0.628906 0.511340
vt 0.628906 0.394910
vt 0.687500 0.542969
vt 0.687500 0.363281
vt 0.746094 0.394910
vt 0.746094 0.511340
vt 0.629684 0.397023
vt 0.628906 0.397023
vt 0.628906 0.509225
vt 0.687088 0.542969
vt 0.687889 0.542969
vt 0.629684 0.509225
vt 0.687889 0.363281
vt 0.687088 0.363281
vt 0.745271 0.397025
vt 0.746094 0.509227
vt 0.746094 0.397025
vt 0.745271 0.509227
s 1
f 175/94/227 172/95/228 173/94/229
f 172/95/228 174/95/228 173/94/229
f 178/96/230 174/95/231 172/95/231
f 172/95/232 175/94/233 176/97/234
f 177/96/235 172/95/232 176/97/234
f 177/96/236 178/96/230 172/95/231
f 178/96/237 180/98/238 179/97/239
f 174/95/240 178/96/237 179/97/239
f 180/98/241 178/96/230 177/96/236
f 181/98/241 180/98/241 177/96/236
f 180/98/242 181/98/242 182/99/243
f 180/98/238 182/99/244 179/97/239
f 182/99/244 183/100/245 179/97/239
f 185/100/246 183/100/247 182/99/243
f 181/98/242 184/99/243 182/99/243
f 184/99/243 185/100/246 182/99/243
f 185/100/246 186/101/248 183/100/247
f 187/102/249 186/101/250 185/100/251
f 188/103/252 187/102/249 185/100/251
f 188/103/252 185/100/251 184/99/253
f 176/97/234 188/103/252 184/99/253
f 189/104/254 188/103/252 176/97/234
f 190/105/255 187/102/249 188/103/252
f 189/104/254 190/105/255 188/103/252
f 192/106/256 191/106/256 190/105/257
f 190/105/255 191/106/258 187/102/249
f 193/105/259 192/106/256 190/105/257
f 193/105/259 190/105/257 189/104/260
f 194/102/261 193/105/262 195/104/263
f 192/106/264 193/105/262 194/102/261
f 195/104/265 193/105/259 189/104/260
f 196/103/266 194/102/261 195/104/263
f 195/104/265 189/104/260 175/94/227
f 196/103/266 195/104/263 173/94/267
f 173/94/229 195/104/265 175/94/227
f 183/100/245 196/103/266 179/97/239
f 183/100/245 197/101/268 196/103/266
f 197/101/268 194/102/261 196/103/266
f 179/97/239 196/103/266 173/94/267
f 186/101/248 197/101/269 183/100/247
f 186/101/248 198/107/270 197/101/269
f 198/107/270 199/107/270 197/101/269
f 197/101/268 199/107/271 194/102/261
f 200/108/272 199/107/273 198/107/273
f 199/107/271 200/108/274 194/102/261
f 201/108/275 200/108/272 198/107/273
f 192/106/276 200/108/272 201/108/275
f 200/108/274 192/106/264 194/102/261
f 191/106/276 192/106/276 201/108/275
f 191/106/258 201/108/277 187/102/249
f 201/108/277 198/107/278 187/102/249
f 198/107/278 186/101/250 187/102/249
f 175/94/233 189/104/254 176/97/234
f 184/99/253 181/98/279 176/97/234
f 181/98/279 177/96/235 176/97/234
f 173/94/267 174/95/240 179/97/239
f 208/109/280 212/110/281 218/111/282
f 214/112/283 208/109/280 218/111/282
f 213/110/284 210/109/285 216/112/286
f 219/111/287 213/110/284 216/112/286
f 210/109/288 208/109/288 214/112/289
f 216/112/290 210/109/288 214/112/289
f 212/110/281 209/113/291 215/114/292
f 218/111/282 212/110/281 215/114/292
f 209/113/293 211/113/293 217/114/294
f 215/114/295 209/113/293 217/114/294
f 211/113/296 213/110/284 219/111/287
f 217/114/297 211/113/296 219/111/287
f 214/112/283 218/111/282 224/115/298
f 220/116/299 214/112/283 224/115/298
f 219/111/287 216/112/286 222/116/300
f 225/115/301 219/111/287 222/116/300
f 216/112/290 214/112/289 220/116/302
f 222/116/303 216/112/290 220/116/302
f 218/111/282 215/114/292 221/117/304
f 224/115/298 218/111/282 221/117/304
f 215/114/295 217/114/294 223/117/305
f 221/117/306 215/114/295 223/117/305
f 217/114/297 219/111/287 225/115/301
f 223/117/307 217/114/297 225/115/301
f 220/116/299 224/115/298 230/118/308
f 226/119/309 220/116/299 230/118/308
f 225/115/301 222/116/300 228/119/310
f 231/118/311 225/115/301 228/119/310
f 222/116/303 220/116/302 226/119/312
f 228/119/313 222/116/303 226/119/312
f 224/115/298 221/117/304 227/120/314
f 230/118/308 224/115/298 227/120/314
f 221/117/306 223/117/305 229/120/315
f 227/120/315 221/117/306 229/120/315
f 223/117/307 225/115/301 231/118/311
f 229/120/316 223/117/307 231/118/311
f 204/121/317 207/122/318 231/118/311
f 228/119/310 204/121/317 231/118/311
f 202/121/319 204/121/319 228/119/313
f 226/119/312 202/121/319 228/119/313
f 205/123/320 229/120/316 231/118/311
f 207/122/318 205/123/320 231/118/311
f 203/123/321 227/120/315 229/120/315
f 205/123/321 203/123/321 229/120/315
f 203/123/322 206/122/323 230/118/308
f 227/120/314 203/123/322 230/118/308
f 206/122/323 202/121/324 226/119/309
f 230/118/308 206/122/323 226/119/309
f 205/123/325 207/122/325 206/122/325
f 203/123/325 205/123/325 206/122/325
f 207/122/325 204/121/325 202/121/325
f 206/122/325 207/122/325 202/121/325
f 232/124/326 234/125/326 233/126/326
f 234/125/326 235/127/326 233/126/326
f 235/127/326 236/128/327 237/129/327
f 233/126/326 235/127/326 237/129/327
f 243/130/328 239/131/328 238/132/328
f 239/131/329 240/133/329 238/132/329
f 238/132/330 240/133/331 241/134/332
f 242/135/330 238/132/330 241/134/332
f 242/135/328 243/130/328 238/132/328
f 245/136/333 244/137/334 243/130/335
f 244/137/334 239/131/335 243/130/335
f 242/135/336 241/134/336 243/130/336
f 245/136/336 243/130/336 241/134/336
f 248/138/337 244/137/334 245/136/333
f 246/139/336 245/136/336 241/134/336
f 246/139/336 247/140/336 245/136/336
f 247/140/337 248/138/337 245/136/333
f 249/141/338 248/138/338 247/140/338
f 249/141/329 240/133/329 248/138/329
f 248/138/329 240/133/329 244/137/329
f 240/133/331 249/141/339 246/139/339
f 246/139/338 249/141/338 247/140/338
f 241/134/332 240/133/331 246/139/339
f 240/133/329 239/131/329 244/137/329
o item_blade
v 26.590300 22.520599 11.862098
v 26.590300 22.520599 5.647598
v 33.175800 18.257101 13.730999
v 34.370899 19.927902 13.730998
v 27.751900 24.144600 11.862098
v 27.751900 24.144600 5.647598
v 34.370899 19.927900 3.778699
v 33.175800 18.257099 3.778699
v 39.761299 13.993600 5.647699
v 39.761299 13.993601 11.862199
v 40.990002 15.711200 5.647699
v 40.990002 15.711201 11.862199
v 0.000000 70.710701 -0.000005
v 70.710701 0.000000 0.000000
v 0.000000 55.656200 3.999996
v -55.656101 0.000000 4.000000
v -70.710701 0.000000 0.000000
v 0.000000 -55.656101 4.000004
v 0.000000 -70.710602 0.000005
v 55.656200 0.000000 4.000000
v 0.000000 70.710701 -0.000005
v 0.000000 55.656200 -4.000004
v 70.710701 0.000000 0.000000
v -55.656101 -0.000000 -4.000000
v -70.710701 0.000000 0.000000
v 0.000000 -55.656101 -3.999996
v 0.000000 -70.710602 0.000005
v 55.656200 -0.000000 -4.000000
v 0.000000 70.710701 -0.000005
v 70.710701 0.000000 0.000000
v 0.000000 55.656200 3.999996
v -55.656101 0.000000 4.000000
v -70.710701 0.000000 0.000000
v 0.000000 -55.656101 4.000004
v 0.000000 -70.710602 0.000005
v 55.656200 0.000000 4.000000
v 0.000000 70.710701 -0.000005
v 0.000000 55.656200 -4.000004
v 70.710701 0.000000 0.000000
v -55.656101 -0.000000 -4.000000
v -70.710701 0.000000 0.000000
v 0.000000 -55.656101 -3.999996
v 0.000000 -70.710602 0.000005
v 55.656200 -0.000000 -4.000000
v 0.000000 70.710701 -0.000005
v 70.710701 0.000000 0.000000
v 0.000000 55.656200 3.999996
v -55.656101 0.000000 4.000000
v -70.710701 0.000000 0.000000
v 0.000000 -55.656101 4.000004
v 0.000000 -70.710602 0.000005
v 55.656200 0.000000 4.000000
v 0.000000 70.710701 -0.000005
v 0.000000 55.656200 -4.000004
v 70.710701 0.000000 0.000000
v -55.656101 -0.000000 -4.000000
v -70.710701 0.000000 0.000000
v 0.000000 -55.656101 -3.999996
v 0.000000 -70.710602 0.000005
v 55.656200 -0.000000 -4.000000
v -47.864700 45.118301 12.412096
v -73.866402 80.239502 18.773893
v -73.866402 80.239502 12.412094
v -47.864601 45.118301 18.773895
v -47.002399 43.872002 18.773895
v -47.002300 43.872002 12.412097
v -55.445702 39.872898 10.585097
v -80.297302 75.789894 10.585094
v -54.583401 38.626598 10.585097
v -61.876499 35.423302 12.412097
v -86.728096 71.340302 12.412094
v -61.876499 35.423302 18.773897
v -86.728096 71.340302 18.773893
v -80.297203 75.789894 20.600895
v -55.445702 39.872799 20.600897
v -54.583401 38.626598 20.600897
v -61.014198 34.176998 18.773897
v -61.014198 34.176998 12.412097
v -49.071526 40.953312 15.013096
v -35.827488 12.704675 14.909210
v -53.586674 37.523300 14.909208
v -31.366711 16.208532 15.013098
v -49.071526 40.953312 16.172892
v -31.366711 16.208532 16.172894
v -53.586674 37.523300 16.276781
v -35.827488 12.704675 16.276781
v -58.101730 34.093460 15.592995
v -40.288113 9.200915 15.592997
v -17.450045 -5.695614 14.909211
v -21.852407 -9.258181 15.592999
v -2.012000 -24.389639 15.592999
v 2.327475 -20.779129 14.909213
v -17.450050 -5.695693 16.276783
v -13.047783 -2.133290 16.172895
v 2.327475 -20.779129 16.276785
v 6.666707 -17.168791 16.172897
v 23.971279 -33.759235 16.276785
v 20.627934 -37.592926 15.593000
v 30.374645 -30.898314 16.172897
v 26.894716 -35.417004 15.593000
v 30.374575 -30.898317 15.013101
v 23.971279 -33.759235 14.909214
v 32.695923 -32.264748 15.593000
v 6.666707 -17.168791 15.013100
v -13.047783 -2.133290 15.013099
v -54.627403 38.709583 16.110603
v -46.713299 26.803337 31.028873
v -36.580017 34.208462 30.812889
v -32.257355 44.303913 24.804623
v -36.254745 51.360943 16.460836
v -41.159950 57.696991 8.023234
v -51.993488 57.396824 1.758672
v -62.541721 50.615822 1.192434
v -72.680473 43.209946 1.405809
v -76.994507 33.115051 7.418729
v -73.000168 26.058218 15.760420
v -68.094215 19.725233 24.195791
v -57.264263 20.017660 30.465174
v -67.477905 18.835438 23.162462
v -56.644279 19.135479 29.427351
v -46.096172 25.916351 29.993578
v -54.010380 37.822590 15.075360
v -51.373508 56.514557 0.720760
v -61.924591 49.728836 0.157141
v -72.057907 42.323711 0.373109
v -76.380409 32.228367 6.381419
v -35.957344 33.322247 29.780125
v -72.383041 25.171232 14.725127
v -31.643345 43.417210 23.767284
v -35.637619 50.473953 15.425543
v -40.543732 56.807079 6.989965
v -48.378101 43.891602 14.049597
v -45.475899 39.865200 17.136396
v -48.378201 43.891602 17.136396
v -45.475899 39.865200 14.049597
v -55.037899 39.283600 13.773597
v -52.135700 35.257099 13.773597
v -60.990002 35.165298 14.577897
v -60.990002 35.165298 16.608099
v -58.087700 31.138903 14.577898
v -58.087799 31.138903 16.608099
v -55.037899 39.283501 17.412395
v -52.135700 35.257099 17.412397
v 21.897049 48.293568 11.466396
v 3.470247 14.188506 6.043399
v 21.897049 48.293568 6.043396
v 3.470247 14.188507 11.466399
v 26.638025 44.294346 12.939496
v 26.638025 44.294346 4.570297
v 8.118840 10.019906 4.570299
v 31.379005 40.295227 6.043397
v 31.379005 40.295227 11.466397
v 12.767281 5.851408 6.043399
v -4.998924 -20.142729 6.043401
v 12.767281 5.851408 11.466400
v -4.998924 -20.142729 11.466402
v -23.627211 -42.556263 11.466403
v -28.079439 -38.126259 12.939503
v -9.551558 -15.833867 12.939501
v -32.531433 -33.696590 11.466403
v 8.118840 10.019907 12.939499
v -14.104113 -11.525108 11.466401
v -32.531433 -33.696590 6.043402
v -14.104113 -11.525109 6.043401
v -9.551558 -15.833868 4.570302
v -28.079439 -38.126259 4.570303
v -23.627211 -42.556263 6.043403
v -49.086823 -67.488182 6.043405
v -53.409264 -62.930592 4.570305
v -57.731705 -58.373093 6.043404
v -57.731705 -58.373093 11.466405
v -53.409264 -62.930592 12.939505
v -49.086823 -67.488182 11.466405
v -59.530998 -58.415699 11.466405
v -53.878399 -62.941700 12.939505
v -59.530998 -58.415699 6.043404
v -53.878399 -62.941700 4.570305
v -48.225800 -67.467796 11.466405
v -48.225800 -67.467796 6.043405
vn -0.8134 0.5818 -0.0000
vn -0.5435 -0.8394 -0.0000
vn -0.1887 0.1350 0.9727
vn 0.0644 -0.0461 0.9969
vn -0.0644 0.0461 0.9969
vn 0.0644 -0.0461 -0.9969
vn -0.0644 0.0461 -0.9969
vn -0.1887 0.1350 -0.9727
vn 0.5373 0.8434 -0.0000
vn 0.1887 -0.1350 -0.9727
vn 0.8133 -0.5818 -0.0000
vn 0.1887 -0.1350 0.9727
vn 0.2559 0.0853 0.9629
vn -0.0853 0.2559 0.9629
vn 0.0639 0.1919 0.9793
vn -0.1532 0.0510 0.9869
vn -0.2558 -0.0853 0.9629
vn -0.0639 -0.1919 0.9793
vn 0.0853 -0.2559 0.9629
vn 0.1531 -0.0510 0.9869
vn 0.0639 0.1919 -0.9793
vn -0.1531 0.0510 -0.9869
vn -0.0853 0.2559 -0.9629
vn 0.2559 0.0853 -0.9629
vn -0.2558 -0.0853 -0.9629
vn -0.0639 -0.1919 -0.9793
vn 0.0853 -0.2559 -0.9629
vn 0.1532 -0.0510 -0.9869
vn 0.8131 0.5821 -0.0000
vn 0.8037 0.5950 -0.0000
vn 0.1581 0.1131 -0.9809
vn 0.0149 0.0114 -0.9998
vn 0.1717 0.1226 -0.9775
vn 0.8224 0.5690 -0.0000
vn 0.8223 0.5690 -0.0000
vn 0.1599 0.1106 -0.9809
vn -0.0000 -0.0000 -1.0000
vn -0.1871 -0.1294 -0.9738
vn -0.0729 -0.0504 -0.9961
vn -0.8223 -0.5690 -0.0000
vn -0.5690 0.8223 -0.0000
vn -0.0638 -0.0442 0.9970
vn -0.1871 -0.1294 0.9738
vn -0.0099 -0.0056 0.9999
vn 0.1717 0.1226 0.9775
vn 0.0451 0.0312 0.9985
vn 0.1586 0.1124 0.9809
vn -0.8224 -0.5690 -0.0000
vn 0.1599 0.1106 0.9809
vn 0.0140 0.0119 -0.9998
vn -0.0212 -0.0189 -0.9996
vn 0.0149 0.0107 -0.9998
vn -0.0557 -0.0421 -0.9976
vn 0.7710 0.6368 -0.0000
vn 0.8133 0.5819 -0.0000
vn 0.7630 0.6464 -0.0000
vn 0.7626 0.6468 -0.0000
vn 0.0140 0.0119 0.9998
vn 0.0149 0.0107 0.9998
vn -0.0211 -0.0124 0.9997
vn -0.0566 -0.0482 0.9972
vn -0.0974 -0.0697 0.9928
vn -0.0915 -0.0773 0.9928
vn -0.0912 -0.0776 -0.9928
vn -0.0974 -0.0697 -0.9928
vn -0.0352 -0.0382 -0.9986
vn -0.0786 -0.0936 -0.9925
vn -0.0813 -0.0900 0.9926
vn -0.0386 -0.0556 -0.9977
vn -0.0700 -0.1078 -0.9917
vn -0.0710 -0.1056 0.9919
vn -0.0335 -0.0402 0.9986
vn 0.0122 0.0141 0.9998
vn -0.0211 -0.0330 0.9992
vn 0.0166 -0.1131 0.9935
vn 0.0102 0.0158 0.9998
vn 0.0005 -0.1728 0.9850
vn 0.1031 -0.2236 0.9692
vn 0.0784 -0.1342 0.9879
vn 0.0161 -0.1137 -0.9934
vn 0.0784 -0.1342 -0.9879
vn 0.1031 -0.2236 -0.9692
vn 0.1163 -0.2140 -0.9699
vn 0.0005 -0.1728 -0.9850
vn 0.1163 -0.2140 0.9699
vn 0.5040 0.8637 -0.0000
vn 0.5035 0.8640 -0.0000
vn 0.5073 0.8618 -0.0000
vn 0.0105 0.0156 -0.9998
vn 0.5695 0.8220 -0.0000
vn 0.5401 0.8416 -0.0000
vn 0.6443 0.7648 -0.0000
vn 0.0122 0.0141 -0.9998
vn 0.6724 0.7402 -0.0000
vn -0.4164 0.5900 0.6918
vn -0.4170 0.5895 0.6918
vn -0.4165 0.5880 0.6934
vn -0.4185 0.5886 0.6917
vn -0.4182 0.5906 0.6901
vn -0.6573 -0.7189 0.2264
vn -0.5119 -0.7778 0.3646
vn -0.0316 -0.7708 0.6364
vn 0.1057 -0.7255 0.6801
vn 0.3344 -0.6082 0.7199
vn 0.4303 -0.5423 0.7216
vn 0.4164 -0.5900 -0.6918
vn 0.4170 -0.5895 -0.6918
vn 0.4182 -0.5906 -0.6901
vn 0.4165 -0.5880 -0.6934
vn 0.4185 -0.5886 -0.6917
vn 0.6581 0.7184 -0.2256
vn 0.5103 0.7782 -0.3660
vn 0.0329 0.7711 -0.6359
vn 0.7795 0.6226 -0.0697
vn -0.1061 0.7253 -0.6802
vn 0.8642 0.4951 0.0900
vn 0.9070 0.3432 0.2441
vn 0.9068 0.1838 0.3795
vn 0.7145 -0.2567 0.6509
vn -0.8641 -0.4952 -0.0899
vn -0.7794 -0.6227 0.0698
vn -0.9068 -0.3442 -0.2433
vn 0.6217 -0.3688 0.6910
vn -0.9065 -0.1821 -0.3808
vn -0.7153 0.2555 -0.6504
vn -0.4306 0.5421 -0.7216
vn -0.6214 0.3692 -0.6911
vn -0.3341 0.6084 -0.7199
vn 0.8112 0.5847 -0.0000
vn -0.0115 -0.0083 -0.9999
vn 0.0276 0.0199 -0.9994
vn -0.0506 -0.0365 -0.9980
vn -0.0896 -0.0646 -0.9939
vn -0.8112 -0.5847 -0.0000
vn 0.5690 -0.8223 -0.0000
vn 0.5690 -0.8223 0.0001
vn -0.0506 -0.0365 0.9981
vn -0.0896 -0.0646 0.9939
vn -0.0115 -0.0083 0.9999
vn 0.0276 0.0199 0.9994
vn -0.8439 0.5365 -0.0000
vn -0.8798 0.4753 -0.0000
vn -0.8635 0.5043 -0.0000
vn -0.8798 0.4754 -0.0000
vn 0.6448 0.7644 -0.0000
vn -0.0810 0.0651 0.9946
vn -0.2074 0.1121 0.9718
vn -0.2021 0.1165 0.9724
vn -0.0320 0.0192 -0.9993
vn 0.2074 -0.1121 -0.9718
vn 0.0256 -0.0153 -0.9996
vn -0.2074 0.1121 -0.9718
vn 0.8798 -0.4754 -0.0000
vn 0.8538 -0.5205 -0.0000
vn 0.1982 -0.1228 -0.9724
vn 0.1842 -0.1373 -0.9733
vn 0.8078 -0.5895 -0.0000
vn 0.7884 -0.6151 -0.0000
vn 0.7465 -0.6654 -0.0000
vn 0.0059 0.0043 1.0000
vn 0.1654 -0.1593 0.9733
vn 0.1812 -0.1429 0.9730
vn 0.0031 0.0040 1.0000
vn 0.1964 -0.1263 0.9724
vn -0.1862 0.1344 0.9733
vn -0.1707 0.1504 0.9738
vn 0.0034 0.0047 1.0000
vn -0.7465 0.6654 -0.0000
vn -0.7240 0.6898 -0.0000
vn -0.7884 0.6151 -0.0000
vn -0.8078 0.5895 -0.0000
vn 0.0007 -0.0004 -1.0000
vn -0.1831 0.1401 -0.9731
vn -0.1988 0.1231 -0.9723
vn -0.0001 -0.0021 -1.0000
vn -0.1673 0.1562 -0.9734
vn -0.0163 0.0307 -0.9994
vn 0.1688 -0.1534 -0.9736
vn 0.1598 -0.1632 -0.9736
vn -0.1598 0.1632 -0.9736
vn -0.6996 0.7145 -0.0000
vn -0.1598 0.1632 0.9736
vn 0.0517 -0.0928 0.9943
vn 0.1598 -0.1632 0.9736
vn 0.6997 -0.7145 -0.0000
vn 0.7240 -0.6898 -0.0000
vn 0.2074 -0.1121 0.9718
vn -0.6250 -0.7806 -0.0000
vt 0.638360 0.363281
vt 0.628906 0.392028
vt 0.682500 0.467499
vt 0.692226 0.437923
vt 0.736094 0.542969
vt 0.746094 0.512565
vt 0.976562 0.023438
vt 0.095226 0.374655
vt 0.095226 0.374655
vt 0.363281 0.482039
vt 0.055192 0.405964
vt 0.085714 0.371094
vt 0.085714 0.371094
vt 0.329321 0.508598
vt 0.295360 0.535156
vt 0.045679 0.402403
vt 0.021231 0.432522
vt 0.329321 0.508597
vt 0.055191 0.405964
vt 0.011719 0.428961
vt 0.151345 0.832089
vt 0.130777 0.840408
vt 0.053453 0.761719
vt 0.032586 0.769827
vt 0.011719 0.777935
vt 0.110210 0.848726
vt 0.229324 0.893967
vt 0.209069 0.902456
vt 0.333393 0.938984
vt 0.313470 0.947617
vt 0.229324 0.893967
vt 0.249578 0.885478
vt 0.445800 0.978816
vt 0.353316 0.930352
vt 0.430892 0.988281
vt 0.460942 0.983941
vt 0.476237 0.972677
vt 0.476236 0.972677
vt 0.488281 0.976880
vt 0.454238 0.375317
vt 0.498319 0.363281
vt 0.498320 0.453125
vt 0.542401 0.375317
vt 0.574672 0.408202
vt 0.586483 0.453125
vt 0.574672 0.498048
vt 0.542401 0.530933
vt 0.498319 0.542969
vt 0.454238 0.530933
vt 0.421968 0.498048
vt 0.410156 0.453125
vt 0.421968 0.408204
vt 0.425328 0.408204
vt 0.457599 0.375317
vt 0.501680 0.363281
vt 0.501680 0.453125
vt 0.501680 0.542969
vt 0.545762 0.530933
vt 0.578032 0.498048
vt 0.457598 0.530933
vt 0.425328 0.498048
vt 0.545762 0.375317
vt 0.413517 0.453125
vt 0.578032 0.408202
vt 0.589844 0.453125
vt 0.746094 0.420014
vt 0.724172 0.363281
vt 0.724171 0.363281
vt 0.673866 0.428209
vt 0.695788 0.484943
vt 0.628906 0.486236
vt 0.650829 0.542969
vt 0.650828 0.542969
vt 0.673866 0.428210
vt 0.339170 0.617919
vt 0.438130 0.574219
vt 0.463206 0.579277
vt 0.488281 0.584336
vt 0.363750 0.623195
vt 0.388328 0.628470
vt 0.293124 0.661814
vt 0.193447 0.690595
vt 0.169919 0.684984
vt 0.269059 0.656358
vt 0.244994 0.650903
vt 0.146392 0.679374
vt 0.034553 0.716881
vt 0.057387 0.722656
vt 0.011719 0.711106
vt 0.628906 0.363281
vt 0.687500 0.453124
vt 0.746094 0.542969
s 1
f 255/142/340 251/143/340 250/143/340
f 251/143/341 252/144/341 250/143/341
f 250/143/342 252/144/343 253/145/344
f 254/142/342 250/143/342 253/145/344
f 254/142/340 255/142/340 250/143/340
f 256/145/345 257/144/346 255/142/347
f 256/145/348 255/142/348 253/145/348
f 254/142/348 253/145/348 255/142/348
f 257/144/346 251/143/347 255/142/347
f 252/144/341 251/143/341 257/144/341
f 258/146/349 257/144/346 256/145/345
f 258/146/341 252/144/341 257/144/341
f 259/146/350 258/146/350 260/147/350
f 259/146/341 252/144/341 258/146/341
f 260/147/349 258/146/349 256/145/345
f 261/147/348 260/147/348 256/145/348
f 261/147/350 259/146/350 260/147/350
f 252/144/343 259/146/351 261/147/351
f 253/145/344 252/144/343 261/147/351
f 261/147/348 256/145/348 253/145/348
f 263/148/352 262/148/353 264/148/354
f 264/148/354 262/148/353 265/148/355
f 262/148/353 266/148/356 265/148/355
f 265/148/355 266/148/356 267/148/357
f 266/148/356 268/148/358 267/148/357
f 268/148/358 263/148/352 269/148/359
f 267/148/357 268/148/358 269/148/359
f 269/148/359 263/148/352 264/148/354
f 264/148/354 265/148/355 269/148/359
f 265/148/355 267/148/357 269/148/359
f 271/148/360 273/148/361 270/148/362
f 271/148/360 270/148/362 272/148/363
f 273/148/361 274/148/364 270/148/362
f 273/148/361 275/148/365 274/148/364
f 275/148/365 276/148/366 274/148/364
f 277/148/367 272/148/363 276/148/366
f 275/148/365 277/148/367 276/148/366
f 271/148/360 277/148/367 273/148/361
f 277/148/367 271/148/360 272/148/363
f 277/148/367 275/148/365 273/148/361
f 279/148/352 278/148/353 280/148/354
f 280/148/354 278/148/353 281/148/355
f 278/148/353 282/148/356 281/148/355
f 281/148/355 282/148/356 283/148/357
f 282/148/356 284/148/358 283/148/357
f 284/148/358 279/148/352 285/148/359
f 283/148/357 284/148/358 285/148/359
f 280/148/354 281/148/355 285/148/359
f 285/148/359 279/148/352 280/148/354
f 281/148/355 283/148/357 285/148/359
f 287/148/360 289/148/361 286/148/362
f 287/148/360 286/148/362 288/148/363
f 289/148/361 290/148/364 286/148/362
f 289/148/361 291/148/365 290/148/364
f 291/148/365 292/148/366 290/148/364
f 293/148/367 288/148/363 292/148/366
f 291/148/365 293/148/367 292/148/366
f 293/148/367 287/148/360 288/148/363
f 287/148/360 293/148/367 289/148/361
f 293/148/367 291/148/365 289/148/361
f 295/148/352 294/148/353 296/148/354
f 296/148/354 294/148/353 297/148/355
f 294/148/353 298/148/356 297/148/355
f 297/148/355 298/148/356 299/148/357
f 298/148/356 300/148/358 299/148/357
f 300/148/358 295/148/352 301/148/359
f 299/148/357 300/148/358 301/148/359
f 301/148/359 295/148/352 296/148/354
f 296/148/354 297/148/355 301/148/359
f 297/148/355 299/148/357 301/148/359
f 303/148/360 305/148/361 302/148/362
f 303/148/360 302/148/362 304/148/363
f 305/148/361 306/148/364 302/148/362
f 305/148/361 307/148/365 306/148/364
f 307/148/365 308/148/366 306/148/364
f 309/148/367 304/148/363 308/148/366
f 307/148/365 309/148/367 308/148/366
f 303/148/360 309/148/367 305/148/361
f 309/148/367 303/148/360 304/148/363
f 309/148/367 307/148/365 305/148/361
f 313/149/368 310/150/368 311/151/369
f 310/150/368 312/151/369 311/151/369
f 310/150/370 316/152/371 312/151/372
f 310/150/368 313/149/368 314/153/373
f 315/154/374 310/150/368 314/153/373
f 316/152/371 310/150/370 315/154/375
f 317/155/376 316/152/371 320/156/377
f 316/152/371 317/155/376 312/151/372
f 318/157/378 316/152/371 315/154/375
f 319/158/377 316/152/371 318/157/378
f 316/152/371 319/158/377 320/156/377
f 319/158/379 321/158/379 320/156/379
f 321/158/379 322/156/379 320/156/379
f 317/155/380 320/156/380 322/156/380
f 323/159/381 322/156/382 321/158/382
f 323/159/380 317/155/380 322/156/380
f 312/151/380 317/155/380 323/159/380
f 324/160/383 323/159/381 321/158/382
f 311/151/384 323/159/381 324/160/383
f 311/151/380 312/151/380 323/159/380
f 324/160/383 321/158/382 326/161/382
f 325/157/385 324/160/383 326/161/382
f 313/149/386 324/160/383 325/157/385
f 313/149/386 311/151/384 324/160/383
f 326/161/387 321/158/379 327/161/387
f 321/158/379 319/158/379 327/161/387
f 327/161/377 319/158/377 318/157/378
f 314/153/388 313/149/386 325/157/385
f 331/162/389 329/163/390 328/164/391
f 329/163/390 330/165/392 328/164/391
f 331/162/393 328/164/394 332/164/394
f 333/162/395 331/162/396 332/164/394
f 333/162/397 332/164/398 334/165/399
f 335/163/400 333/162/397 334/165/399
f 335/163/400 334/165/399 336/166/401
f 337/167/402 335/163/400 336/166/401
f 337/167/403 336/166/404 330/165/392
f 329/163/390 337/167/403 330/165/392
f 329/163/390 338/168/405 337/167/403
f 338/168/405 339/169/406 337/167/403
f 337/167/402 339/169/407 335/163/400
f 341/170/408 340/171/409 339/169/406
f 339/169/407 340/171/410 342/172/411
f 338/168/405 341/170/408 339/169/406
f 339/169/407 342/172/411 335/163/400
f 342/172/411 343/173/412 333/162/397
f 342/172/411 344/170/413 343/173/412
f 340/171/410 344/170/413 342/172/411
f 335/163/400 342/172/411 333/162/397
f 346/174/414 344/170/413 340/171/410
f 344/170/413 345/175/415 343/173/412
f 344/170/413 346/174/414 345/175/415
f 347/176/416 346/174/414 340/171/410
f 346/174/414 347/176/416 349/177/417
f 346/174/414 348/178/418 345/175/415
f 348/178/418 346/174/414 349/177/417
f 351/174/419 350/179/420 349/177/421
f 350/179/420 352/180/422 349/177/421
f 347/176/423 351/174/419 349/177/421
f 352/180/424 348/178/418 349/177/417
f 350/179/425 348/178/426 352/180/427
f 350/179/420 351/174/419 353/175/428
f 351/174/419 347/176/423 340/171/409
f 351/174/419 341/170/408 353/175/428
f 341/170/408 351/174/419 340/171/409
f 353/175/428 341/170/408 338/168/405
f 345/175/429 353/175/430 354/173/431
f 345/175/429 348/178/426 353/175/430
f 354/173/432 353/175/428 338/168/405
f 348/178/426 350/179/425 353/175/430
f 343/173/433 345/175/429 354/173/431
f 354/173/432 338/168/405 329/163/390
f 343/173/433 354/173/431 331/162/396
f 331/162/389 354/173/432 329/163/390
f 333/162/395 343/173/433 331/162/396
f 367/181/434 356/182/434 355/183/435
f 356/182/434 357/184/434 355/183/435
f 357/184/434 358/185/436 355/183/435
f 358/185/436 359/186/437 355/183/435
f 359/186/437 360/187/438 355/183/435
f 360/187/438 361/188/434 355/183/435
f 361/188/434 362/189/434 355/183/435
f 362/189/434 363/190/434 355/183/435
f 363/190/434 364/191/436 355/183/435
f 364/191/436 365/192/437 355/183/435
f 365/192/437 366/193/438 355/183/435
f 366/193/438 367/181/434 355/183/435
f 366/193/439 368/194/440 367/181/441
f 368/194/440 369/195/442 367/181/441
f 367/181/441 369/195/442 356/182/443
f 369/195/442 370/196/444 356/182/443
f 370/196/445 369/195/445 371/197/446
f 369/195/445 368/194/447 371/197/446
f 373/198/445 372/199/445 371/197/446
f 372/199/445 380/200/447 371/197/446
f 374/201/445 373/198/445 371/197/446
f 375/202/448 374/201/445 371/197/446
f 376/203/445 370/196/445 371/197/446
f 377/204/449 375/202/448 371/197/446
f 378/205/448 376/203/445 371/197/446
f 368/194/447 377/204/449 371/197/446
f 379/206/449 378/205/448 371/197/446
f 380/200/447 379/206/449 371/197/446
f 360/187/450 380/200/451 361/188/452
f 379/206/453 380/200/451 360/187/450
f 380/200/451 372/199/454 361/188/452
f 359/186/455 379/206/453 360/187/450
f 378/205/456 379/206/453 359/186/455
f 358/185/457 378/205/456 359/186/455
f 376/203/458 378/205/456 358/185/457
f 365/192/459 377/204/460 366/193/439
f 375/202/461 377/204/460 365/192/459
f 377/204/460 368/194/440 366/193/439
f 357/184/462 376/203/458 358/185/457
f 370/196/444 376/203/458 357/184/462
f 364/191/463 375/202/461 365/192/459
f 374/201/464 375/202/461 364/191/463
f 373/198/465 374/201/464 363/190/466
f 363/190/466 374/201/464 364/191/463
f 372/199/454 373/198/465 362/189/467
f 362/189/467 373/198/465 363/190/466
f 361/188/452 372/199/454 362/189/467
f 356/182/443 370/196/444 357/184/462
f 384/207/468 381/208/468 382/207/468
f 381/208/468 383/209/468 382/207/468
f 385/210/469 381/208/470 384/207/470
f 386/211/471 385/210/469 384/207/470
f 387/212/472 385/210/469 386/211/471
f 388/212/473 387/212/473 389/213/473
f 389/213/472 387/212/472 386/211/471
f 390/214/473 388/212/473 389/213/473
f 390/214/474 389/213/474 386/211/475
f 391/215/476 388/212/477 390/214/477
f 392/211/474 390/214/474 384/207/474
f 384/207/474 390/214/474 386/211/475
f 392/211/478 391/215/476 390/214/477
f 383/209/479 391/215/476 392/211/478
f 382/207/479 383/209/479 392/211/478
f 382/207/474 392/211/474 384/207/474
f 396/216/480 393/217/481 394/216/482
f 393/217/481 395/217/483 394/216/482
f 398/218/484 395/217/484 393/217/484
f 397/218/485 393/217/486 396/216/487
f 397/218/484 398/218/484 393/217/484
f 400/219/484 398/218/484 397/218/484
f 398/218/488 400/219/489 399/220/490
f 395/217/491 398/218/488 399/220/490
f 401/219/484 400/219/484 397/218/484
f 400/219/492 401/219/492 402/221/493
f 400/219/489 402/221/494 399/220/490
f 402/221/494 403/222/495 399/220/490
f 405/222/496 403/222/497 402/221/493
f 401/219/492 404/221/493 402/221/493
f 404/221/493 405/222/496 402/221/493
f 405/222/496 406/223/498 403/222/497
f 407/224/499 406/223/500 405/222/501
f 408/225/502 407/224/499 405/222/501
f 408/225/502 405/222/501 404/221/503
f 411/226/504 409/227/505 408/225/502
f 409/227/505 407/224/499 408/225/502
f 410/220/506 408/225/502 404/221/503
f 411/226/504 408/225/502 410/220/506
f 412/227/507 409/227/508 411/226/509
f 413/226/510 412/227/507 411/226/509
f 413/226/510 411/226/509 396/216/480
f 396/216/487 411/226/504 410/220/506
f 414/225/511 413/226/512 394/216/513
f 414/225/511 415/224/514 413/226/512
f 394/216/482 413/226/510 396/216/480
f 415/224/514 412/227/515 413/226/512
f 415/224/514 418/228/516 412/227/515
f 416/223/517 415/224/514 414/225/511
f 416/223/517 417/229/518 415/224/514
f 417/229/518 418/228/516 415/224/514
f 418/228/516 419/230/519 412/227/515
f 419/230/520 420/230/520 409/227/508
f 412/227/507 419/230/520 409/227/508
f 409/227/505 420/230/521 407/224/499
f 420/230/521 421/228/522 407/224/499
f 421/228/522 422/229/523 406/223/500
f 407/224/499 421/228/522 406/223/500
f 406/223/498 422/229/524 416/223/525
f 422/229/524 417/229/524 416/223/525
f 406/223/498 416/223/525 403/222/497
f 403/222/495 416/223/517 414/225/511
f 403/222/495 414/225/511 399/220/490
f 399/220/490 414/225/511 394/216/513
f 410/220/506 397/218/485 396/216/487
f 401/219/526 397/218/485 410/220/506
f 404/221/503 401/219/526 410/220/506
f 394/216/513 395/217/491 399/220/490
f 423/231/527 425/231/527 424/232/527
f 425/231/527 426/232/527 424/232/527
f 424/232/527 426/232/527 427/233/527
f 426/232/527 428/233/527 427/233/527
o item_damaged
v -29.153999 3.117801 15.308600
v -24.850100 -8.020700 15.206201
v -22.281900 0.038201 15.206200
v -32.607300 -7.718799 15.308601
v -29.153999 3.117701 16.452700
v -22.282000 0.038101 16.555099
v -32.607300 -7.718799 16.452700
v -24.850201 -8.020799 16.555099
v -17.092899 -8.322799 15.880601
v -15.409900 -3.041299 15.880600
v -11.276401 -28.765299 13.182502
v -57.942905 -69.502907 18.578806
v -57.942905 -69.502907 13.182506
v -11.276401 -28.765299 18.578802
v -9.622101 -27.394098 18.578802
v -9.622101 -27.394098 13.182502
v -4.612300 -36.805599 11.632703
v -52.289803 -76.323303 11.632706
v -2.957900 -35.434299 11.632703
v 1.040801 -43.625900 13.182503
v -46.636707 -83.143600 13.182507
v 1.040900 -43.625900 18.578804
v -46.636707 -83.143600 18.578806
v -52.289803 -76.323196 20.128605
v -4.612200 -36.805599 20.128601
v -2.957900 -35.434399 20.128601
v 2.695200 -42.254700 18.578804
v 2.695200 -42.254700 13.182503
v -5.951000 -27.676098 15.308602
v 42.820202 6.502701 15.206199
v -1.127600 -33.495300 15.206203
v 37.865799 12.200401 15.308599
v -5.950900 -27.676098 16.452702
v 37.865799 12.200401 16.452700
v -1.127700 -33.495300 16.555101
v 3.695500 -39.314400 15.880603
v 42.820202 6.502602 16.555099
v 47.774502 0.805101 15.880600
v -3.068654 -35.508263 16.614643
v 8.249861 -26.407711 31.769489
v -0.156994 -16.823402 31.530628
v -10.755943 -13.368397 25.412802
v -17.524216 -18.057430 16.931540
v -23.487926 -23.605412 8.365420
v -22.200500 -34.547291 2.015632
v -14.386978 -44.608738 1.459851
v -5.978946 -54.198532 1.696106
v 4.618852 -57.644844 7.818530
v 11.386986 -52.958973 16.297615
v 17.347672 -47.410378 24.861675
v 16.068384 -36.471485 31.216276
v 18.529922 -46.433025 23.395699
v 17.242516 -35.491070 29.745701
v -1.889406 -34.530190 15.146576
v 9.429111 -25.429733 30.301479
v 1.020973 -15.839891 30.065197
v -9.576801 -12.393566 23.942799
v -16.344965 -17.079454 15.463530
v -22.305643 -22.628078 6.899457
v -21.026400 -33.566872 0.545032
v -13.207827 -43.630661 -0.008142
v -4.800970 -53.214962 0.230721
v 5.798072 -56.669952 6.348481
v 12.566254 -51.981018 14.829606
v -9.684300 -29.093998 14.571502
v -4.336400 -24.520699 17.189802
v -9.684300 -29.093998 17.189802
v -4.336400 -24.520597 14.571502
v -3.830000 -36.157200 14.337303
v 1.518000 -31.583899 14.337303
v 1.402200 -42.469700 15.019603
v 1.402200 -42.469700 16.741703
v 6.750000 -37.896400 15.019603
v 6.750100 -37.896400 16.741703
v -3.830000 -36.157200 17.424002
v 1.518000 -31.583899 17.424002
v -47.485100 74.001503 15.308595
v -51.311600 77.422798 15.880594
v -47.485100 74.001404 16.452694
v -42.651699 80.013397 15.880594
v -37.841202 75.811600 15.206194
v -8.435800 39.442101 15.308598
v -2.130400 43.504501 15.206197
v -8.435800 39.442101 16.452696
v 20.230400 19.849901 15.206198
v 12.789900 16.988201 15.308599
v 12.789900 16.988201 16.452698
v -2.130500 43.504601 16.555096
v 20.230400 19.849901 16.555098
v 27.671101 22.711702 15.880598
v 4.175200 47.567299 15.880596
v -37.841202 75.811600 16.555094
v -33.127602 80.726303 15.880594
v -55.002800 -4.131499 15.308600
v -48.492500 -0.307299 15.206200
v -62.818199 5.832301 15.308600
v -62.818199 5.832302 16.452700
v -55.002899 -4.131399 16.452700
v -56.299702 9.645901 16.555099
v -48.492401 -0.307499 16.555099
v -41.982101 3.516601 15.880600
v -49.781101 13.459501 15.880599
v -56.299599 9.645901 15.206199
v 19.032801 52.480801 15.308597
v 25.285299 48.283699 15.206196
v 25.472500 68.316498 15.308596
v 25.472401 68.316498 16.452694
v 19.032801 52.480801 16.452696
v 31.160200 62.730900 16.555096
v 25.285299 48.283699 16.555096
v 31.537800 44.086800 15.880597
v 36.848099 57.145100 15.880595
v 31.160200 62.730900 15.206195
v -39.834801 34.469398 15.308598
v -30.776600 22.921202 15.308599
v -32.939098 37.802299 15.206197
v -30.776600 22.921103 16.452698
v -39.834801 34.469398 16.452698
v -24.258101 26.734701 16.555098
v -32.939201 37.802299 16.555098
v -26.043501 41.135201 15.880597
v -17.739500 30.548302 15.880598
v -24.257999 26.734802 15.206198
v 65.920898 20.866402 16.452698
v 53.761101 30.418102 16.555098
v 61.289398 31.826202 16.452698
v 59.833099 16.049501 16.555098
v 65.920799 20.866402 15.308599
v 59.833000 16.049501 15.206199
v 61.289299 31.826302 15.308598
v 53.761101 30.418102 15.206198
v 53.745098 11.232301 15.880599
v 46.232800 29.010101 15.880598
v 0.000000 70.710701 -0.000005
v 70.710701 0.000000 0.000000
v 0.000000 55.656200 3.999996
v -55.656101 0.000000 4.000000
v -70.710701 0.000000 0.000000
v 0.000000 -55.656101 4.000004
v 0.000000 -70.710602 0.000005
v 55.656200 0.000000 4.000000
v 0.000000 70.710701 -0.000005
v 0.000000 55.656200 -4.000004
v 70.710701 0.000000 0.000000
v -55.656101 -0.000000 -4.000000
v -70.710701 0.000000 0.000000
v 0.000000 -55.656101 -3.999996
v 0.000000 -70.710602 0.000005
v 55.656200 -0.000000 -4.000000
v 0.000000 70.710701 -0.000005
v 70.710701 0.000000 0.000000
v 0.000000 55.656200 3.999996
v -55.656101 0.000000 4.000000
v -70.710701 0.000000 0.000000
v 0.000000 -55.656101 4.000004
v 0.000000 -70.710602 0.000005
v 55.656200 0.000000 4.000000
v 0.000000 70.710701 -0.000005
v 0.000000 55.656200 -4.000004
v 70.710701 0.000000 0.000000
v -55.656101 -0.000000 -4.000000
v -70.710701 0.000000 0.000000
v 0.000000 -55.656101 -3.999996
v 0.000000 -70.710602 0.000005
v 55.656200 -0.000000 -4.000000
v 0.000000 70.710701 -0.000005
v 70.710701 0.000000 0.000000
v 0.000000 55.656200 3.999996
v -55.656101 0.000000 4.000000
v -70.710701 0.000000 0.000000
v 0.000000 -55.656101 4.000004
v 0.000000 -70.710602 0.000005
v 55.656200 0.000000 4.000000
v 0.000000 70.710701 -0.000005
v 0.000000 55.656200 -4.000004
v 70.710701 0.000000 0.000000
v -55.656101 -0.000000 -4.000000
v -70.710701 0.000000 0.000000
v 0.000000 -55.656101 -3.999996
v 0.000000 -70.710602 0.000005
v 55.656200 -0.000000 -4.000000
vn -0.0130 0.0042 -0.9999
vn 0.0198 -0.0063 -0.9998
vn 0.0527 -0.0168 -0.9985
vn -0.9528 0.3036 -0.0000
vn 0.0199 -0.0063 0.9998
vn -0.0130 0.0042 0.9999
vn 0.0527 -0.0168 0.9985
vn 0.0855 -0.0273 0.9960
vn 0.0855 -0.0273 -0.9960
vn -0.6479 0.7617 -0.0000
vn -0.6576 0.7533 -0.0000
vn -0.0951 0.1118 -0.9892
vn -0.0092 0.0103 -0.9999
vn -0.1033 0.1217 -0.9872
vn -0.6382 0.7699 -0.0000
vn -0.0937 0.1130 -0.9892
vn -0.0000 -0.0000 -1.0000
vn 0.1100 -0.1327 -0.9850
vn 0.0425 -0.0513 -0.9978
vn 0.6381 -0.7699 -0.0000
vn -0.7699 -0.6381 -0.0000
vn -0.7699 -0.6382 -0.0000
vn 0.0371 -0.0448 0.9983
vn 0.1100 -0.1327 0.9850
vn -0.1033 0.1217 0.9872
vn 0.0050 -0.0071 1.0000
vn -0.0949 0.1120 0.9892
vn -0.0261 0.0315 0.9992
vn 0.6382 -0.7699 -0.0000
vn -0.0937 0.1130 0.9892
vn -0.0091 0.0100 -0.9999
vn 0.0139 -0.0153 -0.9998
vn 0.0369 -0.0406 -0.9985
vn -0.6731 0.7396 0.0001
vn -0.6731 0.7396 -0.0000
vn -0.0091 0.0100 0.9999
vn 0.0139 -0.0152 0.9998
vn 0.0369 -0.0406 0.9985
vn 0.0139 -0.0153 0.9998
vn 0.0599 -0.0658 0.9960
vn 0.0599 -0.0658 -0.9960
vn -0.5513 -0.4663 0.6918
vn -0.5509 -0.4669 0.6918
vn -0.5496 -0.4663 0.6932
vn -0.5499 -0.4681 0.6918
vn -0.5517 -0.4680 0.6903
vn -0.5495 -0.4663 0.6932
vn 0.7641 0.0497 0.6432
vn 0.7178 0.1570 0.6784
vn 0.5670 0.3989 0.7207
vn 0.7724 -0.5934 0.2266
vn 0.8195 -0.4386 0.3689
vn 0.5513 0.4663 -0.6918
vn 0.5509 0.4669 -0.6918
vn 0.5517 0.4680 -0.6903
vn 0.5103 0.4674 0.7219
vn 0.3013 0.6623 0.6860
vn 0.2042 0.7289 0.6534
vn -0.2607 0.8878 0.3792
vn -0.4242 0.8733 0.2396
vn 0.5496 0.4663 -0.6932
vn -0.5500 0.8281 0.1088
vn -0.7020 0.7059 -0.0947
vn 0.5499 0.4681 -0.6918
vn -0.8198 0.4367 -0.3705
vn -0.7718 0.5945 -0.2254
vn -0.7171 -0.1585 -0.6787
vn -0.7650 -0.0474 -0.6423
vn -0.5101 -0.4677 -0.7219
vn -0.5673 -0.3986 -0.7206
vn -0.3025 -0.6613 -0.6864
vn -0.2021 -0.7302 -0.6526
vn 0.2587 -0.8878 -0.3807
vn 0.4254 -0.8730 -0.2384
vn 0.5501 -0.8280 -0.1087
vn 0.7021 -0.7058 0.0948
vn -0.6499 0.7600 -0.0000
vn 0.0069 -0.0081 -0.9999
vn -0.0166 0.0194 -0.9997
vn 0.0305 -0.0356 -0.9989
vn 0.0539 -0.0630 -0.9966
vn 0.6499 -0.7600 -0.0000
vn 0.7699 0.6381 -0.0000
vn 0.0069 -0.0081 0.9999
vn 0.0304 -0.0356 0.9989
vn 0.0539 -0.0630 0.9966
vn -0.0166 0.0194 0.9997
vn -0.0264 0.0786 -0.9966
vn -0.0372 0.1242 -0.9916
vn -0.0271 0.1305 -0.9911
vn -0.6646 -0.7472 -0.0001
vn -0.6642 -0.7475 -0.0000
vn -0.6665 -0.7455 -0.0001
vn -0.6847 -0.7288 -0.0000
vn 0.0109 0.0651 -0.9978
vn -0.0097 -0.0100 -0.9999
vn -0.7060 -0.7082 -0.0000
vn 0.0350 0.0348 -0.9988
vn 0.0154 0.0145 -0.9998
vn -0.7267 -0.6870 -0.0000
vn -0.0101 -0.0095 -0.9999
vn 0.0408 0.0386 0.9984
vn 0.0198 0.0204 0.9996
vn -0.0101 -0.0095 0.9999
vn -0.0097 -0.0100 0.9999
vn 0.0650 0.0668 0.9956
vn 0.0662 0.0626 0.9958
vn 0.0646 0.0683 -0.9956
vn 0.0273 0.1101 -0.9935
vn 0.0274 0.1101 0.9935
vn 0.0109 0.0651 0.9978
vn 0.0662 0.0626 -0.9958
vn -0.0272 0.1305 0.9911
vn -0.0264 0.0787 0.9966
vn -0.0372 0.1242 0.9916
vn 0.0164 0.0129 -0.9998
vn -0.0108 -0.0084 -0.9999
vn -0.7868 -0.6172 -0.0000
vn -0.0108 -0.0084 0.9999
vn 0.0164 0.0128 0.9998
vn 0.0436 0.0342 0.9985
vn 0.0706 0.0554 0.9960
vn 0.0706 0.0554 -0.9960
vn 0.0435 0.0341 -0.9985
vn 0.0196 -0.0080 -0.9998
vn -0.0129 0.0052 -0.9999
vn -0.9263 0.3767 -0.0001
vn -0.9263 0.3767 -0.0000
vn -0.0129 0.0052 0.9999
vn 0.0197 -0.0080 0.9998
vn 0.0520 -0.0212 0.9984
vn 0.0844 -0.0343 0.9958
vn 0.0844 -0.0343 -0.9958
vn 0.0520 -0.0212 -0.9984
vn -0.7868 -0.6172 -0.0001
vn 0.0164 0.0129 0.9998
vn 0.0435 0.0342 -0.9985
vn -0.0125 -0.0472 0.9988
vn 0.0126 0.0053 0.9999
vn -0.0572 0.0262 0.9980
vn -0.0351 -0.0148 0.9993
vn 0.9211 0.3893 -0.0001
vn 0.0126 0.0053 -0.9999
vn -0.0192 -0.0081 -0.9998
vn 0.9211 0.3893 -0.0000
vn -0.0510 -0.0215 -0.9985
vn -0.9211 -0.3892 -0.0001
vn -0.9211 -0.3892 -0.0000
vn 0.2559 0.0853 0.9629
vn -0.0853 0.2559 0.9629
vn 0.0639 0.1919 0.9793
vn -0.1532 0.0510 0.9869
vn -0.2558 -0.0853 0.9629
vn -0.0639 -0.1919 0.9793
vn 0.0853 -0.2559 0.9629
vn 0.1531 -0.0510 0.9869
vn 0.0639 0.1919 -0.9793
vn -0.1531 0.0510 -0.9869
vn -0.0853 0.2559 -0.9629
vn 0.2559 0.0853 -0.9629
vn -0.2558 -0.0853 -0.9629
vn -0.0639 -0.1919 -0.9793
vn 0.0853 -0.2559 -0.9629
vn 0.1532 -0.0510 -0.9869
vt 0.011719 0.976320
vt 0.107414 0.761719
vt 0.226681 0.982299
vt 0.297849 0.822705
vt 0.107414 0.761721
vt 0.297846 0.822707
vt 0.226678 0.982301
vt 0.441643 0.988281
vt 0.488281 0.883690
vt 0.282278 0.375129
vt 0.011719 0.495014
vt 0.320914 0.398790
vt 0.291869 0.371094
vt 0.044494 0.515085
vt 0.077269 0.535156
vt 0.330506 0.394755
vt 0.353690 0.418862
vt 0.353690 0.418862
vt 0.044494 0.515085
vt 0.320915 0.398790
vt 0.330506 0.394755
vt 0.363281 0.414826
vt 0.400388 0.761719
vt 0.444335 0.786777
vt 0.011719 0.937096
vt 0.054504 0.962689
vt 0.011720 0.937096
vt 0.054503 0.962689
vt 0.444335 0.786778
vt 0.097286 0.988281
vt 0.488281 0.811835
vt 0.453830 0.413585
vt 0.497504 0.456713
vt 0.541178 0.499841
vt 0.573150 0.531413
vt 0.584852 0.542969
vt 0.497504 0.456713
vt 0.421859 0.382013
vt 0.410156 0.370457
vt 0.458822 0.406410
vt 0.426850 0.374837
vt 0.502496 0.449537
vt 0.502496 0.449537
vt 0.546170 0.492665
vt 0.578141 0.524238
vt 0.589844 0.535793
vt 0.578141 0.524237
vt 0.415148 0.363281
vt 0.746094 0.484497
vt 0.716235 0.542969
vt 0.746093 0.484497
vt 0.670120 0.478960
vt 0.699978 0.420487
vt 0.628906 0.421753
vt 0.658765 0.363282
vt 0.658765 0.363281
vt 0.034807 0.785623
vt 0.011719 0.773461
vt 0.063970 0.764253
vt 0.034807 0.785623
vt 0.270421 0.908467
vt 0.092996 0.779188
vt 0.308466 0.894027
vt 0.443386 0.978109
vt 0.398492 0.988281
vt 0.308466 0.894026
vt 0.346513 0.879585
vt 0.488281 0.967937
vt 0.121437 0.761719
vt 0.339376 0.939028
vt 0.190472 0.988281
vt 0.011719 0.859953
vt 0.190470 0.988280
vt 0.160810 0.810836
vt 0.339378 0.939030
vt 0.488281 0.889778
vt 0.309903 0.761719
vt 0.160812 0.810836
vt 0.094266 0.908766
vt 0.176816 0.988281
vt 0.488281 0.906386
vt 0.488281 0.906387
vt 0.378421 0.834053
vt 0.011719 0.829251
vt 0.268556 0.761719
vt 0.011719 0.844634
vt 0.207091 0.988280
vt 0.207091 0.988281
vt 0.160449 0.803176
vt 0.347685 0.940844
vt 0.160446 0.803176
vt 0.488281 0.893408
vt 0.309176 0.761719
vt 0.347687 0.940843
vt 0.123193 0.831775
vt 0.234660 0.761719
vt 0.455694 0.901649
vt 0.488279 0.815016
vt 0.234660 0.761720
vt 0.123193 0.831776
vt 0.488281 0.815017
vt 0.011719 0.901833
vt 0.423112 0.988281
vt 0.976562 0.023438
s 1
f 432/234/528 429/235/528 430/236/529
f 429/235/528 431/237/530 430/236/529
f 433/238/531 429/235/531 432/234/531
f 434/239/532 433/238/533 435/234/533
f 435/234/531 433/238/531 432/234/531
f 436/240/534 434/239/532 435/234/533
f 437/241/535 438/242/535 436/240/534
f 438/242/535 434/239/532 436/240/534
f 431/237/530 438/242/536 437/241/536
f 430/236/529 431/237/530 437/241/536
f 442/243/537 439/243/537 440/244/538
f 439/243/537 441/244/538 440/244/538
f 439/243/539 445/245/540 441/244/541
f 439/243/537 442/243/537 443/246/542
f 444/246/542 439/243/537 443/246/542
f 445/245/540 439/243/539 444/246/543
f 446/247/544 445/245/540 449/248/545
f 445/245/540 446/247/544 441/244/541
f 447/249/546 445/245/540 444/246/543
f 448/250/545 445/245/540 447/249/546
f 445/245/540 448/250/545 449/248/545
f 448/250/547 450/251/547 449/248/547
f 450/251/547 451/248/547 449/248/547
f 446/247/548 449/248/549 451/248/548
f 452/252/550 451/248/551 450/251/551
f 452/252/548 446/247/548 451/248/548
f 440/244/552 452/252/550 453/253/553
f 440/244/549 441/244/548 452/252/548
f 441/244/548 446/247/548 452/252/548
f 453/253/553 452/252/550 450/251/551
f 442/243/554 440/244/552 453/253/553
f 442/243/554 453/253/553 454/254/555
f 453/253/553 450/251/551 455/255/551
f 454/254/555 453/253/553 455/255/551
f 455/255/556 450/251/547 456/255/547
f 450/251/547 448/250/547 456/255/547
f 456/255/545 448/250/545 447/249/546
f 443/246/557 442/243/554 454/254/555
f 460/256/558 458/257/559 457/258/558
f 458/257/559 459/259/560 457/258/558
f 460/256/561 457/258/561 461/260/561
f 462/256/562 460/256/562 461/260/562
f 462/256/563 461/260/563 463/261/564
f 465/262/565 463/261/566 464/263/567
f 465/262/565 462/256/563 463/261/566
f 466/264/567 465/262/565 464/263/567
f 466/264/568 464/263/568 459/259/560
f 458/257/559 466/264/568 459/259/560
f 479/265/569 468/266/569 467/266/570
f 468/266/569 469/267/569 467/266/570
f 469/267/569 470/268/571 467/266/570
f 470/268/571 471/269/572 467/266/570
f 471/269/572 472/268/573 467/266/570
f 472/268/573 473/267/569 467/266/570
f 473/267/569 474/270/569 467/266/570
f 474/270/569 475/265/569 467/266/570
f 475/265/569 476/271/574 467/266/570
f 476/271/574 477/272/572 467/266/570
f 477/272/572 478/271/573 467/266/570
f 478/271/573 479/265/569 467/266/570
f 479/265/575 481/273/576 468/266/577
f 478/271/578 480/274/579 479/265/575
f 480/274/579 481/273/576 479/265/575
f 483/275/580 481/273/580 482/276/581
f 481/273/580 480/274/582 482/276/581
f 481/273/576 483/275/583 468/266/577
f 468/266/577 483/275/583 469/267/584
f 483/275/583 484/277/585 469/267/584
f 484/277/580 483/275/580 482/276/581
f 469/267/584 484/277/585 470/268/586
f 484/277/585 485/278/587 470/268/586
f 485/278/588 484/277/580 482/276/581
f 470/268/586 485/278/587 471/269/589
f 485/278/587 486/279/590 471/269/589
f 486/279/591 485/278/588 482/276/581
f 487/280/582 486/279/591 482/276/581
f 486/279/590 487/280/592 472/268/593
f 471/269/589 486/279/590 472/268/593
f 488/277/580 487/280/582 482/276/581
f 487/280/592 488/277/594 473/267/595
f 472/268/593 487/280/592 473/267/595
f 489/276/580 488/277/580 482/276/581
f 488/277/594 489/276/596 474/270/597
f 473/267/595 488/277/594 474/270/597
f 474/270/597 489/276/596 475/265/598
f 489/276/596 490/273/599 475/265/598
f 490/273/580 489/276/580 482/276/581
f 475/265/598 490/273/599 476/271/600
f 490/273/599 491/274/601 476/271/600
f 491/274/588 490/273/580 482/276/581
f 476/271/600 491/274/601 477/272/602
f 491/274/601 492/281/603 477/272/602
f 492/281/591 491/274/588 482/276/581
f 477/272/602 492/281/603 478/271/578
f 492/281/603 480/274/579 478/271/578
f 480/274/582 492/281/591 482/276/581
f 496/282/604 493/283/604 494/284/604
f 493/283/604 495/283/604 494/284/604
f 497/285/605 493/283/606 496/282/606
f 498/286/607 497/285/605 496/282/606
f 499/287/608 497/285/605 498/286/607
f 500/287/609 499/287/609 501/288/609
f 501/288/608 499/287/608 498/286/607
f 502/289/609 500/287/609 501/288/609
f 502/289/610 501/288/610 498/286/610
f 504/286/611 503/285/612 502/289/613
f 503/285/612 500/287/613 502/289/613
f 504/286/610 502/289/610 496/282/610
f 496/282/610 502/289/610 498/286/610
f 494/284/610 504/286/610 496/282/610
f 494/284/614 495/283/614 504/286/611
f 495/283/614 503/285/612 504/286/611
f 505/290/615 506/291/616 508/292/617
f 505/290/618 507/293/619 506/291/620
f 507/293/619 505/290/618 510/294/621
f 509/295/622 505/290/615 508/292/617
f 505/290/615 509/295/622 510/294/623
f 512/294/624 507/293/619 510/294/621
f 509/295/622 511/296/625 510/294/623
f 510/294/623 511/296/625 513/297/626
f 512/294/624 510/294/621 514/298/627
f 514/298/628 510/294/623 513/297/626
f 515/298/627 512/294/624 514/298/627
f 517/297/629 516/299/630 515/298/631
f 516/299/630 512/294/632 515/298/631
f 519/300/633 516/299/630 517/297/629
f 518/301/634 519/300/633 517/297/629
f 511/296/625 509/295/622 519/300/635
f 509/295/622 521/302/636 519/300/635
f 521/302/637 520/295/638 519/300/633
f 520/295/638 516/299/630 519/300/633
f 511/296/625 519/300/635 518/301/639
f 520/295/638 521/302/637 508/292/640
f 521/302/636 509/295/622 508/292/617
f 520/295/638 507/293/641 512/294/632
f 507/293/641 520/295/638 508/292/640
f 516/299/630 520/295/638 512/294/632
f 513/297/626 511/296/625 518/301/639
f 506/291/642 507/293/641 508/292/640
f 523/303/643 522/304/644 524/305/644
f 524/305/645 522/304/645 525/305/645
f 522/304/645 526/306/645 525/305/645
f 525/305/646 526/306/646 527/307/647
f 526/306/646 528/308/648 527/307/647
f 528/308/648 529/309/649 530/310/649
f 527/307/647 528/308/648 530/310/649
f 530/310/650 529/309/650 531/311/651
f 529/309/650 523/303/643 531/311/651
f 531/311/651 523/303/643 524/305/644
f 533/312/652 532/313/653 534/314/653
f 534/314/654 532/313/655 535/315/654
f 532/313/655 536/313/655 535/315/654
f 535/315/656 536/313/656 537/316/657
f 536/313/656 538/312/658 537/316/657
f 538/312/658 539/317/659 540/318/659
f 537/316/657 538/312/658 540/318/659
f 540/318/660 539/317/660 541/316/661
f 539/317/660 533/312/652 541/316/661
f 541/316/661 533/312/652 534/314/653
f 542/319/662 543/320/662 545/321/662
f 543/320/644 542/319/644 544/322/643
f 546/319/645 542/319/645 545/321/645
f 545/321/646 547/323/663 546/319/646
f 547/323/663 548/324/648 546/319/646
f 550/325/649 549/326/649 548/324/648
f 547/323/663 550/325/649 548/324/648
f 550/325/650 551/327/664 549/326/650
f 551/327/651 543/320/644 544/322/643
f 551/327/651 544/322/643 549/326/650
f 555/328/665 552/329/666 553/330/667
f 552/329/666 554/331/666 553/330/668
f 554/331/669 552/329/669 556/332/669
f 556/332/670 557/333/671 558/334/670
f 558/334/672 554/331/672 556/332/672
f 557/333/671 559/330/673 558/334/670
f 557/333/671 560/335/674 559/330/673
f 560/335/674 561/336/675 559/330/673
f 560/335/674 555/328/665 561/336/675
f 555/328/665 553/330/667 561/336/675
f 563/337/676 562/337/677 564/337/678
f 564/337/678 562/337/677 565/337/679
f 562/337/677 566/337/680 565/337/679
f 565/337/679 566/337/680 567/337/681
f 566/337/680 568/337/682 567/337/681
f 568/337/682 563/337/676 569/337/683
f 567/337/681 568/337/682 569/337/683
f 569/337/683 563/337/676 564/337/678
f 564/337/678 565/337/679 569/337/683
f 565/337/679 567/337/681 569/337/683
f 571/337/684 573/337/685 570/337/686
f 571/337/684 570/337/686 572/337/687
f 573/337/685 574/337/688 570/337/686
f 573/337/685 575/337/689 574/337/688
f 575/337/689 576/337/690 574/337/688
f 577/337/691 572/337/687 576/337/690
f 575/337/689 577/337/691 576/337/690
f 571/337/684 577/337/691 573/337/685
f 577/337/691 571/337/684 572/337/687
f 577/337/691 575/337/689 573/337/685
f 579/337/676 578/337/677 580/337/678
f 580/337/678 578/337/677 581/337/679
f 578/337/677 582/337/680 581/337/679
f 581/337/679 582/337/680 583/337/681
f 582/337/680 584/337/682 583/337/681
f 584/337/682 579/337/676 585/337/683
f 583/337/681 584/337/682 585/337/683
f 580/337/678 581/337/679 585/337/683
f 585/337/683 579/337/676 580/337/678
f 581/337/679 583/337/681 585/337/683
f 587/337/684 589/337/685 586/337/686
f 587/337/684 586/337/686 588/337/687
f 589/337/685 590/337/688 586/337/686
f 589/337/685 591/337/689 590/337/688
f 591/337/689 592/337/690 590/337/688
f 593/337/691 588/337/687 592/337/690
f 591/337/689 593/337/691 592/337/690
f 593/337/691 587/337/684 588/337/687
f 587/337/684 593/337/691 589/337/685
f 593/337/691 591/337/689 589/337/685
f 595/337/676 594/337/677 596/337/678
f 596/337/678 594/337/677 597/337/679
f 594/337/677 598/337/680 597/337/679
f 597/337/679 598/337/680 599/337/681
f 598/337/680 600/337/682 599/337/681
f 600/337/682 595/337/676 601/337/683
f 599/337/681 600/337/682 601/337/683
f 601/337/683 595/337/676 596/337/678
f 596/337/678 597/337/679 601/337/683
f 597/337/679 599/337/681 601/337/683
f 603/337/684 605/337/685 602/337/686
f 603/337/684 602/337/686 604/337/687
f 605/337/685 606/337/688 602/337/686
f 605/337/685 607/337/689 606/337/688
f 607/337/689 608/337/690 606/337/688
f 609/337/691 604/337/687 608/337/690
f 607/337/689 609/337/691 608/337/690
f 603/337/684 609/337/691 605/337/685
f 609/337/691 603/337/684 604/337/687
f 609/337/691 607/337/689 605/337/685
o effect
v -35.228138 -3.564283 -3.002900
v -91.620697 -4.574447 3.325500
v -35.228138 -3.564283 3.002900
v -91.620697 -4.574448 -3.325500
v -92.081429 2.995738 -5.574100
v -35.119587 3.612422 -4.606400
v -35.119587 3.612422 4.606400
v -92.081429 2.995739 5.574100
v -35.511883 10.800674 3.002899
v -35.511883 10.800674 -3.002901
v -92.542236 10.565926 3.325499
v -138.695923 6.592821 3.325500
v -92.542236 10.565926 -3.325501
v -138.695923 6.592820 -3.325500
v -181.587555 0.060723 -3.325500
v -180.553558 -7.442017 -5.574100
v -137.938766 -0.952153 -5.574100
v -137.181778 -8.497022 -3.325499
v -179.519714 -14.944655 -3.325499
v -231.507736 -26.771469 -3.220098
v -231.507736 -26.771469 3.220102
v -179.519714 -14.944655 3.325501
v -180.553558 -7.442016 5.574100
v -137.181778 -8.497022 3.325501
v -137.938766 -0.952152 5.574100
v -181.587555 0.060724 3.325500
v -234.213257 -11.648466 -3.220099
v -234.213257 -11.648466 3.220101
v -233.121689 -19.278122 4.939601
v -233.121689 -19.278122 -4.939599
v -35.185886 -3.149749 -2.357800
v -35.419998 9.388355 -2.357801
v -35.185886 -3.149748 2.357800
v -35.419998 9.388355 2.357799
v -35.313046 3.660414 -3.638800
v -35.313046 3.660414 3.638800
v -231.243240 -25.071478 -2.357798
v -233.531799 -12.517608 -2.357799
v -231.243240 -25.071478 2.357802
v -233.531799 -12.517608 2.357801
v -232.387466 -18.794546 -3.638798
v -232.387466 -18.794546 3.638801
v -179.692276 -13.566229 -2.357799
v -181.448669 -0.894638 -2.357800
v -179.692276 -13.566229 2.357801
v -181.448669 -0.894638 2.357800
v -180.570404 -7.230536 -3.638799
v -180.570404 -7.230536 3.638800
v -137.307495 -7.173806 -2.357800
v -138.601425 5.567410 -2.357800
v -137.307495 -7.173806 2.357800
v -138.601425 5.567410 2.357800
v -137.954407 -0.803247 -3.638800
v -137.954407 -0.803246 3.638800
v -91.694344 -3.313824 -2.357800
v -92.490707 9.469604 -2.357801
v -91.694344 -3.313823 2.357800
v -92.490707 9.469604 2.357799
v -92.092491 3.077889 -3.638800
v -92.092491 3.077890 3.638800
v -231.243240 -25.071478 -2.357798
v -232.387466 -18.794546 -3.638798
v -231.243240 -25.071478 2.357802
v -232.387466 -18.794546 3.638801
v -233.531799 -12.517608 2.357801
v -233.531799 -12.517608 -2.357799
v -79.258751 -2.857776 -2.701900
v -79.258751 -2.857775 2.702000
v -79.536583 3.938388 -4.327100
v -76.798950 3.919938 -4.327100
v -76.597908 -2.875775 -2.701900
v -76.597908 -2.875775 2.702000
v -79.536583 3.938389 4.327099
v -76.798950 3.919938 4.327099
v -77.000008 10.715651 -2.702001
v -77.000008 10.715651 2.701899
v -79.814346 10.734650 2.701899
v -79.814346 10.734650 -2.702001
vn 0.0604 -0.9982 -0.0000
vn 0.0179 -0.9998 -0.0000
vn 0.0434 -0.9991 -0.0000
vn 1.0000 0.0045 -0.0000
vn 0.9999 -0.0151 -0.0000
vn 0.0159 -0.2527 -0.9674
vn 0.0174 -0.2837 -0.9587
vn 0.0079 -0.0406 -0.9991
vn 0.0172 -0.0044 -0.9998
vn 0.9994 0.0349 -0.0000
vn 0.0172 -0.0044 0.9998
vn 0.0098 0.2533 0.9673
vn 0.0036 0.0438 0.9990
vn 0.0159 -0.2527 0.9674
vn 0.9985 0.0545 -0.0000
vn -0.0041 1.0000 -0.0000
vn -0.0451 0.9990 -0.0000
vn -0.0102 0.2842 0.9587
vn -0.0313 0.2826 0.9587
vn -0.1100 0.9939 -0.0000
vn -0.1264 0.9920 -0.0000
vn -0.1754 0.9845 -0.0000
vn -0.0087 0.0427 -0.9991
vn -0.0531 0.2800 -0.9585
vn -0.0359 0.2821 -0.9587
vn 0.0022 0.0017 -1.0000
vn -0.0137 0.2839 -0.9587
vn 0.0314 -0.2826 -0.9587
vn 0.0502 -0.2805 -0.9585
vn 0.2218 -0.9751 -0.0000
vn 0.1954 -0.9807 -0.0000
vn 0.0480 -0.2491 -0.9673
vn 0.1773 -0.9842 -0.0000
vn 0.1264 -0.9920 -0.0000
vn 0.0008 -0.0412 0.9991
vn 0.0524 -0.2801 0.9585
vn 0.0360 -0.2821 0.9587
vn 0.0480 -0.2491 0.9673
vn 0.1101 -0.9939 -0.0000
vn -0.0027 0.0011 1.0000
vn 0.0192 -0.2836 0.9587
vn -0.0504 0.2804 0.9585
vn -0.1925 0.9813 -0.0000
vn -0.2172 0.9761 -0.0000
vn -0.0623 0.2463 0.9672
vn -0.9869 -0.1612 -0.0000
vn -0.9899 -0.1416 -0.0000
vn -0.0097 -0.0118 0.9999
vn -0.9816 -0.1911 -0.0000
vn -0.9776 -0.2106 -0.0000
vn -0.0097 -0.0117 -0.9999
vn -0.0623 0.2463 -0.9672
vn 0.0098 0.2533 -0.9673
vn 0.0429 -0.1923 -0.9804
vn -0.0086 0.0578 -0.9983
vn 0.0014 0.0015 -1.0000
vn 0.0347 -0.1935 -0.9805
vn 0.0118 -0.0739 0.9972
vn 0.0429 -0.1923 0.9804
vn 0.0380 -0.1929 0.9805
vn -0.0021 0.0007 1.0000
vn 0.2178 -0.9760 -0.0000
vn 0.1923 -0.9813 -0.0000
vn 0.1749 -0.9846 -0.0000
vn -0.0429 0.1923 -0.9804
vn -0.0376 0.1929 -0.9805
vn -0.2178 0.9760 -0.0000
vn -0.1923 0.9813 -0.0000
vn -0.1748 0.9846 -0.0000
vn -0.0429 0.1923 0.9804
vn -0.0342 0.1935 0.9805
vn 0.0016 0.0012 -1.0000
vn 0.0215 -0.1950 -0.9806
vn 0.0246 -0.1947 0.9806
vn -0.0018 0.0008 1.0000
vn 0.1250 -0.9922 -0.0000
vn 0.1086 -0.9941 -0.0000
vn -0.0245 0.1946 -0.9806
vn -0.1250 0.9922 -0.0000
vn -0.1086 0.9941 -0.0000
vn -0.0213 0.1950 0.9806
vn 0.0022 0.0051 -1.0000
vn 0.0069 -0.1921 -0.9813
vn 0.0105 -0.1959 0.9806
vn -0.0023 0.0346 0.9994
vn 0.0539 -0.9985 -0.0000
vn 0.0334 -0.9994 -0.0000
vn -0.0103 0.1959 -0.9806
vn -0.0415 0.9991 -0.0000
vn -0.0082 0.1960 0.9806
vn 0.0014 -0.1908 0.9816
vn -0.0000 0.0126 0.9999
vn 0.0029 -1.0000 -0.0000
vn -0.0009 0.2070 0.9783
vn 0.0014 1.0000 -0.0000
vn -0.0009 0.2070 -0.9783
vn 0.0027 -0.0598 -0.9982
vn 0.0005 -0.1848 -0.9828
vn 0.9998 0.0187 -0.0000
vn -0.9838 -0.1793 -0.0000
vn -0.9838 -0.1794 -0.0000
vn -0.0068 -1.0000 -0.0000
vn -0.9992 -0.0408 -0.0000
vn -0.0016 -0.2326 -0.9726
vn -0.0033 0.0882 -0.9961
vn 0.0048 -0.0887 -0.9961
vn -0.0044 0.0697 0.9976
vn 0.0032 -0.0702 0.9975
vn -0.0016 -0.2326 0.9726
vn 0.9996 0.0296 -0.0000
vn 0.0016 0.2326 0.9726
vn 0.0068 1.0000 -0.0000
vn 0.0016 0.2326 -0.9726
vt 0.352875 0.633003
vt 0.487720 0.624855
vt 0.488281 0.599537
vt 0.352092 0.606343
vt 0.487645 0.574219
vt 0.351308 0.579684
vt 0.240814 0.597448
vt 0.138009 0.623971
vt 0.140166 0.650346
vt 0.242306 0.623994
vt 0.243799 0.650540
vt 0.142322 0.676721
vt 0.017551 0.722656
vt 0.011719 0.669544
vt 0.014008 0.696362
vt 0.016650 0.722656
vt 0.014184 0.699027
vt 0.139093 0.650501
vt 0.140917 0.674377
vt 0.011719 0.675397
vt 0.137269 0.626624
vt 0.241684 0.622251
vt 0.242951 0.646281
vt 0.240416 0.598221
vt 0.351952 0.603328
vt 0.352622 0.627461
vt 0.351283 0.579196
vt 0.488281 0.621609
vt 0.488281 0.595868
vt 0.488281 0.574219
vt 0.628906 0.511340
vt 0.628906 0.394910
vt 0.687500 0.542969
vt 0.687500 0.363281
vt 0.746094 0.394910
vt 0.746094 0.511340
vt 0.629684 0.397023
vt 0.628906 0.397023
vt 0.628906 0.509225
vt 0.687088 0.542969
vt 0.687889 0.542969
vt 0.629684 0.509225
vt 0.687889 0.363281
vt 0.687088 0.363281
vt 0.745271 0.397025
vt 0.746094 0.509227
vt 0.746094 0.397025
vt 0.745271 0.509227
s 1
f 613/338/692 610/339/693 611/338/694
f 610/339/693 612/339/693 611/338/694
f 616/340/695 612/339/696 610/339/696
f 610/339/697 613/338/698 614/341/699
f 615/340/700 610/339/697 614/341/699
f 615/340/701 616/340/695 610/339/696
f 616/340/702 618/342/703 617/341/704
f 612/339/705 616/340/702 617/341/704
f 618/342/706 616/340/695 615/340/701
f 619/342/706 618/342/706 615/340/701
f 618/342/707 619/342/707 620/343/708
f 618/342/703 620/343/709 617/341/704
f 620/343/709 621/344/710 617/341/704
f 623/344/711 621/344/712 620/343/708
f 619/342/707 622/343/708 620/343/708
f 622/343/708 623/344/711 620/343/708
f 623/344/711 624/345/713 621/344/712
f 625/346/714 624/345/715 623/344/716
f 626/347/717 625/346/714 623/344/716
f 626/347/717 623/344/716 622/343/718
f 614/341/699 626/347/717 622/343/718
f 627/348/719 626/347/717 614/341/699
f 628/349/720 625/346/714 626/347/717
f 627/348/719 628/349/720 626/347/717
f 630/350/721 629/350/721 628/349/722
f 628/349/720 629/350/723 625/346/714
f 631/349/724 630/350/721 628/349/722
f 631/349/724 628/349/722 627/348/725
f 632/346/726 631/349/727 633/348/728
f 630/350/729 631/349/727 632/346/726
f 633/348/730 631/349/724 627/348/725
f 634/347/731 632/346/726 633/348/728
f 633/348/730 627/348/725 613/338/692
f 634/347/731 633/348/728 611/338/732
f 611/338/694 633/348/730 613/338/692
f 621/344/710 634/347/731 617/341/704
f 621/344/710 635/345/733 634/347/731
f 635/345/733 632/346/726 634/347/731
f 617/341/704 634/347/731 611/338/732
f 624/345/713 635/345/734 621/344/712
f 624/345/713 636/351/735 635/345/734
f 636/351/735 637/351/735 635/345/734
f 635/345/733 637/351/736 632/346/726
f 638/352/737 637/351/738 636/351/738
f 637/351/736 638/352/739 632/346/726
f 639/352/740 638/352/737 636/351/738
f 630/350/741 638/352/737 639/352/740
f 638/352/739 630/350/729 632/346/726
f 629/350/741 630/350/741 639/352/740
f 629/350/723 639/352/742 625/346/714
f 639/352/742 636/351/743 625/346/714
f 636/351/743 624/345/715 625/346/714
f 613/338/698 627/348/719 614/341/699
f 622/343/718 619/342/744 614/341/699
f 619/342/744 615/340/700 614/341/699
f 611/338/732 612/339/705 617/341/704
f 646/353/745 650/354/746 656/355/747
f 652/356/748 646/353/745 656/355/747
f 651/354/749 648/353/750 654/356/751
f 657/355/752 651/354/749 654/356/751
f 648/353/753 646/353/753 652/356/754
f 654/356/755 648/353/753 652/356/754
f 650/354/746 647/357/756 653/358/757
f 656/355/747 650/354/746 653/358/757
f 647/357/758 649/357/758 655/358/759
f 653/358/760 647/357/758 655/358/759
f 649/357/761 651/354/749 657/355/752
f 655/358/762 649/357/761 657/355/752
f 652/356/748 656/355/747 662/359/763
f 658/360/764 652/356/748 662/359/763
f 657/355/752 654/356/751 660/360/765
f 663/359/766 657/355/752 660/360/765
f 654/356/755 652/356/754 658/360/767
f 660/360/768 654/356/755 658/360/767
f 656/355/747 653/358/757 659/361/769
f 662/359/763 656/355/747 659/361/769
f 653/358/760 655/358/759 661/361/770
f 659/361/771 653/358/760 661/361/770
f 655/358/762 657/355/752 663/359/766
f 661/361/772 655/358/762 663/359/766
f 658/360/764 662/359/763 668/362/773
f 664/363/774 658/360/764 668/362/773
f 663/359/766 660/360/765 666/363/775
f 669/362/776 663/359/766 666/363/775
f 660/360/768 658/360/767 664/363/777
f 666/363/778 660/360/768 664/363/777
f 662/359/763 659/361/769 665/364/779
f 668/362/773 662/359/763 665/364/779
f 659/361/771 661/361/770 667/364/780
f 665/364/780 659/361/771 667/364/780
f 661/361/772 663/359/766 669/362/776
f 667/364/781 661/361/772 669/362/776
f 642/365/782 645/366/783 669/362/776
f 666/363/775 642/365/782 669/362/776
f 640/365/784 642/365/784 666/363/778
f 664/363/777 640/365/784 666/363/778
f 643/367/785 667/364/781 669/362/776
f 645/366/783 643/367/785 669/362/776
f 641/367/786 665/364/780 667/364/780
f 643/367/786 641/367/786 667/364/780
f 641/367/787 644/366/788 668/362/773
f 665/364/779 641/367/787 668/362/773
f 644/366/788 640/365/789 664/363/774
f 668/362/773 644/366/788 664/363/774
f 643/367/790 645/366/790 644/366/790
f 641/367/790 643/367/790 644/366/790
f 645/366/790 642/365/790 640/365/790
f 644/366/790 645/366/790 640/365/790
f 670/368/791 672/369/791 671/370/791
f 672/369/791 673/371/791 671/370/791
f 673/371/791 674/372/792 675/373/792
f 671/370/791 673/371/791 675/373/792
f 681/374/793 677/375/793 676/376/793
f 677/375/794 678/377/794 676/376/794
f 676/376/795 678/377/796 679/378/797
f 680/379/795 676/376/795 679/378/797
f 680/379/793 681/374/793 676/376/793
f 683/380/798 682/381/799 681/374/800
f 682/381/799 677/375/800 681/374/800
f 680/379/801 679/378/801 681/374/801
f 683/380/801 681/374/801 679/378/801
f 686/382/802 682/381/799 683/380/798
f 684/383/801 683/380/801 679/378/801
f 684/383/801 685/384/801 683/380/801
f 685/384/802 686/382/802 683/380/798
f 687/385/803 686/382/803 685/384/803
f 687/385/794 678/377/794 686/382/794
f 686/382/794 678/377/794 682/381/794
f 678/377/796 687/385/804 684/383/804
f 684/383/803 687/385/803 685/384/803
f 679/378/797 678/377/796 684/383/804
f 678/377/794 677/375/794 682/381/794
