# Blender 5.2.0 LTS
# www.blender.org
o blade
v -33.167946 -1.961312 -1.857794
v 33.888588 -0.516454 1.857790
v 33.888588 -0.516454 -1.857794
v -33.167946 -1.961312 1.857790
v -35.494469 -1.976057 1.857790
v -35.494469 -1.976057 -1.857794
v -33.128986 3.644866 -2.924860
v -35.455513 3.630122 -2.924860
v -33.095940 8.400445 -1.857795
v 33.952095 8.622730 -1.857795
v 33.920334 4.053137 -2.924860
v 33.952095 8.622730 1.857790
v 33.920334 4.053137 2.924856
v -33.128986 3.644866 2.924856
v -33.095940 8.400445 1.857790
v -35.422462 8.385701 -1.857795
v -35.422462 8.385701 1.857790
v -35.455513 3.630122 2.924856
v -37.807766 -0.602279 -0.413059
v -89.446373 3.193911 -0.487020
v -37.887741 3.474942 -0.487020
v -89.211403 -0.881605 -0.413059
v -37.807766 -0.602279 0.413057
v -89.211403 -0.881605 0.413057
v -37.887741 3.474942 0.487016
v -89.446373 3.193911 0.487016
v -37.967716 7.552077 -0.000002
v -89.681419 7.269344 -0.000002
v -132.939270 -0.091917 -0.487019
v -133.312683 3.973191 -0.000002
v -173.858322 -1.521015 -0.000001
v -173.356293 -5.568797 -0.487019
v -132.939270 -0.091917 0.487016
v -173.356293 -5.568797 0.487017
v -132.565948 -4.156940 0.413057
v -172.854340 -9.616321 0.413057
v -132.565948 -4.156940 -0.413059
v -172.854340 -9.616321 -0.413059
v -215.411255 -17.971273 -0.413058
v -215.411255 -17.971273 0.413058
v -212.812012 -13.012933 -0.487018
v -214.623108 -9.461691 -0.000001
v -218.011963 -14.057668 -0.000000
v -212.812012 -13.012933 0.487017
v -219.608154 -18.780235 -0.000000
v -34.015800 -2.157500 -1.099300
v -42.484100 -2.225600 1.099300
v -34.015800 -2.157500 1.099300
v -42.484100 -2.225600 -1.099300
v -34.015800 3.610700 -1.295900
v -42.484100 3.542600 -1.295900
v -34.015800 8.765900 -0.723001
v -34.015800 8.765900 0.722999
v -42.484100 8.697800 -0.723001
v -42.484100 8.697800 0.722999
v -34.015800 3.610700 1.295900
v -42.484100 3.542600 1.295900
v -34.864811 3.600161 0.000003
v -34.864811 3.600161 14.718198
v -34.859154 -5.331424 14.332384
v -34.855064 -11.876558 8.278098
v -34.838463 -12.288182 0.000007
v -34.855061 -11.876547 -8.278075
v -34.859154 -5.331426 -14.332380
v -34.864811 3.600162 -14.718192
v -34.870441 12.535290 -14.334874
v -34.874573 19.075245 -8.276149
v -34.891159 19.488501 -0.000001
v -34.874573 19.075268 8.275996
v -34.870441 12.535280 14.334866
v -37.428440 19.080307 8.277899
v -37.424347 12.535226 14.332388
v -37.418690 3.603639 0.000003
v -37.418690 3.603638 14.718198
v -37.413059 -5.331476 14.334862
v -37.408928 -11.871442 8.276157
v -37.392342 -12.284704 0.000007
v -37.408928 -11.871445 -8.276140
v -37.413059 -5.331493 -14.334882
v -37.418690 3.603640 -14.718192
v -37.424347 12.535228 -14.332381
v -37.428436 19.080355 -8.278086
v -37.445038 19.491983 -0.000001
vn 0.0139 -0.9999 -0.0000
vn 0.0215 -0.9998 -0.0000
vn 0.0026 -0.1870 -0.9824
vn 0.0008 -0.0179 -0.9998
vn 0.0030 -0.2075 -0.9782
vn 0.0063 -1.0000 -0.0000
vn 0.0012 -0.1870 -0.9824
vn 0.0004 0.0835 -0.9965
vn -0.0011 0.2189 -0.9757
vn -0.0011 0.2232 -0.9748
vn -0.0000 0.0019 -1.0000
vn 1.0000 -0.0069 -0.0000
vn 1.0000 -0.0070 -0.0000
vn 0.0004 0.0095 1.0000
vn 0.0008 0.0766 0.9971
vn -0.0011 0.2217 0.9751
vn 0.0030 -0.2075 0.9782
vn -0.0008 0.2274 0.9738
vn -0.0048 1.0000 -0.0000
vn -0.0063 1.0000 -0.0000
vn -0.0033 1.0000 -0.0000
vn -0.0014 0.2189 0.9757
vn -0.0006 -0.0543 0.9985
vn 0.0026 -0.1870 0.9824
vn 0.0012 -0.1870 0.9824
vn -0.0014 0.2189 -0.9757
vn 0.0007 -0.0181 -0.9998
vn -0.0015 0.0277 -0.9996
vn 0.0001 -0.0181 -0.9998
vn -0.0012 0.0714 -0.9974
vn 0.0348 -0.9994 -0.0000
vn 0.0054 -1.0000 -0.0000
vn 0.0404 -0.9992 -0.0000
vn 0.0406 -0.9992 -0.0000
vn 0.0007 -0.0181 0.9998
vn 0.0001 -0.0181 0.9998
vn 0.0008 0.0259 0.9997
vn -0.0031 0.0732 0.9973
vn -0.0006 0.1186 0.9929
vn -0.0048 0.1184 0.9930
vn -0.0048 0.1184 -0.9930
vn -0.0006 0.1186 -0.9929
vn -0.0047 0.0503 -0.9987
vn -0.0133 0.1177 -0.9930
vn -0.0115 0.1179 0.9930
vn -0.0098 0.0635 -0.9979
vn -0.0204 0.1193 -0.9926
vn -0.0194 0.1188 0.9927
vn -0.0058 0.0504 0.9987
vn -0.0060 0.0364 0.9993
vn 0.0019 -0.0180 0.9998
vn 0.0966 -0.9953 -0.0000
vn 0.1554 -0.9878 -0.0000
vn 0.1130 -0.9936 -0.0000
vn 0.0029 -0.0179 0.9998
vn 0.1717 -0.9852 -0.0000
vn 0.0019 -0.0180 -0.9998
vn 0.0029 -0.0179 -0.9998
vn -0.0437 0.0543 -0.9976
vn 0.1910 -0.9816 -0.0000
vn -0.0662 0.0175 -0.9977
vn -0.1051 0.0524 -0.9931
vn -0.0631 0.1040 -0.9926
vn -0.1046 0.0354 -0.9939
vn -0.0436 0.0544 0.9976
vn -0.0631 0.1040 0.9926
vn -0.1051 0.0524 0.9931
vn -0.1046 0.0354 0.9939
vn -0.0662 0.0175 0.9977
vn 0.1893 -0.9819 -0.0000
vn 0.0080 -1.0000 -0.0000
vn -0.0003 0.0141 -0.9999
vn 0.0003 -0.0341 -0.9994
vn -0.0003 0.0624 -0.9981
vn -0.0009 0.1105 -0.9939
vn -0.0080 1.0000 -0.0000
vn -1.0000 -0.0000 -0.0000
vn -0.0003 0.0624 0.9981
vn -0.0009 0.1105 0.9939
vn -0.0003 0.0141 0.9999
vn 0.0003 -0.0341 0.9994
vn 1.0000 0.0006 -0.0000
vn 1.0000 0.0010 -0.0000
vn 1.0000 0.0011 0.0009
vn 1.0000 0.0017 -0.0000
vn 1.0000 0.0011 -0.0009
vn -0.0007 0.4534 0.8913
vn -0.0008 0.3135 0.9496
vn -0.0001 0.0583 0.9983
vn 0.0019 0.9456 0.3254
vn 0.0020 0.8567 0.5158
vn -1.0000 -0.0006 -0.0000
vn -1.0000 -0.0011 0.0009
vn -1.0000 -0.0010 -0.0000
vn 0.0001 -0.0583 0.9983
vn 0.0008 -0.3135 0.9496
vn 0.0007 -0.4534 0.8913
vn -0.0020 -0.8567 0.5158
vn -0.0019 -0.9456 0.3254
vn -1.0000 -0.0011 -0.0009
vn -1.0000 -0.0017 -0.0000
vn -0.0016 -0.9938 -0.1108
vn -0.0016 -0.9938 0.1109
vn -0.0020 -0.8562 -0.5167
vn -0.0019 -0.9457 -0.3251
vn 0.0008 -0.3136 -0.9496
vn 0.0007 -0.4541 -0.8910
vn 0.0001 -0.0585 -0.9983
vn -0.0001 0.0585 -0.9983
vn -0.0008 0.3136 -0.9496
vn -0.0007 0.4541 -0.8910
vn 0.0020 0.8562 -0.5167
vn 0.0019 0.9457 -0.3251
vn 0.0016 0.9938 -0.1108
vn 0.0016 0.9938 0.1109
vt 0.023508 0.535156
vt 0.363281 0.519007
vt 0.023508 0.446391
vt 0.011719 0.535156
vt 0.011719 0.446391
vt 0.023508 0.371094
vt 0.363281 0.374302
vt 0.363281 0.446655
vt 0.011719 0.371094
vt 0.353784 0.833084
vt 0.353378 0.802916
vt 0.488281 0.822133
vt 0.488281 0.791926
vt 0.488281 0.761719
vt 0.352972 0.772748
vt 0.239423 0.834785
vt 0.238654 0.804718
vt 0.133402 0.882364
vt 0.132296 0.852447
vt 0.240191 0.864852
vt 0.134507 0.912279
vt 0.029795 0.944358
vt 0.022740 0.981560
vt 0.016137 0.953000
vt 0.025239 0.918348
vt 0.011719 0.988281
vt 0.628906 0.542969
vt 0.629632 0.363281
vt 0.691131 0.363281
vt 0.690405 0.542969
vt 0.746094 0.363281
vt 0.745368 0.542969
vt 0.544922 0.375318
vt 0.500000 0.363281
vt 0.500000 0.453125
vt 0.455078 0.375318
vt 0.422193 0.408203
vt 0.410156 0.453125
vt 0.422193 0.498047
vt 0.455078 0.530932
vt 0.500000 0.542969
vt 0.544922 0.530932
vt 0.577807 0.498047
vt 0.589844 0.453125
vt 0.577807 0.408204
s 1
f 4/1/1 1/1/1 2/2/2
f 1/1/1 3/2/2 2/2/2
f 1/1/3 7/3/4 3/2/5
f 1/1/1 4/1/1 5/4/6
f 6/4/6 1/1/1 5/4/6
f 7/3/4 1/1/3 6/4/7
f 8/5/8 7/3/4 6/4/7
f 9/6/9 7/3/4 8/5/8
f 7/3/4 9/6/9 10/7/10
f 7/3/4 11/8/11 3/2/5
f 11/8/11 7/3/4 10/7/10
f 3/2/12 11/8/12 13/8/12
f 11/8/12 10/7/13 12/7/13
f 13/8/12 11/8/12 12/7/13
f 14/3/14 13/8/15 15/6/16
f 2/2/17 13/8/15 14/3/14
f 2/2/12 3/2/12 13/8/12
f 13/8/15 12/7/18 15/6/16
f 15/6/19 9/6/19 16/9/20
f 9/6/19 15/6/19 10/7/21
f 15/6/19 12/7/21 10/7/21
f 17/9/20 15/6/19 16/9/20
f 14/3/14 15/6/16 17/9/22
f 18/5/23 14/3/14 17/9/22
f 4/1/24 14/3/14 18/5/23
f 5/4/25 4/1/24 18/5/23
f 16/9/26 9/6/9 8/5/8
f 4/1/24 2/2/17 14/3/14
f 22/10/27 20/11/28 19/12/29
f 20/11/28 21/13/30 19/12/29
f 22/10/31 19/12/32 23/12/32
f 24/10/33 22/10/34 23/12/32
f 24/10/35 23/12/36 25/13/37
f 26/11/38 24/10/35 25/13/37
f 26/11/38 25/13/37 27/14/39
f 28/15/40 26/11/38 27/14/39
f 28/15/41 27/14/42 21/13/30
f 20/11/28 29/16/43 28/15/41
f 29/16/43 30/17/44 28/15/41
f 28/15/40 30/17/45 26/11/38
f 20/11/28 28/15/41 21/13/30
f 32/18/46 31/19/47 30/17/44
f 30/17/45 31/19/48 33/16/49
f 29/16/43 32/18/46 30/17/44
f 30/17/45 33/16/49 26/11/38
f 31/19/48 34/18/50 33/16/49
f 26/11/38 33/16/49 24/10/35
f 33/16/49 35/20/51 24/10/35
f 33/16/49 34/18/50 35/20/51
f 35/20/52 36/21/53 37/20/54
f 34/18/50 36/21/55 35/20/51
f 35/20/52 37/20/54 22/10/34
f 24/10/33 35/20/52 22/10/34
f 36/21/53 38/21/56 37/20/54
f 37/20/57 38/21/58 29/16/43
f 37/20/57 29/16/43 20/11/28
f 22/10/27 37/20/57 20/11/28
f 38/21/58 32/18/46 29/16/43
f 41/22/59 32/18/46 38/21/58
f 36/21/53 40/23/60 38/21/56
f 40/23/60 39/23/60 38/21/56
f 39/23/61 41/22/59 38/21/58
f 41/22/59 39/23/61 43/24/62
f 41/22/59 42/25/63 31/19/47
f 42/25/63 41/22/59 43/24/62
f 32/18/46 41/22/59 31/19/47
f 39/23/61 45/26/64 43/24/62
f 44/22/65 42/25/66 43/24/67
f 45/26/68 40/23/69 43/24/67
f 40/23/69 44/22/65 43/24/67
f 39/23/60 40/23/60 45/26/70
f 42/25/66 44/22/65 31/19/48
f 44/22/65 40/23/69 36/21/55
f 34/18/50 44/22/65 36/21/55
f 44/22/65 34/18/50 31/19/48
f 49/27/71 46/28/71 47/27/71
f 46/28/71 48/28/71 47/27/71
f 50/29/72 46/28/73 49/27/73
f 51/30/74 50/29/72 49/27/73
f 52/31/75 50/29/72 51/30/74
f 53/31/76 52/31/76 54/32/76
f 54/32/75 52/31/75 51/30/74
f 55/32/76 53/31/76 54/32/76
f 55/32/77 54/32/77 51/30/77
f 56/29/78 53/31/79 55/32/79
f 57/30/77 55/32/77 49/27/77
f 49/27/77 55/32/77 51/30/77
f 57/30/80 56/29/78 55/32/79
f 47/27/77 57/30/77 49/27/77
f 47/27/81 48/28/81 57/30/80
f 48/28/81 56/29/78 57/30/80
f 70/33/82 59/34/82 58/35/83
f 59/34/82 60/36/82 58/35/83
f 60/36/82 61/37/84 58/35/83
f 61/37/84 62/38/85 58/35/83
f 62/38/85 63/39/86 58/35/83
f 63/39/86 64/40/82 58/35/83
f 64/40/82 65/41/82 58/35/83
f 65/41/82 66/42/82 58/35/83
f 66/42/82 67/43/84 58/35/83
f 67/43/84 68/44/85 58/35/83
f 68/44/85 69/45/86 58/35/83
f 69/45/86 70/33/82 58/35/83
f 70/33/87 72/33/88 59/34/89
f 69/45/90 71/45/91 70/33/87
f 71/45/91 72/33/88 70/33/87
f 72/33/92 71/45/93 73/35/94
f 74/34/92 72/33/92 73/35/94
f 72/33/88 74/34/95 59/34/89
f 59/34/89 74/34/95 60/36/96
f 74/34/95 75/36/97 60/36/96
f 75/36/92 74/34/92 73/35/94
f 60/36/96 75/36/97 61/37/98
f 75/36/97 76/37/99 61/37/98
f 76/37/100 75/36/92 73/35/94
f 77/38/101 76/37/100 73/35/94
f 76/37/99 77/38/102 62/38/103
f 61/37/98 76/37/99 62/38/103
f 78/39/93 77/38/101 73/35/94
f 77/38/102 78/39/104 63/39/105
f 62/38/103 77/38/102 63/39/105
f 79/40/92 78/39/93 73/35/94
f 78/39/104 79/40/106 64/40/107
f 63/39/105 78/39/104 64/40/107
f 64/40/107 79/40/106 65/41/108
f 79/40/106 80/41/109 65/41/108
f 80/41/92 79/40/92 73/35/94
f 65/41/108 80/41/109 66/42/110
f 80/41/109 81/42/111 66/42/110
f 81/42/92 80/41/92 73/35/94
f 66/42/110 81/42/111 67/43/112
f 81/42/111 82/43/113 67/43/112
f 82/43/100 81/42/92 73/35/94
f 67/43/112 82/43/113 68/44/114
f 82/43/113 83/44/115 68/44/114
f 83/44/101 82/43/100 73/35/94
f 68/44/114 83/44/115 69/45/90
f 83/44/115 71/45/91 69/45/90
f 71/45/93 83/44/101 73/35/94
o blade_damaged
v -37.912891 -0.665104 -0.413059
v -89.352333 1.553926 -0.487020
v -37.887589 3.420911 -0.487020
v -89.222908 -2.525614 -0.413059
v -37.912891 -0.665104 0.413057
v -89.222908 -2.525614 0.413057
v -37.887589 3.420911 0.487016
v -37.862286 7.506839 -0.000002
v -89.352333 1.553926 0.487016
v -89.481834 5.633380 -0.000002
v -33.166534 -1.758672 -1.857794
v 33.888588 -0.516455 1.857790
v 33.888588 -0.516455 -1.857794
v -33.166534 -1.758672 1.857790
v -35.493061 -1.773416 1.857790
v -35.493061 -1.773416 -1.857794
v -33.129101 3.628211 -2.924860
v 33.920334 4.053137 -2.924860
v -35.455627 3.613467 -2.924860
v -33.097347 8.197804 -1.857794
v 33.952095 8.622730 -1.857794
v -33.097347 8.197804 1.857790
v 33.952095 8.622730 1.857790
v 33.920334 4.053137 2.924856
v -33.129101 3.628212 2.924856
v -35.455627 3.613467 2.924856
v -35.423870 8.183060 1.857790
v -35.423870 8.183060 -1.857794
v -34.864807 3.600123 0.000003
v -34.864807 3.600123 14.718282
v -34.859024 -5.331362 14.332397
v -34.854847 -11.876574 8.278175
v -34.837887 -12.288166 0.000007
v -34.854847 -11.876559 -8.278152
v -34.859024 -5.331365 -14.332393
v -34.864807 3.600124 -14.718276
v -34.870560 12.535231 -14.334940
v -34.874779 19.075148 -8.276183
v -34.891727 19.488411 -0.000001
v -34.874779 19.075172 8.276033
v -34.870560 12.535221 14.334933
v -37.428646 19.080320 8.277976
v -37.424465 12.535163 14.332397
v -37.418686 3.603676 14.718282
v -37.418682 3.603677 0.000003
v -37.408710 -11.871348 -8.276175
v -37.412930 -5.331433 -14.334947
v -37.418682 3.603678 -14.718276
v -37.424465 12.535165 -14.332391
v -37.428642 19.080368 -8.278162
v -37.412930 -5.331417 14.334929
v -37.445606 19.491968 -0.000001
v -37.408710 -11.871343 8.276191
v -37.391762 -12.284614 0.000007
v -34.015800 -2.157500 -1.099300
v -42.484100 -2.225600 1.099300
v -34.015800 -2.157500 1.099300
v -42.484100 -2.225600 -1.099300
v -34.015800 3.610700 -1.295900
v -42.484100 3.542600 -1.295900
v -34.015800 8.765900 -0.723001
v -34.015800 8.765900 0.722999
v -42.484100 8.697800 -0.723001
v -42.484100 8.697800 0.722999
v -34.015800 3.610700 1.295900
v -42.484100 3.542600 1.295900
vn 0.0007 -0.0181 -0.9998
vn -0.0002 0.0274 -0.9996
vn -0.0024 0.0263 -0.9997
vn -0.0014 0.0742 -0.9972
vn 0.0362 -0.9993 -0.0000
vn 0.0007 -0.0181 0.9998
vn -0.0011 0.0274 0.9996
vn -0.0027 0.0739 0.9973
vn -0.0007 0.0266 0.9996
vn -0.0043 0.1184 0.9930
vn -0.0027 0.0731 0.9973
vn -0.0043 0.1184 -0.9930
vn -0.0033 0.0731 -0.9973
vn 0.0124 -0.9999 -0.0000
vn 0.0185 -0.9998 -0.0000
vn 0.0024 -0.1943 -0.9809
vn 0.0007 -0.0187 -0.9998
vn 0.0028 -0.2111 -0.9775
vn 0.0063 -1.0000 -0.0000
vn 0.0012 -0.1943 -0.9809
vn -0.0000 0.0019 -1.0000
vn -0.0014 0.2274 -0.9738
vn 0.0004 0.0868 -0.9962
vn -0.0063 1.0000 -0.0000
vn 1.0000 -0.0069 -0.0000
vn 1.0000 -0.0070 -0.0000
vn 0.0005 0.0795 0.9968
vn -0.0014 0.2274 0.9738
vn 0.0003 0.0114 0.9999
vn 0.0028 -0.2111 0.9775
vn 0.0024 -0.1943 0.9809
vn -0.0006 -0.0566 0.9984
vn 0.0012 -0.1943 0.9809
vn 1.0000 0.0006 -0.0000
vn 1.0000 0.0010 -0.0000
vn 1.0000 0.0011 0.0009
vn 1.0000 0.0017 -0.0000
vn 1.0000 0.0011 -0.0009
vn -0.0007 0.4534 0.8913
vn -0.0008 0.3135 0.9496
vn -0.0001 0.0583 0.9983
vn 0.0019 0.9456 0.3254
vn 0.0020 0.8567 0.5158
vn 0.0001 -0.0583 0.9983
vn -1.0000 -0.0006 -0.0000
vn -1.0000 -0.0010 -0.0000
vn -1.0000 -0.0011 0.0009
vn -1.0000 -0.0017 -0.0000
vn -1.0000 -0.0011 -0.0009
vn -0.0017 -0.9938 0.1109
vn -0.0017 -0.9938 -0.1108
vn -0.0020 -0.9457 -0.3251
vn -0.0020 -0.9456 0.3254
vn -0.0020 -0.8562 -0.5167
vn -0.0021 -0.8567 0.5158
vn 0.0007 -0.4534 0.8913
vn 0.0017 0.9938 -0.1108
vn 0.0017 0.9938 0.1109
vn 0.0020 0.9457 -0.3251
vn 0.0008 -0.3135 0.9496
vn 0.0020 0.8562 -0.5167
vn -0.0007 0.4541 -0.8910
vn -0.0008 0.3136 -0.9496
vn -0.0001 0.0585 -0.9983
vn 0.0008 -0.3136 -0.9496
vn 0.0001 -0.0585 -0.9983
vn 0.0007 -0.4541 -0.8910
vn 0.0080 -1.0000 -0.0000
vn -0.0003 0.0141 -0.9999
vn 0.0003 -0.0341 -0.9994
vn -0.0003 0.0624 -0.9981
vn -0.0009 0.1105 -0.9939
vn -0.0080 1.0000 -0.0000
vn -1.0000 -0.0000 -0.0000
vn -0.0003 0.0141 0.9999
vn -0.0003 0.0624 0.9981
vn -0.0009 0.1105 0.9939
vn 0.0003 -0.0341 0.9994
vt 0.014576 0.988281
vt 0.013148 0.892507
vt 0.488281 0.953516
vt 0.488281 0.857616
vt 0.488281 0.761719
vt 0.011719 0.796734
vt 0.023508 0.535156
vt 0.363281 0.521689
vt 0.023508 0.446391
vt 0.011719 0.535156
vt 0.363281 0.446391
vt 0.363281 0.371094
vt 0.011719 0.446391
vt 0.023508 0.371094
vt 0.011719 0.371094
vt 0.544922 0.375318
vt 0.500000 0.363281
vt 0.500000 0.453125
vt 0.455078 0.375318
vt 0.422193 0.408203
vt 0.410156 0.453125
vt 0.422193 0.498047
vt 0.455078 0.530932
vt 0.500000 0.542969
vt 0.544922 0.530932
vt 0.577807 0.498047
vt 0.589844 0.453125
vt 0.577807 0.408204
vt 0.628906 0.542969
vt 0.629632 0.363281
vt 0.691131 0.363281
vt 0.690405 0.542969
vt 0.746094 0.363281
vt 0.745368 0.542969
s 1
f 87/46/116 85/47/117 84/48/116
f 85/47/118 86/49/119 84/48/116
f 87/46/120 84/48/120 88/48/120
f 89/46/120 87/46/120 88/48/120
f 89/46/121 88/48/121 90/49/122
f 92/47/123 90/49/124 91/50/125
f 92/47/123 89/46/121 90/49/124
f 93/51/125 92/47/126 91/50/125
f 93/51/127 91/50/127 86/49/128
f 85/47/118 93/51/127 86/49/119
f 97/52/129 94/52/129 95/53/130
f 94/52/129 96/53/130 95/53/130
f 94/52/131 100/54/132 96/53/133
f 94/52/129 97/52/129 98/55/134
f 99/55/134 94/52/129 98/55/134
f 100/54/132 94/52/131 99/55/135
f 101/56/136 100/54/132 104/57/137
f 100/54/132 101/56/136 96/53/133
f 102/58/138 100/54/132 99/55/135
f 103/59/137 100/54/132 102/58/138
f 100/54/132 103/59/137 104/57/137
f 103/59/139 105/59/139 104/57/139
f 105/59/139 106/57/139 104/57/139
f 101/56/140 104/57/141 106/57/141
f 107/56/142 106/57/143 105/59/143
f 107/56/140 101/56/140 106/57/141
f 96/53/140 101/56/140 107/56/140
f 108/54/144 107/56/142 105/59/143
f 95/53/145 107/56/142 108/54/144
f 95/53/140 96/53/140 107/56/140
f 97/52/146 108/54/144 109/58/147
f 97/52/146 95/53/145 108/54/144
f 108/54/144 105/59/143 110/60/143
f 109/58/147 108/54/144 110/60/143
f 110/60/139 105/59/139 111/60/139
f 105/59/139 103/59/139 111/60/139
f 111/60/137 103/59/137 102/58/138
f 98/55/148 97/52/146 109/58/147
f 124/61/149 113/62/149 112/63/150
f 113/62/149 114/64/149 112/63/150
f 114/64/149 115/65/151 112/63/150
f 115/65/151 116/66/152 112/63/150
f 116/66/152 117/67/153 112/63/150
f 117/67/153 118/68/149 112/63/150
f 118/68/149 119/69/149 112/63/150
f 119/69/149 120/70/149 112/63/150
f 120/70/149 121/71/151 112/63/150
f 121/71/151 122/72/152 112/63/150
f 122/72/152 123/73/153 112/63/150
f 123/73/153 124/61/149 112/63/150
f 124/61/154 126/61/155 113/62/156
f 123/73/157 125/73/158 124/61/154
f 125/73/158 126/61/155 124/61/154
f 126/61/155 127/62/159 113/62/156
f 127/62/160 126/61/160 128/63/161
f 126/61/160 125/73/162 128/63/161
f 130/68/160 129/67/162 128/63/161
f 129/67/162 137/66/163 128/63/161
f 131/69/160 130/68/160 128/63/161
f 132/70/160 131/69/160 128/63/161
f 133/71/164 132/70/160 128/63/161
f 134/64/160 127/62/160 128/63/161
f 135/72/163 133/71/164 128/63/161
f 136/65/164 134/64/160 128/63/161
f 125/73/162 135/72/163 128/63/161
f 137/66/163 136/65/164 128/63/161
f 116/66/165 137/66/166 117/67/167
f 136/65/168 137/66/166 116/66/165
f 137/66/166 129/67/169 117/67/167
f 115/65/170 136/65/168 116/66/165
f 134/64/171 136/65/168 115/65/170
f 122/72/172 135/72/173 123/73/157
f 133/71/174 135/72/173 122/72/172
f 135/72/173 125/73/158 123/73/157
f 114/64/175 134/64/171 115/65/170
f 127/62/159 134/64/171 114/64/175
f 121/71/176 133/71/174 122/72/172
f 132/70/177 133/71/174 121/71/176
f 120/70/178 132/70/177 121/71/176
f 131/69/179 132/70/177 120/70/178
f 130/68/180 131/69/179 119/69/181
f 119/69/181 131/69/179 120/70/178
f 129/67/169 130/68/180 118/68/182
f 118/68/182 130/68/180 119/69/181
f 117/67/167 129/67/169 118/68/182
f 113/62/156 127/62/159 114/64/175
f 141/74/183 138/75/183 139/74/183
f 138/75/183 140/75/183 139/74/183
f 142/76/184 138/75/185 141/74/185
f 143/77/186 142/76/184 141/74/185
f 144/78/187 142/76/184 143/77/186
f 145/78/188 144/78/188 146/79/188
f 146/79/187 144/78/187 143/77/186
f 147/79/188 145/78/188 146/79/188
f 147/79/189 146/79/189 143/77/189
f 149/77/190 148/76/191 147/79/192
f 148/76/191 145/78/192 147/79/192
f 149/77/189 147/79/189 141/74/189
f 141/74/189 147/79/189 143/77/189
f 140/75/193 148/76/191 149/77/190
f 139/74/193 140/75/193 149/77/190
f 139/74/189 149/77/189 141/74/189
o blade_fragment
v -215.931625 -18.138594 -0.413057
v -220.128448 -18.948765 0.000001
v -215.931625 -18.138594 0.413059
v -218.531265 -14.225461 0.000001
v -213.331390 -13.179222 -0.487017
v -173.375443 -9.771342 -0.413057
v -173.876419 -5.723707 -0.487018
v -173.375443 -9.771342 0.413059
v -133.460663 -0.235305 -0.487018
v -133.088303 -4.300475 -0.413058
v -133.088303 -4.300475 0.413058
v -89.969734 3.062763 -0.487018
v -89.735718 -1.012943 -0.413058
v -89.735718 -1.012943 0.413058
v -89.969734 3.062763 0.487018
v -133.460663 -0.235304 0.487018
v -173.876419 -5.723707 0.487018
v -133.833130 3.829953 -0.000000
v -174.377502 -1.675813 0.000000
v -213.331390 -13.179222 0.487019
v -215.141571 -9.628261 0.000001
v -90.203819 7.138384 -0.000001
vn -0.0662 0.0175 -0.9977
vn -0.1047 0.0354 -0.9939
vn -0.1051 0.0524 -0.9931
vn 0.1913 -0.9815 -0.0000
vn 0.1895 -0.9819 -0.0000
vn 0.1720 -0.9851 -0.0000
vn -0.0438 0.0542 -0.9976
vn 0.0029 -0.0179 -0.9998
vn -0.0097 0.0635 -0.9979
vn -0.0047 0.0503 -0.9987
vn 0.1557 -0.9878 -0.0000
vn 0.1133 -0.9936 -0.0000
vn 0.0019 -0.0180 -0.9998
vn -0.0015 0.0266 -0.9996
vn 0.0969 -0.9953 -0.0000
vn 0.0756 -0.9971 -0.0000
vn 0.0014 -0.0181 -0.9998
vn -0.0059 0.0720 0.9974
vn -0.0058 0.0504 0.9987
vn 0.0014 -0.0181 0.9998
vn 0.0019 -0.0180 0.9998
vn -0.0195 0.1188 0.9927
vn -0.0061 0.0364 0.9993
vn -0.0115 0.1179 0.9930
vn -0.0204 0.1193 -0.9926
vn -0.0631 0.1040 -0.9926
vn -0.0631 0.1040 0.9926
vn -0.0438 0.0543 0.9976
vn -0.0133 0.1177 -0.9930
vn -0.1052 0.0524 0.9931
vn -0.0662 0.0175 0.9977
vn 0.0029 -0.0179 0.9998
vn -0.0090 0.1181 -0.9930
vn -0.0090 0.1181 0.9930
vn -0.1047 0.0354 0.9939
vt 0.027074 0.981216
vt 0.011719 0.988281
vt 0.017874 0.951195
vt 0.182787 0.908389
vt 0.036902 0.942111
vt 0.181247 0.876944
vt 0.328954 0.826930
vt 0.330024 0.858536
vt 0.487716 0.793430
vt 0.488281 0.825142
vt 0.179706 0.845496
vt 0.327884 0.795324
vt 0.030555 0.914770
vt 0.487151 0.761719
s 1
f 150/80/194 151/81/195 153/82/196
f 150/80/197 152/80/197 151/81/198
f 152/80/197 150/80/197 155/83/199
f 154/84/200 150/80/194 153/82/196
f 150/80/194 154/84/200 155/83/201
f 154/84/200 156/85/202 155/83/201
f 155/83/201 156/85/202 158/86/203
f 157/83/204 155/83/199 159/87/205
f 157/83/204 152/80/197 155/83/199
f 159/87/206 155/83/201 158/86/203
f 159/87/206 158/86/203 161/88/207
f 160/87/208 159/87/205 162/89/209
f 160/87/208 157/83/204 159/87/205
f 162/89/210 159/87/206 161/88/207
f 163/89/209 160/87/208 162/89/209
f 164/88/211 165/86/212 163/89/213
f 165/86/212 160/87/214 163/89/213
f 168/90/215 166/85/216 165/86/212
f 165/86/212 166/85/216 160/87/214
f 167/91/217 165/86/212 164/88/211
f 167/91/217 168/90/215 165/86/212
f 156/85/202 154/84/200 168/90/218
f 154/84/200 170/92/219 168/90/218
f 170/92/220 169/84/221 168/90/215
f 169/84/221 166/85/216 168/90/215
f 156/85/202 168/90/218 167/91/222
f 169/84/221 170/92/220 153/82/223
f 170/92/219 154/84/200 153/82/196
f 152/80/224 169/84/221 153/82/223
f 166/85/216 169/84/221 157/83/225
f 169/84/221 152/80/224 157/83/225
f 158/86/203 167/91/222 171/93/226
f 158/86/203 156/85/202 167/91/222
f 171/93/227 167/91/217 164/88/211
f 161/88/207 158/86/203 171/93/226
f 166/85/216 157/83/225 160/87/214
f 151/81/228 152/80/224 153/82/223
o sheath
v -35.314335 -2.392070 -2.462378
v -91.665604 -3.963763 2.726910
v -35.314335 -2.392069 2.462378
v -91.665604 -3.963763 -2.726910
v -92.026230 2.245052 -4.570762
v -35.111408 3.501204 -3.777248
v -35.111408 3.501205 3.777248
v -92.026230 2.245053 4.570762
v -35.408695 9.397366 2.462377
v -35.408695 9.397366 -2.462379
v -92.386932 8.453868 2.726909
v -138.548248 4.584485 2.726910
v -92.386932 8.453868 -2.726911
v -138.548248 4.584485 -2.726910
v -181.484344 -1.342805 -2.726910
v -180.550125 -7.488702 -4.570762
v -137.891144 -1.599729 -4.570762
v -137.234222 -7.783860 -2.726910
v -179.616043 -13.634519 -2.726909
v -231.709442 -24.028351 -2.640480
v -231.709442 -24.028351 2.640484
v -179.616043 -13.634519 2.726911
v -180.550125 -7.488701 4.570763
v -137.234222 -7.783860 2.726911
v -137.891144 -1.599728 4.570762
v -181.484344 -1.342805 2.726910
v -234.213257 -11.648466 -2.640481
v -234.213257 -11.648466 2.640483
v -233.223190 -17.897800 4.050473
v -233.223190 -17.897800 -4.050470
v -35.271679 -2.052115 -1.933396
v -35.330208 8.239560 -1.933397
v -35.271679 -2.052114 1.933396
v -35.330208 8.239560 1.933395
v -35.303467 3.537883 -2.983816
v -35.303467 3.537884 2.983816
v -231.421295 -22.793499 -1.933394
v -233.531799 -12.517607 -1.933395
v -231.421295 -22.793499 1.933398
v -233.531799 -12.517607 1.933397
v -232.476486 -17.655556 -2.983814
v -232.476486 -17.655556 2.983817
v -179.765778 -12.625747 -1.933395
v -181.343063 -2.245754 -1.933396
v -179.765778 -12.625747 1.933397
v -181.343063 -2.245754 1.933396
v -180.554352 -7.435834 -2.983815
v -180.554352 -7.435834 2.983816
v -137.337936 -6.784277 -1.933396
v -138.452286 3.659352 -1.933396
v -137.337936 -6.784277 1.933396
v -138.452286 3.659352 1.933396
v -137.895065 -1.562503 -2.983816
v -137.895065 -1.562502 2.983816
v -91.720673 -2.977033 -1.933396
v -92.337402 7.508214 -1.933397
v -91.720673 -2.977033 1.933396
v -92.337402 7.508214 1.933395
v -92.028999 2.265590 -2.983816
v -92.028999 2.265591 2.983816
v -231.421295 -22.793499 -1.933394
v -232.476486 -17.655556 -2.983814
v -231.421295 -22.793499 1.933398
v -232.476486 -17.655556 2.983817
v -233.531799 -12.517607 1.933397
v -233.531799 -12.517607 -1.933395
v -79.258751 -2.857776 -2.215558
v -79.258751 -2.857775 2.215640
v -79.376602 2.729634 -3.548222
v -76.647888 2.778544 -3.548222
v -76.606575 -2.810292 -2.215558
v -76.606575 -2.810291 2.215640
v -79.376602 2.729634 3.548222
v -76.647888 2.778545 3.548222
v -76.689209 8.367380 -2.215641
v -76.689209 8.367380 2.215557
v -79.494377 8.317125 2.215557
v -79.494377 8.317125 -2.215641
vn 0.0643 -0.9979 -0.0000
vn 0.0279 -0.9996 -0.0000
vn 0.0472 -0.9989 -0.0000
vn 1.0000 -0.0072 -0.0000
vn 0.9994 -0.0344 -0.0000
vn 0.0157 -0.2516 -0.9677
vn 0.0181 -0.2837 -0.9588
vn 0.0086 -0.0416 -0.9991
vn 0.0140 -0.0013 -0.9999
vn 0.9997 0.0232 -0.0000
vn 0.0140 -0.0013 0.9999
vn 0.0044 0.2519 0.9677
vn 0.0023 0.0424 0.9991
vn 0.0157 -0.2516 0.9677
vn 0.9987 0.0504 -0.0000
vn -0.0166 0.9999 -0.0000
vn -0.0501 0.9987 -0.0000
vn -0.0121 0.2840 0.9587
vn -0.0291 0.2828 0.9587
vn -0.1020 0.9948 -0.0000
vn -0.1184 0.9930 -0.0000
vn -0.1558 0.9878 -0.0000
vn -0.0084 0.0415 -0.9991
vn -0.0474 0.2804 -0.9587
vn -0.0336 0.2823 -0.9587
vn 0.0024 0.0006 -1.0000
vn -0.0156 0.2838 -0.9588
vn 0.0290 -0.2828 -0.9587
vn 0.0443 -0.2809 -0.9587
vn 0.1957 -0.9807 -0.0000
vn 0.1754 -0.9845 -0.0000
vn 0.0433 -0.2484 -0.9677
vn 0.1572 -0.9876 -0.0000
vn 0.1184 -0.9930 -0.0000
vn 0.0022 -0.0421 0.9991
vn 0.0466 -0.2805 0.9587
vn 0.0336 -0.2823 0.9587
vn 0.0433 -0.2484 0.9677
vn 0.1020 -0.9948 -0.0000
vn -0.0025 0.0001 1.0000
vn 0.0198 -0.2836 0.9587
vn -0.0448 0.2808 0.9587
vn -0.1729 0.9849 -0.0000
vn -0.1918 0.9814 -0.0000
vn -0.0540 0.2460 0.9678
vn -0.9831 -0.1833 -0.0000
vn -0.9877 -0.1565 -0.0000
vn -0.0090 -0.0048 0.9999
vn -0.9770 -0.2132 -0.0000
vn -0.9708 -0.2397 -0.0000
vn -0.0090 -0.0047 -0.9999
vn -0.0540 0.2460 -0.9678
vn 0.0044 0.2519 -0.9677
vn 0.0379 -0.1927 -0.9805
vn -0.0113 0.0633 -0.9979
vn 0.0017 0.0006 -1.0000
vn 0.0307 -0.1938 -0.9806
vn 0.0120 -0.0678 0.9976
vn 0.0379 -0.1927 0.9805
vn 0.0341 -0.1932 0.9806
vn -0.0018 -0.0000 1.0000
vn 0.1931 -0.9812 -0.0000
vn 0.1736 -0.9848 -0.0000
vn 0.1561 -0.9877 -0.0000
vn -0.0379 0.1927 -0.9805
vn -0.0340 0.1933 -0.9806
vn -0.1931 0.9812 -0.0000
vn -0.1736 0.9848 -0.0000
vn -0.1560 0.9878 -0.0000
vn -0.0379 0.1927 0.9805
vn -0.0306 0.1938 0.9806
vn 0.0016 0.0004 -1.0000
vn 0.0200 -0.1951 -0.9806
vn 0.0232 -0.1948 0.9806
vn -0.0017 0.0001 1.0000
vn 0.1181 -0.9930 -0.0000
vn 0.1016 -0.9948 -0.0000
vn -0.0232 0.1948 -0.9806
vn -0.1180 0.9930 -0.0000
vn -0.1016 0.9948 -0.0000
vn -0.0200 0.1951 0.9806
vn 0.0020 0.0041 -1.0000
vn 0.0081 -0.1921 -0.9813
vn 0.0118 -0.1958 0.9806
vn -0.0024 0.0336 0.9994
vn 0.0601 -0.9982 -0.0000
vn 0.0395 -0.9992 -0.0000
vn -0.0115 0.1958 -0.9806
vn -0.0480 0.9988 -0.0000
vn -0.0095 0.1959 0.9806
vn 0.0037 -0.1905 0.9817
vn -0.0003 0.0158 0.9999
vn 0.0164 -0.9999 -0.0000
vn -0.0037 0.2071 0.9783
vn -0.0128 0.9999 -0.0000
vn -0.0037 0.2071 -0.9783
vn 0.0016 -0.0565 -0.9984
vn 0.0030 -0.1847 -0.9828
vn 1.0000 0.0057 -0.0000
vn -0.9796 -0.2012 -0.0000
vn 0.0179 -0.9998 -0.0000
vn -0.9998 -0.0211 -0.0000
vn 0.0042 -0.2319 -0.9727
vn -0.0017 0.0817 -0.9967
vn 0.0030 -0.0818 -0.9966
vn -0.0027 0.0765 0.9971
vn 0.0016 -0.0767 0.9971
vn 0.0042 -0.2319 0.9727
vn 1.0000 0.0074 -0.0000
vn -0.0042 0.2319 0.9727
vn -0.0179 0.9998 -0.0000
vn -0.0042 0.2319 -0.9727
vt 0.352875 0.633003
vt 0.487720 0.624855
vt 0.488281 0.599537
vt 0.352092 0.606343
vt 0.487645 0.574219
vt 0.351308 0.579684
vt 0.240814 0.597448
vt 0.138009 0.623971
vt 0.140166 0.650346
vt 0.242306 0.623994
vt 0.243799 0.650540
vt 0.142322 0.676721
vt 0.017551 0.722656
vt 0.011719 0.669544
vt 0.014008 0.696362
vt 0.016650 0.722656
vt 0.014184 0.699027
vt 0.139093 0.650501
vt 0.140917 0.674377
vt 0.011719 0.675397
vt 0.137269 0.626624
vt 0.241684 0.622251
vt 0.242951 0.646281
vt 0.240416 0.598221
vt 0.351952 0.603328
vt 0.352622 0.627461
vt 0.351283 0.579196
vt 0.488281 0.621609
vt 0.488281 0.595868
vt 0.488281 0.574219
vt 0.628906 0.511340
vt 0.628906 0.394910
vt 0.687500 0.542969
vt 0.687500 0.363281
vt 0.746094 0.394910
vt 0.746094 0.511340
vt 0.629684 0.397023
vt 0.628906 0.397023
vt 0.628906 0.509225
vt 0.687088 0.542969
vt 0.687889 0.542969
vt 0.629684 0.509225
vt 0.687889 0.363281
vt 0.687088 0.363281
vt 0.745271 0.397025
vt 0.746094 0.509227
vt 0.746094 0.397025
vt 0.745271 0.509227
s 1
f 175/94/229 172/95/230 173/94/231
f 172/95/230 174/95/230 173/94/231
f 178/96/232 174/95/233 172/95/233
f 172/95/234 175/94/235 176/97/236
f 177/96/237 172/95/234 176/97/236
f 177/96/238 178/96/232 172/95/233
f 178/96/239 180/98/240 179/97/241
f 174/95/242 178/96/239 179/97/241
f 180/98/243 178/96/232 177/96/238
f 181/98/243 180/98/243 177/96/238
f 180/98/244 181/98/244 182/99/245
f 180/98/240 182/99/246 179/97/241
f 182/99/246 183/100/247 179/97/241
f 185/100/248 183/100/249 182/99/245
f 181/98/244 184/99/245 182/99/245
f 184/99/245 185/100/248 182/99/245
f 185/100/248 186/101/250 183/100/249
f 187/102/251 186/101/252 185/100/253
f 188/103/254 187/102/251 185/100/253
f 188/103/254 185/100/253 184/99/255
f 176/97/236 188/103/254 184/99/255
f 189/104/256 188/103/254 176/97/236
f 190/105/257 187/102/251 188/103/254
f 189/104/256 190/105/257 188/103/254
f 192/106/258 191/106/258 190/105/259
f 190/105/257 191/106/260 187/102/251
f 193/105/261 192/106/258 190/105/259
f 193/105/261 190/105/259 189/104/262
f 194/102/263 193/105/264 195/104/265
f 192/106/266 193/105/264 194/102/263
f 195/104/267 193/105/261 189/104/262
f 196/103/268 194/102/263 195/104/265
f 195/104/267 189/104/262 175/94/229
f 196/103/268 195/104/265 173/94/269
f 173/94/231 195/104/267 175/94/229
f 183/100/247 196/103/268 179/97/241
f 183/100/247 197/101/270 196/103/268
f 197/101/270 194/102/263 196/103/268
f 179/97/241 196/103/268 173/94/269
f 186/101/250 197/101/271 183/100/249
f 186/101/250 198/107/272 197/101/271
f 198/107/272 199/107/272 197/101/271
f 197/101/270 199/107/273 194/102/263
f 200/108/274 199/107/275 198/107/275
f 199/107/273 200/108/276 194/102/263
f 201/108/277 200/108/274 198/107/275
f 192/106/278 200/108/274 201/108/277
f 200/108/276 192/106/266 194/102/263
f 191/106/278 192/106/278 201/108/277
f 191/106/260 201/108/279 187/102/251
f 201/108/279 198/107/280 187/102/251
f 198/107/280 186/101/252 187/102/251
f 175/94/235 189/104/256 176/97/236
f 184/99/255 181/98/281 176/97/236
f 181/98/281 177/96/237 176/97/236
f 173/94/269 174/95/242 179/97/241
f 208/109/282 212/110/283 218/111/284
f 214/112/285 208/109/282 218/111/284
f 213/110/286 210/109/287 216/112/288
f 219/111/289 213/110/286 216/112/288
f 210/109/290 208/109/290 214/112/291
f 216/112/292 210/109/290 214/112/291
f 212/110/283 209/113/293 215/114/294
f 218/111/284 212/110/283 215/114/294
f 209/113/295 211/113/295 217/114/296
f 215/114/297 209/113/295 217/114/296
f 211/113/298 213/110/286 219/111/289
f 217/114/299 211/113/298 219/111/289
f 214/112/285 218/111/284 224/115/300
f 220/116/301 214/112/285 224/115/300
f 219/111/289 216/112/288 222/116/302
f 225/115/303 219/111/289 222/116/302
f 216/112/292 214/112/291 220/116/304
f 222/116/305 216/112/292 220/116/304
f 218/111/284 215/114/294 221/117/306
f 224/115/300 218/111/284 221/117/306
f 215/114/297 217/114/296 223/117/307
f 221/117/308 215/114/297 223/117/307
f 217/114/299 219/111/289 225/115/303
f 223/117/309 217/114/299 225/115/303
f 220/116/301 224/115/300 230/118/310
f 226/119/311 220/116/301 230/118/310
f 225/115/303 222/116/302 228/119/312
f 231/118/313 225/115/303 228/119/312
f 222/116/305 220/116/304 226/119/314
f 228/119/315 222/116/305 226/119/314
f 224/115/300 221/117/306 227/120/316
f 230/118/310 224/115/300 227/120/316
f 221/117/308 223/117/307 229/120/317
f 227/120/317 221/117/308 229/120/317
f 223/117/309 225/115/303 231/118/313
f 229/120/318 223/117/309 231/118/313
f 204/121/319 207/122/320 231/118/313
f 228/119/312 204/121/319 231/118/313
f 202/121/321 204/121/321 228/119/315
f 226/119/314 202/121/321 228/119/315
f 205/123/322 229/120/318 231/118/313
f 207/122/320 205/123/322 231/118/313
f 203/123/323 227/120/317 229/120/317
f 205/123/323 203/123/323 229/120/317
f 203/123/324 206/122/325 230/118/310
f 227/120/316 203/123/324 230/118/310
f 206/122/325 202/121/326 226/119/311
f 230/118/310 206/122/325 226/119/311
f 205/123/327 207/122/327 206/122/327
f 203/123/327 205/123/327 206/122/327
f 207/122/327 204/121/327 202/121/327
f 206/122/327 207/122/327 202/121/327
f 232/124/328 234/125/328 233/126/328
f 234/125/328 235/127/328 233/126/328
f 235/127/328 236/128/328 237/129/328
f 233/126/328 235/127/328 237/129/328
f 243/130/329 239/131/329 238/132/329
f 239/131/330 240/133/330 238/132/330
f 238/132/331 240/133/332 241/134/333
f 242/135/331 238/132/331 241/134/333
f 242/135/329 243/130/329 238/132/329
f 245/136/334 244/137/335 243/130/336
f 244/137/335 239/131/336 243/130/336
f 242/135/337 241/134/337 243/130/337
f 245/136/337 243/130/337 241/134/337
f 248/138/338 244/137/335 245/136/334
f 246/139/337 245/136/337 241/134/337
f 246/139/337 247/140/337 245/136/337
f 247/140/338 248/138/338 245/136/334
f 249/141/339 248/138/339 247/140/339
f 249/141/330 240/133/330 248/138/330
f 248/138/330 240/133/330 244/137/330
f 240/133/332 249/141/340 246/139/340
f 246/139/339 249/141/339 247/140/339
f 241/134/333 240/133/332 246/139/340
f 240/133/330 239/131/330 244/137/330
o item_blade
v 26.590300 22.520599 11.862098
v 26.590300 22.520599 5.647598
v 33.175800 18.257101 13.730999
v 34.370899 19.927902 13.730998
v 27.751900 24.144600 11.862098
v 27.751900 24.144600 5.647598
v 34.370899 19.927900 3.778699
v 33.175800 18.257099 3.778699
v 39.761299 13.993600 5.647699
v 39.761299 13.993601 11.862199
v 40.990002 15.711200 5.647699
v 40.990002 15.711201 11.862199
v 0.000000 70.710701 -0.000005
v 70.710701 0.000000 0.000000
v 0.000000 55.656200 3.999996
v -55.656101 0.000000 4.000000
v -70.710701 0.000000 0.000000
v 0.000000 -55.656101 4.000004
v 0.000000 -70.710602 0.000005
v 55.656200 0.000000 4.000000
v 0.000000 70.710701 -0.000005
v 0.000000 55.656200 -4.000004
v 70.710701 0.000000 0.000000
v -55.656101 -0.000000 -4.000000
v -70.710701 0.000000 0.000000
v 0.000000 -55.656101 -3.999996
v 0.000000 -70.710602 0.000005
v 55.656200 -0.000000 -4.000000
v 0.000000 70.710701 -0.000005
v 70.710701 0.000000 0.000000
v 0.000000 55.656200 3.999996
v -55.656101 0.000000 4.000000
v -70.710701 0.000000 0.000000
v 0.000000 -55.656101 4.000004
v 0.000000 -70.710602 0.000005
v 55.656200 0.000000 4.000000
v 0.000000 70.710701 -0.000005
v 0.000000 55.656200 -4.000004
v 70.710701 0.000000 0.000000
v -55.656101 -0.000000 -4.000000
v -70.710701 0.000000 0.000000
v 0.000000 -55.656101 -3.999996
v 0.000000 -70.710602 0.000005
v 55.656200 -0.000000 -4.000000
v 0.000000 70.710701 -0.000005
v 70.710701 0.000000 0.000000
v 0.000000 55.656200 3.999996
v -55.656101 0.000000 4.000000
v -70.710701 0.000000 0.000000
v 0.000000 -55.656101 4.000004
v 0.000000 -70.710602 0.000005
v 55.656200 0.000000 4.000000
v 0.000000 70.710701 -0.000005
v 0.000000 55.656200 -4.000004
v 70.710701 0.000000 0.000000
v -55.656101 -0.000000 -4.000000
v -70.710701 0.000000 0.000000
v 0.000000 -55.656101 -3.999996
v 0.000000 -70.710602 0.000005
v 55.656200 -0.000000 -4.000000
v -49.047565 43.906445 12.984655
v -72.792465 75.179062 18.201328
v -72.792465 75.179062 12.984653
v -49.047482 43.906441 18.201330
v -48.256847 42.799129 18.201330
v -48.256760 42.799126 12.984655
v -55.351295 39.694317 11.486515
v -78.139862 71.605972 11.486512
v -54.560574 38.587002 11.486515
v -60.698608 36.121227 12.984655
v -83.487183 68.032883 12.984653
v -60.698608 36.121227 18.201332
v -83.487183 68.032883 18.201328
v -78.139778 71.605965 19.699469
v -55.351292 39.694229 19.699471
v -54.560574 38.587002 19.699471
v -59.907890 35.013908 18.201332
v -59.907890 35.013908 12.984655
v -49.071526 40.953312 15.013096
v -35.827488 12.704675 14.909210
v -53.586674 37.523300 14.909208
v -31.366711 16.208532 15.013098
v -49.071526 40.953312 16.172892
v -31.366711 16.208532 16.172894
v -53.586674 37.523300 16.276781
v -35.827488 12.704675 16.276781
v -58.101730 34.093460 15.592995
v -40.288113 9.200915 15.592997
v -17.450045 -5.695614 14.909211
v -21.852407 -9.258181 15.592999
v -2.012000 -24.389639 15.592999
v 2.327475 -20.779129 14.909213
v -17.450050 -5.695693 16.276783
v -13.047783 -2.133290 16.172895
v 2.327475 -20.779129 16.276785
v 6.666707 -17.168791 16.172897
v 23.971279 -33.759235 16.276785
v 20.627934 -37.592926 15.593000
v 30.374645 -30.898314 16.172897
v 26.894716 -35.417004 15.593000
v 30.374575 -30.898317 15.013101
v 23.971279 -33.759235 14.909214
v 32.695923 -32.264748 15.593000
v 6.666707 -17.168791 15.013100
v -13.047783 -2.133290 15.013099
v -54.627403 38.709583 16.110603
v -46.713299 26.803337 31.028873
v -36.580017 34.208462 30.812889
v -32.257355 44.303913 24.804623
v -36.254745 51.360943 16.460836
v -41.159950 57.696991 8.023234
v -51.993488 57.396824 1.758672
v -62.541721 50.615822 1.192434
v -72.680473 43.209946 1.405809
v -76.994507 33.115051 7.418729
v -73.000168 26.058218 15.760420
v -68.094215 19.725233 24.195791
v -57.264263 20.017660 30.465174
v -67.477905 18.835438 23.162462
v -56.644279 19.135479 29.427351
v -46.096172 25.916351 29.993578
v -54.010380 37.822590 15.075360
v -51.373508 56.514557 0.720760
v -61.924591 49.728836 0.157141
v -72.057907 42.323711 0.373109
v -76.380409 32.228367 6.381419
v -35.957344 33.322247 29.780125
v -72.383041 25.171232 14.725127
v -31.643345 43.417210 23.767284
v -35.637619 50.473953 15.425543
v -40.543732 56.807079 6.989965
v -48.378101 43.891602 14.049597
v -45.475899 39.865200 17.136396
v -48.378201 43.891602 17.136396
v -45.475899 39.865200 14.049597
v -55.037899 39.283600 13.773597
v -52.135700 35.257099 13.773597
v -60.990002 35.165298 14.577897
v -60.990002 35.165298 16.608099
v -58.087700 31.138903 14.577898
v -58.087799 31.138903 16.608099
v -55.037899 39.283501 17.412395
v -52.135700 35.257099 17.412397
v 21.932076 46.814285 12.209180
v 3.361858 18.766203 7.762322
v 21.932076 46.814285 7.762321
v 3.361858 18.766203 12.209183
v 26.655539 43.554714 13.417123
v 26.655539 43.554714 6.554379
v 7.992227 15.367333 6.554381
v 31.379005 40.295227 7.762321
v 31.379005 40.295227 12.209181
v 12.622442 11.968544 7.762323
v -5.252694 -9.424945 7.762324
v 12.622442 11.968544 12.209183
v -5.252694 -9.424945 12.209185
v -23.974575 -27.885654 12.209186
v -28.407484 -24.271564 13.417128
v -9.786516 -5.910637 13.417126
v -32.840160 -20.657755 12.209186
v 7.992227 15.367333 13.417125
v -14.320258 -2.396412 12.209184
v -32.840160 -20.657755 7.762325
v -14.320258 -2.396413 7.762324
v -9.786516 -5.910638 6.554382
v -28.407484 -24.271566 6.554384
v -23.974575 -27.885654 7.762326
v -49.537815 -48.440788 7.762328
v -53.840408 -44.721516 6.554385
v -58.143002 -41.002319 7.762327
v -58.143002 -41.002319 12.209187
v -53.840408 -44.721516 13.417130
v -49.537815 -48.440788 12.209188
v -59.530998 -58.415699 11.466405
v -53.878399 -62.941700 12.939505
v -59.530998 -58.415699 6.043404
v -53.878399 -62.941700 4.570305
v -48.225800 -67.467796 11.466405
v -48.225800 -67.467796 6.043405
vn -0.8134 0.5818 -0.0000
vn -0.5435 -0.8394 -0.0000
vn -0.1887 0.1350 0.9727
vn 0.0644 -0.0461 0.9969
vn -0.0644 0.0461 0.9969
vn 0.0644 -0.0461 -0.9969
vn -0.0644 0.0461 -0.9969
vn -0.1887 0.1350 -0.9727
vn 0.5373 0.8434 -0.0000
vn 0.1887 -0.1350 -0.9727
vn 0.8133 -0.5818 -0.0000
vn 0.1887 -0.1350 0.9727
vn 0.2559 0.0853 0.9629
vn -0.0853 0.2559 0.9629
vn 0.0639 0.1919 0.9793
vn -0.1532 0.0510 0.9869
vn -0.2558 -0.0853 0.9629
vn -0.0639 -0.1919 0.9793
vn 0.0853 -0.2559 0.9629
vn 0.1531 -0.0510 0.9869
vn 0.0639 0.1919 -0.9793
vn -0.1531 0.0510 -0.9869
vn -0.0853 0.2559 -0.9629
vn 0.2559 0.0853 -0.9629
vn -0.2558 -0.0853 -0.9629
vn -0.0639 -0.1919 -0.9793
vn 0.0853 -0.2559 -0.9629
vn 0.1532 -0.0510 -0.9869
vn 0.8052 0.5930 -0.0000
vn 0.7964 0.6047 -0.0000
vn 0.1563 0.1150 -0.9810
vn 0.0144 0.0119 -0.9998
vn 0.1698 0.1253 -0.9775
vn 0.8138 0.5811 -0.0000
vn 0.8138 0.5812 -0.0000
vn 0.1578 0.1127 -0.9810
vn -0.0037 -0.0026 -1.0000
vn -0.1847 -0.1319 -0.9739
vn -0.0700 -0.0472 -0.9964
vn -0.8138 -0.5811 -0.0000
vn -0.5556 0.8315 -0.0000
vn -0.0681 -0.0457 0.9966
vn -0.1847 -0.1319 0.9739
vn -0.0098 -0.0058 0.9999
vn 0.1698 0.1253 0.9775
vn 0.0493 0.0324 0.9983
vn 0.1568 0.1143 0.9810
vn 0.1578 0.1127 0.9810
vn 0.0140 0.0119 -0.9998
vn -0.0212 -0.0189 -0.9996
vn 0.0149 0.0107 -0.9998
vn -0.0557 -0.0421 -0.9976
vn 0.7710 0.6368 -0.0000
vn 0.8133 0.5819 -0.0000
vn 0.7630 0.6464 -0.0000
vn 0.7626 0.6468 -0.0000
vn 0.0140 0.0119 0.9998
vn 0.0149 0.0107 0.9998
vn -0.0211 -0.0124 0.9997
vn -0.0566 -0.0482 0.9972
vn -0.0974 -0.0697 0.9928
vn -0.0915 -0.0773 0.9928
vn -0.0912 -0.0776 -0.9928
vn -0.0974 -0.0697 -0.9928
vn -0.0352 -0.0382 -0.9986
vn -0.0786 -0.0936 -0.9925
vn -0.0813 -0.0900 0.9926
vn -0.0386 -0.0556 -0.9977
vn -0.0700 -0.1078 -0.9917
vn -0.0710 -0.1056 0.9919
vn -0.0335 -0.0402 0.9986
vn 0.0122 0.0141 0.9998
vn -0.0211 -0.0330 0.9992
vn 0.0166 -0.1131 0.9935
vn 0.0102 0.0158 0.9998
vn 0.0005 -0.1728 0.9850
vn 0.1031 -0.2236 0.9692
vn 0.0784 -0.1342 0.9879
vn 0.0161 -0.1137 -0.9934
vn 0.0784 -0.1342 -0.9879
vn 0.1031 -0.2236 -0.9692
vn 0.1163 -0.2140 -0.9699
vn 0.0005 -0.1728 -0.9850
vn 0.1163 -0.2140 0.9699
vn 0.5040 0.8637 -0.0000
vn 0.5035 0.8640 -0.0000
vn 0.5073 0.8618 -0.0000
vn 0.0105 0.0156 -0.9998
vn 0.5695 0.8220 -0.0000
vn 0.5401 0.8416 -0.0000
vn 0.6443 0.7648 -0.0000
vn 0.0122 0.0141 -0.9998
vn 0.6724 0.7402 -0.0000
vn -0.4164 0.5900 0.6918
vn -0.4170 0.5895 0.6918
vn -0.4165 0.5880 0.6934
vn -0.4185 0.5886 0.6917
vn -0.4182 0.5906 0.6901
vn -0.6573 -0.7189 0.2264
vn -0.5119 -0.7778 0.3646
vn -0.0316 -0.7708 0.6364
vn 0.1057 -0.7255 0.6801
vn 0.3344 -0.6082 0.7199
vn 0.4303 -0.5423 0.7216
vn 0.4164 -0.5900 -0.6918
vn 0.4170 -0.5895 -0.6918
vn 0.4182 -0.5906 -0.6901
vn 0.4165 -0.5880 -0.6934
vn 0.4185 -0.5886 -0.6917
vn 0.6581 0.7184 -0.2256
vn 0.5103 0.7782 -0.3660
vn 0.0329 0.7711 -0.6359
vn 0.7795 0.6226 -0.0697
vn -0.1061 0.7253 -0.6802
vn 0.8642 0.4951 0.0900
vn 0.9070 0.3432 0.2441
vn 0.9068 0.1838 0.3795
vn 0.7145 -0.2567 0.6509
vn -0.8641 -0.4952 -0.0899
vn -0.7794 -0.6227 0.0698
vn -0.9068 -0.3442 -0.2433
vn 0.6217 -0.3688 0.6910
vn -0.9065 -0.1821 -0.3808
vn -0.7153 0.2555 -0.6504
vn -0.4306 0.5421 -0.7216
vn -0.6214 0.3692 -0.6911
vn -0.3341 0.6084 -0.7199
vn 0.8112 0.5847 -0.0000
vn -0.0115 -0.0083 -0.9999
vn 0.0276 0.0199 -0.9994
vn -0.0506 -0.0365 -0.9980
vn -0.0896 -0.0646 -0.9939
vn -0.8112 -0.5847 -0.0000
vn 0.5690 -0.8223 -0.0000
vn 0.5690 -0.8223 0.0001
vn -0.0506 -0.0365 0.9981
vn -0.0896 -0.0646 0.9939
vn -0.0115 -0.0083 0.9999
vn 0.0276 0.0199 0.9994
vn -0.7904 0.6126 -0.0000
vn -0.8338 0.5521 -0.0000
vn -0.8130 0.5823 -0.0000
vn 0.5680 0.8231 -0.0000
vn 0.5680 0.8230 -0.0000
vn -0.0602 0.0462 0.9971
vn -0.1718 0.1137 0.9786
vn -0.1673 0.1194 0.9787
vn -0.0073 0.0054 -1.0000
vn 0.1718 -0.1137 -0.9786
vn 0.0226 -0.0182 -0.9996
vn -0.1718 0.1137 -0.9786
vn 0.8338 -0.5521 -0.0000
vn 0.8018 -0.5976 -0.0000
vn 0.1649 -0.1232 -0.9786
vn 0.1536 -0.1379 -0.9785
vn 0.7464 -0.6655 -0.0000
vn 0.7246 -0.6891 -0.0000
vn 0.6776 -0.7355 -0.0000
vn 0.0031 0.0032 1.0000
vn 0.1369 -0.1594 0.9777
vn 0.1500 -0.1432 0.9783
vn 0.0022 0.0030 1.0000
vn 0.1628 -0.1266 0.9785
vn -0.1541 0.1370 0.9785
vn -0.1413 0.1530 0.9781
vn 0.0024 0.0035 1.0000
vn -0.6775 0.7355 -0.0000
vn -0.6527 0.7576 -0.0000
vn -0.7246 0.6891 -0.0000
vn -0.7464 0.6655 -0.0000
vn -0.0013 -0.0021 -1.0000
vn -0.1505 0.1424 -0.9783
vn -0.1633 0.1257 -0.9785
vn -0.0017 -0.0027 -1.0000
vn -0.1374 0.1585 -0.9778
vn -0.0360 0.0491 -0.9981
vn 0.1409 -0.1539 -0.9780
vn 0.1322 -0.1645 -0.9775
vn -0.1322 0.1645 -0.9775
vn -0.6266 0.7793 -0.0000
vn -0.1323 0.1645 0.9775
vn 0.0434 -0.0663 0.9969
vn 0.1322 -0.1645 0.9775
vn 0.6266 -0.7793 -0.0000
vn 0.6528 -0.7576 -0.0000
vn 0.1718 -0.1137 0.9786
vn -0.6250 -0.7806 -0.0000
vt 0.638360 0.363281
vt 0.628906 0.392028
vt 0.682500 0.467499
vt 0.692226 0.437923
vt 0.736094 0.542969
vt 0.746094 0.512565
vt 0.976562 0.023438
vt 0.095226 0.374655
vt 0.095226 0.374655
vt 0.363281 0.482039
vt 0.055192 0.405964
vt 0.085714 0.371094
vt 0.085714 0.371094
vt 0.329321 0.508598
vt 0.295360 0.535156
vt 0.045679 0.402403
vt 0.021231 0.432522
vt 0.329321 0.508597
vt 0.055191 0.405964
vt 0.011719 0.428961
vt 0.151345 0.832089
vt 0.130777 0.840408
vt 0.053453 0.761719
vt 0.032586 0.769827
vt 0.011719 0.777935
vt 0.110210 0.848726
vt 0.229324 0.893967
vt 0.209069 0.902456
vt 0.333393 0.938984
vt 0.313470 0.947617
vt 0.229324 0.893967
vt 0.249578 0.885478
vt 0.445800 0.978816
vt 0.353316 0.930352
vt 0.430892 0.988281
vt 0.460942 0.983941
vt 0.476237 0.972677
vt 0.476236 0.972677
vt 0.488281 0.976880
vt 0.454238 0.375317
vt 0.498319 0.363281
vt 0.498320 0.453125
vt 0.542401 0.375317
vt 0.574672 0.408202
vt 0.586483 0.453125
vt 0.574672 0.498048
vt 0.542401 0.530933
vt 0.498319 0.542969
vt 0.454238 0.530933
vt 0.421968 0.498048
vt 0.410156 0.453125
vt 0.421968 0.408204
vt 0.425328 0.408204
vt 0.457599 0.375317
vt 0.501680 0.363281
vt 0.501680 0.453125
vt 0.501680 0.542969
vt 0.545762 0.530933
vt 0.578032 0.498048
vt 0.457598 0.530933
vt 0.425328 0.498048
vt 0.545762 0.375317
vt 0.413517 0.453125
vt 0.578032 0.408202
vt 0.589844 0.453125
vt 0.746094 0.420014
vt 0.724172 0.363281
vt 0.724171 0.363281
vt 0.673866 0.428209
vt 0.695788 0.484943
vt 0.628906 0.486236
vt 0.650829 0.542969
vt 0.650828 0.542969
vt 0.673866 0.428210
vt 0.339170 0.617919
vt 0.438130 0.574219
vt 0.463206 0.579277
vt 0.488281 0.584336
vt 0.363750 0.623195
vt 0.388328 0.628470
vt 0.293124 0.661814
vt 0.193447 0.690595
vt 0.169919 0.684984
vt 0.269059 0.656358
vt 0.244994 0.650903
vt 0.146392 0.679374
vt 0.034553 0.716881
vt 0.057387 0.722656
vt 0.011719 0.711106
vt 0.628906 0.363281
vt 0.687500 0.453124
vt 0.746094 0.542969
s 1
f 255/142/341 251/143/341 250/143/341
f 251/143/342 252/144/342 250/143/342
f 250/143/343 252/144/344 253/145/345
f 254/142/343 250/143/343 253/145/345
f 254/142/341 255/142/341 250/143/341
f 256/145/346 257/144/347 255/142/348
f 256/145/349 255/142/349 253/145/349
f 254/142/349 253/145/349 255/142/349
f 257/144/347 251/143/348 255/142/348
f 252/144/342 251/143/342 257/144/342
f 258/146/350 257/144/347 256/145/346
f 258/146/342 252/144/342 257/144/342
f 259/146/351 258/146/351 260/147/351
f 259/146/342 252/144/342 258/146/342
f 260/147/350 258/146/350 256/145/346
f 261/147/349 260/147/349 256/145/349
f 261/147/351 259/146/351 260/147/351
f 252/144/344 259/146/352 261/147/352
f 253/145/345 252/144/344 261/147/352
f 261/147/349 256/145/349 253/145/349
f 263/148/353 262/148/354 264/148/355
f 264/148/355 262/148/354 265/148/356
f 262/148/354 266/148/357 265/148/356
f 265/148/356 266/148/357 267/148/358
f 266/148/357 268/148/359 267/148/358
f 268/148/359 263/148/353 269/148/360
f 267/148/358 268/148/359 269/148/360
f 269/148/360 263/148/353 264/148/355
f 264/148/355 265/148/356 269/148/360
f 265/148/356 267/148/358 269/148/360
f 271/148/361 273/148/362 270/148/363
f 271/148/361 270/148/363 272/148/364
f 273/148/362 274/148/365 270/148/363
f 273/148/362 275/148/366 274/148/365
f 275/148/366 276/148/367 274/148/365
f 277/148/368 272/148/364 276/148/367
f 275/148/366 277/148/368 276/148/367
f 271/148/361 277/148/368 273/148/362
f 277/148/368 271/148/361 272/148/364
f 277/148/368 275/148/366 273/148/362
f 279/148/353 278/148/354 280/148/355
f 280/148/355 278/148/354 281/148/356
f 278/148/354 282/148/357 281/148/356
f 281/148/356 282/148/357 283/148/358
f 282/148/357 284/148/359 283/148/358
f 284/148/359 279/148/353 285/148/360
f 283/148/358 284/148/359 285/148/360
f 280/148/355 281/148/356 285/148/360
f 285/148/360 279/148/353 280/148/355
f 281/148/356 283/148/358 285/148/360
f 287/148/361 289/148/362 286/148/363
f 287/148/361 286/148/363 288/148/364
f 289/148/362 290/148/365 286/148/363
f 289/148/362 291/148/366 290/148/365
f 291/148/366 292/148/367 290/148/365
f 293/148/368 288/148/364 292/148/367
f 291/148/366 293/148/368 292/148/367
f 293/148/368 287/148/361 288/148/364
f 287/148/361 293/148/368 289/148/362
f 293/148/368 291/148/366 289/148/362
f 295/148/353 294/148/354 296/148/355
f 296/148/355 294/148/354 297/148/356
f 294/148/354 298/148/357 297/148/356
f 297/148/356 298/148/357 299/148/358
f 298/148/357 300/148/359 299/148/358
f 300/148/359 295/148/353 301/148/360
f 299/148/358 300/148/359 301/148/360
f 301/148/360 295/148/353 296/148/355
f 296/148/355 297/148/356 301/148/360
f 297/148/356 299/148/358 301/148/360
f 303/148/361 305/148/362 302/148/363
f 303/148/361 302/148/363 304/148/364
f 305/148/362 306/148/365 302/148/363
f 305/148/362 307/148/366 306/148/365
f 307/148/366 308/148/367 306/148/365
f 309/148/368 304/148/364 308/148/367
f 307/148/366 309/148/368 308/148/367
f 303/148/361 309/148/368 305/148/362
f 309/148/368 303/148/361 304/148/364
f 309/148/368 307/148/366 305/148/362
f 313/149/369 310/150/369 311/151/370
f 310/150/369 312/151/370 311/151/370
f 310/150/371 316/152/372 312/151/373
f 310/150/369 313/149/369 314/153/374
f 315/154/375 310/150/369 314/153/374
f 316/152/372 310/150/371 315/154/376
f 317/155/377 316/152/372 320/156/378
f 316/152/372 317/155/377 312/151/373
f 318/157/379 316/152/372 315/154/376
f 319/158/378 316/152/372 318/157/379
f 316/152/372 319/158/378 320/156/378
f 319/158/380 321/158/380 320/156/380
f 321/158/380 322/156/380 320/156/380
f 317/155/381 320/156/381 322/156/381
f 323/159/382 322/156/383 321/158/383
f 323/159/381 317/155/381 322/156/381
f 312/151/381 317/155/381 323/159/381
f 324/160/384 323/159/382 321/158/383
f 311/151/385 323/159/382 324/160/384
f 311/151/381 312/151/381 323/159/381
f 324/160/384 321/158/383 326/161/383
f 325/157/386 324/160/384 326/161/383
f 313/149/387 324/160/384 325/157/386
f 313/149/387 311/151/385 324/160/384
f 326/161/380 321/158/380 327/161/380
f 321/158/380 319/158/380 327/161/380
f 327/161/378 319/158/378 318/157/379
f 314/153/388 313/149/387 325/157/386
f 331/162/389 329/163/390 328/164/391
f 329/163/390 330/165/392 328/164/391
f 331/162/393 328/164/394 332/164/394
f 333/162/395 331/162/396 332/164/394
f 333/162/397 332/164/398 334/165/399
f 335/163/400 333/162/397 334/165/399
f 335/163/400 334/165/399 336/166/401
f 337/167/402 335/163/400 336/166/401
f 337/167/403 336/166/404 330/165/392
f 329/163/390 337/167/403 330/165/392
f 329/163/390 338/168/405 337/167/403
f 338/168/405 339/169/406 337/167/403
f 337/167/402 339/169/407 335/163/400
f 341/170/408 340/171/409 339/169/406
f 339/169/407 340/171/410 342/172/411
f 338/168/405 341/170/408 339/169/406
f 339/169/407 342/172/411 335/163/400
f 342/172/411 343/173/412 333/162/397
f 342/172/411 344/170/413 343/173/412
f 340/171/410 344/170/413 342/172/411
f 335/163/400 342/172/411 333/162/397
f 346/174/414 344/170/413 340/171/410
f 344/170/413 345/175/415 343/173/412
f 344/170/413 346/174/414 345/175/415
f 347/176/416 346/174/414 340/171/410
f 346/174/414 347/176/416 349/177/417
f 346/174/414 348/178/418 345/175/415
f 348/178/418 346/174/414 349/177/417
f 351/174/419 350/179/420 349/177/421
f 350/179/420 352/180/422 349/177/421
f 347/176/423 351/174/419 349/177/421
f 352/180/424 348/178/418 349/177/417
f 350/179/425 348/178/426 352/180/427
f 350/179/420 351/174/419 353/175/428
f 351/174/419 347/176/423 340/171/409
f 351/174/419 341/170/408 353/175/428
f 341/170/408 351/174/419 340/171/409
f 353/175/428 341/170/408 338/168/405
f 345/175/429 353/175/430 354/173/431
f 345/175/429 348/178/426 353/175/430
f 354/173/432 353/175/428 338/168/405
f 348/178/426 350/179/425 353/175/430
f 343/173/433 345/175/429 354/173/431
f 354/173/432 338/168/405 329/163/390
f 343/173/433 354/173/431 331/162/396
f 331/162/389 354/173/432 329/163/390
f 333/162/395 343/173/433 331/162/396
f 367/181/434 356/182/434 355/183/435
f 356/182/434 357/184/434 355/183/435
f 357/184/434 358/185/436 355/183/435
f 358/185/436 359/186/437 355/183/435
f 359/186/437 360/187/438 355/183/435
f 360/187/438 361/188/434 355/183/435
f 361/188/434 362/189/434 355/183/435
f 362/189/434 363/190/434 355/183/435
f 363/190/434 364/191/436 355/183/435
f 364/191/436 365/192/437 355/183/435
f 365/192/437 366/193/438 355/183/435
f 366/193/438 367/181/434 355/183/435
f 366/193/439 368/194/440 367/181/441
f 368/194/440 369/195/442 367/181/441
f 367/181/441 369/195/442 356/182/443
f 369/195/442 370/196/444 356/182/443
f 370/196/445 369/195/445 371/197/446
f 369/195/445 368/194/447 371/197/446
f 373/198/445 372/199/445 371/197/446
f 372/199/445 380/200/447 371/197/446
f 374/201/445 373/198/445 371/197/446
f 375/202/448 374/201/445 371/197/446
f 376/203/445 370/196/445 371/197/446
f 377/204/449 375/202/448 371/197/446
f 378/205/448 376/203/445 371/197/446
f 368/194/447 377/204/449 371/197/446
f 379/206/449 378/205/448 371/197/446
f 380/200/447 379/206/449 371/197/446
f 360/187/450 380/200/451 361/188/452
f 379/206/453 380/200/451 360/187/450
f 380/200/451 372/199/454 361/188/452
f 359/186/455 379/206/453 360/187/450
f 378/205/456 379/206/453 359/186/455
f 358/185/457 378/205/456 359/186/455
f 376/203/458 378/205/456 358/185/457
f 365/192/459 377/204/460 366/193/439
f 375/202/461 377/204/460 365/192/459
f 377/204/460 368/194/440 366/193/439
f 357/184/462 376/203/458 358/185/457
f 370/196/444 376/203/458 357/184/462
f 364/191/463 375/202/461 365/192/459
f 374/201/464 375/202/461 364/191/463
f 373/198/465 374/201/464 363/190/466
f 363/190/466 374/201/464 364/191/463
f 372/199/454 373/198/465 362/189/467
f 362/189/467 373/198/465 363/190/466
f 361/188/452 372/199/454 362/189/467
f 356/182/443 370/196/444 357/184/462
f 384/207/468 381/208/468 382/207/468
f 381/208/468 383/209/468 382/207/468
f 385/210/469 381/208/470 384/207/470
f 386/211/471 385/210/469 384/207/470
f 387/212/472 385/210/469 386/211/471
f 388/212/473 387/212/473 389/213/473
f 389/213/472 387/212/472 386/211/471
f 390/214/473 388/212/473 389/213/473
f 390/214/474 389/213/474 386/211/475
f 391/215/476 388/212/477 390/214/477
f 392/211/474 390/214/474 384/207/474
f 384/207/474 390/214/474 386/211/475
f 392/211/478 391/215/476 390/214/477
f 383/209/479 391/215/476 392/211/478
f 382/207/479 383/209/479 392/211/478
f 382/207/474 392/211/474 384/207/474
f 396/216/480 393/217/481 394/216/482
f 393/217/481 395/217/481 394/216/482
f 398/218/483 395/217/484 393/217/484
f 397/218/485 393/217/486 396/216/487
f 397/218/483 398/218/483 393/217/484
f 400/219/483 398/218/483 397/218/483
f 398/218/488 400/219/489 399/220/490
f 395/217/491 398/218/488 399/220/490
f 401/219/483 400/219/483 397/218/483
f 400/219/492 401/219/492 402/221/493
f 400/219/489 402/221/494 399/220/490
f 402/221/494 403/222/495 399/220/490
f 405/222/496 403/222/497 402/221/493
f 401/219/492 404/221/493 402/221/493
f 404/221/493 405/222/496 402/221/493
f 405/222/496 406/223/498 403/222/497
f 407/224/499 406/223/500 405/222/501
f 408/225/502 407/224/499 405/222/501
f 408/225/502 405/222/501 404/221/503
f 411/226/504 409/227/505 408/225/502
f 409/227/505 407/224/499 408/225/502
f 410/220/506 408/225/502 404/221/503
f 411/226/504 408/225/502 410/220/506
f 412/227/507 409/227/508 411/226/509
f 413/226/510 412/227/507 411/226/509
f 413/226/510 411/226/509 396/216/480
f 396/216/487 411/226/504 410/220/506
f 414/225/511 413/226/512 394/216/513
f 414/225/511 415/224/514 413/226/512
f 394/216/482 413/226/510 396/216/480
f 415/224/514 412/227/515 413/226/512
f 415/224/514 418/228/516 412/227/515
f 416/223/517 415/224/514 414/225/511
f 416/223/517 417/229/518 415/224/514
f 417/229/518 418/228/516 415/224/514
f 418/228/516 419/230/519 412/227/515
f 419/230/520 420/230/520 409/227/508
f 412/227/507 419/230/520 409/227/508
f 409/227/505 420/230/521 407/224/499
f 420/230/521 421/228/522 407/224/499
f 421/228/522 422/229/523 406/223/500
f 407/224/499 421/228/522 406/223/500
f 406/223/498 422/229/524 416/223/525
f 422/229/524 417/229/524 416/223/525
f 406/223/498 416/223/525 403/222/497
f 403/222/495 416/223/517 414/225/511
f 403/222/495 414/225/511 399/220/490
f 399/220/490 414/225/511 394/216/513
f 410/220/506 397/218/485 396/216/487
f 401/219/526 397/218/485 410/220/506
f 404/221/503 401/219/526 410/220/506
f 394/216/513 395/217/491 399/220/490
f 423/231/527 425/231/527 424/232/527
f 425/231/527 426/232/527 424/232/527
f 424/232/527 426/232/527 427/233/527
f 426/232/527 428/233/527 427/233/527
o item_damaged
v -29.153999 3.117801 15.308600
v -24.850100 -8.020700 15.206201
v -22.281900 0.038201 15.206200
v -32.607300 -7.718799 15.308601
v -29.153999 3.117701 16.452700
v -22.282000 0.038101 16.555099
v -32.607300 -7.718799 16.452700
v -24.850201 -8.020799 16.555099
v -17.092899 -8.322799 15.880601
v -15.409900 -3.041299 15.880600
v -9.765332 -29.969978 13.668164
v -51.361843 -67.003922 18.093134
v -51.361843 -67.003922 13.668167
v -9.765332 -29.969978 18.093130
v -8.293667 -28.720112 18.093130
v -8.293667 -28.720112 13.668164
v -4.377505 -36.646656 12.397329
v -46.791389 -72.667587 12.397332
v -2.905750 -35.396698 12.397329
v 0.192952 -42.310234 13.668165
v -42.220932 -78.331161 13.668168
v 0.193037 -42.310230 18.093132
v -42.220932 -78.331161 18.093134
v -46.791386 -72.667496 19.363970
v -4.377419 -36.646652 19.363966
v -2.905754 -35.396782 19.363966
v 1.664703 -41.060364 18.093132
v 1.664703 -41.060364 13.668165
v -5.951000 -27.676098 15.308602
v 42.820202 6.502701 15.206199
v -1.127600 -33.495300 15.206203
v 37.865799 12.200401 15.308599
v -5.950900 -27.676098 16.452702
v 37.865799 12.200401 16.452700
v -1.127700 -33.495300 16.555101
v 3.695500 -39.314400 15.880603
v 42.820202 6.502602 16.555099
v 47.774502 0.805101 15.880600
v -3.068654 -35.508263 16.614643
v 8.249861 -26.407711 31.769489
v -0.156994 -16.823402 31.530628
v -10.755943 -13.368397 25.412802
v -17.524216 -18.057430 16.931540
v -23.487926 -23.605412 8.365420
v -22.200500 -34.547291 2.015632
v -14.386978 -44.608738 1.459851
v -5.978946 -54.198532 1.696106
v 4.618852 -57.644844 7.818530
v 11.386986 -52.958973 16.297615
v 17.347672 -47.410378 24.861675
v 16.068384 -36.471485 31.216276
v 18.529922 -46.433025 23.395699
v 17.242516 -35.491070 29.745701
v -1.889406 -34.530190 15.146576
v 9.429111 -25.429733 30.301479
v 1.020973 -15.839891 30.065197
v -9.576801 -12.393566 23.942799
v -16.344965 -17.079454 15.463530
v -22.305643 -22.628078 6.899457
v -21.026400 -33.566872 0.545032
v -13.207827 -43.630661 -0.008142
v -4.800970 -53.214962 0.230721
v 5.798072 -56.669952 6.348481
v 12.566254 -51.981018 14.829606
v -9.684300 -29.093998 14.571502
v -4.336400 -24.520699 17.189802
v -9.684300 -29.093998 17.189802
v -4.336400 -24.520597 14.571502
v -3.830000 -36.157200 14.337303
v 1.518000 -31.583899 14.337303
v 1.402200 -42.469700 15.019603
v 1.402200 -42.469700 16.741703
v 6.750000 -37.896400 15.019603
v 6.750100 -37.896400 16.741703
v -3.830000 -36.157200 17.424002
v 1.518000 -31.583899 17.424002
v -47.485100 74.001503 15.308595
v -51.311600 77.422798 15.880594
v -47.485100 74.001404 16.452694
v -42.651699 80.013397 15.880594
v -37.841202 75.811600 15.206194
v -8.435800 39.442101 15.308598
v -2.130400 43.504501 15.206197
v -8.435800 39.442101 16.452696
v 20.230400 19.849901 15.206198
v 12.789900 16.988201 15.308599
v 12.789900 16.988201 16.452698
v -2.130500 43.504601 16.555096
v 20.230400 19.849901 16.555098
v 27.671101 22.711702 15.880598
v 4.175200 47.567299 15.880596
v -37.841202 75.811600 16.555094
v -33.127602 80.726303 15.880594
v -55.002800 -4.131499 15.308600
v -48.492500 -0.307299 15.206200
v -62.818199 5.832301 15.308600
v -62.818199 5.832302 16.452700
v -55.002899 -4.131399 16.452700
v -56.299702 9.645901 16.555099
v -48.492401 -0.307499 16.555099
v -41.982101 3.516601 15.880600
v -49.781101 13.459501 15.880599
v -56.299599 9.645901 15.206199
v 19.032801 52.480801 15.308597
v 25.285299 48.283699 15.206196
v 25.472500 68.316498 15.308596
v 25.472401 68.316498 16.452694
v 19.032801 52.480801 16.452696
v 31.160200 62.730900 16.555096
v 25.285299 48.283699 16.555096
v 31.537800 44.086800 15.880597
v 36.848099 57.145100 15.880595
v 31.160200 62.730900 15.206195
v -39.834801 34.469398 15.308598
v -30.776600 22.921202 15.308599
v -32.939098 37.802299 15.206197
v -30.776600 22.921103 16.452698
v -39.834801 34.469398 16.452698
v -24.258101 26.734701 16.555098
v -32.939201 37.802299 16.555098
v -26.043501 41.135201 15.880597
v -17.739500 30.548302 15.880598
v -24.257999 26.734802 15.206198
v 65.920898 20.866402 16.452698
v 53.761101 30.418102 16.555098
v 61.289398 31.826202 16.452698
v 59.833099 16.049501 16.555098
v 65.920799 20.866402 15.308599
v 59.833000 16.049501 15.206199
v 61.289299 31.826302 15.308598
v 53.761101 30.418102 15.206198
v 53.745098 11.232301 15.880599
v 46.232800 29.010101 15.880598
v 0.000000 70.710701 -0.000005
v 70.710701 0.000000 0.000000
v 0.000000 55.656200 3.999996
v -55.656101 0.000000 4.000000
v -70.710701 0.000000 0.000000
v 0.000000 -55.656101 4.000004
v 0.000000 -70.710602 0.000005
v 55.656200 0.000000 4.000000
v 0.000000 70.710701 -0.000005
v 0.000000 55.656200 -4.000004
v 70.710701 0.000000 0.000000
v -55.656101 -0.000000 -4.000000
v -70.710701 0.000000 0.000000
v 0.000000 -55.656101 -3.999996
v 0.000000 -70.710602 0.000005
v 55.656200 -0.000000 -4.000000
v 0.000000 70.710701 -0.000005
v 70.710701 0.000000 0.000000
v 0.000000 55.656200 3.999996
v -55.656101 0.000000 4.000000
v -70.710701 0.000000 0.000000
v 0.000000 -55.656101 4.000004
v 0.000000 -70.710602 0.000005
v 55.656200 0.000000 4.000000
v 0.000000 70.710701 -0.000005
v 0.000000 55.656200 -4.000004
v 70.710701 0.000000 0.000000
v -55.656101 -0.000000 -4.000000
v -70.710701 0.000000 0.000000
v 0.000000 -55.656101 -3.999996
v 0.000000 -70.710602 0.000005
v 55.656200 -0.000000 -4.000000
v 0.000000 70.710701 -0.000005
v 70.710701 0.000000 0.000000
v 0.000000 55.656200 3.999996
v -55.656101 0.000000 4.000000
v -70.710701 0.000000 0.000000
v 0.000000 -55.656101 4.000004
v 0.000000 -70.710602 0.000005
v 55.656200 0.000000 4.000000
v 0.000000 70.710701 -0.000005
v 0.000000 55.656200 -4.000004
v 70.710701 0.000000 0.000000
v -55.656101 -0.000000 -4.000000
v -70.710701 0.000000 0.000000
v 0.000000 -55.656101 -3.999996
v 0.000000 -70.710602 0.000005
v 55.656200 -0.000000 -4.000000
vn -0.0130 0.0042 -0.9999
vn 0.0198 -0.0063 -0.9998
vn 0.0527 -0.0168 -0.9985
vn -0.9528 0.3036 -0.0000
vn 0.0199 -0.0063 0.9998
vn -0.0130 0.0042 0.9999
vn 0.0527 -0.0168 0.9985
vn 0.0855 -0.0273 0.9960
vn 0.0855 -0.0273 -0.9960
vn -0.6562 0.7546 -0.0000
vn -0.6650 0.7469 -0.0000
vn -0.0962 0.1107 -0.9892
vn -0.0095 0.0100 -0.9999
vn -0.1049 0.1203 -0.9872
vn -0.6473 0.7622 -0.0000
vn -0.0949 0.1117 -0.9892
vn 0.0018 -0.0021 -1.0000
vn 0.1114 -0.1312 -0.9851
vn 0.0405 -0.0497 -0.9979
vn 0.6473 -0.7622 -0.0000
vn -0.7782 -0.6280 -0.0000
vn 0.0383 -0.0474 0.9981
vn 0.1114 -0.1312 0.9851
vn -0.1049 0.1203 0.9872
vn 0.0051 -0.0070 1.0000
vn -0.0959 0.1109 0.9892
vn -0.0270 0.0339 0.9991
vn -0.0949 0.1117 0.9892
vn -0.0091 0.0100 -0.9999
vn 0.0139 -0.0153 -0.9998
vn 0.0369 -0.0406 -0.9985
vn -0.6731 0.7396 0.0001
vn -0.6731 0.7396 -0.0000
vn -0.0091 0.0100 0.9999
vn 0.0139 -0.0152 0.9998
vn 0.0369 -0.0406 0.9985
vn 0.0139 -0.0153 0.9998
vn 0.0599 -0.0658 0.9960
vn 0.0599 -0.0658 -0.9960
vn -0.5513 -0.4663 0.6918
vn -0.5509 -0.4669 0.6918
vn -0.5496 -0.4663 0.6932
vn -0.5499 -0.4681 0.6918
vn -0.5517 -0.4680 0.6903
vn -0.5495 -0.4663 0.6932
vn 0.7641 0.0497 0.6432
vn 0.7178 0.1570 0.6784
vn 0.5670 0.3989 0.7207
vn 0.7724 -0.5934 0.2266
vn 0.8195 -0.4386 0.3689
vn 0.5513 0.4663 -0.6918
vn 0.5509 0.4669 -0.6918
vn 0.5517 0.4680 -0.6903
vn 0.5103 0.4674 0.7219
vn 0.3013 0.6623 0.6860
vn 0.2042 0.7289 0.6534
vn -0.2607 0.8878 0.3792
vn -0.4242 0.8733 0.2396
vn 0.5496 0.4663 -0.6932
vn -0.5500 0.8281 0.1088
vn -0.7020 0.7059 -0.0947
vn 0.5499 0.4681 -0.6918
vn -0.8198 0.4367 -0.3705
vn -0.7718 0.5945 -0.2254
vn -0.7171 -0.1585 -0.6787
vn -0.7650 -0.0474 -0.6423
vn -0.5101 -0.4677 -0.7219
vn -0.5673 -0.3986 -0.7206
vn -0.3025 -0.6613 -0.6864
vn -0.2021 -0.7302 -0.6526
vn 0.2587 -0.8878 -0.3807
vn 0.4254 -0.8730 -0.2384
vn 0.5501 -0.8280 -0.1087
vn 0.7021 -0.7058 0.0948
vn -0.6499 0.7600 -0.0000
vn 0.0069 -0.0081 -0.9999
vn -0.0166 0.0194 -0.9997
vn 0.0305 -0.0356 -0.9989
vn 0.0539 -0.0630 -0.9966
vn 0.6499 -0.7600 -0.0000
vn 0.7699 0.6381 -0.0000
vn 0.0069 -0.0081 0.9999
vn 0.0304 -0.0356 0.9989
vn 0.0539 -0.0630 0.9966
vn -0.0166 0.0194 0.9997
vn -0.0264 0.0786 -0.9966
vn -0.0372 0.1242 -0.9916
vn -0.0271 0.1305 -0.9911
vn -0.6646 -0.7472 -0.0001
vn -0.6642 -0.7475 -0.0000
vn -0.6665 -0.7455 -0.0001
vn -0.6847 -0.7288 -0.0000
vn 0.0109 0.0651 -0.9978
vn -0.0097 -0.0100 -0.9999
vn -0.7060 -0.7082 -0.0000
vn 0.0350 0.0348 -0.9988
vn 0.0154 0.0145 -0.9998
vn -0.7267 -0.6870 -0.0000
vn -0.0101 -0.0095 -0.9999
vn 0.0408 0.0386 0.9984
vn 0.0198 0.0204 0.9996
vn -0.0101 -0.0095 0.9999
vn -0.0097 -0.0100 0.9999
vn 0.0650 0.0668 0.9956
vn 0.0662 0.0626 0.9958
vn 0.0646 0.0683 -0.9956
vn 0.0273 0.1101 -0.9935
vn 0.0274 0.1101 0.9935
vn 0.0109 0.0651 0.9978
vn 0.0662 0.0626 -0.9958
vn -0.0272 0.1305 0.9911
vn -0.0264 0.0787 0.9966
vn -0.0372 0.1242 0.9916
vn 0.0164 0.0129 -0.9998
vn -0.0108 -0.0084 -0.9999
vn -0.7868 -0.6172 -0.0000
vn -0.0108 -0.0084 0.9999
vn 0.0164 0.0128 0.9998
vn 0.0436 0.0342 0.9985
vn 0.0706 0.0554 0.9960
vn 0.0706 0.0554 -0.9960
vn 0.0435 0.0341 -0.9985
vn 0.0196 -0.0080 -0.9998
vn -0.0129 0.0052 -0.9999
vn -0.9263 0.3767 -0.0001
vn -0.9263 0.3767 -0.0000
vn -0.0129 0.0052 0.9999
vn 0.0197 -0.0080 0.9998
vn 0.0520 -0.0212 0.9984
vn 0.0844 -0.0343 0.9958
vn 0.0844 -0.0343 -0.9958
vn 0.0520 -0.0212 -0.9984
vn -0.7868 -0.6172 -0.0001
vn 0.0164 0.0129 0.9998
vn 0.0435 0.0342 -0.9985
vn -0.0125 -0.0472 0.9988
vn 0.0126 0.0053 0.9999
vn -0.0572 0.0262 0.9980
vn -0.0351 -0.0148 0.9993
vn 0.9211 0.3893 -0.0001
vn 0.0126 0.0053 -0.9999
vn -0.0192 -0.0081 -0.9998
vn 0.9211 0.3893 -0.0000
vn -0.0510 -0.0215 -0.9985
vn -0.9211 -0.3892 -0.0001
vn -0.9211 -0.3892 -0.0000
vn 0.2559 0.0853 0.9629
vn -0.0853 0.2559 0.9629
vn 0.0639 0.1919 0.9793
vn -0.1532 0.0510 0.9869
vn -0.2558 -0.0853 0.9629
vn -0.0639 -0.1919 0.9793
vn 0.0853 -0.2559 0.9629
vn 0.1531 -0.0510 0.9869
vn 0.0639 0.1919 -0.9793
vn -0.1531 0.0510 -0.9869
vn -0.0853 0.2559 -0.9629
vn 0.2559 0.0853 -0.9629
vn -0.2558 -0.0853 -0.9629
vn -0.0639 -0.1919 -0.9793
vn 0.0853 -0.2559 -0.9629
vn 0.1532 -0.0510 -0.9869
vt 0.011719 0.976320
vt 0.107414 0.761719
vt 0.226681 0.982299
vt 0.297849 0.822705
vt 0.107414 0.761721
vt 0.297846 0.822707
vt 0.226678 0.982301
vt 0.441643 0.988281
vt 0.488281 0.883690
vt 0.282278 0.375129
vt 0.011719 0.495014
vt 0.320914 0.398790
vt 0.291869 0.371094
vt 0.044494 0.515085
vt 0.077269 0.535156
vt 0.330506 0.394755
vt 0.353690 0.418862
vt 0.353690 0.418862
vt 0.044494 0.515085
vt 0.320915 0.398790
vt 0.330506 0.394755
vt 0.363281 0.414826
vt 0.400388 0.761719
vt 0.444335 0.786777
vt 0.011719 0.937096
vt 0.054504 0.962689
vt 0.011720 0.937096
vt 0.054503 0.962689
vt 0.444335 0.786778
vt 0.097286 0.988281
vt 0.488281 0.811835
vt 0.453830 0.413585
vt 0.497504 0.456713
vt 0.541178 0.499841
vt 0.573150 0.531413
vt 0.584852 0.542969
vt 0.497504 0.456713
vt 0.421859 0.382013
vt 0.410156 0.370457
vt 0.458822 0.406410
vt 0.426850 0.374837
vt 0.502496 0.449537
vt 0.502496 0.449537
vt 0.546170 0.492665
vt 0.578141 0.524238
vt 0.589844 0.535793
vt 0.578141 0.524237
vt 0.415148 0.363281
vt 0.746094 0.484497
vt 0.716235 0.542969
vt 0.746093 0.484497
vt 0.670120 0.478960
vt 0.699978 0.420487
vt 0.628906 0.421753
vt 0.658765 0.363282
vt 0.658765 0.363281
vt 0.034807 0.785623
vt 0.011719 0.773461
vt 0.063970 0.764253
vt 0.034807 0.785623
vt 0.270421 0.908467
vt 0.092996 0.779188
vt 0.308466 0.894027
vt 0.443386 0.978109
vt 0.398492 0.988281
vt 0.308466 0.894026
vt 0.346513 0.879585
vt 0.488281 0.967937
vt 0.121437 0.761719
vt 0.339376 0.939028
vt 0.190472 0.988281
vt 0.011719 0.859953
vt 0.190470 0.988280
vt 0.160810 0.810836
vt 0.339378 0.939030
vt 0.488281 0.889778
vt 0.309903 0.761719
vt 0.160812 0.810836
vt 0.094266 0.908766
vt 0.176816 0.988281
vt 0.488281 0.906386
vt 0.488281 0.906387
vt 0.378421 0.834053
vt 0.011719 0.829251
vt 0.268556 0.761719
vt 0.011719 0.844634
vt 0.207091 0.988280
vt 0.207091 0.988281
vt 0.160449 0.803176
vt 0.347685 0.940844
vt 0.160446 0.803176
vt 0.488281 0.893408
vt 0.309176 0.761719
vt 0.347687 0.940843
vt 0.123193 0.831775
vt 0.234660 0.761719
vt 0.455694 0.901649
vt 0.488279 0.815016
vt 0.234660 0.761720
vt 0.123193 0.831776
vt 0.488281 0.815017
vt 0.011719 0.901833
vt 0.423112 0.988281
vt 0.976562 0.023438
s 1
f 432/234/528 429/235/528 430/236/529
f 429/235/528 431/237/530 430/236/529
f 433/238/531 429/235/531 432/234/531
f 434/239/532 433/238/533 435/234/533
f 435/234/531 433/238/531 432/234/531
f 436/240/534 434/239/532 435/234/533
f 437/241/535 438/242/535 436/240/534
f 438/242/535 434/239/532 436/240/534
f 431/237/530 438/242/536 437/241/536
f 430/236/529 431/237/530 437/241/536
f 442/243/537 439/243/537 440/244/538
f 439/243/537 441/244/538 440/244/538
f 439/243/539 445/245/540 441/244/541
f 439/243/537 442/243/537 443/246/542
f 444/246/542 439/243/537 443/246/542
f 445/245/540 439/243/539 444/246/543
f 446/247/544 445/245/540 449/248/545
f 445/245/540 446/247/544 441/244/541
f 447/249/546 445/245/540 444/246/543
f 448/250/545 445/245/540 447/249/546
f 445/245/540 448/250/545 449/248/545
f 448/250/547 450/251/547 449/248/547
f 450/251/547 451/248/547 449/248/547
f 446/247/548 449/248/548 451/248/548
f 452/252/549 451/248/550 450/251/550
f 452/252/548 446/247/548 451/248/548
f 440/244/551 452/252/549 453/253/552
f 440/244/548 441/244/548 452/252/548
f 441/244/548 446/247/548 452/252/548
f 453/253/552 452/252/549 450/251/550
f 442/243/553 440/244/551 453/253/552
f 442/243/553 453/253/552 454/254/554
f 453/253/552 450/251/550 455/255/550
f 454/254/554 453/253/552 455/255/550
f 455/255/547 450/251/547 456/255/547
f 450/251/547 448/250/547 456/255/547
f 456/255/545 448/250/545 447/249/546
f 443/246/555 442/243/553 454/254/554
f 460/256/556 458/257/557 457/258/556
f 458/257/557 459/259/558 457/258/556
f 460/256/559 457/258/559 461/260/559
f 462/256/560 460/256/560 461/260/560
f 462/256/561 461/260/561 463/261/562
f 465/262/563 463/261/564 464/263/565
f 465/262/563 462/256/561 463/261/564
f 466/264/565 465/262/563 464/263/565
f 466/264/566 464/263/566 459/259/558
f 458/257/557 466/264/566 459/259/558
f 479/265/567 468/266/567 467/266/568
f 468/266/567 469/267/567 467/266/568
f 469/267/567 470/268/569 467/266/568
f 470/268/569 471/269/570 467/266/568
f 471/269/570 472/268/571 467/266/568
f 472/268/571 473/267/567 467/266/568
f 473/267/567 474/270/567 467/266/568
f 474/270/567 475/265/567 467/266/568
f 475/265/567 476/271/572 467/266/568
f 476/271/572 477/272/570 467/266/568
f 477/272/570 478/271/571 467/266/568
f 478/271/571 479/265/567 467/266/568
f 479/265/573 481/273/574 468/266/575
f 478/271/576 480/274/577 479/265/573
f 480/274/577 481/273/574 479/265/573
f 483/275/578 481/273/578 482/276/579
f 481/273/578 480/274/580 482/276/579
f 481/273/574 483/275/581 468/266/575
f 468/266/575 483/275/581 469/267/582
f 483/275/581 484/277/583 469/267/582
f 484/277/578 483/275/578 482/276/579
f 469/267/582 484/277/583 470/268/584
f 484/277/583 485/278/585 470/268/584
f 485/278/586 484/277/578 482/276/579
f 470/268/584 485/278/585 471/269/587
f 485/278/585 486/279/588 471/269/587
f 486/279/589 485/278/586 482/276/579
f 487/280/580 486/279/589 482/276/579
f 486/279/588 487/280/590 472/268/591
f 471/269/587 486/279/588 472/268/591
f 488/277/578 487/280/580 482/276/579
f 487/280/590 488/277/592 473/267/593
f 472/268/591 487/280/590 473/267/593
f 489/276/578 488/277/578 482/276/579
f 488/277/592 489/276/594 474/270/595
f 473/267/593 488/277/592 474/270/595
f 474/270/595 489/276/594 475/265/596
f 489/276/594 490/273/597 475/265/596
f 490/273/578 489/276/578 482/276/579
f 475/265/596 490/273/597 476/271/598
f 490/273/597 491/274/599 476/271/598
f 491/274/586 490/273/578 482/276/579
f 476/271/598 491/274/599 477/272/600
f 491/274/599 492/281/601 477/272/600
f 492/281/589 491/274/586 482/276/579
f 477/272/600 492/281/601 478/271/576
f 492/281/601 480/274/577 478/271/576
f 480/274/580 492/281/589 482/276/579
f 496/282/602 493/283/602 494/284/602
f 493/283/602 495/283/602 494/284/602
f 497/285/603 493/283/604 496/282/604
f 498/286/605 497/285/603 496/282/604
f 499/287/606 497/285/603 498/286/605
f 500/287/607 499/287/607 501/288/607
f 501/288/606 499/287/606 498/286/605
f 502/289/607 500/287/607 501/288/607
f 502/289/608 501/288/608 498/286/608
f 504/286/609 503/285/610 502/289/611
f 503/285/610 500/287/611 502/289/611
f 504/286/608 502/289/608 496/282/608
f 496/282/608 502/289/608 498/286/608
f 494/284/608 504/286/608 496/282/608
f 494/284/612 495/283/612 504/286/609
f 495/283/612 503/285/610 504/286/609
f 505/290/613 506/291/614 508/292/615
f 505/290/616 507/293/617 506/291/618
f 507/293/617 505/290/616 510/294/619
f 509/295/620 505/290/613 508/292/615
f 505/290/613 509/295/620 510/294/621
f 512/294/622 507/293/617 510/294/619
f 509/295/620 511/296/623 510/294/621
f 510/294/621 511/296/623 513/297/624
f 512/294/622 510/294/619 514/298/625
f 514/298/626 510/294/621 513/297/624
f 515/298/625 512/294/622 514/298/625
f 517/297/627 516/299/628 515/298/629
f 516/299/628 512/294/630 515/298/629
f 519/300/631 516/299/628 517/297/627
f 518/301/632 519/300/631 517/297/627
f 511/296/623 509/295/620 519/300/633
f 509/295/620 521/302/634 519/300/633
f 521/302/635 520/295/636 519/300/631
f 520/295/636 516/299/628 519/300/631
f 511/296/623 519/300/633 518/301/637
f 520/295/636 521/302/635 508/292/638
f 521/302/634 509/295/620 508/292/615
f 520/295/636 507/293/639 512/294/630
f 507/293/639 520/295/636 508/292/638
f 516/299/628 520/295/636 512/294/630
f 513/297/624 511/296/623 518/301/637
f 506/291/640 507/293/639 508/292/638
f 523/303/641 522/304/642 524/305/642
f 524/305/643 522/304/643 525/305/643
f 522/304/643 526/306/643 525/305/643
f 525/305/644 526/306/644 527/307/645
f 526/306/644 528/308/646 527/307/645
f 528/308/646 529/309/647 530/310/647
f 527/307/645 528/308/646 530/310/647
f 530/310/648 529/309/648 531/311/649
f 529/309/648 523/303/641 531/311/649
f 531/311/649 523/303/641 524/305/642
f 533/312/650 532/313/651 534/314/651
f 534/314/652 532/313/653 535/315/652
f 532/313/653 536/313/653 535/315/652
f 535/315/654 536/313/654 537/316/655
f 536/313/654 538/312/656 537/316/655
f 538/312/656 539/317/657 540/318/657
f 537/316/655 538/312/656 540/318/657
f 540/318/658 539/317/658 541/316/659
f 539/317/658 533/312/650 541/316/659
f 541/316/659 533/312/650 534/314/651
f 542/319/660 543/320/660 545/321/660
f 543/320/642 542/319/642 544/322/641
f 546/319/643 542/319/643 545/321/643
f 545/321/644 547/323/661 546/319/644
f 547/323/661 548/324/646 546/319/644
f 550/325/647 549/326/647 548/324/646
f 547/323/661 550/325/647 548/324/646
f 550/325/648 551/327/662 549/326/648
f 551/327/649 543/320/642 544/322/641
f 551/327/649 544/322/641 549/326/648
f 555/328/663 552/329/664 553/330/665
f 552/329/664 554/331/664 553/330/666
f 554/331/667 552/329/667 556/332/667
f 556/332/668 557/333/669 558/334/668
f 558/334/670 554/331/670 556/332/670
f 557/333/669 559/330/671 558/334/668
f 557/333/669 560/335/672 559/330/671
f 560/335/672 561/336/673 559/330/671
f 560/335/672 555/328/663 561/336/673
f 555/328/663 553/330/665 561/336/673
f 563/337/674 562/337/675 564/337/676
f 564/337/676 562/337/675 565/337/677
f 562/337/675 566/337/678 565/337/677
f 565/337/677 566/337/678 567/337/679
f 566/337/678 568/337/680 567/337/679
f 568/337/680 563/337/674 569/337/681
f 567/337/679 568/337/680 569/337/681
f 569/337/681 563/337/674 564/337/676
f 564/337/676 565/337/677 569/337/681
f 565/337/677 567/337/679 569/337/681
f 571/337/682 573/337/683 570/337/684
f 571/337/682 570/337/684 572/337/685
f 573/337/683 574/337/686 570/337/684
f 573/337/683 575/337/687 574/337/686
f 575/337/687 576/337/688 574/337/686
f 577/337/689 572/337/685 576/337/688
f 575/337/687 577/337/689 576/337/688
f 571/337/682 577/337/689 573/337/683
f 577/337/689 571/337/682 572/337/685
f 577/337/689 575/337/687 573/337/683
f 579/337/674 578/337/675 580/337/676
f 580/337/676 578/337/675 581/337/677
f 578/337/675 582/337/678 581/337/677
f 581/337/677 582/337/678 583/337/679
f 582/337/678 584/337/680 583/337/679
f 584/337/680 579/337/674 585/337/681
f 583/337/679 584/337/680 585/337/681
f 580/337/676 581/337/677 585/337/681
f 585/337/681 579/337/674 580/337/676
f 581/337/677 583/337/679 585/337/681
f 587/337/682 589/337/683 586/337/684
f 587/337/682 586/337/684 588/337/685
f 589/337/683 590/337/686 586/337/684
f 589/337/683 591/337/687 590/337/686
f 591/337/687 592/337/688 590/337/686
f 593/337/689 588/337/685 592/337/688
f 591/337/687 593/337/689 592/337/688
f 593/337/689 587/337/682 588/337/685
f 587/337/682 593/337/689 589/337/683
f 593/337/689 591/337/687 589/337/683
f 595/337/674 594/337/675 596/337/676
f 596/337/676 594/337/675 597/337/677
f 594/337/675 598/337/678 597/337/677
f 597/337/677 598/337/678 599/337/679
f 598/337/678 600/337/680 599/337/679
f 600/337/680 595/337/674 601/337/681
f 599/337/679 600/337/680 601/337/681
f 601/337/681 595/337/674 596/337/676
f 596/337/676 597/337/677 601/337/681
f 597/337/677 599/337/679 601/337/681
f 603/337/682 605/337/683 602/337/684
f 603/337/682 602/337/684 604/337/685
f 605/337/683 606/337/686 602/337/684
f 605/337/683 607/337/687 606/337/686
f 607/337/687 608/337/688 606/337/686
f 609/337/689 604/337/685 608/337/688
f 607/337/687 609/337/689 608/337/688
f 603/337/682 609/337/689 605/337/683
f 609/337/689 603/337/682 604/337/685
f 609/337/689 607/337/687 605/337/683
o effect
v -35.314335 -2.392070 -2.462378
v -91.665604 -3.963763 2.726910
v -35.314335 -2.392069 2.462378
v -91.665604 -3.963763 -2.726910
v -92.026230 2.245052 -4.570762
v -35.111408 3.501204 -3.777248
v -35.111408 3.501205 3.777248
v -92.026230 2.245053 4.570762
v -35.408695 9.397366 2.462377
v -35.408695 9.397366 -2.462379
v -92.386932 8.453868 2.726909
v -138.548248 4.584485 2.726910
v -92.386932 8.453868 -2.726911
v -138.548248 4.584485 -2.726910
v -181.484344 -1.342805 -2.726910
v -180.550125 -7.488702 -4.570762
v -137.891144 -1.599729 -4.570762
v -137.234222 -7.783860 -2.726910
v -179.616043 -13.634519 -2.726909
v -231.709442 -24.028351 -2.640480
v -231.709442 -24.028351 2.640484
v -179.616043 -13.634519 2.726911
v -180.550125 -7.488701 4.570763
v -137.234222 -7.783860 2.726911
v -137.891144 -1.599728 4.570762
v -181.484344 -1.342805 2.726910
v -234.213257 -11.648466 -2.640481
v -234.213257 -11.648466 2.640483
v -233.223190 -17.897800 4.050473
v -233.223190 -17.897800 -4.050470
v -35.271679 -2.052115 -1.933396
v -35.330208 8.239560 -1.933397
v -35.271679 -2.052114 1.933396
v -35.330208 8.239560 1.933395
v -35.303467 3.537883 -2.983816
v -35.303467 3.537884 2.983816
v -231.421295 -22.793499 -1.933394
v -233.531799 -12.517607 -1.933395
v -231.421295 -22.793499 1.933398
v -233.531799 -12.517607 1.933397
v -232.476486 -17.655556 -2.983814
v -232.476486 -17.655556 2.983817
v -179.765778 -12.625747 -1.933395
v -181.343063 -2.245754 -1.933396
v -179.765778 -12.625747 1.933397
v -181.343063 -2.245754 1.933396
v -180.554352 -7.435834 -2.983815
v -180.554352 -7.435834 2.983816
v -137.337936 -6.784277 -1.933396
v -138.452286 3.659352 -1.933396
v -137.337936 -6.784277 1.933396
v -138.452286 3.659352 1.933396
v -137.895065 -1.562503 -2.983816
v -137.895065 -1.562502 2.983816
v -91.720673 -2.977033 -1.933396
v -92.337402 7.508214 -1.933397
v -91.720673 -2.977033 1.933396
v -92.337402 7.508214 1.933395
v -92.028999 2.265590 -2.983816
v -92.028999 2.265591 2.983816
v -231.421295 -22.793499 -1.933394
v -232.476486 -17.655556 -2.983814
v -231.421295 -22.793499 1.933398
v -232.476486 -17.655556 2.983817
v -233.531799 -12.517607 1.933397
v -233.531799 -12.517607 -1.933395
v -79.258751 -2.857776 -2.215558
v -79.258751 -2.857775 2.215640
v -79.376602 2.729634 -3.548222
v -76.647888 2.778544 -3.548222
v -76.606575 -2.810292 -2.215558
v -76.606575 -2.810291 2.215640
v -79.376602 2.729634 3.548222
v -76.647888 2.778545 3.548222
v -76.689209 8.367380 -2.215641
v -76.689209 8.367380 2.215557
v -79.494377 8.317125 2.215557
v -79.494377 8.317125 -2.215641
vn 0.0643 -0.9979 -0.0000
vn 0.0279 -0.9996 -0.0000
vn 0.0472 -0.9989 -0.0000
vn 1.0000 -0.0072 -0.0000
vn 0.9994 -0.0344 -0.0000
vn 0.0157 -0.2516 -0.9677
vn 0.0181 -0.2837 -0.9588
vn 0.0086 -0.0416 -0.9991
vn 0.0140 -0.0013 -0.9999
vn 0.9997 0.0232 -0.0000
vn 0.0140 -0.0013 0.9999
vn 0.0044 0.2519 0.9677
vn 0.0023 0.0424 0.9991
vn 0.0157 -0.2516 0.9677
vn 0.9987 0.0504 -0.0000
vn -0.0166 0.9999 -0.0000
vn -0.0501 0.9987 -0.0000
vn -0.0121 0.2840 0.9587
vn -0.0291 0.2828 0.9587
vn -0.1020 0.9948 -0.0000
vn -0.1184 0.9930 -0.0000
vn -0.1558 0.9878 -0.0000
vn -0.0084 0.0415 -0.9991
vn -0.0474 0.2804 -0.9587
vn -0.0336 0.2823 -0.9587
vn 0.0024 0.0006 -1.0000
vn -0.0156 0.2838 -0.9588
vn 0.0290 -0.2828 -0.9587
vn 0.0443 -0.2809 -0.9587
vn 0.1957 -0.9807 -0.0000
vn 0.1754 -0.9845 -0.0000
vn 0.0433 -0.2484 -0.9677
vn 0.1572 -0.9876 -0.0000
vn 0.1184 -0.9930 -0.0000
vn 0.0022 -0.0421 0.9991
vn 0.0466 -0.2805 0.9587
vn 0.0336 -0.2823 0.9587
vn 0.0433 -0.2484 0.9677
vn 0.1020 -0.9948 -0.0000
vn -0.0025 0.0001 1.0000
vn 0.0198 -0.2836 0.9587
vn -0.0448 0.2808 0.9587
vn -0.1729 0.9849 -0.0000
vn -0.1918 0.9814 -0.0000
vn -0.0540 0.2460 0.9678
vn -0.9831 -0.1833 -0.0000
vn -0.9877 -0.1565 -0.0000
vn -0.0090 -0.0048 0.9999
vn -0.9770 -0.2132 -0.0000
vn -0.9708 -0.2397 -0.0000
vn -0.0090 -0.0047 -0.9999
vn -0.0540 0.2460 -0.9678
vn 0.0044 0.2519 -0.9677
vn 0.0379 -0.1927 -0.9805
vn -0.0113 0.0633 -0.9979
vn 0.0017 0.0006 -1.0000
vn 0.0307 -0.1938 -0.9806
vn 0.0120 -0.0678 0.9976
vn 0.0379 -0.1927 0.9805
vn 0.0341 -0.1932 0.9806
vn -0.0018 -0.0000 1.0000
vn 0.1931 -0.9812 -0.0000
vn 0.1736 -0.9848 -0.0000
vn 0.1561 -0.9877 -0.0000
vn -0.0379 0.1927 -0.9805
vn -0.0340 0.1933 -0.9806
vn -0.1931 0.9812 -0.0000
vn -0.1736 0.9848 -0.0000
vn -0.1560 0.9878 -0.0000
vn -0.0379 0.1927 0.9805
vn -0.0306 0.1938 0.9806
vn 0.0016 0.0004 -1.0000
vn 0.0200 -0.1951 -0.9806
vn 0.0232 -0.1948 0.9806
vn -0.0017 0.0001 1.0000
vn 0.1181 -0.9930 -0.0000
vn 0.1016 -0.9948 -0.0000
vn -0.0232 0.1948 -0.9806
vn -0.1180 0.9930 -0.0000
vn -0.1016 0.9948 -0.0000
vn -0.0200 0.1951 0.9806
vn 0.0020 0.0041 -1.0000
vn 0.0081 -0.1921 -0.9813
vn 0.0118 -0.1958 0.9806
vn -0.0024 0.0336 0.9994
vn 0.0601 -0.9982 -0.0000
vn 0.0395 -0.9992 -0.0000
vn -0.0115 0.1958 -0.9806
vn -0.0480 0.9988 -0.0000
vn -0.0095 0.1959 0.9806
vn 0.0037 -0.1905 0.9817
vn -0.0003 0.0158 0.9999
vn 0.0164 -0.9999 -0.0000
vn -0.0037 0.2071 0.9783
vn -0.0128 0.9999 -0.0000
vn -0.0037 0.2071 -0.9783
vn 0.0016 -0.0565 -0.9984
vn 0.0030 -0.1847 -0.9828
vn 1.0000 0.0057 -0.0000
vn -0.9796 -0.2012 -0.0000
vn 0.0179 -0.9998 -0.0000
vn -0.9998 -0.0211 -0.0000
vn 0.0042 -0.2319 -0.9727
vn -0.0017 0.0817 -0.9967
vn 0.0030 -0.0818 -0.9966
vn -0.0027 0.0765 0.9971
vn 0.0016 -0.0767 0.9971
vn 0.0042 -0.2319 0.9727
vn 1.0000 0.0074 -0.0000
vn -0.0042 0.2319 0.9727
vn -0.0179 0.9998 -0.0000
vn -0.0042 0.2319 -0.9727
vt 0.352875 0.633003
vt 0.487720 0.624855
vt 0.488281 0.599537
vt 0.352092 0.606343
vt 0.487645 0.574219
vt 0.351308 0.579684
vt 0.240814 0.597448
vt 0.138009 0.623971
vt 0.140166 0.650346
vt 0.242306 0.623994
vt 0.243799 0.650540
vt 0.142322 0.676721
vt 0.017551 0.722656
vt 0.011719 0.669544
vt 0.014008 0.696362
vt 0.016650 0.722656
vt 0.014184 0.699027
vt 0.139093 0.650501
vt 0.140917 0.674377
vt 0.011719 0.675397
vt 0.137269 0.626624
vt 0.241684 0.622251
vt 0.242951 0.646281
vt 0.240416 0.598221
vt 0.351952 0.603328
vt 0.352622 0.627461
vt 0.351283 0.579196
vt 0.488281 0.621609
vt 0.488281 0.595868
vt 0.488281 0.574219
vt 0.628906 0.511340
vt 0.628906 0.394910
vt 0.687500 0.542969
vt 0.687500 0.363281
vt 0.746094 0.394910
vt 0.746094 0.511340
vt 0.629684 0.397023
vt 0.628906 0.397023
vt 0.628906 0.509225
vt 0.687088 0.542969
vt 0.687889 0.542969
vt 0.629684 0.509225
vt 0.687889 0.363281
vt 0.687088 0.363281
vt 0.745271 0.397025
vt 0.746094 0.509227
vt 0.746094 0.397025
vt 0.745271 0.509227
s 1
f 613/338/690 610/339/691 611/338/692
f 610/339/691 612/339/691 611/338/692
f 616/340/693 612/339/694 610/339/694
f 610/339/695 613/338/696 614/341/697
f 615/340/698 610/339/695 614/341/697
f 615/340/699 616/340/693 610/339/694
f 616/340/700 618/342/701 617/341/702
f 612/339/703 616/340/700 617/341/702
f 618/342/704 616/340/693 615/340/699
f 619/342/704 618/342/704 615/340/699
f 618/342/705 619/342/705 620/343/706
f 618/342/701 620/343/707 617/341/702
f 620/343/707 621/344/708 617/341/702
f 623/344/709 621/344/710 620/343/706
f 619/342/705 622/343/706 620/343/706
f 622/343/706 623/344/709 620/343/706
f 623/344/709 624/345/711 621/344/710
f 625/346/712 624/345/713 623/344/714
f 626/347/715 625/346/712 623/344/714
f 626/347/715 623/344/714 622/343/716
f 614/341/697 626/347/715 622/343/716
f 627/348/717 626/347/715 614/341/697
f 628/349/718 625/346/712 626/347/715
f 627/348/717 628/349/718 626/347/715
f 630/350/719 629/350/719 628/349/720
f 628/349/718 629/350/721 625/346/712
f 631/349/722 630/350/719 628/349/720
f 631/349/722 628/349/720 627/348/723
f 632/346/724 631/349/725 633/348/726
f 630/350/727 631/349/725 632/346/724
f 633/348/728 631/349/722 627/348/723
f 634/347/729 632/346/724 633/348/726
f 633/348/728 627/348/723 613/338/690
f 634/347/729 633/348/726 611/338/730
f 611/338/692 633/348/728 613/338/690
f 621/344/708 634/347/729 617/341/702
f 621/344/708 635/345/731 634/347/729
f 635/345/731 632/346/724 634/347/729
f 617/341/702 634/347/729 611/338/730
f 624/345/711 635/345/732 621/344/710
f 624/345/711 636/351/733 635/345/732
f 636/351/733 637/351/733 635/345/732
f 635/345/731 637/351/734 632/346/724
f 638/352/735 637/351/736 636/351/736
f 637/351/734 638/352/737 632/346/724
f 639/352/738 638/352/735 636/351/736
f 630/350/739 638/352/735 639/352/738
f 638/352/737 630/350/727 632/346/724
f 629/350/739 630/350/739 639/352/738
f 629/350/721 639/352/740 625/346/712
f 639/352/740 636/351/741 625/346/712
f 636/351/741 624/345/713 625/346/712
f 613/338/696 627/348/717 614/341/697
f 622/343/716 619/342/742 614/341/697
f 619/342/742 615/340/698 614/341/697
f 611/338/730 612/339/703 617/341/702
f 646/353/743 650/354/744 656/355/745
f 652/356/746 646/353/743 656/355/745
f 651/354/747 648/353/748 654/356/749
f 657/355/750 651/354/747 654/356/749
f 648/353/751 646/353/751 652/356/752
f 654/356/753 648/353/751 652/356/752
f 650/354/744 647/357/754 653/358/755
f 656/355/745 650/354/744 653/358/755
f 647/357/756 649/357/756 655/358/757
f 653/358/758 647/357/756 655/358/757
f 649/357/759 651/354/747 657/355/750
f 655/358/760 649/357/759 657/355/750
f 652/356/746 656/355/745 662/359/761
f 658/360/762 652/356/746 662/359/761
f 657/355/750 654/356/749 660/360/763
f 663/359/764 657/355/750 660/360/763
f 654/356/753 652/356/752 658/360/765
f 660/360/766 654/356/753 658/360/765
f 656/355/745 653/358/755 659/361/767
f 662/359/761 656/355/745 659/361/767
f 653/358/758 655/358/757 661/361/768
f 659/361/769 653/358/758 661/361/768
f 655/358/760 657/355/750 663/359/764
f 661/361/770 655/358/760 663/359/764
f 658/360/762 662/359/761 668/362/771
f 664/363/772 658/360/762 668/362/771
f 663/359/764 660/360/763 666/363/773
f 669/362/774 663/359/764 666/363/773
f 660/360/766 658/360/765 664/363/775
f 666/363/776 660/360/766 664/363/775
f 662/359/761 659/361/767 665/364/777
f 668/362/771 662/359/761 665/364/777
f 659/361/769 661/361/768 667/364/778
f 665/364/778 659/361/769 667/364/778
f 661/361/770 663/359/764 669/362/774
f 667/364/779 661/361/770 669/362/774
f 642/365/780 645/366/781 669/362/774
f 666/363/773 642/365/780 669/362/774
f 640/365/782 642/365/782 666/363/776
f 664/363/775 640/365/782 666/363/776
f 643/367/783 667/364/779 669/362/774
f 645/366/781 643/367/783 669/362/774
f 641/367/784 665/364/778 667/364/778
f 643/367/784 641/367/784 667/364/778
f 641/367/785 644/366/786 668/362/771
f 665/364/777 641/367/785 668/362/771
f 644/366/786 640/365/787 664/363/772
f 668/362/771 644/366/786 664/363/772
f 643/367/788 645/366/788 644/366/788
f 641/367/788 643/367/788 644/366/788
f 645/366/788 642/365/788 640/365/788
f 644/366/788 645/366/788 640/365/788
f 670/368/789 672/369/789 671/370/789
f 672/369/789 673/371/789 671/370/789
f 673/371/789 674/372/789 675/373/789
f 671/370/789 673/371/789 675/373/789
f 681/374/790 677/375/790 676/376/790
f 677/375/791 678/377/791 676/376/791
f 676/376/792 678/377/793 679/378/794
f 680/379/792 676/376/792 679/378/794
f 680/379/790 681/374/790 676/376/790
f 683/380/795 682/381/796 681/374/797
f 682/381/796 677/375/797 681/374/797
f 680/379/798 679/378/798 681/374/798
f 683/380/798 681/374/798 679/378/798
f 686/382/799 682/381/796 683/380/795
f 684/383/798 683/380/798 679/378/798
f 684/383/798 685/384/798 683/380/798
f 685/384/799 686/382/799 683/380/795
f 687/385/800 686/382/800 685/384/800
f 687/385/791 678/377/791 686/382/791
f 686/382/791 678/377/791 682/381/791
f 678/377/793 687/385/801 684/383/801
f 684/383/800 687/385/800 685/384/800
f 679/378/794 678/377/793 684/383/801
f 678/377/791 677/375/791 682/381/791
