# Blender 5.2.0 LTS
# www.blender.org
o blade
v -32.474792 -4.447566 -2.673406
v 48.050255 -3.512379 2.673410
v 48.050255 -3.512380 -2.673406
v -32.474792 -4.447566 2.673410
v -35.269211 -4.429136 2.673410
v -35.269211 -4.429136 -2.673406
v -32.523491 3.612358 -4.208941
v -35.317905 3.630788 -4.208941
v -32.564800 10.449387 -2.673407
v 47.970863 9.626897 -2.673407
v 48.010551 3.057257 -4.208940
v 47.970863 9.626897 2.673409
v 48.010551 3.057258 4.208944
v -32.523491 3.612358 4.208943
v -32.564800 10.449387 2.673409
v -35.359215 10.467817 -2.673407
v -35.359215 10.467817 2.673409
v -35.317905 3.630788 4.208943
v -37.807766 -0.602279 -0.413059
v -89.446373 3.193911 -0.487020
v -37.887741 3.474942 -0.487020
v -89.211403 -0.881605 -0.413059
v -37.807766 -0.602279 0.413057
v -89.211403 -0.881605 0.413057
v -37.887741 3.474942 0.487016
v -89.446373 3.193911 0.487016
v -37.967716 7.552077 -0.000002
v -89.681419 7.269344 -0.000002
v -132.939270 -0.091917 -0.487019
v -133.312683 3.973191 -0.000002
v -173.858322 -1.521015 -0.000001
v -173.356293 -5.568797 -0.487019
v -132.939270 -0.091917 0.487016
v -173.356293 -5.568797 0.487017
v -132.565948 -4.156940 0.413057
v -172.854340 -9.616321 0.413057
v -132.565948 -4.156940 -0.413059
v -172.854340 -9.616321 -0.413059
v -215.411255 -17.971273 -0.413058
v -215.411255 -17.971273 0.413058
v -212.812012 -13.012933 -0.487018
v -214.623108 -9.461691 -0.000001
v -218.011963 -14.057668 -0.000000
v -212.812012 -13.012933 0.487017
v -219.608154 -18.780235 -0.000000
v -34.015800 -2.157500 -1.099300
v -42.484100 -2.225600 1.099300
v -34.015800 -2.157500 1.099300
v -42.484100 -2.225600 -1.099300
v -34.015800 3.610700 -1.295900
v -42.484100 3.542600 -1.295900
v -34.015800 8.765900 -0.723001
v -34.015800 8.765900 0.722999
v -42.484100 8.697800 -0.723001
v -42.484100 8.697800 0.722999
v -34.015800 3.610700 1.295900
v -42.484100 3.542600 1.295900
v -34.864811 3.600161 0.000003
v -34.864811 3.600161 14.718198
v -34.859154 -5.331424 14.332384
v -34.855064 -11.876558 8.278098
v -34.838463 -12.288182 0.000007
v -34.855061 -11.876547 -8.278075
v -34.859154 -5.331426 -14.332380
v -34.864811 3.600162 -14.718192
v -34.870441 12.535290 -14.334874
v -34.874573 19.075245 -8.276149
v -34.891159 19.488501 -0.000001
v -34.874573 19.075268 8.275996
v -34.870441 12.535280 14.334866
v -37.428440 19.080307 8.277899
v -37.424347 12.535226 14.332388
v -37.418690 3.603639 0.000003
v -37.418690 3.603638 14.718198
v -37.413059 -5.331476 14.334862
v -37.408928 -11.871442 8.276157
v -37.392342 -12.284704 0.000007
v -37.408928 -11.871445 -8.276140
v -37.413059 -5.331493 -14.334882
v -37.418690 3.603640 -14.718192
v -37.424347 12.535228 -14.332381
v -37.428436 19.080355 -8.278086
v -37.445038 19.491983 -0.000001
vn 0.0025 -1.0000 -0.0000
vn 0.0116 -0.9999 -0.0000
vn 0.0005 -0.1871 -0.9823
vn 0.0003 -0.0180 -0.9998
vn -0.0000 -0.2072 -0.9783
vn -0.0066 -1.0000 -0.0000
vn -0.0012 -0.1872 -0.9823
vn -0.0003 0.0869 -0.9962
vn 0.0018 0.2191 -0.9757
vn 0.0019 0.2234 -0.9747
vn -0.0000 -0.0019 -1.0000
vn 1.0000 0.0060 -0.0000
vn 0.0007 0.0094 1.0000
vn -0.0001 0.0729 0.9973
vn 0.0017 0.2219 0.9751
vn -0.0000 -0.2072 0.9783
vn 0.0023 0.2276 0.9737
vn 0.0084 1.0000 -0.0000
vn 0.0066 1.0000 -0.0000
vn 0.0102 0.9999 -0.0000
vn 0.0014 0.2191 0.9757
vn 0.0005 -0.0510 0.9987
vn 0.0005 -0.1871 0.9823
vn -0.0012 -0.1872 0.9823
vn 0.0014 0.2191 -0.9757
vn 0.0007 -0.0181 -0.9998
vn -0.0015 0.0277 -0.9996
vn 0.0001 -0.0181 -0.9998
vn -0.0012 0.0714 -0.9974
vn 0.0348 -0.9994 -0.0000
vn 0.0054 -1.0000 -0.0000
vn 0.0404 -0.9992 -0.0000
vn 0.0406 -0.9992 -0.0000
vn 0.0007 -0.0181 0.9998
vn 0.0001 -0.0181 0.9998
vn 0.0008 0.0259 0.9997
vn -0.0031 0.0732 0.9973
vn -0.0006 0.1186 0.9929
vn -0.0048 0.1184 0.9930
vn -0.0048 0.1184 -0.9930
vn -0.0006 0.1186 -0.9929
vn -0.0047 0.0503 -0.9987
vn -0.0133 0.1177 -0.9930
vn -0.0115 0.1179 0.9930
vn -0.0098 0.0635 -0.9979
vn -0.0204 0.1193 -0.9926
vn -0.0194 0.1188 0.9927
vn -0.0058 0.0504 0.9987
vn -0.0060 0.0364 0.9993
vn 0.0019 -0.0180 0.9998
vn 0.0966 -0.9953 -0.0000
vn 0.1554 -0.9878 -0.0000
vn 0.1130 -0.9936 -0.0000
vn 0.0029 -0.0179 0.9998
vn 0.1717 -0.9852 -0.0000
vn 0.0019 -0.0180 -0.9998
vn 0.0029 -0.0179 -0.9998
vn -0.0437 0.0543 -0.9976
vn 0.1910 -0.9816 -0.0000
vn -0.0662 0.0175 -0.9977
vn -0.1051 0.0524 -0.9931
vn -0.0631 0.1040 -0.9926
vn -0.1046 0.0354 -0.9939
vn -0.0436 0.0544 0.9976
vn -0.0631 0.1040 0.9926
vn -0.1051 0.0524 0.9931
vn -0.1046 0.0354 0.9939
vn -0.0662 0.0175 0.9977
vn 0.1893 -0.9819 -0.0000
vn 0.0080 -1.0000 -0.0000
vn -0.0003 0.0141 -0.9999
vn 0.0003 -0.0341 -0.9994
vn -0.0003 0.0624 -0.9981
vn -0.0009 0.1105 -0.9939
vn -0.0080 1.0000 -0.0000
vn -1.0000 -0.0000 -0.0000
vn -0.0003 0.0624 0.9981
vn -0.0009 0.1105 0.9939
vn -0.0003 0.0141 0.9999
vn 0.0003 -0.0341 0.9994
vn 1.0000 0.0006 -0.0000
vn 1.0000 0.0010 -0.0000
vn 1.0000 0.0011 0.0009
vn 1.0000 0.0017 -0.0000
vn 1.0000 0.0011 -0.0009
vn -0.0007 0.4534 0.8913
vn -0.0008 0.3135 0.9496
vn -0.0001 0.0583 0.9983
vn 0.0019 0.9456 0.3254
vn 0.0020 0.8567 0.5158
vn -1.0000 -0.0006 -0.0000
vn -1.0000 -0.0011 0.0009
vn -1.0000 -0.0010 -0.0000
vn 0.0001 -0.0583 0.9983
vn 0.0008 -0.3135 0.9496
vn 0.0007 -0.4534 0.8913
vn -0.0020 -0.8567 0.5158
vn -0.0019 -0.9456 0.3254
vn -1.0000 -0.0011 -0.0009
vn -1.0000 -0.0017 -0.0000
vn -0.0016 -0.9938 -0.1108
vn -0.0016 -0.9938 0.1109
vn -0.0020 -0.8562 -0.5167
vn -0.0019 -0.9457 -0.3251
vn 0.0008 -0.3136 -0.9496
vn 0.0007 -0.4541 -0.8910
vn 0.0001 -0.0585 -0.9983
vn -0.0001 0.0585 -0.9983
vn -0.0008 0.3136 -0.9496
vn -0.0007 0.4541 -0.8910
vn 0.0020 0.8562 -0.5167
vn 0.0019 0.9457 -0.3251
vn 0.0016 0.9938 -0.1108
vn 0.0016 0.9938 0.1109
vt 0.023508 0.535156
vt 0.363281 0.519007
vt 0.023508 0.446391
vt 0.011719 0.535156
vt 0.011719 0.446391
vt 0.023508 0.371094
vt 0.363281 0.374302
vt 0.363281 0.446655
vt 0.011719 0.371094
vt 0.353784 0.833084
vt 0.353378 0.802916
vt 0.488281 0.822133
vt 0.488281 0.791926
vt 0.488281 0.761719
vt 0.352972 0.772748
vt 0.239423 0.834785
vt 0.238654 0.804718
vt 0.133402 0.882364
vt 0.132296 0.852447
vt 0.240191 0.864852
vt 0.134507 0.912279
vt 0.029795 0.944358
vt 0.022740 0.981560
vt 0.016137 0.953000
vt 0.025239 0.918348
vt 0.011719 0.988281
vt 0.628906 0.542969
vt 0.629632 0.363281
vt 0.691131 0.363281
vt 0.690405 0.542969
vt 0.746094 0.363281
vt 0.745368 0.542969
vt 0.544922 0.375318
vt 0.500000 0.363281
vt 0.500000 0.453125
vt 0.455078 0.375318
vt 0.422193 0.408203
vt 0.410156 0.453125
vt 0.422193 0.498047
vt 0.455078 0.530932
vt 0.500000 0.542969
vt 0.544922 0.530932
vt 0.577807 0.498047
vt 0.589844 0.453125
vt 0.577807 0.408204
s 1
f 4/1/1 1/1/1 2/2/2
f 1/1/1 3/2/2 2/2/2
f 1/1/3 7/3/4 3/2/5
f 1/1/1 4/1/1 5/4/6
f 6/4/6 1/1/1 5/4/6
f 7/3/4 1/1/3 6/4/7
f 8/5/8 7/3/4 6/4/7
f 9/6/9 7/3/4 8/5/8
f 7/3/4 9/6/9 10/7/10
f 7/3/4 11/8/11 3/2/5
f 11/8/11 7/3/4 10/7/10
f 3/2/12 11/8/12 13/8/12
f 11/8/12 10/7/12 12/7/12
f 13/8/12 11/8/12 12/7/12
f 14/3/13 13/8/14 15/6/15
f 2/2/16 13/8/14 14/3/13
f 2/2/12 3/2/12 13/8/12
f 13/8/14 12/7/17 15/6/15
f 15/6/18 9/6/18 16/9/19
f 9/6/18 15/6/18 10/7/20
f 15/6/18 12/7/20 10/7/20
f 17/9/19 15/6/18 16/9/19
f 14/3/13 15/6/15 17/9/21
f 18/5/22 14/3/13 17/9/21
f 4/1/23 14/3/13 18/5/22
f 5/4/24 4/1/23 18/5/22
f 16/9/25 9/6/9 8/5/8
f 4/1/23 2/2/16 14/3/13
f 22/10/26 20/11/27 19/12/28
f 20/11/27 21/13/29 19/12/28
f 22/10/30 19/12/31 23/12/31
f 24/10/32 22/10/33 23/12/31
f 24/10/34 23/12/35 25/13/36
f 26/11/37 24/10/34 25/13/36
f 26/11/37 25/13/36 27/14/38
f 28/15/39 26/11/37 27/14/38
f 28/15/40 27/14/41 21/13/29
f 20/11/27 29/16/42 28/15/40
f 29/16/42 30/17/43 28/15/40
f 28/15/39 30/17/44 26/11/37
f 20/11/27 28/15/40 21/13/29
f 32/18/45 31/19/46 30/17/43
f 30/17/44 31/19/47 33/16/48
f 29/16/42 32/18/45 30/17/43
f 30/17/44 33/16/48 26/11/37
f 31/19/47 34/18/49 33/16/48
f 26/11/37 33/16/48 24/10/34
f 33/16/48 35/20/50 24/10/34
f 33/16/48 34/18/49 35/20/50
f 35/20/51 36/21/52 37/20/53
f 34/18/49 36/21/54 35/20/50
f 35/20/51 37/20/53 22/10/33
f 24/10/32 35/20/51 22/10/33
f 36/21/52 38/21/55 37/20/53
f 37/20/56 38/21/57 29/16/42
f 37/20/56 29/16/42 20/11/27
f 22/10/26 37/20/56 20/11/27
f 38/21/57 32/18/45 29/16/42
f 41/22/58 32/18/45 38/21/57
f 36/21/52 40/23/59 38/21/55
f 40/23/59 39/23/59 38/21/55
f 39/23/60 41/22/58 38/21/57
f 41/22/58 39/23/60 43/24/61
f 41/22/58 42/25/62 31/19/46
f 42/25/62 41/22/58 43/24/61
f 32/18/45 41/22/58 31/19/46
f 39/23/60 45/26/63 43/24/61
f 44/22/64 42/25/65 43/24/66
f 45/26/67 40/23/68 43/24/66
f 40/23/68 44/22/64 43/24/66
f 39/23/59 40/23/59 45/26/69
f 42/25/65 44/22/64 31/19/47
f 44/22/64 40/23/68 36/21/54
f 34/18/49 44/22/64 36/21/54
f 44/22/64 34/18/49 31/19/47
f 49/27/70 46/28/70 47/27/70
f 46/28/70 48/28/70 47/27/70
f 50/29/71 46/28/72 49/27/72
f 51/30/73 50/29/71 49/27/72
f 52/31/74 50/29/71 51/30/73
f 53/31/75 52/31/75 54/32/75
f 54/32/74 52/31/74 51/30/73
f 55/32/75 53/31/75 54/32/75
f 55/32/76 54/32/76 51/30/76
f 56/29/77 53/31/78 55/32/78
f 57/30/76 55/32/76 49/27/76
f 49/27/76 55/32/76 51/30/76
f 57/30/79 56/29/77 55/32/78
f 47/27/76 57/30/76 49/27/76
f 47/27/80 48/28/80 57/30/79
f 48/28/80 56/29/77 57/30/79
f 70/33/81 59/34/81 58/35/82
f 59/34/81 60/36/81 58/35/82
f 60/36/81 61/37/83 58/35/82
f 61/37/83 62/38/84 58/35/82
f 62/38/84 63/39/85 58/35/82
f 63/39/85 64/40/81 58/35/82
f 64/40/81 65/41/81 58/35/82
f 65/41/81 66/42/81 58/35/82
f 66/42/81 67/43/83 58/35/82
f 67/43/83 68/44/84 58/35/82
f 68/44/84 69/45/85 58/35/82
f 69/45/85 70/33/81 58/35/82
f 70/33/86 72/33/87 59/34/88
f 69/45/89 71/45/90 70/33/86
f 71/45/90 72/33/87 70/33/86
f 72/33/91 71/45/92 73/35/93
f 74/34/91 72/33/91 73/35/93
f 72/33/87 74/34/94 59/34/88
f 59/34/88 74/34/94 60/36/95
f 74/34/94 75/36/96 60/36/95
f 75/36/91 74/34/91 73/35/93
f 60/36/95 75/36/96 61/37/97
f 75/36/96 76/37/98 61/37/97
f 76/37/99 75/36/91 73/35/93
f 77/38/100 76/37/99 73/35/93
f 76/37/98 77/38/101 62/38/102
f 61/37/97 76/37/98 62/38/102
f 78/39/92 77/38/100 73/35/93
f 77/38/101 78/39/103 63/39/104
f 62/38/102 77/38/101 63/39/104
f 79/40/91 78/39/92 73/35/93
f 78/39/103 79/40/105 64/40/106
f 63/39/104 78/39/103 64/40/106
f 64/40/106 79/40/105 65/41/107
f 79/40/105 80/41/108 65/41/107
f 80/41/91 79/40/91 73/35/93
f 65/41/107 80/41/108 66/42/109
f 80/41/108 81/42/110 66/42/109
f 81/42/91 80/41/91 73/35/93
f 66/42/109 81/42/110 67/43/111
f 81/42/110 82/43/112 67/43/111
f 82/43/99 81/42/91 73/35/93
f 67/43/111 82/43/112 68/44/113
f 82/43/112 83/44/114 68/44/113
f 83/44/100 82/43/99 73/35/93
f 68/44/113 83/44/114 69/45/89
f 83/44/114 71/45/90 69/45/89
f 71/45/92 83/44/100 73/35/93
o blade_damaged
v -37.912891 -0.665104 -0.413059
v -89.352333 1.553926 -0.487020
v -37.887589 3.420911 -0.487020
v -89.222908 -2.525614 -0.413059
v -37.912891 -0.665104 0.413057
v -89.222908 -2.525614 0.413057
v -37.887589 3.420911 0.487016
v -37.862286 7.506839 -0.000002
v -89.352333 1.553926 0.487016
v -89.481834 5.633380 -0.000002
v -32.476555 -4.156232 -2.673406
v 48.050255 -3.512381 2.673410
v 48.050255 -3.512381 -2.673406
v -32.476555 -4.156232 2.673410
v -35.270969 -4.137802 2.673410
v -35.270969 -4.137802 -2.673406
v -32.523346 3.588414 -4.208941
v 48.010551 3.057257 -4.208940
v -35.317764 3.606844 -4.208941
v -32.563038 10.158053 -2.673407
v 47.970863 9.626896 -2.673407
v -32.563038 10.158053 2.673409
v 47.970863 9.626896 2.673409
v 48.010551 3.057257 4.208944
v -32.523346 3.588414 4.208943
v -35.317764 3.606845 4.208943
v -35.357456 10.176483 2.673409
v -35.357456 10.176483 -2.673407
v -34.864807 3.600123 0.000003
v -34.864807 3.600123 14.718282
v -34.859024 -5.331362 14.332397
v -34.854847 -11.876574 8.278175
v -34.837887 -12.288166 0.000007
v -34.854847 -11.876559 -8.278152
v -34.859024 -5.331365 -14.332393
v -34.864807 3.600124 -14.718276
v -34.870560 12.535231 -14.334940
v -34.874779 19.075148 -8.276183
v -34.891727 19.488411 -0.000001
v -34.874779 19.075172 8.276033
v -34.870560 12.535221 14.334933
v -37.428646 19.080320 8.277976
v -37.424465 12.535163 14.332397
v -37.418686 3.603676 14.718282
v -37.418682 3.603677 0.000003
v -37.408710 -11.871348 -8.276175
v -37.412930 -5.331433 -14.334947
v -37.418682 3.603678 -14.718276
v -37.424465 12.535165 -14.332391
v -37.428642 19.080368 -8.278162
v -37.412930 -5.331417 14.334929
v -37.445606 19.491968 -0.000001
v -37.408710 -11.871343 8.276191
v -37.391762 -12.284614 0.000007
v -34.015800 -2.157500 -1.099300
v -42.484100 -2.225600 1.099300
v -34.015800 -2.157500 1.099300
v -42.484100 -2.225600 -1.099300
v -34.015800 3.610700 -1.295900
v -42.484100 3.542600 -1.295900
v -34.015800 8.765900 -0.723001
v -34.015800 8.765900 0.722999
v -42.484100 8.697800 -0.723001
v -42.484100 8.697800 0.722999
v -34.015800 3.610700 1.295900
v -42.484100 3.542600 1.295900
vn 0.0007 -0.0181 -0.9998
vn -0.0002 0.0274 -0.9996
vn -0.0024 0.0263 -0.9997
vn -0.0014 0.0742 -0.9972
vn 0.0362 -0.9993 -0.0000
vn 0.0007 -0.0181 0.9998
vn -0.0011 0.0274 0.9996
vn -0.0027 0.0739 0.9973
vn -0.0007 0.0266 0.9996
vn -0.0043 0.1184 0.9930
vn -0.0027 0.0731 0.9973
vn -0.0043 0.1184 -0.9930
vn -0.0033 0.0731 -0.9973
vn 0.0007 -1.0000 -0.0000
vn 0.0080 -1.0000 -0.0000
vn 0.0001 -0.1945 -0.9809
vn 0.0001 -0.0188 -0.9998
vn -0.0002 -0.2109 -0.9775
vn -0.0066 -1.0000 -0.0000
vn -0.0013 -0.1945 -0.9809
vn -0.0000 -0.0018 -1.0000
vn 0.0015 0.2276 -0.9738
vn -0.0003 0.0904 -0.9959
vn 0.0066 1.0000 -0.0000
vn 1.0000 0.0060 -0.0000
vn -0.0005 0.0758 0.9971
vn 0.0015 0.2276 0.9738
vn 0.0006 0.0113 0.9999
vn -0.0002 -0.2109 0.9775
vn 0.0001 -0.1945 0.9809
vn 0.0006 -0.0532 0.9986
vn -0.0013 -0.1945 0.9809
vn 1.0000 0.0006 -0.0000
vn 1.0000 0.0010 -0.0000
vn 1.0000 0.0011 0.0009
vn 1.0000 0.0017 -0.0000
vn 1.0000 0.0011 -0.0009
vn -0.0007 0.4534 0.8913
vn -0.0008 0.3135 0.9496
vn -0.0001 0.0583 0.9983
vn 0.0019 0.9456 0.3254
vn 0.0020 0.8567 0.5158
vn 0.0001 -0.0583 0.9983
vn -1.0000 -0.0006 -0.0000
vn -1.0000 -0.0010 -0.0000
vn -1.0000 -0.0011 0.0009
vn -1.0000 -0.0017 -0.0000
vn -1.0000 -0.0011 -0.0009
vn -0.0017 -0.9938 0.1109
vn -0.0017 -0.9938 -0.1108
vn -0.0020 -0.9457 -0.3251
vn -0.0020 -0.9456 0.3254
vn -0.0020 -0.8562 -0.5167
vn -0.0021 -0.8567 0.5158
vn 0.0007 -0.4534 0.8913
vn 0.0017 0.9938 -0.1108
vn 0.0017 0.9938 0.1109
vn 0.0020 0.9457 -0.3251
vn 0.0008 -0.3135 0.9496
vn 0.0020 0.8562 -0.5167
vn -0.0007 0.4541 -0.8910
vn -0.0008 0.3136 -0.9496
vn -0.0001 0.0585 -0.9983
vn 0.0008 -0.3136 -0.9496
vn 0.0001 -0.0585 -0.9983
vn 0.0007 -0.4541 -0.8910
vn -0.0003 0.0141 -0.9999
vn 0.0003 -0.0341 -0.9994
vn -0.0003 0.0624 -0.9981
vn -0.0009 0.1105 -0.9939
vn -0.0080 1.0000 -0.0000
vn -1.0000 -0.0000 -0.0000
vn -0.0003 0.0141 0.9999
vn -0.0003 0.0624 0.9981
vn -0.0009 0.1105 0.9939
vn 0.0003 -0.0341 0.9994
vt 0.014576 0.988281
vt 0.013148 0.892507
vt 0.488281 0.953516
vt 0.488281 0.857616
vt 0.488281 0.761719
vt 0.011719 0.796734
vt 0.023508 0.535156
vt 0.363281 0.521689
vt 0.023508 0.446391
vt 0.011719 0.535156
vt 0.363281 0.446391
vt 0.363281 0.371094
vt 0.011719 0.446391
vt 0.023508 0.371094
vt 0.011719 0.371094
vt 0.544922 0.375318
vt 0.500000 0.363281
vt 0.500000 0.453125
vt 0.455078 0.375318
vt 0.422193 0.408203
vt 0.410156 0.453125
vt 0.422193 0.498047
vt 0.455078 0.530932
vt 0.500000 0.542969
vt 0.544922 0.530932
vt 0.577807 0.498047
vt 0.589844 0.453125
vt 0.577807 0.408204
vt 0.628906 0.542969
vt 0.629632 0.363281
vt 0.691131 0.363281
vt 0.690405 0.542969
vt 0.746094 0.363281
vt 0.745368 0.542969
s 1
f 87/46/115 85/47/116 84/48/115
f 85/47/117 86/49/118 84/48/115
f 87/46/119 84/48/119 88/48/119
f 89/46/119 87/46/119 88/48/119
f 89/46/120 88/48/120 90/49/121
f 92/47/122 90/49/123 91/50/124
f 92/47/122 89/46/120 90/49/123
f 93/51/124 92/47/125 91/50/124
f 93/51/126 91/50/126 86/49/127
f 85/47/117 93/51/126 86/49/118
f 97/52/128 94/52/128 95/53/129
f 94/52/128 96/53/129 95/53/129
f 94/52/130 100/54/131 96/53/132
f 94/52/128 97/52/128 98/55/133
f 99/55/133 94/52/128 98/55/133
f 100/54/131 94/52/130 99/55/134
f 101/56/135 100/54/131 104/57/136
f 100/54/131 101/56/135 96/53/132
f 102/58/137 100/54/131 99/55/134
f 103/59/136 100/54/131 102/58/137
f 100/54/131 103/59/136 104/57/136
f 103/59/138 105/59/138 104/57/138
f 105/59/138 106/57/138 104/57/138
f 101/56/139 104/57/139 106/57/139
f 107/56/140 106/57/141 105/59/141
f 107/56/139 101/56/139 106/57/139
f 96/53/139 101/56/139 107/56/139
f 108/54/142 107/56/140 105/59/141
f 95/53/143 107/56/140 108/54/142
f 95/53/139 96/53/139 107/56/139
f 97/52/144 108/54/142 109/58/145
f 97/52/144 95/53/143 108/54/142
f 108/54/142 105/59/141 110/60/141
f 109/58/145 108/54/142 110/60/141
f 110/60/138 105/59/138 111/60/138
f 105/59/138 103/59/138 111/60/138
f 111/60/136 103/59/136 102/58/137
f 98/55/146 97/52/144 109/58/145
f 124/61/147 113/62/147 112/63/148
f 113/62/147 114/64/147 112/63/148
f 114/64/147 115/65/149 112/63/148
f 115/65/149 116/66/150 112/63/148
f 116/66/150 117/67/151 112/63/148
f 117/67/151 118/68/147 112/63/148
f 118/68/147 119/69/147 112/63/148
f 119/69/147 120/70/147 112/63/148
f 120/70/147 121/71/149 112/63/148
f 121/71/149 122/72/150 112/63/148
f 122/72/150 123/73/151 112/63/148
f 123/73/151 124/61/147 112/63/148
f 124/61/152 126/61/153 113/62/154
f 123/73/155 125/73/156 124/61/152
f 125/73/156 126/61/153 124/61/152
f 126/61/153 127/62/157 113/62/154
f 127/62/158 126/61/158 128/63/159
f 126/61/158 125/73/160 128/63/159
f 130/68/158 129/67/160 128/63/159
f 129/67/160 137/66/161 128/63/159
f 131/69/158 130/68/158 128/63/159
f 132/70/158 131/69/158 128/63/159
f 133/71/162 132/70/158 128/63/159
f 134/64/158 127/62/158 128/63/159
f 135/72/161 133/71/162 128/63/159
f 136/65/162 134/64/158 128/63/159
f 125/73/160 135/72/161 128/63/159
f 137/66/161 136/65/162 128/63/159
f 116/66/163 137/66/164 117/67/165
f 136/65/166 137/66/164 116/66/163
f 137/66/164 129/67/167 117/67/165
f 115/65/168 136/65/166 116/66/163
f 134/64/169 136/65/166 115/65/168
f 122/72/170 135/72/171 123/73/155
f 133/71/172 135/72/171 122/72/170
f 135/72/171 125/73/156 123/73/155
f 114/64/173 134/64/169 115/65/168
f 127/62/157 134/64/169 114/64/173
f 121/71/174 133/71/172 122/72/170
f 132/70/175 133/71/172 121/71/174
f 120/70/176 132/70/175 121/71/174
f 131/69/177 132/70/175 120/70/176
f 130/68/178 131/69/177 119/69/179
f 119/69/179 131/69/177 120/70/176
f 129/67/167 130/68/178 118/68/180
f 118/68/180 130/68/178 119/69/179
f 117/67/165 129/67/167 118/68/180
f 113/62/154 127/62/157 114/64/173
f 141/74/129 138/75/129 139/74/129
f 138/75/129 140/75/129 139/74/129
f 142/76/181 138/75/182 141/74/182
f 143/77/183 142/76/181 141/74/182
f 144/78/184 142/76/181 143/77/183
f 145/78/185 144/78/185 146/79/185
f 146/79/184 144/78/184 143/77/183
f 147/79/185 145/78/185 146/79/185
f 147/79/186 146/79/186 143/77/186
f 149/77/187 148/76/188 147/79/189
f 148/76/188 145/78/189 147/79/189
f 149/77/186 147/79/186 141/74/186
f 141/74/186 147/79/186 143/77/186
f 140/75/190 148/76/188 149/77/187
f 139/74/190 140/75/190 149/77/187
f 139/74/186 149/77/186 141/74/186
o blade_fragment
v -215.931625 -18.138594 -0.413057
v -220.128448 -18.948765 0.000001
v -215.931625 -18.138594 0.413059
v -218.531265 -14.225461 0.000001
v -213.331390 -13.179222 -0.487017
v -173.375443 -9.771342 -0.413057
v -173.876419 -5.723707 -0.487018
v -173.375443 -9.771342 0.413059
v -133.460663 -0.235305 -0.487018
v -133.088303 -4.300475 -0.413058
v -133.088303 -4.300475 0.413058
v -89.969734 3.062763 -0.487018
v -89.735718 -1.012943 -0.413058
v -89.735718 -1.012943 0.413058
v -89.969734 3.062763 0.487018
v -133.460663 -0.235304 0.487018
v -173.876419 -5.723707 0.487018
v -133.833130 3.829953 -0.000000
v -174.377502 -1.675813 0.000000
v -213.331390 -13.179222 0.487019
v -215.141571 -9.628261 0.000001
v -90.203819 7.138384 -0.000001
vn -0.0662 0.0175 -0.9977
vn -0.1047 0.0354 -0.9939
vn -0.1051 0.0524 -0.9931
vn 0.1913 -0.9815 -0.0000
vn 0.1895 -0.9819 -0.0000
vn 0.1720 -0.9851 -0.0000
vn -0.0438 0.0542 -0.9976
vn 0.0029 -0.0179 -0.9998
vn -0.0097 0.0635 -0.9979
vn -0.0047 0.0503 -0.9987
vn 0.1557 -0.9878 -0.0000
vn 0.1133 -0.9936 -0.0000
vn 0.0019 -0.0180 -0.9998
vn -0.0015 0.0266 -0.9996
vn 0.0969 -0.9953 -0.0000
vn 0.0756 -0.9971 -0.0000
vn 0.0014 -0.0181 -0.9998
vn -0.0059 0.0720 0.9974
vn -0.0058 0.0504 0.9987
vn 0.0014 -0.0181 0.9998
vn 0.0019 -0.0180 0.9998
vn -0.0195 0.1188 0.9927
vn -0.0061 0.0364 0.9993
vn -0.0115 0.1179 0.9930
vn -0.0204 0.1193 -0.9926
vn -0.0631 0.1040 -0.9926
vn -0.0631 0.1040 0.9926
vn -0.0438 0.0543 0.9976
vn -0.0133 0.1177 -0.9930
vn -0.1052 0.0524 0.9931
vn -0.0662 0.0175 0.9977
vn 0.0029 -0.0179 0.9998
vn -0.0090 0.1181 -0.9930
vn -0.0090 0.1181 0.9930
vn -0.1047 0.0354 0.9939
vt 0.027074 0.981216
vt 0.011719 0.988281
vt 0.017874 0.951195
vt 0.182787 0.908389
vt 0.036902 0.942111
vt 0.181247 0.876944
vt 0.328954 0.826930
vt 0.330024 0.858536
vt 0.487716 0.793430
vt 0.488281 0.825142
vt 0.179706 0.845496
vt 0.327884 0.795324
vt 0.030555 0.914770
vt 0.487151 0.761719
s 1
f 150/80/191 151/81/192 153/82/193
f 150/80/194 152/80/194 151/81/195
f 152/80/194 150/80/194 155/83/196
f 154/84/197 150/80/191 153/82/193
f 150/80/191 154/84/197 155/83/198
f 154/84/197 156/85/199 155/83/198
f 155/83/198 156/85/199 158/86/200
f 157/83/201 155/83/196 159/87/202
f 157/83/201 152/80/194 155/83/196
f 159/87/203 155/83/198 158/86/200
f 159/87/203 158/86/200 161/88/204
f 160/87/205 159/87/202 162/89/206
f 160/87/205 157/83/201 159/87/202
f 162/89/207 159/87/203 161/88/204
f 163/89/206 160/87/205 162/89/206
f 164/88/208 165/86/209 163/89/210
f 165/86/209 160/87/211 163/89/210
f 168/90/212 166/85/213 165/86/209
f 165/86/209 166/85/213 160/87/211
f 167/91/214 165/86/209 164/88/208
f 167/91/214 168/90/212 165/86/209
f 156/85/199 154/84/197 168/90/215
f 154/84/197 170/92/216 168/90/215
f 170/92/217 169/84/218 168/90/212
f 169/84/218 166/85/213 168/90/212
f 156/85/199 168/90/215 167/91/219
f 169/84/218 170/92/217 153/82/220
f 170/92/216 154/84/197 153/82/193
f 152/80/221 169/84/218 153/82/220
f 166/85/213 169/84/218 157/83/222
f 169/84/218 152/80/221 157/83/222
f 158/86/200 167/91/219 171/93/223
f 158/86/200 156/85/199 167/91/219
f 171/93/224 167/91/214 164/88/208
f 161/88/204 158/86/200 171/93/223
f 166/85/213 157/83/222 160/87/211
f 151/81/225 152/80/221 153/82/220
o sheath
v -35.151520 -4.606251 -3.483364
v -91.580788 -5.117278 3.857580
v -35.151520 -4.606250 3.483364
v -91.580788 -5.117279 -3.857579
v -92.130501 3.663014 -6.465957
v -35.126854 3.711281 -5.343424
v -35.126854 3.711282 5.343423
v -92.130501 3.663015 6.465956
v -35.603607 12.048060 3.483363
v -35.603607 12.048060 -3.483365
v -92.680283 12.443311 3.857579
v -138.827194 8.378007 3.857579
v -92.680283 12.443311 -3.857581
v -138.827194 8.378007 -3.857581
v -181.679291 1.308304 -3.857580
v -180.556610 -7.400518 -6.465956
v -137.981079 -0.376529 -6.465956
v -137.135162 -9.130944 -3.857579
v -179.434082 -16.109221 -3.857579
v -231.328430 -29.209797 -3.735314
v -231.328430 -29.209797 3.735318
v -179.434082 -16.109221 3.857581
v -180.556610 -7.400517 6.465957
v -137.135162 -9.130944 3.857581
v -137.981079 -0.376528 6.465956
v -181.679291 1.308304 3.857580
v -234.213257 -11.648465 -3.735315
v -234.213257 -11.648465 3.735317
v -233.031479 -20.505075 5.729938
v -233.031479 -20.505075 -5.729935
v -35.109623 -4.125423 -2.735048
v -35.499813 10.409506 -2.735049
v -35.109623 -4.125423 2.735048
v -35.499813 10.409506 2.735047
v -35.321560 3.769329 -4.221008
v -35.321560 3.769330 4.221007
v -231.084976 -27.096348 -2.735046
v -233.531799 -12.517608 -2.735047
v -231.084976 -27.096348 2.735050
v -233.531799 -12.517608 2.735049
v -232.308334 -19.806982 -4.221006
v -232.308334 -19.806982 4.221009
v -179.626938 -14.402212 -2.735047
v -181.542542 0.306354 -2.735048
v -179.626938 -14.402212 2.735049
v -181.542542 0.306354 2.735048
v -180.584656 -7.048050 -4.221007
v -180.584656 -7.048049 4.221008
v -137.280426 -7.520053 -2.735048
v -138.733994 7.263463 -2.735049
v -137.280426 -7.520053 2.735049
v -138.733994 7.263463 2.735048
v -138.007156 -0.128353 -4.221008
v -138.007156 -0.128353 4.221008
v -91.670944 -3.613194 -2.735048
v -92.626976 11.213061 -2.735049
v -91.670944 -3.613193 2.735048
v -92.626976 11.213061 2.735047
v -92.148926 3.799933 -4.221008
v -92.148926 3.799933 4.221007
v -231.084976 -27.096348 -2.735046
v -232.308334 -19.806982 -4.221006
v -231.084976 -27.096348 2.735050
v -232.308334 -19.806982 4.221009
v -233.531799 -12.517608 2.735049
v -233.531799 -12.517608 -2.735047
v -79.258751 -2.857776 -3.134204
v -79.258751 -2.857775 3.134320
v -79.678795 5.012836 -5.019436
v -76.933235 4.934509 -5.019436
v -76.590210 -2.933983 -3.134204
v -76.590210 -2.933982 3.134320
v -79.678795 5.012837 5.019435
v -76.933235 4.934510 5.019435
v -77.276276 12.803001 -3.134321
v -77.276276 12.803001 3.134203
v -80.098763 12.883560 3.134203
v -80.098763 12.883560 -3.134321
vn 0.0570 -0.9984 0.0001
vn 0.0091 -1.0000 -0.0000
vn 0.0400 -0.9992 -0.0000
vn 0.9999 0.0119 -0.0000
vn 1.0000 -0.0030 -0.0000
vn 0.0160 -0.2537 -0.9672
vn 0.0169 -0.2838 -0.9587
vn 0.0073 -0.0397 -0.9992
vn 0.0199 -0.0066 -0.9998
vn 0.9991 0.0422 -0.0000
vn 0.0199 -0.0066 0.9998
vn 0.0146 0.2545 0.9670
vn 0.0047 0.0450 0.9990
vn 0.0160 -0.2537 0.9672
vn 0.9984 0.0571 -0.0000
vn 0.0069 1.0000 -0.0000
vn -0.0406 0.9992 -0.0000
vn -0.0086 0.2843 0.9587
vn -0.0332 0.2825 0.9587
vn -0.1171 0.9931 -0.0000
vn -0.1336 0.9910 -0.0000
vn -0.1927 0.9813 -0.0000
vn -0.0092 0.0437 -0.9990
vn -0.0580 0.2796 -0.9584
vn -0.0378 0.2819 -0.9587
vn 0.0020 0.0026 -1.0000
vn -0.0121 0.2841 -0.9587
vn 0.0335 -0.2825 -0.9587
vn 0.0554 -0.2801 -0.9584
vn 0.2448 -0.9696 -0.0000
vn 0.2129 -0.9771 -0.0000
vn 0.0524 -0.2497 -0.9669
vn 0.1949 -0.9808 -0.0000
vn 0.1335 -0.9911 -0.0000
vn -0.0005 -0.0405 0.9992
vn 0.0577 -0.2796 0.9584
vn 0.0381 -0.2819 0.9587
vn 0.0524 -0.2497 0.9669
vn 0.1172 -0.9931 -0.0000
vn -0.0029 0.0020 1.0000
vn 0.0186 -0.2837 0.9587
vn -0.0554 0.2801 0.9584
vn -0.2098 0.9778 -0.0000
vn -0.2395 0.9709 -0.0000
vn -0.0696 0.2465 0.9666
vn -0.9891 -0.1472 -0.0000
vn -0.9912 -0.1323 -0.0000
vn -0.0102 -0.0171 0.9998
vn -0.9842 -0.1771 -0.0000
vn -0.9814 -0.1920 -0.0000
vn -0.0102 -0.0170 -0.9998
vn -0.0696 0.2465 -0.9666
vn 0.0146 0.2545 -0.9670
vn 0.0473 -0.1919 -0.9803
vn -0.0066 0.0535 -0.9985
vn 0.0012 0.0022 -1.0000
vn 0.0381 -0.1933 -0.9804
vn 0.0120 -0.0785 0.9968
vn 0.0473 -0.1919 0.9803
vn 0.0415 -0.1926 0.9804
vn -0.0024 0.0013 1.0000
vn 0.2395 -0.9709 -0.0000
vn 0.2088 -0.9780 -0.0000
vn 0.1915 -0.9815 -0.0000
vn -0.0473 0.1919 -0.9803
vn -0.0408 0.1926 -0.9804
vn -0.2089 0.9779 -0.0000
vn -0.1913 0.9815 -0.0000
vn -0.0473 0.1919 0.9803
vn -0.0374 0.1933 0.9804
vn 0.0015 0.0019 -1.0000
vn 0.0227 -0.1949 -0.9806
vn 0.0259 -0.1946 0.9805
vn -0.0019 0.0014 1.0000
vn 0.1311 -0.9914 -0.0000
vn 0.1148 -0.9934 -0.0000
vn -0.0256 0.1945 -0.9806
vn -0.1312 0.9914 -0.0000
vn -0.1147 0.9934 -0.0000
vn -0.0224 0.1949 0.9806
vn 0.0023 0.0060 -1.0000
vn 0.0059 -0.1921 -0.9814
vn 0.0094 -0.1960 0.9806
vn -0.0023 0.0355 0.9994
vn 0.0484 -0.9988 -0.0000
vn 0.0279 -0.9996 -0.0000
vn -0.0092 0.1960 -0.9806
vn -0.0357 0.9994 -0.0000
vn -0.0072 0.1961 0.9806
vn -0.0007 -0.1911 0.9816
vn 0.0002 0.0102 0.9999
vn -0.0091 -1.0000 -0.0000
vn 0.0016 0.2070 0.9783
vn 0.0141 0.9999 -0.0000
vn 0.0016 0.2070 -0.9783
vn 0.0034 -0.0623 -0.9980
vn -0.0017 -0.1850 -0.9827
vn 0.9996 0.0268 -0.0000
vn -0.9862 -0.1655 -0.0000
vn -0.0285 -0.9996 -0.0000
vn -0.9986 -0.0533 -0.0000
vn -0.0067 -0.2333 -0.9724
vn -0.0040 0.0933 -0.9956
vn 0.0057 -0.0939 -0.9956
vn -0.0057 0.0644 0.9979
vn 0.0045 -0.0651 0.9979
vn -0.0067 -0.2333 0.9724
vn 0.9991 0.0436 -0.0000
vn 0.0067 0.2333 0.9724
vn 0.0285 0.9996 -0.0000
vn 0.0067 0.2333 -0.9724
vt 0.352875 0.633003
vt 0.487720 0.624855
vt 0.488281 0.599537
vt 0.352092 0.606343
vt 0.487645 0.574219
vt 0.351308 0.579684
vt 0.240814 0.597448
vt 0.138009 0.623971
vt 0.140166 0.650346
vt 0.242306 0.623994
vt 0.243799 0.650540
vt 0.142322 0.676721
vt 0.017551 0.722656
vt 0.011719 0.669544
vt 0.014008 0.696362
vt 0.016650 0.722656
vt 0.014184 0.699027
vt 0.139093 0.650501
vt 0.140917 0.674377
vt 0.011719 0.675397
vt 0.137269 0.626624
vt 0.241684 0.622251
vt 0.242951 0.646281
vt 0.240416 0.598221
vt 0.351952 0.603328
vt 0.352622 0.627461
vt 0.351283 0.579196
vt 0.488281 0.621609
vt 0.488281 0.595868
vt 0.488281 0.574219
vt 0.628906 0.511340
vt 0.628906 0.394910
vt 0.687500 0.542969
vt 0.687500 0.363281
vt 0.746094 0.394910
vt 0.746094 0.511340
vt 0.629684 0.397023
vt 0.628906 0.397023
vt 0.628906 0.509225
vt 0.687088 0.542969
vt 0.687889 0.542969
vt 0.629684 0.509225
vt 0.687889 0.363281
vt 0.687088 0.363281
vt 0.745271 0.397025
vt 0.746094 0.509227
vt 0.746094 0.397025
vt 0.745271 0.509227
s 1
f 175/94/226 172/95/227 173/94/228
f 172/95/227 174/95/227 173/94/228
f 178/96/229 174/95/230 172/95/230
f 172/95/231 175/94/232 176/97/233
f 177/96/234 172/95/231 176/97/233
f 177/96/235 178/96/229 172/95/230
f 178/96/236 180/98/237 179/97/238
f 174/95/239 178/96/236 179/97/238
f 180/98/240 178/96/229 177/96/235
f 181/98/240 180/98/240 177/96/235
f 180/98/241 181/98/241 182/99/242
f 180/98/237 182/99/243 179/97/238
f 182/99/243 183/100/244 179/97/238
f 185/100/245 183/100/246 182/99/242
f 181/98/241 184/99/242 182/99/242
f 184/99/242 185/100/245 182/99/242
f 185/100/245 186/101/247 183/100/246
f 187/102/248 186/101/249 185/100/250
f 188/103/251 187/102/248 185/100/250
f 188/103/251 185/100/250 184/99/252
f 176/97/233 188/103/251 184/99/252
f 189/104/253 188/103/251 176/97/233
f 190/105/254 187/102/248 188/103/251
f 189/104/253 190/105/254 188/103/251
f 192/106/255 191/106/255 190/105/256
f 190/105/254 191/106/257 187/102/248
f 193/105/258 192/106/255 190/105/256
f 193/105/258 190/105/256 189/104/259
f 194/102/260 193/105/261 195/104/262
f 192/106/263 193/105/261 194/102/260
f 195/104/264 193/105/258 189/104/259
f 196/103/265 194/102/260 195/104/262
f 195/104/264 189/104/259 175/94/226
f 196/103/265 195/104/262 173/94/266
f 173/94/228 195/104/264 175/94/226
f 183/100/244 196/103/265 179/97/238
f 183/100/244 197/101/267 196/103/265
f 197/101/267 194/102/260 196/103/265
f 179/97/238 196/103/265 173/94/266
f 186/101/247 197/101/268 183/100/246
f 186/101/247 198/107/269 197/101/268
f 198/107/269 199/107/269 197/101/268
f 197/101/267 199/107/270 194/102/260
f 200/108/271 199/107/272 198/107/272
f 199/107/270 200/108/273 194/102/260
f 201/108/274 200/108/271 198/107/272
f 192/106/275 200/108/271 201/108/274
f 200/108/273 192/106/263 194/102/260
f 191/106/275 192/106/275 201/108/274
f 191/106/257 201/108/276 187/102/248
f 201/108/276 198/107/277 187/102/248
f 198/107/277 186/101/249 187/102/248
f 175/94/232 189/104/253 176/97/233
f 184/99/252 181/98/278 176/97/233
f 181/98/278 177/96/234 176/97/233
f 173/94/266 174/95/239 179/97/238
f 208/109/279 212/110/280 218/111/281
f 214/112/282 208/109/279 218/111/281
f 213/110/283 210/109/284 216/112/285
f 219/111/286 213/110/283 216/112/285
f 210/109/287 208/109/287 214/112/288
f 216/112/289 210/109/287 214/112/288
f 212/110/280 209/113/290 215/114/291
f 218/111/281 212/110/280 215/114/291
f 209/113/269 211/113/269 217/114/292
f 215/114/293 209/113/269 217/114/292
f 211/113/294 213/110/283 219/111/286
f 217/114/295 211/113/294 219/111/286
f 214/112/282 218/111/281 224/115/296
f 220/116/297 214/112/282 224/115/296
f 219/111/286 216/112/285 222/116/298
f 225/115/299 219/111/286 222/116/298
f 216/112/289 214/112/288 220/116/300
f 222/116/301 216/112/289 220/116/300
f 218/111/281 215/114/291 221/117/302
f 224/115/296 218/111/281 221/117/302
f 215/114/293 217/114/292 223/117/303
f 221/117/304 215/114/293 223/117/303
f 217/114/295 219/111/286 225/115/299
f 223/117/305 217/114/295 225/115/299
f 220/116/297 224/115/296 230/118/306
f 226/119/307 220/116/297 230/118/306
f 225/115/299 222/116/298 228/119/308
f 231/118/309 225/115/299 228/119/308
f 222/116/301 220/116/300 226/119/310
f 228/119/311 222/116/301 226/119/310
f 224/115/296 221/117/302 227/120/312
f 230/118/306 224/115/296 227/120/312
f 221/117/304 223/117/303 229/120/313
f 227/120/313 221/117/304 229/120/313
f 223/117/305 225/115/299 231/118/309
f 229/120/314 223/117/305 231/118/309
f 204/121/315 207/122/316 231/118/309
f 228/119/308 204/121/315 231/118/309
f 202/121/317 204/121/317 228/119/311
f 226/119/310 202/121/317 228/119/311
f 205/123/318 229/120/314 231/118/309
f 207/122/316 205/123/318 231/118/309
f 203/123/319 227/120/313 229/120/313
f 205/123/319 203/123/319 229/120/313
f 203/123/320 206/122/321 230/118/306
f 227/120/312 203/123/320 230/118/306
f 206/122/321 202/121/322 226/119/307
f 230/118/306 206/122/321 226/119/307
f 205/123/323 207/122/323 206/122/323
f 203/123/323 205/123/323 206/122/323
f 207/122/323 204/121/323 202/121/323
f 206/122/323 207/122/323 202/121/323
f 232/124/324 234/125/324 233/126/324
f 234/125/324 235/127/324 233/126/324
f 235/127/324 236/128/324 237/129/324
f 233/126/324 235/127/324 237/129/324
f 243/130/325 239/131/325 238/132/325
f 239/131/326 240/133/326 238/132/326
f 238/132/327 240/133/328 241/134/329
f 242/135/327 238/132/327 241/134/329
f 242/135/325 243/130/325 238/132/325
f 245/136/330 244/137/331 243/130/332
f 244/137/331 239/131/332 243/130/332
f 242/135/333 241/134/333 243/130/333
f 245/136/333 243/130/333 241/134/333
f 248/138/334 244/137/331 245/136/330
f 246/139/333 245/136/333 241/134/333
f 246/139/333 247/140/333 245/136/333
f 247/140/334 248/138/334 245/136/330
f 249/141/335 248/138/335 247/140/335
f 249/141/326 240/133/326 248/138/326
f 248/138/326 240/133/326 244/137/326
f 240/133/328 249/141/336 246/139/336
f 246/139/335 249/141/335 247/140/335
f 241/134/329 240/133/328 246/139/336
f 240/133/326 239/131/326 244/137/326
o item_blade
v 26.590300 22.520599 11.862098
v 26.590300 22.520599 5.647598
v 33.175800 18.257101 13.730999
v 34.370899 19.927902 13.730998
v 27.751900 24.144600 11.862098
v 27.751900 24.144600 5.647598
v 34.370899 19.927900 3.778699
v 33.175800 18.257099 3.778699
v 39.761299 13.993600 5.647699
v 39.761299 13.993601 11.862199
v 40.990002 15.711200 5.647699
v 40.990002 15.711201 11.862199
v 0.000000 70.710701 -0.000005
v 70.710701 0.000000 0.000000
v 0.000000 55.656200 3.999996
v -55.656101 0.000000 4.000000
v -70.710701 0.000000 0.000000
v 0.000000 -55.656101 4.000004
v 0.000000 -70.710602 0.000005
v 55.656200 0.000000 4.000000
v 0.000000 70.710701 -0.000005
v 0.000000 55.656200 -4.000004
v 70.710701 0.000000 0.000000
v -55.656101 -0.000000 -4.000000
v -70.710701 0.000000 0.000000
v 0.000000 -55.656101 -3.999996
v 0.000000 -70.710602 0.000005
v 55.656200 -0.000000 -4.000000
v 0.000000 70.710701 -0.000005
v 70.710701 0.000000 0.000000
v 0.000000 55.656200 3.999996
v -55.656101 0.000000 4.000000
v -70.710701 0.000000 0.000000
v 0.000000 -55.656101 4.000004
v 0.000000 -70.710602 0.000005
v 55.656200 0.000000 4.000000
v 0.000000 70.710701 -0.000005
v 0.000000 55.656200 -4.000004
v 70.710701 0.000000 0.000000
v -55.656101 -0.000000 -4.000000
v -70.710701 0.000000 0.000000
v 0.000000 -55.656101 -3.999996
v 0.000000 -70.710602 0.000005
v 55.656200 -0.000000 -4.000000
v 0.000000 70.710701 -0.000005
v 70.710701 0.000000 0.000000
v 0.000000 55.656200 3.999996
v -55.656101 0.000000 4.000000
v -70.710701 0.000000 0.000000
v 0.000000 -55.656101 4.000004
v 0.000000 -70.710602 0.000005
v 55.656200 0.000000 4.000000
v 0.000000 70.710701 -0.000005
v 0.000000 55.656200 -4.000004
v 70.710701 0.000000 0.000000
v -55.656101 -0.000000 -4.000000
v -70.710701 0.000000 0.000000
v 0.000000 -55.656101 -3.999996
v 0.000000 -70.710602 0.000005
v 55.656200 -0.000000 -4.000000
v -46.676559 46.324772 11.839538
v -74.329185 84.676247 19.346458
v -74.329185 84.676247 11.839535
v -46.676449 46.324776 19.346460
v -45.763588 44.960823 19.346460
v -45.763474 44.960831 11.839538
v -55.513004 40.023823 9.683680
v -81.825066 79.331238 9.683677
v -54.600033 38.659874 9.683680
v -63.008770 34.678822 11.839539
v -89.320831 73.986237 11.839536
v -63.008770 34.678822 19.346462
v -89.320831 73.986237 19.346458
v -81.824951 79.331238 21.502321
v -55.513008 40.023708 21.502323
v -54.600033 38.659874 21.502323
v -62.095795 33.314873 19.346462
v -62.095795 33.314873 11.839539
v -49.071526 40.953312 15.013096
v -35.827488 12.704675 14.909210
v -53.586674 37.523300 14.909208
v -31.366711 16.208532 15.013098
v -49.071526 40.953312 16.172892
v -31.366711 16.208532 16.172894
v -53.586674 37.523300 16.276781
v -35.827488 12.704675 16.276781
v -58.101730 34.093460 15.592995
v -40.288113 9.200915 15.592997
v -17.450045 -5.695614 14.909211
v -21.852407 -9.258181 15.592999
v -2.012000 -24.389639 15.592999
v 2.327475 -20.779129 14.909213
v -17.450050 -5.695693 16.276783
v -13.047783 -2.133290 16.172895
v 2.327475 -20.779129 16.276785
v 6.666707 -17.168791 16.172897
v 23.971279 -33.759235 16.276785
v 20.627934 -37.592926 15.593000
v 30.374645 -30.898314 16.172897
v 26.894716 -35.417004 15.593000
v 30.374575 -30.898317 15.013101
v 23.971279 -33.759235 14.909214
v 32.695923 -32.264748 15.593000
v 6.666707 -17.168791 15.013100
v -13.047783 -2.133290 15.013099
v -54.627403 38.709583 16.110603
v -46.713299 26.803337 31.028873
v -36.580017 34.208462 30.812889
v -32.257355 44.303913 24.804623
v -36.254745 51.360943 16.460836
v -41.159950 57.696991 8.023234
v -51.993488 57.396824 1.758672
v -62.541721 50.615822 1.192434
v -72.680473 43.209946 1.405809
v -76.994507 33.115051 7.418729
v -73.000168 26.058218 15.760420
v -68.094215 19.725233 24.195791
v -57.264263 20.017660 30.465174
v -67.477905 18.835438 23.162462
v -56.644279 19.135479 29.427351
v -46.096172 25.916351 29.993578
v -54.010380 37.822590 15.075360
v -51.373508 56.514557 0.720760
v -61.924591 49.728836 0.157141
v -72.057907 42.323711 0.373109
v -76.380409 32.228367 6.381419
v -35.957344 33.322247 29.780125
v -72.383041 25.171232 14.725127
v -31.643345 43.417210 23.767284
v -35.637619 50.473953 15.425543
v -40.543732 56.807079 6.989965
v -48.378101 43.891602 14.049597
v -45.475899 39.865200 17.136396
v -48.378201 43.891602 17.136396
v -45.475899 39.865200 14.049597
v -55.037899 39.283600 13.773597
v -52.135700 35.257099 13.773597
v -60.990002 35.165298 14.577897
v -60.990002 35.165298 16.608099
v -58.087700 31.138903 14.577898
v -58.087799 31.138903 16.608099
v -55.037899 39.283501 17.412395
v -52.135700 35.257099 17.412397
v 21.865915 49.608486 10.806144
v 3.566592 10.119441 4.515466
v 21.865915 49.608486 4.515463
v 3.566592 10.119442 10.806147
v 26.622459 44.951797 12.514939
v 26.622459 44.951797 2.806668
v 8.231386 5.266638 2.806671
v 31.379005 40.295227 4.515464
v 31.379005 40.295227 10.806145
v 12.896026 0.413953 4.515467
v -4.773350 -29.669645 4.515470
v 12.896026 0.413954 10.806148
v -4.773350 -29.669645 10.806149
v -23.318443 -55.596806 10.806151
v -27.787844 -50.441540 12.514947
v -9.342708 -24.654516 12.514945
v -32.257008 -45.286663 10.806151
v 8.231386 5.266639 12.514943
v -13.911984 -19.639505 10.806149
v -32.257008 -45.286663 4.515471
v -13.911984 -19.639505 4.515469
v -9.342708 -24.654516 2.806674
v -27.787844 -50.441540 2.806675
v -23.318443 -55.596806 4.515471
v -48.685936 -84.419197 4.515473
v -53.026024 -79.116440 2.806678
v -57.366108 -73.813782 4.515473
v -57.366108 -73.813782 10.806153
v -53.026024 -79.116440 12.514949
v -48.685936 -84.419197 10.806154
v -59.530998 -58.415699 11.466405
v -53.878399 -62.941700 12.939505
v -59.530998 -58.415699 6.043404
v -53.878399 -62.941700 4.570305
v -48.225800 -67.467796 11.466405
v -48.225800 -67.467796 6.043405
vn -0.8134 0.5818 -0.0000
vn -0.5435 -0.8394 -0.0000
vn -0.1887 0.1350 0.9727
vn 0.0644 -0.0461 0.9969
vn -0.0644 0.0461 0.9969
vn 0.0644 -0.0461 -0.9969
vn -0.0644 0.0461 -0.9969
vn -0.1887 0.1350 -0.9727
vn 0.5373 0.8434 -0.0000
vn 0.1887 -0.1350 -0.9727
vn 0.8133 -0.5818 -0.0000
vn 0.1887 -0.1350 0.9727
vn 0.2559 0.0853 0.9629
vn -0.0853 0.2559 0.9629
vn 0.0639 0.1919 0.9793
vn -0.1532 0.0510 0.9869
vn -0.2558 -0.0853 0.9629
vn -0.0639 -0.1919 0.9793
vn 0.0853 -0.2559 0.9629
vn 0.1531 -0.0510 0.9869
vn 0.0639 0.1919 -0.9793
vn -0.1531 0.0510 -0.9869
vn -0.0853 0.2559 -0.9629
vn 0.2559 0.0853 -0.9629
vn -0.2558 -0.0853 -0.9629
vn -0.0639 -0.1919 -0.9793
vn 0.0853 -0.2559 -0.9629
vn 0.1532 -0.0510 -0.9869
vn 0.8212 0.5706 -0.0000
vn 0.8212 0.5707 -0.0000
vn 0.8111 0.5849 -0.0000
vn 0.1600 0.1112 -0.9808
vn 0.0153 0.0108 -0.9998
vn 0.1738 0.1198 -0.9775
vn 0.8310 0.5562 -0.0000
vn 0.8310 0.5563 -0.0000
vn 0.1620 0.1084 -0.9808
vn 0.0036 0.0024 -1.0000
vn -0.1896 -0.1269 -0.9736
vn -0.0757 -0.0532 -0.9957
vn -0.8310 -0.5563 -0.0000
vn -0.5806 0.8142 -0.0000
vn -0.0597 -0.0427 0.9973
vn -0.1895 -0.1269 0.9736
vn -0.1896 -0.1269 0.9736
vn -0.0100 -0.0053 0.9999
vn 0.1738 0.1198 0.9775
vn 0.0411 0.0300 0.9987
vn 0.1605 0.1104 0.9808
vn -0.8310 -0.5562 -0.0000
vn 0.1620 0.1084 0.9808
vn 0.0140 0.0119 -0.9998
vn -0.0212 -0.0189 -0.9996
vn 0.0149 0.0107 -0.9998
vn -0.0557 -0.0421 -0.9976
vn 0.7710 0.6368 -0.0000
vn 0.8133 0.5819 -0.0000
vn 0.7630 0.6464 -0.0000
vn 0.7626 0.6468 -0.0000
vn 0.0140 0.0119 0.9998
vn 0.0149 0.0107 0.9998
vn -0.0211 -0.0124 0.9997
vn -0.0566 -0.0482 0.9972
vn -0.0974 -0.0697 0.9928
vn -0.0915 -0.0773 0.9928
vn -0.0912 -0.0776 -0.9928
vn -0.0974 -0.0697 -0.9928
vn -0.0352 -0.0382 -0.9986
vn -0.0786 -0.0936 -0.9925
vn -0.0813 -0.0900 0.9926
vn -0.0386 -0.0556 -0.9977
vn -0.0700 -0.1078 -0.9917
vn -0.0710 -0.1056 0.9919
vn -0.0335 -0.0402 0.9986
vn 0.0122 0.0141 0.9998
vn -0.0211 -0.0330 0.9992
vn 0.0166 -0.1131 0.9935
vn 0.0102 0.0158 0.9998
vn 0.0005 -0.1728 0.9850
vn 0.1031 -0.2236 0.9692
vn 0.0784 -0.1342 0.9879
vn 0.0161 -0.1137 -0.9934
vn 0.0784 -0.1342 -0.9879
vn 0.1031 -0.2236 -0.9692
vn 0.1163 -0.2140 -0.9699
vn 0.0005 -0.1728 -0.9850
vn 0.1163 -0.2140 0.9699
vn 0.5040 0.8637 -0.0000
vn 0.5035 0.8640 -0.0000
vn 0.5073 0.8618 -0.0000
vn 0.0105 0.0156 -0.9998
vn 0.5695 0.8220 -0.0000
vn 0.5401 0.8416 -0.0000
vn 0.6443 0.7648 -0.0000
vn 0.0122 0.0141 -0.9998
vn 0.6724 0.7402 -0.0000
vn -0.4164 0.5900 0.6918
vn -0.4170 0.5895 0.6918
vn -0.4165 0.5880 0.6934
vn -0.4185 0.5886 0.6917
vn -0.4182 0.5906 0.6901
vn -0.6573 -0.7189 0.2264
vn -0.5119 -0.7778 0.3646
vn -0.0316 -0.7708 0.6364
vn 0.1057 -0.7255 0.6801
vn 0.3344 -0.6082 0.7199
vn 0.4303 -0.5423 0.7216
vn 0.4164 -0.5900 -0.6918
vn 0.4170 -0.5895 -0.6918
vn 0.4182 -0.5906 -0.6901
vn 0.4165 -0.5880 -0.6934
vn 0.4185 -0.5886 -0.6917
vn 0.6581 0.7184 -0.2256
vn 0.5103 0.7782 -0.3660
vn 0.0329 0.7711 -0.6359
vn 0.7795 0.6226 -0.0697
vn -0.1061 0.7253 -0.6802
vn 0.8642 0.4951 0.0900
vn 0.9070 0.3432 0.2441
vn 0.9068 0.1838 0.3795
vn 0.7145 -0.2567 0.6509
vn -0.8641 -0.4952 -0.0899
vn -0.7794 -0.6227 0.0698
vn -0.9068 -0.3442 -0.2433
vn 0.6217 -0.3688 0.6910
vn -0.9065 -0.1821 -0.3808
vn -0.7153 0.2555 -0.6504
vn -0.4306 0.5421 -0.7216
vn -0.6214 0.3692 -0.6911
vn -0.3341 0.6084 -0.7199
vn 0.8112 0.5847 -0.0000
vn -0.0115 -0.0083 -0.9999
vn 0.0276 0.0199 -0.9994
vn -0.0506 -0.0365 -0.9980
vn -0.0896 -0.0646 -0.9939
vn -0.8112 -0.5847 -0.0000
vn 0.5690 -0.8223 -0.0000
vn 0.5690 -0.8223 0.0001
vn -0.0506 -0.0365 0.9981
vn -0.0896 -0.0646 0.9939
vn -0.0115 -0.0083 0.9999
vn 0.0276 0.0199 0.9994
vn -0.8769 0.4807 -0.0000
vn -0.9073 0.4205 -0.0000
vn -0.8945 0.4472 -0.0000
vn 0.6996 0.7146 -0.0000
vn -0.1021 0.0784 0.9917
vn -0.2384 0.1105 0.9648
vn -0.2326 0.1141 0.9659
vn -0.0563 0.0289 -0.9980
vn 0.2384 -0.1105 -0.9648
vn 0.0278 -0.0130 -0.9995
vn -0.2384 0.1105 -0.9648
vn 0.9073 -0.4205 -0.0000
vn 0.8858 -0.4640 -0.0000
vn 0.2272 -0.1221 -0.9662
vn 0.2109 -0.1365 -0.9679
vn 0.8473 -0.5311 -0.0000
vn 0.8298 -0.5581 -0.0000
vn 0.7932 -0.6089 -0.0000
vn 0.0082 0.0052 1.0000
vn 0.1901 -0.1590 0.9688
vn 0.2083 -0.1423 0.9677
vn 0.0040 0.0047 1.0000
vn 0.2256 -0.1257 0.9661
vn -0.2144 0.1321 0.9678
vn -0.1966 0.1482 0.9692
vn 0.0043 0.0056 1.0000
vn -0.7932 0.6089 -0.0000
vn -0.7726 0.6350 -0.0000
vn -0.8298 0.5581 -0.0000
vn -0.8473 0.5311 -0.0000
vn 0.0023 0.0010 -1.0000
vn -0.2117 0.1380 -0.9675
vn -0.2297 0.1209 -0.9657
vn 0.0014 -0.0016 -1.0000
vn -0.1937 0.1542 -0.9689
vn 0.0036 0.0169 -0.9999
vn 0.1931 -0.1528 -0.9692
vn 0.1839 -0.1619 -0.9695
vn -0.1839 0.1619 -0.9695
vn -0.7506 0.6607 -0.0000
vn -0.1839 0.1619 0.9695
vn 0.0626 -0.1116 0.9918
vn 0.1839 -0.1619 0.9695
vn 0.7507 -0.6607 -0.0000
vn 0.7726 -0.6349 -0.0000
vn 0.2384 -0.1105 0.9648
vn -0.6250 -0.7806 -0.0000
vt 0.638360 0.363281
vt 0.628906 0.392028
vt 0.682500 0.467499
vt 0.692226 0.437923
vt 0.736094 0.542969
vt 0.746094 0.512565
vt 0.976562 0.023438
vt 0.095226 0.374655
vt 0.095226 0.374655
vt 0.363281 0.482039
vt 0.055192 0.405964
vt 0.085714 0.371094
vt 0.085714 0.371094
vt 0.329321 0.508598
vt 0.295360 0.535156
vt 0.045679 0.402403
vt 0.021231 0.432522
vt 0.329321 0.508597
vt 0.055191 0.405964
vt 0.011719 0.428961
vt 0.151345 0.832089
vt 0.130777 0.840408
vt 0.053453 0.761719
vt 0.032586 0.769827
vt 0.011719 0.777935
vt 0.110210 0.848726
vt 0.229324 0.893967
vt 0.209069 0.902456
vt 0.333393 0.938984
vt 0.313470 0.947617
vt 0.229324 0.893967
vt 0.249578 0.885478
vt 0.445800 0.978816
vt 0.353316 0.930352
vt 0.430892 0.988281
vt 0.460942 0.983941
vt 0.476237 0.972677
vt 0.476236 0.972677
vt 0.488281 0.976880
vt 0.454238 0.375317
vt 0.498319 0.363281
vt 0.498320 0.453125
vt 0.542401 0.375317
vt 0.574672 0.408202
vt 0.586483 0.453125
vt 0.574672 0.498048
vt 0.542401 0.530933
vt 0.498319 0.542969
vt 0.454238 0.530933
vt 0.421968 0.498048
vt 0.410156 0.453125
vt 0.421968 0.408204
vt 0.425328 0.408204
vt 0.457599 0.375317
vt 0.501680 0.363281
vt 0.501680 0.453125
vt 0.501680 0.542969
vt 0.545762 0.530933
vt 0.578032 0.498048
vt 0.457598 0.530933
vt 0.425328 0.498048
vt 0.545762 0.375317
vt 0.413517 0.453125
vt 0.578032 0.408202
vt 0.589844 0.453125
vt 0.746094 0.420014
vt 0.724172 0.363281
vt 0.724171 0.363281
vt 0.673866 0.428209
vt 0.695788 0.484943
vt 0.628906 0.486236
vt 0.650829 0.542969
vt 0.650828 0.542969
vt 0.673866 0.428210
vt 0.339170 0.617919
vt 0.438130 0.574219
vt 0.463206 0.579277
vt 0.488281 0.584336
vt 0.363750 0.623195
vt 0.388328 0.628470
vt 0.293124 0.661814
vt 0.193447 0.690595
vt 0.169919 0.684984
vt 0.269059 0.656358
vt 0.244994 0.650903
vt 0.146392 0.679374
vt 0.034553 0.716881
vt 0.057387 0.722656
vt 0.011719 0.711106
vt 0.628906 0.363281
vt 0.687500 0.453124
vt 0.746094 0.542969
s 1
f 255/142/337 251/143/337 250/143/337
f 251/143/338 252/144/338 250/143/338
f 250/143/339 252/144/340 253/145/341
f 254/142/339 250/143/339 253/145/341
f 254/142/337 255/142/337 250/143/337
f 256/145/342 257/144/343 255/142/344
f 256/145/345 255/142/345 253/145/345
f 254/142/345 253/145/345 255/142/345
f 257/144/343 251/143/344 255/142/344
f 252/144/338 251/143/338 257/144/338
f 258/146/346 257/144/343 256/145/342
f 258/146/338 252/144/338 257/144/338
f 259/146/347 258/146/347 260/147/347
f 259/146/338 252/144/338 258/146/338
f 260/147/346 258/146/346 256/145/342
f 261/147/345 260/147/345 256/145/345
f 261/147/347 259/146/347 260/147/347
f 252/144/340 259/146/348 261/147/348
f 253/145/341 252/144/340 261/147/348
f 261/147/345 256/145/345 253/145/345
f 263/148/349 262/148/350 264/148/351
f 264/148/351 262/148/350 265/148/352
f 262/148/350 266/148/353 265/148/352
f 265/148/352 266/148/353 267/148/354
f 266/148/353 268/148/355 267/148/354
f 268/148/355 263/148/349 269/148/356
f 267/148/354 268/148/355 269/148/356
f 269/148/356 263/148/349 264/148/351
f 264/148/351 265/148/352 269/148/356
f 265/148/352 267/148/354 269/148/356
f 271/148/357 273/148/358 270/148/359
f 271/148/357 270/148/359 272/148/360
f 273/148/358 274/148/361 270/148/359
f 273/148/358 275/148/362 274/148/361
f 275/148/362 276/148/363 274/148/361
f 277/148/364 272/148/360 276/148/363
f 275/148/362 277/148/364 276/148/363
f 271/148/357 277/148/364 273/148/358
f 277/148/364 271/148/357 272/148/360
f 277/148/364 275/148/362 273/148/358
f 279/148/349 278/148/350 280/148/351
f 280/148/351 278/148/350 281/148/352
f 278/148/350 282/148/353 281/148/352
f 281/148/352 282/148/353 283/148/354
f 282/148/353 284/148/355 283/148/354
f 284/148/355 279/148/349 285/148/356
f 283/148/354 284/148/355 285/148/356
f 280/148/351 281/148/352 285/148/356
f 285/148/356 279/148/349 280/148/351
f 281/148/352 283/148/354 285/148/356
f 287/148/357 289/148/358 286/148/359
f 287/148/357 286/148/359 288/148/360
f 289/148/358 290/148/361 286/148/359
f 289/148/358 291/148/362 290/148/361
f 291/148/362 292/148/363 290/148/361
f 293/148/364 288/148/360 292/148/363
f 291/148/362 293/148/364 292/148/363
f 293/148/364 287/148/357 288/148/360
f 287/148/357 293/148/364 289/148/358
f 293/148/364 291/148/362 289/148/358
f 295/148/349 294/148/350 296/148/351
f 296/148/351 294/148/350 297/148/352
f 294/148/350 298/148/353 297/148/352
f 297/148/352 298/148/353 299/148/354
f 298/148/353 300/148/355 299/148/354
f 300/148/355 295/148/349 301/148/356
f 299/148/354 300/148/355 301/148/356
f 301/148/356 295/148/349 296/148/351
f 296/148/351 297/148/352 301/148/356
f 297/148/352 299/148/354 301/148/356
f 303/148/357 305/148/358 302/148/359
f 303/148/357 302/148/359 304/148/360
f 305/148/358 306/148/361 302/148/359
f 305/148/358 307/148/362 306/148/361
f 307/148/362 308/148/363 306/148/361
f 309/148/364 304/148/360 308/148/363
f 307/148/362 309/148/364 308/148/363
f 303/148/357 309/148/364 305/148/358
f 309/148/364 303/148/357 304/148/360
f 309/148/364 307/148/362 305/148/358
f 313/149/365 310/150/366 311/151/367
f 310/150/366 312/151/367 311/151/367
f 310/150/368 316/152/369 312/151/370
f 310/150/366 313/149/365 314/153/371
f 315/154/372 310/150/366 314/153/371
f 316/152/369 310/150/368 315/154/373
f 317/155/374 316/152/369 320/156/375
f 316/152/369 317/155/374 312/151/370
f 318/157/376 316/152/369 315/154/373
f 319/158/375 316/152/369 318/157/376
f 316/152/369 319/158/375 320/156/375
f 319/158/377 321/158/377 320/156/377
f 321/158/377 322/156/377 320/156/377
f 317/155/378 320/156/378 322/156/378
f 323/159/379 322/156/380 321/158/381
f 323/159/378 317/155/378 322/156/378
f 312/151/378 317/155/378 323/159/378
f 324/160/382 323/159/379 321/158/381
f 311/151/383 323/159/379 324/160/382
f 311/151/378 312/151/378 323/159/378
f 324/160/382 321/158/381 326/161/381
f 325/157/384 324/160/382 326/161/381
f 313/149/385 324/160/382 325/157/384
f 313/149/385 311/151/383 324/160/382
f 326/161/386 321/158/377 327/161/386
f 321/158/377 319/158/377 327/161/386
f 327/161/375 319/158/375 318/157/376
f 314/153/387 313/149/385 325/157/384
f 331/162/388 329/163/389 328/164/390
f 329/163/389 330/165/391 328/164/390
f 331/162/392 328/164/393 332/164/393
f 333/162/394 331/162/395 332/164/393
f 333/162/396 332/164/397 334/165/398
f 335/163/399 333/162/396 334/165/398
f 335/163/399 334/165/398 336/166/400
f 337/167/401 335/163/399 336/166/400
f 337/167/402 336/166/403 330/165/391
f 329/163/389 337/167/402 330/165/391
f 329/163/389 338/168/404 337/167/402
f 338/168/404 339/169/405 337/167/402
f 337/167/401 339/169/406 335/163/399
f 341/170/407 340/171/408 339/169/405
f 339/169/406 340/171/409 342/172/410
f 338/168/404 341/170/407 339/169/405
f 339/169/406 342/172/410 335/163/399
f 342/172/410 343/173/411 333/162/396
f 342/172/410 344/170/412 343/173/411
f 340/171/409 344/170/412 342/172/410
f 335/163/399 342/172/410 333/162/396
f 346/174/413 344/170/412 340/171/409
f 344/170/412 345/175/414 343/173/411
f 344/170/412 346/174/413 345/175/414
f 347/176/415 346/174/413 340/171/409
f 346/174/413 347/176/415 349/177/416
f 346/174/413 348/178/417 345/175/414
f 348/178/417 346/174/413 349/177/416
f 351/174/418 350/179/419 349/177/420
f 350/179/419 352/180/421 349/177/420
f 347/176/422 351/174/418 349/177/420
f 352/180/423 348/178/417 349/177/416
f 350/179/424 348/178/425 352/180/426
f 350/179/419 351/174/418 353/175/427
f 351/174/418 347/176/422 340/171/408
f 351/174/418 341/170/407 353/175/427
f 341/170/407 351/174/418 340/171/408
f 353/175/427 341/170/407 338/168/404
f 345/175/428 353/175/429 354/173/430
f 345/175/428 348/178/425 353/175/429
f 354/173/431 353/175/427 338/168/404
f 348/178/425 350/179/424 353/175/429
f 343/173/432 345/175/428 354/173/430
f 354/173/431 338/168/404 329/163/389
f 343/173/432 354/173/430 331/162/395
f 331/162/388 354/173/431 329/163/389
f 333/162/394 343/173/432 331/162/395
f 367/181/433 356/182/433 355/183/434
f 356/182/433 357/184/433 355/183/434
f 357/184/433 358/185/435 355/183/434
f 358/185/435 359/186/436 355/183/434
f 359/186/436 360/187/437 355/183/434
f 360/187/437 361/188/433 355/183/434
f 361/188/433 362/189/433 355/183/434
f 362/189/433 363/190/433 355/183/434
f 363/190/433 364/191/435 355/183/434
f 364/191/435 365/192/436 355/183/434
f 365/192/436 366/193/437 355/183/434
f 366/193/437 367/181/433 355/183/434
f 366/193/438 368/194/439 367/181/440
f 368/194/439 369/195/441 367/181/440
f 367/181/440 369/195/441 356/182/442
f 369/195/441 370/196/443 356/182/442
f 370/196/444 369/195/444 371/197/445
f 369/195/444 368/194/446 371/197/445
f 373/198/444 372/199/444 371/197/445
f 372/199/444 380/200/446 371/197/445
f 374/201/444 373/198/444 371/197/445
f 375/202/447 374/201/444 371/197/445
f 376/203/444 370/196/444 371/197/445
f 377/204/448 375/202/447 371/197/445
f 378/205/447 376/203/444 371/197/445
f 368/194/446 377/204/448 371/197/445
f 379/206/448 378/205/447 371/197/445
f 380/200/446 379/206/448 371/197/445
f 360/187/449 380/200/450 361/188/451
f 379/206/452 380/200/450 360/187/449
f 380/200/450 372/199/453 361/188/451
f 359/186/454 379/206/452 360/187/449
f 378/205/455 379/206/452 359/186/454
f 358/185/456 378/205/455 359/186/454
f 376/203/457 378/205/455 358/185/456
f 365/192/458 377/204/459 366/193/438
f 375/202/460 377/204/459 365/192/458
f 377/204/459 368/194/439 366/193/438
f 357/184/461 376/203/457 358/185/456
f 370/196/443 376/203/457 357/184/461
f 364/191/462 375/202/460 365/192/458
f 374/201/463 375/202/460 364/191/462
f 373/198/464 374/201/463 363/190/465
f 363/190/465 374/201/463 364/191/462
f 372/199/453 373/198/464 362/189/466
f 362/189/466 373/198/464 363/190/465
f 361/188/451 372/199/453 362/189/466
f 356/182/442 370/196/443 357/184/461
f 384/207/467 381/208/467 382/207/467
f 381/208/467 383/209/467 382/207/467
f 385/210/468 381/208/469 384/207/469
f 386/211/470 385/210/468 384/207/469
f 387/212/471 385/210/468 386/211/470
f 388/212/472 387/212/472 389/213/472
f 389/213/471 387/212/471 386/211/470
f 390/214/472 388/212/472 389/213/472
f 390/214/473 389/213/473 386/211/474
f 391/215/475 388/212/476 390/214/476
f 392/211/473 390/214/473 384/207/473
f 384/207/473 390/214/473 386/211/474
f 392/211/477 391/215/475 390/214/476
f 383/209/478 391/215/475 392/211/477
f 382/207/478 383/209/478 392/211/477
f 382/207/473 392/211/473 384/207/473
f 396/216/479 393/217/480 394/216/481
f 393/217/480 395/217/480 394/216/481
f 398/218/482 395/217/482 393/217/482
f 397/218/483 393/217/484 396/216/485
f 397/218/482 398/218/482 393/217/482
f 400/219/482 398/218/482 397/218/482
f 398/218/486 400/219/487 399/220/488
f 395/217/489 398/218/486 399/220/488
f 401/219/482 400/219/482 397/218/482
f 400/219/490 401/219/490 402/221/491
f 400/219/487 402/221/492 399/220/488
f 402/221/492 403/222/493 399/220/488
f 405/222/494 403/222/495 402/221/491
f 401/219/490 404/221/491 402/221/491
f 404/221/491 405/222/494 402/221/491
f 405/222/494 406/223/496 403/222/495
f 407/224/497 406/223/498 405/222/499
f 408/225/500 407/224/497 405/222/499
f 408/225/500 405/222/499 404/221/501
f 411/226/502 409/227/503 408/225/500
f 409/227/503 407/224/497 408/225/500
f 410/220/504 408/225/500 404/221/501
f 411/226/502 408/225/500 410/220/504
f 412/227/505 409/227/506 411/226/507
f 413/226/508 412/227/505 411/226/507
f 413/226/508 411/226/507 396/216/479
f 396/216/485 411/226/502 410/220/504
f 414/225/509 413/226/510 394/216/511
f 414/225/509 415/224/512 413/226/510
f 394/216/481 413/226/508 396/216/479
f 415/224/512 412/227/513 413/226/510
f 415/224/512 418/228/514 412/227/513
f 416/223/515 415/224/512 414/225/509
f 416/223/515 417/229/516 415/224/512
f 417/229/516 418/228/514 415/224/512
f 418/228/514 419/230/517 412/227/513
f 419/230/518 420/230/518 409/227/506
f 412/227/505 419/230/518 409/227/506
f 409/227/503 420/230/519 407/224/497
f 420/230/519 421/228/520 407/224/497
f 421/228/520 422/229/521 406/223/498
f 407/224/497 421/228/520 406/223/498
f 406/223/496 422/229/522 416/223/523
f 422/229/522 417/229/522 416/223/523
f 406/223/496 416/223/523 403/222/495
f 403/222/493 416/223/515 414/225/509
f 403/222/493 414/225/509 399/220/488
f 399/220/488 414/225/509 394/216/511
f 410/220/504 397/218/483 396/216/485
f 401/219/524 397/218/483 410/220/504
f 404/221/501 401/219/524 410/220/504
f 394/216/511 395/217/489 399/220/488
f 423/231/525 425/231/525 424/232/525
f 425/231/525 426/232/525 424/232/525
f 424/232/525 426/232/525 427/233/525
f 426/232/525 428/233/525 427/233/525
o item_damaged
v -29.153999 3.117801 15.308600
v -24.850100 -8.020700 15.206201
v -22.281900 0.038201 15.206200
v -32.607300 -7.718799 15.308601
v -29.153999 3.117701 16.452700
v -22.282000 0.038101 16.555099
v -32.607300 -7.718799 16.452700
v -24.850201 -8.020799 16.555099
v -17.092899 -8.322799 15.880601
v -15.409900 -3.041299 15.880600
v -12.769352 -27.540874 12.696839
v -63.673359 -71.074867 19.064478
v -63.673359 -71.074867 12.696843
v -12.769352 -27.540874 19.064474
v -10.961204 -26.079710 19.064474
v -10.961204 -26.079710 12.696839
v -4.809794 -36.923893 10.868076
v -56.921337 -79.034271 10.868079
v -3.001536 -35.462624 10.868076
v 1.942222 -44.883186 12.696841
v -50.169323 -86.993553 12.696844
v 1.942334 -44.883190 19.064476
v -50.169323 -86.993553 19.064478
v -56.921341 -79.034149 20.893240
v -4.809681 -36.923897 20.893236
v -3.001531 -35.462734 20.893236
v 3.750484 -43.422024 19.064476
v 3.750484 -43.422024 12.696840
v -5.951000 -27.676098 15.308602
v 42.820202 6.502701 15.206199
v -1.127600 -33.495300 15.206203
v 37.865799 12.200401 15.308599
v -5.950900 -27.676098 16.452702
v 37.865799 12.200401 16.452700
v -1.127700 -33.495300 16.555101
v 3.695500 -39.314400 15.880603
v 42.820202 6.502602 16.555099
v 47.774502 0.805101 15.880600
v -3.068654 -35.508263 16.614643
v 8.249861 -26.407711 31.769489
v -0.156994 -16.823402 31.530628
v -10.755943 -13.368397 25.412802
v -17.524216 -18.057430 16.931540
v -23.487926 -23.605412 8.365420
v -22.200500 -34.547291 2.015632
v -14.386978 -44.608738 1.459851
v -5.978946 -54.198532 1.696106
v 4.618852 -57.644844 7.818530
v 11.386986 -52.958973 16.297615
v 17.347672 -47.410378 24.861675
v 16.068384 -36.471485 31.216276
v 18.529922 -46.433025 23.395699
v 17.242516 -35.491070 29.745701
v -1.889406 -34.530190 15.146576
v 9.429111 -25.429733 30.301479
v 1.020973 -15.839891 30.065197
v -9.576801 -12.393566 23.942799
v -16.344965 -17.079454 15.463530
v -22.305643 -22.628078 6.899457
v -21.026400 -33.566872 0.545032
v -13.207827 -43.630661 -0.008142
v -4.800970 -53.214962 0.230721
v 5.798072 -56.669952 6.348481
v 12.566254 -51.981018 14.829606
v -9.684300 -29.093998 14.571502
v -4.336400 -24.520699 17.189802
v -9.684300 -29.093998 17.189802
v -4.336400 -24.520597 14.571502
v -3.830000 -36.157200 14.337303
v 1.518000 -31.583899 14.337303
v 1.402200 -42.469700 15.019603
v 1.402200 -42.469700 16.741703
v 6.750000 -37.896400 15.019603
v 6.750100 -37.896400 16.741703
v -3.830000 -36.157200 17.424002
v 1.518000 -31.583899 17.424002
v -47.485100 74.001503 15.308595
v -51.311600 77.422798 15.880594
v -47.485100 74.001404 16.452694
v -42.651699 80.013397 15.880594
v -37.841202 75.811600 15.206194
v -8.435800 39.442101 15.308598
v -2.130400 43.504501 15.206197
v -8.435800 39.442101 16.452696
v 20.230400 19.849901 15.206198
v 12.789900 16.988201 15.308599
v 12.789900 16.988201 16.452698
v -2.130500 43.504601 16.555096
v 20.230400 19.849901 16.555098
v 27.671101 22.711702 15.880598
v 4.175200 47.567299 15.880596
v -37.841202 75.811600 16.555094
v -33.127602 80.726303 15.880594
v -55.002800 -4.131499 15.308600
v -48.492500 -0.307299 15.206200
v -62.818199 5.832301 15.308600
v -62.818199 5.832302 16.452700
v -55.002899 -4.131399 16.452700
v -56.299702 9.645901 16.555099
v -48.492401 -0.307499 16.555099
v -41.982101 3.516601 15.880600
v -49.781101 13.459501 15.880599
v -56.299599 9.645901 15.206199
v 19.032801 52.480801 15.308597
v 25.285299 48.283699 15.206196
v 25.472500 68.316498 15.308596
v 25.472401 68.316498 16.452694
v 19.032801 52.480801 16.452696
v 31.160200 62.730900 16.555096
v 25.285299 48.283699 16.555096
v 31.537800 44.086800 15.880597
v 36.848099 57.145100 15.880595
v 31.160200 62.730900 15.206195
v -39.834801 34.469398 15.308598
v -30.776600 22.921202 15.308599
v -32.939098 37.802299 15.206197
v -30.776600 22.921103 16.452698
v -39.834801 34.469398 16.452698
v -24.258101 26.734701 16.555098
v -32.939201 37.802299 16.555098
v -26.043501 41.135201 15.880597
v -17.739500 30.548302 15.880598
v -24.257999 26.734802 15.206198
v 65.920898 20.866402 16.452698
v 53.761101 30.418102 16.555098
v 61.289398 31.826202 16.452698
v 59.833099 16.049501 16.555098
v 65.920799 20.866402 15.308599
v 59.833000 16.049501 15.206199
v 61.289299 31.826302 15.308598
v 53.761101 30.418102 15.206198
v 53.745098 11.232301 15.880599
v 46.232800 29.010101 15.880598
v 0.000000 70.710701 -0.000005
v 70.710701 0.000000 0.000000
v 0.000000 55.656200 3.999996
v -55.656101 0.000000 4.000000
v -70.710701 0.000000 0.000000
v 0.000000 -55.656101 4.000004
v 0.000000 -70.710602 0.000005
v 55.656200 0.000000 4.000000
v 0.000000 70.710701 -0.000005
v 0.000000 55.656200 -4.000004
v 70.710701 0.000000 0.000000
v -55.656101 -0.000000 -4.000000
v -70.710701 0.000000 0.000000
v 0.000000 -55.656101 -3.999996
v 0.000000 -70.710602 0.000005
v 55.656200 -0.000000 -4.000000
v 0.000000 70.710701 -0.000005
v 70.710701 0.000000 0.000000
v 0.000000 55.656200 3.999996
v -55.656101 0.000000 4.000000
v -70.710701 0.000000 0.000000
v 0.000000 -55.656101 4.000004
v 0.000000 -70.710602 0.000005
v 55.656200 0.000000 4.000000
v 0.000000 70.710701 -0.000005
v 0.000000 55.656200 -4.000004
v 70.710701 0.000000 0.000000
v -55.656101 -0.000000 -4.000000
v -70.710701 0.000000 0.000000
v 0.000000 -55.656101 -3.999996
v 0.000000 -70.710602 0.000005
v 55.656200 -0.000000 -4.000000
v 0.000000 70.710701 -0.000005
v 70.710701 0.000000 0.000000
v 0.000000 55.656200 3.999996
v -55.656101 0.000000 4.000000
v -70.710701 0.000000 0.000000
v 0.000000 -55.656101 4.000004
v 0.000000 -70.710602 0.000005
v 55.656200 0.000000 4.000000
v 0.000000 70.710701 -0.000005
v 0.000000 55.656200 -4.000004
v 70.710701 0.000000 0.000000
v -55.656101 -0.000000 -4.000000
v -70.710701 0.000000 0.000000
v 0.000000 -55.656101 -3.999996
v 0.000000 -70.710602 0.000005
v 55.656200 -0.000000 -4.000000
vn -0.0130 0.0042 -0.9999
vn 0.0198 -0.0063 -0.9998
vn 0.0527 -0.0168 -0.9985
vn -0.9528 0.3036 -0.0000
vn 0.0199 -0.0063 0.9998
vn -0.0130 0.0042 0.9999
vn 0.0527 -0.0168 0.9985
vn 0.0855 -0.0273 0.9960
vn 0.0855 -0.0273 -0.9960
vn -0.6393 0.7690 -0.0000
vn -0.6499 0.7600 -0.0000
vn -0.0940 0.1130 -0.9891
vn -0.0089 0.0106 -0.9999
vn -0.1016 0.1230 -0.9872
vn -0.6285 0.7778 -0.0000
vn -0.0924 0.1144 -0.9891
vn -0.0016 0.0020 -1.0000
vn 0.1085 -0.1343 -0.9850
vn 0.0444 -0.0529 -0.9976
vn 0.6285 -0.7778 -0.0000
vn -0.7626 -0.6469 -0.0000
vn 0.0360 -0.0424 0.9985
vn 0.1085 -0.1343 0.9850
vn -0.1016 0.1230 0.9872
vn 0.0049 -0.0071 1.0000
vn -0.0937 0.1133 0.9891
vn -0.0251 0.0291 0.9993
vn -0.0924 0.1144 0.9891
vn -0.0091 0.0100 -0.9999
vn 0.0139 -0.0153 -0.9998
vn 0.0369 -0.0406 -0.9985
vn -0.6731 0.7396 0.0001
vn -0.6731 0.7396 -0.0000
vn -0.0091 0.0100 0.9999
vn 0.0139 -0.0152 0.9998
vn 0.0369 -0.0406 0.9985
vn 0.0139 -0.0153 0.9998
vn 0.0599 -0.0658 0.9960
vn 0.0599 -0.0658 -0.9960
vn -0.5513 -0.4663 0.6918
vn -0.5509 -0.4669 0.6918
vn -0.5496 -0.4663 0.6932
vn -0.5499 -0.4681 0.6918
vn -0.5517 -0.4680 0.6903
vn -0.5495 -0.4663 0.6932
vn 0.7641 0.0497 0.6432
vn 0.7178 0.1570 0.6784
vn 0.5670 0.3989 0.7207
vn 0.7724 -0.5934 0.2266
vn 0.8195 -0.4386 0.3689
vn 0.5513 0.4663 -0.6918
vn 0.5509 0.4669 -0.6918
vn 0.5517 0.4680 -0.6903
vn 0.5103 0.4674 0.7219
vn 0.3013 0.6623 0.6860
vn 0.2042 0.7289 0.6534
vn -0.2607 0.8878 0.3792
vn -0.4242 0.8733 0.2396
vn 0.5496 0.4663 -0.6932
vn -0.5500 0.8281 0.1088
vn -0.7020 0.7059 -0.0947
vn 0.5499 0.4681 -0.6918
vn -0.8198 0.4367 -0.3705
vn -0.7718 0.5945 -0.2254
vn -0.7171 -0.1585 -0.6787
vn -0.7650 -0.0474 -0.6423
vn -0.5101 -0.4677 -0.7219
vn -0.5673 -0.3986 -0.7206
vn -0.3025 -0.6613 -0.6864
vn -0.2021 -0.7302 -0.6526
vn 0.2587 -0.8878 -0.3807
vn 0.4254 -0.8730 -0.2384
vn 0.5501 -0.8280 -0.1087
vn 0.7021 -0.7058 0.0948
vn 0.0069 -0.0081 -0.9999
vn -0.0166 0.0194 -0.9997
vn 0.0305 -0.0356 -0.9989
vn 0.0539 -0.0630 -0.9966
vn 0.6499 -0.7600 -0.0000
vn 0.7699 0.6381 -0.0000
vn 0.0069 -0.0081 0.9999
vn 0.0304 -0.0356 0.9989
vn 0.0539 -0.0630 0.9966
vn -0.0166 0.0194 0.9997
vn -0.0264 0.0786 -0.9966
vn -0.0372 0.1242 -0.9916
vn -0.0271 0.1305 -0.9911
vn -0.6646 -0.7472 -0.0001
vn -0.6642 -0.7475 -0.0000
vn -0.6665 -0.7455 -0.0001
vn -0.6847 -0.7288 -0.0000
vn 0.0109 0.0651 -0.9978
vn -0.0097 -0.0100 -0.9999
vn -0.7060 -0.7082 -0.0000
vn 0.0350 0.0348 -0.9988
vn 0.0154 0.0145 -0.9998
vn -0.7267 -0.6870 -0.0000
vn -0.0101 -0.0095 -0.9999
vn 0.0408 0.0386 0.9984
vn 0.0198 0.0204 0.9996
vn -0.0101 -0.0095 0.9999
vn -0.0097 -0.0100 0.9999
vn 0.0650 0.0668 0.9956
vn 0.0662 0.0626 0.9958
vn 0.0646 0.0683 -0.9956
vn 0.0273 0.1101 -0.9935
vn 0.0274 0.1101 0.9935
vn 0.0109 0.0651 0.9978
vn 0.0662 0.0626 -0.9958
vn -0.0272 0.1305 0.9911
vn -0.0264 0.0787 0.9966
vn -0.0372 0.1242 0.9916
vn 0.0164 0.0129 -0.9998
vn -0.0108 -0.0084 -0.9999
vn -0.7868 -0.6172 -0.0000
vn -0.0108 -0.0084 0.9999
vn 0.0164 0.0128 0.9998
vn 0.0436 0.0342 0.9985
vn 0.0706 0.0554 0.9960
vn 0.0706 0.0554 -0.9960
vn 0.0435 0.0341 -0.9985
vn 0.0196 -0.0080 -0.9998
vn -0.0129 0.0052 -0.9999
vn -0.9263 0.3767 -0.0001
vn -0.9263 0.3767 -0.0000
vn -0.0129 0.0052 0.9999
vn 0.0197 -0.0080 0.9998
vn 0.0520 -0.0212 0.9984
vn 0.0844 -0.0343 0.9958
vn 0.0844 -0.0343 -0.9958
vn 0.0520 -0.0212 -0.9984
vn -0.7868 -0.6172 -0.0001
vn 0.0164 0.0129 0.9998
vn 0.0435 0.0342 -0.9985
vn -0.0125 -0.0472 0.9988
vn 0.0126 0.0053 0.9999
vn -0.0572 0.0262 0.9980
vn -0.0351 -0.0148 0.9993
vn 0.9211 0.3893 -0.0001
vn 0.0126 0.0053 -0.9999
vn -0.0192 -0.0081 -0.9998
vn 0.9211 0.3893 -0.0000
vn -0.0510 -0.0215 -0.9985
vn -0.9211 -0.3892 -0.0001
vn -0.9211 -0.3892 -0.0000
vn 0.2559 0.0853 0.9629
vn -0.0853 0.2559 0.9629
vn 0.0639 0.1919 0.9793
vn -0.1532 0.0510 0.9869
vn -0.2558 -0.0853 0.9629
vn -0.0639 -0.1919 0.9793
vn 0.0853 -0.2559 0.9629
vn 0.1531 -0.0510 0.9869
vn 0.0639 0.1919 -0.9793
vn -0.1531 0.0510 -0.9869
vn -0.0853 0.2559 -0.9629
vn 0.2559 0.0853 -0.9629
vn -0.2558 -0.0853 -0.9629
vn -0.0639 -0.1919 -0.9793
vn 0.0853 -0.2559 -0.9629
vn 0.1532 -0.0510 -0.9869
vt 0.011719 0.976320
vt 0.107414 0.761719
vt 0.226681 0.982299
vt 0.297849 0.822705
vt 0.107414 0.761721
vt 0.297846 0.822707
vt 0.226678 0.982301
vt 0.441643 0.988281
vt 0.488281 0.883690
vt 0.282278 0.375129
vt 0.011719 0.495014
vt 0.320914 0.398790
vt 0.291869 0.371094
vt 0.044494 0.515085
vt 0.077269 0.535156
vt 0.330506 0.394755
vt 0.353690 0.418862
vt 0.353690 0.418862
vt 0.044494 0.515085
vt 0.320915 0.398790
vt 0.330506 0.394755
vt 0.363281 0.414826
vt 0.400388 0.761719
vt 0.444335 0.786777
vt 0.011719 0.937096
vt 0.054504 0.962689
vt 0.011720 0.937096
vt 0.054503 0.962689
vt 0.444335 0.786778
vt 0.097286 0.988281
vt 0.488281 0.811835
vt 0.453830 0.413585
vt 0.497504 0.456713
vt 0.541178 0.499841
vt 0.573150 0.531413
vt 0.584852 0.542969
vt 0.497504 0.456713
vt 0.421859 0.382013
vt 0.410156 0.370457
vt 0.458822 0.406410
vt 0.426850 0.374837
vt 0.502496 0.449537
vt 0.502496 0.449537
vt 0.546170 0.492665
vt 0.578141 0.524238
vt 0.589844 0.535793
vt 0.578141 0.524237
vt 0.415148 0.363281
vt 0.746094 0.484497
vt 0.716235 0.542969
vt 0.746093 0.484497
vt 0.670120 0.478960
vt 0.699978 0.420487
vt 0.628906 0.421753
vt 0.658765 0.363282
vt 0.658765 0.363281
vt 0.034807 0.785623
vt 0.011719 0.773461
vt 0.063970 0.764253
vt 0.034807 0.785623
vt 0.270421 0.908467
vt 0.092996 0.779188
vt 0.308466 0.894027
vt 0.443386 0.978109
vt 0.398492 0.988281
vt 0.308466 0.894026
vt 0.346513 0.879585
vt 0.488281 0.967937
vt 0.121437 0.761719
vt 0.339376 0.939028
vt 0.190472 0.988281
vt 0.011719 0.859953
vt 0.190470 0.988280
vt 0.160810 0.810836
vt 0.339378 0.939030
vt 0.488281 0.889778
vt 0.309903 0.761719
vt 0.160812 0.810836
vt 0.094266 0.908766
vt 0.176816 0.988281
vt 0.488281 0.906386
vt 0.488281 0.906387
vt 0.378421 0.834053
vt 0.011719 0.829251
vt 0.268556 0.761719
vt 0.011719 0.844634
vt 0.207091 0.988280
vt 0.207091 0.988281
vt 0.160449 0.803176
vt 0.347685 0.940844
vt 0.160446 0.803176
vt 0.488281 0.893408
vt 0.309176 0.761719
vt 0.347687 0.940843
vt 0.123193 0.831775
vt 0.234660 0.761719
vt 0.455694 0.901649
vt 0.488279 0.815016
vt 0.234660 0.761720
vt 0.123193 0.831776
vt 0.488281 0.815017
vt 0.011719 0.901833
vt 0.423112 0.988281
vt 0.976562 0.023438
s 1
f 432/234/526 429/235/526 430/236/527
f 429/235/526 431/237/528 430/236/527
f 433/238/529 429/235/529 432/234/529
f 434/239/530 433/238/531 435/234/531
f 435/234/529 433/238/529 432/234/529
f 436/240/532 434/239/530 435/234/531
f 437/241/533 438/242/533 436/240/532
f 438/242/533 434/239/530 436/240/532
f 431/237/528 438/242/534 437/241/534
f 430/236/527 431/237/528 437/241/534
f 442/243/535 439/243/535 440/244/536
f 439/243/535 441/244/536 440/244/536
f 439/243/537 445/245/538 441/244/539
f 439/243/535 442/243/535 443/246/540
f 444/246/540 439/243/535 443/246/540
f 445/245/538 439/243/537 444/246/541
f 446/247/542 445/245/538 449/248/543
f 445/245/538 446/247/542 441/244/539
f 447/249/544 445/245/538 444/246/541
f 448/250/543 445/245/538 447/249/544
f 445/245/538 448/250/543 449/248/543
f 448/250/545 450/251/545 449/248/545
f 450/251/545 451/248/545 449/248/545
f 446/247/546 449/248/546 451/248/546
f 452/252/547 451/248/548 450/251/548
f 452/252/546 446/247/546 451/248/546
f 440/244/549 452/252/547 453/253/550
f 440/244/546 441/244/546 452/252/546
f 441/244/546 446/247/546 452/252/546
f 453/253/550 452/252/547 450/251/548
f 442/243/551 440/244/549 453/253/550
f 442/243/551 453/253/550 454/254/552
f 453/253/550 450/251/548 455/255/548
f 454/254/552 453/253/550 455/255/548
f 455/255/545 450/251/545 456/255/545
f 450/251/545 448/250/545 456/255/545
f 456/255/543 448/250/543 447/249/544
f 443/246/553 442/243/551 454/254/552
f 460/256/554 458/257/555 457/258/554
f 458/257/555 459/259/556 457/258/554
f 460/256/557 457/258/557 461/260/557
f 462/256/558 460/256/558 461/260/558
f 462/256/559 461/260/559 463/261/560
f 465/262/561 463/261/562 464/263/563
f 465/262/561 462/256/559 463/261/562
f 466/264/563 465/262/561 464/263/563
f 466/264/564 464/263/564 459/259/556
f 458/257/555 466/264/564 459/259/556
f 479/265/565 468/266/565 467/266/566
f 468/266/565 469/267/565 467/266/566
f 469/267/565 470/268/567 467/266/566
f 470/268/567 471/269/568 467/266/566
f 471/269/568 472/268/569 467/266/566
f 472/268/569 473/267/565 467/266/566
f 473/267/565 474/270/565 467/266/566
f 474/270/565 475/265/565 467/266/566
f 475/265/565 476/271/570 467/266/566
f 476/271/570 477/272/568 467/266/566
f 477/272/568 478/271/569 467/266/566
f 478/271/569 479/265/565 467/266/566
f 479/265/571 481/273/572 468/266/573
f 478/271/574 480/274/575 479/265/571
f 480/274/575 481/273/572 479/265/571
f 483/275/576 481/273/576 482/276/577
f 481/273/576 480/274/578 482/276/577
f 481/273/572 483/275/579 468/266/573
f 468/266/573 483/275/579 469/267/580
f 483/275/579 484/277/581 469/267/580
f 484/277/576 483/275/576 482/276/577
f 469/267/580 484/277/581 470/268/582
f 484/277/581 485/278/583 470/268/582
f 485/278/584 484/277/576 482/276/577
f 470/268/582 485/278/583 471/269/585
f 485/278/583 486/279/586 471/269/585
f 486/279/587 485/278/584 482/276/577
f 487/280/578 486/279/587 482/276/577
f 486/279/586 487/280/588 472/268/589
f 471/269/585 486/279/586 472/268/589
f 488/277/576 487/280/578 482/276/577
f 487/280/588 488/277/590 473/267/591
f 472/268/589 487/280/588 473/267/591
f 489/276/576 488/277/576 482/276/577
f 488/277/590 489/276/592 474/270/593
f 473/267/591 488/277/590 474/270/593
f 474/270/593 489/276/592 475/265/594
f 489/276/592 490/273/595 475/265/594
f 490/273/576 489/276/576 482/276/577
f 475/265/594 490/273/595 476/271/596
f 490/273/595 491/274/597 476/271/596
f 491/274/584 490/273/576 482/276/577
f 476/271/596 491/274/597 477/272/598
f 491/274/597 492/281/599 477/272/598
f 492/281/587 491/274/584 482/276/577
f 477/272/598 492/281/599 478/271/574
f 492/281/599 480/274/575 478/271/574
f 480/274/578 492/281/587 482/276/577
f 496/282/536 493/283/536 494/284/536
f 493/283/536 495/283/536 494/284/536
f 497/285/600 493/283/601 496/282/601
f 498/286/602 497/285/600 496/282/601
f 499/287/603 497/285/600 498/286/602
f 500/287/604 499/287/604 501/288/604
f 501/288/603 499/287/603 498/286/602
f 502/289/604 500/287/604 501/288/604
f 502/289/605 501/288/605 498/286/605
f 504/286/606 503/285/607 502/289/608
f 503/285/607 500/287/608 502/289/608
f 504/286/605 502/289/605 496/282/605
f 496/282/605 502/289/605 498/286/605
f 494/284/605 504/286/605 496/282/605
f 494/284/609 495/283/609 504/286/606
f 495/283/609 503/285/607 504/286/606
f 505/290/610 506/291/611 508/292/612
f 505/290/613 507/293/614 506/291/615
f 507/293/614 505/290/613 510/294/616
f 509/295/617 505/290/610 508/292/612
f 505/290/610 509/295/617 510/294/618
f 512/294/619 507/293/614 510/294/616
f 509/295/617 511/296/620 510/294/618
f 510/294/618 511/296/620 513/297/621
f 512/294/619 510/294/616 514/298/622
f 514/298/623 510/294/618 513/297/621
f 515/298/622 512/294/619 514/298/622
f 517/297/624 516/299/625 515/298/626
f 516/299/625 512/294/627 515/298/626
f 519/300/628 516/299/625 517/297/624
f 518/301/629 519/300/628 517/297/624
f 511/296/620 509/295/617 519/300/630
f 509/295/617 521/302/631 519/300/630
f 521/302/632 520/295/633 519/300/628
f 520/295/633 516/299/625 519/300/628
f 511/296/620 519/300/630 518/301/634
f 520/295/633 521/302/632 508/292/635
f 521/302/631 509/295/617 508/292/612
f 520/295/633 507/293/636 512/294/627
f 507/293/636 520/295/633 508/292/635
f 516/299/625 520/295/633 512/294/627
f 513/297/621 511/296/620 518/301/634
f 506/291/637 507/293/636 508/292/635
f 523/303/638 522/304/639 524/305/639
f 524/305/640 522/304/640 525/305/640
f 522/304/640 526/306/640 525/305/640
f 525/305/641 526/306/641 527/307/642
f 526/306/641 528/308/643 527/307/642
f 528/308/643 529/309/644 530/310/644
f 527/307/642 528/308/643 530/310/644
f 530/310/645 529/309/645 531/311/646
f 529/309/645 523/303/638 531/311/646
f 531/311/646 523/303/638 524/305/639
f 533/312/647 532/313/648 534/314/648
f 534/314/649 532/313/650 535/315/649
f 532/313/650 536/313/650 535/315/649
f 535/315/651 536/313/651 537/316/652
f 536/313/651 538/312/653 537/316/652
f 538/312/653 539/317/654 540/318/654
f 537/316/652 538/312/653 540/318/654
f 540/318/655 539/317/655 541/316/656
f 539/317/655 533/312/647 541/316/656
f 541/316/656 533/312/647 534/314/648
f 542/319/657 543/320/657 545/321/657
f 543/320/639 542/319/639 544/322/638
f 546/319/640 542/319/640 545/321/640
f 545/321/641 547/323/658 546/319/641
f 547/323/658 548/324/643 546/319/641
f 550/325/644 549/326/644 548/324/643
f 547/323/658 550/325/644 548/324/643
f 550/325/645 551/327/659 549/326/645
f 551/327/646 543/320/639 544/322/638
f 551/327/646 544/322/638 549/326/645
f 555/328/660 552/329/661 553/330/662
f 552/329/661 554/331/661 553/330/663
f 554/331/664 552/329/664 556/332/664
f 556/332/665 557/333/666 558/334/665
f 558/334/667 554/331/667 556/332/667
f 557/333/666 559/330/668 558/334/665
f 557/333/666 560/335/669 559/330/668
f 560/335/669 561/336/670 559/330/668
f 560/335/669 555/328/660 561/336/670
f 555/328/660 553/330/662 561/336/670
f 563/337/671 562/337/672 564/337/673
f 564/337/673 562/337/672 565/337/674
f 562/337/672 566/337/675 565/337/674
f 565/337/674 566/337/675 567/337/676
f 566/337/675 568/337/677 567/337/676
f 568/337/677 563/337/671 569/337/678
f 567/337/676 568/337/677 569/337/678
f 569/337/678 563/337/671 564/337/673
f 564/337/673 565/337/674 569/337/678
f 565/337/674 567/337/676 569/337/678
f 571/337/679 573/337/680 570/337/681
f 571/337/679 570/337/681 572/337/682
f 573/337/680 574/337/683 570/337/681
f 573/337/680 575/337/684 574/337/683
f 575/337/684 576/337/685 574/337/683
f 577/337/686 572/337/682 576/337/685
f 575/337/684 577/337/686 576/337/685
f 571/337/679 577/337/686 573/337/680
f 577/337/686 571/337/679 572/337/682
f 577/337/686 575/337/684 573/337/680
f 579/337/671 578/337/672 580/337/673
f 580/337/673 578/337/672 581/337/674
f 578/337/672 582/337/675 581/337/674
f 581/337/674 582/337/675 583/337/676
f 582/337/675 584/337/677 583/337/676
f 584/337/677 579/337/671 585/337/678
f 583/337/676 584/337/677 585/337/678
f 580/337/673 581/337/674 585/337/678
f 585/337/678 579/337/671 580/337/673
f 581/337/674 583/337/676 585/337/678
f 587/337/679 589/337/680 586/337/681
f 587/337/679 586/337/681 588/337/682
f 589/337/680 590/337/683 586/337/681
f 589/337/680 591/337/684 590/337/683
f 591/337/684 592/337/685 590/337/683
f 593/337/686 588/337/682 592/337/685
f 591/337/684 593/337/686 592/337/685
f 593/337/686 587/337/679 588/337/682
f 587/337/679 593/337/686 589/337/680
f 593/337/686 591/337/684 589/337/680
f 595/337/671 594/337/672 596/337/673
f 596/337/673 594/337/672 597/337/674
f 594/337/672 598/337/675 597/337/674
f 597/337/674 598/337/675 599/337/676
f 598/337/675 600/337/677 599/337/676
f 600/337/677 595/337/671 601/337/678
f 599/337/676 600/337/677 601/337/678
f 601/337/678 595/337/671 596/337/673
f 596/337/673 597/337/674 601/337/678
f 597/337/674 599/337/676 601/337/678
f 603/337/679 605/337/680 602/337/681
f 603/337/679 602/337/681 604/337/682
f 605/337/680 606/337/683 602/337/681
f 605/337/680 607/337/684 606/337/683
f 607/337/684 608/337/685 606/337/683
f 609/337/686 604/337/682 608/337/685
f 607/337/684 609/337/686 608/337/685
f 603/337/679 609/337/686 605/337/680
f 609/337/686 603/337/679 604/337/682
f 609/337/686 607/337/684 605/337/680
o effect
v -35.151520 -4.606251 -3.483364
v -91.580788 -5.117278 3.857580
v -35.151520 -4.606250 3.483364
v -91.580788 -5.117279 -3.857579
v -92.130501 3.663014 -6.465957
v -35.126854 3.711281 -5.343424
v -35.126854 3.711282 5.343423
v -92.130501 3.663015 6.465956
v -35.603607 12.048060 3.483363
v -35.603607 12.048060 -3.483365
v -92.680283 12.443311 3.857579
v -138.827194 8.378007 3.857579
v -92.680283 12.443311 -3.857581
v -138.827194 8.378007 -3.857581
v -181.679291 1.308304 -3.857580
v -180.556610 -7.400518 -6.465956
v -137.981079 -0.376529 -6.465956
v -137.135162 -9.130944 -3.857579
v -179.434082 -16.109221 -3.857579
v -231.328430 -29.209797 -3.735314
v -231.328430 -29.209797 3.735318
v -179.434082 -16.109221 3.857581
v -180.556610 -7.400517 6.465957
v -137.135162 -9.130944 3.857581
v -137.981079 -0.376528 6.465956
v -181.679291 1.308304 3.857580
v -234.213257 -11.648465 -3.735315
v -234.213257 -11.648465 3.735317
v -233.031479 -20.505075 5.729938
v -233.031479 -20.505075 -5.729935
v -35.109623 -4.125423 -2.735048
v -35.499813 10.409506 -2.735049
v -35.109623 -4.125423 2.735048
v -35.499813 10.409506 2.735047
v -35.321560 3.769329 -4.221008
v -35.321560 3.769330 4.221007
v -231.084976 -27.096348 -2.735046
v -233.531799 -12.517608 -2.735047
v -231.084976 -27.096348 2.735050
v -233.531799 -12.517608 2.735049
v -232.308334 -19.806982 -4.221006
v -232.308334 -19.806982 4.221009
v -179.626938 -14.402212 -2.735047
v -181.542542 0.306354 -2.735048
v -179.626938 -14.402212 2.735049
v -181.542542 0.306354 2.735048
v -180.584656 -7.048050 -4.221007
v -180.584656 -7.048049 4.221008
v -137.280426 -7.520053 -2.735048
v -138.733994 7.263463 -2.735049
v -137.280426 -7.520053 2.735049
v -138.733994 7.263463 2.735048
v -138.007156 -0.128353 -4.221008
v -138.007156 -0.128353 4.221008
v -91.670944 -3.613194 -2.735048
v -92.626976 11.213061 -2.735049
v -91.670944 -3.613193 2.735048
v -92.626976 11.213061 2.735047
v -92.148926 3.799933 -4.221008
v -92.148926 3.799933 4.221007
v -231.084976 -27.096348 -2.735046
v -232.308334 -19.806982 -4.221006
v -231.084976 -27.096348 2.735050
v -232.308334 -19.806982 4.221009
v -233.531799 -12.517608 2.735049
v -233.531799 -12.517608 -2.735047
v -79.258751 -2.857776 -3.134204
v -79.258751 -2.857775 3.134320
v -79.678795 5.012836 -5.019436
v -76.933235 4.934509 -5.019436
v -76.590210 -2.933983 -3.134204
v -76.590210 -2.933982 3.134320
v -79.678795 5.012837 5.019435
v -76.933235 4.934510 5.019435
v -77.276276 12.803001 -3.134321
v -77.276276 12.803001 3.134203
v -80.098763 12.883560 3.134203
v -80.098763 12.883560 -3.134321
vn 0.0570 -0.9984 0.0001
vn 0.0091 -1.0000 -0.0000
vn 0.0400 -0.9992 -0.0000
vn 0.9999 0.0119 -0.0000
vn 1.0000 -0.0030 -0.0000
vn 0.0160 -0.2537 -0.9672
vn 0.0169 -0.2838 -0.9587
vn 0.0073 -0.0397 -0.9992
vn 0.0199 -0.0066 -0.9998
vn 0.9991 0.0422 -0.0000
vn 0.0199 -0.0066 0.9998
vn 0.0146 0.2545 0.9670
vn 0.0047 0.0450 0.9990
vn 0.0160 -0.2537 0.9672
vn 0.9984 0.0571 -0.0000
vn 0.0069 1.0000 -0.0000
vn -0.0406 0.9992 -0.0000
vn -0.0086 0.2843 0.9587
vn -0.0332 0.2825 0.9587
vn -0.1171 0.9931 -0.0000
vn -0.1336 0.9910 -0.0000
vn -0.1927 0.9813 -0.0000
vn -0.0092 0.0437 -0.9990
vn -0.0580 0.2796 -0.9584
vn -0.0378 0.2819 -0.9587
vn 0.0020 0.0026 -1.0000
vn -0.0121 0.2841 -0.9587
vn 0.0335 -0.2825 -0.9587
vn 0.0554 -0.2801 -0.9584
vn 0.2448 -0.9696 -0.0000
vn 0.2129 -0.9771 -0.0000
vn 0.0524 -0.2497 -0.9669
vn 0.1949 -0.9808 -0.0000
vn 0.1335 -0.9911 -0.0000
vn -0.0005 -0.0405 0.9992
vn 0.0577 -0.2796 0.9584
vn 0.0381 -0.2819 0.9587
vn 0.0524 -0.2497 0.9669
vn 0.1172 -0.9931 -0.0000
vn -0.0029 0.0020 1.0000
vn 0.0186 -0.2837 0.9587
vn -0.0554 0.2801 0.9584
vn -0.2098 0.9778 -0.0000
vn -0.2395 0.9709 -0.0000
vn -0.0696 0.2465 0.9666
vn -0.9891 -0.1472 -0.0000
vn -0.9912 -0.1323 -0.0000
vn -0.0102 -0.0171 0.9998
vn -0.9842 -0.1771 -0.0000
vn -0.9814 -0.1920 -0.0000
vn -0.0102 -0.0170 -0.9998
vn -0.0696 0.2465 -0.9666
vn 0.0146 0.2545 -0.9670
vn 0.0473 -0.1919 -0.9803
vn -0.0066 0.0535 -0.9985
vn 0.0012 0.0022 -1.0000
vn 0.0381 -0.1933 -0.9804
vn 0.0120 -0.0785 0.9968
vn 0.0473 -0.1919 0.9803
vn 0.0415 -0.1926 0.9804
vn -0.0024 0.0013 1.0000
vn 0.2395 -0.9709 -0.0000
vn 0.2088 -0.9780 -0.0000
vn 0.1915 -0.9815 -0.0000
vn -0.0473 0.1919 -0.9803
vn -0.0408 0.1926 -0.9804
vn -0.2089 0.9779 -0.0000
vn -0.1913 0.9815 -0.0000
vn -0.0473 0.1919 0.9803
vn -0.0374 0.1933 0.9804
vn 0.0015 0.0019 -1.0000
vn 0.0227 -0.1949 -0.9806
vn 0.0259 -0.1946 0.9805
vn -0.0019 0.0014 1.0000
vn 0.1311 -0.9914 -0.0000
vn 0.1148 -0.9934 -0.0000
vn -0.0256 0.1945 -0.9806
vn -0.1312 0.9914 -0.0000
vn -0.1147 0.9934 -0.0000
vn -0.0224 0.1949 0.9806
vn 0.0023 0.0060 -1.0000
vn 0.0059 -0.1921 -0.9814
vn 0.0094 -0.1960 0.9806
vn -0.0023 0.0355 0.9994
vn 0.0484 -0.9988 -0.0000
vn 0.0279 -0.9996 -0.0000
vn -0.0092 0.1960 -0.9806
vn -0.0357 0.9994 -0.0000
vn -0.0072 0.1961 0.9806
vn -0.0007 -0.1911 0.9816
vn 0.0002 0.0102 0.9999
vn -0.0091 -1.0000 -0.0000
vn 0.0016 0.2070 0.9783
vn 0.0141 0.9999 -0.0000
vn 0.0016 0.2070 -0.9783
vn 0.0034 -0.0623 -0.9980
vn -0.0017 -0.1850 -0.9827
vn 0.9996 0.0268 -0.0000
vn -0.9862 -0.1655 -0.0000
vn -0.0285 -0.9996 -0.0000
vn -0.9986 -0.0533 -0.0000
vn -0.0067 -0.2333 -0.9724
vn -0.0040 0.0933 -0.9956
vn 0.0057 -0.0939 -0.9956
vn -0.0057 0.0644 0.9979
vn 0.0045 -0.0651 0.9979
vn -0.0067 -0.2333 0.9724
vn 0.9991 0.0436 -0.0000
vn 0.0067 0.2333 0.9724
vn 0.0285 0.9996 -0.0000
vn 0.0067 0.2333 -0.9724
vt 0.352875 0.633003
vt 0.487720 0.624855
vt 0.488281 0.599537
vt 0.352092 0.606343
vt 0.487645 0.574219
vt 0.351308 0.579684
vt 0.240814 0.597448
vt 0.138009 0.623971
vt 0.140166 0.650346
vt 0.242306 0.623994
vt 0.243799 0.650540
vt 0.142322 0.676721
vt 0.017551 0.722656
vt 0.011719 0.669544
vt 0.014008 0.696362
vt 0.016650 0.722656
vt 0.014184 0.699027
vt 0.139093 0.650501
vt 0.140917 0.674377
vt 0.011719 0.675397
vt 0.137269 0.626624
vt 0.241684 0.622251
vt 0.242951 0.646281
vt 0.240416 0.598221
vt 0.351952 0.603328
vt 0.352622 0.627461
vt 0.351283 0.579196
vt 0.488281 0.621609
vt 0.488281 0.595868
vt 0.488281 0.574219
vt 0.628906 0.511340
vt 0.628906 0.394910
vt 0.687500 0.542969
vt 0.687500 0.363281
vt 0.746094 0.394910
vt 0.746094 0.511340
vt 0.629684 0.397023
vt 0.628906 0.397023
vt 0.628906 0.509225
vt 0.687088 0.542969
vt 0.687889 0.542969
vt 0.629684 0.509225
vt 0.687889 0.363281
vt 0.687088 0.363281
vt 0.745271 0.397025
vt 0.746094 0.509227
vt 0.746094 0.397025
vt 0.745271 0.509227
s 1
f 613/338/687 610/339/688 611/338/689
f 610/339/688 612/339/688 611/338/689
f 616/340/690 612/339/691 610/339/691
f 610/339/692 613/338/693 614/341/694
f 615/340/695 610/339/692 614/341/694
f 615/340/696 616/340/690 610/339/691
f 616/340/697 618/342/698 617/341/699
f 612/339/700 616/340/697 617/341/699
f 618/342/701 616/340/690 615/340/696
f 619/342/701 618/342/701 615/340/696
f 618/342/702 619/342/702 620/343/703
f 618/342/698 620/343/704 617/341/699
f 620/343/704 621/344/705 617/341/699
f 623/344/706 621/344/707 620/343/703
f 619/342/702 622/343/703 620/343/703
f 622/343/703 623/344/706 620/343/703
f 623/344/706 624/345/708 621/344/707
f 625/346/709 624/345/710 623/344/711
f 626/347/712 625/346/709 623/344/711
f 626/347/712 623/344/711 622/343/713
f 614/341/694 626/347/712 622/343/713
f 627/348/714 626/347/712 614/341/694
f 628/349/715 625/346/709 626/347/712
f 627/348/714 628/349/715 626/347/712
f 630/350/716 629/350/716 628/349/717
f 628/349/715 629/350/718 625/346/709
f 631/349/719 630/350/716 628/349/717
f 631/349/719 628/349/717 627/348/720
f 632/346/721 631/349/722 633/348/723
f 630/350/724 631/349/722 632/346/721
f 633/348/725 631/349/719 627/348/720
f 634/347/726 632/346/721 633/348/723
f 633/348/725 627/348/720 613/338/687
f 634/347/726 633/348/723 611/338/727
f 611/338/689 633/348/725 613/338/687
f 621/344/705 634/347/726 617/341/699
f 621/344/705 635/345/728 634/347/726
f 635/345/728 632/346/721 634/347/726
f 617/341/699 634/347/726 611/338/727
f 624/345/708 635/345/729 621/344/707
f 624/345/708 636/351/730 635/345/729
f 636/351/730 637/351/730 635/345/729
f 635/345/728 637/351/731 632/346/721
f 638/352/732 637/351/733 636/351/733
f 637/351/731 638/352/734 632/346/721
f 639/352/735 638/352/732 636/351/733
f 630/350/736 638/352/732 639/352/735
f 638/352/734 630/350/724 632/346/721
f 629/350/736 630/350/736 639/352/735
f 629/350/718 639/352/737 625/346/709
f 639/352/737 636/351/738 625/346/709
f 636/351/738 624/345/710 625/346/709
f 613/338/693 627/348/714 614/341/694
f 622/343/713 619/342/739 614/341/694
f 619/342/739 615/340/695 614/341/694
f 611/338/727 612/339/700 617/341/699
f 646/353/740 650/354/741 656/355/742
f 652/356/743 646/353/740 656/355/742
f 651/354/744 648/353/745 654/356/746
f 657/355/747 651/354/744 654/356/746
f 648/353/748 646/353/748 652/356/749
f 654/356/750 648/353/748 652/356/749
f 650/354/741 647/357/751 653/358/752
f 656/355/742 650/354/741 653/358/752
f 647/357/730 649/357/730 655/358/753
f 653/358/754 647/357/730 655/358/753
f 649/357/755 651/354/744 657/355/747
f 655/358/756 649/357/755 657/355/747
f 652/356/743 656/355/742 662/359/757
f 658/360/758 652/356/743 662/359/757
f 657/355/747 654/356/746 660/360/759
f 663/359/760 657/355/747 660/360/759
f 654/356/750 652/356/749 658/360/761
f 660/360/762 654/356/750 658/360/761
f 656/355/742 653/358/752 659/361/763
f 662/359/757 656/355/742 659/361/763
f 653/358/754 655/358/753 661/361/764
f 659/361/765 653/358/754 661/361/764
f 655/358/756 657/355/747 663/359/760
f 661/361/766 655/358/756 663/359/760
f 658/360/758 662/359/757 668/362/767
f 664/363/768 658/360/758 668/362/767
f 663/359/760 660/360/759 666/363/769
f 669/362/770 663/359/760 666/363/769
f 660/360/762 658/360/761 664/363/771
f 666/363/772 660/360/762 664/363/771
f 662/359/757 659/361/763 665/364/773
f 668/362/767 662/359/757 665/364/773
f 659/361/765 661/361/764 667/364/774
f 665/364/774 659/361/765 667/364/774
f 661/361/766 663/359/760 669/362/770
f 667/364/775 661/361/766 669/362/770
f 642/365/776 645/366/777 669/362/770
f 666/363/769 642/365/776 669/362/770
f 640/365/778 642/365/778 666/363/772
f 664/363/771 640/365/778 666/363/772
f 643/367/779 667/364/775 669/362/770
f 645/366/777 643/367/779 669/362/770
f 641/367/780 665/364/774 667/364/774
f 643/367/780 641/367/780 667/364/774
f 641/367/781 644/366/782 668/362/767
f 665/364/773 641/367/781 668/362/767
f 644/366/782 640/365/783 664/363/768
f 668/362/767 644/366/782 664/363/768
f 643/367/784 645/366/784 644/366/784
f 641/367/784 643/367/784 644/366/784
f 645/366/784 642/365/784 640/365/784
f 644/366/784 645/366/784 640/365/784
f 670/368/785 672/369/785 671/370/785
f 672/369/785 673/371/785 671/370/785
f 673/371/785 674/372/785 675/373/785
f 671/370/785 673/371/785 675/373/785
f 681/374/786 677/375/786 676/376/786
f 677/375/787 678/377/787 676/376/787
f 676/376/788 678/377/789 679/378/790
f 680/379/788 676/376/788 679/378/790
f 680/379/786 681/374/786 676/376/786
f 683/380/791 682/381/792 681/374/793
f 682/381/792 677/375/793 681/374/793
f 680/379/794 679/378/794 681/374/794
f 683/380/794 681/374/794 679/378/794
f 686/382/795 682/381/792 683/380/791
f 684/383/794 683/380/794 679/378/794
f 684/383/794 685/384/794 683/380/794
f 685/384/795 686/382/795 683/380/791
f 687/385/796 686/382/796 685/384/796
f 687/385/787 678/377/787 686/382/787
f 686/382/787 678/377/787 682/381/787
f 678/377/789 687/385/797 684/383/797
f 684/383/796 687/385/796 685/384/796
f 679/378/790 678/377/789 684/383/797
f 678/377/787 677/375/787 682/381/787
