# Blender 5.2.0 LTS
# www.blender.org
o blade
v -33.167946 -1.961311 -1.857793
v 33.888592 -0.516454 1.857790
v 33.888592 -0.516455 -1.857794
v -33.167946 -1.961311 1.857790
v -35.494469 -1.976056 1.857790
v -35.494469 -1.976056 -1.857793
v -33.128986 3.644866 -2.924860
v -35.455509 3.630122 -2.924860
v -33.095940 8.400446 -1.857794
v 33.952099 8.622730 -1.857794
v 33.920338 4.053137 -2.924860
v 33.952099 8.622730 1.857790
v 33.920338 4.053137 2.924856
v -33.128986 3.644867 2.924856
v -33.095940 8.400446 1.857790
v -35.422462 8.385701 -1.857794
v -35.422462 8.385701 1.857790
v -35.455509 3.630123 2.924856
v -37.807766 -0.602279 -0.413059
v -89.446373 3.193912 -0.487019
v -37.887741 3.474942 -0.487019
v -89.211411 -0.881606 -0.413059
v -37.807766 -0.602279 0.413057
v -89.211411 -0.881606 0.413057
v -37.887741 3.474942 0.487017
v -89.446373 3.193912 0.487017
v -37.967716 7.552078 -0.000002
v -89.681412 7.269344 -0.000002
v -132.939270 -0.091918 -0.487019
v -133.312668 3.973191 -0.000001
v -173.858337 -1.521014 -0.000001
v -173.356293 -5.568796 -0.487019
v -132.939270 -0.091918 0.487017
v -173.356293 -5.568796 0.487017
v -132.565948 -4.156939 0.413057
v -172.854324 -9.616322 0.413058
v -132.565948 -4.156939 -0.413059
v -172.854324 -9.616322 -0.413058
v -215.411255 -17.971273 -0.413058
v -215.411255 -17.971273 0.413058
v -212.812012 -13.012930 -0.487018
v -214.623108 -9.461690 -0.000000
v -218.011948 -14.057666 -0.000000
v -212.812012 -13.012930 0.487018
v -219.608154 -18.780235 0.000000
v -34.015800 -2.157500 -1.099300
v -42.484100 -2.225600 1.099300
v -34.015800 -2.157500 1.099300
v -42.484100 -2.225600 -1.099300
v -34.015800 3.610700 -1.295900
v -42.484100 3.542600 -1.295900
v -34.015800 8.765900 -0.723001
v -34.015800 8.765900 0.722999
v -42.484100 8.697800 -0.723001
v -42.484100 8.697800 0.722999
v -34.015800 3.610700 1.295900
v -42.484100 3.542600 1.295900
v -35.188805 3.601435 0.000002
v -35.188805 3.601434 12.755768
v -35.185284 -3.155957 11.046864
v -35.182705 -8.102701 6.377952
v -35.181763 -9.913346 0.000005
v -35.182705 -8.102701 -6.377943
v -35.185284 -3.155955 -11.046858
v -35.188805 3.601436 -12.755766
v -35.192333 10.357965 -11.045453
v -35.194908 15.304867 -6.377564
v -35.195847 17.116213 -0.000002
v -35.194908 15.304921 6.377465
v -35.192333 10.357957 11.045443
v -37.100796 15.306503 6.377820
v -37.098217 10.359756 11.046862
v -37.094696 3.602365 0.000002
v -37.094696 3.602364 12.755768
v -37.091167 -3.154156 11.045443
v -37.088593 -8.101061 6.377564
v -37.087654 -9.912416 0.000005
v -37.088593 -8.101075 -6.377563
v -37.091167 -3.154166 -11.045456
v -37.094696 3.602365 -12.755766
v -37.098217 10.359756 -11.046861
v -37.100796 15.306500 -6.377948
v -37.101738 17.117147 -0.000002
vn 0.0139 -0.9999 -0.0000
vn 0.0215 -0.9998 -0.0000
vn 0.0026 -0.1870 -0.9824
vn 0.0008 -0.0179 -0.9998
vn 0.0030 -0.2075 -0.9782
vn 0.0063 -1.0000 -0.0000
vn 0.0012 -0.1870 -0.9824
vn 0.0004 0.0835 -0.9965
vn -0.0011 0.2189 -0.9757
vn -0.0011 0.2232 -0.9748
vn -0.0000 0.0019 -1.0000
vn 1.0000 -0.0069 -0.0000
vn 1.0000 -0.0070 -0.0000
vn 0.0004 0.0095 1.0000
vn 0.0008 0.0766 0.9971
vn -0.0011 0.2217 0.9751
vn 0.0030 -0.2075 0.9782
vn -0.0008 0.2274 0.9738
vn -0.0048 1.0000 -0.0000
vn -0.0063 1.0000 -0.0000
vn -0.0033 1.0000 -0.0000
vn -0.0014 0.2189 0.9757
vn -0.0006 -0.0543 0.9985
vn 0.0026 -0.1870 0.9824
vn 0.0012 -0.1870 0.9824
vn -0.0014 0.2189 -0.9757
vn 0.0007 -0.0181 -0.9998
vn -0.0015 0.0277 -0.9996
vn 0.0001 -0.0181 -0.9998
vn -0.0012 0.0714 -0.9974
vn 0.0348 -0.9994 -0.0000
vn 0.0054 -1.0000 -0.0000
vn 0.0404 -0.9992 -0.0000
vn 0.0406 -0.9992 -0.0000
vn 0.0007 -0.0181 0.9998
vn 0.0001 -0.0181 0.9998
vn 0.0008 0.0259 0.9997
vn -0.0031 0.0732 0.9973
vn -0.0006 0.1186 0.9929
vn -0.0048 0.1184 0.9930
vn -0.0048 0.1184 -0.9930
vn -0.0006 0.1186 -0.9929
vn -0.0047 0.0503 -0.9987
vn -0.0133 0.1177 -0.9930
vn -0.0115 0.1179 0.9930
vn -0.0098 0.0635 -0.9979
vn -0.0204 0.1193 -0.9926
vn -0.0194 0.1188 0.9927
vn -0.0058 0.0504 0.9987
vn -0.0060 0.0364 0.9993
vn 0.0019 -0.0180 0.9998
vn 0.0966 -0.9953 -0.0000
vn 0.1554 -0.9878 -0.0000
vn 0.1130 -0.9936 -0.0000
vn 0.0029 -0.0179 0.9998
vn 0.1717 -0.9852 -0.0000
vn 0.0019 -0.0180 -0.9998
vn 0.0029 -0.0179 -0.9998
vn -0.0437 0.0543 -0.9976
vn 0.1910 -0.9816 -0.0000
vn -0.0662 0.0175 -0.9977
vn -0.1051 0.0524 -0.9931
vn -0.0631 0.1040 -0.9926
vn -0.1046 0.0354 -0.9939
vn -0.0436 0.0544 0.9976
vn -0.0631 0.1040 0.9926
vn -0.1051 0.0524 0.9931
vn -0.1046 0.0354 0.9939
vn -0.0662 0.0175 0.9977
vn 0.1893 -0.9819 -0.0000
vn 0.0080 -1.0000 -0.0000
vn -0.0003 0.0141 -0.9999
vn 0.0003 -0.0341 -0.9994
vn -0.0003 0.0624 -0.9981
vn -0.0009 0.1105 -0.9939
vn -0.0080 1.0000 -0.0000
vn -1.0000 -0.0000 -0.0000
vn -0.0003 0.0624 0.9981
vn -0.0009 0.1105 0.9939
vn -0.0003 0.0141 0.9999
vn 0.0003 -0.0341 0.9994
vn 1.0000 0.0005 -0.0000
vn 0.0011 0.5439 0.8392
vn 0.0011 0.4163 0.9092
vn -0.0000 0.0638 0.9980
vn 0.0008 0.9026 0.4304
vn 0.0009 0.7985 0.6020
vn -1.0000 -0.0005 -0.0000
vn -0.0000 -0.0638 0.9980
vn -0.0011 -0.4163 0.9092
vn -0.0011 -0.5439 0.8392
vn -0.0009 -0.7985 0.6020
vn -0.0008 -0.9026 0.4304
vn -0.0006 -0.9925 -0.1223
vn -0.0006 -0.9925 0.1224
vn -0.0009 -0.7984 -0.6022
vn -0.0008 -0.9027 -0.4302
vn -0.0011 -0.4159 -0.9094
vn -0.0010 -0.5440 -0.8391
vn -0.0000 -0.0641 -0.9979
vn -0.0000 0.0641 -0.9979
vn 0.0011 0.4159 -0.9094
vn 0.0010 0.5440 -0.8391
vn 0.0009 0.7984 -0.6022
vn 0.0008 0.9027 -0.4302
vn 0.0006 0.9925 -0.1223
vn 0.0006 0.9925 0.1224
vt 0.023508 0.535156
vt 0.363281 0.519007
vt 0.023508 0.446391
vt 0.011719 0.535156
vt 0.011719 0.446391
vt 0.023508 0.371094
vt 0.363281 0.374302
vt 0.363281 0.446655
vt 0.011719 0.371094
vt 0.353784 0.833084
vt 0.353378 0.802916
vt 0.488281 0.822133
vt 0.488281 0.791926
vt 0.488281 0.761719
vt 0.352972 0.772748
vt 0.239423 0.834785
vt 0.238654 0.804718
vt 0.133402 0.882364
vt 0.132296 0.852447
vt 0.240191 0.864852
vt 0.134507 0.912279
vt 0.029795 0.944358
vt 0.022740 0.981560
vt 0.016137 0.953000
vt 0.025239 0.918348
vt 0.011719 0.988281
vt 0.628906 0.542969
vt 0.629632 0.363281
vt 0.691131 0.363281
vt 0.690405 0.542969
vt 0.746094 0.363281
vt 0.745368 0.542969
vt 0.544922 0.375318
vt 0.500000 0.363281
vt 0.500000 0.453125
vt 0.455078 0.375318
vt 0.422193 0.408203
vt 0.410156 0.453125
vt 0.422193 0.498047
vt 0.455078 0.530932
vt 0.500000 0.542969
vt 0.544922 0.530932
vt 0.577807 0.498047
vt 0.589844 0.453125
vt 0.577807 0.408204
s 1
f 4/1/1 1/1/1 2/2/2
f 1/1/1 3/2/2 2/2/2
f 1/1/3 7/3/4 3/2/5
f 1/1/1 4/1/1 5/4/6
f 6/4/6 1/1/1 5/4/6
f 7/3/4 1/1/3 6/4/7
f 8/5/8 7/3/4 6/4/7
f 9/6/9 7/3/4 8/5/8
f 7/3/4 9/6/9 10/7/10
f 7/3/4 11/8/11 3/2/5
f 11/8/11 7/3/4 10/7/10
f 3/2/12 11/8/12 13/8/12
f 11/8/12 10/7/13 12/7/13
f 13/8/12 11/8/12 12/7/13
f 14/3/14 13/8/15 15/6/16
f 2/2/17 13/8/15 14/3/14
f 2/2/12 3/2/12 13/8/12
f 13/8/15 12/7/18 15/6/16
f 15/6/19 9/6/19 16/9/20
f 9/6/19 15/6/19 10/7/21
f 15/6/19 12/7/21 10/7/21
f 17/9/20 15/6/19 16/9/20
f 14/3/14 15/6/16 17/9/22
f 18/5/23 14/3/14 17/9/22
f 4/1/24 14/3/14 18/5/23
f 5/4/25 4/1/24 18/5/23
f 16/9/26 9/6/9 8/5/8
f 4/1/24 2/2/17 14/3/14
f 22/10/27 20/11/28 19/12/29
f 20/11/28 21/13/30 19/12/29
f 22/10/31 19/12/32 23/12/32
f 24/10/33 22/10/34 23/12/32
f 24/10/35 23/12/36 25/13/37
f 26/11/38 24/10/35 25/13/37
f 26/11/38 25/13/37 27/14/39
f 28/15/40 26/11/38 27/14/39
f 28/15/41 27/14/42 21/13/30
f 20/11/28 29/16/43 28/15/41
f 29/16/43 30/17/44 28/15/41
f 28/15/40 30/17/45 26/11/38
f 20/11/28 28/15/41 21/13/30
f 32/18/46 31/19/47 30/17/44
f 30/17/45 31/19/48 33/16/49
f 29/16/43 32/18/46 30/17/44
f 30/17/45 33/16/49 26/11/38
f 31/19/48 34/18/50 33/16/49
f 26/11/38 33/16/49 24/10/35
f 33/16/49 35/20/51 24/10/35
f 33/16/49 34/18/50 35/20/51
f 35/20/52 36/21/53 37/20/54
f 34/18/50 36/21/55 35/20/51
f 35/20/52 37/20/54 22/10/34
f 24/10/33 35/20/52 22/10/34
f 36/21/53 38/21/56 37/20/54
f 37/20/57 38/21/58 29/16/43
f 37/20/57 29/16/43 20/11/28
f 22/10/27 37/20/57 20/11/28
f 38/21/58 32/18/46 29/16/43
f 41/22/59 32/18/46 38/21/58
f 36/21/53 40/23/60 38/21/56
f 40/23/60 39/23/60 38/21/56
f 39/23/61 41/22/59 38/21/58
f 41/22/59 39/23/61 43/24/62
f 41/22/59 42/25/63 31/19/47
f 42/25/63 41/22/59 43/24/62
f 32/18/46 41/22/59 31/19/47
f 39/23/61 45/26/64 43/24/62
f 44/22/65 42/25/66 43/24/67
f 45/26/68 40/23/69 43/24/67
f 40/23/69 44/22/65 43/24/67
f 39/23/60 40/23/60 45/26/70
f 42/25/66 44/22/65 31/19/48
f 44/22/65 40/23/69 36/21/55
f 34/18/50 44/22/65 36/21/55
f 44/22/65 34/18/50 31/19/48
f 49/27/71 46/28/71 47/27/71
f 46/28/71 48/28/71 47/27/71
f 50/29/72 46/28/73 49/27/73
f 51/30/74 50/29/72 49/27/73
f 52/31/75 50/29/72 51/30/74
f 53/31/76 52/31/76 54/32/76
f 54/32/75 52/31/75 51/30/74
f 55/32/76 53/31/76 54/32/76
f 55/32/77 54/32/77 51/30/77
f 56/29/78 53/31/79 55/32/79
f 57/30/77 55/32/77 49/27/77
f 49/27/77 55/32/77 51/30/77
f 57/30/80 56/29/78 55/32/79
f 47/27/77 57/30/77 49/27/77
f 47/27/81 48/28/81 57/30/80
f 48/28/81 56/29/78 57/30/80
f 70/33/82 59/34/82 58/35/82
f 59/34/82 60/36/82 58/35/82
f 60/36/82 61/37/82 58/35/82
f 61/37/82 62/38/82 58/35/82
f 62/38/82 63/39/82 58/35/82
f 63/39/82 64/40/82 58/35/82
f 64/40/82 65/41/82 58/35/82
f 65/41/82 66/42/82 58/35/82
f 66/42/82 67/43/82 58/35/82
f 67/43/82 68/44/82 58/35/82
f 68/44/82 69/45/82 58/35/82
f 69/45/82 70/33/82 58/35/82
f 70/33/83 72/33/84 59/34/85
f 69/45/86 71/45/87 70/33/83
f 71/45/87 72/33/84 70/33/83
f 72/33/88 71/45/88 73/35/88
f 74/34/88 72/33/88 73/35/88
f 72/33/84 74/34/89 59/34/85
f 59/34/85 74/34/89 60/36/90
f 74/34/89 75/36/91 60/36/90
f 75/36/88 74/34/88 73/35/88
f 60/36/90 75/36/91 61/37/92
f 75/36/91 76/37/93 61/37/92
f 76/37/88 75/36/88 73/35/88
f 77/38/88 76/37/88 73/35/88
f 76/37/93 77/38/94 62/38/95
f 61/37/92 76/37/93 62/38/95
f 78/39/88 77/38/88 73/35/88
f 77/38/94 78/39/96 63/39/97
f 62/38/95 77/38/94 63/39/97
f 79/40/88 78/39/88 73/35/88
f 78/39/96 79/40/98 64/40/99
f 63/39/97 78/39/96 64/40/99
f 64/40/99 79/40/98 65/41/100
f 79/40/98 80/41/101 65/41/100
f 80/41/88 79/40/88 73/35/88
f 65/41/100 80/41/101 66/42/102
f 80/41/101 81/42/103 66/42/102
f 81/42/88 80/41/88 73/35/88
f 66/42/102 81/42/103 67/43/104
f 81/42/103 82/43/105 67/43/104
f 82/43/88 81/42/88 73/35/88
f 67/43/104 82/43/105 68/44/106
f 82/43/105 83/44/107 68/44/106
f 83/44/88 82/43/88 73/35/88
f 68/44/106 83/44/107 69/45/86
f 83/44/107 71/45/87 69/45/86
f 71/45/88 83/44/88 73/35/88
o blade_damaged
v -37.912891 -0.665103 -0.413059
v -89.352333 1.553927 -0.487019
v -37.887589 3.420911 -0.487019
v -89.222900 -2.525613 -0.413059
v -37.912891 -0.665103 0.413057
v -89.222900 -2.525613 0.413057
v -37.887589 3.420911 0.487017
v -37.862289 7.506840 -0.000002
v -89.352333 1.553927 0.487017
v -89.481842 5.633381 -0.000002
v -33.166538 -1.758672 -1.857793
v 33.888588 -0.516455 1.857791
v 33.888588 -0.516455 -1.857793
v -33.166538 -1.758671 1.857791
v -35.493061 -1.773416 1.857791
v -35.493061 -1.773416 -1.857793
v -33.129101 3.628212 -2.924860
v 33.920334 4.053138 -2.924860
v -35.455627 3.613468 -2.924860
v -33.097347 8.197805 -1.857794
v 33.952095 8.622730 -1.857794
v -33.097347 8.197805 1.857790
v 33.952095 8.622730 1.857790
v 33.920334 4.053138 2.924856
v -33.129101 3.628212 2.924856
v -35.455627 3.613468 2.924856
v -35.423874 8.183061 1.857790
v -35.423874 8.183061 -1.857794
v -35.188805 3.601425 0.000002
v -35.188805 3.601424 12.755841
v -35.185207 -3.155941 11.046927
v -35.182571 -8.102668 6.377988
v -35.181606 -9.913305 0.000005
v -35.182571 -8.102669 -6.377979
v -35.185207 -3.155940 -11.046922
v -35.188805 3.601426 -12.755838
v -35.192410 10.357912 -11.045486
v -35.195042 15.304801 -6.377594
v -35.196003 17.116154 -0.000002
v -35.195042 15.304854 6.377494
v -35.192410 10.357903 11.045476
v -37.100929 15.306468 6.377856
v -37.098293 10.359740 11.046925
v -37.094696 3.602374 12.755841
v -37.094696 3.602375 0.000002
v -37.088459 -8.101007 -6.377591
v -37.091091 -3.154112 -11.045488
v -37.094696 3.602376 -12.755838
v -37.098293 10.359741 -11.046924
v -37.100929 15.306468 -6.377985
v -37.091091 -3.154102 11.045476
v -37.101894 17.117105 -0.000002
v -37.088459 -8.100992 6.377594
v -37.087498 -9.912356 0.000005
v -34.015800 -2.157500 -1.099300
v -42.484100 -2.225600 1.099300
v -34.015800 -2.157500 1.099300
v -42.484100 -2.225600 -1.099300
v -34.015800 3.610700 -1.295900
v -42.484100 3.542600 -1.295900
v -34.015800 8.765900 -0.723001
v -34.015800 8.765900 0.722999
v -42.484100 8.697800 -0.723001
v -42.484100 8.697800 0.722999
v -34.015800 3.610700 1.295900
v -42.484100 3.542600 1.295900
vn 0.0007 -0.0181 -0.9998
vn -0.0002 0.0274 -0.9996
vn -0.0024 0.0263 -0.9997
vn -0.0014 0.0742 -0.9972
vn 0.0362 -0.9993 -0.0000
vn 0.0007 -0.0181 0.9998
vn -0.0011 0.0274 0.9996
vn -0.0027 0.0739 0.9973
vn -0.0007 0.0266 0.9996
vn -0.0043 0.1184 0.9930
vn -0.0027 0.0731 0.9973
vn -0.0043 0.1184 -0.9930
vn -0.0033 0.0731 -0.9973
vn 0.0124 -0.9999 -0.0000
vn 0.0185 -0.9998 -0.0000
vn 0.0024 -0.1943 -0.9809
vn 0.0007 -0.0187 -0.9998
vn 0.0028 -0.2111 -0.9775
vn 0.0063 -1.0000 -0.0000
vn 0.0012 -0.1943 -0.9809
vn -0.0000 0.0019 -1.0000
vn -0.0014 0.2274 -0.9738
vn 0.0004 0.0868 -0.9962
vn -0.0063 1.0000 -0.0000
vn 1.0000 -0.0069 -0.0000
vn 0.0005 0.0795 0.9968
vn -0.0014 0.2274 0.9738
vn 0.0003 0.0114 0.9999
vn 0.0028 -0.2111 0.9775
vn 0.0024 -0.1943 0.9809
vn -0.0006 -0.0566 0.9984
vn 0.0012 -0.1943 0.9809
vn 1.0000 0.0005 -0.0000
vn 0.0011 0.5439 0.8392
vn 0.0011 0.4163 0.9092
vn -0.0000 0.0638 0.9980
vn 0.0008 0.9026 0.4304
vn 0.0009 0.7985 0.6020
vn -0.0000 -0.0638 0.9980
vn -1.0000 -0.0005 -0.0000
vn -0.0006 -0.9925 0.1224
vn -0.0006 -0.9925 -0.1223
vn -0.0008 -0.9027 -0.4302
vn -0.0008 -0.9026 0.4304
vn -0.0010 -0.7984 -0.6022
vn -0.0010 -0.7985 0.6020
vn -0.0011 -0.5439 0.8392
vn 0.0006 0.9925 -0.1223
vn 0.0006 0.9925 0.1224
vn 0.0008 0.9027 -0.4302
vn -0.0011 -0.4163 0.9092
vn 0.0010 0.7984 -0.6022
vn 0.0011 0.5440 -0.8391
vn 0.0011 0.4159 -0.9094
vn -0.0000 0.0641 -0.9979
vn -0.0011 -0.4159 -0.9094
vn -0.0000 -0.0641 -0.9979
vn -0.0011 -0.5440 -0.8391
vn 0.0080 -1.0000 -0.0000
vn -0.0003 0.0141 -0.9999
vn 0.0003 -0.0341 -0.9994
vn -0.0003 0.0624 -0.9981
vn -0.0009 0.1105 -0.9939
vn -0.0080 1.0000 -0.0000
vn -1.0000 -0.0000 -0.0000
vn -0.0003 0.0141 0.9999
vn -0.0003 0.0624 0.9981
vn -0.0009 0.1105 0.9939
vn 0.0003 -0.0341 0.9994
vt 0.014576 0.988281
vt 0.013148 0.892507
vt 0.488281 0.953516
vt 0.488281 0.857616
vt 0.488281 0.761719
vt 0.011719 0.796734
vt 0.023508 0.535156
vt 0.363281 0.521689
vt 0.023508 0.446391
vt 0.011719 0.535156
vt 0.363281 0.446391
vt 0.363281 0.371094
vt 0.011719 0.446391
vt 0.023508 0.371094
vt 0.011719 0.371094
vt 0.544922 0.375318
vt 0.500000 0.363281
vt 0.500000 0.453125
vt 0.455078 0.375318
vt 0.422193 0.408203
vt 0.410156 0.453125
vt 0.422193 0.498047
vt 0.455078 0.530932
vt 0.500000 0.542969
vt 0.544922 0.530932
vt 0.577807 0.498047
vt 0.589844 0.453125
vt 0.577807 0.408204
vt 0.628906 0.542969
vt 0.629632 0.363281
vt 0.691131 0.363281
vt 0.690405 0.542969
vt 0.746094 0.363281
vt 0.745368 0.542969
s 1
f 87/46/108 85/47/109 84/48/108
f 85/47/110 86/49/111 84/48/108
f 87/46/112 84/48/112 88/48/112
f 89/46/112 87/46/112 88/48/112
f 89/46/113 88/48/113 90/49/114
f 92/47/115 90/49/116 91/50/117
f 92/47/115 89/46/113 90/49/116
f 93/51/117 92/47/118 91/50/117
f 93/51/119 91/50/119 86/49/120
f 85/47/110 93/51/119 86/49/111
f 97/52/121 94/52/121 95/53/122
f 94/52/121 96/53/122 95/53/122
f 94/52/123 100/54/124 96/53/125
f 94/52/121 97/52/121 98/55/126
f 99/55/126 94/52/121 98/55/126
f 100/54/124 94/52/123 99/55/127
f 101/56/128 100/54/124 104/57/129
f 100/54/124 101/56/128 96/53/125
f 102/58/130 100/54/124 99/55/127
f 103/59/129 100/54/124 102/58/130
f 100/54/124 103/59/129 104/57/129
f 103/59/131 105/59/131 104/57/131
f 105/59/131 106/57/131 104/57/131
f 101/56/132 104/57/132 106/57/132
f 107/56/133 106/57/134 105/59/134
f 107/56/132 101/56/132 106/57/132
f 96/53/132 101/56/132 107/56/132
f 108/54/135 107/56/133 105/59/134
f 95/53/136 107/56/133 108/54/135
f 95/53/132 96/53/132 107/56/132
f 97/52/137 108/54/135 109/58/138
f 97/52/137 95/53/136 108/54/135
f 108/54/135 105/59/134 110/60/134
f 109/58/138 108/54/135 110/60/134
f 110/60/131 105/59/131 111/60/131
f 105/59/131 103/59/131 111/60/131
f 111/60/129 103/59/129 102/58/130
f 98/55/139 97/52/137 109/58/138
f 124/61/140 113/62/140 112/63/140
f 113/62/140 114/64/140 112/63/140
f 114/64/140 115/65/140 112/63/140
f 115/65/140 116/66/140 112/63/140
f 116/66/140 117/67/140 112/63/140
f 117/67/140 118/68/140 112/63/140
f 118/68/140 119/69/140 112/63/140
f 119/69/140 120/70/140 112/63/140
f 120/70/140 121/71/140 112/63/140
f 121/71/140 122/72/140 112/63/140
f 122/72/140 123/73/140 112/63/140
f 123/73/140 124/61/140 112/63/140
f 124/61/141 126/61/142 113/62/143
f 123/73/144 125/73/145 124/61/141
f 125/73/145 126/61/142 124/61/141
f 126/61/142 127/62/146 113/62/143
f 127/62/147 126/61/147 128/63/147
f 126/61/147 125/73/147 128/63/147
f 130/68/147 129/67/147 128/63/147
f 129/67/147 137/66/147 128/63/147
f 131/69/147 130/68/147 128/63/147
f 132/70/147 131/69/147 128/63/147
f 133/71/147 132/70/147 128/63/147
f 134/64/147 127/62/147 128/63/147
f 135/72/147 133/71/147 128/63/147
f 136/65/147 134/64/147 128/63/147
f 125/73/147 135/72/147 128/63/147
f 137/66/147 136/65/147 128/63/147
f 116/66/148 137/66/149 117/67/150
f 136/65/151 137/66/149 116/66/148
f 137/66/149 129/67/152 117/67/150
f 115/65/153 136/65/151 116/66/148
f 134/64/154 136/65/151 115/65/153
f 122/72/155 135/72/156 123/73/144
f 133/71/157 135/72/156 122/72/155
f 135/72/156 125/73/145 123/73/144
f 114/64/158 134/64/154 115/65/153
f 127/62/146 134/64/154 114/64/158
f 121/71/159 133/71/157 122/72/155
f 132/70/160 133/71/157 121/71/159
f 120/70/161 132/70/160 121/71/159
f 131/69/162 132/70/160 120/70/161
f 130/68/163 131/69/162 119/69/164
f 119/69/164 131/69/162 120/70/161
f 129/67/152 130/68/163 118/68/165
f 118/68/165 130/68/163 119/69/164
f 117/67/150 129/67/152 118/68/165
f 113/62/143 127/62/146 114/64/158
f 141/74/166 138/75/166 139/74/166
f 138/75/166 140/75/166 139/74/166
f 142/76/167 138/75/168 141/74/168
f 143/77/169 142/76/167 141/74/168
f 144/78/170 142/76/167 143/77/169
f 145/78/171 144/78/171 146/79/171
f 146/79/170 144/78/170 143/77/169
f 147/79/171 145/78/171 146/79/171
f 147/79/172 146/79/172 143/77/172
f 149/77/173 148/76/174 147/79/175
f 148/76/174 145/78/175 147/79/175
f 149/77/172 147/79/172 141/74/172
f 141/74/172 147/79/172 143/77/172
f 140/75/176 148/76/174 149/77/173
f 139/74/176 140/75/176 149/77/173
f 139/74/172 149/77/172 141/74/172
o blade_fragment
v -215.931625 -18.138594 -0.413057
v -220.128448 -18.948765 0.000001
v -215.931625 -18.138594 0.413059
v -218.531265 -14.225461 0.000001
v -213.331390 -13.179222 -0.487017
v -173.375443 -9.771342 -0.413057
v -173.876419 -5.723707 -0.487018
v -173.375443 -9.771342 0.413059
v -133.460663 -0.235305 -0.487018
v -133.088303 -4.300475 -0.413058
v -133.088303 -4.300475 0.413058
v -89.969734 3.062763 -0.487018
v -89.735718 -1.012943 -0.413058
v -89.735718 -1.012943 0.413058
v -89.969734 3.062763 0.487018
v -133.460663 -0.235304 0.487018
v -173.876419 -5.723707 0.487018
v -133.833130 3.829953 -0.000000
v -174.377502 -1.675813 0.000000
v -213.331390 -13.179222 0.487019
v -215.141571 -9.628261 0.000001
v -90.203819 7.138384 -0.000001
vn -0.0662 0.0175 -0.9977
vn -0.1047 0.0354 -0.9939
vn -0.1051 0.0524 -0.9931
vn 0.1913 -0.9815 -0.0000
vn 0.1895 -0.9819 -0.0000
vn 0.1720 -0.9851 -0.0000
vn -0.0438 0.0542 -0.9976
vn 0.0029 -0.0179 -0.9998
vn -0.0097 0.0635 -0.9979
vn -0.0047 0.0503 -0.9987
vn 0.1557 -0.9878 -0.0000
vn 0.1133 -0.9936 -0.0000
vn 0.0019 -0.0180 -0.9998
vn -0.0015 0.0266 -0.9996
vn 0.0969 -0.9953 -0.0000
vn 0.0756 -0.9971 -0.0000
vn 0.0014 -0.0181 -0.9998
vn -0.0059 0.0720 0.9974
vn -0.0058 0.0504 0.9987
vn 0.0014 -0.0181 0.9998
vn 0.0019 -0.0180 0.9998
vn -0.0195 0.1188 0.9927
vn -0.0061 0.0364 0.9993
vn -0.0115 0.1179 0.9930
vn -0.0204 0.1193 -0.9926
vn -0.0631 0.1040 -0.9926
vn -0.0631 0.1040 0.9926
vn -0.0438 0.0543 0.9976
vn -0.0133 0.1177 -0.9930
vn -0.1052 0.0524 0.9931
vn -0.0662 0.0175 0.9977
vn 0.0029 -0.0179 0.9998
vn -0.0090 0.1181 -0.9930
vn -0.0090 0.1181 0.9930
vn -0.1047 0.0354 0.9939
vt 0.027074 0.981216
vt 0.011719 0.988281
vt 0.017874 0.951195
vt 0.182787 0.908389
vt 0.036902 0.942111
vt 0.181247 0.876944
vt 0.328954 0.826930
vt 0.330024 0.858536
vt 0.487716 0.793430
vt 0.488281 0.825142
vt 0.179706 0.845496
vt 0.327884 0.795324
vt 0.030555 0.914770
vt 0.487151 0.761719
s 1
f 150/80/177 151/81/178 153/82/179
f 150/80/180 152/80/180 151/81/181
f 152/80/180 150/80/180 155/83/182
f 154/84/183 150/80/177 153/82/179
f 150/80/177 154/84/183 155/83/184
f 154/84/183 156/85/185 155/83/184
f 155/83/184 156/85/185 158/86/186
f 157/83/187 155/83/182 159/87/188
f 157/83/187 152/80/180 155/83/182
f 159/87/189 155/83/184 158/86/186
f 159/87/189 158/86/186 161/88/190
f 160/87/191 159/87/188 162/89/192
f 160/87/191 157/83/187 159/87/188
f 162/89/193 159/87/189 161/88/190
f 163/89/192 160/87/191 162/89/192
f 164/88/194 165/86/195 163/89/196
f 165/86/195 160/87/197 163/89/196
f 168/90/198 166/85/199 165/86/195
f 165/86/195 166/85/199 160/87/197
f 167/91/200 165/86/195 164/88/194
f 167/91/200 168/90/198 165/86/195
f 156/85/185 154/84/183 168/90/201
f 154/84/183 170/92/202 168/90/201
f 170/92/203 169/84/204 168/90/198
f 169/84/204 166/85/199 168/90/198
f 156/85/185 168/90/201 167/91/205
f 169/84/204 170/92/203 153/82/206
f 170/92/202 154/84/183 153/82/179
f 152/80/207 169/84/204 153/82/206
f 166/85/199 169/84/204 157/83/208
f 169/84/204 152/80/207 157/83/208
f 158/86/186 167/91/205 171/93/209
f 158/86/186 156/85/185 167/91/205
f 171/93/210 167/91/200 164/88/194
f 161/88/190 158/86/186 171/93/209
f 166/85/199 157/83/208 160/87/197
f 151/81/211 152/80/207 153/82/206
o sheath
v -35.151520 -4.606251 -3.483364
v -91.580788 -5.117278 3.857580
v -35.151520 -4.606250 3.483364
v -91.580788 -5.117279 -3.857579
v -92.130501 3.663014 -6.465957
v -35.126854 3.711281 -5.343424
v -35.126854 3.711282 5.343423
v -92.130501 3.663015 6.465956
v -35.603607 12.048060 3.483363
v -35.603607 12.048060 -3.483365
v -92.680283 12.443311 3.857579
v -138.827194 8.378007 3.857579
v -92.680283 12.443311 -3.857581
v -138.827194 8.378007 -3.857581
v -181.679291 1.308304 -3.857580
v -180.556610 -7.400518 -6.465956
v -137.981079 -0.376529 -6.465956
v -137.135162 -9.130944 -3.857579
v -179.434082 -16.109221 -3.857579
v -231.328430 -29.209797 -3.735314
v -231.328430 -29.209797 3.735318
v -179.434082 -16.109221 3.857581
v -180.556610 -7.400517 6.465957
v -137.135162 -9.130944 3.857581
v -137.981079 -0.376528 6.465956
v -181.679291 1.308304 3.857580
v -234.213257 -11.648465 -3.735315
v -234.213257 -11.648465 3.735317
v -233.031479 -20.505075 5.729938
v -233.031479 -20.505075 -5.729935
v -35.109623 -4.125423 -2.735048
v -35.499813 10.409506 -2.735049
v -35.109623 -4.125423 2.735048
v -35.499813 10.409506 2.735047
v -35.321560 3.769329 -4.221008
v -35.321560 3.769330 4.221007
v -231.084976 -27.096348 -2.735046
v -233.531799 -12.517608 -2.735047
v -231.084976 -27.096348 2.735050
v -233.531799 -12.517608 2.735049
v -232.308334 -19.806982 -4.221006
v -232.308334 -19.806982 4.221009
v -179.626938 -14.402212 -2.735047
v -181.542542 0.306354 -2.735048
v -179.626938 -14.402212 2.735049
v -181.542542 0.306354 2.735048
v -180.584656 -7.048050 -4.221007
v -180.584656 -7.048049 4.221008
v -137.280426 -7.520053 -2.735048
v -138.733994 7.263463 -2.735049
v -137.280426 -7.520053 2.735049
v -138.733994 7.263463 2.735048
v -138.007156 -0.128353 -4.221008
v -138.007156 -0.128353 4.221008
v -91.670944 -3.613194 -2.735048
v -92.626976 11.213061 -2.735049
v -91.670944 -3.613193 2.735048
v -92.626976 11.213061 2.735047
v -92.148926 3.799933 -4.221008
v -92.148926 3.799933 4.221007
v -231.084976 -27.096348 -2.735046
v -232.308334 -19.806982 -4.221006
v -231.084976 -27.096348 2.735050
v -232.308334 -19.806982 4.221009
v -233.531799 -12.517608 2.735049
v -233.531799 -12.517608 -2.735047
v -79.258751 -2.857776 -3.134204
v -79.258751 -2.857775 3.134320
v -79.678795 5.012836 -5.019436
v -76.933235 4.934509 -5.019436
v -76.590210 -2.933983 -3.134204
v -76.590210 -2.933982 3.134320
v -79.678795 5.012837 5.019435
v -76.933235 4.934510 5.019435
v -77.276276 12.803001 -3.134321
v -77.276276 12.803001 3.134203
v -80.098763 12.883560 3.134203
v -80.098763 12.883560 -3.134321
vn 0.0570 -0.9984 0.0001
vn 0.0091 -1.0000 -0.0000
vn 0.0400 -0.9992 -0.0000
vn 0.9999 0.0119 -0.0000
vn 1.0000 -0.0030 -0.0000
vn 0.0160 -0.2537 -0.9672
vn 0.0169 -0.2838 -0.9587
vn 0.0073 -0.0397 -0.9992
vn 0.0199 -0.0066 -0.9998
vn 0.9991 0.0422 -0.0000
vn 0.0199 -0.0066 0.9998
vn 0.0146 0.2545 0.9670
vn 0.0047 0.0450 0.9990
vn 0.0160 -0.2537 0.9672
vn 0.9984 0.0571 -0.0000
vn 0.0069 1.0000 -0.0000
vn -0.0406 0.9992 -0.0000
vn -0.0086 0.2843 0.9587
vn -0.0332 0.2825 0.9587
vn -0.1171 0.9931 -0.0000
vn -0.1336 0.9910 -0.0000
vn -0.1927 0.9813 -0.0000
vn -0.0092 0.0437 -0.9990
vn -0.0580 0.2796 -0.9584
vn -0.0378 0.2819 -0.9587
vn 0.0020 0.0026 -1.0000
vn -0.0121 0.2841 -0.9587
vn 0.0335 -0.2825 -0.9587
vn 0.0554 -0.2801 -0.9584
vn 0.2448 -0.9696 -0.0000
vn 0.2129 -0.9771 -0.0000
vn 0.0524 -0.2497 -0.9669
vn 0.1949 -0.9808 -0.0000
vn 0.1335 -0.9911 -0.0000
vn -0.0005 -0.0405 0.9992
vn 0.0577 -0.2796 0.9584
vn 0.0381 -0.2819 0.9587
vn 0.0524 -0.2497 0.9669
vn 0.1172 -0.9931 -0.0000
vn -0.0029 0.0020 1.0000
vn 0.0186 -0.2837 0.9587
vn -0.0554 0.2801 0.9584
vn -0.2098 0.9778 -0.0000
vn -0.2395 0.9709 -0.0000
vn -0.0696 0.2465 0.9666
vn -0.9891 -0.1472 -0.0000
vn -0.9912 -0.1323 -0.0000
vn -0.0102 -0.0171 0.9998
vn -0.9842 -0.1771 -0.0000
vn -0.9814 -0.1920 -0.0000
vn -0.0102 -0.0170 -0.9998
vn -0.0696 0.2465 -0.9666
vn 0.0146 0.2545 -0.9670
vn 0.0473 -0.1919 -0.9803
vn -0.0066 0.0535 -0.9985
vn 0.0012 0.0022 -1.0000
vn 0.0381 -0.1933 -0.9804
vn 0.0120 -0.0785 0.9968
vn 0.0473 -0.1919 0.9803
vn 0.0415 -0.1926 0.9804
vn -0.0024 0.0013 1.0000
vn 0.2395 -0.9709 -0.0000
vn 0.2088 -0.9780 -0.0000
vn 0.1915 -0.9815 -0.0000
vn -0.0473 0.1919 -0.9803
vn -0.0408 0.1926 -0.9804
vn -0.2089 0.9779 -0.0000
vn -0.1913 0.9815 -0.0000
vn -0.0473 0.1919 0.9803
vn -0.0374 0.1933 0.9804
vn 0.0015 0.0019 -1.0000
vn 0.0227 -0.1949 -0.9806
vn 0.0259 -0.1946 0.9805
vn -0.0019 0.0014 1.0000
vn 0.1311 -0.9914 -0.0000
vn 0.1148 -0.9934 -0.0000
vn -0.0256 0.1945 -0.9806
vn -0.1312 0.9914 -0.0000
vn -0.1147 0.9934 -0.0000
vn -0.0224 0.1949 0.9806
vn 0.0023 0.0060 -1.0000
vn 0.0059 -0.1921 -0.9814
vn 0.0094 -0.1960 0.9806
vn -0.0023 0.0355 0.9994
vn 0.0484 -0.9988 -0.0000
vn 0.0279 -0.9996 -0.0000
vn -0.0092 0.1960 -0.9806
vn -0.0357 0.9994 -0.0000
vn -0.0072 0.1961 0.9806
vn -0.0007 -0.1911 0.9816
vn 0.0002 0.0102 0.9999
vn -0.0091 -1.0000 -0.0000
vn 0.0016 0.2070 0.9783
vn 0.0141 0.9999 -0.0000
vn 0.0016 0.2070 -0.9783
vn 0.0034 -0.0623 -0.9980
vn -0.0017 -0.1850 -0.9827
vn 0.9996 0.0268 -0.0000
vn -0.9862 -0.1655 -0.0000
vn -0.0285 -0.9996 -0.0000
vn -0.9986 -0.0533 -0.0000
vn -0.0067 -0.2333 -0.9724
vn -0.0040 0.0933 -0.9956
vn 0.0057 -0.0939 -0.9956
vn -0.0057 0.0644 0.9979
vn 0.0045 -0.0651 0.9979
vn -0.0067 -0.2333 0.9724
vn 0.9991 0.0436 -0.0000
vn 0.0067 0.2333 0.9724
vn 0.0285 0.9996 -0.0000
vn 0.0067 0.2333 -0.9724
vt 0.352875 0.633003
vt 0.487720 0.624855
vt 0.488281 0.599537
vt 0.352092 0.606343
vt 0.487645 0.574219
vt 0.351308 0.579684
vt 0.240814 0.597448
vt 0.138009 0.623971
vt 0.140166 0.650346
vt 0.242306 0.623994
vt 0.243799 0.650540
vt 0.142322 0.676721
vt 0.017551 0.722656
vt 0.011719 0.669544
vt 0.014008 0.696362
vt 0.016650 0.722656
vt 0.014184 0.699027
vt 0.139093 0.650501
vt 0.140917 0.674377
vt 0.011719 0.675397
vt 0.137269 0.626624
vt 0.241684 0.622251
vt 0.242951 0.646281
vt 0.240416 0.598221
vt 0.351952 0.603328
vt 0.352622 0.627461
vt 0.351283 0.579196
vt 0.488281 0.621609
vt 0.488281 0.595868
vt 0.488281 0.574219
vt 0.628906 0.511340
vt 0.628906 0.394910
vt 0.687500 0.542969
vt 0.687500 0.363281
vt 0.746094 0.394910
vt 0.746094 0.511340
vt 0.629684 0.397023
vt 0.628906 0.397023
vt 0.628906 0.509225
vt 0.687088 0.542969
vt 0.687889 0.542969
vt 0.629684 0.509225
vt 0.687889 0.363281
vt 0.687088 0.363281
vt 0.745271 0.397025
vt 0.746094 0.509227
vt 0.746094 0.397025
vt 0.745271 0.509227
s 1
f 175/94/212 172/95/213 173/94/214
f 172/95/213 174/95/213 173/94/214
f 178/96/215 174/95/216 172/95/216
f 172/95/217 175/94/218 176/97/219
f 177/96/220 172/95/217 176/97/219
f 177/96/221 178/96/215 172/95/216
f 178/96/222 180/98/223 179/97/224
f 174/95/225 178/96/222 179/97/224
f 180/98/226 178/96/215 177/96/221
f 181/98/226 180/98/226 177/96/221
f 180/98/227 181/98/227 182/99/228
f 180/98/223 182/99/229 179/97/224
f 182/99/229 183/100/230 179/97/224
f 185/100/231 183/100/232 182/99/228
f 181/98/227 184/99/228 182/99/228
f 184/99/228 185/100/231 182/99/228
f 185/100/231 186/101/233 183/100/232
f 187/102/234 186/101/235 185/100/236
f 188/103/237 187/102/234 185/100/236
f 188/103/237 185/100/236 184/99/238
f 176/97/219 188/103/237 184/99/238
f 189/104/239 188/103/237 176/97/219
f 190/105/240 187/102/234 188/103/237
f 189/104/239 190/105/240 188/103/237
f 192/106/241 191/106/241 190/105/242
f 190/105/240 191/106/243 187/102/234
f 193/105/244 192/106/241 190/105/242
f 193/105/244 190/105/242 189/104/245
f 194/102/246 193/105/247 195/104/248
f 192/106/249 193/105/247 194/102/246
f 195/104/250 193/105/244 189/104/245
f 196/103/251 194/102/246 195/104/248
f 195/104/250 189/104/245 175/94/212
f 196/103/251 195/104/248 173/94/252
f 173/94/214 195/104/250 175/94/212
f 183/100/230 196/103/251 179/97/224
f 183/100/230 197/101/253 196/103/251
f 197/101/253 194/102/246 196/103/251
f 179/97/224 196/103/251 173/94/252
f 186/101/233 197/101/254 183/100/232
f 186/101/233 198/107/255 197/101/254
f 198/107/255 199/107/255 197/101/254
f 197/101/253 199/107/256 194/102/246
f 200/108/257 199/107/258 198/107/258
f 199/107/256 200/108/259 194/102/246
f 201/108/260 200/108/257 198/107/258
f 192/106/261 200/108/257 201/108/260
f 200/108/259 192/106/249 194/102/246
f 191/106/261 192/106/261 201/108/260
f 191/106/243 201/108/262 187/102/234
f 201/108/262 198/107/263 187/102/234
f 198/107/263 186/101/235 187/102/234
f 175/94/218 189/104/239 176/97/219
f 184/99/238 181/98/264 176/97/219
f 181/98/264 177/96/220 176/97/219
f 173/94/252 174/95/225 179/97/224
f 208/109/265 212/110/266 218/111/267
f 214/112/268 208/109/265 218/111/267
f 213/110/269 210/109/270 216/112/271
f 219/111/272 213/110/269 216/112/271
f 210/109/273 208/109/273 214/112/274
f 216/112/275 210/109/273 214/112/274
f 212/110/266 209/113/276 215/114/277
f 218/111/267 212/110/266 215/114/277
f 209/113/255 211/113/255 217/114/278
f 215/114/279 209/113/255 217/114/278
f 211/113/280 213/110/269 219/111/272
f 217/114/281 211/113/280 219/111/272
f 214/112/268 218/111/267 224/115/282
f 220/116/283 214/112/268 224/115/282
f 219/111/272 216/112/271 222/116/284
f 225/115/285 219/111/272 222/116/284
f 216/112/275 214/112/274 220/116/286
f 222/116/287 216/112/275 220/116/286
f 218/111/267 215/114/277 221/117/288
f 224/115/282 218/111/267 221/117/288
f 215/114/279 217/114/278 223/117/289
f 221/117/290 215/114/279 223/117/289
f 217/114/281 219/111/272 225/115/285
f 223/117/291 217/114/281 225/115/285
f 220/116/283 224/115/282 230/118/292
f 226/119/293 220/116/283 230/118/292
f 225/115/285 222/116/284 228/119/294
f 231/118/295 225/115/285 228/119/294
f 222/116/287 220/116/286 226/119/296
f 228/119/297 222/116/287 226/119/296
f 224/115/282 221/117/288 227/120/298
f 230/118/292 224/115/282 227/120/298
f 221/117/290 223/117/289 229/120/299
f 227/120/299 221/117/290 229/120/299
f 223/117/291 225/115/285 231/118/295
f 229/120/300 223/117/291 231/118/295
f 204/121/301 207/122/302 231/118/295
f 228/119/294 204/121/301 231/118/295
f 202/121/303 204/121/303 228/119/297
f 226/119/296 202/121/303 228/119/297
f 205/123/304 229/120/300 231/118/295
f 207/122/302 205/123/304 231/118/295
f 203/123/305 227/120/299 229/120/299
f 205/123/305 203/123/305 229/120/299
f 203/123/306 206/122/307 230/118/292
f 227/120/298 203/123/306 230/118/292
f 206/122/307 202/121/308 226/119/293
f 230/118/292 206/122/307 226/119/293
f 205/123/309 207/122/309 206/122/309
f 203/123/309 205/123/309 206/122/309
f 207/122/309 204/121/309 202/121/309
f 206/122/309 207/122/309 202/121/309
f 232/124/310 234/125/310 233/126/310
f 234/125/310 235/127/310 233/126/310
f 235/127/310 236/128/310 237/129/310
f 233/126/310 235/127/310 237/129/310
f 243/130/311 239/131/311 238/132/311
f 239/131/312 240/133/312 238/132/312
f 238/132/313 240/133/314 241/134/315
f 242/135/313 238/132/313 241/134/315
f 242/135/311 243/130/311 238/132/311
f 245/136/316 244/137/317 243/130/318
f 244/137/317 239/131/318 243/130/318
f 242/135/319 241/134/319 243/130/319
f 245/136/319 243/130/319 241/134/319
f 248/138/320 244/137/317 245/136/316
f 246/139/319 245/136/319 241/134/319
f 246/139/319 247/140/319 245/136/319
f 247/140/320 248/138/320 245/136/316
f 249/141/321 248/138/321 247/140/321
f 249/141/312 240/133/312 248/138/312
f 248/138/312 240/133/312 244/137/312
f 240/133/314 249/141/322 246/139/322
f 246/139/321 249/141/321 247/140/321
f 241/134/315 240/133/314 246/139/322
f 240/133/312 239/131/312 244/137/312
o item_blade
v 26.590300 22.520599 11.862098
v 26.590300 22.520599 5.647598
v 33.175800 18.257101 13.730999
v 34.370899 19.927902 13.730998
v 27.751900 24.144600 11.862098
v 27.751900 24.144600 5.647598
v 34.370899 19.927900 3.778699
v 33.175800 18.257099 3.778699
v 39.761299 13.993600 5.647699
v 39.761299 13.993601 11.862199
v 40.990002 15.711200 5.647699
v 40.990002 15.711201 11.862199
v 0.000000 70.710701 -0.000005
v 70.710701 0.000000 0.000000
v 0.000000 55.656200 3.999996
v -55.656101 0.000000 4.000000
v -70.710701 0.000000 0.000000
v 0.000000 -55.656101 4.000004
v 0.000000 -70.710602 0.000005
v 55.656200 0.000000 4.000000
v 0.000000 70.710701 -0.000005
v 0.000000 55.656200 -4.000004
v 70.710701 0.000000 0.000000
v -55.656101 -0.000000 -4.000000
v -70.710701 0.000000 0.000000
v 0.000000 -55.656101 -3.999996
v 0.000000 -70.710602 0.000005
v 55.656200 -0.000000 -4.000000
v 0.000000 70.710701 -0.000005
v 70.710701 0.000000 0.000000
v 0.000000 55.656200 3.999996
v -55.656101 0.000000 4.000000
v -70.710701 0.000000 0.000000
v 0.000000 -55.656101 4.000004
v 0.000000 -70.710602 0.000005
v 55.656200 0.000000 4.000000
v 0.000000 70.710701 -0.000005
v 0.000000 55.656200 -4.000004
v 70.710701 0.000000 0.000000
v -55.656101 -0.000000 -4.000000
v -70.710701 0.000000 0.000000
v 0.000000 -55.656101 -3.999996
v 0.000000 -70.710602 0.000005
v 55.656200 -0.000000 -4.000000
v 0.000000 70.710701 -0.000005
v 70.710701 0.000000 0.000000
v 0.000000 55.656200 3.999996
v -55.656101 0.000000 4.000000
v -70.710701 0.000000 0.000000
v 0.000000 -55.656101 4.000004
v 0.000000 -70.710602 0.000005
v 55.656200 0.000000 4.000000
v 0.000000 70.710701 -0.000005
v 0.000000 55.656200 -4.000004
v 70.710701 0.000000 0.000000
v -55.656101 -0.000000 -4.000000
v -70.710701 0.000000 0.000000
v 0.000000 -55.656101 -3.999996
v 0.000000 -70.710602 0.000005
v 55.656200 -0.000000 -4.000000
v -49.047565 43.906445 12.984656
v -72.792465 75.179062 18.201328
v -72.792465 75.179062 12.984653
v -49.047482 43.906441 18.201330
v -48.256847 42.799129 18.201330
v -48.256760 42.799126 12.984656
v -55.351295 39.694317 11.486516
v -78.139862 71.605972 11.486513
v -54.560574 38.587002 11.486516
v -60.698608 36.121227 12.984656
v -83.487183 68.032883 12.984654
v -60.698608 36.121227 18.201332
v -83.487183 68.032883 18.201328
v -78.139778 71.605965 19.699471
v -55.351292 39.694229 19.699472
v -54.560574 38.587002 19.699472
v -59.907890 35.013908 18.201332
v -59.907890 35.013908 12.984656
v -49.071526 40.953312 15.013097
v -35.827488 12.704675 14.909211
v -53.586674 37.523300 14.909209
v -31.366711 16.208532 15.013099
v -49.071526 40.953312 16.172892
v -31.366711 16.208532 16.172894
v -53.586674 37.523300 16.276781
v -35.827488 12.704675 16.276781
v -58.101730 34.093460 15.592996
v -40.288113 9.200915 15.592998
v -17.450045 -5.695614 14.909212
v -21.852407 -9.258181 15.592999
v -2.012000 -24.389639 15.593000
v 2.327475 -20.779129 14.909214
v -17.450050 -5.695693 16.276783
v -13.047783 -2.133290 16.172895
v 2.327475 -20.779129 16.276785
v 6.666707 -17.168791 16.172897
v 23.971279 -33.759235 16.276785
v 20.627934 -37.592926 15.593001
v 30.374645 -30.898314 16.172897
v 26.894716 -35.417004 15.593001
v 30.374575 -30.898317 15.013102
v 23.971279 -33.759235 14.909215
v 32.695923 -32.264748 15.593001
v 6.666707 -17.168791 15.013101
v -13.047783 -2.133290 15.013100
v -54.550121 38.596401 15.979269
v -47.691227 28.277649 28.908428
v -40.785458 35.024879 27.307016
v -37.567951 42.729218 22.670311
v -38.900909 49.326103 16.240637
v -44.427040 53.048027 9.740952
v -52.665653 52.897697 4.912987
v -61.409191 48.915138 3.050184
v -68.313042 42.167427 4.653041
v -71.531303 34.463902 9.288722
v -70.199417 27.866686 15.717939
v -64.672806 24.145720 22.217075
v -56.434402 24.297087 27.044138
v -64.210846 23.484308 21.444830
v -55.972130 23.634569 26.273039
v -47.228691 27.617044 28.135820
v -54.087673 37.935787 15.206699
v -52.203384 52.235126 4.141809
v -60.946651 48.254528 2.277581
v -67.852417 41.507298 3.878992
v -71.069832 33.803051 8.515711
v -40.324776 34.364769 26.532904
v -69.736885 27.206079 14.945332
v -37.106541 42.068352 21.897276
v -38.438377 48.665497 15.468027
v -43.965145 52.386524 8.968751
v -48.378101 43.891602 14.049597
v -45.475899 39.865200 17.136396
v -48.378201 43.891602 17.136396
v -45.475899 39.865200 14.049597
v -55.037899 39.283600 13.773597
v -52.135700 35.257099 13.773597
v -60.990002 35.165298 14.577897
v -60.990002 35.165298 16.608099
v -58.087700 31.138903 14.577898
v -58.087799 31.138903 16.608099
v -55.037899 39.283501 17.412395
v -52.135700 35.257099 17.412397
v 21.865915 49.608486 10.806143
v 3.566592 10.119441 4.515465
v 21.865915 49.608486 4.515462
v 3.566592 10.119442 10.806146
v 26.622459 44.951797 12.514938
v 26.622459 44.951797 2.806667
v 8.231386 5.266638 2.806670
v 31.379005 40.295227 4.515463
v 31.379005 40.295227 10.806144
v 12.896026 0.413953 4.515466
v -4.773350 -29.669645 4.515469
v 12.896026 0.413954 10.806147
v -4.773350 -29.669645 10.806149
v -23.318443 -55.596806 10.806150
v -27.787844 -50.441540 12.514946
v -9.342708 -24.654516 12.514944
v -32.257008 -45.286663 10.806150
v 8.231386 5.266639 12.514942
v -13.911984 -19.639505 10.806149
v -32.257008 -45.286663 4.515470
v -13.911984 -19.639505 4.515468
v -9.342708 -24.654516 2.806673
v -27.787844 -50.441540 2.806674
v -23.318443 -55.596806 4.515471
v -48.685936 -84.419197 4.515472
v -53.026024 -79.116440 2.806677
v -57.366108 -73.813782 4.515472
v -57.366108 -73.813782 10.806152
v -53.026024 -79.116440 12.514948
v -48.685936 -84.419197 10.806153
v -59.530998 -58.415699 11.466405
v -53.878399 -62.941700 12.939505
v -59.530998 -58.415699 6.043404
v -53.878399 -62.941700 4.570305
v -48.225800 -67.467796 11.466405
v -48.225800 -67.467796 6.043405
vn -0.8134 0.5818 -0.0000
vn -0.5435 -0.8394 -0.0000
vn -0.1887 0.1350 0.9727
vn 0.0644 -0.0461 0.9969
vn -0.0644 0.0461 0.9969
vn 0.0644 -0.0461 -0.9969
vn -0.0644 0.0461 -0.9969
vn -0.1887 0.1350 -0.9727
vn 0.5373 0.8434 -0.0000
vn 0.1887 -0.1350 -0.9727
vn 0.8133 -0.5818 -0.0000
vn 0.1887 -0.1350 0.9727
vn 0.2559 0.0853 0.9629
vn -0.0853 0.2559 0.9629
vn 0.0639 0.1919 0.9793
vn -0.1532 0.0510 0.9869
vn -0.2558 -0.0853 0.9629
vn -0.0639 -0.1919 0.9793
vn 0.0853 -0.2559 0.9629
vn 0.1531 -0.0510 0.9869
vn 0.0639 0.1919 -0.9793
vn -0.1531 0.0510 -0.9869
vn -0.0853 0.2559 -0.9629
vn 0.2559 0.0853 -0.9629
vn -0.2558 -0.0853 -0.9629
vn -0.0639 -0.1919 -0.9793
vn 0.0853 -0.2559 -0.9629
vn 0.1532 -0.0510 -0.9869
vn 0.8052 0.5930 -0.0000
vn 0.7964 0.6047 -0.0000
vn 0.1563 0.1150 -0.9810
vn 0.0144 0.0119 -0.9998
vn 0.1698 0.1253 -0.9775
vn 0.8138 0.5811 -0.0000
vn 0.8138 0.5812 -0.0000
vn 0.1578 0.1127 -0.9810
vn -0.0037 -0.0026 -1.0000
vn -0.1847 -0.1319 -0.9739
vn -0.0700 -0.0472 -0.9964
vn -0.8138 -0.5811 -0.0000
vn -0.5556 0.8315 -0.0000
vn -0.0681 -0.0457 0.9966
vn -0.1847 -0.1319 0.9739
vn -0.0098 -0.0058 0.9999
vn 0.1698 0.1253 0.9775
vn 0.0493 0.0324 0.9983
vn 0.1568 0.1143 0.9810
vn 0.1578 0.1127 0.9810
vn 0.0140 0.0119 -0.9998
vn -0.0212 -0.0189 -0.9996
vn 0.0149 0.0107 -0.9998
vn -0.0557 -0.0420 -0.9976
vn 0.7710 0.6368 -0.0000
vn 0.8133 0.5819 -0.0000
vn 0.7630 0.6464 -0.0000
vn 0.7626 0.6468 -0.0000
vn 0.0140 0.0119 0.9998
vn 0.0149 0.0107 0.9998
vn -0.0211 -0.0124 0.9997
vn -0.0566 -0.0482 0.9972
vn -0.0974 -0.0697 0.9928
vn -0.0915 -0.0773 0.9928
vn -0.0912 -0.0776 -0.9928
vn -0.0974 -0.0697 -0.9928
vn -0.0352 -0.0382 -0.9986
vn -0.0786 -0.0936 -0.9925
vn -0.0813 -0.0900 0.9926
vn -0.0386 -0.0556 -0.9977
vn -0.0700 -0.1078 -0.9917
vn -0.0710 -0.1056 0.9919
vn -0.0335 -0.0402 0.9986
vn 0.0122 0.0141 0.9998
vn -0.0211 -0.0330 0.9992
vn 0.0166 -0.1131 0.9935
vn 0.0102 0.0158 0.9998
vn 0.0005 -0.1728 0.9850
vn 0.1031 -0.2236 0.9692
vn 0.0784 -0.1342 0.9879
vn 0.0161 -0.1137 -0.9934
vn 0.0784 -0.1342 -0.9879
vn 0.1031 -0.2236 -0.9692
vn 0.1163 -0.2140 -0.9699
vn 0.0005 -0.1728 -0.9850
vn 0.1163 -0.2140 0.9699
vn 0.5040 0.8637 -0.0000
vn 0.5035 0.8640 -0.0000
vn 0.5073 0.8618 -0.0000
vn 0.0105 0.0156 -0.9998
vn 0.5695 0.8220 -0.0000
vn 0.5401 0.8416 -0.0000
vn 0.6443 0.7648 -0.0000
vn 0.0122 0.0141 -0.9998
vn 0.6724 0.7402 -0.0000
vn -0.4162 0.5901 0.6918
vn -0.5806 -0.7567 0.3006
vn -0.4293 -0.7965 0.4258
vn -0.1283 -0.7890 0.6008
vn 0.0034 -0.7574 0.6530
vn 0.3298 -0.6110 0.7197
vn 0.4347 -0.5391 0.7213
vn 0.4162 -0.5901 -0.6918
vn 0.5810 0.7565 -0.3004
vn 0.4290 0.7965 -0.4261
vn 0.1288 0.7891 -0.6006
vn 0.7728 0.6301 -0.0763
vn -0.0042 0.7571 -0.6532
vn 0.8664 0.4892 0.1002
vn 0.9106 0.2603 0.3211
vn 0.8905 0.1027 0.4433
vn 0.7712 -0.1782 0.6111
vn -0.8664 -0.4893 -0.1001
vn -0.7727 -0.6301 0.0764
vn -0.9106 -0.2606 -0.3209
vn 0.6930 -0.2904 0.6598
vn -0.8904 -0.1024 -0.4436
vn -0.7715 0.1778 -0.6109
vn -0.4353 0.5387 -0.7213
vn -0.6925 0.2910 -0.6601
vn -0.3291 0.6113 -0.7197
vn 0.8112 0.5847 -0.0000
vn -0.0115 -0.0083 -0.9999
vn 0.0276 0.0199 -0.9994
vn -0.0506 -0.0365 -0.9980
vn -0.0896 -0.0646 -0.9939
vn -0.8112 -0.5847 -0.0000
vn 0.5690 -0.8223 -0.0000
vn 0.5690 -0.8223 0.0001
vn -0.0506 -0.0365 0.9981
vn -0.0896 -0.0646 0.9939
vn -0.0115 -0.0083 0.9999
vn 0.0276 0.0199 0.9994
vn -0.8769 0.4807 -0.0000
vn -0.9073 0.4205 -0.0000
vn -0.8945 0.4472 -0.0000
vn 0.6996 0.7146 -0.0000
vn -0.1021 0.0784 0.9917
vn -0.2384 0.1105 0.9648
vn -0.2326 0.1141 0.9659
vn -0.0563 0.0289 -0.9980
vn 0.2384 -0.1105 -0.9648
vn 0.0278 -0.0130 -0.9995
vn -0.2384 0.1105 -0.9648
vn 0.9073 -0.4205 -0.0000
vn 0.8858 -0.4640 -0.0000
vn 0.2272 -0.1221 -0.9662
vn 0.2109 -0.1365 -0.9679
vn 0.8473 -0.5311 -0.0000
vn 0.8298 -0.5581 -0.0000
vn 0.7932 -0.6089 -0.0000
vn 0.0082 0.0052 1.0000
vn 0.1901 -0.1590 0.9688
vn 0.2083 -0.1423 0.9677
vn 0.0040 0.0047 1.0000
vn 0.2256 -0.1257 0.9661
vn -0.2144 0.1321 0.9678
vn -0.1966 0.1482 0.9692
vn 0.0043 0.0056 1.0000
vn -0.7932 0.6089 -0.0000
vn -0.7726 0.6350 -0.0000
vn -0.8298 0.5581 -0.0000
vn -0.8473 0.5311 -0.0000
vn 0.0023 0.0010 -1.0000
vn -0.2117 0.1380 -0.9675
vn -0.2297 0.1209 -0.9657
vn 0.0014 -0.0016 -1.0000
vn -0.1937 0.1542 -0.9689
vn 0.0036 0.0169 -0.9999
vn 0.1931 -0.1528 -0.9692
vn 0.1839 -0.1619 -0.9695
vn -0.1839 0.1619 -0.9695
vn -0.7506 0.6607 -0.0000
vn -0.1839 0.1619 0.9695
vn 0.0626 -0.1116 0.9918
vn 0.1839 -0.1619 0.9695
vn 0.7507 -0.6607 -0.0000
vn 0.7726 -0.6349 -0.0000
vn 0.2384 -0.1105 0.9648
vn -0.6250 -0.7806 -0.0000
vt 0.638360 0.363281
vt 0.628906 0.392028
vt 0.682500 0.467499
vt 0.692226 0.437923
vt 0.736094 0.542969
vt 0.746094 0.512565
vt 0.976562 0.023438
vt 0.095226 0.374655
vt 0.095226 0.374655
vt 0.363281 0.482039
vt 0.055192 0.405964
vt 0.085714 0.371094
vt 0.085714 0.371094
vt 0.329321 0.508598
vt 0.295360 0.535156
vt 0.045679 0.402403
vt 0.021231 0.432522
vt 0.329321 0.508597
vt 0.055191 0.405964
vt 0.011719 0.428961
vt 0.151345 0.832089
vt 0.130777 0.840408
vt 0.053453 0.761719
vt 0.032586 0.769827
vt 0.011719 0.777935
vt 0.110210 0.848726
vt 0.229324 0.893967
vt 0.209069 0.902456
vt 0.333393 0.938984
vt 0.313470 0.947617
vt 0.229324 0.893967
vt 0.249578 0.885478
vt 0.445800 0.978816
vt 0.353316 0.930352
vt 0.430892 0.988281
vt 0.460942 0.983941
vt 0.476237 0.972677
vt 0.476236 0.972677
vt 0.488281 0.976880
vt 0.454238 0.375317
vt 0.498319 0.363281
vt 0.498320 0.453125
vt 0.542401 0.375317
vt 0.574672 0.408202
vt 0.586483 0.453125
vt 0.574672 0.498048
vt 0.542401 0.530933
vt 0.498319 0.542969
vt 0.454238 0.530933
vt 0.421968 0.498048
vt 0.410156 0.453125
vt 0.421968 0.408204
vt 0.425328 0.408204
vt 0.457599 0.375317
vt 0.501680 0.363281
vt 0.501680 0.453125
vt 0.501680 0.542969
vt 0.545762 0.530933
vt 0.578032 0.498048
vt 0.457598 0.530933
vt 0.425328 0.498048
vt 0.545762 0.375317
vt 0.413517 0.453125
vt 0.578032 0.408202
vt 0.589844 0.453125
vt 0.746094 0.420014
vt 0.724172 0.363281
vt 0.724171 0.363281
vt 0.673866 0.428209
vt 0.695788 0.484943
vt 0.628906 0.486236
vt 0.650829 0.542969
vt 0.650828 0.542969
vt 0.673866 0.428210
vt 0.339170 0.617919
vt 0.438130 0.574219
vt 0.463206 0.579277
vt 0.488281 0.584336
vt 0.363750 0.623195
vt 0.388328 0.628470
vt 0.293124 0.661814
vt 0.193447 0.690595
vt 0.169919 0.684984
vt 0.269059 0.656358
vt 0.244994 0.650903
vt 0.146392 0.679374
vt 0.034553 0.716881
vt 0.057387 0.722656
vt 0.011719 0.711106
vt 0.628906 0.363281
vt 0.687500 0.453124
vt 0.746094 0.542969
s 1
f 255/142/323 251/143/323 250/143/323
f 251/143/324 252/144/324 250/143/324
f 250/143/325 252/144/326 253/145/327
f 254/142/325 250/143/325 253/145/327
f 254/142/323 255/142/323 250/143/323
f 256/145/328 257/144/329 255/142/330
f 256/145/331 255/142/331 253/145/331
f 254/142/331 253/145/331 255/142/331
f 257/144/329 251/143/330 255/142/330
f 252/144/324 251/143/324 257/144/324
f 258/146/332 257/144/329 256/145/328
f 258/146/324 252/144/324 257/144/324
f 259/146/333 258/146/333 260/147/333
f 259/146/324 252/144/324 258/146/324
f 260/147/332 258/146/332 256/145/328
f 261/147/331 260/147/331 256/145/331
f 261/147/333 259/146/333 260/147/333
f 252/144/326 259/146/334 261/147/334
f 253/145/327 252/144/326 261/147/334
f 261/147/331 256/145/331 253/145/331
f 263/148/335 262/148/336 264/148/337
f 264/148/337 262/148/336 265/148/338
f 262/148/336 266/148/339 265/148/338
f 265/148/338 266/148/339 267/148/340
f 266/148/339 268/148/341 267/148/340
f 268/148/341 263/148/335 269/148/342
f 267/148/340 268/148/341 269/148/342
f 269/148/342 263/148/335 264/148/337
f 264/148/337 265/148/338 269/148/342
f 265/148/338 267/148/340 269/148/342
f 271/148/343 273/148/344 270/148/345
f 271/148/343 270/148/345 272/148/346
f 273/148/344 274/148/347 270/148/345
f 273/148/344 275/148/348 274/148/347
f 275/148/348 276/148/349 274/148/347
f 277/148/350 272/148/346 276/148/349
f 275/148/348 277/148/350 276/148/349
f 271/148/343 277/148/350 273/148/344
f 277/148/350 271/148/343 272/148/346
f 277/148/350 275/148/348 273/148/344
f 279/148/335 278/148/336 280/148/337
f 280/148/337 278/148/336 281/148/338
f 278/148/336 282/148/339 281/148/338
f 281/148/338 282/148/339 283/148/340
f 282/148/339 284/148/341 283/148/340
f 284/148/341 279/148/335 285/148/342
f 283/148/340 284/148/341 285/148/342
f 280/148/337 281/148/338 285/148/342
f 285/148/342 279/148/335 280/148/337
f 281/148/338 283/148/340 285/148/342
f 287/148/343 289/148/344 286/148/345
f 287/148/343 286/148/345 288/148/346
f 289/148/344 290/148/347 286/148/345
f 289/148/344 291/148/348 290/148/347
f 291/148/348 292/148/349 290/148/347
f 293/148/350 288/148/346 292/148/349
f 291/148/348 293/148/350 292/148/349
f 293/148/350 287/148/343 288/148/346
f 287/148/343 293/148/350 289/148/344
f 293/148/350 291/148/348 289/148/344
f 295/148/335 294/148/336 296/148/337
f 296/148/337 294/148/336 297/148/338
f 294/148/336 298/148/339 297/148/338
f 297/148/338 298/148/339 299/148/340
f 298/148/339 300/148/341 299/148/340
f 300/148/341 295/148/335 301/148/342
f 299/148/340 300/148/341 301/148/342
f 301/148/342 295/148/335 296/148/337
f 296/148/337 297/148/338 301/148/342
f 297/148/338 299/148/340 301/148/342
f 303/148/343 305/148/344 302/148/345
f 303/148/343 302/148/345 304/148/346
f 305/148/344 306/148/347 302/148/345
f 305/148/344 307/148/348 306/148/347
f 307/148/348 308/148/349 306/148/347
f 309/148/350 304/148/346 308/148/349
f 307/148/348 309/148/350 308/148/349
f 303/148/343 309/148/350 305/148/344
f 309/148/350 303/148/343 304/148/346
f 309/148/350 307/148/348 305/148/344
f 313/149/351 310/150/351 311/151/352
f 310/150/351 312/151/352 311/151/352
f 310/150/353 316/152/354 312/151/355
f 310/150/351 313/149/351 314/153/356
f 315/154/357 310/150/351 314/153/356
f 316/152/354 310/150/353 315/154/358
f 317/155/359 316/152/354 320/156/360
f 316/152/354 317/155/359 312/151/355
f 318/157/361 316/152/354 315/154/358
f 319/158/360 316/152/354 318/157/361
f 316/152/354 319/158/360 320/156/360
f 319/158/362 321/158/362 320/156/362
f 321/158/362 322/156/362 320/156/362
f 317/155/363 320/156/363 322/156/363
f 323/159/364 322/156/365 321/158/365
f 323/159/363 317/155/363 322/156/363
f 312/151/363 317/155/363 323/159/363
f 324/160/366 323/159/364 321/158/365
f 311/151/367 323/159/364 324/160/366
f 311/151/363 312/151/363 323/159/363
f 324/160/366 321/158/365 326/161/365
f 325/157/368 324/160/366 326/161/365
f 313/149/369 324/160/366 325/157/368
f 313/149/369 311/151/367 324/160/366
f 326/161/362 321/158/362 327/161/362
f 321/158/362 319/158/362 327/161/362
f 327/161/360 319/158/360 318/157/361
f 314/153/370 313/149/369 325/157/368
f 331/162/371 329/163/372 328/164/373
f 329/163/372 330/165/374 328/164/373
f 331/162/375 328/164/376 332/164/376
f 333/162/377 331/162/378 332/164/376
f 333/162/379 332/164/380 334/165/381
f 335/163/382 333/162/379 334/165/381
f 335/163/382 334/165/381 336/166/383
f 337/167/384 335/163/382 336/166/383
f 337/167/385 336/166/386 330/165/374
f 329/163/372 337/167/385 330/165/374
f 329/163/372 338/168/387 337/167/385
f 338/168/387 339/169/388 337/167/385
f 337/167/384 339/169/389 335/163/382
f 341/170/390 340/171/391 339/169/388
f 339/169/389 340/171/392 342/172/393
f 338/168/387 341/170/390 339/169/388
f 339/169/389 342/172/393 335/163/382
f 342/172/393 343/173/394 333/162/379
f 342/172/393 344/170/395 343/173/394
f 340/171/392 344/170/395 342/172/393
f 335/163/382 342/172/393 333/162/379
f 346/174/396 344/170/395 340/171/392
f 344/170/395 345/175/397 343/173/394
f 344/170/395 346/174/396 345/175/397
f 347/176/398 346/174/396 340/171/392
f 346/174/396 347/176/398 349/177/399
f 346/174/396 348/178/400 345/175/397
f 348/178/400 346/174/396 349/177/399
f 351/174/401 350/179/402 349/177/403
f 350/179/402 352/180/404 349/177/403
f 347/176/405 351/174/401 349/177/403
f 352/180/406 348/178/400 349/177/399
f 350/179/407 348/178/408 352/180/409
f 350/179/402 351/174/401 353/175/410
f 351/174/401 347/176/405 340/171/391
f 351/174/401 341/170/390 353/175/410
f 341/170/390 351/174/401 340/171/391
f 353/175/410 341/170/390 338/168/387
f 345/175/411 353/175/412 354/173/413
f 345/175/411 348/178/408 353/175/412
f 354/173/414 353/175/410 338/168/387
f 348/178/408 350/179/407 353/175/412
f 343/173/415 345/175/411 354/173/413
f 354/173/414 338/168/387 329/163/372
f 343/173/415 354/173/413 331/162/378
f 331/162/371 354/173/414 329/163/372
f 333/162/377 343/173/415 331/162/378
f 367/181/416 356/182/416 355/183/416
f 356/182/416 357/184/416 355/183/416
f 357/184/416 358/185/416 355/183/416
f 358/185/416 359/186/416 355/183/416
f 359/186/416 360/187/416 355/183/416
f 360/187/416 361/188/416 355/183/416
f 361/188/416 362/189/416 355/183/416
f 362/189/416 363/190/416 355/183/416
f 363/190/416 364/191/416 355/183/416
f 364/191/416 365/192/416 355/183/416
f 365/192/416 366/193/416 355/183/416
f 366/193/416 367/181/416 355/183/416
f 366/193/417 368/194/418 367/181/419
f 368/194/418 369/195/420 367/181/419
f 367/181/419 369/195/420 356/182/421
f 369/195/420 370/196/422 356/182/421
f 370/196/423 369/195/423 371/197/423
f 369/195/423 368/194/423 371/197/423
f 373/198/423 372/199/423 371/197/423
f 372/199/423 380/200/423 371/197/423
f 374/201/423 373/198/423 371/197/423
f 375/202/423 374/201/423 371/197/423
f 376/203/423 370/196/423 371/197/423
f 377/204/423 375/202/423 371/197/423
f 378/205/423 376/203/423 371/197/423
f 368/194/423 377/204/423 371/197/423
f 379/206/423 378/205/423 371/197/423
f 380/200/423 379/206/423 371/197/423
f 360/187/424 380/200/425 361/188/426
f 379/206/427 380/200/425 360/187/424
f 380/200/425 372/199/428 361/188/426
f 359/186/429 379/206/427 360/187/424
f 378/205/430 379/206/427 359/186/429
f 358/185/431 378/205/430 359/186/429
f 376/203/432 378/205/430 358/185/431
f 365/192/433 377/204/434 366/193/417
f 375/202/435 377/204/434 365/192/433
f 377/204/434 368/194/418 366/193/417
f 357/184/436 376/203/432 358/185/431
f 370/196/422 376/203/432 357/184/436
f 364/191/437 375/202/435 365/192/433
f 374/201/438 375/202/435 364/191/437
f 373/198/439 374/201/438 363/190/440
f 363/190/440 374/201/438 364/191/437
f 372/199/428 373/198/439 362/189/441
f 362/189/441 373/198/439 363/190/440
f 361/188/426 372/199/428 362/189/441
f 356/182/421 370/196/422 357/184/436
f 384/207/442 381/208/442 382/207/442
f 381/208/442 383/209/442 382/207/442
f 385/210/443 381/208/444 384/207/444
f 386/211/445 385/210/443 384/207/444
f 387/212/446 385/210/443 386/211/445
f 388/212/447 387/212/447 389/213/447
f 389/213/446 387/212/446 386/211/445
f 390/214/447 388/212/447 389/213/447
f 390/214/448 389/213/448 386/211/449
f 391/215/450 388/212/451 390/214/451
f 392/211/448 390/214/448 384/207/448
f 384/207/448 390/214/448 386/211/449
f 392/211/452 391/215/450 390/214/451
f 383/209/453 391/215/450 392/211/452
f 382/207/453 383/209/453 392/211/452
f 382/207/448 392/211/448 384/207/448
f 396/216/454 393/217/455 394/216/456
f 393/217/455 395/217/455 394/216/456
f 398/218/457 395/217/457 393/217/457
f 397/218/458 393/217/459 396/216/460
f 397/218/457 398/218/457 393/217/457
f 400/219/457 398/218/457 397/218/457
f 398/218/461 400/219/462 399/220/463
f 395/217/464 398/218/461 399/220/463
f 401/219/457 400/219/457 397/218/457
f 400/219/465 401/219/465 402/221/466
f 400/219/462 402/221/467 399/220/463
f 402/221/467 403/222/468 399/220/463
f 405/222/469 403/222/470 402/221/466
f 401/219/465 404/221/466 402/221/466
f 404/221/466 405/222/469 402/221/466
f 405/222/469 406/223/471 403/222/470
f 407/224/472 406/223/473 405/222/474
f 408/225/475 407/224/472 405/222/474
f 408/225/475 405/222/474 404/221/476
f 411/226/477 409/227/478 408/225/475
f 409/227/478 407/224/472 408/225/475
f 410/220/479 408/225/475 404/221/476
f 411/226/477 408/225/475 410/220/479
f 412/227/480 409/227/481 411/226/482
f 413/226/483 412/227/480 411/226/482
f 413/226/483 411/226/482 396/216/454
f 396/216/460 411/226/477 410/220/479
f 414/225/484 413/226/485 394/216/486
f 414/225/484 415/224/487 413/226/485
f 394/216/456 413/226/483 396/216/454
f 415/224/487 412/227/488 413/226/485
f 415/224/487 418/228/489 412/227/488
f 416/223/490 415/224/487 414/225/484
f 416/223/490 417/229/491 415/224/487
f 417/229/491 418/228/489 415/224/487
f 418/228/489 419/230/492 412/227/488
f 419/230/493 420/230/493 409/227/481
f 412/227/480 419/230/493 409/227/481
f 409/227/478 420/230/494 407/224/472
f 420/230/494 421/228/495 407/224/472
f 421/228/495 422/229/496 406/223/473
f 407/224/472 421/228/495 406/223/473
f 406/223/471 422/229/497 416/223/498
f 422/229/497 417/229/497 416/223/498
f 406/223/471 416/223/498 403/222/470
f 403/222/468 416/223/490 414/225/484
f 403/222/468 414/225/484 399/220/463
f 399/220/463 414/225/484 394/216/486
f 410/220/479 397/218/458 396/216/460
f 401/219/499 397/218/458 410/220/479
f 404/221/476 401/219/499 410/220/479
f 394/216/486 395/217/464 399/220/463
f 423/231/500 425/231/500 424/232/500
f 425/231/500 426/232/500 424/232/500
f 424/232/500 426/232/500 427/233/500
f 426/232/500 428/233/500 427/233/500
o item_damaged
v -29.153999 3.117801 15.308600
v -24.850100 -8.020700 15.206201
v -22.281900 0.038201 15.206200
v -32.607300 -7.718799 15.308601
v -29.153999 3.117701 16.452700
v -22.282000 0.038101 16.555099
v -32.607300 -7.718799 16.452700
v -24.850201 -8.020799 16.555099
v -17.092899 -8.322799 15.880601
v -15.409900 -3.041299 15.880600
v -9.765330 -29.969980 13.668165
v -51.361832 -67.003914 18.093136
v -51.361832 -67.003914 13.668168
v -9.765330 -29.969980 18.093132
v -8.293665 -28.720112 18.093132
v -8.293665 -28.720112 13.668165
v -4.377504 -36.646652 12.397330
v -46.791378 -72.667580 12.397333
v -2.905750 -35.396698 12.397330
v 0.192952 -42.310234 13.668166
v -42.220924 -78.331154 13.668169
v 0.193037 -42.310226 18.093134
v -42.220924 -78.331154 18.093136
v -46.791374 -72.667488 19.363970
v -4.377419 -36.646648 19.363966
v -2.905754 -35.396782 19.363966
v 1.664702 -41.060360 18.093134
v 1.664702 -41.060360 13.668166
v -5.951000 -27.676098 15.308602
v 42.820202 6.502701 15.206199
v -1.127600 -33.495300 15.206203
v 37.865799 12.200401 15.308599
v -5.950900 -27.676098 16.452702
v 37.865799 12.200401 16.452700
v -1.127700 -33.495300 16.555101
v 3.695500 -39.314400 15.880603
v 42.820202 6.502602 16.555099
v 47.774502 0.805101 15.880600
v -2.918277 -35.385124 16.428396
v 6.891103 -27.497980 29.562595
v -0.557678 -21.121767 27.921247
v -8.638982 -18.567478 23.200388
v -15.187535 -20.519522 16.664885
v -18.448439 -26.454689 10.066080
v -17.548061 -34.782730 5.172097
v -12.727499 -43.272205 3.294255
v -5.278484 -49.646469 4.937085
v 2.802233 -52.201576 9.656823
v 9.351036 -50.250629 16.191813
v 12.611023 -44.314930 22.790215
v 11.709635 -35.987270 27.683237
v 13.490475 -43.583759 21.695087
v 12.590099 -35.255642 26.589231
v -2.039765 -34.653320 15.332825
v 7.769621 -26.766256 28.467066
v 0.320515 -20.391951 26.824209
v -7.760180 -17.836845 22.104486
v -14.309017 -19.787798 15.569355
v -17.568962 -25.723532 8.970960
v -16.667624 -34.051098 4.078072
v -11.849062 -42.540398 2.198739
v -4.400284 -48.916607 3.840083
v 3.681097 -51.470901 8.560888
v 10.229569 -49.518925 15.096283
v -9.684300 -29.093998 14.571502
v -4.336400 -24.520699 17.189802
v -9.684300 -29.093998 17.189802
v -4.336400 -24.520597 14.571502
v -3.830000 -36.157200 14.337303
v 1.518000 -31.583899 14.337303
v 1.402200 -42.469700 15.019603
v 1.402200 -42.469700 16.741703
v 6.750000 -37.896400 15.019603
v 6.750100 -37.896400 16.741703
v -3.830000 -36.157200 17.424002
v 1.518000 -31.583899 17.424002
v -47.485100 74.001503 15.308595
v -51.311600 77.422798 15.880594
v -47.485100 74.001404 16.452694
v -42.651699 80.013397 15.880594
v -37.841202 75.811600 15.206194
v -8.435800 39.442101 15.308598
v -2.130400 43.504501 15.206197
v -8.435800 39.442101 16.452696
v 20.230400 19.849901 15.206198
v 12.789900 16.988201 15.308599
v 12.789900 16.988201 16.452698
v -2.130500 43.504601 16.555096
v 20.230400 19.849901 16.555098
v 27.671101 22.711702 15.880598
v 4.175200 47.567299 15.880596
v -37.841202 75.811600 16.555094
v -33.127602 80.726303 15.880594
v -55.002800 -4.131499 15.308600
v -48.492500 -0.307299 15.206200
v -62.818199 5.832301 15.308600
v -62.818199 5.832302 16.452700
v -55.002899 -4.131399 16.452700
v -56.299702 9.645901 16.555099
v -48.492401 -0.307499 16.555099
v -41.982101 3.516601 15.880600
v -49.781101 13.459501 15.880599
v -56.299599 9.645901 15.206199
v 19.032801 52.480801 15.308597
v 25.285299 48.283699 15.206196
v 25.472500 68.316498 15.308596
v 25.472401 68.316498 16.452694
v 19.032801 52.480801 16.452696
v 31.160200 62.730900 16.555096
v 25.285299 48.283699 16.555096
v 31.537800 44.086800 15.880597
v 36.848099 57.145100 15.880595
v 31.160200 62.730900 15.206195
v -39.834801 34.469398 15.308598
v -30.776600 22.921202 15.308599
v -32.939098 37.802299 15.206197
v -30.776600 22.921103 16.452698
v -39.834801 34.469398 16.452698
v -24.258101 26.734701 16.555098
v -32.939201 37.802299 16.555098
v -26.043501 41.135201 15.880597
v -17.739500 30.548302 15.880598
v -24.257999 26.734802 15.206198
v 65.920898 20.866402 16.452698
v 53.761101 30.418102 16.555098
v 61.289398 31.826202 16.452698
v 59.833099 16.049501 16.555098
v 65.920799 20.866402 15.308599
v 59.833000 16.049501 15.206199
v 61.289299 31.826302 15.308598
v 53.761101 30.418102 15.206198
v 53.745098 11.232301 15.880599
v 46.232800 29.010101 15.880598
v 0.000000 70.710701 -0.000005
v 70.710701 0.000000 0.000000
v 0.000000 55.656200 3.999996
v -55.656101 0.000000 4.000000
v -70.710701 0.000000 0.000000
v 0.000000 -55.656101 4.000004
v 0.000000 -70.710602 0.000005
v 55.656200 0.000000 4.000000
v 0.000000 70.710701 -0.000005
v 0.000000 55.656200 -4.000004
v 70.710701 0.000000 0.000000
v -55.656101 -0.000000 -4.000000
v -70.710701 0.000000 0.000000
v 0.000000 -55.656101 -3.999996
v 0.000000 -70.710602 0.000005
v 55.656200 -0.000000 -4.000000
v 0.000000 70.710701 -0.000005
v 70.710701 0.000000 0.000000
v 0.000000 55.656200 3.999996
v -55.656101 0.000000 4.000000
v -70.710701 0.000000 0.000000
v 0.000000 -55.656101 4.000004
v 0.000000 -70.710602 0.000005
v 55.656200 0.000000 4.000000
v 0.000000 70.710701 -0.000005
v 0.000000 55.656200 -4.000004
v 70.710701 0.000000 0.000000
v -55.656101 -0.000000 -4.000000
v -70.710701 0.000000 0.000000
v 0.000000 -55.656101 -3.999996
v 0.000000 -70.710602 0.000005
v 55.656200 -0.000000 -4.000000
v 0.000000 70.710701 -0.000005
v 70.710701 0.000000 0.000000
v 0.000000 55.656200 3.999996
v -55.656101 0.000000 4.000000
v -70.710701 0.000000 0.000000
v 0.000000 -55.656101 4.000004
v 0.000000 -70.710602 0.000005
v 55.656200 0.000000 4.000000
v 0.000000 70.710701 -0.000005
v 0.000000 55.656200 -4.000004
v 70.710701 0.000000 0.000000
v -55.656101 -0.000000 -4.000000
v -70.710701 0.000000 0.000000
v 0.000000 -55.656101 -3.999996
v 0.000000 -70.710602 0.000005
v 55.656200 -0.000000 -4.000000
vn -0.0130 0.0042 -0.9999
vn 0.0198 -0.0063 -0.9998
vn 0.0527 -0.0168 -0.9985
vn -0.9528 0.3036 -0.0000
vn 0.0199 -0.0063 0.9998
vn -0.0130 0.0042 0.9999
vn 0.0527 -0.0168 0.9985
vn 0.0855 -0.0273 0.9960
vn 0.0855 -0.0273 -0.9960
vn -0.6562 0.7546 -0.0000
vn -0.6650 0.7469 -0.0000
vn -0.0962 0.1107 -0.9892
vn -0.0095 0.0100 -0.9999
vn -0.1049 0.1203 -0.9872
vn -0.6473 0.7622 -0.0000
vn -0.0949 0.1117 -0.9892
vn 0.0018 -0.0021 -1.0000
vn 0.1114 -0.1312 -0.9851
vn 0.0405 -0.0497 -0.9979
vn 0.6473 -0.7622 -0.0000
vn -0.7782 -0.6280 -0.0000
vn 0.0383 -0.0474 0.9981
vn 0.1114 -0.1312 0.9851
vn -0.1049 0.1203 0.9872
vn 0.0051 -0.0070 1.0000
vn -0.0959 0.1109 0.9892
vn -0.0270 0.0339 0.9991
vn -0.0949 0.1117 0.9892
vn -0.0091 0.0100 -0.9999
vn 0.0139 -0.0153 -0.9998
vn 0.0369 -0.0406 -0.9985
vn -0.6731 0.7396 0.0001
vn -0.6731 0.7396 -0.0000
vn -0.0091 0.0100 0.9999
vn 0.0139 -0.0152 0.9998
vn 0.0369 -0.0406 0.9985
vn 0.0139 -0.0153 0.9998
vn 0.0599 -0.0658 0.9960
vn 0.0599 -0.0658 -0.9960
vn -0.5515 -0.4662 0.6918
vn 0.7930 -0.0452 0.6076
vn 0.7578 0.0590 0.6498
vn 0.5692 0.3959 0.7206
vn 0.8031 -0.5140 0.3015
vn 0.8300 -0.3550 0.4302
vn 0.5515 0.4662 -0.6918
vn 0.5080 0.4702 0.7217
vn 0.2164 0.7243 0.6547
vn 0.1201 0.7793 0.6150
vn -0.1783 0.8790 0.4423
vn -0.3416 0.8850 0.3163
vn -0.5417 0.8318 0.1208
vn -0.7096 0.6968 -0.1040
vn -0.8300 0.3542 -0.4308
vn -0.8029 0.5147 -0.3009
vn -0.7573 -0.0605 -0.6503
vn -0.7933 0.0464 -0.6070
vn -0.5070 -0.4714 -0.7217
vn -0.5701 -0.3947 -0.7205
vn -0.2177 -0.7234 -0.6552
vn -0.1190 -0.7799 -0.6145
vn 0.1775 -0.8788 -0.4429
vn 0.3423 -0.8849 -0.3157
vn 0.5418 -0.8318 -0.1207
vn 0.7097 -0.6968 0.1041
vn -0.6499 0.7600 -0.0000
vn 0.0069 -0.0081 -0.9999
vn -0.0166 0.0194 -0.9997
vn 0.0305 -0.0356 -0.9989
vn 0.0539 -0.0630 -0.9966
vn 0.6499 -0.7600 -0.0000
vn 0.7699 0.6381 -0.0000
vn 0.0069 -0.0081 0.9999
vn 0.0304 -0.0356 0.9989
vn 0.0539 -0.0630 0.9966
vn -0.0166 0.0194 0.9997
vn -0.0264 0.0786 -0.9966
vn -0.0372 0.1242 -0.9916
vn -0.0271 0.1305 -0.9911
vn -0.6646 -0.7472 -0.0001
vn -0.6642 -0.7475 -0.0000
vn -0.6665 -0.7455 -0.0001
vn -0.6847 -0.7288 -0.0000
vn 0.0109 0.0651 -0.9978
vn -0.0097 -0.0100 -0.9999
vn -0.7060 -0.7082 -0.0000
vn 0.0350 0.0348 -0.9988
vn 0.0154 0.0145 -0.9998
vn -0.7267 -0.6870 -0.0000
vn -0.0101 -0.0095 -0.9999
vn 0.0408 0.0386 0.9984
vn 0.0198 0.0204 0.9996
vn -0.0101 -0.0095 0.9999
vn -0.0097 -0.0100 0.9999
vn 0.0650 0.0668 0.9956
vn 0.0662 0.0626 0.9958
vn 0.0646 0.0683 -0.9956
vn 0.0273 0.1101 -0.9935
vn 0.0274 0.1101 0.9935
vn 0.0109 0.0651 0.9978
vn 0.0662 0.0626 -0.9958
vn -0.0272 0.1305 0.9911
vn -0.0264 0.0787 0.9966
vn -0.0372 0.1242 0.9916
vn 0.0164 0.0129 -0.9998
vn -0.0108 -0.0084 -0.9999
vn -0.7868 -0.6172 -0.0000
vn -0.0108 -0.0084 0.9999
vn 0.0164 0.0128 0.9998
vn 0.0436 0.0342 0.9985
vn 0.0706 0.0554 0.9960
vn 0.0706 0.0554 -0.9960
vn 0.0435 0.0341 -0.9985
vn 0.0196 -0.0080 -0.9998
vn -0.0129 0.0052 -0.9999
vn -0.9263 0.3767 -0.0001
vn -0.9263 0.3767 -0.0000
vn -0.0129 0.0052 0.9999
vn 0.0197 -0.0080 0.9998
vn 0.0520 -0.0212 0.9984
vn 0.0844 -0.0343 0.9958
vn 0.0844 -0.0343 -0.9958
vn 0.0520 -0.0212 -0.9984
vn -0.7868 -0.6172 -0.0001
vn 0.0164 0.0129 0.9998
vn 0.0435 0.0342 -0.9985
vn -0.0125 -0.0472 0.9988
vn 0.0126 0.0053 0.9999
vn -0.0572 0.0262 0.9980
vn -0.0351 -0.0148 0.9993
vn 0.9211 0.3893 -0.0001
vn 0.0126 0.0053 -0.9999
vn -0.0192 -0.0081 -0.9998
vn 0.9211 0.3893 -0.0000
vn -0.0510 -0.0215 -0.9985
vn -0.9211 -0.3892 -0.0001
vn -0.9211 -0.3892 -0.0000
vn 0.2559 0.0853 0.9629
vn -0.0853 0.2559 0.9629
vn 0.0639 0.1919 0.9793
vn -0.1532 0.0510 0.9869
vn -0.2558 -0.0853 0.9629
vn -0.0639 -0.1919 0.9793
vn 0.0853 -0.2559 0.9629
vn 0.1531 -0.0510 0.9869
vn 0.0639 0.1919 -0.9793
vn -0.1531 0.0510 -0.9869
vn -0.0853 0.2559 -0.9629
vn 0.2559 0.0853 -0.9629
vn -0.2558 -0.0853 -0.9629
vn -0.0639 -0.1919 -0.9793
vn 0.0853 -0.2559 -0.9629
vn 0.1532 -0.0510 -0.9869
vt 0.011719 0.976320
vt 0.107414 0.761719
vt 0.226681 0.982299
vt 0.297849 0.822705
vt 0.107414 0.761721
vt 0.297846 0.822707
vt 0.226678 0.982301
vt 0.441643 0.988281
vt 0.488281 0.883690
vt 0.282278 0.375129
vt 0.011719 0.495014
vt 0.320914 0.398790
vt 0.291869 0.371094
vt 0.044494 0.515085
vt 0.077269 0.535156
vt 0.330506 0.394755
vt 0.353690 0.418862
vt 0.353690 0.418862
vt 0.044494 0.515085
vt 0.320915 0.398790
vt 0.330506 0.394755
vt 0.363281 0.414826
vt 0.400388 0.761719
vt 0.444335 0.786777
vt 0.011719 0.937096
vt 0.054504 0.962689
vt 0.011720 0.937096
vt 0.054503 0.962689
vt 0.444335 0.786778
vt 0.097286 0.988281
vt 0.488281 0.811835
vt 0.453830 0.413585
vt 0.497504 0.456713
vt 0.541178 0.499841
vt 0.573150 0.531413
vt 0.584852 0.542969
vt 0.497504 0.456713
vt 0.421859 0.382013
vt 0.410156 0.370457
vt 0.458822 0.406410
vt 0.426850 0.374837
vt 0.502496 0.449537
vt 0.502496 0.449537
vt 0.546170 0.492665
vt 0.578141 0.524238
vt 0.589844 0.535793
vt 0.578141 0.524237
vt 0.415148 0.363281
vt 0.746094 0.484497
vt 0.716235 0.542969
vt 0.746093 0.484497
vt 0.670120 0.478960
vt 0.699978 0.420487
vt 0.628906 0.421753
vt 0.658765 0.363282
vt 0.658765 0.363281
vt 0.034807 0.785623
vt 0.011719 0.773461
vt 0.063970 0.764253
vt 0.034807 0.785623
vt 0.270421 0.908467
vt 0.092996 0.779188
vt 0.308466 0.894027
vt 0.443386 0.978109
vt 0.398492 0.988281
vt 0.308466 0.894026
vt 0.346513 0.879585
vt 0.488281 0.967937
vt 0.121437 0.761719
vt 0.339376 0.939028
vt 0.190472 0.988281
vt 0.011719 0.859953
vt 0.190470 0.988280
vt 0.160810 0.810836
vt 0.339378 0.939030
vt 0.488281 0.889778
vt 0.309903 0.761719
vt 0.160812 0.810836
vt 0.094266 0.908766
vt 0.176816 0.988281
vt 0.488281 0.906386
vt 0.488281 0.906387
vt 0.378421 0.834053
vt 0.011719 0.829251
vt 0.268556 0.761719
vt 0.011719 0.844634
vt 0.207091 0.988280
vt 0.207091 0.988281
vt 0.160449 0.803176
vt 0.347685 0.940844
vt 0.160446 0.803176
vt 0.488281 0.893408
vt 0.309176 0.761719
vt 0.347687 0.940843
vt 0.123193 0.831775
vt 0.234660 0.761719
vt 0.455694 0.901649
vt 0.488279 0.815016
vt 0.234660 0.761720
vt 0.123193 0.831776
vt 0.488281 0.815017
vt 0.011719 0.901833
vt 0.423112 0.988281
vt 0.976562 0.023438
s 1
f 432/234/501 429/235/501 430/236/502
f 429/235/501 431/237/503 430/236/502
f 433/238/504 429/235/504 432/234/504
f 434/239/505 433/238/506 435/234/506
f 435/234/504 433/238/504 432/234/504
f 436/240/507 434/239/505 435/234/506
f 437/241/508 438/242/508 436/240/507
f 438/242/508 434/239/505 436/240/507
f 431/237/503 438/242/509 437/241/509
f 430/236/502 431/237/503 437/241/509
f 442/243/510 439/243/510 440/244/511
f 439/243/510 441/244/511 440/244/511
f 439/243/512 445/245/513 441/244/514
f 439/243/510 442/243/510 443/246/515
f 444/246/515 439/243/510 443/246/515
f 445/245/513 439/243/512 444/246/516
f 446/247/517 445/245/513 449/248/518
f 445/245/513 446/247/517 441/244/514
f 447/249/519 445/245/513 444/246/516
f 448/250/518 445/245/513 447/249/519
f 445/245/513 448/250/518 449/248/518
f 448/250/520 450/251/520 449/248/520
f 450/251/520 451/248/520 449/248/520
f 446/247/521 449/248/521 451/248/521
f 452/252/522 451/248/523 450/251/523
f 452/252/521 446/247/521 451/248/521
f 440/244/524 452/252/522 453/253/525
f 440/244/521 441/244/521 452/252/521
f 441/244/521 446/247/521 452/252/521
f 453/253/525 452/252/522 450/251/523
f 442/243/526 440/244/524 453/253/525
f 442/243/526 453/253/525 454/254/527
f 453/253/525 450/251/523 455/255/523
f 454/254/527 453/253/525 455/255/523
f 455/255/520 450/251/520 456/255/520
f 450/251/520 448/250/520 456/255/520
f 456/255/518 448/250/518 447/249/519
f 443/246/528 442/243/526 454/254/527
f 460/256/529 458/257/530 457/258/529
f 458/257/530 459/259/531 457/258/529
f 460/256/532 457/258/532 461/260/532
f 462/256/533 460/256/533 461/260/533
f 462/256/534 461/260/534 463/261/535
f 465/262/536 463/261/537 464/263/538
f 465/262/536 462/256/534 463/261/537
f 466/264/538 465/262/536 464/263/538
f 466/264/539 464/263/539 459/259/531
f 458/257/530 466/264/539 459/259/531
f 479/265/540 468/266/540 467/266/540
f 468/266/540 469/267/540 467/266/540
f 469/267/540 470/268/540 467/266/540
f 470/268/540 471/269/540 467/266/540
f 471/269/540 472/268/540 467/266/540
f 472/268/540 473/267/540 467/266/540
f 473/267/540 474/270/540 467/266/540
f 474/270/540 475/265/540 467/266/540
f 475/265/540 476/271/540 467/266/540
f 476/271/540 477/272/540 467/266/540
f 477/272/540 478/271/540 467/266/540
f 478/271/540 479/265/540 467/266/540
f 479/265/541 481/273/542 468/266/543
f 478/271/544 480/274/545 479/265/541
f 480/274/545 481/273/542 479/265/541
f 483/275/546 481/273/546 482/276/546
f 481/273/546 480/274/546 482/276/546
f 481/273/542 483/275/547 468/266/543
f 468/266/543 483/275/547 469/267/548
f 483/275/547 484/277/549 469/267/548
f 484/277/546 483/275/546 482/276/546
f 469/267/548 484/277/549 470/268/550
f 484/277/549 485/278/551 470/268/550
f 485/278/546 484/277/546 482/276/546
f 470/268/550 485/278/551 471/269/552
f 485/278/551 486/279/553 471/269/552
f 486/279/546 485/278/546 482/276/546
f 487/280/546 486/279/546 482/276/546
f 486/279/553 487/280/554 472/268/555
f 471/269/552 486/279/553 472/268/555
f 488/277/546 487/280/546 482/276/546
f 487/280/554 488/277/556 473/267/557
f 472/268/555 487/280/554 473/267/557
f 489/276/546 488/277/546 482/276/546
f 488/277/556 489/276/558 474/270/559
f 473/267/557 488/277/556 474/270/559
f 474/270/559 489/276/558 475/265/560
f 489/276/558 490/273/561 475/265/560
f 490/273/546 489/276/546 482/276/546
f 475/265/560 490/273/561 476/271/562
f 490/273/561 491/274/563 476/271/562
f 491/274/546 490/273/546 482/276/546
f 476/271/562 491/274/563 477/272/564
f 491/274/563 492/281/565 477/272/564
f 492/281/546 491/274/546 482/276/546
f 477/272/564 492/281/565 478/271/544
f 492/281/565 480/274/545 478/271/544
f 480/274/546 492/281/546 482/276/546
f 496/282/566 493/283/566 494/284/566
f 493/283/566 495/283/566 494/284/566
f 497/285/567 493/283/568 496/282/568
f 498/286/569 497/285/567 496/282/568
f 499/287/570 497/285/567 498/286/569
f 500/287/571 499/287/571 501/288/571
f 501/288/570 499/287/570 498/286/569
f 502/289/571 500/287/571 501/288/571
f 502/289/572 501/288/572 498/286/572
f 504/286/573 503/285/574 502/289/575
f 503/285/574 500/287/575 502/289/575
f 504/286/572 502/289/572 496/282/572
f 496/282/572 502/289/572 498/286/572
f 494/284/572 504/286/572 496/282/572
f 494/284/576 495/283/576 504/286/573
f 495/283/576 503/285/574 504/286/573
f 505/290/577 506/291/578 508/292/579
f 505/290/580 507/293/581 506/291/582
f 507/293/581 505/290/580 510/294/583
f 509/295/584 505/290/577 508/292/579
f 505/290/577 509/295/584 510/294/585
f 512/294/586 507/293/581 510/294/583
f 509/295/584 511/296/587 510/294/585
f 510/294/585 511/296/587 513/297/588
f 512/294/586 510/294/583 514/298/589
f 514/298/590 510/294/585 513/297/588
f 515/298/589 512/294/586 514/298/589
f 517/297/591 516/299/592 515/298/593
f 516/299/592 512/294/594 515/298/593
f 519/300/595 516/299/592 517/297/591
f 518/301/596 519/300/595 517/297/591
f 511/296/587 509/295/584 519/300/597
f 509/295/584 521/302/598 519/300/597
f 521/302/599 520/295/600 519/300/595
f 520/295/600 516/299/592 519/300/595
f 511/296/587 519/300/597 518/301/601
f 520/295/600 521/302/599 508/292/602
f 521/302/598 509/295/584 508/292/579
f 520/295/600 507/293/603 512/294/594
f 507/293/603 520/295/600 508/292/602
f 516/299/592 520/295/600 512/294/594
f 513/297/588 511/296/587 518/301/601
f 506/291/604 507/293/603 508/292/602
f 523/303/605 522/304/606 524/305/606
f 524/305/607 522/304/607 525/305/607
f 522/304/607 526/306/607 525/305/607
f 525/305/608 526/306/608 527/307/609
f 526/306/608 528/308/610 527/307/609
f 528/308/610 529/309/611 530/310/611
f 527/307/609 528/308/610 530/310/611
f 530/310/612 529/309/612 531/311/613
f 529/309/612 523/303/605 531/311/613
f 531/311/613 523/303/605 524/305/606
f 533/312/614 532/313/615 534/314/615
f 534/314/616 532/313/617 535/315/616
f 532/313/617 536/313/617 535/315/616
f 535/315/618 536/313/618 537/316/619
f 536/313/618 538/312/620 537/316/619
f 538/312/620 539/317/621 540/318/621
f 537/316/619 538/312/620 540/318/621
f 540/318/622 539/317/622 541/316/623
f 539/317/622 533/312/614 541/316/623
f 541/316/623 533/312/614 534/314/615
f 542/319/624 543/320/624 545/321/624
f 543/320/606 542/319/606 544/322/605
f 546/319/607 542/319/607 545/321/607
f 545/321/608 547/323/625 546/319/608
f 547/323/625 548/324/610 546/319/608
f 550/325/611 549/326/611 548/324/610
f 547/323/625 550/325/611 548/324/610
f 550/325/612 551/327/626 549/326/612
f 551/327/613 543/320/606 544/322/605
f 551/327/613 544/322/605 549/326/612
f 555/328/627 552/329/628 553/330/629
f 552/329/628 554/331/628 553/330/630
f 554/331/631 552/329/631 556/332/631
f 556/332/632 557/333/633 558/334/632
f 558/334/634 554/331/634 556/332/634
f 557/333/633 559/330/635 558/334/632
f 557/333/633 560/335/636 559/330/635
f 560/335/636 561/336/637 559/330/635
f 560/335/636 555/328/627 561/336/637
f 555/328/627 553/330/629 561/336/637
f 563/337/638 562/337/639 564/337/640
f 564/337/640 562/337/639 565/337/641
f 562/337/639 566/337/642 565/337/641
f 565/337/641 566/337/642 567/337/643
f 566/337/642 568/337/644 567/337/643
f 568/337/644 563/337/638 569/337/645
f 567/337/643 568/337/644 569/337/645
f 569/337/645 563/337/638 564/337/640
f 564/337/640 565/337/641 569/337/645
f 565/337/641 567/337/643 569/337/645
f 571/337/646 573/337/647 570/337/648
f 571/337/646 570/337/648 572/337/649
f 573/337/647 574/337/650 570/337/648
f 573/337/647 575/337/651 574/337/650
f 575/337/651 576/337/652 574/337/650
f 577/337/653 572/337/649 576/337/652
f 575/337/651 577/337/653 576/337/652
f 571/337/646 577/337/653 573/337/647
f 577/337/653 571/337/646 572/337/649
f 577/337/653 575/337/651 573/337/647
f 579/337/638 578/337/639 580/337/640
f 580/337/640 578/337/639 581/337/641
f 578/337/639 582/337/642 581/337/641
f 581/337/641 582/337/642 583/337/643
f 582/337/642 584/337/644 583/337/643
f 584/337/644 579/337/638 585/337/645
f 583/337/643 584/337/644 585/337/645
f 580/337/640 581/337/641 585/337/645
f 585/337/645 579/337/638 580/337/640
f 581/337/641 583/337/643 585/337/645
f 587/337/646 589/337/647 586/337/648
f 587/337/646 586/337/648 588/337/649
f 589/337/647 590/337/650 586/337/648
f 589/337/647 591/337/651 590/337/650
f 591/337/651 592/337/652 590/337/650
f 593/337/653 588/337/649 592/337/652
f 591/337/651 593/337/653 592/337/652
f 593/337/653 587/337/646 588/337/649
f 587/337/646 593/337/653 589/337/647
f 593/337/653 591/337/651 589/337/647
f 595/337/638 594/337/639 596/337/640
f 596/337/640 594/337/639 597/337/641
f 594/337/639 598/337/642 597/337/641
f 597/337/641 598/337/642 599/337/643
f 598/337/642 600/337/644 599/337/643
f 600/337/644 595/337/638 601/337/645
f 599/337/643 600/337/644 601/337/645
f 601/337/645 595/337/638 596/337/640
f 596/337/640 597/337/641 601/337/645
f 597/337/641 599/337/643 601/337/645
f 603/337/646 605/337/647 602/337/648
f 603/337/646 602/337/648 604/337/649
f 605/337/647 606/337/650 602/337/648
f 605/337/647 607/337/651 606/337/650
f 607/337/651 608/337/652 606/337/650
f 609/337/653 604/337/649 608/337/652
f 607/337/651 609/337/653 608/337/652
f 603/337/646 609/337/653 605/337/647
f 609/337/653 603/337/646 604/337/649
f 609/337/653 607/337/651 605/337/647
o effect
v -35.151520 -4.606251 -3.483364
v -91.580788 -5.117278 3.857580
v -35.151520 -4.606250 3.483364
v -91.580788 -5.117279 -3.857579
v -92.130501 3.663014 -6.465957
v -35.126854 3.711281 -5.343424
v -35.126854 3.711282 5.343423
v -92.130501 3.663015 6.465956
v -35.603607 12.048060 3.483363
v -35.603607 12.048060 -3.483365
v -92.680283 12.443311 3.857579
v -138.827194 8.378007 3.857579
v -92.680283 12.443311 -3.857581
v -138.827194 8.378007 -3.857581
v -181.679291 1.308304 -3.857580
v -180.556610 -7.400518 -6.465956
v -137.981079 -0.376529 -6.465956
v -137.135162 -9.130944 -3.857579
v -179.434082 -16.109221 -3.857579
v -231.328430 -29.209797 -3.735314
v -231.328430 -29.209797 3.735318
v -179.434082 -16.109221 3.857581
v -180.556610 -7.400517 6.465957
v -137.135162 -9.130944 3.857581
v -137.981079 -0.376528 6.465956
v -181.679291 1.308304 3.857580
v -234.213257 -11.648465 -3.735315
v -234.213257 -11.648465 3.735317
v -233.031479 -20.505075 5.729938
v -233.031479 -20.505075 -5.729935
v -35.109623 -4.125423 -2.735048
v -35.499813 10.409506 -2.735049
v -35.109623 -4.125423 2.735048
v -35.499813 10.409506 2.735047
v -35.321560 3.769329 -4.221008
v -35.321560 3.769330 4.221007
v -231.084976 -27.096348 -2.735046
v -233.531799 -12.517608 -2.735047
v -231.084976 -27.096348 2.735050
v -233.531799 -12.517608 2.735049
v -232.308334 -19.806982 -4.221006
v -232.308334 -19.806982 4.221009
v -179.626938 -14.402212 -2.735047
v -181.542542 0.306354 -2.735048
v -179.626938 -14.402212 2.735049
v -181.542542 0.306354 2.735048
v -180.584656 -7.048050 -4.221007
v -180.584656 -7.048049 4.221008
v -137.280426 -7.520053 -2.735048
v -138.733994 7.263463 -2.735049
v -137.280426 -7.520053 2.735049
v -138.733994 7.263463 2.735048
v -138.007156 -0.128353 -4.221008
v -138.007156 -0.128353 4.221008
v -91.670944 -3.613194 -2.735048
v -92.626976 11.213061 -2.735049
v -91.670944 -3.613193 2.735048
v -92.626976 11.213061 2.735047
v -92.148926 3.799933 -4.221008
v -92.148926 3.799933 4.221007
v -231.084976 -27.096348 -2.735046
v -232.308334 -19.806982 -4.221006
v -231.084976 -27.096348 2.735050
v -232.308334 -19.806982 4.221009
v -233.531799 -12.517608 2.735049
v -233.531799 -12.517608 -2.735047
v -79.258751 -2.857776 -3.134204
v -79.258751 -2.857775 3.134320
v -79.678795 5.012836 -5.019436
v -76.933235 4.934509 -5.019436
v -76.590210 -2.933983 -3.134204
v -76.590210 -2.933982 3.134320
v -79.678795 5.012837 5.019435
v -76.933235 4.934510 5.019435
v -77.276276 12.803001 -3.134321
v -77.276276 12.803001 3.134203
v -80.098763 12.883560 3.134203
v -80.098763 12.883560 -3.134321
vn 0.0570 -0.9984 0.0001
vn 0.0091 -1.0000 -0.0000
vn 0.0400 -0.9992 -0.0000
vn 0.9999 0.0119 -0.0000
vn 1.0000 -0.0030 -0.0000
vn 0.0160 -0.2537 -0.9672
vn 0.0169 -0.2838 -0.9587
vn 0.0073 -0.0397 -0.9992
vn 0.0199 -0.0066 -0.9998
vn 0.9991 0.0422 -0.0000
vn 0.0199 -0.0066 0.9998
vn 0.0146 0.2545 0.9670
vn 0.0047 0.0450 0.9990
vn 0.0160 -0.2537 0.9672
vn 0.9984 0.0571 -0.0000
vn 0.0069 1.0000 -0.0000
vn -0.0406 0.9992 -0.0000
vn -0.0086 0.2843 0.9587
vn -0.0332 0.2825 0.9587
vn -0.1171 0.9931 -0.0000
vn -0.1336 0.9910 -0.0000
vn -0.1927 0.9813 -0.0000
vn -0.0092 0.0437 -0.9990
vn -0.0580 0.2796 -0.9584
vn -0.0378 0.2819 -0.9587
vn 0.0020 0.0026 -1.0000
vn -0.0121 0.2841 -0.9587
vn 0.0335 -0.2825 -0.9587
vn 0.0554 -0.2801 -0.9584
vn 0.2448 -0.9696 -0.0000
vn 0.2129 -0.9771 -0.0000
vn 0.0524 -0.2497 -0.9669
vn 0.1949 -0.9808 -0.0000
vn 0.1335 -0.9911 -0.0000
vn -0.0005 -0.0405 0.9992
vn 0.0577 -0.2796 0.9584
vn 0.0381 -0.2819 0.9587
vn 0.0524 -0.2497 0.9669
vn 0.1172 -0.9931 -0.0000
vn -0.0029 0.0020 1.0000
vn 0.0186 -0.2837 0.9587
vn -0.0554 0.2801 0.9584
vn -0.2098 0.9778 -0.0000
vn -0.2395 0.9709 -0.0000
vn -0.0696 0.2465 0.9666
vn -0.9891 -0.1472 -0.0000
vn -0.9912 -0.1323 -0.0000
vn -0.0102 -0.0171 0.9998
vn -0.9842 -0.1771 -0.0000
vn -0.9814 -0.1920 -0.0000
vn -0.0102 -0.0170 -0.9998
vn -0.0696 0.2465 -0.9666
vn 0.0146 0.2545 -0.9670
vn 0.0473 -0.1919 -0.9803
vn -0.0066 0.0535 -0.9985
vn 0.0012 0.0022 -1.0000
vn 0.0381 -0.1933 -0.9804
vn 0.0120 -0.0785 0.9968
vn 0.0473 -0.1919 0.9803
vn 0.0415 -0.1926 0.9804
vn -0.0024 0.0013 1.0000
vn 0.2395 -0.9709 -0.0000
vn 0.2088 -0.9780 -0.0000
vn 0.1915 -0.9815 -0.0000
vn -0.0473 0.1919 -0.9803
vn -0.0408 0.1926 -0.9804
vn -0.2089 0.9779 -0.0000
vn -0.1913 0.9815 -0.0000
vn -0.0473 0.1919 0.9803
vn -0.0374 0.1933 0.9804
vn 0.0015 0.0019 -1.0000
vn 0.0227 -0.1949 -0.9806
vn 0.0259 -0.1946 0.9805
vn -0.0019 0.0014 1.0000
vn 0.1311 -0.9914 -0.0000
vn 0.1148 -0.9934 -0.0000
vn -0.0256 0.1945 -0.9806
vn -0.1312 0.9914 -0.0000
vn -0.1147 0.9934 -0.0000
vn -0.0224 0.1949 0.9806
vn 0.0023 0.0060 -1.0000
vn 0.0059 -0.1921 -0.9814
vn 0.0094 -0.1960 0.9806
vn -0.0023 0.0355 0.9994
vn 0.0484 -0.9988 -0.0000
vn 0.0279 -0.9996 -0.0000
vn -0.0092 0.1960 -0.9806
vn -0.0357 0.9994 -0.0000
vn -0.0072 0.1961 0.9806
vn -0.0007 -0.1911 0.9816
vn 0.0002 0.0102 0.9999
vn -0.0091 -1.0000 -0.0000
vn 0.0016 0.2070 0.9783
vn 0.0141 0.9999 -0.0000
vn 0.0016 0.2070 -0.9783
vn 0.0034 -0.0623 -0.9980
vn -0.0017 -0.1850 -0.9827
vn 0.9996 0.0268 -0.0000
vn -0.9862 -0.1655 -0.0000
vn -0.0285 -0.9996 -0.0000
vn -0.9986 -0.0533 -0.0000
vn -0.0067 -0.2333 -0.9724
vn -0.0040 0.0933 -0.9956
vn 0.0057 -0.0939 -0.9956
vn -0.0057 0.0644 0.9979
vn 0.0045 -0.0651 0.9979
vn -0.0067 -0.2333 0.9724
vn 0.9991 0.0436 -0.0000
vn 0.0067 0.2333 0.9724
vn 0.0285 0.9996 -0.0000
vn 0.0067 0.2333 -0.9724
vt 0.352875 0.633003
vt 0.487720 0.624855
vt 0.488281 0.599537
vt 0.352092 0.606343
vt 0.487645 0.574219
vt 0.351308 0.579684
vt 0.240814 0.597448
vt 0.138009 0.623971
vt 0.140166 0.650346
vt 0.242306 0.623994
vt 0.243799 0.650540
vt 0.142322 0.676721
vt 0.017551 0.722656
vt 0.011719 0.669544
vt 0.014008 0.696362
vt 0.016650 0.722656
vt 0.014184 0.699027
vt 0.139093 0.650501
vt 0.140917 0.674377
vt 0.011719 0.675397
vt 0.137269 0.626624
vt 0.241684 0.622251
vt 0.242951 0.646281
vt 0.240416 0.598221
vt 0.351952 0.603328
vt 0.352622 0.627461
vt 0.351283 0.579196
vt 0.488281 0.621609
vt 0.488281 0.595868
vt 0.488281 0.574219
vt 0.628906 0.511340
vt 0.628906 0.394910
vt 0.687500 0.542969
vt 0.687500 0.363281
vt 0.746094 0.394910
vt 0.746094 0.511340
vt 0.629684 0.397023
vt 0.628906 0.397023
vt 0.628906 0.509225
vt 0.687088 0.542969
vt 0.687889 0.542969
vt 0.629684 0.509225
vt 0.687889 0.363281
vt 0.687088 0.363281
vt 0.745271 0.397025
vt 0.746094 0.509227
vt 0.746094 0.397025
vt 0.745271 0.509227
s 1
f 613/338/654 610/339/655 611/338/656
f 610/339/655 612/339/655 611/338/656
f 616/340/657 612/339/658 610/339/658
f 610/339/659 613/338/660 614/341/661
f 615/340/662 610/339/659 614/341/661
f 615/340/663 616/340/657 610/339/658
f 616/340/664 618/342/665 617/341/666
f 612/339/667 616/340/664 617/341/666
f 618/342/668 616/340/657 615/340/663
f 619/342/668 618/342/668 615/340/663
f 618/342/669 619/342/669 620/343/670
f 618/342/665 620/343/671 617/341/666
f 620/343/671 621/344/672 617/341/666
f 623/344/673 621/344/674 620/343/670
f 619/342/669 622/343/670 620/343/670
f 622/343/670 623/344/673 620/343/670
f 623/344/673 624/345/675 621/344/674
f 625/346/676 624/345/677 623/344/678
f 626/347/679 625/346/676 623/344/678
f 626/347/679 623/344/678 622/343/680
f 614/341/661 626/347/679 622/343/680
f 627/348/681 626/347/679 614/341/661
f 628/349/682 625/346/676 626/347/679
f 627/348/681 628/349/682 626/347/679
f 630/350/683 629/350/683 628/349/684
f 628/349/682 629/350/685 625/346/676
f 631/349/686 630/350/683 628/349/684
f 631/349/686 628/349/684 627/348/687
f 632/346/688 631/349/689 633/348/690
f 630/350/691 631/349/689 632/346/688
f 633/348/692 631/349/686 627/348/687
f 634/347/693 632/346/688 633/348/690
f 633/348/692 627/348/687 613/338/654
f 634/347/693 633/348/690 611/338/694
f 611/338/656 633/348/692 613/338/654
f 621/344/672 634/347/693 617/341/666
f 621/344/672 635/345/695 634/347/693
f 635/345/695 632/346/688 634/347/693
f 617/341/666 634/347/693 611/338/694
f 624/345/675 635/345/696 621/344/674
f 624/345/675 636/351/697 635/345/696
f 636/351/697 637/351/697 635/345/696
f 635/345/695 637/351/698 632/346/688
f 638/352/699 637/351/700 636/351/700
f 637/351/698 638/352/701 632/346/688
f 639/352/702 638/352/699 636/351/700
f 630/350/703 638/352/699 639/352/702
f 638/352/701 630/350/691 632/346/688
f 629/350/703 630/350/703 639/352/702
f 629/350/685 639/352/704 625/346/676
f 639/352/704 636/351/705 625/346/676
f 636/351/705 624/345/677 625/346/676
f 613/338/660 627/348/681 614/341/661
f 622/343/680 619/342/706 614/341/661
f 619/342/706 615/340/662 614/341/661
f 611/338/694 612/339/667 617/341/666
f 646/353/707 650/354/708 656/355/709
f 652/356/710 646/353/707 656/355/709
f 651/354/711 648/353/712 654/356/713
f 657/355/714 651/354/711 654/356/713
f 648/353/715 646/353/715 652/356/716
f 654/356/717 648/353/715 652/356/716
f 650/354/708 647/357/718 653/358/719
f 656/355/709 650/354/708 653/358/719
f 647/357/697 649/357/697 655/358/720
f 653/358/721 647/357/697 655/358/720
f 649/357/722 651/354/711 657/355/714
f 655/358/723 649/357/722 657/355/714
f 652/356/710 656/355/709 662/359/724
f 658/360/725 652/356/710 662/359/724
f 657/355/714 654/356/713 660/360/726
f 663/359/727 657/355/714 660/360/726
f 654/356/717 652/356/716 658/360/728
f 660/360/729 654/356/717 658/360/728
f 656/355/709 653/358/719 659/361/730
f 662/359/724 656/355/709 659/361/730
f 653/358/721 655/358/720 661/361/731
f 659/361/732 653/358/721 661/361/731
f 655/358/723 657/355/714 663/359/727
f 661/361/733 655/358/723 663/359/727
f 658/360/725 662/359/724 668/362/734
f 664/363/735 658/360/725 668/362/734
f 663/359/727 660/360/726 666/363/736
f 669/362/737 663/359/727 666/363/736
f 660/360/729 658/360/728 664/363/738
f 666/363/739 660/360/729 664/363/738
f 662/359/724 659/361/730 665/364/740
f 668/362/734 662/359/724 665/364/740
f 659/361/732 661/361/731 667/364/741
f 665/364/741 659/361/732 667/364/741
f 661/361/733 663/359/727 669/362/737
f 667/364/742 661/361/733 669/362/737
f 642/365/743 645/366/744 669/362/737
f 666/363/736 642/365/743 669/362/737
f 640/365/745 642/365/745 666/363/739
f 664/363/738 640/365/745 666/363/739
f 643/367/746 667/364/742 669/362/737
f 645/366/744 643/367/746 669/362/737
f 641/367/747 665/364/741 667/364/741
f 643/367/747 641/367/747 667/364/741
f 641/367/748 644/366/749 668/362/734
f 665/364/740 641/367/748 668/362/734
f 644/366/749 640/365/750 664/363/735
f 668/362/734 644/366/749 664/363/735
f 643/367/751 645/366/751 644/366/751
f 641/367/751 643/367/751 644/366/751
f 645/366/751 642/365/751 640/365/751
f 644/366/751 645/366/751 640/365/751
f 670/368/752 672/369/752 671/370/752
f 672/369/752 673/371/752 671/370/752
f 673/371/752 674/372/752 675/373/752
f 671/370/752 673/371/752 675/373/752
f 681/374/753 677/375/753 676/376/753
f 677/375/754 678/377/754 676/376/754
f 676/376/755 678/377/756 679/378/757
f 680/379/755 676/376/755 679/378/757
f 680/379/753 681/374/753 676/376/753
f 683/380/758 682/381/759 681/374/760
f 682/381/759 677/375/760 681/374/760
f 680/379/761 679/378/761 681/374/761
f 683/380/761 681/374/761 679/378/761
f 686/382/762 682/381/759 683/380/758
f 684/383/761 683/380/761 679/378/761
f 684/383/761 685/384/761 683/380/761
f 685/384/762 686/382/762 683/380/758
f 687/385/763 686/382/763 685/384/763
f 687/385/754 678/377/754 686/382/754
f 686/382/754 678/377/754 682/381/754
f 678/377/756 687/385/764 684/383/764
f 684/383/763 687/385/763 685/384/763
f 679/378/757 678/377/756 684/383/764
f 678/377/754 677/375/754 682/381/754
