# Blender 5.2.0 LTS
# www.blender.org
o blade
v -32.792900 -3.202399 -2.265600
v 41.740307 -1.959199 2.265600
v 41.740307 -1.959200 -2.265600
v -32.792900 -3.202399 2.265600
v -35.379101 -3.202399 2.265600
v -35.379101 -3.202400 -2.265600
v -32.792900 3.631000 -3.566900
v -35.379101 3.631000 -3.566900
v -32.792900 9.427600 -2.265601
v 41.740303 9.180600 -2.265601
v 41.740295 3.610699 -3.566900
v 41.740303 9.180600 2.265599
v 41.740295 3.610700 3.566900
v -32.792900 3.631000 3.566900
v -32.792900 9.427600 2.265599
v -35.379101 9.427600 -2.265601
v -35.379101 9.427600 2.265599
v -35.379101 3.631000 3.566900
v -37.807766 -0.602279 -0.413059
v -89.446373 3.193912 -0.487019
v -37.887741 3.474942 -0.487019
v -89.211411 -0.881606 -0.413059
v -37.807766 -0.602279 0.413057
v -89.211411 -0.881606 0.413057
v -37.887741 3.474942 0.487017
v -89.446373 3.193912 0.487017
v -37.967716 7.552078 -0.000002
v -89.681412 7.269344 -0.000002
v -132.939270 -0.091918 -0.487019
v -133.312668 3.973191 -0.000001
v -173.858337 -1.521014 -0.000001
v -173.356293 -5.568796 -0.487019
v -132.939270 -0.091918 0.487017
v -173.356293 -5.568796 0.487017
v -132.565948 -4.156939 0.413057
v -172.854324 -9.616322 0.413058
v -132.565948 -4.156939 -0.413059
v -172.854324 -9.616322 -0.413058
v -215.411255 -17.971273 -0.413058
v -215.411255 -17.971273 0.413058
v -212.812012 -13.012930 -0.487018
v -214.623108 -9.461690 -0.000000
v -218.011948 -14.057666 -0.000000
v -212.812012 -13.012930 0.487018
v -219.608154 -18.780235 0.000000
v -34.015800 -2.157500 -1.099300
v -42.484100 -2.225600 1.099300
v -34.015800 -2.157500 1.099300
v -42.484100 -2.225600 -1.099300
v -34.015800 3.610700 -1.295900
v -42.484100 3.542600 -1.295900
v -34.015800 8.765900 -0.723001
v -34.015800 8.765900 0.722999
v -42.484100 8.697800 -0.723001
v -42.484100 8.697800 0.722999
v -34.015800 3.610700 1.295900
v -42.484100 3.542600 1.295900
v -35.188805 3.601435 0.000002
v -35.188805 3.601434 12.755768
v -35.185284 -3.155957 11.046864
v -35.182705 -8.102701 6.377952
v -35.181763 -9.913346 0.000005
v -35.182705 -8.102701 -6.377943
v -35.185284 -3.155955 -11.046858
v -35.188805 3.601436 -12.755766
v -35.192333 10.357965 -11.045453
v -35.194908 15.304867 -6.377564
v -35.195847 17.116213 -0.000002
v -35.194908 15.304921 6.377465
v -35.192333 10.357957 11.045443
v -37.100796 15.306503 6.377820
v -37.098217 10.359756 11.046862
v -37.094696 3.602365 0.000002
v -37.094696 3.602364 12.755768
v -37.091167 -3.154156 11.045443
v -37.088593 -8.101061 6.377564
v -37.087654 -9.912416 0.000005
v -37.088593 -8.101075 -6.377563
v -37.091167 -3.154166 -11.045456
v -37.094696 3.602365 -12.755766
v -37.098217 10.359756 -11.046861
v -37.100796 15.306500 -6.377948
v -37.101738 17.117147 -0.000002
vn 0.0083 -1.0000 -0.0000
vn 0.0167 -0.9999 -0.0000
vn 0.0016 -0.1871 -0.9823
vn 0.0006 -0.0180 -0.9998
vn 0.0015 -0.2073 -0.9783
vn -0.0000 -1.0000 -0.0000
vn -0.0000 -0.1871 -0.9823
vn -0.0000 0.0852 -0.9964
vn 0.0004 0.2190 -0.9757
vn 0.0004 0.2233 -0.9747
vn -0.0000 -0.0000 -1.0000
vn 1.0000 -0.0000 -0.0000
vn 0.0005 0.0095 1.0000
vn 0.0003 0.0747 0.9972
vn 0.0003 0.2218 0.9751
vn 0.0015 -0.2073 0.9783
vn 0.0008 0.2275 0.9738
vn 0.0017 1.0000 -0.0000
vn -0.0000 1.0000 -0.0000
vn 0.0033 1.0000 -0.0000
vn -0.0000 0.2190 0.9757
vn -0.0000 -0.0527 0.9986
vn 0.0016 -0.1871 0.9823
vn -0.0000 -0.1871 0.9823
vn -0.0000 0.2190 -0.9757
vn 0.0007 -0.0181 -0.9998
vn -0.0015 0.0277 -0.9996
vn 0.0001 -0.0181 -0.9998
vn -0.0012 0.0714 -0.9974
vn 0.0348 -0.9994 -0.0000
vn 0.0054 -1.0000 -0.0000
vn 0.0404 -0.9992 -0.0000
vn 0.0406 -0.9992 -0.0000
vn 0.0007 -0.0181 0.9998
vn 0.0001 -0.0181 0.9998
vn 0.0008 0.0259 0.9997
vn -0.0031 0.0732 0.9973
vn -0.0006 0.1186 0.9929
vn -0.0048 0.1184 0.9930
vn -0.0048 0.1184 -0.9930
vn -0.0006 0.1186 -0.9929
vn -0.0047 0.0503 -0.9987
vn -0.0133 0.1177 -0.9930
vn -0.0115 0.1179 0.9930
vn -0.0098 0.0635 -0.9979
vn -0.0204 0.1193 -0.9926
vn -0.0194 0.1188 0.9927
vn -0.0058 0.0504 0.9987
vn -0.0060 0.0364 0.9993
vn 0.0019 -0.0180 0.9998
vn 0.0966 -0.9953 -0.0000
vn 0.1554 -0.9878 -0.0000
vn 0.1130 -0.9936 -0.0000
vn 0.0029 -0.0179 0.9998
vn 0.1717 -0.9852 -0.0000
vn 0.0019 -0.0180 -0.9998
vn 0.0029 -0.0179 -0.9998
vn -0.0437 0.0543 -0.9976
vn 0.1910 -0.9816 -0.0000
vn -0.0662 0.0175 -0.9977
vn -0.1051 0.0524 -0.9931
vn -0.0631 0.1040 -0.9926
vn -0.1046 0.0354 -0.9939
vn -0.0436 0.0544 0.9976
vn -0.0631 0.1040 0.9926
vn -0.1051 0.0524 0.9931
vn -0.1046 0.0354 0.9939
vn -0.0662 0.0175 0.9977
vn 0.1893 -0.9819 -0.0000
vn 0.0080 -1.0000 -0.0000
vn -0.0003 0.0141 -0.9999
vn 0.0003 -0.0341 -0.9994
vn -0.0003 0.0624 -0.9981
vn -0.0009 0.1105 -0.9939
vn -0.0080 1.0000 -0.0000
vn -1.0000 -0.0000 -0.0000
vn -0.0003 0.0624 0.9981
vn -0.0009 0.1105 0.9939
vn -0.0003 0.0141 0.9999
vn 0.0003 -0.0341 0.9994
vn 1.0000 0.0005 -0.0000
vn 0.0011 0.5439 0.8392
vn 0.0011 0.4163 0.9092
vn -0.0000 0.0638 0.9980
vn 0.0008 0.9026 0.4304
vn 0.0009 0.7985 0.6020
vn -1.0000 -0.0005 -0.0000
vn -0.0000 -0.0638 0.9980
vn -0.0011 -0.4163 0.9092
vn -0.0011 -0.5439 0.8392
vn -0.0009 -0.7985 0.6020
vn -0.0008 -0.9026 0.4304
vn -0.0006 -0.9925 -0.1223
vn -0.0006 -0.9925 0.1224
vn -0.0009 -0.7984 -0.6022
vn -0.0008 -0.9027 -0.4302
vn -0.0011 -0.4159 -0.9094
vn -0.0010 -0.5440 -0.8391
vn -0.0000 -0.0641 -0.9979
vn -0.0000 0.0641 -0.9979
vn 0.0011 0.4159 -0.9094
vn 0.0010 0.5440 -0.8391
vn 0.0009 0.7984 -0.6022
vn 0.0008 0.9027 -0.4302
vn 0.0006 0.9925 -0.1223
vn 0.0006 0.9925 0.1224
vt 0.023508 0.535156
vt 0.363281 0.519007
vt 0.023508 0.446391
vt 0.011719 0.535156
vt 0.011719 0.446391
vt 0.023508 0.371094
vt 0.363281 0.374302
vt 0.363281 0.446655
vt 0.011719 0.371094
vt 0.353784 0.833084
vt 0.353378 0.802916
vt 0.488281 0.822133
vt 0.488281 0.791926
vt 0.488281 0.761719
vt 0.352972 0.772748
vt 0.239423 0.834785
vt 0.238654 0.804718
vt 0.133402 0.882364
vt 0.132296 0.852447
vt 0.240191 0.864852
vt 0.134507 0.912279
vt 0.029795 0.944358
vt 0.022740 0.981560
vt 0.016137 0.953000
vt 0.025239 0.918348
vt 0.011719 0.988281
vt 0.628906 0.542969
vt 0.629632 0.363281
vt 0.691131 0.363281
vt 0.690405 0.542969
vt 0.746094 0.363281
vt 0.745368 0.542969
vt 0.544922 0.375318
vt 0.500000 0.363281
vt 0.500000 0.453125
vt 0.455078 0.375318
vt 0.422193 0.408203
vt 0.410156 0.453125
vt 0.422193 0.498047
vt 0.455078 0.530932
vt 0.500000 0.542969
vt 0.544922 0.530932
vt 0.577807 0.498047
vt 0.589844 0.453125
vt 0.577807 0.408204
s 1
f 4/1/1 1/1/1 2/2/2
f 1/1/1 3/2/2 2/2/2
f 1/1/3 7/3/4 3/2/5
f 1/1/1 4/1/1 5/4/6
f 6/4/6 1/1/1 5/4/6
f 7/3/4 1/1/3 6/4/7
f 8/5/8 7/3/4 6/4/7
f 9/6/9 7/3/4 8/5/8
f 7/3/4 9/6/9 10/7/10
f 7/3/4 11/8/11 3/2/5
f 11/8/11 7/3/4 10/7/10
f 3/2/12 11/8/12 13/8/12
f 11/8/12 10/7/12 12/7/12
f 13/8/12 11/8/12 12/7/12
f 14/3/13 13/8/14 15/6/15
f 2/2/16 13/8/14 14/3/13
f 2/2/12 3/2/12 13/8/12
f 13/8/14 12/7/17 15/6/15
f 15/6/18 9/6/18 16/9/19
f 9/6/18 15/6/18 10/7/20
f 15/6/18 12/7/20 10/7/20
f 17/9/19 15/6/18 16/9/19
f 14/3/13 15/6/15 17/9/21
f 18/5/22 14/3/13 17/9/21
f 4/1/23 14/3/13 18/5/22
f 5/4/24 4/1/23 18/5/22
f 16/9/25 9/6/9 8/5/8
f 4/1/23 2/2/16 14/3/13
f 22/10/26 20/11/27 19/12/28
f 20/11/27 21/13/29 19/12/28
f 22/10/30 19/12/31 23/12/31
f 24/10/32 22/10/33 23/12/31
f 24/10/34 23/12/35 25/13/36
f 26/11/37 24/10/34 25/13/36
f 26/11/37 25/13/36 27/14/38
f 28/15/39 26/11/37 27/14/38
f 28/15/40 27/14/41 21/13/29
f 20/11/27 29/16/42 28/15/40
f 29/16/42 30/17/43 28/15/40
f 28/15/39 30/17/44 26/11/37
f 20/11/27 28/15/40 21/13/29
f 32/18/45 31/19/46 30/17/43
f 30/17/44 31/19/47 33/16/48
f 29/16/42 32/18/45 30/17/43
f 30/17/44 33/16/48 26/11/37
f 31/19/47 34/18/49 33/16/48
f 26/11/37 33/16/48 24/10/34
f 33/16/48 35/20/50 24/10/34
f 33/16/48 34/18/49 35/20/50
f 35/20/51 36/21/52 37/20/53
f 34/18/49 36/21/54 35/20/50
f 35/20/51 37/20/53 22/10/33
f 24/10/32 35/20/51 22/10/33
f 36/21/52 38/21/55 37/20/53
f 37/20/56 38/21/57 29/16/42
f 37/20/56 29/16/42 20/11/27
f 22/10/26 37/20/56 20/11/27
f 38/21/57 32/18/45 29/16/42
f 41/22/58 32/18/45 38/21/57
f 36/21/52 40/23/59 38/21/55
f 40/23/59 39/23/59 38/21/55
f 39/23/60 41/22/58 38/21/57
f 41/22/58 39/23/60 43/24/61
f 41/22/58 42/25/62 31/19/46
f 42/25/62 41/22/58 43/24/61
f 32/18/45 41/22/58 31/19/46
f 39/23/60 45/26/63 43/24/61
f 44/22/64 42/25/65 43/24/66
f 45/26/67 40/23/68 43/24/66
f 40/23/68 44/22/64 43/24/66
f 39/23/59 40/23/59 45/26/69
f 42/25/65 44/22/64 31/19/47
f 44/22/64 40/23/68 36/21/54
f 34/18/49 44/22/64 36/21/54
f 44/22/64 34/18/49 31/19/47
f 49/27/70 46/28/70 47/27/70
f 46/28/70 48/28/70 47/27/70
f 50/29/71 46/28/72 49/27/72
f 51/30/73 50/29/71 49/27/72
f 52/31/74 50/29/71 51/30/73
f 53/31/75 52/31/75 54/32/75
f 54/32/74 52/31/74 51/30/73
f 55/32/75 53/31/75 54/32/75
f 55/32/76 54/32/76 51/30/76
f 56/29/77 53/31/78 55/32/78
f 57/30/76 55/32/76 49/27/76
f 49/27/76 55/32/76 51/30/76
f 57/30/79 56/29/77 55/32/78
f 47/27/76 57/30/76 49/27/76
f 47/27/80 48/28/80 57/30/79
f 48/28/80 56/29/77 57/30/79
f 70/33/81 59/34/81 58/35/81
f 59/34/81 60/36/81 58/35/81
f 60/36/81 61/37/81 58/35/81
f 61/37/81 62/38/81 58/35/81
f 62/38/81 63/39/81 58/35/81
f 63/39/81 64/40/81 58/35/81
f 64/40/81 65/41/81 58/35/81
f 65/41/81 66/42/81 58/35/81
f 66/42/81 67/43/81 58/35/81
f 67/43/81 68/44/81 58/35/81
f 68/44/81 69/45/81 58/35/81
f 69/45/81 70/33/81 58/35/81
f 70/33/82 72/33/83 59/34/84
f 69/45/85 71/45/86 70/33/82
f 71/45/86 72/33/83 70/33/82
f 72/33/87 71/45/87 73/35/87
f 74/34/87 72/33/87 73/35/87
f 72/33/83 74/34/88 59/34/84
f 59/34/84 74/34/88 60/36/89
f 74/34/88 75/36/90 60/36/89
f 75/36/87 74/34/87 73/35/87
f 60/36/89 75/36/90 61/37/91
f 75/36/90 76/37/92 61/37/91
f 76/37/87 75/36/87 73/35/87
f 77/38/87 76/37/87 73/35/87
f 76/37/92 77/38/93 62/38/94
f 61/37/91 76/37/92 62/38/94
f 78/39/87 77/38/87 73/35/87
f 77/38/93 78/39/95 63/39/96
f 62/38/94 77/38/93 63/39/96
f 79/40/87 78/39/87 73/35/87
f 78/39/95 79/40/97 64/40/98
f 63/39/96 78/39/95 64/40/98
f 64/40/98 79/40/97 65/41/99
f 79/40/97 80/41/100 65/41/99
f 80/41/87 79/40/87 73/35/87
f 65/41/99 80/41/100 66/42/101
f 80/41/100 81/42/102 66/42/101
f 81/42/87 80/41/87 73/35/87
f 66/42/101 81/42/102 67/43/103
f 81/42/102 82/43/104 67/43/103
f 82/43/87 81/42/87 73/35/87
f 67/43/103 82/43/104 68/44/105
f 82/43/104 83/44/106 68/44/105
f 83/44/87 82/43/87 73/35/87
f 68/44/105 83/44/106 69/45/85
f 83/44/106 71/45/86 69/45/85
f 71/45/87 83/44/87 73/35/87
o blade_damaged
v -37.912891 -0.665103 -0.413059
v -89.352333 1.553927 -0.487019
v -37.887589 3.420911 -0.487019
v -89.222900 -2.525613 -0.413059
v -37.912891 -0.665103 0.413057
v -89.222900 -2.525613 0.413057
v -37.887589 3.420911 0.487017
v -37.862289 7.506840 -0.000002
v -89.352333 1.553927 0.487017
v -89.481842 5.633381 -0.000002
v -32.792900 -2.955400 -2.265600
v 41.740303 -1.959200 2.265600
v 41.740303 -1.959200 -2.265600
v -32.792900 -2.955400 2.265600
v -35.379101 -2.955400 2.265600
v -35.379101 -2.955400 -2.265600
v -32.792900 3.610700 -3.566900
v 41.740292 3.610700 -3.566900
v -35.379101 3.610700 -3.566900
v -32.792900 9.180600 -2.265601
v 41.740299 9.180600 -2.265601
v -32.792900 9.180600 2.265599
v 41.740299 9.180600 2.265599
v 41.740292 3.610700 3.566900
v -32.792900 3.610700 3.566900
v -35.379101 3.610700 3.566900
v -35.379101 9.180600 2.265599
v -35.379101 9.180600 -2.265601
v -35.188805 3.601425 0.000002
v -35.188805 3.601424 12.755841
v -35.185207 -3.155941 11.046927
v -35.182571 -8.102668 6.377988
v -35.181606 -9.913305 0.000005
v -35.182571 -8.102669 -6.377979
v -35.185207 -3.155940 -11.046922
v -35.188805 3.601426 -12.755838
v -35.192410 10.357912 -11.045486
v -35.195042 15.304801 -6.377594
v -35.196003 17.116154 -0.000002
v -35.195042 15.304854 6.377494
v -35.192410 10.357903 11.045476
v -37.100929 15.306468 6.377856
v -37.098293 10.359740 11.046925
v -37.094696 3.602374 12.755841
v -37.094696 3.602375 0.000002
v -37.088459 -8.101007 -6.377591
v -37.091091 -3.154112 -11.045488
v -37.094696 3.602376 -12.755838
v -37.098293 10.359741 -11.046924
v -37.100929 15.306468 -6.377985
v -37.091091 -3.154102 11.045476
v -37.101894 17.117105 -0.000002
v -37.088459 -8.100992 6.377594
v -37.087498 -9.912356 0.000005
v -34.015800 -2.157500 -1.099300
v -42.484100 -2.225600 1.099300
v -34.015800 -2.157500 1.099300
v -42.484100 -2.225600 -1.099300
v -34.015800 3.610700 -1.295900
v -42.484100 3.542600 -1.295900
v -34.015800 8.765900 -0.723001
v -34.015800 8.765900 0.722999
v -42.484100 8.697800 -0.723001
v -42.484100 8.697800 0.722999
v -34.015800 3.610700 1.295900
v -42.484100 3.542600 1.295900
vn 0.0007 -0.0181 -0.9998
vn -0.0002 0.0274 -0.9996
vn -0.0024 0.0263 -0.9997
vn -0.0014 0.0742 -0.9972
vn 0.0362 -0.9993 -0.0000
vn 0.0007 -0.0181 0.9998
vn -0.0011 0.0274 0.9996
vn -0.0027 0.0739 0.9973
vn -0.0007 0.0266 0.9996
vn -0.0043 0.1184 0.9930
vn -0.0027 0.0731 0.9973
vn -0.0043 0.1184 -0.9930
vn -0.0033 0.0731 -0.9973
vn 0.0067 -1.0000 -0.0000
vn 0.0134 -0.9999 -0.0000
vn 0.0013 -0.1944 -0.9809
vn 0.0004 -0.0187 -0.9998
vn 0.0013 -0.2110 -0.9775
vn -0.0000 -1.0000 -0.0000
vn -0.0000 -0.1944 -0.9809
vn -0.0000 -0.0000 -1.0000
vn -0.0000 0.2275 -0.9738
vn -0.0000 0.0886 -0.9961
vn -0.0000 1.0000 -0.0000
vn 1.0000 -0.0000 -0.0000
vn -0.0000 0.0776 0.9970
vn -0.0000 0.2275 0.9738
vn 0.0004 0.0114 0.9999
vn 0.0013 -0.2110 0.9775
vn 0.0013 -0.1944 0.9809
vn -0.0000 -0.0549 0.9985
vn -0.0000 -0.1944 0.9809
vn 1.0000 0.0005 -0.0000
vn 0.0011 0.5439 0.8392
vn 0.0011 0.4163 0.9092
vn -0.0000 0.0638 0.9980
vn 0.0008 0.9026 0.4304
vn 0.0009 0.7985 0.6020
vn -0.0000 -0.0638 0.9980
vn -1.0000 -0.0005 -0.0000
vn -0.0006 -0.9925 0.1224
vn -0.0006 -0.9925 -0.1223
vn -0.0008 -0.9027 -0.4302
vn -0.0008 -0.9026 0.4304
vn -0.0010 -0.7984 -0.6022
vn -0.0010 -0.7985 0.6020
vn -0.0011 -0.5439 0.8392
vn 0.0006 0.9925 -0.1223
vn 0.0006 0.9925 0.1224
vn 0.0008 0.9027 -0.4302
vn -0.0011 -0.4163 0.9092
vn 0.0010 0.7984 -0.6022
vn 0.0011 0.5440 -0.8391
vn 0.0011 0.4159 -0.9094
vn -0.0000 0.0641 -0.9979
vn -0.0011 -0.4159 -0.9094
vn -0.0000 -0.0641 -0.9979
vn -0.0011 -0.5440 -0.8391
vn 0.0080 -1.0000 -0.0000
vn -0.0003 0.0141 -0.9999
vn 0.0003 -0.0341 -0.9994
vn -0.0003 0.0624 -0.9981
vn -0.0009 0.1105 -0.9939
vn -0.0080 1.0000 -0.0000
vn -1.0000 -0.0000 -0.0000
vn -0.0003 0.0141 0.9999
vn -0.0003 0.0624 0.9981
vn -0.0009 0.1105 0.9939
vn 0.0003 -0.0341 0.9994
vt 0.014576 0.988281
vt 0.013148 0.892507
vt 0.488281 0.953516
vt 0.488281 0.857616
vt 0.488281 0.761719
vt 0.011719 0.796734
vt 0.023508 0.535156
vt 0.363281 0.521689
vt 0.023508 0.446391
vt 0.011719 0.535156
vt 0.363281 0.446391
vt 0.363281 0.371094
vt 0.011719 0.446391
vt 0.023508 0.371094
vt 0.011719 0.371094
vt 0.544922 0.375318
vt 0.500000 0.363281
vt 0.500000 0.453125
vt 0.455078 0.375318
vt 0.422193 0.408203
vt 0.410156 0.453125
vt 0.422193 0.498047
vt 0.455078 0.530932
vt 0.500000 0.542969
vt 0.544922 0.530932
vt 0.577807 0.498047
vt 0.589844 0.453125
vt 0.577807 0.408204
vt 0.628906 0.542969
vt 0.629632 0.363281
vt 0.691131 0.363281
vt 0.690405 0.542969
vt 0.746094 0.363281
vt 0.745368 0.542969
s 1
f 87/46/107 85/47/108 84/48/107
f 85/47/109 86/49/110 84/48/107
f 87/46/111 84/48/111 88/48/111
f 89/46/111 87/46/111 88/48/111
f 89/46/112 88/48/112 90/49/113
f 92/47/114 90/49/115 91/50/116
f 92/47/114 89/46/112 90/49/115
f 93/51/116 92/47/117 91/50/116
f 93/51/118 91/50/118 86/49/119
f 85/47/109 93/51/118 86/49/110
f 97/52/120 94/52/120 95/53/121
f 94/52/120 96/53/121 95/53/121
f 94/52/122 100/54/123 96/53/124
f 94/52/120 97/52/120 98/55/125
f 99/55/125 94/52/120 98/55/125
f 100/54/123 94/52/122 99/55/126
f 101/56/127 100/54/123 104/57/128
f 100/54/123 101/56/127 96/53/124
f 102/58/129 100/54/123 99/55/126
f 103/59/128 100/54/123 102/58/129
f 100/54/123 103/59/128 104/57/128
f 103/59/130 105/59/130 104/57/130
f 105/59/130 106/57/130 104/57/130
f 101/56/131 104/57/131 106/57/131
f 107/56/132 106/57/133 105/59/133
f 107/56/131 101/56/131 106/57/131
f 96/53/131 101/56/131 107/56/131
f 108/54/134 107/56/132 105/59/133
f 95/53/135 107/56/132 108/54/134
f 95/53/131 96/53/131 107/56/131
f 97/52/136 108/54/134 109/58/137
f 97/52/136 95/53/135 108/54/134
f 108/54/134 105/59/133 110/60/133
f 109/58/137 108/54/134 110/60/133
f 110/60/130 105/59/130 111/60/130
f 105/59/130 103/59/130 111/60/130
f 111/60/128 103/59/128 102/58/129
f 98/55/138 97/52/136 109/58/137
f 124/61/139 113/62/139 112/63/139
f 113/62/139 114/64/139 112/63/139
f 114/64/139 115/65/139 112/63/139
f 115/65/139 116/66/139 112/63/139
f 116/66/139 117/67/139 112/63/139
f 117/67/139 118/68/139 112/63/139
f 118/68/139 119/69/139 112/63/139
f 119/69/139 120/70/139 112/63/139
f 120/70/139 121/71/139 112/63/139
f 121/71/139 122/72/139 112/63/139
f 122/72/139 123/73/139 112/63/139
f 123/73/139 124/61/139 112/63/139
f 124/61/140 126/61/141 113/62/142
f 123/73/143 125/73/144 124/61/140
f 125/73/144 126/61/141 124/61/140
f 126/61/141 127/62/145 113/62/142
f 127/62/146 126/61/146 128/63/146
f 126/61/146 125/73/146 128/63/146
f 130/68/146 129/67/146 128/63/146
f 129/67/146 137/66/146 128/63/146
f 131/69/146 130/68/146 128/63/146
f 132/70/146 131/69/146 128/63/146
f 133/71/146 132/70/146 128/63/146
f 134/64/146 127/62/146 128/63/146
f 135/72/146 133/71/146 128/63/146
f 136/65/146 134/64/146 128/63/146
f 125/73/146 135/72/146 128/63/146
f 137/66/146 136/65/146 128/63/146
f 116/66/147 137/66/148 117/67/149
f 136/65/150 137/66/148 116/66/147
f 137/66/148 129/67/151 117/67/149
f 115/65/152 136/65/150 116/66/147
f 134/64/153 136/65/150 115/65/152
f 122/72/154 135/72/155 123/73/143
f 133/71/156 135/72/155 122/72/154
f 135/72/155 125/73/144 123/73/143
f 114/64/157 134/64/153 115/65/152
f 127/62/145 134/64/153 114/64/157
f 121/71/158 133/71/156 122/72/154
f 132/70/159 133/71/156 121/71/158
f 120/70/160 132/70/159 121/71/158
f 131/69/161 132/70/159 120/70/160
f 130/68/162 131/69/161 119/69/163
f 119/69/163 131/69/161 120/70/160
f 129/67/151 130/68/162 118/68/164
f 118/68/164 130/68/162 119/69/163
f 117/67/149 129/67/151 118/68/164
f 113/62/142 127/62/145 114/64/157
f 141/74/165 138/75/165 139/74/165
f 138/75/165 140/75/165 139/74/165
f 142/76/166 138/75/167 141/74/167
f 143/77/168 142/76/166 141/74/167
f 144/78/169 142/76/166 143/77/168
f 145/78/170 144/78/170 146/79/170
f 146/79/169 144/78/169 143/77/168
f 147/79/170 145/78/170 146/79/170
f 147/79/171 146/79/171 143/77/171
f 149/77/172 148/76/173 147/79/174
f 148/76/173 145/78/174 147/79/174
f 149/77/171 147/79/171 141/74/171
f 141/74/171 147/79/171 143/77/171
f 140/75/175 148/76/173 149/77/172
f 139/74/175 140/75/175 149/77/172
f 139/74/171 149/77/171 141/74/171
o blade_fragment
v -215.931625 -18.138594 -0.413057
v -220.128448 -18.948765 0.000001
v -215.931625 -18.138594 0.413059
v -218.531265 -14.225461 0.000001
v -213.331390 -13.179222 -0.487017
v -173.375443 -9.771342 -0.413057
v -173.876419 -5.723707 -0.487018
v -173.375443 -9.771342 0.413059
v -133.460663 -0.235305 -0.487018
v -133.088303 -4.300475 -0.413058
v -133.088303 -4.300475 0.413058
v -89.969734 3.062763 -0.487018
v -89.735718 -1.012943 -0.413058
v -89.735718 -1.012943 0.413058
v -89.969734 3.062763 0.487018
v -133.460663 -0.235304 0.487018
v -173.876419 -5.723707 0.487018
v -133.833130 3.829953 -0.000000
v -174.377502 -1.675813 0.000000
v -213.331390 -13.179222 0.487019
v -215.141571 -9.628261 0.000001
v -90.203819 7.138384 -0.000001
vn -0.0662 0.0175 -0.9977
vn -0.1047 0.0354 -0.9939
vn -0.1051 0.0524 -0.9931
vn 0.1913 -0.9815 -0.0000
vn 0.1895 -0.9819 -0.0000
vn 0.1720 -0.9851 -0.0000
vn -0.0438 0.0542 -0.9976
vn 0.0029 -0.0179 -0.9998
vn -0.0097 0.0635 -0.9979
vn -0.0047 0.0503 -0.9987
vn 0.1557 -0.9878 -0.0000
vn 0.1133 -0.9936 -0.0000
vn 0.0019 -0.0180 -0.9998
vn -0.0015 0.0266 -0.9996
vn 0.0969 -0.9953 -0.0000
vn 0.0756 -0.9971 -0.0000
vn 0.0014 -0.0181 -0.9998
vn -0.0059 0.0720 0.9974
vn -0.0058 0.0504 0.9987
vn 0.0014 -0.0181 0.9998
vn 0.0019 -0.0180 0.9998
vn -0.0195 0.1188 0.9927
vn -0.0061 0.0364 0.9993
vn -0.0115 0.1179 0.9930
vn -0.0204 0.1193 -0.9926
vn -0.0631 0.1040 -0.9926
vn -0.0631 0.1040 0.9926
vn -0.0438 0.0543 0.9976
vn -0.0133 0.1177 -0.9930
vn -0.1052 0.0524 0.9931
vn -0.0662 0.0175 0.9977
vn 0.0029 -0.0179 0.9998
vn -0.0090 0.1181 -0.9930
vn -0.0090 0.1181 0.9930
vn -0.1047 0.0354 0.9939
vt 0.027074 0.981216
vt 0.011719 0.988281
vt 0.017874 0.951195
vt 0.182787 0.908389
vt 0.036902 0.942111
vt 0.181247 0.876944
vt 0.328954 0.826930
vt 0.330024 0.858536
vt 0.487716 0.793430
vt 0.488281 0.825142
vt 0.179706 0.845496
vt 0.327884 0.795324
vt 0.030555 0.914770
vt 0.487151 0.761719
s 1
f 150/80/176 151/81/177 153/82/178
f 150/80/179 152/80/179 151/81/180
f 152/80/179 150/80/179 155/83/181
f 154/84/182 150/80/176 153/82/178
f 150/80/176 154/84/182 155/83/183
f 154/84/182 156/85/184 155/83/183
f 155/83/183 156/85/184 158/86/185
f 157/83/186 155/83/181 159/87/187
f 157/83/186 152/80/179 155/83/181
f 159/87/188 155/83/183 158/86/185
f 159/87/188 158/86/185 161/88/189
f 160/87/190 159/87/187 162/89/191
f 160/87/190 157/83/186 159/87/187
f 162/89/192 159/87/188 161/88/189
f 163/89/191 160/87/190 162/89/191
f 164/88/193 165/86/194 163/89/195
f 165/86/194 160/87/196 163/89/195
f 168/90/197 166/85/198 165/86/194
f 165/86/194 166/85/198 160/87/196
f 167/91/199 165/86/194 164/88/193
f 167/91/199 168/90/197 165/86/194
f 156/85/184 154/84/182 168/90/200
f 154/84/182 170/92/201 168/90/200
f 170/92/202 169/84/203 168/90/197
f 169/84/203 166/85/198 168/90/197
f 156/85/184 168/90/200 167/91/204
f 169/84/203 170/92/202 153/82/205
f 170/92/201 154/84/182 153/82/178
f 152/80/206 169/84/203 153/82/205
f 166/85/198 169/84/203 157/83/207
f 169/84/203 152/80/206 157/83/207
f 158/86/185 167/91/204 171/93/208
f 158/86/185 156/85/184 167/91/204
f 171/93/209 167/91/199 164/88/193
f 161/88/189 158/86/185 171/93/208
f 166/85/198 157/83/207 160/87/196
f 151/81/210 152/80/206 153/82/205
o sheath
v -35.151520 -4.606251 -3.483364
v -91.580788 -5.117278 3.857580
v -35.151520 -4.606250 3.483364
v -91.580788 -5.117279 -3.857579
v -92.130501 3.663014 -6.465957
v -35.126854 3.711281 -5.343424
v -35.126854 3.711282 5.343423
v -92.130501 3.663015 6.465956
v -35.603607 12.048060 3.483363
v -35.603607 12.048060 -3.483365
v -92.680283 12.443311 3.857579
v -138.827194 8.378007 3.857579
v -92.680283 12.443311 -3.857581
v -138.827194 8.378007 -3.857581
v -181.679291 1.308304 -3.857580
v -180.556610 -7.400518 -6.465956
v -137.981079 -0.376529 -6.465956
v -137.135162 -9.130944 -3.857579
v -179.434082 -16.109221 -3.857579
v -231.328430 -29.209797 -3.735314
v -231.328430 -29.209797 3.735318
v -179.434082 -16.109221 3.857581
v -180.556610 -7.400517 6.465957
v -137.135162 -9.130944 3.857581
v -137.981079 -0.376528 6.465956
v -181.679291 1.308304 3.857580
v -234.213257 -11.648465 -3.735315
v -234.213257 -11.648465 3.735317
v -233.031479 -20.505075 5.729938
v -233.031479 -20.505075 -5.729935
v -35.109623 -4.125423 -2.735048
v -35.499813 10.409506 -2.735049
v -35.109623 -4.125423 2.735048
v -35.499813 10.409506 2.735047
v -35.321560 3.769329 -4.221008
v -35.321560 3.769330 4.221007
v -231.084976 -27.096348 -2.735046
v -233.531799 -12.517608 -2.735047
v -231.084976 -27.096348 2.735050
v -233.531799 -12.517608 2.735049
v -232.308334 -19.806982 -4.221006
v -232.308334 -19.806982 4.221009
v -179.626938 -14.402212 -2.735047
v -181.542542 0.306354 -2.735048
v -179.626938 -14.402212 2.735049
v -181.542542 0.306354 2.735048
v -180.584656 -7.048050 -4.221007
v -180.584656 -7.048049 4.221008
v -137.280426 -7.520053 -2.735048
v -138.733994 7.263463 -2.735049
v -137.280426 -7.520053 2.735049
v -138.733994 7.263463 2.735048
v -138.007156 -0.128353 -4.221008
v -138.007156 -0.128353 4.221008
v -91.670944 -3.613194 -2.735048
v -92.626976 11.213061 -2.735049
v -91.670944 -3.613193 2.735048
v -92.626976 11.213061 2.735047
v -92.148926 3.799933 -4.221008
v -92.148926 3.799933 4.221007
v -231.084976 -27.096348 -2.735046
v -232.308334 -19.806982 -4.221006
v -231.084976 -27.096348 2.735050
v -232.308334 -19.806982 4.221009
v -233.531799 -12.517608 2.735049
v -233.531799 -12.517608 -2.735047
v -79.258751 -2.857776 -3.134204
v -79.258751 -2.857775 3.134320
v -79.678795 5.012836 -5.019436
v -76.933235 4.934509 -5.019436
v -76.590210 -2.933983 -3.134204
v -76.590210 -2.933982 3.134320
v -79.678795 5.012837 5.019435
v -76.933235 4.934510 5.019435
v -77.276276 12.803001 -3.134321
v -77.276276 12.803001 3.134203
v -80.098763 12.883560 3.134203
v -80.098763 12.883560 -3.134321
vn 0.0570 -0.9984 0.0001
vn 0.0091 -1.0000 -0.0000
vn 0.0400 -0.9992 -0.0000
vn 0.9999 0.0119 -0.0000
vn 1.0000 -0.0030 -0.0000
vn 0.0160 -0.2537 -0.9672
vn 0.0169 -0.2838 -0.9587
vn 0.0073 -0.0397 -0.9992
vn 0.0199 -0.0066 -0.9998
vn 0.9991 0.0422 -0.0000
vn 0.0199 -0.0066 0.9998
vn 0.0146 0.2545 0.9670
vn 0.0047 0.0450 0.9990
vn 0.0160 -0.2537 0.9672
vn 0.9984 0.0571 -0.0000
vn 0.0069 1.0000 -0.0000
vn -0.0406 0.9992 -0.0000
vn -0.0086 0.2843 0.9587
vn -0.0332 0.2825 0.9587
vn -0.1171 0.9931 -0.0000
vn -0.1336 0.9910 -0.0000
vn -0.1927 0.9813 -0.0000
vn -0.0092 0.0437 -0.9990
vn -0.0580 0.2796 -0.9584
vn -0.0378 0.2819 -0.9587
vn 0.0020 0.0026 -1.0000
vn -0.0121 0.2841 -0.9587
vn 0.0335 -0.2825 -0.9587
vn 0.0554 -0.2801 -0.9584
vn 0.2448 -0.9696 -0.0000
vn 0.2129 -0.9771 -0.0000
vn 0.0524 -0.2497 -0.9669
vn 0.1949 -0.9808 -0.0000
vn 0.1335 -0.9911 -0.0000
vn -0.0005 -0.0405 0.9992
vn 0.0577 -0.2796 0.9584
vn 0.0381 -0.2819 0.9587
vn 0.0524 -0.2497 0.9669
vn 0.1172 -0.9931 -0.0000
vn -0.0029 0.0020 1.0000
vn 0.0186 -0.2837 0.9587
vn -0.0554 0.2801 0.9584
vn -0.2098 0.9778 -0.0000
vn -0.2395 0.9709 -0.0000
vn -0.0696 0.2465 0.9666
vn -0.9891 -0.1472 -0.0000
vn -0.9912 -0.1323 -0.0000
vn -0.0102 -0.0171 0.9998
vn -0.9842 -0.1771 -0.0000
vn -0.9814 -0.1920 -0.0000
vn -0.0102 -0.0170 -0.9998
vn -0.0696 0.2465 -0.9666
vn 0.0146 0.2545 -0.9670
vn 0.0473 -0.1919 -0.9803
vn -0.0066 0.0535 -0.9985
vn 0.0012 0.0022 -1.0000
vn 0.0381 -0.1933 -0.9804
vn 0.0120 -0.0785 0.9968
vn 0.0473 -0.1919 0.9803
vn 0.0415 -0.1926 0.9804
vn -0.0024 0.0013 1.0000
vn 0.2395 -0.9709 -0.0000
vn 0.2088 -0.9780 -0.0000
vn 0.1915 -0.9815 -0.0000
vn -0.0473 0.1919 -0.9803
vn -0.0408 0.1926 -0.9804
vn -0.2089 0.9779 -0.0000
vn -0.1913 0.9815 -0.0000
vn -0.0473 0.1919 0.9803
vn -0.0374 0.1933 0.9804
vn 0.0015 0.0019 -1.0000
vn 0.0227 -0.1949 -0.9806
vn 0.0259 -0.1946 0.9805
vn -0.0019 0.0014 1.0000
vn 0.1311 -0.9914 -0.0000
vn 0.1148 -0.9934 -0.0000
vn -0.0256 0.1945 -0.9806
vn -0.1312 0.9914 -0.0000
vn -0.1147 0.9934 -0.0000
vn -0.0224 0.1949 0.9806
vn 0.0023 0.0060 -1.0000
vn 0.0059 -0.1921 -0.9814
vn 0.0094 -0.1960 0.9806
vn -0.0023 0.0355 0.9994
vn 0.0484 -0.9988 -0.0000
vn 0.0279 -0.9996 -0.0000
vn -0.0092 0.1960 -0.9806
vn -0.0357 0.9994 -0.0000
vn -0.0072 0.1961 0.9806
vn -0.0007 -0.1911 0.9816
vn 0.0002 0.0102 0.9999
vn -0.0091 -1.0000 -0.0000
vn 0.0016 0.2070 0.9783
vn 0.0141 0.9999 -0.0000
vn 0.0016 0.2070 -0.9783
vn 0.0034 -0.0623 -0.9980
vn -0.0017 -0.1850 -0.9827
vn 0.9996 0.0268 -0.0000
vn -0.9862 -0.1655 -0.0000
vn -0.0285 -0.9996 -0.0000
vn -0.9986 -0.0533 -0.0000
vn -0.0067 -0.2333 -0.9724
vn -0.0040 0.0933 -0.9956
vn 0.0057 -0.0939 -0.9956
vn -0.0057 0.0644 0.9979
vn 0.0045 -0.0651 0.9979
vn -0.0067 -0.2333 0.9724
vn 0.9991 0.0436 -0.0000
vn 0.0067 0.2333 0.9724
vn 0.0285 0.9996 -0.0000
vn 0.0067 0.2333 -0.9724
vt 0.352875 0.633003
vt 0.487720 0.624855
vt 0.488281 0.599537
vt 0.352092 0.606343
vt 0.487645 0.574219
vt 0.351308 0.579684
vt 0.240814 0.597448
vt 0.138009 0.623971
vt 0.140166 0.650346
vt 0.242306 0.623994
vt 0.243799 0.650540
vt 0.142322 0.676721
vt 0.017551 0.722656
vt 0.011719 0.669544
vt 0.014008 0.696362
vt 0.016650 0.722656
vt 0.014184 0.699027
vt 0.139093 0.650501
vt 0.140917 0.674377
vt 0.011719 0.675397
vt 0.137269 0.626624
vt 0.241684 0.622251
vt 0.242951 0.646281
vt 0.240416 0.598221
vt 0.351952 0.603328
vt 0.352622 0.627461
vt 0.351283 0.579196
vt 0.488281 0.621609
vt 0.488281 0.595868
vt 0.488281 0.574219
vt 0.628906 0.511340
vt 0.628906 0.394910
vt 0.687500 0.542969
vt 0.687500 0.363281
vt 0.746094 0.394910
vt 0.746094 0.511340
vt 0.629684 0.397023
vt 0.628906 0.397023
vt 0.628906 0.509225
vt 0.687088 0.542969
vt 0.687889 0.542969
vt 0.629684 0.509225
vt 0.687889 0.363281
vt 0.687088 0.363281
vt 0.745271 0.397025
vt 0.746094 0.509227
vt 0.746094 0.397025
vt 0.745271 0.509227
s 1
f 175/94/211 172/95/212 173/94/213
f 172/95/212 174/95/212 173/94/213
f 178/96/214 174/95/215 172/95/215
f 172/95/216 175/94/217 176/97/218
f 177/96/219 172/95/216 176/97/218
f 177/96/220 178/96/214 172/95/215
f 178/96/221 180/98/222 179/97/223
f 174/95/224 178/96/221 179/97/223
f 180/98/225 178/96/214 177/96/220
f 181/98/225 180/98/225 177/96/220
f 180/98/226 181/98/226 182/99/227
f 180/98/222 182/99/228 179/97/223
f 182/99/228 183/100/229 179/97/223
f 185/100/230 183/100/231 182/99/227
f 181/98/226 184/99/227 182/99/227
f 184/99/227 185/100/230 182/99/227
f 185/100/230 186/101/232 183/100/231
f 187/102/233 186/101/234 185/100/235
f 188/103/236 187/102/233 185/100/235
f 188/103/236 185/100/235 184/99/237
f 176/97/218 188/103/236 184/99/237
f 189/104/238 188/103/236 176/97/218
f 190/105/239 187/102/233 188/103/236
f 189/104/238 190/105/239 188/103/236
f 192/106/240 191/106/240 190/105/241
f 190/105/239 191/106/242 187/102/233
f 193/105/243 192/106/240 190/105/241
f 193/105/243 190/105/241 189/104/244
f 194/102/245 193/105/246 195/104/247
f 192/106/248 193/105/246 194/102/245
f 195/104/249 193/105/243 189/104/244
f 196/103/250 194/102/245 195/104/247
f 195/104/249 189/104/244 175/94/211
f 196/103/250 195/104/247 173/94/251
f 173/94/213 195/104/249 175/94/211
f 183/100/229 196/103/250 179/97/223
f 183/100/229 197/101/252 196/103/250
f 197/101/252 194/102/245 196/103/250
f 179/97/223 196/103/250 173/94/251
f 186/101/232 197/101/253 183/100/231
f 186/101/232 198/107/254 197/101/253
f 198/107/254 199/107/254 197/101/253
f 197/101/252 199/107/255 194/102/245
f 200/108/256 199/107/257 198/107/257
f 199/107/255 200/108/258 194/102/245
f 201/108/259 200/108/256 198/107/257
f 192/106/260 200/108/256 201/108/259
f 200/108/258 192/106/248 194/102/245
f 191/106/260 192/106/260 201/108/259
f 191/106/242 201/108/261 187/102/233
f 201/108/261 198/107/262 187/102/233
f 198/107/262 186/101/234 187/102/233
f 175/94/217 189/104/238 176/97/218
f 184/99/237 181/98/263 176/97/218
f 181/98/263 177/96/219 176/97/218
f 173/94/251 174/95/224 179/97/223
f 208/109/264 212/110/265 218/111/266
f 214/112/267 208/109/264 218/111/266
f 213/110/268 210/109/269 216/112/270
f 219/111/271 213/110/268 216/112/270
f 210/109/272 208/109/272 214/112/273
f 216/112/274 210/109/272 214/112/273
f 212/110/265 209/113/275 215/114/276
f 218/111/266 212/110/265 215/114/276
f 209/113/254 211/113/254 217/114/277
f 215/114/278 209/113/254 217/114/277
f 211/113/279 213/110/268 219/111/271
f 217/114/280 211/113/279 219/111/271
f 214/112/267 218/111/266 224/115/281
f 220/116/282 214/112/267 224/115/281
f 219/111/271 216/112/270 222/116/283
f 225/115/284 219/111/271 222/116/283
f 216/112/274 214/112/273 220/116/285
f 222/116/286 216/112/274 220/116/285
f 218/111/266 215/114/276 221/117/287
f 224/115/281 218/111/266 221/117/287
f 215/114/278 217/114/277 223/117/288
f 221/117/289 215/114/278 223/117/288
f 217/114/280 219/111/271 225/115/284
f 223/117/290 217/114/280 225/115/284
f 220/116/282 224/115/281 230/118/291
f 226/119/292 220/116/282 230/118/291
f 225/115/284 222/116/283 228/119/293
f 231/118/294 225/115/284 228/119/293
f 222/116/286 220/116/285 226/119/295
f 228/119/296 222/116/286 226/119/295
f 224/115/281 221/117/287 227/120/297
f 230/118/291 224/115/281 227/120/297
f 221/117/289 223/117/288 229/120/298
f 227/120/298 221/117/289 229/120/298
f 223/117/290 225/115/284 231/118/294
f 229/120/299 223/117/290 231/118/294
f 204/121/300 207/122/301 231/118/294
f 228/119/293 204/121/300 231/118/294
f 202/121/302 204/121/302 228/119/296
f 226/119/295 202/121/302 228/119/296
f 205/123/303 229/120/299 231/118/294
f 207/122/301 205/123/303 231/118/294
f 203/123/304 227/120/298 229/120/298
f 205/123/304 203/123/304 229/120/298
f 203/123/305 206/122/306 230/118/291
f 227/120/297 203/123/305 230/118/291
f 206/122/306 202/121/307 226/119/292
f 230/118/291 206/122/306 226/119/292
f 205/123/308 207/122/308 206/122/308
f 203/123/308 205/123/308 206/122/308
f 207/122/308 204/121/308 202/121/308
f 206/122/308 207/122/308 202/121/308
f 232/124/309 234/125/309 233/126/309
f 234/125/309 235/127/309 233/126/309
f 235/127/309 236/128/309 237/129/309
f 233/126/309 235/127/309 237/129/309
f 243/130/310 239/131/310 238/132/310
f 239/131/311 240/133/311 238/132/311
f 238/132/312 240/133/313 241/134/314
f 242/135/312 238/132/312 241/134/314
f 242/135/310 243/130/310 238/132/310
f 245/136/315 244/137/316 243/130/317
f 244/137/316 239/131/317 243/130/317
f 242/135/318 241/134/318 243/130/318
f 245/136/318 243/130/318 241/134/318
f 248/138/319 244/137/316 245/136/315
f 246/139/318 245/136/318 241/134/318
f 246/139/318 247/140/318 245/136/318
f 247/140/319 248/138/319 245/136/315
f 249/141/320 248/138/320 247/140/320
f 249/141/311 240/133/311 248/138/311
f 248/138/311 240/133/311 244/137/311
f 240/133/313 249/141/321 246/139/321
f 246/139/320 249/141/320 247/140/320
f 241/134/314 240/133/313 246/139/321
f 240/133/311 239/131/311 244/137/311
o item_blade
v 26.590300 22.520599 11.862098
v 26.590300 22.520599 5.647598
v 33.175800 18.257101 13.730999
v 34.370899 19.927902 13.730998
v 27.751900 24.144600 11.862098
v 27.751900 24.144600 5.647598
v 34.370899 19.927900 3.778699
v 33.175800 18.257099 3.778699
v 39.761299 13.993600 5.647699
v 39.761299 13.993601 11.862199
v 40.990002 15.711200 5.647699
v 40.990002 15.711201 11.862199
v 0.000000 70.710701 -0.000005
v 70.710701 0.000000 0.000000
v 0.000000 55.656200 3.999996
v -55.656101 0.000000 4.000000
v -70.710701 0.000000 0.000000
v 0.000000 -55.656101 4.000004
v 0.000000 -70.710602 0.000005
v 55.656200 0.000000 4.000000
v 0.000000 70.710701 -0.000005
v 0.000000 55.656200 -4.000004
v 70.710701 0.000000 0.000000
v -55.656101 -0.000000 -4.000000
v -70.710701 0.000000 0.000000
v 0.000000 -55.656101 -3.999996
v 0.000000 -70.710602 0.000005
v 55.656200 -0.000000 -4.000000
v 0.000000 70.710701 -0.000005
v 70.710701 0.000000 0.000000
v 0.000000 55.656200 3.999996
v -55.656101 0.000000 4.000000
v -70.710701 0.000000 0.000000
v 0.000000 -55.656101 4.000004
v 0.000000 -70.710602 0.000005
v 55.656200 0.000000 4.000000
v 0.000000 70.710701 -0.000005
v 0.000000 55.656200 -4.000004
v 70.710701 0.000000 0.000000
v -55.656101 -0.000000 -4.000000
v -70.710701 0.000000 0.000000
v 0.000000 -55.656101 -3.999996
v 0.000000 -70.710602 0.000005
v 55.656200 -0.000000 -4.000000
v 0.000000 70.710701 -0.000005
v 70.710701 0.000000 0.000000
v 0.000000 55.656200 3.999996
v -55.656101 0.000000 4.000000
v -70.710701 0.000000 0.000000
v 0.000000 -55.656101 4.000004
v 0.000000 -70.710602 0.000005
v 55.656200 0.000000 4.000000
v 0.000000 70.710701 -0.000005
v 0.000000 55.656200 -4.000004
v 70.710701 0.000000 0.000000
v -55.656101 -0.000000 -4.000000
v -70.710701 0.000000 0.000000
v 0.000000 -55.656101 -3.999996
v 0.000000 -70.710602 0.000005
v 55.656200 -0.000000 -4.000000
v -47.864700 45.118301 12.412096
v -73.866402 80.239502 18.773893
v -73.866402 80.239502 12.412094
v -47.864601 45.118301 18.773895
v -47.002399 43.872002 18.773895
v -47.002300 43.872002 12.412097
v -55.445702 39.872898 10.585097
v -80.297302 75.789894 10.585094
v -54.583401 38.626598 10.585097
v -61.876499 35.423302 12.412097
v -86.728096 71.340302 12.412094
v -61.876499 35.423302 18.773897
v -86.728096 71.340302 18.773893
v -80.297203 75.789894 20.600895
v -55.445702 39.872799 20.600897
v -54.583401 38.626598 20.600897
v -61.014198 34.176998 18.773897
v -61.014198 34.176998 12.412097
v -49.071526 40.953312 15.013097
v -35.827488 12.704675 14.909211
v -53.586674 37.523300 14.909209
v -31.366711 16.208532 15.013099
v -49.071526 40.953312 16.172892
v -31.366711 16.208532 16.172894
v -53.586674 37.523300 16.276781
v -35.827488 12.704675 16.276781
v -58.101730 34.093460 15.592996
v -40.288113 9.200915 15.592998
v -17.450045 -5.695614 14.909212
v -21.852407 -9.258181 15.592999
v -2.012000 -24.389639 15.593000
v 2.327475 -20.779129 14.909214
v -17.450050 -5.695693 16.276783
v -13.047783 -2.133290 16.172895
v 2.327475 -20.779129 16.276785
v 6.666707 -17.168791 16.172897
v 23.971279 -33.759235 16.276785
v 20.627934 -37.592926 15.593001
v 30.374645 -30.898314 16.172897
v 26.894716 -35.417004 15.593001
v 30.374575 -30.898317 15.013102
v 23.971279 -33.759235 14.909215
v 32.695923 -32.264748 15.593001
v 6.666707 -17.168791 15.013101
v -13.047783 -2.133290 15.013100
v -54.550121 38.596401 15.979269
v -47.691227 28.277649 28.908428
v -40.785458 35.024879 27.307016
v -37.567951 42.729218 22.670311
v -38.900909 49.326103 16.240637
v -44.427040 53.048027 9.740952
v -52.665653 52.897697 4.912987
v -61.409191 48.915138 3.050184
v -68.313042 42.167427 4.653041
v -71.531303 34.463902 9.288722
v -70.199417 27.866686 15.717939
v -64.672806 24.145720 22.217075
v -56.434402 24.297087 27.044138
v -64.210846 23.484308 21.444830
v -55.972130 23.634569 26.273039
v -47.228691 27.617044 28.135820
v -54.087673 37.935787 15.206699
v -52.203384 52.235126 4.141809
v -60.946651 48.254528 2.277581
v -67.852417 41.507298 3.878992
v -71.069832 33.803051 8.515711
v -40.324776 34.364769 26.532904
v -69.736885 27.206079 14.945332
v -37.106541 42.068352 21.897276
v -38.438377 48.665497 15.468027
v -43.965145 52.386524 8.968751
v -48.378101 43.891602 14.049597
v -45.475899 39.865200 17.136396
v -48.378201 43.891602 17.136396
v -45.475899 39.865200 14.049597
v -55.037899 39.283600 13.773597
v -52.135700 35.257099 13.773597
v -60.990002 35.165298 14.577897
v -60.990002 35.165298 16.608099
v -58.087700 31.138903 14.577898
v -58.087799 31.138903 16.608099
v -55.037899 39.283501 17.412395
v -52.135700 35.257099 17.412397
v 21.865915 49.608486 10.806143
v 3.566592 10.119441 4.515465
v 21.865915 49.608486 4.515462
v 3.566592 10.119442 10.806146
v 26.622459 44.951797 12.514938
v 26.622459 44.951797 2.806667
v 8.231386 5.266638 2.806670
v 31.379005 40.295227 4.515463
v 31.379005 40.295227 10.806144
v 12.896026 0.413953 4.515466
v -4.773350 -29.669645 4.515469
v 12.896026 0.413954 10.806147
v -4.773350 -29.669645 10.806149
v -23.318443 -55.596806 10.806150
v -27.787844 -50.441540 12.514946
v -9.342708 -24.654516 12.514944
v -32.257008 -45.286663 10.806150
v 8.231386 5.266639 12.514942
v -13.911984 -19.639505 10.806149
v -32.257008 -45.286663 4.515470
v -13.911984 -19.639505 4.515468
v -9.342708 -24.654516 2.806673
v -27.787844 -50.441540 2.806674
v -23.318443 -55.596806 4.515471
v -48.685936 -84.419197 4.515472
v -53.026024 -79.116440 2.806677
v -57.366108 -73.813782 4.515472
v -57.366108 -73.813782 10.806152
v -53.026024 -79.116440 12.514948
v -48.685936 -84.419197 10.806153
v -59.530998 -58.415699 11.466405
v -53.878399 -62.941700 12.939505
v -59.530998 -58.415699 6.043404
v -53.878399 -62.941700 4.570305
v -48.225800 -67.467796 11.466405
v -48.225800 -67.467796 6.043405
vn -0.8134 0.5818 -0.0000
vn -0.5435 -0.8394 -0.0000
vn -0.1887 0.1350 0.9727
vn 0.0644 -0.0461 0.9969
vn -0.0644 0.0461 0.9969
vn 0.0644 -0.0461 -0.9969
vn -0.0644 0.0461 -0.9969
vn -0.1887 0.1350 -0.9727
vn 0.5373 0.8434 -0.0000
vn 0.1887 -0.1350 -0.9727
vn 0.8133 -0.5818 -0.0000
vn 0.1887 -0.1350 0.9727
vn 0.2559 0.0853 0.9629
vn -0.0853 0.2559 0.9629
vn 0.0639 0.1919 0.9793
vn -0.1532 0.0510 0.9869
vn -0.2558 -0.0853 0.9629
vn -0.0639 -0.1919 0.9793
vn 0.0853 -0.2559 0.9629
vn 0.1531 -0.0510 0.9869
vn 0.0639 0.1919 -0.9793
vn -0.1531 0.0510 -0.9869
vn -0.0853 0.2559 -0.9629
vn 0.2559 0.0853 -0.9629
vn -0.2558 -0.0853 -0.9629
vn -0.0639 -0.1919 -0.9793
vn 0.0853 -0.2559 -0.9629
vn 0.1532 -0.0510 -0.9869
vn 0.8131 0.5821 -0.0000
vn 0.8037 0.5950 -0.0000
vn 0.1581 0.1131 -0.9809
vn 0.0149 0.0114 -0.9998
vn 0.1717 0.1226 -0.9775
vn 0.8224 0.5690 -0.0000
vn 0.8223 0.5690 -0.0000
vn 0.1599 0.1106 -0.9809
vn -0.0000 -0.0000 -1.0000
vn -0.1871 -0.1294 -0.9738
vn -0.0729 -0.0504 -0.9961
vn -0.8223 -0.5690 -0.0000
vn -0.5690 0.8223 -0.0000
vn -0.0638 -0.0442 0.9970
vn -0.1871 -0.1294 0.9738
vn -0.0099 -0.0056 0.9999
vn 0.1717 0.1226 0.9775
vn 0.0451 0.0312 0.9985
vn 0.1586 0.1124 0.9809
vn -0.8224 -0.5690 -0.0000
vn 0.1599 0.1106 0.9809
vn 0.0140 0.0119 -0.9998
vn -0.0212 -0.0189 -0.9996
vn 0.0149 0.0107 -0.9998
vn -0.0557 -0.0420 -0.9976
vn 0.7710 0.6368 -0.0000
vn 0.8133 0.5819 -0.0000
vn 0.7630 0.6464 -0.0000
vn 0.7626 0.6468 -0.0000
vn 0.0140 0.0119 0.9998
vn 0.0149 0.0107 0.9998
vn -0.0211 -0.0124 0.9997
vn -0.0566 -0.0482 0.9972
vn -0.0974 -0.0697 0.9928
vn -0.0915 -0.0773 0.9928
vn -0.0912 -0.0776 -0.9928
vn -0.0974 -0.0697 -0.9928
vn -0.0352 -0.0382 -0.9986
vn -0.0786 -0.0936 -0.9925
vn -0.0813 -0.0900 0.9926
vn -0.0386 -0.0556 -0.9977
vn -0.0700 -0.1078 -0.9917
vn -0.0710 -0.1056 0.9919
vn -0.0335 -0.0402 0.9986
vn 0.0122 0.0141 0.9998
vn -0.0211 -0.0330 0.9992
vn 0.0166 -0.1131 0.9935
vn 0.0102 0.0158 0.9998
vn 0.0005 -0.1728 0.9850
vn 0.1031 -0.2236 0.9692
vn 0.0784 -0.1342 0.9879
vn 0.0161 -0.1137 -0.9934
vn 0.0784 -0.1342 -0.9879
vn 0.1031 -0.2236 -0.9692
vn 0.1163 -0.2140 -0.9699
vn 0.0005 -0.1728 -0.9850
vn 0.1163 -0.2140 0.9699
vn 0.5040 0.8637 -0.0000
vn 0.5035 0.8640 -0.0000
vn 0.5073 0.8618 -0.0000
vn 0.0105 0.0156 -0.9998
vn 0.5695 0.8220 -0.0000
vn 0.5401 0.8416 -0.0000
vn 0.6443 0.7648 -0.0000
vn 0.0122 0.0141 -0.9998
vn 0.6724 0.7402 -0.0000
vn -0.4162 0.5901 0.6918
vn -0.5806 -0.7567 0.3006
vn -0.4293 -0.7965 0.4258
vn -0.1283 -0.7890 0.6008
vn 0.0034 -0.7574 0.6530
vn 0.3298 -0.6110 0.7197
vn 0.4347 -0.5391 0.7213
vn 0.4162 -0.5901 -0.6918
vn 0.5810 0.7565 -0.3004
vn 0.4290 0.7965 -0.4261
vn 0.1288 0.7891 -0.6006
vn 0.7728 0.6301 -0.0763
vn -0.0042 0.7571 -0.6532
vn 0.8664 0.4892 0.1002
vn 0.9106 0.2603 0.3211
vn 0.8905 0.1027 0.4433
vn 0.7712 -0.1782 0.6111
vn -0.8664 -0.4893 -0.1001
vn -0.7727 -0.6301 0.0764
vn -0.9106 -0.2606 -0.3209
vn 0.6930 -0.2904 0.6598
vn -0.8904 -0.1024 -0.4436
vn -0.7715 0.1778 -0.6109
vn -0.4353 0.5387 -0.7213
vn -0.6925 0.2910 -0.6601
vn -0.3291 0.6113 -0.7197
vn 0.8112 0.5847 -0.0000
vn -0.0115 -0.0083 -0.9999
vn 0.0276 0.0199 -0.9994
vn -0.0506 -0.0365 -0.9980
vn -0.0896 -0.0646 -0.9939
vn -0.8112 -0.5847 -0.0000
vn 0.5690 -0.8223 -0.0000
vn 0.5690 -0.8223 0.0001
vn -0.0506 -0.0365 0.9981
vn -0.0896 -0.0646 0.9939
vn -0.0115 -0.0083 0.9999
vn 0.0276 0.0199 0.9994
vn -0.8769 0.4807 -0.0000
vn -0.9073 0.4205 -0.0000
vn -0.8945 0.4472 -0.0000
vn 0.6996 0.7146 -0.0000
vn -0.1021 0.0784 0.9917
vn -0.2384 0.1105 0.9648
vn -0.2326 0.1141 0.9659
vn -0.0563 0.0289 -0.9980
vn 0.2384 -0.1105 -0.9648
vn 0.0278 -0.0130 -0.9995
vn -0.2384 0.1105 -0.9648
vn 0.9073 -0.4205 -0.0000
vn 0.8858 -0.4640 -0.0000
vn 0.2272 -0.1221 -0.9662
vn 0.2109 -0.1365 -0.9679
vn 0.8473 -0.5311 -0.0000
vn 0.8298 -0.5581 -0.0000
vn 0.7932 -0.6089 -0.0000
vn 0.0082 0.0052 1.0000
vn 0.1901 -0.1590 0.9688
vn 0.2083 -0.1423 0.9677
vn 0.0040 0.0047 1.0000
vn 0.2256 -0.1257 0.9661
vn -0.2144 0.1321 0.9678
vn -0.1966 0.1482 0.9692
vn 0.0043 0.0056 1.0000
vn -0.7932 0.6089 -0.0000
vn -0.7726 0.6350 -0.0000
vn -0.8298 0.5581 -0.0000
vn -0.8473 0.5311 -0.0000
vn 0.0023 0.0010 -1.0000
vn -0.2117 0.1380 -0.9675
vn -0.2297 0.1209 -0.9657
vn 0.0014 -0.0016 -1.0000
vn -0.1937 0.1542 -0.9689
vn 0.0036 0.0169 -0.9999
vn 0.1931 -0.1528 -0.9692
vn 0.1839 -0.1619 -0.9695
vn -0.1839 0.1619 -0.9695
vn -0.7506 0.6607 -0.0000
vn -0.1839 0.1619 0.9695
vn 0.0626 -0.1116 0.9918
vn 0.1839 -0.1619 0.9695
vn 0.7507 -0.6607 -0.0000
vn 0.7726 -0.6349 -0.0000
vn 0.2384 -0.1105 0.9648
vn -0.6250 -0.7806 -0.0000
vt 0.638360 0.363281
vt 0.628906 0.392028
vt 0.682500 0.467499
vt 0.692226 0.437923
vt 0.736094 0.542969
vt 0.746094 0.512565
vt 0.976562 0.023438
vt 0.095226 0.374655
vt 0.095226 0.374655
vt 0.363281 0.482039
vt 0.055192 0.405964
vt 0.085714 0.371094
vt 0.085714 0.371094
vt 0.329321 0.508598
vt 0.295360 0.535156
vt 0.045679 0.402403
vt 0.021231 0.432522
vt 0.329321 0.508597
vt 0.055191 0.405964
vt 0.011719 0.428961
vt 0.151345 0.832089
vt 0.130777 0.840408
vt 0.053453 0.761719
vt 0.032586 0.769827
vt 0.011719 0.777935
vt 0.110210 0.848726
vt 0.229324 0.893967
vt 0.209069 0.902456
vt 0.333393 0.938984
vt 0.313470 0.947617
vt 0.229324 0.893967
vt 0.249578 0.885478
vt 0.445800 0.978816
vt 0.353316 0.930352
vt 0.430892 0.988281
vt 0.460942 0.983941
vt 0.476237 0.972677
vt 0.476236 0.972677
vt 0.488281 0.976880
vt 0.454238 0.375317
vt 0.498319 0.363281
vt 0.498320 0.453125
vt 0.542401 0.375317
vt 0.574672 0.408202
vt 0.586483 0.453125
vt 0.574672 0.498048
vt 0.542401 0.530933
vt 0.498319 0.542969
vt 0.454238 0.530933
vt 0.421968 0.498048
vt 0.410156 0.453125
vt 0.421968 0.408204
vt 0.425328 0.408204
vt 0.457599 0.375317
vt 0.501680 0.363281
vt 0.501680 0.453125
vt 0.501680 0.542969
vt 0.545762 0.530933
vt 0.578032 0.498048
vt 0.457598 0.530933
vt 0.425328 0.498048
vt 0.545762 0.375317
vt 0.413517 0.453125
vt 0.578032 0.408202
vt 0.589844 0.453125
vt 0.746094 0.420014
vt 0.724172 0.363281
vt 0.724171 0.363281
vt 0.673866 0.428209
vt 0.695788 0.484943
vt 0.628906 0.486236
vt 0.650829 0.542969
vt 0.650828 0.542969
vt 0.673866 0.428210
vt 0.339170 0.617919
vt 0.438130 0.574219
vt 0.463206 0.579277
vt 0.488281 0.584336
vt 0.363750 0.623195
vt 0.388328 0.628470
vt 0.293124 0.661814
vt 0.193447 0.690595
vt 0.169919 0.684984
vt 0.269059 0.656358
vt 0.244994 0.650903
vt 0.146392 0.679374
vt 0.034553 0.716881
vt 0.057387 0.722656
vt 0.011719 0.711106
vt 0.628906 0.363281
vt 0.687500 0.453124
vt 0.746094 0.542969
s 1
f 255/142/322 251/143/322 250/143/322
f 251/143/323 252/144/323 250/143/323
f 250/143/324 252/144/325 253/145/326
f 254/142/324 250/143/324 253/145/326
f 254/142/322 255/142/322 250/143/322
f 256/145/327 257/144/328 255/142/329
f 256/145/330 255/142/330 253/145/330
f 254/142/330 253/145/330 255/142/330
f 257/144/328 251/143/329 255/142/329
f 252/144/323 251/143/323 257/144/323
f 258/146/331 257/144/328 256/145/327
f 258/146/323 252/144/323 257/144/323
f 259/146/332 258/146/332 260/147/332
f 259/146/323 252/144/323 258/146/323
f 260/147/331 258/146/331 256/145/327
f 261/147/330 260/147/330 256/145/330
f 261/147/332 259/146/332 260/147/332
f 252/144/325 259/146/333 261/147/333
f 253/145/326 252/144/325 261/147/333
f 261/147/330 256/145/330 253/145/330
f 263/148/334 262/148/335 264/148/336
f 264/148/336 262/148/335 265/148/337
f 262/148/335 266/148/338 265/148/337
f 265/148/337 266/148/338 267/148/339
f 266/148/338 268/148/340 267/148/339
f 268/148/340 263/148/334 269/148/341
f 267/148/339 268/148/340 269/148/341
f 269/148/341 263/148/334 264/148/336
f 264/148/336 265/148/337 269/148/341
f 265/148/337 267/148/339 269/148/341
f 271/148/342 273/148/343 270/148/344
f 271/148/342 270/148/344 272/148/345
f 273/148/343 274/148/346 270/148/344
f 273/148/343 275/148/347 274/148/346
f 275/148/347 276/148/348 274/148/346
f 277/148/349 272/148/345 276/148/348
f 275/148/347 277/148/349 276/148/348
f 271/148/342 277/148/349 273/148/343
f 277/148/349 271/148/342 272/148/345
f 277/148/349 275/148/347 273/148/343
f 279/148/334 278/148/335 280/148/336
f 280/148/336 278/148/335 281/148/337
f 278/148/335 282/148/338 281/148/337
f 281/148/337 282/148/338 283/148/339
f 282/148/338 284/148/340 283/148/339
f 284/148/340 279/148/334 285/148/341
f 283/148/339 284/148/340 285/148/341
f 280/148/336 281/148/337 285/148/341
f 285/148/341 279/148/334 280/148/336
f 281/148/337 283/148/339 285/148/341
f 287/148/342 289/148/343 286/148/344
f 287/148/342 286/148/344 288/148/345
f 289/148/343 290/148/346 286/148/344
f 289/148/343 291/148/347 290/148/346
f 291/148/347 292/148/348 290/148/346
f 293/148/349 288/148/345 292/148/348
f 291/148/347 293/148/349 292/148/348
f 293/148/349 287/148/342 288/148/345
f 287/148/342 293/148/349 289/148/343
f 293/148/349 291/148/347 289/148/343
f 295/148/334 294/148/335 296/148/336
f 296/148/336 294/148/335 297/148/337
f 294/148/335 298/148/338 297/148/337
f 297/148/337 298/148/338 299/148/339
f 298/148/338 300/148/340 299/148/339
f 300/148/340 295/148/334 301/148/341
f 299/148/339 300/148/340 301/148/341
f 301/148/341 295/148/334 296/148/336
f 296/148/336 297/148/337 301/148/341
f 297/148/337 299/148/339 301/148/341
f 303/148/342 305/148/343 302/148/344
f 303/148/342 302/148/344 304/148/345
f 305/148/343 306/148/346 302/148/344
f 305/148/343 307/148/347 306/148/346
f 307/148/347 308/148/348 306/148/346
f 309/148/349 304/148/345 308/148/348
f 307/148/347 309/148/349 308/148/348
f 303/148/342 309/148/349 305/148/343
f 309/148/349 303/148/342 304/148/345
f 309/148/349 307/148/347 305/148/343
f 313/149/350 310/150/350 311/151/351
f 310/150/350 312/151/351 311/151/351
f 310/150/352 316/152/353 312/151/354
f 310/150/350 313/149/350 314/153/355
f 315/154/356 310/150/350 314/153/355
f 316/152/353 310/150/352 315/154/357
f 317/155/358 316/152/353 320/156/359
f 316/152/353 317/155/358 312/151/354
f 318/157/360 316/152/353 315/154/357
f 319/158/359 316/152/353 318/157/360
f 316/152/353 319/158/359 320/156/359
f 319/158/361 321/158/361 320/156/361
f 321/158/361 322/156/361 320/156/361
f 317/155/362 320/156/362 322/156/362
f 323/159/363 322/156/364 321/158/364
f 323/159/362 317/155/362 322/156/362
f 312/151/362 317/155/362 323/159/362
f 324/160/365 323/159/363 321/158/364
f 311/151/366 323/159/363 324/160/365
f 311/151/362 312/151/362 323/159/362
f 324/160/365 321/158/364 326/161/364
f 325/157/367 324/160/365 326/161/364
f 313/149/368 324/160/365 325/157/367
f 313/149/368 311/151/366 324/160/365
f 326/161/369 321/158/361 327/161/369
f 321/158/361 319/158/361 327/161/369
f 327/161/359 319/158/359 318/157/360
f 314/153/370 313/149/368 325/157/367
f 331/162/371 329/163/372 328/164/373
f 329/163/372 330/165/374 328/164/373
f 331/162/375 328/164/376 332/164/376
f 333/162/377 331/162/378 332/164/376
f 333/162/379 332/164/380 334/165/381
f 335/163/382 333/162/379 334/165/381
f 335/163/382 334/165/381 336/166/383
f 337/167/384 335/163/382 336/166/383
f 337/167/385 336/166/386 330/165/374
f 329/163/372 337/167/385 330/165/374
f 329/163/372 338/168/387 337/167/385
f 338/168/387 339/169/388 337/167/385
f 337/167/384 339/169/389 335/163/382
f 341/170/390 340/171/391 339/169/388
f 339/169/389 340/171/392 342/172/393
f 338/168/387 341/170/390 339/169/388
f 339/169/389 342/172/393 335/163/382
f 342/172/393 343/173/394 333/162/379
f 342/172/393 344/170/395 343/173/394
f 340/171/392 344/170/395 342/172/393
f 335/163/382 342/172/393 333/162/379
f 346/174/396 344/170/395 340/171/392
f 344/170/395 345/175/397 343/173/394
f 344/170/395 346/174/396 345/175/397
f 347/176/398 346/174/396 340/171/392
f 346/174/396 347/176/398 349/177/399
f 346/174/396 348/178/400 345/175/397
f 348/178/400 346/174/396 349/177/399
f 351/174/401 350/179/402 349/177/403
f 350/179/402 352/180/404 349/177/403
f 347/176/405 351/174/401 349/177/403
f 352/180/406 348/178/400 349/177/399
f 350/179/407 348/178/408 352/180/409
f 350/179/402 351/174/401 353/175/410
f 351/174/401 347/176/405 340/171/391
f 351/174/401 341/170/390 353/175/410
f 341/170/390 351/174/401 340/171/391
f 353/175/410 341/170/390 338/168/387
f 345/175/411 353/175/412 354/173/413
f 345/175/411 348/178/408 353/175/412
f 354/173/414 353/175/410 338/168/387
f 348/178/408 350/179/407 353/175/412
f 343/173/415 345/175/411 354/173/413
f 354/173/414 338/168/387 329/163/372
f 343/173/415 354/173/413 331/162/378
f 331/162/371 354/173/414 329/163/372
f 333/162/377 343/173/415 331/162/378
f 367/181/416 356/182/416 355/183/416
f 356/182/416 357/184/416 355/183/416
f 357/184/416 358/185/416 355/183/416
f 358/185/416 359/186/416 355/183/416
f 359/186/416 360/187/416 355/183/416
f 360/187/416 361/188/416 355/183/416
f 361/188/416 362/189/416 355/183/416
f 362/189/416 363/190/416 355/183/416
f 363/190/416 364/191/416 355/183/416
f 364/191/416 365/192/416 355/183/416
f 365/192/416 366/193/416 355/183/416
f 366/193/416 367/181/416 355/183/416
f 366/193/417 368/194/418 367/181/419
f 368/194/418 369/195/420 367/181/419
f 367/181/419 369/195/420 356/182/421
f 369/195/420 370/196/422 356/182/421
f 370/196/423 369/195/423 371/197/423
f 369/195/423 368/194/423 371/197/423
f 373/198/423 372/199/423 371/197/423
f 372/199/423 380/200/423 371/197/423
f 374/201/423 373/198/423 371/197/423
f 375/202/423 374/201/423 371/197/423
f 376/203/423 370/196/423 371/197/423
f 377/204/423 375/202/423 371/197/423
f 378/205/423 376/203/423 371/197/423
f 368/194/423 377/204/423 371/197/423
f 379/206/423 378/205/423 371/197/423
f 380/200/423 379/206/423 371/197/423
f 360/187/424 380/200/425 361/188/426
f 379/206/427 380/200/425 360/187/424
f 380/200/425 372/199/428 361/188/426
f 359/186/429 379/206/427 360/187/424
f 378/205/430 379/206/427 359/186/429
f 358/185/431 378/205/430 359/186/429
f 376/203/432 378/205/430 358/185/431
f 365/192/433 377/204/434 366/193/417
f 375/202/435 377/204/434 365/192/433
f 377/204/434 368/194/418 366/193/417
f 357/184/436 376/203/432 358/185/431
f 370/196/422 376/203/432 357/184/436
f 364/191/437 375/202/435 365/192/433
f 374/201/438 375/202/435 364/191/437
f 373/198/439 374/201/438 363/190/440
f 363/190/440 374/201/438 364/191/437
f 372/199/428 373/198/439 362/189/441
f 362/189/441 373/198/439 363/190/440
f 361/188/426 372/199/428 362/189/441
f 356/182/421 370/196/422 357/184/436
f 384/207/442 381/208/442 382/207/442
f 381/208/442 383/209/442 382/207/442
f 385/210/443 381/208/444 384/207/444
f 386/211/445 385/210/443 384/207/444
f 387/212/446 385/210/443 386/211/445
f 388/212/447 387/212/447 389/213/447
f 389/213/446 387/212/446 386/211/445
f 390/214/447 388/212/447 389/213/447
f 390/214/448 389/213/448 386/211/449
f 391/215/450 388/212/451 390/214/451
f 392/211/448 390/214/448 384/207/448
f 384/207/448 390/214/448 386/211/449
f 392/211/452 391/215/450 390/214/451
f 383/209/453 391/215/450 392/211/452
f 382/207/453 383/209/453 392/211/452
f 382/207/448 392/211/448 384/207/448
f 396/216/454 393/217/455 394/216/456
f 393/217/455 395/217/455 394/216/456
f 398/218/457 395/217/457 393/217/457
f 397/218/458 393/217/459 396/216/460
f 397/218/457 398/218/457 393/217/457
f 400/219/457 398/218/457 397/218/457
f 398/218/461 400/219/462 399/220/463
f 395/217/464 398/218/461 399/220/463
f 401/219/457 400/219/457 397/218/457
f 400/219/465 401/219/465 402/221/466
f 400/219/462 402/221/467 399/220/463
f 402/221/467 403/222/468 399/220/463
f 405/222/469 403/222/470 402/221/466
f 401/219/465 404/221/466 402/221/466
f 404/221/466 405/222/469 402/221/466
f 405/222/469 406/223/471 403/222/470
f 407/224/472 406/223/473 405/222/474
f 408/225/475 407/224/472 405/222/474
f 408/225/475 405/222/474 404/221/476
f 411/226/477 409/227/478 408/225/475
f 409/227/478 407/224/472 408/225/475
f 410/220/479 408/225/475 404/221/476
f 411/226/477 408/225/475 410/220/479
f 412/227/480 409/227/481 411/226/482
f 413/226/483 412/227/480 411/226/482
f 413/226/483 411/226/482 396/216/454
f 396/216/460 411/226/477 410/220/479
f 414/225/484 413/226/485 394/216/486
f 414/225/484 415/224/487 413/226/485
f 394/216/456 413/226/483 396/216/454
f 415/224/487 412/227/488 413/226/485
f 415/224/487 418/228/489 412/227/488
f 416/223/490 415/224/487 414/225/484
f 416/223/490 417/229/491 415/224/487
f 417/229/491 418/228/489 415/224/487
f 418/228/489 419/230/492 412/227/488
f 419/230/493 420/230/493 409/227/481
f 412/227/480 419/230/493 409/227/481
f 409/227/478 420/230/494 407/224/472
f 420/230/494 421/228/495 407/224/472
f 421/228/495 422/229/496 406/223/473
f 407/224/472 421/228/495 406/223/473
f 406/223/471 422/229/497 416/223/498
f 422/229/497 417/229/497 416/223/498
f 406/223/471 416/223/498 403/222/470
f 403/222/468 416/223/490 414/225/484
f 403/222/468 414/225/484 399/220/463
f 399/220/463 414/225/484 394/216/486
f 410/220/479 397/218/458 396/216/460
f 401/219/499 397/218/458 410/220/479
f 404/221/476 401/219/499 410/220/479
f 394/216/486 395/217/464 399/220/463
f 423/231/500 425/231/500 424/232/500
f 425/231/500 426/232/500 424/232/500
f 424/232/500 426/232/500 427/233/500
f 426/232/500 428/233/500 427/233/500
o item_damaged
v -29.153999 3.117801 15.308600
v -24.850100 -8.020700 15.206201
v -22.281900 0.038201 15.206200
v -32.607300 -7.718799 15.308601
v -29.153999 3.117701 16.452700
v -22.282000 0.038101 16.555099
v -32.607300 -7.718799 16.452700
v -24.850201 -8.020799 16.555099
v -17.092899 -8.322799 15.880601
v -15.409900 -3.041299 15.880600
v -11.276399 -28.765299 13.182502
v -57.942894 -69.502899 18.578806
v -57.942894 -69.502899 13.182506
v -11.276399 -28.765299 18.578802
v -9.622099 -27.394100 18.578802
v -9.622099 -27.394100 13.182502
v -4.612299 -36.805599 11.632703
v -52.289795 -76.323296 11.632706
v -2.957900 -35.434299 11.632703
v 1.040800 -43.625900 13.182503
v -46.636696 -83.143593 13.182507
v 1.040900 -43.625900 18.578804
v -46.636696 -83.143593 18.578806
v -52.289795 -76.323189 20.128605
v -4.612199 -36.805599 20.128601
v -2.957900 -35.434399 20.128601
v 2.695199 -42.254700 18.578804
v 2.695199 -42.254700 13.182503
v -5.951000 -27.676098 15.308602
v 42.820202 6.502701 15.206199
v -1.127600 -33.495300 15.206203
v 37.865799 12.200401 15.308599
v -5.950900 -27.676098 16.452702
v 37.865799 12.200401 16.452700
v -1.127700 -33.495300 16.555101
v 3.695500 -39.314400 15.880603
v 42.820202 6.502602 16.555099
v 47.774502 0.805101 15.880600
v -2.918277 -35.385124 16.428396
v 6.891103 -27.497980 29.562595
v -0.557678 -21.121767 27.921247
v -8.638982 -18.567478 23.200388
v -15.187535 -20.519522 16.664885
v -18.448439 -26.454689 10.066080
v -17.548061 -34.782730 5.172097
v -12.727499 -43.272205 3.294255
v -5.278484 -49.646469 4.937085
v 2.802233 -52.201576 9.656823
v 9.351036 -50.250629 16.191813
v 12.611023 -44.314930 22.790215
v 11.709635 -35.987270 27.683237
v 13.490475 -43.583759 21.695087
v 12.590099 -35.255642 26.589231
v -2.039765 -34.653320 15.332825
v 7.769621 -26.766256 28.467066
v 0.320515 -20.391951 26.824209
v -7.760180 -17.836845 22.104486
v -14.309017 -19.787798 15.569355
v -17.568962 -25.723532 8.970960
v -16.667624 -34.051098 4.078072
v -11.849062 -42.540398 2.198739
v -4.400284 -48.916607 3.840083
v 3.681097 -51.470901 8.560888
v 10.229569 -49.518925 15.096283
v -9.684300 -29.093998 14.571502
v -4.336400 -24.520699 17.189802
v -9.684300 -29.093998 17.189802
v -4.336400 -24.520597 14.571502
v -3.830000 -36.157200 14.337303
v 1.518000 -31.583899 14.337303
v 1.402200 -42.469700 15.019603
v 1.402200 -42.469700 16.741703
v 6.750000 -37.896400 15.019603
v 6.750100 -37.896400 16.741703
v -3.830000 -36.157200 17.424002
v 1.518000 -31.583899 17.424002
v -47.485100 74.001503 15.308595
v -51.311600 77.422798 15.880594
v -47.485100 74.001404 16.452694
v -42.651699 80.013397 15.880594
v -37.841202 75.811600 15.206194
v -8.435800 39.442101 15.308598
v -2.130400 43.504501 15.206197
v -8.435800 39.442101 16.452696
v 20.230400 19.849901 15.206198
v 12.789900 16.988201 15.308599
v 12.789900 16.988201 16.452698
v -2.130500 43.504601 16.555096
v 20.230400 19.849901 16.555098
v 27.671101 22.711702 15.880598
v 4.175200 47.567299 15.880596
v -37.841202 75.811600 16.555094
v -33.127602 80.726303 15.880594
v -55.002800 -4.131499 15.308600
v -48.492500 -0.307299 15.206200
v -62.818199 5.832301 15.308600
v -62.818199 5.832302 16.452700
v -55.002899 -4.131399 16.452700
v -56.299702 9.645901 16.555099
v -48.492401 -0.307499 16.555099
v -41.982101 3.516601 15.880600
v -49.781101 13.459501 15.880599
v -56.299599 9.645901 15.206199
v 19.032801 52.480801 15.308597
v 25.285299 48.283699 15.206196
v 25.472500 68.316498 15.308596
v 25.472401 68.316498 16.452694
v 19.032801 52.480801 16.452696
v 31.160200 62.730900 16.555096
v 25.285299 48.283699 16.555096
v 31.537800 44.086800 15.880597
v 36.848099 57.145100 15.880595
v 31.160200 62.730900 15.206195
v -39.834801 34.469398 15.308598
v -30.776600 22.921202 15.308599
v -32.939098 37.802299 15.206197
v -30.776600 22.921103 16.452698
v -39.834801 34.469398 16.452698
v -24.258101 26.734701 16.555098
v -32.939201 37.802299 16.555098
v -26.043501 41.135201 15.880597
v -17.739500 30.548302 15.880598
v -24.257999 26.734802 15.206198
v 65.920898 20.866402 16.452698
v 53.761101 30.418102 16.555098
v 61.289398 31.826202 16.452698
v 59.833099 16.049501 16.555098
v 65.920799 20.866402 15.308599
v 59.833000 16.049501 15.206199
v 61.289299 31.826302 15.308598
v 53.761101 30.418102 15.206198
v 53.745098 11.232301 15.880599
v 46.232800 29.010101 15.880598
v 0.000000 70.710701 -0.000005
v 70.710701 0.000000 0.000000
v 0.000000 55.656200 3.999996
v -55.656101 0.000000 4.000000
v -70.710701 0.000000 0.000000
v 0.000000 -55.656101 4.000004
v 0.000000 -70.710602 0.000005
v 55.656200 0.000000 4.000000
v 0.000000 70.710701 -0.000005
v 0.000000 55.656200 -4.000004
v 70.710701 0.000000 0.000000
v -55.656101 -0.000000 -4.000000
v -70.710701 0.000000 0.000000
v 0.000000 -55.656101 -3.999996
v 0.000000 -70.710602 0.000005
v 55.656200 -0.000000 -4.000000
v 0.000000 70.710701 -0.000005
v 70.710701 0.000000 0.000000
v 0.000000 55.656200 3.999996
v -55.656101 0.000000 4.000000
v -70.710701 0.000000 0.000000
v 0.000000 -55.656101 4.000004
v 0.000000 -70.710602 0.000005
v 55.656200 0.000000 4.000000
v 0.000000 70.710701 -0.000005
v 0.000000 55.656200 -4.000004
v 70.710701 0.000000 0.000000
v -55.656101 -0.000000 -4.000000
v -70.710701 0.000000 0.000000
v 0.000000 -55.656101 -3.999996
v 0.000000 -70.710602 0.000005
v 55.656200 -0.000000 -4.000000
v 0.000000 70.710701 -0.000005
v 70.710701 0.000000 0.000000
v 0.000000 55.656200 3.999996
v -55.656101 0.000000 4.000000
v -70.710701 0.000000 0.000000
v 0.000000 -55.656101 4.000004
v 0.000000 -70.710602 0.000005
v 55.656200 0.000000 4.000000
v 0.000000 70.710701 -0.000005
v 0.000000 55.656200 -4.000004
v 70.710701 0.000000 0.000000
v -55.656101 -0.000000 -4.000000
v -70.710701 0.000000 0.000000
v 0.000000 -55.656101 -3.999996
v 0.000000 -70.710602 0.000005
v 55.656200 -0.000000 -4.000000
vn -0.0130 0.0042 -0.9999
vn 0.0198 -0.0063 -0.9998
vn 0.0527 -0.0168 -0.9985
vn -0.9528 0.3036 -0.0000
vn 0.0199 -0.0063 0.9998
vn -0.0130 0.0042 0.9999
vn 0.0527 -0.0168 0.9985
vn 0.0855 -0.0273 0.9960
vn 0.0855 -0.0273 -0.9960
vn -0.6479 0.7617 -0.0000
vn -0.6576 0.7533 -0.0000
vn -0.0951 0.1118 -0.9892
vn -0.0092 0.0103 -0.9999
vn -0.1033 0.1217 -0.9872
vn -0.6382 0.7699 -0.0000
vn -0.0937 0.1130 -0.9892
vn -0.0000 -0.0000 -1.0000
vn 0.1100 -0.1327 -0.9850
vn 0.0425 -0.0513 -0.9978
vn 0.6381 -0.7699 -0.0000
vn -0.7699 -0.6381 -0.0000
vn -0.7699 -0.6382 -0.0000
vn 0.0371 -0.0448 0.9983
vn 0.1100 -0.1327 0.9850
vn -0.1033 0.1217 0.9872
vn 0.0050 -0.0071 1.0000
vn -0.0949 0.1120 0.9892
vn -0.0261 0.0315 0.9992
vn 0.6382 -0.7699 -0.0000
vn -0.0937 0.1130 0.9892
vn -0.0091 0.0100 -0.9999
vn 0.0139 -0.0153 -0.9998
vn 0.0369 -0.0406 -0.9985
vn -0.6731 0.7396 0.0001
vn -0.6731 0.7396 -0.0000
vn -0.0091 0.0100 0.9999
vn 0.0139 -0.0152 0.9998
vn 0.0369 -0.0406 0.9985
vn 0.0139 -0.0153 0.9998
vn 0.0599 -0.0658 0.9960
vn 0.0599 -0.0658 -0.9960
vn -0.5515 -0.4662 0.6918
vn 0.7930 -0.0452 0.6076
vn 0.7578 0.0590 0.6498
vn 0.5692 0.3959 0.7206
vn 0.8031 -0.5140 0.3015
vn 0.8300 -0.3550 0.4302
vn 0.5515 0.4662 -0.6918
vn 0.5080 0.4702 0.7217
vn 0.2164 0.7243 0.6547
vn 0.1201 0.7793 0.6150
vn -0.1783 0.8790 0.4423
vn -0.3416 0.8850 0.3163
vn -0.5417 0.8318 0.1208
vn -0.7096 0.6968 -0.1040
vn -0.8300 0.3542 -0.4308
vn -0.8029 0.5147 -0.3009
vn -0.7573 -0.0605 -0.6503
vn -0.7933 0.0464 -0.6070
vn -0.5070 -0.4714 -0.7217
vn -0.5701 -0.3947 -0.7205
vn -0.2177 -0.7234 -0.6552
vn -0.1190 -0.7799 -0.6145
vn 0.1775 -0.8788 -0.4429
vn 0.3423 -0.8849 -0.3157
vn 0.5418 -0.8318 -0.1207
vn 0.7097 -0.6968 0.1041
vn -0.6499 0.7600 -0.0000
vn 0.0069 -0.0081 -0.9999
vn -0.0166 0.0194 -0.9997
vn 0.0305 -0.0356 -0.9989
vn 0.0539 -0.0630 -0.9966
vn 0.6499 -0.7600 -0.0000
vn 0.7699 0.6381 -0.0000
vn 0.0069 -0.0081 0.9999
vn 0.0304 -0.0356 0.9989
vn 0.0539 -0.0630 0.9966
vn -0.0166 0.0194 0.9997
vn -0.0264 0.0786 -0.9966
vn -0.0372 0.1242 -0.9916
vn -0.0271 0.1305 -0.9911
vn -0.6646 -0.7472 -0.0001
vn -0.6642 -0.7475 -0.0000
vn -0.6665 -0.7455 -0.0001
vn -0.6847 -0.7288 -0.0000
vn 0.0109 0.0651 -0.9978
vn -0.0097 -0.0100 -0.9999
vn -0.7060 -0.7082 -0.0000
vn 0.0350 0.0348 -0.9988
vn 0.0154 0.0145 -0.9998
vn -0.7267 -0.6870 -0.0000
vn -0.0101 -0.0095 -0.9999
vn 0.0408 0.0386 0.9984
vn 0.0198 0.0204 0.9996
vn -0.0101 -0.0095 0.9999
vn -0.0097 -0.0100 0.9999
vn 0.0650 0.0668 0.9956
vn 0.0662 0.0626 0.9958
vn 0.0646 0.0683 -0.9956
vn 0.0273 0.1101 -0.9935
vn 0.0274 0.1101 0.9935
vn 0.0109 0.0651 0.9978
vn 0.0662 0.0626 -0.9958
vn -0.0272 0.1305 0.9911
vn -0.0264 0.0787 0.9966
vn -0.0372 0.1242 0.9916
vn 0.0164 0.0129 -0.9998
vn -0.0108 -0.0084 -0.9999
vn -0.7868 -0.6172 -0.0000
vn -0.0108 -0.0084 0.9999
vn 0.0164 0.0128 0.9998
vn 0.0436 0.0342 0.9985
vn 0.0706 0.0554 0.9960
vn 0.0706 0.0554 -0.9960
vn 0.0435 0.0341 -0.9985
vn 0.0196 -0.0080 -0.9998
vn -0.0129 0.0052 -0.9999
vn -0.9263 0.3767 -0.0001
vn -0.9263 0.3767 -0.0000
vn -0.0129 0.0052 0.9999
vn 0.0197 -0.0080 0.9998
vn 0.0520 -0.0212 0.9984
vn 0.0844 -0.0343 0.9958
vn 0.0844 -0.0343 -0.9958
vn 0.0520 -0.0212 -0.9984
vn -0.7868 -0.6172 -0.0001
vn 0.0164 0.0129 0.9998
vn 0.0435 0.0342 -0.9985
vn -0.0125 -0.0472 0.9988
vn 0.0126 0.0053 0.9999
vn -0.0572 0.0262 0.9980
vn -0.0351 -0.0148 0.9993
vn 0.9211 0.3893 -0.0001
vn 0.0126 0.0053 -0.9999
vn -0.0192 -0.0081 -0.9998
vn 0.9211 0.3893 -0.0000
vn -0.0510 -0.0215 -0.9985
vn -0.9211 -0.3892 -0.0001
vn -0.9211 -0.3892 -0.0000
vn 0.2559 0.0853 0.9629
vn -0.0853 0.2559 0.9629
vn 0.0639 0.1919 0.9793
vn -0.1532 0.0510 0.9869
vn -0.2558 -0.0853 0.9629
vn -0.0639 -0.1919 0.9793
vn 0.0853 -0.2559 0.9629
vn 0.1531 -0.0510 0.9869
vn 0.0639 0.1919 -0.9793
vn -0.1531 0.0510 -0.9869
vn -0.0853 0.2559 -0.9629
vn 0.2559 0.0853 -0.9629
vn -0.2558 -0.0853 -0.9629
vn -0.0639 -0.1919 -0.9793
vn 0.0853 -0.2559 -0.9629
vn 0.1532 -0.0510 -0.9869
vt 0.011719 0.976320
vt 0.107414 0.761719
vt 0.226681 0.982299
vt 0.297849 0.822705
vt 0.107414 0.761721
vt 0.297846 0.822707
vt 0.226678 0.982301
vt 0.441643 0.988281
vt 0.488281 0.883690
vt 0.282278 0.375129
vt 0.011719 0.495014
vt 0.320914 0.398790
vt 0.291869 0.371094
vt 0.044494 0.515085
vt 0.077269 0.535156
vt 0.330506 0.394755
vt 0.353690 0.418862
vt 0.353690 0.418862
vt 0.044494 0.515085
vt 0.320915 0.398790
vt 0.330506 0.394755
vt 0.363281 0.414826
vt 0.400388 0.761719
vt 0.444335 0.786777
vt 0.011719 0.937096
vt 0.054504 0.962689
vt 0.011720 0.937096
vt 0.054503 0.962689
vt 0.444335 0.786778
vt 0.097286 0.988281
vt 0.488281 0.811835
vt 0.453830 0.413585
vt 0.497504 0.456713
vt 0.541178 0.499841
vt 0.573150 0.531413
vt 0.584852 0.542969
vt 0.497504 0.456713
vt 0.421859 0.382013
vt 0.410156 0.370457
vt 0.458822 0.406410
vt 0.426850 0.374837
vt 0.502496 0.449537
vt 0.502496 0.449537
vt 0.546170 0.492665
vt 0.578141 0.524238
vt 0.589844 0.535793
vt 0.578141 0.524237
vt 0.415148 0.363281
vt 0.746094 0.484497
vt 0.716235 0.542969
vt 0.746093 0.484497
vt 0.670120 0.478960
vt 0.699978 0.420487
vt 0.628906 0.421753
vt 0.658765 0.363282
vt 0.658765 0.363281
vt 0.034807 0.785623
vt 0.011719 0.773461
vt 0.063970 0.764253
vt 0.034807 0.785623
vt 0.270421 0.908467
vt 0.092996 0.779188
vt 0.308466 0.894027
vt 0.443386 0.978109
vt 0.398492 0.988281
vt 0.308466 0.894026
vt 0.346513 0.879585
vt 0.488281 0.967937
vt 0.121437 0.761719
vt 0.339376 0.939028
vt 0.190472 0.988281
vt 0.011719 0.859953
vt 0.190470 0.988280
vt 0.160810 0.810836
vt 0.339378 0.939030
vt 0.488281 0.889778
vt 0.309903 0.761719
vt 0.160812 0.810836
vt 0.094266 0.908766
vt 0.176816 0.988281
vt 0.488281 0.906386
vt 0.488281 0.906387
vt 0.378421 0.834053
vt 0.011719 0.829251
vt 0.268556 0.761719
vt 0.011719 0.844634
vt 0.207091 0.988280
vt 0.207091 0.988281
vt 0.160449 0.803176
vt 0.347685 0.940844
vt 0.160446 0.803176
vt 0.488281 0.893408
vt 0.309176 0.761719
vt 0.347687 0.940843
vt 0.123193 0.831775
vt 0.234660 0.761719
vt 0.455694 0.901649
vt 0.488279 0.815016
vt 0.234660 0.761720
vt 0.123193 0.831776
vt 0.488281 0.815017
vt 0.011719 0.901833
vt 0.423112 0.988281
vt 0.976562 0.023438
s 1
f 432/234/501 429/235/501 430/236/502
f 429/235/501 431/237/503 430/236/502
f 433/238/504 429/235/504 432/234/504
f 434/239/505 433/238/506 435/234/506
f 435/234/504 433/238/504 432/234/504
f 436/240/507 434/239/505 435/234/506
f 437/241/508 438/242/508 436/240/507
f 438/242/508 434/239/505 436/240/507
f 431/237/503 438/242/509 437/241/509
f 430/236/502 431/237/503 437/241/509
f 442/243/510 439/243/510 440/244/511
f 439/243/510 441/244/511 440/244/511
f 439/243/512 445/245/513 441/244/514
f 439/243/510 442/243/510 443/246/515
f 444/246/515 439/243/510 443/246/515
f 445/245/513 439/243/512 444/246/516
f 446/247/517 445/245/513 449/248/518
f 445/245/513 446/247/517 441/244/514
f 447/249/519 445/245/513 444/246/516
f 448/250/518 445/245/513 447/249/519
f 445/245/513 448/250/518 449/248/518
f 448/250/520 450/251/520 449/248/520
f 450/251/520 451/248/520 449/248/520
f 446/247/521 449/248/522 451/248/521
f 452/252/523 451/248/524 450/251/524
f 452/252/521 446/247/521 451/248/521
f 440/244/525 452/252/523 453/253/526
f 440/244/522 441/244/521 452/252/521
f 441/244/521 446/247/521 452/252/521
f 453/253/526 452/252/523 450/251/524
f 442/243/527 440/244/525 453/253/526
f 442/243/527 453/253/526 454/254/528
f 453/253/526 450/251/524 455/255/524
f 454/254/528 453/253/526 455/255/524
f 455/255/529 450/251/520 456/255/520
f 450/251/520 448/250/520 456/255/520
f 456/255/518 448/250/518 447/249/519
f 443/246/530 442/243/527 454/254/528
f 460/256/531 458/257/532 457/258/531
f 458/257/532 459/259/533 457/258/531
f 460/256/534 457/258/534 461/260/534
f 462/256/535 460/256/535 461/260/535
f 462/256/536 461/260/536 463/261/537
f 465/262/538 463/261/539 464/263/540
f 465/262/538 462/256/536 463/261/539
f 466/264/540 465/262/538 464/263/540
f 466/264/541 464/263/541 459/259/533
f 458/257/532 466/264/541 459/259/533
f 479/265/542 468/266/542 467/266/542
f 468/266/542 469/267/542 467/266/542
f 469/267/542 470/268/542 467/266/542
f 470/268/542 471/269/542 467/266/542
f 471/269/542 472/268/542 467/266/542
f 472/268/542 473/267/542 467/266/542
f 473/267/542 474/270/542 467/266/542
f 474/270/542 475/265/542 467/266/542
f 475/265/542 476/271/542 467/266/542
f 476/271/542 477/272/542 467/266/542
f 477/272/542 478/271/542 467/266/542
f 478/271/542 479/265/542 467/266/542
f 479/265/543 481/273/544 468/266/545
f 478/271/546 480/274/547 479/265/543
f 480/274/547 481/273/544 479/265/543
f 483/275/548 481/273/548 482/276/548
f 481/273/548 480/274/548 482/276/548
f 481/273/544 483/275/549 468/266/545
f 468/266/545 483/275/549 469/267/550
f 483/275/549 484/277/551 469/267/550
f 484/277/548 483/275/548 482/276/548
f 469/267/550 484/277/551 470/268/552
f 484/277/551 485/278/553 470/268/552
f 485/278/548 484/277/548 482/276/548
f 470/268/552 485/278/553 471/269/554
f 485/278/553 486/279/555 471/269/554
f 486/279/548 485/278/548 482/276/548
f 487/280/548 486/279/548 482/276/548
f 486/279/555 487/280/556 472/268/557
f 471/269/554 486/279/555 472/268/557
f 488/277/548 487/280/548 482/276/548
f 487/280/556 488/277/558 473/267/559
f 472/268/557 487/280/556 473/267/559
f 489/276/548 488/277/548 482/276/548
f 488/277/558 489/276/560 474/270/561
f 473/267/559 488/277/558 474/270/561
f 474/270/561 489/276/560 475/265/562
f 489/276/560 490/273/563 475/265/562
f 490/273/548 489/276/548 482/276/548
f 475/265/562 490/273/563 476/271/564
f 490/273/563 491/274/565 476/271/564
f 491/274/548 490/273/548 482/276/548
f 476/271/564 491/274/565 477/272/566
f 491/274/565 492/281/567 477/272/566
f 492/281/548 491/274/548 482/276/548
f 477/272/566 492/281/567 478/271/546
f 492/281/567 480/274/547 478/271/546
f 480/274/548 492/281/548 482/276/548
f 496/282/568 493/283/568 494/284/568
f 493/283/568 495/283/568 494/284/568
f 497/285/569 493/283/570 496/282/570
f 498/286/571 497/285/569 496/282/570
f 499/287/572 497/285/569 498/286/571
f 500/287/573 499/287/573 501/288/573
f 501/288/572 499/287/572 498/286/571
f 502/289/573 500/287/573 501/288/573
f 502/289/574 501/288/574 498/286/574
f 504/286/575 503/285/576 502/289/577
f 503/285/576 500/287/577 502/289/577
f 504/286/574 502/289/574 496/282/574
f 496/282/574 502/289/574 498/286/574
f 494/284/574 504/286/574 496/282/574
f 494/284/578 495/283/578 504/286/575
f 495/283/578 503/285/576 504/286/575
f 505/290/579 506/291/580 508/292/581
f 505/290/582 507/293/583 506/291/584
f 507/293/583 505/290/582 510/294/585
f 509/295/586 505/290/579 508/292/581
f 505/290/579 509/295/586 510/294/587
f 512/294/588 507/293/583 510/294/585
f 509/295/586 511/296/589 510/294/587
f 510/294/587 511/296/589 513/297/590
f 512/294/588 510/294/585 514/298/591
f 514/298/592 510/294/587 513/297/590
f 515/298/591 512/294/588 514/298/591
f 517/297/593 516/299/594 515/298/595
f 516/299/594 512/294/596 515/298/595
f 519/300/597 516/299/594 517/297/593
f 518/301/598 519/300/597 517/297/593
f 511/296/589 509/295/586 519/300/599
f 509/295/586 521/302/600 519/300/599
f 521/302/601 520/295/602 519/300/597
f 520/295/602 516/299/594 519/300/597
f 511/296/589 519/300/599 518/301/603
f 520/295/602 521/302/601 508/292/604
f 521/302/600 509/295/586 508/292/581
f 520/295/602 507/293/605 512/294/596
f 507/293/605 520/295/602 508/292/604
f 516/299/594 520/295/602 512/294/596
f 513/297/590 511/296/589 518/301/603
f 506/291/606 507/293/605 508/292/604
f 523/303/607 522/304/608 524/305/608
f 524/305/609 522/304/609 525/305/609
f 522/304/609 526/306/609 525/305/609
f 525/305/610 526/306/610 527/307/611
f 526/306/610 528/308/612 527/307/611
f 528/308/612 529/309/613 530/310/613
f 527/307/611 528/308/612 530/310/613
f 530/310/614 529/309/614 531/311/615
f 529/309/614 523/303/607 531/311/615
f 531/311/615 523/303/607 524/305/608
f 533/312/616 532/313/617 534/314/617
f 534/314/618 532/313/619 535/315/618
f 532/313/619 536/313/619 535/315/618
f 535/315/620 536/313/620 537/316/621
f 536/313/620 538/312/622 537/316/621
f 538/312/622 539/317/623 540/318/623
f 537/316/621 538/312/622 540/318/623
f 540/318/624 539/317/624 541/316/625
f 539/317/624 533/312/616 541/316/625
f 541/316/625 533/312/616 534/314/617
f 542/319/626 543/320/626 545/321/626
f 543/320/608 542/319/608 544/322/607
f 546/319/609 542/319/609 545/321/609
f 545/321/610 547/323/627 546/319/610
f 547/323/627 548/324/612 546/319/610
f 550/325/613 549/326/613 548/324/612
f 547/323/627 550/325/613 548/324/612
f 550/325/614 551/327/628 549/326/614
f 551/327/615 543/320/608 544/322/607
f 551/327/615 544/322/607 549/326/614
f 555/328/629 552/329/630 553/330/631
f 552/329/630 554/331/630 553/330/632
f 554/331/633 552/329/633 556/332/633
f 556/332/634 557/333/635 558/334/634
f 558/334/636 554/331/636 556/332/636
f 557/333/635 559/330/637 558/334/634
f 557/333/635 560/335/638 559/330/637
f 560/335/638 561/336/639 559/330/637
f 560/335/638 555/328/629 561/336/639
f 555/328/629 553/330/631 561/336/639
f 563/337/640 562/337/641 564/337/642
f 564/337/642 562/337/641 565/337/643
f 562/337/641 566/337/644 565/337/643
f 565/337/643 566/337/644 567/337/645
f 566/337/644 568/337/646 567/337/645
f 568/337/646 563/337/640 569/337/647
f 567/337/645 568/337/646 569/337/647
f 569/337/647 563/337/640 564/337/642
f 564/337/642 565/337/643 569/337/647
f 565/337/643 567/337/645 569/337/647
f 571/337/648 573/337/649 570/337/650
f 571/337/648 570/337/650 572/337/651
f 573/337/649 574/337/652 570/337/650
f 573/337/649 575/337/653 574/337/652
f 575/337/653 576/337/654 574/337/652
f 577/337/655 572/337/651 576/337/654
f 575/337/653 577/337/655 576/337/654
f 571/337/648 577/337/655 573/337/649
f 577/337/655 571/337/648 572/337/651
f 577/337/655 575/337/653 573/337/649
f 579/337/640 578/337/641 580/337/642
f 580/337/642 578/337/641 581/337/643
f 578/337/641 582/337/644 581/337/643
f 581/337/643 582/337/644 583/337/645
f 582/337/644 584/337/646 583/337/645
f 584/337/646 579/337/640 585/337/647
f 583/337/645 584/337/646 585/337/647
f 580/337/642 581/337/643 585/337/647
f 585/337/647 579/337/640 580/337/642
f 581/337/643 583/337/645 585/337/647
f 587/337/648 589/337/649 586/337/650
f 587/337/648 586/337/650 588/337/651
f 589/337/649 590/337/652 586/337/650
f 589/337/649 591/337/653 590/337/652
f 591/337/653 592/337/654 590/337/652
f 593/337/655 588/337/651 592/337/654
f 591/337/653 593/337/655 592/337/654
f 593/337/655 587/337/648 588/337/651
f 587/337/648 593/337/655 589/337/649
f 593/337/655 591/337/653 589/337/649
f 595/337/640 594/337/641 596/337/642
f 596/337/642 594/337/641 597/337/643
f 594/337/641 598/337/644 597/337/643
f 597/337/643 598/337/644 599/337/645
f 598/337/644 600/337/646 599/337/645
f 600/337/646 595/337/640 601/337/647
f 599/337/645 600/337/646 601/337/647
f 601/337/647 595/337/640 596/337/642
f 596/337/642 597/337/643 601/337/647
f 597/337/643 599/337/645 601/337/647
f 603/337/648 605/337/649 602/337/650
f 603/337/648 602/337/650 604/337/651
f 605/337/649 606/337/652 602/337/650
f 605/337/649 607/337/653 606/337/652
f 607/337/653 608/337/654 606/337/652
f 609/337/655 604/337/651 608/337/654
f 607/337/653 609/337/655 608/337/654
f 603/337/648 609/337/655 605/337/649
f 609/337/655 603/337/648 604/337/651
f 609/337/655 607/337/653 605/337/649
o effect
v -35.151520 -4.606251 -3.483364
v -91.580788 -5.117278 3.857580
v -35.151520 -4.606250 3.483364
v -91.580788 -5.117279 -3.857579
v -92.130501 3.663014 -6.465957
v -35.126854 3.711281 -5.343424
v -35.126854 3.711282 5.343423
v -92.130501 3.663015 6.465956
v -35.603607 12.048060 3.483363
v -35.603607 12.048060 -3.483365
v -92.680283 12.443311 3.857579
v -138.827194 8.378007 3.857579
v -92.680283 12.443311 -3.857581
v -138.827194 8.378007 -3.857581
v -181.679291 1.308304 -3.857580
v -180.556610 -7.400518 -6.465956
v -137.981079 -0.376529 -6.465956
v -137.135162 -9.130944 -3.857579
v -179.434082 -16.109221 -3.857579
v -231.328430 -29.209797 -3.735314
v -231.328430 -29.209797 3.735318
v -179.434082 -16.109221 3.857581
v -180.556610 -7.400517 6.465957
v -137.135162 -9.130944 3.857581
v -137.981079 -0.376528 6.465956
v -181.679291 1.308304 3.857580
v -234.213257 -11.648465 -3.735315
v -234.213257 -11.648465 3.735317
v -233.031479 -20.505075 5.729938
v -233.031479 -20.505075 -5.729935
v -35.109623 -4.125423 -2.735048
v -35.499813 10.409506 -2.735049
v -35.109623 -4.125423 2.735048
v -35.499813 10.409506 2.735047
v -35.321560 3.769329 -4.221008
v -35.321560 3.769330 4.221007
v -231.084976 -27.096348 -2.735046
v -233.531799 -12.517608 -2.735047
v -231.084976 -27.096348 2.735050
v -233.531799 -12.517608 2.735049
v -232.308334 -19.806982 -4.221006
v -232.308334 -19.806982 4.221009
v -179.626938 -14.402212 -2.735047
v -181.542542 0.306354 -2.735048
v -179.626938 -14.402212 2.735049
v -181.542542 0.306354 2.735048
v -180.584656 -7.048050 -4.221007
v -180.584656 -7.048049 4.221008
v -137.280426 -7.520053 -2.735048
v -138.733994 7.263463 -2.735049
v -137.280426 -7.520053 2.735049
v -138.733994 7.263463 2.735048
v -138.007156 -0.128353 -4.221008
v -138.007156 -0.128353 4.221008
v -91.670944 -3.613194 -2.735048
v -92.626976 11.213061 -2.735049
v -91.670944 -3.613193 2.735048
v -92.626976 11.213061 2.735047
v -92.148926 3.799933 -4.221008
v -92.148926 3.799933 4.221007
v -231.084976 -27.096348 -2.735046
v -232.308334 -19.806982 -4.221006
v -231.084976 -27.096348 2.735050
v -232.308334 -19.806982 4.221009
v -233.531799 -12.517608 2.735049
v -233.531799 -12.517608 -2.735047
v -79.258751 -2.857776 -3.134204
v -79.258751 -2.857775 3.134320
v -79.678795 5.012836 -5.019436
v -76.933235 4.934509 -5.019436
v -76.590210 -2.933983 -3.134204
v -76.590210 -2.933982 3.134320
v -79.678795 5.012837 5.019435
v -76.933235 4.934510 5.019435
v -77.276276 12.803001 -3.134321
v -77.276276 12.803001 3.134203
v -80.098763 12.883560 3.134203
v -80.098763 12.883560 -3.134321
vn 0.0570 -0.9984 0.0001
vn 0.0091 -1.0000 -0.0000
vn 0.0400 -0.9992 -0.0000
vn 0.9999 0.0119 -0.0000
vn 1.0000 -0.0030 -0.0000
vn 0.0160 -0.2537 -0.9672
vn 0.0169 -0.2838 -0.9587
vn 0.0073 -0.0397 -0.9992
vn 0.0199 -0.0066 -0.9998
vn 0.9991 0.0422 -0.0000
vn 0.0199 -0.0066 0.9998
vn 0.0146 0.2545 0.9670
vn 0.0047 0.0450 0.9990
vn 0.0160 -0.2537 0.9672
vn 0.9984 0.0571 -0.0000
vn 0.0069 1.0000 -0.0000
vn -0.0406 0.9992 -0.0000
vn -0.0086 0.2843 0.9587
vn -0.0332 0.2825 0.9587
vn -0.1171 0.9931 -0.0000
vn -0.1336 0.9910 -0.0000
vn -0.1927 0.9813 -0.0000
vn -0.0092 0.0437 -0.9990
vn -0.0580 0.2796 -0.9584
vn -0.0378 0.2819 -0.9587
vn 0.0020 0.0026 -1.0000
vn -0.0121 0.2841 -0.9587
vn 0.0335 -0.2825 -0.9587
vn 0.0554 -0.2801 -0.9584
vn 0.2448 -0.9696 -0.0000
vn 0.2129 -0.9771 -0.0000
vn 0.0524 -0.2497 -0.9669
vn 0.1949 -0.9808 -0.0000
vn 0.1335 -0.9911 -0.0000
vn -0.0005 -0.0405 0.9992
vn 0.0577 -0.2796 0.9584
vn 0.0381 -0.2819 0.9587
vn 0.0524 -0.2497 0.9669
vn 0.1172 -0.9931 -0.0000
vn -0.0029 0.0020 1.0000
vn 0.0186 -0.2837 0.9587
vn -0.0554 0.2801 0.9584
vn -0.2098 0.9778 -0.0000
vn -0.2395 0.9709 -0.0000
vn -0.0696 0.2465 0.9666
vn -0.9891 -0.1472 -0.0000
vn -0.9912 -0.1323 -0.0000
vn -0.0102 -0.0171 0.9998
vn -0.9842 -0.1771 -0.0000
vn -0.9814 -0.1920 -0.0000
vn -0.0102 -0.0170 -0.9998
vn -0.0696 0.2465 -0.9666
vn 0.0146 0.2545 -0.9670
vn 0.0473 -0.1919 -0.9803
vn -0.0066 0.0535 -0.9985
vn 0.0012 0.0022 -1.0000
vn 0.0381 -0.1933 -0.9804
vn 0.0120 -0.0785 0.9968
vn 0.0473 -0.1919 0.9803
vn 0.0415 -0.1926 0.9804
vn -0.0024 0.0013 1.0000
vn 0.2395 -0.9709 -0.0000
vn 0.2088 -0.9780 -0.0000
vn 0.1915 -0.9815 -0.0000
vn -0.0473 0.1919 -0.9803
vn -0.0408 0.1926 -0.9804
vn -0.2089 0.9779 -0.0000
vn -0.1913 0.9815 -0.0000
vn -0.0473 0.1919 0.9803
vn -0.0374 0.1933 0.9804
vn 0.0015 0.0019 -1.0000
vn 0.0227 -0.1949 -0.9806
vn 0.0259 -0.1946 0.9805
vn -0.0019 0.0014 1.0000
vn 0.1311 -0.9914 -0.0000
vn 0.1148 -0.9934 -0.0000
vn -0.0256 0.1945 -0.9806
vn -0.1312 0.9914 -0.0000
vn -0.1147 0.9934 -0.0000
vn -0.0224 0.1949 0.9806
vn 0.0023 0.0060 -1.0000
vn 0.0059 -0.1921 -0.9814
vn 0.0094 -0.1960 0.9806
vn -0.0023 0.0355 0.9994
vn 0.0484 -0.9988 -0.0000
vn 0.0279 -0.9996 -0.0000
vn -0.0092 0.1960 -0.9806
vn -0.0357 0.9994 -0.0000
vn -0.0072 0.1961 0.9806
vn -0.0007 -0.1911 0.9816
vn 0.0002 0.0102 0.9999
vn -0.0091 -1.0000 -0.0000
vn 0.0016 0.2070 0.9783
vn 0.0141 0.9999 -0.0000
vn 0.0016 0.2070 -0.9783
vn 0.0034 -0.0623 -0.9980
vn -0.0017 -0.1850 -0.9827
vn 0.9996 0.0268 -0.0000
vn -0.9862 -0.1655 -0.0000
vn -0.0285 -0.9996 -0.0000
vn -0.9986 -0.0533 -0.0000
vn -0.0067 -0.2333 -0.9724
vn -0.0040 0.0933 -0.9956
vn 0.0057 -0.0939 -0.9956
vn -0.0057 0.0644 0.9979
vn 0.0045 -0.0651 0.9979
vn -0.0067 -0.2333 0.9724
vn 0.9991 0.0436 -0.0000
vn 0.0067 0.2333 0.9724
vn 0.0285 0.9996 -0.0000
vn 0.0067 0.2333 -0.9724
vt 0.352875 0.633003
vt 0.487720 0.624855
vt 0.488281 0.599537
vt 0.352092 0.606343
vt 0.487645 0.574219
vt 0.351308 0.579684
vt 0.240814 0.597448
vt 0.138009 0.623971
vt 0.140166 0.650346
vt 0.242306 0.623994
vt 0.243799 0.650540
vt 0.142322 0.676721
vt 0.017551 0.722656
vt 0.011719 0.669544
vt 0.014008 0.696362
vt 0.016650 0.722656
vt 0.014184 0.699027
vt 0.139093 0.650501
vt 0.140917 0.674377
vt 0.011719 0.675397
vt 0.137269 0.626624
vt 0.241684 0.622251
vt 0.242951 0.646281
vt 0.240416 0.598221
vt 0.351952 0.603328
vt 0.352622 0.627461
vt 0.351283 0.579196
vt 0.488281 0.621609
vt 0.488281 0.595868
vt 0.488281 0.574219
vt 0.628906 0.511340
vt 0.628906 0.394910
vt 0.687500 0.542969
vt 0.687500 0.363281
vt 0.746094 0.394910
vt 0.746094 0.511340
vt 0.629684 0.397023
vt 0.628906 0.397023
vt 0.628906 0.509225
vt 0.687088 0.542969
vt 0.687889 0.542969
vt 0.629684 0.509225
vt 0.687889 0.363281
vt 0.687088 0.363281
vt 0.745271 0.397025
vt 0.746094 0.509227
vt 0.746094 0.397025
vt 0.745271 0.509227
s 1
f 613/338/656 610/339/657 611/338/658
f 610/339/657 612/339/657 611/338/658
f 616/340/659 612/339/660 610/339/660
f 610/339/661 613/338/662 614/341/663
f 615/340/664 610/339/661 614/341/663
f 615/340/665 616/340/659 610/339/660
f 616/340/666 618/342/667 617/341/668
f 612/339/669 616/340/666 617/341/668
f 618/342/670 616/340/659 615/340/665
f 619/342/670 618/342/670 615/340/665
f 618/342/671 619/342/671 620/343/672
f 618/342/667 620/343/673 617/341/668
f 620/343/673 621/344/674 617/341/668
f 623/344/675 621/344/676 620/343/672
f 619/342/671 622/343/672 620/343/672
f 622/343/672 623/344/675 620/343/672
f 623/344/675 624/345/677 621/344/676
f 625/346/678 624/345/679 623/344/680
f 626/347/681 625/346/678 623/344/680
f 626/347/681 623/344/680 622/343/682
f 614/341/663 626/347/681 622/343/682
f 627/348/683 626/347/681 614/341/663
f 628/349/684 625/346/678 626/347/681
f 627/348/683 628/349/684 626/347/681
f 630/350/685 629/350/685 628/349/686
f 628/349/684 629/350/687 625/346/678
f 631/349/688 630/350/685 628/349/686
f 631/349/688 628/349/686 627/348/689
f 632/346/690 631/349/691 633/348/692
f 630/350/693 631/349/691 632/346/690
f 633/348/694 631/349/688 627/348/689
f 634/347/695 632/346/690 633/348/692
f 633/348/694 627/348/689 613/338/656
f 634/347/695 633/348/692 611/338/696
f 611/338/658 633/348/694 613/338/656
f 621/344/674 634/347/695 617/341/668
f 621/344/674 635/345/697 634/347/695
f 635/345/697 632/346/690 634/347/695
f 617/341/668 634/347/695 611/338/696
f 624/345/677 635/345/698 621/344/676
f 624/345/677 636/351/699 635/345/698
f 636/351/699 637/351/699 635/345/698
f 635/345/697 637/351/700 632/346/690
f 638/352/701 637/351/702 636/351/702
f 637/351/700 638/352/703 632/346/690
f 639/352/704 638/352/701 636/351/702
f 630/350/705 638/352/701 639/352/704
f 638/352/703 630/350/693 632/346/690
f 629/350/705 630/350/705 639/352/704
f 629/350/687 639/352/706 625/346/678
f 639/352/706 636/351/707 625/346/678
f 636/351/707 624/345/679 625/346/678
f 613/338/662 627/348/683 614/341/663
f 622/343/682 619/342/708 614/341/663
f 619/342/708 615/340/664 614/341/663
f 611/338/696 612/339/669 617/341/668
f 646/353/709 650/354/710 656/355/711
f 652/356/712 646/353/709 656/355/711
f 651/354/713 648/353/714 654/356/715
f 657/355/716 651/354/713 654/356/715
f 648/353/717 646/353/717 652/356/718
f 654/356/719 648/353/717 652/356/718
f 650/354/710 647/357/720 653/358/721
f 656/355/711 650/354/710 653/358/721
f 647/357/699 649/357/699 655/358/722
f 653/358/723 647/357/699 655/358/722
f 649/357/724 651/354/713 657/355/716
f 655/358/725 649/357/724 657/355/716
f 652/356/712 656/355/711 662/359/726
f 658/360/727 652/356/712 662/359/726
f 657/355/716 654/356/715 660/360/728
f 663/359/729 657/355/716 660/360/728
f 654/356/719 652/356/718 658/360/730
f 660/360/731 654/356/719 658/360/730
f 656/355/711 653/358/721 659/361/732
f 662/359/726 656/355/711 659/361/732
f 653/358/723 655/358/722 661/361/733
f 659/361/734 653/358/723 661/361/733
f 655/358/725 657/355/716 663/359/729
f 661/361/735 655/358/725 663/359/729
f 658/360/727 662/359/726 668/362/736
f 664/363/737 658/360/727 668/362/736
f 663/359/729 660/360/728 666/363/738
f 669/362/739 663/359/729 666/363/738
f 660/360/731 658/360/730 664/363/740
f 666/363/741 660/360/731 664/363/740
f 662/359/726 659/361/732 665/364/742
f 668/362/736 662/359/726 665/364/742
f 659/361/734 661/361/733 667/364/743
f 665/364/743 659/361/734 667/364/743
f 661/361/735 663/359/729 669/362/739
f 667/364/744 661/361/735 669/362/739
f 642/365/745 645/366/746 669/362/739
f 666/363/738 642/365/745 669/362/739
f 640/365/747 642/365/747 666/363/741
f 664/363/740 640/365/747 666/363/741
f 643/367/748 667/364/744 669/362/739
f 645/366/746 643/367/748 669/362/739
f 641/367/749 665/364/743 667/364/743
f 643/367/749 641/367/749 667/364/743
f 641/367/750 644/366/751 668/362/736
f 665/364/742 641/367/750 668/362/736
f 644/366/751 640/365/752 664/363/737
f 668/362/736 644/366/751 664/363/737
f 643/367/753 645/366/753 644/366/753
f 641/367/753 643/367/753 644/366/753
f 645/366/753 642/365/753 640/365/753
f 644/366/753 645/366/753 640/365/753
f 670/368/754 672/369/754 671/370/754
f 672/369/754 673/371/754 671/370/754
f 673/371/754 674/372/754 675/373/754
f 671/370/754 673/371/754 675/373/754
f 681/374/755 677/375/755 676/376/755
f 677/375/756 678/377/756 676/376/756
f 676/376/757 678/377/758 679/378/759
f 680/379/757 676/376/757 679/378/759
f 680/379/755 681/374/755 676/376/755
f 683/380/760 682/381/761 681/374/762
f 682/381/761 677/375/762 681/374/762
f 680/379/763 679/378/763 681/374/763
f 683/380/763 681/374/763 679/378/763
f 686/382/764 682/381/761 683/380/760
f 684/383/763 683/380/763 679/378/763
f 684/383/763 685/384/763 683/380/763
f 685/384/764 686/382/764 683/380/760
f 687/385/765 686/382/765 685/384/765
f 687/385/756 678/377/756 686/382/756
f 686/382/756 678/377/756 682/381/756
f 678/377/758 687/385/766 684/383/766
f 684/383/765 687/385/765 685/384/765
f 679/378/759 678/377/758 684/383/766
f 678/377/756 677/375/756 682/381/756
