# Made in Blockbench 5.1.6
mtllib materials.mtl

o yasha_slash_arc
v 0.12096094779983395 -0.48514786313799824 0.01125
v 0.11657611344208997 -0.4675612530992458 0.01125
v 0.12096094779983395 -0.48514786313799824 -0.01125
v 0.11657611344208997 -0.4675612530992458 -0.01125
v 0.22439959010023103 -0.44681632016170614 0.01125
v 0.20784366625258252 -0.41385076542437543 0.01125
v 0.22439959010023103 -0.44681632016170614 -0.01125
v 0.20784366625258252 -0.41385076542437543 -0.01125
v 0.3169154836993551 -0.386735796366982 0.01125
v 0.28245092484705026 -0.3446782785120727 0.01125
v 0.3169154836993551 -0.386735796366982 -0.01125
v 0.28245092484705026 -0.3446782785120727 -0.01125
v 0.394005376803361 -0.3078307376628291 0.01125
v 0.3393251201988046 -0.2651098391239902 0.01125
v 0.394005376803361 -0.3078307376628291 -0.01125
v 0.3393251201988046 -0.2651098391239902 -0.01125
v 0.45191688497426025 -0.21394188247082715 0.01125
v 0.37878602998985156 -0.1793210189840455 0.01125
v 0.45191688497426025 -0.21394188247082715 -0.01125
v 0.37878602998985156 -0.1793210189840455 -0.01125
v 0.48783114009210715 -0.10963931209395163 0.01125
v 0.40182200018673225 -0.09030888777696917 0.01125
v 0.48783114009210715 -0.10963931209395163 -0.01125
v 0.40182200018673225 -0.09030888777696917 -0.01125
v 0.5 0 0.01125
v 0.409375 0 0.01125
v 0.5 0 -0.01125
v 0.409375 0 -0.01125
v 0.48783114009210715 0.10963931209395167 0.01125
v 0.40182200018673225 0.0903088877769692 0.01125
v 0.48783114009210715 0.10963931209395167 -0.01125
v 0.40182200018673225 0.0903088877769692 -0.01125
v 0.4519168849742603 0.21394188247082707 0.01125
v 0.3787860299898516 0.17932101898404545 0.01125
v 0.4519168849742603 0.21394188247082707 -0.01125
v 0.3787860299898516 0.17932101898404545 -0.01125
v 0.394005376803361 0.3078307376628291 0.01125
v 0.3393251201988046 0.2651098391239902 0.01125
v 0.394005376803361 0.3078307376628291 -0.01125
v 0.3393251201988046 0.2651098391239902 -0.01125
v 0.3169154836993551 0.386735796366982 0.01125
v 0.28245092484705026 0.3446782785120727 0.01125
v 0.3169154836993551 0.386735796366982 -0.01125
v 0.28245092484705026 0.3446782785120727 -0.01125
v 0.22439959010023122 0.446816320161706 0.01125
v 0.2078436662525827 0.4138507654243753 0.01125
v 0.22439959010023122 0.446816320161706 -0.01125
v 0.2078436662525827 0.4138507654243753 -0.01125
v 0.12096094779983395 0.48514786313799824 0.01125
v 0.11657611344208997 0.4675612530992458 0.01125
v 0.12096094779983395 0.48514786313799824 -0.01125
v 0.11657611344208997 0.4675612530992458 -0.01125
vt 0 1
vt 1 1
vt 1 0
vt 0 0
vt 0 1
vt 1 1
vt 1 0
vt 0 0
vt 0 0
vt 1 0
vt 1 1
vt 0 1
vt 0 1
vt 1 1
vt 1 0
vt 0 0
vt 0 1
vt 1 1
vt 1 0
vt 0 0
vt 0 1
vt 1 1
vt 1 0
vt 0 0
vt 0 0
vt 1 0
vt 1 1
vt 0 1
vt 0 1
vt 1 1
vt 1 0
vt 0 0
vt 0 1
vt 1 1
vt 1 0
vt 0 0
vt 0 1
vt 1 1
vt 1 0
vt 0 0
vt 0 0
vt 1 0
vt 1 1
vt 0 1
vt 0 1
vt 1 1
vt 1 0
vt 0 0
vt 0 1
vt 1 1
vt 1 0
vt 0 0
vt 0 1
vt 1 1
vt 1 0
vt 0 0
vt 0 0
vt 1 0
vt 1 1
vt 0 1
vt 0 1
vt 1 1
vt 1 0
vt 0 0
vt 0 1
vt 1 1
vt 1 0
vt 0 0
vt 0 1
vt 1 1
vt 1 0
vt 0 0
vt 0 0
vt 1 0
vt 1 1
vt 0 1
vt 0 1
vt 1 1
vt 1 0
vt 0 0
vt 0 1
vt 1 1
vt 1 0
vt 0 0
vt 0 1
vt 1 1
vt 1 0
vt 0 0
vt 0 0
vt 1 0
vt 1 1
vt 0 1
vt 0 1
vt 1 1
vt 1 0
vt 0 0
vt 0 1
vt 1 1
vt 1 0
vt 0 0
vt 0 1
vt 1 1
vt 1 0
vt 0 0
vt 0 0
vt 1 0
vt 1 1
vt 0 1
vt 0 1
vt 1 1
vt 1 0
vt 0 0
vt 0 1
vt 1 1
vt 1 0
vt 0 0
vt 0 1
vt 1 1
vt 1 0
vt 0 0
vt 0 0
vt 1 0
vt 1 1
vt 0 1
vt 0 1
vt 1 1
vt 1 0
vt 0 0
vt 0 1
vt 1 1
vt 1 0
vt 0 0
vt 0 1
vt 1 1
vt 1 0
vt 0 0
vt 0 0
vt 1 0
vt 1 1
vt 0 1
vt 0 1
vt 1 1
vt 1 0
vt 0 0
vt 0 1
vt 1 1
vt 1 0
vt 0 0
vt 0 1
vt 1 1
vt 1 0
vt 0 0
vt 0 0
vt 1 0
vt 1 1
vt 0 1
vt 0 1
vt 1 1
vt 1 0
vt 0 0
vt 0 1
vt 1 1
vt 1 0
vt 0 0
vt 0 1
vt 1 1
vt 1 0
vt 0 0
vt 0 0
vt 1 0
vt 1 1
vt 0 1
vt 0 1
vt 1 1
vt 1 0
vt 0 0
vt 0 1
vt 1 1
vt 1 0
vt 0 0
vt 0 1
vt 1 1
vt 1 0
vt 0 0
vt 0 0
vt 1 0
vt 1 1
vt 0 1
vt 0 1
vt 1 1
vt 1 0
vt 0 0
vt 0 1
vt 1 1
vt 1 0
vt 0 0
vt 0 1
vt 1 1
vt 1 0
vt 0 0
vn -0.9702957262759965 -0.2419218955996676 0
vn 0 0 1
vn 0 0 -1
vn 0.3474812344941317 -0.9376869369221449 0
vn -0.507186326944324 0.8618364286572746 0
vn 0 0 1
vn 0 0 -1
vn 0.5446390350150269 -0.8386705679454242 0
vn -0.6798931124146186 0.73331122703199 0
vn 0 0 1
vn 0 0 -1
vn 0.7152862910660517 -0.6988315403679 0
vn -0.8135419466027007 0.5815062348056887 0
vn 0 0 1
vn 0 0 -1
vn 0.8511166724369997 -0.5249765803345601 0
vn -0.9084982825504636 0.41788858635150383 0
vn 0 0 1
vn 0 0 -1
vn 0.945518575599317 -0.3255681544571568 0
vn -0.9681057925338591 0.25054176191283717 0
vn 0 0 1
vn 0 0 -1
vn 0.99389694641452 -0.11031255553151167 0
vn -0.9965208202192386 0.08334419517624496 0
vn 0 0 1
vn 0 0 -1
vn 0.99389694641452 0.11031255553151163 0
vn -0.9965208202192386 -0.08334419517624492 0
vn 0 0 1
vn 0 0 -1
vn 0.9455185755993168 0.3255681544571567 0
vn -0.9681057925338592 -0.25054176191283684 0
vn 0 0 1
vn 0 0 -1
vn 0.8511166724369998 0.5249765803345602 0
vn -0.9084982825504634 -0.41788858635150405 0
vn 0 0 1
vn 0 0 -1
vn 0.7152862910660517 0.6988315403679 0
vn -0.8135419466027007 -0.5815062348056887 0
vn 0 0 1
vn 0 0 -1
vn 0.544639035015027 0.8386705679454243 0
vn -0.6798931124146189 -0.7333112270319898 0
vn 0 0 1
vn 0 0 -1
vn 0.34748123449413204 0.9376869369221448 0
vn -0.5071863269443241 -0.8618364286572745 0
vn -0.9702957262759965 0.2419218955996676 0
usemtl none
f 3/1/1 1/2/1 2/3/1
f 3/1/1 2/3/1 4/4/1
f 1/5/2 5/6/2 6/7/2
f 1/5/2 6/7/2 2/8/2
f 4/9/3 8/10/3 7/11/3
f 4/9/3 7/11/3 3/12/3
f 3/13/4 7/14/4 5/15/4
f 3/13/4 5/15/4 1/16/4
f 2/17/5 6/18/5 8/19/5
f 2/17/5 8/19/5 4/20/5
f 5/21/6 9/22/6 10/23/6
f 5/21/6 10/23/6 6/24/6
f 8/25/7 12/26/7 11/27/7
f 8/25/7 11/27/7 7/28/7
f 7/29/8 11/30/8 9/31/8
f 7/29/8 9/31/8 5/32/8
f 6/33/9 10/34/9 12/35/9
f 6/33/9 12/35/9 8/36/9
f 9/37/10 13/38/10 14/39/10
f 9/37/10 14/39/10 10/40/10
f 12/41/11 16/42/11 15/43/11
f 12/41/11 15/43/11 11/44/11
f 11/45/12 15/46/12 13/47/12
f 11/45/12 13/47/12 9/48/12
f 10/49/13 14/50/13 16/51/13
f 10/49/13 16/51/13 12/52/13
f 13/53/14 17/54/14 18/55/14
f 13/53/14 18/55/14 14/56/14
f 16/57/15 20/58/15 19/59/15
f 16/57/15 19/59/15 15/60/15
f 15/61/16 19/62/16 17/63/16
f 15/61/16 17/63/16 13/64/16
f 14/65/17 18/66/17 20/67/17
f 14/65/17 20/67/17 16/68/17
f 17/69/18 21/70/18 22/71/18
f 17/69/18 22/71/18 18/72/18
f 20/73/19 24/74/19 23/75/19
f 20/73/19 23/75/19 19/76/19
f 19/77/20 23/78/20 21/79/20
f 19/77/20 21/79/20 17/80/20
f 18/81/21 22/82/21 24/83/21
f 18/81/21 24/83/21 20/84/21
f 21/85/22 25/86/22 26/87/22
f 21/85/22 26/87/22 22/88/22
f 24/89/23 28/90/23 27/91/23
f 24/89/23 27/91/23 23/92/23
f 23/93/24 27/94/24 25/95/24
f 23/93/24 25/95/24 21/96/24
f 22/97/25 26/98/25 28/99/25
f 22/97/25 28/99/25 24/100/25
f 25/101/26 29/102/26 30/103/26
f 25/101/26 30/103/26 26/104/26
f 28/105/27 32/106/27 31/107/27
f 28/105/27 31/107/27 27/108/27
f 27/109/28 31/110/28 29/111/28
f 27/109/28 29/111/28 25/112/28
f 26/113/29 30/114/29 32/115/29
f 26/113/29 32/115/29 28/116/29
f 29/117/30 33/118/30 34/119/30
f 29/117/30 34/119/30 30/120/30
f 32/121/31 36/122/31 35/123/31
f 32/121/31 35/123/31 31/124/31
f 31/125/32 35/126/32 33/127/32
f 31/125/32 33/127/32 29/128/32
f 30/129/33 34/130/33 36/131/33
f 30/129/33 36/131/33 32/132/33
f 33/133/34 37/134/34 38/135/34
f 33/133/34 38/135/34 34/136/34
f 36/137/35 40/138/35 39/139/35
f 36/137/35 39/139/35 35/140/35
f 35/141/36 39/142/36 37/143/36
f 35/141/36 37/143/36 33/144/36
f 34/145/37 38/146/37 40/147/37
f 34/145/37 40/147/37 36/148/37
f 37/149/38 41/150/38 42/151/38
f 37/149/38 42/151/38 38/152/38
f 40/153/39 44/154/39 43/155/39
f 40/153/39 43/155/39 39/156/39
f 39/157/40 43/158/40 41/159/40
f 39/157/40 41/159/40 37/160/40
f 38/161/41 42/162/41 44/163/41
f 38/161/41 44/163/41 40/164/41
f 41/165/42 45/166/42 46/167/42
f 41/165/42 46/167/42 42/168/42
f 44/169/43 48/170/43 47/171/43
f 44/169/43 47/171/43 43/172/43
f 43/173/44 47/174/44 45/175/44
f 43/173/44 45/175/44 41/176/44
f 42/177/45 46/178/45 48/179/45
f 42/177/45 48/179/45 44/180/45
f 45/181/46 49/182/46 50/183/46
f 45/181/46 50/183/46 46/184/46
f 48/185/47 52/186/47 51/187/47
f 48/185/47 51/187/47 47/188/47
f 47/189/48 51/190/48 49/191/48
f 47/189/48 49/191/48 45/192/48
f 46/193/49 50/194/49 52/195/49
f 46/193/49 52/195/49 48/196/49
f 49/197/50 51/198/50 52/199/50
f 49/197/50 52/199/50 50/200/50
o kikoku_broken_ring
v -0.44562063093370663 -0.06262789543202958 0.015
v -0.4301476923596196 -0.060453315729528556 0.015
v -0.44562063093370663 -0.06262789543202958 -0.015
v -0.4301476923596196 -0.060453315729528556 -0.015
v -0.4404367134595863 -0.09227947462419955 0.015
v -0.4093113540192253 -0.08575814765741518 0.015
v -0.4404367134595863 -0.09227947462419955 -0.015
v -0.4093113540192253 -0.08575814765741518 -0.015
v -0.4332820556058469 -0.1215181479861004 0.015
v -0.38814850814690455 -0.10886000757088161 0.015
v -0.4332820556058469 -0.1215181479861004 -0.015
v -0.38814850814690455 -0.10886000757088161 -0.015
v -0.4241886709914803 -0.15021308665519703 0.015
v -0.36780063578197264 -0.13024503611899543 0.015
v -0.4241886709914803 -0.15021308665519703 -0.015
v -0.36780063578197264 -0.13024503611899543 -0.015
v -0.4131972480961233 -0.17823589471762055 0.015
v -0.34915021675597124 -0.15060870216607708 0.015
v -0.4131972480961233 -0.17823589471762055 -0.015
v -0.34915021675597124 -0.15060870216607708 -0.015
v -0.4003569681988734 -0.20546118371752436 0.015
v -0.3327452491200121 -0.17076318933112702 0.015
v -0.4003569681988734 -0.20546118371752436 -0.015
v -0.3327452491200121 -0.17076318933112702 -0.015
v -0.3857252853159505 -0.23176713370952448 0.015
v -0.318759089948598 -0.19152978410717647 0.015
v -0.3857252853159505 -0.23176713370952448 -0.015
v -0.318759089948598 -0.19152978410717647 -0.015
v -0.3693676691218801 -0.257036038343788 0.015
v -0.3069893790827844 -0.21362815538417146 0.015
v -0.3693676691218801 -0.257036038343788 -0.015
v -0.3069893790827844 -0.21362815538417146 -0.015
v -0.35135731200449666 -0.2811548315447821 0.015
v -0.29689568894860313 -0.23757484065579446 0.015
v -0.35135731200449666 -0.2811548315447821 -0.015
v -0.29689568894860313 -0.23757484065579446 -0.015
v -0.3317748015645558 -0.30401559342704715 0.015
v -0.2876714803972978 -0.26360234536378613 0.015
v -0.3317748015645558 -0.30401559342704715 -0.015
v -0.2876714803972978 -0.26360234536378613 -0.015
v -0.3107077600253622 -0.3255160331842687 0.015
v -0.2783423683560537 -0.29160811306090734 0.015
v -0.3107077600253622 -0.3255160331842687 -0.015
v -0.2783423683560537 -0.29160811306090734 -0.015
v -0.28825045216587686 -0.34555994679095486 0.015
v -0.2678799910795697 -0.3211394631587533 0.015
v -0.28825045216587686 -0.34555994679095486 -0.015
v -0.2678799910795697 -0.3211394631587533 -0.015
v -0.26450336353161286 -0.3640576474687264 0.015
v -0.25531921896454296 -0.35141675693161784 0.015
v -0.26450336353161286 -0.3640576474687264 -0.015
v -0.25531921896454296 -0.35141675693161784 -0.015
v -0.16857296703716043 -0.41723273455505433 0.015
v -0.1627197390150368 -0.4027454868274483 0.015
v -0.16857296703716043 -0.41723273455505433 -0.015
v -0.1627197390150368 -0.4027454868274483 -0.015
v -0.13531760977692284 -0.4291726278367021 0.015
v -0.1257548074168882 -0.39884329357558956 0.015
v -0.13531760977692284 -0.4291726278367021 -0.015
v -0.1257548074168882 -0.39884329357558956 -0.015
v -0.10122797445473916 -0.4384665291533559 0.015
v -0.0906833937823705 -0.39279293236654794 0.015
v -0.10122797445473916 -0.4384665291533559 -0.015
v -0.0906833937823705 -0.39279293236654794 -0.015
v -0.06651423500832469 -0.4450571385128626 0.015
v -0.05767239815111592 -0.3858950266675652 0.015
v -0.06651423500832469 -0.4450571385128626 -0.015
v -0.05767239815111592 -0.3858950266675652 -0.015
v -0.0313904131848564 -0.4489038226169209 0.015
v -0.026524788386302272 -0.37932214624241717 0.015
v -0.0313904131848564 -0.4489038226169209 -0.015
v -0.026524788386302272 -0.37932214624241717 -0.015
v 0.003926940974268253 -0.4499828653788771 0.015
v 0.0032637647313619304 -0.37399039490641406 0.015
v 0.003926940974268253 -0.4499828653788771 -0.015
v 0.0032637647313619304 -0.37399039490641406 -0.015
v 0.039220084236446164 -0.4482876141412855 0.015
v 0.03241104183428537 -0.3704599033528679 0.015
v 0.039220084236446164 -0.4482876141412855 -0.015
v 0.03241104183428537 -0.3704599033528679 -0.015
v 0.07427142263730502 -0.4438285206917541 0.015
v 0.06172856972898145 -0.36887538725386854 0.015
v 0.07427142263730502 -0.4438285206917541 -0.015
v 0.06172856972898145 -0.36887538725386854 -0.015
v 0.10886485301985055 -0.43663307682419844 0.015
v 0.0919904166935433 -0.36895340934248066 0.015
v 0.10886485301985055 -0.43663307682419844 -0.015
v 0.0919904166935433 -0.36895340934248066 -0.015
v 0.14278709538229145 -0.4267456448427897 0.015
v 0.12380619298558011 -0.370017707270448 0.015
v 0.14278709538229145 -0.4267456448427897 -0.015
v 0.12380619298558011 -0.370017707270448 -0.015
v 0.17582900782017327 -0.41422718405359815 0.015
v 0.15751348617223856 -0.371078519048015 0.015
v 0.17582900782017327 -0.41422718405359815 -0.015
v 0.15751348617223856 -0.371078519048015 -0.015
v 0.20778687595576534 -0.39915487493019974 0.015
v 0.1931027204267864 -0.3709468746093664 0.015
v 0.20778687595576534 -0.39915487493019974 -0.015
v 0.1931027204267864 -0.3709468746093664 -0.015
v 0.23846366890494222 -0.38162164327039166 0.015
v 0.23018368040129839 -0.3683708917679475 0.015
v 0.23846366890494222 -0.38162164327039166 -0.015
v 0.23018368040129839 -0.3683708917679475 -0.015
v 0.32910916572862675 -0.30689926202812434 0.015
v 0.3176817641408272 -0.29624303765214777 0.015
v 0.32910916572862675 -0.30689926202812434 -0.015
v 0.3176817641408272 -0.29624303765214777 -0.015
v 0.3509480173917968 -0.2816655624828266 0.015
v 0.32614676251819724 -0.2617604510188299 0.015
v 0.3509480173917968 -0.2816655624828266 -0.015
v 0.32614676251819724 -0.2617604510188299 -0.015
v 0.3708567848799071 -0.2548828066161748 0.015
v 0.3322258697882501 -0.22833251426032325 0.015
v 0.3708567848799071 -0.2548828066161748 -0.015
v 0.3322258697882501 -0.22833251426032325 -0.015
v 0.38872597734197806 -0.22669828967048683 0.015
v 0.33705205110067593 -0.1965629465695125 0.015
v 0.38872597734197806 -0.22669828967048683 -0.015
v 0.33705205110067593 -0.1965629465695125 -0.015
v 0.40445732083462516 -0.19726701605508484 0.015
v 0.3417650090571204 -0.16668993254866438 0.015
v 0.40445732083462516 -0.19726701605508484 -0.015
v 0.3417650090571204 -0.16668993254866438 -0.015
v 0.4179642987923659 -0.1667508468794263 0.015
v 0.347379078602305 -0.13859019947994458 0.015
v 0.4179642987923659 -0.1667508468794263 -0.015
v 0.347379078602305 -0.13859019947994458 -0.015
v 0.4291726278367021 -0.13531760977692292 0.015
v 0.3546634910594969 -0.11182496919065157 0.015
v 0.4291726278367021 -0.13531760977692292 -0.015
v 0.3546634910594969 -0.11182496919065157 -0.015
v 0.4380206663072018 -0.10314017591508634 0.015
v 0.3640483551111917 -0.08572200874520422 0.015
v 0.4380206663072018 -0.10314017591508634 -0.015
v 0.3640483551111917 -0.08572200874520422 -0.015
v 0.444459753267812 -0.0703955092681039 0.015
v 0.3755669233224451 -0.0594839569548335 0.015
v 0.444459753267812 -0.0703955092681039 -0.015
v 0.3755669233224451 -0.0594839569548335 -0.015
v 0.44845447612399264 -0.03726369338049195 0.015
v 0.38884075110291844 -0.03231017482125235 0.015
v 0.44845447612399264 -0.03726369338049195 -0.015
v 0.38884075110291844 -0.03231017482125235 -0.015
v 0.4499828653788771 -0.0039269409742682705 0.015
v 0.4031096502352441 -0.0035178846227819924 0.015
v 0.4499828653788771 -0.0039269409742682705 -0.015
v 0.4031096502352441 -0.0035178846227819924 -0.015
v 0.44903651545737155 0.02943140815356438 0.015
v 0.4173034139280406 0.027351510793464495 0.015
v 0.44903651545737155 0.02943140815356438 -0.015
v 0.4173034139280406 0.027351510793464495 -0.015
v 0.4456206309337067 0.06262789543202944 0.015
v 0.43014769235961964 0.060453315729528424 0.015
v 0.4456206309337067 0.06262789543202944 -0.015
v 0.43014769235961964 0.060453315729528424 -0.015
v 0.4078385041664925 0.19017821778331476 0.015
v 0.39367744499404483 0.18357480744361632 0.015
v 0.4078385041664925 0.19017821778331476 -0.015
v 0.39367744499404483 0.18357480744361632 -0.015
v 0.3929425896474881 0.219308279007259 0.015
v 0.3651736072524122 0.20380991385343253 0.015
v 0.3929425896474881 0.219308279007259 -0.015
v 0.3651736072524122 0.20380991385343253 -0.015
v 0.37596951513582144 0.24727904013186267 0.015
v 0.33680602397584003 0.22152080678479363 0.015
v 0.37596951513582144 0.24727904013186267 -0.015
v 0.33680602397584003 0.22152080678479363 -0.015
v 0.3570090031310558 0.2739426430539243 0.015
v 0.3095512617641971 0.23752703731460809 0.015
v 0.3570090031310558 0.2739426430539243 -0.015
v 0.3095512617641971 0.23752703731460809 -0.015
v 0.33616128205844825 0.299158139526272 0.015
v 0.28405509726039624 0.2527875723790208 0.015
v 0.33616128205844825 0.299158139526272 -0.015
v 0.28405509726039624 0.2527875723790208 -0.015
v 0.3135365564447948 0.32279223623368025 0.015
v 0.2605869458243828 0.2682795394889394 0.015
v 0.3135365564447948 0.32279223623368025 -0.015
v 0.2605869458243828 0.2682795394889394 -0.015
v 0.2892544243589427 0.3447199994035401 0.015
v 0.23903664235218183 0.28487277728487 0.015
v 0.2892544243589427 0.3447199994035401 -0.015
v 0.23903664235218183 0.28487277728487 -0.015
v 0.2634432451964732 0.36482551522659556 0.015
v 0.2189533221970572 0.30321429771920205 0.015
v 0.2634432451964732 0.36482551522659556 -0.015
v 0.2189533221970572 0.30321429771920205 -0.015
v 0.2362394611505522 0.38300250259664986 0.015
v 0.19962151114772397 0.3236357633451392 0.015
v 0.2362394611505522 0.38300250259664986 -0.015
v 0.19962151114772397 0.3236357633451392 -0.015
v 0.20778687595576534 0.39915487493019974 0.015
v 0.18016545539759435 0.3460946197163994 0.015
v 0.20778687595576534 0.39915487493019974 -0.015
v 0.18016545539759435 0.3460946197163994 -0.015
v 0.17823589471762052 0.41319724809612335 0.015
v 0.15966965568453506 0.3701558680861105 0.015
v 0.17823589471762052 0.41319724809612335 -0.015
v 0.15966965568453506 0.3701558680861105 -0.015
v 0.14774272884610248 0.4250553917704221 0.015
v 0.13730185187216992 0.3950170197487132 0.015
v 0.14774272884610248 0.4250553917704221 -0.015
v 0.13730185187216992 0.3950170197487132 -0.015
v 0.11646857029613433 0.43466662183008076 0.015
v 0.11242452271640745 0.41957403079431405 0.015
v 0.11646857029613433 0.43466662183008076 -0.015
v 0.11242452271640745 0.41957403079431405 -0.015
v -0.01570477351612533 0.4497258721585931 0.015
v -0.015159468880148757 0.43411039048641975 0.015
v -0.01570477351612533 0.4497258721585931 -0.015
v -0.015159468880148757 0.43411039048641975 -0.015
v -0.05029110128522623 0.44718095345343045 0.015
v -0.04673706376673971 0.4155789832139569 0.015
v -0.05029110128522623 0.44718095345343045 -0.015
v -0.04673706376673971 0.4155789832139569 -0.015
v -0.08457873948005025 0.44198013171178385 0.015
v -0.07576845411754501 0.39594053465847306 0.015
v -0.08457873948005025 0.44198013171178385 -0.015
v -0.07576845411754501 0.39594053465847306 -0.015
v -0.11836404650608857 0.4341542957229659 0.015
v -0.1026297365672473 0.3764415150955048 0.015
v -0.11836404650608857 0.4341542957229659 -0.015
v -0.1026297365672473 0.3764415150955048 -0.015
v -0.1514463642207568 0.4237499247956439 0.015
v -0.12797164341781858 0.35806719133402115 0.015
v -0.1514463642207568 0.4237499247956439 -0.015
v -0.12797164341781858 0.35806719133402115 -0.015
v -0.18362920968489194 0.41082881270731486 0.015
v -0.15261816822420987 0.34144862332474557 0.015
v -0.18362920968489194 0.41082881270731486 -0.015
v -0.15261816822420987 0.34144862332474557 -0.015
v -0.2147214421168238 0.39546770069788445 0.015
v -0.1774434139715419 0.32681011377116836 0.015
v -0.2147214421168238 0.39546770069788445 -0.015
v -0.1774434139715419 0.32681011377116836 -0.015
v -0.24453839811823644 0.37775782168707894 0.015
v -0.20324109898055284 0.31396261453818725 0.015
v -0.24453839811823644 0.37775782168707894 -0.015
v -0.20324109898055284 0.31396261453818725 -0.015
v -0.2729029884294659 0.3578043584226816 0.015
v -0.2306020623383583 0.3023434204248337 0.015
v -0.2729029884294659 0.3578043584226816 -0.015
v -0.2306020623383583 0.3023434204248337 -0.015
v -0.2996467497003754 0.3357258187777648 0.015
v -0.25981425857555074 0.29109728297615306 0.015
v -0.2996467497003754 0.3357258187777648 -0.015
v -0.25981425857555074 0.29109728297615306 -0.015
v -0.3246108450301131 0.3116533319071623 0.015
v -0.29079721533947633 0.2791894431668329 0.015
v -0.3246108450301131 0.3116533319071623 -0.015
v -0.29079721533947633 0.2791894431668329 -0.015
v -0.34764700733333603 0.28572986944345774 0.015
v -0.3230790325688781 0.2655375362035289 0.015
v -0.34764700733333603 0.28572986944345774 -0.015
v -0.3230790325688781 0.2655375362035289 -0.015
v -0.36861841993004624 0.25810939635797087 0.015
v -0.35581916923803075 0.24914726453998579 0.015
v -0.36861841993004624 0.25810939635797087 -0.015
v -0.35581916923803075 0.24914726453998579 -0.015
vt 0 1
vt 1 1
vt 1 0
vt 0 0
vt 0 1
vt 1 1
vt 1 0
vt 0 0
vt 0 0
vt 1 0
vt 1 1
vt 0 1
vt 0 1
vt 1 1
vt 1 0
vt 0 0
vt 0 1
vt 1 1
vt 1 0
vt 0 0
vt 0 1
vt 1 1
vt 1 0
vt 0 0
vt 0 0
vt 1 0
vt 1 1
vt 0 1
vt 0 1
vt 1 1
vt 1 0
vt 0 0
vt 0 1
vt 1 1
vt 1 0
vt 0 0
vt 0 1
vt 1 1
vt 1 0
vt 0 0
vt 0 0
vt 1 0
vt 1 1
vt 0 1
vt 0 1
vt 1 1
vt 1 0
vt 0 0
vt 0 1
vt 1 1
vt 1 0
vt 0 0
vt 0 1
vt 1 1
vt 1 0
vt 0 0
vt 0 0
vt 1 0
vt 1 1
vt 0 1
vt 0 1
vt 1 1
vt 1 0
vt 0 0
vt 0 1
vt 1 1
vt 1 0
vt 0 0
vt 0 1
vt 1 1
vt 1 0
vt 0 0
vt 0 0
vt 1 0
vt 1 1
vt 0 1
vt 0 1
vt 1 1
vt 1 0
vt 0 0
vt 0 1
vt 1 1
vt 1 0
vt 0 0
vt 0 1
vt 1 1
vt 1 0
vt 0 0
vt 0 0
vt 1 0
vt 1 1
vt 0 1
vt 0 1
vt 1 1
vt 1 0
vt 0 0
vt 0 1
vt 1 1
vt 1 0
vt 0 0
vt 0 1
vt 1 1
vt 1 0
vt 0 0
vt 0 0
vt 1 0
vt 1 1
vt 0 1
vt 0 1
vt 1 1
vt 1 0
vt 0 0
vt 0 1
vt 1 1
vt 1 0
vt 0 0
vt 0 1
vt 1 1
vt 1 0
vt 0 0
vt 0 0
vt 1 0
vt 1 1
vt 0 1
vt 0 1
vt 1 1
vt 1 0
vt 0 0
vt 0 1
vt 1 1
vt 1 0
vt 0 0
vt 0 1
vt 1 1
vt 1 0
vt 0 0
vt 0 0
vt 1 0
vt 1 1
vt 0 1
vt 0 1
vt 1 1
vt 1 0
vt 0 0
vt 0 1
vt 1 1
vt 1 0
vt 0 0
vt 0 1
vt 1 1
vt 1 0
vt 0 0
vt 0 0
vt 1 0
vt 1 1
vt 0 1
vt 0 1
vt 1 1
vt 1 0
vt 0 0
vt 0 1
vt 1 1
vt 1 0
vt 0 0
vt 0 1
vt 1 1
vt 1 0
vt 0 0
vt 0 0
vt 1 0
vt 1 1
vt 0 1
vt 0 1
vt 1 1
vt 1 0
vt 0 0
vt 0 1
vt 1 1
vt 1 0
vt 0 0
vt 0 1
vt 1 1
vt 1 0
vt 0 0
vt 0 0
vt 1 0
vt 1 1
vt 0 1
vt 0 1
vt 1 1
vt 1 0
vt 0 0
vt 0 1
vt 1 1
vt 1 0
vt 0 0
vt 0 1
vt 1 1
vt 1 0
vt 0 0
vt 0 1
vt 1 1
vt 1 0
vt 0 0
vt 0 1
vt 1 1
vt 1 0
vt 0 0
vt 0 0
vt 1 0
vt 1 1
vt 0 1
vt 0 1
vt 1 1
vt 1 0
vt 0 0
vt 0 1
vt 1 1
vt 1 0
vt 0 0
vt 0 1
vt 1 1
vt 1 0
vt 0 0
vt 0 0
vt 1 0
vt 1 1
vt 0 1
vt 0 1
vt 1 1
vt 1 0
vt 0 0
vt 0 1
vt 1 1
vt 1 0
vt 0 0
vt 0 1
vt 1 1
vt 1 0
vt 0 0
vt 0 0
vt 1 0
vt 1 1
vt 0 1
vt 0 1
vt 1 1
vt 1 0
vt 0 0
vt 0 1
vt 1 1
vt 1 0
vt 0 0
vt 0 1
vt 1 1
vt 1 0
vt 0 0
vt 0 0
vt 1 0
vt 1 1
vt 0 1
vt 0 1
vt 1 1
vt 1 0
vt 0 0
vt 0 1
vt 1 1
vt 1 0
vt 0 0
vt 0 1
vt 1 1
vt 1 0
vt 0 0
vt 0 0
vt 1 0
vt 1 1
vt 0 1
vt 0 1
vt 1 1
vt 1 0
vt 0 0
vt 0 1
vt 1 1
vt 1 0
vt 0 0
vt 0 1
vt 1 1
vt 1 0
vt 0 0
vt 0 0
vt 1 0
vt 1 1
vt 0 1
vt 0 1
vt 1 1
vt 1 0
vt 0 0
vt 0 1
vt 1 1
vt 1 0
vt 0 0
vt 0 1
vt 1 1
vt 1 0
vt 0 0
vt 0 0
vt 1 0
vt 1 1
vt 0 1
vt 0 1
vt 1 1
vt 1 0
vt 0 0
vt 0 1
vt 1 1
vt 1 0
vt 0 0
vt 0 1
vt 1 1
vt 1 0
vt 0 0
vt 0 0
vt 1 0
vt 1 1
vt 0 1
vt 0 1
vt 1 1
vt 1 0
vt 0 0
vt 0 1
vt 1 1
vt 1 0
vt 0 0
vt 0 1
vt 1 1
vt 1 0
vt 0 0
vt 0 0
vt 1 0
vt 1 1
vt 0 1
vt 0 1
vt 1 1
vt 1 0
vt 0 0
vt 0 1
vt 1 1
vt 1 0
vt 0 0
vt 0 1
vt 1 1
vt 1 0
vt 0 0
vt 0 0
vt 1 0
vt 1 1
vt 0 1
vt 0 1
vt 1 1
vt 1 0
vt 0 0
vt 0 1
vt 1 1
vt 1 0
vt 0 0
vt 0 1
vt 1 1
vt 1 0
vt 0 0
vt 0 0
vt 1 0
vt 1 1
vt 0 1
vt 0 1
vt 1 1
vt 1 0
vt 0 0
vt 0 1
vt 1 1
vt 1 0
vt 0 0
vt 0 1
vt 1 1
vt 1 0
vt 0 0
vt 0 0
vt 1 0
vt 1 1
vt 0 1
vt 0 1
vt 1 1
vt 1 0
vt 0 0
vt 0 1
vt 1 1
vt 1 0
vt 0 0
vt 0 1
vt 1 1
vt 1 0
vt 0 0
vt 0 1
vt 1 1
vt 1 0
vt 0 0
vt 0 1
vt 1 1
vt 1 0
vt 0 0
vt 0 0
vt 1 0
vt 1 1
vt 0 1
vt 0 1
vt 1 1
vt 1 0
vt 0 0
vt 0 1
vt 1 1
vt 1 0
vt 0 0
vt 0 1
vt 1 1
vt 1 0
vt 0 0
vt 0 0
vt 1 0
vt 1 1
vt 0 1
vt 0 1
vt 1 1
vt 1 0
vt 0 0
vt 0 1
vt 1 1
vt 1 0
vt 0 0
vt 0 1
vt 1 1
vt 1 0
vt 0 0
vt 0 0
vt 1 0
vt 1 1
vt 0 1
vt 0 1
vt 1 1
vt 1 0
vt 0 0
vt 0 1
vt 1 1
vt 1 0
vt 0 0
vt 0 1
vt 1 1
vt 1 0
vt 0 0
vt 0 0
vt 1 0
vt 1 1
vt 0 1
vt 0 1
vt 1 1
vt 1 0
vt 0 0
vt 0 1
vt 1 1
vt 1 0
vt 0 0
vt 0 1
vt 1 1
vt 1 0
vt 0 0
vt 0 0
vt 1 0
vt 1 1
vt 0 1
vt 0 1
vt 1 1
vt 1 0
vt 0 0
vt 0 1
vt 1 1
vt 1 0
vt 0 0
vt 0 1
vt 1 1
vt 1 0
vt 0 0
vt 0 0
vt 1 0
vt 1 1
vt 0 1
vt 0 1
vt 1 1
vt 1 0
vt 0 0
vt 0 1
vt 1 1
vt 1 0
vt 0 0
vt 0 1
vt 1 1
vt 1 0
vt 0 0
vt 0 0
vt 1 0
vt 1 1
vt 0 1
vt 0 1
vt 1 1
vt 1 0
vt 0 0
vt 0 1
vt 1 1
vt 1 0
vt 0 0
vt 0 1
vt 1 1
vt 1 0
vt 0 0
vt 0 0
vt 1 0
vt 1 1
vt 0 1
vt 0 1
vt 1 1
vt 1 0
vt 0 0
vt 0 1
vt 1 1
vt 1 0
vt 0 0
vt 0 1
vt 1 1
vt 1 0
vt 0 0
vt 0 0
vt 1 0
vt 1 1
vt 0 1
vt 0 1
vt 1 1
vt 1 0
vt 0 0
vt 0 1
vt 1 1
vt 1 0
vt 0 0
vt 0 1
vt 1 1
vt 1 0
vt 0 0
vt 0 0
vt 1 0
vt 1 1
vt 0 1
vt 0 1
vt 1 1
vt 1 0
vt 0 0
vt 0 1
vt 1 1
vt 1 0
vt 0 0
vt 0 1
vt 1 1
vt 1 0
vt 0 0
vt 0 0
vt 1 0
vt 1 1
vt 0 1
vt 0 1
vt 1 1
vt 1 0
vt 0 0
vt 0 1
vt 1 1
vt 1 0
vt 0 0
vt 0 1
vt 1 1
vt 1 0
vt 0 0
vt 0 0
vt 1 0
vt 1 1
vt 0 1
vt 0 1
vt 1 1
vt 1 0
vt 0 0
vt 0 1
vt 1 1
vt 1 0
vt 0 0
vt 0 1
vt 1 1
vt 1 0
vt 0 0
vt 0 1
vt 1 1
vt 1 0
vt 0 0
vt 0 1
vt 1 1
vt 1 0
vt 0 0
vt 0 0
vt 1 0
vt 1 1
vt 0 1
vt 0 1
vt 1 1
vt 1 0
vt 0 0
vt 0 1
vt 1 1
vt 1 0
vt 0 0
vt 0 1
vt 1 1
vt 1 0
vt 0 0
vt 0 0
vt 1 0
vt 1 1
vt 0 1
vt 0 1
vt 1 1
vt 1 0
vt 0 0
vt 0 1
vt 1 1
vt 1 0
vt 0 0
vt 0 1
vt 1 1
vt 1 0
vt 0 0
vt 0 0
vt 1 0
vt 1 1
vt 0 1
vt 0 1
vt 1 1
vt 1 0
vt 0 0
vt 0 1
vt 1 1
vt 1 0
vt 0 0
vt 0 1
vt 1 1
vt 1 0
vt 0 0
vt 0 0
vt 1 0
vt 1 1
vt 0 1
vt 0 1
vt 1 1
vt 1 0
vt 0 0
vt 0 1
vt 1 1
vt 1 0
vt 0 0
vt 0 1
vt 1 1
vt 1 0
vt 0 0
vt 0 0
vt 1 0
vt 1 1
vt 0 1
vt 0 1
vt 1 1
vt 1 0
vt 0 0
vt 0 1
vt 1 1
vt 1 0
vt 0 0
vt 0 1
vt 1 1
vt 1 0
vt 0 0
vt 0 0
vt 1 0
vt 1 1
vt 0 1
vt 0 1
vt 1 1
vt 1 0
vt 0 0
vt 0 1
vt 1 1
vt 1 0
vt 0 0
vt 0 1
vt 1 1
vt 1 0
vt 0 0
vt 0 0
vt 1 0
vt 1 1
vt 0 1
vt 0 1
vt 1 1
vt 1 0
vt 0 0
vt 0 1
vt 1 1
vt 1 0
vt 0 0
vt 0 1
vt 1 1
vt 1 0
vt 0 0
vt 0 0
vt 1 0
vt 1 1
vt 0 1
vt 0 1
vt 1 1
vt 1 0
vt 0 0
vt 0 1
vt 1 1
vt 1 0
vt 0 0
vt 0 1
vt 1 1
vt 1 0
vt 0 0
vt 0 0
vt 1 0
vt 1 1
vt 0 1
vt 0 1
vt 1 1
vt 1 0
vt 0 0
vt 0 1
vt 1 1
vt 1 0
vt 0 0
vt 0 1
vt 1 1
vt 1 0
vt 0 0
vt 0 0
vt 1 0
vt 1 1
vt 0 1
vt 0 1
vt 1 1
vt 1 0
vt 0 0
vt 0 1
vt 1 1
vt 1 0
vt 0 0
vt 0 1
vt 1 1
vt 1 0
vt 0 0
vt 0 0
vt 1 0
vt 1 1
vt 0 1
vt 0 1
vt 1 1
vt 1 0
vt 0 0
vt 0 1
vt 1 1
vt 1 0
vt 0 0
vt 0 1
vt 1 1
vt 1 0
vt 0 0
vt 0 0
vt 1 0
vt 1 1
vt 0 1
vt 0 1
vt 1 1
vt 1 0
vt 0 0
vt 0 1
vt 1 1
vt 1 0
vt 0 0
vt 0 1
vt 1 1
vt 1 0
vt 0 0
vt 0 1
vt 1 1
vt 1 0
vt 0 0
vt 0 1
vt 1 1
vt 1 0
vt 0 0
vt 0 0
vt 1 0
vt 1 1
vt 0 1
vt 0 1
vt 1 1
vt 1 0
vt 0 0
vt 0 1
vt 1 1
vt 1 0
vt 0 0
vt 0 1
vt 1 1
vt 1 0
vt 0 0
vt 0 0
vt 1 0
vt 1 1
vt 0 1
vt 0 1
vt 1 1
vt 1 0
vt 0 0
vt 0 1
vt 1 1
vt 1 0
vt 0 0
vt 0 1
vt 1 1
vt 1 0
vt 0 0
vt 0 0
vt 1 0
vt 1 1
vt 0 1
vt 0 1
vt 1 1
vt 1 0
vt 0 0
vt 0 1
vt 1 1
vt 1 0
vt 0 0
vt 0 1
vt 1 1
vt 1 0
vt 0 0
vt 0 0
vt 1 0
vt 1 1
vt 0 1
vt 0 1
vt 1 1
vt 1 0
vt 0 0
vt 0 1
vt 1 1
vt 1 0
vt 0 0
vt 0 1
vt 1 1
vt 1 0
vt 0 0
vt 0 0
vt 1 0
vt 1 1
vt 0 1
vt 0 1
vt 1 1
vt 1 0
vt 0 0
vt 0 1
vt 1 1
vt 1 0
vt 0 0
vt 0 1
vt 1 1
vt 1 0
vt 0 0
vt 0 0
vt 1 0
vt 1 1
vt 0 1
vt 0 1
vt 1 1
vt 1 0
vt 0 0
vt 0 1
vt 1 1
vt 1 0
vt 0 0
vt 0 1
vt 1 1
vt 1 0
vt 0 0
vt 0 0
vt 1 0
vt 1 1
vt 0 1
vt 0 1
vt 1 1
vt 1 0
vt 0 0
vt 0 1
vt 1 1
vt 1 0
vt 0 0
vt 0 1
vt 1 1
vt 1 0
vt 0 0
vt 0 0
vt 1 0
vt 1 1
vt 0 1
vt 0 1
vt 1 1
vt 1 0
vt 0 0
vt 0 1
vt 1 1
vt 1 0
vt 0 0
vt 0 1
vt 1 1
vt 1 0
vt 0 0
vt 0 0
vt 1 0
vt 1 1
vt 0 1
vt 0 1
vt 1 1
vt 1 0
vt 0 0
vt 0 1
vt 1 1
vt 1 0
vt 0 0
vt 0 1
vt 1 1
vt 1 0
vt 0 0
vt 0 0
vt 1 0
vt 1 1
vt 0 1
vt 0 1
vt 1 1
vt 1 0
vt 0 0
vt 0 1
vt 1 1
vt 1 0
vt 0 0
vt 0 1
vt 1 1
vt 1 0
vt 0 0
vt 0 0
vt 1 0
vt 1 1
vt 0 1
vt 0 1
vt 1 1
vt 1 0
vt 0 0
vt 0 1
vt 1 1
vt 1 0
vt 0 0
vt 0 1
vt 1 1
vt 1 0
vt 0 0
vt 0 0
vt 1 0
vt 1 1
vt 0 1
vt 0 1
vt 1 1
vt 1 0
vt 0 0
vt 0 1
vt 1 1
vt 1 0
vt 0 0
vt 0 1
vt 1 1
vt 1 0
vt 0 0
vn -0.13917310096006555 0.9902680687415705 0
vn 0 0 1
vn 0 0 -1
vn -0.9850592723295012 -0.17221564968862155 0
vn 0.7719741721906449 0.6356538975500495 0
vn 0 0 1
vn 0 0 -1
vn -0.9713420698132615 -0.23768589232617282 0
vn 0.7373744457066488 0.6754842165578796 0
vn 0 0 1
vn 0 0 -1
vn -0.9532785833000149 -0.3020926060358259 0
vn 0.7244562806767646 0.6893207507307385 0
vn 0 0 1
vn 0 0 -1
vn -0.930949638118759 -0.36514760205504837 0
vn 0.7374476464562729 0.6754043002055169 0
vn 0 0 1
vn 0 0 -1
vn -0.9044551454543688 -0.4265687399014568 0
vn 0.7755591306064409 0.6312749281675787 0
vn 0 0 1
vn 0 0 -1
vn -0.8739136552935594 -0.48608118981446913 0
vn 0.8294277982591535 0.5586139341933507 0
vn 0 0 1
vn 0 0 -1
vn -0.8394618259712853 -0.5434186624849717 0
vn 0.8826195932002588 0.470087921243473 0
vn 0 0 1
vn 0 0 -1
vn -0.8012538126910612 -0.5983246005706584 0
vn 0.9214856353364289 0.38841244041433365 0
vn 0 0 1
vn 0 0 -1
vn -0.7594605777552863 -0.6505533266655449 0
vn 0.9425573001276312 0.33404451196825646 0
vn 0 0 1
vn 0 0 -1
vn -0.7142691255919899 -0.6998711425870153 0
vn 0.9487457198247888 0.31604043904877654 0
vn 0 0 1
vn 0 0 -1
vn -0.665881666000835 -0.7460573750616989 0
vn 0.9425934964082585 0.33394236108773984 0
vn 0 0 1
vn 0 0 -1
vn -0.6145147093624671 -0.7889053631311952 0
vn 0.9236689997818972 0.383191308411229 0
vn 0.809016994374947 -0.5877852522924737 0
vn -0.9271838545667871 0.3746065934159129 0
vn 0 0 1
vn 0 0 -1
vn -0.33791671800332657 -0.9411760152563708 0
vn -0.10498140497053943 0.9944741849894405 0
vn 0 0 1
vn 0 0 -1
vn -0.263031214457975 -0.9647873238288129 0
vn -0.1700042145874882 0.9854433352671738 0
vn 0 0 1
vn 0 0 -1
vn -0.18652403600873482 -0.9824503977255097 0
vn -0.20454007414821276 0.9788581909896058 0
vn 0 0 1
vn 0 0 -1
vn -0.10886687485196402 -0.9940563382223198 0
vn -0.20647636651166318 0.9784515880063466 0
vn 0 0 1
vn 0 0 -1
vn -0.030538513209823415 -0.999533590836713 0
vn -0.17618665580790663 0.9843567759279286 0
vn 0 0 1
vn 0 0 -1
vn 0.04797812852134483 -0.9988483864849508 0
vn -0.12024705727323384 0.9927439978247804 0
vn 0 0 1
vn 0 0 -1
vn 0.12619896913583017 -0.9920049496797151 0
vn -0.05396795183247352 0.9985426681794866 0
vn 0 0 1
vn 0 0 -1
vn 0.20364175114017588 -0.9790454724845842 0
vn 0.0025782243029405733 0.9999966763741986 0
vn 0 0 1
vn 0 0 -1
vn 0.2798290140309932 -0.9600498543859284 0
vn 0.033433191361859224 0.9994409545917965 0
vn 0 0 1
vn 0 0 -1
vn 0.3542910379977151 -0.935135209686012 0
vn 0.03145570976315886 0.9995051467217645 0
vn 0 0 1
vn 0 0 -1
vn 0.4265687399014591 -0.9044551454543677 0
vn -0.0036989707926564745 0.9999931587841364 0
vn 0 0 1
vn 0 0 -1
vn 0.4962165036752092 -0.8681988144891419 0
vn -0.06930212842312189 0.9975957172101458 0
vn 0.8480480961564255 0.5299192642332057 0
vn -0.6819983600624998 -0.7313537016191692 0
vn 0 0 1
vn 0 0 -1
vn 0.7561390817803233 -0.6544109481086099 0
vn -0.9711651781821533 0.2384076271565707 0
vn 0 0 1
vn 0 0 -1
vn 0.8025572465980504 -0.5965751134039671 0
vn -0.9838631722383615 0.178922492473887 0
vn 0 0 1
vn 0 0 -1
vn 0.8445616436653578 -0.5354583364270926 0
vn -0.9886573046864546 0.1501889939047298 0
vn 0 0 1
vn 0 0 -1
vn 0.8819212643483548 -0.47139673682599814 0
vn -0.9877824864528686 0.15583888942426669 0
vn 0 0 1
vn 0 0 -1
vn 0.9144306445637823 -0.40474262968294517 0
vn -0.9806200975950041 0.19591892249796727 0
vn 0 0 1
vn 0 0 -1
vn 0.9419109947553922 -0.33586258791194284 0
vn -0.9649027479649823 0.2626074769872824 0
vn 0 0 1
vn 0 0 -1
vn 0.9642111831703295 -0.2651354262434078 0
vn -0.9410275193450859 0.33833002798337897 0
vn 0 0 1
vn 0 0 -1
vn 0.9812085670278174 -0.19295011788339772 0
vn -0.9156514349959388 0.40197319511365176 0
vn 0 0 1
vn 0 0 -1
vn 0.9928096670090552 -0.11970365530496174 0
vn -0.8985295579316069 0.43891301361799634 0
vn 0 0 1
vn 0 0 -1
vn 0.9989506813588601 -0.045798866936521396 0
vn -0.8960055201381772 0.44404291220772213 0
vn 0 0 1
vn 0 0 -1
vn 0.9995978367717061 0.02835779824537991 0
vn -0.9085592544559254 0.41775600671024854 0
vn 0 0 1
vn 0 0 -1
vn 0.9947475741323989 0.10235850603495379 0
vn -0.9322769382335688 0.36174536685055525 0
vn -0.1391731009600651 0.9902680687415704 0
vn 0.42261826174070033 -0.9063077870366496 0
vn 0 0 1
vn 0 0 -1
vn 0.8903452795881891 0.45528593555592045 0
vn -0.5788721174412286 -0.8154183414966262 0
vn 0 0 1
vn 0 0 -1
vn 0.854911870672947 0.518773258160521 0
vn -0.5295936270281659 -0.848251489955162 0
vn 0 0 1
vn 0 0 -1
vn 0.8149592551819878 0.579518258895455 0
vn -0.5064092789805106 -0.8622932460378196 0
vn 0 0 1
vn 0 0 -1
vn 0.7706986292968588 0.6371998295667874 0
vn -0.5135758274397058 -0.8580442118385402 0
vn 0 0 1
vn 0 0 -1
vn 0.7223639620597553 0.6915130557822698 0
vn -0.5509162014983543 -0.8345605663620974 0
vn 0 0 1
vn 0 0 -1
vn 0.6702107585741953 0.7421708287796023 0
vn -0.610082154011921 -0.7923381635111202 0
vn 0 0 1
vn 0 0 -1
vn 0.6145147093624685 0.7889053631311941 0
vn -0.6743611121619215 -0.738401713434995 0
vn 0 0 1
vn 0 0 -1
vn 0.5555702330196028 0.8314696123025448 0
vn -0.726216121674276 -0.687466467997075 0
vn 0 0 1
vn 0 0 -1
vn 0.4936889198676294 0.8696385745813794 0
vn -0.7558270857171516 -0.654771270365704 0
vn 0 0 1
vn 0 0 -1
vn 0.4291978848372292 0.9032104824741842 0
vn -0.7612560256195195 -0.6484514349262969 0
vn 0 0 1
vn 0 0 -1
vn 0.3624380382837009 0.9320078692827989 0
vn -0.7434016755745395 -0.6688452352771658 0
vn 0 0 1
vn 0 0 -1
vn 0.2937622838780453 0.9558785072229394 0
vn -0.7025102163583666 -0.7116736582957958 0
vn -0.9659258262890684 0.25881904510252046 0
vn 0.9993908270190958 0.03489949670250083 0
vn 0 0 1
vn 0 0 -1
vn -0.07338324986335872 0.9973038146119225 0
vn 0.5061341821072717 -0.8624547464665049 0
vn 0 0 1
vn 0 0 -1
vn -0.1499667555540451 0.9886910398241674 0
vn 0.560300889296291 -0.8282891484583059 0
vn 0 0 1
vn 0 0 -1
vn -0.2256595767055719 0.9742062181289247 0
vn 0.5874530532287843 -0.8092582469472765 0
vn 0 0 1
vn 0 0 -1
vn -0.30001215751288196 0.9539353779708906 0
vn 0.586997751808255 -0.8095885617843512 0
vn 0 0 1
vn 0 0 -1
vn -0.3725829021441022 0.927998912192185 0
vn 0.5590605754079061 -0.829126813596437 0
vn 0 0 1
vn 0 0 -1
vn -0.44294079747236376 0.8965508629935877 0
vn 0.5079330153364162 -0.8613965706521335 0
vn 0 0 1
vn 0 0 -1
vn -0.5106679729546566 0.859778007045064 0
vn 0.44578780380996624 -0.8951386674556557 0
vn 0 0 1
vn 0 0 -1
vn -0.5753621824540929 0.8178987461792953 0
vn 0.39087804335259374 -0.9204424779554928 0
vn 0 0 1
vn 0 0 -1
vn -0.6366391932654877 0.7711618102566211 0
vn 0.3592762098129655 -0.9332312709411478 0
vn 0 0 1
vn 0 0 -1
vn -0.6941350681553272 0.7198447799053622 0
vn 0.3587512095546346 -0.933433216487975 0
vn 0 0 1
vn 0 0 -1
vn -0.7475083268625965 0.6642524379112822 0
vn 0.38949999489616205 -0.9210264675761983 0
vn 0 0 1
vn 0 0 -1
vn -0.7964419742228724 0.6047149590476274 0
vn 0.4476549795152656 -0.8942063628241456 0
vn -0.5735764363510459 -0.8191520442889921 0
usemtl none
f 55/201/51 53/202/51 54/203/51
f 55/201/51 54/203/51 56/204/51
f 53/205/52 57/206/52 58/207/52
f 53/205/52 58/207/52 54/208/52
f 56/209/53 60/210/53 59/211/53
f 56/209/53 59/211/53 55/212/53
f 55/213/54 59/214/54 57/215/54
f 55/213/54 57/215/54 53/216/54
f 54/217/55 58/218/55 60/219/55
f 54/217/55 60/219/55 56/220/55
f 57/221/56 61/222/56 62/223/56
f 57/221/56 62/223/56 58/224/56
f 60/225/57 64/226/57 63/227/57
f 60/225/57 63/227/57 59/228/57
f 59/229/58 63/230/58 61/231/58
f 59/229/58 61/231/58 57/232/58
f 58/233/59 62/234/59 64/235/59
f 58/233/59 64/235/59 60/236/59
f 61/237/60 65/238/60 66/239/60
f 61/237/60 66/239/60 62/240/60
f 64/241/61 68/242/61 67/243/61
f 64/241/61 67/243/61 63/244/61
f 63/245/62 67/246/62 65/247/62
f 63/245/62 65/247/62 61/248/62
f 62/249/63 66/250/63 68/251/63
f 62/249/63 68/251/63 64/252/63
f 65/253/64 69/254/64 70/255/64
f 65/253/64 70/255/64 66/256/64
f 68/257/65 72/258/65 71/259/65
f 68/257/65 71/259/65 67/260/65
f 67/261/66 71/262/66 69/263/66
f 67/261/66 69/263/66 65/264/66
f 66/265/67 70/266/67 72/267/67
f 66/265/67 72/267/67 68/268/67
f 69/269/68 73/270/68 74/271/68
f 69/269/68 74/271/68 70/272/68
f 72/273/69 76/274/69 75/275/69
f 72/273/69 75/275/69 71/276/69
f 71/277/70 75/278/70 73/279/70
f 71/277/70 73/279/70 69/280/70
f 70/281/71 74/282/71 76/283/71
f 70/281/71 76/283/71 72/284/71
f 73/285/72 77/286/72 78/287/72
f 73/285/72 78/287/72 74/288/72
f 76/289/73 80/290/73 79/291/73
f 76/289/73 79/291/73 75/292/73
f 75/293/74 79/294/74 77/295/74
f 75/293/74 77/295/74 73/296/74
f 74/297/75 78/298/75 80/299/75
f 74/297/75 80/299/75 76/300/75
f 77/301/76 81/302/76 82/303/76
f 77/301/76 82/303/76 78/304/76
f 80/305/77 84/306/77 83/307/77
f 80/305/77 83/307/77 79/308/77
f 79/309/78 83/310/78 81/311/78
f 79/309/78 81/311/78 77/312/78
f 78/313/79 82/314/79 84/315/79
f 78/313/79 84/315/79 80/316/79
f 81/317/80 85/318/80 86/319/80
f 81/317/80 86/319/80 82/320/80
f 84/321/81 88/322/81 87/323/81
f 84/321/81 87/323/81 83/324/81
f 83/325/82 87/326/82 85/327/82
f 83/325/82 85/327/82 81/328/82
f 82/329/83 86/330/83 88/331/83
f 82/329/83 88/331/83 84/332/83
f 85/333/84 89/334/84 90/335/84
f 85/333/84 90/335/84 86/336/84
f 88/337/85 92/338/85 91/339/85
f 88/337/85 91/339/85 87/340/85
f 87/341/86 91/342/86 89/343/86
f 87/341/86 89/343/86 85/344/86
f 86/345/87 90/346/87 92/347/87
f 86/345/87 92/347/87 88/348/87
f 89/349/88 93/350/88 94/351/88
f 89/349/88 94/351/88 90/352/88
f 92/353/89 96/354/89 95/355/89
f 92/353/89 95/355/89 91/356/89
f 91/357/90 95/358/90 93/359/90
f 91/357/90 93/359/90 89/360/90
f 90/361/91 94/362/91 96/363/91
f 90/361/91 96/363/91 92/364/91
f 93/365/92 97/366/92 98/367/92
f 93/365/92 98/367/92 94/368/92
f 96/369/93 100/370/93 99/371/93
f 96/369/93 99/371/93 95/372/93
f 95/373/94 99/374/94 97/375/94
f 95/373/94 97/375/94 93/376/94
f 94/377/95 98/378/95 100/379/95
f 94/377/95 100/379/95 96/380/95
f 97/381/96 101/382/96 102/383/96
f 97/381/96 102/383/96 98/384/96
f 100/385/97 104/386/97 103/387/97
f 100/385/97 103/387/97 99/388/97
f 99/389/98 103/390/98 101/391/98
f 99/389/98 101/391/98 97/392/98
f 98/393/99 102/394/99 104/395/99
f 98/393/99 104/395/99 100/396/99
f 101/397/100 103/398/100 104/399/100
f 101/397/100 104/399/100 102/400/100
f 107/401/101 105/402/101 106/403/101
f 107/401/101 106/403/101 108/404/101
f 105/405/102 109/406/102 110/407/102
f 105/405/102 110/407/102 106/408/102
f 108/409/103 112/410/103 111/411/103
f 108/409/103 111/411/103 107/412/103
f 107/413/104 111/414/104 109/415/104
f 107/413/104 109/415/104 105/416/104
f 106/417/105 110/418/105 112/419/105
f 106/417/105 112/419/105 108/420/105
f 109/421/106 113/422/106 114/423/106
f 109/421/106 114/423/106 110/424/106
f 112/425/107 116/426/107 115/427/107
f 112/425/107 115/427/107 111/428/107
f 111/429/108 115/430/108 113/431/108
f 111/429/108 113/431/108 109/432/108
f 110/433/109 114/434/109 116/435/109
f 110/433/109 116/435/109 112/436/109
f 113/437/110 117/438/110 118/439/110
f 113/437/110 118/439/110 114/440/110
f 116/441/111 120/442/111 119/443/111
f 116/441/111 119/443/111 115/444/111
f 115/445/112 119/446/112 117/447/112
f 115/445/112 117/447/112 113/448/112
f 114/449/113 118/450/113 120/451/113
f 114/449/113 120/451/113 116/452/113
f 117/453/114 121/454/114 122/455/114
f 117/453/114 122/455/114 118/456/114
f 120/457/115 124/458/115 123/459/115
f 120/457/115 123/459/115 119/460/115
f 119/461/116 123/462/116 121/463/116
f 119/461/116 121/463/116 117/464/116
f 118/465/117 122/466/117 124/467/117
f 118/465/117 124/467/117 120/468/117
f 121/469/118 125/470/118 126/471/118
f 121/469/118 126/471/118 122/472/118
f 124/473/119 128/474/119 127/475/119
f 124/473/119 127/475/119 123/476/119
f 123/477/120 127/478/120 125/479/120
f 123/477/120 125/479/120 121/480/120
f 122/481/121 126/482/121 128/483/121
f 122/481/121 128/483/121 124/484/121
f 125/485/122 129/486/122 130/487/122
f 125/485/122 130/487/122 126/488/122
f 128/489/123 132/490/123 131/491/123
f 128/489/123 131/491/123 127/492/123
f 127/493/124 131/494/124 129/495/124
f 127/493/124 129/495/124 125/496/124
f 126/497/125 130/498/125 132/499/125
f 126/497/125 132/499/125 128/500/125
f 129/501/126 133/502/126 134/503/126
f 129/501/126 134/503/126 130/504/126
f 132/505/127 136/506/127 135/507/127
f 132/505/127 135/507/127 131/508/127
f 131/509/128 135/510/128 133/511/128
f 131/509/128 133/511/128 129/512/128
f 130/513/129 134/514/129 136/515/129
f 130/513/129 136/515/129 132/516/129
f 133/517/130 137/518/130 138/519/130
f 133/517/130 138/519/130 134/520/130
f 136/521/131 140/522/131 139/523/131
f 136/521/131 139/523/131 135/524/131
f 135/525/132 139/526/132 137/527/132
f 135/525/132 137/527/132 133/528/132
f 134/529/133 138/530/133 140/531/133
f 134/529/133 140/531/133 136/532/133
f 137/533/134 141/534/134 142/535/134
f 137/533/134 142/535/134 138/536/134
f 140/537/135 144/538/135 143/539/135
f 140/537/135 143/539/135 139/540/135
f 139/541/136 143/542/136 141/543/136
f 139/541/136 141/543/136 137/544/136
f 138/545/137 142/546/137 144/547/137
f 138/545/137 144/547/137 140/548/137
f 141/549/138 145/550/138 146/551/138
f 141/549/138 146/551/138 142/552/138
f 144/553/139 148/554/139 147/555/139
f 144/553/139 147/555/139 143/556/139
f 143/557/140 147/558/140 145/559/140
f 143/557/140 145/559/140 141/560/140
f 142/561/141 146/562/141 148/563/141
f 142/561/141 148/563/141 144/564/141
f 145/565/142 149/566/142 150/567/142
f 145/565/142 150/567/142 146/568/142
f 148/569/143 152/570/143 151/571/143
f 148/569/143 151/571/143 147/572/143
f 147/573/144 151/574/144 149/575/144
f 147/573/144 149/575/144 145/576/144
f 146/577/145 150/578/145 152/579/145
f 146/577/145 152/579/145 148/580/145
f 149/581/146 153/582/146 154/583/146
f 149/581/146 154/583/146 150/584/146
f 152/585/147 156/586/147 155/587/147
f 152/585/147 155/587/147 151/588/147
f 151/589/148 155/590/148 153/591/148
f 151/589/148 153/591/148 149/592/148
f 150/593/149 154/594/149 156/595/149
f 150/593/149 156/595/149 152/596/149
f 153/597/150 155/598/150 156/599/150
f 153/597/150 156/599/150 154/600/150
f 159/601/151 157/602/151 158/603/151
f 159/601/151 158/603/151 160/604/151
f 157/605/152 161/606/152 162/607/152
f 157/605/152 162/607/152 158/608/152
f 160/609/153 164/610/153 163/611/153
f 160/609/153 163/611/153 159/612/153
f 159/613/154 163/614/154 161/615/154
f 159/613/154 161/615/154 157/616/154
f 158/617/155 162/618/155 164/619/155
f 158/617/155 164/619/155 160/620/155
f 161/621/156 165/622/156 166/623/156
f 161/621/156 166/623/156 162/624/156
f 164/625/157 168/626/157 167/627/157
f 164/625/157 167/627/157 163/628/157
f 163/629/158 167/630/158 165/631/158
f 163/629/158 165/631/158 161/632/158
f 162/633/159 166/634/159 168/635/159
f 162/633/159 168/635/159 164/636/159
f 165/637/160 169/638/160 170/639/160
f 165/637/160 170/639/160 166/640/160
f 168/641/161 172/642/161 171/643/161
f 168/641/161 171/643/161 167/644/161
f 167/645/162 171/646/162 169/647/162
f 167/645/162 169/647/162 165/648/162
f 166/649/163 170/650/163 172/651/163
f 166/649/163 172/651/163 168/652/163
f 169/653/164 173/654/164 174/655/164
f 169/653/164 174/655/164 170/656/164
f 172/657/165 176/658/165 175/659/165
f 172/657/165 175/659/165 171/660/165
f 171/661/166 175/662/166 173/663/166
f 171/661/166 173/663/166 169/664/166
f 170/665/167 174/666/167 176/667/167
f 170/665/167 176/667/167 172/668/167
f 173/669/168 177/670/168 178/671/168
f 173/669/168 178/671/168 174/672/168
f 176/673/169 180/674/169 179/675/169
f 176/673/169 179/675/169 175/676/169
f 175/677/170 179/678/170 177/679/170
f 175/677/170 177/679/170 173/680/170
f 174/681/171 178/682/171 180/683/171
f 174/681/171 180/683/171 176/684/171
f 177/685/172 181/686/172 182/687/172
f 177/685/172 182/687/172 178/688/172
f 180/689/173 184/690/173 183/691/173
f 180/689/173 183/691/173 179/692/173
f 179/693/174 183/694/174 181/695/174
f 179/693/174 181/695/174 177/696/174
f 178/697/175 182/698/175 184/699/175
f 178/697/175 184/699/175 180/700/175
f 181/701/176 185/702/176 186/703/176
f 181/701/176 186/703/176 182/704/176
f 184/705/177 188/706/177 187/707/177
f 184/705/177 187/707/177 183/708/177
f 183/709/178 187/710/178 185/711/178
f 183/709/178 185/711/178 181/712/178
f 182/713/179 186/714/179 188/715/179
f 182/713/179 188/715/179 184/716/179
f 185/717/180 189/718/180 190/719/180
f 185/717/180 190/719/180 186/720/180
f 188/721/181 192/722/181 191/723/181
f 188/721/181 191/723/181 187/724/181
f 187/725/182 191/726/182 189/727/182
f 187/725/182 189/727/182 185/728/182
f 186/729/183 190/730/183 192/731/183
f 186/729/183 192/731/183 188/732/183
f 189/733/184 193/734/184 194/735/184
f 189/733/184 194/735/184 190/736/184
f 192/737/185 196/738/185 195/739/185
f 192/737/185 195/739/185 191/740/185
f 191/741/186 195/742/186 193/743/186
f 191/741/186 193/743/186 189/744/186
f 190/745/187 194/746/187 196/747/187
f 190/745/187 196/747/187 192/748/187
f 193/749/188 197/750/188 198/751/188
f 193/749/188 198/751/188 194/752/188
f 196/753/189 200/754/189 199/755/189
f 196/753/189 199/755/189 195/756/189
f 195/757/190 199/758/190 197/759/190
f 195/757/190 197/759/190 193/760/190
f 194/761/191 198/762/191 200/763/191
f 194/761/191 200/763/191 196/764/191
f 197/765/192 201/766/192 202/767/192
f 197/765/192 202/767/192 198/768/192
f 200/769/193 204/770/193 203/771/193
f 200/769/193 203/771/193 199/772/193
f 199/773/194 203/774/194 201/775/194
f 199/773/194 201/775/194 197/776/194
f 198/777/195 202/778/195 204/779/195
f 198/777/195 204/779/195 200/780/195
f 201/781/196 205/782/196 206/783/196
f 201/781/196 206/783/196 202/784/196
f 204/785/197 208/786/197 207/787/197
f 204/785/197 207/787/197 203/788/197
f 203/789/198 207/790/198 205/791/198
f 203/789/198 205/791/198 201/792/198
f 202/793/199 206/794/199 208/795/199
f 202/793/199 208/795/199 204/796/199
f 205/797/200 207/798/200 208/799/200
f 205/797/200 208/799/200 206/800/200
f 211/801/201 209/802/201 210/803/201
f 211/801/201 210/803/201 212/804/201
f 209/805/202 213/806/202 214/807/202
f 209/805/202 214/807/202 210/808/202
f 212/809/203 216/810/203 215/811/203
f 212/809/203 215/811/203 211/812/203
f 211/813/204 215/814/204 213/815/204
f 211/813/204 213/815/204 209/816/204
f 210/817/205 214/818/205 216/819/205
f 210/817/205 216/819/205 212/820/205
f 213/821/206 217/822/206 218/823/206
f 213/821/206 218/823/206 214/824/206
f 216/825/207 220/826/207 219/827/207
f 216/825/207 219/827/207 215/828/207
f 215/829/208 219/830/208 217/831/208
f 215/829/208 217/831/208 213/832/208
f 214/833/209 218/834/209 220/835/209
f 214/833/209 220/835/209 216/836/209
f 217/837/210 221/838/210 222/839/210
f 217/837/210 222/839/210 218/840/210
f 220/841/211 224/842/211 223/843/211
f 220/841/211 223/843/211 219/844/211
f 219/845/212 223/846/212 221/847/212
f 219/845/212 221/847/212 217/848/212
f 218/849/213 222/850/213 224/851/213
f 218/849/213 224/851/213 220/852/213
f 221/853/214 225/854/214 226/855/214
f 221/853/214 226/855/214 222/856/214
f 224/857/215 228/858/215 227/859/215
f 224/857/215 227/859/215 223/860/215
f 223/861/216 227/862/216 225/863/216
f 223/861/216 225/863/216 221/864/216
f 222/865/217 226/866/217 228/867/217
f 222/865/217 228/867/217 224/868/217
f 225/869/218 229/870/218 230/871/218
f 225/869/218 230/871/218 226/872/218
f 228/873/219 232/874/219 231/875/219
f 228/873/219 231/875/219 227/876/219
f 227/877/220 231/878/220 229/879/220
f 227/877/220 229/879/220 225/880/220
f 226/881/221 230/882/221 232/883/221
f 226/881/221 232/883/221 228/884/221
f 229/885/222 233/886/222 234/887/222
f 229/885/222 234/887/222 230/888/222
f 232/889/223 236/890/223 235/891/223
f 232/889/223 235/891/223 231/892/223
f 231/893/224 235/894/224 233/895/224
f 231/893/224 233/895/224 229/896/224
f 230/897/225 234/898/225 236/899/225
f 230/897/225 236/899/225 232/900/225
f 233/901/226 237/902/226 238/903/226
f 233/901/226 238/903/226 234/904/226
f 236/905/227 240/906/227 239/907/227
f 236/905/227 239/907/227 235/908/227
f 235/909/228 239/910/228 237/911/228
f 235/909/228 237/911/228 233/912/228
f 234/913/229 238/914/229 240/915/229
f 234/913/229 240/915/229 236/916/229
f 237/917/230 241/918/230 242/919/230
f 237/917/230 242/919/230 238/920/230
f 240/921/231 244/922/231 243/923/231
f 240/921/231 243/923/231 239/924/231
f 239/925/232 243/926/232 241/927/232
f 239/925/232 241/927/232 237/928/232
f 238/929/233 242/930/233 244/931/233
f 238/929/233 244/931/233 240/932/233
f 241/933/234 245/934/234 246/935/234
f 241/933/234 246/935/234 242/936/234
f 244/937/235 248/938/235 247/939/235
f 244/937/235 247/939/235 243/940/235
f 243/941/236 247/942/236 245/943/236
f 243/941/236 245/943/236 241/944/236
f 242/945/237 246/946/237 248/947/237
f 242/945/237 248/947/237 244/948/237
f 245/949/238 249/950/238 250/951/238
f 245/949/238 250/951/238 246/952/238
f 248/953/239 252/954/239 251/955/239
f 248/953/239 251/955/239 247/956/239
f 247/957/240 251/958/240 249/959/240
f 247/957/240 249/959/240 245/960/240
f 246/961/241 250/962/241 252/963/241
f 246/961/241 252/963/241 248/964/241
f 249/965/242 253/966/242 254/967/242
f 249/965/242 254/967/242 250/968/242
f 252/969/243 256/970/243 255/971/243
f 252/969/243 255/971/243 251/972/243
f 251/973/244 255/974/244 253/975/244
f 251/973/244 253/975/244 249/976/244
f 250/977/245 254/978/245 256/979/245
f 250/977/245 256/979/245 252/980/245
f 253/981/246 257/982/246 258/983/246
f 253/981/246 258/983/246 254/984/246
f 256/985/247 260/986/247 259/987/247
f 256/985/247 259/987/247 255/988/247
f 255/989/248 259/990/248 257/991/248
f 255/989/248 257/991/248 253/992/248
f 254/993/249 258/994/249 260/995/249
f 254/993/249 260/995/249 256/996/249
f 257/997/250 259/998/250 260/999/250
f 257/997/250 260/999/250 258/1000/250
f 263/1001/251 261/1002/251 262/1003/251
f 263/1001/251 262/1003/251 264/1004/251
f 261/1005/252 265/1006/252 266/1007/252
f 261/1005/252 266/1007/252 262/1008/252
f 264/1009/253 268/1010/253 267/1011/253
f 264/1009/253 267/1011/253 263/1012/253
f 263/1013/254 267/1014/254 265/1015/254
f 263/1013/254 265/1015/254 261/1016/254
f 262/1017/255 266/1018/255 268/1019/255
f 262/1017/255 268/1019/255 264/1020/255
f 265/1021/256 269/1022/256 270/1023/256
f 265/1021/256 270/1023/256 266/1024/256
f 268/1025/257 272/1026/257 271/1027/257
f 268/1025/257 271/1027/257 267/1028/257
f 267/1029/258 271/1030/258 269/1031/258
f 267/1029/258 269/1031/258 265/1032/258
f 266/1033/259 270/1034/259 272/1035/259
f 266/1033/259 272/1035/259 268/1036/259
f 269/1037/260 273/1038/260 274/1039/260
f 269/1037/260 274/1039/260 270/1040/260
f 272/1041/261 276/1042/261 275/1043/261
f 272/1041/261 275/1043/261 271/1044/261
f 271/1045/262 275/1046/262 273/1047/262
f 271/1045/262 273/1047/262 269/1048/262
f 270/1049/263 274/1050/263 276/1051/263
f 270/1049/263 276/1051/263 272/1052/263
f 273/1053/264 277/1054/264 278/1055/264
f 273/1053/264 278/1055/264 274/1056/264
f 276/1057/265 280/1058/265 279/1059/265
f 276/1057/265 279/1059/265 275/1060/265
f 275/1061/266 279/1062/266 277/1063/266
f 275/1061/266 277/1063/266 273/1064/266
f 274/1065/267 278/1066/267 280/1067/267
f 274/1065/267 280/1067/267 276/1068/267
f 277/1069/268 281/1070/268 282/1071/268
f 277/1069/268 282/1071/268 278/1072/268
f 280/1073/269 284/1074/269 283/1075/269
f 280/1073/269 283/1075/269 279/1076/269
f 279/1077/270 283/1078/270 281/1079/270
f 279/1077/270 281/1079/270 277/1080/270
f 278/1081/271 282/1082/271 284/1083/271
f 278/1081/271 284/1083/271 280/1084/271
f 281/1085/272 285/1086/272 286/1087/272
f 281/1085/272 286/1087/272 282/1088/272
f 284/1089/273 288/1090/273 287/1091/273
f 284/1089/273 287/1091/273 283/1092/273
f 283/1093/274 287/1094/274 285/1095/274
f 283/1093/274 285/1095/274 281/1096/274
f 282/1097/275 286/1098/275 288/1099/275
f 282/1097/275 288/1099/275 284/1100/275
f 285/1101/276 289/1102/276 290/1103/276
f 285/1101/276 290/1103/276 286/1104/276
f 288/1105/277 292/1106/277 291/1107/277
f 288/1105/277 291/1107/277 287/1108/277
f 287/1109/278 291/1110/278 289/1111/278
f 287/1109/278 289/1111/278 285/1112/278
f 286/1113/279 290/1114/279 292/1115/279
f 286/1113/279 292/1115/279 288/1116/279
f 289/1117/280 293/1118/280 294/1119/280
f 289/1117/280 294/1119/280 290/1120/280
f 292/1121/281 296/1122/281 295/1123/281
f 292/1121/281 295/1123/281 291/1124/281
f 291/1125/282 295/1126/282 293/1127/282
f 291/1125/282 293/1127/282 289/1128/282
f 290/1129/283 294/1130/283 296/1131/283
f 290/1129/283 296/1131/283 292/1132/283
f 293/1133/284 297/1134/284 298/1135/284
f 293/1133/284 298/1135/284 294/1136/284
f 296/1137/285 300/1138/285 299/1139/285
f 296/1137/285 299/1139/285 295/1140/285
f 295/1141/286 299/1142/286 297/1143/286
f 295/1141/286 297/1143/286 293/1144/286
f 294/1145/287 298/1146/287 300/1147/287
f 294/1145/287 300/1147/287 296/1148/287
f 297/1149/288 301/1150/288 302/1151/288
f 297/1149/288 302/1151/288 298/1152/288
f 300/1153/289 304/1154/289 303/1155/289
f 300/1153/289 303/1155/289 299/1156/289
f 299/1157/290 303/1158/290 301/1159/290
f 299/1157/290 301/1159/290 297/1160/290
f 298/1161/291 302/1162/291 304/1163/291
f 298/1161/291 304/1163/291 300/1164/291
f 301/1165/292 305/1166/292 306/1167/292
f 301/1165/292 306/1167/292 302/1168/292
f 304/1169/293 308/1170/293 307/1171/293
f 304/1169/293 307/1171/293 303/1172/293
f 303/1173/294 307/1174/294 305/1175/294
f 303/1173/294 305/1175/294 301/1176/294
f 302/1177/295 306/1178/295 308/1179/295
f 302/1177/295 308/1179/295 304/1180/295
f 305/1181/296 309/1182/296 310/1183/296
f 305/1181/296 310/1183/296 306/1184/296
f 308/1185/297 312/1186/297 311/1187/297
f 308/1185/297 311/1187/297 307/1188/297
f 307/1189/298 311/1190/298 309/1191/298
f 307/1189/298 309/1191/298 305/1192/298
f 306/1193/299 310/1194/299 312/1195/299
f 306/1193/299 312/1195/299 308/1196/299
f 309/1197/300 311/1198/300 312/1199/300
f 309/1197/300 312/1199/300 310/1200/300
o twin_phase_finisher
v -0.4375 -0.0125 0.016875
v -0.3125 0.04375 0.016875
v 0.2375 0.059375 0.016875
v 0.5 0 0.016875
v 0.2375 -0.0325 0.016875
v -0.3125 -0.02375 0.016875
v -0.4375 -0.0125 -0.016875
v -0.3125 0.04375 -0.016875
v 0.2375 0.059375 -0.016875
v 0.5 0 -0.016875
v 0.2375 -0.0325 -0.016875
v -0.3125 -0.02375 -0.016875
vt 0.125 0.875
vt 0.275 0.875
vt 0.425 0.875
vt 0.575 0.875
vt 0.725 0.875
vt 0.875 0.875
vt 0.125 0.125
vt 0.275 0.125
vt 0.425 0.125
vt 0.575 0.125
vt 0.725 0.125
vt 0.875 0.125
vt 0 1
vt 1 1
vt 1 0
vt 0 0
vt 0 1
vt 1 1
vt 1 0
vt 0 0
vt 0 1
vt 1 1
vt 1 0
vt 0 0
vt 0 1
vt 1 1
vt 1 0
vt 0 0
vt 0 1
vt 1 1
vt 1 0
vt 0 0
vt 0 1
vt 1 1
vt 1 0
vt 0 0
vn 0 0 -1
vn 0 0 1
vn -0.41036467732879794 0.9119215051751065 0
vn -0.02839763368969711 0.9995967058773383 0
vn 0.22061724728386523 0.9753604616760359 0
vn 0.12287137011117052 -0.9924226047440696 0
vn -0.015907078002301095 -0.9998734744303545 0
vn -0.0896376994958906 -0.9959744388432288 0
usemtl none
f 313/1201/301 314/1202/301 315/1203/301
f 313/1201/301 315/1203/301 316/1204/301
f 313/1201/301 316/1204/301 317/1205/301
f 313/1201/301 317/1205/301 318/1206/301
f 324/1207/302 323/1208/302 322/1209/302
f 324/1207/302 322/1209/302 321/1210/302
f 324/1207/302 321/1210/302 320/1211/302
f 324/1207/302 320/1211/302 319/1212/302
f 313/1213/303 314/1214/303 320/1215/303
f 313/1213/303 320/1215/303 319/1216/303
f 314/1217/304 315/1218/304 321/1219/304
f 314/1217/304 321/1219/304 320/1220/304
f 315/1221/305 316/1222/305 322/1223/305
f 315/1221/305 322/1223/305 321/1224/305
f 316/1225/306 317/1226/306 323/1227/306
f 316/1225/306 323/1227/306 322/1228/306
f 317/1229/307 318/1230/307 324/1231/307
f 317/1229/307 324/1231/307 323/1232/307
f 318/1233/308 313/1234/308 319/1235/308
f 318/1233/308 319/1235/308 324/1236/308
