<svg xmlns="http://www.w3.org/2000/svg" width="16" height="16" viewBox="0 0 16 16" shape-rendering="crispEdges"><path d="M2 1h9v1h2v2h1v10H2z" fill="#292331"/><rect x="3" y="2" width="8" height="11" fill="#ebd4a2"/><rect x="11" y="4" width="2" height="9" fill="#b99a6b"/><rect x="3" y="2" width="7" height="1" fill="#fff0cb"/><rect x="3" y="3" width="1" height="9" fill="#fff0cb"/><rect x="4" y="4" width="8" height="8" fill="#443451"/><rect x="4" y="4" width="8" height="1" fill="#ffffff18"/><path d="M8 4h2v2H8v2h2v1H8v3H6V9H5V8h2V6h1z" fill="#b69bc9"/><rect x="11" y="2" width="1" height="1" fill="#fff0cb"/><rect x="11" y="3" width="2" height="1" fill="#b98047"/></svg>