<svg xmlns="http://www.w3.org/2000/svg" width="16" height="16" viewBox="0 0 16 16" shape-rendering="crispEdges"><path d="M3 1h10v2h1v11h-1v1H3v-1H2V2h1z" fill="#292331"/><rect x="3" y="2" width="10" height="11" fill="#b98047"/><rect x="4" y="3" width="8" height="9" fill="#343a66"/><rect x="3" y="2" width="1" height="11" fill="#825641"/><rect x="4" y="3" width="8" height="1" fill="#555787"/><rect x="4" y="4" width="1" height="7" fill="#424875"/><rect x="4" y="13" width="9" height="1" fill="#ebd4a2"/><rect x="5" y="13" width="7" height="1" fill="#fff0cb"/><rect x="11" y="3" width="1" height="1" fill="#f0ca82"/><rect x="4" y="11" width="1" height="1" fill="#f0ca82"/><rect x="3" y="4" width="1" height="1" fill="#f0ca82"/><rect x="3" y="9" width="1" height="1" fill="#f0ca82"/><rect x="12" y="5" width="1" height="7" fill="#775743"/><rect x="6" y="5" width="5" height="1" fill="#f0ca82"/><rect x="7" y="7" width="3" height="1" fill="#b98047"/><path d="M7 8h3v1H9v1H8V9H7z" fill="#f0ca82"/><rect x="6" y="11" width="5" height="1" fill="#b98047"/><rect x="6" y="6" width="1" height="3" fill="#6c6596"/><rect x="10" y="7" width="1" height="2" fill="#6c6596"/></svg>