<svg xmlns="http://www.w3.org/2000/svg" width="16" height="16" viewBox="0 0 16 16" shape-rendering="crispEdges"><path d="M3 1h8v1h2v11h-1v2H3v-1H2V3h1z" fill="#292331"/><rect x="3" y="2" width="9" height="11" fill="#b99a6b"/><rect x="3" y="2" width="8" height="10" fill="#ebd4a2"/><rect x="3" y="2" width="7" height="1" fill="#fff0cb"/><rect x="3" y="3" width="1" height="8" fill="#fff0cb"/><rect x="10" y="2" width="1" height="2" fill="#b99a6b"/><rect x="11" y="3" width="1" height="1" fill="#b98047"/><rect x="4" y="13" width="7" height="1" fill="#b99a6b"/><rect x="3" y="12" width="2" height="1" fill="#b98047"/><rect x="7" y="4" width="2" height="7" fill="#4b3440"/><rect x="6" y="10" width="4" height="1" fill="#4b3440"/><rect x="7" y="11" width="1" height="2" fill="#4b3440"/><rect x="10" y="12" width="2" height="1" fill="#b98047"/></svg>