# Blade Tetra Dead Thought - authored in Blockbench; units are blocks
v -0.255000 0.000000 0.035000
v -0.200000 0.000000 0.035000
v -0.160000 0.260000 0.035000
v -0.290000 0.468000 0.035000
v -0.205000 0.650000 0.035000
v -0.340000 0.468000 0.035000
v -0.235000 0.234000 0.035000
v -0.255000 0.000000 -0.035000
v -0.200000 0.000000 -0.035000
v -0.160000 0.260000 -0.035000
v -0.290000 0.468000 -0.035000
v -0.205000 0.650000 -0.035000
v -0.340000 0.468000 -0.035000
v -0.235000 0.234000 -0.035000
vt 0.031250 0.687500
vt 0.050781 0.566406
vt 0.070313 0.445313
vt 0.031250 0.687500
vt 0.050781 0.566406
vt 0.070313 0.445313
vt 0.031250 0.687500
vt 0.050781 0.566406
vt 0.070313 0.445313
vt 0.031250 0.687500
vt 0.050781 0.566406
vt 0.070313 0.445313
vt 0.031250 0.687500
vt 0.050781 0.566406
vt 0.070313 0.445313
vt 0.031250 0.687500
vt 0.050781 0.566406
vt 0.070313 0.445313
vt 0.031250 0.687500
vt 0.050781 0.566406
vt 0.070313 0.445313
vt 0.031250 0.687500
vt 0.050781 0.566406
vt 0.070313 0.445313
vt 0.031250 0.687500
vt 0.050781 0.566406
vt 0.070313 0.445313
vt 0.031250 0.687500
vt 0.050781 0.566406
vt 0.070313 0.445313
vt 0.031250 0.687500
vt 0.050781 0.566406
vt 0.070313 0.445313
vt 0.031250 0.687500
vt 0.050781 0.566406
vt 0.070313 0.445313
vt 0.031250 0.687500
vt 0.050781 0.566406
vt 0.070313 0.445313
vt 0.031250 0.687500
vt 0.050781 0.566406
vt 0.070313 0.445313
vt 0.031250 0.687500
vt 0.050781 0.566406
vt 0.070313 0.445313
vt 0.031250 0.687500
vt 0.050781 0.566406
vt 0.070313 0.445313
vt 0.031250 0.687500
vt 0.050781 0.566406
vt 0.070313 0.445313
vt 0.031250 0.687500
vt 0.050781 0.566406
vt 0.070313 0.445313
vt 0.031250 0.687500
vt 0.050781 0.566406
vt 0.070313 0.445313
vt 0.031250 0.687500
vt 0.050781 0.566406
vt 0.070313 0.445313
vt 0.031250 0.687500
vt 0.050781 0.566406
vt 0.070313 0.445313
vt 0.031250 0.687500
vt 0.050781 0.566406
vt 0.070313 0.445313
vt 0.031250 0.687500
vt 0.050781 0.566406
vt 0.070313 0.445313
vt 0.031250 0.687500
vt 0.050781 0.566406
vt 0.070313 0.445313
v -0.235000 0.050000 0.037500
v -0.195000 0.260000 0.037500
v -0.305000 0.468000 0.037500
v -0.230000 0.559000 0.037500
v -0.290000 0.455000 0.037500
v -0.175000 0.260000 0.037500
v -0.235000 0.050000 -0.037500
v -0.195000 0.260000 -0.037500
v -0.305000 0.468000 -0.037500
v -0.230000 0.559000 -0.037500
v -0.290000 0.455000 -0.037500
v -0.175000 0.260000 -0.037500
vt 0.406250 0.687500
vt 0.425781 0.566406
vt 0.445313 0.445313
vt 0.406250 0.687500
vt 0.425781 0.566406
vt 0.445313 0.445313
vt 0.406250 0.687500
vt 0.425781 0.566406
vt 0.445313 0.445313
vt 0.406250 0.687500
vt 0.425781 0.566406
vt 0.445313 0.445313
vt 0.406250 0.687500
vt 0.425781 0.566406
vt 0.445313 0.445313
vt 0.406250 0.687500
vt 0.425781 0.566406
vt 0.445313 0.445313
vt 0.406250 0.687500
vt 0.425781 0.566406
vt 0.445313 0.445313
vt 0.406250 0.687500
vt 0.425781 0.566406
vt 0.445313 0.445313
vt 0.281250 0.687500
vt 0.300781 0.566406
vt 0.320313 0.445313
vt 0.281250 0.687500
vt 0.300781 0.566406
vt 0.320313 0.445313
vt 0.281250 0.687500
vt 0.300781 0.566406
vt 0.320313 0.445313
vt 0.281250 0.687500
vt 0.300781 0.566406
vt 0.320313 0.445313
vt 0.281250 0.687500
vt 0.300781 0.566406
vt 0.320313 0.445313
vt 0.281250 0.687500
vt 0.300781 0.566406
vt 0.320313 0.445313
vt 0.281250 0.687500
vt 0.300781 0.566406
vt 0.320313 0.445313
vt 0.281250 0.687500
vt 0.300781 0.566406
vt 0.320313 0.445313
vt 0.281250 0.687500
vt 0.300781 0.566406
vt 0.320313 0.445313
vt 0.281250 0.687500
vt 0.300781 0.566406
vt 0.320313 0.445313
vt 0.281250 0.687500
vt 0.300781 0.566406
vt 0.320313 0.445313
vt 0.281250 0.687500
vt 0.300781 0.566406
vt 0.320313 0.445313
v -0.210000 0.260000 0.015000
v 0.000000 0.429000 0.015000
v -0.130000 0.286000 0.015000
v -0.210000 0.260000 -0.015000
v 0.000000 0.429000 -0.015000
v -0.130000 0.286000 -0.015000
vt 0.281250 0.687500
vt 0.300781 0.566406
vt 0.320313 0.445313
vt 0.281250 0.687500
vt 0.300781 0.566406
vt 0.320313 0.445313
vt 0.156250 0.687500
vt 0.175781 0.566406
vt 0.195313 0.445313
vt 0.156250 0.687500
vt 0.175781 0.566406
vt 0.195313 0.445313
vt 0.156250 0.687500
vt 0.175781 0.566406
vt 0.195313 0.445313
vt 0.156250 0.687500
vt 0.175781 0.566406
vt 0.195313 0.445313
vt 0.156250 0.687500
vt 0.175781 0.566406
vt 0.195313 0.445313
vt 0.156250 0.687500
vt 0.175781 0.566406
vt 0.195313 0.445313
v -0.035000 0.000000 0.035000
v 0.020000 0.000000 0.035000
v 0.060000 0.308000 0.035000
v -0.070000 0.554400 0.035000
v 0.015000 0.770000 0.035000
v -0.120000 0.554400 0.035000
v -0.015000 0.277200 0.035000
v -0.035000 0.000000 -0.035000
v 0.020000 0.000000 -0.035000
v 0.060000 0.308000 -0.035000
v -0.070000 0.554400 -0.035000
v 0.015000 0.770000 -0.035000
v -0.120000 0.554400 -0.035000
v -0.015000 0.277200 -0.035000
vt 0.031250 0.687500
vt 0.050781 0.566406
vt 0.070313 0.445313
vt 0.031250 0.687500
vt 0.050781 0.566406
vt 0.070313 0.445313
vt 0.031250 0.687500
vt 0.050781 0.566406
vt 0.070313 0.445313
vt 0.031250 0.687500
vt 0.050781 0.566406
vt 0.070313 0.445313
vt 0.031250 0.687500
vt 0.050781 0.566406
vt 0.070313 0.445313
vt 0.031250 0.687500
vt 0.050781 0.566406
vt 0.070313 0.445313
vt 0.031250 0.687500
vt 0.050781 0.566406
vt 0.070313 0.445313
vt 0.031250 0.687500
vt 0.050781 0.566406
vt 0.070313 0.445313
vt 0.031250 0.687500
vt 0.050781 0.566406
vt 0.070313 0.445313
vt 0.031250 0.687500
vt 0.050781 0.566406
vt 0.070313 0.445313
vt 0.031250 0.687500
vt 0.050781 0.566406
vt 0.070313 0.445313
vt 0.031250 0.687500
vt 0.050781 0.566406
vt 0.070313 0.445313
vt 0.031250 0.687500
vt 0.050781 0.566406
vt 0.070313 0.445313
vt 0.031250 0.687500
vt 0.050781 0.566406
vt 0.070313 0.445313
vt 0.031250 0.687500
vt 0.050781 0.566406
vt 0.070313 0.445313
vt 0.031250 0.687500
vt 0.050781 0.566406
vt 0.070313 0.445313
vt 0.031250 0.687500
vt 0.050781 0.566406
vt 0.070313 0.445313
vt 0.031250 0.687500
vt 0.050781 0.566406
vt 0.070313 0.445313
vt 0.031250 0.687500
vt 0.050781 0.566406
vt 0.070313 0.445313
vt 0.031250 0.687500
vt 0.050781 0.566406
vt 0.070313 0.445313
vt 0.031250 0.687500
vt 0.050781 0.566406
vt 0.070313 0.445313
vt 0.031250 0.687500
vt 0.050781 0.566406
vt 0.070313 0.445313
vt 0.031250 0.687500
vt 0.050781 0.566406
vt 0.070313 0.445313
vt 0.031250 0.687500
vt 0.050781 0.566406
vt 0.070313 0.445313
v -0.015000 0.050000 0.037500
v 0.025000 0.308000 0.037500
v -0.085000 0.554400 0.037500
v -0.010000 0.662200 0.037500
v -0.070000 0.539000 0.037500
v 0.045000 0.308000 0.037500
v -0.015000 0.050000 -0.037500
v 0.025000 0.308000 -0.037500
v -0.085000 0.554400 -0.037500
v -0.010000 0.662200 -0.037500
v -0.070000 0.539000 -0.037500
v 0.045000 0.308000 -0.037500
vt 0.406250 0.687500
vt 0.425781 0.566406
vt 0.445313 0.445313
vt 0.406250 0.687500
vt 0.425781 0.566406
vt 0.445313 0.445313
vt 0.406250 0.687500
vt 0.425781 0.566406
vt 0.445313 0.445313
vt 0.406250 0.687500
vt 0.425781 0.566406
vt 0.445313 0.445313
vt 0.406250 0.687500
vt 0.425781 0.566406
vt 0.445313 0.445313
vt 0.406250 0.687500
vt 0.425781 0.566406
vt 0.445313 0.445313
vt 0.406250 0.687500
vt 0.425781 0.566406
vt 0.445313 0.445313
vt 0.406250 0.687500
vt 0.425781 0.566406
vt 0.445313 0.445313
vt 0.281250 0.687500
vt 0.300781 0.566406
vt 0.320313 0.445313
vt 0.281250 0.687500
vt 0.300781 0.566406
vt 0.320313 0.445313
vt 0.281250 0.687500
vt 0.300781 0.566406
vt 0.320313 0.445313
vt 0.281250 0.687500
vt 0.300781 0.566406
vt 0.320313 0.445313
vt 0.281250 0.687500
vt 0.300781 0.566406
vt 0.320313 0.445313
vt 0.281250 0.687500
vt 0.300781 0.566406
vt 0.320313 0.445313
vt 0.281250 0.687500
vt 0.300781 0.566406
vt 0.320313 0.445313
vt 0.281250 0.687500
vt 0.300781 0.566406
vt 0.320313 0.445313
vt 0.281250 0.687500
vt 0.300781 0.566406
vt 0.320313 0.445313
vt 0.281250 0.687500
vt 0.300781 0.566406
vt 0.320313 0.445313
vt 0.281250 0.687500
vt 0.300781 0.566406
vt 0.320313 0.445313
vt 0.281250 0.687500
vt 0.300781 0.566406
vt 0.320313 0.445313
v 0.010000 0.308000 0.015000
v 0.220000 0.508200 0.015000
v 0.090000 0.338800 0.015000
v 0.010000 0.308000 -0.015000
v 0.220000 0.508200 -0.015000
v 0.090000 0.338800 -0.015000
vt 0.281250 0.687500
vt 0.300781 0.566406
vt 0.320313 0.445313
vt 0.281250 0.687500
vt 0.300781 0.566406
vt 0.320313 0.445313
vt 0.156250 0.687500
vt 0.175781 0.566406
vt 0.195313 0.445313
vt 0.156250 0.687500
vt 0.175781 0.566406
vt 0.195313 0.445313
vt 0.156250 0.687500
vt 0.175781 0.566406
vt 0.195313 0.445313
vt 0.156250 0.687500
vt 0.175781 0.566406
vt 0.195313 0.445313
vt 0.156250 0.687500
vt 0.175781 0.566406
vt 0.195313 0.445313
vt 0.156250 0.687500
vt 0.175781 0.566406
vt 0.195313 0.445313
v 0.185000 0.000000 0.035000
v 0.240000 0.000000 0.035000
v 0.280000 0.356000 0.035000
v 0.150000 0.640800 0.035000
v 0.235000 0.890000 0.035000
v 0.100000 0.640800 0.035000
v 0.205000 0.320400 0.035000
v 0.185000 0.000000 -0.035000
v 0.240000 0.000000 -0.035000
v 0.280000 0.356000 -0.035000
v 0.150000 0.640800 -0.035000
v 0.235000 0.890000 -0.035000
v 0.100000 0.640800 -0.035000
v 0.205000 0.320400 -0.035000
vt 0.031250 0.687500
vt 0.050781 0.566406
vt 0.070313 0.445313
vt 0.031250 0.687500
vt 0.050781 0.566406
vt 0.070313 0.445313
vt 0.031250 0.687500
vt 0.050781 0.566406
vt 0.070313 0.445313
vt 0.031250 0.687500
vt 0.050781 0.566406
vt 0.070313 0.445313
vt 0.031250 0.687500
vt 0.050781 0.566406
vt 0.070313 0.445313
vt 0.031250 0.687500
vt 0.050781 0.566406
vt 0.070313 0.445313
vt 0.031250 0.687500
vt 0.050781 0.566406
vt 0.070313 0.445313
vt 0.031250 0.687500
vt 0.050781 0.566406
vt 0.070313 0.445313
vt 0.031250 0.687500
vt 0.050781 0.566406
vt 0.070313 0.445313
vt 0.031250 0.687500
vt 0.050781 0.566406
vt 0.070313 0.445313
vt 0.031250 0.687500
vt 0.050781 0.566406
vt 0.070313 0.445313
vt 0.031250 0.687500
vt 0.050781 0.566406
vt 0.070313 0.445313
vt 0.031250 0.687500
vt 0.050781 0.566406
vt 0.070313 0.445313
vt 0.031250 0.687500
vt 0.050781 0.566406
vt 0.070313 0.445313
vt 0.031250 0.687500
vt 0.050781 0.566406
vt 0.070313 0.445313
vt 0.031250 0.687500
vt 0.050781 0.566406
vt 0.070313 0.445313
vt 0.031250 0.687500
vt 0.050781 0.566406
vt 0.070313 0.445313
vt 0.031250 0.687500
vt 0.050781 0.566406
vt 0.070313 0.445313
vt 0.031250 0.687500
vt 0.050781 0.566406
vt 0.070313 0.445313
vt 0.031250 0.687500
vt 0.050781 0.566406
vt 0.070313 0.445313
vt 0.031250 0.687500
vt 0.050781 0.566406
vt 0.070313 0.445313
vt 0.031250 0.687500
vt 0.050781 0.566406
vt 0.070313 0.445313
vt 0.031250 0.687500
vt 0.050781 0.566406
vt 0.070313 0.445313
vt 0.031250 0.687500
vt 0.050781 0.566406
vt 0.070313 0.445313
v 0.205000 0.050000 0.037500
v 0.245000 0.356000 0.037500
v 0.135000 0.640800 0.037500
v 0.210000 0.765400 0.037500
v 0.150000 0.623000 0.037500
v 0.265000 0.356000 0.037500
v 0.205000 0.050000 -0.037500
v 0.245000 0.356000 -0.037500
v 0.135000 0.640800 -0.037500
v 0.210000 0.765400 -0.037500
v 0.150000 0.623000 -0.037500
v 0.265000 0.356000 -0.037500
vt 0.406250 0.687500
vt 0.425781 0.566406
vt 0.445313 0.445313
vt 0.406250 0.687500
vt 0.425781 0.566406
vt 0.445313 0.445313
vt 0.406250 0.687500
vt 0.425781 0.566406
vt 0.445313 0.445313
vt 0.406250 0.687500
vt 0.425781 0.566406
vt 0.445313 0.445313
vt 0.406250 0.687500
vt 0.425781 0.566406
vt 0.445313 0.445313
vt 0.406250 0.687500
vt 0.425781 0.566406
vt 0.445313 0.445313
vt 0.406250 0.687500
vt 0.425781 0.566406
vt 0.445313 0.445313
vt 0.406250 0.687500
vt 0.425781 0.566406
vt 0.445313 0.445313
vt 0.281250 0.687500
vt 0.300781 0.566406
vt 0.320313 0.445313
vt 0.281250 0.687500
vt 0.300781 0.566406
vt 0.320313 0.445313
vt 0.281250 0.687500
vt 0.300781 0.566406
vt 0.320313 0.445313
vt 0.281250 0.687500
vt 0.300781 0.566406
vt 0.320313 0.445313
vt 0.281250 0.687500
vt 0.300781 0.566406
vt 0.320313 0.445313
vt 0.281250 0.687500
vt 0.300781 0.566406
vt 0.320313 0.445313
vt 0.281250 0.687500
vt 0.300781 0.566406
vt 0.320313 0.445313
vt 0.281250 0.687500
vt 0.300781 0.566406
vt 0.320313 0.445313
vt 0.281250 0.687500
vt 0.300781 0.566406
vt 0.320313 0.445313
vt 0.281250 0.687500
vt 0.300781 0.566406
vt 0.320313 0.445313
vt 0.281250 0.687500
vt 0.300781 0.566406
vt 0.320313 0.445313
vt 0.281250 0.687500
vt 0.300781 0.566406
vt 0.320313 0.445313
v 0.230000 0.356000 0.015000
v 0.440000 0.587400 0.015000
v 0.310000 0.391600 0.015000
v 0.230000 0.356000 -0.015000
v 0.440000 0.587400 -0.015000
v 0.310000 0.391600 -0.015000
vt 0.281250 0.687500
vt 0.300781 0.566406
vt 0.320313 0.445313
vt 0.281250 0.687500
vt 0.300781 0.566406
vt 0.320313 0.445313
vt 0.156250 0.687500
vt 0.175781 0.566406
vt 0.195313 0.445313
vt 0.156250 0.687500
vt 0.175781 0.566406
vt 0.195313 0.445313
vt 0.156250 0.687500
vt 0.175781 0.566406
vt 0.195313 0.445313
vt 0.156250 0.687500
vt 0.175781 0.566406
vt 0.195313 0.445313
vt 0.156250 0.687500
vt 0.175781 0.566406
vt 0.195313 0.445313
vt 0.156250 0.687500
vt 0.175781 0.566406
vt 0.195313 0.445313
g branch
f 7/1 1/2 2/3
f 9/4 8/5 14/6
f 4/7 5/8 6/9
f 13/10 12/11 11/12
f 7/13 2/14 3/15
f 10/16 9/17 14/18
f 3/19 4/20 6/21
f 13/22 11/23 10/24
f 6/25 7/26 3/27
f 10/28 14/29 13/30
f 1/31 8/32 9/33
f 1/34 9/35 2/36
f 2/37 9/38 10/39
f 2/40 10/41 3/42
f 3/43 10/44 11/45
f 3/46 11/47 4/48
f 4/49 11/50 12/51
f 4/52 12/53 5/54
f 5/55 12/56 13/57
f 5/58 13/59 6/60
f 6/61 13/62 14/63
f 6/64 14/65 7/66
f 7/67 14/68 8/69
f 7/70 8/71 1/72
f 39/157 33/158 34/159
f 41/160 40/161 46/162
f 36/163 37/164 38/165
f 45/166 44/167 43/168
f 39/169 34/170 35/171
f 42/172 41/173 46/174
f 35/175 36/176 38/177
f 45/178 43/179 42/180
f 38/181 39/182 35/183
f 42/184 46/185 45/186
f 33/187 40/188 41/189
f 33/190 41/191 34/192
f 34/193 41/194 42/195
f 34/196 42/197 35/198
f 35/199 42/200 43/201
f 35/202 43/203 36/204
f 36/205 43/206 44/207
f 36/208 44/209 37/210
f 37/211 44/212 45/213
f 37/214 45/215 38/216
f 38/217 45/218 46/219
f 38/220 46/221 39/222
f 39/223 46/224 40/225
f 39/226 40/227 33/228
f 71/313 65/314 66/315
f 73/316 72/317 78/318
f 68/319 69/320 70/321
f 77/322 76/323 75/324
f 71/325 66/326 67/327
f 74/328 73/329 78/330
f 67/331 68/332 70/333
f 77/334 75/335 74/336
f 70/337 71/338 67/339
f 74/340 78/341 77/342
f 65/343 72/344 73/345
f 65/346 73/347 66/348
f 66/349 73/350 74/351
f 66/352 74/353 67/354
f 67/355 74/356 75/357
f 67/358 75/359 68/360
f 68/361 75/362 76/363
f 68/364 76/365 69/366
f 69/367 76/368 77/369
f 69/370 77/371 70/372
f 70/373 77/374 78/375
f 70/376 78/377 71/378
f 71/379 78/380 72/381
f 71/382 72/383 65/384
g edge
f 16/73 15/74 20/75
f 26/76 21/77 22/78
f 19/79 18/80 17/81
f 23/82 24/83 25/84
f 17/85 16/86 20/87
f 26/88 22/89 23/90
f 20/91 19/92 17/93
f 23/94 25/95 26/96
f 15/97 21/98 22/99
f 15/100 22/101 16/102
f 16/103 22/104 23/105
f 16/106 23/107 17/108
f 17/109 23/110 24/111
f 17/112 24/113 18/114
f 18/115 24/116 25/117
f 18/118 25/119 19/120
f 19/121 25/122 26/123
f 19/124 26/125 20/126
f 20/127 26/128 21/129
f 20/130 21/131 15/132
f 48/229 47/230 52/231
f 58/232 53/233 54/234
f 51/235 50/236 49/237
f 55/238 56/239 57/240
f 49/241 48/242 52/243
f 58/244 54/245 55/246
f 52/247 51/248 49/249
f 55/250 57/251 58/252
f 47/253 53/254 54/255
f 47/256 54/257 48/258
f 48/259 54/260 55/261
f 48/262 55/263 49/264
f 49/265 55/266 56/267
f 49/268 56/269 50/270
f 50/271 56/272 57/273
f 50/274 57/275 51/276
f 51/277 57/278 58/279
f 51/280 58/281 52/282
f 52/283 58/284 53/285
f 52/286 53/287 47/288
f 80/385 79/386 84/387
f 90/388 85/389 86/390
f 83/391 82/392 81/393
f 87/394 88/395 89/396
f 81/397 80/398 84/399
f 90/400 86/401 87/402
f 84/403 83/404 81/405
f 87/406 89/407 90/408
f 79/409 85/410 86/411
f 79/412 86/413 80/414
f 80/415 86/416 87/417
f 80/418 87/419 81/420
f 81/421 87/422 88/423
f 81/424 88/425 82/426
f 82/427 88/428 89/429
f 82/430 89/431 83/432
f 83/433 89/434 90/435
f 83/436 90/437 84/438
f 84/439 90/440 85/441
f 84/442 85/443 79/444
g thorns
f 28/133 27/134 29/135
f 32/136 30/137 31/138
f 27/139 30/140 31/141
f 27/142 31/143 28/144
f 28/145 31/146 32/147
f 28/148 32/149 29/150
f 29/151 32/152 30/153
f 29/154 30/155 27/156
f 60/289 59/290 61/291
f 64/292 62/293 63/294
f 59/295 62/296 63/297
f 59/298 63/299 60/300
f 60/301 63/302 64/303
f 60/304 64/305 61/306
f 61/307 64/308 62/309
f 61/310 62/311 59/312
f 92/445 91/446 93/447
f 96/448 94/449 95/450
f 91/451 94/452 95/453
f 91/454 95/455 92/456
f 92/457 95/458 96/459
f 92/460 96/461 93/462
f 93/463 96/464 94/465
f 93/466 94/467 91/468
