# Blade Tetra Dead Thought - authored in Blockbench; units are blocks
v 0.000000 0.950000 0.022500
v 0.110000 0.850000 0.022500
v 0.080000 0.720000 0.022500
v -0.070000 0.700000 0.022500
v -0.120000 0.820000 0.022500
v 0.000000 0.950000 -0.022500
v 0.110000 0.850000 -0.022500
v 0.080000 0.720000 -0.022500
v -0.070000 0.700000 -0.022500
v -0.120000 0.820000 -0.022500
vt 0.531250 0.687500
vt 0.550781 0.566406
vt 0.570313 0.445313
vt 0.531250 0.687500
vt 0.550781 0.566406
vt 0.570313 0.445313
vt 0.531250 0.687500
vt 0.550781 0.566406
vt 0.570313 0.445313
vt 0.531250 0.687500
vt 0.550781 0.566406
vt 0.570313 0.445313
vt 0.531250 0.687500
vt 0.550781 0.566406
vt 0.570313 0.445313
vt 0.531250 0.687500
vt 0.550781 0.566406
vt 0.570313 0.445313
vt 0.406250 0.687500
vt 0.425781 0.566406
vt 0.445313 0.445313
vt 0.406250 0.687500
vt 0.425781 0.566406
vt 0.445313 0.445313
vt 0.406250 0.687500
vt 0.425781 0.566406
vt 0.445313 0.445313
vt 0.406250 0.687500
vt 0.425781 0.566406
vt 0.445313 0.445313
vt 0.406250 0.687500
vt 0.425781 0.566406
vt 0.445313 0.445313
vt 0.406250 0.687500
vt 0.425781 0.566406
vt 0.445313 0.445313
vt 0.406250 0.687500
vt 0.425781 0.566406
vt 0.445313 0.445313
vt 0.406250 0.687500
vt 0.425781 0.566406
vt 0.445313 0.445313
vt 0.406250 0.687500
vt 0.425781 0.566406
vt 0.445313 0.445313
vt 0.406250 0.687500
vt 0.425781 0.566406
vt 0.445313 0.445313
v 0.000000 0.690000 0.022500
v 0.170000 0.610000 0.022500
v 0.130000 0.370000 0.022500
v -0.110000 0.350000 0.022500
v -0.180000 0.590000 0.022500
v 0.000000 0.690000 -0.022500
v 0.170000 0.610000 -0.022500
v 0.130000 0.370000 -0.022500
v -0.110000 0.350000 -0.022500
v -0.180000 0.590000 -0.022500
vt 0.281250 0.687500
vt 0.300781 0.566406
vt 0.320313 0.445313
vt 0.281250 0.687500
vt 0.300781 0.566406
vt 0.320313 0.445313
vt 0.281250 0.687500
vt 0.300781 0.566406
vt 0.320313 0.445313
vt 0.281250 0.687500
vt 0.300781 0.566406
vt 0.320313 0.445313
vt 0.281250 0.687500
vt 0.300781 0.566406
vt 0.320313 0.445313
vt 0.281250 0.687500
vt 0.300781 0.566406
vt 0.320313 0.445313
vt 0.156250 0.687500
vt 0.175781 0.566406
vt 0.195313 0.445313
vt 0.156250 0.687500
vt 0.175781 0.566406
vt 0.195313 0.445313
vt 0.156250 0.687500
vt 0.175781 0.566406
vt 0.195313 0.445313
vt 0.156250 0.687500
vt 0.175781 0.566406
vt 0.195313 0.445313
vt 0.156250 0.687500
vt 0.175781 0.566406
vt 0.195313 0.445313
vt 0.156250 0.687500
vt 0.175781 0.566406
vt 0.195313 0.445313
vt 0.156250 0.687500
vt 0.175781 0.566406
vt 0.195313 0.445313
vt 0.156250 0.687500
vt 0.175781 0.566406
vt 0.195313 0.445313
vt 0.156250 0.687500
vt 0.175781 0.566406
vt 0.195313 0.445313
vt 0.156250 0.687500
vt 0.175781 0.566406
vt 0.195313 0.445313
v 0.100000 0.590000 0.022500
v 0.300000 0.290000 0.022500
v 0.210000 0.350000 0.022500
v 0.100000 0.590000 -0.022500
v 0.300000 0.290000 -0.022500
v 0.210000 0.350000 -0.022500
vt 0.281250 0.687500
vt 0.300781 0.566406
vt 0.320313 0.445313
vt 0.281250 0.687500
vt 0.300781 0.566406
vt 0.320313 0.445313
vt 0.156250 0.687500
vt 0.175781 0.566406
vt 0.195313 0.445313
vt 0.156250 0.687500
vt 0.175781 0.566406
vt 0.195313 0.445313
vt 0.156250 0.687500
vt 0.175781 0.566406
vt 0.195313 0.445313
vt 0.156250 0.687500
vt 0.175781 0.566406
vt 0.195313 0.445313
vt 0.156250 0.687500
vt 0.175781 0.566406
vt 0.195313 0.445313
vt 0.156250 0.687500
vt 0.175781 0.566406
vt 0.195313 0.445313
v -0.120000 0.580000 0.022500
v -0.300000 0.310000 0.022500
v -0.230000 0.280000 0.022500
v -0.120000 0.580000 -0.022500
v -0.300000 0.310000 -0.022500
v -0.230000 0.280000 -0.022500
vt 0.281250 0.687500
vt 0.300781 0.566406
vt 0.320313 0.445313
vt 0.281250 0.687500
vt 0.300781 0.566406
vt 0.320313 0.445313
vt 0.156250 0.687500
vt 0.175781 0.566406
vt 0.195313 0.445313
vt 0.156250 0.687500
vt 0.175781 0.566406
vt 0.195313 0.445313
vt 0.156250 0.687500
vt 0.175781 0.566406
vt 0.195313 0.445313
vt 0.156250 0.687500
vt 0.175781 0.566406
vt 0.195313 0.445313
vt 0.156250 0.687500
vt 0.175781 0.566406
vt 0.195313 0.445313
vt 0.156250 0.687500
vt 0.175781 0.566406
vt 0.195313 0.445313
v 0.020000 0.360000 0.022500
v 0.130000 0.320000 0.022500
v 0.160000 0.000000 0.022500
v 0.040000 0.080000 0.022500
v 0.020000 0.360000 -0.022500
v 0.130000 0.320000 -0.022500
v 0.160000 0.000000 -0.022500
v 0.040000 0.080000 -0.022500
vt 0.281250 0.687500
vt 0.300781 0.566406
vt 0.320313 0.445313
vt 0.281250 0.687500
vt 0.300781 0.566406
vt 0.320313 0.445313
vt 0.281250 0.687500
vt 0.300781 0.566406
vt 0.320313 0.445313
vt 0.281250 0.687500
vt 0.300781 0.566406
vt 0.320313 0.445313
vt 0.156250 0.687500
vt 0.175781 0.566406
vt 0.195313 0.445313
vt 0.156250 0.687500
vt 0.175781 0.566406
vt 0.195313 0.445313
vt 0.156250 0.687500
vt 0.175781 0.566406
vt 0.195313 0.445313
vt 0.156250 0.687500
vt 0.175781 0.566406
vt 0.195313 0.445313
vt 0.156250 0.687500
vt 0.175781 0.566406
vt 0.195313 0.445313
vt 0.156250 0.687500
vt 0.175781 0.566406
vt 0.195313 0.445313
vt 0.156250 0.687500
vt 0.175781 0.566406
vt 0.195313 0.445313
vt 0.156250 0.687500
vt 0.175781 0.566406
vt 0.195313 0.445313
v 0.000000 0.360000 0.022500
v -0.120000 0.330000 0.022500
v -0.180000 0.010000 0.022500
v -0.060000 0.080000 0.022500
v 0.000000 0.360000 -0.022500
v -0.120000 0.330000 -0.022500
v -0.180000 0.010000 -0.022500
v -0.060000 0.080000 -0.022500
vt 0.281250 0.687500
vt 0.300781 0.566406
vt 0.320313 0.445313
vt 0.281250 0.687500
vt 0.300781 0.566406
vt 0.320313 0.445313
vt 0.281250 0.687500
vt 0.300781 0.566406
vt 0.320313 0.445313
vt 0.281250 0.687500
vt 0.300781 0.566406
vt 0.320313 0.445313
vt 0.156250 0.687500
vt 0.175781 0.566406
vt 0.195313 0.445313
vt 0.156250 0.687500
vt 0.175781 0.566406
vt 0.195313 0.445313
vt 0.156250 0.687500
vt 0.175781 0.566406
vt 0.195313 0.445313
vt 0.156250 0.687500
vt 0.175781 0.566406
vt 0.195313 0.445313
vt 0.156250 0.687500
vt 0.175781 0.566406
vt 0.195313 0.445313
vt 0.156250 0.687500
vt 0.175781 0.566406
vt 0.195313 0.445313
vt 0.156250 0.687500
vt 0.175781 0.566406
vt 0.195313 0.445313
vt 0.156250 0.687500
vt 0.175781 0.566406
vt 0.195313 0.445313
g remnant_0
f 2/1 1/2 5/3
f 10/4 6/5 7/6
f 5/7 4/8 3/9
f 8/10 9/11 10/12
f 3/13 2/14 5/15
f 10/16 7/17 8/18
f 1/19 6/20 7/21
f 1/22 7/23 2/24
f 2/25 7/26 8/27
f 2/28 8/29 3/30
f 3/31 8/32 9/33
f 3/34 9/35 4/36
f 4/37 9/38 10/39
f 4/40 10/41 5/42
f 5/43 10/44 6/45
f 5/46 6/47 1/48
g remnant_1
f 12/49 11/50 15/51
f 20/52 16/53 17/54
f 15/55 14/56 13/57
f 18/58 19/59 20/60
f 13/61 12/62 15/63
f 20/64 17/65 18/66
f 11/67 16/68 17/69
f 11/70 17/71 12/72
f 12/73 17/74 18/75
f 12/76 18/77 13/78
f 13/79 18/80 19/81
f 13/82 19/83 14/84
f 14/85 19/86 20/87
f 14/88 20/89 15/90
f 15/91 20/92 16/93
f 15/94 16/95 11/96
g remnant_2
f 22/97 21/98 23/99
f 26/100 24/101 25/102
f 21/103 24/104 25/105
f 21/106 25/107 22/108
f 22/109 25/110 26/111
f 22/112 26/113 23/114
f 23/115 26/116 24/117
f 23/118 24/119 21/120
g remnant_3
f 28/121 29/122 27/123
f 30/124 32/125 31/126
f 27/127 30/128 31/129
f 27/130 31/131 28/132
f 28/133 31/134 32/135
f 28/136 32/137 29/138
f 29/139 32/140 30/141
f 29/142 30/143 27/144
g remnant_4
f 34/145 33/146 36/147
f 40/148 37/149 38/150
f 36/151 35/152 34/153
f 38/154 39/155 40/156
f 33/157 37/158 38/159
f 33/160 38/161 34/162
f 34/163 38/164 39/165
f 34/166 39/167 35/168
f 35/169 39/170 40/171
f 35/172 40/173 36/174
f 36/175 40/176 37/177
f 36/178 37/179 33/180
g remnant_5
f 43/181 44/182 41/183
f 45/184 48/185 47/186
f 41/187 42/188 43/189
f 47/190 46/191 45/192
f 41/193 45/194 46/195
f 41/196 46/197 42/198
f 42/199 46/200 47/201
f 42/202 47/203 43/204
f 43/205 47/206 48/207
f 43/208 48/209 44/210
f 44/211 48/212 45/213
f 44/214 45/215 41/216
