# Blade Tetra Dead Thought - authored in Blockbench; units are blocks
v -1.000000 0.000000 0.060000
v -0.580000 -0.105000 0.060000
v -0.230000 -0.090000 0.060000
v 0.140000 -0.170000 0.060000
v 0.430000 -0.100000 0.060000
v 1.000000 0.035000 0.060000
v 0.470000 0.065000 0.060000
v 0.200000 0.140000 0.060000
v -0.180000 0.085000 0.060000
v -0.510000 0.120000 0.060000
v -1.000000 0.000000 -0.060000
v -0.580000 -0.105000 -0.060000
v -0.230000 -0.090000 -0.060000
v 0.140000 -0.170000 -0.060000
v 0.430000 -0.100000 -0.060000
v 1.000000 0.035000 -0.060000
v 0.470000 0.065000 -0.060000
v 0.200000 0.140000 -0.060000
v -0.180000 0.085000 -0.060000
v -0.510000 0.120000 -0.060000
vt 0.031250 0.687500
vt 0.050781 0.566406
vt 0.070313 0.445313
vt 0.031250 0.687500
vt 0.050781 0.566406
vt 0.070313 0.445313
vt 0.031250 0.687500
vt 0.050781 0.566406
vt 0.070313 0.445313
vt 0.031250 0.687500
vt 0.050781 0.566406
vt 0.070313 0.445313
vt 0.031250 0.687500
vt 0.050781 0.566406
vt 0.070313 0.445313
vt 0.031250 0.687500
vt 0.050781 0.566406
vt 0.070313 0.445313
vt 0.031250 0.687500
vt 0.050781 0.566406
vt 0.070313 0.445313
vt 0.031250 0.687500
vt 0.050781 0.566406
vt 0.070313 0.445313
vt 0.031250 0.687500
vt 0.050781 0.566406
vt 0.070313 0.445313
vt 0.031250 0.687500
vt 0.050781 0.566406
vt 0.070313 0.445313
vt 0.031250 0.687500
vt 0.050781 0.566406
vt 0.070313 0.445313
vt 0.031250 0.687500
vt 0.050781 0.566406
vt 0.070313 0.445313
vt 0.031250 0.687500
vt 0.050781 0.566406
vt 0.070313 0.445313
vt 0.031250 0.687500
vt 0.050781 0.566406
vt 0.070313 0.445313
vt 0.031250 0.687500
vt 0.050781 0.566406
vt 0.070313 0.445313
vt 0.031250 0.687500
vt 0.050781 0.566406
vt 0.070313 0.445313
vt 0.031250 0.687500
vt 0.050781 0.566406
vt 0.070313 0.445313
vt 0.031250 0.687500
vt 0.050781 0.566406
vt 0.070313 0.445313
vt 0.031250 0.687500
vt 0.050781 0.566406
vt 0.070313 0.445313
vt 0.031250 0.687500
vt 0.050781 0.566406
vt 0.070313 0.445313
vt 0.031250 0.687500
vt 0.050781 0.566406
vt 0.070313 0.445313
vt 0.031250 0.687500
vt 0.050781 0.566406
vt 0.070313 0.445313
vt 0.031250 0.687500
vt 0.050781 0.566406
vt 0.070313 0.445313
vt 0.031250 0.687500
vt 0.050781 0.566406
vt 0.070313 0.445313
vt 0.031250 0.687500
vt 0.050781 0.566406
vt 0.070313 0.445313
vt 0.031250 0.687500
vt 0.050781 0.566406
vt 0.070313 0.445313
vt 0.031250 0.687500
vt 0.050781 0.566406
vt 0.070313 0.445313
vt 0.031250 0.687500
vt 0.050781 0.566406
vt 0.070313 0.445313
vt 0.031250 0.687500
vt 0.050781 0.566406
vt 0.070313 0.445313
vt 0.031250 0.687500
vt 0.050781 0.566406
vt 0.070313 0.445313
vt 0.031250 0.687500
vt 0.050781 0.566406
vt 0.070313 0.445313
vt 0.031250 0.687500
vt 0.050781 0.566406
vt 0.070313 0.445313
vt 0.031250 0.687500
vt 0.050781 0.566406
vt 0.070313 0.445313
vt 0.031250 0.687500
vt 0.050781 0.566406
vt 0.070313 0.445313
vt 0.031250 0.687500
vt 0.050781 0.566406
vt 0.070313 0.445313
vt 0.031250 0.687500
vt 0.050781 0.566406
vt 0.070313 0.445313
v -0.940000 0.000000 0.065000
v -0.545200 -0.076650 0.065000
v -0.216200 -0.065700 0.065000
v 0.131600 -0.124100 0.065000
v 0.404200 -0.073000 0.065000
v 0.940000 0.025550 0.065000
v 0.441800 0.047450 0.065000
v 0.188000 0.102200 0.065000
v -0.169200 0.062050 0.065000
v -0.479400 0.087600 0.065000
v -0.940000 0.000000 -0.065000
v -0.545200 -0.076650 -0.065000
v -0.216200 -0.065700 -0.065000
v 0.131600 -0.124100 -0.065000
v 0.404200 -0.073000 -0.065000
v 0.940000 0.025550 -0.065000
v 0.441800 0.047450 -0.065000
v 0.188000 0.102200 -0.065000
v -0.169200 0.062050 -0.065000
v -0.479400 0.087600 -0.065000
vt 0.406250 0.687500
vt 0.425781 0.566406
vt 0.445313 0.445313
vt 0.406250 0.687500
vt 0.425781 0.566406
vt 0.445313 0.445313
vt 0.406250 0.687500
vt 0.425781 0.566406
vt 0.445313 0.445313
vt 0.406250 0.687500
vt 0.425781 0.566406
vt 0.445313 0.445313
vt 0.406250 0.687500
vt 0.425781 0.566406
vt 0.445313 0.445313
vt 0.406250 0.687500
vt 0.425781 0.566406
vt 0.445313 0.445313
vt 0.406250 0.687500
vt 0.425781 0.566406
vt 0.445313 0.445313
vt 0.406250 0.687500
vt 0.425781 0.566406
vt 0.445313 0.445313
vt 0.406250 0.687500
vt 0.425781 0.566406
vt 0.445313 0.445313
vt 0.406250 0.687500
vt 0.425781 0.566406
vt 0.445313 0.445313
vt 0.406250 0.687500
vt 0.425781 0.566406
vt 0.445313 0.445313
vt 0.406250 0.687500
vt 0.425781 0.566406
vt 0.445313 0.445313
vt 0.406250 0.687500
vt 0.425781 0.566406
vt 0.445313 0.445313
vt 0.406250 0.687500
vt 0.425781 0.566406
vt 0.445313 0.445313
vt 0.406250 0.687500
vt 0.425781 0.566406
vt 0.445313 0.445313
vt 0.406250 0.687500
vt 0.425781 0.566406
vt 0.445313 0.445313
vt 0.281250 0.687500
vt 0.300781 0.566406
vt 0.320313 0.445313
vt 0.281250 0.687500
vt 0.300781 0.566406
vt 0.320313 0.445313
vt 0.281250 0.687500
vt 0.300781 0.566406
vt 0.320313 0.445313
vt 0.281250 0.687500
vt 0.300781 0.566406
vt 0.320313 0.445313
vt 0.281250 0.687500
vt 0.300781 0.566406
vt 0.320313 0.445313
vt 0.281250 0.687500
vt 0.300781 0.566406
vt 0.320313 0.445313
vt 0.281250 0.687500
vt 0.300781 0.566406
vt 0.320313 0.445313
vt 0.281250 0.687500
vt 0.300781 0.566406
vt 0.320313 0.445313
vt 0.281250 0.687500
vt 0.300781 0.566406
vt 0.320313 0.445313
vt 0.281250 0.687500
vt 0.300781 0.566406
vt 0.320313 0.445313
vt 0.281250 0.687500
vt 0.300781 0.566406
vt 0.320313 0.445313
vt 0.281250 0.687500
vt 0.300781 0.566406
vt 0.320313 0.445313
vt 0.281250 0.687500
vt 0.300781 0.566406
vt 0.320313 0.445313
vt 0.281250 0.687500
vt 0.300781 0.566406
vt 0.320313 0.445313
vt 0.281250 0.687500
vt 0.300781 0.566406
vt 0.320313 0.445313
vt 0.281250 0.687500
vt 0.300781 0.566406
vt 0.320313 0.445313
vt 0.281250 0.687500
vt 0.300781 0.566406
vt 0.320313 0.445313
vt 0.281250 0.687500
vt 0.300781 0.566406
vt 0.320313 0.445313
vt 0.281250 0.687500
vt 0.300781 0.566406
vt 0.320313 0.445313
vt 0.281250 0.687500
vt 0.300781 0.566406
vt 0.320313 0.445313
v -0.910000 0.000000 0.072500
v -0.527800 -0.053550 0.072500
v -0.209300 -0.045900 0.072500
v 0.127400 -0.086700 0.072500
v 0.391300 -0.051000 0.072500
v 0.910000 0.017850 0.072500
v 0.427700 0.033150 0.072500
v 0.182000 0.071400 0.072500
v -0.163800 0.043350 0.072500
v -0.464100 0.061200 0.072500
v -0.910000 0.000000 -0.072500
v -0.527800 -0.053550 -0.072500
v -0.209300 -0.045900 -0.072500
v 0.127400 -0.086700 -0.072500
v 0.391300 -0.051000 -0.072500
v 0.910000 0.017850 -0.072500
v 0.427700 0.033150 -0.072500
v 0.182000 0.071400 -0.072500
v -0.163800 0.043350 -0.072500
v -0.464100 0.061200 -0.072500
vt 0.906250 0.687500
vt 0.925781 0.566406
vt 0.945313 0.445313
vt 0.906250 0.687500
vt 0.925781 0.566406
vt 0.945313 0.445313
vt 0.906250 0.687500
vt 0.925781 0.566406
vt 0.945313 0.445313
vt 0.906250 0.687500
vt 0.925781 0.566406
vt 0.945313 0.445313
vt 0.906250 0.687500
vt 0.925781 0.566406
vt 0.945313 0.445313
vt 0.906250 0.687500
vt 0.925781 0.566406
vt 0.945313 0.445313
vt 0.906250 0.687500
vt 0.925781 0.566406
vt 0.945313 0.445313
vt 0.906250 0.687500
vt 0.925781 0.566406
vt 0.945313 0.445313
vt 0.906250 0.687500
vt 0.925781 0.566406
vt 0.945313 0.445313
vt 0.906250 0.687500
vt 0.925781 0.566406
vt 0.945313 0.445313
vt 0.906250 0.687500
vt 0.925781 0.566406
vt 0.945313 0.445313
vt 0.906250 0.687500
vt 0.925781 0.566406
vt 0.945313 0.445313
vt 0.906250 0.687500
vt 0.925781 0.566406
vt 0.945313 0.445313
vt 0.906250 0.687500
vt 0.925781 0.566406
vt 0.945313 0.445313
vt 0.906250 0.687500
vt 0.925781 0.566406
vt 0.945313 0.445313
vt 0.906250 0.687500
vt 0.925781 0.566406
vt 0.945313 0.445313
vt 0.781250 0.687500
vt 0.800781 0.566406
vt 0.820313 0.445313
vt 0.781250 0.687500
vt 0.800781 0.566406
vt 0.820313 0.445313
vt 0.781250 0.687500
vt 0.800781 0.566406
vt 0.820313 0.445313
vt 0.781250 0.687500
vt 0.800781 0.566406
vt 0.820313 0.445313
vt 0.781250 0.687500
vt 0.800781 0.566406
vt 0.820313 0.445313
vt 0.781250 0.687500
vt 0.800781 0.566406
vt 0.820313 0.445313
vt 0.781250 0.687500
vt 0.800781 0.566406
vt 0.820313 0.445313
vt 0.781250 0.687500
vt 0.800781 0.566406
vt 0.820313 0.445313
vt 0.781250 0.687500
vt 0.800781 0.566406
vt 0.820313 0.445313
vt 0.781250 0.687500
vt 0.800781 0.566406
vt 0.820313 0.445313
vt 0.781250 0.687500
vt 0.800781 0.566406
vt 0.820313 0.445313
vt 0.781250 0.687500
vt 0.800781 0.566406
vt 0.820313 0.445313
vt 0.781250 0.687500
vt 0.800781 0.566406
vt 0.820313 0.445313
vt 0.781250 0.687500
vt 0.800781 0.566406
vt 0.820313 0.445313
vt 0.781250 0.687500
vt 0.800781 0.566406
vt 0.820313 0.445313
vt 0.781250 0.687500
vt 0.800781 0.566406
vt 0.820313 0.445313
vt 0.781250 0.687500
vt 0.800781 0.566406
vt 0.820313 0.445313
vt 0.781250 0.687500
vt 0.800781 0.566406
vt 0.820313 0.445313
vt 0.781250 0.687500
vt 0.800781 0.566406
vt 0.820313 0.445313
vt 0.781250 0.687500
vt 0.800781 0.566406
vt 0.820313 0.445313
v -0.880000 0.000000 0.075500
v -0.150000 -0.008000 0.075500
v 0.300000 0.019000 0.075500
v 0.880000 0.030000 0.075500
v 0.230000 0.033000 0.075500
v -0.120000 0.006000 0.075500
v -0.880000 0.000000 -0.075500
v -0.150000 -0.008000 -0.075500
v 0.300000 0.019000 -0.075500
v 0.880000 0.030000 -0.075500
v 0.230000 0.033000 -0.075500
v -0.120000 0.006000 -0.075500
vt 0.531250 0.687500
vt 0.550781 0.566406
vt 0.570313 0.445313
vt 0.531250 0.687500
vt 0.550781 0.566406
vt 0.570313 0.445313
vt 0.531250 0.687500
vt 0.550781 0.566406
vt 0.570313 0.445313
vt 0.531250 0.687500
vt 0.550781 0.566406
vt 0.570313 0.445313
vt 0.531250 0.687500
vt 0.550781 0.566406
vt 0.570313 0.445313
vt 0.531250 0.687500
vt 0.550781 0.566406
vt 0.570313 0.445313
vt 0.531250 0.687500
vt 0.550781 0.566406
vt 0.570313 0.445313
vt 0.531250 0.687500
vt 0.550781 0.566406
vt 0.570313 0.445313
vt 0.406250 0.687500
vt 0.425781 0.566406
vt 0.445313 0.445313
vt 0.406250 0.687500
vt 0.425781 0.566406
vt 0.445313 0.445313
vt 0.406250 0.687500
vt 0.425781 0.566406
vt 0.445313 0.445313
vt 0.406250 0.687500
vt 0.425781 0.566406
vt 0.445313 0.445313
vt 0.406250 0.687500
vt 0.425781 0.566406
vt 0.445313 0.445313
vt 0.406250 0.687500
vt 0.425781 0.566406
vt 0.445313 0.445313
vt 0.406250 0.687500
vt 0.425781 0.566406
vt 0.445313 0.445313
vt 0.406250 0.687500
vt 0.425781 0.566406
vt 0.445313 0.445313
vt 0.406250 0.687500
vt 0.425781 0.566406
vt 0.445313 0.445313
vt 0.406250 0.687500
vt 0.425781 0.566406
vt 0.445313 0.445313
vt 0.406250 0.687500
vt 0.425781 0.566406
vt 0.445313 0.445313
vt 0.406250 0.687500
vt 0.425781 0.566406
vt 0.445313 0.445313
v -1.000000 0.000000 0.060000
v -0.580000 0.105000 0.060000
v -0.230000 0.090000 0.060000
v 0.140000 0.170000 0.060000
v 0.430000 0.100000 0.060000
v 1.000000 -0.035000 0.060000
v 0.470000 -0.065000 0.060000
v 0.200000 -0.140000 0.060000
v -0.180000 -0.085000 0.060000
v -0.510000 -0.120000 0.060000
v -1.000000 0.000000 -0.060000
v -0.580000 0.105000 -0.060000
v -0.230000 0.090000 -0.060000
v 0.140000 0.170000 -0.060000
v 0.430000 0.100000 -0.060000
v 1.000000 -0.035000 -0.060000
v 0.470000 -0.065000 -0.060000
v 0.200000 -0.140000 -0.060000
v -0.180000 -0.085000 -0.060000
v -0.510000 -0.120000 -0.060000
vt 0.031250 0.687500
vt 0.050781 0.566406
vt 0.070313 0.445313
vt 0.031250 0.687500
vt 0.050781 0.566406
vt 0.070313 0.445313
vt 0.031250 0.687500
vt 0.050781 0.566406
vt 0.070313 0.445313
vt 0.031250 0.687500
vt 0.050781 0.566406
vt 0.070313 0.445313
vt 0.031250 0.687500
vt 0.050781 0.566406
vt 0.070313 0.445313
vt 0.031250 0.687500
vt 0.050781 0.566406
vt 0.070313 0.445313
vt 0.031250 0.687500
vt 0.050781 0.566406
vt 0.070313 0.445313
vt 0.031250 0.687500
vt 0.050781 0.566406
vt 0.070313 0.445313
vt 0.031250 0.687500
vt 0.050781 0.566406
vt 0.070313 0.445313
vt 0.031250 0.687500
vt 0.050781 0.566406
vt 0.070313 0.445313
vt 0.031250 0.687500
vt 0.050781 0.566406
vt 0.070313 0.445313
vt 0.031250 0.687500
vt 0.050781 0.566406
vt 0.070313 0.445313
vt 0.031250 0.687500
vt 0.050781 0.566406
vt 0.070313 0.445313
vt 0.031250 0.687500
vt 0.050781 0.566406
vt 0.070313 0.445313
vt 0.031250 0.687500
vt 0.050781 0.566406
vt 0.070313 0.445313
vt 0.031250 0.687500
vt 0.050781 0.566406
vt 0.070313 0.445313
vt 0.031250 0.687500
vt 0.050781 0.566406
vt 0.070313 0.445313
vt 0.031250 0.687500
vt 0.050781 0.566406
vt 0.070313 0.445313
vt 0.031250 0.687500
vt 0.050781 0.566406
vt 0.070313 0.445313
vt 0.031250 0.687500
vt 0.050781 0.566406
vt 0.070313 0.445313
vt 0.031250 0.687500
vt 0.050781 0.566406
vt 0.070313 0.445313
vt 0.031250 0.687500
vt 0.050781 0.566406
vt 0.070313 0.445313
vt 0.031250 0.687500
vt 0.050781 0.566406
vt 0.070313 0.445313
vt 0.031250 0.687500
vt 0.050781 0.566406
vt 0.070313 0.445313
vt 0.031250 0.687500
vt 0.050781 0.566406
vt 0.070313 0.445313
vt 0.031250 0.687500
vt 0.050781 0.566406
vt 0.070313 0.445313
vt 0.031250 0.687500
vt 0.050781 0.566406
vt 0.070313 0.445313
vt 0.031250 0.687500
vt 0.050781 0.566406
vt 0.070313 0.445313
vt 0.031250 0.687500
vt 0.050781 0.566406
vt 0.070313 0.445313
vt 0.031250 0.687500
vt 0.050781 0.566406
vt 0.070313 0.445313
vt 0.031250 0.687500
vt 0.050781 0.566406
vt 0.070313 0.445313
vt 0.031250 0.687500
vt 0.050781 0.566406
vt 0.070313 0.445313
vt 0.031250 0.687500
vt 0.050781 0.566406
vt 0.070313 0.445313
vt 0.031250 0.687500
vt 0.050781 0.566406
vt 0.070313 0.445313
vt 0.031250 0.687500
vt 0.050781 0.566406
vt 0.070313 0.445313
vt 0.031250 0.687500
vt 0.050781 0.566406
vt 0.070313 0.445313
v -0.940000 0.000000 0.065000
v -0.545200 0.076650 0.065000
v -0.216200 0.065700 0.065000
v 0.131600 0.124100 0.065000
v 0.404200 0.073000 0.065000
v 0.940000 -0.025550 0.065000
v 0.441800 -0.047450 0.065000
v 0.188000 -0.102200 0.065000
v -0.169200 -0.062050 0.065000
v -0.479400 -0.087600 0.065000
v -0.940000 0.000000 -0.065000
v -0.545200 0.076650 -0.065000
v -0.216200 0.065700 -0.065000
v 0.131600 0.124100 -0.065000
v 0.404200 0.073000 -0.065000
v 0.940000 -0.025550 -0.065000
v 0.441800 -0.047450 -0.065000
v 0.188000 -0.102200 -0.065000
v -0.169200 -0.062050 -0.065000
v -0.479400 -0.087600 -0.065000
vt 0.406250 0.687500
vt 0.425781 0.566406
vt 0.445313 0.445313
vt 0.406250 0.687500
vt 0.425781 0.566406
vt 0.445313 0.445313
vt 0.406250 0.687500
vt 0.425781 0.566406
vt 0.445313 0.445313
vt 0.406250 0.687500
vt 0.425781 0.566406
vt 0.445313 0.445313
vt 0.406250 0.687500
vt 0.425781 0.566406
vt 0.445313 0.445313
vt 0.406250 0.687500
vt 0.425781 0.566406
vt 0.445313 0.445313
vt 0.406250 0.687500
vt 0.425781 0.566406
vt 0.445313 0.445313
vt 0.406250 0.687500
vt 0.425781 0.566406
vt 0.445313 0.445313
vt 0.406250 0.687500
vt 0.425781 0.566406
vt 0.445313 0.445313
vt 0.406250 0.687500
vt 0.425781 0.566406
vt 0.445313 0.445313
vt 0.406250 0.687500
vt 0.425781 0.566406
vt 0.445313 0.445313
vt 0.406250 0.687500
vt 0.425781 0.566406
vt 0.445313 0.445313
vt 0.406250 0.687500
vt 0.425781 0.566406
vt 0.445313 0.445313
vt 0.406250 0.687500
vt 0.425781 0.566406
vt 0.445313 0.445313
vt 0.406250 0.687500
vt 0.425781 0.566406
vt 0.445313 0.445313
vt 0.406250 0.687500
vt 0.425781 0.566406
vt 0.445313 0.445313
vt 0.281250 0.687500
vt 0.300781 0.566406
vt 0.320313 0.445313
vt 0.281250 0.687500
vt 0.300781 0.566406
vt 0.320313 0.445313
vt 0.281250 0.687500
vt 0.300781 0.566406
vt 0.320313 0.445313
vt 0.281250 0.687500
vt 0.300781 0.566406
vt 0.320313 0.445313
vt 0.281250 0.687500
vt 0.300781 0.566406
vt 0.320313 0.445313
vt 0.281250 0.687500
vt 0.300781 0.566406
vt 0.320313 0.445313
vt 0.281250 0.687500
vt 0.300781 0.566406
vt 0.320313 0.445313
vt 0.281250 0.687500
vt 0.300781 0.566406
vt 0.320313 0.445313
vt 0.281250 0.687500
vt 0.300781 0.566406
vt 0.320313 0.445313
vt 0.281250 0.687500
vt 0.300781 0.566406
vt 0.320313 0.445313
vt 0.281250 0.687500
vt 0.300781 0.566406
vt 0.320313 0.445313
vt 0.281250 0.687500
vt 0.300781 0.566406
vt 0.320313 0.445313
vt 0.281250 0.687500
vt 0.300781 0.566406
vt 0.320313 0.445313
vt 0.281250 0.687500
vt 0.300781 0.566406
vt 0.320313 0.445313
vt 0.281250 0.687500
vt 0.300781 0.566406
vt 0.320313 0.445313
vt 0.281250 0.687500
vt 0.300781 0.566406
vt 0.320313 0.445313
vt 0.281250 0.687500
vt 0.300781 0.566406
vt 0.320313 0.445313
vt 0.281250 0.687500
vt 0.300781 0.566406
vt 0.320313 0.445313
vt 0.281250 0.687500
vt 0.300781 0.566406
vt 0.320313 0.445313
vt 0.281250 0.687500
vt 0.300781 0.566406
vt 0.320313 0.445313
v -0.910000 0.000000 0.072500
v -0.527800 0.053550 0.072500
v -0.209300 0.045900 0.072500
v 0.127400 0.086700 0.072500
v 0.391300 0.051000 0.072500
v 0.910000 -0.017850 0.072500
v 0.427700 -0.033150 0.072500
v 0.182000 -0.071400 0.072500
v -0.163800 -0.043350 0.072500
v -0.464100 -0.061200 0.072500
v -0.910000 0.000000 -0.072500
v -0.527800 0.053550 -0.072500
v -0.209300 0.045900 -0.072500
v 0.127400 0.086700 -0.072500
v 0.391300 0.051000 -0.072500
v 0.910000 -0.017850 -0.072500
v 0.427700 -0.033150 -0.072500
v 0.182000 -0.071400 -0.072500
v -0.163800 -0.043350 -0.072500
v -0.464100 -0.061200 -0.072500
vt 0.906250 0.687500
vt 0.925781 0.566406
vt 0.945313 0.445313
vt 0.906250 0.687500
vt 0.925781 0.566406
vt 0.945313 0.445313
vt 0.906250 0.687500
vt 0.925781 0.566406
vt 0.945313 0.445313
vt 0.906250 0.687500
vt 0.925781 0.566406
vt 0.945313 0.445313
vt 0.906250 0.687500
vt 0.925781 0.566406
vt 0.945313 0.445313
vt 0.906250 0.687500
vt 0.925781 0.566406
vt 0.945313 0.445313
vt 0.906250 0.687500
vt 0.925781 0.566406
vt 0.945313 0.445313
vt 0.906250 0.687500
vt 0.925781 0.566406
vt 0.945313 0.445313
vt 0.906250 0.687500
vt 0.925781 0.566406
vt 0.945313 0.445313
vt 0.906250 0.687500
vt 0.925781 0.566406
vt 0.945313 0.445313
vt 0.906250 0.687500
vt 0.925781 0.566406
vt 0.945313 0.445313
vt 0.906250 0.687500
vt 0.925781 0.566406
vt 0.945313 0.445313
vt 0.906250 0.687500
vt 0.925781 0.566406
vt 0.945313 0.445313
vt 0.906250 0.687500
vt 0.925781 0.566406
vt 0.945313 0.445313
vt 0.906250 0.687500
vt 0.925781 0.566406
vt 0.945313 0.445313
vt 0.906250 0.687500
vt 0.925781 0.566406
vt 0.945313 0.445313
vt 0.781250 0.687500
vt 0.800781 0.566406
vt 0.820313 0.445313
vt 0.781250 0.687500
vt 0.800781 0.566406
vt 0.820313 0.445313
vt 0.781250 0.687500
vt 0.800781 0.566406
vt 0.820313 0.445313
vt 0.781250 0.687500
vt 0.800781 0.566406
vt 0.820313 0.445313
vt 0.781250 0.687500
vt 0.800781 0.566406
vt 0.820313 0.445313
vt 0.781250 0.687500
vt 0.800781 0.566406
vt 0.820313 0.445313
vt 0.781250 0.687500
vt 0.800781 0.566406
vt 0.820313 0.445313
vt 0.781250 0.687500
vt 0.800781 0.566406
vt 0.820313 0.445313
vt 0.781250 0.687500
vt 0.800781 0.566406
vt 0.820313 0.445313
vt 0.781250 0.687500
vt 0.800781 0.566406
vt 0.820313 0.445313
vt 0.781250 0.687500
vt 0.800781 0.566406
vt 0.820313 0.445313
vt 0.781250 0.687500
vt 0.800781 0.566406
vt 0.820313 0.445313
vt 0.781250 0.687500
vt 0.800781 0.566406
vt 0.820313 0.445313
vt 0.781250 0.687500
vt 0.800781 0.566406
vt 0.820313 0.445313
vt 0.781250 0.687500
vt 0.800781 0.566406
vt 0.820313 0.445313
vt 0.781250 0.687500
vt 0.800781 0.566406
vt 0.820313 0.445313
vt 0.781250 0.687500
vt 0.800781 0.566406
vt 0.820313 0.445313
vt 0.781250 0.687500
vt 0.800781 0.566406
vt 0.820313 0.445313
vt 0.781250 0.687500
vt 0.800781 0.566406
vt 0.820313 0.445313
vt 0.781250 0.687500
vt 0.800781 0.566406
vt 0.820313 0.445313
v -0.880000 0.000000 0.075500
v -0.150000 0.008000 0.075500
v 0.300000 -0.019000 0.075500
v 0.880000 -0.030000 0.075500
v 0.230000 -0.033000 0.075500
v -0.120000 -0.006000 0.075500
v -0.880000 0.000000 -0.075500
v -0.150000 0.008000 -0.075500
v 0.300000 -0.019000 -0.075500
v 0.880000 -0.030000 -0.075500
v 0.230000 -0.033000 -0.075500
v -0.120000 -0.006000 -0.075500
vt 0.531250 0.687500
vt 0.550781 0.566406
vt 0.570313 0.445313
vt 0.531250 0.687500
vt 0.550781 0.566406
vt 0.570313 0.445313
vt 0.531250 0.687500
vt 0.550781 0.566406
vt 0.570313 0.445313
vt 0.531250 0.687500
vt 0.550781 0.566406
vt 0.570313 0.445313
vt 0.531250 0.687500
vt 0.550781 0.566406
vt 0.570313 0.445313
vt 0.531250 0.687500
vt 0.550781 0.566406
vt 0.570313 0.445313
vt 0.531250 0.687500
vt 0.550781 0.566406
vt 0.570313 0.445313
vt 0.531250 0.687500
vt 0.550781 0.566406
vt 0.570313 0.445313
vt 0.406250 0.687500
vt 0.425781 0.566406
vt 0.445313 0.445313
vt 0.406250 0.687500
vt 0.425781 0.566406
vt 0.445313 0.445313
vt 0.406250 0.687500
vt 0.425781 0.566406
vt 0.445313 0.445313
vt 0.406250 0.687500
vt 0.425781 0.566406
vt 0.445313 0.445313
vt 0.406250 0.687500
vt 0.425781 0.566406
vt 0.445313 0.445313
vt 0.406250 0.687500
vt 0.425781 0.566406
vt 0.445313 0.445313
vt 0.406250 0.687500
vt 0.425781 0.566406
vt 0.445313 0.445313
vt 0.406250 0.687500
vt 0.425781 0.566406
vt 0.445313 0.445313
vt 0.406250 0.687500
vt 0.425781 0.566406
vt 0.445313 0.445313
vt 0.406250 0.687500
vt 0.425781 0.566406
vt 0.445313 0.445313
vt 0.406250 0.687500
vt 0.425781 0.566406
vt 0.445313 0.445313
vt 0.406250 0.687500
vt 0.425781 0.566406
vt 0.445313 0.445313
g rift_left
f 9/1 10/2 1/3
f 11/4 20/5 19/6
f 1/7 2/8 3/9
f 13/10 12/11 11/12
f 3/13 4/14 5/15
f 15/16 14/17 13/18
f 5/19 6/20 7/21
f 17/22 16/23 15/24
f 7/25 8/26 9/27
f 19/28 18/29 17/30
f 9/31 1/32 3/33
f 13/34 11/35 19/36
f 3/37 5/38 7/39
f 17/40 15/41 13/42
f 7/43 9/44 3/45
f 13/46 19/47 17/48
f 1/49 11/50 12/51
f 1/52 12/53 2/54
f 2/55 12/56 13/57
f 2/58 13/59 3/60
f 3/61 13/62 14/63
f 3/64 14/65 4/66
f 4/67 14/68 15/69
f 4/70 15/71 5/72
f 5/73 15/74 16/75
f 5/76 16/77 6/78
f 6/79 16/80 17/81
f 6/82 17/83 7/84
f 7/85 17/86 18/87
f 7/88 18/89 8/90
f 8/91 18/92 19/93
f 8/94 19/95 9/96
f 9/97 19/98 20/99
f 9/100 20/101 10/102
f 10/103 20/104 11/105
f 10/106 11/107 1/108
g rim_left
f 29/109 30/110 21/111
f 31/112 40/113 39/114
f 21/115 22/116 23/117
f 33/118 32/119 31/120
f 23/121 24/122 25/123
f 35/124 34/125 33/126
f 25/127 26/128 27/129
f 37/130 36/131 35/132
f 27/133 28/134 29/135
f 39/136 38/137 37/138
f 29/139 21/140 23/141
f 33/142 31/143 39/144
f 23/145 25/146 27/147
f 37/148 35/149 33/150
f 27/151 29/152 23/153
f 33/154 39/155 37/156
f 21/157 31/158 32/159
f 21/160 32/161 22/162
f 22/163 32/164 33/165
f 22/166 33/167 23/168
f 23/169 33/170 34/171
f 23/172 34/173 24/174
f 24/175 34/176 35/177
f 24/178 35/179 25/180
f 25/181 35/182 36/183
f 25/184 36/185 26/186
f 26/187 36/188 37/189
f 26/190 37/191 27/192
f 27/193 37/194 38/195
f 27/196 38/197 28/198
f 28/199 38/200 39/201
f 28/202 39/203 29/204
f 29/205 39/206 40/207
f 29/208 40/209 30/210
f 30/211 40/212 31/213
f 30/214 31/215 21/216
g void_left
f 49/217 50/218 41/219
f 51/220 60/221 59/222
f 41/223 42/224 43/225
f 53/226 52/227 51/228
f 43/229 44/230 45/231
f 55/232 54/233 53/234
f 45/235 46/236 47/237
f 57/238 56/239 55/240
f 47/241 48/242 49/243
f 59/244 58/245 57/246
f 49/247 41/248 43/249
f 53/250 51/251 59/252
f 43/253 45/254 47/255
f 57/256 55/257 53/258
f 47/259 49/260 43/261
f 53/262 59/263 57/264
f 41/265 51/266 52/267
f 41/268 52/269 42/270
f 42/271 52/272 53/273
f 42/274 53/275 43/276
f 43/277 53/278 54/279
f 43/280 54/281 44/282
f 44/283 54/284 55/285
f 44/286 55/287 45/288
f 45/289 55/290 56/291
f 45/292 56/293 46/294
f 46/295 56/296 57/297
f 46/298 57/299 47/300
f 47/301 57/302 58/303
f 47/304 58/305 48/306
f 48/307 58/308 59/309
f 48/310 59/311 49/312
f 49/313 59/314 60/315
f 49/316 60/317 50/318
f 50/319 60/320 51/321
f 50/322 51/323 41/324
g vein_left
f 66/325 61/326 62/327
f 68/328 67/329 72/330
f 63/331 64/332 65/333
f 71/334 70/335 69/336
f 65/337 66/338 62/339
f 68/340 72/341 71/342
f 62/343 63/344 65/345
f 71/346 69/347 68/348
f 61/349 67/350 68/351
f 61/352 68/353 62/354
f 62/355 68/356 69/357
f 62/358 69/359 63/360
f 63/361 69/362 70/363
f 63/364 70/365 64/366
f 64/367 70/368 71/369
f 64/370 71/371 65/372
f 65/373 71/374 72/375
f 65/376 72/377 66/378
f 66/379 72/380 67/381
f 66/382 67/383 61/384
g rift_right
f 74/385 73/386 82/387
f 92/388 83/389 84/390
f 81/391 80/392 79/393
f 89/394 90/395 91/396
f 79/397 78/398 77/399
f 87/400 88/401 89/402
f 77/403 76/404 75/405
f 85/406 86/407 87/408
f 75/409 74/410 82/411
f 92/412 84/413 85/414
f 81/415 79/416 77/417
f 87/418 89/419 91/420
f 77/421 75/422 82/423
f 92/424 85/425 87/426
f 82/427 81/428 77/429
f 87/430 91/431 92/432
f 73/433 83/434 84/435
f 73/436 84/437 74/438
f 74/439 84/440 85/441
f 74/442 85/443 75/444
f 75/445 85/446 86/447
f 75/448 86/449 76/450
f 76/451 86/452 87/453
f 76/454 87/455 77/456
f 77/457 87/458 88/459
f 77/460 88/461 78/462
f 78/463 88/464 89/465
f 78/466 89/467 79/468
f 79/469 89/470 90/471
f 79/472 90/473 80/474
f 80/475 90/476 91/477
f 80/478 91/479 81/480
f 81/481 91/482 92/483
f 81/484 92/485 82/486
f 82/487 92/488 83/489
f 82/490 83/491 73/492
g rim_right
f 94/493 93/494 102/495
f 112/496 103/497 104/498
f 101/499 100/500 99/501
f 109/502 110/503 111/504
f 99/505 98/506 97/507
f 107/508 108/509 109/510
f 97/511 96/512 95/513
f 105/514 106/515 107/516
f 95/517 94/518 102/519
f 112/520 104/521 105/522
f 101/523 99/524 97/525
f 107/526 109/527 111/528
f 97/529 95/530 102/531
f 112/532 105/533 107/534
f 102/535 101/536 97/537
f 107/538 111/539 112/540
f 93/541 103/542 104/543
f 93/544 104/545 94/546
f 94/547 104/548 105/549
f 94/550 105/551 95/552
f 95/553 105/554 106/555
f 95/556 106/557 96/558
f 96/559 106/560 107/561
f 96/562 107/563 97/564
f 97/565 107/566 108/567
f 97/568 108/569 98/570
f 98/571 108/572 109/573
f 98/574 109/575 99/576
f 99/577 109/578 110/579
f 99/580 110/581 100/582
f 100/583 110/584 111/585
f 100/586 111/587 101/588
f 101/589 111/590 112/591
f 101/592 112/593 102/594
f 102/595 112/596 103/597
f 102/598 103/599 93/600
g void_right
f 114/601 113/602 122/603
f 132/604 123/605 124/606
f 121/607 120/608 119/609
f 129/610 130/611 131/612
f 119/613 118/614 117/615
f 127/616 128/617 129/618
f 117/619 116/620 115/621
f 125/622 126/623 127/624
f 115/625 114/626 122/627
f 132/628 124/629 125/630
f 121/631 119/632 117/633
f 127/634 129/635 131/636
f 117/637 115/638 122/639
f 132/640 125/641 127/642
f 122/643 121/644 117/645
f 127/646 131/647 132/648
f 113/649 123/650 124/651
f 113/652 124/653 114/654
f 114/655 124/656 125/657
f 114/658 125/659 115/660
f 115/661 125/662 126/663
f 115/664 126/665 116/666
f 116/667 126/668 127/669
f 116/670 127/671 117/672
f 117/673 127/674 128/675
f 117/676 128/677 118/678
f 118/679 128/680 129/681
f 118/682 129/683 119/684
f 119/685 129/686 130/687
f 119/688 130/689 120/690
f 120/691 130/692 131/693
f 120/694 131/695 121/696
f 121/697 131/698 132/699
f 121/700 132/701 122/702
f 122/703 132/704 123/705
f 122/706 123/707 113/708
g vein_right
f 134/709 133/710 138/711
f 144/712 139/713 140/714
f 137/715 136/716 135/717
f 141/718 142/719 143/720
f 135/721 134/722 138/723
f 144/724 140/725 141/726
f 138/727 137/728 135/729
f 141/730 143/731 144/732
f 133/733 139/734 140/735
f 133/736 140/737 134/738
f 134/739 140/740 141/741
f 134/742 141/743 135/744
f 135/745 141/746 142/747
f 135/748 142/749 136/750
f 136/751 142/752 143/753
f 136/754 143/755 137/756
f 137/757 143/758 144/759
f 137/760 144/761 138/762
f 138/763 144/764 139/765
f 138/766 139/767 133/768
