# Blade Tetra Dead Thought - authored in Blockbench; units are blocks
v -0.460000 -0.350000 0.020000
v -0.180000 -0.190000 0.020000
v 0.030000 -0.145000 0.020000
v 0.410000 0.040000 0.020000
v 0.050000 -0.125000 0.020000
v -0.150000 -0.152000 0.020000
v -0.460000 -0.350000 -0.020000
v -0.180000 -0.190000 -0.020000
v 0.030000 -0.145000 -0.020000
v 0.410000 0.040000 -0.020000
v 0.050000 -0.125000 -0.020000
v -0.150000 -0.152000 -0.020000
vt 0.031250 0.687500
vt 0.050781 0.566406
vt 0.070313 0.445313
vt 0.031250 0.687500
vt 0.050781 0.566406
vt 0.070313 0.445313
vt 0.031250 0.687500
vt 0.050781 0.566406
vt 0.070313 0.445313
vt 0.031250 0.687500
vt 0.050781 0.566406
vt 0.070313 0.445313
vt 0.031250 0.687500
vt 0.050781 0.566406
vt 0.070313 0.445313
vt 0.031250 0.687500
vt 0.050781 0.566406
vt 0.070313 0.445313
vt 0.031250 0.687500
vt 0.050781 0.566406
vt 0.070313 0.445313
vt 0.031250 0.687500
vt 0.050781 0.566406
vt 0.070313 0.445313
vt 0.031250 0.687500
vt 0.050781 0.566406
vt 0.070313 0.445313
vt 0.031250 0.687500
vt 0.050781 0.566406
vt 0.070313 0.445313
vt 0.031250 0.687500
vt 0.050781 0.566406
vt 0.070313 0.445313
vt 0.031250 0.687500
vt 0.050781 0.566406
vt 0.070313 0.445313
vt 0.031250 0.687500
vt 0.050781 0.566406
vt 0.070313 0.445313
vt 0.031250 0.687500
vt 0.050781 0.566406
vt 0.070313 0.445313
vt 0.031250 0.687500
vt 0.050781 0.566406
vt 0.070313 0.445313
vt 0.031250 0.687500
vt 0.050781 0.566406
vt 0.070313 0.445313
vt 0.031250 0.687500
vt 0.050781 0.566406
vt 0.070313 0.445313
vt 0.031250 0.687500
vt 0.050781 0.566406
vt 0.070313 0.445313
vt 0.031250 0.687500
vt 0.050781 0.566406
vt 0.070313 0.445313
vt 0.031250 0.687500
vt 0.050781 0.566406
vt 0.070313 0.445313
v -0.380000 -0.300000 0.023000
v -0.170000 -0.178000 0.023000
v 0.040000 -0.136000 0.023000
v 0.330000 0.000000 0.023000
v 0.030000 -0.132000 0.023000
v -0.160000 -0.165000 0.023000
v -0.380000 -0.300000 -0.023000
v -0.170000 -0.178000 -0.023000
v 0.040000 -0.136000 -0.023000
v 0.330000 0.000000 -0.023000
v 0.030000 -0.132000 -0.023000
v -0.160000 -0.165000 -0.023000
vt 0.531250 0.687500
vt 0.550781 0.566406
vt 0.570313 0.445313
vt 0.531250 0.687500
vt 0.550781 0.566406
vt 0.570313 0.445313
vt 0.531250 0.687500
vt 0.550781 0.566406
vt 0.570313 0.445313
vt 0.531250 0.687500
vt 0.550781 0.566406
vt 0.570313 0.445313
vt 0.531250 0.687500
vt 0.550781 0.566406
vt 0.570313 0.445313
vt 0.531250 0.687500
vt 0.550781 0.566406
vt 0.570313 0.445313
vt 0.531250 0.687500
vt 0.550781 0.566406
vt 0.570313 0.445313
vt 0.531250 0.687500
vt 0.550781 0.566406
vt 0.570313 0.445313
vt 0.406250 0.687500
vt 0.425781 0.566406
vt 0.445313 0.445313
vt 0.406250 0.687500
vt 0.425781 0.566406
vt 0.445313 0.445313
vt 0.406250 0.687500
vt 0.425781 0.566406
vt 0.445313 0.445313
vt 0.406250 0.687500
vt 0.425781 0.566406
vt 0.445313 0.445313
vt 0.406250 0.687500
vt 0.425781 0.566406
vt 0.445313 0.445313
vt 0.406250 0.687500
vt 0.425781 0.566406
vt 0.445313 0.445313
vt 0.406250 0.687500
vt 0.425781 0.566406
vt 0.445313 0.445313
vt 0.406250 0.687500
vt 0.425781 0.566406
vt 0.445313 0.445313
vt 0.406250 0.687500
vt 0.425781 0.566406
vt 0.445313 0.445313
vt 0.406250 0.687500
vt 0.425781 0.566406
vt 0.445313 0.445313
vt 0.406250 0.687500
vt 0.425781 0.566406
vt 0.445313 0.445313
vt 0.406250 0.687500
vt 0.425781 0.566406
vt 0.445313 0.445313
v -0.460000 -0.190000 0.020000
v -0.180000 -0.030000 0.020000
v 0.030000 0.015000 0.020000
v 0.410000 0.200000 0.020000
v 0.050000 0.035000 0.020000
v -0.150000 0.008000 0.020000
v -0.460000 -0.190000 -0.020000
v -0.180000 -0.030000 -0.020000
v 0.030000 0.015000 -0.020000
v 0.410000 0.200000 -0.020000
v 0.050000 0.035000 -0.020000
v -0.150000 0.008000 -0.020000
vt 0.031250 0.687500
vt 0.050781 0.566406
vt 0.070313 0.445313
vt 0.031250 0.687500
vt 0.050781 0.566406
vt 0.070313 0.445313
vt 0.031250 0.687500
vt 0.050781 0.566406
vt 0.070313 0.445313
vt 0.031250 0.687500
vt 0.050781 0.566406
vt 0.070313 0.445313
vt 0.031250 0.687500
vt 0.050781 0.566406
vt 0.070313 0.445313
vt 0.031250 0.687500
vt 0.050781 0.566406
vt 0.070313 0.445313
vt 0.031250 0.687500
vt 0.050781 0.566406
vt 0.070313 0.445313
vt 0.031250 0.687500
vt 0.050781 0.566406
vt 0.070313 0.445313
vt 0.031250 0.687500
vt 0.050781 0.566406
vt 0.070313 0.445313
vt 0.031250 0.687500
vt 0.050781 0.566406
vt 0.070313 0.445313
vt 0.031250 0.687500
vt 0.050781 0.566406
vt 0.070313 0.445313
vt 0.031250 0.687500
vt 0.050781 0.566406
vt 0.070313 0.445313
vt 0.031250 0.687500
vt 0.050781 0.566406
vt 0.070313 0.445313
vt 0.031250 0.687500
vt 0.050781 0.566406
vt 0.070313 0.445313
vt 0.031250 0.687500
vt 0.050781 0.566406
vt 0.070313 0.445313
vt 0.031250 0.687500
vt 0.050781 0.566406
vt 0.070313 0.445313
vt 0.031250 0.687500
vt 0.050781 0.566406
vt 0.070313 0.445313
vt 0.031250 0.687500
vt 0.050781 0.566406
vt 0.070313 0.445313
vt 0.031250 0.687500
vt 0.050781 0.566406
vt 0.070313 0.445313
vt 0.031250 0.687500
vt 0.050781 0.566406
vt 0.070313 0.445313
v -0.380000 -0.140000 0.023000
v -0.170000 -0.018000 0.023000
v 0.040000 0.024000 0.023000
v 0.330000 0.160000 0.023000
v 0.030000 0.028000 0.023000
v -0.160000 -0.005000 0.023000
v -0.380000 -0.140000 -0.023000
v -0.170000 -0.018000 -0.023000
v 0.040000 0.024000 -0.023000
v 0.330000 0.160000 -0.023000
v 0.030000 0.028000 -0.023000
v -0.160000 -0.005000 -0.023000
vt 0.531250 0.687500
vt 0.550781 0.566406
vt 0.570313 0.445313
vt 0.531250 0.687500
vt 0.550781 0.566406
vt 0.570313 0.445313
vt 0.531250 0.687500
vt 0.550781 0.566406
vt 0.570313 0.445313
vt 0.531250 0.687500
vt 0.550781 0.566406
vt 0.570313 0.445313
vt 0.531250 0.687500
vt 0.550781 0.566406
vt 0.570313 0.445313
vt 0.531250 0.687500
vt 0.550781 0.566406
vt 0.570313 0.445313
vt 0.531250 0.687500
vt 0.550781 0.566406
vt 0.570313 0.445313
vt 0.531250 0.687500
vt 0.550781 0.566406
vt 0.570313 0.445313
vt 0.406250 0.687500
vt 0.425781 0.566406
vt 0.445313 0.445313
vt 0.406250 0.687500
vt 0.425781 0.566406
vt 0.445313 0.445313
vt 0.406250 0.687500
vt 0.425781 0.566406
vt 0.445313 0.445313
vt 0.406250 0.687500
vt 0.425781 0.566406
vt 0.445313 0.445313
vt 0.406250 0.687500
vt 0.425781 0.566406
vt 0.445313 0.445313
vt 0.406250 0.687500
vt 0.425781 0.566406
vt 0.445313 0.445313
vt 0.406250 0.687500
vt 0.425781 0.566406
vt 0.445313 0.445313
vt 0.406250 0.687500
vt 0.425781 0.566406
vt 0.445313 0.445313
vt 0.406250 0.687500
vt 0.425781 0.566406
vt 0.445313 0.445313
vt 0.406250 0.687500
vt 0.425781 0.566406
vt 0.445313 0.445313
vt 0.406250 0.687500
vt 0.425781 0.566406
vt 0.445313 0.445313
vt 0.406250 0.687500
vt 0.425781 0.566406
vt 0.445313 0.445313
v -0.460000 -0.030000 0.020000
v -0.180000 0.130000 0.020000
v 0.030000 0.175000 0.020000
v 0.410000 0.360000 0.020000
v 0.050000 0.195000 0.020000
v -0.150000 0.168000 0.020000
v -0.460000 -0.030000 -0.020000
v -0.180000 0.130000 -0.020000
v 0.030000 0.175000 -0.020000
v 0.410000 0.360000 -0.020000
v 0.050000 0.195000 -0.020000
v -0.150000 0.168000 -0.020000
vt 0.031250 0.687500
vt 0.050781 0.566406
vt 0.070313 0.445313
vt 0.031250 0.687500
vt 0.050781 0.566406
vt 0.070313 0.445313
vt 0.031250 0.687500
vt 0.050781 0.566406
vt 0.070313 0.445313
vt 0.031250 0.687500
vt 0.050781 0.566406
vt 0.070313 0.445313
vt 0.031250 0.687500
vt 0.050781 0.566406
vt 0.070313 0.445313
vt 0.031250 0.687500
vt 0.050781 0.566406
vt 0.070313 0.445313
vt 0.031250 0.687500
vt 0.050781 0.566406
vt 0.070313 0.445313
vt 0.031250 0.687500
vt 0.050781 0.566406
vt 0.070313 0.445313
vt 0.031250 0.687500
vt 0.050781 0.566406
vt 0.070313 0.445313
vt 0.031250 0.687500
vt 0.050781 0.566406
vt 0.070313 0.445313
vt 0.031250 0.687500
vt 0.050781 0.566406
vt 0.070313 0.445313
vt 0.031250 0.687500
vt 0.050781 0.566406
vt 0.070313 0.445313
vt 0.031250 0.687500
vt 0.050781 0.566406
vt 0.070313 0.445313
vt 0.031250 0.687500
vt 0.050781 0.566406
vt 0.070313 0.445313
vt 0.031250 0.687500
vt 0.050781 0.566406
vt 0.070313 0.445313
vt 0.031250 0.687500
vt 0.050781 0.566406
vt 0.070313 0.445313
vt 0.031250 0.687500
vt 0.050781 0.566406
vt 0.070313 0.445313
vt 0.031250 0.687500
vt 0.050781 0.566406
vt 0.070313 0.445313
vt 0.031250 0.687500
vt 0.050781 0.566406
vt 0.070313 0.445313
vt 0.031250 0.687500
vt 0.050781 0.566406
vt 0.070313 0.445313
v -0.380000 0.020000 0.023000
v -0.170000 0.142000 0.023000
v 0.040000 0.184000 0.023000
v 0.330000 0.320000 0.023000
v 0.030000 0.188000 0.023000
v -0.160000 0.155000 0.023000
v -0.380000 0.020000 -0.023000
v -0.170000 0.142000 -0.023000
v 0.040000 0.184000 -0.023000
v 0.330000 0.320000 -0.023000
v 0.030000 0.188000 -0.023000
v -0.160000 0.155000 -0.023000
vt 0.531250 0.687500
vt 0.550781 0.566406
vt 0.570313 0.445313
vt 0.531250 0.687500
vt 0.550781 0.566406
vt 0.570313 0.445313
vt 0.531250 0.687500
vt 0.550781 0.566406
vt 0.570313 0.445313
vt 0.531250 0.687500
vt 0.550781 0.566406
vt 0.570313 0.445313
vt 0.531250 0.687500
vt 0.550781 0.566406
vt 0.570313 0.445313
vt 0.531250 0.687500
vt 0.550781 0.566406
vt 0.570313 0.445313
vt 0.531250 0.687500
vt 0.550781 0.566406
vt 0.570313 0.445313
vt 0.531250 0.687500
vt 0.550781 0.566406
vt 0.570313 0.445313
vt 0.406250 0.687500
vt 0.425781 0.566406
vt 0.445313 0.445313
vt 0.406250 0.687500
vt 0.425781 0.566406
vt 0.445313 0.445313
vt 0.406250 0.687500
vt 0.425781 0.566406
vt 0.445313 0.445313
vt 0.406250 0.687500
vt 0.425781 0.566406
vt 0.445313 0.445313
vt 0.406250 0.687500
vt 0.425781 0.566406
vt 0.445313 0.445313
vt 0.406250 0.687500
vt 0.425781 0.566406
vt 0.445313 0.445313
vt 0.406250 0.687500
vt 0.425781 0.566406
vt 0.445313 0.445313
vt 0.406250 0.687500
vt 0.425781 0.566406
vt 0.445313 0.445313
vt 0.406250 0.687500
vt 0.425781 0.566406
vt 0.445313 0.445313
vt 0.406250 0.687500
vt 0.425781 0.566406
vt 0.445313 0.445313
vt 0.406250 0.687500
vt 0.425781 0.566406
vt 0.445313 0.445313
vt 0.406250 0.687500
vt 0.425781 0.566406
vt 0.445313 0.445313
v 0.694966 0.083799 0.022500
v 0.676248 0.180802 0.022500
v 0.652096 0.174345 0.022500
v 0.670146 0.080806 0.022500
v 0.694966 0.083799 -0.022500
v 0.676248 0.180802 -0.022500
v 0.652096 0.174345 -0.022500
v 0.670146 0.080806 -0.022500
vt 0.281250 0.687500
vt 0.300781 0.566406
vt 0.320313 0.445313
vt 0.281250 0.687500
vt 0.300781 0.566406
vt 0.320313 0.445313
vt 0.281250 0.687500
vt 0.300781 0.566406
vt 0.320313 0.445313
vt 0.281250 0.687500
vt 0.300781 0.566406
vt 0.320313 0.445313
vt 0.156250 0.687500
vt 0.175781 0.566406
vt 0.195313 0.445313
vt 0.156250 0.687500
vt 0.175781 0.566406
vt 0.195313 0.445313
vt 0.156250 0.687500
vt 0.175781 0.566406
vt 0.195313 0.445313
vt 0.156250 0.687500
vt 0.175781 0.566406
vt 0.195313 0.445313
vt 0.156250 0.687500
vt 0.175781 0.566406
vt 0.195313 0.445313
vt 0.156250 0.687500
vt 0.175781 0.566406
vt 0.195313 0.445313
vt 0.156250 0.687500
vt 0.175781 0.566406
vt 0.195313 0.445313
vt 0.156250 0.687500
vt 0.175781 0.566406
vt 0.195313 0.445313
v 0.676248 0.180802 0.022500
v 0.644059 0.274204 0.022500
v 0.621057 0.264411 0.022500
v 0.652096 0.174345 0.022500
v 0.676248 0.180802 -0.022500
v 0.644059 0.274204 -0.022500
v 0.621057 0.264411 -0.022500
v 0.652096 0.174345 -0.022500
vt 0.281250 0.687500
vt 0.300781 0.566406
vt 0.320313 0.445313
vt 0.281250 0.687500
vt 0.300781 0.566406
vt 0.320313 0.445313
vt 0.281250 0.687500
vt 0.300781 0.566406
vt 0.320313 0.445313
vt 0.281250 0.687500
vt 0.300781 0.566406
vt 0.320313 0.445313
vt 0.156250 0.687500
vt 0.175781 0.566406
vt 0.195313 0.445313
vt 0.156250 0.687500
vt 0.175781 0.566406
vt 0.195313 0.445313
vt 0.156250 0.687500
vt 0.175781 0.566406
vt 0.195313 0.445313
vt 0.156250 0.687500
vt 0.175781 0.566406
vt 0.195313 0.445313
vt 0.156250 0.687500
vt 0.175781 0.566406
vt 0.195313 0.445313
vt 0.156250 0.687500
vt 0.175781 0.566406
vt 0.195313 0.445313
vt 0.156250 0.687500
vt 0.175781 0.566406
vt 0.195313 0.445313
vt 0.156250 0.687500
vt 0.175781 0.566406
vt 0.195313 0.445313
v 0.644059 0.274204 0.022500
v 0.599042 0.362144 0.022500
v 0.577648 0.349210 0.022500
v 0.621057 0.264411 0.022500
v 0.644059 0.274204 -0.022500
v 0.599042 0.362144 -0.022500
v 0.577648 0.349210 -0.022500
v 0.621057 0.264411 -0.022500
vt 0.281250 0.687500
vt 0.300781 0.566406
vt 0.320313 0.445313
vt 0.281250 0.687500
vt 0.300781 0.566406
vt 0.320313 0.445313
vt 0.281250 0.687500
vt 0.300781 0.566406
vt 0.320313 0.445313
vt 0.281250 0.687500
vt 0.300781 0.566406
vt 0.320313 0.445313
vt 0.156250 0.687500
vt 0.175781 0.566406
vt 0.195313 0.445313
vt 0.156250 0.687500
vt 0.175781 0.566406
vt 0.195313 0.445313
vt 0.156250 0.687500
vt 0.175781 0.566406
vt 0.195313 0.445313
vt 0.156250 0.687500
vt 0.175781 0.566406
vt 0.195313 0.445313
vt 0.156250 0.687500
vt 0.175781 0.566406
vt 0.195313 0.445313
vt 0.156250 0.687500
vt 0.175781 0.566406
vt 0.195313 0.445313
vt 0.156250 0.687500
vt 0.175781 0.566406
vt 0.195313 0.445313
vt 0.156250 0.687500
vt 0.175781 0.566406
vt 0.195313 0.445313
v 0.599042 0.362144 0.022500
v 0.542093 0.442871 0.022500
v 0.522733 0.427054 0.022500
v 0.577648 0.349210 0.022500
v 0.599042 0.362144 -0.022500
v 0.542093 0.442871 -0.022500
v 0.522733 0.427054 -0.022500
v 0.577648 0.349210 -0.022500
vt 0.281250 0.687500
vt 0.300781 0.566406
vt 0.320313 0.445313
vt 0.281250 0.687500
vt 0.300781 0.566406
vt 0.320313 0.445313
vt 0.281250 0.687500
vt 0.300781 0.566406
vt 0.320313 0.445313
vt 0.281250 0.687500
vt 0.300781 0.566406
vt 0.320313 0.445313
vt 0.156250 0.687500
vt 0.175781 0.566406
vt 0.195313 0.445313
vt 0.156250 0.687500
vt 0.175781 0.566406
vt 0.195313 0.445313
vt 0.156250 0.687500
vt 0.175781 0.566406
vt 0.195313 0.445313
vt 0.156250 0.687500
vt 0.175781 0.566406
vt 0.195313 0.445313
vt 0.156250 0.687500
vt 0.175781 0.566406
vt 0.195313 0.445313
vt 0.156250 0.687500
vt 0.175781 0.566406
vt 0.195313 0.445313
vt 0.156250 0.687500
vt 0.175781 0.566406
vt 0.195313 0.445313
vt 0.156250 0.687500
vt 0.175781 0.566406
vt 0.195313 0.445313
v 0.542093 0.442871 0.022500
v 0.474347 0.514777 0.022500
v 0.457406 0.496392 0.022500
v 0.522733 0.427054 0.022500
v 0.542093 0.442871 -0.022500
v 0.474347 0.514777 -0.022500
v 0.457406 0.496392 -0.022500
v 0.522733 0.427054 -0.022500
vt 0.281250 0.687500
vt 0.300781 0.566406
vt 0.320313 0.445313
vt 0.281250 0.687500
vt 0.300781 0.566406
vt 0.320313 0.445313
vt 0.281250 0.687500
vt 0.300781 0.566406
vt 0.320313 0.445313
vt 0.281250 0.687500
vt 0.300781 0.566406
vt 0.320313 0.445313
vt 0.156250 0.687500
vt 0.175781 0.566406
vt 0.195313 0.445313
vt 0.156250 0.687500
vt 0.175781 0.566406
vt 0.195313 0.445313
vt 0.156250 0.687500
vt 0.175781 0.566406
vt 0.195313 0.445313
vt 0.156250 0.687500
vt 0.175781 0.566406
vt 0.195313 0.445313
vt 0.156250 0.687500
vt 0.175781 0.566406
vt 0.195313 0.445313
vt 0.156250 0.687500
vt 0.175781 0.566406
vt 0.195313 0.445313
vt 0.156250 0.687500
vt 0.175781 0.566406
vt 0.195313 0.445313
vt 0.156250 0.687500
vt 0.175781 0.566406
vt 0.195313 0.445313
v 0.474347 0.514777 0.022500
v 0.397152 0.576429 0.022500
v 0.382968 0.555842 0.022500
v 0.457406 0.496392 0.022500
v 0.474347 0.514777 -0.022500
v 0.397152 0.576429 -0.022500
v 0.382968 0.555842 -0.022500
v 0.457406 0.496392 -0.022500
vt 0.281250 0.687500
vt 0.300781 0.566406
vt 0.320313 0.445313
vt 0.281250 0.687500
vt 0.300781 0.566406
vt 0.320313 0.445313
vt 0.281250 0.687500
vt 0.300781 0.566406
vt 0.320313 0.445313
vt 0.281250 0.687500
vt 0.300781 0.566406
vt 0.320313 0.445313
vt 0.156250 0.687500
vt 0.175781 0.566406
vt 0.195313 0.445313
vt 0.156250 0.687500
vt 0.175781 0.566406
vt 0.195313 0.445313
vt 0.156250 0.687500
vt 0.175781 0.566406
vt 0.195313 0.445313
vt 0.156250 0.687500
vt 0.175781 0.566406
vt 0.195313 0.445313
vt 0.156250 0.687500
vt 0.175781 0.566406
vt 0.195313 0.445313
vt 0.156250 0.687500
vt 0.175781 0.566406
vt 0.195313 0.445313
vt 0.156250 0.687500
vt 0.175781 0.566406
vt 0.195313 0.445313
vt 0.156250 0.687500
vt 0.175781 0.566406
vt 0.195313 0.445313
v 0.397152 0.576429 0.022500
v 0.312047 0.626600 0.022500
v 0.300902 0.604221 0.022500
v 0.382968 0.555842 0.022500
v 0.397152 0.576429 -0.022500
v 0.312047 0.626600 -0.022500
v 0.300902 0.604221 -0.022500
v 0.382968 0.555842 -0.022500
vt 0.281250 0.687500
vt 0.300781 0.566406
vt 0.320313 0.445313
vt 0.281250 0.687500
vt 0.300781 0.566406
vt 0.320313 0.445313
vt 0.281250 0.687500
vt 0.300781 0.566406
vt 0.320313 0.445313
vt 0.281250 0.687500
vt 0.300781 0.566406
vt 0.320313 0.445313
vt 0.156250 0.687500
vt 0.175781 0.566406
vt 0.195313 0.445313
vt 0.156250 0.687500
vt 0.175781 0.566406
vt 0.195313 0.445313
vt 0.156250 0.687500
vt 0.175781 0.566406
vt 0.195313 0.445313
vt 0.156250 0.687500
vt 0.175781 0.566406
vt 0.195313 0.445313
vt 0.156250 0.687500
vt 0.175781 0.566406
vt 0.195313 0.445313
vt 0.156250 0.687500
vt 0.175781 0.566406
vt 0.195313 0.445313
vt 0.156250 0.687500
vt 0.175781 0.566406
vt 0.195313 0.445313
vt 0.156250 0.687500
vt 0.175781 0.566406
vt 0.195313 0.445313
v 0.312047 0.626600 0.022500
v 0.220726 0.664289 0.022500
v 0.212843 0.640565 0.022500
v 0.300902 0.604221 0.022500
v 0.312047 0.626600 -0.022500
v 0.220726 0.664289 -0.022500
v 0.212843 0.640565 -0.022500
v 0.300902 0.604221 -0.022500
vt 0.281250 0.687500
vt 0.300781 0.566406
vt 0.320313 0.445313
vt 0.281250 0.687500
vt 0.300781 0.566406
vt 0.320313 0.445313
vt 0.281250 0.687500
vt 0.300781 0.566406
vt 0.320313 0.445313
vt 0.281250 0.687500
vt 0.300781 0.566406
vt 0.320313 0.445313
vt 0.156250 0.687500
vt 0.175781 0.566406
vt 0.195313 0.445313
vt 0.156250 0.687500
vt 0.175781 0.566406
vt 0.195313 0.445313
vt 0.156250 0.687500
vt 0.175781 0.566406
vt 0.195313 0.445313
vt 0.156250 0.687500
vt 0.175781 0.566406
vt 0.195313 0.445313
vt 0.156250 0.687500
vt 0.175781 0.566406
vt 0.195313 0.445313
vt 0.156250 0.687500
vt 0.175781 0.566406
vt 0.195313 0.445313
vt 0.156250 0.687500
vt 0.175781 0.566406
vt 0.195313 0.445313
vt 0.156250 0.687500
vt 0.175781 0.566406
vt 0.195313 0.445313
v -0.659556 0.234492 0.022500
v -0.684388 0.147012 0.022500
v -0.664834 0.142812 0.022500
v -0.640711 0.227792 0.022500
v -0.659556 0.234492 -0.022500
v -0.684388 0.147012 -0.022500
v -0.664834 0.142812 -0.022500
v -0.640711 0.227792 -0.022500
vt 0.406250 0.687500
vt 0.425781 0.566406
vt 0.445313 0.445313
vt 0.406250 0.687500
vt 0.425781 0.566406
vt 0.445313 0.445313
vt 0.406250 0.687500
vt 0.425781 0.566406
vt 0.445313 0.445313
vt 0.406250 0.687500
vt 0.425781 0.566406
vt 0.445313 0.445313
vt 0.281250 0.687500
vt 0.300781 0.566406
vt 0.320313 0.445313
vt 0.281250 0.687500
vt 0.300781 0.566406
vt 0.320313 0.445313
vt 0.281250 0.687500
vt 0.300781 0.566406
vt 0.320313 0.445313
vt 0.281250 0.687500
vt 0.300781 0.566406
vt 0.320313 0.445313
vt 0.281250 0.687500
vt 0.300781 0.566406
vt 0.320313 0.445313
vt 0.281250 0.687500
vt 0.300781 0.566406
vt 0.320313 0.445313
vt 0.281250 0.687500
vt 0.300781 0.566406
vt 0.320313 0.445313
vt 0.281250 0.687500
vt 0.300781 0.566406
vt 0.320313 0.445313
v -0.684388 0.147012 0.022500
v -0.697671 0.057052 0.022500
v -0.677738 0.055421 0.022500
v -0.664834 0.142812 0.022500
v -0.684388 0.147012 -0.022500
v -0.697671 0.057052 -0.022500
v -0.677738 0.055421 -0.022500
v -0.664834 0.142812 -0.022500
vt 0.406250 0.687500
vt 0.425781 0.566406
vt 0.445313 0.445313
vt 0.406250 0.687500
vt 0.425781 0.566406
vt 0.445313 0.445313
vt 0.406250 0.687500
vt 0.425781 0.566406
vt 0.445313 0.445313
vt 0.406250 0.687500
vt 0.425781 0.566406
vt 0.445313 0.445313
vt 0.281250 0.687500
vt 0.300781 0.566406
vt 0.320313 0.445313
vt 0.281250 0.687500
vt 0.300781 0.566406
vt 0.320313 0.445313
vt 0.281250 0.687500
vt 0.300781 0.566406
vt 0.320313 0.445313
vt 0.281250 0.687500
vt 0.300781 0.566406
vt 0.320313 0.445313
vt 0.281250 0.687500
vt 0.300781 0.566406
vt 0.320313 0.445313
vt 0.281250 0.687500
vt 0.300781 0.566406
vt 0.320313 0.445313
vt 0.281250 0.687500
vt 0.300781 0.566406
vt 0.320313 0.445313
vt 0.281250 0.687500
vt 0.300781 0.566406
vt 0.320313 0.445313
v -0.697671 0.057052 0.022500
v -0.699180 -0.033872 0.022500
v -0.679203 -0.032904 0.022500
v -0.677738 0.055421 0.022500
v -0.697671 0.057052 -0.022500
v -0.699180 -0.033872 -0.022500
v -0.679203 -0.032904 -0.022500
v -0.677738 0.055421 -0.022500
vt 0.406250 0.687500
vt 0.425781 0.566406
vt 0.445313 0.445313
vt 0.406250 0.687500
vt 0.425781 0.566406
vt 0.445313 0.445313
vt 0.406250 0.687500
vt 0.425781 0.566406
vt 0.445313 0.445313
vt 0.406250 0.687500
vt 0.425781 0.566406
vt 0.445313 0.445313
vt 0.281250 0.687500
vt 0.300781 0.566406
vt 0.320313 0.445313
vt 0.281250 0.687500
vt 0.300781 0.566406
vt 0.320313 0.445313
vt 0.281250 0.687500
vt 0.300781 0.566406
vt 0.320313 0.445313
vt 0.281250 0.687500
vt 0.300781 0.566406
vt 0.320313 0.445313
vt 0.281250 0.687500
vt 0.300781 0.566406
vt 0.320313 0.445313
vt 0.281250 0.687500
vt 0.300781 0.566406
vt 0.320313 0.445313
vt 0.281250 0.687500
vt 0.300781 0.566406
vt 0.320313 0.445313
vt 0.281250 0.687500
vt 0.300781 0.566406
vt 0.320313 0.445313
v -0.699180 -0.033872 0.022500
v -0.688889 -0.124224 0.022500
v -0.669207 -0.120674 0.022500
v -0.679203 -0.032904 0.022500
v -0.699180 -0.033872 -0.022500
v -0.688889 -0.124224 -0.022500
v -0.669207 -0.120674 -0.022500
v -0.679203 -0.032904 -0.022500
vt 0.406250 0.687500
vt 0.425781 0.566406
vt 0.445313 0.445313
vt 0.406250 0.687500
vt 0.425781 0.566406
vt 0.445313 0.445313
vt 0.406250 0.687500
vt 0.425781 0.566406
vt 0.445313 0.445313
vt 0.406250 0.687500
vt 0.425781 0.566406
vt 0.445313 0.445313
vt 0.281250 0.687500
vt 0.300781 0.566406
vt 0.320313 0.445313
vt 0.281250 0.687500
vt 0.300781 0.566406
vt 0.320313 0.445313
vt 0.281250 0.687500
vt 0.300781 0.566406
vt 0.320313 0.445313
vt 0.281250 0.687500
vt 0.300781 0.566406
vt 0.320313 0.445313
vt 0.281250 0.687500
vt 0.300781 0.566406
vt 0.320313 0.445313
vt 0.281250 0.687500
vt 0.300781 0.566406
vt 0.320313 0.445313
vt 0.281250 0.687500
vt 0.300781 0.566406
vt 0.320313 0.445313
vt 0.281250 0.687500
vt 0.300781 0.566406
vt 0.320313 0.445313
v -0.688889 -0.124224 0.022500
v -0.666973 -0.212479 0.022500
v -0.647916 -0.206408 0.022500
v -0.669207 -0.120674 0.022500
v -0.688889 -0.124224 -0.022500
v -0.666973 -0.212479 -0.022500
v -0.647916 -0.206408 -0.022500
v -0.669207 -0.120674 -0.022500
vt 0.406250 0.687500
vt 0.425781 0.566406
vt 0.445313 0.445313
vt 0.406250 0.687500
vt 0.425781 0.566406
vt 0.445313 0.445313
vt 0.406250 0.687500
vt 0.425781 0.566406
vt 0.445313 0.445313
vt 0.406250 0.687500
vt 0.425781 0.566406
vt 0.445313 0.445313
vt 0.281250 0.687500
vt 0.300781 0.566406
vt 0.320313 0.445313
vt 0.281250 0.687500
vt 0.300781 0.566406
vt 0.320313 0.445313
vt 0.281250 0.687500
vt 0.300781 0.566406
vt 0.320313 0.445313
vt 0.281250 0.687500
vt 0.300781 0.566406
vt 0.320313 0.445313
vt 0.281250 0.687500
vt 0.300781 0.566406
vt 0.320313 0.445313
vt 0.281250 0.687500
vt 0.300781 0.566406
vt 0.320313 0.445313
vt 0.281250 0.687500
vt 0.300781 0.566406
vt 0.320313 0.445313
vt 0.281250 0.687500
vt 0.300781 0.566406
vt 0.320313 0.445313
v -0.666973 -0.212479 0.022500
v -0.633800 -0.297149 0.022500
v -0.615692 -0.288659 0.022500
v -0.647916 -0.206408 0.022500
v -0.666973 -0.212479 -0.022500
v -0.633800 -0.297149 -0.022500
v -0.615692 -0.288659 -0.022500
v -0.647916 -0.206408 -0.022500
vt 0.406250 0.687500
vt 0.425781 0.566406
vt 0.445313 0.445313
vt 0.406250 0.687500
vt 0.425781 0.566406
vt 0.445313 0.445313
vt 0.406250 0.687500
vt 0.425781 0.566406
vt 0.445313 0.445313
vt 0.406250 0.687500
vt 0.425781 0.566406
vt 0.445313 0.445313
vt 0.281250 0.687500
vt 0.300781 0.566406
vt 0.320313 0.445313
vt 0.281250 0.687500
vt 0.300781 0.566406
vt 0.320313 0.445313
vt 0.281250 0.687500
vt 0.300781 0.566406
vt 0.320313 0.445313
vt 0.281250 0.687500
vt 0.300781 0.566406
vt 0.320313 0.445313
vt 0.281250 0.687500
vt 0.300781 0.566406
vt 0.320313 0.445313
vt 0.281250 0.687500
vt 0.300781 0.566406
vt 0.320313 0.445313
vt 0.281250 0.687500
vt 0.300781 0.566406
vt 0.320313 0.445313
vt 0.281250 0.687500
vt 0.300781 0.566406
vt 0.320313 0.445313
v -0.633800 -0.297149 0.022500
v -0.589932 -0.376803 0.022500
v -0.573076 -0.366038 0.022500
v -0.615692 -0.288659 0.022500
v -0.633800 -0.297149 -0.022500
v -0.589932 -0.376803 -0.022500
v -0.573076 -0.366038 -0.022500
v -0.615692 -0.288659 -0.022500
vt 0.406250 0.687500
vt 0.425781 0.566406
vt 0.445313 0.445313
vt 0.406250 0.687500
vt 0.425781 0.566406
vt 0.445313 0.445313
vt 0.406250 0.687500
vt 0.425781 0.566406
vt 0.445313 0.445313
vt 0.406250 0.687500
vt 0.425781 0.566406
vt 0.445313 0.445313
vt 0.281250 0.687500
vt 0.300781 0.566406
vt 0.320313 0.445313
vt 0.281250 0.687500
vt 0.300781 0.566406
vt 0.320313 0.445313
vt 0.281250 0.687500
vt 0.300781 0.566406
vt 0.320313 0.445313
vt 0.281250 0.687500
vt 0.300781 0.566406
vt 0.320313 0.445313
vt 0.281250 0.687500
vt 0.300781 0.566406
vt 0.320313 0.445313
vt 0.281250 0.687500
vt 0.300781 0.566406
vt 0.320313 0.445313
vt 0.281250 0.687500
vt 0.300781 0.566406
vt 0.320313 0.445313
vt 0.281250 0.687500
vt 0.300781 0.566406
vt 0.320313 0.445313
v -0.589932 -0.376803 0.022500
v -0.536107 -0.450099 0.022500
v -0.520790 -0.437239 0.022500
v -0.573076 -0.366038 0.022500
v -0.589932 -0.376803 -0.022500
v -0.536107 -0.450099 -0.022500
v -0.520790 -0.437239 -0.022500
v -0.573076 -0.366038 -0.022500
vt 0.406250 0.687500
vt 0.425781 0.566406
vt 0.445313 0.445313
vt 0.406250 0.687500
vt 0.425781 0.566406
vt 0.445313 0.445313
vt 0.406250 0.687500
vt 0.425781 0.566406
vt 0.445313 0.445313
vt 0.406250 0.687500
vt 0.425781 0.566406
vt 0.445313 0.445313
vt 0.281250 0.687500
vt 0.300781 0.566406
vt 0.320313 0.445313
vt 0.281250 0.687500
vt 0.300781 0.566406
vt 0.320313 0.445313
vt 0.281250 0.687500
vt 0.300781 0.566406
vt 0.320313 0.445313
vt 0.281250 0.687500
vt 0.300781 0.566406
vt 0.320313 0.445313
vt 0.281250 0.687500
vt 0.300781 0.566406
vt 0.320313 0.445313
vt 0.281250 0.687500
vt 0.300781 0.566406
vt 0.320313 0.445313
vt 0.281250 0.687500
vt 0.300781 0.566406
vt 0.320313 0.445313
vt 0.281250 0.687500
vt 0.300781 0.566406
vt 0.320313 0.445313
v -0.536107 -0.450099 0.022500
v -0.473235 -0.515799 0.022500
v -0.459714 -0.501062 0.022500
v -0.520790 -0.437239 0.022500
v -0.536107 -0.450099 -0.022500
v -0.473235 -0.515799 -0.022500
v -0.459714 -0.501062 -0.022500
v -0.520790 -0.437239 -0.022500
vt 0.406250 0.687500
vt 0.425781 0.566406
vt 0.445313 0.445313
vt 0.406250 0.687500
vt 0.425781 0.566406
vt 0.445313 0.445313
vt 0.406250 0.687500
vt 0.425781 0.566406
vt 0.445313 0.445313
vt 0.406250 0.687500
vt 0.425781 0.566406
vt 0.445313 0.445313
vt 0.281250 0.687500
vt 0.300781 0.566406
vt 0.320313 0.445313
vt 0.281250 0.687500
vt 0.300781 0.566406
vt 0.320313 0.445313
vt 0.281250 0.687500
vt 0.300781 0.566406
vt 0.320313 0.445313
vt 0.281250 0.687500
vt 0.300781 0.566406
vt 0.320313 0.445313
vt 0.281250 0.687500
vt 0.300781 0.566406
vt 0.320313 0.445313
vt 0.281250 0.687500
vt 0.300781 0.566406
vt 0.320313 0.445313
vt 0.281250 0.687500
vt 0.300781 0.566406
vt 0.320313 0.445313
vt 0.281250 0.687500
vt 0.300781 0.566406
vt 0.320313 0.445313
v -0.473235 -0.515799 0.022500
v -0.402377 -0.572794 0.022500
v -0.390880 -0.556428 0.022500
v -0.459714 -0.501062 0.022500
v -0.473235 -0.515799 -0.022500
v -0.402377 -0.572794 -0.022500
v -0.390880 -0.556428 -0.022500
v -0.459714 -0.501062 -0.022500
vt 0.406250 0.687500
vt 0.425781 0.566406
vt 0.445313 0.445313
vt 0.406250 0.687500
vt 0.425781 0.566406
vt 0.445313 0.445313
vt 0.406250 0.687500
vt 0.425781 0.566406
vt 0.445313 0.445313
vt 0.406250 0.687500
vt 0.425781 0.566406
vt 0.445313 0.445313
vt 0.281250 0.687500
vt 0.300781 0.566406
vt 0.320313 0.445313
vt 0.281250 0.687500
vt 0.300781 0.566406
vt 0.320313 0.445313
vt 0.281250 0.687500
vt 0.300781 0.566406
vt 0.320313 0.445313
vt 0.281250 0.687500
vt 0.300781 0.566406
vt 0.320313 0.445313
vt 0.281250 0.687500
vt 0.300781 0.566406
vt 0.320313 0.445313
vt 0.281250 0.687500
vt 0.300781 0.566406
vt 0.320313 0.445313
vt 0.281250 0.687500
vt 0.300781 0.566406
vt 0.320313 0.445313
vt 0.281250 0.687500
vt 0.300781 0.566406
vt 0.320313 0.445313
g scar_0
f 6/1 1/2 2/3
f 8/4 7/5 12/6
f 3/7 4/8 5/9
f 11/10 10/11 9/12
f 5/13 6/14 2/15
f 8/16 12/17 11/18
f 2/19 3/20 5/21
f 11/22 9/23 8/24
f 1/25 7/26 8/27
f 1/28 8/29 2/30
f 2/31 8/32 9/33
f 2/34 9/35 3/36
f 3/37 9/38 10/39
f 3/40 10/41 4/42
f 4/43 10/44 11/45
f 4/46 11/47 5/48
f 5/49 11/50 12/51
f 5/52 12/53 6/54
f 6/55 12/56 7/57
f 6/58 7/59 1/60
g edge_0
f 18/61 13/62 14/63
f 20/64 19/65 24/66
f 15/67 16/68 17/69
f 23/70 22/71 21/72
f 17/73 18/74 14/75
f 20/76 24/77 23/78
f 14/79 15/80 17/81
f 23/82 21/83 20/84
f 13/85 19/86 20/87
f 13/88 20/89 14/90
f 14/91 20/92 21/93
f 14/94 21/95 15/96
f 15/97 21/98 22/99
f 15/100 22/101 16/102
f 16/103 22/104 23/105
f 16/106 23/107 17/108
f 17/109 23/110 24/111
f 17/112 24/113 18/114
f 18/115 24/116 19/117
f 18/118 19/119 13/120
g scar_1
f 30/121 25/122 26/123
f 32/124 31/125 36/126
f 27/127 28/128 29/129
f 35/130 34/131 33/132
f 29/133 30/134 26/135
f 32/136 36/137 35/138
f 26/139 27/140 29/141
f 35/142 33/143 32/144
f 25/145 31/146 32/147
f 25/148 32/149 26/150
f 26/151 32/152 33/153
f 26/154 33/155 27/156
f 27/157 33/158 34/159
f 27/160 34/161 28/162
f 28/163 34/164 35/165
f 28/166 35/167 29/168
f 29/169 35/170 36/171
f 29/172 36/173 30/174
f 30/175 36/176 31/177
f 30/178 31/179 25/180
g edge_1
f 42/181 37/182 38/183
f 44/184 43/185 48/186
f 39/187 40/188 41/189
f 47/190 46/191 45/192
f 41/193 42/194 38/195
f 44/196 48/197 47/198
f 38/199 39/200 41/201
f 47/202 45/203 44/204
f 37/205 43/206 44/207
f 37/208 44/209 38/210
f 38/211 44/212 45/213
f 38/214 45/215 39/216
f 39/217 45/218 46/219
f 39/220 46/221 40/222
f 40/223 46/224 47/225
f 40/226 47/227 41/228
f 41/229 47/230 48/231
f 41/232 48/233 42/234
f 42/235 48/236 43/237
f 42/238 43/239 37/240
g scar_2
f 54/241 49/242 50/243
f 56/244 55/245 60/246
f 51/247 52/248 53/249
f 59/250 58/251 57/252
f 53/253 54/254 50/255
f 56/256 60/257 59/258
f 50/259 51/260 53/261
f 59/262 57/263 56/264
f 49/265 55/266 56/267
f 49/268 56/269 50/270
f 50/271 56/272 57/273
f 50/274 57/275 51/276
f 51/277 57/278 58/279
f 51/280 58/281 52/282
f 52/283 58/284 59/285
f 52/286 59/287 53/288
f 53/289 59/290 60/291
f 53/292 60/293 54/294
f 54/295 60/296 55/297
f 54/298 55/299 49/300
g edge_2
f 66/301 61/302 62/303
f 68/304 67/305 72/306
f 63/307 64/308 65/309
f 71/310 70/311 69/312
f 65/313 66/314 62/315
f 68/316 72/317 71/318
f 62/319 63/320 65/321
f 71/322 69/323 68/324
f 61/325 67/326 68/327
f 61/328 68/329 62/330
f 62/331 68/332 69/333
f 62/334 69/335 63/336
f 63/337 69/338 70/339
f 63/340 70/341 64/342
f 64/343 70/344 71/345
f 64/346 71/347 65/348
f 65/349 71/350 72/351
f 65/352 72/353 66/354
f 66/355 72/356 67/357
f 66/358 67/359 61/360
g halo
f 75/361 76/362 73/363
f 77/364 80/365 79/366
f 73/367 74/368 75/369
f 79/370 78/371 77/372
f 73/373 77/374 78/375
f 73/376 78/377 74/378
f 74/379 78/380 79/381
f 74/382 79/383 75/384
f 75/385 79/386 80/387
f 75/388 80/389 76/390
f 76/391 80/392 77/393
f 76/394 77/395 73/396
f 83/397 84/398 81/399
f 85/400 88/401 87/402
f 81/403 82/404 83/405
f 87/406 86/407 85/408
f 81/409 85/410 86/411
f 81/412 86/413 82/414
f 82/415 86/416 87/417
f 82/418 87/419 83/420
f 83/421 87/422 88/423
f 83/424 88/425 84/426
f 84/427 88/428 85/429
f 84/430 85/431 81/432
f 91/433 92/434 89/435
f 93/436 96/437 95/438
f 89/439 90/440 91/441
f 95/442 94/443 93/444
f 89/445 93/446 94/447
f 89/448 94/449 90/450
f 90/451 94/452 95/453
f 90/454 95/455 91/456
f 91/457 95/458 96/459
f 91/460 96/461 92/462
f 92/463 96/464 93/465
f 92/466 93/467 89/468
f 99/469 100/470 97/471
f 101/472 104/473 103/474
f 97/475 98/476 99/477
f 103/478 102/479 101/480
f 97/481 101/482 102/483
f 97/484 102/485 98/486
f 98/487 102/488 103/489
f 98/490 103/491 99/492
f 99/493 103/494 104/495
f 99/496 104/497 100/498
f 100/499 104/500 101/501
f 100/502 101/503 97/504
f 107/505 108/506 105/507
f 109/508 112/509 111/510
f 105/511 106/512 107/513
f 111/514 110/515 109/516
f 105/517 109/518 110/519
f 105/520 110/521 106/522
f 106/523 110/524 111/525
f 106/526 111/527 107/528
f 107/529 111/530 112/531
f 107/532 112/533 108/534
f 108/535 112/536 109/537
f 108/538 109/539 105/540
f 115/541 116/542 113/543
f 117/544 120/545 119/546
f 113/547 114/548 115/549
f 119/550 118/551 117/552
f 113/553 117/554 118/555
f 113/556 118/557 114/558
f 114/559 118/560 119/561
f 114/562 119/563 115/564
f 115/565 119/566 120/567
f 115/568 120/569 116/570
f 116/571 120/572 117/573
f 116/574 117/575 113/576
f 123/577 124/578 121/579
f 125/580 128/581 127/582
f 121/583 122/584 123/585
f 127/586 126/587 125/588
f 121/589 125/590 126/591
f 121/592 126/593 122/594
f 122/595 126/596 127/597
f 122/598 127/599 123/600
f 123/601 127/602 128/603
f 123/604 128/605 124/606
f 124/607 128/608 125/609
f 124/610 125/611 121/612
f 131/613 132/614 129/615
f 133/616 136/617 135/618
f 129/619 130/620 131/621
f 135/622 134/623 133/624
f 129/625 133/626 134/627
f 129/628 134/629 130/630
f 130/631 134/632 135/633
f 130/634 135/635 131/636
f 131/637 135/638 136/639
f 131/640 136/641 132/642
f 132/643 136/644 133/645
f 132/646 133/647 129/648
f 139/649 140/650 137/651
f 141/652 144/653 143/654
f 137/655 138/656 139/657
f 143/658 142/659 141/660
f 137/661 141/662 142/663
f 137/664 142/665 138/666
f 138/667 142/668 143/669
f 138/670 143/671 139/672
f 139/673 143/674 144/675
f 139/676 144/677 140/678
f 140/679 144/680 141/681
f 140/682 141/683 137/684
f 147/685 148/686 145/687
f 149/688 152/689 151/690
f 145/691 146/692 147/693
f 151/694 150/695 149/696
f 145/697 149/698 150/699
f 145/700 150/701 146/702
f 146/703 150/704 151/705
f 146/706 151/707 147/708
f 147/709 151/710 152/711
f 147/712 152/713 148/714
f 148/715 152/716 149/717
f 148/718 149/719 145/720
f 155/721 156/722 153/723
f 157/724 160/725 159/726
f 153/727 154/728 155/729
f 159/730 158/731 157/732
f 153/733 157/734 158/735
f 153/736 158/737 154/738
f 154/739 158/740 159/741
f 154/742 159/743 155/744
f 155/745 159/746 160/747
f 155/748 160/749 156/750
f 156/751 160/752 157/753
f 156/754 157/755 153/756
f 163/757 164/758 161/759
f 165/760 168/761 167/762
f 161/763 162/764 163/765
f 167/766 166/767 165/768
f 161/769 165/770 166/771
f 161/772 166/773 162/774
f 162/775 166/776 167/777
f 162/778 167/779 163/780
f 163/781 167/782 168/783
f 163/784 168/785 164/786
f 164/787 168/788 165/789
f 164/790 165/791 161/792
f 171/793 172/794 169/795
f 173/796 176/797 175/798
f 169/799 170/800 171/801
f 175/802 174/803 173/804
f 169/805 173/806 174/807
f 169/808 174/809 170/810
f 170/811 174/812 175/813
f 170/814 175/815 171/816
f 171/817 175/818 176/819
f 171/820 176/821 172/822
f 172/823 176/824 173/825
f 172/826 173/827 169/828
f 179/829 180/830 177/831
f 181/832 184/833 183/834
f 177/835 178/836 179/837
f 183/838 182/839 181/840
f 177/841 181/842 182/843
f 177/844 182/845 178/846
f 178/847 182/848 183/849
f 178/850 183/851 179/852
f 179/853 183/854 184/855
f 179/856 184/857 180/858
f 180/859 184/860 181/861
f 180/862 181/863 177/864
f 187/865 188/866 185/867
f 189/868 192/869 191/870
f 185/871 186/872 187/873
f 191/874 190/875 189/876
f 185/877 189/878 190/879
f 185/880 190/881 186/882
f 186/883 190/884 191/885
f 186/886 191/887 187/888
f 187/889 191/890 192/891
f 187/892 192/893 188/894
f 188/895 192/896 189/897
f 188/898 189/899 185/900
f 195/901 196/902 193/903
f 197/904 200/905 199/906
f 193/907 194/908 195/909
f 199/910 198/911 197/912
f 193/913 197/914 198/915
f 193/916 198/917 194/918
f 194/919 198/920 199/921
f 194/922 199/923 195/924
f 195/925 199/926 200/927
f 195/928 200/929 196/930
f 196/931 200/932 197/933
f 196/934 197/935 193/936
f 203/937 204/938 201/939
f 205/940 208/941 207/942
f 201/943 202/944 203/945
f 207/946 206/947 205/948
f 201/949 205/950 206/951
f 201/952 206/953 202/954
f 202/955 206/956 207/957
f 202/958 207/959 203/960
f 203/961 207/962 208/963
f 203/964 208/965 204/966
f 204/967 208/968 205/969
f 204/970 205/971 201/972
f 211/973 212/974 209/975
f 213/976 216/977 215/978
f 209/979 210/980 211/981
f 215/982 214/983 213/984
f 209/985 213/986 214/987
f 209/988 214/989 210/990
f 210/991 214/992 215/993
f 210/994 215/995 211/996
f 211/997 215/998 216/999
f 211/1000 216/1001 212/1002
f 212/1003 216/1004 213/1005
f 212/1006 213/1007 209/1008
